<svg width="24" height="24" viewBox="0 0 24 24" fill="none" xmlns="http://www.w3.org/2000/svg">
<path fill-rule="evenodd" clip-rule="evenodd" d="M24 12C24 18.6274 18.6274 24 12 24C5.37255 24 0 18.6274 0 12C0 5.37255 5.37255 0 12 0C18.6274 0 24 5.37255 24 12Z" fill="#B2252A"/>
<path fill-rule="evenodd" clip-rule="evenodd" d="M14.3079 4.55198V19.4312C14.3079 19.9848 13.6387 20.262 13.2472 19.8706L10.0759 16.6992C9.92596 16.5493 9.84176 16.3461 9.84176 16.134V12.5983C9.84176 12.2673 9.57338 11.9989 9.24235 11.9989H6.85084C6.31163 11.9989 6.0418 11.3468 6.42335 10.9659L13.2755 4.12389C13.6567 3.74321 14.3079 4.01324 14.3079 4.55198Z" fill="#FFFFFE"/>
</svg>
