<svg width="24" height="24" viewBox="0 0 24 24" fill="none" xmlns="http://www.w3.org/2000/svg">
<g clip-path="url(#clip0)">
<path d="M24 12.002C24.0082 18.568 18.6867 24 12.002 24C5.31742 24 -0.00409111 18.5639 2.36003e-06 11.9939C0.00409583 5.42384 5.31742 0 12.0061 0C18.6949 0 24.0123 5.44022 24 12.002Z" fill="#FE9B00"/>
<path d="M21.2246 13.492C21.2041 13.4511 21.2205 13.4183 21.2205 13.3856C21.2901 12.6733 20.8357 12.0429 20.148 11.8956C19.6977 11.8014 19.2966 11.9283 18.9527 12.223C18.5352 12.5792 18.1381 12.9599 17.7451 13.3447C17.2662 13.8154 16.7968 14.2943 16.337 14.7815C16.0136 15.1253 15.637 15.3914 15.1867 15.5469C13.9178 15.9808 12.5301 15.3013 12.047 14.1224C11.9897 13.9791 11.9938 13.9505 12.1084 13.8522C12.3745 13.6189 12.6447 13.3897 12.9108 13.1564C12.9189 13.1482 12.9271 13.1441 12.9353 13.1359C12.9681 13.1154 12.9926 13.0663 13.0336 13.0868C13.0745 13.1072 13.0499 13.1523 13.054 13.185C13.0702 13.5015 13.1964 13.8024 13.411 14.0356C13.6255 14.2688 13.9148 14.4197 14.2289 14.4622C14.8797 14.5522 15.5306 14.1552 15.7271 13.5329C15.9604 12.7961 15.5715 12.0634 14.8183 11.8219C14.3598 11.6745 13.9423 11.7728 13.578 12.0757C13.2792 12.3213 12.9926 12.5792 12.702 12.8371C12.5096 13.009 12.3172 13.185 12.1207 13.3528C12.0458 13.4172 11.9952 13.5053 11.9775 13.6025C11.8219 14.3926 11.3798 14.982 10.6798 15.3709C10.2415 15.6154 9.73776 15.717 9.23892 15.6615C8.6964 15.6151 8.18359 15.3939 7.77755 15.0312C7.49047 14.7794 7.26619 14.464 7.1226 14.1101C7.11401 14.0931 7.10715 14.0753 7.10213 14.0569C7.08773 14.027 7.08435 13.9929 7.09258 13.9607C7.10082 13.9285 7.12014 13.9002 7.14716 13.8809C7.24131 13.8031 7.33137 13.7253 7.42551 13.6476C7.61791 13.4797 7.8103 13.3119 8.00679 13.1482C8.03954 13.1195 8.07228 13.0704 8.11322 13.0868C8.15415 13.1031 8.13778 13.1604 8.14187 13.2014C8.15135 13.5103 8.26357 13.8073 8.46078 14.0453C8.65799 14.2832 8.92893 14.4487 9.23073 14.5154C9.57199 14.5881 9.92812 14.5277 10.2264 14.3466C10.5246 14.1656 10.7424 13.8774 10.8354 13.5411C11.081 12.6365 10.3646 11.7441 9.43131 11.7891C9.14688 11.7975 8.87388 11.903 8.65765 12.088C8.39157 12.309 8.12959 12.5382 7.8717 12.7675C7.60563 13.0008 7.34365 13.2382 7.07757 13.4715C7.04189 13.5007 7.01338 13.5376 6.99422 13.5794C6.97505 13.6213 6.96576 13.667 6.96705 13.7131V15.4896C6.96705 15.6575 6.94249 15.682 6.77465 15.6779C6.61693 15.6779 6.46107 15.6438 6.31768 15.5781C6.17429 15.5124 6.04673 15.4166 5.94368 15.2972C5.86181 15.2031 5.84544 15.2031 5.73491 15.2645C5.32966 15.4896 4.89985 15.6124 4.43728 15.5961C3.4876 15.5633 2.76306 15.1335 2.27184 14.3189C2.04058 13.935 1.92147 13.494 1.92799 13.0458C1.92843 12.4575 2.13563 11.8881 2.51335 11.4371C2.89814 10.9663 3.38936 10.6593 3.9911 10.5611C4.79342 10.4342 5.53024 10.5816 6.14835 11.1424C6.34475 11.3214 6.51555 11.5266 6.65594 11.7523C6.67607 11.7976 6.71061 11.835 6.75419 11.8587C6.78421 11.8395 6.80868 11.8128 6.8252 11.7812C6.84171 11.7496 6.84969 11.7142 6.84834 11.6786C6.84424 11.2734 6.84834 10.8681 6.84834 10.4588C6.84834 9.53773 6.84697 8.61807 6.84424 7.69977C6.84424 7.51966 6.86471 7.49919 7.04892 7.49919C7.32055 7.49952 7.58255 7.59987 7.7849 7.78108C7.98725 7.96229 8.11578 8.21167 8.14597 8.48162C8.15413 8.5468 8.15823 8.61242 8.15825 8.67811V10.8272C8.16234 10.9254 8.18281 10.9377 8.27286 10.8927C8.53602 10.7533 8.82132 10.6605 9.11612 10.6184C9.84885 10.5161 10.5038 10.7003 11.0851 11.1587C11.2796 11.3151 11.4494 11.5 11.5886 11.7073C11.5967 11.7218 11.6063 11.7356 11.6172 11.7482C11.6459 11.7891 11.6704 11.8342 11.7237 11.8424C11.7523 11.8464 11.8342 11.74 11.8383 11.695C11.8452 11.6393 11.8479 11.5832 11.8465 11.5272V8.64945C11.8465 8.0559 12.2149 7.60971 12.8002 7.49919C12.8646 7.48408 12.9306 7.4772 12.9967 7.47872C13.0827 7.48281 13.1195 7.51556 13.14 7.59743C13.1536 7.662 13.1591 7.728 13.1564 7.79392V10.819C13.1646 10.8722 13.1809 10.8886 13.2341 10.8681C13.3037 10.8395 13.3733 10.8067 13.4429 10.7781C14.4253 10.3851 15.5265 10.6225 16.2388 11.3839C16.4778 11.6413 16.6641 11.9431 16.7873 12.2722L16.8118 12.3458C16.8528 12.4523 16.8651 12.4564 16.951 12.3786L18.1054 11.3593C18.4289 11.0643 18.8218 10.8559 19.2474 10.7535C19.8448 10.6136 20.4726 10.6934 21.0161 10.9782C21.5595 11.2631 21.9822 11.734 22.207 12.3049C22.2306 12.3516 22.2377 12.4048 22.2273 12.4561C22.2169 12.5073 22.1896 12.5535 22.1497 12.5874C21.8673 12.8657 21.593 13.1482 21.3106 13.4306C21.2865 13.4569 21.2572 13.4778 21.2246 13.492Z" fill="#191C31"/>
<path d="M20.1153 14.6015C20.1143 14.6171 20.1097 14.6322 20.1019 14.6457C20.0941 14.6592 20.0833 14.6707 20.0703 14.6793C19.7715 14.9781 19.4727 15.2769 19.1779 15.5799C19.1539 15.6081 19.1213 15.6277 19.0852 15.6359C19.049 15.644 19.0111 15.6401 18.9773 15.6249C18.2733 15.3629 17.7752 14.8867 17.4832 14.1963C17.4382 14.0939 17.4464 14.0612 17.5283 13.9916C17.8189 13.7378 18.1136 13.484 18.4043 13.2343C18.4226 13.2137 18.447 13.1994 18.4739 13.1934C18.5025 13.222 18.4943 13.2589 18.4984 13.2916C18.5131 13.4841 18.5616 13.6726 18.6417 13.8483C18.8341 14.2495 19.1616 14.4787 19.5832 14.581C19.6731 14.6016 19.7653 14.6098 19.8574 14.6056C19.9393 14.5974 20.0253 14.6015 20.1153 14.6015Z" fill="#191C31"/>
<path d="M5.84936 13.0788C5.86983 13.8074 5.24763 14.4419 4.49034 14.4501C4.12853 14.4519 3.78071 14.3104 3.52296 14.0565C3.26521 13.8026 3.1185 13.4569 3.11494 13.0951C3.10266 12.3501 3.68802 11.7115 4.49034 11.6951C5.23125 11.6788 5.85346 12.2846 5.84936 13.0788Z" fill="#FF9C00"/>
</g>
<defs>
<clipPath id="clip0">
<rect width="24" height="24" fill="white"/>
</clipPath>
</defs>
</svg>
