<svg width="24" height="24" viewBox="0 0 24 24" fill="none" xmlns="http://www.w3.org/2000/svg">
<g clip-path="url(#clip0)">
<path d="M13.1711 4.93099C13.1711 4.93099 13.1957 4.84089 13.2694 4.84089C13.3432 4.84089 13.5397 4.79994 13.5971 4.84089C13.6544 4.88185 13.6298 5.00471 13.5643 5.00471C13.4988 5.00471 13.1384 4.98833 13.1711 4.93099ZM15.1862 4.67707C15.3987 4.7828 15.6208 4.86783 15.8496 4.93099C15.8732 4.93503 15.8973 4.93343 15.9201 4.92631C15.9429 4.91919 15.9637 4.90676 15.9807 4.89004C16.0462 4.81632 16.1363 4.67707 16.0462 4.63611C15.9152 4.57058 15.7022 4.42314 15.3664 4.51325C15.0305 4.60335 15.137 4.66069 15.1862 4.67707ZM4.65237 9.85386C4.65237 9.85386 4.45578 9.86205 4.48855 9.6327C4.52131 9.40335 4.78343 9.12485 4.93906 9.01836C5.09469 8.91188 5.1766 8.82997 5.1766 8.66615C5.1766 8.50232 5.41414 8.37127 5.47148 8.28935C5.52882 8.20744 5.74179 8.10096 5.70902 8.24021C5.67626 8.37946 5.59435 8.43679 5.59435 8.617C5.59435 8.7972 5.62711 8.92007 5.71722 8.73168C5.80732 8.54328 6.36431 7.66683 6.9295 7.20813C7.49469 6.74942 8.24827 6.24157 8.34657 6.22519C8.44486 6.20881 8.5022 6.27434 8.5022 6.38082C8.5022 6.48731 8.23189 6.59379 8.10083 6.70847C7.96978 6.82314 6.36431 8.09277 5.90561 9.06751C5.81166 9.1982 5.70462 9.31896 5.58616 9.42792C5.43053 9.55898 5.40595 9.74738 5.19298 9.96034C4.98001 10.1733 4.98821 10.3945 4.88172 10.4272C4.77524 10.46 4.63599 10.3289 4.7179 10.0504C4.79981 9.77195 5.05373 9.59993 5.23394 9.39516C5.41414 9.19038 5.47967 9.01017 5.43053 9.01017C5.38138 9.01017 5.11926 9.06751 5.04554 9.27229C4.97182 9.47707 4.97182 9.56717 4.88172 9.64908C4.77524 9.74738 4.70971 9.86205 4.65237 9.85386ZM8.61687 6.10232C8.59745 6.11138 8.58056 6.12509 8.5677 6.14223C8.55484 6.15938 8.54641 6.17943 8.54315 6.20062C8.54068 6.22631 8.54642 6.25211 8.55954 6.27434C8.60868 6.33987 8.72336 6.29072 8.80527 6.217C8.98481 6.08765 9.17071 5.96736 9.36227 5.85659C9.36227 5.85659 8.82984 5.98765 8.61687 6.10232Z" fill="black"/>
<path d="M5.1606 10.7959C5.1606 10.7959 5.08688 10.9106 4.9804 10.7959C4.87391 10.6812 5.01316 10.4437 5.19337 10.2798C5.37357 10.116 5.88961 9.29691 6.02886 9.06756C6.38497 8.55873 6.80631 8.09883 7.2821 7.69964C7.82272 7.26551 8.78927 6.48736 9.28074 6.20886C9.77221 5.93036 10.4439 5.56176 11.1565 5.42251C11.8691 5.28326 13.3353 5.39794 15.1292 6.51193C15.1519 6.563 15.1534 6.62097 15.1334 6.67316C15.1135 6.72535 15.0737 6.76751 15.0227 6.79043C15.0227 6.79043 13.1879 5.64367 11.5988 5.70101C10.0097 5.75834 8.71555 6.815 7.5606 7.8307C6.40565 8.8464 6.53671 8.96108 6.38927 9.14128C6.24183 9.32149 5.77494 9.96858 5.69302 10.0833C5.61111 10.1979 5.349 10.6566 5.1606 10.7959ZM15.5879 5.57814C13.622 4.81637 12.3606 5.00476 11.992 5.08667C11.9806 5.08966 11.9705 5.09611 11.963 5.10513C11.9554 5.11415 11.9509 5.12529 11.95 5.137C11.9491 5.14871 11.9519 5.16041 11.9579 5.17048C11.964 5.18054 11.973 5.18847 11.9838 5.19316C12.0877 5.22451 12.1949 5.24374 12.3033 5.25049C12.7292 5.29145 13.1142 5.38155 13.3927 5.37336C13.6712 5.36517 14.3838 5.44708 14.8097 5.6109C15.2357 5.77473 15.4159 5.84026 15.4159 5.84026C15.4483 5.83964 15.48 5.83015 15.5074 5.81282C15.5349 5.7955 15.557 5.77099 15.5715 5.74196C15.6534 5.63548 15.5879 5.57814 15.5879 5.57814Z" fill="black"/>
<path d="M15.3831 6.01226C15.3831 6.01226 15.4568 6.27437 15.2111 6.29076C14.9654 6.30714 13.9661 5.70099 13.5811 5.66004C13.1961 5.61908 13.4582 5.37335 13.9579 5.5126C14.4575 5.65185 15.3831 6.01226 15.3831 6.01226ZM14.0398 4.76721C14.0288 4.77112 14.0193 4.77834 14.0126 4.78787C14.0058 4.79741 14.0022 4.80878 14.0022 4.82045C14.0022 4.83211 14.0058 4.84349 14.0126 4.85303C14.0193 4.86256 14.0288 4.86978 14.0398 4.87369C14.1783 4.93563 14.3242 4.97966 14.4739 5.00475C14.7033 5.02113 15.3258 5.21772 15.6207 5.37335C15.8091 5.47164 15.9073 5.12762 15.7845 5.08666C15.5633 5.00475 15.0063 4.79178 14.8343 4.75083C14.6787 4.70987 14.2691 4.6853 14.0398 4.76721ZM10.6405 6.29895C13.2862 5.93854 14.6623 7.23273 14.8343 7.19997C15.0063 7.16721 14.9572 6.97881 14.9572 6.97881C14.2937 6.42181 12.6719 5.76652 11.1647 5.95492C9.65752 6.14332 8.8466 7.13444 8.54353 7.31465C8.24046 7.49485 7.99472 7.87983 7.75718 8.10918C7.51964 8.33853 7.17561 8.41225 7.07732 8.49417C6.97902 8.57608 5.59472 10.6239 5.41452 10.845C5.23431 11.0662 5.18517 11.271 5.3408 11.3529C5.49643 11.4348 5.59472 11.1727 5.59472 11.1727C5.59472 11.1727 6.32373 9.97676 6.48755 9.78836C6.65138 9.59997 7.1838 8.77266 7.29028 8.64161C7.39677 8.51055 7.51964 8.53512 7.47868 8.64161C7.43773 8.74809 6.59404 9.96857 6.43841 10.157C6.28278 10.3454 5.60291 11.2791 5.56196 11.615C5.521 11.9508 5.76674 12.0082 5.95513 11.5658C6.14353 11.1235 6.43022 10.501 6.54489 10.3781C6.65957 10.2553 7.07732 9.78836 7.1838 9.57539C7.29028 9.36242 7.75718 8.51055 8.12578 8.10099C8.49747 7.70768 8.90618 7.35108 9.34626 7.03615C9.56386 6.88317 9.79404 6.7489 10.0343 6.63478C10.1572 6.57744 10.3701 6.33171 10.6405 6.29895Z" fill="black"/>
<path d="M7.73242 8.96117C7.73242 8.96117 8.37133 7.99462 9.05119 7.52773C9.73106 7.06083 10.1242 6.73319 10.3372 6.65128C10.5502 6.56937 11.2792 6.19258 12.9338 6.56937C14.5884 6.94616 14.785 7.48677 14.7113 7.59325C14.6375 7.69974 14.3754 7.53592 13.9986 7.33114C13.6218 7.12636 12.9092 6.80691 12.3358 6.82329C11.7625 6.83967 10.6321 7.23285 10.5584 7.29838C10.4846 7.3639 10.4764 7.16732 10.673 7.12636C10.8696 7.08541 10.9925 6.92978 11.1154 6.91339C11.2382 6.89701 11.4184 6.85606 11.4184 6.75776C11.4184 6.65947 11.0089 6.67585 10.8041 6.75776C10.5993 6.83967 9.80478 7.29018 9.65734 7.3721C9.5099 7.45401 9.31331 7.51134 9.28054 7.63421C9.24778 7.75708 9.00205 8.04377 8.87918 8.1093C8.75631 8.17482 8.14198 8.6581 8.07645 8.77277C8.04821 8.83796 7.99906 8.89187 7.93675 8.92599C7.87445 8.96011 7.80255 8.97249 7.73242 8.96117Z" fill="black"/>
<path d="M9.00195 8.19911C9.00195 8.19911 9.08386 8.32198 9.42789 8.05987C9.77192 7.79775 9.81287 7.74041 9.84564 7.74041C9.8784 7.74041 9.7883 7.60936 9.72277 7.66669C9.65724 7.72403 9.01014 8.08444 9.00195 8.19911ZM9.95212 7.98615C9.95212 7.98615 9.85383 7.96157 10.0422 7.82232C10.2306 7.68308 11.4675 6.94588 12.3603 6.99502C13.2531 7.04417 14.2852 7.5684 14.4654 7.72403C14.6456 7.87966 14.5146 8.19092 14.4654 8.17454C14.4163 8.15816 13.3023 7.31448 12.5323 7.2899C11.7624 7.26533 10.9842 7.56021 10.6648 7.76499C10.3453 7.96976 10.2306 8.04348 9.95212 7.98615Z" fill="black"/>
<path d="M10.9514 7.93694C10.9422 7.93442 10.9339 7.92933 10.9274 7.92227C10.9209 7.91521 10.9166 7.90647 10.9149 7.89705C10.9132 7.88763 10.9142 7.87792 10.9177 7.86904C10.9213 7.86015 10.9273 7.85246 10.935 7.84684C11.1978 7.66979 11.4934 7.54737 11.8044 7.48686C12.1154 7.42635 12.4353 7.42899 12.7453 7.49463C13.8511 7.73217 14.3098 8.2564 14.3344 8.37926C14.3589 8.50213 14.318 8.78882 14.1542 8.73148C13.9903 8.67414 13.4579 7.86322 12.5978 7.78951C11.7705 7.71579 11.5821 8.08438 10.9514 7.93694Z" fill="black"/>
<path d="M12.0901 8.13363L11.9918 8.10087C11.9754 8.09268 11.9836 8.0763 11.9918 8.0763C12.1311 8.04353 12.598 7.95343 13.0239 8.10906C13.3268 8.23414 13.6002 8.42106 13.8266 8.65787C13.8306 8.66173 13.8331 8.66681 13.8338 8.67228C13.8344 8.67774 13.8333 8.68328 13.8304 8.68801C13.8276 8.69273 13.8233 8.69637 13.8181 8.69833C13.813 8.70029 13.8073 8.70046 13.8021 8.69882L12.0901 8.13363ZM6.12697 12.3111C6.12697 12.3111 6.07782 12.4667 5.93857 12.3521C5.79932 12.2374 5.88943 12.0572 5.93857 11.9261C5.98772 11.7951 6.36451 11.0251 6.45461 10.935C6.54472 10.8449 6.88055 10.4435 6.88055 10.3534C6.88055 10.2633 6.97066 10.6074 6.62663 11.1316C6.29898 11.6558 6.43004 11.7951 6.12697 12.3111ZM6.42185 12.8272C6.42185 12.8272 6.3727 12.9336 6.2826 12.8272C6.1925 12.7207 6.27441 12.4667 6.38089 12.2128C6.48738 11.9589 6.63482 11.3855 6.70854 11.2708C6.78226 11.1562 6.79045 11.4101 6.79045 11.4838C6.79045 11.5575 6.81502 11.9589 6.67578 12.3029C6.6099 12.4861 6.52479 12.6619 6.42185 12.8272ZM6.84779 13.3268C6.84779 13.3268 6.7495 13.4906 6.62663 13.294C6.58486 13.2278 6.56269 13.1512 6.56269 13.0729C6.56269 12.9946 6.58486 12.9179 6.62663 12.8517C6.66758 12.778 6.72492 12.5405 6.75769 12.4995C6.79045 12.4585 6.83141 12.5568 6.84779 12.6797C6.86417 12.8026 6.93789 12.9418 6.93789 12.9992C6.93789 13.0565 6.92151 13.2449 6.84779 13.3268ZM7.08533 13.5234C7.07029 13.4766 7.04819 13.4324 7.0198 13.3923C6.99523 13.376 6.91332 13.4824 6.90513 13.5644C6.89694 13.6463 6.98704 13.679 6.99523 13.7527C7.00342 13.8265 7.06895 13.7364 7.08533 13.6545C7.09528 13.6113 7.09528 13.5665 7.08533 13.5234ZM7.33926 11.0661C7.42079 10.6064 7.61813 10.1751 7.91264 9.81282C8.38772 9.25582 8.60888 9.16572 8.60888 9.16572C8.60888 9.16572 8.67441 9.14933 8.64165 9.28039C8.60888 9.41145 8.36315 9.71452 8.32219 9.80462C8.28124 9.89473 7.98636 10.1896 7.98636 10.2388C7.98636 10.2879 8.11741 10.2469 8.1338 10.2715C8.15018 10.2961 8.20752 10.3289 8.1338 10.5009C8.06008 10.6729 7.77339 11.279 7.7652 11.4101C7.757 11.5411 7.33107 12.5241 7.29011 12.5241C7.24915 12.5241 7.15905 12.5159 7.16724 12.2128C7.17543 11.9097 7.62595 10.7712 7.74881 10.5828C7.87168 10.3944 7.87987 10.3944 7.83072 10.4026C7.78158 10.4108 7.47851 10.7384 7.43755 10.9678C7.39659 11.1971 7.33926 11.0661 7.33926 11.0661ZM8.48601 10.9923C8.48601 10.9923 8.37134 11.2626 8.1338 11.2463C7.89625 11.2299 8.25666 10.6319 8.314 10.378C8.37134 10.1241 8.81366 9.14933 8.90376 9.06742C8.99386 8.98551 9.2396 8.88722 9.28055 8.96913C9.32151 9.05104 9.1495 9.16572 9.05939 9.34592C8.96929 9.52613 8.69079 10.034 8.66622 10.2142C8.64165 10.3944 8.48601 10.9923 8.48601 10.9923Z" fill="black"/>
<path d="M8.25671 11.566C8.26442 11.5461 8.26797 11.5249 8.26715 11.5036C8.26633 11.4824 8.26116 11.4615 8.25194 11.4423C8.24273 11.4231 8.22968 11.406 8.21359 11.3921C8.1975 11.3781 8.17873 11.3676 8.15842 11.3612C8.00279 11.2957 7.9946 11.3448 7.92088 11.4677C7.84716 11.5906 7.37207 12.7373 7.37207 12.9093C7.37207 13.0813 7.42122 13.4008 7.47856 13.4499C7.53589 13.4991 7.59323 13.409 7.59323 13.2861C7.61269 13.1351 7.67525 12.9929 7.77344 12.8766C7.82229 12.8087 7.8563 12.7314 7.87323 12.6495C7.89017 12.5676 7.88966 12.4831 7.87173 12.4015C7.83896 12.2049 8.15023 11.8854 8.15023 11.8854C8.15156 12.1152 8.14062 12.3449 8.11746 12.5735C8.0847 12.7783 7.87173 12.9421 7.82258 13.0322C7.77344 13.1223 7.74886 13.4745 7.70791 13.581C7.66719 13.7108 7.65876 13.8486 7.68333 13.9824C7.70791 14.0889 7.77344 14.351 7.81439 14.1626C7.85535 13.9742 8.00279 13.4172 8.04374 13.4254C8.0847 13.4336 8.07651 14.0397 8.05193 14.1626C8.02736 14.2854 7.9946 14.8834 7.9946 14.9571C7.9946 15.0308 7.77344 15.3667 7.73248 15.4895C7.69152 15.6124 7.44579 16.0629 7.44579 16.0875C7.44579 16.1121 7.69152 16.0875 7.84716 15.9646C7.9061 15.9133 7.95394 15.8506 7.98774 15.7801C8.02155 15.7097 8.0406 15.6331 8.04374 15.5551C8.04374 15.4568 8.02736 15.2192 8.0847 15.08C8.14204 14.9407 8.28948 14.6131 8.31405 14.482C8.33457 14.1465 8.33457 13.81 8.31405 13.4745C8.29767 13.2861 8.33862 12.4916 8.39596 12.3278C8.4533 12.1639 8.46149 12.082 8.50245 12.082C8.5434 12.082 8.51883 12.5817 8.50245 12.7373C8.48606 12.893 8.44511 13.4008 8.44511 13.4745C8.37505 14.1008 8.47405 14.7343 8.7318 15.3093C8.7318 15.3093 8.77275 15.4895 8.96934 15.3667C9.16593 15.2438 8.87924 14.695 8.83009 14.5394C8.78094 14.3837 8.61712 13.5728 8.67446 13.4581C8.7318 13.3435 9.05944 14.5885 9.06763 14.7114C9.07582 14.8342 9.11678 15.2192 9.18231 15.2274C9.24784 15.2356 9.51815 15.0718 9.51815 15.039C9.51781 14.9517 9.49221 14.8664 9.44443 14.7933C9.37071 14.6704 8.97753 13.6629 8.90381 12.8274C8.83009 11.9919 8.96115 10.5667 9.02668 10.4192C9.09221 10.2718 9.39528 9.60012 9.469 9.49363C9.54272 9.38715 9.75569 8.94483 9.79664 8.92844C9.8376 8.91206 9.87856 8.91206 9.87856 8.96121C9.82847 9.1312 9.7683 9.29805 9.69835 9.46087C9.6492 9.60012 9.38709 10.0179 9.33794 10.1571C9.18822 10.5996 9.09465 11.0592 9.05944 11.525C8.98572 12.2622 9.15774 13.5073 9.20688 13.753C9.25603 13.9988 9.56729 14.8342 9.73931 14.908C9.91132 14.9817 10.0588 14.7605 10.0342 14.7196C10.0096 14.6786 9.6492 14.0233 9.56729 13.753C9.48538 13.4827 9.33794 12.8356 9.36251 12.6882C9.38709 12.5407 9.57548 13.9168 10.2226 14.6377C10.2226 14.6377 10.3045 14.6868 10.4519 14.5885C10.5994 14.4902 10.5912 14.4083 10.4519 14.2527C10.3127 14.097 9.8376 13.1796 9.77207 12.9421C9.70654 12.7046 9.41985 11.9182 9.40347 11.8936C9.3721 11.6151 9.38314 11.3334 9.43623 11.0581C9.50995 10.7141 9.61644 10.2308 9.62463 10.0998C9.63282 9.96872 9.84579 9.67384 9.89494 9.60831C9.94409 9.54278 10.0588 9.23152 10.1161 9.01036C10.1734 8.7892 10.2881 8.64176 10.1898 8.62537C10.0915 8.60899 9.73112 8.66633 9.66559 8.74005C9.60006 8.81377 9.33794 8.9694 8.78094 10.239C8.78094 10.239 8.62531 10.5339 8.62531 10.7059C8.62522 10.9287 8.55659 11.146 8.42873 11.3284C8.38205 11.4148 8.32422 11.4947 8.25671 11.566Z" fill="black"/>
<path d="M8.38752 14.9326C8.36815 14.9293 8.34833 14.9299 8.32918 14.9343C8.31004 14.9387 8.29196 14.9469 8.27597 14.9583C8.25999 14.9697 8.24642 14.9842 8.23604 15.0009C8.22566 15.0175 8.21869 15.0361 8.21551 15.0555C8.19882 15.2078 8.19334 15.3611 8.19913 15.5142C8.19093 15.5961 8.09264 15.8009 8.11721 15.8173C8.14179 15.8336 8.33018 15.7845 8.42029 15.678C8.52143 15.5676 8.58208 15.4261 8.5923 15.2766C8.5923 15.1374 8.54315 14.9326 8.38752 14.9326ZM10.7466 8.82205C10.7466 8.82205 10.8694 8.67461 10.8367 8.64185C10.8039 8.60908 10.6237 8.5026 10.5582 8.58451C10.3908 8.82094 10.2584 9.08026 10.165 9.35447C10.0995 9.6002 9.73906 10.2964 9.70629 10.4439C9.62508 10.8903 9.61954 11.3472 9.68991 11.7954C9.7882 12.4999 10.4025 13.9333 10.6728 14.2364C10.9432 14.5394 11.2053 14.2364 11.2053 14.2364L11.0005 13.9988C11.0005 13.9988 10.4926 13.0814 10.4271 12.9749C10.3616 12.8685 10.0094 12.0657 10.0339 11.8036C10.0585 11.5415 10.1158 11.1811 10.0257 10.8371C9.93564 10.493 10.3452 9.64935 10.4107 9.52649C10.4763 9.42 10.7466 8.82205 10.7466 8.82205Z" fill="black"/>
<path d="M10.5258 10.6239C10.5317 10.4927 10.5565 10.3631 10.5995 10.2389C10.6568 10.0751 10.7223 9.80481 10.5995 9.73928C10.4766 9.67375 10.2636 9.7229 10.2636 10.1816C10.2636 10.6403 10.1572 11.1645 10.2636 11.8526C10.3701 12.5406 10.8862 13.7529 11.5742 14.3755C12.2623 14.998 12.1394 14.785 12.4752 15.0881C12.8111 15.3912 14.5148 15.7106 14.9899 15.6533C15.465 15.5959 15.5879 15.3666 15.6124 15.2847C15.637 15.2028 15.5715 15.0635 15.5059 15.129C15.4404 15.1946 15.0882 15.514 13.9333 15.2601C12.7783 15.0062 12.4752 14.7195 12.4097 14.6622C12.3442 14.6048 11.6971 13.9413 11.6234 13.8758C11.5496 13.8103 10.8042 12.7946 10.8042 12.6471C10.8042 12.4997 11.7708 14.3427 13.0568 14.8342C14.3428 15.3256 14.8179 15.2437 15.0636 15.1618C15.3094 15.0799 15.5633 15.0062 15.5633 14.9161C15.5633 14.826 15.5551 14.654 15.4732 14.654C15.3913 14.654 14.908 14.9407 14.6786 14.9161C14.4493 14.8915 14.1135 14.7441 13.8022 14.7441C13.4909 14.7441 12.8356 14.3591 12.6718 14.2034C12.508 14.0478 11.6397 13.6055 10.8042 11.8116C10.7961 11.8198 10.4848 10.8942 10.5258 10.6239Z" fill="black"/>
<path d="M12.7864 15.4157C12.7864 15.4157 12.4424 15.1864 12.3769 15.1946C12.3113 15.2027 12.3195 15.3174 12.3277 15.4403C12.3359 15.5632 12.3851 15.6942 12.467 15.7106C12.5489 15.727 12.77 15.6778 12.8192 15.7106C13.2144 15.9098 13.6468 16.0242 14.0888 16.0464C14.7523 16.071 14.8834 16.0956 15.0718 16.0792C15.2601 16.0628 15.5796 15.9481 15.6042 15.8744C15.6287 15.8007 15.6124 15.5713 15.5468 15.5713C15.4813 15.5713 15.4076 15.899 14.1543 15.7516C12.9175 15.5877 12.7864 15.4157 12.7864 15.4157Z" fill="black"/>
<path d="M12.9504 15.9235C12.9504 15.9235 12.6964 15.7433 12.6227 15.817C12.549 15.8908 12.5326 16.1119 12.7865 16.1692C13.0405 16.2266 13.6138 16.3904 13.7449 16.415C14.0017 16.4629 14.2619 16.4903 14.523 16.4969C14.8015 16.4969 15.08 16.3658 15.1947 16.3658C15.3094 16.3658 15.6534 16.3658 15.6698 16.2921C15.6716 16.2057 15.6577 16.1197 15.6288 16.0382C15.6207 16.0054 15.5224 16.0136 15.4568 16.0464C15.2456 16.13 15.0258 16.1904 14.8015 16.2266C14.4255 16.2487 14.0482 16.2212 13.6794 16.1447C13.4318 16.0869 13.1883 16.013 12.9504 15.9235Z" fill="black"/>
<path d="M15.4156 16.6361C15.4156 16.6361 14.8914 16.9966 13.4333 16.7672C11.9753 16.5379 12.3521 15.9645 12.3849 15.989C12.4176 16.0136 12.5405 16.1856 12.6306 16.2184C12.7207 16.2512 13.8101 16.6116 14.1132 16.6198C14.4163 16.628 14.8094 16.6116 14.9815 16.5542C15.1535 16.4969 15.3828 16.3495 15.4729 16.4723C15.563 16.5788 15.4156 16.6361 15.4156 16.6361Z" fill="black"/>
<path d="M12.5734 16.6526C12.5734 16.6526 12.4424 16.5625 12.4424 16.6526C12.4488 16.7172 12.4717 16.779 12.5091 16.8321C12.5464 16.8852 12.5968 16.9278 12.6554 16.9557C12.7698 17.0133 12.8958 17.0441 13.024 17.0458C13.1789 17.0581 13.3296 17.1028 13.4663 17.1768C13.5891 17.2342 14.0233 17.4062 14.7769 17.2669C15.5304 17.1277 15.7188 16.9475 15.7516 16.8983C15.7762 16.8239 15.7762 16.7434 15.7516 16.669C15.7352 16.5871 15.6779 16.5543 15.6123 16.6198C15.5468 16.6853 15.1045 17.0785 14.0233 17.0048C12.942 16.9311 12.5734 16.6526 12.5734 16.6526Z" fill="black"/>
<path d="M13.3104 17.2424C13.3104 17.2424 13.2203 17.1113 12.9745 17.1768C12.7288 17.2424 13.6052 17.7093 13.6544 17.7502C13.7035 17.7912 13.7609 17.8158 13.9738 17.7912C14.1868 17.7666 14.793 17.7339 15.0059 17.6847C15.2189 17.6356 15.6448 17.5127 15.7759 17.3489C15.907 17.185 15.8578 17.0785 15.7349 17.0949C15.6121 17.1113 14.8585 17.5782 14.1049 17.5127C13.3513 17.4472 13.3104 17.2424 13.3104 17.2424Z" fill="black"/>
<path d="M14.3589 17.9057C14.3589 17.9057 13.9903 17.9139 14.0067 17.9876C14.0385 18.0522 14.0892 18.1057 14.1521 18.1408C14.215 18.1759 14.2872 18.1911 14.3589 18.1842C14.5227 18.1514 15.4401 18.004 15.6285 17.9057C15.8169 17.8074 15.9726 17.7828 15.9726 17.6681C15.9726 17.5534 15.9398 17.4224 15.8579 17.447C15.776 17.4715 14.9814 17.9794 14.3589 17.9057ZM15.0879 18.2333C15.0879 18.2333 14.6865 18.3644 14.6865 18.4053C14.6865 18.4463 14.8504 18.6347 14.9814 18.6265C15.1125 18.6183 15.3992 18.4299 15.5466 18.3808C15.6941 18.3316 16.0463 18.2825 16.0627 18.1842C16.0754 18.0823 16.0553 17.979 16.0053 17.8893C15.9783 17.877 15.949 17.8707 15.9193 17.8707C15.8896 17.8707 15.8603 17.877 15.8333 17.8893C15.776 17.922 15.219 18.2251 15.0879 18.2333ZM15.4729 18.8558C15.4282 18.8776 15.3792 18.8889 15.3295 18.8889C15.2799 18.8889 15.2309 18.8776 15.1862 18.8558C15.0306 18.7821 15.0879 18.692 15.219 18.6265C15.35 18.561 15.5958 18.4709 15.6859 18.4299C15.776 18.3889 16.0217 18.2988 16.0627 18.3316C16.1058 18.3767 16.1344 18.4338 16.1446 18.4954C16.1446 18.5364 15.4729 18.8558 15.4729 18.8558ZM15.6941 19.2244C15.6941 19.2244 15.4483 19.0934 15.4483 19.0606C15.4646 19.0275 15.4889 18.999 15.5189 18.9776C15.5489 18.9561 15.5838 18.9425 15.6203 18.9377C15.6941 18.9377 16.1937 18.733 16.1937 18.733C16.1937 18.733 16.3248 18.8558 16.3248 18.9787C16.3248 19.1016 15.7923 19.2408 15.6941 19.2244ZM16.3248 19.4947C16.2544 19.508 16.1822 19.508 16.1118 19.4947C16.0381 19.4702 15.9398 19.3637 15.907 19.3637C15.8743 19.3637 15.9807 19.2982 16.0627 19.29C16.1446 19.2818 16.2838 19.2326 16.333 19.2244C16.3821 19.2162 16.4476 19.2818 16.4476 19.3637C16.4476 19.4456 16.3248 19.4947 16.3248 19.4947ZM11.3773 8.90362C11.4297 8.85435 11.4764 8.79941 11.5166 8.7398C11.5166 8.71522 11.2627 8.55959 11.1398 8.58416C11.0169 8.60874 10.5992 9.42785 10.7302 10.5664C10.8613 11.705 11.1562 12.8763 12.7616 14.1377C13.0707 14.3856 13.4305 14.5625 13.8155 14.656C14.2005 14.7494 14.6013 14.757 14.9896 14.6784C14.9896 14.6784 15.1043 14.5719 14.9405 14.5637C14.7766 14.5555 13.9166 14.3999 13.6299 14.2688C13.3432 14.1377 12.7207 13.5398 12.6224 13.4988C12.5241 13.4579 11.7869 12.6961 11.7705 12.606C11.7541 12.5159 11.4674 11.9999 11.4019 11.7541C11.3364 11.5084 11.1726 10.4763 11.1234 10.2797C11.0743 10.0831 11.0251 9.76369 11.0415 9.64901C11.0579 9.53434 11.2381 9.06744 11.3773 8.90362Z" fill="black"/>
<path d="M11.9426 9.02669C11.9426 9.02669 12.09 8.98573 12.0982 8.93658C12.1064 8.88744 12.0818 8.77276 11.8853 8.74C11.6887 8.70723 11.5003 8.84648 11.3692 9.1987C11.2382 9.55092 11.2955 10.2963 11.4675 10.755C11.6395 11.2137 11.5412 11.5823 11.8607 12.1967C12.1801 12.811 12.1719 12.811 12.2948 12.9093C12.4177 13.0076 13.0074 13.581 13.0975 13.6711C13.1876 13.7612 13.7119 14.1052 13.8102 14.1052C13.9085 14.1052 13.9576 13.9414 13.9494 13.8595C13.9412 13.7775 13.933 13.7366 13.7938 13.7284C13.6545 13.7202 13.4579 13.4909 13.4579 13.4909C13.4579 13.4909 12.7126 12.7864 12.6552 12.7536C12.5979 12.7209 11.9917 12.0328 11.9917 11.9509C11.9917 11.869 11.9999 11.7543 12.0491 11.8199C12.0982 11.8854 12.4504 12.3932 12.6798 12.6062C12.9091 12.8192 13.6382 13.4335 13.8102 13.5072C13.9822 13.581 14.0641 13.5891 14.0805 13.4499C14.0969 13.3106 14.1788 13.2451 14.2525 13.2861C14.3262 13.327 14.875 13.6465 15.047 13.6219C15.219 13.5973 15.473 13.3434 15.5549 13.3598C15.6368 13.3762 15.4074 13.6301 15.3337 13.6711C15.26 13.712 15.391 13.8021 15.4156 13.8185C15.461 13.8431 15.5128 13.8532 15.5641 13.8473C15.6154 13.8415 15.6637 13.82 15.7023 13.7857C15.8334 13.6711 15.8498 13.5154 15.7596 13.3106C15.6695 13.1059 15.645 12.7618 15.6204 12.6963C15.5958 12.6308 15.5631 12.5325 15.4975 12.6963C15.432 12.8601 15.3091 13.196 14.8832 13.2124C14.3778 13.2536 13.8738 13.1175 13.4579 12.8274C12.9337 12.4833 12.303 12.0083 11.8115 10.6076C11.3201 9.20689 11.9426 9.02669 11.9426 9.02669Z" fill="black"/>
<path d="M15.4322 12.0083C15.4106 11.998 15.3862 11.9948 15.3627 11.9992C15.3391 12.0036 15.3176 12.0154 15.3011 12.0329C15.2766 12.0738 15.2438 11.8854 15.2929 11.7052C15.3421 11.525 15.3011 11.2547 15.2438 11.2711C15.1865 11.2875 14.7441 11.9919 14.2527 11.7216C13.7612 11.4513 13.1469 10.6814 12.9749 10.3373C12.8028 9.9933 12.5899 9.60012 12.6226 9.37077C12.6226 9.37077 12.6472 9.19057 12.6554 9.14142C12.6636 9.09227 12.5571 8.89569 12.426 8.94483C12.295 8.99398 11.9755 9.17419 11.9346 9.30524C11.8936 9.4363 11.7626 9.55917 11.8281 9.93596C11.8936 10.3128 12.0902 10.796 12.1639 11.0172C12.2377 11.2384 12.467 11.738 12.7127 11.9592C12.9585 12.1803 13.4417 12.6145 13.6547 12.7128C13.8677 12.811 14.3182 13.1469 14.8998 13.0158C15.4813 12.8848 15.4895 12.3032 15.4895 12.2459C15.4841 12.164 15.4647 12.0837 15.4322 12.0083ZM12.8766 11.8363C12.852 11.8035 12.5653 11.3612 12.5325 11.3366C12.6881 11.4522 12.8334 11.581 12.9667 11.7216C13.1305 11.91 13.2779 12.1312 13.2779 12.1967C13.2779 12.1967 12.9011 11.8691 12.8766 11.8363ZM14.5967 12.5244C14.138 12.508 13.966 12.3032 13.8431 12.2295C13.7202 12.1558 13.4008 11.7462 13.1305 11.4677C12.8602 11.1892 12.6472 10.9517 12.5571 10.7796C12.467 10.6076 12.2295 9.76395 12.2049 9.66565C12.1803 9.56736 12.3359 9.48545 12.3359 9.5346C12.3397 9.62272 12.3506 9.71039 12.3687 9.79671C12.3523 10.2063 12.8438 10.9271 12.9093 11.0663C12.9749 11.2056 13.54 11.8199 14.0397 12.1558C14.5394 12.4916 14.867 12.3114 14.9489 12.2786C15.0308 12.2459 15.1209 12.2459 15.1455 12.2786C15.1701 12.3114 15.0554 12.5407 14.5967 12.5244Z" fill="black"/>
<path d="M15.1864 10.8776C15.1126 10.8776 14.9488 11.0742 14.9242 10.9595C14.8997 10.8449 15.0389 10.5991 15.0389 10.3698C15.0389 10.1404 14.9898 9.7063 14.8833 9.49333C14.7768 9.28036 14.6703 9.09197 14.4819 9.20664C14.2935 9.32132 14.3918 9.41142 14.4737 9.51791C14.5556 9.62439 14.7604 9.86193 14.7604 10.1404C14.7604 10.4189 14.7195 10.7793 14.613 10.8039C14.5065 10.8285 14.2526 10.7466 14.0232 10.5664C13.7782 10.3829 13.5506 10.1772 13.3434 9.95204C13.2696 9.84555 13.1222 9.59982 13.1632 9.55886C13.2041 9.51791 13.2696 9.50152 13.3352 9.6162C13.4007 9.73088 13.7201 10.0667 13.8021 10.1486C13.939 10.2855 14.0839 10.414 14.2362 10.5336C14.3345 10.5991 14.4574 10.7138 14.5475 10.5664C14.6376 10.4189 14.6539 10.0667 14.5802 9.93565C14.5065 9.8046 14.3836 9.57524 14.3427 9.51791C14.3017 9.46057 14.2362 9.36228 14.0969 9.41961C13.9577 9.47695 13.9659 9.59163 14.015 9.63258C14.0642 9.67354 14.2853 9.82917 14.3017 9.93565C14.3181 10.0421 14.3672 10.2305 14.2853 10.1404C14.2034 10.0503 13.9905 9.75545 13.9331 9.72268C13.8758 9.68992 13.4826 9.44419 13.4826 9.44419C13.4826 9.44419 13.0075 9.2476 12.9748 9.19845C12.942 9.14931 12.8437 9.14112 12.9174 9.41961C12.9911 9.69811 13.0403 10.0339 13.2451 10.2879C13.3599 10.4207 13.4438 10.5774 13.4908 10.7466C13.5318 10.8694 13.9413 11.4756 14.4655 11.6066C14.9898 11.7377 15.1782 11.1316 15.2027 11.0824C15.2273 11.0333 15.2601 10.8776 15.1864 10.8776ZM14.6867 11.2462C14.6703 11.3691 14.441 11.238 14.3427 11.2462C14.2444 11.2544 14.0642 11.0906 13.9495 10.9595C13.8348 10.8285 13.7447 10.6892 13.7775 10.6729C13.8103 10.6565 13.9577 10.8367 14.1051 10.9186C14.2526 11.0005 14.4492 11.1152 14.5802 11.0988C14.7113 11.0824 14.6867 11.2462 14.6867 11.2462ZM15.8089 13.8346C15.8089 13.8346 15.7024 13.9575 15.7024 14.0066C15.7024 14.0558 15.7597 14.0804 15.7597 14.1295C15.7597 14.1787 15.8007 14.2032 15.858 14.1623C15.9154 14.1213 15.9154 14.0722 15.9072 14.0066C15.899 13.9411 15.9154 13.8101 15.8089 13.8346ZM15.9154 14.2688C15.9154 14.2688 15.8089 14.3343 15.8089 14.4162C15.8048 14.4844 15.8048 14.5528 15.8089 14.621C15.8137 14.6345 15.8226 14.6461 15.8344 14.6544C15.8461 14.6626 15.8601 14.6671 15.8744 14.6671C15.8888 14.6671 15.9027 14.6626 15.9145 14.6544C15.9262 14.6461 15.9351 14.6345 15.9399 14.621C15.9727 14.5554 16.0137 14.5145 15.9809 14.4326C15.9481 14.3671 15.9809 14.2114 15.9154 14.2688ZM15.9973 15.0633C15.9973 15.0633 15.8498 15.1698 15.858 15.1124C15.8662 15.0551 15.8744 14.8094 15.9236 14.8012C15.9727 14.793 15.9727 14.6947 16.0546 14.8421C16.1365 14.9896 16.0792 15.0142 15.9973 15.0633ZM16.1202 15.2517C16.1202 15.2517 16.1611 15.0961 16.0464 15.1944C15.9318 15.2927 15.899 15.2599 15.9072 15.3254C15.9154 15.3909 15.9399 15.5056 16.0055 15.4892C16.0546 15.4729 16.1693 15.4974 16.1202 15.2517ZM16.1857 15.5793C16.1857 15.5793 15.9973 15.6694 16.0137 15.7759C16.03 15.8824 16.1202 15.9889 16.1611 15.9889C16.2021 15.9889 16.2676 15.8742 16.243 15.7841C16.2184 15.694 16.2512 15.5384 16.1857 15.5793Z" fill="black"/>
<path d="M11.9997 1.6958C9.96172 1.6958 7.96947 2.30015 6.27491 3.43241C4.58036 4.56468 3.25961 6.17401 2.4797 8.0569C1.69978 9.93978 1.49572 12.0117 1.89331 14.0105C2.29091 16.0094 3.27231 17.8455 4.71341 19.2866C6.15452 20.7277 7.99059 21.7091 9.98945 22.1067C11.9883 22.5043 14.0602 22.3002 15.9431 21.5203C17.826 20.7404 19.4353 19.4196 20.5676 17.7251C21.6998 16.0305 22.3042 14.0383 22.3042 12.0002C22.3045 10.6469 22.0382 9.30685 21.5205 8.05651C21.0027 6.80618 20.2437 5.6701 19.2868 4.71318C18.3299 3.75626 17.1938 2.99725 15.9435 2.47952C14.6931 1.96179 13.353 1.69548 11.9997 1.6958ZM11.9997 21.6166C10.097 21.6174 8.23674 21.054 6.65421 19.9975C5.07168 18.9411 3.83796 17.4391 3.10906 15.6815C2.38016 13.9239 2.18882 11.9896 2.55924 10.1233C2.92965 8.25695 3.84518 6.54235 5.19006 5.19633C6.53493 3.85031 8.24874 2.93332 10.1148 2.56132C11.9808 2.18932 13.9152 2.37901 15.6735 3.10641C17.4317 3.83382 18.9347 5.06626 19.9925 6.64788C21.0503 8.22951 21.6153 10.0893 21.6161 11.992C21.6171 13.2555 21.3691 14.5068 20.8863 15.6745C20.4034 16.8421 19.6953 17.9031 18.8022 18.7969C17.9092 19.6907 16.8487 20.3998 15.6815 20.8836C14.5143 21.3674 13.2632 21.6165 11.9997 21.6166Z" fill="black"/>
<path d="M12 0C9.62663 0 7.30655 0.703788 5.33316 2.02236C3.35977 3.34094 1.8217 5.21509 0.913451 7.4078C0.00519937 9.60051 -0.232441 12.0133 0.230582 14.3411C0.693605 16.6689 1.83649 18.8071 3.51472 20.4853C5.19295 22.1635 7.33115 23.3064 9.65892 23.7694C11.9867 24.2324 14.3995 23.9948 16.5922 23.0866C18.7849 22.1783 20.6591 20.6402 21.9776 18.6668C23.2962 16.6935 24 14.3734 24 12C23.9998 8.81747 22.7354 5.76535 20.485 3.51496C18.2347 1.26457 15.1825 0.000217215 12 0V0ZM12 22.8778C9.84858 22.8778 7.74546 22.2398 5.95661 21.0446C4.16777 19.8493 2.77353 18.1504 1.95021 16.1628C1.1269 14.1751 0.911481 11.9879 1.3312 9.87784C1.75093 7.76775 2.78694 5.82951 4.30823 4.30822C5.82952 2.78693 7.76776 1.75092 9.87785 1.3312C11.9879 0.911476 14.1751 1.12689 16.1628 1.95021C18.1504 2.77352 19.8493 4.16776 21.0446 5.95661C22.2398 7.74546 22.8778 9.84857 22.8778 12C22.8765 14.8846 21.73 17.6506 19.6903 19.6903C17.6506 21.73 14.8846 22.8765 12 22.8778Z" fill="#151515"/>
</g>
<defs>
<clipPath id="clip0">
<rect width="24" height="24" fill="white"/>
</clipPath>
</defs>
</svg>
