<svg width="24" height="24" viewBox="0 0 24 24" fill="none" xmlns="http://www.w3.org/2000/svg">
<path d="M11.6468 24.0001C12.2052 24.0001 12.7511 23.8345 13.2154 23.5242C13.6798 23.214 14.0417 22.773 14.2554 22.2571C14.4691 21.7411 14.525 21.1734 14.416 20.6257C14.3071 20.078 14.0382 19.5749 13.6433 19.18C13.2484 18.7851 12.7453 18.5162 12.1976 18.4073C11.6499 18.2983 11.0822 18.3543 10.5663 18.568C10.0503 18.7817 9.60935 19.1436 9.29909 19.6079C8.98884 20.0722 8.82324 20.6181 8.82324 21.1766C8.82324 21.9254 9.12072 22.6436 9.65023 23.1731C10.1797 23.7026 10.8979 24.0001 11.6468 24.0001Z" fill="#1C1C1C"/>
<path d="M14.7106 0H8.56941L0 23.6471H5.18823L11.6471 5.84118L18.0918 23.6471H23.2941L14.7106 0Z" fill="#1C1C1C"/>
</svg>
