<svg width="24" height="24" viewBox="0 0 24 24" fill="none" xmlns="http://www.w3.org/2000/svg">
<path d="M11.8387 24.0002C11.2544 24.0002 10.6701 23.8396 10.1589 23.5474L2.69446 19.2382C1.64273 18.6247 1 17.5145 1 16.3021V7.68375C1 6.48595 1.64273 5.36118 2.67985 4.76227L10.1589 0.453084C11.196 -0.14582 12.4814 -0.14582 13.5332 0.453084L20.9976 4.76227C22.0347 5.36118 22.6774 6.48595 22.6774 7.68375V16.3167C22.6774 17.5145 22.0347 18.6393 20.9976 19.2382L13.5332 23.5474C13.0073 23.8396 12.4376 24.0002 11.8387 24.0002ZM11.8387 1.16885C11.4589 1.16885 11.0791 1.2711 10.7432 1.461L3.26415 5.78479C2.5776 6.17919 2.16859 6.90956 2.16859 7.68375V16.3167C2.16859 17.1055 2.59221 17.8213 3.26415 18.2157L10.7285 22.5395C11.4151 22.9339 12.2477 22.9339 12.9343 22.5395L20.3987 18.2303C21.0706 17.8359 21.4942 17.1201 21.4942 16.3313V7.68375C21.4942 6.89495 21.0706 6.16458 20.3987 5.78479L12.9489 1.461C12.6129 1.2711 12.2331 1.16885 11.8387 1.16885ZM11.8387 20.0855C11.5173 20.0855 11.2106 19.9978 10.933 19.8371L5.49909 16.7111C4.944 16.3898 4.59343 15.7909 4.59343 15.1335V8.86696C4.59343 8.22423 4.9294 7.62533 5.49909 7.28935L10.933 4.16337C11.5027 3.842 12.1893 3.842 12.7444 4.16337L18.1637 7.28935C18.7188 7.61072 19.0694 8.20962 19.0694 8.86696V15.1335C19.0694 15.7763 18.7188 16.3898 18.1637 16.7111L12.7298 19.8371C12.4668 19.9978 12.1601 20.0855 11.8387 20.0855ZM11.8387 4.79149C11.678 4.79149 11.5173 4.83531 11.3713 4.92295L5.93731 8.04894C5.64516 8.22423 5.46987 8.53098 5.46987 8.86696V15.1335C5.46987 15.4695 5.64516 15.7763 5.93731 15.9516L11.3713 19.0775C11.6634 19.2528 12.014 19.2528 12.3061 19.0775L17.7255 15.9516C18.0177 15.7763 18.1929 15.4695 18.1929 15.1335V8.86696C18.1929 8.53098 18.0177 8.22423 17.7255 8.04894L12.3061 4.92295C12.1747 4.83531 12.014 4.79149 11.8387 4.79149ZM11.8387 16.1122C11.678 16.1122 11.5173 16.0684 11.3713 15.9954L8.62508 14.3886C8.33293 14.2279 8.15764 13.9065 8.15764 13.5852V10.4007C8.15764 10.0648 8.33293 9.75801 8.62508 9.59733L11.3713 8.00512C11.6634 7.84444 12.014 7.84444 12.3061 8.00512L15.0523 9.59733C15.3445 9.75801 15.5198 10.0648 15.5198 10.4007V13.5852C15.5198 13.9211 15.3445 14.2279 15.0523 14.3886L12.3061 15.9808C12.1601 16.0684 11.9994 16.1122 11.8387 16.1122ZM11.8387 8.47256C11.7803 8.47256 11.7219 8.48716 11.6634 8.51638L8.91722 10.1086C8.81497 10.167 8.74194 10.2839 8.74194 10.4007V13.5852C8.74194 13.702 8.81497 13.8189 8.91722 13.8919L11.6634 15.4841C11.7657 15.5425 11.8971 15.5425 12.014 15.4841L14.7602 13.8919C14.8624 13.8335 14.9355 13.702 14.9355 13.5852V10.4007C14.9355 10.2839 14.8624 10.167 14.7602 10.1086L12.014 8.51638C11.9556 8.48716 11.8971 8.47256 11.8387 8.47256Z" fill="url(#paint0_linear)"/>
<defs>
<linearGradient id="paint0_linear" x1="1" y1="11.997" x2="22.6833" y2="11.997" gradientUnits="userSpaceOnUse">
<stop stop-color="#E168FD"/>
<stop offset="1" stop-color="#7B00FC"/>
</linearGradient>
</defs>
</svg>
