<svg width="24" height="24" viewBox="0 0 24 24" fill="none" xmlns="http://www.w3.org/2000/svg">
<path d="M23.8476 14.3352L12.3795 22.8147C12.2275 22.9261 12.0046 22.9363 11.8527 22.8248L0.202166 14.5884C-0.0207132 14.4263 -0.0713675 14.1022 0.110988 13.8894L11.569 0.151963C11.7311 -0.0506543 12.035 -0.0506543 12.2072 0.151963L23.9084 13.8084C24.0401 13.9705 24.0198 14.2136 23.8476 14.3352Z" fill="#FFF4FC"/>
<path d="M23.2301 14.0516L12.3293 22.1056L12.2685 13.8996L12.1875 1.01318L22.9769 13.7477L23.2301 14.0516Z" fill="url(#paint0_linear)"/>
<path d="M0.648438 14.2238L11.8329 22.1056L11.5796 1.01318L0.648438 14.2238Z" fill="url(#paint1_linear)"/>
<path d="M11.7417 13.9199L0.729484 14.1327L0.648438 14.2238L11.8329 22.1057L11.7417 13.9199Z" fill="url(#paint2_linear)"/>
<path d="M12.2686 13.8995L22.9769 13.7476L23.2301 14.0515L12.3293 22.1055L12.2686 13.8995Z" fill="url(#paint3_linear)"/>
<path fill-rule="evenodd" clip-rule="evenodd" d="M10.2519 5.61453C9.73586 4.51024 9.71512 3.50919 9.74615 3.00244L9.94839 3.01482C9.91863 3.50089 9.93842 4.46517 10.4355 5.52885L10.4355 5.52901C10.8329 6.38324 11.3793 6.93982 11.7279 7.24854L11.5935 7.40022C11.2329 7.08083 10.665 6.50277 10.2519 5.61453ZM12.2924 7.69193C12.8062 8.11502 13.2586 8.43661 13.6091 8.65693L13.6099 8.65742C14.6748 9.3406 15.6092 9.70235 16.0931 9.8838L16.0941 9.88418C16.2969 9.96269 16.52 10.0366 16.8508 10.1461C17.0277 10.2047 17.2355 10.2735 17.4874 10.3586C18.0578 10.5439 18.3552 10.6327 18.5387 10.6875L18.5584 10.6933C18.7409 10.7478 18.812 10.7696 18.9443 10.8278C19.1383 10.9095 20.4385 11.4591 20.9723 12.6627C21.1073 12.9658 21.1763 13.2719 21.1989 13.5699L22.9754 13.5447L22.9783 13.7473L21.2073 13.7725C21.211 14.2035 21.1242 14.6117 21.0089 14.9618C20.7969 15.6057 20.4844 16.0656 20.4363 16.1351L20.2697 16.0198C20.3128 15.9575 20.6131 15.5159 20.8165 14.8984C20.9272 14.5622 21.008 14.1775 21.0047 13.7753L12.27 13.8993L12.2671 13.6967L15.6191 13.6491L12.1816 10.6425L12.315 10.49L15.9219 13.6448L20.9958 13.5728C20.9738 13.2993 20.9097 13.0203 20.7872 12.7451L20.7872 12.7449C20.2882 11.6199 19.0583 11.0956 18.8649 11.0142L18.8642 11.0139L18.8635 11.0136C18.743 10.9606 18.6823 10.9418 18.5004 10.8875L18.481 10.8817C18.2965 10.8266 17.9973 10.7373 17.4242 10.5512L17.4231 10.5508C17.1763 10.4674 16.9706 10.3992 16.794 10.3408C16.459 10.2298 16.2288 10.1536 16.0214 10.0733C15.5326 9.89004 14.5831 9.52245 13.5009 8.82823C13.1423 8.6028 12.683 8.2761 12.1636 7.84834L12.2924 7.69193ZM9.10903 8.43839C9.71424 8.70293 10.5653 9.2331 11.7526 10.1413L11.6295 10.3023C10.4462 9.39708 9.61051 8.87871 9.02788 8.62404C8.7365 8.49668 8.51399 8.43779 8.34642 8.42668C8.18063 8.41568 8.07548 8.45164 8.00701 8.5069C7.91319 8.58545 7.86175 8.72844 7.86444 8.95515C7.86711 9.18002 7.92306 9.46478 8.01717 9.79617C8.16613 10.3207 8.4047 10.9426 8.65636 11.5986C8.72272 11.7716 8.78998 11.9469 8.85676 12.1235C9.06422 12.672 9.26662 13.2316 9.41831 13.7618L11.7398 13.717L11.7437 13.9195L9.47385 13.9634C9.52994 14.1756 9.57669 14.382 9.61103 14.5801C9.73925 15.3195 9.70216 15.9841 9.27764 16.3749L9.27717 16.3753C9.03231 16.5979 8.66639 16.726 8.15504 16.8216C7.64181 16.9176 6.96286 16.9839 6.07825 17.0698L6.0778 17.0698C5.52846 17.1207 5.06936 17.1412 4.77171 17.1412V16.9386C5.06161 16.9386 5.51422 16.9185 6.05892 16.8681C6.94709 16.7818 7.61546 16.7164 8.11779 16.6224C8.62194 16.5281 8.93981 16.4081 9.14072 16.2255C9.48081 15.9121 9.53862 15.3484 9.41139 14.6147C9.37555 14.408 9.32565 14.1913 9.26523 13.9674L0.731453 14.1323L0.727539 13.9297L9.20861 13.7659C9.06161 13.2613 8.86823 12.7266 8.66724 12.1952C8.60158 12.0215 8.53506 11.8482 8.46917 11.6764C8.21702 11.0192 7.97396 10.3857 7.82226 9.85153C7.72658 9.5146 7.66483 9.2094 7.66184 8.95756C7.65888 8.70798 7.71362 8.48764 7.87781 8.35081L7.87886 8.34994L7.87886 8.34995C7.99782 8.25349 8.15849 8.21115 8.35983 8.2245C8.55982 8.23777 8.80649 8.30615 9.10903 8.43839Z" fill="#98C9C0"/>
<defs>
<linearGradient id="paint0_linear" x1="12.1858" y1="11.5599" x2="23.2326" y2="11.5599" gradientUnits="userSpaceOnUse">
<stop stop-color="#3B8270"/>
<stop offset="1" stop-color="#305C6E"/>
</linearGradient>
<linearGradient id="paint1_linear" x1="0.652733" y1="11.5599" x2="11.8354" y2="11.5599" gradientUnits="userSpaceOnUse">
<stop stop-color="#4E7F98"/>
<stop offset="1" stop-color="#3BC0B5"/>
</linearGradient>
<linearGradient id="paint2_linear" x1="0.652733" y1="18.0118" x2="11.8354" y2="18.0118" gradientUnits="userSpaceOnUse">
<stop stop-color="#30435C"/>
<stop offset="1" stop-color="#299AA9"/>
</linearGradient>
<linearGradient id="paint3_linear" x1="12.2709" y1="17.93" x2="23.2326" y2="17.93" gradientUnits="userSpaceOnUse">
<stop stop-color="#2E2C29"/>
<stop offset="1" stop-color="#323232"/>
</linearGradient>
</defs>
</svg>
