<svg width="24" height="24" viewBox="0 0 24 24" fill="none" xmlns="http://www.w3.org/2000/svg">
<g clip-path="url(#clip0)">
<path d="M11.9988 23.9975C18.6255 23.9975 23.9975 18.6255 23.9975 11.9988C23.9975 5.37203 18.6255 0 11.9988 0C5.37203 0 0 5.37203 0 11.9988C0 18.6255 5.37203 23.9975 11.9988 23.9975Z" fill="url(#paint0_linear)"/>
<path d="M11.9993 22.793C17.9608 22.793 22.7935 17.9603 22.7935 11.9988C22.7935 6.03732 17.9608 1.20459 11.9993 1.20459C6.03781 1.20459 1.20508 6.03732 1.20508 11.9988C1.20508 17.9603 6.03781 22.793 11.9993 22.793Z" stroke="white" stroke-width="76.9783" stroke-miterlimit="10"/>
<path d="M10.4399 13.2822L12.0362 8.42458L13.6619 13.2822H10.4399ZM17.2066 16.354L15.8863 12.728H16.6746C16.8255 12.7267 16.9699 12.666 17.0764 12.559C17.1829 12.4521 17.2429 12.3074 17.2436 12.1565C17.2436 12.0853 17.2296 12.0149 17.2023 11.9491C17.1751 11.8834 17.1352 11.8236 17.0849 11.7733C17.0345 11.723 16.9748 11.6831 16.909 11.6558C16.8433 11.6286 16.7728 11.6146 16.7017 11.6146H15.47L15.2729 11.0505H16.6746C16.8223 11.0505 16.9642 10.9929 17.07 10.8898C17.1759 10.7867 17.2373 10.6464 17.2411 10.4987C17.2414 10.4239 17.227 10.3497 17.1985 10.2805C17.17 10.2114 17.1281 10.1485 17.0752 10.0956C17.0223 10.0427 16.9594 10.0008 16.8902 9.97231C16.8211 9.94383 16.7469 9.92934 16.6721 9.92967H14.8517L13.8664 7.22003C13.7192 6.83289 13.4759 6.48957 13.1594 6.22239C12.8468 5.96525 12.4505 5.832 12.046 5.84796C11.6405 5.83508 11.2437 5.96791 10.9277 6.22239C10.611 6.48994 10.367 6.83308 10.2182 7.22003L9.18611 9.9543H7.37558C7.23097 9.9543 7.09225 10.0116 6.98976 10.1136C6.88728 10.2156 6.82938 10.3541 6.82873 10.4987C6.82873 10.6489 6.88842 10.7931 6.99467 10.8993C7.10092 11.0056 7.24502 11.0652 7.39529 11.0652H8.76981L8.55797 11.6146H7.32631C7.18128 11.6146 7.04218 11.6722 6.93963 11.7747C6.83707 11.8773 6.77946 12.0164 6.77946 12.1614C6.77946 12.3099 6.83829 12.4524 6.94309 12.5577C7.04788 12.6629 7.1901 12.7224 7.33863 12.7231H8.12935L6.78685 16.354C6.70434 16.5587 6.65848 16.7763 6.65137 16.9969C6.66536 17.3063 6.79973 17.598 7.02579 17.8098C7.27455 18.0252 7.59335 18.1426 7.92243 18.1399C8.19886 18.155 8.47209 18.0747 8.69633 17.9123C8.92057 17.75 9.08218 17.5155 9.15409 17.2481L9.67385 15.6987H14.4551L14.9749 17.2851C15.0563 17.5435 15.2217 17.7672 15.4449 17.9208C15.668 18.0743 15.9361 18.1488 16.2065 18.1325C16.4135 18.1366 16.6178 18.0847 16.7977 17.9822C16.9538 17.8664 17.0923 17.7287 17.2091 17.5733C17.3108 17.3985 17.3628 17.1991 17.3594 16.9969C17.3267 16.7819 17.2756 16.5701 17.2066 16.3638V16.354Z" fill="#FEFEFE"/>
</g>
<defs>
<linearGradient id="paint0_linear" x1="4.99805" y1="4.41671" x2="21.278" y2="22.0491" gradientUnits="userSpaceOnUse">
<stop stop-color="#FC8F55"/>
<stop offset="0.44" stop-color="#FE7A6A"/>
<stop offset="1" stop-color="#FE687C"/>
</linearGradient>
<clipPath id="clip0">
<rect width="24" height="24" fill="white"/>
</clipPath>
</defs>
</svg>
