<svg width="24" height="24" viewBox="0 0 24 24" fill="none" xmlns="http://www.w3.org/2000/svg">
<path fill-rule="evenodd" clip-rule="evenodd" d="M12 0C18.6264 0 24 5.3736 24 12C24 18.6264 18.6264 24 12 24C5.3736 24 0 18.6264 0 12C0 5.3736 5.3736 0 12 0Z" fill="#263145"/>
<path fill-rule="evenodd" clip-rule="evenodd" d="M12.7367 4.24805H11.0591L4.12793 16.32H16.4471H16.4831L15.5999 14.88H6.62393L12.7367 4.24805Z" fill="#CCD9E2"/>
<path fill-rule="evenodd" clip-rule="evenodd" d="M18.8468 17.736L19.7036 16.284L12.7124 4.24805L6.59961 14.88H8.27961L12.7364 7.11605L18.8468 17.736Z" fill="#AAAAAA"/>
<path fill-rule="evenodd" clip-rule="evenodd" d="M4.12793 16.3201L4.98473 17.7362H18.8471L12.7367 7.08252L11.8919 8.57052L16.4255 16.3201H4.12793Z" fill="#5A5967"/>
</svg>
