<svg width="24" height="24" viewBox="0 0 24 24" fill="none" xmlns="http://www.w3.org/2000/svg">
<path d="M12 24C18.6274 24 24 18.6274 24 12C24 5.37258 18.6274 0 12 0C5.37258 0 0 5.37258 0 12C0 18.6274 5.37258 24 12 24Z" fill="#346FCE"/>
<path fill-rule="evenodd" clip-rule="evenodd" d="M15.1203 14.0294L15.8373 15.3772C16.2452 16.1444 16.3316 17.0422 16.0776 17.8732C15.8236 18.7041 15.25 19.4001 14.4828 19.8082L14.3898 19.8577C14.0099 20.0598 13.5939 20.185 13.1656 20.2263C12.7372 20.2676 12.305 20.2241 11.8934 20.0983C11.4819 19.9725 11.0992 19.7669 10.7671 19.4932C10.4351 19.2196 10.1601 18.8831 9.9581 18.5032L7.54085 13.9567C7.14784 13.2176 7.05257 12.3562 7.2746 11.5491C7.49663 10.742 8.01911 10.0505 8.73485 9.61645L8.01785 8.2687C7.61005 7.50138 7.52374 6.6035 7.77789 5.77255C8.03205 4.9416 8.60585 4.24562 9.3731 3.8377L9.4661 3.7882C10.2333 3.38035 11.1311 3.29392 11.9621 3.54793C12.793 3.80194 13.489 4.37558 13.8971 5.1427L16.3143 9.6892C16.7074 10.4282 16.8028 11.2896 16.5809 12.0966C16.359 12.9037 15.8367 13.5953 15.1211 14.0294H15.1203ZM15.1203 14.0294L13.4201 10.8307C13.012 10.0636 12.316 9.48994 11.4851 9.23593C10.6541 8.98192 9.75632 9.06835 8.9891 9.4762L8.8961 9.52495C8.84135 9.55495 8.78735 9.58495 8.73485 9.61645L10.4358 12.8152C10.8439 13.5823 11.5399 14.156 12.3709 14.41C13.2018 14.664 14.0996 14.5775 14.8668 14.1697L14.9598 14.1209C15.0146 14.0909 15.0686 14.0609 15.1211 14.0294H15.1203Z" fill="white"/>
</svg>
