<svg width="24" height="24" viewBox="0 0 24 24" fill="none" xmlns="http://www.w3.org/2000/svg">
<path fill-rule="evenodd" clip-rule="evenodd" d="M12 0C18.6264 0 24 5.3736 24 12C24 18.6264 18.6264 24 12 24C5.3736 24 0 18.6264 0 12C0 5.3736 5.3736 0 12 0Z" fill="#1E1E1E"/>
<path d="M12.1799 17.0162C8.34233 17.0162 5.23193 15.9074 5.23193 14.4218C5.23193 13.6466 6.07913 12.9482 7.43513 12.4562C8.49353 13.1354 10.2695 13.4834 12.2831 13.4834C14.2487 13.4834 15.9863 13.0586 17.0543 12.4082C18.3335 12.8954 19.1279 13.5746 19.1279 14.3234C19.1279 15.8114 16.0175 17.0162 12.1799 17.0162Z" fill="white"/>
<path d="M12.2206 13.1494C9.31184 13.1494 6.95264 12.2374 6.95264 11.1118C6.95264 10.4878 7.67984 9.92864 8.81984 9.55664C9.63344 9.98144 10.8526 10.2526 12.2206 10.2526C13.5886 10.2526 14.8078 9.98144 15.6214 9.55664C16.7638 9.93104 17.4886 10.4878 17.4886 11.1118C17.491 12.2374 15.1318 13.1494 12.2206 13.1494Z" fill="white"/>
<path d="M12.2017 9.9142C9.95291 9.9142 8.12891 9.1606 8.12891 8.2342C8.12891 7.3078 9.95291 6.5542 12.2017 6.5542C14.4505 6.5542 16.2745 7.3078 16.2745 8.2342C16.2745 9.1606 14.4505 9.9142 12.2017 9.9142Z" fill="white"/>
</svg>
