<svg width="24" height="24" viewBox="0 0 24 24" fill="none" xmlns="http://www.w3.org/2000/svg">
<path fill-rule="evenodd" clip-rule="evenodd" d="M24 12C24 18.6274 18.6274 24 12 24C5.37255 24 0 18.6274 0 12C0 5.37255 5.37255 0 12 0C18.6274 0 24 5.37255 24 12Z" fill="#182C44"/>
<path fill-rule="evenodd" clip-rule="evenodd" d="M10.6446 19.8661C10.4046 19.8661 10.1651 19.801 9.94978 19.6714C9.54052 19.4252 9.29621 18.9931 9.29621 18.5154V15.3531C9.29621 15.0631 9.53124 14.8281 9.82122 14.8281C10.1112 14.8281 10.3462 15.0631 10.3462 15.3531V18.5154C10.3462 18.6681 10.4475 18.7454 10.4911 18.7716C10.5347 18.7979 10.6505 18.851 10.7853 18.7796L13.2465 17.4747C13.7207 17.2233 13.9979 16.7528 13.988 16.2161C13.9782 15.6795 13.6838 15.2195 13.2007 14.9857L9.9934 13.4335C9.43908 13.1652 9.09473 12.616 9.09473 12.0002C9.09473 11.3843 9.43908 10.835 9.9934 10.5668L13.2007 9.01463C13.6838 8.78086 13.9782 8.32088 13.988 7.78426C13.9979 7.24758 13.7207 6.77706 13.2465 6.52566L10.7853 5.22077C10.6505 5.1493 10.5347 5.20247 10.4911 5.22873C10.4475 5.25492 10.3462 5.33229 10.3462 5.48491V8.64727C10.3462 8.93726 10.1112 9.17229 9.82122 9.17229C9.53124 9.17229 9.29621 8.93726 9.29621 8.64727V5.48491C9.29621 5.00729 9.54052 4.57516 9.94978 4.32893C10.3589 4.08276 10.8553 4.0693 11.2772 4.29299L13.7383 5.59788C14.557 6.03193 15.055 6.8771 15.038 7.80349C15.0209 8.73001 14.4922 9.55629 13.6582 9.95991L10.4509 11.512C10.2592 11.6048 10.1448 11.7872 10.1448 12.0002C10.1448 12.2131 10.2592 12.3956 10.4509 12.4883L13.6582 14.0404C14.4922 14.4441 15.0209 15.2703 15.038 16.1968C15.055 17.1232 14.557 17.9684 13.7383 18.4025L11.2772 19.7074C11.0772 19.8133 10.8606 19.8661 10.6446 19.8661Z" fill="#FFFFFE"/>
<path fill-rule="evenodd" clip-rule="evenodd" d="M17.0572 9.99764V14.0019L19.6366 11.9998L17.0572 9.99764ZM16.532 15.5991C16.4534 15.5991 16.3744 15.5816 16.3012 15.5456C16.1212 15.4574 16.0071 15.2745 16.0071 15.0741V8.92547C16.0071 8.72505 16.1212 8.54213 16.3012 8.45395C16.4812 8.36584 16.6956 8.38779 16.854 8.5107L20.8149 11.585C20.943 11.6845 21.018 11.8376 21.018 11.9998C21.018 12.162 20.943 12.3151 20.8149 12.4145L16.854 15.4889C16.7601 15.5617 16.6465 15.5991 16.532 15.5991ZM4.36368 11.9998L6.94322 14.0019V9.99764L4.36368 11.9998ZM7.4683 15.5991C7.3538 15.5991 7.24023 15.5617 7.14629 15.4889L3.18549 12.4145C3.05734 12.3151 2.98242 12.162 2.98242 11.9998C2.98242 11.8376 3.05734 11.6845 3.18549 11.585L7.14629 8.5107C7.30468 8.38779 7.51922 8.36571 7.69915 8.45395C7.87915 8.54213 7.99325 8.72505 7.99325 8.92547V15.0741C7.99325 15.2745 7.87915 15.4574 7.69915 15.5456C7.62589 15.5815 7.54686 15.5991 7.4683 15.5991Z" fill="#FFFFFE"/>
</svg>
