<svg width="24" height="24" viewBox="0 0 24 24" fill="none" xmlns="http://www.w3.org/2000/svg">
<path d="M12 24C18.6274 24 24 18.6274 24 12C24 5.37258 18.6274 0 12 0C5.37258 0 0 5.37258 0 12C0 18.6274 5.37258 24 12 24Z" fill="black"/>
<path d="M12.0003 22.9474C18.0465 22.9474 22.9479 18.046 22.9479 11.9998C22.9479 5.95364 18.0465 1.05225 12.0003 1.05225C5.95413 1.05225 1.05273 5.95364 1.05273 11.9998C1.05273 18.046 5.95413 22.9474 12.0003 22.9474Z" fill="black" stroke="white"/>
<path fill-rule="evenodd" clip-rule="evenodd" d="M11.9443 14.4444H15.9631L11.9454 7.4829V7.48372V3.26416L19.8194 16.6846H11.9443V14.4444Z" fill="#0B76FF"/>
<path fill-rule="evenodd" clip-rule="evenodd" d="M11.9436 14.4444L11.9441 16.6846H4.06836L11.9426 3.26416L11.9431 7.48372L11.9426 7.4829L7.9249 14.4444H11.9436Z" fill="#24C1FF"/>
<path fill-rule="evenodd" clip-rule="evenodd" d="M11.9436 9.21094V13.6264L9.45215 13.631L11.9436 9.21094Z" fill="#39FFF2"/>
<path fill-rule="evenodd" clip-rule="evenodd" d="M11.9443 9.21094L14.4352 13.631L11.9443 13.6264V9.21094Z" fill="#00E2C2"/>
<path fill-rule="evenodd" clip-rule="evenodd" d="M2.21973 7.84473L11.9439 11.863V12.4252L2.21973 10.0145V7.84473Z" fill="url(#paint0_linear)"/>
<path fill-rule="evenodd" clip-rule="evenodd" d="M21.6679 6.15967L11.9443 11.863V12.0172L21.6679 8.00542V6.15967Z" fill="url(#paint1_linear)"/>
<path fill-rule="evenodd" clip-rule="evenodd" d="M21.6603 11.7025L11.9443 12.4251V12.2652L21.6603 9.854V11.7025Z" fill="url(#paint2_linear)"/>
<path fill-rule="evenodd" clip-rule="evenodd" d="M21.6679 8.08301L11.9443 12.0266V12.265L21.6679 9.77363V8.08301Z" fill="url(#paint3_linear)"/>
<defs>
<linearGradient id="paint0_linear" x1="2.21973" y1="10.135" x2="9.01923" y2="10.135" gradientUnits="userSpaceOnUse">
<stop stop-color="white" stop-opacity="0"/>
<stop offset="1" stop-color="white"/>
</linearGradient>
<linearGradient id="paint1_linear" x1="21.3601" y1="8.00936" x2="15.0886" y2="8.52766" gradientUnits="userSpaceOnUse">
<stop stop-color="#FD76FD" stop-opacity="0"/>
<stop offset="1" stop-color="#FF51FF"/>
</linearGradient>
<linearGradient id="paint2_linear" x1="21.2666" y1="10.9964" x2="16.3193" y2="10.9964" gradientUnits="userSpaceOnUse">
<stop stop-color="#5300FF" stop-opacity="0"/>
<stop offset="1" stop-color="#9D6EFF"/>
</linearGradient>
<linearGradient id="paint3_linear" x1="21.3729" y1="9.56382" x2="16.591" y2="11.0169" gradientUnits="userSpaceOnUse">
<stop stop-color="#AE60D6" stop-opacity="0"/>
<stop offset="1" stop-color="#AB38E6"/>
</linearGradient>
</defs>
</svg>
