<svg width="24" height="24" viewBox="0 0 24 24" fill="none" xmlns="http://www.w3.org/2000/svg">
<path d="M24 0H0V24H24V0Z" fill="#265FAC"/>
<path d="M19.8498 7.97266C19.6192 10.4889 17.1259 10.173 17.1259 10.173V7.97266H14.6261V10.173H9.22984V7.97266H6.78203V10.1664C4.32344 10.3164 4.16125 8.01953 4.16125 8.01953H1.70313V8.12078C1.70305 9.28496 2.15721 10.4032 2.969 11.2377C3.78078 12.0721 4.88611 12.5569 6.04984 12.5889L6.75906 12.6081V15.7422C6.75906 17.014 7.26427 18.2338 8.16355 19.1332C9.06283 20.0325 10.2825 20.5378 11.5544 20.538H12.3348C13.6057 20.5341 14.8234 20.0276 15.7221 19.1289C16.6207 18.2303 17.1273 17.0126 17.1311 15.7417V12.5903H17.8703C19.0443 12.5903 20.1701 12.124 21.0003 11.2938C21.8304 10.4637 22.2967 9.33786 22.2967 8.16391V7.97266H19.8498ZM14.6378 15.4727C14.6469 15.8284 14.5854 16.1823 14.4569 16.5141C14.3284 16.8459 14.1355 17.149 13.8891 17.4058C13.6428 17.6625 13.3481 17.868 13.0219 18.0101C12.6957 18.1523 12.3446 18.2285 11.9889 18.2342C11.6331 18.2399 11.2797 18.175 10.9492 18.0433C10.6186 17.9117 10.3174 17.7158 10.063 17.467C9.8086 17.2183 9.60601 16.9216 9.46695 16.5941C9.32788 16.2665 9.2551 15.9147 9.25281 15.5589C9.25281 15.5302 9.25281 15.5014 9.25281 15.4727V12.5383H14.6378V15.4727Z" fill="white"/>
</svg>
