<svg width="24" height="24" viewBox="0 0 24 24" fill="none" xmlns="http://www.w3.org/2000/svg">
<path fill-rule="evenodd" clip-rule="evenodd" d="M20.0388 19.376C19.9757 19.3058 19.867 19.3012 19.798 19.3666L19.7957 19.3702C19.7267 19.4356 19.7255 19.5444 19.7933 19.611L23.5675 23.3291L20.0388 19.376Z" fill="black"/>
<path fill-rule="evenodd" clip-rule="evenodd" d="M18.6142 13.5497L18.6106 13.5533C18.5416 13.6187 18.5416 13.7274 18.6083 13.7941L22.5438 17.6653L18.855 13.5591C18.7919 13.4889 18.6831 13.4843 18.6142 13.5497Z" fill="black"/>
<path fill-rule="evenodd" clip-rule="evenodd" d="M15.3971 12.7771L12.9553 10.3912C12.9185 11.6502 12.7205 14.2504 12.2173 15.4665C12.2094 15.4852 12.1984 15.5046 12.1895 15.5235C12.545 15.75 13.293 16.1876 13.5906 16.1876C13.9622 16.1866 14.703 15.776 14.9711 15.5186C15.2037 15.2934 15.4501 14.8419 15.6885 14.4052C15.8808 14.053 16.0796 13.6886 16.2863 13.4092C16.4101 13.2422 16.5248 13.1198 16.637 13.0347C16.8693 12.86 17.2527 12.7194 17.6586 12.5706C18.2017 12.3715 18.8174 12.1457 19.0046 11.8392C19.1924 11.5329 19.0819 10.4705 19.0065 9.96523C18.4935 10.0211 16.4112 10.176 14.9106 9.21247C14.1963 8.75337 13.1438 7.74979 12.6572 7.27148C12.8317 8.29789 12.9462 9.35889 12.9572 10.0718L15.3971 12.7771Z" fill="#FECD0F"/>
<path fill-rule="evenodd" clip-rule="evenodd" d="M15.2374 19.8915L15.235 19.8939C15.1661 19.9593 15.1649 20.0692 15.2328 20.1347L19.0209 23.8702L15.4783 19.9009C15.4151 19.8307 15.3064 19.8261 15.2374 19.8915Z" fill="black"/>
<path fill-rule="evenodd" clip-rule="evenodd" d="M15.9659 16.5161C15.9238 16.5161 15.8829 16.5313 15.8502 16.5628C15.7812 16.6283 15.7801 16.7382 15.849 16.8049L18.5101 19.3689L16.0922 16.5746C16.0594 16.5359 16.0127 16.5161 15.9659 16.5161Z" fill="black"/>
<path fill-rule="evenodd" clip-rule="evenodd" d="M12.1559 19.2217V19.521L12.7242 19.0856C12.776 19.046 12.8453 19.0366 12.9056 19.0613C12.966 19.086 13.0074 19.1395 13.0165 19.2042C13.0351 19.4997 13.106 20.2962 13.2182 20.5367C13.3239 20.7627 13.7071 21.2088 14.297 21.7925C14.3137 21.8092 14.3319 21.8061 14.3411 21.8026C14.3508 21.7992 14.3673 21.79 14.3697 21.7663C14.3964 21.6301 14.4182 21.4671 14.4106 21.4248C14.2748 20.6732 13.1333 18.7649 12.9059 18.3901C12.8914 18.3664 12.8707 18.3471 12.8449 18.3335L11.8916 17.832V18.2088L12.1559 18.4207V19.2217Z" fill="#FECD0F"/>
<path fill-rule="evenodd" clip-rule="evenodd" d="M10.4873 21.049H10.4861C10.4171 21.1145 10.4159 21.2244 10.4837 21.291L13.2489 23.9872L10.7292 21.0619C10.6661 20.9893 10.5562 20.9835 10.4873 21.049Z" fill="black"/>
<mask id="mask0" mask-type="alpha" maskUnits="userSpaceOnUse" x="1" y="0" width="12" height="20">
<path d="M10.7023 11.232L10.965 11.5344L10.7511 11.5636C10.4045 11.611 9.86313 11.7301 9.74527 11.8465C9.58573 12.0046 9.4301 12.7033 9.36951 13.1066L9.36495 13.1369L9.3461 13.1612C9.242 13.2946 8.88259 13.7307 8.62632 13.7415C8.62198 13.7417 8.61756 13.7417 8.61315 13.7417C8.45148 13.7417 8.26596 13.6183 8.04819 13.3683C7.84065 13.3553 7.34755 13.2901 7.17403 12.9695C7.07346 12.7836 7.25715 12.3696 7.34954 12.1844C7.34645 12.1603 7.34468 12.1361 7.34468 12.1118C7.34873 11.8632 7.60456 11.3869 7.83815 11.2696C8.00593 11.1845 8.25675 11.2115 8.52245 11.2399C8.75751 11.2649 9.0238 11.2936 9.12532 11.2174C9.27786 11.1037 9.35081 10.4182 9.35214 9.99059L9.3531 9.67896L9.92652 10.339C10.035 10.0697 10.1533 9.72394 10.1418 9.59187C10.1251 9.40914 9.82809 8.9128 9.64478 8.64313L9.83818 8.51157C9.89023 8.58821 10.347 9.26794 10.3747 9.57103C10.3954 9.80735 10.1814 10.3394 10.0979 10.5363L10.5442 11.0501C10.7616 10.7364 11.1311 10.1572 11.1447 9.91535C11.1619 9.59754 10.7815 8.78978 10.4507 8.19442C10.4319 8.15923 10.4212 8.14097 10.4206 8.13972L10.6221 8.02112C10.6221 8.02112 10.6347 8.04254 10.6561 8.08274C10.831 8.39739 11.403 9.46605 11.3782 9.92824C11.3586 10.2734 10.8746 10.9878 10.7023 11.232ZM6.54259 7.20114C6.44784 7.38011 6.33911 7.5554 6.19297 7.7086C6.17074 7.73084 6.1474 7.75425 6.12281 7.77523C6.22809 7.75425 6.35199 7.7636 6.45256 7.87344C6.55776 7.98924 6.53788 8.4183 6.40227 8.49545C6.20468 8.60537 5.65047 8.1716 5.50316 8.05233C5.38625 8.08156 5.26934 8.10497 5.15008 8.12249C5.08456 8.13184 5.0261 8.08392 5.02029 8.01847C5.01557 7.95648 5.0624 7.90267 5.12431 7.89685C5.27987 7.88397 5.43653 7.86063 5.58731 7.82551C5.68088 7.80335 5.77327 7.77759 5.85859 7.74136C5.94392 7.70743 6.01989 7.66303 6.09476 7.60105C6.24208 7.48178 6.36723 7.3263 6.48061 7.16382C6.59288 7.00009 6.69454 6.82701 6.78223 6.64583C6.71678 6.83643 6.63609 7.02114 6.54259 7.20114ZM3.30156 6.4634C2.63398 6.4634 2.09265 5.92208 2.09265 5.25567C2.09265 4.58809 2.63398 4.04669 3.30156 4.04669C3.41847 4.04669 3.53192 4.06429 3.63948 4.09579C3.59737 3.94384 3.57403 3.78365 3.57403 3.61881C3.57403 2.60625 4.39364 1.78671 5.40613 1.78671C6.41744 1.78671 7.23705 2.60625 7.23705 3.61881C7.23705 4.63013 6.41744 5.44973 5.40613 5.44973C5.07874 5.44973 4.77241 5.36323 4.50701 5.21356C4.50819 5.22762 4.50937 5.24161 4.50937 5.25567C4.50937 5.92208 3.96804 6.4634 3.30156 6.4634ZM12.7241 10.2796H12.841L12.7568 10.1978L12.841 10.1171L12.7241 10.1183C12.7165 9.33471 12.5745 8.09062 12.3624 6.949C12.2776 6.48637 12.1868 6.07683 12.0994 5.76424C11.4301 3.36571 9.63278 1.48311 7.03886 0.463255C6.25746 0.156482 4.46703 0.15523 3.83221 0.56058C0.764851 2.51658 1.61508 5.64011 1.89447 6.66659C2.16745 7.67106 2.98647 8.99091 4.39614 9.40524L5.32073 9.49278L4.53396 9.5611C4.55103 9.63641 4.53734 9.72689 4.50878 9.81597L4.94777 9.8354L4.47197 9.91447C4.43214 10.0073 4.38517 10.0879 4.35565 10.128C4.26142 10.2547 4.0996 10.3948 3.92843 10.543C3.71884 10.7246 3.48127 10.9303 3.40735 11.0872C3.38299 11.1388 3.35869 11.1983 3.33322 11.2689C3.18303 11.6942 3.0994 12.3365 3.09808 13.0766C3.0958 13.9993 3.22249 14.95 3.4209 15.499C3.65155 16.1385 4.77013 17.1256 5.38294 17.4536C5.53872 17.5366 5.76694 17.6079 6.06105 17.6653L6.0383 17.7816L6.04014 17.7797L6.06252 17.6665C6.69057 17.7905 7.49 17.8247 7.9675 17.8047C8.39523 17.7867 9.67945 17.4232 10.0853 17.3056L9.79342 16.592L10.0098 16.5034L11.0353 19.0101L11.922 19.0932V18.533L11.1125 17.8839L10.738 16.1338L10.9665 16.0847L11.1007 16.7115C11.3611 16.3724 11.755 15.842 11.9363 15.5096C11.9612 15.4647 11.9835 15.4189 12.0013 15.3767C12.4625 14.262 12.6856 11.7495 12.723 10.3328L12.7241 10.2796Z" fill="white"/>
</mask>
<g mask="url(#mask0)">
<path fill-rule="evenodd" clip-rule="evenodd" d="M10.7023 11.232L10.965 11.5344L10.7511 11.5636C10.4045 11.611 9.86313 11.7301 9.74527 11.8465C9.58573 12.0046 9.4301 12.7033 9.36951 13.1066L9.36495 13.1369L9.3461 13.1612C9.242 13.2946 8.88259 13.7307 8.62632 13.7415C8.62198 13.7417 8.61756 13.7417 8.61315 13.7417C8.45148 13.7417 8.26596 13.6183 8.04819 13.3683C7.84065 13.3553 7.34755 13.2901 7.17403 12.9695C7.07346 12.7836 7.25715 12.3696 7.34954 12.1844C7.34645 12.1603 7.34468 12.1361 7.34468 12.1118C7.34873 11.8632 7.60456 11.3869 7.83815 11.2696C8.00593 11.1845 8.25675 11.2115 8.52245 11.2399C8.75751 11.2649 9.0238 11.2936 9.12532 11.2174C9.27786 11.1037 9.35081 10.4182 9.35214 9.99059L9.3531 9.67896L9.92652 10.339C10.035 10.0697 10.1533 9.72394 10.1418 9.59187C10.1251 9.40914 9.82809 8.9128 9.64478 8.64313L9.83818 8.51157C9.89023 8.58821 10.347 9.26794 10.3747 9.57103C10.3954 9.80735 10.1814 10.3394 10.0979 10.5363L10.5442 11.0501C10.7616 10.7364 11.1311 10.1572 11.1447 9.91535C11.1619 9.59754 10.7815 8.78978 10.4507 8.19442C10.4319 8.15923 10.4212 8.14097 10.4206 8.13972L10.6221 8.02112C10.6221 8.02112 10.6347 8.04254 10.6561 8.08274C10.831 8.39739 11.403 9.46605 11.3782 9.92824C11.3586 10.2734 10.8746 10.9878 10.7023 11.232ZM6.54259 7.20114C6.44784 7.38011 6.33911 7.5554 6.19297 7.7086C6.17074 7.73084 6.1474 7.75425 6.12281 7.77523C6.22809 7.75425 6.35199 7.7636 6.45256 7.87344C6.55776 7.98924 6.53788 8.4183 6.40227 8.49545C6.20468 8.60537 5.65047 8.1716 5.50316 8.05233C5.38625 8.08156 5.26934 8.10497 5.15008 8.12249C5.08456 8.13184 5.0261 8.08392 5.02029 8.01847C5.01557 7.95648 5.0624 7.90267 5.12431 7.89685C5.27987 7.88397 5.43653 7.86063 5.58731 7.82551C5.68088 7.80335 5.77327 7.77759 5.85859 7.74136C5.94392 7.70743 6.01989 7.66303 6.09476 7.60105C6.24208 7.48178 6.36723 7.3263 6.48061 7.16382C6.59288 7.00009 6.69454 6.82701 6.78223 6.64583C6.71678 6.83643 6.63609 7.02114 6.54259 7.20114ZM3.30156 6.4634C2.63398 6.4634 2.09265 5.92208 2.09265 5.25567C2.09265 4.58809 2.63398 4.04669 3.30156 4.04669C3.41847 4.04669 3.53192 4.06429 3.63948 4.09579C3.59737 3.94384 3.57403 3.78365 3.57403 3.61881C3.57403 2.60625 4.39364 1.78671 5.40613 1.78671C6.41744 1.78671 7.23705 2.60625 7.23705 3.61881C7.23705 4.63013 6.41744 5.44973 5.40613 5.44973C5.07874 5.44973 4.77241 5.36323 4.50701 5.21356C4.50819 5.22762 4.50937 5.24161 4.50937 5.25567C4.50937 5.92208 3.96804 6.4634 3.30156 6.4634ZM12.7241 10.2796H12.841L12.7568 10.1978L12.841 10.1171L12.7241 10.1183C12.7165 9.33471 12.5745 8.09062 12.3624 6.949C12.2776 6.48637 12.1868 6.07683 12.0994 5.76424C11.4301 3.36571 9.63278 1.48311 7.03886 0.463255C6.25746 0.156482 4.46703 0.15523 3.83221 0.56058C0.764851 2.51658 1.61508 5.64011 1.89447 6.66659C2.16745 7.67106 2.98647 8.99091 4.39614 9.40524L5.32073 9.49278L4.53396 9.5611C4.55103 9.63641 4.53734 9.72689 4.50878 9.81597L4.94777 9.8354L4.47197 9.91447C4.43214 10.0073 4.38517 10.0879 4.35565 10.128C4.26142 10.2547 4.0996 10.3948 3.92843 10.543C3.71884 10.7246 3.48127 10.9303 3.40735 11.0872C3.38299 11.1388 3.35869 11.1983 3.33322 11.2689C3.18303 11.6942 3.0994 12.3365 3.09808 13.0766C3.0958 13.9993 3.22249 14.95 3.4209 15.499C3.65155 16.1385 4.77013 17.1256 5.38294 17.4536C5.53872 17.5366 5.76694 17.6079 6.06105 17.6653L6.0383 17.7816L6.04014 17.7797L6.06252 17.6665C6.69057 17.7905 7.49 17.8247 7.9675 17.8047C8.39523 17.7867 9.67945 17.4232 10.0853 17.3056L9.79342 16.592L10.0098 16.5034L11.0353 19.0101L11.922 19.0932V18.533L11.1125 17.8839L10.738 16.1338L10.9665 16.0847L11.1007 16.7115C11.3611 16.3724 11.755 15.842 11.9363 15.5096C11.9612 15.4647 11.9835 15.4189 12.0013 15.3767C12.4625 14.262 12.6856 11.7495 12.723 10.3328L12.7241 10.2796Z" fill="url(#paint0_linear)"/>
</g>
<mask id="mask1" mask-type="alpha" maskUnits="userSpaceOnUse" x="5" y="17" width="3" height="3">
<path d="M5.49902 17.7578C5.61159 18.188 5.81699 18.882 5.98484 19.0969C6.14938 19.3063 6.77205 19.6694 7.14258 19.8701V18.5333C6.93814 18.5436 6.57306 18.548 6.42221 18.4676C6.26452 18.3821 6.05493 18.0412 5.96401 17.8838C5.78673 17.8472 5.63088 17.8051 5.49902 17.7578Z" fill="white"/>
</mask>
<g mask="url(#mask1)">
<path fill-rule="evenodd" clip-rule="evenodd" d="M5.49902 17.7578C5.61159 18.188 5.81699 18.882 5.98484 19.0969C6.14938 19.3063 6.77205 19.6694 7.14258 19.8701V18.5333C6.93814 18.5436 6.57306 18.548 6.42221 18.4676C6.26452 18.3821 6.05493 18.0412 5.96401 17.8838C5.78673 17.8472 5.63088 17.8051 5.49902 17.7578Z" fill="#356C00"/>
</g>
<path fill-rule="evenodd" clip-rule="evenodd" d="M9.2649 11.4047C9.08998 11.5357 8.80205 11.5049 8.49712 11.4724C8.3797 11.4598 8.25336 11.4464 8.14632 11.4464C8.06217 11.4464 7.98995 11.4547 7.94306 11.4785C7.79921 11.5507 7.58107 11.9306 7.57812 12.1137C7.57812 12.1388 7.58129 12.1657 7.5877 12.1918L7.58821 12.1943C7.65138 12.4804 7.99606 12.9291 8.10929 13.0765C8.1313 13.1052 8.15891 13.1405 8.19086 13.1769C8.45309 13.4893 8.58171 13.5068 8.61616 13.5079C8.71305 13.5039 8.96159 13.2676 9.14262 13.041C9.17501 12.8356 9.33035 11.9282 9.58051 11.6803C9.74247 11.5202 10.2175 11.4157 10.5085 11.3649L9.57601 10.293C9.55452 10.6669 9.48532 11.2405 9.2649 11.4047Z" fill="#FECD0F"/>
<path fill-rule="evenodd" clip-rule="evenodd" d="M7.85023 18.5259H7.37598V19.6463L8.92206 21.1782L7.85023 18.5259Z" fill="#FECD0F"/>
<path fill-rule="evenodd" clip-rule="evenodd" d="M7.38048 12.8591C7.4535 12.9891 7.64935 13.066 7.85598 13.1053C7.71741 12.926 7.56617 12.7133 7.4642 12.5127C7.3995 12.6748 7.3626 12.8165 7.38048 12.8591Z" fill="#FECD0F"/>
<path fill-rule="evenodd" clip-rule="evenodd" d="M3.82784 3.61872C3.82784 3.13349 4.2195 2.74184 4.70472 2.74184C5.18877 2.74184 5.58161 3.13349 5.58161 3.61872C5.58161 4.10269 5.18877 4.4956 4.70472 4.4956C4.2195 4.4956 3.82784 4.10269 3.82784 3.61872ZM3.14502 5.8787C2.80129 5.8787 2.52183 5.59931 2.52183 5.25558C2.52183 4.91067 2.80129 4.63121 3.14502 4.63121C3.48993 4.63121 3.76939 4.91067 3.76939 5.25558C3.76939 5.59931 3.48993 5.8787 3.14502 5.8787ZM5.40625 5.44964C6.41756 5.44964 7.23717 4.63003 7.23717 3.61872C7.23717 2.60615 6.41756 1.78662 5.40625 1.78662C4.39375 1.78662 3.57415 2.60615 3.57415 3.61872C3.57415 3.78355 3.59749 3.94375 3.6396 4.0957C3.53204 4.06419 3.41859 4.0466 3.30168 4.0466C2.6341 4.0466 2.09277 4.588 2.09277 5.25558C2.09277 5.92198 2.6341 6.46331 3.30168 6.46331C3.96816 6.46331 4.50949 5.92198 4.50949 5.25558C4.50949 5.24152 4.50831 5.22753 4.50713 5.21347C4.77253 5.36314 5.07886 5.44964 5.40625 5.44964Z" fill="white"/>
<path fill-rule="evenodd" clip-rule="evenodd" d="M6.09434 7.60121C6.01947 7.6632 5.94349 7.70759 5.85816 7.74153C5.77284 7.77775 5.68045 7.80352 5.58688 7.82568C5.4361 7.86079 5.27944 7.88413 5.12388 7.89702C5.06197 7.90283 5.01515 7.95665 5.01986 8.01864C5.02567 8.08408 5.08413 8.13201 5.14965 8.12266C5.26891 8.10514 5.38582 8.08173 5.50273 8.0525C5.5483 8.04087 5.59277 8.02916 5.63723 8.01628C5.73654 7.98587 5.83593 7.95083 5.93304 7.90401C6.00202 7.87132 6.06511 7.82568 6.12239 7.77539C6.14697 7.75441 6.17031 7.731 6.19254 7.70877C6.33868 7.55557 6.44742 7.38028 6.54216 7.20131C6.63566 7.02131 6.71635 6.8366 6.7818 6.646C6.69412 6.82717 6.59245 7.00025 6.48018 7.16398C6.3668 7.32646 6.24165 7.48195 6.09434 7.60121Z" fill="black"/>
<path fill-rule="evenodd" clip-rule="evenodd" d="M5.63743 8.01598C5.59297 8.02887 5.5485 8.04057 5.50293 8.0522C5.65024 8.17147 6.20445 8.60523 6.40205 8.49532C6.53765 8.41817 6.55753 7.98911 6.45233 7.87331C6.35176 7.76347 6.22786 7.75412 6.12259 7.7751C6.06531 7.82538 6.00222 7.87103 5.93324 7.90371C5.83613 7.95053 5.73675 7.98558 5.63743 8.01598Z" fill="#CA1117"/>
<path fill-rule="evenodd" clip-rule="evenodd" d="M5.58189 3.61858C5.58189 3.13336 5.18906 2.7417 4.70501 2.7417C4.21978 2.7417 3.82812 3.13336 3.82812 3.61858C3.82812 4.10256 4.21978 4.49547 4.70501 4.49547C5.18906 4.49547 5.58189 4.10256 5.58189 3.61858Z" fill="black"/>
<path fill-rule="evenodd" clip-rule="evenodd" d="M3.14467 4.63135C2.80094 4.63135 2.52148 4.91081 2.52148 5.25572C2.52148 5.59945 2.80094 5.87883 3.14467 5.87883C3.48958 5.87883 3.76904 5.59945 3.76904 5.25572C3.76904 4.91081 3.48958 4.63135 3.14467 4.63135Z" fill="black"/>
<path fill-rule="evenodd" clip-rule="evenodd" d="M2.06223 10.9738C1.97021 10.979 1.90999 11.0095 1.8784 11.0673C1.7799 11.2473 1.94923 11.6731 2.14049 12.0114L2.14829 12.0252C2.15256 12.0331 2.1561 12.0399 2.15978 12.0449C2.17384 12.0673 2.17936 12.0784 2.17936 12.0784L2.07482 12.1308C2.07423 12.1298 2.0704 12.1222 2.06319 12.1106C2.05988 12.1066 2.05332 12.0952 2.04589 12.0817L2.03978 12.0708C1.8505 11.7636 1.57921 11.4443 1.3906 11.471C1.26456 11.4884 1.18815 11.6673 1.14618 11.8142C1.13183 11.8648 1.21406 11.9766 1.27406 12.0581C1.32552 12.1281 1.37411 12.1942 1.39333 12.2523C1.41379 12.3125 1.41924 12.3979 1.42498 12.4885C1.43175 12.5957 1.43941 12.7174 1.47401 12.7687C1.54793 12.8752 1.752 13.0832 1.88945 13.0832C1.89026 13.0832 1.89114 13.0832 1.89202 13.0832C1.93458 13.0828 2.02248 12.9795 2.07512 12.8871L2.22898 12.6167L2.18371 12.9245C2.16501 13.0518 2.1748 13.1905 2.20395 13.2099C2.364 13.3186 2.68314 13.1807 2.86483 13.0784C2.86483 13.0776 2.86476 13.0766 2.86476 13.0758C2.86601 12.346 2.94714 11.7056 3.09247 11.2569C2.98292 11.2031 2.70876 11.0709 2.59914 11.0409C2.47031 11.0051 2.19732 10.9675 2.06223 10.9738Z" fill="#FECD0F"/>
<path fill-rule="evenodd" clip-rule="evenodd" d="M11.9363 15.5096C11.755 15.842 11.3611 16.3724 11.1007 16.7115L10.9665 16.0847L10.738 16.1338L11.1126 17.8839L11.922 18.533V19.0932L11.0353 19.0101L10.0098 16.5034L9.79344 16.592L10.0853 17.3056C9.67948 17.4232 8.39526 17.7867 7.96753 17.8047C7.49003 17.8247 6.6906 17.7905 6.06255 17.6665L6.04017 17.7797L6.03833 17.7816L6.06107 17.6653C5.76696 17.6079 5.53874 17.5366 5.38296 17.4536C4.77015 17.1256 3.65158 16.1385 3.42093 15.499C3.22252 14.95 3.09582 13.9993 3.0981 13.0766C3.09943 12.3365 3.18306 11.6942 3.33325 11.2689C3.35872 11.1983 3.38301 11.1388 3.40738 11.0872C3.4813 10.9303 3.71887 10.7246 3.92846 10.543C4.09963 10.3948 4.26144 10.2547 4.35568 10.128C4.3852 10.0879 4.43217 10.0073 4.47199 9.91447L4.9478 9.8354L4.5088 9.81597C4.53737 9.72689 4.55106 9.63641 4.53398 9.56109L5.32076 9.49277L4.39617 9.40524C2.9865 8.99091 2.16748 7.67106 1.8945 6.66659C1.61511 5.64011 0.764878 2.51658 3.83224 0.560579C4.46706 0.155229 6.25749 0.156481 7.03889 0.463254C9.6328 1.48311 11.4301 3.36571 12.0994 5.76424C12.1868 6.07682 12.2777 6.48637 12.3624 6.949C12.5746 8.09062 12.7165 9.33471 12.7241 10.1183L12.841 10.1171L12.7568 10.1978L12.841 10.2796H12.7241L12.723 10.3328C12.6856 11.7495 12.4625 14.262 12.0013 15.3767C11.9836 15.4189 11.9612 15.4647 11.9363 15.5096ZM11.8916 17.832L12.8449 18.3335C12.8707 18.3472 12.8914 18.3664 12.9059 18.3902C13.1333 18.7649 14.2748 20.6732 14.4106 21.4248C14.4182 21.4671 14.3964 21.6301 14.3697 21.7663C14.3673 21.79 14.3508 21.7992 14.3411 21.8026C14.3319 21.8061 14.3137 21.8092 14.297 21.7926C13.7071 21.2088 13.3239 20.7627 13.2182 20.5367C13.106 20.2962 13.0351 19.4997 13.0165 19.2042C13.0074 19.1395 12.966 19.086 12.9056 19.0613C12.8453 19.0366 12.776 19.046 12.7242 19.0856L12.1559 19.521V18.4207L11.8916 18.2088V17.832ZM6.42203 18.4677C6.57288 18.5482 6.93796 18.5437 7.1424 18.5335V19.8703C6.77187 19.6696 6.1492 19.3065 5.98466 19.097C5.8168 18.8822 5.61141 18.1882 5.49884 17.758C5.63069 17.8053 5.78655 17.8474 5.96382 17.8839C6.05474 18.0414 6.26434 18.3823 6.42203 18.4677ZM2.86429 13.076C2.86429 13.0769 2.86436 13.0778 2.86436 13.0786C2.68267 13.1809 2.36353 13.3188 2.20348 13.2101C2.17433 13.1908 2.16453 13.052 2.18323 12.9248L2.22851 12.6169L2.07464 12.8873C2.02201 12.9797 1.93411 13.083 1.89155 13.0834C1.89067 13.0834 1.88979 13.0834 1.88898 13.0834C1.75153 13.0834 1.54745 12.8755 1.47354 12.7689C1.43894 12.7176 1.43128 12.5959 1.42451 12.4887C1.41877 12.3981 1.41332 12.3127 1.39285 12.2525C1.37364 12.1945 1.32505 12.1283 1.27359 12.0583C1.21359 11.9768 1.13136 11.865 1.14571 11.8144C1.18768 11.6675 1.26409 11.4886 1.39013 11.4712C1.57874 11.4445 1.85003 11.7638 2.03931 12.071L2.04542 12.082C2.05285 12.0954 2.05941 12.1069 2.06272 12.1108C2.06993 12.1225 2.07376 12.1301 2.07435 12.131L2.17889 12.0787C2.17889 12.0787 2.17337 12.0675 2.15931 12.0452C2.15563 12.0402 2.15209 12.0333 2.14782 12.0254L2.14002 12.0117C1.94876 11.6733 1.77943 11.2476 1.87793 11.0675C1.90952 11.0097 1.96974 10.9792 2.06176 10.9741C2.19685 10.9677 2.46984 11.0053 2.59867 11.0411C2.70829 11.0711 2.98245 11.2033 3.09199 11.2571C2.94667 11.7058 2.86554 12.3463 2.86429 13.076ZM14.9104 9.21243C16.4111 10.176 18.4934 10.0211 19.0063 9.96519C19.0818 10.4704 19.1922 11.5328 19.0045 11.8392C18.8172 12.1457 18.2016 12.3714 17.6584 12.5705C17.2526 12.7194 16.8692 12.86 16.6368 13.0347C16.5247 13.1197 16.41 13.2421 16.2862 13.4091C16.0795 13.6886 15.8807 14.0529 15.6884 14.4052C15.45 14.8419 15.2036 15.2934 14.971 15.5186C14.7029 15.776 13.9621 16.1866 13.5904 16.1876C13.2929 16.1876 12.5449 15.75 12.1893 15.5235C12.1982 15.5046 12.2093 15.4852 12.2171 15.4664C12.7203 14.2504 12.9184 11.6502 12.9552 10.3912L15.3969 12.7771L12.9571 10.0718C12.9461 9.35886 12.8316 8.29786 12.6571 7.27145C13.1437 7.74976 14.1961 8.75334 14.9104 9.21243ZM7.37622 18.526H7.85047L8.9223 21.1783L7.37622 19.6464V18.526ZM13.5908 16.4215C14.0356 16.4202 14.8329 15.9752 15.1332 15.6871C15.3918 15.4368 15.6356 14.9901 15.8937 14.5172C16.0821 14.1719 16.2771 13.8147 16.4741 13.5483C16.5843 13.3995 16.6839 13.2925 16.7777 13.2212C16.9821 13.0677 17.3498 12.9328 17.739 12.7901C18.3463 12.5674 18.9743 12.3371 19.2039 11.9613C19.4888 11.4967 19.248 9.98676 19.2196 9.81619L19.2009 9.70362L19.0878 9.7196C19.0636 9.72313 16.6494 10.0512 15.0369 9.01572C14.1862 8.46909 12.7872 7.07349 12.5857 6.87081C12.5016 6.41651 12.4115 6.01248 12.3246 5.70129C11.6351 3.23047 9.78829 1.29302 7.12429 0.245634C6.36991 -0.0505378 4.46022 -0.117826 3.70642 0.363499C0.494031 2.41197 1.37828 5.66058 1.66885 6.72799C1.95634 7.78554 2.82026 9.17408 4.30952 9.62242C4.31725 9.68492 4.24871 9.87884 4.1678 9.98882C4.08903 10.0946 3.93671 10.2265 3.77533 10.3663C3.53717 10.5726 3.29099 10.7859 3.19587 10.9875C3.17401 11.0339 3.15229 11.0872 3.13013 11.1456C3.01028 11.0869 2.74547 10.9602 2.62988 10.9284C2.49207 10.8901 2.2051 10.8497 2.05558 10.8574C1.92152 10.8648 1.82721 10.9167 1.77538 11.0114C1.69911 11.1508 1.73357 11.3611 1.80615 11.57C1.67114 11.4333 1.5197 11.3344 1.37415 11.3554C1.22287 11.3763 1.10817 11.52 1.0333 11.7825C1.00318 11.8882 1.09278 12.0099 1.17943 12.1276C1.22323 12.1871 1.26851 12.2487 1.28198 12.2897C1.29759 12.3357 1.30274 12.4172 1.30782 12.4959C1.31585 12.6241 1.32424 12.7565 1.37703 12.835C1.43143 12.9133 1.68056 13.2059 1.89339 13.2003C1.95207 13.1997 2.00957 13.1576 2.05757 13.1074C2.06279 13.189 2.08318 13.2706 2.13811 13.3071C2.20039 13.3495 2.2746 13.3661 2.3533 13.3661C2.53168 13.3661 2.73222 13.2802 2.86517 13.2109C2.87489 14.1158 3.00387 15.033 3.20095 15.5783C3.44743 16.2617 4.56012 17.2588 5.22601 17.6332C5.28564 17.8764 5.55207 18.9232 5.80053 19.2413C6.0613 19.5732 7.08947 20.1087 7.20579 20.1686L7.37622 20.2563V19.9756L8.84618 21.4322C8.88674 21.4727 8.93945 21.4936 8.99268 21.4936C9.03222 21.4936 9.07212 21.4821 9.10767 21.4585C9.19138 21.4032 9.22348 21.2994 9.18579 21.2063L8.00809 18.2922H7.37622V18.2827L7.25018 18.2925C7.01128 18.3113 6.63052 18.3141 6.53283 18.2619C6.47725 18.2318 6.37374 18.0963 6.27251 17.9398C6.74912 18.0129 7.27904 18.0439 7.69138 18.0439C7.79511 18.0439 7.89141 18.0419 7.97739 18.0383C8.44539 18.0186 9.78969 17.6355 10.1745 17.5234L10.8725 19.2298L11.922 19.3281V19.6309C11.922 19.6998 11.9607 19.7615 12.0227 19.792C12.0847 19.8225 12.1574 19.8148 12.2118 19.7728L12.7909 19.3291C12.8118 19.613 12.8776 20.3595 13.0063 20.6357C13.1566 20.9568 13.7018 21.5324 14.1321 21.9583C14.185 22.0111 14.2544 22.0393 14.326 22.0393C14.357 22.0393 14.3885 22.0339 14.4191 22.023C14.5209 21.9871 14.5911 21.898 14.6007 21.8015C14.6149 21.7303 14.6596 21.4899 14.6409 21.3837C14.5013 20.6109 13.4307 18.8041 13.1055 18.2684C13.0689 18.2087 13.0166 18.1597 12.9539 18.1267L11.9436 17.5952C11.8821 17.5639 11.8102 17.5665 11.7512 17.6026C11.6927 17.6385 11.6578 17.7008 11.6578 17.7694V18.0212L11.3238 17.7534L11.1648 17.0107C11.4265 16.6755 11.8451 16.1228 12.079 15.7305C12.3804 15.9221 13.2028 16.4215 13.5908 16.4215Z" fill="black"/>
<path fill-rule="evenodd" clip-rule="evenodd" d="M9.58062 11.6802C9.33046 11.9281 9.17513 12.8354 9.14274 13.0408C8.9617 13.2675 8.71316 13.5037 8.61628 13.5078C8.58183 13.5067 8.45321 13.4892 8.19098 13.1768C8.15903 13.1404 8.13142 13.105 8.10941 13.0763C7.99618 12.9289 7.6515 12.4803 7.58833 12.1941L7.58781 12.1916C7.58141 12.1656 7.57824 12.1386 7.57824 12.1136C7.58119 11.9304 7.79932 11.5505 7.94318 11.4783C7.99007 11.4545 8.06229 11.4462 8.14644 11.4462C8.25348 11.4462 8.37981 11.4597 8.49724 11.4722C8.80217 11.5048 9.0901 11.5356 9.26502 11.4046C9.48543 11.2404 9.55464 10.6667 9.57613 10.2928L10.5086 11.3648C10.2177 11.4156 9.74259 11.5201 9.58062 11.6802ZM7.37991 12.8592C7.36269 12.8166 7.39824 12.6749 7.4606 12.5128C7.55888 12.7134 7.70465 12.9261 7.83819 13.1054C7.63905 13.0661 7.45029 12.9891 7.37991 12.8592ZM10.6218 8.021L10.4203 8.1396C10.421 8.14085 10.4317 8.15911 10.4504 8.1943C10.7813 8.78966 11.1616 9.59741 11.1445 9.91523C11.1308 10.1571 10.7613 10.7363 10.5439 11.0499L10.0977 10.5361C10.1811 10.3393 10.3952 9.80723 10.3745 9.57091C10.3467 9.26782 9.88997 8.58809 9.83793 8.51145L9.64453 8.64301C9.82784 8.91268 10.1248 9.40902 10.1415 9.59175C10.1531 9.72382 10.0347 10.0696 9.92627 10.3389L9.35284 9.67884L9.35189 9.99047C9.35056 10.4181 9.27761 11.1036 9.12507 11.2173C9.02354 11.2935 8.75726 11.2648 8.5222 11.2398C8.2565 11.2114 8.00568 11.1844 7.8379 11.2695C7.60431 11.3868 7.34848 11.8631 7.34443 12.1117C7.34443 12.136 7.34619 12.1602 7.34929 12.1843C7.25689 12.3695 7.07321 12.7835 7.17378 12.9693C7.3473 13.29 7.8404 13.3552 8.04794 13.3682C8.2657 13.6181 8.45123 13.7416 8.61289 13.7416C8.61731 13.7416 8.62173 13.7416 8.62607 13.7414C8.88234 13.7306 9.24175 13.2944 9.34585 13.161L9.3647 13.1368L9.36926 13.1065C9.42985 12.7032 9.58548 12.0045 9.74502 11.8464C9.86288 11.73 10.4042 11.6108 10.7509 11.5635L10.9647 11.5343L10.7021 11.2319C10.8743 10.9877 11.3584 10.2732 11.378 9.92811C11.4028 9.46593 10.8308 8.39727 10.6558 8.08262C10.6344 8.04242 10.6218 8.021 10.6218 8.021Z" fill="black"/>
<defs>
<linearGradient id="paint0_linear" x1="5.95727" y1="0.243652" x2="12.1824" y2="16.457" gradientUnits="userSpaceOnUse">
<stop stop-color="#B8E27F"/>
<stop offset="1" stop-color="#2A6700"/>
</linearGradient>
</defs>
</svg>
