<svg width="24" height="24" viewBox="0 0 24 24" fill="none" xmlns="http://www.w3.org/2000/svg">
<path d="M12 24C18.6274 24 24 18.6274 24 12C24 5.37258 18.6274 0 12 0C5.37258 0 0 5.37258 0 12C0 18.6274 5.37258 24 12 24Z" fill="black"/>
<path d="M12.7057 18.4328C12.7448 18.5243 12.7657 18.624 12.7657 18.729C12.7657 19.155 12.4148 19.5 11.982 19.5C11.5492 19.5 11.1982 19.155 11.1982 18.729C11.1982 18.627 11.2185 18.5295 11.2552 18.4403L6.59775 15.795C6.52418 15.8699 6.43638 15.9293 6.33953 15.9697C6.24267 16.0102 6.13871 16.0308 6.03375 16.0305C5.601 16.0305 5.25 15.6855 5.25 15.2595C5.25 14.8995 5.49975 14.598 5.838 14.5125V9.24226C5.67087 9.20089 5.5223 9.10496 5.4158 8.96967C5.30931 8.83438 5.25096 8.66744 5.25 8.49526C5.25 8.06926 5.601 7.72426 6.03375 7.72426C6.29325 7.72426 6.5235 7.84876 6.66675 8.04076L11.2208 5.45326C11.2056 5.3937 11.1981 5.33246 11.1982 5.27101C11.1982 4.84501 11.55 4.50001 11.982 4.50001C12.099 4.4994 12.2146 4.5252 12.3203 4.57549C12.4259 4.62577 12.5189 4.69924 12.5922 4.79043C12.6655 4.88162 12.7173 4.98818 12.7437 5.10216C12.7701 5.21614 12.7705 5.33462 12.7448 5.44876L17.3258 8.05126C17.4683 7.85326 17.7015 7.72426 17.9662 7.72426C18.399 7.72426 18.75 8.06926 18.75 8.49526C18.75 8.85526 18.4987 9.15826 18.1597 9.24301L18.1462 14.508C18.492 14.5883 18.75 14.8943 18.75 15.2595C18.75 15.6855 18.399 16.0305 17.9662 16.0305C17.8568 16.0308 17.7486 16.0082 17.6484 15.9643C17.5482 15.9204 17.4582 15.8561 17.3843 15.7755L12.7057 18.4328ZM12.4965 18.1478L17.2118 15.4688C17.1677 15.3155 17.1729 15.1523 17.2267 15.0023L12.678 12.0773C12.5908 12.1695 12.4857 12.2428 12.3691 12.2929C12.2525 12.3429 12.1269 12.3686 12 12.3683C11.8586 12.3686 11.7189 12.3367 11.5917 12.275C11.4645 12.2132 11.353 12.1233 11.2657 12.012L6.783 15.0323C6.82998 15.1828 6.82894 15.3443 6.78 15.4943L11.4615 18.153C11.6055 18.0269 11.7906 17.9576 11.982 17.958C12.1792 17.958 12.3593 18.0293 12.4965 18.147V18.1478ZM12.5858 5.76301C12.4791 5.88889 12.3356 5.97809 12.1755 6.01801L12.1635 10.56C12.3758 10.596 12.5687 10.7056 12.7081 10.8697C12.8476 11.0337 12.9249 11.2417 12.9263 11.457C12.9263 11.5703 12.9053 11.6798 12.8663 11.7795L17.4188 14.7075C17.52 14.61 17.6475 14.5403 17.79 14.508L17.8035 9.24976C17.6097 9.21025 17.4384 9.09814 17.3246 8.93638C17.2108 8.77463 17.1632 8.57549 17.1915 8.37976L12.5858 5.76301ZM11.382 5.76676L6.80625 8.36551C6.83874 8.56357 6.7931 8.7665 6.67895 8.93158C6.56479 9.09666 6.39103 9.211 6.19425 9.25051V14.5043C6.35325 14.5373 6.49425 14.6168 6.60225 14.7293L11.106 11.6955C11.0743 11.5752 11.0675 11.4496 11.0859 11.3266C11.1044 11.2035 11.1478 11.0855 11.2134 10.9798C11.2791 10.8741 11.3656 10.7828 11.4677 10.7117C11.5698 10.6405 11.6853 10.591 11.8073 10.566L11.8193 6.02551C11.6489 5.9901 11.495 5.89908 11.382 5.76676Z" fill="white"/>
</svg>
