<svg width="24" height="24" viewBox="0 0 24 24" fill="none" xmlns="http://www.w3.org/2000/svg">
<path fill-rule="evenodd" clip-rule="evenodd" d="M16.6541 7.42529H6.89648V9.18636H16.6541V7.42529ZM16.6541 11.1284H6.89648V12.8895H16.6541V11.1284ZM6.89648 14.8316H16.6541V16.5926H6.89648V14.8316Z" fill="#0DA9FF"/>
<path d="M12 0C5.37367 0 0 5.37367 0 12C0 18.6263 5.37367 24 12 24C18.6263 24 24 18.6263 24 12C24 5.37367 18.6263 0 12 0ZM12.8896 22.2027V19.4069H11.1286V22.2027C5.88199 21.7489 1.76097 17.3555 1.76097 12C1.76097 6.64448 5.88199 2.25113 11.1286 1.79728V4.57489H12.8896V1.79728C18.118 2.25113 22.2571 6.64448 22.2571 12C22.239 17.3555 18.118 21.7489 12.8896 22.2027Z" fill="#202326"/>
</svg>
