<svg width="24" height="24" viewBox="0 0 24 24" fill="none" xmlns="http://www.w3.org/2000/svg">
<path d="M12.2895 21.1767C17.5538 21.1767 21.8213 16.9092 21.8213 11.645C21.8213 6.38078 17.5538 2.11328 12.2895 2.11328C7.02531 2.11328 2.75781 6.38078 2.75781 11.645C2.75781 16.9092 7.02531 21.1767 12.2895 21.1767Z" fill="url(#paint0_linear)"/>
<path d="M13.4979 10.6199C14.2702 9.61569 14.0276 7.72605 13.0924 7.07985C12.1573 6.43365 11.1724 6.75717 10.982 6.93909C10.7916 7.12101 10.8003 11.3594 10.8003 11.3594C10.8003 11.3594 12.7255 11.6244 13.4979 10.6199ZM13.6412 12.4241C12.9184 12.1095 10.8 12.1923 10.8 12.1923C10.8 12.1923 10.7671 13.2626 10.844 15.2655C10.9209 17.2684 11.6055 17.2575 12.3172 17.2849C13.029 17.3123 14.3864 17.2628 14.8333 15.5358C15.2802 13.8087 14.3643 12.7388 13.6412 12.4244" fill="black"/>
<path d="M12 0C5.37264 0 0 5.37264 0 12C0 18.6274 5.37264 24 12 24C18.6274 24 24 18.6275 24 12C24 5.37252 18.6275 0 12 0ZM16.8743 8.63688C16.9073 10.6397 15.161 11.2025 15.161 11.2025C15.161 11.2025 15.8728 10.5146 15.8396 8.75292C15.8065 6.9912 14.4824 6.12108 14.4824 6.12108C14.4824 6.12108 16.8413 6.63408 16.8743 8.63688ZM9.02316 18.0466L6.60648 18.1625V17.9418C6.60648 17.9418 8.08524 17.7928 8.08524 15.1997V8.57328C8.08524 6.37728 6.60648 5.99664 6.60648 5.99664V5.79816L9.02316 5.91384V18.0466ZM12.8852 18.1706C11.8342 18.179 9.88368 18.0355 9.88368 18.0355V5.93064C11.1694 5.91396 11.619 5.7402 12.6782 5.88912C13.7375 6.03804 14.648 7.07268 14.8963 8.1072C15.1446 9.14172 14.8799 10.1266 14.5403 10.6644C14.2007 11.2022 13.4562 11.575 13.4562 11.575C13.4562 11.575 14.5818 11.9556 14.9792 12.2866C15.3767 12.6175 16.1461 13.5197 15.8482 15.4812C15.5502 17.4427 13.9362 18.1625 12.8851 18.1706H12.8852ZM15.6785 17.724C15.6785 17.724 16.8245 16.7473 16.7741 14.7671C16.7237 12.7868 15.6785 11.856 15.6785 11.856C15.6785 11.856 17.8342 12.3858 17.8589 14.7444C17.8836 17.103 15.6785 17.724 15.6785 17.724Z" fill="black"/>
<defs>
<linearGradient id="paint0_linear" x1="7.73121" y1="5.20988" x2="16.9122" y2="18.1712" gradientUnits="userSpaceOnUse">
<stop stop-color="#DEB354"/>
<stop offset="1" stop-color="#C89550"/>
</linearGradient>
</defs>
</svg>
