<svg width="24" height="25" viewBox="0 0 24 25" fill="none" xmlns="http://www.w3.org/2000/svg">
<g clip-path="url(#clip0)">
<path d="M23.9999 12.0019C23.9999 18.6289 18.6269 24.0019 11.9971 24.0029C5.37205 24.0029 -0.000959637 18.6289 5.14574e-07 12.001C-0.00191979 5.37302 5.37109 0 11.999 0C18.6269 0 23.9999 5.37398 23.9999 12.0019Z" fill="#EAB300"/>
<path d="M16.7206 9.06175C16.5661 7.45445 15.1786 6.9158 13.4254 6.76218V4.53174H12.0687V6.70265C11.7125 6.70265 11.3476 6.70937 10.9857 6.71705V4.53174H9.62898L9.62802 6.76026C9.33422 6.76602 9.04521 6.77178 8.76389 6.77178V6.76506L6.89256 6.7641V8.21393C6.89256 8.21393 7.89496 8.19473 7.87767 8.21297C8.42784 8.21297 8.60643 8.53175 8.65827 8.80731V11.3479C8.69668 11.3479 8.74565 11.3498 8.80134 11.3575H8.65827L8.65731 14.9168C8.63331 15.0896 8.53153 15.3652 8.14748 15.3661C8.16476 15.3815 7.1614 15.3661 7.1614 15.3661L6.8916 16.9869H8.65827C8.98664 16.9869 9.31021 16.9926 9.62706 16.9946L9.62802 19.25H10.9838V17.0186C11.3553 17.0262 11.7154 17.0291 12.0678 17.0291L12.0668 19.25H13.4235V16.9994C15.7048 16.8688 17.3034 16.2936 17.5012 14.1506C17.6616 12.4252 16.8503 11.6542 15.555 11.3431C16.3433 10.9437 16.8359 10.2379 16.7206 9.06175ZM14.8215 13.8837C14.8215 15.5687 11.9362 15.3777 11.0154 15.3777V12.3887C11.9362 12.3906 14.8215 12.1266 14.8215 13.8837ZM14.1897 9.66761C14.1897 11.201 11.7816 11.0214 11.0154 11.0224V8.31283C11.7826 8.31283 14.1906 8.06895 14.1897 9.66761Z" fill="white"/>
<path d="M8.66016 11.2886H8.86179V11.4374H8.66016V11.2886Z" fill="white"/>
</g>
<defs>
<clipPath id="clip0">
<rect width="24" height="24.0038" fill="white"/>
</clipPath>
</defs>
</svg>
