<svg width="24" height="24" viewBox="0 0 24 24" fill="none" xmlns="http://www.w3.org/2000/svg">
<path fill-rule="evenodd" clip-rule="evenodd" d="M13.8426 18.7999L17.1997 22.1726L16.973 22.3628C15.8202 23.2924 14.3815 23.8972 12.8005 24V19.2269C13.1712 19.1538 13.5158 19.0181 13.8426 18.7999ZM10.7257 18.7999L10.8746 18.9022C11.1293 19.0616 11.4157 19.166 11.7333 19.2269V24L11.4189 23.9714C9.85663 23.7965 8.44708 23.1447 7.33305 22.1726L10.7257 18.7999ZM9.59062 17.0665L9.63929 17.2867C9.71755 17.5756 9.84686 17.8463 9.9989 18.1002L6.62716 21.4668L6.43558 21.2369C5.49993 20.0698 4.90161 18.6406 4.7998 17.0665H9.59062ZM19.4657 17.0665L19.434 17.3899C19.2556 18.8887 18.651 20.2396 17.7271 21.3331L14.3992 17.9969L14.4991 17.8273C14.6231 17.5964 14.7116 17.3455 14.7834 17.0665H19.4657ZM4.7998 9.86669L9.9989 14.9885L9.88128 15.1719C9.73325 15.4243 9.62132 15.7063 9.55616 16.0003H4.7998V9.86669ZM17.772 11.6001L17.9635 11.83C18.8992 12.9971 19.4975 14.4262 19.5993 16.0003H14.8273L14.7703 15.7837C14.6845 15.4968 14.5596 15.2195 14.3992 14.9655L17.772 11.6001ZM12.6668 9.19944L12.9811 9.2282C14.5425 9.40396 15.9521 10.0558 17.0671 11.0278L13.6735 14.3996L13.5245 14.2972C13.2699 14.1378 12.9836 14.0334 12.6668 13.9725V9.19944ZM4.7998 0L11.7333 6.11799V13.8879L11.5271 13.9395C11.2598 14.0187 11.0214 14.1375 10.7883 14.267L10.7183 14.1963C9.87681 13.3485 6.05899 9.53577 4.8186 8.30247L4.81818 8.07547C4.81581 6.93188 4.8041 1.86214 4.80072 0.397478L4.7998 0Z" fill="#00A9E0"/>
</svg>
