<svg width="24" height="24" viewBox="0 0 24 24" fill="none" xmlns="http://www.w3.org/2000/svg">
<path fill-rule="evenodd" clip-rule="evenodd" d="M24 12C24 18.6274 18.6274 24 12 24C5.37255 24 0 18.6274 0 12C0 5.37255 5.37255 0 12 0C18.6274 0 24 5.37255 24 12Z" fill="#FFFFFE"/>
<path fill-rule="evenodd" clip-rule="evenodd" d="M14.1832 13.6631H10.0293V19.3387H14.1832C15.7504 19.3387 17.021 18.0681 17.021 16.5009V16.5009C17.021 14.9336 15.7504 13.6631 14.1832 13.6631Z" fill="#D7262E"/>
<path fill-rule="evenodd" clip-rule="evenodd" d="M14.1832 4.66162H10.0293V10.3372H14.1832C15.7504 10.3372 17.021 9.06668 17.021 7.49946V7.49939C17.021 5.93216 15.7504 4.66162 14.1832 4.66162Z" fill="#D7262E"/>
<path fill-rule="evenodd" clip-rule="evenodd" d="M12 22.2541C8.75927 22.2541 5.86535 20.7426 3.98486 18.3879V5.61209C5.86535 3.25744 8.75927 1.74583 12 1.74583C17.6541 1.74583 22.2542 6.34588 22.2542 12C22.2542 17.6541 17.6541 22.2541 12 22.2541ZM12 0C5.37255 0 0 5.37255 0 12C0 18.6274 5.37255 24 12 24C18.6274 24 24 18.6274 24 12C24 5.37255 18.6274 0 12 0Z" fill="#D7262E"/>
</svg>
