<svg width="24" height="24" viewBox="0 0 24 24" fill="none" xmlns="http://www.w3.org/2000/svg">
<path d="M9.47368 21.4738C13.3112 21.4738 16.4211 18.3639 16.4211 14.5264C16.4211 10.6889 13.3112 7.57905 9.47368 7.57905C5.63621 7.57905 2.52632 10.6889 2.52632 14.5264C2.52632 18.3639 5.63621 21.4738 9.47368 21.4738ZM9.47368 24.0001C4.24168 24.0001 0 19.7584 0 14.5264C0 9.29442 4.24168 5.05273 9.47368 5.05273C14.7057 5.05273 18.9474 9.29442 18.9474 14.5264C18.9474 19.7584 14.7057 24.0001 9.47368 24.0001Z" fill="#FBCC5C"/>
<path d="M14.5264 16.4211C18.3639 16.4211 21.4738 13.3112 21.4738 9.47368C21.4738 5.63621 18.3639 2.52632 14.5264 2.52632C10.6889 2.52632 7.57905 5.63621 7.57905 9.47368C7.57905 13.3112 10.6889 16.4211 14.5264 16.4211ZM14.5264 18.9474C9.29442 18.9474 5.05273 14.7057 5.05273 9.47368C5.05273 4.24168 9.29442 0 14.5264 0C19.7584 0 24.0001 4.24168 24.0001 9.47368C24.0001 14.7057 19.7584 18.9474 14.5264 18.9474Z" fill="#35D07F"/>
<path d="M14.8397 18.9475C15.4965 18.1517 15.9664 17.2195 16.2165 16.2165C17.2169 15.9664 18.1492 15.4965 18.9475 14.8397C18.9121 15.9993 18.662 17.1412 18.2098 18.2123C17.1412 18.662 15.9993 18.9121 14.8397 18.9475ZM7.78368 7.78368C6.78326 8.03379 5.85105 8.50368 5.05273 9.16052C5.0881 8.00095 5.33821 6.85905 5.79042 5.79042C6.85905 5.34073 8.00347 5.09063 9.16052 5.05273C8.50368 5.84852 8.03379 6.78073 7.78368 7.78368Z" fill="#5EA33B"/>
</svg>
