<svg width="24" height="24" viewBox="0 0 24 24" fill="none" xmlns="http://www.w3.org/2000/svg">
<g clip-path="url(#clip0)">
<path d="M0 2V6.02655V10.0531V14.0885H4.02655V10.0531V6.02655V2H0Z" fill="#424242"/>
<path d="M19.9736 10.0532V14.0886V18.1152V22.1417H24.0002V18.1152V14.0886V10.0532H19.9736Z" fill="#424242"/>
<path d="M11.9111 2V6.02655V9.88495L15.9377 13.9115V10.0531V6.02655L11.9111 2Z" fill="#424242"/>
<path d="M8.06152 10.23V14.0884V18.1149L12.0881 22.1415V18.1149V14.2565L8.06152 10.23Z" fill="#424242"/>
<path d="M11.9111 2H15.9377L23.9996 10.0531H19.9731L11.9111 2Z" fill="black"/>
<path d="M0 14.0884H4.02655L12.0885 22.1415H8.06195L0 14.0884Z" fill="black"/>
<path d="M15.9379 6.02655V10.0531V13.8584L4.02637 2V6.02655V6.27434V10.0531V14.0885L8.06176 18.115V14.0885V10.2832L19.9733 22.1416V18.115V17.8673V14.0885V10.0531L15.9379 6.02655Z" fill="#3CC68A"/>
</g>
<defs>
<clipPath id="clip0">
<rect width="24" height="24" fill="white"/>
</clipPath>
</defs>
</svg>
