<svg width="24" height="24" viewBox="0 0 24 24" fill="none" xmlns="http://www.w3.org/2000/svg">
<path d="M12 24C18.6274 24 24 18.6274 24 12C24 5.37258 18.6274 0 12 0C5.37258 0 0 5.37258 0 12C0 18.6274 5.37258 24 12 24Z" fill="#77C3B0"/>
<path d="M19.2581 9.96236L17.9921 8.69636C17.8019 8.50518 17.5756 8.35369 17.3263 8.25069C17.0771 8.14769 16.8098 8.09523 16.5401 8.09636H16.3451V7.89386C16.3451 7.53911 16.2611 7.20161 16.0841 6.89786C15.993 6.72171 15.8731 6.56201 15.7294 6.42537L14.4634 5.15861C14.2731 4.96734 14.0466 4.8158 13.7972 4.71279C13.5478 4.60979 13.2805 4.55738 13.0106 4.55861H7.17713C6.62813 4.55861 6.11363 4.77011 5.72513 5.15861L4.45913 6.42461C4.26741 6.61273 4.11549 6.83748 4.01241 7.08551C3.90933 7.33354 3.85721 7.59978 3.85913 7.86836L3.82538 13.3396C3.81788 13.8879 4.03688 14.4196 4.42538 14.8081L5.69138 16.0749C5.88165 16.2659 6.10799 16.4173 6.35725 16.5202C6.60651 16.6231 6.87373 16.6754 7.14338 16.6741H7.37138V16.8766C7.37138 17.2314 7.45613 17.5689 7.63313 17.8726C7.72613 18.0504 7.84388 18.2101 7.98788 18.3451L9.25388 19.6126C9.44433 19.8034 9.67072 19.9545 9.91996 20.0573C10.1692 20.16 10.4363 20.2123 10.7059 20.2111H16.5484C17.0974 20.2111 17.6119 20.0004 18.0004 19.6119L19.2671 18.3459C19.458 18.1554 19.6093 17.9291 19.7121 17.6799C19.815 17.4306 19.8674 17.1635 19.8664 16.8939V11.4061C19.865 11.1374 19.8106 10.8715 19.7063 10.6238C19.6021 10.3761 19.45 10.1513 19.2589 9.96236H19.2581ZM7.14338 14.8164C7.0898 14.8164 7.03835 14.7954 7.00013 14.7579L6.36713 14.1241L5.73338 13.4911C5.70619 13.4592 5.68601 13.4219 5.67413 13.3816V7.87737C5.67413 7.81736 5.69963 7.76711 5.73413 7.73336L7.00013 6.46737C7.01663 6.45012 7.03388 6.44187 7.05038 6.43361C7.08167 6.41729 7.11635 6.40856 7.15163 6.40811H12.9941C13.0279 6.40811 13.0534 6.41637 13.0871 6.43361C13.1126 6.44187 13.1291 6.45911 13.1464 6.47561L14.4124 7.74236C14.4309 7.75821 14.4453 7.77827 14.4544 7.80086C14.4634 7.80986 14.4634 7.81811 14.4634 7.82636C14.4634 7.83462 14.4709 7.84361 14.4709 7.85186C14.4709 7.86011 14.4799 7.88561 14.4799 7.90211V8.17211C14.4799 8.29061 14.3869 8.37462 14.2774 8.37462H13.2649C13.211 8.37488 13.1593 8.35385 13.1209 8.31611L12.5464 7.74236H7.59938L7.38863 7.95236L7.10138 8.24037V12.9931L7.59938 13.4911H12.5381L13.1126 12.9091L13.1201 12.9001C13.1374 12.8919 13.1546 12.8746 13.1711 12.8664C13.1966 12.8499 13.2311 12.8499 13.2559 12.8499H14.2684C14.3359 12.8499 14.3959 12.8836 14.4379 12.9339C14.4641 12.9679 14.4789 13.0094 14.4799 13.0524V13.3396C14.4798 13.3933 14.4585 13.4448 14.4206 13.4829L13.7876 14.1159L13.1546 14.7489C13.1464 14.7579 13.1291 14.7661 13.1209 14.7744C13.1209 14.7744 13.1126 14.7826 13.1036 14.7826C13.0954 14.7916 13.0871 14.7916 13.0781 14.7916C13.0706 14.7916 13.0706 14.7916 13.0616 14.7999C13.0534 14.7999 13.0444 14.8081 13.0361 14.8081H7.14338V14.8164ZM18.0176 16.8766C18.0173 16.9304 17.9957 16.9819 17.9576 17.0199L16.6916 18.2866C16.6769 18.3006 16.6599 18.312 16.6414 18.3204C16.6101 18.3367 16.5754 18.3454 16.5401 18.3459H10.6976C10.665 18.3454 10.633 18.3366 10.6046 18.3204C10.582 18.3113 10.562 18.2969 10.5461 18.2784L9.27938 17.0116C9.26288 16.9951 9.24563 16.9779 9.23738 16.9524C9.22838 16.9449 9.22838 16.9359 9.22838 16.9276C9.22838 16.9186 9.22088 16.9104 9.22088 16.9021C9.22088 16.8939 9.21188 16.8684 9.21188 16.8511V16.5811C9.21188 16.4634 9.30488 16.3786 9.41438 16.3786H10.4269C10.4869 16.3786 10.5371 16.4041 10.5709 16.4379L11.1454 17.0116H16.0841L16.2949 16.8009L16.5821 16.5136V11.7609L16.0841 11.2621H11.1536L10.5799 11.8449L10.5709 11.8531C10.5544 11.8621 10.5371 11.8786 10.5206 11.8869C10.4951 11.9041 10.4614 11.9041 10.4359 11.9041H9.42338C9.39061 11.9035 9.35838 11.8955 9.32906 11.8809C9.29974 11.8662 9.27406 11.8452 9.25388 11.8194C9.22777 11.7856 9.21306 11.7443 9.21188 11.7016V11.4144C9.21187 11.3878 9.21709 11.3614 9.22726 11.3368C9.23742 11.3123 9.25233 11.2899 9.27113 11.2711L9.90413 10.6381L10.5371 10.0044C10.5461 9.99611 10.5626 9.98786 10.5709 9.97887C10.5709 9.97887 10.5799 9.97136 10.5881 9.97136C10.5964 9.96236 10.6046 9.96236 10.6136 9.96236C10.6211 9.96236 10.6211 9.96237 10.6301 9.95411C10.6384 9.95411 10.6474 9.94512 10.6556 9.94512H16.5401C16.5986 9.94512 16.6496 9.97061 16.6834 10.0051L17.3164 10.6381L17.9501 11.2711C17.9576 11.2794 17.9666 11.2876 17.9749 11.3049C17.9898 11.3283 18.0012 11.3538 18.0086 11.3806V11.4226C18.0176 11.4061 18.0176 16.8766 18.0176 16.8766Z" fill="white"/>
</svg>
