<svg width="24" height="24" viewBox="0 0 24 24" fill="none" xmlns="http://www.w3.org/2000/svg">
<path d="M12 0C18.6274 0 24 5.37257 24 12C24 18.6274 18.6274 24 12 24C5.37257 24 0 18.6274 0 12C0 5.37257 5.37257 0 12 0Z" fill="#00467A"/>
<path d="M5.22949 10.4337C4.98881 10.4337 4.88184 10.5407 4.88184 10.7546C4.88184 10.7546 4.88184 15.5703 4.88184 16.2656C4.88184 16.5063 4.98881 16.5865 5.22949 16.5865C7.87841 16.6133 11.115 14.2592 13.7906 12.4133V6.0459C11.1424 7.86507 7.82492 10.4605 5.22949 10.4337Z" fill="url(#paint0_linear)"/>
<path d="M19.1676 12.9217C19.4083 12.9217 19.5152 12.8147 19.5152 12.6007C19.5152 12.6007 19.5152 7.785 19.5152 7.08969C19.5152 6.84901 19.4083 6.76878 19.1676 6.76878C16.4919 6.74204 13.2821 9.09608 10.6064 10.942V17.2828C13.2554 15.4636 16.5728 12.8682 19.1676 12.9217Z" fill="url(#paint1_linear)"/>
<path d="M13.7906 12.4133V8.7749C12.6934 9.47022 11.597 10.2197 10.5801 10.915V14.5534C11.704 13.8581 12.7744 13.1086 13.7906 12.4133Z" fill="#194AAD"/>
<defs>
<linearGradient id="paint0_linear" x1="10.1512" y1="15.8023" x2="8.59153" y2="6.96328" gradientUnits="userSpaceOnUse">
<stop offset="0.1" stop-color="#194AAD"/>
<stop offset="0.5" stop-color="#248FCB"/>
<stop offset="0.8" stop-color="#2BBFDF"/>
</linearGradient>
<linearGradient id="paint1_linear" x1="16.0499" y1="6.18642" x2="13.9875" y2="17.8819" gradientUnits="userSpaceOnUse">
<stop offset="0.1" stop-color="#194AAD"/>
<stop offset="0.5" stop-color="#248FCB"/>
<stop offset="0.8" stop-color="#2BBFDF"/>
</linearGradient>
</defs>
</svg>
