<svg width="24" height="24" viewBox="0 0 24 24" fill="none" xmlns="http://www.w3.org/2000/svg">
<path d="M11.3701 0H12.5691C13.6838 0.0928125 14.7976 0.272812 15.8551 0.647812C18.6094 1.58438 20.9832 3.57469 22.3894 6.12094C23.6129 8.31938 24.136 10.9116 23.8135 13.4081C23.4601 16.4081 21.9122 19.2487 19.5779 21.1669C17.4741 22.9247 14.7451 23.9044 12.0057 23.9072C9.44069 23.9053 6.88225 23.0522 4.83944 21.4987C2.45725 19.7119 0.799748 16.9978 0.28506 14.0662C-0.106815 11.9484 0.110685 9.73125 0.87006 7.71844C1.88631 5.00062 3.93006 2.685 6.50819 1.35187C8.00819 0.554062 9.68256 0.134062 11.3701 0ZM6.1435 4.73531C4.76162 5.92031 3.87475 7.61625 3.51381 9.38719C3.1735 11.1206 3.196 12.9375 3.63662 14.6512C4.15787 16.6087 5.35037 18.4613 7.1335 19.4841C8.82662 20.4553 10.8329 20.6812 12.7519 20.6119C14.5426 20.5219 16.3688 20.2894 18.0001 19.4981C18.0001 18.6244 18.001 17.7497 17.9991 16.8759C16.126 17.9166 13.9416 18.5109 11.7938 18.1997C10.5132 18.0319 9.25319 17.4328 8.45725 16.3922C7.46444 15.1622 7.0585 13.5572 7.03694 12C6.99006 10.1709 7.41756 8.25375 8.59506 6.81281C9.40318 5.8425 10.6632 5.36906 11.8969 5.28C13.9182 5.13375 15.9188 5.6025 17.8388 6.1875C17.8369 5.31375 17.8388 4.43906 17.8379 3.56437C15.7163 3.06094 13.5235 2.82469 11.3438 2.93812C9.49787 3.04781 7.58725 3.52312 6.1435 4.73531Z" fill="#2C3E50"/>
<path d="M6.14395 4.73531C7.5877 3.52312 9.49832 3.04781 11.3443 2.93812C13.5239 2.82468 15.7168 3.06093 17.8383 3.56437C17.8393 4.43906 17.8374 5.31374 17.8393 6.18749C15.9193 5.60249 13.9186 5.13374 11.8974 5.27999C10.6636 5.36906 9.40363 5.84249 8.59551 6.8128C7.41801 8.25374 6.99051 10.1709 7.03738 12C7.05895 13.5572 7.46488 15.1622 8.4577 16.3922C9.25363 17.4328 10.5136 18.0319 11.7943 18.1997C13.9421 18.5109 16.1264 17.9166 17.9996 16.8759C18.0014 17.7497 18.0005 18.6244 18.0005 19.4981C16.3693 20.2894 14.543 20.5219 12.7524 20.6119C10.8333 20.6812 8.82707 20.4553 7.13395 19.4841C5.35082 18.4612 4.15832 16.6087 3.63707 14.6512C3.19645 12.9375 3.17395 11.1206 3.51426 9.38718C3.8752 7.61624 4.76207 5.9203 6.14395 4.73531Z" fill="white"/>
</svg>
