<svg width="24" height="24" viewBox="0 0 24 24" fill="none" xmlns="http://www.w3.org/2000/svg">
<path d="M12.2243 0L1.91992 5.94783V17.8435L12.2243 23.7913L22.5286 17.8435V5.94783L12.2243 0Z" fill="url(#paint0_linear)"/>
<path d="M12.2243 0L1.91992 5.94783V17.8435L12.2243 23.7913V0Z" fill="url(#paint1_linear)"/>
<path d="M16.2418 5.13916H8.15482L7.21569 9.2609H17.2331L16.2418 5.13916ZM9.58961 14.9218V12.1826L7.18961 10.6696L4.47656 12.6783L8.18091 19.1218H9.66787L11.4157 17.4783V16.6696L9.58961 14.9218Z" fill="white"/>
<path d="M14.8326 9.88672H9.61523L10.4761 12.1824L10.2152 14.765H14.2326L13.9718 12.1824L14.8326 9.88672Z" fill="white"/>
<path d="M17.2325 10.6436L14.8586 12.1827V14.9218L13.0586 16.6696V17.4783L14.8064 19.0957H16.2673L19.9456 12.6783L17.2325 10.6436Z" fill="white"/>
<defs>
<linearGradient id="paint0_linear" x1="12.2243" y1="0" x2="12.2243" y2="23.7652" gradientUnits="userSpaceOnUse">
<stop stop-color="#25376C"/>
<stop offset="1" stop-color="#1F1F49"/>
</linearGradient>
<linearGradient id="paint1_linear" x1="7.05905" y1="23.7652" x2="7.05905" y2="0" gradientUnits="userSpaceOnUse">
<stop stop-color="#25376C"/>
<stop offset="1" stop-color="#1F1F49"/>
</linearGradient>
</defs>
</svg>
