<svg width="24" height="24" viewBox="0 0 24 24" fill="none" xmlns="http://www.w3.org/2000/svg">
<path d="M12 24C18.6274 24 24 18.6274 24 12C24 5.37258 18.6274 0 12 0C5.37258 0 0 5.37258 0 12C0 18.6274 5.37258 24 12 24Z" fill="black"/>
<path d="M11.9223 3.29856C11.8128 3.05106 12.2088 2.87556 12.3183 3.11106C14.8923 7.54506 17.4663 11.9813 20.0403 16.4221C19.903 16.4221 19.771 16.3771 19.639 16.3561L12.769 14.9866C12.544 14.9753 12.4945 14.6116 12.7143 14.5576L15.4098 13.8151C15.4419 13.8069 15.4718 13.7918 15.4974 13.7707C15.523 13.7497 15.5436 13.7232 15.5578 13.6933C15.572 13.6633 15.5794 13.6306 15.5795 13.5975C15.5796 13.5643 15.5723 13.5316 15.5583 13.5016L11.9223 3.29256V3.29781V3.29856Z" fill="white"/>
<path d="M11.5275 3.32129C11.5522 3.35729 11.574 3.39629 11.5927 3.43679C12.4072 5.74679 13.2428 8.05679 14.0513 10.3668C14.1233 10.5588 13.8533 10.7185 13.7213 10.5753C13.0282 9.84929 12.3682 9.10154 11.6865 8.37554C11.5762 8.27654 11.4165 8.34254 11.3453 8.44679L4.2615 16.7688C4.179 16.8565 4.10775 16.9885 3.96975 17.005C3.87075 17.005 3.80475 16.9278 3.75 16.8513V16.7238C6.34575 12.2583 8.9385 7.79129 11.5275 3.32129Z" fill="white"/>
<path d="M9.36016 11.2464C9.49216 11.2081 9.66766 11.3011 9.62416 11.4609C9.34891 12.4179 9.05791 13.3696 8.77141 14.3206C8.72791 14.4421 8.83741 14.5516 8.95291 14.5576C12.6602 15.3001 16.3674 16.0696 20.0739 16.8121C20.1459 16.8234 20.1954 16.8781 20.2502 16.9224V17.0761L20.1452 17.1864H4.41016C6.06016 15.2064 7.70491 13.2151 9.36016 11.2464Z" fill="white"/>
</svg>
