<svg width="24" height="24" viewBox="0 0 24 24" fill="none" xmlns="http://www.w3.org/2000/svg">
<g clip-path="url(#clip0)">
<path d="M18.8636 10.5602C18.8636 7.58416 16.4396 5.16016 13.4636 5.16016C11.2076 5.16016 9.28759 6.52816 8.47159 8.49616C6.55159 9.31216 5.18359 11.2322 5.18359 13.4642C5.18359 16.4402 7.60759 18.8642 10.5836 18.8642C12.8396 18.8642 14.7596 17.4962 15.5756 15.5282C17.4716 14.7122 18.8636 12.7922 18.8636 10.5602ZM10.5836 17.5202C8.35159 17.5202 6.52759 15.6962 6.52759 13.4642C6.52759 12.1922 7.12759 11.0402 8.06359 10.2962C8.06359 10.3922 8.06359 10.4882 8.06359 10.5602C8.06359 13.5362 10.4876 15.9602 13.4636 15.9602C13.5836 15.9602 13.6796 15.9602 13.7996 15.9602C13.0316 16.9202 11.8796 17.5202 10.5836 17.5202ZM14.5196 14.4722C14.1836 14.5682 13.8236 14.6162 13.4636 14.6162C11.2316 14.6162 9.40759 12.7922 9.40759 10.5602C9.40759 10.2002 9.45559 9.86416 9.55159 9.55216C9.88759 9.45616 10.2476 9.40816 10.6076 9.40816C12.8396 9.40816 14.6636 11.2322 14.6636 13.4642C14.6396 13.8242 14.5916 14.1602 14.5196 14.4722ZM15.9836 13.7282C15.9836 13.6322 15.9836 13.5362 15.9836 13.4642C15.9836 10.4882 13.5596 8.06416 10.5836 8.06416C10.4636 8.06416 10.3676 8.06416 10.2476 8.06416C10.9916 7.10416 12.1436 6.50416 13.4396 6.50416C15.6716 6.50416 17.4956 8.32816 17.4956 10.5602C17.4956 11.8562 16.8956 12.9842 15.9836 13.7282Z" fill="white"/>
<path d="M12 24.0001C18.6275 24.0001 24.0001 18.6275 24.0001 12C24.0001 5.3726 18.6275 0 12 0C5.3726 0 0 5.3726 0 12C0 18.6275 5.3726 24.0001 12 24.0001Z" fill="#47CC85"/>
<path d="M11.6575 18.6993C14.0786 18.6993 16.1292 17.1428 16.8951 14.9934H15.388C14.721 16.3769 13.288 17.3157 11.6575 17.3157C9.35981 17.3157 7.48216 15.4381 7.48216 13.1404C7.48216 11.5099 8.42099 10.0769 9.80451 9.40986V7.90279C7.6551 8.66868 6.09863 10.7193 6.09863 13.1404C6.09863 16.204 8.59393 18.6993 11.6575 18.6993ZM13.9304 13.6099H15.2151V13.3134L15.1163 12.671C16.4998 12.5228 17.3645 11.7569 17.3645 10.6452C17.3645 8.02632 12.9175 9.08868 12.9175 7.75456C12.9175 7.28515 13.461 6.98868 14.3998 6.98868C15.141 6.98868 15.9316 7.18632 16.6728 7.5075V6.2228C16.1539 6.07456 15.5857 5.97574 14.9928 5.95103L15.0916 5.30868V5.01221H13.8069V5.30868L13.9057 5.95103C12.448 6.09927 11.5833 6.79103 11.5833 7.80397C11.5833 10.5216 16.0304 9.28633 16.0304 10.744C16.0304 11.2381 15.4375 11.5593 14.5728 11.5593C13.6833 11.5593 12.7692 11.2875 11.6575 10.7687V12.1028C12.3986 12.4487 13.1892 12.6216 14.0292 12.671L13.9304 13.3134V13.6099Z" fill="white"/>
</g>
<defs>
<clipPath id="clip0">
<rect width="24" height="24" fill="white"/>
</clipPath>
</defs>
</svg>
