<svg width="24" height="24" viewBox="0 0 24 24" fill="none" xmlns="http://www.w3.org/2000/svg">
<path fill-rule="evenodd" clip-rule="evenodd" d="M16.7167 8.47549C17.7884 8.10941 18.7281 8.18259 18.7955 8.18843L18.8516 8.19551H23.9499V5.77835H18.9827C18.6508 5.75063 17.456 5.69473 16.0515 6.14943C14.7895 6.55802 13.1618 7.45304 12.043 9.41131C12.5876 10.1861 13.074 11.0754 13.4966 12.0698C13.582 11.8687 13.665 11.6634 13.7451 11.4537C14.3185 9.95511 15.3182 8.95313 16.7167 8.47549Z" fill="#1BB168"/>
<path fill-rule="evenodd" clip-rule="evenodd" d="M10.8266 12.0698C10.0141 13.6368 9.00385 14.78 7.85845 15.4151C6.83819 15.9809 6.04967 15.9658 5.93975 15.9605L5.90419 15.9551H2.51795V18.3651H2.45898V18.3722H5.77712C5.82895 18.3755 5.90101 18.3783 5.99117 18.3783C6.49541 18.3783 7.56591 18.2868 8.82594 17.6385C9.76978 17.1529 10.639 16.449 11.4097 15.546C11.6285 15.2898 11.8393 15.017 12.0422 14.7283C11.8385 14.3718 11.6516 13.9802 11.4869 13.5496C11.2847 13.0214 11.0641 12.5277 10.8266 12.0698Z" fill="#1BB168"/>
<path fill-rule="evenodd" clip-rule="evenodd" d="M11.4102 8.59349C10.6395 7.69063 9.77025 6.98667 8.82641 6.50113C7.34094 5.73685 6.11895 5.74622 5.77764 5.76739H2.51842V5.76474H0.0507812V18.3651H2.51842V8.18455H5.82163L5.86527 8.18933L5.93898 8.17913C6.04418 8.17394 6.83482 8.1566 7.85892 8.72446C9.00431 9.35961 10.0146 10.5028 10.8271 12.0698C11.0645 12.5277 11.2852 13.0213 11.4873 13.5496C11.652 13.9801 11.839 14.3718 12.0427 14.7283C13.1616 16.6866 14.7893 17.5816 16.0512 17.9902C17.0553 18.3153 17.9522 18.3794 18.5032 18.3794C18.7229 18.3794 18.8877 18.3692 18.9824 18.3613H23.9497V15.9441H18.8588L18.7917 15.9516C18.7828 15.9526 17.8602 16.0352 16.7958 15.6905C15.3557 15.2243 14.3292 14.2134 13.7449 12.6859C13.6647 12.4762 13.5818 12.2709 13.4963 12.0698C13.0738 11.0754 12.5873 10.186 12.0427 9.41126C11.8398 9.12267 11.629 8.84977 11.4102 8.59349Z" fill="#008A6E"/>
</svg>
