<svg width="24" height="24" viewBox="0 0 24 24" fill="none" xmlns="http://www.w3.org/2000/svg">
<path d="M21.4092 5.64932C20.9207 4.18384 20.1986 3.03693 19.2004 2.22985C18.2021 1.42277 16.9703 0.8918 15.5048 0.594455C14.0181 0.318349 12.3189 0.169676 10.3862 0.169676L1.80566 0.148438V23.8511H10.3862C12.3402 23.8511 14.0393 23.6387 15.5048 23.2352C16.9915 22.8316 18.2021 22.152 19.2004 21.1962C20.1773 20.2405 20.9207 18.9661 21.4092 17.3732C21.8977 15.7803 22.1526 13.7838 22.1526 11.3838C22.1526 9.02631 21.8977 7.11481 21.4092 5.64932Z" fill="#B79163"/>
<path d="M1.80566 12.085V23.8513H10.365C12.2977 23.8513 13.9968 23.6602 15.4835 23.2354C16.949 22.8319 18.1809 22.1522 19.1791 21.1965C20.1773 20.2407 20.8995 18.9664 21.388 17.3735C21.834 15.9504 22.0676 14.1876 22.1101 12.085H1.80566Z" fill="#8E6533"/>
<path d="M15.9083 7.62436L15.4835 6.32879C15.3773 5.94649 14.6552 5.16064 10.726 5.16064C6.7968 5.16064 6.09591 5.94649 5.96848 6.32879L5.5437 7.62436C5.52246 7.66684 5.52246 7.70932 5.52246 7.75179C5.52246 8.19781 5.86228 8.53764 6.4145 8.7925L7.26405 17.7766V17.8191C7.39149 19.0084 10.3649 19.0509 10.726 19.0509C11.0871 19.0509 14.0605 19.0084 14.1879 17.8191V17.7766L15.0375 8.7925C15.5685 8.53764 15.9083 8.19781 15.9083 7.75179C15.9295 7.73056 15.9083 7.66684 15.9083 7.62436ZM10.726 6.03144C12.6375 6.03144 13.8906 6.26507 14.4216 6.45622C13.8906 6.64737 12.6587 6.881 10.726 6.881C8.79326 6.881 7.5614 6.64737 7.03043 6.45622C7.5614 6.26507 8.8145 6.03144 10.726 6.03144ZM13.3384 17.6916C13.1685 17.8615 12.2552 18.1801 10.726 18.1801C9.21804 18.1801 8.28352 17.8615 8.11361 17.6916L7.87998 15.2279C8.87821 15.5465 10.3012 15.5677 10.726 15.5677C11.1295 15.5677 12.5525 15.5465 13.572 15.2279L13.3384 17.6916ZM13.9968 10.8102C13.5295 11.0014 12.4039 11.235 10.7472 11.235C9.0906 11.235 7.96494 11.0014 7.49768 10.8102L7.32777 9.11109C8.41096 9.38719 9.74901 9.49339 10.7472 9.49339C11.7455 9.49339 13.0835 9.38719 14.1667 9.11109L13.9968 10.8102ZM10.726 8.64383C8.17733 8.64383 6.58441 8.09162 6.4145 7.79427L6.60565 7.19958C7.22158 7.49693 8.41096 7.77303 10.726 7.77303C13.041 7.77303 14.2304 7.49693 14.8464 7.19958L15.0375 7.79427C14.8251 8.09162 13.2534 8.64383 10.726 8.64383Z" fill="white"/>
</svg>
