<svg width="24" height="24" viewBox="0 0 24 24" fill="none" xmlns="http://www.w3.org/2000/svg">
<path d="M11.9912 0.0683594C5.40836 0.0683594 0.0683594 5.41693 0.0683594 11.9998C0.0683594 18.5826 5.41693 23.9312 11.9998 23.9312C18.5826 23.9312 23.9312 18.5912 23.9312 11.9998C23.9312 5.40836 18.5826 0.0683594 11.9912 0.0683594Z" fill="#0066CC"/>
<path d="M11.9912 21.6942C17.3452 21.6942 21.6854 17.354 21.6854 11.9999C21.6854 6.64594 17.3452 2.30566 11.9912 2.30566C6.63716 2.30566 2.29688 6.64594 2.29688 11.9999C2.29688 17.354 6.63716 21.6942 11.9912 21.6942Z" fill="#002352"/>
<path d="M14.9825 7.13957L15.3254 6.24814C15.3597 6.15386 15.2911 6.05957 15.1968 6.05957H13.9197L13.5082 7.11386H12.9425L13.2682 6.24814C13.3025 6.15386 13.234 6.05957 13.1397 6.05957H11.8625L11.4682 7.11386H7.46539C7.28539 7.11386 7.11396 7.21671 7.01968 7.371L6.02539 9.12814H13.4911C13.7397 9.12814 13.9797 9.171 14.2111 9.26529C14.6568 9.44529 15.1797 9.85671 15.0425 10.7824C14.8282 12.3339 13.2425 15.0767 9.81396 15.1196L11.5882 10.5081C11.6568 10.3196 11.5197 10.1224 11.314 10.1224H8.93968L6.06825 17.1681C6.06825 17.1681 6.64253 17.2367 7.5511 17.2367L7.25968 17.9739H8.57111C8.67396 17.9739 8.76825 17.9139 8.80253 17.811L9.05111 17.1767C9.24825 17.1596 9.43682 17.1339 9.64253 17.1167L9.31682 17.9739H10.6282C10.7311 17.9739 10.8254 17.9139 10.8597 17.811L11.2368 16.8424C13.3882 16.3539 15.6854 15.2824 17.0654 13.0367C19.834 8.511 16.9625 7.34528 14.9825 7.13957Z" fill="white"/>
</svg>
