<svg width="24" height="24" viewBox="0 0 24 24" fill="none" xmlns="http://www.w3.org/2000/svg">
<g clip-path="url(#clip0)">
<path opacity="0.25" d="M10.2903 10.9626L7.5087 6.02107L4.68051 1.03156C4.51877 0.749978 4.29451 0.511628 4.026 0.335938H4.00261C3.71581 0.50636 3.48103 0.755588 3.32471 1.05557L1.22108 4.79767C0.917191 5.33112 0.917191 5.99138 1.22108 6.52483L3.74546 11.0105C3.93245 11.3222 4.00261 11.6821 4.00261 12.0419C4.00058 12.4021 3.91227 12.7563 3.74546 13.0733L1.24447 17.5107C0.94058 18.0441 0.94058 18.7044 1.24447 19.2378L3.3481 22.9799C3.5117 23.2678 3.74546 23.5316 4.026 23.6996H4.04939C4.32993 23.5316 4.5403 23.2917 4.7039 23.0039L7.50882 18.0145L10.2903 13.0254C10.6409 12.3849 10.6409 11.6031 10.2903 10.9626Z" fill="url(#paint0_linear)"/>
<path opacity="0.25" d="M23.707 10.8185L20.9021 5.85297L18.0271 0.743643C17.8944 0.512003 17.7199 0.30847 17.5129 0.143951C17.396 0.0480246 17.279 0 17.1388 0C15.6662 0 14.6611 0.0480246 13.9131 0.0480246C13.7963 0.0480246 13.7262 0.191975 13.7496 0.311914L14.4741 4.48636C14.4741 4.53439 14.4741 4.58229 14.4507 4.63031C14.1702 5.15809 14.1936 5.80569 14.4975 6.33346L17.0687 10.9389C17.2556 11.2747 17.3492 11.6345 17.3492 11.9943C17.3492 12.3542 17.2556 12.714 17.0687 13.0498L14.4741 17.6552C14.1703 18.183 14.1703 18.8306 14.4273 19.3584C14.4507 19.4064 14.4507 19.4543 14.4507 19.5023L13.7262 23.6521C13.7028 23.7721 13.7729 23.916 13.8898 23.916C14.5677 23.916 13.6092 23.9879 17.2089 23.9879C17.279 23.9879 17.3725 23.9639 17.4426 23.9399C17.6998 23.844 17.8634 23.5321 18.0036 23.2683L20.8787 18.135L23.6602 13.1695C24.1043 12.4495 24.1043 11.5621 23.707 10.8185Z" fill="url(#paint1_linear)"/>
<path d="M22.5624 10.9624L16.9759 1.03142C16.6253 0.40784 15.9708 0 15.2463 0H4.07336C3.69939 0 3.3488 0.119938 3.02148 0.311791V0.335803C3.28999 0.511494 3.51425 0.749844 3.676 1.03142L6.48091 6.02093C6.73807 5.901 7.04187 5.82908 7.32241 5.82908H11.9504C12.675 5.82908 13.3297 6.21291 13.6801 6.8605L15.9941 10.9624C16.3447 11.5861 16.3447 12.3777 15.9941 13.0254L13.6801 17.1273C13.3295 17.751 12.6516 18.1587 11.9504 18.1587H7.34568C7.05499 18.1578 6.76794 18.0923 6.50418 17.9669L3.69939 22.9563C3.53764 23.2378 3.31338 23.4762 3.04487 23.6519V23.6759C3.34868 23.8677 3.72277 23.9877 4.09675 23.9877H15.2924C16.017 23.9877 16.6717 23.6039 17.0221 22.9563L22.6088 13.0253C22.9363 12.3777 22.9363 11.61 22.5624 10.9624Z" fill="url(#paint2_linear)"/>
<path d="M9.26213 10.9626L6.4806 6.02107L3.67568 1.03156C3.51394 0.749978 3.28967 0.511628 3.02117 0.335938H2.99826C2.71146 0.50636 2.47668 0.755588 2.32036 1.05557L0.239637 4.77366C-0.0642539 5.30711 -0.0642539 5.96737 0.239637 6.50082L2.76401 10.9864C2.951 11.2982 3.02117 11.6581 3.02117 12.0179C3.01913 12.3781 2.93082 12.7323 2.76401 13.0493L0.239637 17.5107C-0.0642539 18.0441 -0.0642539 18.7044 0.239637 19.2378L2.34338 22.9803C2.50698 23.2682 2.74075 23.532 3.02129 23.6999H3.04467C3.32521 23.532 3.53559 23.2921 3.69919 23.0043L6.5041 18.0149L9.28551 13.0734C9.6361 12.3778 9.6361 11.6102 9.26213 10.9626Z" fill="url(#paint3_linear)"/>
</g>
<defs>
<linearGradient id="paint0_linear" x1="1.01443" y1="-0.307716" x2="10.5487" y2="-0.307716" gradientUnits="userSpaceOnUse">
<stop stop-color="#00BA96"/>
<stop offset="0.52" stop-color="#00D9AF"/>
<stop offset="1" stop-color="#00D9AF"/>
</linearGradient>
<linearGradient id="paint1_linear" x1="13.7384" y1="-0.30785" x2="24.0161" y2="-0.30785" gradientUnits="userSpaceOnUse">
<stop stop-color="#008D85"/>
<stop offset="1" stop-color="#00FFE0"/>
</linearGradient>
<linearGradient id="paint2_linear" x1="3.02148" y1="-0.307851" x2="22.8489" y2="-0.307851" gradientUnits="userSpaceOnUse">
<stop stop-color="#008D94"/>
<stop offset="1" stop-color="#00FFE0"/>
</linearGradient>
<linearGradient id="paint3_linear" x1="0.0117506" y1="-0.307716" x2="9.54554" y2="-0.307716" gradientUnits="userSpaceOnUse">
<stop stop-color="#00BA96"/>
<stop offset="0.52" stop-color="#00D9AF"/>
<stop offset="1" stop-color="#00FAAF"/>
</linearGradient>
<clipPath id="clip0">
<rect width="24" height="24" fill="white"/>
</clipPath>
</defs>
</svg>
