<svg width="24" height="24" viewBox="0 0 24 24" fill="none" xmlns="http://www.w3.org/2000/svg">
<path d="M0.229492 23.8469V18.252H3.50083V5.50296H0.244779V0.137357H0.718664C5.12121 0.137357 9.49319 0.152644 13.8957 0.12207C14.8741 0.12207 15.7301 0.381943 16.5862 0.718249C18.3136 1.37557 19.8269 2.39978 21.0346 3.83672C22.1047 5.1208 22.8384 6.6036 23.2206 8.22398C23.8626 11.0367 23.8779 13.88 23.0677 16.6622C21.9976 20.2851 19.7047 22.7768 15.8983 23.6176C15.241 23.7705 14.5378 23.8622 13.8499 23.8622H0.764524C0.596371 23.8469 0.428218 23.8469 0.229492 23.8469ZM10.1658 18.2367C10.9148 18.2367 11.6333 18.2826 12.3518 18.2214C13.2843 18.1297 14.125 17.8393 14.7518 17.0291C15.2868 16.3412 15.7607 15.6533 15.99 14.8431C16.4945 13.0698 16.2957 11.266 15.9441 9.47748C15.7454 8.40742 15.241 7.42908 14.5683 6.61889C14.1709 6.16029 13.6206 5.64054 13.0703 5.54882C12.1531 5.38067 11.1594 5.50296 10.1658 5.50296V18.2367Z" fill="#C2A633"/>
</svg>
