<svg width="24" height="24" viewBox="0 0 24 24" fill="none" xmlns="http://www.w3.org/2000/svg">
<path d="M12 24C18.6274 24 24 18.6274 24 12C24 5.37258 18.6274 0 12 0C5.37258 0 0 5.37258 0 12C0 18.6274 5.37258 24 12 24Z" fill="#242D3D"/>
<path d="M17.3513 13.1002C16.9381 11.2799 15.6533 9.27295 15.6533 9.27295C17.1338 13.3132 16.5638 16.3604 16.1716 18.0892C16.1716 18.0892 15.6541 20.0227 16.7678 18.4117C18.1568 16.3957 17.3513 13.1002 17.3513 13.1002Z" fill="white"/>
<path d="M13.694 5.93304C14.4642 8.67654 14.813 11.0053 14.9217 12.947C15.113 16.256 14.6082 18.4333 14.2947 19.583C14.1942 19.9573 14.6127 20.2355 14.8565 19.9528L14.861 19.9483C15.47 19.2515 15.758 17.6195 15.893 16.187L15.932 15.7168C16.058 13.9918 15.9845 12.251 15.5795 10.583C14.8347 7.50504 13.694 5.93304 13.694 5.93304ZM12.314 10.766C12.1265 6.26004 11.7867 2.25879 11.7867 2.25879C11.7867 2.25879 11.4432 6.05979 11.2557 10.4653C11.2257 11.18 11.1987 11.9068 11.177 12.638C11.147 13.7008 11.1335 14.768 11.1335 15.7993C11.138 17.6323 11.2085 19.352 11.3735 20.7238C11.4387 21.2675 12.1437 21.2675 12.209 20.7238C12.3222 19.7878 12.3875 18.638 12.4137 17.375C12.4381 16.0096 12.4323 14.6437 12.3965 13.2785C12.374 12.4423 12.3485 11.5978 12.314 10.766ZM7.05048 16.1953C6.94771 15.3461 6.92411 14.4891 6.97998 13.6355C7.02348 12.965 7.11948 12.2465 7.28523 11.48C7.43748 10.7788 7.64598 10.043 7.92948 9.26829C7.92948 9.26829 7.02348 10.6835 6.49248 12.2113C6.38748 12.5038 6.30123 12.8038 6.23523 13.0955C6.23523 13.0955 6.06573 13.862 6.04023 14.885C6.02223 15.5945 6.07848 16.4345 6.30498 17.2273C6.41946 17.6423 6.5911 18.0393 6.81498 18.407C6.81498 18.407 7.92948 20.066 7.41123 18.0845C7.25 17.4633 7.12924 16.8322 7.04973 16.1953H7.05048Z" fill="white"/>
<path d="M8.6391 15.3074C8.60275 14.4103 8.61727 13.5118 8.6826 12.6164C8.72786 11.9552 8.79765 11.296 8.89185 10.6401C9.08685 9.22936 9.4056 7.66636 9.88935 5.93311C9.88935 5.93311 8.74335 7.50511 7.99935 10.5831C7.9596 10.7481 7.92435 10.9139 7.88985 11.0751C7.75485 11.7456 7.66785 12.4251 7.62435 13.1129C7.57185 13.9754 7.58535 14.8454 7.64685 15.7124L7.68585 16.1871C7.82085 17.6196 8.1036 19.2516 8.7171 19.9484L8.7216 19.9529C8.96535 20.2319 9.3876 19.9529 9.2841 19.5831C9.05685 18.7341 8.7216 17.3234 8.6391 15.3074Z" fill="white"/>
<path d="M10.5415 15.4769C10.5169 14.4785 10.5124 13.4798 10.528 12.4814C10.537 11.8244 10.5543 11.1314 10.585 10.4046C10.6593 8.5281 11.0118 5.81535 11.2555 3.5166C11.2555 3.5166 10.054 6.00285 9.50502 10.4879C9.43152 11.1014 9.36177 11.7629 9.30927 12.4776L9.27027 13.0086C9.27027 13.0086 9.20502 13.9574 9.23052 15.2376C9.26577 16.8831 9.44802 19.0776 10.1275 20.5146C10.15 20.5581 10.1755 20.5971 10.21 20.6271L10.2145 20.6324C10.4718 20.8761 10.8678 20.6451 10.8333 20.2664C10.6735 18.6743 10.5759 17.0765 10.5408 15.4769H10.5415ZM13.0315 15.4769C13.054 14.5799 13.0623 13.5794 13.045 12.4814C13.036 11.8244 13.0188 11.1314 12.988 10.4046C12.9145 8.5281 12.562 5.81535 12.3175 3.5166C12.3175 3.5166 13.5198 6.00285 14.068 10.4879C14.1423 11.1014 14.212 11.7629 14.2638 12.4776L14.3035 13.0086C14.3035 13.0086 14.3688 13.9574 14.3425 15.2376C14.3073 16.8831 14.125 19.0776 13.4455 20.5146C13.4256 20.5571 13.3975 20.5953 13.363 20.6271L13.3585 20.6324C13.1013 20.8761 12.706 20.6451 12.7405 20.2664C12.8275 19.4436 12.9753 17.8109 13.0315 15.4769Z" fill="white"/>
</svg>
