<svg width="24" height="24" viewBox="0 0 24 24" fill="none" xmlns="http://www.w3.org/2000/svg">
<g clip-path="url(#clip0)">
<path d="M12.1328 10.2422H12.0847C12.0246 10.2422 11.9886 10.2301 11.9465 10.2422H11.9044C11.4092 10.2638 10.9441 10.4801 10.6087 10.8443V10.8564C10.4356 11.0355 10.3046 11.2506 10.2253 11.4862C10.1495 11.6893 10.1099 11.9045 10.1051 12.1221C10.1099 12.9863 10.6964 13.7375 11.533 13.9515L11.6232 13.9695C11.7494 13.9996 11.878 14.0128 12.0066 14.0116C12.1268 14.0116 12.247 13.9996 12.366 13.9755C12.5259 13.9407 12.6809 13.8866 12.8276 13.8133L12.8877 13.7772C12.9057 13.7772 12.9177 13.7652 12.9357 13.7532L12.9754 13.7291L13.0115 13.6991H13.0295L13.0776 13.6594C13.7351 13.2087 14.0344 12.3913 13.8252 11.622C13.6161 10.8528 12.943 10.301 12.1472 10.2458L12.1328 10.2422ZM18.9889 16.1644C17.9096 18.0479 16.2063 19.4097 14.1125 19.9735C14.0596 19.9867 14.0055 19.9951 13.9502 19.9975C13.6353 19.9963 13.3697 19.7643 13.3276 19.453C13.2855 19.1417 13.479 18.846 13.7819 18.7619L13.818 18.751C14.1317 18.6441 14.3096 18.3135 14.2267 17.9938C14.1666 17.7233 13.9142 17.5382 13.6281 17.5382C13.5884 17.537 13.5476 17.5406 13.5079 17.5502L13.4658 17.5623C13.4141 17.5743 13.3624 17.5803 13.3096 17.5803C13.0235 17.5863 12.7699 17.3952 12.6978 17.1187C12.6569 16.9577 12.6785 16.787 12.7579 16.6403C12.8468 16.4961 12.9862 16.3891 13.1485 16.3398C13.949 16.1295 14.6714 15.692 15.2279 15.079C15.7676 14.4864 16.1402 13.7616 16.3085 12.9791V12.8949C16.3566 12.5704 16.139 12.2651 15.8169 12.205L15.6967 12.193C15.4263 12.1966 15.1883 12.3733 15.1089 12.6317L15.0909 12.6918V12.7279L15.0789 12.7459C15.0813 12.7735 15.0777 12.8 15.0669 12.8252C15.0669 12.8384 15.0621 12.8505 15.0548 12.8613V12.8781C15.0548 12.8853 15.05 12.8925 15.0428 12.8961V12.9322L15.0308 12.9442C14.6498 14.3025 13.4117 15.2412 12.0006 15.2424C11.7229 15.2424 11.4477 15.2076 11.1784 15.1403L11.0763 15.1162H11.0162C10.7361 15.115 10.4909 15.3025 10.4164 15.5718C10.3383 15.8867 10.5125 16.2088 10.8178 16.3158C10.8335 16.3218 10.8491 16.3254 10.8659 16.3278C11.1736 16.4084 11.3744 16.7052 11.3323 17.0202C11.2914 17.3363 11.021 17.5707 10.7037 17.5695C10.6496 17.5731 10.5943 17.5671 10.5414 17.5514C9.33821 17.2329 8.27565 16.5213 7.52321 15.5297C6.79121 14.5609 6.38614 13.3842 6.36691 12.1701V12.1161C6.35489 11.7771 6.07362 11.5103 5.73466 11.5175C5.3957 11.5235 5.12405 11.8011 5.12526 12.1401C5.14088 15.2304 7.23354 17.9469 10.2217 18.739C10.3815 18.7871 10.5174 18.8941 10.5991 19.0395C10.6844 19.1838 10.7061 19.3568 10.6592 19.5179C10.5895 19.792 10.3419 19.9843 10.0594 19.9855C10.0017 19.9903 9.94521 19.9819 9.89112 19.9614C7.80328 19.4109 6.02434 18.0455 4.95337 16.1716C3.87279 14.288 3.5735 12.092 4.13723 10.003C4.20454 9.7277 4.45094 9.53298 4.73581 9.53538C4.79231 9.53178 4.85 9.53779 4.90409 9.55341C5.23824 9.64356 5.43897 9.98493 5.35363 10.3215L5.34161 10.3636C5.27911 10.6857 5.47624 11.0006 5.79356 11.0847C5.84645 11.1016 5.90054 11.11 5.95583 11.1088C6.22387 11.1124 6.46186 10.9405 6.5436 10.6857L6.55562 10.6376C6.63134 10.3696 6.87655 10.1833 7.15541 10.1821C7.21551 10.1796 7.27681 10.1857 7.3357 10.2001C7.66986 10.2962 7.86578 10.6436 7.77443 10.9802C7.55687 11.7783 7.5773 12.6233 7.83453 13.4106C8.07012 14.1775 8.51485 14.8626 9.11825 15.3903V15.4023L9.1543 15.4263L9.16632 15.4384C9.2745 15.5237 9.40792 15.5694 9.54495 15.5706C9.72765 15.5694 9.90194 15.4912 10.0233 15.3542C10.2157 15.127 10.2205 14.7953 10.0354 14.5621L10.0173 14.5441L9.9993 14.526C9.31056 13.9647 8.89227 13.1377 8.8466 12.2507C8.80092 11.3636 9.13267 10.4982 9.7601 9.86953L9.85626 9.77338C10.0113 9.52456 9.97646 9.20363 9.77212 8.99329C9.65433 8.87669 9.49447 8.81178 9.32859 8.81419C9.18075 8.81539 9.03891 8.86828 8.92593 8.96444H8.9079C8.9079 8.97646 8.88987 8.98247 8.88386 8.98848C8.70476 9.16757 8.43432 9.22166 8.19993 9.1243C7.96554 9.02694 7.81289 8.79736 7.81289 8.54374C7.80929 8.37546 7.87419 8.21319 7.99078 8.09299C9.77813 6.31405 12.5283 5.93663 14.7279 7.16987L14.7519 7.1879H14.764L14.782 7.19992C14.8685 7.25401 14.9683 7.28165 15.0705 7.27925C15.294 7.27684 15.4996 7.15544 15.6102 6.96072C15.6907 6.81768 15.7111 6.6482 15.6654 6.49074C15.621 6.33328 15.514 6.19986 15.371 6.12053C14.3517 5.52194 13.1689 5.22024 11.9754 5.22024C10.1267 5.22024 8.40547 5.92821 7.11574 7.22396C6.99314 7.34175 6.82967 7.40666 6.66019 7.40425C6.49432 7.40666 6.33445 7.34175 6.21666 7.22396C6.09886 7.10376 6.03396 6.94149 6.03636 6.77441C6.03396 6.60854 6.09886 6.44867 6.21666 6.33088C9.3959 3.16003 14.5428 3.16243 17.7184 6.33689C17.8362 6.45709 17.9011 6.61936 17.8987 6.78643C17.9023 6.95231 17.8374 7.11337 17.7184 7.22997C17.4708 7.47036 17.0778 7.47036 16.8302 7.22997L16.7941 7.19992C16.6775 7.09775 16.5285 7.04246 16.3734 7.04366C16.2111 7.04366 16.0561 7.10857 15.9419 7.22396C15.7027 7.45233 15.7027 7.82375 15.9239 8.07617L15.9419 8.10021C16.1823 8.34782 16.1823 8.74087 15.9419 8.98848C15.8217 9.10627 15.6594 9.17238 15.4912 9.16998C15.3253 9.17238 15.1642 9.10747 15.0476 8.98968C13.8685 7.80933 12.1184 7.40666 10.5426 7.95356H10.5246L10.5005 7.96558L10.4765 7.9776C10.1724 8.10381 10.0185 8.44398 10.1255 8.75409C10.2181 8.99809 10.4524 9.16036 10.7133 9.16156H10.8154L10.8275 9.14954H10.8455C11.1977 9.01372 11.5727 8.944 11.9501 8.94641C12.6377 8.94761 13.306 9.17479 13.8517 9.59428C14.3889 10.0078 14.7796 10.5811 14.9683 11.2326L14.9803 11.2566V11.2867L15.0044 11.3468C15.0921 11.586 15.3193 11.7458 15.5741 11.7482C15.6294 11.7531 15.6847 11.7446 15.7364 11.7242C16.0525 11.6389 16.2484 11.3251 16.1883 11.003L16.1763 10.967C16.0873 10.6292 16.2845 10.283 16.6198 10.1869L16.7821 10.1688C17.0634 10.1688 17.3218 10.3491 17.3819 10.6304C17.7124 11.842 17.6211 13.0897 17.1427 14.2544C16.6787 15.3722 15.8686 16.3134 14.8301 16.9372L14.8 16.9553H14.7904C14.7904 16.9673 14.7784 16.9673 14.7784 16.9733H14.7664C14.5356 17.1247 14.4322 17.4096 14.5127 17.6741C14.5933 17.9385 14.8385 18.1176 15.1149 18.114C15.2207 18.1164 15.3253 18.0863 15.4142 18.0298C18.085 16.4697 19.3928 13.2904 18.5947 10.3143C18.5478 10.1532 18.5694 9.98012 18.6548 9.83588C18.7401 9.69044 18.8771 9.58346 19.0394 9.53538C19.0995 9.53538 19.1476 9.51735 19.2017 9.51735C19.4878 9.52096 19.7342 9.71808 19.8003 9.99574C20.3652 12.0776 20.0731 14.3001 18.9889 16.1644ZM3.50859 3.50861C-1.16953 8.19036 -1.16953 15.7929 3.50859 20.4783C8.19993 25.1588 15.7965 25.1588 20.489 20.4783C25.1707 15.7977 25.1707 8.19637 20.4926 3.50861C15.7989 -1.16954 8.20233 -1.16954 3.50859 3.50861Z" fill="url(#paint0_linear)"/>
</g>
<defs>
<linearGradient id="paint0_linear" x1="-0.000205147" y1="11.9958" x2="24.0002" y2="11.9958" gradientUnits="userSpaceOnUse">
<stop stop-color="#EB5E57"/>
<stop offset="1" stop-color="#EA5290"/>
</linearGradient>
<clipPath id="clip0">
<rect width="24" height="23.988" fill="white"/>
</clipPath>
</defs>
</svg>
