<svg width="24" height="24" viewBox="0 0 24 24" fill="none" xmlns="http://www.w3.org/2000/svg">
<g clip-path="url(#clip0)">
<path d="M0 0H23.8234V24H0V0Z" fill="#121747"/>
<path d="M14.0928 19.2353C14.0928 20.4373 13.1184 21.4117 11.9165 21.4117C10.7146 21.4117 9.74023 20.4373 9.74023 19.2353V4.77007C9.74023 3.56815 10.7146 2.59375 11.9165 2.59375C13.1184 2.59375 14.0928 3.56815 14.0928 4.77007" fill="white"/>
<path d="M21.423 13.4967C21.423 14.6986 20.4486 15.673 19.2466 15.673C18.0447 15.673 17.0703 14.6986 17.0703 13.4967V8.00737C17.0703 6.80545 18.0447 5.83105 19.2466 5.83105C20.4486 5.83105 21.423 6.80545 21.423 8.00737" fill="#52DEB8"/>
<path d="M6.76533 19.242C6.78549 20.4401 5.83029 21.427 4.63221 21.4462C3.43413 21.4663 2.44725 20.5111 2.42805 19.3131C2.42805 19.2891 2.42805 19.2651 2.42805 19.242V15.9896C2.40789 14.7915 3.36309 13.8046 4.56117 13.7854C5.75925 13.7662 6.74613 14.7205 6.76533 15.9185C6.76533 15.9425 6.76533 15.9665 6.76533 15.9896" fill="white"/>
</g>
<defs>
<clipPath id="clip0">
<rect width="23.8234" height="24" fill="white"/>
</clipPath>
</defs>
</svg>
