<svg width="24" height="24" viewBox="0 0 24 24" fill="none" xmlns="http://www.w3.org/2000/svg">
<path d="M12 24C18.6274 24 24 18.6274 24 12C24 5.37258 18.6274 0 12 0C5.37258 0 0 5.37258 0 12C0 18.6274 5.37258 24 12 24Z" fill="#AA15DD"/>
<path d="M11.9993 19.209C12.1793 19.2098 12.3255 19.359 12.3263 19.542C12.3271 19.6294 12.2932 19.7136 12.232 19.776C12.1708 19.8384 12.0874 19.8741 12 19.875C11.9567 19.8747 11.9138 19.8657 11.874 19.8488C11.8341 19.8318 11.7979 19.8072 11.7676 19.7763C11.7372 19.7454 11.7132 19.7088 11.697 19.6686C11.6808 19.6284 11.6726 19.5854 11.673 19.542C11.6726 19.4987 11.6808 19.4557 11.697 19.4155C11.7132 19.3753 11.7372 19.3387 11.7676 19.3078C11.7979 19.2769 11.8341 19.2523 11.874 19.2353C11.9138 19.2184 11.9567 19.2094 12 19.209H11.9993ZM5.41427 8.51855C5.33851 8.47324 5.28351 8.40004 5.26108 8.31466C5.23865 8.22928 5.25056 8.1385 5.29427 8.0618C5.32636 8.00475 5.37483 7.95864 5.43342 7.92944C5.492 7.90024 5.558 7.8893 5.62287 7.89802C5.68774 7.90675 5.7485 7.93474 5.79729 7.97838C5.84608 8.02202 5.88065 8.0793 5.89652 8.1428C5.91339 8.20652 5.91123 8.27379 5.8903 8.3363C5.86938 8.39881 5.8306 8.45382 5.77877 8.49455C5.72747 8.53474 5.66525 8.55853 5.60023 8.56281C5.5352 8.5671 5.47039 8.55167 5.41427 8.51855ZM5.41427 15.489C5.45157 15.4674 5.4928 15.4534 5.53556 15.4479C5.57831 15.4423 5.62174 15.4453 5.66333 15.4567C5.70492 15.4681 5.74383 15.4876 5.77781 15.5141C5.81179 15.5407 5.84016 15.5737 5.86127 15.6113C5.90467 15.6877 5.91641 15.7781 5.89398 15.863C5.87155 15.948 5.81673 16.0208 5.74127 16.0658C5.70402 16.0876 5.66278 16.1018 5.61998 16.1074C5.57718 16.1131 5.53368 16.1101 5.49204 16.0988C5.4504 16.0874 5.41145 16.0678 5.37749 16.0411C5.34353 16.0145 5.31523 15.9813 5.29427 15.9435C5.25087 15.8671 5.23913 15.7768 5.26156 15.6918C5.28399 15.6069 5.33881 15.5341 5.41427 15.489ZM18.5843 8.51855C18.547 8.54017 18.5057 8.55415 18.463 8.55971C18.4202 8.56526 18.3768 8.56226 18.3352 8.55088C18.2936 8.53951 18.2547 8.51999 18.2207 8.49345C18.1868 8.46691 18.1584 8.43389 18.1373 8.3963C18.1044 8.33896 18.0891 8.27327 18.0931 8.20731C18.0971 8.14136 18.1202 8.078 18.1598 8.02505C18.1988 7.97255 18.2527 7.93302 18.3145 7.91161C18.3763 7.89021 18.4431 7.88792 18.5063 7.90505C18.5697 7.92298 18.6265 7.95918 18.6695 8.00914C18.7125 8.0591 18.7399 8.1206 18.7482 8.186C18.7565 8.2514 18.7454 8.3178 18.7162 8.37693C18.6871 8.43606 18.6412 8.48531 18.5843 8.51855ZM12 4.79105C11.9134 4.78889 11.8311 4.75276 11.7709 4.69045C11.7107 4.62815 11.6775 4.54468 11.6783 4.45805C11.6783 4.32305 11.7593 4.2008 11.8815 4.1498C11.9418 4.12474 12.0082 4.11849 12.072 4.13188C12.1359 4.14526 12.1942 4.17766 12.2393 4.2248C12.2849 4.27234 12.3155 4.33218 12.3275 4.39695C12.3395 4.46172 12.3323 4.52858 12.3068 4.5893C12.2817 4.64977 12.2391 4.70132 12.1844 4.73729C12.1297 4.77326 12.0655 4.79199 12 4.79105ZM17.85 15.4366C17.7705 15.5768 17.7436 15.7409 17.7741 15.8992C17.8046 16.0576 17.8906 16.1999 18.0165 16.3005L12.6533 19.4506C12.6326 19.2918 12.5551 19.1459 12.4352 19.0398C12.3152 18.9338 12.1609 18.8748 12.0008 18.8738C11.8407 18.8748 11.6864 18.9338 11.5664 19.0398C11.4464 19.1459 11.3689 19.2918 11.3483 19.4506L5.98352 16.3005C6.10906 16.1997 6.1946 16.0575 6.22483 15.8993C6.25507 15.7411 6.22801 15.5773 6.14852 15.4373C6.07091 15.298 5.94502 15.1918 5.79457 15.1389C5.64412 15.086 5.47951 15.09 5.33177 15.1501V8.85005C5.47933 8.90997 5.6437 8.91393 5.79397 8.86117C5.94424 8.80841 6.07006 8.70257 6.14777 8.56355C6.22731 8.42383 6.25461 8.26039 6.2248 8.10241C6.19499 7.94443 6.11 7.80218 5.98502 7.70105L11.3483 4.55105C11.3689 4.70982 11.4464 4.85572 11.5664 4.96176C11.6864 5.0678 11.8407 5.12678 12.0008 5.1278C12.161 5.12676 12.3154 5.06767 12.4354 4.96148C12.5554 4.85529 12.6328 4.7092 12.6533 4.5503L18.018 7.7003C17.8927 7.80112 17.8072 7.94323 17.777 8.10123C17.7468 8.25923 17.7737 8.42283 17.853 8.5628C17.9306 8.70213 18.0565 8.80825 18.207 8.86116C18.3574 8.91408 18.522 8.91012 18.6698 8.85005V15.1463C18.5214 15.0862 18.3561 15.0825 18.2052 15.136C18.0543 15.1895 17.9282 15.2964 17.8508 15.4366H17.85ZM13.266 14.4713C12.6833 14.8139 11.994 14.9273 11.3323 14.7895C10.6705 14.6517 10.0838 14.2725 9.68627 13.7258L13.2248 11.6528L14.4308 10.9448L15.0023 10.6073L15.0353 10.5915L17.4653 9.16205C17.6153 9.0743 17.6678 8.8793 17.5823 8.7263C17.5627 8.68958 17.5357 8.65726 17.5032 8.63133C17.4706 8.6054 17.4331 8.58641 17.3929 8.57552C17.3527 8.56464 17.3107 8.56208 17.2695 8.56802C17.2283 8.57396 17.1887 8.58826 17.1533 8.61005L15.3668 9.6638C15.027 9.15568 14.5809 8.7275 14.0593 8.40893C13.5376 8.09035 12.953 7.88899 12.3458 7.8188V5.77205C12.3462 5.72911 12.3381 5.68651 12.322 5.64668C12.306 5.60686 12.2822 5.57059 12.2521 5.53994C12.222 5.5093 12.1862 5.48488 12.1467 5.46809C12.1072 5.45129 12.0647 5.44244 12.0218 5.44205C11.9788 5.44234 11.9362 5.45112 11.8966 5.46787C11.857 5.48462 11.8211 5.50903 11.7909 5.53968C11.7608 5.57033 11.7369 5.60664 11.7208 5.64651C11.7047 5.68638 11.6966 5.72904 11.697 5.77205V7.80005C11.0305 7.8327 10.3819 8.02676 9.80702 8.36555C9.28816 8.66967 8.83978 9.08047 8.49152 9.5708L6.85352 8.61005C6.81784 8.58915 6.77834 8.57559 6.73734 8.57017C6.69634 8.56475 6.65468 8.56757 6.61478 8.57846C6.57489 8.58936 6.53758 8.60812 6.50504 8.63364C6.47249 8.65915 6.44537 8.69091 6.42527 8.72705C6.38396 8.80022 6.37284 8.88662 6.39427 8.96786C6.4157 9.04911 6.468 9.11878 6.54002 9.16205L8.16527 10.1175C7.81762 10.8145 7.66473 11.5924 7.72277 12.3691L7.87352 13.227C7.94102 13.4595 8.02577 13.686 8.12927 13.9043L6.54002 14.838C6.46752 14.8815 6.41496 14.9516 6.39364 15.0334C6.37232 15.1151 6.38395 15.202 6.42602 15.2753C6.44633 15.3114 6.47364 15.3431 6.50635 15.3686C6.53905 15.3941 6.5765 15.4127 6.61651 15.4236C6.65652 15.4344 6.69828 15.4371 6.73936 15.4316C6.78044 15.4261 6.82002 15.4125 6.85577 15.3915L8.45102 14.457C8.81607 14.9901 9.29806 15.4328 9.86022 15.7512C10.4224 16.0697 11.0499 16.2555 11.6948 16.2945V18.2281C11.6948 18.4103 11.8403 18.5581 12.0195 18.5581C12.0625 18.5577 12.1049 18.5488 12.1444 18.532C12.184 18.5152 12.2198 18.4908 12.2499 18.4602C12.28 18.4295 12.3037 18.3932 12.3198 18.3534C12.3359 18.3136 12.3439 18.271 12.3435 18.2281V16.2781C12.9271 16.2181 13.4905 16.0312 13.9943 15.7305C14.5626 15.3928 15.0421 14.9243 15.393 14.364L17.1458 15.39C17.2958 15.4755 17.4848 15.4223 17.571 15.2708C17.6127 15.1981 17.6244 15.112 17.6036 15.0308C17.5829 14.9496 17.5314 14.8797 17.46 14.8358L15.696 13.8008C15.7005 13.791 15.711 13.7798 15.711 13.7678C16.2465 12.5348 14.8133 12.0053 14.4945 12.9548C14.2816 13.5923 13.8449 14.131 13.2653 14.4713H13.266ZM18.585 15.489C18.6604 15.5343 18.7151 15.6073 18.7375 15.6923C18.7599 15.7773 18.7483 15.8677 18.705 15.9443C18.684 15.982 18.6557 16.0151 18.6217 16.0417C18.5877 16.0682 18.5487 16.0878 18.5071 16.0991C18.4654 16.1104 18.422 16.1133 18.3792 16.1076C18.3364 16.1018 18.2952 16.0876 18.258 16.0658C18.1826 16.0208 18.1277 15.948 18.1053 15.863C18.0829 15.7781 18.0946 15.6877 18.138 15.6113C18.159 15.5736 18.1873 15.5404 18.2212 15.5137C18.2552 15.4871 18.2941 15.4675 18.3358 15.4561C18.3774 15.4447 18.4209 15.4418 18.4637 15.4474C18.5065 15.4531 18.5478 15.4672 18.585 15.489ZM9.21302 12.4403C9.18077 11.19 9.32927 10.3178 10.5135 9.6218C10.9917 9.34034 11.5447 9.21217 12.098 9.25455C12.6512 9.29692 13.1782 9.5078 13.608 9.8588L9.21302 12.4403Z" fill="white"/>
</svg>
