<svg width="24" height="24" viewBox="0 0 24 24" fill="none" xmlns="http://www.w3.org/2000/svg">
<path fill-rule="evenodd" clip-rule="evenodd" d="M24 12C24 18.6274 18.6274 24 12 24C5.37255 24 0 18.6274 0 12C0 5.37255 5.37255 0 12 0C18.6274 0 24 5.37255 24 12Z" fill="#EB8B2D"/>
<path fill-rule="evenodd" clip-rule="evenodd" d="M12.0002 22.2543C6.34604 22.2543 1.74599 17.6543 1.74599 12.0002C1.74599 6.34604 6.34604 1.74599 12.0002 1.74599C17.6543 1.74599 22.2543 6.34604 22.2543 12.0002C22.2543 17.6543 17.6543 22.2543 12.0002 22.2543ZM12.0002 1.08301C5.98047 1.08301 1.08301 5.98047 1.08301 12.0002C1.08301 18.0198 5.98047 22.9172 12.0002 22.9172C18.0198 22.9172 22.9173 18.0198 22.9173 12.0002C22.9173 5.98047 18.0198 1.08301 12.0002 1.08301Z" fill="#FFFFFE"/>
<path fill-rule="evenodd" clip-rule="evenodd" d="M17.6715 6.86103C17.8929 5.72156 17.1259 4.85471 15.8502 4.87334C13.8213 4.98936 12.4666 6.98932 11.4347 9.72386L9.37966 9.26183L9.25654 9.80952L11.2408 10.2556C11.0873 10.6924 10.941 11.1448 10.8006 11.6089C10.6475 12.1321 10.5429 12.6391 10.3934 13.4737C9.65115 17.0956 8.66854 18.9737 7.38275 18.6508C6.9182 18.522 7.00174 18.246 7.31725 18.2283C7.31798 18.2263 7.31738 18.224 7.31798 18.2219C7.64782 18.1781 7.94052 17.9539 8.05064 17.6165C8.20359 17.1477 7.94748 16.6436 7.47869 16.4907C7.00989 16.3378 6.50589 16.5938 6.35294 17.0626C6.34346 17.0917 6.34021 17.1212 6.33378 17.1504C6.33226 17.1468 6.32921 17.1427 6.32795 17.1393C6.10651 18.2787 6.87352 19.1455 8.14916 19.127C10.6215 18.9856 12.1987 16.0131 13.1988 12.3914C13.3359 11.9231 13.4343 11.466 13.5605 10.7772L15.5955 11.2347L15.7186 10.6871L13.6691 10.2263C14.4037 6.8015 15.3669 5.03571 16.6167 5.3495C17.0812 5.47825 16.9977 5.75425 16.6822 5.77195C16.6814 5.774 16.682 5.77633 16.6814 5.77838C16.3516 5.8222 16.0589 6.04636 15.9488 6.38382C15.7958 6.85261 16.0519 7.35668 16.5207 7.50956C16.9895 7.66251 17.4935 7.40647 17.6465 6.93767C17.6559 6.90857 17.6592 6.87913 17.6656 6.84989C17.6672 6.85347 17.6702 6.85758 17.6715 6.86103Z" fill="#FFFFFE"/>
</svg>
