<svg width="24" height="24" viewBox="0 0 24 24" fill="none" xmlns="http://www.w3.org/2000/svg">
<path fill-rule="evenodd" clip-rule="evenodd" d="M24 12C24 18.6274 18.6274 24 12 24C5.37255 24 0 18.6274 0 12C0 5.37255 5.37255 0 12 0C18.6274 0 24 5.37255 24 12Z" fill="#127A51"/>
<path fill-rule="evenodd" clip-rule="evenodd" d="M6.83086 13.4555C6.83086 13.1786 7.05614 12.9533 7.33313 12.9533C7.61006 12.9533 7.83541 13.1786 7.83541 13.4555C7.83541 13.7325 7.61006 13.9578 7.33313 13.9578C7.05614 13.9578 6.83086 13.7325 6.83086 13.4555ZM3.41908 13.0419C3.41908 12.7649 3.64443 12.5396 3.92135 12.5396C4.19828 12.5396 4.42363 12.7649 4.42363 13.0419C4.42363 13.3188 4.19828 13.5442 3.92135 13.5442C3.64443 13.5442 3.41908 13.3188 3.41908 13.0419ZM4.53004 10.7664C4.53685 10.7603 4.54357 10.7541 4.55029 10.7479L4.55154 10.7494C4.54463 10.7559 4.53724 10.7606 4.53004 10.7664ZM3.41908 10.0656C3.41908 9.78866 3.64443 9.56331 3.92135 9.56331C4.19828 9.56331 4.42363 9.78866 4.42363 10.0656C4.42363 10.3425 4.19828 10.5679 3.92135 10.5679C3.64443 10.5679 3.41908 10.3425 3.41908 10.0656ZM5.86151 8.69096C5.86151 8.41396 6.08686 8.18868 6.36378 8.18868C6.64071 8.18868 6.86606 8.41396 6.86606 8.69096C6.86606 8.96788 6.64071 9.19323 6.36378 9.19323C6.08686 9.19323 5.86151 8.96788 5.86151 8.69096ZM7.83833 6.37741C7.83833 6.10041 8.06367 5.87513 8.3406 5.87513C8.61753 5.87513 8.84288 6.10041 8.84288 6.37741C8.84288 6.65434 8.61753 6.87968 8.3406 6.87968C8.06367 6.87968 7.83833 6.65434 7.83833 6.37741ZM8.67972 7.23736C9.02241 7.10172 9.26586 6.76777 9.26586 6.37741C9.26586 5.86724 8.85077 5.45215 8.3406 5.45215C7.83044 5.45215 7.41534 5.86724 7.41534 6.37741C7.41534 6.85926 7.78575 7.25579 8.25674 7.29836V12.2176L6.57528 10.5088V9.59082C6.98367 9.49482 7.28904 9.12826 7.28904 8.69096C7.28904 8.18079 6.87395 7.7657 6.36378 7.7657C5.85362 7.7657 5.43852 8.18079 5.43852 8.69096C5.43852 9.12826 5.7439 9.49482 6.15229 9.59082V10.682L6.7576 11.2971H5.4378C5.35307 11.2108 5.19395 11.0494 5.03437 10.8911C4.89707 10.7549 4.78602 10.6473 4.70427 10.5713C4.70235 10.5695 4.70036 10.5677 4.69844 10.5659C4.79178 10.4215 4.84661 10.25 4.84661 10.0656C4.84661 9.55542 4.43152 9.14033 3.92135 9.14033C3.41119 9.14033 2.99609 9.55542 2.99609 10.0656C2.99609 10.5758 3.41119 10.9908 3.92135 10.9908C4.09399 10.9908 4.25517 10.9424 4.3936 10.8598C4.56054 11.0135 4.89766 11.349 5.19746 11.6563L5.25978 11.7201H7.17382L10.9267 15.5341V16.7166L8.10604 13.9627C8.20204 13.8169 8.25833 13.6428 8.25833 13.4555C8.25833 12.9453 7.8433 12.5303 7.33313 12.5303C6.82297 12.5303 6.40787 12.9453 6.40787 13.4555C6.40787 13.9657 6.82297 14.3807 7.33313 14.3807C7.50292 14.3807 7.66171 14.3339 7.79868 14.2538L9.12969 15.5532H6.70615L4.68736 13.5602C4.78781 13.4122 4.84661 13.2338 4.84661 13.0419C4.84661 12.5318 4.43152 12.1167 3.92135 12.1167C3.41119 12.1167 2.99609 12.5318 2.99609 13.0419C2.99609 13.5521 3.41119 13.9671 3.92135 13.9671C4.08657 13.9671 4.24138 13.9231 4.37576 13.8469L6.53258 15.9762H9.56288L10.9267 17.3078V18.2274L10.9035 18.2034L9.04462 20.001L9.33866 20.305L10.9267 18.7692V20.6024H11.3497V15.3609L8.67972 12.6475V7.23736Z" fill="#FFFFFE"/>
<path fill-rule="evenodd" clip-rule="evenodd" d="M9.40241 8.69108C9.40241 8.41408 9.62776 8.1888 9.90469 8.1888C10.1817 8.1888 10.407 8.41408 10.407 8.69108C10.407 8.968 10.1817 9.19335 9.90469 9.19335C9.62776 9.19335 9.40241 8.968 9.40241 8.69108ZM10.775 5.53574C10.775 5.25881 11.0003 5.03346 11.2773 5.03346C11.5542 5.03346 11.7795 5.25881 11.7795 5.53574C11.7795 5.81273 11.5542 6.03802 11.2773 6.03802C11.0003 6.03802 10.775 5.81273 10.775 5.53574ZM12.6966 8.03015C12.6966 7.75322 12.9219 7.52794 13.1989 7.52794C13.4758 7.52794 13.7011 7.75322 13.7011 8.03015C13.7011 8.30714 13.4758 8.53242 13.1989 8.53242C12.9219 8.53242 12.6966 8.30714 12.6966 8.03015ZM14.177 4.32314C14.177 4.04621 14.4023 3.82087 14.6792 3.82087C14.9562 3.82087 15.1815 4.04621 15.1815 4.32314C15.1815 4.60014 14.9562 4.82542 14.6792 4.82542C14.4023 4.82542 14.177 4.60014 14.177 4.32314ZM14.3355 12.434C14.3355 12.1571 14.5609 11.9317 14.8378 11.9317C15.1148 11.9317 15.3401 12.1571 15.3401 12.434C15.3401 12.7109 15.1148 12.9363 14.8378 12.9363C14.5609 12.9363 14.3355 12.7109 14.3355 12.434ZM15.0493 14.0686V13.3339C15.4578 13.2379 15.7631 12.8713 15.7631 12.434C15.7631 11.9238 15.348 11.5088 14.8378 11.5088C14.3276 11.5088 13.9126 11.9238 13.9126 12.434C13.9126 12.8713 14.2179 13.2379 14.6264 13.3339V13.8879L12.4064 16.0102V14.663L13.4103 13.6602V11.5979L14.8907 10.1549V5.22308C15.2991 5.12701 15.6045 4.76045 15.6045 4.32314C15.6045 3.81298 15.1894 3.39795 14.6792 3.39795C14.1691 3.39795 13.754 3.81298 13.754 4.32314C13.754 4.76045 14.0593 5.12701 14.4677 5.22308V9.97653L13.4103 11.0073V8.93008C13.8187 8.83401 14.1241 8.46752 14.1241 8.03015C14.1241 7.51998 13.709 7.10495 13.1989 7.10495C12.6887 7.10495 12.2736 7.51998 12.2736 8.03015C12.2736 8.46752 12.579 8.83401 12.9874 8.93008V13.4848L12.4064 14.0652V11.1291L11.4887 10.2303V6.43567C11.8971 6.33961 12.2025 5.97304 12.2025 5.53574C12.2025 5.02557 11.7874 4.61055 11.2773 4.61055C10.767 4.61055 10.352 5.02557 10.352 5.53574C10.352 5.97304 10.6573 6.33961 11.0658 6.43567V10.4081L11.9835 11.3069V13.8308L10.1162 11.9503V9.59094C10.5246 9.49494 10.8299 9.12838 10.8299 8.69108C10.8299 8.18091 10.4149 7.76582 9.90469 7.76582C9.39452 7.76582 8.97949 8.18091 8.97949 8.69108C8.97949 9.12838 9.2848 9.49494 9.69319 9.59094V12.1246L11.9835 14.431V20.6025H12.4064V16.5955L15.0493 14.0686Z" fill="#FFFFFE"/>
<path fill-rule="evenodd" clip-rule="evenodd" d="M17.5261 7.73678C17.5261 7.45985 17.7514 7.23451 18.0283 7.23451C18.3053 7.23451 18.5306 7.45985 18.5306 7.73678C18.5306 8.01371 18.3053 8.23906 18.0283 8.23906C17.7514 8.23906 17.5261 8.01371 17.5261 7.73678ZM19.6074 12.6454C19.8843 12.6454 20.1096 12.8707 20.1096 13.1477C20.1096 13.4246 19.8843 13.6499 19.6074 13.6499C19.3304 13.6499 19.1051 13.4246 19.1051 13.1477C19.1051 12.8707 19.3304 12.6454 19.6074 12.6454ZM15.9928 10.0656C15.9928 9.78865 16.2181 9.5633 16.4951 9.5633C16.772 9.5633 16.9974 9.78865 16.9974 10.0656C16.9974 10.3425 16.772 10.5679 16.4951 10.5679C16.2181 10.5679 15.9928 10.3425 15.9928 10.0656ZM19.5763 8.5852C19.5763 8.30821 19.8016 8.08293 20.0785 8.08293C20.3555 8.08293 20.5808 8.30821 20.5808 8.5852C20.5808 8.86213 20.3555 9.08748 20.0785 9.08748C19.8016 9.08748 19.5763 8.86213 19.5763 8.5852ZM18.2398 11.9935L20.29 9.96686V9.48507C20.6984 9.38907 21.0038 9.02251 21.0038 8.5852C21.0038 8.07504 20.5887 7.65994 20.0785 7.65994C19.5684 7.65994 19.1533 8.07504 19.1533 8.5852C19.1533 9.02251 19.4587 9.38907 19.8671 9.48507V9.79024L18.2398 11.3987V8.63665C18.6483 8.54065 18.9536 8.17409 18.9536 7.73678C18.9536 7.22662 18.5385 6.81152 18.0283 6.81152C17.5182 6.81152 17.1031 7.22662 17.1031 7.73678C17.1031 8.17409 17.4084 8.54065 17.8168 8.63665V12.8483L16.7048 13.9563C16.6997 12.8386 16.696 11.4456 16.7014 10.9668C17.1125 10.8727 17.4203 10.5047 17.4203 10.0656C17.4203 9.55541 17.0053 9.14032 16.4951 9.14032C15.985 9.14032 15.5699 9.55541 15.5699 10.0656C15.5699 10.5014 15.873 10.8667 16.2793 10.9644C16.271 11.6034 16.2791 13.4684 16.2836 14.3448L16.3149 14.3447L13.0938 17.5538V20.6024H13.5167V18.846L15.0634 20.3067L15.3538 19.9993L13.5167 18.2642V17.7295L15.1439 16.1084H17.2001L19.278 14.0112C19.3805 14.0504 19.4912 14.0728 19.6074 14.0728C20.1175 14.0728 20.5326 13.6578 20.5326 13.1477C20.5326 12.6375 20.1175 12.2224 19.6074 12.2224C19.0972 12.2224 18.6821 12.6375 18.6821 13.1477C18.6821 13.3866 18.7739 13.604 18.9232 13.7683L17.0238 15.6854H15.5684L18.2398 13.0239V11.9935Z" fill="#FFFFFE"/>
</svg>
