<svg width="24" height="24" viewBox="0 0 24 24" fill="none" xmlns="http://www.w3.org/2000/svg">
<g clip-path="url(#clip0)">
<path d="M12 13.4127L17.9999 9.94864L12 6.46387V13.4127Z" fill="#2A3D58"/>
<path d="M12.0001 13.4127L6 9.94864L12.0001 6.46387V13.4127Z" fill="#0F2631"/>
<path d="M17.9999 3L12 6.4641L17.9999 9.94887V3Z" fill="#0F2631"/>
<path d="M18 3L24.0001 6.4641L18 9.94887V3Z" fill="#2A3D58"/>
<path d="M5.99989 3L0 6.4641L5.99989 9.94887V3Z" fill="#0F2631"/>
<path d="M6 3L12.0001 6.4641L6 9.94887V3Z" fill="#2A3D58"/>
<path d="M12 22.9677L17.9999 19.5036L12 16.019V22.9677Z" fill="#2A3D58"/>
<path d="M12.0001 22.9677L6 19.5036L12.0001 16.019V22.9677Z" fill="#0F2631"/>
<path d="M17.9999 12.5547L12 16.0188L17.9999 19.5033V12.5547Z" fill="#0F2631"/>
<path d="M18 12.5547L24.0001 16.0188L18 19.5033V12.5547Z" fill="#2A3D58"/>
<path d="M5.99989 12.5547L0 16.0188L5.99989 19.5033V12.5547Z" fill="#0F2631"/>
<path d="M6 12.5547L12.0001 16.0188L6 19.5033V12.5547Z" fill="#2A3D58"/>
</g>
<defs>
<clipPath id="clip0">
<rect width="24" height="24" fill="white"/>
</clipPath>
</defs>
</svg>
