<svg width="24" height="24" viewBox="0 0 24 24" fill="none" xmlns="http://www.w3.org/2000/svg">
<g clip-path="url(#clip0)">
<path d="M18.9721 16.7846C21.7478 16.7846 23.9979 14.5345 23.9979 11.7588C23.9979 8.98306 21.7478 6.73291 18.9721 6.73291C16.1964 6.73291 13.9463 8.98306 13.9463 11.7588C13.9463 14.5345 16.1964 16.7846 18.9721 16.7846Z" fill="black"/>
<path d="M12.6207 4.84682C13.9591 4.84682 15.0441 3.76182 15.0441 2.42341C15.0441 1.085 13.9591 0 12.6207 0C11.2823 0 10.1973 1.085 10.1973 2.42341C10.1973 3.76182 11.2823 4.84682 12.6207 4.84682Z" fill="black"/>
<path d="M12.6207 23.5295C13.9591 23.5295 15.0441 22.4445 15.0441 21.1061C15.0441 19.7676 13.9591 18.6826 12.6207 18.6826C11.2823 18.6826 10.1973 19.7676 10.1973 21.1061C10.1973 22.4445 11.2823 23.5295 12.6207 23.5295Z" fill="black"/>
<path d="M11.5105 15.3882C11.6538 15.4359 11.8089 15.4598 11.9641 15.4598C12.7998 15.4598 13.4803 14.7793 13.4803 13.9437C13.4803 13.108 12.7998 12.4276 11.9641 12.4276C11.4269 12.4276 10.9614 12.7021 10.6868 13.12V13.1319C10.639 13.1916 10.6032 13.2632 10.5793 13.3349C8.90804 16.2835 5.55349 14.3138 5.55349 14.3138C5.00434 13.9914 4.37164 13.8004 3.67924 13.8004C1.66173 13.8004 0.0262397 15.4359 0.0262397 17.4534C0.0262397 19.4709 1.66173 21.1064 3.67924 21.1064C5.08791 21.1064 6.31751 20.3066 6.91441 19.1367V19.1247C7.02185 18.9218 7.10541 18.7069 7.17704 18.4801C8.91998 14.4809 11.5105 15.3882 11.5105 15.3882ZM10.651 10.0281C10.7226 10.1594 10.8181 10.2907 10.9255 10.3981C11.5224 10.995 12.4775 10.995 13.0624 10.3981C13.6593 9.80123 13.6593 8.8462 13.0624 8.26124C12.6804 7.87923 12.1551 7.74791 11.6776 7.85536H11.6657C11.5941 7.86729 11.5105 7.89117 11.4389 7.92698C8.16789 8.83426 7.18898 5.06189 7.18898 5.06189C7.03379 4.44112 6.71146 3.85616 6.23395 3.37864C4.8014 1.94609 2.49738 1.94609 1.07677 3.3667C-0.343835 4.78731 -0.355773 7.10327 1.07677 8.52388C2.07956 9.52666 3.50017 9.82511 4.76559 9.41922H4.77752C4.99241 9.34759 5.20729 9.25209 5.42217 9.14465C9.46912 7.54497 10.651 10.0281 10.651 10.0281Z" fill="black"/>
</g>
<defs>
<clipPath id="clip0">
<rect width="24" height="24" fill="white"/>
</clipPath>
</defs>
</svg>
