<svg width="24" height="24" viewBox="0 0 24 24" fill="none" xmlns="http://www.w3.org/2000/svg">
<g clip-path="url(#clip0)">
<path d="M12.5124 6.16309L17.3988 9.11029L12.5124 11.9039L7.40527 9.11029L12.5124 6.16309Z" fill="#EA259E"/>
<path d="M7.40527 9.21582L12.5124 11.9998L12.4836 17.683L7.40527 14.995V9.21582Z" fill="#014C99"/>
<path d="M12.5117 11.9999L17.4557 9.21582L17.5997 14.9951L12.5789 17.7887L12.5117 11.9999Z" fill="#08B0F9"/>
<path d="M22.6687 5.80806L22.5919 5.76006L17.7151 2.96643L12.6079 0.0384004L12.5407 0L12.4831 0.0288003C12.3872 0.0630614 12.2941 0.10479 12.2047 0.153602L7.75026 2.75523L2.23983 5.98086C2.00943 6.08646 2.01903 6.32646 2.01903 6.47047V6.57607L2.00943 14.7553L1.99983 17.789C1.99023 17.9714 2.06703 18.1346 2.20143 18.1922L8.53747 21.7922L12.2815 23.9234C12.3583 23.9714 12.4447 24.0002 12.5215 24.0002C12.5872 24.0032 12.6518 23.9828 12.7039 23.9426L18.1183 20.8226L22.7263 18.173C22.8991 18.0962 23.0047 17.9234 22.9759 17.7602L22.9951 6.26886C23.0239 6.00006 22.8031 5.87526 22.6687 5.80806ZM12.5023 6.53767L16.9663 9.12969L12.5119 11.6929L10.9951 10.8385L7.99986 9.13929L12.5023 6.53767ZM17.5711 8.77449L12.7327 5.96166C12.669 5.9148 12.5924 5.88873 12.5134 5.88701C12.4344 5.88529 12.3567 5.90801 12.2911 5.95206L7.39506 8.79369L2.94063 6.26886L6.05105 4.45445L12.5119 0.681607L18.4543 4.08964L22.0831 6.17286L17.5711 8.77449ZM2.63343 6.79687L7.06866 9.31209L7.15506 14.8418C7.14546 15.0146 7.23186 15.1682 7.36626 15.2354L10.3135 16.925L12.2047 18.0098V23.1842L2.61423 17.7314L2.63343 6.79687ZM7.68306 9.6577L12.2143 12.2209L12.2047 17.309L7.76946 14.7649L7.68306 9.6577ZM12.8191 18.0194L14.7103 16.925L17.6287 15.2546L17.6575 15.2354C17.7151 15.2066 17.7823 15.1586 17.8303 15.0914L17.8591 15.053V15.005L17.8495 11.3377V9.32169L22.3807 6.70087V11.1649L22.3711 17.6738L16.2943 21.1682L12.8095 23.1746L12.8191 18.0194ZM12.8191 17.3186V12.2209L17.2831 9.6481V14.7553L12.8191 17.3186Z" fill="#2F2F2F"/>
<path d="M12.3771 1.27654C12.2427 1.29574 12.1275 1.38214 12.0699 1.49734C12.0123 1.63174 12.0219 1.77574 12.0891 1.87174C12.1659 1.98694 12.2907 2.05414 12.4347 2.05414C12.4605 2.05235 12.4861 2.04915 12.5115 2.04454C12.6747 2.02534 12.7995 1.91014 12.8283 1.76614C12.8483 1.7032 12.8508 1.63603 12.8356 1.57179C12.8203 1.50754 12.788 1.44863 12.7419 1.40134C12.6969 1.35099 12.6397 1.31307 12.5758 1.29121C12.512 1.26935 12.4435 1.2643 12.3771 1.27654ZM12.6363 2.95654C12.4923 2.87974 12.3291 2.88934 12.2139 2.96614C12.1083 3.02374 12.0411 3.13894 12.0219 3.26374C12.0123 3.39814 12.0699 3.51334 12.1467 3.58054C12.1838 3.61579 12.2275 3.64328 12.2753 3.66142C12.3231 3.67955 12.374 3.68796 12.4251 3.68614C12.4847 3.68513 12.5435 3.67207 12.5979 3.64774C12.7515 3.59014 12.8379 3.44614 12.8379 3.30214C12.8475 3.16774 12.7611 3.03334 12.6363 2.95654ZM12.6459 4.60774C12.5115 4.52134 12.3483 4.52134 12.2235 4.58854C12.1083 4.64614 12.0315 4.76134 12.0219 4.89574C12.0123 5.03014 12.0699 5.17414 12.1755 5.24134C12.2476 5.2946 12.3356 5.32169 12.4251 5.31814C12.4847 5.31713 12.5435 5.30407 12.5979 5.27974C12.6632 5.25364 12.7198 5.2097 12.7613 5.15293C12.8027 5.09617 12.8274 5.02888 12.8324 4.95877C12.8374 4.88865 12.8225 4.81855 12.7896 4.75647C12.7566 4.69439 12.7068 4.64284 12.6459 4.60774ZM6.12752 15.3693C5.98352 15.4077 5.87792 15.5229 5.84912 15.6669C5.82032 15.8205 5.86832 15.9645 5.97392 16.0509C6.04046 16.1085 6.12598 16.1392 6.21392 16.1373C6.24299 16.1375 6.27199 16.1343 6.30032 16.1277C6.42512 16.0989 6.53072 16.0125 6.56912 15.9069C6.63632 15.7725 6.61712 15.6093 6.50192 15.4845C6.45768 15.4307 6.3986 15.3911 6.33203 15.3707C6.26546 15.3502 6.19434 15.3497 6.12752 15.3693ZM18.5307 16.1469C18.5635 16.1453 18.5958 16.1388 18.6267 16.1277C18.7515 16.0989 18.8571 16.0125 18.8859 15.9165C18.9531 15.7725 18.9243 15.5997 18.8187 15.4749C18.7703 15.4212 18.7074 15.3826 18.6375 15.3639C18.5677 15.3452 18.4939 15.347 18.4251 15.3693C18.2907 15.4077 18.1851 15.5229 18.1563 15.6669C18.1275 15.8205 18.1851 15.9645 18.2907 16.0509C18.3483 16.1181 18.4347 16.1469 18.5307 16.1469ZM4.72592 16.1949C4.58192 16.2429 4.48592 16.3773 4.47632 16.5309C4.45712 16.6941 4.53392 16.8477 4.65872 16.9149C4.71608 16.9517 4.78259 16.9716 4.85072 16.9725C4.90721 16.9713 4.96281 16.9582 5.01392 16.9341C5.13872 16.8765 5.22512 16.7613 5.23472 16.6557C5.26352 16.5117 5.20592 16.3581 5.09072 16.2621C5.04258 16.2174 4.98271 16.1873 4.9181 16.1754C4.85348 16.1635 4.78682 16.1703 4.72592 16.1949ZM19.8939 16.9629C19.9395 16.9648 19.9851 16.9583 20.0283 16.9437C20.1627 16.8957 20.2587 16.7805 20.2683 16.6653C20.3067 16.5213 20.2683 16.3773 20.1531 16.2717C20.103 16.2238 20.0403 16.191 19.9723 16.1774C19.9043 16.1638 19.8338 16.1699 19.7691 16.1949C19.7043 16.2217 19.6474 16.2646 19.6038 16.3194C19.5601 16.3743 19.5312 16.4394 19.5196 16.5086C19.5081 16.5777 19.5144 16.6487 19.5379 16.7147C19.5614 16.7808 19.6013 16.8398 19.6539 16.8861C19.723 16.938 19.8076 16.9651 19.8939 16.9629ZM3.66992 17.0493C3.55472 16.9821 3.41072 16.9821 3.30512 17.0493C3.18032 17.1165 3.10352 17.2413 3.10352 17.3949C3.10352 17.5485 3.18032 17.6829 3.30512 17.7405C3.3573 17.7719 3.41703 17.7885 3.47792 17.7885C3.55235 17.7897 3.62558 17.7697 3.68912 17.7309C3.81392 17.6445 3.88112 17.5005 3.87152 17.3757C3.87152 17.2413 3.79472 17.1165 3.66992 17.0397V17.0493ZM21.0363 17.7021C21.0999 17.7582 21.1819 17.789 21.2667 17.7885C21.3161 17.7885 21.3651 17.7787 21.4107 17.7597C21.5451 17.7021 21.6411 17.5677 21.6507 17.4525C21.6795 17.2989 21.6123 17.1453 21.4779 17.0589C21.3531 16.9725 21.1995 16.9725 21.0843 17.0493C21.028 17.0839 20.9811 17.1317 20.9476 17.1886C20.9141 17.2455 20.8951 17.3098 20.8923 17.3757C20.8827 17.5101 20.9403 17.6349 21.0363 17.7021Z" fill="#2F2F2F"/>
</g>
<defs>
<clipPath id="clip0">
<rect width="24" height="24" fill="white"/>
</clipPath>
</defs>
</svg>
