<svg width="24" height="24" viewBox="0 0 24 24" fill="none" xmlns="http://www.w3.org/2000/svg">
<path d="M12 24C18.6274 24 24 18.6274 24 12C24 5.37258 18.6274 0 12 0C5.37258 0 0 5.37258 0 12C0 18.6274 5.37258 24 12 24Z" fill="url(#paint0_radial)"/>
<path d="M10.1518 14.5079L16.9194 7.72953C16.9194 7.72953 13.8275 3.97817 8.97346 6.07547C8.97346 6.07547 4.78968 7.84844 5.26157 12.5367C5.43216 14.2314 6.14319 15.8298 7.40265 16.9764C8.55043 18.0214 10.3283 18.9681 12.8762 18.6376C12.8762 18.6376 14.7356 18.4214 16.141 17.0376L17.7194 18.5944C17.7194 18.5944 13.6221 22.8755 7.42751 19.6647C7.42751 19.6647 4.07616 17.989 3.12481 13.4052C3.12481 13.4052 2.15184 7.41601 7.60049 4.34574C7.60049 4.34574 13.3951 0.951147 18.087 5.79439L18.887 5.1025C18.887 5.1025 14.9194 0.691687 8.89778 2.7025C8.89778 2.7025 3.49238 4.34574 2.38968 9.47007C2.38968 9.47007 0.811299 15.362 5.00589 19.0809C5.00589 19.0809 9.44914 23.5998 15.5681 21.1133C15.5681 21.1133 17.2762 20.616 19.1248 18.616L16.1627 15.6322C16.1627 15.6322 14.1843 18.5403 10.3681 17.4484C10.3681 17.4484 5.37346 16.3674 6.37887 10.6376C6.37887 10.6376 7.13562 6.77817 11.6329 6.38898C11.6329 6.38898 13.7735 6.22682 15.4275 7.68628L9.43833 13.762L10.1518 14.5079Z" fill="white"/>
<defs>
<radialGradient id="paint0_radial" cx="0" cy="0" r="1" gradientUnits="userSpaceOnUse" gradientTransform="translate(9.60297 5.12076) scale(25.6069)">
<stop stop-color="#F2EC05"/>
<stop offset="0.06" stop-color="#EDEB07"/>
<stop offset="0.13" stop-color="#DFE70C"/>
<stop offset="0.2" stop-color="#C8E114"/>
<stop offset="0.28" stop-color="#A8D820"/>
<stop offset="0.35" stop-color="#7ECD2F"/>
<stop offset="0.43" stop-color="#4CBF41"/>
<stop offset="0.47" stop-color="#2FB74B"/>
<stop offset="0.55" stop-color="#33B765"/>
<stop offset="0.62" stop-color="#37B77A"/>
<stop offset="0.67" stop-color="#38B782"/>
<stop offset="0.84" stop-color="#0AAEA4"/>
</radialGradient>
</defs>
</svg>
