<svg width="24" height="24" viewBox="0 0 24 24" fill="none" xmlns="http://www.w3.org/2000/svg">
<path d="M12.0368 0.130195V0.142017C12.0486 0.201131 12.0486 0.272066 12.0486 0.343002V8.86714C12.0368 8.91443 12.0013 8.92625 11.9658 8.9499C11.7176 9.06813 11.4811 9.17453 11.2328 9.28093C10.89 9.43463 10.5353 9.60015 10.1924 9.75384L8.95105 10.3213C8.6082 10.475 8.26534 10.6287 7.93431 10.7824C7.53234 10.9716 7.11854 11.1489 6.71657 11.3381C6.37371 11.4918 6.03086 11.6573 5.67618 11.811C5.39243 11.941 5.10869 12.0593 4.83677 12.1893C4.81312 12.2011 4.78948 12.213 4.76583 12.213C4.75401 12.213 4.75401 12.213 4.74219 12.2011L5.0614 11.6691C5.67618 10.6524 6.27913 9.64744 6.89391 8.63069C7.54416 7.543 8.20623 6.45532 8.85647 5.36763C9.45943 4.36271 10.0742 3.35778 10.6772 2.35285C11.1146 1.61985 11.5639 0.886845 12.0013 0.15384C12.0131 0.130195 12.0249 0.118372 12.0249 0.0947266H12.0368C12.0249 0.106549 12.0368 0.118372 12.0368 0.130195Z" fill="#8A92B2"/>
<path d="M19.2955 12.2012L19.3073 12.213L17.5693 13.2416L12.1073 16.4692C12.0836 16.481 12.06 16.4928 12.0482 16.5046C12.0127 16.5046 12.0127 16.4692 12.0127 16.4573V16.3509V9.04454C12.0127 9.00907 12.0127 8.96178 12.0245 8.92631C12.0363 8.87902 12.0718 8.89084 12.1073 8.90266C12.261 8.9736 12.4265 9.04454 12.5802 9.11547C13.0413 9.32828 13.5024 9.54109 13.9634 9.74207C14.3654 9.91941 14.7556 10.1086 15.1575 10.2859C15.5595 10.4633 15.9615 10.6524 16.3634 10.8298C16.7063 10.9835 17.061 11.149 17.4038 11.3027C17.7467 11.4564 18.1014 11.6219 18.4442 11.7756C18.7161 11.8938 18.9881 12.0238 19.26 12.1421C19.26 12.1775 19.2718 12.1894 19.2955 12.2012Z" fill="#454A75"/>
<path d="M12.0358 23.8462C12.0358 23.8581 12.024 23.8699 12.024 23.8817H12.0121C12.0121 23.8581 11.9885 23.8462 11.9767 23.8226C11.2437 22.794 10.5107 21.7536 9.77766 20.725C9.03284 19.6728 8.27619 18.6088 7.53136 17.5566C6.81018 16.5398 6.07717 15.5113 5.35599 14.4945C5.16683 14.2226 4.97766 13.9625 4.7885 13.6906C4.77668 13.6669 4.76486 13.6551 4.74121 13.6196C4.77668 13.6196 4.80032 13.6433 4.81215 13.6551C5.84072 14.2581 6.85747 14.861 7.88604 15.464C9.0683 16.1615 10.2387 16.859 11.421 17.5566L12.024 17.9113C12.0476 17.9349 12.0476 17.9585 12.0476 17.9822V23.6807C12.0476 23.7398 12.0476 23.7989 12.0358 23.8462Z" fill="#8A92B2"/>
<path d="M4.72949 12.2246V12.2128C5.10782 12.0473 5.47432 11.8699 5.85264 11.7044C6.33737 11.4798 6.8221 11.267 7.30683 11.0423C7.67333 10.8768 8.05166 10.6995 8.41816 10.534C8.962 10.2857 9.49402 10.0492 10.0379 9.80097C10.4044 9.63545 10.7709 9.46994 11.1492 9.2926C11.4093 9.17437 11.6812 9.05614 11.9413 8.93792C11.965 8.92609 12.0004 8.91427 12.0123 8.89062C12.0241 8.89062 12.0241 8.90245 12.0123 8.91427V16.4217C12.0123 16.4571 12.0004 16.4926 12.0241 16.5162C12.0004 16.5517 11.9768 16.5162 11.965 16.5044C11.8586 16.4453 11.7522 16.3862 11.6457 16.3153C9.36398 14.9675 7.07038 13.6079 4.78861 12.2601C4.77678 12.2483 4.75314 12.2364 4.72949 12.2246Z" fill="#62688F"/>
<path d="M19.2717 13.6196H19.2835C19.2835 13.6433 19.2599 13.6669 19.2481 13.6906C17.0727 16.7526 14.8973 19.8265 12.722 22.8886C12.4973 23.2078 12.2609 23.527 12.0362 23.8462C12.0244 23.8344 12.0244 23.8226 12.0244 23.8108V23.7398V18.0058V17.8994C12.521 17.6039 13.0057 17.3201 13.5022 17.0246C15.4175 15.8896 17.3328 14.7664 19.2362 13.6315C19.2481 13.6433 19.2599 13.6315 19.2717 13.6196Z" fill="#62688F"/>
<path d="M12.0236 8.9145V8.89086V8.81992V0.236671C12.0236 0.201203 12.0118 0.177558 12.0355 0.14209C14.4355 4.12633 16.8355 8.09874 19.2236 12.083C19.2473 12.1184 19.2828 12.1657 19.2946 12.213C19.1291 12.1539 18.9754 12.0712 18.8217 12.0002C18.6325 11.9175 18.4315 11.8229 18.2424 11.7401C18.1241 11.681 17.9941 11.6337 17.8759 11.5746C17.6749 11.48 17.4739 11.3973 17.2729 11.3027C17.1547 11.2554 17.0365 11.1963 16.9182 11.1372L16.1379 10.7825C16.0079 10.7234 15.8778 10.6643 15.736 10.6051L15.1685 10.3569C15.0502 10.3096 14.932 10.2505 14.8138 10.1914L14.0335 9.83667C13.9034 9.77756 13.7734 9.71844 13.6315 9.65933L13.064 9.41106C12.934 9.35194 12.8158 9.29283 12.6857 9.23372C12.4611 9.12731 12.2365 9.02091 12 8.92633C12.0355 8.9145 12.0236 8.9145 12.0236 8.9145Z" fill="#62688F"/>
</svg>
