<svg width="24" height="24" viewBox="0 0 24 24" fill="none" xmlns="http://www.w3.org/2000/svg">
<path d="M3.86813 21.1798C5.21542 21.1528 6.28576 20.0388 6.25881 18.6915C6.23186 17.3442 5.11782 16.2739 3.77053 16.3008C2.42325 16.3278 1.3529 17.4418 1.37985 18.7891C1.40681 20.1364 2.52085 21.2067 3.86813 21.1798Z" fill="black"/>
<path d="M1.6589 15.4613C2.574 15.4613 3.31584 14.7195 3.31584 13.8044C3.31584 12.8893 2.574 12.1475 1.6589 12.1475C0.743791 12.1475 0.00195312 12.8893 0.00195312 13.8044C0.00195312 14.7195 0.743791 15.4613 1.6589 15.4613Z" fill="black"/>
<path d="M5.67934 5.29617C6.37435 5.29617 6.93777 4.73275 6.93777 4.03773C6.93777 3.34272 6.37435 2.7793 5.67934 2.7793C4.98432 2.7793 4.4209 3.34272 4.4209 4.03773C4.4209 4.73275 4.98432 5.29617 5.67934 5.29617Z" fill="black"/>
<path d="M10.8387 2.91904C11.3677 2.91904 11.7965 2.49021 11.7965 1.96123C11.7965 1.43224 11.3677 1.00342 10.8387 1.00342C10.3097 1.00342 9.88086 1.43224 9.88086 1.96123C9.88086 2.49021 10.3097 2.91904 10.8387 2.91904Z" fill="black"/>
<path d="M16.2081 3.51345C16.6483 3.51345 17.0052 3.15662 17.0052 2.71644C17.0052 2.27627 16.6483 1.91943 16.2081 1.91943C15.768 1.91943 15.4111 2.27627 15.4111 2.71644C15.4111 3.15662 15.768 3.51345 16.2081 3.51345Z" fill="black"/>
<path d="M20.5425 6.75737C20.8707 6.75737 21.1368 6.49131 21.1368 6.16311C21.1368 5.83491 20.8707 5.56885 20.5425 5.56885C20.2143 5.56885 19.9482 5.83491 19.9482 6.16311C19.9482 6.49131 20.2143 6.75737 20.5425 6.75737Z" fill="black"/>
<path d="M22.6118 12.6021C23.3763 12.6021 23.9961 11.9823 23.9961 11.2178C23.9961 10.4533 23.3763 9.8335 22.6118 9.8335C21.8473 9.8335 21.2275 10.4533 21.2275 11.2178C21.2275 11.9823 21.8473 12.6021 22.6118 12.6021Z" fill="black"/>
<path d="M21.8634 17.7894C22.5469 17.7894 23.1009 17.2353 23.1009 16.5519C23.1009 15.8685 22.5469 15.3145 21.8634 15.3145C21.18 15.3145 20.626 15.8685 20.626 16.5519C20.626 17.2353 21.18 17.7894 21.8634 17.7894Z" fill="black"/>
<path d="M18.5713 21.7675C19.1041 21.7675 19.5361 21.3355 19.5361 20.8027C19.5361 20.2698 19.1041 19.8379 18.5713 19.8379C18.0384 19.8379 17.6064 20.2698 17.6064 20.8027C17.6064 21.3355 18.0384 21.7675 18.5713 21.7675Z" fill="black"/>
<path d="M13.4253 23.3965C13.7767 23.3965 14.0615 23.1116 14.0615 22.7602C14.0615 22.4089 13.7767 22.124 13.4253 22.124C13.0739 22.124 12.7891 22.4089 12.7891 22.7602C12.7891 23.1116 13.0739 23.3965 13.4253 23.3965Z" fill="black"/>
<path d="M8.3008 22.4527C8.54406 22.4527 8.74125 22.2555 8.74125 22.0122C8.74125 21.769 8.54406 21.5718 8.3008 21.5718C8.05755 21.5718 7.86035 21.769 7.86035 22.0122C7.86035 22.2555 8.05755 22.4527 8.3008 22.4527Z" fill="black"/>
<path d="M2.7538 10.7951C4.04922 10.7234 5.0412 9.61505 4.96946 8.31963C4.89771 7.02422 3.78941 6.03224 2.49399 6.10398C1.19858 6.17573 0.206598 7.28403 0.278343 8.57944C0.350087 9.87486 1.45839 10.8668 2.7538 10.7951Z" fill="black"/>
<path d="M7.9375 10.4485L9.88808 9.33691L9.88109 15.8039L7.9375 16.9015V10.4485Z" fill="black"/>
<path d="M15.7109 10.4485L17.6615 9.33691L17.6545 15.8039L15.7109 16.9015V10.4485Z" fill="black"/>
<path d="M11.8174 10.4485L13.768 9.33691L13.761 15.8039L11.8174 16.9015V10.4485Z" fill="black"/>
<path d="M6.0498 9.29504L7.95843 8.16943L9.88804 9.33698L7.93746 10.4486L6.0498 9.29504Z" fill="black"/>
<path d="M9.92285 9.29504L11.8315 8.16943L13.7611 9.33698L11.8175 10.4486L9.92285 9.29504Z" fill="black"/>
<path d="M13.8242 9.30236L15.7328 8.17676L17.6624 9.34431L15.7119 10.4559L13.8242 9.30236Z" fill="black"/>
</svg>
