<svg width="24" height="24" viewBox="0 0 24 24" fill="none" xmlns="http://www.w3.org/2000/svg">
<path fill-rule="evenodd" clip-rule="evenodd" d="M22.3768 17.8877L22.2467 5.8877L11.9199 12.0001L22.3768 17.8877Z" fill="#BBC3C6"/>
<path fill-rule="evenodd" clip-rule="evenodd" d="M11.9199 12L12.0492 24L22.3768 17.8876L11.9199 12Z" fill="#9DA5A7"/>
<path fill-rule="evenodd" clip-rule="evenodd" d="M22.246 5.88761L11.7891 0L11.9191 12L22.246 5.88761Z" fill="#7E878C"/>
<path fill-rule="evenodd" clip-rule="evenodd" d="M1.5918 18.1124L12.0487 24L11.9194 12L1.5918 18.1124Z" fill="#424647"/>
<path fill-rule="evenodd" clip-rule="evenodd" d="M1.46191 6.1123L1.592 18.1123L11.9196 11.9999L1.46191 6.1123Z" fill="#7F8382"/>
<path fill-rule="evenodd" clip-rule="evenodd" d="M11.7895 0L1.46191 6.11239L11.9196 12L11.7895 0Z" fill="#C3C9C9"/>
<mask id="mask0" mask-type="alpha" maskUnits="userSpaceOnUse" x="10" y="8" width="7" height="8">
<path d="M16.5714 12.0001C16.5714 13.1529 16.1523 14.2077 15.4573 15.0204C15.3939 15.0336 13.6046 15.3861 12.2492 14.7997C11.2553 14.3691 10.7695 13.3941 10.6064 12.9931C10.907 13.3909 11.383 13.6469 11.9198 13.6469C12.2937 13.6469 12.6387 13.5218 12.9153 13.3118C13.3205 13.1463 14.2905 12.6604 14.7195 11.6699C15.3058 10.3145 14.9525 8.52513 14.9402 8.46338C15.9382 9.31566 16.5714 10.5837 16.5714 12.0001Z" fill="white"/>
</mask>
<g mask="url(#mask0)">
<path fill-rule="evenodd" clip-rule="evenodd" d="M16.5714 12.0001C16.5714 13.1529 16.1523 14.2077 15.4573 15.0204C15.3939 15.0336 13.6046 15.3861 12.2492 14.7997C11.2553 14.3691 10.7695 13.3941 10.6064 12.9931C10.907 13.3909 11.383 13.6469 11.9198 13.6469C12.2937 13.6469 12.6387 13.5218 12.9153 13.3118C13.3205 13.1463 14.2905 12.6604 14.7195 11.6699C15.3058 10.3145 14.9525 8.52513 14.9402 8.46338C15.9382 9.31566 16.5714 10.5837 16.5714 12.0001Z" fill="url(#paint0_linear)"/>
</g>
<mask id="mask1" mask-type="alpha" maskUnits="userSpaceOnUse" x="8" y="10" width="8" height="7">
<path d="M15.4555 15.0214C14.6033 16.0194 13.3351 16.6518 11.9196 16.6518C10.7669 16.6518 9.7112 16.2327 8.89846 15.5369C8.88613 15.4751 8.53368 13.6858 9.11999 12.3304C9.549 11.3373 10.5223 10.8523 10.9241 10.6885C10.528 10.989 10.2728 11.4641 10.2728 12.0002C10.2728 12.3732 10.3971 12.7174 10.6063 12.9933C10.7693 13.3943 11.2551 14.3693 12.2491 14.7999C13.6044 15.3862 15.3938 15.0338 15.4555 15.0214Z" fill="white"/>
</mask>
<g mask="url(#mask1)">
<path fill-rule="evenodd" clip-rule="evenodd" d="M15.4555 15.0214C14.6033 16.0194 13.3351 16.6518 11.9196 16.6518C10.7669 16.6518 9.7112 16.2327 8.89846 15.5369C8.88613 15.4751 8.53368 13.6858 9.11999 12.3304C9.549 11.3373 10.5223 10.8523 10.9241 10.6885C10.528 10.989 10.2728 11.4641 10.2728 12.0002C10.2728 12.3732 10.3971 12.7174 10.6063 12.9933C10.7693 13.3943 11.2551 14.3693 12.2491 14.7999C13.6044 15.3862 15.3938 15.0338 15.4555 15.0214Z" fill="url(#paint1_linear)"/>
</g>
<mask id="mask2" mask-type="alpha" maskUnits="userSpaceOnUse" x="8" y="7" width="8" height="7">
<path d="M14.9399 8.46356C14.9522 8.52531 15.3055 10.3147 14.7192 11.67C14.2902 12.6606 13.3202 13.1465 12.9167 13.3112C13.3111 13.0098 13.5664 12.5354 13.5664 12.0002C13.5664 11.6264 13.4412 11.2814 13.2313 11.0047C13.0657 10.5988 12.5799 9.62953 11.5893 9.20052C10.2339 8.61427 8.44462 8.96666 8.38281 8.97906C9.23594 7.98103 10.504 7.34863 11.9195 7.34863C13.0723 7.34863 14.1264 7.76779 14.939 8.46193C14.939 8.46193 14.939 8.46272 14.9399 8.46356Z" fill="white"/>
</mask>
<g mask="url(#mask2)">
<path fill-rule="evenodd" clip-rule="evenodd" d="M14.9399 8.46356C14.9522 8.52531 15.3055 10.3147 14.7192 11.67C14.2902 12.6606 13.3202 13.1465 12.9167 13.3112C13.3111 13.0098 13.5664 12.5354 13.5664 12.0002C13.5664 11.6264 13.4412 11.2814 13.2313 11.0047C13.0657 10.5988 12.5799 9.62953 11.5893 9.20052C10.2339 8.61427 8.44462 8.96666 8.38281 8.97906C9.23594 7.98103 10.504 7.34863 11.9195 7.34863C13.0723 7.34863 14.1264 7.76779 14.939 8.46193C14.939 8.46193 14.939 8.46272 14.9399 8.46356Z" fill="url(#paint2_linear)"/>
</g>
<path fill-rule="evenodd" clip-rule="evenodd" d="M13.2311 11.0044C13.4411 11.281 13.5662 11.626 13.5662 11.9999C13.5662 12.5351 13.3109 13.0094 12.9165 13.3108C12.6382 13.5216 12.2932 13.6468 11.9193 13.6468C11.3825 13.6468 10.9065 13.3907 10.606 12.993C10.3968 12.7171 10.2725 12.3729 10.2725 11.9999C10.2725 11.4638 10.5277 10.9887 10.9238 10.6882C11.1997 10.4782 11.5447 10.353 11.9193 10.353C12.4538 10.353 12.9289 10.6074 13.2303 11.0027C13.2303 11.0035 13.2303 11.0035 13.2311 11.0044Z" fill="white"/>
<mask id="mask3" mask-type="alpha" maskUnits="userSpaceOnUse" x="7" y="8" width="7" height="8">
<path d="M13.231 11.0031C12.9296 10.6078 12.4545 10.3534 11.92 10.3534C11.5454 10.3534 11.2004 10.4785 10.9245 10.6885C10.5227 10.8524 9.54938 11.3374 9.12037 12.3304C8.53406 13.6858 8.88651 15.4752 8.89885 15.5369C7.90087 14.6846 7.26758 13.4166 7.26758 12.0002C7.26758 10.8466 7.68758 9.79179 8.38335 8.97906C8.44516 8.96666 10.2345 8.61427 11.5898 9.20052C12.5804 9.62954 13.0663 10.5988 13.231 11.0031Z" fill="white"/>
</mask>
<g mask="url(#mask3)">
<path fill-rule="evenodd" clip-rule="evenodd" d="M13.231 11.0031C12.9296 10.6078 12.4545 10.3534 11.92 10.3534C11.5454 10.3534 11.2004 10.4785 10.9245 10.6885C10.5227 10.8524 9.54938 11.3374 9.12037 12.3304C8.53406 13.6858 8.88651 15.4752 8.89885 15.5369C7.90087 14.6846 7.26758 13.4166 7.26758 12.0002C7.26758 10.8466 7.68758 9.79179 8.38335 8.97906C8.44516 8.96666 10.2345 8.61427 11.5898 9.20052C12.5804 9.62954 13.0663 10.5988 13.231 11.0031Z" fill="url(#paint3_linear)"/>
</g>
<defs>
<linearGradient id="paint0_linear" x1="13.5889" y1="8.46337" x2="13.5889" y2="15.1374" gradientUnits="userSpaceOnUse">
<stop stop-color="#F0CE7B"/>
<stop offset="1" stop-color="#FDFDF4"/>
</linearGradient>
<linearGradient id="paint1_linear" x1="12.1189" y1="16.6518" x2="12.1189" y2="10.6884" gradientUnits="userSpaceOnUse">
<stop stop-color="#CE4A28"/>
<stop offset="1" stop-color="#FDFDF4"/>
</linearGradient>
<linearGradient id="paint2_linear" x1="11.7197" y1="7.34863" x2="11.7197" y2="13.3112" gradientUnits="userSpaceOnUse">
<stop stop-color="#F0CE7B"/>
<stop offset="1" stop-color="#FDFDF4"/>
</linearGradient>
<linearGradient id="paint3_linear" x1="8.3692" y1="14.957" x2="11.6214" y2="9.32401" gradientUnits="userSpaceOnUse">
<stop stop-color="#F0CE7B"/>
<stop offset="1" stop-color="#FDFDF4"/>
</linearGradient>
</defs>
</svg>
