<svg width="24" height="24" viewBox="0 0 24 24" fill="none" xmlns="http://www.w3.org/2000/svg">
<g clip-path="url(#clip0)">
<path fill-rule="evenodd" clip-rule="evenodd" d="M12 0C14.3734 0 16.6935 0.703788 18.6668 2.02236C20.6402 3.34094 22.1783 5.21508 23.0866 7.4078C23.9948 9.60051 24.2324 12.0133 23.7694 14.3411C23.3064 16.6689 22.1635 18.8071 20.4853 20.4853C18.8071 22.1635 16.6689 23.3064 14.3411 23.7694C12.0133 24.2324 9.60051 23.9948 7.4078 23.0866C5.21508 22.1783 3.34094 20.6402 2.02236 18.6668C0.703788 16.6935 0 14.3734 0 12C0 8.8174 1.26428 5.76516 3.51472 3.51472C5.76515 1.26428 8.8174 0 12 0Z" fill="#1E9ADA"/>
<path d="M9.32122 6.70198C6.34484 11.2671 4.51661 17.6066 3.80355 19.76C3.40252 15.6948 5.51972 10.1618 7.06999 6.89096C6.35693 6.92392 2.55543 7.192 0.449219 9.36853C0.449219 9.36853 1.58637 5.87466 8.15221 4.81442L8.17418 4.76937C13.3128 -2.74244 17.1692 1.74465 17.1692 1.74465C14.8279 1.35351 12.7887 2.52582 11.0495 4.43426C11.8966 4.4013 17.3813 4.33428 18.9601 8.67525C18.9601 8.67525 15.7827 6.39874 9.31792 6.69759L9.32122 6.70198ZM13.0337 11.9362C12.5612 11.9355 12.099 12.0751 11.7058 12.3371C11.3126 12.5992 11.0059 12.972 10.8246 13.4084C10.6433 13.8448 10.5956 14.3252 10.6874 14.7887C10.7791 15.2523 11.0064 15.6782 11.3403 16.0126C11.6742 16.3469 12.0998 16.5748 12.5632 16.6672C13.0267 16.7596 13.5071 16.7125 13.9437 16.5318C14.3804 16.3511 14.7536 16.045 15.0162 15.6521C15.2788 15.2593 15.419 14.7973 15.419 14.3248C15.4197 14.0112 15.3585 13.7005 15.239 13.4106C15.1194 13.1207 14.9438 12.8572 14.7222 12.6353C14.5006 12.4134 14.2374 12.2375 13.9476 12.1175C13.6579 11.9975 13.3473 11.9359 13.0337 11.9362Z" fill="#FEFEFE"/>
</g>
<defs>
<clipPath id="clip0">
<rect width="24" height="24" fill="white"/>
</clipPath>
</defs>
</svg>
