<svg width="24" height="24" viewBox="0 0 24 24" fill="none" xmlns="http://www.w3.org/2000/svg">
<path d="M12 24C18.6274 24 24 18.6274 24 12C24 5.37258 18.6274 0 12 0C5.37258 0 0 5.37258 0 12C0 18.6274 5.37258 24 12 24Z" fill="url(#paint0_linear)"/>
<path fill-rule="evenodd" clip-rule="evenodd" d="M10.4996 8.01429V10.6286C10.4996 10.8 10.6582 10.9286 10.7996 10.9286H14.9139C15.0553 10.9286 15.2139 11.0571 15.2139 11.2286V12.3429C15.2139 12.4843 15.0853 12.6429 14.9139 12.6429H10.7996C10.6582 12.6429 10.4996 12.8014 10.4996 12.9429V19.0286C10.4996 19.26 10.371 19.3843 10.1996 19.2857L8.99958 18.4286C8.85815 18.3429 8.7853 18.2571 8.7853 18.0857V12.9429C8.7853 12.8014 8.62244 12.6429 8.4853 12.6429H6.51387C6.34244 12.6429 6.21387 12.4843 6.21387 12.3429V11.2286C6.21387 11.0614 6.34244 10.9286 6.51387 10.9286H8.4853C8.62244 10.9286 8.7853 10.8 8.7853 10.6286V6.3C8.7853 6.12857 8.92244 6 9.06387 6H16.6282C16.7696 6 16.9282 6.15857 16.9282 6.3V7.41429C16.9282 7.55571 16.7996 7.71429 16.6282 7.71429H10.7996C10.6582 7.71429 10.4996 7.87286 10.4996 8.01429Z" fill="white"/>
<defs>
<linearGradient id="paint0_linear" x1="-0.000685215" y1="0.000685215" x2="23.9993" y2="24.0007" gradientUnits="userSpaceOnUse">
<stop stop-color="#AA00FF"/>
<stop offset="1" stop-color="#5500FF"/>
</linearGradient>
</defs>
</svg>
