<svg width="24" height="24" viewBox="0 0 24 24" fill="none" xmlns="http://www.w3.org/2000/svg">
<path d="M12 24C18.6274 24 24 18.6274 24 12C24 5.37258 18.6274 0 12 0C5.37258 0 0 5.37258 0 12C0 18.6274 5.37258 24 12 24Z" fill="#008DDE"/>
<path d="M18.022 12.9947C18.0952 12.9974 18.1683 12.9854 18.2367 12.9592C18.3052 12.933 18.3677 12.8933 18.4205 12.8425C18.4733 12.7916 18.5153 12.7306 18.544 12.6632C18.5727 12.5957 18.5874 12.5231 18.5874 12.4498C18.5874 12.3765 18.5727 12.304 18.544 12.2365C18.5153 12.1691 18.4733 12.1081 18.4205 12.0572C18.3677 12.0063 18.3052 11.9666 18.2367 11.9405C18.1683 11.9143 18.0952 11.9022 18.022 11.905H16.777V10.6735H19.3802C19.4535 10.6762 19.5265 10.6641 19.595 10.6379C19.6635 10.6118 19.726 10.5721 19.7788 10.5212C19.8316 10.4704 19.8735 10.4094 19.9022 10.3419C19.9309 10.2744 19.9457 10.2019 19.9457 10.1286C19.9457 10.0553 19.9309 9.98273 19.9022 9.91527C19.8735 9.84781 19.8316 9.78682 19.7788 9.73596C19.726 9.68509 19.6635 9.64539 19.595 9.61924C19.5265 9.59308 19.4535 9.581 19.3802 9.58371H16.7665C16.7136 9.00024 16.4691 8.45067 16.071 8.02083C15.6729 7.59099 15.1437 7.30507 14.566 7.20771V5.89597C14.5687 5.82271 14.5566 5.74966 14.5304 5.68118C14.5043 5.6127 14.4646 5.5502 14.4137 5.49741C14.3629 5.44463 14.3019 5.40264 14.2344 5.37396C14.1669 5.34528 14.0944 5.3305 14.0211 5.3305C13.9478 5.3305 13.8752 5.34528 13.8078 5.37396C13.7403 5.40264 13.6793 5.44463 13.6285 5.49741C13.5776 5.5502 13.5379 5.6127 13.5117 5.68118C13.4856 5.74966 13.4735 5.82271 13.4762 5.89597V7.17096H12.2447V4.30521C12.2474 4.23196 12.2354 4.15891 12.2092 4.09043C12.183 4.02195 12.1433 3.95945 12.0925 3.90666C12.0416 3.85388 11.9806 3.81189 11.9132 3.78321C11.8457 3.75453 11.7731 3.73975 11.6998 3.73975C11.6265 3.73975 11.554 3.75453 11.4865 3.78321C11.4191 3.81189 11.3581 3.85388 11.3072 3.90666C11.2563 3.95945 11.2166 4.02195 11.1905 4.09043C11.1643 4.15891 11.1522 4.23196 11.155 4.30521V7.17022H9.92271V5.89522C9.91748 5.7542 9.85779 5.62071 9.75617 5.5228C9.65456 5.42489 9.51895 5.37018 9.37784 5.37018C9.23673 5.37018 9.10112 5.42489 8.99951 5.5228C8.89789 5.62071 8.8382 5.7542 8.83296 5.89522V7.20771C8.25524 7.30507 7.72602 7.59099 7.32793 8.02083C6.92984 8.45067 6.68529 9.00024 6.63246 9.58371H3.55521C3.48196 9.581 3.40891 9.59308 3.34043 9.61924C3.27195 9.64539 3.20945 9.68509 3.15666 9.73596C3.10387 9.78682 3.06189 9.84781 3.03321 9.91527C3.00453 9.98273 2.98975 10.0553 2.98975 10.1286C2.98975 10.2019 3.00453 10.2744 3.03321 10.3419C3.06189 10.4094 3.10387 10.4704 3.15666 10.5212C3.20945 10.5721 3.27195 10.6118 3.34043 10.6379C3.40891 10.6641 3.48196 10.6762 3.55521 10.6735H6.62271V11.905H5.37771C5.30446 11.9022 5.23141 11.9143 5.16293 11.9405C5.09445 11.9666 5.03195 12.0063 4.97916 12.0572C4.92638 12.1081 4.88439 12.1691 4.85571 12.2365C4.82703 12.304 4.81225 12.3765 4.81225 12.4498C4.81225 12.5231 4.82703 12.5957 4.85571 12.6632C4.88439 12.7306 4.92638 12.7916 4.97916 12.8425C5.03195 12.8933 5.09445 12.933 5.16293 12.9592C5.23141 12.9854 5.30446 12.9974 5.37771 12.9947H6.62271V14.2262H4.25046C4.17721 14.2235 4.10416 14.2356 4.03568 14.2617C3.9672 14.2879 3.9047 14.3276 3.85191 14.3785C3.79913 14.4293 3.75714 14.4903 3.72846 14.5578C3.69978 14.6252 3.685 14.6978 3.685 14.7711C3.685 14.8444 3.69978 14.9169 3.72846 14.9844C3.75714 15.0519 3.79913 15.1129 3.85191 15.1637C3.9047 15.2146 3.9672 15.2543 4.03568 15.2804C4.10416 15.3066 4.17721 15.3187 4.25046 15.316H6.63246C6.68529 15.8994 6.92984 16.449 7.32793 16.8788C7.72602 17.3087 8.25524 17.5946 8.83296 17.692V18.5395C8.83025 18.6127 8.84233 18.6858 8.86849 18.7542C8.89464 18.8227 8.93434 18.8852 8.98521 18.938C9.03607 18.9908 9.09706 19.0328 9.16452 19.0615C9.23198 19.0902 9.30453 19.1049 9.37784 19.1049C9.45114 19.1049 9.5237 19.0902 9.59116 19.0615C9.65862 19.0328 9.71961 18.9908 9.77047 18.938C9.82134 18.8852 9.86104 18.8227 9.88719 18.7542C9.91335 18.6858 9.92543 18.6127 9.92271 18.5395V17.7287H11.1542V20.197C11.1594 20.338 11.2191 20.4715 11.3208 20.5694C11.4224 20.6673 11.558 20.722 11.6991 20.722C11.8402 20.722 11.9758 20.6673 12.0774 20.5694C12.179 20.4715 12.2387 20.338 12.244 20.197V17.7287H13.4755V19.0037C13.4727 19.077 13.4848 19.15 13.511 19.2185C13.5371 19.287 13.5768 19.3495 13.6277 19.4023C13.6786 19.4551 13.7396 19.497 13.807 19.5257C13.8745 19.5544 13.947 19.5692 14.0203 19.5692C14.0936 19.5692 14.1662 19.5544 14.2337 19.5257C14.3011 19.497 14.3621 19.4551 14.413 19.4023C14.4638 19.3495 14.5035 19.287 14.5297 19.2185C14.5559 19.15 14.5679 19.077 14.5652 19.0037V17.6927C15.1429 17.5954 15.6722 17.3094 16.0702 16.8796C16.4683 16.4498 16.7129 15.9002 16.7657 15.3167H20.374C20.4472 15.3194 20.5203 15.3074 20.5887 15.2812C20.6572 15.255 20.7197 15.2153 20.7725 15.1645C20.8253 15.1136 20.8673 15.0526 20.896 14.9852C20.9247 14.9177 20.9394 14.8451 20.9394 14.7718C20.9394 14.6985 20.9247 14.626 20.896 14.5585C20.8673 14.4911 20.8253 14.4301 20.7725 14.3792C20.7197 14.3283 20.6572 14.2886 20.5887 14.2625C20.5203 14.2363 20.4472 14.2242 20.374 14.227H16.7777V12.9955H18.022V12.9947ZM15.907 15.0812C15.9066 15.5525 15.7192 16.0044 15.3859 16.3377C15.0526 16.6709 14.6008 16.8583 14.1295 16.8587H9.26946C8.79816 16.8583 8.34628 16.6709 8.01302 16.3377C7.67976 16.0044 7.49236 15.5525 7.49196 15.0812V9.81771C7.49236 9.34641 7.67976 8.89453 8.01302 8.56127C8.34628 8.22801 8.79816 8.04061 9.26946 8.04022H14.1295C14.6008 8.04061 15.0526 8.22801 15.3859 8.56127C15.7192 8.89453 15.9066 9.34641 15.907 9.81771V15.0805V15.0812Z" fill="white"/>
<path d="M10.4261 9.32649C10.2157 9.32311 10.0051 9.33037 9.79539 9.34824C9.46389 9.38574 9.22014 9.68574 9.20964 10.0112C9.19314 10.7492 9.20664 11.4887 9.20214 12.2267C9.21264 12.6032 9.17664 12.9842 9.23214 13.357C9.28539 13.69 9.61089 13.9045 9.93414 13.9037C10.9391 13.9105 11.9441 13.906 12.9491 13.9067V14.323H9.71289L9.29664 15.5717H12.5171C12.8936 15.5612 13.2739 15.5972 13.6474 15.5425C13.9804 15.4892 14.1941 15.1637 14.1934 14.8405C14.2009 13.5257 14.1949 12.211 14.1971 10.8955C14.1851 10.543 14.2279 10.1837 14.1566 9.83574C14.0809 9.48099 13.7006 9.30624 13.3646 9.32799H11.0576C10.8476 9.33174 10.6361 9.32724 10.4254 9.32574L10.4261 9.32649ZM10.4509 10.5767H12.9484V12.658H10.4509V10.5767Z" fill="white"/>
</svg>
