<svg width="24" height="24" viewBox="0 0 24 24" fill="none" xmlns="http://www.w3.org/2000/svg">
<path fill-rule="evenodd" clip-rule="evenodd" d="M1.99113 6.04199C2.02824 6.07507 2.05867 6.10014 2.08688 6.12748C2.38811 6.41847 2.68675 6.71208 2.99183 6.99937C3.06024 7.06372 3.06061 7.1079 3.01162 7.18193C2.3724 8.14575 2.13995 9.20175 2.35323 10.321C2.63913 11.8224 3.51562 12.9164 4.94758 13.5757C5.79339 13.965 6.69055 14.0649 7.61282 13.9287C8.23261 13.8371 8.81306 13.629 9.3428 13.3016C9.43063 13.2472 9.47875 13.2535 9.55038 13.3237C10.3288 14.0863 11.112 14.8443 11.8895 15.6076C11.9754 15.692 12.0198 15.7016 12.1122 15.6117C13.0011 14.746 13.8971 13.887 14.786 13.0213C14.8837 12.9261 14.9449 12.9097 15.0731 12.9841C15.8504 13.4355 16.6973 13.6166 17.6028 13.5757C19.4002 13.4946 21.0417 12.2824 21.5986 10.6181C22.0204 9.35757 21.8639 8.16163 21.1766 7.02408C21.1317 6.94981 21.1277 6.90384 21.1966 6.83972C21.4471 6.60689 21.6905 6.36725 21.9371 6.13047C21.9601 6.1085 21.9857 6.08916 22.0106 6.06814C24.6443 9.80414 25.0157 15.8142 20.7783 20.2394C16.3896 24.8226 9.14708 25.1794 4.31133 21.2453C-0.599513 17.25 -1.18343 10.6906 1.99113 6.04199Z" fill="#00A6C4"/>
<path fill-rule="evenodd" clip-rule="evenodd" d="M20.2419 4.55976C15.529 -0.0913476 7.86615 0.303041 3.77749 4.37409C3.80125 4.4 3.82438 4.42746 3.85011 4.45229C6.55122 7.06495 9.25283 9.67713 11.9523 12.2915C12.0283 12.365 12.0713 12.3561 12.1407 12.2881C12.4894 11.9467 12.8416 11.6088 13.1939 11.271C15.4718 9.08644 17.7499 6.90197 20.0293 4.7188C20.0904 4.66017 20.1662 4.61576 20.2419 4.55976ZM12.0405 13.941C8.74562 10.7495 5.45947 7.56656 2.16504 4.37552C2.18879 4.34495 2.20784 4.31582 2.23147 4.29062C3.41984 3.01791 4.7991 1.98961 6.40908 1.25791C7.2878 0.858503 8.20104 0.557488 9.15114 0.359996C10.2452 0.132652 11.3513 0.0402345 12.4687 0.0887121C14.0981 0.15916 15.6572 0.519279 17.1473 1.16107C18.9391 1.93265 20.4517 3.06077 21.7354 4.48525C21.8097 4.56764 21.767 4.60453 21.7098 4.65934C20.113 6.19164 18.5168 7.72453 16.921 9.25779C15.3285 10.7877 13.7365 12.3181 12.144 13.8481C12.1151 13.8758 12.0842 13.9018 12.0405 13.941Z" fill="#00A6C4"/>
<path fill-rule="evenodd" clip-rule="evenodd" d="M7.79475 11.7038C7.12584 12.2947 5.63895 12.4314 4.6547 11.4823C3.66712 10.5302 3.80233 9.12183 4.45083 8.38965C5.56708 9.49592 6.68171 10.6006 7.79475 11.7038Z" fill="#00A6C4"/>
<path fill-rule="evenodd" clip-rule="evenodd" d="M16.4443 11.4755C17.5642 10.3917 18.6789 9.31306 19.7935 8.23438C20.2645 8.74339 20.4833 10.0429 19.6675 11.0007C18.7603 12.0658 17.2637 12.0597 16.4443 11.4755Z" fill="#00A6C4"/>
</svg>
