<svg width="24" height="24" viewBox="0 0 24 24" fill="none" xmlns="http://www.w3.org/2000/svg">
<path d="M12 24C18.6274 24 24 18.6274 24 12C24 5.37258 18.6274 0 12 0C5.37258 0 0 5.37258 0 12C0 18.6274 5.37258 24 12 24Z" fill="#001D57"/>
<path d="M15.3743 3.96582L16.2765 4.86882L14.5688 6.62382C14.9288 7.17132 15.1223 7.81707 15.1223 8.48307C15.1284 9.35936 14.7895 10.2029 14.1788 10.8313C13.7329 11.3023 13.152 11.6236 12.516 11.7508V13.2801C13.1489 13.4108 13.7274 13.7297 14.1758 14.1951C14.7883 14.8241 15.1284 15.6691 15.1223 16.5471C15.1282 17.4248 14.7881 18.2695 14.1758 18.8983C13.8773 19.2075 13.5196 19.4533 13.124 19.6211C12.7284 19.7889 12.303 19.8752 11.8733 19.8748C11.4434 19.8761 11.0178 19.7903 10.622 19.6224C10.2263 19.4546 9.86865 19.2083 9.57079 18.8983C8.96031 18.2683 8.62082 17.4243 8.62504 16.5471C8.62504 15.6621 8.96104 14.8228 9.56854 14.1981C10.0145 13.7273 10.5954 13.4064 11.2313 13.2793V11.7493C10.5985 11.6186 10.0199 11.2996 9.57154 10.8343C8.9606 10.2043 8.62082 9.35993 8.62504 8.48232C8.62504 7.59732 8.96104 6.75807 9.57154 6.13107C9.86992 5.82176 10.2276 5.57579 10.6232 5.40788C11.0188 5.23997 11.4443 5.15356 11.874 5.15382C12.519 5.15382 13.1393 5.35032 13.6703 5.71557L15.375 3.96582H15.3743ZM11.874 14.5086C11.6137 14.5065 11.3556 14.558 11.116 14.6599C10.8764 14.7619 10.6604 14.912 10.4813 15.1011C10.106 15.4885 9.8973 16.0076 9.90004 16.5471C9.90004 17.0908 10.1063 17.5986 10.4813 17.9923C10.6617 18.1796 10.878 18.3286 11.1173 18.4304C11.3566 18.5322 11.614 18.5847 11.874 18.5848C12.1343 18.5868 12.3922 18.5352 12.6316 18.4333C12.8711 18.3314 13.0871 18.1813 13.266 17.9923C13.6412 17.605 13.8498 17.0863 13.8473 16.5471C13.8473 16.0033 13.641 15.4956 13.2638 15.0988C13.0849 14.9105 12.8693 14.7609 12.6302 14.6593C12.3912 14.5578 12.1338 14.5065 11.874 14.5086ZM13.2638 9.94107C13.6403 9.55326 13.8498 9.03332 13.8473 8.49282C13.8507 8.22535 13.8011 7.95985 13.7013 7.71166C13.6016 7.46347 13.4536 7.23751 13.266 7.04682C13.0858 6.85956 12.8696 6.71058 12.6304 6.60877C12.3912 6.50697 12.134 6.45444 11.874 6.45432C11.6137 6.45223 11.3556 6.50376 11.116 6.60569C10.8764 6.70763 10.6604 6.85778 10.4813 7.04682C10.106 7.4343 9.8973 7.95337 9.90004 8.49282C9.90004 9.03657 10.1063 9.54432 10.4813 9.93807C10.6617 10.1254 10.878 10.2743 11.1173 10.3761C11.3566 10.4779 11.614 10.5305 11.874 10.5306C12.4073 10.5306 12.8993 10.3236 13.2638 9.94107Z" fill="white"/>
</svg>
