<svg width="24" height="24" viewBox="0 0 24 24" fill="none" xmlns="http://www.w3.org/2000/svg">
<path d="M10.8191 9.2039C12.5946 8.4546 13.7447 6.71055 13.7343 4.7835C13.7507 2.14762 11.6278 0 9.03459 0C6.42622 0 4.3068 2.14762 4.3068 4.7835C4.30509 6.15925 4.89411 7.46952 5.92422 8.38143L3.44238 10.0401C3.44238 10.0401 8.42049 10.4734 10.8191 9.2039Z" fill="url(#paint0_linear)"/>
<path d="M20.9029 14.4338C18.5325 13.5831 15.2268 15.2287 15.2268 15.2287C15.2268 15.2287 17.7788 11.8116 17.7231 6.76338C17.6956 3.06779 16.3849 1.86848 15.3802 0.976562C15.4643 1.4834 15.5064 1.99632 15.506 2.51009C15.506 7.86504 12.1873 11.463 6.8461 11.463C4.62833 11.463 2.5928 11.4492 0.960938 10.208C0.989132 10.2919 1.22569 11.3083 2.174 12.3693C2.66809 12.9169 3.25323 13.3748 3.90352 13.7227C6.30214 15.019 8.14306 15.173 8.32392 15.1868C8.33836 15.2005 8.33836 15.2287 8.35211 15.2425C8.35211 17.9058 6.483 21.7128 3.83337 21.7128C3.43985 21.7096 3.04785 21.6635 2.66432 21.5753C2.05742 21.4578 1.48469 21.2054 0.988445 20.8367C0.988445 20.8367 1.35085 23.6115 4.33538 23.8907C7.61217 24.1974 9.11819 23.4864 12.3675 21.5058C15.8403 19.3864 18.4754 17.1411 20.4979 17.6989C22.0321 18.117 22.2859 20.5575 22.2859 20.5575C22.2859 20.5575 22.7459 19.5948 22.8855 18.7448C23.0217 17.8501 23.2727 15.2844 20.9029 14.4338Z" fill="url(#paint1_linear)"/>
<path d="M8.92301 1.54802C9.87767 1.54906 10.7843 1.96672 11.4055 2.69163L11.7817 2.37048C10.5221 0.908569 8.36266 0.632115 6.77539 1.72957L7.05459 2.13186C7.60392 1.75257 8.25546 1.54897 8.92301 1.54802Z" fill="white"/>
<defs>
<linearGradient id="paint0_linear" x1="3.44238" y1="5.05582" x2="13.7343" y2="5.05582" gradientUnits="userSpaceOnUse">
<stop stop-color="#FF3F3F"/>
<stop offset="1" stop-color="#EB0000"/>
</linearGradient>
<linearGradient id="paint1_linear" x1="0.96025" y1="12.4663" x2="22.966" y2="12.4663" gradientUnits="userSpaceOnUse">
<stop stop-color="#2482C5"/>
<stop offset="1" stop-color="#285FAC"/>
</linearGradient>
</defs>
</svg>
