<svg width="24" height="24" viewBox="0 0 24 24" fill="none" xmlns="http://www.w3.org/2000/svg">
<path d="M12 24C18.6274 24 24 18.6274 24 12C24 5.37258 18.6274 0 12 0C5.37258 0 0 5.37258 0 12C0 18.6274 5.37258 24 12 24Z" fill="black"/>
<path d="M11.9752 22.7184C17.8947 22.7184 22.6935 17.9196 22.6935 12.0001C22.6935 6.0805 17.8947 1.28174 11.9752 1.28174C6.05559 1.28174 1.25684 6.0805 1.25684 12.0001C1.25684 17.9196 6.05559 22.7184 11.9752 22.7184Z" fill="#FEF102"/>
<path d="M17.0512 7.97925C16.7998 7.40124 16.5611 6.27035 15.9077 6.01904C15.0658 5.69234 14.5381 7.8159 14.4124 8.35622H14.2868C14.0731 7.43894 13.7841 6.13213 12.7789 5.84313C12.314 7.80334 13.269 9.9269 14.1611 11.6232C15.1161 11.1709 15.581 9.73842 15.669 8.73318H15.7946L16.7998 11.7489C17.604 11.5227 17.893 10.7185 18.182 9.98973C18.8103 8.43161 19.3381 6.5091 18.936 4.83789C17.7297 5.17716 17.3653 6.91119 17.0512 7.97925ZM4.98833 12.0002C6.06896 11.485 6.58414 9.85151 6.74749 8.73318H6.87315C6.9988 9.27349 7.33807 10.6683 8.0166 10.7562C8.87105 10.8693 9.32341 8.95936 9.38624 8.35622H9.51189C9.78833 9.29863 10.0773 10.53 11.0197 10.995C11.3716 9.5248 10.9569 7.96669 10.4166 6.59705C10.2784 6.24522 10.0019 5.29025 9.51189 5.29025C8.72027 5.29025 8.26791 7.38868 8.12969 7.97925H8.00404L6.9988 4.96355C5.22708 5.80543 4.2721 10.3039 4.98833 12.0002ZM3.10352 13.5081C4.41032 19.2379 10.4669 22.4798 15.9203 20.0547C17.9056 19.1751 19.4763 17.6044 20.381 15.6442C20.6197 15.1416 21.0721 14.2117 20.8082 13.5457C20.5444 12.8798 17.9433 13.973 17.3025 14.2494C17.2145 14.2871 17.1517 14.3751 17.1266 14.4756C17.0889 14.752 17.2773 15.0159 17.5538 15.0536C17.5663 15.0536 17.5789 15.0536 17.5915 15.0536L18.6847 15.1416C16.7119 18.9615 11.3841 20.6452 7.62708 17.5918C6.78519 16.9133 6.03126 16.1091 5.52865 15.1416C5.2899 14.6766 5.06372 14.0861 4.64907 13.7594C4.24697 13.4578 3.64383 13.3573 3.10352 13.5081Z" fill="black"/>
</svg>
