<svg width="24" height="24" viewBox="0 0 24 24" fill="none" xmlns="http://www.w3.org/2000/svg">
<path d="M12 24C18.6274 24 24 18.6274 24 12C24 5.37258 18.6274 0 12 0C5.37258 0 0 5.37258 0 12C0 18.6274 5.37258 24 12 24Z" fill="#7F27FF"/>
<path d="M11.5995 10.4004H6.39951V15.6004C6.39424 16.1324 6.60326 16.6442 6.97948 17.0204C7.3557 17.3966 7.86748 17.6057 8.39951 17.6004H11.5995V10.4004ZM12.3995 10.4004H17.5995V15.6004C17.6048 16.1324 17.3958 16.6442 17.0195 17.0204C16.6433 17.3966 16.1315 17.6057 15.5995 17.6004H12.3995V10.4004Z" fill="white"/>
<path d="M12.3997 9.60018H17.4416C17.9997 9.60018 18.4016 9.12018 18.4016 8.64018C18.4016 8.08204 17.9215 7.68018 17.4416 7.68018H6.63969C6.08155 7.68018 5.67969 8.16018 5.67969 8.64018C5.67969 9.19832 6.15969 9.60018 6.63969 9.60018H11.5997V8.32018H12.3997" fill="white"/>
<path d="M12.7324 8.23095C13.8524 6.23095 14.7324 5.59095 15.3724 6.23095C16.0124 6.87095 15.6124 7.51095 14.2524 8.23095" stroke="white"/>
<path d="M11.6165 8.23095C10.4965 6.23095 9.61647 5.59095 8.97647 6.23095C8.33647 6.87095 8.73647 7.51095 10.0965 8.23095" stroke="white"/>
</svg>
