<svg width="24" height="24" viewBox="0 0 24 24" fill="none" xmlns="http://www.w3.org/2000/svg">
<g clip-path="url(#clip0)">
<path d="M5.64118 21.594L4.01618 18.7793C3.99101 18.728 3.97793 18.6716 3.97793 18.6145C3.97793 18.5573 3.99101 18.501 4.01618 18.4496L5.82056 15.3251C5.85229 15.2769 5.89483 15.2367 5.9448 15.2078C5.99476 15.1789 6.05078 15.162 6.10841 15.1585H9.71645C9.77417 15.162 9.83029 15.1789 9.88037 15.2078C9.93045 15.2367 9.97312 15.2769 10.005 15.3251L11.8094 18.4496C11.8349 18.5015 11.8482 18.5585 11.8482 18.6163C11.8482 18.674 11.8349 18.731 11.8094 18.7829L10.005 21.9074C9.97328 21.9546 9.93129 21.994 9.88219 22.0228C9.83308 22.0515 9.77813 22.0688 9.72142 22.0733H6.47779C6.31099 22.0626 6.14886 22.0139 6.00384 21.9308C5.85881 21.8477 5.73475 21.7325 5.64118 21.594ZM17.3586 15.1642L13.7641 8.94068C13.7204 8.87487 13.6621 8.82008 13.5937 8.78059C13.5253 8.7411 13.4487 8.718 13.3699 8.7131H6.18072C6.1019 8.718 6.02529 8.7411 5.95689 8.78059C5.8885 8.82008 5.83019 8.87487 5.78652 8.94068L2.19195 15.167C2.15663 15.2377 2.13824 15.3156 2.13824 15.3946C2.13824 15.4736 2.15663 15.5515 2.19195 15.6222L3.24551 17.4486L5.08888 14.2581C5.13883 14.1814 5.20613 14.1176 5.28533 14.0718C5.36453 14.026 5.4534 13.9994 5.54476 13.9944H10.2808C10.3722 13.9994 10.461 14.026 10.5402 14.0718C10.6194 14.1176 10.6867 14.1814 10.7367 14.2581L13.1054 18.3603C13.1467 18.442 13.1682 18.5322 13.1682 18.6237C13.1682 18.7152 13.1467 18.8054 13.1054 18.8871L11.262 22.0775H13.3677C13.4467 22.0727 13.5234 22.0495 13.5918 22.0099C13.6602 21.9703 13.7184 21.9153 13.7619 21.8493L17.3565 15.6236C17.3929 15.5526 17.412 15.474 17.4124 15.3942C17.4127 15.3143 17.3943 15.2356 17.3586 15.1642ZM23.8813 11.0457L18.3675 1.49133C18.2741 1.34854 18.1484 1.22968 18.0007 1.14434C17.8529 1.059 17.6871 1.00956 17.5168 1L6.48417 1C6.31379 1.00956 6.14804 1.059 6.00026 1.14434C5.85249 1.22968 5.72682 1.34854 5.63338 1.49133L0.117446 11.0457C0.04055 11.1979 0.000488281 11.3661 0.000488281 11.5366C0.000488281 11.7072 0.04055 11.8754 0.117446 12.0276L1.38157 14.217L5.04705 7.86727C5.10879 7.77274 5.19193 7.69409 5.28973 7.63767C5.38753 7.58126 5.49725 7.54867 5.60999 7.54255H13.9342C14.047 7.54867 14.1567 7.58126 14.2545 7.63767C14.3523 7.69409 14.4354 7.77274 14.4972 7.86727L18.6596 15.077C18.7107 15.1776 18.7372 15.2889 18.7372 15.4017C18.7372 15.5145 18.7107 15.6258 18.6596 15.7264L14.9949 22.0733H17.5168C17.6871 22.0637 17.8529 22.0143 18.0007 21.9289C18.1484 21.8436 18.2741 21.7248 18.3675 21.582L23.8835 12.0276C23.9604 11.8754 24.0004 11.7072 24.0004 11.5366C24.0004 11.3661 23.9604 11.1979 23.8835 11.0457H23.8813Z" fill="url(#paint0_linear)"/>
</g>
<defs>
<linearGradient id="paint0_linear" x1="6.00064" y1="21.9287" x2="18.001" y2="1.14463" gradientUnits="userSpaceOnUse">
<stop stop-color="#FFDC00"/>
<stop offset="0.33" stop-color="#E58E2F"/>
<stop offset="0.67" stop-color="#DB2D72"/>
<stop offset="1" stop-color="#FF00FF"/>
</linearGradient>
<clipPath id="clip0">
<rect width="24" height="24" fill="white"/>
</clipPath>
</defs>
</svg>
