<svg width="24" height="24" viewBox="0 0 24 24" fill="none" xmlns="http://www.w3.org/2000/svg">
<path d="M12 24C18.6274 24 24 18.6274 24 12C24 5.37258 18.6274 0 12 0C5.37258 0 0 5.37258 0 12C0 18.6274 5.37258 24 12 24Z" fill="#1591CA"/>
<path d="M12.4287 11.4538C12.4287 11.4538 13.4239 9.24127 11.4724 7.10377C11.4724 7.10377 10.3624 5.67877 8.06742 5.79127L8.52567 5.61127C8.60217 5.58127 8.68242 5.56027 8.76342 5.54977L9.21492 5.49127L12.3904 5.00377C12.3904 5.00377 13.5132 4.78327 14.3644 5.02627C14.6067 5.09602 14.8272 5.22727 15.0019 5.40577C15.4714 5.88127 16.4142 7.13902 15.7969 9.12877C15.7969 9.12877 15.1842 11.3413 12.8884 11.8663C12.8884 11.8663 12.3139 12.0163 12.4287 11.4538ZM12.2869 12.6868C12.2869 12.6868 13.7217 14.654 16.5934 14.0998C16.5934 14.0998 18.4099 13.8905 19.4817 11.897L19.4052 12.3763C19.3924 12.4558 19.3699 12.5338 19.3377 12.608L19.1592 13.0183L17.9682 15.9433C17.9682 15.9433 17.5894 17.0015 16.9422 17.5955C16.7564 17.7648 16.5301 17.8833 16.2852 17.9398C15.6289 18.092 14.0442 18.2458 12.6117 16.7113C12.6117 16.7113 10.9819 15.0673 11.6914 12.8638C11.6914 12.8623 11.8519 12.3035 12.2869 12.6868ZM11.2482 11.9765C11.2482 11.9765 8.79567 12.2345 7.87692 14.9578C7.87692 14.9578 7.16892 16.6108 8.41242 18.5053L8.02467 18.2053C7.96022 18.1554 7.90227 18.0978 7.85217 18.0335L7.57467 17.6795L5.56167 15.2248C5.56167 15.2248 4.80642 14.3795 4.59867 13.5373C4.53867 13.2958 4.54467 13.0423 4.61517 12.8038C4.80192 12.1685 5.44467 10.7413 7.51242 10.2748C7.51242 10.2748 9.77517 9.69202 11.3839 11.3818C11.3854 11.3818 11.8039 11.7943 11.2489 11.9765H11.2482Z" fill="white"/>
<path opacity="0.5" d="M12.8295 12.119C12.8295 12.119 15.2745 11.801 16.122 9.05522C16.122 9.05522 16.7873 7.38497 15.4943 5.52197L15.8903 5.81222C15.9555 5.86097 16.0155 5.91722 16.0673 5.97947L16.353 6.32597L18.4305 8.73047C18.4305 8.73047 19.206 9.55547 19.437 10.394C19.5023 10.634 19.5023 10.886 19.437 11.126C19.2668 11.7657 18.6615 13.2095 16.6058 13.727C16.6058 13.727 14.3588 14.3645 12.7073 12.7175C12.7088 12.7175 12.2798 12.3155 12.8295 12.119ZM11.601 12.572C11.601 12.572 10.5503 14.759 12.4462 16.9437C12.4462 16.9437 13.518 18.395 15.8175 18.3387L15.354 18.5075C15.2768 18.5354 15.1964 18.5537 15.1148 18.5622L14.6625 18.6102L11.475 19.0197C11.475 19.0197 10.3478 19.2125 9.5025 18.9485C9.26279 18.8728 9.0466 18.7367 8.87475 18.5532C8.41725 18.0657 7.5075 16.7862 8.17575 14.813C8.17575 14.813 8.84325 12.6155 11.1525 12.1475C11.1525 12.1497 11.7323 12.0125 11.601 12.572ZM11.6828 11.4192C11.6828 11.4192 10.2188 9.47222 7.356 10.0692C7.356 10.0692 5.5425 10.3032 4.5 12.3117L4.569 11.831C4.58079 11.7511 4.60246 11.673 4.6335 11.5985L4.806 11.186L5.9535 8.24297C5.9535 8.24297 6.31725 7.17947 6.9555 6.57647C7.13961 6.40491 7.36487 6.28375 7.6095 6.22472C8.2635 6.06197 9.846 5.88722 11.2995 7.40147C11.2995 7.40147 12.9533 9.02222 12.276 11.2355C12.276 11.234 12.123 11.7965 11.6828 11.4192Z" fill="white"/>
</svg>
