<svg width="24" height="24" viewBox="0 0 24 24" fill="none" xmlns="http://www.w3.org/2000/svg">
<g clip-path="url(#clip0)">
<path d="M14.2073 7.38186C14.2073 3.93816 12.5473 0.971268 11.2757 -3.45791e-05C11.2757 -3.45791e-05 11.1874 -0.0530147 11.1874 0.0882656C11.0815 6.7461 7.70841 8.56509 5.83644 10.9845C1.54505 16.6004 5.53622 22.7461 9.59803 23.8763C11.8762 24.5121 9.06823 22.7461 8.71503 19.0375C8.29119 14.5342 14.2073 11.1081 14.2073 7.38186Z" fill="#282E5B"/>
<path d="M16.4327 9.66022C16.4151 9.64256 16.3798 9.64256 16.3444 9.66022C16.3444 9.66022 16.3444 9.66022 16.3268 9.67788C16.2561 10.5079 15.3378 12.3092 14.1899 13.9516C10.287 19.5322 12.5122 22.2165 13.7661 23.6646C14.4901 24.5123 13.7661 23.6646 15.5851 22.7993C15.7263 22.7287 19.1171 20.9273 19.4879 16.8479C19.8588 12.8743 17.3334 10.3843 16.4327 9.66022Z" fill="#059BDC"/>
</g>
<defs>
<clipPath id="clip0">
<rect width="24" height="24" fill="white"/>
</clipPath>
</defs>
</svg>
