<svg width="24" height="24" viewBox="0 0 24 24" fill="none" xmlns="http://www.w3.org/2000/svg">
<g clip-path="url(#clip0)">
<path d="M11.9999 23.6723C18.4464 23.6723 23.6723 18.4464 23.6723 11.9999C23.6723 5.55351 18.4464 0.327637 11.9999 0.327637C5.55351 0.327637 0.327637 5.55351 0.327637 11.9999C0.327637 18.4464 5.55351 23.6723 11.9999 23.6723Z" fill="white"/>
<path d="M12 -0.000448215C14.3734 -0.000448215 16.6935 0.70334 18.6668 2.02192C20.6402 3.3405 22.1783 5.21464 23.0866 7.40735C23.9948 9.60007 24.2324 12.0129 23.7694 14.3406C23.3064 16.6684 22.1635 18.8066 20.4853 20.4848C18.8071 22.1631 16.6689 23.306 14.3411 23.769C12.0133 24.232 9.60051 23.9944 7.4078 23.0861C5.21509 22.1779 3.34094 20.6398 2.02236 18.6664C0.703788 16.693 0 14.3729 0 11.9996L0 11.8719C0.0646154 5.32878 5.41231 -0.0173713 12 -0.000448215ZM12.2554 0.870321C5.88308 0.87186 0.904615 5.84571 0.878462 11.9303C0.850769 18.0749 5.84615 23.1303 12 23.1088C15.0477 23.098 17.68 22.0196 19.8338 19.8703C22.2846 17.4257 23.3585 14.4273 23.0785 10.9934C22.8824 8.39892 21.7436 5.96589 19.8769 4.1534C17.7062 1.99955 15.0662 0.910321 12.2523 0.870321H12.2554Z" fill="#333333"/>
<path d="M22.7816 10.8213C22.5519 8.37371 21.4617 6.08688 19.7046 4.36746C17.58 2.23515 14.9908 1.15208 11.9723 1.14746C9.13982 1.20482 6.44211 2.36789 4.45583 4.38806C2.46955 6.40823 1.35228 9.12523 1.34283 11.9583C1.33339 14.7914 2.43252 17.5158 4.40529 19.5491C6.37806 21.5825 9.06796 22.7635 11.9 22.8398C14.9062 22.8613 17.5139 21.809 19.6369 19.6828C22.0754 17.2428 23.1277 14.2628 22.7816 10.8213ZM16.6846 3.55823C16.75 3.55946 16.8136 3.58005 16.8673 3.61741C16.921 3.65476 16.9624 3.7072 16.9863 3.76809C17.0102 3.82899 17.0155 3.8956 17.0016 3.95951C16.9876 4.02342 16.955 4.08175 16.9079 4.12714C16.8608 4.17253 16.8013 4.20293 16.7369 4.2145C16.6725 4.22607 16.6062 4.21828 16.5462 4.19214C16.4863 4.16599 16.4354 4.12265 16.4001 4.0676C16.3647 4.01254 16.3465 3.94825 16.3477 3.88285C16.3497 3.79525 16.3863 3.71199 16.4494 3.6512C16.5125 3.5904 16.597 3.55699 16.6846 3.55823ZM15.2 2.86746C15.2899 2.86787 15.376 2.90387 15.4394 2.96759C15.5029 3.03131 15.5385 3.11755 15.5385 3.20746C15.5373 3.2507 15.5276 3.29328 15.5099 3.33277C15.4923 3.37226 15.467 3.40788 15.4356 3.4376C15.4041 3.46732 15.3672 3.49055 15.3267 3.50597C15.2863 3.52139 15.2433 3.52869 15.2 3.52746C15.158 3.52807 15.1163 3.5204 15.0772 3.50488C15.0382 3.48936 15.0025 3.4663 14.9724 3.43701C14.9422 3.40772 14.9182 3.37278 14.9015 3.33419C14.8849 3.29559 14.876 3.2541 14.8754 3.21208V3.19669C14.8762 3.11041 14.9105 3.02781 14.9711 2.96637C15.0317 2.90492 15.1138 2.86945 15.2 2.86746ZM13.6369 2.44285C13.7218 2.45089 13.8014 2.48757 13.8626 2.54684C13.9238 2.60612 13.9631 2.68446 13.9739 2.769C13.9679 2.86068 13.9269 2.94654 13.8593 3.00873C13.7916 3.07091 13.7026 3.10462 13.6108 3.10285C13.5245 3.09965 13.4429 3.06302 13.3832 3.00072C13.3235 2.93841 13.2903 2.85531 13.2908 2.769C13.2948 2.68031 13.3332 2.59665 13.3978 2.53577C13.4624 2.47489 13.5482 2.44156 13.6369 2.44285ZM12 2.30746C12.0651 2.30716 12.1288 2.32613 12.183 2.36199C12.2373 2.39785 12.2797 2.44898 12.305 2.50893C12.3302 2.56888 12.3371 2.63497 12.3249 2.69885C12.3126 2.76273 12.2816 2.82154 12.236 2.86786C12.1903 2.91417 12.1319 2.94592 12.0682 2.9591C12.0045 2.97227 11.9383 2.96628 11.878 2.94188C11.8177 2.91748 11.766 2.87576 11.7294 2.82199C11.6928 2.76822 11.6729 2.70482 11.6723 2.63977C11.6723 2.55243 11.7067 2.4686 11.768 2.40641C11.8293 2.34422 11.9127 2.30867 12 2.30746ZM10.3831 2.44438C10.4678 2.44883 10.5478 2.48446 10.6077 2.5444C10.6676 2.60434 10.7033 2.68435 10.7077 2.769C10.7077 2.81236 10.6992 2.8553 10.6825 2.89535C10.6659 2.93539 10.6415 2.97175 10.6107 3.00235C10.58 3.03294 10.5435 3.05716 10.5034 3.07361C10.4633 3.09007 10.4203 3.09843 10.3769 3.09823H10.3646C10.3218 3.09783 10.2795 3.08899 10.2401 3.07223C10.2006 3.05547 10.1649 3.0311 10.1349 3.00053C10.1049 2.96996 10.0812 2.93378 10.0652 2.89405C10.0492 2.85432 10.0412 2.81183 10.0416 2.769C10.0455 2.68216 10.0823 2.60008 10.1446 2.53948C10.207 2.47888 10.29 2.44432 10.3769 2.44285L10.3831 2.44438ZM8.80156 2.86746C8.88875 2.86868 8.97194 2.90427 9.03302 2.9665C9.0941 3.02874 9.12813 3.11257 9.12772 3.19977C9.1298 3.28387 9.09868 3.36541 9.0411 3.42674C8.98351 3.48807 8.90409 3.52425 8.82002 3.52746H8.80464C8.76094 3.5291 8.71736 3.52207 8.6764 3.50676C8.63544 3.49145 8.59792 3.46817 8.56602 3.43827C8.53411 3.40837 8.50846 3.37244 8.49053 3.33255C8.4726 3.29267 8.46275 3.24963 8.46156 3.20592C8.46082 3.20134 8.46082 3.19666 8.46156 3.19208C8.4659 3.10472 8.50357 3.02236 8.56683 2.96197C8.63009 2.90157 8.7141 2.86775 8.80156 2.86746ZM7.31541 3.55823C7.35875 3.5552 7.40225 3.56073 7.44345 3.57452C7.48465 3.5883 7.52273 3.61007 7.55551 3.63857C7.5883 3.66707 7.61515 3.70175 7.63454 3.74062C7.65392 3.7795 7.66546 3.82182 7.66849 3.86515C7.67152 3.90849 7.66598 3.952 7.6522 3.9932C7.63841 4.03439 7.61665 4.07247 7.58815 4.10526C7.55965 4.13804 7.52497 4.1649 7.48609 4.18428C7.44721 4.20366 7.4049 4.2152 7.36156 4.21823H7.31541C7.23178 4.21252 7.15344 4.17527 7.09623 4.11401C7.03901 4.05275 7.00718 3.97205 7.00718 3.88823C7.00718 3.80441 7.03901 3.72371 7.09623 3.66245C7.15344 3.60119 7.23178 3.56394 7.31541 3.55823ZM5.98772 4.49208C6.07494 4.49406 6.158 4.5298 6.2194 4.59178C6.28081 4.65376 6.31577 4.73714 6.31695 4.82438C6.31654 4.91158 6.28173 4.99508 6.22007 5.05674C6.15842 5.11839 6.07491 5.15321 5.98772 5.15361C5.94576 5.15526 5.9039 5.14859 5.86453 5.134C5.82516 5.1194 5.78907 5.09717 5.75833 5.06857C5.72759 5.03997 5.7028 5.00558 5.68541 4.96737C5.66801 4.92916 5.65833 4.88789 5.65695 4.84592C5.6561 4.84031 5.6561 4.83461 5.65695 4.829C5.65403 4.74218 5.68554 4.65773 5.74462 4.59405C5.80369 4.53036 5.88554 4.4926 5.97233 4.489L5.98772 4.49208ZM4.84002 5.64438C4.92735 5.6476 5.0099 5.68508 5.0698 5.74871C5.12969 5.81235 5.16211 5.89702 5.16002 5.98438C5.15841 6.07144 5.12237 6.1543 5.0598 6.21485C4.99724 6.2754 4.91324 6.3087 4.82618 6.30746C4.73905 6.30474 4.65626 6.26881 4.59476 6.20703C4.53327 6.14525 4.49772 6.06229 4.49541 5.97515C4.49898 5.88644 4.53664 5.80253 4.60056 5.74091C4.66447 5.67929 4.7497 5.64471 4.83849 5.64438H4.84002ZM3.89695 6.98592C3.98079 6.98425 4.06193 7.01555 4.12293 7.07309C4.18392 7.13064 4.21989 7.20982 4.2231 7.29361C4.22463 7.2981 4.22463 7.30297 4.2231 7.30746C4.22434 7.39493 4.19088 7.47932 4.13004 7.54217C4.0692 7.60503 3.98595 7.64123 3.89849 7.64285C3.80895 7.64125 3.72355 7.60487 3.66038 7.54141C3.5972 7.47795 3.56121 7.39239 3.56002 7.30285C3.56321 7.21605 3.59995 7.13387 3.6625 7.07361C3.72506 7.01335 3.80855 6.97971 3.89541 6.97977L3.89695 6.98592ZM3.20772 8.46131C3.29613 8.46252 3.38049 8.4986 3.44243 8.5617C3.50438 8.6248 3.5389 8.70981 3.53849 8.79823V8.80592C3.53077 8.89059 3.49103 8.96913 3.42739 9.02551C3.36374 9.08189 3.28099 9.11186 3.196 9.1093C3.11101 9.10675 3.03021 9.07187 2.97006 9.01178C2.90991 8.95168 2.87496 8.8709 2.87233 8.78592C2.87588 8.69911 2.91269 8.61698 2.97512 8.55656C3.03755 8.49613 3.12083 8.46202 3.20772 8.46131ZM2.77695 10.0352C2.86647 10.0355 2.95226 10.0711 3.01584 10.1341C3.07943 10.1971 3.11574 10.2826 3.11695 10.3721C3.11453 10.4591 3.07804 10.5418 3.01531 10.6022C2.95259 10.6626 2.86865 10.696 2.78156 10.6952C2.73974 10.6954 2.69829 10.6873 2.65957 10.6715C2.62086 10.6557 2.58564 10.6324 2.55592 10.603C2.52621 10.5735 2.50258 10.5385 2.48639 10.5C2.4702 10.4614 2.46176 10.4201 2.46156 10.3782C2.46069 10.2923 2.49327 10.2094 2.55242 10.1471C2.61157 10.0848 2.69265 10.048 2.77849 10.0444L2.77695 10.0352ZM2.30772 11.9998C2.30997 11.9126 2.34519 11.8295 2.40629 11.7672C2.46739 11.705 2.54982 11.6682 2.63695 11.6644C2.68018 11.664 2.72308 11.6721 2.76317 11.6883C2.80327 11.7044 2.8398 11.7283 2.87065 11.7586C2.90151 11.7889 2.9261 11.825 2.94302 11.8648C2.95994 11.9046 2.96885 11.9473 2.96925 11.9905C2.97344 12.0764 2.9434 12.1604 2.88571 12.2242C2.82803 12.2879 2.74742 12.3262 2.66156 12.3305H2.62772C2.54275 12.3252 2.46283 12.2883 2.40364 12.2271C2.34444 12.166 2.31023 12.0849 2.30772 11.9998ZM2.46156 13.6228C2.46155 13.5358 2.49571 13.4522 2.55671 13.39C2.6177 13.3279 2.70065 13.2921 2.78772 13.2905C2.87711 13.2921 2.96234 13.3286 3.02527 13.3921C3.0882 13.4556 3.12385 13.5411 3.12464 13.6305C3.12344 13.6738 3.11374 13.7164 3.09608 13.7558C3.07842 13.7953 3.05315 13.831 3.02172 13.8607C2.99029 13.8904 2.95331 13.9136 2.91289 13.929C2.87248 13.9445 2.82942 13.9518 2.78618 13.9505C2.70238 13.9526 2.62117 13.9214 2.56033 13.8637C2.49949 13.8061 2.46398 13.7266 2.46156 13.6428V13.6244V13.6228ZM3.21541 15.5275C3.12805 15.5291 3.04355 15.4963 2.98021 15.4361C2.91686 15.376 2.87976 15.2933 2.87695 15.2059C2.87772 15.1164 2.91333 15.0306 2.97622 14.9669C3.03911 14.9031 3.12434 14.8664 3.21387 14.8644C3.29978 14.8682 3.38103 14.9045 3.44126 14.9659C3.5015 15.0273 3.53624 15.1092 3.53849 15.1952C3.53808 15.2823 3.50326 15.3659 3.44161 15.4275C3.37995 15.4892 3.29645 15.524 3.20925 15.5244L3.21541 15.5275ZM3.9031 17.009C3.81608 17.0079 3.73279 16.9734 3.6704 16.9128C3.608 16.8521 3.57125 16.7698 3.56772 16.6828C3.56771 16.5948 3.60246 16.5104 3.66441 16.4479C3.72635 16.3853 3.81048 16.3498 3.89849 16.349H3.90618C3.99002 16.3473 4.07116 16.3786 4.13216 16.4362C4.19315 16.4937 4.22912 16.5729 4.23233 16.6567C4.23309 16.6623 4.23309 16.668 4.23233 16.6736C4.23253 16.7166 4.22425 16.7592 4.20795 16.7989C4.19165 16.8386 4.16766 16.8748 4.13735 16.9052C4.10704 16.9357 4.07102 16.9598 4.03135 16.9763C3.99168 16.9928 3.94914 17.0013 3.90618 17.0013H3.89695L3.9031 17.009ZM3.9031 14.4244L3.92002 14.3644H7.42772C8.33849 14.3644 8.33849 14.3644 8.33849 13.4413C8.33849 12.6721 8.33849 11.9028 8.33849 11.1336C8.33849 10.8828 8.37233 10.7659 8.67233 10.7782C9.33233 10.8059 9.99541 10.7967 10.6554 10.7782C10.8862 10.7782 10.9631 10.849 10.9631 11.0752C10.9569 12.3654 10.9569 13.6572 10.9631 14.9505C10.9631 15.1967 10.8862 15.3213 10.6262 15.2967C10.5505 15.289 10.4742 15.289 10.3985 15.2967C10.1016 15.329 10 15.2136 10 14.9228C10.0139 13.989 10 13.0567 10 12.1228C10 11.8659 9.92002 11.7475 9.64464 11.7475C9.36926 11.7475 9.27849 11.8336 9.2831 12.1075C9.29541 13.0413 9.2831 13.9752 9.29387 14.9075C9.29387 15.2152 9.20002 15.3013 8.9031 15.2967C7.95849 15.2813 7.01079 15.3398 6.07233 15.2705C5.62926 15.2382 5.20002 14.989 4.77079 14.8198C4.48002 14.7059 4.19079 14.5567 3.89695 14.4213L3.9031 14.4244ZM4.87387 18.3505C4.82961 18.3557 4.78477 18.352 4.74193 18.3398C4.69908 18.3276 4.65907 18.307 4.6242 18.2793C4.58932 18.2515 4.56026 18.2172 4.53869 18.1782C4.51712 18.1392 4.50345 18.0964 4.49849 18.0521C4.497 18.0347 4.497 18.0172 4.49849 17.9998C4.50383 17.9103 4.5425 17.8261 4.60686 17.7637C4.67121 17.7014 4.7566 17.6654 4.84618 17.6628C4.93596 17.6746 5.01874 17.7176 5.08005 17.7843C5.14135 17.8509 5.17728 17.937 5.18156 18.0275C5.16908 18.106 5.13294 18.1789 5.07796 18.2363C5.02298 18.2938 4.95178 18.3331 4.87387 18.349V18.3505ZM5.98156 19.4936C5.8971 19.4936 5.8161 19.4601 5.75638 19.4003C5.69665 19.3406 5.6631 19.2596 5.6631 19.1752V19.1598C5.6637 19.1161 5.6729 19.073 5.69015 19.0329C5.70741 18.9929 5.7324 18.9566 5.76369 18.9261C5.79497 18.8957 5.83195 18.8717 5.8725 18.8556C5.91305 18.8395 5.95638 18.8315 6.00002 18.8321C6.08726 18.8348 6.1701 18.871 6.23139 18.9332C6.29268 18.9953 6.32772 19.0787 6.32926 19.1659C6.32905 19.209 6.32038 19.2515 6.30372 19.2912C6.28707 19.3309 6.26276 19.3669 6.23219 19.3972C6.20162 19.4275 6.16538 19.4514 6.12554 19.4677C6.08571 19.484 6.04306 19.4923 6.00002 19.4921H5.98772L5.98156 19.4936ZM7.33233 20.4305C7.2903 20.4322 7.24836 20.4255 7.2089 20.411C7.16945 20.3964 7.13325 20.3742 7.10239 20.3456C7.07152 20.317 7.0466 20.2826 7.02903 20.2444C7.01147 20.2062 7.00161 20.1649 7.00002 20.1228C6.99927 20.1188 6.99927 20.1146 7.00002 20.1105C6.99753 20.0225 7.02992 19.937 7.09015 19.8728C7.15037 19.8085 7.23355 19.7707 7.32156 19.7675H7.33079C7.41802 19.7694 7.50107 19.8052 7.56248 19.8672C7.62388 19.9291 7.65885 20.0125 7.66002 20.0998C7.66063 20.1429 7.6527 20.1856 7.63668 20.2256C7.62066 20.2656 7.59687 20.3021 7.56668 20.3328C7.5365 20.3636 7.50052 20.3881 7.46082 20.4048C7.42113 20.4216 7.3785 20.4303 7.33541 20.4305H7.33233ZM8.81233 21.1182C8.72532 21.1233 8.63983 21.0938 8.57444 21.0362C8.50905 20.9786 8.46903 20.8975 8.4631 20.8105C8.4631 20.8105 8.4631 20.7982 8.4631 20.7921C8.46692 20.705 8.50341 20.6227 8.56529 20.5614C8.62717 20.5 8.70989 20.4643 8.79695 20.4613C8.88428 20.4617 8.96795 20.4965 9.02985 20.5581C9.09175 20.6197 9.12691 20.7032 9.12772 20.7905C9.12979 20.8745 9.09863 20.9559 9.041 21.0169C8.98337 21.078 8.90395 21.1139 8.82002 21.1167L8.81233 21.1182ZM7.56002 16.1198C7.26772 16.0028 6.98772 15.8552 6.70156 15.7213L6.73695 15.6275H11.2308C11.9262 15.6275 11.8369 15.689 11.8462 15.0121C11.8462 13.0121 11.8462 10.9952 11.8462 8.98746C11.8462 8.65669 11.9369 8.55669 12.2677 8.569C12.9077 8.59361 13.5477 8.58438 14.1893 8.569C14.42 8.569 14.5231 8.629 14.5231 8.87669C14.5231 11.3628 14.5231 13.8485 14.5231 16.3336C14.5231 16.6013 14.4093 16.6844 14.1631 16.6413C14.0796 16.6192 13.994 16.6063 13.9077 16.6028C13.5 16.6167 13.4985 16.6198 13.4985 16.1921V10.0382C13.4985 9.869 13.5631 9.65054 13.2816 9.60592C12.9523 9.55361 12.8539 9.63054 12.8539 9.97515V16.2275C12.8539 16.6521 12.8539 16.6536 12.4169 16.6536C11.3308 16.6536 10.2462 16.6382 9.16002 16.6536C8.54464 16.6782 8.0831 16.3259 7.5631 16.1198H7.56002ZM10.3831 21.5382C10.296 21.5411 10.2114 21.5094 10.1476 21.45C10.0839 21.3906 10.0463 21.3084 10.0431 21.2213C10.0423 21.2172 10.0423 21.2131 10.0431 21.209C10.0422 21.143 10.0609 21.0783 10.0967 21.0229C10.1326 20.9676 10.184 20.9241 10.2446 20.8979C10.3051 20.8718 10.3721 20.8642 10.437 20.876C10.5019 20.8879 10.5618 20.9187 10.6092 20.9646C10.6565 21.0105 10.6893 21.0694 10.7032 21.1339C10.7172 21.1983 10.7117 21.2655 10.6875 21.3268C10.6633 21.3882 10.6215 21.441 10.5673 21.4787C10.5132 21.5163 10.449 21.537 10.3831 21.5382ZM12 21.6921C11.9105 21.6905 11.8253 21.6534 11.763 21.5891C11.7008 21.5249 11.6665 21.4385 11.6677 21.349C11.6695 21.2833 11.6907 21.2197 11.7285 21.1659C11.7664 21.1122 11.8192 21.0709 11.8804 21.0471C11.9417 21.0233 12.0086 21.0181 12.0727 21.0321C12.1369 21.0461 12.1955 21.0788 12.2412 21.126C12.2869 21.1731 12.3177 21.2328 12.3297 21.2974C12.3417 21.362 12.3343 21.4287 12.3086 21.4891C12.2828 21.5495 12.2398 21.601 12.1849 21.6371C12.13 21.6732 12.0657 21.6924 12 21.6921ZM13.6 21.5382C13.5153 21.5323 13.4361 21.494 13.3788 21.4313C13.3215 21.3686 13.2905 21.2862 13.2923 21.2013C13.2939 21.1575 13.3042 21.1144 13.3225 21.0745C13.3407 21.0346 13.3667 20.9987 13.3988 20.9688C13.431 20.939 13.4687 20.9158 13.5098 20.9005C13.5509 20.8852 13.5946 20.8782 13.6385 20.8798C13.6823 20.8814 13.7254 20.8916 13.7653 20.9099C13.8052 20.9282 13.8411 20.9541 13.8709 20.9862C13.9008 21.0184 13.924 21.0561 13.9393 21.0972C13.9546 21.1383 13.9616 21.1821 13.96 21.2259C13.9545 21.3119 13.9154 21.3923 13.8513 21.4498C13.7872 21.5073 13.703 21.5374 13.6169 21.5336L13.6 21.5382ZM15.1985 21.1167C15.1148 21.118 15.0338 21.0865 14.9729 21.0291C14.912 20.9716 14.8759 20.8927 14.8723 20.809V20.7936C14.8727 20.7067 14.907 20.6233 14.9679 20.5612C15.0288 20.4992 15.1115 20.4633 15.1985 20.4613C15.2879 20.4629 15.3731 20.4993 15.436 20.5628C15.499 20.6263 15.5346 20.7119 15.5354 20.8013C15.5314 20.8874 15.494 20.9686 15.431 21.0275C15.3681 21.0864 15.2847 21.1184 15.1985 21.1167ZM16.6831 20.4275C16.6403 20.4285 16.5977 20.4211 16.5577 20.4056C16.5177 20.3901 16.4812 20.367 16.4502 20.3374C16.4192 20.3078 16.3943 20.2724 16.377 20.2332C16.3597 20.1941 16.3503 20.1518 16.3493 20.109C16.3488 20.0195 16.3839 19.9335 16.4468 19.8698C16.5096 19.806 16.5951 19.7698 16.6846 19.769C16.7721 19.7706 16.8554 19.8068 16.9162 19.8697C16.977 19.9325 17.0105 20.0169 17.0093 20.1044C17.0113 20.1886 16.9803 20.2703 16.9227 20.3319C16.8652 20.3935 16.7858 20.43 16.7016 20.4336H16.6877L16.6831 20.4275ZM16.9616 17.2536C17.0108 16.7644 16.94 9.889 16.9416 7.80438C16.9416 7.60285 16.9631 7.41515 16.6539 7.41977C16.4046 7.41977 16.3462 7.51054 16.3462 7.74592C16.3554 8.82284 16.3293 16.9275 16.3293 16.9275V17.9459C16.2139 17.9582 16.12 17.9752 16.0216 17.9767C14.6123 17.9767 13.2016 18.0044 11.7939 17.9613C11.44 17.9505 11.0877 17.7259 10.7431 17.5813C10.343 17.4214 9.95961 17.2225 9.59849 16.9875C9.69079 16.9875 9.7831 16.9705 9.87541 16.9705L14.5954 16.9905C15.3185 16.9905 15.3077 16.9905 15.3077 16.2952V6.78592C15.3077 6.51977 15.3677 6.39669 15.6693 6.40592C16.3523 6.42746 17.0369 6.41977 17.72 6.40592C17.9493 6.40592 18.0277 6.48438 18.0277 6.71361V17.5382C18.0277 17.9767 18.0277 17.9767 17.5754 17.9782C16.8769 17.9782 16.8877 17.9659 16.96 17.2567L16.9616 17.2536ZM18.0154 19.4905C17.9285 19.491 17.8449 19.4571 17.7827 19.3964C17.7205 19.3356 17.6847 19.2528 17.6831 19.1659C17.6847 19.0765 17.7211 18.9913 17.7846 18.9284C17.8481 18.8654 17.9337 18.8298 18.0231 18.829C18.0663 18.83 18.109 18.8395 18.1485 18.857C18.1881 18.8745 18.2238 18.8996 18.2537 18.9308C18.2835 18.9621 18.3069 18.999 18.3225 19.0393C18.3382 19.0797 18.3457 19.1227 18.3446 19.1659C18.3472 19.2079 18.3411 19.2499 18.3267 19.2893C18.3124 19.3288 18.2901 19.365 18.2613 19.3955C18.2325 19.4261 18.1977 19.4504 18.1591 19.467C18.1205 19.4836 18.079 19.4922 18.0369 19.4921H18.0139L18.0154 19.4905ZM18.0262 5.15208C17.94 5.15294 17.8569 5.12014 17.7946 5.06066C17.7322 5.00119 17.6955 4.91972 17.6923 4.83361C17.6916 4.83006 17.6916 4.8264 17.6923 4.82285C17.6943 4.73584 17.7295 4.65289 17.7907 4.59107C17.852 4.52925 17.9346 4.49327 18.0216 4.49054C18.0647 4.49013 18.1075 4.49826 18.1476 4.51445C18.1876 4.53064 18.224 4.55457 18.2547 4.58488C18.2855 4.61519 18.3099 4.65127 18.3267 4.69105C18.3434 4.73083 18.3521 4.77353 18.3523 4.81669C18.3574 4.90094 18.3288 4.98374 18.2728 5.04692C18.2169 5.11009 18.1381 5.14847 18.0539 5.15361H18.0354L18.0262 5.15208ZM19.1646 18.3398C19.081 18.3341 19.0027 18.2968 18.9455 18.2355C18.8882 18.1743 18.8564 18.0936 18.8564 18.0098C18.8564 17.9259 18.8882 17.8452 18.9455 17.784C19.0027 17.7227 19.081 17.6855 19.1646 17.6798C19.2099 17.6767 19.2553 17.6829 19.298 17.6981C19.3407 17.7133 19.3798 17.7371 19.413 17.768C19.4461 17.799 19.4725 17.8364 19.4906 17.878C19.5086 17.9196 19.518 17.9644 19.518 18.0098C19.518 18.0551 19.5086 18.1 19.4906 18.1415C19.4725 18.1831 19.4461 18.2206 19.413 18.2515C19.3798 18.2824 19.3407 18.3062 19.298 18.3214C19.2553 18.3366 19.2099 18.3429 19.1646 18.3398ZM19.1646 6.31208C19.0986 6.31208 19.0341 6.2925 18.9792 6.25581C18.9243 6.21913 18.8815 6.16699 18.8562 6.10599C18.8309 6.04498 18.8243 5.97786 18.8372 5.9131C18.8501 5.84834 18.8819 5.78885 18.9286 5.74217C18.9753 5.69548 19.0347 5.66368 19.0995 5.6508C19.1643 5.63792 19.2314 5.64453 19.2924 5.6698C19.3534 5.69506 19.4055 5.73785 19.4422 5.79275C19.4789 5.84766 19.4985 5.9122 19.4985 5.97823C19.4973 6.06597 19.4616 6.1497 19.3991 6.21132C19.3366 6.27293 19.2524 6.30747 19.1646 6.30746V6.31208ZM21.5385 10.3736C21.5406 10.4574 21.5093 10.5386 21.4517 10.5995C21.394 10.6603 21.3146 10.6958 21.2308 10.6982H21.2123C21.125 10.6986 21.041 10.6647 20.9785 10.6036C20.916 10.5426 20.8801 10.4594 20.8785 10.3721C20.8795 10.3268 20.8894 10.2822 20.9076 10.2408C20.9259 10.1993 20.9521 10.1619 20.9848 10.1306C21.0176 10.0993 21.0561 10.0748 21.0983 10.0584C21.1405 10.042 21.1855 10.0341 21.2308 10.0352C21.3158 10.0411 21.3953 10.0796 21.4526 10.1426C21.5099 10.2057 21.5407 10.2884 21.5385 10.3736ZM20.1016 6.989C20.1888 6.98939 20.2724 7.02389 20.3345 7.08513C20.3966 7.14637 20.4323 7.22949 20.4339 7.31669C20.4319 7.40608 20.3951 7.49115 20.3313 7.55379C20.2675 7.61643 20.1817 7.6517 20.0923 7.65208C20.0053 7.64887 19.923 7.6116 19.8631 7.54829C19.8033 7.48499 19.7707 7.40072 19.7723 7.31361C19.7706 7.22962 19.8019 7.14831 19.8594 7.08707C19.9169 7.02583 19.9961 6.98952 20.08 6.98592H20.1031L20.1016 6.989ZM20.1016 17.009C20.0147 17.009 19.9313 16.9745 19.8699 16.913C19.8084 16.8516 19.7739 16.7682 19.7739 16.6813C19.771 16.5967 19.8017 16.5144 19.8594 16.4524C19.9171 16.3904 19.9969 16.3537 20.0816 16.3505H20.0985C20.1422 16.3493 20.1857 16.3568 20.2265 16.3724C20.2673 16.3881 20.3046 16.4118 20.3362 16.4419C20.3678 16.4721 20.3931 16.5083 20.4107 16.5483C20.4282 16.5883 20.4377 16.6314 20.4385 16.6752V16.6828C20.4353 16.7693 20.3991 16.8512 20.3372 16.9116C20.2754 16.972 20.1926 17.0063 20.1062 17.0075L20.1016 17.009ZM20.7908 8.46131C20.8561 8.46131 20.9199 8.48074 20.9742 8.51713C21.0284 8.55351 21.0706 8.60521 21.0954 8.66564C21.1202 8.72606 21.1264 8.7925 21.1133 8.85648C21.1002 8.92047 21.0684 8.97912 21.0219 9.02498C20.9754 9.07083 20.9163 9.10182 20.8521 9.114C20.788 9.12617 20.7216 9.11899 20.6616 9.09336C20.6015 9.06773 20.5504 9.02482 20.5148 8.97007C20.4792 8.91533 20.4606 8.85123 20.4616 8.78592C20.4647 8.70003 20.5005 8.61858 20.5617 8.55823C20.6229 8.49789 20.7049 8.46321 20.7908 8.46131ZM20.8016 15.5244C20.7145 15.5265 20.63 15.4943 20.5664 15.4347C20.5028 15.3751 20.4652 15.293 20.4616 15.2059C20.454 15.1176 20.4819 15.0299 20.539 14.9621C20.5961 14.8943 20.6778 14.8519 20.7662 14.8444C20.8545 14.8368 20.9422 14.8647 21.01 14.9218C21.0778 14.9789 21.1202 15.0607 21.1277 15.149C21.1293 15.1633 21.1293 15.1778 21.1277 15.1921C21.1277 15.2792 21.0936 15.3628 21.0326 15.4249C20.9716 15.487 20.8886 15.5228 20.8016 15.5244ZM21.2093 13.9475C21.1224 13.9455 21.0398 13.9099 20.9787 13.8482C20.9175 13.7865 20.8827 13.7035 20.8816 13.6167C20.8852 13.527 20.9237 13.4424 20.989 13.3808C21.0543 13.3193 21.1411 13.2858 21.2308 13.2875C21.3164 13.2934 21.3963 13.3323 21.4537 13.396C21.5111 13.4598 21.5415 13.5433 21.5385 13.629C21.5387 13.6707 21.5306 13.7121 21.5148 13.7508C21.499 13.7894 21.4757 13.8245 21.4462 13.8541C21.4168 13.8837 21.3818 13.9072 21.3432 13.9232C21.3046 13.9392 21.2633 13.9475 21.2216 13.9475H21.2093ZM21.3631 12.3228C21.3211 12.3245 21.2793 12.3178 21.2399 12.3032C21.2005 12.2886 21.1645 12.2664 21.1337 12.2378C21.103 12.2092 21.0782 12.1748 21.0608 12.1366C21.0434 12.0984 21.0337 12.0571 21.0323 12.0152C21.0316 12.009 21.0316 12.0028 21.0323 11.9967C21.0283 11.9565 21.0322 11.9159 21.0439 11.8772C21.0555 11.8385 21.0747 11.8025 21.1002 11.7712C21.1258 11.7399 21.1573 11.714 21.1929 11.6948C21.2285 11.6757 21.2675 11.6638 21.3077 11.6598H21.3293C21.3754 11.6564 21.4218 11.6622 21.4657 11.6768C21.5097 11.6914 21.5503 11.7144 21.5853 11.7447C21.6203 11.775 21.649 11.8119 21.6697 11.8533C21.6905 11.8947 21.7029 11.9398 21.7062 11.9859V11.9998C21.7066 12.0422 21.6986 12.0842 21.6826 12.1235C21.6666 12.1628 21.6429 12.1985 21.613 12.2286C21.5831 12.2586 21.5475 12.2825 21.5083 12.2986C21.4691 12.3148 21.4271 12.3231 21.3846 12.3228H21.3646H21.3631Z" fill="#004B6A"/>
</g>
<defs>
<clipPath id="clip0">
<rect width="24" height="24" fill="white"/>
</clipPath>
</defs>
</svg>
