<svg width="24" height="24" viewBox="0 0 24 24" fill="none" xmlns="http://www.w3.org/2000/svg">
<path d="M15.6137 0.56543V4.87348C18.2875 6.23899 19.9711 8.98382 19.9757 11.9907C19.9757 14.9976 18.292 17.747 15.6137 19.1126V23.4022C20.5825 21.8206 23.9589 17.2091 23.9681 11.9907C23.9635 6.76773 20.5871 2.14704 15.6137 0.56543ZM8.35437 0.579223C3.38555 2.15623 0.00456274 6.77233 0 11.9907C0 17.2137 3.38099 21.8298 8.35437 23.4114V19.1034C5.68061 17.7378 3.99696 14.993 3.9924 11.9861C3.9924 8.97922 5.67605 6.2252 8.35437 4.86428V0.579223Z" fill="#3D92EF"/>
<path d="M11.9819 0C11.1013 0.0045977 10.2252 0.110345 9.36742 0.308046V4.44598C10.207 4.14713 11.0921 3.9954 11.9819 3.9908C12.8716 3.9954 13.7568 4.14713 14.5963 4.44138V0.298851C13.7385 0.105747 12.8625 0.0045977 11.9819 0ZM15.6138 0.565517V4.86437V0.565517ZM8.35449 0.57931V4.87356V0.57931ZM11.9819 7.81149C11.0283 7.81149 10.1066 8.14253 9.36742 8.74023V15.2368C10.1066 15.8345 11.0328 16.1655 11.9819 16.1655C12.9355 16.1655 13.8572 15.8345 14.5963 15.2368V8.74023C13.8572 8.14253 12.9355 7.81149 11.9819 7.81149ZM8.35449 9.92644V14.046V9.92644ZM15.6138 9.93104V14.0506V9.93104ZM15.6138 19.1034V23.4023V19.1034ZM8.35449 19.1126V23.4115V19.1126ZM14.6009 19.531C13.7613 19.8299 12.8762 19.9816 11.9864 19.9862C11.0967 19.9816 10.2115 19.8299 9.37198 19.5356V23.6782C10.2298 23.8759 11.1058 23.9724 11.9864 23.977C12.867 23.9724 13.7431 23.8667 14.6009 23.669V19.531Z" fill="#81BFFF"/>
<path d="M11.9813 10.7266C11.1007 10.7312 10.2247 10.7863 9.3623 10.8967V23.6921C10.2201 23.7978 11.1007 23.853 11.9813 23.8576C12.8619 23.853 13.738 23.7978 14.5958 23.6875V10.8921C13.738 10.7863 12.8619 10.7312 11.9813 10.7266ZM15.6133 11.0392V23.5404V11.0392Z" fill="#81BFFF"/>
</svg>
