<svg width="24" height="24" viewBox="0 0 24 24" fill="none" xmlns="http://www.w3.org/2000/svg">
<path d="M12 24C18.6274 24 24 18.6274 24 12C24 5.37258 18.6274 0 12 0C5.37258 0 0 5.37258 0 12C0 18.6274 5.37258 24 12 24Z" fill="#4CB8D1"/>
<path fill-rule="evenodd" clip-rule="evenodd" d="M7.59192 6.21225L7.89042 5.6745C7.96064 5.5464 8.06391 5.43946 8.18948 5.36481C8.31505 5.29015 8.45833 5.25051 8.60442 5.25H15.3207C15.5989 5.25 15.8577 5.394 16.0084 5.631H19.0519V10.986L19.3887 11.5785C19.4615 11.707 19.4998 11.8523 19.4998 12C19.4998 12.1477 19.4615 12.293 19.3887 12.4215L19.0519 13.014V15.318L16.4742 17.5515L16.0302 18.3323C15.9594 18.4584 15.8565 18.5636 15.7318 18.637C15.6072 18.7104 15.4653 18.7494 15.3207 18.75H8.60442C8.45833 18.7495 8.31505 18.7098 8.18948 18.6352C8.06391 18.5605 7.96064 18.4536 7.89042 18.3255L7.87167 18.2925H4.87317V12.8925L4.60692 12.4133C4.53679 12.2865 4.5 12.1441 4.5 11.9992C4.5 11.8544 4.53679 11.712 4.60692 11.5852L4.87317 11.106V8.68125L7.59192 6.21225ZM8.60442 6.08925L5.32092 12L8.60442 17.9108H15.3207L18.6784 12L15.3207 6.08925H8.60442ZM8.90817 6.62325H15.0199L18.0747 12L15.0199 17.3775H8.90817L5.92092 12L8.90817 6.62325ZM10.3204 8.91075L8.67867 11.9618L10.3212 15.0128H13.8282L15.4699 11.9618L13.8274 8.91075H10.3204Z" fill="white"/>
</svg>
