<svg width="24" height="24" viewBox="0 0 24 24" fill="none" xmlns="http://www.w3.org/2000/svg">
<path d="M12 24C18.6274 24 24 18.6274 24 12C24 5.37258 18.6274 0 12 0C5.37258 0 0 5.37258 0 12C0 18.6274 5.37258 24 12 24Z" fill="#55DDFF"/>
<path d="M8.87238 7.59C8.87722 6.16796 9.41205 4.7988 10.3724 3.75C10.6349 3.4875 10.6649 3.435 10.6649 3.225C10.6649 3.015 10.6649 3 10.5074 3C10.3127 3.02156 10.1197 3.05665 9.92988 3.105C7.69135 3.6338 5.73714 4.99291 4.46238 6.9075C3.84693 7.81539 3.41389 8.8343 3.18738 9.9075C2.9996 10.896 2.95414 11.9062 3.05238 12.9075C3.32794 15.1294 4.4445 17.1612 6.17238 18.585C7.09488 19.335 8.12988 19.935 8.12988 19.665C8.06935 19.5487 7.98801 19.4445 7.88988 19.3575C7.42579 18.846 7.0787 18.2395 6.87276 17.5802C6.66682 16.921 6.60697 16.2247 6.69738 15.54C6.76409 14.6892 7.02958 13.866 7.47247 13.1365C7.91537 12.407 8.52331 11.7917 9.24738 11.34C9.43032 11.2097 9.62344 11.0943 9.82488 10.995C9.93739 10.995 9.86988 10.77 9.59238 10.245C9.1176 9.44102 8.86883 8.5237 8.87238 7.59ZM20.5049 9.93C20.2396 8.6381 19.6937 7.42027 18.9057 6.36271C18.1177 5.30514 17.1069 4.43369 15.9449 3.81C15.5249 3.5775 15.3149 3.525 15.3149 3.6675C15.3545 3.78743 15.4155 3.89922 15.4949 3.9975C15.9598 4.65791 16.2205 5.44025 16.2449 6.2475C16.2921 6.66838 16.2497 7.0945 16.1205 7.49781C15.9912 7.90113 15.778 8.2725 15.4949 8.5875C15.3495 8.74162 15.1495 8.83265 14.9378 8.84106C14.7261 8.84948 14.5195 8.7746 14.3624 8.6325C14.0624 8.415 14.0624 8.265 14.2499 7.9875C14.6472 7.40317 14.8445 6.70587 14.8124 6C14.8415 5.71621 14.8068 5.4295 14.7108 5.16087C14.6147 4.89224 14.4598 4.6485 14.2574 4.4475C14.0732 4.25652 13.8401 4.11983 13.5835 4.05238C13.3269 3.98492 13.0567 3.98929 12.8024 4.065C12.4387 4.21151 12.117 4.44568 11.8657 4.74664C11.6145 5.04761 11.4416 5.40603 11.3624 5.79C11.1904 6.345 11.0896 6.9196 11.0624 7.5C11.0679 8.38875 11.2865 9.2632 11.6999 10.05C11.9883 10.5022 12.345 10.907 12.7574 11.25C12.8399 11.304 12.9126 11.37 12.9749 11.445C12.9024 11.5046 12.818 11.5481 12.7274 11.5725C12.1477 11.8468 11.6288 12.2343 11.2012 12.7121C10.7736 13.19 10.4459 13.7486 10.2374 14.355C9.96286 15.0589 9.84018 15.8129 9.87738 16.5675C9.86222 16.9232 9.92104 17.2782 10.0501 17.6099C10.1792 17.9417 10.3758 18.2431 10.6274 18.495C10.9121 18.7414 11.249 18.9201 11.6128 19.0175C11.9765 19.115 12.3576 19.1286 12.7274 19.0575C13.7181 18.9834 14.6446 18.5389 15.3224 17.8125C15.6299 17.4825 15.6899 17.445 15.7499 17.52C15.8099 17.595 15.7949 17.64 15.6824 17.8275C14.9702 19.0439 13.8273 19.9486 12.4799 20.3625C12.2174 20.43 12.1049 20.4825 12.1049 20.5425C12.1049 20.7375 13.7474 20.4675 14.7449 20.115C16.0172 19.6501 17.1693 18.9063 18.1167 17.9382C19.0641 16.97 19.7827 15.8021 20.2199 14.52C20.5433 13.6271 20.6836 12.6783 20.6324 11.73C20.6666 11.127 20.6237 10.5221 20.5049 9.93Z" fill="white"/>
</svg>
