<svg width="24" height="24" viewBox="0 0 24 24" fill="none" xmlns="http://www.w3.org/2000/svg">
<g clip-path="url(#clip0)">
<path d="M1.02449 7.48178C1.34679 7.15293 1.76809 6.93891 2.22374 6.87255C2.67939 6.80619 3.14423 6.89117 3.54694 7.11443L12.1673 12.0124L3.52245 16.9104C3.11953 17.1328 2.65488 17.2173 2.19943 17.151C1.74398 17.0847 1.32274 16.8711 1 16.543C1.02449 16.543 1.02449 6.89403 1.02449 7.48178Z" fill="url(#paint0_linear)"/>
<path d="M21.5469 4.98326C21.6617 5.41154 21.63 5.86588 21.457 6.2741C21.2839 6.68233 20.9794 7.021 20.5918 7.23632L12.1673 12.0118L3.52245 7.11387C3.11953 6.89142 2.65488 6.8069 2.19943 6.87323C1.74398 6.93956 1.32274 7.15308 1 7.48122C1.00572 6.95423 1.15166 6.43826 1.42281 5.98634C1.69396 5.53441 2.08055 5.16284 2.54286 4.90979L10.4776 0.403671C10.9442 0.138771 11.4716 -0.000488281 12.0082 -0.000488281C12.5447 -0.000488281 13.0721 0.138771 13.5388 0.403671L21.5469 4.98326Z" fill="url(#paint1_linear)"/>
<path d="M3.52245 16.9104L20.5918 7.23695C21.4 6.77164 21.5959 5.84103 21.3755 4.98389C22.2816 5.52266 22.649 6.50225 22.649 7.53083V16.5186C22.649 17.5961 22.2327 18.5757 21.302 19.1145L13.4653 23.5961C13.0075 23.8608 12.488 24.0001 11.9592 24.0001C11.4304 24.0001 10.9109 23.8608 10.4531 23.5961L2.51837 19.1145C2.066 18.8521 1.68873 18.4777 1.42282 18.0274C1.15691 17.5771 1.01131 17.0659 1 16.5431C1.32274 16.8712 1.74398 17.0847 2.19943 17.1511C2.65488 17.2174 3.11953 17.1329 3.52245 16.9104Z" fill="url(#paint2_linear)"/>
</g>
<defs>
<linearGradient id="paint0_linear" x1="2.2098" y1="17.3316" x2="6.99755" y2="9.03933" gradientUnits="userSpaceOnUse">
<stop stop-color="#00DAD9"/>
<stop offset="1" stop-color="#095FA7"/>
</linearGradient>
<linearGradient id="paint1_linear" x1="8.51837" y1="1.45918" x2="14.0384" y2="11.02" gradientUnits="userSpaceOnUse">
<stop stop-color="#0BF7DF"/>
<stop offset="1" stop-color="#0095FF"/>
</linearGradient>
<linearGradient id="paint2_linear" x1="24.2261" y1="8.6794" x2="4.52408" y2="22.4745" gradientUnits="userSpaceOnUse">
<stop stop-color="#00FCC6"/>
<stop offset="1" stop-color="#0095FF"/>
</linearGradient>
<clipPath id="clip0">
<rect width="24" height="24" fill="white"/>
</clipPath>
</defs>
</svg>
