<svg width="24" height="24" viewBox="0 0 24 24" fill="none" xmlns="http://www.w3.org/2000/svg">
<g clip-path="url(#clip0)">
<path d="M17.1861 8.72719H15.6358V7.17715C15.6358 6.913 15.7407 6.65966 15.9275 6.47287C16.1143 6.28609 16.3676 6.18115 16.6318 6.18115H17.1861C17.4502 6.18115 17.7036 6.28609 17.8903 6.47287C18.0771 6.65966 18.1821 6.913 18.1821 7.17715V7.73155C18.182 7.99565 18.077 8.24889 17.8902 8.4356C17.7034 8.62231 17.4502 8.72719 17.1861 8.72719ZM8.36378 8.72719H6.81338C6.54923 8.72719 6.29589 8.62226 6.1091 8.43547C5.92232 8.24868 5.81738 7.99535 5.81738 7.73119V7.17715C5.81729 7.04633 5.84299 6.91677 5.89301 6.79589C5.94303 6.67501 6.01639 6.56517 6.10889 6.47266C6.2014 6.38016 6.31124 6.3068 6.43212 6.25678C6.553 6.20676 6.68256 6.18106 6.81338 6.18115H7.36778C7.63194 6.18115 7.88528 6.28609 8.07206 6.47287C8.25885 6.65966 8.36378 6.913 8.36378 7.17715V8.72719ZM7.36778 18.1818H6.8135C6.68271 18.1818 6.55319 18.156 6.43235 18.1059C6.31151 18.0559 6.20171 17.9825 6.10922 17.89C6.01674 17.7975 5.94337 17.6877 5.89332 17.5669C5.84327 17.4461 5.8175 17.3165 5.8175 17.1858V16.632C5.8175 16.5012 5.84327 16.3716 5.89332 16.2508C5.94337 16.13 6.01674 16.0202 6.10922 15.9277C6.20171 15.8352 6.31151 15.7618 6.43235 15.7118C6.55319 15.6617 6.68271 15.636 6.8135 15.636H8.36378V17.1858C8.36378 17.4499 8.25885 17.7032 8.07206 17.89C7.88528 18.0768 7.63194 18.1818 7.36778 18.1818ZM17.1861 18.1818H16.6318C16.3676 18.1818 16.1143 18.0768 15.9275 17.89C15.7407 17.7032 15.6358 17.4499 15.6358 17.1858V15.636H17.1857C17.4499 15.636 17.7032 15.7409 17.89 15.9277C18.0768 16.1145 18.1817 16.3678 18.1817 16.632V17.1864C18.1817 17.4505 18.0768 17.7038 17.89 17.8906C17.7032 18.0774 17.4499 18.1824 17.1857 18.1824" fill="#005FFF"/>
<path d="M12.4587 6.18203H11.9043C11.6402 6.18203 11.3868 6.0771 11.2001 5.89031C11.0133 5.70352 10.9083 5.45019 10.9083 5.18603V4.63223C10.9083 4.36807 11.0133 4.11474 11.2001 3.92795C11.3868 3.74117 11.6402 3.63623 11.9043 3.63623H12.4586C12.7228 3.63623 12.9761 3.74117 13.1629 3.92795C13.3497 4.11474 13.4546 4.36807 13.4546 4.63223V5.18663C13.4546 5.45079 13.3497 5.70412 13.1629 5.89091C12.9761 6.0777 12.7228 6.18263 12.4586 6.18263L12.4587 6.18203ZM12.4587 20.7275H11.9043C11.6402 20.7275 11.3868 20.6225 11.2001 20.4357C11.0133 20.249 10.9083 19.9956 10.9083 19.7315V19.1771C10.9083 18.9129 11.0133 18.6596 11.2001 18.4728C11.3868 18.286 11.6402 18.1811 11.9043 18.1811H12.4586C12.7228 18.1811 12.9761 18.286 13.1629 18.4728C13.3497 18.6596 13.4546 18.9129 13.4546 19.1771V19.7315C13.4546 19.9956 13.3497 20.249 13.1629 20.4357C12.9761 20.6225 12.7228 20.7275 12.4586 20.7275H12.4587ZM19.7315 13.4548H19.1772C18.913 13.4548 18.6597 13.3498 18.4729 13.163C18.2861 12.9762 18.1812 12.7229 18.1812 12.4587V11.9042C18.1812 11.6401 18.2861 11.3867 18.4729 11.2C18.6597 11.0132 18.913 10.9082 19.1772 10.9082H19.7315C19.9956 10.9082 20.249 11.0132 20.4357 11.2C20.6225 11.3867 20.7275 11.6401 20.7275 11.9042V12.4586C20.7275 12.7228 20.6225 12.9761 20.4357 13.1629C20.249 13.3497 19.9956 13.4546 19.7315 13.4546V13.4548ZM5.18602 13.4548H4.63174C4.36759 13.4548 4.11425 13.3498 3.92746 13.163C3.74068 12.9762 3.63574 12.7229 3.63574 12.4587V11.9042C3.63574 11.6401 3.74068 11.3867 3.92746 11.2C4.11425 11.0132 4.36759 10.9082 4.63174 10.9082H5.18602C5.31682 10.9082 5.44633 10.934 5.56717 10.984C5.68802 11.0341 5.79781 11.1075 5.8903 11.2C5.98279 11.2924 6.05615 11.4022 6.10621 11.5231C6.15626 11.6439 6.18202 11.7734 6.18202 11.9042V12.4586C6.18202 12.5894 6.15626 12.7189 6.10621 12.8398C6.05615 12.9606 5.98279 13.0704 5.8903 13.1629C5.79781 13.2554 5.68802 13.3288 5.56717 13.3788C5.44633 13.4289 5.31682 13.4546 5.18602 13.4546" fill="#00CCEE"/>
<path d="M14.9637 21.7326C14.9087 21.5997 14.8943 21.4535 14.9223 21.3125C14.9503 21.1714 15.0196 21.0419 15.1212 20.9402C15.2229 20.8385 15.3524 20.7692 15.4935 20.7412C15.6345 20.7131 15.7807 20.7275 15.9136 20.7825C16.0464 20.8375 16.16 20.9307 16.2399 21.0502C16.3198 21.1698 16.3625 21.3103 16.3625 21.4541C16.3625 21.5979 16.3199 21.7385 16.24 21.8581C16.1602 21.9777 16.0466 22.0709 15.9138 22.1259C15.7356 22.1997 15.5355 22.1997 15.3573 22.1259C15.1792 22.0522 15.0376 21.9107 14.9637 21.7326ZM7.32801 3.18705C7.27296 3.0542 7.25855 2.90802 7.28658 2.76697C7.31462 2.62593 7.38385 2.49637 7.48552 2.39467C7.58719 2.29297 7.71673 2.22371 7.85776 2.19563C7.9988 2.16756 8.14499 2.18193 8.27786 2.23695C8.41072 2.29196 8.52429 2.38513 8.6042 2.50469C8.68411 2.62424 8.72677 2.76481 8.72679 2.90861C8.72681 3.05242 8.68419 3.193 8.60432 3.31257C8.52444 3.43215 8.4109 3.52536 8.27805 3.58041C8.0999 3.65417 7.89975 3.65417 7.7216 3.5804C7.54345 3.50664 7.40188 3.36516 7.32801 3.18705ZM21.3689 9.03573C21.236 9.09078 21.0898 9.1052 20.9488 9.07717C20.8077 9.04913 20.6782 8.9799 20.5765 8.87823C20.4748 8.77656 20.4055 8.64702 20.3774 8.50598C20.3494 8.36495 20.3637 8.21876 20.4187 8.08589C20.4738 7.95303 20.5669 7.83946 20.6865 7.75955C20.806 7.67964 20.9466 7.63698 21.0904 7.63696C21.2342 7.63693 21.3748 7.67956 21.4944 7.75943C21.614 7.83931 21.7072 7.95285 21.7622 8.08569C21.836 8.26385 21.836 8.46399 21.7622 8.64214C21.6884 8.82029 21.547 8.96186 21.3689 9.03573ZM3.18705 16.6715C3.0542 16.7265 2.90802 16.7409 2.76697 16.7129C2.62593 16.6848 2.49637 16.6156 2.39467 16.514C2.29297 16.4123 2.22371 16.2827 2.19563 16.1417C2.16756 16.0007 2.18193 15.8545 2.23695 15.7216C2.29196 15.5887 2.38513 15.4752 2.50469 15.3953C2.62424 15.3154 2.76481 15.2727 2.90861 15.2727C3.05242 15.2727 3.193 15.3153 3.31257 15.3952C3.43215 15.475 3.52536 15.5886 3.58041 15.7214C3.65417 15.8996 3.65417 16.0997 3.5804 16.2779C3.50664 16.456 3.36516 16.5976 3.18705 16.6715Z" fill="#005FFF"/>
<path d="M20.8122 16.6719C20.6794 16.6169 20.5658 16.5237 20.4859 16.4041C20.4061 16.2845 20.3634 16.144 20.3634 16.0002C20.3634 15.8564 20.4061 15.7158 20.486 15.5962C20.5659 15.4767 20.6794 15.3835 20.8123 15.3285C20.9452 15.2734 21.0913 15.259 21.2324 15.2871C21.3734 15.3152 21.503 15.3844 21.6046 15.4861C21.7063 15.5878 21.7756 15.7173 21.8036 15.8584C21.8317 15.9994 21.8173 16.1456 21.7623 16.2784C21.7257 16.3667 21.6722 16.4468 21.6047 16.5144C21.5371 16.5819 21.457 16.6355 21.3688 16.672C21.2805 16.7085 21.186 16.7273 21.0905 16.7273C20.995 16.7273 20.9004 16.7085 20.8122 16.6719ZM2.63042 9.03619C2.49757 8.98115 2.38403 8.88795 2.30415 8.76838C2.22426 8.64881 2.18163 8.50824 2.18164 8.36444C2.18165 8.22064 2.2243 8.08007 2.3042 7.96051C2.38409 7.84095 2.49765 7.74776 2.6305 7.69274C2.76336 7.63771 2.90955 7.62332 3.05058 7.65137C3.19162 7.67943 3.32117 7.74868 3.42285 7.85036C3.52453 7.95204 3.59377 8.0816 3.62183 8.22263C3.64988 8.36367 3.63549 8.50986 3.58046 8.64271C3.54393 8.73094 3.49038 8.81111 3.42286 8.87864C3.35534 8.94617 3.27518 8.99973 3.18696 9.03627C3.09873 9.07281 3.00417 9.09161 2.90868 9.0916C2.81319 9.09158 2.71863 9.07276 2.63042 9.03619ZM16.3075 3.18751C16.2525 3.32036 16.1593 3.4339 16.0397 3.51378C15.9202 3.59367 15.7796 3.6363 15.6358 3.63629C15.492 3.63628 15.3514 3.59363 15.2319 3.51373C15.1123 3.43384 15.0191 3.32028 14.9641 3.18743C14.9091 3.05457 14.8947 2.90838 14.9227 2.76735C14.9508 2.62631 15.02 2.49676 15.1217 2.39508C15.2234 2.2934 15.3529 2.22415 15.494 2.1961C15.635 2.16805 15.7812 2.18244 15.9141 2.23747C16.0023 2.274 16.0825 2.32755 16.15 2.39507C16.2175 2.46259 16.2711 2.54275 16.3076 2.63097C16.3442 2.7192 16.363 2.81376 16.3629 2.90925C16.3629 3.00474 16.3441 3.0993 16.3075 3.18751ZM8.67134 21.733C8.6163 21.8659 8.5231 21.9794 8.40353 22.0593C8.28396 22.1392 8.14338 22.1818 7.99958 22.1818C7.85578 22.1818 7.71522 22.1392 7.59566 22.0593C7.4761 21.9794 7.38291 21.8658 7.32789 21.7329C7.27286 21.6001 7.25847 21.4539 7.28652 21.3129C7.31458 21.1718 7.38383 21.0423 7.48551 20.9406C7.58719 20.8389 7.71674 20.7697 7.85778 20.7416C7.99882 20.7136 8.145 20.728 8.27786 20.783C8.36609 20.8195 8.44626 20.8731 8.51379 20.9406C8.58132 21.0081 8.63488 21.0883 8.67142 21.1765C8.70796 21.2647 8.72676 21.3593 8.72675 21.4548C8.72673 21.5503 8.70791 21.6448 8.67134 21.733Z" fill="#002DAE"/>
<path d="M19.7425 20.6205C19.6917 20.5697 19.657 20.5049 19.643 20.4343C19.629 20.3638 19.6362 20.2907 19.6637 20.2243C19.6912 20.1578 19.7378 20.101 19.7976 20.0611C19.8574 20.0211 19.9277 19.9998 19.9996 19.9998C20.0715 19.9998 20.1418 20.0211 20.2016 20.0611C20.2614 20.101 20.308 20.1578 20.3356 20.2243C20.3631 20.2907 20.3703 20.3638 20.3562 20.4343C20.3422 20.5049 20.3076 20.5697 20.2567 20.6205C20.223 20.6543 20.1829 20.6811 20.1388 20.6994C20.0947 20.7176 20.0474 20.727 19.9996 20.727C19.9519 20.727 19.9046 20.7176 19.8605 20.6994C19.8164 20.6811 19.7763 20.6543 19.7425 20.6205ZM3.37897 4.25694C3.32812 4.20609 3.29349 4.1413 3.27946 4.07077C3.26543 4.00024 3.27263 3.92713 3.30015 3.86069C3.32767 3.79425 3.37427 3.73746 3.43406 3.69751C3.49386 3.65756 3.56416 3.63623 3.63607 3.63623C3.70798 3.63623 3.77828 3.65756 3.83808 3.69751C3.89787 3.73746 3.94447 3.79425 3.97199 3.86069C3.99951 3.92713 4.00671 4.00024 3.99268 4.07077C3.97865 4.1413 3.94402 4.20609 3.89317 4.25694C3.85941 4.29072 3.81933 4.31751 3.77522 4.33579C3.73111 4.35407 3.68382 4.36348 3.63607 4.36348C3.58832 4.36348 3.54103 4.35407 3.49692 4.33579C3.4528 4.31751 3.41272 4.29072 3.37897 4.25694ZM20.2567 4.25694C20.2059 4.30779 20.1411 4.34242 20.0706 4.35645C20 4.37048 19.9269 4.36328 19.8605 4.33576C19.794 4.30824 19.7373 4.26164 19.6973 4.20185C19.6573 4.14205 19.636 4.07175 19.636 3.99984C19.636 3.92792 19.6573 3.85763 19.6973 3.79783C19.7373 3.73804 19.794 3.69143 19.8605 3.66391C19.9269 3.6364 20 3.6292 20.0706 3.64323C20.1411 3.65726 20.2059 3.69189 20.2567 3.74274C20.2905 3.77649 20.3173 3.81657 20.3356 3.86069C20.3539 3.9048 20.3633 3.95209 20.3633 3.99984C20.3633 4.04759 20.3539 4.09487 20.3356 4.13899C20.3173 4.1831 20.2905 4.22318 20.2567 4.25694ZM3.89317 20.6205C3.84232 20.6714 3.77753 20.706 3.707 20.72C3.63647 20.734 3.56336 20.7268 3.49692 20.6993C3.43048 20.6718 3.37369 20.6252 3.33374 20.5654C3.29379 20.5056 3.27246 20.4353 3.27246 20.3634C3.27246 20.2915 3.29379 20.2212 3.33374 20.1614C3.37369 20.1016 3.43048 20.055 3.49692 20.0275C3.56336 20 3.63647 19.9928 3.707 20.0068C3.77753 20.0208 3.84232 20.0554 3.89317 20.1063C3.92695 20.1401 3.95374 20.1801 3.97202 20.2243C3.9903 20.2684 3.99971 20.3156 3.99971 20.3634C3.99971 20.4112 3.9903 20.4584 3.97202 20.5026C3.95374 20.5467 3.92695 20.5867 3.89317 20.6205Z" fill="#0099C0"/>
<path d="M23.636 12.3634C23.5641 12.3634 23.4938 12.3421 23.434 12.3022C23.3743 12.2622 23.3277 12.2054 23.3001 12.139C23.2726 12.0725 23.2654 11.9994 23.2794 11.9289C23.2935 11.8584 23.3281 11.7936 23.3789 11.7427C23.4298 11.6919 23.4946 11.6572 23.5651 11.6432C23.6356 11.6292 23.7087 11.6364 23.7752 11.6639C23.8416 11.6914 23.8984 11.738 23.9383 11.7978C23.9783 11.8576 23.9996 11.9279 23.9996 11.9998C23.9996 12.0963 23.9613 12.1887 23.8931 12.2569C23.8249 12.3251 23.7324 12.3634 23.636 12.3634Z" fill="#0029C0"/>
<path d="M0.3636 12.3634C0.291687 12.3634 0.221389 12.3421 0.161595 12.3022C0.101801 12.2622 0.0551976 12.2054 0.0276776 12.139C0.000157542 12.0725 -0.00704295 11.9994 0.00698664 11.9289C0.0210162 11.8584 0.0556458 11.7936 0.106496 11.7427C0.157347 11.6919 0.222134 11.6572 0.292665 11.6432C0.363197 11.6292 0.436305 11.6364 0.502744 11.6639C0.569183 11.6914 0.62597 11.738 0.665923 11.7978C0.705875 11.8576 0.7272 11.9279 0.7272 11.9998C0.727168 12.0963 0.68885 12.1887 0.620669 12.2569C0.552488 12.3251 0.460023 12.3634 0.3636 12.3634Z" fill="#0029C0"/>
<path d="M12.3639 0.3636C12.3639 0.435513 12.3426 0.505812 12.3026 0.565605C12.2627 0.625399 12.2059 0.672003 12.1395 0.699523C12.073 0.727043 11.9999 0.734243 11.9294 0.720214C11.8589 0.706184 11.7941 0.671554 11.7432 0.620704C11.6924 0.569854 11.6577 0.505066 11.6437 0.434535C11.6297 0.364003 11.6369 0.290896 11.6644 0.224456C11.6919 0.158017 11.7385 0.101231 11.7983 0.0612776C11.8581 0.0213248 11.9284 0 12.0003 0C12.0967 3.1807e-05 12.1892 0.0383498 12.2574 0.106531C12.3256 0.174712 12.3639 0.267177 12.3639 0.3636Z" fill="#0029C0"/>
<path d="M12.3639 23.6366C12.3639 23.7085 12.3426 23.7788 12.3026 23.8386C12.2627 23.8984 12.2059 23.945 12.1395 23.9725C12.073 24.0001 11.9999 24.0073 11.9294 23.9932C11.8589 23.9792 11.7941 23.9446 11.7432 23.8937C11.6924 23.8429 11.6577 23.7781 11.6437 23.7075C11.6297 23.637 11.6369 23.5639 11.6644 23.4974C11.6919 23.431 11.7385 23.3742 11.7983 23.3342C11.8581 23.2943 11.9284 23.2729 12.0003 23.2729C12.0967 23.273 12.1892 23.3113 12.2574 23.3795C12.3256 23.4477 12.3639 23.5401 12.3639 23.6366Z" fill="#0029C0"/>
<path d="M14.4269 10.7878H14.9698C15.1466 10.7876 15.3161 10.7173 15.4411 10.5923C15.5661 10.4672 15.6363 10.2976 15.6363 10.1208V8.36377H13.8793C13.7025 8.36377 13.5329 8.434 13.4078 8.55903C13.2827 8.68405 13.2124 8.85363 13.2123 9.03049V9.57577C13.2123 9.89721 13.0846 10.2055 12.8573 10.4328C12.63 10.6601 12.3217 10.7878 12.0003 10.7878C11.6788 10.7878 11.3705 10.6601 11.1432 10.4328C10.916 10.2055 10.7883 9.89721 10.7883 9.57577V9.00637C10.7881 8.8359 10.7203 8.67245 10.5997 8.55195C10.4791 8.43146 10.3156 8.36377 10.1452 8.36377H8.36426V15.6358H10.1319C10.3059 15.6357 10.4728 15.5665 10.5959 15.4434C10.719 15.3204 10.7882 15.1534 10.7883 14.9794V14.4238C10.7883 14.1023 10.916 13.7941 11.1432 13.5668C11.3705 13.3395 11.6788 13.2118 12.0003 13.2118V13.2142C12.3217 13.2142 12.63 13.3419 12.8573 13.5692C13.0846 13.7965 13.2123 14.1047 13.2123 14.4262V14.9742C13.2123 15.1497 13.282 15.318 13.4061 15.4421C13.5301 15.5662 13.6984 15.6359 13.8739 15.6359H15.6363V13.8736C15.6363 13.7867 15.6191 13.7006 15.5859 13.6204C15.5526 13.5401 15.5039 13.4671 15.4425 13.4057C15.381 13.3442 15.3081 13.2955 15.2278 13.2623C15.1475 13.229 15.0615 13.2119 14.9746 13.2119H14.4243C14.1028 13.2119 13.7945 13.0842 13.5672 12.8569C13.34 12.6296 13.2123 12.3213 13.2123 11.9999H13.2147C13.2147 11.6784 13.3424 11.3702 13.5696 11.1429C13.7969 10.9156 14.1052 10.7879 14.4267 10.7879" fill="#003EC5"/>
</g>
<defs>
<clipPath id="clip0">
<rect width="24" height="24" fill="white"/>
</clipPath>
</defs>
</svg>
