<svg width="24" height="24" viewBox="0 0 24 24" fill="none" xmlns="http://www.w3.org/2000/svg">
<path d="M12 24C18.6274 24 24 18.6274 24 12C24 5.37258 18.6274 0 12 0C5.37258 0 0 5.37258 0 12C0 18.6274 5.37258 24 12 24Z" fill="#00AEEF"/>
<path d="M11.82 11.0296C11.9985 10.9988 12.156 10.9321 12.294 10.8308C12.432 10.7296 12.5625 10.5586 12.6848 10.3246L15.4035 5.08434C15.51 4.90884 15.6405 4.76934 15.7905 4.65984C15.9446 4.55324 16.1281 4.49739 16.3155 4.50009H18.0397L14.6542 10.6636C14.5042 10.9171 14.334 11.1233 14.1442 11.2831C13.9547 11.4407 13.7385 11.5634 13.506 11.6453C13.869 11.7391 14.1728 11.8913 14.421 12.1051C14.6655 12.3151 14.8987 12.6121 15.1155 12.9938L18.375 19.5001H16.4775C16.0942 19.5001 15.786 19.2938 15.5535 18.8851L12.882 13.3718C12.744 13.1258 12.594 12.9511 12.432 12.8453C12.2708 12.7403 12.0652 12.6781 11.8207 12.6623V15.4598H10.329V12.6503H9.2325V19.5001H7.125V4.50009H9.2325V11.0536H10.329V7.81209H11.8207V11.0296H11.82Z" fill="white"/>
</svg>
