<svg width="24" height="24" viewBox="0 0 24 24" fill="none" xmlns="http://www.w3.org/2000/svg">
<g clip-path="url(#clip0)">
<path d="M23.9729 0.0273438H0.0273438V23.9729H23.9729V0.0273438Z" fill="black" stroke="black" stroke-miterlimit="10"/>
<path d="M20.3319 6.93368C20.0489 6.71055 19.7115 6.40579 19.0965 6.3296C18.5196 6.25341 17.9319 6.6398 17.5346 6.89558C17.1373 7.15137 16.3863 7.90239 16.0761 8.13096C15.7659 8.35953 14.9713 8.57178 13.6924 9.33913C12.4135 10.1065 7.39584 13.3282 7.39584 13.3282L8.70196 13.3446L2.87883 16.3432H3.46114L2.62305 16.98C2.62305 16.98 3.36318 17.1759 3.98359 16.784V16.9636C3.98359 16.9636 10.9169 14.2317 12.2557 14.9391L11.4394 15.1786C11.5101 15.1786 12.8271 15.2657 12.8271 15.2657C12.8591 15.5384 12.9508 15.8007 13.0956 16.034C13.2405 16.2673 13.435 16.4657 13.6652 16.6153C14.4598 17.1378 14.4761 17.4262 14.4761 17.4262C14.4761 17.4262 14.0625 17.5949 14.0625 17.8072C14.0625 17.8072 14.672 17.6221 15.238 17.6385C15.5972 17.6521 15.9535 17.7087 16.2992 17.8072C16.2992 17.8072 16.2557 17.5786 15.706 17.4262C15.1564 17.2738 14.6122 16.6752 14.3455 16.3487C14.1822 16.1408 14.0757 15.8941 14.0366 15.6326C13.9975 15.3712 14.027 15.1041 14.1224 14.8575C14.3128 14.3623 14.9768 14.0902 16.3482 13.3827C17.9645 12.5446 18.3346 11.9242 18.5632 11.4398C18.7918 10.9555 19.1292 9.99219 19.3196 9.54049C19.5591 8.95817 19.853 8.64797 20.0979 8.46293C20.3428 8.2779 21.4312 7.86974 21.4312 7.86974C21.4312 7.86974 20.5986 7.14592 20.3319 6.93368Z" fill="white"/>
</g>
<defs>
<clipPath id="clip0">
<rect width="24" height="24" fill="white"/>
</clipPath>
</defs>
</svg>
