<svg width="24" height="24" viewBox="0 0 24 24" fill="none" xmlns="http://www.w3.org/2000/svg">
<path d="M9.78276 23.8982L12.8946 20.3999C12.9556 20.3389 12.915 20.2575 12.8336 20.2575H9.39632C9.37598 20.2575 9.3353 20.2372 9.3353 20.2168L6.42682 16.9626C6.40649 16.9219 6.38615 16.9016 6.40649 16.8609L11.2878 8.50157C11.3082 8.46089 11.3082 8.44055 11.2878 8.42021L9.27428 4.94225C9.2336 4.88123 9.15225 4.88123 9.11157 4.94225L1.89123 17.3083C1.87089 17.349 1.87089 17.3694 1.89123 17.41L7.68784 23.9185C7.70818 23.9389 7.72852 23.9592 7.74886 23.9592H9.72174C9.72174 23.9389 9.76242 23.9185 9.78276 23.8982Z" fill="#003265"/>
<path d="M11.9183 0.101544L9.88439 3.57951C9.86406 3.62019 9.86406 3.64053 9.88439 3.66087L11.9996 7.26087L17.5725 16.8405C17.5929 16.8812 17.5929 16.9015 17.5522 16.9422L14.603 20.2371L11.4708 23.7761C11.4098 23.8371 11.4505 23.9185 11.5319 23.9185H16.2302C16.2505 23.9185 16.2912 23.8982 16.2912 23.8778L22.0878 17.3693C22.1081 17.3287 22.1285 17.3083 22.1081 17.2676L12.0607 0.101544C12.0403 0.0201884 11.959 0.0201884 11.9183 0.101544Z" fill="#003265"/>
</svg>
