<svg width="24" height="24" viewBox="0 0 24 24" fill="none" xmlns="http://www.w3.org/2000/svg">
<mask id="mask0" mask-type="alpha" maskUnits="userSpaceOnUse" x="1" y="0" width="22" height="24">
<path d="M22.6043 7.17779C22.6039 6.85503 22.2506 6.6569 21.975 6.8248L13.8569 11.4671C13.9503 11.6949 14.0026 11.9438 14.0026 12.2052C14.0026 12.413 13.9694 12.6128 13.9092 12.8005L16.1824 14.0009C16.5391 13.5432 17.094 13.2477 17.7191 13.2477C18.7955 13.2477 19.6681 14.1202 19.6681 15.1966C19.6681 16.273 18.7955 17.1456 17.7191 17.1456C16.6428 17.1456 15.7702 16.273 15.7702 15.1966C15.7702 14.9889 15.8034 14.7891 15.8636 14.6013L13.5904 13.4011C13.311 13.7594 12.9105 14.0187 12.4491 14.1138L12.307 23.5686C12.298 23.8929 12.6485 24.101 12.9288 23.938L22.619 18.3052L22.6043 7.17779ZM10.5247 13.4114L8.32983 14.5892C8.39259 14.7804 8.4277 14.9843 8.4277 15.1966C8.4277 16.273 7.55513 17.1456 6.47872 17.1456C5.40241 17.1456 4.52983 16.273 4.52983 15.1966C4.52983 14.1202 5.40241 13.2477 6.47872 13.2477C7.09924 13.2477 7.65077 13.5386 8.0077 13.9904L10.2026 12.8127C10.1398 12.6214 10.1047 12.4175 10.1047 12.2052C10.1047 11.9414 10.1577 11.69 10.2527 11.4605L2.08589 6.74293C1.80963 6.57306 1.45415 6.77249 1.45508 7.0968L1.48828 18.3052L11.1322 23.8561C11.4119 24.0171 11.7601 23.8103 11.7525 23.4876L11.6505 14.1119C11.1967 14.0164 10.8021 13.7626 10.5247 13.4114ZM11.7137 10.2878C11.3186 10.3574 10.9644 10.5449 10.6897 10.8142L2.43337 6.30324C2.15015 6.14849 2.14511 5.7435 2.42443 5.58173L12.0536 0.00537109L21.7769 5.58085C22.0583 5.7422 22.0533 6.14973 21.768 6.30407L13.4226 10.8188C13.1472 10.5469 12.791 10.3578 12.3935 10.2878V7.86792C13.3075 7.70677 14.0026 6.91067 14.0026 5.95046C14.0026 4.87415 13.13 4.00153 12.0536 4.00153C10.9773 4.00153 10.1047 4.87415 10.1047 5.95046C10.1047 6.91067 10.7997 7.70677 11.7137 7.86792V10.2878Z" fill="white"/>
</mask>
<g mask="url(#mask0)">
<path fill-rule="evenodd" clip-rule="evenodd" d="M22.6043 7.17779C22.6039 6.85503 22.2506 6.6569 21.975 6.8248L13.8569 11.4671C13.9503 11.6949 14.0026 11.9438 14.0026 12.2052C14.0026 12.413 13.9694 12.6128 13.9092 12.8005L16.1824 14.0009C16.5391 13.5432 17.094 13.2477 17.7191 13.2477C18.7955 13.2477 19.6681 14.1202 19.6681 15.1966C19.6681 16.273 18.7955 17.1456 17.7191 17.1456C16.6428 17.1456 15.7702 16.273 15.7702 15.1966C15.7702 14.9889 15.8034 14.7891 15.8636 14.6013L13.5904 13.4011C13.311 13.7594 12.9105 14.0187 12.4491 14.1138L12.307 23.5686C12.298 23.8929 12.6485 24.101 12.9288 23.938L22.619 18.3052L22.6043 7.17779ZM10.5247 13.4114L8.32983 14.5892C8.39259 14.7804 8.4277 14.9843 8.4277 15.1966C8.4277 16.273 7.55513 17.1456 6.47872 17.1456C5.40241 17.1456 4.52983 16.273 4.52983 15.1966C4.52983 14.1202 5.40241 13.2477 6.47872 13.2477C7.09924 13.2477 7.65077 13.5386 8.0077 13.9904L10.2026 12.8127C10.1398 12.6214 10.1047 12.4175 10.1047 12.2052C10.1047 11.9414 10.1577 11.69 10.2527 11.4605L2.08589 6.74293C1.80963 6.57306 1.45415 6.77249 1.45508 7.0968L1.48828 18.3052L11.1322 23.8561C11.4119 24.0171 11.7601 23.8103 11.7525 23.4876L11.6505 14.1119C11.1967 14.0164 10.8021 13.7626 10.5247 13.4114ZM11.7137 10.2878C11.3186 10.3574 10.9644 10.5449 10.6897 10.8142L2.43337 6.30324C2.15015 6.14849 2.14511 5.7435 2.42443 5.58173L12.0536 0.00537109L21.7769 5.58085C22.0583 5.7422 22.0533 6.14973 21.768 6.30407L13.4226 10.8188C13.1472 10.5469 12.791 10.3578 12.3935 10.2878V7.86792C13.3075 7.70677 14.0026 6.91067 14.0026 5.95046C14.0026 4.87415 13.13 4.00153 12.0536 4.00153C10.9773 4.00153 10.1047 4.87415 10.1047 5.95046C10.1047 6.91067 10.7997 7.70677 11.7137 7.86792V10.2878Z" fill="url(#paint0_linear)"/>
</g>
<defs>
<linearGradient id="paint0_linear" x1="4.10982" y1="6.29607" x2="21.431" y2="16.2964" gradientUnits="userSpaceOnUse">
<stop stop-color="#F75B60"/>
<stop offset="1" stop-color="#F14F1B"/>
</linearGradient>
</defs>
</svg>
