<svg width="24" height="24" viewBox="0 0 24 24" fill="none" xmlns="http://www.w3.org/2000/svg">
<path d="M9.31104 10.7635L12.0001 16.6268L15.9942 14.3566H16.0018V9.81348L9.31104 10.7635Z" fill="#2BBDF7"/>
<path d="M21.16 6.40643L18.6676 5.48453L16.0015 5.27002V9.81311V19.4254L20.0006 21.6982L23.1902 15.2985L21.1677 9.14148L21.16 6.40643Z" fill="#2891F9"/>
<path d="M20.928 5.27002L20.001 7.54284V21.6624L24.0001 19.3896V5.27002H20.928Z" fill="#2BBDF7"/>
<path d="M20.0006 3L16.0015 5.27027L20.0006 7.54309L23.9998 5.27027L20.0006 3Z" fill="#2B6DEF"/>
<path d="M12 12.0834L8.00085 7.67053L0 5.27002V19.3896L3.99915 21.6624L5.14578 13.848L8.00085 14.3562L12 16.6265V12.0834Z" fill="#2891F9"/>
<path d="M3.99915 3L0 5.27027L12 12.0836L13.8132 11.057L16.0017 9.81336L3.99915 3Z" fill="#2B6DEF"/>
<path d="M3.99902 12.0835V21.6626L8.00073 19.3897V14.3563L3.99902 12.0835Z" fill="#2BBDF7"/>
</svg>
