<svg width="24" height="24" viewBox="0 0 24 24" fill="none" xmlns="http://www.w3.org/2000/svg">
<path d="M12 24C18.6274 24 24 18.6274 24 12C24 5.37258 18.6274 0 12 0C5.37258 0 0 5.37258 0 12C0 18.6274 5.37258 24 12 24Z" fill="#1E252C"/>
<path d="M10.665 11.6919C10.3652 11.6919 10.0778 11.5728 9.86579 11.3608C9.65383 11.1489 9.53475 10.8614 9.53475 10.5616C9.53475 10.2619 9.65383 9.97437 9.86579 9.76241C10.0778 9.55044 10.3652 9.43136 10.665 9.43136C10.9648 9.43136 11.2522 9.55044 11.4642 9.76241C11.6762 9.97437 11.7952 10.2619 11.7952 10.5616C11.7952 10.8614 11.6762 11.1489 11.4642 11.3608C11.2522 11.5728 10.9648 11.6919 10.665 11.6919ZM13.4385 11.6919C13.1387 11.6919 12.8513 11.5728 12.6393 11.3608C12.4273 11.1489 12.3082 10.8614 12.3082 10.5616C12.3082 10.2619 12.4273 9.97437 12.6393 9.76241C12.8513 9.55044 13.1387 9.43136 13.4385 9.43136C13.7383 9.43136 14.0257 9.55044 14.2377 9.76241C14.4497 9.97437 14.5687 10.2619 14.5687 10.5616C14.5687 10.8614 14.4497 11.1489 14.2377 11.3608C14.0257 11.5728 13.7383 11.6919 13.4385 11.6919ZM10.6642 14.4661C10.3645 14.4661 10.077 14.347 9.86504 14.1351C9.65308 13.9231 9.534 13.6356 9.534 13.3359C9.534 13.0361 9.65308 12.7486 9.86504 12.5367C10.077 12.3247 10.3645 12.2056 10.6642 12.2056C10.964 12.2056 11.2515 12.3247 11.4635 12.5367C11.6754 12.7486 11.7945 13.0361 11.7945 13.3359C11.7945 13.6356 11.6754 13.9231 11.4635 14.1351C11.2515 14.347 10.964 14.4661 10.6642 14.4661ZM13.4385 14.4661C13.1387 14.4661 12.8513 14.347 12.6393 14.1351C12.4273 13.9231 12.3082 13.6356 12.3082 13.3359C12.3082 13.0361 12.4273 12.7486 12.6393 12.5367C12.8513 12.3247 13.1387 12.2056 13.4385 12.2056C13.7383 12.2056 14.0257 12.3247 14.2377 12.5367C14.4497 12.7486 14.5687 13.0361 14.5687 13.3359C14.5687 13.6356 14.4497 13.9231 14.2377 14.1351C14.0257 14.347 13.7383 14.4661 13.4385 14.4661ZM16.212 11.3836C16.1041 11.3836 15.9972 11.3624 15.8974 11.321C15.7977 11.2797 15.7071 11.2192 15.6308 11.1429C15.5544 11.0665 15.4939 10.9759 15.4526 10.8762C15.4113 10.7765 15.39 10.6696 15.39 10.5616C15.39 10.4537 15.4113 10.3468 15.4526 10.247C15.4939 10.1473 15.5544 10.0567 15.6308 9.98037C15.7071 9.90404 15.7977 9.84349 15.8974 9.80219C15.9972 9.76088 16.1041 9.73961 16.212 9.73961C16.43 9.73961 16.6391 9.82622 16.7932 9.98037C16.9474 10.1345 17.034 10.3436 17.034 10.5616C17.034 10.7796 16.9474 10.9887 16.7932 11.1429C16.6391 11.297 16.43 11.3836 16.212 11.3836ZM16.212 14.1579C15.994 14.1579 15.7849 14.0713 15.6308 13.9171C15.4766 13.763 15.39 13.5539 15.39 13.3359C15.39 13.1179 15.4766 12.9088 15.6308 12.7546C15.7849 12.6005 15.994 12.5139 16.212 12.5139C16.43 12.5139 16.6391 12.6005 16.7932 12.7546C16.9474 12.9088 17.034 13.1179 17.034 13.3359C17.034 13.5539 16.9474 13.763 16.7932 13.9171C16.6391 14.0713 16.43 14.1579 16.212 14.1579ZM7.788 11.3836C7.56999 11.3836 7.36091 11.297 7.20676 11.1429C7.0526 10.9887 6.966 10.7796 6.966 10.5616C6.966 10.3436 7.0526 10.1345 7.20676 9.98037C7.36091 9.82622 7.56999 9.73961 7.788 9.73961C8.00601 9.73961 8.21509 9.82622 8.36924 9.98037C8.5234 10.1345 8.61 10.3436 8.61 10.5616C8.61 10.7796 8.5234 10.9887 8.36924 11.1429C8.21509 11.297 8.00601 11.3836 7.788 11.3836ZM7.788 14.1579C7.56999 14.1579 7.36091 14.0713 7.20676 13.9171C7.0526 13.763 6.966 13.5539 6.966 13.3359C6.966 13.1179 7.0526 12.9088 7.20676 12.7546C7.36091 12.6005 7.56999 12.5139 7.788 12.5139C8.00601 12.5139 8.21509 12.6005 8.36924 12.7546C8.5234 12.9088 8.61 13.1179 8.61 13.3359C8.61 13.5539 8.5234 13.763 8.36924 13.9171C8.21509 14.0713 8.00601 14.1579 7.788 14.1579ZM10.6642 16.9314C10.5543 16.9347 10.4447 16.9159 10.3421 16.8761C10.2396 16.8363 10.146 16.7763 10.067 16.6997C9.98805 16.6231 9.92527 16.5314 9.88239 16.43C9.83952 16.3287 9.81742 16.2198 9.81742 16.1097C9.81742 15.9997 9.83952 15.8908 9.88239 15.7894C9.92527 15.6881 9.98805 15.5964 10.067 15.5198C10.146 15.4432 10.2396 15.3832 10.3421 15.3434C10.4447 15.3036 10.5543 15.2848 10.6642 15.2881C10.8779 15.2946 11.0806 15.384 11.2294 15.5373C11.3782 15.6907 11.4614 15.896 11.4614 16.1097C11.4614 16.3234 11.3782 16.5288 11.2294 16.6821C11.0806 16.8355 10.8779 16.9249 10.6642 16.9314ZM13.4385 16.9314C13.3285 16.9347 13.219 16.9159 13.1164 16.8761C13.0138 16.8363 12.9202 16.7763 12.8413 16.6997C12.7623 16.6231 12.6995 16.5314 12.6566 16.43C12.6138 16.3287 12.5917 16.2198 12.5917 16.1097C12.5917 15.9997 12.6138 15.8908 12.6566 15.7894C12.6995 15.6881 12.7623 15.5964 12.8413 15.5198C12.9202 15.4432 13.0138 15.3832 13.1164 15.3434C13.219 15.3036 13.3285 15.2848 13.4385 15.2881C13.6521 15.2946 13.8548 15.384 14.0036 15.5373C14.1524 15.6907 14.2357 15.896 14.2357 16.1097C14.2357 16.3234 14.1524 16.5288 14.0036 16.6821C13.8548 16.8355 13.6521 16.9249 13.4385 16.9314ZM10.6642 8.61011C10.5543 8.61344 10.4447 8.59464 10.3421 8.55485C10.2396 8.51505 10.146 8.45507 10.067 8.37844C9.98805 8.30182 9.92527 8.21012 9.88239 8.10878C9.83952 8.00744 9.81742 7.89852 9.81742 7.78849C9.81742 7.67845 9.83952 7.56954 9.88239 7.4682C9.92527 7.36686 9.98805 7.27516 10.067 7.19853C10.146 7.12191 10.2396 7.06192 10.3421 7.02213C10.4447 6.98233 10.5543 6.96354 10.6642 6.96686C10.8779 6.97332 11.0806 7.06271 11.2294 7.21609C11.3782 7.36947 11.4614 7.57478 11.4614 7.78849C11.4614 8.0022 11.3782 8.20751 11.2294 8.36089C11.0806 8.51427 10.8779 8.60366 10.6642 8.61011ZM13.4385 8.61011C13.3285 8.61344 13.219 8.59464 13.1164 8.55485C13.0138 8.51505 12.9202 8.45507 12.8413 8.37844C12.7623 8.30182 12.6995 8.21012 12.6566 8.10878C12.6138 8.00744 12.5917 7.89852 12.5917 7.78849C12.5917 7.67845 12.6138 7.56954 12.6566 7.4682C12.6995 7.36686 12.7623 7.27516 12.8413 7.19853C12.9202 7.12191 13.0138 7.06192 13.1164 7.02213C13.219 6.98233 13.3285 6.96354 13.4385 6.96686C13.6521 6.97332 13.8548 7.06271 14.0036 7.21609C14.1524 7.36947 14.2357 7.57478 14.2357 7.78849C14.2357 8.0022 14.1524 8.20751 14.0036 8.36089C13.8548 8.51427 13.6521 8.60366 13.4385 8.61011ZM10.6642 5.52761C10.5952 5.53025 10.5263 5.51893 10.4617 5.49432C10.3971 5.46971 10.3382 5.43232 10.2884 5.38439C10.2386 5.33646 10.1989 5.27897 10.1719 5.21537C10.1448 5.15177 10.1309 5.08336 10.1309 5.01424C10.1309 4.94512 10.1448 4.87671 10.1719 4.81311C10.1989 4.74951 10.2386 4.69202 10.2884 4.64409C10.3382 4.59616 10.3971 4.55877 10.4617 4.53416C10.5263 4.50955 10.5952 4.49822 10.6642 4.50086C10.8005 4.50086 10.9312 4.55499 11.0275 4.65134C11.1239 4.74768 11.178 4.87836 11.178 5.01461C11.178 5.15087 11.1239 5.28154 11.0275 5.37789C10.9312 5.47424 10.8005 5.52836 10.6642 5.52836V5.52761ZM13.4385 5.52761C13.3694 5.53025 13.3005 5.51893 13.236 5.49432C13.1714 5.46971 13.1124 5.43232 13.0626 5.38439C13.0128 5.33646 12.9732 5.27897 12.9461 5.21537C12.9191 5.15177 12.9051 5.08336 12.9051 5.01424C12.9051 4.94512 12.9191 4.87671 12.9461 4.81311C12.9732 4.74951 13.0128 4.69202 13.0626 4.64409C13.1124 4.59616 13.1714 4.55877 13.236 4.53416C13.3005 4.50955 13.3694 4.49822 13.4385 4.50086C13.5748 4.50086 13.7054 4.55499 13.8018 4.65134C13.8981 4.74768 13.9523 4.87836 13.9523 5.01461C13.9523 5.15087 13.8981 5.28154 13.8018 5.37789C13.7054 5.47424 13.5748 5.52836 13.4385 5.52836V5.52761ZM18.9862 11.0761C18.85 11.0761 18.7193 11.022 18.623 10.9256C18.5266 10.8293 18.4725 10.6986 18.4725 10.5624C18.4725 10.4261 18.5266 10.2954 18.623 10.1991C18.7193 10.1027 18.85 10.0486 18.9862 10.0486C19.1225 10.0486 19.2532 10.1027 19.3495 10.1991C19.4459 10.2954 19.5 10.4261 19.5 10.5624C19.5 10.6986 19.4459 10.8293 19.3495 10.9256C19.2532 11.022 19.1225 11.0761 18.9862 11.0761ZM18.9862 13.8504C18.85 13.8504 18.7193 13.7962 18.623 13.6999C18.5266 13.6035 18.4725 13.4729 18.4725 13.3366C18.4725 13.2004 18.5266 13.0697 18.623 12.9733C18.7193 12.877 18.85 12.8229 18.9862 12.8229C19.1225 12.8229 19.2532 12.877 19.3495 12.9733C19.4459 13.0697 19.5 13.2004 19.5 13.3366C19.5 13.4729 19.4459 13.6035 19.3495 13.6999C19.2532 13.7962 19.1225 13.8504 18.9862 13.8504ZM5.01375 11.0761C4.87749 11.0761 4.74682 11.022 4.65047 10.9256C4.55413 10.8293 4.5 10.6986 4.5 10.5624C4.5 10.4261 4.55413 10.2954 4.65047 10.1991C4.74682 10.1027 4.87749 10.0486 5.01375 10.0486C5.15 10.0486 5.28068 10.1027 5.37703 10.1991C5.47337 10.2954 5.5275 10.4261 5.5275 10.5624C5.5275 10.6986 5.47337 10.8293 5.37703 10.9256C5.28068 11.022 5.15 11.0761 5.01375 11.0761ZM5.01375 13.8504C4.87749 13.8504 4.74682 13.7962 4.65047 13.6999C4.55413 13.6035 4.5 13.4729 4.5 13.3366C4.5 13.2004 4.55413 13.0697 4.65047 12.9733C4.74682 12.877 4.87749 12.8229 5.01375 12.8229C5.15 12.8229 5.28068 12.877 5.37703 12.9733C5.47337 13.0697 5.5275 13.2004 5.5275 13.3366C5.5275 13.4729 5.47337 13.6035 5.37703 13.6999C5.28068 13.7962 5.15 13.8504 5.01375 13.8504ZM10.6642 19.5001C10.528 19.5001 10.3973 19.446 10.301 19.3496C10.2046 19.2533 10.1505 19.1226 10.1505 18.9864C10.1505 18.8501 10.2046 18.7194 10.301 18.6231C10.3973 18.5267 10.528 18.4726 10.6642 18.4726C10.8005 18.4726 10.9312 18.5267 11.0275 18.6231C11.1239 18.7194 11.178 18.8501 11.178 18.9864C11.178 19.1226 11.1239 19.2533 11.0275 19.3496C10.9312 19.446 10.8005 19.5001 10.6642 19.5001ZM13.4385 19.5001C13.3022 19.5001 13.1716 19.446 13.0752 19.3496C12.9789 19.2533 12.9247 19.1226 12.9247 18.9864C12.9247 18.8501 12.9789 18.7194 13.0752 18.6231C13.1716 18.5267 13.3022 18.4726 13.4385 18.4726C13.5748 18.4726 13.7054 18.5267 13.8018 18.6231C13.8981 18.7194 13.9523 18.8501 13.9523 18.9864C13.9523 19.1226 13.8981 19.2533 13.8018 19.3496C13.7054 19.446 13.5748 19.5001 13.4385 19.5001Z" fill="white"/>
</svg>
