<svg width="24" height="24" viewBox="0 0 24 24" fill="none" xmlns="http://www.w3.org/2000/svg">
<path d="M12 24C18.6274 24 24 18.6274 24 12C24 5.37258 18.6274 0 12 0C5.37258 0 0 5.37258 0 12C0 18.6274 5.37258 24 12 24Z" fill="black"/>
<path d="M6.50488 16.5053L11.7219 19.7873H12.3534L17.4864 16.5053L16.6869 15.8746L12.0166 18.8618L7.17838 15.8746L6.50488 16.5053ZM9.02938 8.89056L11.9746 4.43031L15.0039 8.93256L15.7194 8.30105L12.3534 3.25281C12.3534 3.25281 12.0586 2.87406 11.5959 3.25281L8.14588 8.42781L9.02938 8.89056Z" fill="white" fill-opacity="0.703"/>
<path d="M12.0586 17.8942C12.2266 17.3047 12.4374 16.7579 12.6061 16.1692C13.3636 13.8127 14.1204 11.4142 14.8779 9.05845C14.9199 8.93245 14.9619 8.7637 15.0039 8.63845C15.0879 8.38495 15.2139 8.25895 15.4666 8.25895C15.5764 8.25606 15.6835 8.29272 15.7685 8.36225C15.8534 8.43179 15.9105 8.52955 15.9294 8.6377C16.1394 9.4792 16.3081 10.3627 16.5181 11.2042C16.8969 12.8032 17.2336 14.4442 17.6124 16.0424C17.6964 16.4212 17.5704 16.6739 17.2756 16.7579C16.9809 16.8419 16.7709 16.6319 16.6869 16.2532C16.2661 14.4442 15.8454 12.6344 15.4666 10.7834C15.4666 10.6994 15.4246 10.6574 15.3826 10.5307C15.3477 10.6458 15.3054 10.7586 15.2559 10.8682C14.4571 13.3079 13.6996 15.7484 12.9001 18.1882C12.7741 18.6509 12.6054 19.0717 12.4794 19.5344C12.3954 19.8292 12.2266 19.9552 11.9746 19.9552C11.7219 19.9552 11.5539 19.8292 11.4699 19.5352C10.5444 16.6319 9.61814 13.7287 8.73464 10.8254C8.69264 10.7414 8.69264 10.6994 8.65064 10.5307C8.57559 10.9114 8.49156 11.2902 8.39864 11.6669C8.06114 13.1819 7.72514 14.7382 7.38839 16.2532C7.30439 16.6732 6.96839 16.8839 6.63089 16.6732C6.42089 16.5472 6.37889 16.3372 6.42089 16.0844C6.88364 13.9807 7.38839 11.8769 7.85114 9.77395C7.93514 9.43645 8.01989 9.10045 8.06114 8.7637C8.14589 8.4277 8.31389 8.25895 8.56664 8.25895C8.81939 8.25895 8.98664 8.4277 9.07139 8.7637C10.0389 11.7937 11.0064 14.8649 11.9326 17.8942H12.0586Z" fill="white"/>
</svg>
