<svg width="24" height="24" viewBox="0 0 24 24" fill="none" xmlns="http://www.w3.org/2000/svg">
<path d="M10.5043 0.652911C11.2496 -0.184089 12.6855 -0.202689 13.4545 0.610671C13.9389 1.05023 14.0508 1.72667 14.0682 2.34803C13.7961 1.92707 13.6023 1.43603 13.2061 1.10867C12.4757 0.498951 11.267 0.559791 10.6224 1.26767C10.3104 1.61411 10.1516 2.05967 9.9181 2.45735C9.92926 1.81775 10.0249 1.12235 10.5043 0.652911ZM8.15542 5.24903C9.48334 6.80387 10.6957 8.45543 12.0061 10.025C13.3092 8.45303 14.5364 6.81983 15.8481 5.25383C15.7028 5.89343 15.4928 6.52055 15.4041 7.17119C15.3507 7.49519 15.5346 7.78835 15.6725 8.06651C17.0798 10.6465 18.4445 13.2512 19.8387 15.838C20.0697 16.3223 20.6461 16.629 21.1679 16.4353C21.6399 16.3012 21.8519 15.8182 22.0311 15.407C23.1044 12.8737 23.2199 9.92807 22.241 7.34747C22.0063 6.72155 21.6659 6.13175 21.557 5.46479C22.1645 5.91191 22.4924 6.60851 22.8079 7.27043C23.9669 9.64643 24.3009 12.4166 23.7209 14.9971C23.1594 17.6371 21.6638 20.06 19.5633 21.7552C18.9074 22.2978 18.1758 22.7392 17.4367 23.1559C17.2447 22.7759 17.0167 22.4021 16.9249 21.9811C16.905 21.7017 17.0479 21.4434 17.1212 21.1801C17.4516 20.2661 17.4119 19.244 17.0915 18.3338C16.3015 16.0575 15.5276 13.775 14.7698 11.4864C14.6444 11.1014 14.4133 10.7674 14.1997 10.4284C14.2717 11.0592 13.7624 11.4963 13.4755 11.9981C12.9997 12.84 12.5203 13.6832 11.9291 14.4507C11.7986 13.9081 11.8383 13.3468 11.7961 12.7941C11.7377 13.1357 11.7121 13.4821 11.6731 13.8261C10.9067 12.7955 10.2918 11.6616 9.5701 10.5998C8.60242 13.3145 7.72546 16.0614 6.7501 18.7748C6.5191 18.6258 6.28678 18.4793 6.0541 18.3328C6.03922 18.5368 6.02674 18.74 6.01306 18.9425C6.25778 19.253 6.48978 19.5717 6.70906 19.8986C6.49306 19.8812 6.27706 19.8626 6.06106 19.8403C6.27706 20.0117 6.5791 20.1384 6.65602 20.4277C6.83494 20.9828 6.95542 21.5677 7.27714 22.0645C7.67962 22.7836 8.44978 23.1772 8.8957 23.8627C7.82866 23.782 6.83002 23.3412 5.92438 22.7935C3.76558 21.5257 2.00914 19.5773 1.00798 17.2787C-0.0975782 14.7677 -0.307458 11.8717 0.446502 9.23159C0.803022 7.90031 1.4353 6.65975 2.2105 5.52467C2.28502 5.55947 2.43286 5.63027 2.50738 5.66495C1.97434 6.72071 1.53838 7.82831 1.28626 8.98571C1.16206 8.94467 1.03786 8.90255 0.914262 8.85899C1.17514 9.18803 1.2223 9.60539 1.15774 10.0101C0.952782 11.9698 1.28314 13.9878 2.14402 15.7635C2.34802 16.2242 2.82598 16.4378 3.22594 16.6937C3.58498 16.4105 3.98866 16.1537 4.20994 15.7375C4.62994 14.9935 4.99378 14.2188 5.43598 13.4873C5.5279 13.6152 5.61982 13.7443 5.71054 13.8734C5.62726 13.5219 5.55034 13.1346 5.76514 12.8117C6.59518 11.2781 7.40518 9.73271 8.23738 8.20079C8.40262 7.85435 8.68462 7.49915 8.58394 7.09307C8.46466 6.47339 8.26798 5.87111 8.15542 5.24903ZM14.2634 9.01175C14.5243 8.82671 14.8154 8.69507 15.1167 8.58947C15.0223 8.38451 14.9292 8.18147 14.8361 7.97603C14.636 8.31503 14.4423 8.66003 14.2634 9.01175ZM12.9314 9.74567C13.1264 10.0002 13.4022 10.1657 13.6941 10.2871C13.4929 10.04 13.2122 9.88355 12.9314 9.74567ZM12.084 11.9089C11.9101 12.0778 12.2033 12.3448 12.3672 12.1784C12.5472 12.0104 12.2442 11.7413 12.084 11.9089ZM17.5184 16.7222C17.7159 16.6353 17.9144 16.5497 18.1134 16.4627L17.8674 16.1987C17.7519 16.3738 17.6355 16.5485 17.5183 16.7227L17.5184 16.7222ZM4.15558 20.3047C4.14934 20.522 4.14358 20.7393 4.13818 20.9567C4.35802 21.0609 4.57414 21.1703 4.78906 21.2845C4.5536 20.9743 4.34185 20.6467 4.15558 20.3047ZM5.9779 20.3121C5.98534 20.3792 6.0019 20.5162 6.01018 20.5829C6.1555 20.6412 6.30214 20.7008 6.44746 20.7605C6.4003 20.6425 6.35434 20.5245 6.30838 20.4053C6.19774 20.3745 6.08722 20.3435 5.9779 20.3125" fill="#324132"/>
<path d="M15.0986 23.7157C15.6191 23.2717 16.1458 22.8277 16.5866 22.3013C16.9283 22.5211 17.1456 22.8638 17.276 23.2425C16.6574 23.5058 16.028 23.7417 15.3929 23.9641C15.3198 23.9021 15.172 23.7779 15.0986 23.7157Z" fill="#324132"/>
</svg>
