<svg width="24" height="24" viewBox="0 0 24 24" fill="none" xmlns="http://www.w3.org/2000/svg">
<path d="M12 24C18.6274 24 24 18.6274 24 12C24 5.37258 18.6274 0 12 0C5.37258 0 0 5.37258 0 12C0 18.6274 5.37258 24 12 24Z" fill="#00316D"/>
<path d="M13.6169 14.915C13.6071 14.897 13.6056 14.8895 13.6019 14.8873C13.1369 14.6675 12.6719 14.447 12.2054 14.2303C12.1806 14.2183 12.1304 14.2213 12.1146 14.2385C11.9121 14.456 11.7141 14.6788 11.5131 14.9015C11.6586 15.0088 13.4954 15.0095 13.6169 14.915ZM9.36137 9.54278L9.31487 9.44528C9.27587 9.47303 9.22487 9.49328 9.19937 9.53078C8.76972 10.17 8.34271 10.811 7.91837 11.4538C7.89212 11.4943 7.89362 11.5535 7.88087 11.6038C7.93337 11.5933 7.99187 11.5955 8.03462 11.5693C8.39895 11.3502 8.75999 11.1257 9.11762 10.8958C9.18048 10.8515 9.22375 10.7845 9.23837 10.709C9.28637 10.334 9.31937 9.95678 9.36137 9.54278ZM18.3591 14.9803H18.9786C19.0979 14.9803 19.1436 14.9353 19.0679 14.8205C18.6741 14.219 18.2819 13.6168 17.8866 13.0175C17.8656 12.9845 17.8176 12.9703 17.7816 12.9478C17.7629 12.9853 17.7306 13.0228 17.7269 13.0625C17.6811 13.649 17.6399 14.2355 17.5949 14.822C17.5866 14.9338 17.6256 14.984 17.7396 14.9818C17.9459 14.9773 18.1521 14.9803 18.3591 14.9803ZM5.05862 14.9353C5.15312 14.9578 5.19962 14.9788 5.24537 14.9795C5.91512 14.981 6.58487 14.9795 7.25387 14.981C7.38362 14.981 7.41662 14.9353 7.36187 14.81C7.15176 14.3335 6.94625 13.855 6.74537 13.3745C6.68687 13.2343 6.63287 13.241 6.54062 13.34C6.18362 13.7255 5.82362 14.1073 5.46512 14.4905C5.33987 14.6255 5.21762 14.7605 5.05862 14.9353ZM14.9549 11.4755C14.9984 11.5603 15.0126 11.597 15.0344 11.6285L15.9404 12.944C16.3146 13.4878 16.6881 14.0315 17.0654 14.573C17.0909 14.6105 17.1404 14.6308 17.1779 14.6585C17.1974 14.6135 17.2289 14.5708 17.2349 14.5243C17.2499 14.3968 17.2529 14.2693 17.2611 14.1418C17.3016 13.5605 17.3466 12.98 17.3811 12.3995C17.3961 12.152 17.2889 12.0245 17.0541 11.966C16.4279 11.8093 15.8016 11.6518 15.1746 11.4965C15.1184 11.483 15.0591 11.4853 14.9549 11.4755ZM14.7959 7.62428L14.7389 7.63403C14.7314 7.74878 14.7201 7.86428 14.7164 7.98053L14.6331 10.8088C14.6294 10.9123 14.6601 10.9663 14.7674 10.9918C15.4169 11.1493 16.0649 11.315 16.7144 11.4748C16.7706 11.4883 16.8329 11.4755 16.8921 11.4748C16.8771 11.417 16.8741 11.3518 16.8464 11.3008C16.1991 10.1233 15.5504 8.94578 14.9001 7.76978C14.8716 7.71803 14.8311 7.67228 14.7959 7.62428ZM11.8821 13.4045C11.9001 13.3048 11.9174 13.2448 11.9196 13.1848C11.9294 12.8705 11.9301 12.5563 11.9444 12.242C11.9578 12.0026 11.8867 11.7661 11.7434 11.5738C11.1479 10.7475 10.5541 9.92003 9.96212 9.09128C9.93512 9.05378 9.92387 9.00503 9.90512 8.96153L9.83462 9.00353C9.81737 9.06653 9.79037 9.12878 9.78362 9.19253C9.73112 9.70253 9.68612 10.2125 9.62987 10.721C9.62131 10.7745 9.62547 10.8293 9.64201 10.8809C9.65856 10.9325 9.68703 10.9795 9.72512 11.018C10.3964 11.7658 11.0631 12.518 11.7329 13.268C11.7689 13.3085 11.8124 13.3415 11.8821 13.4045ZM12.3149 13.2478L12.3599 13.2778C12.4011 13.2455 12.4499 13.22 12.4829 13.1803C13.0531 12.4879 13.6214 11.7939 14.1876 11.0983C14.2223 11.0542 14.2427 11.0005 14.2461 10.9445C14.2731 10.0183 14.2964 9.09203 14.3174 8.16578C14.3189 8.11478 14.2896 8.06303 14.2739 8.01203C14.2326 8.05178 14.1749 8.08403 14.1516 8.13203C13.6266 9.24353 13.1249 10.3663 12.5744 11.4635C12.2834 12.044 12.3299 12.6433 12.3149 13.2485V13.2478ZM9.68762 14.981C10.0484 14.981 10.4099 14.9863 10.7706 14.9765C10.853 14.9726 10.9312 14.9394 10.9911 14.8828C11.2424 14.6195 11.4779 14.3405 11.7284 14.0765C11.8221 13.979 11.8011 13.919 11.7216 13.832C11.2984 13.373 10.8788 12.9104 10.4631 12.4445C10.3626 12.332 10.3049 12.3328 10.2149 12.4558C9.64412 13.2365 9.06737 14.012 8.49362 14.7913C8.46512 14.8303 8.45462 14.882 8.43512 14.9278C8.48537 14.9458 8.53562 14.978 8.58662 14.978C8.95412 14.9825 9.32012 14.981 9.68762 14.981ZM10.0611 12.0065C9.86162 11.7748 9.66587 11.5565 9.48062 11.3278C9.40262 11.2325 9.34262 11.2228 9.23762 11.288C8.61062 11.6825 7.97687 12.0665 7.35137 12.4633C7.23812 12.5353 7.14887 12.647 7.05287 12.7453C6.96362 12.8368 6.97562 12.9373 7.02437 13.0498C7.26812 13.607 7.50587 14.1665 7.74662 14.7253C7.83812 14.9353 7.87262 14.939 8.01287 14.7515C8.38412 14.2565 8.75387 13.7593 9.12362 13.2635L10.0611 12.0065ZM14.4074 11.4155C14.3586 11.4943 14.3354 11.5423 14.3024 11.5813C13.7084 12.3058 13.1136 13.0303 12.5151 13.7518C12.4176 13.8695 12.4679 13.916 12.5781 13.9663C13.2659 14.2813 13.9506 14.6015 14.6399 14.915C14.7281 14.9548 14.8236 14.9762 14.9204 14.978C15.4874 14.9833 16.0551 14.9818 16.6229 14.9788C16.6754 14.9788 16.7286 14.9548 16.7819 14.9413C16.7631 14.8858 16.7549 14.822 16.7219 14.7748C16.1987 14.0107 15.6739 13.2477 15.1476 12.4858C14.9151 12.1483 14.6811 11.8108 14.4074 11.4155ZM11.9946 15.7483C9.41312 15.7483 6.83162 15.7475 4.25012 15.7498C4.04912 15.7498 3.86762 15.7273 3.78062 15.5113C3.69812 15.3065 3.79412 15.155 3.92837 15.0118C4.69937 14.1883 5.48087 13.3738 6.23087 12.5323C6.51737 12.2113 6.73862 11.8295 6.98087 11.4688C7.75712 10.3078 8.52737 9.14228 9.30737 7.98428C9.38387 7.87103 9.50087 7.75628 9.62387 7.71128C9.79337 7.64828 9.93812 7.74578 10.0461 7.90028C10.6739 8.79728 11.3061 9.69128 11.9369 10.5868C12.0666 10.7698 12.1131 10.7638 12.2091 10.5553L14.1546 6.31778C14.2311 6.15128 14.3324 6.00953 14.5296 6.00053C14.7359 5.99078 14.8611 6.11603 14.9579 6.29303C15.9344 8.06453 16.8884 9.85103 17.9031 11.6C18.5166 12.6575 19.2269 13.6558 19.8936 14.681C19.9761 14.807 20.0594 14.9323 20.1404 15.0598C20.2379 15.2135 20.2956 15.3823 20.2041 15.5525C20.1141 15.7175 19.9476 15.749 19.7729 15.749C17.1801 15.7475 14.5874 15.7483 11.9946 15.7483Z" fill="white"/>
</svg>
