<svg width="24" height="24" viewBox="0 0 24 24" fill="none" xmlns="http://www.w3.org/2000/svg">
<g clip-path="url(#clip0)">
<path d="M8.36077 0.766031C9.23014 -0.123412 10.7327 -0.258359 11.7433 0.466658C12.7445 1.12603 13.1605 2.4984 12.7237 3.60976C12.4691 4.30509 11.9015 4.84958 11.2301 5.14499C11.4329 6.18924 11.6482 7.23035 11.8521 8.27293C13.0631 8.18669 14.2886 8.76422 14.9848 9.75955C15.788 10.8676 15.8287 12.4316 15.1349 13.6036C16.445 14.8291 17.7522 16.0573 19.0564 17.288C19.6941 16.7667 20.5901 16.5735 21.3717 16.8585C22.2706 17.1707 22.9174 18.08 22.9062 19.0327C22.915 19.8794 22.4111 20.6989 21.6591 21.0845C21.1937 21.3354 20.6412 21.3911 20.1255 21.2968C19.2664 21.1276 18.5423 20.4274 18.3467 19.5739C18.2094 19.0471 18.3049 18.4914 18.5139 17.9972C17.2022 16.7662 15.8945 15.5303 14.5781 14.3048C13.6767 15.1759 12.3155 15.5359 11.1092 15.1678C10.4514 16.961 9.83579 18.7693 9.17798 20.5631C9.42384 20.9416 9.62579 21.3647 9.63938 21.8246C9.66175 22.5128 9.32965 23.2066 8.76436 23.6041C8.25509 23.9706 7.57648 24.1014 6.97293 23.917C6.20087 23.708 5.59251 23.0181 5.47596 22.2277C5.3937 21.8254 5.50074 21.4198 5.62366 21.039C5.36098 20.8509 5.09997 20.6614 4.83729 20.4737C4.51711 20.6478 4.16589 20.7922 3.7946 20.7715C3.03885 20.7888 2.32356 20.2555 2.09422 19.5402C1.86425 18.8887 2.06704 18.1191 2.57401 17.6529C3.04345 17.2017 3.76565 17.0466 4.37997 17.2568C5.06809 17.478 5.58864 18.147 5.61018 18.8728C5.63579 19.1968 5.53837 19.5114 5.433 19.8135C5.67802 19.9808 5.9176 20.156 6.16189 20.3245C6.47401 20.085 6.83171 19.8925 7.2261 19.8366C7.63878 19.7536 8.05188 19.871 8.44356 19.9915C9.05108 18.2615 9.67303 16.537 10.2822 14.8069C9.24833 14.1692 8.54495 12.9946 8.59042 11.766C8.55415 10.2944 9.58899 8.91401 10.9738 8.45178C10.7782 7.41234 10.557 6.3777 10.3598 5.33899C9.49283 5.35499 8.62345 4.96697 8.10467 4.26485C7.30398 3.24694 7.42053 1.65579 8.36098 0.766449L8.36077 0.766031ZM9.96739 1.09373C9.10596 1.20871 8.47126 2.13485 8.67122 2.98028C8.80774 3.68126 9.46157 4.2545 10.1842 4.24802C10.8845 4.29359 11.5661 3.79938 11.7585 3.12798C11.9764 2.45492 11.6755 1.65903 11.0639 1.30289C10.7414 1.0953 10.3427 1.04157 9.96781 1.09384L9.96739 1.09373ZM11.5798 9.82812C10.5786 10.0677 9.896 11.155 10.1084 12.161C10.2625 13.0958 11.1486 13.8367 12.0979 13.8159C13.0255 13.8415 13.899 13.139 14.0858 12.232C14.2766 11.4296 13.915 10.5275 13.2148 10.0891C12.739 9.77554 12.129 9.68032 11.5798 9.82781V9.82812ZM20.1916 17.8641C19.6088 18.0573 19.2216 18.7271 19.3893 19.326C19.521 19.9103 20.1221 20.3422 20.7193 20.2696C21.358 20.2145 21.8889 19.6006 21.8259 18.9571C21.8099 18.1739 20.9237 17.5773 20.1916 17.8641ZM3.50756 18.1072C2.84903 18.3019 2.67729 19.2675 3.22972 19.6775C3.73983 20.1429 4.65959 19.7757 4.71781 19.0899C4.83206 18.4488 4.11352 17.854 3.50756 18.1073V18.1072ZM7.26384 20.9223C6.97 21.0053 6.72175 21.2296 6.60122 21.5098C6.3353 22.0952 6.75603 22.8495 7.39711 22.9166C7.98791 23.022 8.5899 22.5089 8.56356 21.9075C8.59492 21.2503 7.88736 20.7242 7.26384 20.9222" fill="#6EA8F2"/>
</g>
<defs>
<clipPath id="clip0">
<rect width="24" height="24" fill="white"/>
</clipPath>
</defs>
</svg>
