<svg width="24" height="24" viewBox="0 0 24 24" fill="none" xmlns="http://www.w3.org/2000/svg">
<path d="M1.51297 3C0.674651 3 0 3.67864 0 4.51297V12.0739V15.3273V19.6826C0 20.517 0.674651 21.1956 1.51297 21.1956C2.3513 21.1956 3.02595 20.517 3.02595 19.6826V4.51297C3.02196 3.67864 2.34731 3 1.51297 3Z" fill="url(#paint0_linear)"/>
<path d="M22.4866 3C21.6523 3 20.9736 3.67864 20.9736 4.51297V19.6826C20.9736 20.517 21.6523 21.1956 22.4866 21.1956C23.3209 21.1956 23.9996 20.517 23.9996 19.6826V4.51297C23.9996 3.67864 23.3209 3 22.4866 3Z" fill="url(#paint1_linear)"/>
<path d="M8.50321 6.15381C7.66888 6.15381 6.99023 6.82846 6.99023 7.66678V16.5291C6.99023 17.3634 7.66888 18.042 8.50321 18.042C9.33754 18.042 10.0162 17.3634 10.0162 16.5291V7.66678C10.0162 6.83245 9.33754 6.15381 8.50321 6.15381Z" fill="url(#paint2_linear)"/>
<path d="M15.4973 8.70068C14.663 8.70068 13.9844 9.37933 13.9844 10.2137V13.9542C13.9844 14.7885 14.663 15.4672 15.4973 15.4672C16.3317 15.4672 17.0103 14.7885 17.0103 13.9542V10.2137C17.0063 9.37534 16.3317 8.70068 15.4973 8.70068Z" fill="url(#paint3_linear)"/>
<defs>
<linearGradient id="paint0_linear" x1="-0.0362435" y1="12.2584" x2="32.1375" y2="8.91626" gradientUnits="userSpaceOnUse">
<stop stop-color="#4400E2"/>
<stop offset="0.0411" stop-color="#7013C5"/>
<stop offset="0.0866" stop-color="#9A25AA"/>
<stop offset="0.1333" stop-color="#BC3494"/>
<stop offset="0.1804" stop-color="#D73F82"/>
<stop offset="0.2284" stop-color="#EA4876"/>
<stop offset="0.2776" stop-color="#F54C6E"/>
<stop offset="0.33" stop-color="#F94E6C"/>
<stop offset="1" stop-color="#FFD402"/>
</linearGradient>
<linearGradient id="paint1_linear" x1="0.187249" y1="14.4139" x2="32.361" y2="11.0718" gradientUnits="userSpaceOnUse">
<stop stop-color="#4400E2"/>
<stop offset="0.0411" stop-color="#7013C5"/>
<stop offset="0.0866" stop-color="#9A25AA"/>
<stop offset="0.1333" stop-color="#BC3494"/>
<stop offset="0.1804" stop-color="#D73F82"/>
<stop offset="0.2284" stop-color="#EA4876"/>
<stop offset="0.2776" stop-color="#F54C6E"/>
<stop offset="0.33" stop-color="#F94E6C"/>
<stop offset="1" stop-color="#FFD402"/>
</linearGradient>
<linearGradient id="paint2_linear" x1="0.038613" y1="12.9771" x2="32.2123" y2="9.63494" gradientUnits="userSpaceOnUse">
<stop stop-color="#4400E2"/>
<stop offset="0.0411" stop-color="#7013C5"/>
<stop offset="0.0866" stop-color="#9A25AA"/>
<stop offset="0.1333" stop-color="#BC3494"/>
<stop offset="0.1804" stop-color="#D73F82"/>
<stop offset="0.2284" stop-color="#EA4876"/>
<stop offset="0.2776" stop-color="#F54C6E"/>
<stop offset="0.33" stop-color="#F94E6C"/>
<stop offset="1" stop-color="#FFD402"/>
</linearGradient>
<linearGradient id="paint3_linear" x1="0.111702" y1="13.6794" x2="32.2854" y2="10.3373" gradientUnits="userSpaceOnUse">
<stop stop-color="#4400E2"/>
<stop offset="0.0411" stop-color="#7013C5"/>
<stop offset="0.0866" stop-color="#9A25AA"/>
<stop offset="0.1333" stop-color="#BC3494"/>
<stop offset="0.1804" stop-color="#D73F82"/>
<stop offset="0.2284" stop-color="#EA4876"/>
<stop offset="0.2776" stop-color="#F54C6E"/>
<stop offset="0.33" stop-color="#F94E6C"/>
<stop offset="1" stop-color="#FFD402"/>
</linearGradient>
</defs>
</svg>
