<svg width="24" height="24" viewBox="0 0 24 24" fill="none" xmlns="http://www.w3.org/2000/svg">
<path fill-rule="evenodd" clip-rule="evenodd" d="M12.4079 20.1555L15.0875 5.53417C15.0875 5.53417 17.2137 6.11672 18.4661 7.16523C19.9049 8.36991 20.6797 10.4274 20.6797 10.4274C20.6797 10.4274 21.7574 8.59241 21.3788 6.52445C21.0001 4.45533 19.4937 2.64718 19.4471 2.59125C19.4459 2.5901 19.4459 2.5901 19.4459 2.5901C17.9209 1.38079 16.0941 0.534959 14.096 0.183105L10.9516 17.5342C10.9516 17.5342 9.44982 16.2363 6.11663 16.7187C3.69912 17.0682 1.97949 18.6037 1.97949 18.6037C3.57797 21.0258 6.03153 22.8339 8.91158 23.5982C8.91158 23.5982 11.0098 23.1847 12.4079 20.1555Z" fill="white"/>
<path fill-rule="evenodd" clip-rule="evenodd" d="M19.4466 2.59082C19.4933 2.64675 20.9996 4.45489 21.3783 6.52401C21.7569 8.59198 20.6793 10.4269 20.6793 10.4269C20.6793 10.4269 19.9045 8.36948 18.4657 7.1648C17.2133 6.11629 15.087 5.53374 15.087 5.53374L12.4074 20.1551C11.0094 23.1842 8.91113 23.5978 8.91113 23.5978C9.89673 23.8599 10.9313 23.9998 11.9996 23.9998C18.6276 23.9998 23.9996 18.6277 23.9996 11.9998C23.9996 8.18541 22.2206 4.78693 19.4466 2.59082Z" fill="#E9B200"/>
<path fill-rule="evenodd" clip-rule="evenodd" d="M10.9515 17.534L14.0959 0.182917C13.4156 0.0629174 12.7153 0 12 0C5.37204 0 0 5.37204 0 12C0 14.4396 0.728147 16.7103 1.97939 18.6035C1.97939 18.6035 3.69903 17.068 6.11653 16.7185C9.44972 16.2361 10.9515 17.534 10.9515 17.534Z" fill="#E9B200"/>
</svg>
