<svg width="24" height="24" viewBox="0 0 24 24" fill="none" xmlns="http://www.w3.org/2000/svg">
<g clip-path="url(#clip0)">
<path d="M23.9294 13.6126L16.1471 5.83023C16.0544 5.73758 15.8779 5.73758 15.7853 5.83023L11.9647 9.63758L8.21912 5.89199C8.11765 5.79052 7.95882 5.79052 7.85735 5.89199L6.68824 7.03905L2.39118 11.2523L1.45147 12.1743L0.0705882 13.5199C0.0176471 13.5729 0 13.6346 0 13.7052C0 13.7758 0.0308824 13.8376 0.0705882 13.8905L3.95294 17.7729C4.05441 17.8743 4.22206 17.8743 4.31471 17.7729L8.04265 14.0493L11.8191 17.8258C11.9206 17.9273 12.0882 17.9273 12.1809 17.8258L15.9176 14.089L19.6765 17.8479C19.7294 17.9008 19.7912 17.9185 19.8618 17.9185C19.9324 17.9185 19.9941 17.8964 20.0471 17.8479L23.9294 13.9655C23.9824 13.9126 24 13.8508 24 13.7802C24 13.7052 23.9779 13.6523 23.9294 13.6126ZM23.2324 13.9346L21 13.114L19.9765 10.9082L20.5676 10.992L23.3735 13.7979L23.2324 13.9346ZM21.9706 15.1964L21.3088 13.7802L22.8309 14.3405L21.9706 15.1964ZM6.60441 10.092L3.45882 10.9391L6.60441 7.8464V10.092ZM2.7 11.6758L4.90588 11.0846L4.76029 13.5685L2.07794 12.2935L2.7 11.6758ZM5.43529 10.9435L5.82794 10.842L6.87353 12.4479L5.23676 14.2611L5.43529 10.9435ZM7.22206 12.0376L6.34412 10.692L6.84265 10.5596L8.09559 11.0758L7.22206 12.0376ZM7.12059 10.1141V9.17434L10.1029 9.4214L10.8485 11.6582L7.12059 10.1141ZM9.64412 13.0214L10.7118 13.6743L10.8882 16.167L9.37941 14.667L9.64412 13.0214ZM11.0956 13.3038L9.74118 12.4655L9.84265 11.8126L11.1176 12.342C11.1485 12.364 11.1794 12.3817 11.2191 12.3817L12.5029 12.9199L13.0412 14.5126L11.0956 13.3038ZM13.0279 12.8449L14.4265 12.1214L13.4029 13.9435L13.0279 12.8449ZM14.9647 11.2743L13.6721 11.9449L13.9809 9.75229L15.7809 10.8508L14.9647 11.2743ZM16.3191 10.5685L13.9059 9.09934L13.4824 8.83905L14.1176 8.20817L16.8618 9.09934L17.1221 10.1538L16.3191 10.5685ZM17.6338 10.0611L16.9941 7.40082L19.9765 10.3832L17.6338 10.0611ZM17.6559 10.5817L18.2029 10.6523L18.7941 16.2199L17.2191 14.6449L17.6559 10.5817ZM18.7235 10.7361L19.3765 10.8288L20.3074 12.8361L19.1691 14.9493L18.7235 10.7361ZM15.9574 6.37729L16.2794 6.69935L16.7162 8.51258L14.5324 7.8067L15.9574 6.37729ZM12.1412 10.1979L13.1162 9.22287L13.5 9.46111L13.1074 12.2361L12.7059 12.4435L11.4662 11.9361L10.4515 8.88317L11.775 10.2067C11.8809 10.2905 12.0353 10.2905 12.1412 10.1979ZM8.02941 6.45229L9.63529 8.05376L9.91324 8.89199L7.12059 8.65376V7.33905L8.02941 6.45229ZM1.67647 12.6817L4.72059 14.1199L4.63676 15.4876L1.91471 15.0111L0.622059 13.7185L1.67647 12.6817ZM4.12941 17.2346L2.54559 15.6508L4.59265 16.0126L4.53971 16.8111L4.12941 17.2346ZM7.85294 13.5067L5.1 16.2596L5.17059 15.0817L5.17941 15.0729L8.59412 11.2964L9.34853 11.6052L9.19412 12.5582L8.925 14.2126L8.21912 13.5067C8.12206 13.4052 7.95882 13.4052 7.85294 13.5067ZM12.0044 17.2876L11.4441 16.7273L11.2588 14.0052L13.3059 15.267L13.4912 15.8052L12.0044 17.2876ZM15.9265 13.4758C15.8647 13.4758 15.7941 13.4979 15.7412 13.5464L13.8882 15.3993L13.6191 14.6008L15.2647 11.6802L17.1176 10.7273L16.7471 14.1729L16.1162 13.542C16.0632 13.4979 15.9882 13.4758 15.9265 13.4758ZM19.8618 17.3052L19.3632 16.8067L19.2618 15.8538L20.5765 13.4096L21.5824 15.5846L19.8618 17.3052Z" fill="url(#paint0_linear)"/>
</g>
<defs>
<linearGradient id="paint0_linear" x1="-0.000445434" y1="11.839" x2="23.9999" y2="11.839" gradientUnits="userSpaceOnUse">
<stop stop-color="#C51F5D"/>
<stop offset="1" stop-color="#2F2361"/>
</linearGradient>
<clipPath id="clip0">
<rect width="24" height="24" fill="white"/>
</clipPath>
</defs>
</svg>
