<svg width="24" height="24" viewBox="0 0 24 24" fill="none" xmlns="http://www.w3.org/2000/svg">
<path d="M1.72717 17.404C2.68106 17.404 3.45434 16.6308 3.45434 15.6769C3.45434 14.723 2.68106 13.9497 1.72717 13.9497C0.773279 13.9497 0 14.723 0 15.6769C0 16.6308 0.773279 17.404 1.72717 17.404Z" fill="black"/>
<path d="M22.3091 7.11328C21.374 7.11328 20.5819 7.86935 20.5819 8.84045C20.5819 10.2083 20.3655 10.5676 18.8547 10.5676H18.7105C17.8476 10.6398 17.1636 11.3598 17.1636 12.2587V12.2948C17.1636 13.6266 16.9112 13.9498 15.4365 13.9498C15.3643 13.9498 15.2922 13.9498 15.2561 13.9859C14.3932 14.0941 13.7093 14.8141 13.7093 15.677C13.7093 16.612 14.4654 17.4041 15.4365 17.4041C16.3354 17.4041 17.0915 16.6841 17.1276 15.8213V15.677C17.1276 14.4534 17.5229 13.9859 18.8187 13.9498H18.8547C19.7537 13.9498 20.5098 13.2298 20.5458 12.3309V12.2226C20.5458 10.963 20.9412 10.4955 22.273 10.4955C23.208 10.4955 24.0002 9.73941 24.0002 8.76831C24.0002 7.86935 23.2441 7.11328 22.3091 7.11328ZM12.1625 10.5676H12.0182C10.5075 10.5676 10.291 10.2083 10.291 8.84045C10.291 7.90542 9.53498 7.11328 8.56388 7.11328C7.62886 7.11328 6.83672 7.86935 6.83672 8.84045C6.83672 10.2083 6.6203 10.5315 5.10955 10.5315H4.96528C4.10239 10.6037 3.41846 11.3237 3.41846 12.2226C3.41846 13.1577 4.17453 13.9498 5.14562 13.9498C6.04458 13.9498 6.80065 13.2298 6.83672 12.3669V12.2587C6.83672 10.9991 7.23209 10.5315 8.56388 10.5315C9.89567 10.5315 10.291 10.9991 10.291 12.2226C10.291 13.1577 11.0471 13.9498 12.0182 13.9498C12.9893 13.9498 13.7454 13.1937 13.7454 12.2226C13.7093 11.3598 13.0254 10.6398 12.1625 10.5676Z" fill="black"/>
</svg>
