<svg width="24" height="24" viewBox="0 0 24 24" fill="none" xmlns="http://www.w3.org/2000/svg">
<path d="M8.4 10.5333L5.2 18.0666H0L0.2 17.5999L7.53333 8.99993L8.4 10.5333ZM5.46667 5.2666L5.53333 5.33327L5.46667 5.2666Z" fill="#A03EC3"/>
<path d="M18.8 5.2666L18.2667 11.5999L15.7333 14.4666L15 13.0666L18.8 5.2666Z" fill="#3B9FE6"/>
<path d="M23.9334 5.3335L17.7334 18.0668L18.2667 11.6002L23.9334 5.3335Z" fill="#20ADEC"/>
<path d="M23.9999 5.2666L23.9333 5.33327L18.2666 11.5999L18.7999 5.2666H23.9999Z" fill="#3AB6ED"/>
<path d="M10.6668 5.2666L10.5335 5.4666L8.2668 8.19993L5.53346 5.33327L5.4668 5.2666H10.6668Z" fill="#7C58B8"/>
<path d="M10.6665 5.33327L10.5332 5.4666L10.6665 5.2666V5.33327Z" fill="#A03EC3"/>
<path d="M15.0001 13.0668L14.3334 14.5335L11.6001 11.7335L10.7334 5.3335L15.0001 13.0668Z" fill="#5E88DE"/>
<path d="M12.5332 18L8.3999 10.5333L9.06657 9L11.5999 11.7333L12.5332 18Z" fill="#7876D7"/>
<path d="M17.7334 18.0666H12.6001L12.7334 17.7999L15.0001 15.2666L17.7334 18.0666Z" fill="#0447C1"/>
<path d="M12.5332 17.9998L12.7332 17.7998L12.5999 18.0665L12.5332 17.9998Z" fill="#A03EC3"/>
<path d="M15.7335 14.4664L15.0002 15.2664L14.3335 14.5331L15.0002 13.0664L15.7335 14.4664Z" fill="#3C67CA"/>
<path d="M7.53353 8.99994L0.200195 17.5999L5.46686 5.2666L5.53353 5.33327L7.53353 8.99994Z" fill="#B64AC6"/>
<path d="M9.06654 8.99971L8.39987 10.533L7.5332 8.99971L8.26654 8.19971L9.06654 8.99971Z" fill="#572FAA"/>
<path d="M8.26654 8.20016L7.5332 9.00016L5.5332 5.3335L8.26654 8.20016Z" fill="#7241AE"/>
<path d="M10.5333 5.4668L9.0666 9.00013L8.2666 8.20013L10.5333 5.4668Z" fill="#6249B6"/>
<path d="M11.6002 11.7335L9.06689 9.00016L10.5336 5.46683L10.6669 5.3335H10.7336L11.6002 11.7335Z" fill="#8E7FDA"/>
<path d="M18.2667 11.6001L17.7334 18.0668L15.7334 14.4668L18.2667 11.6001Z" fill="#2890E2"/>
<path d="M14.3334 14.5334L12.7334 17.8001L12.5334 18.0001L11.6001 11.7334L14.3334 14.5334Z" fill="#5375D8"/>
<path d="M15.0001 15.2665L12.7334 17.7999L14.3334 14.5332L15.0001 15.2665Z" fill="#2B4FC0"/>
<path d="M17.7333 18.0668L15 15.2668L15.7333 14.4668L17.7333 18.0668Z" fill="#205DC9"/>
</svg>
