<svg width="24" height="24" viewBox="0 0 24 24" fill="none" xmlns="http://www.w3.org/2000/svg">
<path d="M12 24C18.6274 24 24 18.6274 24 12C24 5.37258 18.6274 0 12 0C5.37258 0 0 5.37258 0 12C0 18.6274 5.37258 24 12 24Z" fill="#181818"/>
<path d="M12.547 10.5601L17.3183 5.7793L18.2879 6.7585L13.5166 11.5297L12.547 10.5601ZM5.70215 17.3953L10.483 12.6145L11.4526 13.5937L6.68136 18.3649L5.70215 17.3953ZM12.547 13.5937L13.5166 12.6145L18.2975 17.3953L17.3183 18.3649L12.547 13.5937ZM5.70215 6.7585L6.68136 5.7793L11.4526 10.5505L10.483 11.5297L5.70215 6.7585ZM11.0206 12.0673L11.9998 11.0881L12.979 12.0673L11.9998 13.0465L11.0206 12.0673Z" fill="#F6D30C"/>
</svg>
