<svg width="24" height="24" viewBox="0 0 24 24" fill="none" xmlns="http://www.w3.org/2000/svg">
<path fill-rule="evenodd" clip-rule="evenodd" d="M10.5209 17.5872C8.02654 16.9401 6.17919 14.6698 6.17919 11.9759C6.17919 9.28202 8.02654 7.01169 10.5209 6.36464V4.29395C6.90261 4.97758 4.15723 8.16195 4.15723 11.9759C4.15723 15.7899 6.90261 18.9742 10.5209 19.6579V17.5872Z" fill="black"/>
<path fill-rule="evenodd" clip-rule="evenodd" d="M11.9758 23.2243C5.77338 23.2243 0.727273 18.1782 0.727273 11.9758C0.727273 5.77338 5.77338 0.727273 11.9758 0.727273C18.1782 0.727273 23.2243 5.77338 23.2243 11.9758C23.2243 18.1782 18.1782 23.2243 11.9758 23.2243ZM11.9758 0C5.37236 0 0 5.37236 0 11.9758C0 18.5792 5.37236 23.9516 11.9758 23.9516C18.5792 23.9516 23.9516 18.5792 23.9516 11.9758C23.9516 5.37236 18.5792 0 11.9758 0Z" fill="black"/>
<path fill-rule="evenodd" clip-rule="evenodd" d="M13.4307 4.29395V6.36464C15.925 7.01169 17.7723 9.28202 17.7723 11.9759C17.7723 14.6698 15.925 16.9402 13.4307 17.5872V19.6579C17.0489 18.9742 19.7943 15.7899 19.7943 11.9759C19.7943 8.16195 17.0489 4.97758 13.4307 4.29395Z" fill="black"/>
</svg>
