<svg width="24" height="24" viewBox="0 0 24 24" fill="none" xmlns="http://www.w3.org/2000/svg">
<path d="M23.0003 14.4014L18.8419 18.5575V18.2178C18.8431 18.1311 18.8268 18.0449 18.7938 17.9647C18.7607 17.8844 18.7118 17.8117 18.6498 17.751L18.1566 17.2709L22.0078 13.4197C22.3829 13.0434 22.5935 12.5337 22.5935 12.0024C22.5935 11.4711 22.3829 10.9614 22.0078 10.5851L13.4053 1.98019C13.0291 1.60482 12.5194 1.39401 11.988 1.39401C11.4565 1.39401 10.9468 1.60482 10.5706 1.98019L1.97417 10.5815C1.5991 10.9578 1.38849 11.4675 1.38849 11.9988C1.38849 12.5301 1.5991 13.0398 1.97417 13.4161L10.5778 22.0198C10.9537 22.3954 11.4632 22.6064 11.9946 22.6064C12.5259 22.6064 13.0355 22.3954 13.4113 22.0198L16.618 18.8131L16.7837 18.9331L16.7645 20.6925L14.429 22.9967C13.7873 23.6342 12.9195 23.992 12.015 23.992C11.1104 23.992 10.2426 23.6342 9.60093 22.9967L0.994875 14.4014C0.359633 13.7641 0.00292969 12.901 0.00292969 12.0012C0.00292969 11.1014 0.359633 10.2383 0.994875 9.60096L9.59373 0.994896C10.2306 0.358775 11.0939 0.00146484 11.994 0.00146484C12.8941 0.00146484 13.7574 0.358775 14.3942 0.994896L23.0003 9.60096C23.6352 10.2384 23.9917 11.1015 23.9917 12.0012C23.9917 12.9009 23.6352 13.764 23.0003 14.4014Z" fill="#1EB3DE"/>
<path d="M18.6585 17.751L18.1652 17.2709L13.5616 12.7561C13.7376 12.3907 13.7806 11.9753 13.6832 11.5815C13.5858 11.1878 13.3541 10.8403 13.0281 10.5991C12.702 10.3578 12.302 10.2379 11.897 10.2599C11.492 10.2819 11.1074 10.4445 10.8094 10.7197C10.5114 10.9949 10.3187 11.3654 10.2646 11.7674C10.2105 12.1693 10.2983 12.5776 10.5129 12.9218C10.7275 13.266 11.0554 13.5246 11.4402 13.6529C11.8249 13.7813 12.2424 13.7714 12.6207 13.625L15.0965 16.054L17.3287 18.1026L17.5448 18.3018C17.578 18.332 17.6042 18.3692 17.6214 18.4107C17.6386 18.4522 17.6465 18.497 17.6444 18.5419L17.642 19.7912V22.381L17.606 22.9055C17.5944 23.0771 17.6508 23.2464 17.7631 23.3767C17.8755 23.507 18.0346 23.5878 18.206 23.6016H18.2168C18.3892 23.5909 18.5511 23.5153 18.6699 23.3898C18.7886 23.2644 18.8553 23.0986 18.8565 22.9259V18.5827V18.2322C18.8575 18.1428 18.8404 18.0541 18.8064 17.9715C18.7724 17.8888 18.7221 17.8138 18.6585 17.751Z" fill="#1EB3DE"/>
<path d="M11.9485 12.9614C11.761 12.9518 11.5804 12.8874 11.4292 12.7762C11.2779 12.6651 11.1625 12.512 11.0973 12.3359C11.0321 12.1599 11.02 11.9685 11.0624 11.7857C11.1048 11.6028 11.1999 11.4363 11.336 11.3069C11.472 11.1775 11.643 11.0909 11.8277 11.0576C12.0125 11.0244 12.203 11.0461 12.3756 11.12C12.5482 11.1939 12.6953 11.3167 12.7988 11.4734C12.9023 11.63 12.9575 11.8136 12.9578 12.0013C12.9579 12.0507 12.9543 12.1001 12.947 12.1489C12.9118 12.3747 12.7973 12.5806 12.624 12.7296C12.4506 12.8785 12.2298 12.9607 12.0013 12.9614H11.9485Z" fill="#1EB3DE"/>
</svg>
