<svg width="24" height="24" viewBox="0 0 24 24" fill="none" xmlns="http://www.w3.org/2000/svg">
<path d="M12 24C18.6274 24 24 18.6274 24 12C24 5.37258 18.6274 0 12 0C5.37258 0 0 5.37258 0 12C0 18.6274 5.37258 24 12 24Z" fill="#25AAE1"/>
<path fill-rule="evenodd" clip-rule="evenodd" d="M12.2592 18.745C11.0292 18.7585 9.99644 18.5365 9.02294 18.0527C8.96294 18.0227 8.91794 18.0212 8.85794 18.055C8.26664 18.3892 7.61749 18.6085 6.94469 18.7015C6.65669 18.739 6.36569 18.7795 6.07619 18.7202C5.89792 18.6852 5.73216 18.6035 5.59591 18.4833C5.45965 18.3631 5.3578 18.2089 5.30078 18.0364C5.24377 17.8639 5.23365 17.6794 5.27146 17.5017C5.30926 17.324 5.39364 17.1596 5.51594 17.0252C5.85962 16.6348 6.11767 16.1767 6.27344 15.6805C6.2826 15.6557 6.28554 15.6291 6.28201 15.603C6.27848 15.5768 6.26858 15.5519 6.25319 15.5305C5.72226 14.6877 5.39439 13.7331 5.29544 12.742C5.07494 10.5505 5.75669 8.67323 7.32794 7.13423C8.3168 6.15473 9.59649 5.52212 10.9752 5.33123C12.8779 5.05298 14.6119 5.49248 16.1352 6.67223C17.4942 7.72523 18.3402 9.11198 18.6349 10.8055C19.0084 12.949 18.4677 14.8585 17.0299 16.4905C15.9672 17.6965 14.6172 18.4127 13.0287 18.667C12.7272 18.7157 12.4212 18.7292 12.2592 18.745ZM7.43669 16.954C7.48544 16.9405 7.51394 16.933 7.54169 16.924C7.96826 16.7799 8.37114 16.5734 8.73719 16.3112C9.00119 16.1252 9.26144 16.1162 9.53969 16.2752C10.1367 16.6172 10.7764 16.8302 11.4627 16.903C12.5779 17.0222 13.6302 16.81 14.5714 16.2055C16.1989 15.1615 17.0089 13.6585 16.9212 11.7122C16.8649 10.4657 16.3767 9.38948 15.4924 8.51273C14.4267 7.45673 13.1299 6.97523 11.6277 7.07873C10.6152 7.14923 9.70019 7.49723 8.92094 8.14748C7.41119 9.40748 6.82844 11.023 7.16294 12.9602C7.27244 13.5977 7.52669 14.1827 7.88519 14.7227C7.9536 14.8192 8.00046 14.9293 8.02259 15.0455C8.04472 15.1617 8.0416 15.2813 8.01344 15.3962C7.9277 15.7692 7.80718 16.1333 7.65344 16.4837C7.58669 16.636 7.51469 16.7852 7.43744 16.954H7.43669ZM12.0049 9.14498L12.4324 10.0127C12.5824 10.3202 12.7369 10.6277 12.8824 10.9382C12.9199 11.0192 12.9702 11.0477 13.0542 11.059C13.6842 11.1467 14.3134 11.239 14.9427 11.3297C14.9644 11.3335 14.9862 11.3395 15.0132 11.3447C14.8969 11.4647 14.7889 11.5817 14.6757 11.692C14.3202 12.0392 13.9639 12.385 13.6054 12.7285C13.5432 12.7885 13.5184 12.8447 13.5349 12.937C13.6474 13.5692 13.7524 14.203 13.8589 14.8367C13.8612 14.8525 13.8612 14.869 13.8634 14.8997C13.8289 14.8862 13.8027 14.878 13.7787 14.8652C13.2222 14.572 12.6649 14.2795 12.1107 13.9817C12.0357 13.9412 11.9772 13.9375 11.8992 13.9795C11.3412 14.2772 10.7809 14.5705 10.2207 14.8645C10.1982 14.8772 10.1742 14.887 10.1307 14.908C10.1584 14.7377 10.1824 14.5855 10.2087 14.434C10.2972 13.9225 10.3849 13.4102 10.4787 12.8995C10.4922 12.8245 10.4502 12.7892 10.4082 12.748C9.96162 12.309 9.51412 11.871 9.06569 11.434C9.04019 11.4085 9.00419 11.3942 8.97269 11.3747L8.99594 11.3387L9.68294 11.2397C10.1149 11.1782 10.5462 11.1152 10.9789 11.056C11.0479 11.0462 11.0794 11.0095 11.1079 10.951C11.3907 10.3742 11.6764 9.79898 11.9607 9.22298C11.9712 9.20273 11.9832 9.18398 12.0057 9.14498H12.0049Z" fill="white"/>
</svg>
