<svg width="24" height="24" viewBox="0 0 24 24" fill="none" xmlns="http://www.w3.org/2000/svg">
<g clip-path="url(#clip0)">
<path d="M6.89828 15.2581C6.89406 15.3129 6.8732 15.3652 6.8385 15.4079C6.80379 15.4507 6.75689 15.4818 6.70404 15.4972C6.65118 15.5125 6.5949 15.5114 6.5427 15.494C6.49049 15.4766 6.44484 15.4436 6.41184 15.3996L2.52033 11.7752C2.47179 11.7438 2.43363 11.6988 2.4107 11.6458C2.38777 11.5927 2.38109 11.5341 2.3915 11.4773C2.40192 11.4205 2.42897 11.368 2.46922 11.3266C2.50947 11.2851 2.56112 11.2566 2.61762 11.2445L8.06573 9.07232C8.31868 8.9715 8.4708 9.10416 8.40359 9.36949L6.89828 15.2581Z" fill="#404A72"/>
<path d="M3.67923 18.7023C3.47228 18.8791 3.26355 18.8066 3.21579 18.5377L2.15447 12.6474C2.10494 12.3785 2.22876 12.3113 2.42864 12.4971L6.12558 15.9464C6.17266 15.9883 6.21011 16.0399 6.23537 16.0976C6.26063 16.1553 6.2731 16.2179 6.27193 16.2809C6.27075 16.3439 6.25596 16.4059 6.22856 16.4626C6.20116 16.5194 6.16181 16.5696 6.1132 16.6097L3.67923 18.7023Z" fill="#556195"/>
<path d="M8.13694 7.8996C8.17941 7.94001 8.21045 7.99092 8.22691 8.04719C8.24337 8.10346 8.24466 8.16307 8.23065 8.22C8.21664 8.27693 8.18784 8.32914 8.14715 8.37134C8.10646 8.41355 8.05534 8.44425 7.99897 8.46033L2.58446 10.6272C2.32974 10.728 2.20062 10.6024 2.29614 10.3459L4.52137 4.3654C4.53071 4.31106 4.55654 4.2609 4.59535 4.22172C4.63416 4.18255 4.68408 4.15626 4.73834 4.14641C4.7926 4.13656 4.84857 4.14364 4.89867 4.16667C4.94877 4.18971 4.99058 4.22759 5.01842 4.27519L8.13694 7.8996Z" fill="#556195"/>
<path d="M2.46224 17.7011C2.51176 17.97 2.42863 18.0018 2.28535 17.7736L0.176859 14.5278C0.10445 14.4029 0.0686984 14.2602 0.0737043 14.116C0.0787102 13.9717 0.124271 13.8318 0.20516 13.7123L1.14266 12.4547C1.30716 12.2353 1.48051 12.2778 1.52827 12.5449L2.46224 17.7011Z" fill="#556195"/>
<path d="M1.80052 9.97804C1.705 10.2345 1.55641 10.2328 1.46974 9.97804L0.753347 7.81825C0.714652 7.67743 0.713734 7.5289 0.750686 7.38761C0.787639 7.24632 0.861157 7.11726 0.963842 7.01342L3.52339 4.69443C3.72505 4.51755 3.81349 4.57061 3.71797 4.8271L1.80052 9.97804Z" fill="#556195"/>
<path d="M1.12542 10.8093C1.16504 10.9552 1.17307 11.1077 1.14897 11.2569C1.12488 11.4061 1.0692 11.5484 0.985677 11.6743L0.251597 12.6631C0.087092 12.8825 -0.0225778 12.84 0.00395526 12.5676L0.354191 9.14837C0.380724 8.87596 0.476243 8.86535 0.561149 9.12537L1.12542 10.8093Z" fill="#556195"/>
<path d="M4.01317 3.10961C4.10515 3.21398 4.01317 3.451 3.80975 3.64027L2.65291 4.6786C2.44949 4.85548 2.41765 4.83249 2.58039 4.61315L3.53735 3.31657C3.71423 3.09723 3.92296 3.00702 4.01317 3.10961Z" fill="#556195"/>
<path d="M11.2787 21.3075C11.2573 21.3592 11.2216 21.4037 11.1756 21.4357C11.1297 21.4677 11.0756 21.4857 11.0196 21.4878C10.9637 21.4899 10.9084 21.4758 10.8602 21.4473C10.8121 21.4188 10.7731 21.377 10.748 21.327L7.74097 16.9473C7.70234 16.9081 7.67658 16.858 7.66712 16.8038C7.65766 16.7496 7.66494 16.6938 7.688 16.6439C7.71105 16.5939 7.74879 16.5522 7.79618 16.5242C7.84357 16.4962 7.89835 16.4834 7.95323 16.4874L14.001 15.8629C14.2716 15.8346 14.3813 16.0045 14.2433 16.2415L11.2787 21.3075Z" fill="#556195"/>
<path d="M10.0171 21.3111C10.1727 21.5375 10.0878 21.649 9.82782 21.5623L4.16744 19.6342C3.90918 19.5458 3.86673 19.3282 4.07369 19.1496L6.49527 17.0588C6.54207 17.0165 6.59746 16.985 6.65762 16.9662C6.71778 16.9474 6.78129 16.9418 6.8438 16.9499C6.90631 16.9579 6.96634 16.9794 7.01976 17.0129C7.07318 17.0463 7.11873 17.091 7.15329 17.1437L10.0171 21.3111Z" fill="#556195"/>
<path d="M14.1229 14.8463C14.2998 15.0533 14.2237 15.2443 13.946 15.2726L7.80803 15.9059C7.75135 15.9177 7.69253 15.9142 7.63769 15.8956C7.58286 15.877 7.53401 15.844 7.49626 15.8001C7.4585 15.7562 7.43321 15.703 7.42302 15.646C7.41283 15.589 7.41812 15.5303 7.43834 15.476L8.97371 9.50079C9.0427 9.23723 9.24435 9.18947 9.42123 9.39643L14.1229 14.8463Z" fill="#6ECCE0"/>
<path d="M18.5327 19.9654C18.5761 19.9999 18.6078 20.0469 18.6234 20.1001C18.639 20.1532 18.6379 20.2099 18.6201 20.2624C18.6022 20.3149 18.5687 20.3606 18.5239 20.3932C18.4791 20.4259 18.4254 20.4439 18.37 20.4448L12.1259 21.7573C11.8588 21.8139 11.7526 21.6671 11.8906 21.4301L14.8358 16.3941C14.8605 16.3412 14.8986 16.2957 14.9463 16.2621C14.9941 16.2285 15.0498 16.208 15.108 16.2026C15.1661 16.1972 15.2247 16.2072 15.2778 16.2315C15.3309 16.2558 15.3767 16.2935 15.4106 16.341L18.5327 19.9654Z" fill="#556195"/>
<path d="M8.49081 23.3259C8.36056 23.3878 8.21554 23.4118 8.0723 23.3952C7.92906 23.3786 7.79336 23.3221 7.68067 23.2322L4.77619 20.6726C4.57277 20.4957 4.61699 20.4161 4.87525 20.4957L9.82808 22.1815C10.0881 22.2699 10.1023 22.4486 9.86169 22.5777L8.49081 23.3259Z" fill="#556195"/>
<path d="M15.2229 23.57C15.1052 23.656 14.9668 23.7095 14.8218 23.7251C14.6767 23.7406 14.5302 23.7176 14.3969 23.6584L12.3821 22.6307C12.138 22.5051 12.1575 22.3583 12.4246 22.3017L17.8037 21.1696C18.0708 21.113 18.1168 21.2085 17.9063 21.3819L15.2229 23.57Z" fill="#556195"/>
<path d="M9.58871 23.7028C9.31453 23.6904 9.28977 23.5737 9.53033 23.4445L10.6129 22.8573C10.7509 22.792 10.9013 22.7573 11.0539 22.7554C11.2066 22.7536 11.3578 22.7847 11.4973 22.8467L13.0787 23.6515C13.3228 23.7753 13.298 23.8655 13.0256 23.8532L9.58871 23.7028Z" fill="#556195"/>
<path d="M19.537 21.1327C19.6272 21.2371 19.5051 21.4299 19.2646 21.559L17.8388 22.3196C17.5965 22.4488 17.5717 22.4116 17.784 22.2383L18.9868 21.2548C19.1991 21.0814 19.4467 21.0266 19.537 21.1327Z" fill="#556195"/>
<path d="M15.9336 14.7822C15.6789 14.883 15.5267 14.7504 15.5957 14.485L17.1081 8.59825C17.1125 8.54329 17.1335 8.49097 17.1683 8.44819C17.2031 8.40542 17.25 8.37421 17.3029 8.35868C17.3558 8.34315 17.4122 8.34405 17.4646 8.36124C17.517 8.37843 17.5629 8.41111 17.5963 8.45497L21.4878 12.0811C21.5372 12.1119 21.5761 12.1569 21.5996 12.2101C21.6231 12.2633 21.63 12.3223 21.6196 12.3795C21.6091 12.4368 21.5816 12.4895 21.5408 12.5309C21.4999 12.5723 21.4476 12.6005 21.3905 12.6118L15.9336 14.7822Z" fill="#404A72"/>
<path d="M21.8489 11.2076C21.8967 11.4765 21.7746 11.5454 21.5747 11.3579L17.876 7.90865C17.8291 7.86662 17.7918 7.81493 17.7666 7.75712C17.7415 7.69931 17.7292 7.63675 17.7306 7.57373C17.7319 7.51072 17.7469 7.44874 17.7744 7.39205C17.802 7.33537 17.8415 7.28531 17.8902 7.24532L20.3189 5.15275C20.5258 4.97587 20.7363 5.04839 20.7841 5.31726L21.8489 11.2076Z" fill="#556195"/>
<path d="M19.4792 19.4912C19.4691 19.5453 19.4427 19.595 19.4037 19.6338C19.3646 19.6725 19.3146 19.6984 19.2604 19.708C19.2062 19.7177 19.1504 19.7105 19.1003 19.6876C19.0503 19.6646 19.0084 19.627 18.9804 19.5796L15.8601 15.9552C15.8162 15.9151 15.7839 15.864 15.7665 15.8071C15.7491 15.7503 15.7473 15.6898 15.7612 15.632C15.7751 15.5742 15.8042 15.5212 15.8456 15.4785C15.8869 15.4358 15.939 15.4049 15.9963 15.3892L21.4161 13.2223C21.669 13.1215 21.7999 13.2471 21.7044 13.5036L19.4792 19.4912Z" fill="#556195"/>
<path d="M23.8198 9.32726C23.892 9.45206 23.9279 9.59463 23.9232 9.73878C23.9185 9.88292 23.8735 10.0229 23.7932 10.1427L22.854 11.4004C22.6912 11.6197 22.5179 11.5773 22.4684 11.3102L21.5362 6.15391C21.4884 5.88504 21.5698 5.8532 21.7131 6.08138L23.8198 9.32726Z" fill="#556195"/>
<path d="M23.2466 16.0365C23.2853 16.1774 23.2862 16.3259 23.2493 16.4672C23.2123 16.6085 23.1388 16.7375 23.0361 16.8414L20.4766 19.1604C20.2731 19.3373 20.1865 19.2842 20.282 19.0295L22.1994 13.8768C22.2932 13.6203 22.4418 13.622 22.5285 13.8768L23.2466 16.0365Z" fill="#556195"/>
<path d="M23.6422 14.7063C23.6139 14.9787 23.5202 14.9875 23.4335 14.7293L22.8728 13.0453C22.8326 12.899 22.8243 12.7457 22.8484 12.5959C22.8725 12.4461 22.9285 12.3032 23.0125 12.1768L23.7484 11.1915C23.9111 10.9722 24.0225 11.0146 23.9942 11.2871L23.6422 14.7063Z" fill="#556195"/>
<path d="M20.4484 20.5383C20.2839 20.7594 20.0769 20.8514 19.9849 20.7452C19.893 20.6391 19.9849 20.4038 20.1884 20.2146L21.3399 19.1709C21.5415 18.994 21.5752 19.017 21.4124 19.2364L20.4484 20.5383Z" fill="#556195"/>
<path d="M16.263 6.90743C16.3016 6.94662 16.3274 6.99665 16.3368 7.05085C16.3463 7.10506 16.339 7.16086 16.316 7.21082C16.2929 7.26078 16.2552 7.30252 16.2078 7.33048C16.1604 7.35845 16.1056 7.3713 16.0507 7.36734L10.003 7.99175C9.73055 8.02005 9.62088 7.85024 9.75885 7.61498L12.7217 2.54717C12.7431 2.49545 12.7788 2.45095 12.8248 2.41899C12.8707 2.38703 12.9249 2.36895 12.9808 2.3669C13.0367 2.36484 13.092 2.37891 13.1402 2.40743C13.1883 2.43594 13.2273 2.47769 13.2524 2.52772L16.263 6.90743Z" fill="#404A72"/>
<path d="M17.5119 6.79578C17.4651 6.838 17.4097 6.86958 17.3496 6.88838C17.2894 6.90717 17.2259 6.91273 17.1634 6.90466C17.1009 6.89659 17.0409 6.8751 16.9874 6.84165C16.934 6.8082 16.8885 6.76359 16.8539 6.71088L13.9742 2.54342C13.8203 2.31701 13.9052 2.20557 14.1635 2.29401L19.8238 4.21854C20.0821 4.30699 20.1245 4.52456 19.9176 4.70321L17.5119 6.79578Z" fill="#556195"/>
<path d="M15.0181 14.3543C14.9509 14.6196 14.7492 14.6656 14.5706 14.4586L9.87776 9.0105C9.70088 8.80354 9.77517 8.61073 10.0547 8.58243L16.1909 7.94918C16.2477 7.93692 16.3067 7.94018 16.3618 7.95861C16.4169 7.97705 16.4661 8.00997 16.504 8.05394C16.542 8.09791 16.5675 8.15129 16.5778 8.20849C16.588 8.26568 16.5827 8.32459 16.5623 8.37901L15.0181 14.3543Z" fill="#556195"/>
<path d="M9.16306 7.46128C9.13876 7.51461 9.1008 7.56057 9.05303 7.59451C9.00525 7.62844 8.94936 7.64916 8.89101 7.65454C8.83265 7.65993 8.77391 7.6498 8.72073 7.62518C8.66755 7.60056 8.62182 7.56233 8.58818 7.51435L5.46789 3.89171C5.42461 3.85734 5.39297 3.81047 5.37728 3.75748C5.36158 3.70448 5.3626 3.64794 5.3802 3.59555C5.39779 3.54316 5.4311 3.49746 5.4756 3.46468C5.52009 3.4319 5.57361 3.41362 5.62886 3.41234L11.873 2.09807C12.1418 2.04147 12.248 2.18829 12.11 2.42532L9.16306 7.46128Z" fill="#556195"/>
<path d="M14.1614 1.66605C13.9031 1.57761 13.889 1.40072 14.1295 1.26983L15.5128 0.530441C15.6431 0.468588 15.7881 0.44458 15.9313 0.461156C16.0746 0.477732 16.2103 0.534224 16.3229 0.624191L19.2203 3.18374C19.4255 3.36063 19.3813 3.44023 19.1231 3.36063L14.1614 1.66605Z" fill="#556195"/>
<path d="M6.20312 2.68511C5.93602 2.74171 5.89003 2.65327 6.1023 2.47638L8.77506 0.284753C8.89316 0.198707 9.03183 0.145239 9.17713 0.129715C9.32243 0.114191 9.46926 0.137158 9.60289 0.19631L11.6265 1.22579C11.8706 1.34961 11.8511 1.49643 11.584 1.55303L6.20312 2.68511Z" fill="#556195"/>
<path d="M13.3873 0.997513C13.2493 1.06278 13.0988 1.09751 12.9462 1.09934C12.7936 1.10118 12.6424 1.07006 12.5028 1.00813L10.9109 0.203291C10.6809 0.0794705 10.7039 -0.0107418 10.9781 -0.000128611L14.4114 0.15907C14.6821 0.176758 14.7104 0.288197 14.4698 0.417324L13.3873 0.997513Z" fill="#556195"/>
<path d="M5.01344 2.60042C4.80117 2.77731 4.55353 2.82861 4.46332 2.72425C4.37311 2.61988 4.49516 2.42531 4.73572 2.29795L6.16143 1.53557C6.402 1.40644 6.42676 1.44359 6.21627 1.61693L5.01344 2.60042Z" fill="#556195"/>
<path d="M3.18374 19.9142C3.2881 19.8222 3.52513 19.9142 3.7144 20.1158L4.75803 21.2674C4.93492 21.4708 4.91192 21.5026 4.69258 21.3399L3.39423 20.3758C3.16782 20.2131 3.07584 20.0044 3.18374 19.9142Z" fill="#556195"/>
<path d="M21.2032 4.3903C21.3094 4.29832 21.5022 4.42214 21.6295 4.66271L22.3919 6.08842C22.5193 6.33075 22.4839 6.35375 22.3105 6.14325L21.3271 4.94042C21.1537 4.72816 21.0989 4.48052 21.2032 4.3903Z" fill="#556195"/>
<path d="M20.611 3.47948C20.8304 3.64222 20.9241 3.85094 20.818 3.94115C20.7118 4.03137 20.4766 3.94115 20.2873 3.7395L19.2437 2.58797C19.0668 2.38455 19.0898 2.35271 19.3091 2.51545L20.611 3.47948Z" fill="#556195"/>
<path d="M2.67318 18.9143C2.85007 19.1266 2.90136 19.3743 2.79523 19.4645C2.6891 19.5547 2.49806 19.4326 2.36893 19.1921L1.60832 17.7664C1.47919 17.524 1.51634 17.501 1.68969 17.7115L2.67318 18.9143Z" fill="#556195"/>
</g>
<defs>
<clipPath id="clip0">
<rect width="24" height="24" fill="white"/>
</clipPath>
</defs>
</svg>
