<svg width="24" height="24" viewBox="0 0 24 24" fill="none" xmlns="http://www.w3.org/2000/svg">
<path d="M12 24C18.6274 24 24 18.6274 24 12C24 5.37258 18.6274 0 12 0C5.37258 0 0 5.37258 0 12C0 18.6274 5.37258 24 12 24Z" fill="#34445B"/>
<path d="M11.953 7.66631L13.4605 5.31431C13.8473 5.37705 14.2434 5.28823 14.5664 5.06635C14.8894 4.84446 15.1143 4.50658 15.1945 4.12302C15.2747 3.73946 15.2039 3.33974 14.9969 3.00704C14.7899 2.67435 14.4625 2.43429 14.083 2.33681C13.7807 2.2742 13.4665 2.30499 13.182 2.42508C12.8976 2.54518 12.6564 2.74891 12.4904 3.00925C12.3245 3.26958 12.2416 3.57423 12.2528 3.88277C12.2639 4.1913 12.3686 4.48915 12.553 4.73681L10.6825 7.65506C9.90189 7.73184 9.14406 7.96169 8.45232 8.33149C7.76059 8.70128 7.1485 9.20376 6.65105 9.81022C6.1536 10.4167 5.78054 11.1152 5.55318 11.8659C5.32582 12.6166 5.24862 13.4048 5.32599 14.1853C5.48202 15.7613 6.25747 17.2108 7.48187 18.2153C8.70627 19.2197 10.2794 19.6968 11.8555 19.5418C13.4316 19.386 14.8813 18.6106 15.8859 17.3862C16.8905 16.1618 17.3678 14.5885 17.2127 13.0123C17.0781 11.6546 16.4829 10.3839 15.526 9.41137C14.5692 8.43882 13.3083 7.82302 11.953 7.66631ZM11.2667 16.7578C10.8507 16.7582 10.4386 16.6766 10.0541 16.5175C9.66962 16.3585 9.32026 16.1252 9.02602 15.8311C8.73177 15.5369 8.49842 15.1876 8.33931 14.8031C8.18019 14.4187 8.09845 14.0066 8.09874 13.5906C8.09835 13.1744 8.18002 12.7623 8.33909 12.3778C8.49816 11.9932 8.73149 11.6438 9.02575 11.3496C9.32 11.0553 9.6694 10.822 10.0539 10.6629C10.4385 10.5038 10.8506 10.4222 11.2667 10.4226C11.9103 10.4224 12.5386 10.6184 13.0679 10.9845C13.5972 11.3506 14.0023 11.8693 14.2292 12.4716C13.9316 12.0882 13.4939 11.8387 13.0124 11.7778C12.5309 11.7169 12.045 11.8496 11.6612 12.1468C11.2777 12.4444 11.0281 12.882 10.9672 13.3636C10.9063 13.8451 11.0391 14.3312 11.3365 14.7148C11.5073 14.9345 11.726 15.1124 11.9758 15.235C12.2257 15.3575 12.5003 15.4215 12.7786 15.422C13.0569 15.4225 13.3317 15.3595 13.582 15.2379C13.8323 15.1163 14.0516 14.9392 14.2232 14.7201C13.9954 15.3196 13.5906 15.8356 13.0625 16.1996C12.5344 16.5635 11.9081 16.7582 11.2667 16.7578Z" fill="white"/>
<path d="M11.953 7.66631L13.4605 5.31431C13.8473 5.37705 14.2434 5.28823 14.5664 5.06635C14.8894 4.84446 15.1143 4.50658 15.1945 4.12302C15.2747 3.73946 15.2039 3.33974 14.9969 3.00704C14.7899 2.67435 14.4625 2.43429 14.083 2.33681C13.7807 2.2742 13.4665 2.30499 13.182 2.42508C12.8976 2.54518 12.6564 2.74891 12.4904 3.00925C12.3245 3.26958 12.2416 3.57423 12.2528 3.88277C12.2639 4.1913 12.3686 4.48915 12.553 4.73681L10.6825 7.65506C9.90189 7.73184 9.14406 7.96169 8.45232 8.33149C7.76059 8.70128 7.1485 9.20376 6.65105 9.81022C6.1536 10.4167 5.78054 11.1152 5.55318 11.8659C5.32582 12.6166 5.24862 13.4048 5.32599 14.1853C5.48202 15.7613 6.25747 17.2108 7.48187 18.2153C8.70627 19.2197 10.2794 19.6968 11.8555 19.5418C13.4316 19.386 14.8813 18.6106 15.8859 17.3862C16.8905 16.1618 17.3678 14.5885 17.2127 13.0123C17.0781 11.6546 16.4829 10.3839 15.526 9.41137C14.5692 8.43882 13.3083 7.82302 11.953 7.66631ZM11.2667 16.7578C10.8507 16.7582 10.4386 16.6766 10.0541 16.5175C9.66962 16.3585 9.32026 16.1252 9.02602 15.8311C8.73177 15.5369 8.49842 15.1876 8.33931 14.8031C8.18019 14.4187 8.09845 14.0066 8.09874 13.5906C8.09835 13.1744 8.18002 12.7623 8.33909 12.3778C8.49816 11.9932 8.73149 11.6438 9.02575 11.3496C9.32 11.0553 9.6694 10.822 10.0539 10.6629C10.4385 10.5038 10.8506 10.4222 11.2667 10.4226C11.9103 10.4224 12.5386 10.6184 13.0679 10.9845C13.5972 11.3506 14.0023 11.8693 14.2292 12.4716C13.9316 12.0882 13.4939 11.8387 13.0124 11.7778C12.5309 11.7169 12.045 11.8496 11.6612 12.1468C11.2777 12.4444 11.0281 12.882 10.9672 13.3636C10.9063 13.8451 11.0391 14.3312 11.3365 14.7148C11.5073 14.9345 11.726 15.1124 11.9758 15.235C12.2257 15.3575 12.5003 15.4215 12.7786 15.422C13.0569 15.4225 13.3317 15.3595 13.582 15.2379C13.8323 15.1163 14.0516 14.9392 14.2232 14.7201C13.9954 15.3196 13.5906 15.8356 13.0625 16.1996C12.5344 16.5635 11.9081 16.7582 11.2667 16.7578Z" fill="white"/>
</svg>
