<svg width="24" height="24" viewBox="0 0 24 24" fill="none" xmlns="http://www.w3.org/2000/svg">
<path fill-rule="evenodd" clip-rule="evenodd" d="M24 12C24 18.6274 18.6274 24 12 24C5.37255 24 0 18.6274 0 12C0 5.37255 5.37255 0 12 0C18.6274 0 24 5.37255 24 12Z" fill="#388CBF"/>
<path fill-rule="evenodd" clip-rule="evenodd" d="M12.0002 22.2543C6.34604 22.2543 1.74599 17.6543 1.74599 12.0002C1.74599 6.34604 6.34604 1.74599 12.0002 1.74599C17.6543 1.74599 22.2543 6.34604 22.2543 12.0002C22.2543 17.6543 17.6543 22.2543 12.0002 22.2543ZM12.0002 1.08301C5.98047 1.08301 1.08301 5.98047 1.08301 12.0002C1.08301 18.0198 5.98047 22.9173 12.0002 22.9173C18.0198 22.9173 22.9173 18.0198 22.9173 12.0002C22.9173 5.98047 18.0198 1.08301 12.0002 1.08301Z" fill="#F5F5F3"/>
<path fill-rule="evenodd" clip-rule="evenodd" d="M18.7417 12.196C18.6364 12.4008 18.3868 12.5826 17.9929 12.7412L16.8264 13.211L16.1868 11.6231L17.3483 11.1553C17.7489 10.9939 18.0559 10.9475 18.2694 11.0161C18.4829 11.0848 18.6515 11.2725 18.7396 11.4913C18.8345 11.7269 18.8471 11.9913 18.7417 12.196ZM19.8727 9.91846C19.4965 9.70816 19.0167 9.6461 18.4332 9.73229C18.7344 9.47015 18.9341 9.19806 19.0318 8.91609C19.1784 8.49311 19.1636 8.06283 18.9873 7.6252C18.7771 7.10336 18.4097 6.74263 17.8853 6.54301C17.4932 6.39384 17.0483 6.38084 16.5505 6.50376C16.623 6.6349 16.6898 6.77552 16.7504 6.92595C16.9365 7.38825 17.0177 7.82953 16.995 8.24601C17.129 8.33432 17.2386 8.48237 17.3062 8.65017C17.3997 8.88241 17.4191 9.13229 17.3289 9.31136C17.2386 9.49063 16.971 9.66977 16.6141 9.81344L15.9844 10.0671C15.6784 10.3016 15.3036 10.5092 14.8599 10.6879L13.9424 11.0575L15.6963 15.4125L18.6764 14.2123C18.8446 14.1445 19.1728 13.9733 19.6607 13.6985C20.0276 13.492 20.2846 13.2946 20.4317 13.1062C20.6696 12.803 20.816 12.4624 20.8711 12.0841C20.9262 11.7059 20.8764 11.3248 20.7218 10.941C20.532 10.4697 20.2489 10.1289 19.8727 9.91846Z" fill="#FFFFFE"/>
<path fill-rule="evenodd" clip-rule="evenodd" d="M4.40074 9.25635L2.9502 9.84057L3.09207 10.193L3.64116 9.97184L7.22359 18.8668L7.57603 18.7249L3.9936 9.82989L4.54268 9.60879L4.40074 9.25635Z" fill="#FFFFFE"/>
<path fill-rule="evenodd" clip-rule="evenodd" d="M14.7169 8.50471C14.6001 8.72986 14.0569 9.03762 13.6159 9.21516L13.0554 9.44097L12.3903 7.78962L13.0417 7.52727C13.4693 7.3551 14.0573 7.21209 14.2773 7.31134C14.4972 7.41059 14.654 7.57633 14.7476 7.80864C14.8439 8.04772 14.8336 8.27976 14.7169 8.50471ZM15.2558 5.5732C14.6847 5.34546 13.9852 5.3983 13.157 5.73185L10.539 6.78619L9.08789 7.36902L9.22977 7.72146L9.77892 7.50029L13.3613 16.3952L13.7137 16.2533L13.0071 14.4987L14.8013 13.7761L13.6594 10.9408L14.7797 10.4896C15.7021 10.1181 16.3034 9.63145 16.5833 9.02959C16.8633 8.42774 16.8528 7.75309 16.5518 7.0057C16.2589 6.27848 15.8269 5.80106 15.2558 5.5732Z" fill="#FFFFFE"/>
<path fill-rule="evenodd" clip-rule="evenodd" d="M10.4485 10.6253L10.2098 10.7214L9.9851 10.1634L10.0363 10.1427C10.1103 10.113 10.1461 10.029 10.1163 9.95506L9.3607 8.07895C9.33093 8.00502 9.24687 7.96922 9.17294 7.99899L9.04936 8.04878C8.59641 7.4991 7.82344 7.27965 7.12764 7.5599L5.92359 8.0448C5.22779 8.32505 4.82264 9.01899 4.87714 9.72911L4.75349 9.7789C4.67957 9.80867 4.64377 9.89274 4.67361 9.96666L5.42921 11.8428C5.45898 11.9167 5.54298 11.9525 5.6169 11.9227L5.66815 11.902L5.8929 12.4601L5.65429 12.5561C5.5154 12.6121 5.44817 12.77 5.50412 12.9088L5.53814 12.9933C5.55159 13.0267 5.58958 13.043 5.62306 13.0294L5.87453 12.9282C5.93871 12.9023 5.99274 12.8624 6.03524 12.8135L7.29445 15.94L7.2432 15.9607C7.16927 15.9905 7.13347 16.0745 7.16324 16.1484L7.91884 18.0246C7.94868 18.0985 8.03268 18.1342 8.1066 18.1045L8.15785 18.0838L8.21997 18.238C8.33261 18.5178 8.65078 18.6533 8.93056 18.5406L12.2343 17.21C12.5141 17.0973 12.6496 16.7791 12.5369 16.4994L12.4748 16.3452L12.526 16.3245C12.6 16.2948 12.6358 16.2107 12.606 16.1368L11.8504 14.2607C11.8206 14.1867 11.7366 14.1509 11.6626 14.1808L11.6114 14.2014L10.3522 11.0748C10.4167 11.0806 10.4834 11.072 10.5476 11.0461L10.799 10.9449C10.8325 10.9314 10.8486 10.8934 10.8352 10.8599L10.8012 10.7755C10.7453 10.6366 10.5874 10.5694 10.4485 10.6253Z" fill="#FFFFFE"/>
</svg>
