<svg width="24" height="24" viewBox="0 0 24 24" fill="none" xmlns="http://www.w3.org/2000/svg">
<g clip-path="url(#clip0)">
<path fill-rule="evenodd" clip-rule="evenodd" d="M10.9294 13.9346C10.846 13.8266 10.7589 13.7125 10.673 13.5923C10.5774 13.4574 10.5442 13.3274 10.5737 13.1912C10.6375 12.8944 10.9919 12.6343 11.1232 12.5595L10.9613 12.2676C10.9367 12.2811 10.3602 12.6135 10.2511 13.1176C10.2008 13.3482 10.2523 13.5739 10.4044 13.7874C10.4927 13.9112 10.5823 14.0278 10.6681 14.1394C11.0962 14.6975 11.29 14.9821 11.0263 15.3366C10.9134 15.4874 10.7834 15.5856 10.6448 15.6886C10.3014 15.9462 9.94565 16.2124 10.0659 17.2035L10.3934 17.163C10.2965 16.3645 10.5246 16.194 10.8411 15.9572C10.9858 15.8493 11.1489 15.7266 11.2912 15.5365C11.7193 14.9625 11.3354 14.4632 10.9294 13.9346Z" fill="#DEC685"/>
<path fill-rule="evenodd" clip-rule="evenodd" d="M10.9398 12.3483C10.7913 12.4428 10.3939 12.7298 10.3068 13.1297C10.2602 13.3431 10.3081 13.5529 10.4516 13.7528C10.5399 13.8767 10.6282 13.992 10.7128 14.1024C11.1471 14.6691 11.3605 14.9819 11.0722 15.3695C10.9545 15.5277 10.8208 15.6271 10.6785 15.7338C10.3399 15.9877 10.0198 16.2269 10.1155 17.137L10.3277 17.1101C10.2455 16.3275 10.492 16.1423 10.8036 15.9092C10.9459 15.8025 11.1054 15.6835 11.2427 15.5007C11.6451 14.961 11.2918 14.501 10.8821 13.9675C10.7987 13.8583 10.7104 13.7442 10.6245 13.6228C10.5178 13.4731 10.4822 13.3272 10.5154 13.1751C10.5779 12.8893 10.8833 12.6403 11.044 12.536L10.9398 12.3483ZM10.0137 17.2683L10.0063 17.2106C9.88119 16.1852 10.2676 15.8969 10.6073 15.6418C10.7423 15.5412 10.8711 15.4443 10.9778 15.3008C11.2072 14.9929 11.0698 14.7611 10.6196 14.1748C10.5288 14.0582 10.4405 13.9405 10.3547 13.8215C10.1927 13.5946 10.1376 13.3529 10.1915 13.1052C10.3031 12.5912 10.8649 12.2539 10.9299 12.2171L10.9815 12.1876L11.1998 12.5814L11.1507 12.6096C11.0342 12.6758 10.6883 12.9273 10.6294 13.2033C10.6037 13.321 10.6331 13.4376 10.719 13.559C10.8048 13.6792 10.8907 13.7921 10.9741 13.9C11.3752 14.4225 11.7898 14.9635 11.336 15.5731C11.1888 15.7694 11.0219 15.8945 10.8747 16.0049C10.5632 16.2379 10.3571 16.3925 10.4503 17.1567L10.4577 17.2143L10.0137 17.2683ZM6.97165 6.9414C5.26297 6.87394 4.86187 7.51914 4.8263 8.07357C4.81035 8.3238 4.82875 8.60224 4.8496 8.89786C4.89376 9.54551 4.93915 10.2165 4.6006 10.555C4.40189 10.7537 4.07806 10.8322 3.61072 10.7954L3.58496 11.1291C3.66714 11.1352 3.74565 11.1389 3.8217 11.1389C4.26819 11.1389 4.6006 11.0248 4.83243 10.793C5.27892 10.3465 5.22618 9.56514 5.17956 8.87578C5.15994 8.59243 5.14277 8.32503 5.15626 8.09565C5.19428 7.50565 5.80023 7.22843 6.95939 7.27627L6.97165 6.9414Z" fill="#DEC685"/>
<path fill-rule="evenodd" clip-rule="evenodd" d="M3.64635 11.0766C4.16766 11.1085 4.54055 11.003 4.79078 10.7528C5.21765 10.3247 5.16613 9.5568 5.12074 8.87971C5.10112 8.59514 5.08395 8.32651 5.09744 8.09222C5.13669 7.47401 5.74387 7.17962 6.90302 7.21642L6.91161 6.99808C5.62979 6.9576 4.93062 7.33172 4.88401 8.0775C4.86806 8.32651 4.88646 8.60127 4.90731 8.8932C4.95147 9.55435 4.99808 10.2388 4.64114 10.5957C4.43874 10.7981 4.11982 10.884 3.66475 10.857L3.64635 11.0766ZM3.82176 11.1968C3.74448 11.1968 3.66475 11.1943 3.58011 11.187L3.52246 11.1821L3.55681 10.7331L3.61446 10.738C4.0634 10.7736 4.37251 10.7 4.55773 10.5136C4.87787 10.1934 4.83249 9.53595 4.79078 8.90056C4.77116 8.60495 4.75153 8.32528 4.76748 8.06892C4.80428 7.48873 5.21642 6.81409 6.97294 6.88278L7.03059 6.88523L7.01341 7.3354L6.95576 7.33295C5.83586 7.28756 5.24831 7.54515 5.21274 8.09836C5.19802 8.32405 5.21642 8.59023 5.23605 8.87112C5.28388 9.57275 5.33663 10.3688 4.87297 10.8337C4.62887 11.079 4.28419 11.1968 3.82176 11.1968Z" fill="#DEC685"/>
<path fill-rule="evenodd" clip-rule="evenodd" d="M9.49745 12.5629C9.41404 12.4537 9.32695 12.3409 9.24109 12.2194C9.13437 12.0698 9.09757 11.93 9.12824 11.7901C9.18098 11.5522 9.41281 11.3719 9.51953 11.3007C9.75013 11.3927 10.0298 11.454 10.3708 11.4675V11.47C10.3941 11.47 10.4186 11.47 10.4419 11.4688C10.4652 11.47 10.4885 11.47 10.5131 11.47V11.4675C11.4613 11.4307 11.9409 11.0186 12.1837 10.6138C12.4106 10.7058 13.0608 11.0394 13.0313 11.8453C13.0166 12.2428 12.6842 12.6218 12.3616 12.9885C11.9041 13.5111 11.384 14.1035 11.817 14.8064L12.0979 14.6297C11.8157 14.171 12.1028 13.7871 12.6094 13.2106C12.97 12.7996 13.3429 12.374 13.3613 11.8576C13.387 11.1376 12.9761 10.6837 12.5885 10.4445C12.9123 10.4114 13.3232 10.301 13.4226 10.0949C13.4582 10.0213 13.5514 9.82631 12.6584 7.70181C12.5946 7.39761 12.4143 6.52548 12.3616 6.10107C13.0252 5.18847 12.7283 4.25256 12.1285 3.72021C11.5079 3.17069 10.4812 2.96952 9.6888 3.59387C9.46187 3.07501 8.88782 2.70948 8.12487 2.61503C6.76824 2.44821 5.77836 3.17191 5.43368 3.91524C4.98843 4.87568 5.23375 5.55155 5.46926 5.91218C4.73452 5.91954 4.22302 6.09985 3.91391 6.45679C3.41836 7.0284 3.58396 7.89071 3.71643 8.58498C3.77776 8.90758 3.85504 9.30868 3.77653 9.40681C3.51895 9.73064 3.22701 9.63741 3.11294 9.58222C2.91791 9.48777 2.79524 9.30009 2.82959 9.14554L2.50699 9.0744C2.44075 9.38105 2.63579 9.72205 2.97188 9.88396C3.26872 10.0275 3.70416 10.0324 4.03535 9.61533C4.20953 9.397 4.13593 9.01061 4.04148 8.52119C3.92373 7.8993 3.77531 7.12653 4.16414 6.67636C4.44749 6.34885 5.0056 6.20902 5.82375 6.25563L5.93537 5.95756C5.92678 5.95143 5.15156 5.31236 5.7342 4.05753C6.15616 3.14738 7.24907 2.84318 8.08684 2.94621C8.66703 3.01736 9.32817 3.31052 9.44838 3.92138L9.72805 4.00601C10.2273 3.49329 11.162 3.30684 11.9114 3.97167C12.3653 4.374 12.6756 5.12346 12.0819 5.92076C10.5621 5.68525 9.42508 5.88764 8.70628 6.52794C8.26961 6.91555 8.08071 7.38166 7.99853 7.7337C7.96296 7.70549 7.92493 7.68219 7.88445 7.66256C7.77161 7.61104 7.54346 7.55584 7.2736 7.75824C7.0062 7.9594 6.89703 8.26115 6.96572 8.60583C7.04668 9.01675 7.36314 9.43257 7.67716 9.66685C7.52751 9.81282 7.37418 10.0091 7.32267 10.2458C7.27237 10.4764 7.32389 10.7021 7.47599 10.9155C7.56431 11.0394 7.65385 11.156 7.73971 11.2676C8.1678 11.8257 8.36161 12.1103 8.09788 12.4648C7.98504 12.6156 7.85379 12.7138 7.71518 12.8168C7.37173 13.0744 7.01601 13.3406 7.13622 14.3317L7.46373 14.2912C7.36682 13.4927 7.59497 13.3222 7.91144 13.0867C8.05618 12.9787 8.21932 12.8561 8.36161 12.6659C8.78969 12.0919 8.40576 11.5926 7.99975 11.0627C7.91267 10.9499 7.8268 10.8358 7.74339 10.7205C7.64772 10.5856 7.61583 10.4543 7.64404 10.3194C7.68452 10.1305 7.84275 9.95633 7.98626 9.83613C7.99607 9.83981 8.02551 9.80423 8.02551 9.80423C8.09298 9.75149 8.15308 9.71101 8.19356 9.68893L8.1126 9.54296L8.03165 9.397C8.00221 9.41417 7.974 9.43134 7.94578 9.45097C7.69187 9.29028 7.35946 8.90512 7.28709 8.54204C7.24294 8.32125 7.30304 8.15321 7.46863 8.02687C7.57044 7.94959 7.66244 7.92996 7.74462 7.96799C7.84275 8.01215 7.92371 8.14094 7.93229 8.26606L8.08807 8.25379L8.26225 8.24643C8.26102 8.23784 8.24017 7.38044 8.92339 6.77694C9.56982 6.20534 10.621 6.03238 12.0463 6.25563C12.1285 6.8211 12.3456 7.83429 12.3554 7.88212L12.3702 7.87844C12.7296 8.73462 13.0988 9.73186 13.1135 9.95756C13.0092 10.0483 12.5701 10.1305 12.3812 10.1293C12.429 9.94161 12.4303 9.80914 12.4303 9.80423H12.0991C12.0991 9.8582 12.0795 11.102 10.4395 11.1363C8.81054 11.1008 8.78233 9.85698 8.78111 9.80301L8.61674 9.80423H8.45115C8.45115 9.8165 8.46341 10.6469 9.19325 11.1314C9.0436 11.259 8.86329 11.4577 8.80564 11.7165C8.75289 11.952 8.80809 12.1876 8.97246 12.4169C9.06077 12.5408 9.15032 12.6573 9.23618 12.769C9.66427 13.3271 9.85807 13.6104 9.59435 13.9649C9.4815 14.1158 9.35025 14.2139 9.21287 14.3182C8.86942 14.5758 8.5137 14.8407 8.63391 15.8331L8.96142 15.7926C8.86451 14.9941 9.09266 14.8236 9.40913 14.5868C9.55387 14.4789 9.71701 14.3562 9.8593 14.1661C10.2862 13.5908 9.90223 13.0916 9.49745 12.5629Z" fill="#DEC685"/>
<path fill-rule="evenodd" clip-rule="evenodd" d="M8.51303 9.86213C8.5302 10.0559 8.63324 10.6901 9.22692 11.0826L9.29071 11.1256L9.23183 11.1758C9.09322 11.2936 8.91781 11.4837 8.86384 11.729C8.81478 11.9486 8.86752 12.1682 9.02085 12.3828C9.10917 12.5067 9.19748 12.6233 9.28335 12.7336C9.71635 13.2991 9.92978 13.6119 9.64152 13.9995C9.52377 14.1565 9.39129 14.2571 9.25023 14.3626C8.90923 14.6177 8.58908 14.8569 8.68475 15.7683L8.89819 15.7413C8.816 14.9587 9.06255 14.7723 9.37412 14.5405C9.51641 14.4337 9.67587 14.3148 9.81202 14.132C10.2131 13.5935 9.86109 13.1335 9.45262 12.5999L9.49801 12.5631L9.45139 12.5987C9.36798 12.4895 9.28089 12.3755 9.1938 12.254C9.07727 12.0909 9.0368 11.9339 9.07237 11.7781C9.13002 11.5168 9.3827 11.323 9.48819 11.2519L9.51395 11.2347L9.54216 11.2458C9.78136 11.3414 10.0623 11.3966 10.3738 11.4089L10.4278 11.4114H10.4425H10.4854L10.5124 11.4089C11.2791 11.3782 11.8249 11.101 12.1365 10.5834L12.1622 10.5417L12.2076 10.5601C12.4223 10.6472 13.1227 10.9968 13.092 11.848C13.0761 12.2651 12.7363 12.6527 12.4088 13.0268C11.9746 13.5211 11.4851 14.0792 11.8396 14.7257L12.0224 14.6104C11.7697 14.1406 12.0764 13.7321 12.5682 13.1715C12.9227 12.768 13.2883 12.3509 13.3067 11.8554C13.3349 11.09 12.8516 10.6729 12.5609 10.4938L12.4161 10.4043L12.5854 10.3871C12.9191 10.3528 13.2907 10.2412 13.3729 10.0707C13.4514 9.90752 13.1938 9.1188 12.6075 7.72537C12.5486 7.44692 12.3609 6.54168 12.307 6.10868L12.3033 6.08661L12.3168 6.06698C12.9595 5.18382 12.6664 4.27366 12.0911 3.76339C11.5011 3.24085 10.5002 3.02987 9.72616 3.6395L9.66728 3.68611L9.63784 3.61742C9.41828 3.11574 8.85035 2.76247 8.12051 2.67293C6.79207 2.50979 5.82549 3.21509 5.4894 3.94002C5.06621 4.85263 5.27228 5.49906 5.52006 5.88176L5.57771 5.97008L5.47222 5.9713C4.75342 5.97866 4.25909 6.15039 3.96102 6.49507C3.48387 7.04582 3.64578 7.89341 3.7758 8.57419C3.86044 9.01332 3.91319 9.33224 3.82487 9.44263C3.54152 9.79835 3.21646 9.69531 3.09012 9.63398C2.89141 9.53831 2.76384 9.358 2.76752 9.18995L2.55531 9.14334C2.52955 9.40829 2.70741 9.69041 2.9969 9.83147C3.27289 9.96517 3.6789 9.96885 3.98924 9.58001C4.14624 9.3813 4.0751 9.00718 3.98433 8.53248C3.86289 7.89832 3.71325 7.1096 4.11926 6.63981C4.40874 6.30494 4.96808 6.1553 5.78379 6.197L5.8672 5.97498C5.72123 5.83392 5.14717 5.18382 5.68198 4.03325C6.1162 3.09611 7.23611 2.78455 8.09352 2.89004C8.6823 2.96241 9.35449 3.25925 9.49801 3.87624L9.71144 3.94125C10.2352 3.4273 11.1858 3.25067 11.95 3.92898C12.4186 4.34481 12.7461 5.12494 12.1279 5.95658L12.107 5.9848L12.0727 5.97989C10.5688 5.74683 9.44894 5.94554 8.74486 6.57235C8.31186 6.9575 8.13032 7.42362 8.0555 7.74745L8.03464 7.83576L7.9635 7.77934C7.9267 7.75113 7.89358 7.73027 7.86169 7.71433C7.76111 7.66772 7.55503 7.61865 7.31094 7.80387C7.06193 7.99154 6.96012 8.27244 7.0239 8.59381C7.10609 9.00963 7.42992 9.40829 7.71327 9.61926L7.76847 9.65974L7.7194 9.70758C7.53541 9.88421 7.42256 10.0694 7.38085 10.2571C7.33424 10.4705 7.38208 10.6803 7.52559 10.8802C7.609 10.9968 7.69364 11.1072 7.7746 11.2126L7.78809 11.231C8.22232 11.7965 8.43575 12.1093 8.14749 12.4969C8.02974 12.6551 7.89481 12.7557 7.75252 12.8612C7.41397 13.1151 7.09382 13.3543 7.1895 14.2657L7.40293 14.2399C7.32075 13.4561 7.56853 13.2709 7.88009 13.0391C8.0236 12.9311 8.18306 12.8122 8.31799 12.6306C8.72033 12.0909 8.36706 11.6309 7.95737 11.0973C7.8715 10.9857 7.78564 10.8729 7.69977 10.7539C7.59306 10.6055 7.55749 10.4583 7.59061 10.3074C7.63722 10.094 7.81385 9.90875 7.95246 9.79099L7.97699 9.77014L7.98067 9.77136L7.98558 9.76646C8.03464 9.72598 8.08003 9.69286 8.12051 9.6671L8.01502 9.47698C8.00398 9.48434 7.99416 9.49047 7.98312 9.49783L7.94878 9.51868L7.91689 9.49906C7.63844 9.32365 7.3048 8.92132 7.23243 8.55333C7.18459 8.31169 7.25328 8.11911 7.43605 7.9805C7.55626 7.88973 7.66911 7.86643 7.77092 7.91427C7.87273 7.96088 7.95737 8.07741 7.98435 8.20252L8.2076 8.19026C8.21496 7.98173 8.2861 7.26416 8.88837 6.73303C9.54707 6.15039 10.613 5.9713 12.058 6.19823L12.1009 6.20559L12.107 6.24729C12.177 6.72445 12.3401 7.51439 12.4027 7.81368L12.4076 7.81246L12.426 7.85662C12.7768 8.69439 13.1583 9.71494 13.1742 9.95413L13.1767 9.98357L13.1546 10.002C13.0307 10.1087 12.5756 10.1872 12.3892 10.1872H12.3843H12.3107L12.3278 10.116C12.3487 10.0326 12.3634 9.948 12.372 9.86336H12.1586C12.1377 10.1259 11.9586 11.1636 10.4437 11.1955C8.93499 11.1636 8.74977 10.1246 8.72646 9.86336L8.51303 9.86213ZM8.58294 15.8959L8.57558 15.8382C8.45047 14.8128 8.83686 14.5245 9.17786 14.2706C9.31401 14.1688 9.44035 14.0731 9.5483 13.9296C9.77768 13.6217 9.64152 13.3899 9.19135 12.8036C9.10549 12.6919 9.01594 12.5742 8.9264 12.4491C8.75345 12.2062 8.69457 11.956 8.75099 11.7021C8.80619 11.4592 8.96197 11.2666 9.10181 11.1354C8.40386 10.6275 8.39527 9.81062 8.39527 9.80203V9.74438L8.84054 9.74315L8.84176 9.8008C8.84176 9.85232 8.86997 11.0421 10.4462 11.0765C12.0285 11.0434 12.0469 9.85355 12.0469 9.80203V9.74438H12.4934V9.80203C12.4934 9.80326 12.4922 9.90752 12.4591 10.067C12.6529 10.0535 12.951 9.98848 13.0564 9.92837C13.0172 9.68428 12.7142 8.84282 12.3401 7.9437L12.3156 7.94984L12.3033 7.89341C12.2493 7.64073 12.0776 6.8189 12.0003 6.30494C10.613 6.09397 9.59246 6.26692 8.96688 6.8189C8.3045 7.40277 8.32413 8.23441 8.32535 8.243L8.32658 8.30065L7.88377 8.32641L7.87886 8.26876C7.87028 8.1645 7.80281 8.05533 7.72431 8.01853C7.66298 7.99032 7.59183 8.00749 7.50719 8.07127C7.35877 8.18412 7.30725 8.32886 7.34773 8.5288C7.41152 8.84895 7.70223 9.20957 7.94878 9.37885C7.9819 9.35799 8.00275 9.34573 8.00643 9.34328L8.05672 9.31629L8.27384 9.70758L8.22354 9.73579C8.17939 9.76155 8.11805 9.80326 8.06286 9.84741C8.05059 9.86459 8.03342 9.87931 8.01379 9.88789C7.90953 9.97744 7.74148 10.1455 7.701 10.3295C7.67524 10.4485 7.70468 10.565 7.79054 10.6852C7.87518 10.8042 7.96105 10.9158 8.04323 11.0225C8.44679 11.5487 8.86139 12.0897 8.40754 12.6993C8.2628 12.8943 8.09597 13.0182 7.95001 13.1286C7.63476 13.3641 7.42992 13.5175 7.52191 14.2829L7.52927 14.3405L7.08646 14.3957L7.0791 14.3381C6.95521 13.3126 7.34037 13.0244 7.68138 12.7692C7.8163 12.6686 7.94387 12.573 8.05182 12.4282C8.2812 12.1203 8.14381 11.8885 7.69364 11.3022L7.68015 11.2838C7.59796 11.1771 7.51333 11.0654 7.42992 10.9489C7.26678 10.722 7.21281 10.4804 7.26678 10.2326C7.30848 10.04 7.41765 9.85232 7.59061 9.67201C7.30235 9.43895 6.99201 9.03662 6.9086 8.61712C6.83623 8.24913 6.95276 7.92776 7.23856 7.71187C7.53173 7.48986 7.78319 7.55241 7.9083 7.60884C7.9267 7.61742 7.9451 7.62724 7.96227 7.63705C8.0788 7.19179 8.32413 6.79068 8.66635 6.48403C9.39374 5.83883 10.5333 5.62908 12.0543 5.85845C12.5977 5.10163 12.2984 4.39387 11.8715 4.01485C11.149 3.37455 10.2487 3.55241 9.76786 4.04674L9.74333 4.07127L9.3962 3.96701L9.39006 3.93267C9.27599 3.35247 8.63692 3.07281 8.07758 3.00412C7.26187 2.90353 6.19471 3.19792 5.78501 4.08231C5.22567 5.28808 5.96287 5.90629 5.97023 5.91365L6.00213 5.93941L5.86229 6.31721L5.81936 6.31476C5.0196 6.26692 4.47743 6.40307 4.20635 6.71586C3.83591 7.14395 3.98065 7.902 4.09718 8.51163C4.19408 9.01577 4.27013 9.41319 4.07878 9.65238C3.72551 10.0952 3.26185 10.0903 2.94538 9.93573C2.58598 9.76278 2.37745 9.39479 2.44982 9.06115L2.46209 9.00473L2.89877 9.10041L2.8865 9.15683C2.85951 9.2844 2.96991 9.44876 3.13919 9.52972C3.2643 9.58983 3.5084 9.64993 3.73164 9.37026C3.79298 9.29298 3.70589 8.83914 3.65927 8.59627C3.52435 7.89096 3.3563 7.0127 3.87025 6.42025C4.17691 6.06453 4.66756 5.88176 5.36674 5.85845C5.13 5.44386 4.96563 4.78762 5.38145 3.89219C5.73472 3.13046 6.74669 2.38835 8.13155 2.55885C8.8712 2.64962 9.45507 3.00166 9.71021 3.5058C10.5247 2.91212 11.5551 3.13659 12.1659 3.67876C12.7755 4.21969 13.0883 5.18259 12.4211 6.1185C12.4787 6.55517 12.6602 7.43098 12.7142 7.69347C13.6146 9.83024 13.5201 10.0277 13.4747 10.1234C13.3815 10.3172 13.0601 10.4325 12.7473 10.4853C13.054 10.7122 13.4453 11.144 13.4195 11.864C13.3999 12.4012 13.0209 12.8342 12.6529 13.2525C12.1193 13.8609 11.8948 14.1933 12.1475 14.6042L12.177 14.6533L11.7992 14.8913L11.7685 14.841C11.3134 14.1013 11.847 13.4917 12.3192 12.9544C12.6345 12.595 12.9595 12.2234 12.9743 11.848C13 11.1354 12.4787 10.8103 12.2076 10.6913C11.9733 11.0556 11.5035 11.4751 10.5713 11.5267V11.5291L10.5137 11.5316H10.3137V11.5267C10.023 11.5107 9.75928 11.4567 9.52745 11.3696C9.42318 11.4432 9.22938 11.6039 9.18522 11.8063C9.15823 11.929 9.19135 12.0541 9.28825 12.1903C9.37412 12.3105 9.46121 12.4233 9.54339 12.5313L9.49801 12.5668L9.54462 12.5325C9.94572 13.055 10.3591 13.596 9.90525 14.2044C9.75928 14.4006 9.59123 14.5257 9.44404 14.6361C9.13125 14.8704 8.9264 15.0237 9.0184 15.7892L9.02576 15.8468L8.58294 15.8959Z" fill="#DEC685"/>
<path fill-rule="evenodd" clip-rule="evenodd" d="M6.75131 5.26829C6.5109 5.57862 6.50722 5.97359 6.7415 6.27534C6.8887 6.46424 7.09354 6.56728 7.29716 6.56728C7.3818 6.56728 7.46643 6.54888 7.54616 6.51208C7.88716 6.35507 7.96812 6.2275 8.18646 5.88282C8.29563 5.71232 8.44405 5.47804 8.68446 5.14563C8.86968 4.89049 9.06717 4.75556 9.27447 4.74698C9.61056 4.73471 9.89268 5.05118 9.89514 5.05486L10.0203 4.94569L10.1454 4.83652C10.1306 4.81935 9.77861 4.41211 9.29777 4.41211C9.28673 4.41211 9.27569 4.41211 9.26343 4.41334C8.95064 4.4256 8.66606 4.60591 8.41829 4.94814C8.24043 5.19346 8.07116 5.44615 7.90924 5.70251C7.7044 6.02511 7.66147 6.09258 7.40878 6.2091C7.25668 6.27902 7.09477 6.18948 7.00154 6.06804C6.89238 5.92821 6.8384 5.69883 7.01258 5.47436L6.75131 5.26829Z" fill="#DEC685"/>
<path fill-rule="evenodd" clip-rule="evenodd" d="M6.7628 5.35052C6.5739 5.63141 6.58126 5.97364 6.78733 6.23859C6.975 6.48023 7.27552 6.57223 7.52085 6.45938C7.8459 6.30973 7.9195 6.19443 8.13661 5.85098C8.24578 5.68048 8.3942 5.44619 8.63707 5.1101C8.8321 4.83902 9.04553 4.69796 9.27 4.68814C9.55826 4.6771 9.80113 4.88318 9.89558 4.97395L10.0599 4.83043C9.95813 4.72617 9.66743 4.46735 9.29453 4.46735C9.28472 4.46735 9.27491 4.46735 9.26387 4.46858C8.96825 4.47962 8.69963 4.65135 8.46289 4.98008C8.21634 5.32231 8.06546 5.55904 7.95629 5.73077C7.74777 6.05828 7.6987 6.13555 7.4313 6.25822C7.25099 6.3404 7.06086 6.23859 6.95415 6.10121C6.81063 5.92335 6.80205 5.67189 6.93084 5.48299L6.7628 5.35052ZM7.29637 6.62497C7.07068 6.62497 6.85111 6.50967 6.69533 6.30973C6.44387 5.98713 6.44878 5.56395 6.70514 5.23154L6.74072 5.18492L7.09153 5.46337L7.05718 5.50875C6.90386 5.70624 6.95047 5.90863 7.04614 6.03129C7.12465 6.1331 7.2608 6.21038 7.38346 6.15395C7.6202 6.04478 7.65577 5.98713 7.85817 5.66944C7.96856 5.49526 8.12066 5.25729 8.36966 4.91262C8.62848 4.55444 8.92778 4.36677 9.25896 4.35328C9.27 4.35205 9.28227 4.35205 9.29453 4.35205C9.80481 4.35205 10.1716 4.77891 10.1863 4.79731L10.2231 4.84147L9.88576 5.13463L9.84774 5.0917C9.84529 5.08925 9.58892 4.80345 9.28963 4.80345H9.27368C9.08601 4.81203 8.90324 4.93715 8.72906 5.17756C8.55611 5.41676 8.39052 5.66208 8.23351 5.91231C8.01395 6.25699 7.92318 6.39928 7.56746 6.56364C7.48405 6.60412 7.39082 6.62497 7.29637 6.62497ZM16.7303 18.8261C17.5423 18.5857 17.9348 17.5885 17.6846 16.3594L17.3608 16.4269C17.5411 17.3088 17.373 18.3416 16.5806 18.5219C15.8226 18.6949 15.0903 18.0264 14.8008 16.8954C14.6279 16.2184 14.6745 15.5866 14.9308 15.1622C15.0854 14.9059 15.3062 14.7427 15.5859 14.6789C15.7686 14.6348 15.9587 14.6397 16.1391 14.6924L16.2323 14.3711C15.998 14.3024 15.7502 14.2962 15.5135 14.3514C15.3737 14.3833 15.24 14.4373 15.1161 14.5121L15.1099 14.4999C14.2022 14.9709 13.1903 15.2052 12.1685 15.1831L12.1624 15.5167C12.2065 15.518 12.2495 15.518 12.2936 15.518C13.0836 15.518 13.8661 15.372 14.5935 15.096C14.3433 15.5903 14.3004 16.2662 14.4819 16.9776C14.7002 17.8289 15.1516 18.4496 15.6975 18.7243C15.0179 18.8519 14.2304 18.9513 13.6871 18.9513C12.8861 18.9513 12.0961 18.8372 11.3405 18.6103L11.2473 18.9304C12.0397 19.1671 12.8615 19.2861 13.6883 19.2849C14.5739 19.2849 16.0041 19.0433 16.7327 18.8274L16.7303 18.8261Z" fill="#DEC685"/>
<path fill-rule="evenodd" clip-rule="evenodd" d="M11.3181 18.8949C12.0823 19.1181 12.8784 19.231 13.6867 19.231C14.5478 19.231 15.9241 19.0016 16.6638 18.7906L16.7141 18.771C17.493 18.5404 17.8609 17.6032 17.6389 16.4281L17.4292 16.4723C17.596 17.3677 17.4071 18.3932 16.5938 18.5796C15.8027 18.7587 15.0434 18.073 14.7453 16.9102C14.5687 16.2196 14.6177 15.572 14.8815 15.134C15.0446 14.863 15.2777 14.6912 15.5733 14.6238C15.7462 14.5833 15.9266 14.5833 16.0995 14.6238L16.1608 14.414C15.9535 14.3625 15.7352 14.3613 15.5279 14.4103C15.3942 14.441 15.2654 14.4925 15.1476 14.5637L15.0937 14.5968L15.0851 14.5808C14.1995 15.0298 13.2182 15.2579 12.2258 15.2444L12.2221 15.4628C13.0305 15.4714 13.8217 15.3315 14.5736 15.0445L14.7134 14.9905L14.646 15.1242C14.4019 15.6063 14.3626 16.2773 14.538 16.9654C14.7465 17.7774 15.1783 18.4005 15.7242 18.6753L15.8775 18.7526L15.7082 18.7845C14.9465 18.9268 14.1909 19.0126 13.6867 19.0126C12.9054 19.0138 12.1289 18.9034 11.3782 18.6851L11.3181 18.8949ZM13.6867 19.3475C12.8551 19.3487 12.0271 19.2285 11.2298 18.9905L11.1746 18.9746L11.3009 18.5428L11.3574 18.5588C12.1068 18.7832 12.8919 18.8973 13.6867 18.8973C14.1418 18.8973 14.8361 18.8225 15.5304 18.6998C15.0213 18.3797 14.6239 17.7701 14.4264 16.9961C14.2559 16.33 14.2767 15.6995 14.4828 15.2027C13.7383 15.4677 12.952 15.5953 12.1608 15.5793L12.1032 15.5781L12.1117 15.1279L12.1694 15.1291C12.2111 15.1304 12.2516 15.1304 12.2933 15.1304C13.2697 15.1304 14.235 14.8961 15.0839 14.4533L15.1354 14.4263L15.1415 14.4373C15.2544 14.3748 15.3758 14.3294 15.5021 14.3012C15.7487 14.2435 16.0063 14.2497 16.2492 14.3208L16.3044 14.3367L16.1792 14.7685L16.1228 14.7513C15.9523 14.7023 15.772 14.6974 15.599 14.7379C15.3341 14.7992 15.1268 14.9525 14.9808 15.1954C14.733 15.6075 14.6877 16.2221 14.8569 16.8832C15.1378 17.9823 15.8431 18.6336 16.5669 18.468C17.3225 18.2963 17.4782 17.2966 17.3041 16.4404L17.293 16.384L17.7297 16.292L17.742 16.3496C17.9934 17.5861 17.6156 18.587 16.8011 18.8654L16.8024 18.8703L16.7484 18.8863C16.0161 19.1046 14.5785 19.3475 13.6867 19.3475ZM12.0014 7.76453L11.2273 7.43457L11.0973 7.4358L9.80078 8.00372L9.93203 8.31038L11.1648 7.77189L11.8738 8.07364L12.0014 7.76453Z" fill="#DEC685"/>
<path fill-rule="evenodd" clip-rule="evenodd" d="M9.87671 8.03319L9.96258 8.23313L11.1635 7.70814L11.8418 7.9964L11.9252 7.79523L11.215 7.49225L11.1095 7.49348L9.87671 8.03319ZM9.90125 8.38646L9.72461 7.97309L11.0972 7.37818L11.2395 7.37695L11.2506 7.38186L12.0773 7.7339L11.9044 8.1485L11.1647 7.83448L9.90125 8.38646Z" fill="#DEC685"/>
<path fill-rule="evenodd" clip-rule="evenodd" d="M10.9971 8.40099C10.9971 8.55309 11.1271 8.67698 11.2866 8.67698C11.446 8.67698 11.576 8.55309 11.576 8.40099C11.576 8.24889 11.446 8.125 11.2866 8.125C11.1271 8.125 10.9971 8.25012 10.9971 8.40099Z" fill="#DEC685"/>
<path fill-rule="evenodd" clip-rule="evenodd" d="M11.2866 8.18391C11.159 8.18391 11.0548 8.28204 11.0548 8.40225C11.0548 8.52246 11.1578 8.62059 11.2866 8.62059C11.4154 8.62059 11.5184 8.52246 11.5184 8.40225C11.5184 8.28204 11.4142 8.18391 11.2866 8.18391ZM11.2866 8.73466C11.0952 8.73466 10.9395 8.58502 10.9395 8.40102C10.9395 8.21703 11.0952 8.06738 11.2866 8.06738C11.4779 8.06738 11.6349 8.21703 11.6349 8.40102C11.6349 8.58502 11.4779 8.73466 11.2866 8.73466Z" fill="#DEC685"/>
<path fill-rule="evenodd" clip-rule="evenodd" d="M17.2953 11.8589L14.4667 12.9948L15.6062 9.40691C15.6111 9.40691 15.616 9.40814 15.621 9.40814C15.6308 9.40814 15.6394 9.40568 15.6492 9.40568L17.337 11.643C17.3076 11.6958 17.2916 11.7547 17.2916 11.8148C17.2916 11.8295 17.2941 11.8442 17.2953 11.8589ZM8.54337 17.1383C8.61452 17.2205 8.71878 17.2744 8.83776 17.2744C8.84635 17.2744 8.85493 17.272 8.86352 17.272L10.4103 19.8859C9.85463 19.7767 9.31123 19.6099 8.78992 19.3867C7.82948 18.9758 6.95736 18.3857 6.21893 17.6473L8.54337 17.1383ZM4.80341 12.866C4.82672 12.9948 4.91749 13.1015 5.04138 13.1481L5.64119 17.0132C5.12847 16.3876 4.71142 15.6946 4.3974 14.9426L4.17539 14.8568L4.05272 14.9144C3.78778 14.138 3.63567 13.3272 3.60256 12.5066L4.80341 12.866ZM20.3214 20.1128C19.2517 21.1984 17.9822 22.0644 16.5814 22.663C15.134 23.2836 13.575 23.6013 12 23.5989C10.4115 23.5989 8.87088 23.2836 7.41856 22.663C6.01777 22.0644 4.74699 21.1972 3.67861 20.1128C2.67155 19.096 1.85708 17.9049 1.27321 16.5973L4.16067 15.2321C4.58753 16.1999 5.18735 17.0819 5.9319 17.8325C6.71203 18.6237 7.63813 19.2566 8.6599 19.6933C9.71479 20.1447 10.8519 20.3778 11.9988 20.3753C12.6881 20.3753 13.3726 20.2931 14.0313 20.1312L13.9528 19.8074C12.9322 20.0564 11.8736 20.1079 10.8347 19.9583L9.15177 17.1125C9.19471 17.0512 9.21924 16.9788 9.21924 16.904C9.21924 16.6992 9.04751 16.5323 8.83531 16.5323C8.65622 16.5323 8.50657 16.6525 8.46487 16.8132L6.02635 17.3468L5.37257 13.1236C5.48664 13.0598 5.56514 12.9408 5.56514 12.8034C5.56514 12.5986 5.39342 12.433 5.18121 12.433C5.07327 12.433 4.97514 12.4771 4.90522 12.5471L3.59397 12.1558C3.59397 12.1496 3.53387 12.1386 3.53387 12.1386H3.26278C3.26278 13.142 3.42838 14.122 3.7522 15.0567L2.59305 15.605C2.19317 14.4937 1.98955 13.3198 1.99078 12.1386C1.99078 11.8896 1.99937 11.6406 2.01654 11.3965L1.68658 11.372C1.66818 11.6234 1.65959 11.8822 1.65959 12.1386C1.65959 13.3812 1.8718 14.5943 2.2913 15.7473L1.13705 16.2931C0.640275 14.9647 0.386365 13.5578 0.388818 12.1386C0.388818 10.5526 0.696699 9.01439 1.30142 7.56576C1.88284 6.17232 2.72675 4.90522 3.789 3.83193C4.84389 2.7611 6.0975 1.90614 7.47989 1.31491C8.9089 0.704058 10.4459 0.390044 12 0.392498C13.5676 0.392498 15.0886 0.702832 16.5201 1.31614C17.9025 1.90737 19.1561 2.76232 20.211 3.83316C21.2732 4.90522 22.1183 6.17355 22.6985 7.56576C23.3045 9.01439 23.6136 10.5685 23.6111 12.1386C23.6111 13.5296 23.3707 14.8887 22.9022 16.1827L21.7087 15.7461C22.1282 14.5894 22.3416 13.3689 22.3404 12.1386C22.3404 6.37103 17.7025 1.67922 12.0012 1.67922C11.1953 1.67922 10.3931 1.77244 9.61544 1.95889L9.69149 2.28394C10.4446 2.10486 11.2211 2.01286 12.0012 2.01286C14.5379 2.01286 16.8549 2.97453 18.62 4.55196L18.9439 7.22353C18.8151 7.28364 18.7317 7.41243 18.7304 7.55472V7.55717L15.8246 8.72368C15.7632 8.68566 15.6933 8.66603 15.621 8.66603C15.6075 8.66603 15.5952 8.66849 15.5829 8.66971L14.3158 5.95643C14.3735 5.89142 14.4054 5.80679 14.4066 5.7197C14.4066 5.62034 14.3649 5.52467 14.2925 5.45597L14.7709 4.10792C14.939 4.1668 15.107 4.23181 15.2714 4.30173C16.2723 4.72982 17.18 5.34926 17.9442 6.12571L18.1772 5.88897C17.3836 5.08308 16.4403 4.43911 15.4002 3.99385C14.7783 3.72767 14.1269 3.53632 13.4609 3.42224L13.4069 3.7522C13.7626 3.81231 14.1134 3.89817 14.4581 4.00611L13.9797 5.35417C13.7896 5.37624 13.6412 5.5308 13.6412 5.72092C13.6412 5.92209 13.808 6.08523 14.0141 6.09014L15.2984 8.84144C15.2603 8.89909 15.2395 8.96778 15.2383 9.0377C15.2383 9.11743 15.2652 9.19103 15.3094 9.25236L14.1453 12.9163C13.9613 12.9432 13.8191 13.0954 13.8191 13.2818C13.8191 13.4866 13.9908 13.6522 14.203 13.6522C14.4054 13.6522 14.5685 13.5001 14.5832 13.3076L17.4376 12.1619L16.9052 14.8739C16.7396 14.9144 16.6219 15.0604 16.6194 15.2309C16.6194 15.4357 16.7911 15.6013 17.0034 15.6013C17.2119 15.6013 17.3799 15.4406 17.3861 15.2395L21.1088 13.5504C21.1739 13.6019 21.256 13.6326 21.3468 13.6326C21.5578 13.6326 21.7307 13.4658 21.7307 13.2622C21.7307 13.0573 21.559 12.8905 21.3468 12.8905C21.1395 12.8905 20.9702 13.0512 20.9641 13.2499L17.2401 14.9402L17.2315 14.9328L17.7737 12.1729C17.9393 12.1325 18.057 11.9853 18.0595 11.816C18.0595 11.6111 17.8877 11.4455 17.6755 11.4455C17.6522 11.4455 17.6302 11.448 17.6081 11.4517L15.9411 9.24254C15.9816 9.18367 16.0049 9.11498 16.0049 9.03893C16.0049 9.03034 16.0024 9.02298 16.0024 9.01439L18.8887 7.85524C18.9524 7.8994 19.0297 7.92761 19.1144 7.92761C19.3253 7.92761 19.4983 7.76079 19.4983 7.55717C19.4983 7.40875 19.4063 7.28118 19.2763 7.2223L18.9954 4.90645C20.9273 6.81629 22.0129 9.42163 22.0092 12.1386C22.0092 13.3407 21.8043 14.5145 21.3983 15.632L20.0454 15.1364L19.9889 15.2934L20.0454 15.1364L19.7375 15.0236L19.5302 15.1119C19.2113 15.8319 18.7905 16.5041 18.2827 17.1064L18.5342 17.3235C19.0297 16.7372 19.4443 16.0871 19.7681 15.3904L19.9325 15.4505L22.7734 16.4919C22.187 17.8399 21.3554 19.0678 20.3214 20.1128ZM23.9423 12.1386C23.9423 10.5084 23.6259 8.92608 23.004 7.43574C22.4066 6.00305 21.5369 4.69915 20.4452 3.59642C19.3597 2.49492 18.0705 1.61666 16.6501 1.00826C15.1806 0.379005 13.5995 0.0551778 12.0012 0.057631C10.3907 0.057631 8.82549 0.377778 7.35233 1.00826C5.93068 1.61666 4.6415 2.49492 3.55717 3.59642C2.46548 4.69915 1.59581 6.00305 0.998447 7.43574C0.374099 8.92485 0.055178 10.5244 0.0576312 12.1386C0.0576312 13.6449 0.336073 15.118 0.870879 16.5115L0.906451 16.5839C1.50995 17.9871 2.37103 19.264 3.44555 20.3496C4.5446 21.4646 5.85095 22.3551 7.28977 22.9708C8.77766 23.6087 10.3808 23.9362 12 23.9337C13.6326 23.9337 15.2174 23.6099 16.7102 22.9708C18.1502 22.3551 19.4554 21.4646 20.5544 20.3496C21.6608 19.2321 22.5415 17.9111 23.1463 16.46L23.1561 16.4391C23.6774 15.0653 23.9436 13.6081 23.9423 12.1386Z" fill="#DEC685"/>
<path fill-rule="evenodd" clip-rule="evenodd" d="M15.6406 9.49035L14.5587 12.8954L17.2327 11.8209V11.8148C17.2327 11.7584 17.245 11.7032 17.2683 11.6492L15.6406 9.49035ZM14.3747 13.0942L15.5658 9.34684L15.6308 9.34929L15.6774 9.34561L17.4069 11.6382L17.3885 11.6713C17.364 11.7154 17.3505 11.7645 17.3493 11.816C17.3493 11.8246 17.3505 11.832 17.3517 11.8393L17.3579 11.8835L17.3174 11.9129L14.3747 13.0942ZM4.17295 14.7942L4.44158 14.8985L4.4514 14.9206C4.73352 15.5952 5.10273 16.2294 5.55167 16.8071L4.98988 13.1898C4.87458 13.1359 4.78872 13.0341 4.7556 12.9114L3.66391 12.5863C3.70316 13.3542 3.84545 14.1098 4.08709 14.8347L4.17295 14.7942ZM5.73198 17.2144L5.59706 17.05C5.08556 16.4256 4.66605 15.7314 4.35327 14.9881L4.17786 14.9194L4.0184 14.9942L3.99755 14.9329C3.73137 14.1503 3.57804 13.3346 3.5437 12.5091L3.54002 12.4269L4.85495 12.8182L4.86109 12.8537C4.87948 12.9605 4.95676 13.0525 5.06225 13.0929L5.09414 13.1052L5.73198 17.2144ZM6.33548 17.6805C7.05305 18.3784 7.89206 18.939 8.81202 19.3327C9.28672 19.5364 9.78473 19.6934 10.2925 19.8025L8.83042 17.3309C8.71512 17.3297 8.60472 17.2831 8.52254 17.2009L6.33548 17.6805ZM10.5256 19.9681L10.398 19.9424C9.8387 19.832 9.29163 19.6639 8.76664 19.4394C7.80006 19.0261 6.92058 18.4312 6.17725 17.6878L6.10242 17.613L8.56424 17.0745L8.58755 17.1003C8.65011 17.1739 8.7421 17.2156 8.83778 17.2156L8.89543 17.2119L10.5256 19.9681ZM1.35051 16.6268C1.92947 17.9074 2.73168 19.0739 3.72033 20.0724C4.78381 21.1518 6.04845 22.0141 7.44189 22.6103C8.88194 23.2272 10.4336 23.5449 12 23.5413C13.5799 23.5413 15.1144 23.2272 16.5581 22.6103C17.9515 22.0141 19.2162 21.1518 20.2797 20.0724L20.3201 20.1129L20.2797 20.0724C21.2953 19.0469 22.1135 17.8448 22.6949 16.525L19.7964 15.4628C19.4738 16.146 19.0641 16.7838 18.5771 17.3603L18.5391 17.4057L18.2006 17.1126L18.2374 17.0684C18.7415 16.4698 19.1585 15.8038 19.4762 15.0886L19.486 15.0678L19.7351 14.9611L21.3628 15.5572C21.7541 14.4594 21.9528 13.3039 21.9503 12.1386C21.9503 9.47073 20.9298 6.96598 19.0727 5.06717L19.329 7.18186C19.4676 7.25791 19.556 7.4002 19.556 7.55475C19.556 7.79149 19.3573 7.98407 19.1144 7.98407C19.0322 7.98407 18.9525 7.96199 18.8826 7.91906L16.0638 9.05122C16.0613 9.11746 16.0442 9.18125 16.0123 9.2389L17.6339 11.3892C17.6473 11.3879 17.6608 11.3867 17.6756 11.3867C17.9184 11.3867 18.1171 11.5793 18.1171 11.8148C18.1171 11.9963 17.9982 12.157 17.824 12.2171L17.3076 14.8458L20.9089 13.2107C20.9371 12.9911 21.126 12.8292 21.3468 12.8317C21.5909 12.8317 21.7884 13.0242 21.7884 13.261C21.7884 13.4977 21.5897 13.6891 21.3468 13.6891C21.2597 13.6891 21.1763 13.6645 21.1027 13.6167L17.4425 15.2775C17.418 15.491 17.2291 15.6578 17.0046 15.6578C16.7617 15.6578 16.563 15.4652 16.563 15.2285C16.563 15.0469 16.682 14.8862 16.8562 14.8261L17.3615 12.2527L14.6372 13.3468C14.6041 13.5517 14.4189 13.7075 14.203 13.7075C13.9601 13.7075 13.7614 13.5149 13.7614 13.2794C13.7614 13.0819 13.9049 12.9089 14.1 12.8636L15.2456 9.25975C15.1647 9.13218 15.1585 8.97027 15.2321 8.83657L13.9761 6.14537C13.7565 6.12206 13.5823 5.93807 13.5823 5.71973C13.5823 5.51489 13.732 5.34193 13.9356 5.30146L14.3821 4.04295C14.0583 3.94482 13.7295 3.86631 13.3959 3.80866L13.3395 3.79885L13.4131 3.35481L13.4707 3.36463C14.1417 3.4787 14.7967 3.67251 15.4235 3.93991C16.471 4.38763 17.4204 5.03528 18.219 5.8473L18.2594 5.88778L17.9442 6.2067L17.9025 6.16499C17.1432 5.39468 16.2416 4.77892 15.2481 4.35451C15.1021 4.29318 14.9549 4.23552 14.8053 4.18155L14.3588 5.44129C14.4888 5.58848 14.4998 5.80559 14.3833 5.96383L15.6173 8.60719C15.6909 8.6121 15.7633 8.62436 15.8283 8.65871L18.674 7.51673C18.6863 7.3818 18.7623 7.26282 18.8813 7.19167L18.5649 4.58143C16.7458 2.9623 14.4152 2.07054 12 2.07054C11.2236 2.07054 10.4508 2.16131 9.70377 2.33917L9.64735 2.35267L9.54431 1.91476L9.60074 1.90127C10.387 1.7136 11.1917 1.61915 12 1.61915C17.7332 1.61915 22.3968 6.33795 22.3968 12.1362C22.3968 13.364 22.1895 14.5649 21.781 15.7081L22.8654 16.1055C23.3205 14.831 23.5535 13.4891 23.5523 12.1362C23.5523 10.5587 23.2469 9.02792 22.6446 7.58542C22.0656 6.19934 21.2254 4.93715 20.1693 3.86999C19.1193 2.80406 17.8718 1.95402 16.4968 1.36524C15.0764 0.760517 13.5455 0.447729 12 0.450182C10.441 0.450182 8.92855 0.75929 7.50199 1.36892C6.12695 1.9577 4.87948 2.80774 3.8295 3.87245C1.65716 6.07422 0.440356 9.04509 0.446489 12.1386C0.446489 13.537 0.690586 14.9083 1.17019 16.2134L2.22018 15.7167C1.80926 14.5686 1.60074 13.3579 1.60196 12.1374C1.60196 11.8798 1.61055 11.621 1.62895 11.3671L1.63263 11.3094L2.07789 11.3425L2.07421 11.4002C2.05704 11.6455 2.04845 11.8921 2.04845 12.1386C2.04845 13.3027 2.24226 14.4422 2.62619 15.5253L3.68108 15.0261C3.36584 14.0963 3.20392 13.1199 3.20515 12.1386V12.081H3.53511C3.56332 12.0847 3.59154 12.092 3.6173 12.103L4.89052 12.4833C4.97148 12.4146 5.07329 12.3766 5.18246 12.3766C5.42533 12.3766 5.62404 12.5692 5.62404 12.8059C5.62404 12.9445 5.5529 13.0745 5.43637 13.1543L6.07666 17.2781L8.42196 16.7642C8.48574 16.5888 8.65256 16.4735 8.83901 16.4747C9.0831 16.4747 9.28059 16.6673 9.28059 16.904C9.28059 16.9776 9.26096 17.05 9.22294 17.115L10.874 19.9068C11.9178 20.0515 12.958 19.9939 13.9417 19.7522L13.9982 19.7387L14.1036 20.1754L14.0472 20.1889C13.3775 20.3533 12.6906 20.4355 12 20.4342C10.8335 20.4342 9.70255 20.2036 8.63784 19.7486C7.60871 19.3082 6.67648 18.6728 5.89144 17.8755C5.15547 17.1334 4.56056 16.265 4.13247 15.3119L1.35051 16.6268ZM12 23.6578C10.4042 23.6578 8.85495 23.3413 7.3965 22.717C5.98957 22.1147 4.71266 21.2438 3.63815 20.1533C2.62619 19.1316 1.80803 17.9356 1.22171 16.6219L1.19841 16.5704L4.19135 15.1549L4.21466 15.2088C4.63784 16.1705 5.2352 17.0451 5.97363 17.7921C6.74762 18.5784 7.66881 19.2064 8.68323 19.6406C9.73076 20.0896 10.8592 20.3202 12 20.3177C12.6648 20.3177 13.326 20.2404 13.9626 20.0883L13.9111 19.8761C12.9016 20.1153 11.8553 20.1619 10.8286 20.0147L10.8016 20.0111L9.08433 17.1089L9.10641 17.0782C9.14321 17.0267 9.16283 16.9654 9.16283 16.9028C9.16283 16.7299 9.01687 16.5888 8.83655 16.5888C8.68936 16.5876 8.56056 16.6845 8.52131 16.8268L8.51273 16.8611L5.97853 17.4155L5.30757 13.0917L5.34315 13.0721C5.4425 13.0193 5.50506 12.9163 5.50629 12.8034C5.50629 12.6305 5.36032 12.4907 5.18123 12.4907C5.09292 12.4907 5.00828 12.525 4.94572 12.5876L4.92119 12.6121L3.53511 12.1975L3.52285 12.195L3.32045 12.1963C3.32536 13.1641 3.48973 14.1233 3.80619 15.0371L3.82337 15.0862L2.55995 15.6835L2.53787 15.6234C2.13554 14.5048 1.9307 13.326 1.93315 12.1374C1.93315 11.908 1.94051 11.6762 1.95523 11.448L1.7418 11.4321C1.72585 11.6664 1.71849 11.9019 1.71849 12.1362C1.71849 13.3701 1.9307 14.5784 2.34775 15.7253L2.36615 15.7743L1.10641 16.3705L1.08433 16.3116C0.58387 14.9795 0.328734 13.5652 0.331187 12.1386C0.331187 10.5452 0.640294 8.99971 1.2487 7.54371C1.83257 6.14414 2.68139 4.86969 3.74854 3.79149C4.80834 2.71575 6.06808 1.85711 7.45661 1.26343C8.89175 0.648894 10.4373 0.332427 12 0.33488C13.575 0.33488 15.1033 0.646441 16.5434 1.26343C17.9319 1.85711 19.1929 2.71575 20.2527 3.79272C21.3198 4.87091 22.1687 6.14414 22.7538 7.54494C23.3622 9.00093 23.6737 10.5624 23.67 12.1398C23.6713 13.5259 23.4296 14.901 22.9574 16.2036L22.9377 16.2588L21.6351 15.7817L21.6547 15.7277C22.0718 14.5784 22.284 13.364 22.2827 12.1411C22.2827 6.40541 17.6707 1.73936 12.0012 1.73936C11.2186 1.73936 10.4397 1.8289 9.68537 2.00431L9.73444 2.21651C10.4778 2.04356 11.2383 1.9577 12.0012 1.9577C14.4532 1.9577 16.8169 2.86539 18.6593 4.51151L18.6753 4.52623L19.0064 7.26036L18.9696 7.27876C18.8605 7.32905 18.7906 7.437 18.7893 7.5572V7.59646L18.7525 7.61363L15.8197 8.79118L15.7952 8.77646C15.7363 8.74089 15.6676 8.71881 15.6026 8.72862L15.5609 8.73476L15.5314 8.69796L14.2484 5.95034L14.2729 5.92212C14.322 5.86693 14.349 5.79701 14.3502 5.72341C14.3502 5.63877 14.3146 5.55904 14.2545 5.50139L14.2275 5.47563L14.7378 4.03681L14.793 4.05644C14.9758 4.12145 15.1414 4.18401 15.2959 4.25147C16.2858 4.67465 17.1849 5.28428 17.9454 6.04601L18.0975 5.89268C17.3174 5.1101 16.395 4.48575 15.3793 4.05153C14.7795 3.79517 14.1527 3.6075 13.51 3.49342L13.4744 3.70931C13.8007 3.76696 14.1368 3.85037 14.4753 3.95463L14.533 3.97303L14.0227 5.41185L13.9859 5.41553C13.8228 5.43516 13.6989 5.56763 13.6989 5.72464C13.6989 5.89268 13.8412 6.03252 14.0153 6.0362L14.0509 6.03743L15.3634 8.85006L15.3462 8.87704C15.3143 8.92611 15.2959 8.98376 15.2959 9.04141C15.2959 9.1052 15.3168 9.16775 15.356 9.2205L15.3732 9.24503L14.1883 12.9715L14.1527 12.9764C13.9957 12.9997 13.8767 13.1322 13.8767 13.2843C13.8767 13.4572 14.0227 13.5971 14.203 13.5971C14.3711 13.5971 14.5133 13.4695 14.5256 13.3064L14.5281 13.2708L14.5612 13.2573L17.5149 12.0712L16.9543 14.9243L16.9187 14.9329C16.7789 14.966 16.6795 15.0899 16.6771 15.2334C16.6771 15.4063 16.8231 15.5462 17.0034 15.5462C17.1776 15.5462 17.3235 15.4088 17.3272 15.2407L17.3284 15.2039L21.115 13.4854L21.1432 13.5063C21.2009 13.5517 21.272 13.5762 21.3444 13.5762C21.5235 13.5762 21.6707 13.4364 21.6707 13.2634C21.6707 13.0905 21.5247 12.9506 21.3444 12.9506C21.1677 12.9506 21.0255 13.0831 21.0205 13.2536L21.0193 13.2892L20.9862 13.3039L17.2303 15.0089L17.169 14.9647L17.1726 14.923L17.7222 12.1264L17.7577 12.1178C17.8976 12.0847 17.9969 11.9608 17.9994 11.8172C17.9994 11.6455 17.8534 11.5045 17.6743 11.5045C17.6547 11.5045 17.6363 11.5069 17.6167 11.5094L17.5823 11.5155L15.87 9.24503L15.8933 9.21068C15.9276 9.16039 15.9473 9.10029 15.9473 9.03896C15.946 9.0316 15.9448 9.02424 15.9448 9.01688L15.9423 8.97517L15.9804 8.95923L18.896 7.78904L18.9218 7.80743C18.9782 7.84791 19.0445 7.86877 19.1144 7.86877C19.2935 7.86877 19.4407 7.7277 19.4407 7.55598C19.4382 7.43332 19.3646 7.32292 19.253 7.27386L19.2236 7.26036L18.9169 4.74702L19.0359 4.86478C20.9911 6.79916 22.0669 9.38364 22.0669 12.1386C22.0669 13.3468 21.8596 14.5293 21.4523 15.6517L21.4327 15.7069L20.0797 15.2101L20.0429 15.3119L19.9338 15.2726L19.9706 15.1696L19.7387 15.0837L19.5744 15.1549C19.2616 15.8553 18.8543 16.5091 18.3637 17.0978L18.5268 17.2389C19.0015 16.6673 19.4014 16.0368 19.7142 15.3634L19.7375 15.3156L22.8507 16.4563L22.8261 16.5127C22.2374 17.8682 21.402 19.1021 20.3619 20.1521C19.2873 21.2426 18.0117 22.1135 16.6035 22.7157C15.1487 23.3401 13.5823 23.6602 12 23.6578ZM12 0.116542C10.3968 0.116542 8.84023 0.434236 7.37442 1.06226C5.96013 1.66699 4.67709 2.54279 3.59767 3.63816C2.50966 4.73476 1.64489 6.03252 1.05121 7.45785C0.430543 8.94083 0.112849 10.5318 0.115302 12.1386C0.115302 13.6277 0.387611 15.0911 0.92487 16.4907L0.957988 16.5581C1.55903 17.9552 2.41644 19.2272 3.48605 20.3091C4.58019 21.4192 5.87918 22.3061 7.31187 22.9181C8.79239 23.5523 10.387 23.8786 11.9988 23.8761C13.624 23.8761 15.2002 23.5535 16.6857 22.9181C18.1184 22.3048 19.4186 21.4192 20.5115 20.3091C21.613 19.1966 22.4888 17.8829 23.0911 16.4379L23.1021 16.4146C23.6185 15.0482 23.8835 13.5995 23.8822 12.1398C23.8847 10.533 23.567 8.94206 22.9476 7.45907C22.3527 6.03375 21.4879 4.73598 20.4011 3.63816C19.3217 2.54279 18.0386 1.66699 16.6243 1.06226C15.1647 0.435463 13.5909 0.114089 12 0.116542ZM12 23.9914C10.36 23.9914 8.76664 23.6664 7.26771 23.0236C5.82153 22.4054 4.50905 21.51 3.40386 20.3901C2.32444 19.2996 1.45845 18.0153 0.852499 16.606L0.818154 16.536C0.277216 15.134 0 13.6425 0 12.1386C0 10.4999 0.317694 8.91016 0.944496 7.41246C1.54431 5.97364 2.41644 4.66361 3.51426 3.55598C4.60472 2.44957 5.90003 1.5664 7.32781 0.955549C8.80466 0.322614 10.3944 -0.00243945 12 1.37832e-05C13.6179 1.37832e-05 15.1904 0.321388 16.6722 0.954322C18.1 1.56518 19.3953 2.44834 20.4857 3.55475C21.5836 4.66361 22.4557 5.97241 23.0567 7.41246C23.6823 8.90894 24.0037 10.5158 24 12.1386C24 13.6204 23.7351 15.0739 23.2113 16.4588L23.199 16.4845C22.5918 17.9417 21.7075 19.2677 20.5961 20.3901C19.4922 21.5112 18.1797 22.4054 16.7323 23.0236C15.237 23.6651 13.6265 23.9951 12 23.9914Z" fill="#DEC685"/>
<path fill-rule="evenodd" clip-rule="evenodd" d="M19.7471 8.82924C20.185 9.87679 20.4094 11.0028 20.407 12.1387H20.7382C20.7382 10.9452 20.5076 9.78847 20.0525 8.69922L19.7471 8.82924Z" fill="#DEC685"/>
<path fill-rule="evenodd" clip-rule="evenodd" d="M20.4653 12.0809H20.68C20.675 10.9463 20.4518 9.82391 20.0213 8.77515L19.8238 8.85978C20.2421 9.88156 20.4604 10.9757 20.4653 12.0809ZM20.7953 12.1962H20.3488V12.1385C20.3512 11.01 20.128 9.8926 19.6938 8.8512L19.6717 8.79845L20.0826 8.62305L20.1047 8.67702C20.5634 9.77361 20.7977 10.9512 20.7953 12.1398V12.1962ZM4.23469 17.6313L4.36471 17.7883C4.3782 17.8043 4.49105 17.949 4.35613 18.0631C4.32669 18.0913 4.28744 18.1073 4.24696 18.1085C4.15864 18.1085 4.0875 18.0238 4.08627 18.0238L3.95625 17.8668L4.23469 17.6313ZM4.26781 17.0879L2.9541 18.1992L3.20433 18.5022L3.67167 18.1073L3.80169 18.2643C3.81028 18.2741 4.00163 18.5022 4.26781 18.5022C4.38679 18.5022 4.50087 18.4568 4.60636 18.3673C4.94122 18.0839 4.77931 17.7074 4.64806 17.5491L4.26781 17.0879Z" fill="#DEC685"/>
<path fill-rule="evenodd" clip-rule="evenodd" d="M4.03639 17.8743L4.12961 17.9872C4.14433 18.0043 4.19585 18.0509 4.24492 18.0509C4.25964 18.0509 4.28294 18.0473 4.31729 18.019C4.40192 17.9467 4.34673 17.8596 4.31851 17.824L4.22652 17.7124L4.03639 17.8743ZM4.24614 18.1675C4.13084 18.1675 4.04498 18.0657 4.0413 18.062L3.87447 17.8608L4.24124 17.5505L4.40806 17.7529C4.49024 17.8535 4.51723 18.0031 4.39211 18.1086C4.35163 18.1442 4.30011 18.1662 4.24614 18.1675ZM3.67821 18.024L3.84504 18.2263C3.84749 18.2288 4.02412 18.4435 4.26577 18.4435C4.37003 18.4435 4.47184 18.403 4.56629 18.322C4.86682 18.0681 4.71962 17.7283 4.60064 17.5836L4.25718 17.1678L3.03301 18.2043L3.20964 18.4177L3.67821 18.024ZM3.19615 18.5845L2.87109 18.192L4.27313 17.0059L4.69141 17.5125C4.83615 17.6866 5.01156 18.0988 4.64234 18.4116C4.52581 18.5109 4.39947 18.56 4.267 18.56C3.96893 18.56 3.75795 18.3024 3.75672 18.3012L3.66472 18.1895L3.19615 18.5845ZM6.31056 19.1255L5.34643 20.5606L6.1327 21.1003L6.34 20.79L5.87878 20.4723L6.63439 19.3475L6.31056 19.1255Z" fill="#DEC685"/>
<path fill-rule="evenodd" clip-rule="evenodd" d="M5.42729 20.5446L6.11788 21.0193L6.2614 20.8059L5.79896 20.4882L6.55456 19.3634L6.32641 19.2063L5.42729 20.5446ZM6.14855 21.1812L5.2666 20.5753L6.29451 19.0444L6.71402 19.3315L5.95842 20.4575L6.41963 20.7752L6.14855 21.1812ZM8.91704 21.7454C8.91581 21.7467 8.87534 21.8706 8.75022 21.8706C8.72201 21.8706 8.69379 21.8657 8.66681 21.8558C8.48527 21.7957 8.52207 21.6461 8.53065 21.6179L8.89251 20.5017L8.52084 20.3778L8.16021 21.494C8.15899 21.4989 7.99584 22.0263 8.55273 22.2103C8.63124 22.2361 8.70606 22.2496 8.77721 22.2496C9.08386 22.2496 9.24578 21.9994 9.28871 21.8669L9.64934 20.7507L9.27767 20.628L8.91704 21.7454Z" fill="#DEC685"/>
<path fill-rule="evenodd" clip-rule="evenodd" d="M8.5577 20.4529L8.21547 21.5127C8.20934 21.5323 8.07319 21.991 8.57119 22.1566C8.64356 22.1799 8.71348 22.1934 8.77726 22.1934C9.04957 22.1934 9.19431 21.969 9.23357 21.8512L9.57702 20.7902L9.31575 20.7031L8.9723 21.7653C8.92568 21.8929 8.78462 21.9591 8.65583 21.9125C8.6546 21.9113 8.65215 21.9113 8.65092 21.9101C8.45712 21.8463 8.45098 21.6844 8.47674 21.5997L8.8202 20.5375L8.5577 20.4529ZM8.77726 22.3087C8.69999 22.3087 8.6178 22.294 8.53439 22.267C7.92108 22.0646 8.10262 21.4832 8.10508 21.4771L8.4841 20.3057L8.96616 20.4651L8.58714 21.6353C8.5761 21.6709 8.56261 21.7592 8.68649 21.8009C8.70735 21.8083 8.72943 21.8119 8.7515 21.8132C8.82878 21.8132 8.85822 21.7384 8.86313 21.7273L9.24215 20.5571L9.72421 20.7166L9.34519 21.8868C9.29612 22.0327 9.11704 22.3087 8.77726 22.3087ZM11.2011 21.4047L11.5973 21.417L11.5556 22.7736L11.9468 22.7859L11.9885 21.428L12.3872 21.4403L12.3995 21.0662L11.2121 21.0294L11.2011 21.4047Z" fill="#DEC685"/>
<path fill-rule="evenodd" clip-rule="evenodd" d="M11.6161 22.7181L11.8908 22.7267L11.9325 21.3689L12.3312 21.3811L12.3398 21.1235L11.2689 21.0892L11.2616 21.348L11.6578 21.3603L11.6161 22.7181ZM12.0037 22.8469L11.4971 22.831L11.5388 21.4743L11.1426 21.4621L11.1573 20.9727L12.4612 21.0131L12.4453 21.5026L12.0466 21.4903L12.0037 22.8469ZM14.8654 22.0607C14.8421 22.0668 14.8175 22.0705 14.7942 22.0717C14.6654 22.0717 14.6274 21.9503 14.6237 21.9368L14.4667 21.3394C14.4667 21.3382 14.4557 21.2928 14.468 21.2425C14.4839 21.1751 14.533 21.1309 14.6164 21.1088C14.6397 21.1027 14.6642 21.099 14.6888 21.099C14.8175 21.099 14.8556 21.2204 14.8593 21.2339L15.0163 21.8313C15.0212 21.8595 15.0494 22.0116 14.8654 22.0607ZM15.2358 21.1309C15.199 20.9886 15.0408 20.7188 14.7121 20.7188C14.647 20.72 14.5833 20.7286 14.5207 20.7457C14.2251 20.8242 14.1233 21.0107 14.0889 21.1517C14.0521 21.3026 14.0865 21.4339 14.0877 21.4388L14.2447 22.0374C14.2815 22.1797 14.4397 22.4495 14.7685 22.4495C14.8286 22.4495 14.8924 22.4409 14.9598 22.4225C15.5278 22.2704 15.3941 21.7344 15.3928 21.7295L15.2358 21.1309Z" fill="#DEC685"/>
<path fill-rule="evenodd" clip-rule="evenodd" d="M14.6877 21.1553C14.6681 21.1553 14.6497 21.1577 14.6301 21.1639C14.5491 21.1859 14.5307 21.224 14.5233 21.2546C14.5148 21.2902 14.5221 21.3246 14.5221 21.3246L14.6791 21.9219C14.684 21.9391 14.7196 22.0384 14.8509 22.0053C14.9711 21.9734 14.9698 21.8913 14.9588 21.8446L14.803 21.2473C14.7993 21.2375 14.7748 21.1553 14.6877 21.1553ZM14.7932 22.1292C14.662 22.1292 14.5896 22.0335 14.5663 21.9514L14.4093 21.3528C14.408 21.3491 14.3946 21.2914 14.4105 21.2277C14.4326 21.1393 14.4964 21.0805 14.6006 21.0522C14.6288 21.0449 14.6583 21.04 14.6877 21.04C14.8288 21.04 14.8962 21.1516 14.9146 21.2178L15.0704 21.8152C15.0974 21.9244 15.0631 22.0679 14.8803 22.1157C14.8521 22.1243 14.8226 22.128 14.7932 22.1292ZM14.7122 20.7763C14.657 20.7763 14.5969 20.7848 14.5356 20.8008C14.2682 20.8732 14.1762 21.0375 14.1455 21.1639C14.1124 21.3013 14.1431 21.4215 14.1431 21.4227L14.3001 22.0213C14.3332 22.1488 14.4743 22.3905 14.7674 22.3905C14.8226 22.3905 14.8827 22.3819 14.9441 22.3647C15.4507 22.2286 15.3415 21.7612 15.3354 21.7416L15.1784 21.1442C15.1465 21.0179 15.0054 20.7763 14.7122 20.7763ZM14.7674 22.507C14.4044 22.507 14.2302 22.2089 14.1885 22.0519L14.0315 21.4534C14.0069 21.3491 14.0082 21.2411 14.0327 21.1381C14.0707 20.9811 14.1823 20.7763 14.5062 20.6904C14.5773 20.6708 14.6472 20.661 14.7135 20.661C15.0778 20.661 15.252 20.959 15.2924 21.116L15.4494 21.7146C15.501 21.9207 15.4691 22.3463 14.9747 22.4788C14.9036 22.4972 14.8337 22.507 14.7674 22.507ZM17.3998 19.4871L17.8365 20.2083L17.033 19.714L16.7202 19.9078L17.6157 21.3859L17.9493 21.1798L17.5126 20.4586L18.3161 20.9529L18.6289 20.7591L17.7334 19.2798L17.3998 19.4871Z" fill="#DEC685"/>
<path fill-rule="evenodd" clip-rule="evenodd" d="M16.7998 19.9266L17.6352 21.3066L17.8707 21.1618L17.3395 20.2848L18.3159 20.8859L18.549 20.7411L17.7137 19.3612L17.4781 19.5059L18.0093 20.3829L17.0329 19.7819L16.7998 19.9266ZM17.5971 21.4673L16.6416 19.8886L17.0329 19.6457L17.6621 20.0334L17.3199 19.4679L17.7517 19.2005L18.7072 20.7791L18.3159 21.022L17.6867 20.6344L18.0289 21.1999L17.5971 21.4673ZM19.4321 17.7212C19.1966 17.9898 19.1831 18.3001 19.3978 18.4927C19.4628 18.5516 19.5511 18.581 19.6578 18.581C19.805 18.581 19.9718 18.5271 20.119 18.478C20.2368 18.44 20.3472 18.4032 20.4196 18.4032C20.4367 18.4032 20.4613 18.4056 20.4735 18.4154C20.5545 18.4878 20.4453 18.6178 20.4416 18.6227L20.135 18.9723L20.4097 19.2189L20.7164 18.8681C20.8452 18.7209 20.9114 18.5553 20.9016 18.402C20.8943 18.2842 20.8403 18.1738 20.7507 18.0965C20.6857 18.0376 20.5986 18.0082 20.4919 18.0082C20.3447 18.0082 20.1767 18.0634 20.0295 18.1112C19.9117 18.1505 19.8001 18.1861 19.7277 18.1861C19.7106 18.1861 19.686 18.1836 19.6738 18.1726C19.594 18.1002 19.7044 17.9714 19.7094 17.9653L20.0135 17.6169L19.7363 17.3691L19.4321 17.7212Z" fill="#DEC685"/>
<path fill-rule="evenodd" clip-rule="evenodd" d="M20.216 18.9698L20.4049 19.139L20.6723 18.8324C20.7913 18.6962 20.8526 18.5466 20.844 18.408C20.8379 18.3049 20.7901 18.2093 20.7128 18.1418C20.6588 18.0927 20.584 18.0682 20.492 18.0682C20.3546 18.0682 20.1915 18.1222 20.048 18.1688C19.8652 18.2289 19.6984 18.2755 19.6346 18.2191C19.5463 18.1393 19.5917 18.0179 19.664 17.9308L19.9327 17.6242L19.7413 17.4537L19.4752 17.7579C19.263 18.0007 19.2458 18.278 19.4347 18.4472C19.4899 18.4963 19.5635 18.5208 19.6567 18.5208C19.7941 18.5208 19.956 18.4681 20.0983 18.4215C20.281 18.3614 20.4466 18.3148 20.5104 18.3712C20.5999 18.4509 20.5521 18.576 20.4846 18.6582L20.216 18.9698ZM20.4159 19.3034L20.0541 18.9796L20.3988 18.5858C20.4172 18.5638 20.465 18.4914 20.438 18.4619C20.438 18.4632 20.4319 18.4619 20.4209 18.4619C20.3571 18.4619 20.2455 18.4975 20.1375 18.5331C19.9854 18.5834 19.8149 18.6386 19.6591 18.6386C19.5377 18.6386 19.4371 18.6042 19.3599 18.5355C19.1194 18.3197 19.1317 17.9774 19.3893 17.683L19.7327 17.2905L20.0958 17.6156L19.7536 18.0069C19.734 18.0302 19.6849 18.1025 19.7107 18.132C19.7119 18.1308 19.718 18.132 19.7278 18.132C19.7928 18.132 19.9032 18.0952 20.0124 18.0596C20.1645 18.0093 20.3362 17.9529 20.4932 17.9529C20.6147 17.9529 20.7152 17.9872 20.7913 18.0559C20.8943 18.1479 20.9532 18.2681 20.9606 18.4006C20.9704 18.5687 20.8992 18.749 20.7606 18.9072L20.4159 19.3034Z" fill="#DEC685"/>
</g>
<defs>
<clipPath id="clip0">
<rect width="24" height="24" fill="white"/>
</clipPath>
</defs>
</svg>
