<svg width="24" height="24" viewBox="0 0 24 24" fill="none" xmlns="http://www.w3.org/2000/svg">
<path d="M12 24C18.6274 24 24 18.6274 24 12C24 5.37258 18.6274 0 12 0C5.37258 0 0 5.37258 0 12C0 18.6274 5.37258 24 12 24Z" fill="#2C3E50"/>
<path d="M19.227 17.0098V16.2598C19.227 16.1114 19.1273 16.0124 18.9757 16.0124H18.477V15.2593C18.477 15.1101 18.3773 15.0088 18.2288 15.0088H17.7292V9.5001H18.2257C18.375 9.5001 18.477 9.4011 18.477 9.2496V8.4996H18.9757C19.0345 8.50207 19.0921 8.48301 19.1379 8.446C19.1836 8.409 19.2142 8.35658 19.224 8.2986C19.2495 8.1741 19.1992 8.0751 19.1002 8.0226L12.1118 4.5186C12.0393 4.4938 11.9607 4.4938 11.8882 4.5186L4.64925 8.0226C4.60172 8.04847 4.56389 8.08908 4.54143 8.13832C4.51898 8.18755 4.51313 8.24275 4.52475 8.2956C4.52475 8.4231 4.6245 8.4996 4.74825 8.4996H5.49825V9.2496C5.49825 9.3981 5.598 9.4971 5.7465 9.4971H6.246V15.0088H5.7495C5.5995 15.0088 5.49825 15.1078 5.49825 15.2563V16.0093H4.9995C4.8495 16.0093 4.7505 16.1083 4.7505 16.2576V17.0098C4.602 17.0098 4.5 17.1096 4.5 17.2611C4.5 17.4126 4.599 17.5116 4.74825 17.5116H19.227C19.3755 17.5116 19.4775 17.4126 19.4775 17.2641C19.4775 17.1141 19.3785 17.0098 19.23 17.0098H19.227ZM5.99475 8.99835V8.4996H17.9752V8.99835H5.99475ZM16.227 9.50085V15.0088H15.231V9.5001H16.227V9.50085ZM13.731 9.50085V15.0088H12.7327V9.5001H13.7302L13.731 9.50085ZM11.235 9.50085V15.0088H10.239V9.5001H11.235V9.50085ZM8.739 9.50085V15.0088H7.74375V9.5001H8.739V9.50085ZM17.9752 16.0093H5.99775V15.5076H17.9775V16.0093H17.9752Z" fill="white"/>
</svg>
