<svg width="24" height="24" viewBox="0 0 24 24" fill="none" xmlns="http://www.w3.org/2000/svg">
<g clip-path="url(#clip0)">
<path fill-rule="evenodd" clip-rule="evenodd" d="M23.962 6.36334L23.9014 5.52861L23.6793 6.18829L22.3329 7.37303L20.7882 7.58545L20.3673 7.19132L21.6598 5.35355L23.3763 4.82178L21.552 4.93621L19.3841 6.47102L17.3785 6.32294L14.5108 4.82178L12.8706 5.17711L7.58368 9.5457L5.10611 10.4027L4.03799 11.4901H2.19551L1.22567 13.2498L0.00683594 13.5299L1.22567 13.8099L2.33971 12.2633L4.03799 12.615V14.2743L3.23436 16.4859L2.70736 18.7665L2.16057 19.6432L3.53479 19.3576L3.37225 18.4216L4.59566 15.9704L6.74631 15.156L7.63789 13.7127L9.09583 12.6192L12.0462 13.1463L14.848 11.8227L14.4414 13.7999L13.1347 13.915L12.7773 15.6329L13.9225 14.8451L15.7327 14.0265L17.1854 11.8227L17.2546 10.7254L18.0247 11.5063L20.3 12.9246L21.653 12.3276L21.4982 9.31852L21.1807 8.23112L20.401 8.47032L22.7705 7.74332L23.962 6.36334Z" fill="#4B5897"/>
<path fill-rule="evenodd" clip-rule="evenodd" d="M1.22567 13.2495V13.8096L0.00683594 13.5296L1.22567 13.2495Z" fill="#313A62"/>
<path fill-rule="evenodd" clip-rule="evenodd" d="M2.19542 11.4902L2.33962 12.2635L1.22559 13.81V13.2499L2.19542 11.4902Z" fill="#4B5897"/>
<path fill-rule="evenodd" clip-rule="evenodd" d="M4.0378 12.6152L2.19531 11.4902L2.33951 12.2635L4.0378 12.6152Z" fill="#3F4B80"/>
<path fill-rule="evenodd" clip-rule="evenodd" d="M4.0378 11.4902V12.6152L2.19531 11.4902H4.0378Z" fill="#313A62"/>
<path fill-rule="evenodd" clip-rule="evenodd" d="M4.03809 14.2745V11.4902L5.66765 13.9346L4.03809 14.2745Z" fill="#3F4B80"/>
<path fill-rule="evenodd" clip-rule="evenodd" d="M3.23438 16.486L5.66757 13.9346L4.038 14.2744L3.23438 16.486Z" fill="#313A62"/>
<path fill-rule="evenodd" clip-rule="evenodd" d="M2.70703 18.7664L3.37193 18.4216L3.23404 16.4858L2.70703 18.7664Z" fill="#1F243E"/>
<path fill-rule="evenodd" clip-rule="evenodd" d="M2.16016 19.643L3.37183 18.4214L2.70694 18.7662L2.16016 19.643Z" fill="#313A62"/>
<path fill-rule="evenodd" clip-rule="evenodd" d="M3.53437 19.3573L3.37183 18.4214L2.16016 19.643L3.53437 19.3573Z" fill="#3F4B80"/>
<path fill-rule="evenodd" clip-rule="evenodd" d="M4.59572 15.9702L3.37226 18.4215L3.23438 16.4857L4.59572 15.9702Z" fill="#3F4B80"/>
<path fill-rule="evenodd" clip-rule="evenodd" d="M6.74633 15.1561L5.66757 13.9346L3.23438 16.486L6.74633 15.1561Z" fill="#4B5897"/>
<path fill-rule="evenodd" clip-rule="evenodd" d="M7.6383 13.7129L6.74673 15.1562L5.66797 13.9347L7.6383 13.7129Z" fill="#313A62"/>
<path fill-rule="evenodd" clip-rule="evenodd" d="M5.10621 10.4028L5.66765 13.9346L4.03809 11.4902L5.10621 10.4028Z" fill="#3F4B80"/>
<path fill-rule="evenodd" clip-rule="evenodd" d="M7.58401 9.5459L5.66789 13.9347L5.10645 10.4029L7.58401 9.5459Z" fill="#4B5897"/>
<path fill-rule="evenodd" clip-rule="evenodd" d="M7.6383 13.7129L5.66797 13.9347L7.58409 9.5459L7.6383 13.7129Z" fill="#3F4B80"/>
<path fill-rule="evenodd" clip-rule="evenodd" d="M9.09613 12.6194L7.6382 13.7129L7.58398 9.5459L9.09613 12.6194Z" fill="#313A62"/>
<path fill-rule="evenodd" clip-rule="evenodd" d="M12.0461 13.1461L9.0957 12.6191L12.0461 12.1685V13.1461Z" fill="#3F4B80"/>
<path fill-rule="evenodd" clip-rule="evenodd" d="M7.58398 9.5459L12.0465 12.1688L9.09613 12.6194L7.58398 9.5459Z" fill="#4B5897"/>
<path fill-rule="evenodd" clip-rule="evenodd" d="M12.49 8.85596L12.0367 12.1834L7.57422 9.56055L12.49 8.85596Z" fill="#3F4B80"/>
<path fill-rule="evenodd" clip-rule="evenodd" d="M12.8709 5.17725L12.4998 8.8413L7.58398 9.54584L12.8709 5.17725Z" fill="#4B5897"/>
<path fill-rule="evenodd" clip-rule="evenodd" d="M14.8478 11.8228L12.046 13.1463L12.0361 12.1834L14.8478 11.8228Z" fill="#313A62"/>
<path fill-rule="evenodd" clip-rule="evenodd" d="M17.2544 10.7256L14.8478 11.8229L12.0361 12.1836L17.2544 10.7256Z" fill="#3F4B80"/>
<path fill-rule="evenodd" clip-rule="evenodd" d="M17.185 11.8229L17.2543 10.7256L14.8477 11.8229H17.185Z" fill="#5161A4"/>
<path fill-rule="evenodd" clip-rule="evenodd" d="M15.7324 14.0266L14.8477 11.8228H17.185L15.7324 14.0266Z" fill="#4B5897"/>
<path fill-rule="evenodd" clip-rule="evenodd" d="M14.4414 13.7999L15.7327 14.0266L14.848 11.8228L14.4414 13.7999Z" fill="#3F4B80"/>
<path fill-rule="evenodd" clip-rule="evenodd" d="M13.9229 14.845L14.4418 13.7998L15.7331 14.0265L13.9229 14.845Z" fill="#4B5897"/>
<path fill-rule="evenodd" clip-rule="evenodd" d="M12.7773 15.6328L14.4415 13.7998L13.9226 14.845L12.7773 15.6328Z" fill="#313A62"/>
<path fill-rule="evenodd" clip-rule="evenodd" d="M13.1348 13.915L12.7773 15.6328L14.4415 13.7998L13.1348 13.915Z" fill="#3F4B80"/>
<path fill-rule="evenodd" clip-rule="evenodd" d="M17.2544 10.7255L12.4993 8.84131L12.0361 12.1835L17.2544 10.7255Z" fill="#4B5897"/>
<path fill-rule="evenodd" clip-rule="evenodd" d="M12.8701 5.17725L12.499 8.8413L17.2542 10.7255L12.8701 5.17725Z" fill="#5161A4"/>
<path fill-rule="evenodd" clip-rule="evenodd" d="M14.5103 4.82178L12.8701 5.17711L17.2542 10.7254L14.5103 4.82178Z" fill="#4B5897"/>
<path fill-rule="evenodd" clip-rule="evenodd" d="M17.7083 8.69248L17.2546 10.7254L14.5107 4.82178L17.7083 8.69248Z" fill="#3F4B80"/>
<path fill-rule="evenodd" clip-rule="evenodd" d="M17.3785 6.32295L17.7083 8.69249L14.5107 4.82178L17.3785 6.32295Z" fill="#313A62"/>
<path fill-rule="evenodd" clip-rule="evenodd" d="M18.0249 11.5062L17.7085 8.69238L17.2549 10.7253L18.0249 11.5062Z" fill="#313A62"/>
<path fill-rule="evenodd" clip-rule="evenodd" d="M20.4014 8.47013L17.7087 8.69229L17.3789 6.32275L20.4014 8.47013Z" fill="#4B5897"/>
<path fill-rule="evenodd" clip-rule="evenodd" d="M18.0244 11.5062L20.4007 8.47021L17.708 8.69238L18.0244 11.5062Z" fill="#3F4B80"/>
<path fill-rule="evenodd" clip-rule="evenodd" d="M20.2997 12.9245L20.4007 8.47021L18.0244 11.5062L20.2997 12.9245Z" fill="#495692"/>
<path fill-rule="evenodd" clip-rule="evenodd" d="M20.3677 7.19113L19.4206 7.77339L17.3789 6.32275L20.3677 7.19113Z" fill="#3F4B80"/>
<path fill-rule="evenodd" clip-rule="evenodd" d="M19.3845 6.47083L20.3677 7.19113L17.3789 6.32275L19.3845 6.47083Z" fill="#313A62"/>
<path fill-rule="evenodd" clip-rule="evenodd" d="M21.6595 5.35352L20.367 7.19128L19.3838 6.47098L21.6595 5.35352Z" fill="#3F4B80"/>
<path fill-rule="evenodd" clip-rule="evenodd" d="M21.5517 4.93604L21.6595 5.35338L19.3838 6.47084L21.5517 4.93604Z" fill="#495692"/>
<path fill-rule="evenodd" clip-rule="evenodd" d="M23.3761 4.82178L21.6595 5.35355L21.5518 4.93621L23.3761 4.82178Z" fill="#5D6CAC"/>
<path fill-rule="evenodd" clip-rule="evenodd" d="M20.7911 7.58857L20.367 7.19141L19.4199 7.77367L20.7911 7.58857Z" fill="#313A62"/>
<path fill-rule="evenodd" clip-rule="evenodd" d="M22.7702 7.74316L20.4006 8.47017L19.4199 7.77342L22.7702 7.74316Z" fill="#4F60A3"/>
<path fill-rule="evenodd" clip-rule="evenodd" d="M22.3326 7.37305L22.7702 7.81678L19.4199 7.85305L22.3326 7.37305Z" fill="#495692"/>
<path fill-rule="evenodd" clip-rule="evenodd" d="M23.6793 6.18848L22.7706 7.74351L22.333 7.37322L23.6793 6.18848Z" fill="#3F4B80"/>
<path fill-rule="evenodd" clip-rule="evenodd" d="M23.962 6.36353L23.6793 6.18848L22.7705 7.74351L23.962 6.36353Z" fill="#4F60A3"/>
<path fill-rule="evenodd" clip-rule="evenodd" d="M24.0569 5.52881L23.6797 6.18849L24.1597 6.36354L24.0569 5.52881Z" fill="#313A62"/>
<path fill-rule="evenodd" clip-rule="evenodd" d="M21.4986 9.31836L20.4014 8.47016L21.1811 8.23096L21.4986 9.31836Z" fill="#313A62"/>
<path fill-rule="evenodd" clip-rule="evenodd" d="M20.2998 12.9245L21.498 9.31841L20.4008 8.47021L20.2998 12.9245Z" fill="#3F4B80"/>
<path fill-rule="evenodd" clip-rule="evenodd" d="M21.6528 12.3274L20.2998 12.9244L21.498 9.31836L21.6528 12.3274Z" fill="#313A62"/>
</g>
<defs>
<clipPath id="clip0">
<rect width="24" height="24" fill="white"/>
</clipPath>
</defs>
</svg>
