<svg width="24" height="24" viewBox="0 0 24 24" fill="none" xmlns="http://www.w3.org/2000/svg">
<path fill-rule="evenodd" clip-rule="evenodd" d="M0.591684 12.0318L11.9678 23.4079L23.344 12.0318L11.9678 0.655532L0.591684 12.0318ZM11.9678 23.9732C11.908 23.9732 11.8479 23.9504 11.8023 23.9046L0.0949428 12.1973C0.00350865 12.1059 0.00350865 11.9575 0.0949428 11.8662L11.8023 0.158908C11.8937 0.0674735 12.042 0.0674735 12.1333 0.158908L23.8407 11.8662C23.9322 11.9575 23.9322 12.1059 23.8407 12.1973L12.1333 23.9046C12.0877 23.9504 12.0277 23.9732 11.9678 23.9732Z" fill="#00C0AC"/>
<path fill-rule="evenodd" clip-rule="evenodd" d="M1.33372 11.7976H8.31081L10.8118 7.45474L1.33372 11.7976ZM8.44615 12.2659H0.26051C0.150461 12.2659 0.0552806 12.1892 0.0317489 12.0816C0.00833425 11.9741 0.0630074 11.8647 0.162988 11.8189L11.2828 6.72385C11.3753 6.68159 11.4849 6.70372 11.5535 6.77911C11.6221 6.85427 11.6342 6.96537 11.5832 7.05365L8.64904 12.1486C8.60724 12.2211 8.52997 12.2659 8.44615 12.2659Z" fill="#00C0AC"/>
<path fill-rule="evenodd" clip-rule="evenodd" d="M15.5938 12.2661L13.0928 16.6089L22.5709 12.2661H15.5938ZM12.5242 17.3611C12.4599 17.3611 12.3965 17.3345 12.3511 17.2846C12.2825 17.2093 12.2704 17.0982 12.3214 17.0101L15.2556 11.9152C15.2974 11.8426 15.3746 11.7979 15.4585 11.7979H23.644C23.7541 11.7979 23.8493 11.8744 23.8727 11.982C23.8963 12.0896 23.8416 12.1991 23.7415 12.2448L12.6218 17.3397C12.5905 17.3541 12.5573 17.3611 12.5242 17.3611Z" fill="#00C0AC"/>
<path fill-rule="evenodd" clip-rule="evenodd" d="M2.10333 6.36486L6.30075 21.8959L21.8319 17.6986L17.6345 2.16732L2.10333 6.36486ZM6.13568 22.4172C6.03254 22.4172 5.93794 22.3485 5.90985 22.2442L1.5902 6.26102C1.55648 6.13622 1.63024 6.00756 1.75504 5.97384L17.7383 1.65419C17.7983 1.63792 17.8621 1.64604 17.916 1.67714C17.9699 1.70816 18.0092 1.75921 18.0254 1.81915L22.345 17.8023C22.3789 17.9272 22.305 18.0557 22.1802 18.0894L6.19691 22.4092C6.17654 22.4147 6.15593 22.4172 6.13568 22.4172Z" fill="#00C0AC"/>
<path fill-rule="evenodd" clip-rule="evenodd" d="M4.53179 7.99434C4.49222 7.99434 4.45218 7.98427 4.41542 7.96308L1.69967 6.40296C1.58751 6.33857 1.54876 6.19551 1.61315 6.08335C1.67766 5.9712 1.82072 5.93268 1.93288 5.99684L4.64862 7.55707C4.76078 7.62146 4.79953 7.76464 4.73503 7.87668C4.69171 7.95219 4.61292 7.99434 4.53179 7.99434Z" fill="#00C0AC"/>
<path fill-rule="evenodd" clip-rule="evenodd" d="M22.0924 18.0821C22.0529 18.0821 22.0128 18.072 21.9761 18.0509L19.2827 16.5037C19.1705 16.4392 19.1318 16.296 19.1962 16.184C19.2607 16.0718 19.4036 16.0332 19.5159 16.0976L22.2093 17.6449C22.3214 17.7092 22.3601 17.8524 22.2957 17.9645C22.2524 18.0399 22.1736 18.0821 22.0924 18.0821Z" fill="#00C0AC"/>
<path fill-rule="evenodd" clip-rule="evenodd" d="M19.3691 7.98046C19.2882 7.98046 19.2095 7.93843 19.1661 7.86327C19.1015 7.75123 19.1399 7.60805 19.252 7.54342L21.9648 5.97815C22.0767 5.91353 22.22 5.95193 22.2846 6.06397C22.3492 6.17601 22.3107 6.31919 22.1988 6.38381L19.486 7.94896C19.4491 7.97027 19.4088 7.98046 19.3691 7.98046Z" fill="#00C0AC"/>
<path fill-rule="evenodd" clip-rule="evenodd" d="M1.82813 18.1014C1.74723 18.1014 1.66844 18.0594 1.62513 17.9843C1.5605 17.8722 1.5989 17.729 1.71094 17.6644L4.4014 16.112C4.51344 16.0473 4.65662 16.0857 4.72124 16.1977C4.78587 16.3098 4.74747 16.4529 4.63543 16.5177L1.94497 18.07C1.90809 18.0913 1.86782 18.1014 1.82813 18.1014Z" fill="#00C0AC"/>
<path fill-rule="evenodd" clip-rule="evenodd" d="M11.9758 3.69838H11.9754C11.8447 3.69814 11.739 3.59313 11.7393 3.46376L11.7461 0.331705C11.7464 0.202691 11.8522 0.0981445 11.9827 0.0981445H11.9832C12.1139 0.0983787 12.2195 0.203393 12.2193 0.332759L12.2124 3.46482C12.2122 3.59383 12.1063 3.69838 11.9758 3.69838Z" fill="#00C0AC"/>
<path fill-rule="evenodd" clip-rule="evenodd" d="M11.9319 23.9501H11.9315C11.8007 23.9498 11.6951 23.8448 11.6953 23.7155L11.7021 20.6092C11.7024 20.4799 11.8083 20.3755 11.9387 20.3755H11.9393C12.0699 20.3758 12.1757 20.4809 12.1753 20.6102L12.1686 23.7165C12.1683 23.8455 12.0624 23.9501 11.9319 23.9501Z" fill="#00C0AC"/>
<path fill-rule="evenodd" clip-rule="evenodd" d="M2.12797 17.7408L17.677 21.8716L21.8079 6.32268L6.25878 2.19187L2.12797 17.7408ZM17.8434 22.3923C17.8234 22.3923 17.8033 22.3897 17.7831 22.3844L1.78144 18.1334C1.72138 18.1174 1.67022 18.0782 1.63908 18.0246C1.60793 17.9709 1.59927 17.907 1.61531 17.8469L5.86635 1.84533C5.8996 1.72018 6.0278 1.64631 6.15272 1.67921L22.1544 5.93013C22.2145 5.94617 22.2656 5.98527 22.2968 6.03901C22.328 6.09275 22.3366 6.15667 22.3206 6.21661L18.0695 22.2182C18.0416 22.3231 17.9469 22.3923 17.8434 22.3923Z" fill="#00C0AC"/>
<path fill-rule="evenodd" clip-rule="evenodd" d="M6.83366 2.71619L10.3351 8.75107L15.3464 8.73492L6.83366 2.71619ZM10.2005 9.21984C10.117 9.21984 10.0398 9.17546 9.99792 9.10323L5.89005 2.023C5.83479 1.92782 5.85329 1.80688 5.93454 1.73277C6.01591 1.65843 6.13778 1.65082 6.22781 1.71427L16.2151 8.77554C16.2982 8.83443 16.3338 8.94015 16.3031 9.03732C16.2725 9.13437 16.1824 9.20064 16.0806 9.20099L10.2013 9.21984H10.2005Z" fill="#00C0AC"/>
<path fill-rule="evenodd" clip-rule="evenodd" d="M8.57406 15.3017L17.0868 21.3205L13.5854 15.2857L8.57406 15.3017ZM17.8279 22.3654C17.7808 22.3654 17.7335 22.3513 17.6928 22.3225L7.70549 15.2611C7.62225 15.2023 7.58666 15.0965 7.61734 14.9994C7.64801 14.9022 7.73804 14.8361 7.83989 14.8359L13.7193 14.8169H13.72C13.8035 14.8169 13.8806 14.8613 13.9225 14.9335L18.0304 22.0137C18.0857 22.109 18.0672 22.2299 17.9859 22.3041C17.9414 22.3447 17.8848 22.3654 17.8279 22.3654Z" fill="#00C0AC"/>
<path fill-rule="evenodd" clip-rule="evenodd" d="M2.14795 6.28832L6.22432 21.8517L21.7877 17.7752L17.7113 2.21183L2.14795 6.28832ZM6.05726 22.3716C6.01605 22.3716 5.97519 22.3607 5.93901 22.3395C5.88539 22.3083 5.84641 22.2569 5.83072 22.1968L1.63564 6.18038C1.60286 6.05535 1.67767 5.92739 1.80282 5.89461L17.8191 1.69952C17.944 1.66698 18.0722 1.74155 18.1049 1.86659L22.3 17.883C22.3328 18.008 22.258 18.136 22.1329 18.1688L6.11649 22.3639C6.09694 22.369 6.07704 22.3716 6.05726 22.3716Z" fill="#00C0AC"/>
<path fill-rule="evenodd" clip-rule="evenodd" d="M14.0163 8.99316L16.5022 13.3445L17.5388 2.97069L14.0163 8.99316ZM16.6622 14.331C16.5795 14.331 16.5013 14.287 16.459 14.213L13.5425 9.1079C13.501 9.03519 13.5015 8.94598 13.5437 8.87363L17.6763 1.8078C17.7319 1.71274 17.8464 1.66942 17.9509 1.70337C18.0555 1.73732 18.1224 1.83976 18.1114 1.94934L16.8953 14.1201C16.8852 14.2214 16.8107 14.3047 16.7111 14.3258C16.6948 14.3294 16.6784 14.331 16.6622 14.331Z" fill="#00C0AC"/>
<path fill-rule="evenodd" clip-rule="evenodd" d="M7.44931 10.6921L6.41275 21.066L9.93524 15.0435L7.44931 10.6921ZM6.07312 22.3448C6.049 22.3448 6.02453 22.341 6.00065 22.3333C5.89599 22.2994 5.82914 22.1969 5.84002 22.0873L7.05618 9.91653C7.06637 9.81526 7.14083 9.73202 7.24045 9.71083C7.34008 9.68929 7.44194 9.73518 7.49251 9.82369L10.409 14.9288C10.4505 15.0015 10.45 15.0907 10.4079 15.163L6.27519 22.2289C6.23222 22.3022 6.15448 22.3448 6.07312 22.3448Z" fill="#00C0AC"/>
</svg>
