<svg width="24" height="24" viewBox="0 0 24 24" fill="none" xmlns="http://www.w3.org/2000/svg">
<path d="M12 24C18.6274 24 24 18.6274 24 12C24 5.37258 18.6274 0 12 0C5.37258 0 0 5.37258 0 12C0 18.6274 5.37258 24 12 24Z" fill="#152743"/>
<path d="M12.0371 6.23678C11.0501 6.23678 10.2498 5.68703 10.2498 5.00829C10.2498 4.32954 11.0501 3.77979 12.0371 3.77979C13.0241 3.77979 13.8236 4.32954 13.8236 5.00829C13.8236 5.68703 13.0241 6.23678 12.0371 6.23678ZM11.1123 19.9498V6.82779H15.0963C15.2441 6.82779 15.3483 6.93804 15.3483 7.08578V14.3668C15.3483 14.5138 15.2433 14.6398 15.0963 14.6398H12.9003V19.9498C12.9003 20.0975 12.7878 20.2318 12.6401 20.2318H11.3891C11.3158 20.2289 11.2464 20.1983 11.195 20.146C11.1436 20.0937 11.114 20.0238 11.1123 19.9505V19.9498ZM10.4403 14.639H8.93284C8.85996 14.6383 8.79015 14.6095 8.73792 14.5587C8.68569 14.5079 8.65504 14.4389 8.65234 14.366V7.08578C8.65234 6.93804 8.78509 6.82779 8.93209 6.82779H10.4403V14.6398V14.639Z" fill="white"/>
</svg>
