<svg width="24" height="24" viewBox="0 0 24 24" fill="none" xmlns="http://www.w3.org/2000/svg">
<g clip-path="url(#clip0)">
<path d="M20.7375 19.937C20.7276 20.1657 20.6295 20.3816 20.4638 20.5394C20.2981 20.6973 20.0776 20.7847 19.8488 20.7834H6.81402C6.57792 20.7823 6.35188 20.6877 6.18533 20.5204C6.01878 20.353 5.92528 20.1265 5.92529 19.8905V19.5942C5.97311 19.1188 6.1171 18.658 6.34849 18.2399C6.9833 17.055 8.16828 16.2086 9.8611 15.6161L15.0665 13.8809C15.8734 13.5802 16.619 13.1357 17.2672 12.569C17.9614 11.988 18.5214 11.2633 18.9086 10.4451C19.2958 9.62679 19.5011 8.73431 19.5102 7.82909L19.8911 8.08301C20.1463 8.25817 20.3561 8.49152 20.5033 8.76379C20.6504 9.03606 20.7307 9.33944 20.7375 9.64887V19.9328V19.937ZM16.2938 7.791C16.3019 8.2292 16.2153 8.66398 16.04 9.06567C15.8647 9.46737 15.6049 9.82652 15.2781 10.1186C14.9215 10.4278 14.5225 10.6844 14.0932 10.8804L8.88773 12.6155C5.79832 13.6312 4.27478 15.4087 3.55533 16.7206C3.42494 16.9664 3.31182 17.2209 3.21677 17.4824C3.21677 17.5247 3.17445 17.5247 3.17445 17.5671V9.69543C3.18488 9.38675 3.26674 9.0847 3.4136 8.81301C3.56046 8.54131 3.76833 8.30737 4.02086 8.12956L11.1307 3.4743C11.3784 3.32014 11.6643 3.23843 11.956 3.23843C12.2477 3.23843 12.5336 3.32014 12.7812 3.4743L16.2938 5.80193V7.791ZM23.9539 19.7677V9.69543C23.94 8.8585 23.7251 8.03717 23.3274 7.30065C22.9297 6.56413 22.3607 5.934 21.6685 5.46337L19.5525 4.06679V0.892745C19.5525 0.656647 19.459 0.430158 19.2925 0.262815C19.1259 0.0954733 18.8999 0.000899718 18.6638 -0.000219227H17.2672C17.1497 -0.00312186 17.0328 0.017882 16.9237 0.0615175C16.8146 0.105153 16.7154 0.17051 16.6323 0.253622C16.5492 0.336734 16.4838 0.435868 16.4402 0.545006C16.3966 0.654144 16.3756 0.771011 16.3785 0.888513V1.94653L14.601 0.761551C13.8249 0.261828 12.9214 -0.00390625 11.9983 -0.00390625C11.0752 -0.00390625 10.1717 0.261828 9.39557 0.761551L2.28572 5.41681C1.58658 5.88036 1.01237 6.50894 0.613796 7.24704C0.215222 7.98514 0.00455459 8.81004 0.000404151 9.64887V19.7212C-0.034281 20.5898 0.202384 21.4477 0.677534 22.1758C1.02917 22.7251 1.52763 23.1649 2.11643 23.4454C2.78078 23.7605 3.49874 23.9472 4.23246 23.9955H19.7641C20.5015 23.9714 21.2244 23.7835 21.8801 23.4454C22.4811 23.1661 22.9935 22.7269 23.3614 22.1758C23.7751 21.4407 23.98 20.6066 23.9539 19.7635" fill="#38A6FA"/>
</g>
<defs>
<clipPath id="clip0">
<rect width="24" height="24" fill="white"/>
</clipPath>
</defs>
</svg>
