<svg width="24" height="24" viewBox="0 0 24 24" fill="none" xmlns="http://www.w3.org/2000/svg">
<path fill-rule="evenodd" clip-rule="evenodd" d="M24 12C24 18.6274 18.6274 24 12 24C5.37255 24 0 18.6274 0 12C0 5.37255 5.37255 0 12 0C18.6274 0 24 5.37255 24 12Z" fill="url(#paint0_linear)"/>
<path fill-rule="evenodd" clip-rule="evenodd" d="M12.0002 22.2543C6.34604 22.2543 1.74599 17.6543 1.74599 12.0002C1.74599 6.34604 6.34604 1.74599 12.0002 1.74599C17.6543 1.74599 22.2543 6.34604 22.2543 12.0002C22.2543 17.6543 17.6543 22.2543 12.0002 22.2543ZM12.0002 1.08301C5.98047 1.08301 1.08301 5.98047 1.08301 12.0002C1.08301 18.0198 5.98047 22.9172 12.0002 22.9172C18.0198 22.9172 22.9173 18.0198 22.9173 12.0002C22.9173 5.98047 18.0198 1.08301 12.0002 1.08301Z" fill="#FFFFFE"/>
<path fill-rule="evenodd" clip-rule="evenodd" d="M12 22.9171C5.98031 22.9171 1.08285 18.0197 1.08285 12C1.08285 5.98024 5.98031 1.08285 12 1.08285C18.0197 1.08285 22.9171 5.98024 22.9171 12C22.9171 18.0197 18.0197 22.9171 12 22.9171ZM12 0C5.37255 0 0 5.37255 0 12C0 18.6274 5.37255 24 12 24C18.6274 24 24 18.6274 24 12C24 5.37255 18.6274 0 12 0Z" fill="#D6552B"/>
<path fill-rule="evenodd" clip-rule="evenodd" d="M7.41933 16.861L6.72691 17.4565H12.3185L11.7153 17.0258C11.2207 16.6727 10.9272 16.1025 10.9272 15.4948V3.59814H8.89401L8.74477 4.20637C8.61575 4.73244 8.32232 5.20363 7.90716 5.55149L6.56641 6.67479H8.06462V15.455C8.06462 15.9953 7.82899 16.5087 7.41933 16.861Z" fill="#FFFFFE"/>
<path fill-rule="evenodd" clip-rule="evenodd" d="M14.86 7.42451C15.3497 7.44771 15.6822 7.58767 15.6822 7.91392C15.6822 8.2661 15.288 8.43105 14.8437 8.44219C14.7303 8.44504 14.6305 8.44066 14.5446 8.43761C14.5446 8.07324 14.5257 7.74698 14.4879 7.45885C14.7594 7.43598 14.6162 7.41297 14.86 7.42451ZM14.6065 9.98581C14.5687 9.51629 14.5498 9.13819 14.5498 8.85151C14.6185 8.85456 14.7337 8.85609 14.8952 8.85609C15.782 8.85609 15.8884 8.76924 16.4985 8.5954C17.1086 8.42163 17.4137 8.15253 17.4137 7.78815C17.4137 7.52137 17.1885 7.32241 16.7383 7.19127C16.288 7.06013 15.7363 6.99463 15.0832 6.99463C14.8186 6.99463 14.5058 6.99688 14.1448 7.00146C13.784 7.00603 13.5399 7.00835 13.4127 7.00835H12.5156C12.5603 7.40628 12.5827 7.87964 12.5827 8.42846C12.5827 9.02608 12.5603 9.54519 12.5156 9.98581H14.6065Z" fill="#FFFFFE"/>
<path fill-rule="evenodd" clip-rule="evenodd" d="M17.0517 11.2052L17.0825 10.7148H12.5685L12.5332 11.2075C13.2555 11.1832 13.4223 11.171 13.8362 11.171C13.848 11.4645 13.8539 11.7845 13.8539 12.1312C13.8539 12.6832 13.8348 13.2009 13.7967 13.6845H15.8323C15.8001 13.1964 15.7839 12.6786 15.7839 12.1312C15.7839 11.7785 15.7868 11.4584 15.7927 11.171C16.3123 11.171 16.4645 11.1824 17.0517 11.2052Z" fill="#FFFFFE"/>
<path fill-rule="evenodd" clip-rule="evenodd" d="M16.5328 17.0082C15.8091 17.0082 15.4072 16.9019 15.0061 16.6895C14.605 16.4771 14.4044 16.2262 14.4044 15.9368C14.4044 15.6536 14.5734 15.413 14.9114 15.2152C15.2493 15.0174 15.6043 14.9185 16.2973 14.9185C16.6659 14.9185 16.5701 14.9477 16.973 15.0062L17.1522 14.4728C16.78 14.4298 16.3858 14.4082 15.9693 14.4082C14.836 14.4082 13.9441 14.5683 13.2938 14.8885C12.6435 15.2087 12.3184 15.5851 12.3184 16.0176C12.3184 16.4347 12.6247 16.7892 13.2375 17.0809C13.8502 17.3726 14.7421 17.5185 15.913 17.5185C16.3841 17.5185 16.862 17.4923 17.3468 17.44L17.4338 16.9089C16.9354 16.9751 16.9561 17.0082 16.5328 17.0082Z" fill="#FFFFFE"/>
<path fill-rule="evenodd" clip-rule="evenodd" d="M12.392 19.1336L11.9775 17.8579L11.563 19.1336H10.2217L11.3068 19.9219L10.8924 21.1976L11.9775 20.4092L13.0626 21.1976L12.6481 19.9219L13.7332 19.1336H12.392Z" fill="#FFFFFE"/>
<defs>
<linearGradient id="paint0_linear" x1="12" y1="0" x2="12" y2="24" gradientUnits="userSpaceOnUse">
<stop stop-color="#EBA019"/>
<stop offset="1" stop-color="#EB7912"/>
</linearGradient>
</defs>
</svg>
