<svg width="24" height="24" viewBox="0 0 24 24" fill="none" xmlns="http://www.w3.org/2000/svg">
<path d="M12 0C18.624 0 24 5.376 24 12C24 18.624 18.624 24 12 24C5.376 24 0 18.624 0 12C0 5.376 5.376 0 12 0Z" fill="#071630"/>
<path opacity="0.9" d="M19.7279 17.3279C19.7279 17.6639 19.4399 17.9039 19.0079 17.9039C18.6239 17.9039 18.3359 17.6639 18.3359 17.3279V8.54389C18.3359 8.49589 18.3359 8.4959 18.2879 8.4959C18.2399 8.4959 18.2399 8.4959 18.1919 8.4959L12.6719 15.5519C12.4319 15.7919 11.9999 15.8879 11.7119 15.6959C11.6159 15.6479 11.5679 15.5999 11.5199 15.5519L5.99987 8.4959C5.95187 8.4959 5.95187 8.4959 5.90387 8.4959L5.85587 8.54389V17.3759C5.85587 17.7119 5.51987 17.9519 5.13587 17.9519C4.75187 17.9519 4.46387 17.7119 4.46387 17.3759V6.81589C4.46387 6.62389 4.60787 6.43189 4.75187 6.33589C5.08787 6.14389 5.47187 6.23989 5.71187 6.47989L11.8079 14.2079C11.9519 14.3519 12.1439 14.3519 12.2879 14.2559C12.2879 14.2559 12.3359 14.2559 12.3359 14.2079L18.4319 6.47989C18.5759 6.28789 18.8159 6.19189 19.0559 6.19189C19.4399 6.19189 19.7759 6.43189 19.7759 6.76789L19.7279 17.3279Z" fill="url(#paint0_linear)"/>
<path d="M19.7282 17.3282C19.7282 17.6162 19.4402 17.9042 19.0082 17.9042C18.7682 17.9042 18.5282 17.8082 18.3842 17.6162L12.3362 9.88824C12.1922 9.74424 12.0002 9.74424 11.8562 9.84023C11.8562 9.84023 11.8082 9.88823 11.7602 9.98423L5.76021 17.6642C5.52021 17.9522 5.13621 18.0002 4.80021 17.8082C4.60821 17.7122 4.51221 17.5202 4.51221 17.3282V6.81623C4.51221 6.48023 4.80021 6.24023 5.18421 6.24023C5.56821 6.24023 5.90421 6.48023 5.90421 6.81623V15.6482C5.90421 15.6962 5.90421 15.6962 5.95221 15.6962C6.00021 15.6962 6.00021 15.6962 6.04821 15.6962L11.4242 8.83223C11.4722 8.73623 11.6642 8.54424 11.7602 8.49624C12.0962 8.30423 12.4802 8.35223 12.7202 8.64023L18.1922 15.6962C18.1922 15.6962 18.2402 15.6962 18.2882 15.6962C18.3362 15.6962 18.3362 15.6482 18.3362 15.6482V6.81623C18.3362 6.48023 18.6242 6.24023 19.0082 6.24023C19.3922 6.24023 19.7282 6.48023 19.7282 6.81623V17.3282Z" fill="url(#paint1_linear)"/>
<defs>
<linearGradient id="paint0_linear" x1="12.1199" y1="17.9136" x2="12.1199" y2="6.24445" gradientUnits="userSpaceOnUse">
<stop stop-color="#3F5CAA"/>
<stop offset="0.2" stop-color="#3F5FAC"/>
<stop offset="0.33" stop-color="#4168B2"/>
<stop offset="0.46" stop-color="#4378BD"/>
<stop offset="0.57" stop-color="#468ECC"/>
<stop offset="0.64" stop-color="#48A0D9"/>
<stop offset="0.8" stop-color="#3ABBEC"/>
<stop offset="0.9" stop-color="#35C6F4"/>
</linearGradient>
<linearGradient id="paint1_linear" x1="12.1202" y1="17.9235" x2="12.1202" y2="6.24023" gradientUnits="userSpaceOnUse">
<stop stop-color="#4068B1"/>
<stop offset="0.13" stop-color="#3D7FC1"/>
<stop offset="0.39" stop-color="#39A5DD"/>
<stop offset="0.59" stop-color="#36BDEE"/>
<stop offset="0.72" stop-color="#35C6F4"/>
</linearGradient>
</defs>
</svg>
