<svg width="24" height="24" viewBox="0 0 24 24" fill="none" xmlns="http://www.w3.org/2000/svg">
<path d="M7.62546 21.3196H13.6479L18.5152 17.7869L20.3769 12.0673L18.5152 6.34766L13.6479 2.81495H7.62546L2.75817 6.32523L0.896492 12.0449L2.75817 17.7645L7.62546 21.3196ZM13.7488 21.6449H7.51331L7.46845 21.6112L2.46659 17.9776L0.548828 12.0561L2.4778 6.12336L7.51331 2.46729H13.7488L18.7956 6.13457L20.7245 12.0673L18.7956 18L13.7488 21.6449Z" fill="#2EA6DF"/>
<path d="M8.20887 2.6245C8.20887 3.02823 7.88364 3.34225 7.49112 3.34225C7.08738 3.34225 6.77336 3.01702 6.77336 2.6245C6.77336 2.23197 7.09859 1.90674 7.49112 1.90674C7.88364 1.90674 8.20887 2.23197 8.20887 2.6245ZM14.3995 2.6245C14.3995 3.02823 14.0743 3.34225 13.6818 3.34225C13.278 3.34225 12.964 3.01702 12.964 2.6245C12.964 2.23197 13.2892 1.90674 13.6818 1.90674C14.0743 1.90674 14.3995 2.23197 14.3995 2.6245ZM8.25373 21.3759C8.25373 21.7796 7.9285 22.0937 7.53598 22.0937C7.13224 22.0937 6.81822 21.7684 6.81822 21.3759C6.81822 20.9834 7.14345 20.6581 7.53598 20.6581C7.9285 20.6469 8.25373 20.9722 8.25373 21.3759ZM3.29672 17.888C3.29672 18.2918 2.97149 18.6058 2.57897 18.6058C2.18644 18.6058 1.86121 18.2806 1.86121 17.888C1.86121 17.4843 2.18644 17.1703 2.57897 17.1703C2.97149 17.1703 3.29672 17.4843 3.29672 17.888ZM1.44626 12.0563C1.44626 12.46 1.12102 12.774 0.728499 12.774C0.324761 12.774 0.0107422 12.4488 0.0107422 12.0563C0.0107422 11.6525 0.335976 11.3385 0.728499 11.3385C1.12102 11.3273 1.44626 11.6525 1.44626 12.0563ZM3.29672 6.24693C3.29672 6.65066 2.97149 6.96468 2.57897 6.96468C2.18644 6.96468 1.86121 6.63945 1.86121 6.24693C1.86121 5.84319 2.18644 5.52917 2.57897 5.52917C2.97149 5.52917 3.29672 5.84319 3.29672 6.24693ZM19.8163 12.0451C19.8163 12.4488 20.1416 12.7628 20.5341 12.7628C20.9266 12.7628 21.2519 12.4376 21.2519 12.0451C21.2519 11.6525 20.9266 11.3273 20.5341 11.3273C20.1416 11.3273 19.8163 11.6413 19.8163 12.0451ZM17.9659 6.23571C17.9659 6.63945 18.2911 6.95347 18.6836 6.95347C19.0874 6.95347 19.4014 6.62823 19.4014 6.23571C19.4014 5.83197 19.0762 5.51795 18.6836 5.51795C18.2799 5.51795 17.9659 5.83197 17.9659 6.23571ZM14.4556 21.3759C14.4556 21.7796 14.1304 22.0937 13.7378 22.0937C13.3453 22.0937 13.0201 21.7684 13.0201 21.3759C13.0201 20.9834 13.3453 20.6581 13.7378 20.6581C14.1304 20.6581 14.4556 20.9722 14.4556 21.3759Z" fill="#2EA6DF"/>
<path d="M6.81864 16.3065L6.87472 16.3289L10.9009 17.686L15.4542 16.3177L18.5271 17.6299V6.48221L15.4542 7.79436L10.9009 6.42614L6.81864 7.78315L6.76257 7.77193L2.74761 6.471V17.6187L6.81864 16.3065ZM18.8523 18.1009L15.4317 16.643L10.9009 18.0112L6.82986 16.643L2.43359 18.0673V6.0224L6.82986 7.4467L10.9009 6.07847L10.9457 6.08969L15.4317 7.43548L18.8523 5.97754V18.1009Z" fill="#2EA6DF"/>
<path d="M0.716797 12.357V11.8924L20.5448 11.877V12.326L0.716797 12.357Z" fill="#2EA6DF"/>
<path d="M11.0797 6.26935L13.4461 11.5965L15.2517 7.60393L13.6255 2.96094L11.0797 6.26935ZM6.98627 7.59271L8.57879 11.6077L10.6984 6.28056L7.60309 2.99458L6.98627 7.59271ZM2.80309 12.0563L6.75075 16.1834L8.38814 12.0563L6.75075 7.91795L2.80309 12.0563ZM8.75823 12.0563L10.9003 17.417L13.2666 12.0002L10.9003 6.67309L8.75823 12.0563ZM6.98627 16.4974L7.64795 21.017L10.6984 17.8095L8.57879 12.5049L6.98627 16.4974ZM11.0797 17.8207L13.6704 21.0394L15.2517 16.4862L13.4461 12.4151L11.0797 17.8207ZM7.42365 21.7348L6.66103 16.5535L2.35449 12.0563L6.66103 7.53664L7.36758 2.25439L10.8779 5.98897L13.7377 2.27682L15.6106 7.62636L13.6255 12.0002L15.6106 16.4637L13.7937 21.7011L10.8779 18.0899L7.42365 21.7348Z" fill="#2EA6DF"/>
<path d="M15.5654 16.576L15.2963 16.3742L18.4813 12.0564L15.2963 7.71621L15.5654 7.51434L18.8851 12.0564L15.5654 16.576ZM6.04395 7.61528C6.04395 8.01902 6.36918 8.33304 6.7617 8.33304C7.16544 8.33304 7.47946 8.0078 7.47946 7.61528C7.47946 7.22276 7.15423 6.89752 6.7617 6.89752C6.36918 6.89752 6.04395 7.21154 6.04395 7.61528ZM10.171 6.24705C10.171 6.65079 10.4963 6.96481 10.8888 6.96481C11.2925 6.96481 11.6066 6.63958 11.6066 6.24705C11.6066 5.84332 11.2813 5.5293 10.8888 5.5293C10.4851 5.5293 10.171 5.84332 10.171 6.24705Z" fill="#2EA6DF"/>
<path d="M15.9473 7.11067C15.6669 6.8303 15.2071 6.8303 14.9267 7.11067C14.6464 7.39104 14.6464 7.85086 14.9267 8.13123C15.2071 8.41161 15.6669 8.41161 15.9473 8.13123C16.2277 7.83964 16.2277 7.39104 15.9473 7.11067ZM3.29684 12.0004C3.29684 11.5967 2.97161 11.2826 2.57909 11.2826C2.18656 11.2826 1.86133 11.6079 1.86133 12.0004C1.86133 12.4041 2.18656 12.7181 2.57909 12.7181C2.97161 12.7181 3.29684 12.4041 3.29684 12.0004ZM9.16226 12.0004C9.16226 11.5967 8.83703 11.2826 8.44451 11.2826C8.04077 11.2826 7.72675 11.6079 7.72675 12.0004C7.72675 12.4041 8.05198 12.7181 8.44451 12.7181C8.83703 12.7181 9.16226 12.4041 9.16226 12.0004ZM14.0632 12.0004C14.0632 11.5967 13.738 11.2826 13.3454 11.2826C12.9417 11.2826 12.6277 11.6079 12.6277 12.0004C12.6277 12.4041 12.9529 12.7181 13.3454 12.7181C13.738 12.7181 14.0632 12.4041 14.0632 12.0004ZM19.4015 12.0565C19.4015 11.6527 19.0763 11.3387 18.6838 11.3387C18.2912 11.3387 17.966 11.6639 17.966 12.0565C17.966 12.4602 18.2912 12.7742 18.6838 12.7742C19.0763 12.7742 19.4015 12.449 19.4015 12.0565ZM16.1492 16.4752C16.1492 16.0714 15.8239 15.7574 15.4314 15.7574C15.0277 15.7574 14.7137 16.0826 14.7137 16.4752C14.7137 16.8677 15.0389 17.1929 15.4314 17.1929C15.8352 17.1929 16.1492 16.8789 16.1492 16.4752ZM23.9884 20.1088C23.9884 19.5481 23.5286 19.0882 22.9679 19.0882C22.4071 19.0882 21.9473 19.5481 21.9473 20.1088C21.9473 20.6695 22.4071 21.1294 22.9679 21.1294C23.5286 21.1294 23.9884 20.6695 23.9884 20.1088ZM10.609 17.1929C10.2389 17.3499 10.0707 17.7761 10.2277 18.135C10.3847 18.5051 10.8109 18.6733 11.1697 18.5163C11.5398 18.3593 11.7081 17.9331 11.551 17.5742C11.394 17.2153 10.9791 17.0471 10.609 17.1929ZM6.48189 15.8135C6.1118 15.9705 5.94357 16.3967 6.10058 16.7555C6.25759 17.1256 6.68376 17.2938 7.04264 17.1368C7.41273 16.9798 7.58095 16.5537 7.42394 16.1948C7.26694 15.8247 6.85198 15.6565 6.48189 15.8135Z" fill="#2EA6DF"/>
<path d="M22.889 20.2543L18.5713 18.0225L18.7283 17.731L23.0461 19.9627L22.889 20.2543Z" fill="#2EA6DF"/>
</svg>
