<svg width="24" height="24" viewBox="0 0 24 24" fill="none" xmlns="http://www.w3.org/2000/svg">
<g clip-path="url(#clip0)">
<path d="M20.5669 4.6442L14.3397 0.754512C13.4519 0.245224 12.4432 -0.0151967 11.4199 0.000685332C10.3966 0.0165674 9.39645 0.308164 8.52493 0.844756L2.0199 4.9087C0.843082 5.63324 0.818121 7.10613 1.98966 7.83873L7.45928 11.1413C7.93316 11.4376 8.31986 12.3154 8.59213 12.8033L10.946 16.8095C11.0031 16.9117 11.0864 16.9968 11.1873 17.0562C11.2882 17.1156 11.403 17.147 11.5201 17.1473C11.6372 17.1477 11.7522 17.1168 11.8534 17.058C11.9547 16.9992 12.0384 16.9145 12.0961 16.8126L14.8629 12.1234C15.094 11.7154 15.3909 11.3338 15.7903 11.0865L20.8631 8.01999C22.2036 7.18773 21.9361 5.42942 20.5674 4.6442H20.5669ZM18.7668 7.12955L14.5155 9.76908C14.223 9.951 13.9808 10.2035 13.8113 10.5033L11.9425 13.9182C11.9003 13.9932 11.8388 14.0557 11.7645 14.0991C11.6901 14.1424 11.6055 14.1652 11.5194 14.165C11.4333 14.1647 11.3488 14.1415 11.2747 14.0978C11.2005 14.054 11.1394 13.9912 11.0976 13.916L9.38877 10.7428C9.18861 10.3846 8.90134 10.0827 8.55353 9.86499L4.19026 7.13512C3.33025 6.5975 3.33467 5.34273 4.1987 4.81087L9.34864 1.63996C9.98848 1.24604 10.7227 1.03199 11.474 1.02035C12.2253 1.00871 12.9658 1.19991 13.6175 1.57381L18.716 4.71976C19.7207 5.29617 19.751 6.51858 18.7668 7.12955Z" fill="#000300"/>
<path d="M1 9.6302V17.8153C0.999907 17.8877 1.01885 17.959 1.05494 18.0218C1.09103 18.0847 1.143 18.1369 1.20564 18.1734L10.976 23.8729C11.254 24.0342 11.5978 24.0361 11.8766 23.9132L21.7574 18.2113C21.8856 18.0996 21.9646 17.9627 21.9646 17.8148V9.68655C21.9646 9.49118 21.8869 9.30384 21.7487 9.16575C21.6105 9.02766 21.4231 8.95012 21.2277 8.9502C21.0324 8.95027 20.845 9.02796 20.7069 9.16616C20.5688 9.30436 20.4913 9.49176 20.4914 9.68713V16.9852C20.4914 17.0576 20.4725 17.1287 20.4365 17.1914C20.4004 17.2542 20.3486 17.3064 20.2861 17.3428L11.953 22.247C11.8158 22.3271 11.6598 22.3692 11.5009 22.3692C11.342 22.3692 11.186 22.3271 11.0488 22.247L2.56563 17.2677C2.50302 17.2313 2.45106 17.1791 2.41494 17.1163C2.37882 17.0535 2.35981 16.9823 2.3598 16.9098V9.6302C2.3598 9.44987 2.28817 9.27694 2.16066 9.14943C2.03316 9.02192 1.86022 8.95029 1.6799 8.95029C1.49958 8.95029 1.32664 9.02192 1.19914 9.14943C1.07163 9.27694 1 9.44987 1 9.6302Z" fill="#000300"/>
</g>
<defs>
<clipPath id="clip0">
<rect width="24" height="24" fill="white"/>
</clipPath>
</defs>
</svg>
