<svg width="24" height="24" viewBox="0 0 24 24" fill="none" xmlns="http://www.w3.org/2000/svg">
<path fill-rule="evenodd" clip-rule="evenodd" d="M4.36869 2.72748C-0.724112 6.91743 -1.47137 14.4124 2.6924 19.5266C5.9891 23.5758 11.3855 24.9081 16.034 23.2323C17.0751 22.857 17.2198 21.4446 16.2741 20.8697L9.39664 16.6887C8.80479 16.329 8.12636 16.1216 7.43453 16.089L5.36618 15.9905L5.32851 15.9854C4.55281 15.8783 3.85717 15.4896 3.36965 14.8909C2.31067 13.5902 2.50737 11.6704 3.80808 10.6114C4.79426 9.80848 5.79048 9.65225 6.66943 9.51441C7.55462 9.37557 8.31918 9.25567 9.18852 8.54789C10.0578 7.84012 10.3302 7.11577 10.6456 6.27713C10.9588 5.44437 11.3137 4.50059 12.3 3.69763C13.6007 2.63864 15.5204 2.83535 16.5794 4.13597C17.067 4.73479 17.3065 5.49482 17.2541 6.27613L17.2515 6.31408L16.9287 8.35897C16.8202 9.04347 16.8856 9.74988 17.1179 10.4023L19.8177 17.9849C20.187 19.0222 21.5969 19.177 22.1735 18.239C24.7637 14.0255 24.5556 8.4652 21.2562 4.41265C17.0694 -0.729875 9.49581 -1.49081 4.36869 2.72748Z" fill="#2891A5"/>
<path fill-rule="evenodd" clip-rule="evenodd" d="M18.6715 20.1958C18.1191 20.6456 18.0358 21.458 18.4856 22.0105C18.9354 22.563 19.7479 22.6462 20.3003 22.1964C20.8528 21.7467 20.936 20.9341 20.4862 20.3817C20.0364 19.8292 19.224 19.746 18.6715 20.1958ZM15.2514 8.09358C15.0988 9.05729 15.1911 10.0525 15.5183 10.9717L17.3763 16.1903C17.6586 16.9835 17.3017 17.6387 16.8735 17.9874C16.4453 18.336 15.7314 18.5527 15.0117 18.1154L10.2783 15.2379C9.44455 14.7311 8.48871 14.4389 7.5145 14.393L5.52721 14.2983C5.19637 14.2446 4.89125 14.0709 4.68594 13.8188C4.21807 13.2441 4.30493 12.3958 4.87966 11.9279C5.51018 11.4145 6.13771 11.3161 6.93216 11.1916C7.91788 11.0369 9.0351 10.8617 10.2601 9.86433C10.7578 9.45913 11.1189 9.04389 11.396 8.631C11.8008 8.02756 12.026 7.4291 12.2344 6.87465C12.4114 6.40425 12.5651 5.99562 12.8094 5.62991C12.956 5.41056 13.1352 5.20661 13.3717 5.01406C13.9464 4.5462 14.7946 4.63305 15.2626 5.20778C15.4679 5.45992 15.576 5.79393 15.5617 6.12875L15.2514 8.09358Z" fill="#3C4D60"/>
</svg>
