<svg width="24" height="24" viewBox="0 0 24 24" fill="none" xmlns="http://www.w3.org/2000/svg">
<path d="M12 24C18.6274 24 24 18.6274 24 12C24 5.37258 18.6274 0 12 0C5.37258 0 0 5.37258 0 12C0 18.6274 5.37258 24 12 24Z" fill="url(#paint0_linear)"/>
<path d="M6.7501 6.975L8.0251 6.3L8.1751 6.6L12.8251 3.9L12.5251 3.675L12.1501 3.45L12.0001 3.375L4.3501 7.8V7.95L6.5251 6.75L6.7501 6.975ZM6.7501 9.825L10.4251 7.65L10.5751 7.95L15.3001 5.25L14.9251 5.025L14.5501 4.875L14.4001 4.8L4.3501 10.575V10.725L6.5251 9.525L6.7501 9.825ZM6.7501 11.175L11.6251 8.4L11.7751 8.625L16.5001 5.925L16.1251 5.775L15.7501 5.55L15.6001 5.475L4.3501 11.925V12.15L6.5251 10.875L6.7501 11.175ZM6.7501 12.525L12.8251 9.075L12.9751 9.3L17.7001 6.675L17.3251 6.45L16.9501 6.225L16.8001 6.15L4.3501 13.35V13.5L6.5251 12.3L6.7501 12.525ZM6.7501 13.95L14.0251 9.75L14.1751 10.05L18.9001 7.35L18.5251 7.125L18.2251 6.975L18.0001 6.825L4.3501 14.7V14.925L6.5251 13.65L6.7501 13.95ZM19.3501 7.65L19.2001 7.5L4.3501 16.125V16.275L6.5251 15.075L6.7501 15.375L14.0251 11.1L14.1751 11.4L19.6501 8.325V7.8L19.3501 7.65ZM5.3251 17.175L6.5251 16.425L6.6751 16.725L14.0251 12.525L14.1751 12.825L19.6501 9.675V8.7L5.1001 17.025L5.3251 17.175ZM14.0251 13.95L14.1751 14.25L19.6501 11.025V10.05L6.3001 17.775L6.5251 17.85L7.7251 17.1L7.9501 17.4L14.0251 13.95ZM7.7251 18.525L9.0001 17.85L9.1501 18.15L14.0251 15.3L14.1751 15.6L19.6501 12.45V11.475L7.5001 18.45L7.7251 18.525ZM8.9251 19.2L10.2001 18.525L10.3501 18.825L14.0251 16.725L14.1751 17.025L19.6501 13.875V12.825L8.7001 19.125L8.9251 19.2ZM9.9001 19.8L10.1251 19.95L11.4001 19.2L11.5501 19.5L14.0251 18.075L14.1751 18.375L19.6501 15.225V14.25L9.9001 19.8ZM11.3251 20.625L12.5251 19.875L12.7501 20.175L14.0251 19.5L14.1751 19.8L19.6501 16.65V15.6L11.1751 20.55L11.3251 20.625ZM14.1001 4.575L13.7251 4.35L13.3501 4.2L13.2001 4.05L4.3501 9.15V9.375L6.5251 8.1L6.7501 8.4L9.2251 6.975L9.3751 7.275L14.1001 4.575Z" fill="white"/>
<defs>
<linearGradient id="paint0_linear" x1="0" y1="12" x2="24" y2="12" gradientUnits="userSpaceOnUse">
<stop stop-color="#001C3A"/>
<stop offset="0.6" stop-color="#001E3D"/>
<stop offset="0.7" stop-color="#001F3F"/>
<stop offset="1" stop-color="#002042"/>
</linearGradient>
</defs>
</svg>
