<svg width="24" height="24" viewBox="0 0 24 24" fill="none" xmlns="http://www.w3.org/2000/svg">
<path fill-rule="evenodd" clip-rule="evenodd" d="M12.034 4.22461C10.162 4.22461 8.64457 5.74216 8.64457 7.61402C8.64457 7.68395 8.65078 7.75214 8.655 7.82093L8.65052 7.81358C8.65052 7.81358 8.58961 8.78414 8.17159 9.09768C7.75363 9.41122 6.80372 9.15591 6.80372 9.15591L6.80512 9.15838C6.27031 8.80573 5.63073 8.59909 4.94228 8.59909C3.07028 8.59909 1.55273 10.1166 1.55273 11.9885C1.55273 13.8605 3.07028 15.378 4.94228 15.378C6.81415 15.378 8.3317 13.8605 8.3317 11.9885C8.3317 11.9222 8.32555 11.8574 8.3218 11.792L8.32642 11.8C8.32642 11.8 8.33578 10.8296 8.85462 10.4873C9.37346 10.1452 10.2869 10.5191 10.2869 10.5191L10.2827 10.512C10.7943 10.8219 11.3922 11.0036 12.034 11.0036C13.9059 11.0036 15.4235 9.48596 15.4235 7.61402C15.4235 5.74216 13.9059 4.22461 12.034 4.22461Z" fill="#FFE800"/>
<path fill-rule="evenodd" clip-rule="evenodd" d="M19.1755 8.50488C17.3036 8.50488 15.7861 10.0225 15.7861 11.8943C15.7861 11.9642 15.7923 12.0325 15.7965 12.1013L15.792 12.0939C15.792 12.0939 15.7311 13.0644 15.3131 13.378C14.9708 13.6347 14.2726 13.5102 14.0307 13.4566C13.4809 13.0721 12.8133 12.8448 12.0917 12.8448C10.2197 12.8448 8.70212 14.3624 8.70212 16.2343C8.70212 16.3041 8.70834 16.3723 8.71255 16.4411L8.70807 16.4337C8.70807 16.4337 8.64717 17.4043 8.2292 17.7179C7.81118 18.0314 6.86127 17.7761 6.86127 17.7761L6.86274 17.7786C6.32792 17.4259 5.68828 17.2193 4.9999 17.2193C3.1279 17.2193 1.61035 18.7368 1.61035 20.6086C1.61035 22.4806 3.1279 23.9983 4.9999 23.9983C6.8717 23.9983 8.38932 22.4806 8.38932 20.6086C8.38932 20.5423 8.3831 20.4775 8.37935 20.4121L8.38403 20.4201C8.38403 20.4201 8.39333 19.4497 8.91224 19.1075C9.43101 18.7653 10.3445 19.1393 10.3445 19.1393L10.3402 19.1321C10.8519 19.4421 11.4498 19.6237 12.0917 19.6237C13.9635 19.6237 15.481 18.1062 15.481 16.2343C15.481 16.1626 15.4747 16.0925 15.4703 16.0219C15.4818 15.8098 15.5526 15.0601 15.9961 14.7676C16.515 14.4254 17.4286 14.7994 17.4286 14.7994L17.4241 14.7922C17.9358 15.1021 18.5338 15.2838 19.1755 15.2838C21.0475 15.2838 22.565 13.7663 22.565 11.8943C22.565 10.0225 21.0475 8.50488 19.1755 8.50488Z" fill="#FFE800"/>
<path fill-rule="evenodd" clip-rule="evenodd" d="M8.29714 3.42832C8.29714 5.32185 6.76228 6.85671 4.86875 6.85671C2.97536 6.85671 1.44043 5.32185 1.44043 3.42832C1.44043 1.53486 2.97536 0 4.86875 0C6.76228 0 8.29714 1.53486 8.29714 3.42832Z" fill="#FFE800"/>
</svg>
