<svg width="24" height="24" viewBox="0 0 24 24" fill="none" xmlns="http://www.w3.org/2000/svg">
<path d="M11.3046 19.4736L5 24.0001L9.00236 5.58219L11.3046 19.4736ZM11.4321 19.4311L15.2715 19.4807L9.15112 5.65303L11.4321 19.4311ZM15.6328 19.1265L18.5726 8.23154L17.4604 6.87145L15.6328 19.1265ZM14.2161 2.04736L9.3778 5.30592L16.4475 3.01785L14.2161 2.04736ZM13.6068 2.04736L10.6033 2.14654L10.1641 3.40037L13.6068 2.04736Z" fill="#384182"/>
<path d="M17.2475 6.45348L9.50488 5.39091L16.4825 3.19492L17.2475 6.45348ZM15.4128 2.35903L15.8378 1.20437L13.6064 0.233887L15.4128 2.35903ZM16.0574 1.09103L16.5604 2.90449L19.5356 2.11818L16.0574 1.09103Z" fill="#F79534"/>
<path d="M15.4418 19.4097L9.23633 5.52538L17.3261 6.6588L15.4418 19.4097ZM13.9825 2.04723L10.1572 3.54191L9.23633 5.24203L13.9825 2.04723ZM11.6094 0.913813L10.6531 1.9693L13.8266 1.89138L11.6094 0.913813ZM13.2812 0.0920897L11.7653 0.793388L15.2222 2.31641L13.2812 0.0920897ZM15.0096 0H13.3804L15.9022 0.977568L15.0096 0ZM15.9518 1.29634L15.5622 2.45809L16.3414 2.83353L15.9518 1.29634Z" fill="#F0513A"/>
</svg>
