<svg width="24" height="24" viewBox="0 0 24 24" fill="none" xmlns="http://www.w3.org/2000/svg">
<path fill-rule="evenodd" clip-rule="evenodd" d="M8.50815 10.8818C8.35716 8.4663 5.2117 8.96433 5.2117 8.96433L4.65682 10.1502H6.29964C6.29964 10.1502 7.21344 10.3428 7.14821 11.0749C7.06387 12.0215 6.01677 11.9344 6.01677 11.9344H3.94967L3.44922 13.142H5.82088L6.56071 15.0786H8.19266L7.2135 12.9244C7.2135 12.9244 8.61423 12.579 8.50815 10.8818Z" fill="black"/>
<path fill-rule="evenodd" clip-rule="evenodd" d="M19.5946 15.0784H17.9626L17.2229 13.1418H14.8512L15.3516 11.9342H17.4187C17.4187 11.9342 18.4659 12.0212 18.5502 11.0747C18.6154 10.3426 17.7016 10.15 17.7016 10.15H16.0588L16.6136 8.96411C16.6136 8.96411 19.7592 8.46608 19.9101 10.8816C20.0162 12.5788 18.6154 12.9242 18.6154 12.9242L19.5946 15.0784ZM11.4561 15.0571L8.94287 8.94287H10.379L12.1415 13.2403L13.9257 8.94287H15.3726L12.8704 15.0571H11.4561ZM8.19223 15.0784H6.56028L5.82045 13.1418H3.44879L3.94924 11.9342H6.01634C6.01634 11.9342 7.06344 12.0212 7.14777 11.0747C7.21301 10.3426 6.29921 10.15 6.29921 10.15H4.65639L5.21127 8.96411C5.21127 8.96411 8.35673 8.46608 8.50772 10.8816C8.6138 12.5788 7.21307 12.9242 7.21307 12.9242L8.19223 15.0784ZM12 0C5.37256 0 0 5.37256 0 12C0 18.6274 5.37256 24 12 24C18.6274 24 24 18.6274 24 12C24 5.37256 18.6274 0 12 0Z" fill="#EFC40F"/>
<path fill-rule="evenodd" clip-rule="evenodd" d="M13.9262 8.94287L12.142 13.2403L10.3795 8.94287H8.94336L11.4565 15.0571H12.8709L15.3731 8.94287H13.9262Z" fill="black"/>
<path fill-rule="evenodd" clip-rule="evenodd" d="M19.9105 10.8818C19.7596 8.4663 16.614 8.96433 16.614 8.96433L16.0592 10.1502H17.702C17.702 10.1502 18.6158 10.3428 18.5506 11.0749C18.4663 12.0215 17.4191 11.9344 17.4191 11.9344H15.352L14.8516 13.142H17.2233L17.9631 15.0786H19.595L18.6158 12.9244C18.6158 12.9244 20.0166 12.579 19.9105 10.8818Z" fill="black"/>
</svg>
