<svg width="24" height="24" viewBox="0 0 24 24" fill="none" xmlns="http://www.w3.org/2000/svg">
<g clip-path="url(#clip0)">
<path d="M11.5745 7.0677C18.0916 7.0677 23.3766 12.1399 23.3766 18.3997C23.3762 19.6827 23.1501 20.9558 22.7085 22.1605C23.5395 20.5724 23.9725 18.8064 23.9704 17.0141C23.9704 10.7543 18.7844 5.68213 12.391 5.68213C8.15017 5.68213 4.44377 7.91388 2.4248 11.2392C4.59223 8.69574 7.88295 7.0677 11.5745 7.0677Z" fill="black"/>
<path d="M7.56619 2.71289C4.53175 2.71115 1.69535 4.21933 0 6.73599C1.4469 5.91571 3.08232 5.48596 4.74557 5.48898C10.1146 5.48898 14.4693 9.88815 14.4693 15.3117C14.4704 16.3325 14.3135 17.3474 14.0041 18.3203C15.7297 16.6088 16.699 14.2782 16.6961 11.8477C16.6961 6.80032 12.6087 2.71289 7.56619 2.71289Z" fill="url(#paint0_linear)"/>
<path d="M19.2689 4.4745C16.7508 2.02656 13.1801 0.991497 9.74316 1.71326C11.6054 2.19935 13.3102 3.15912 14.6916 4.49924C19.1502 8.82914 19.2195 15.9896 14.85 20.4926C14.0277 21.3405 13.0797 22.0566 12.0392 22.6155C14.8519 22.5847 17.5353 21.4301 19.4916 19.4089C23.5543 15.2275 23.4553 8.53718 19.2689 4.4745Z" fill="url(#paint1_linear)"/>
</g>
<defs>
<linearGradient id="paint0_linear" x1="5.96338" y1="5.71851" x2="17.0947" y2="16.7264" gradientUnits="userSpaceOnUse">
<stop stop-color="#137EAF"/>
<stop offset="1" stop-color="#003C5A"/>
</linearGradient>
<linearGradient id="paint1_linear" x1="14.4958" y1="15.0167" x2="20.5904" y2="8.3135" gradientUnits="userSpaceOnUse">
<stop stop-color="#137EAF"/>
<stop offset="1" stop-color="#003C5A"/>
</linearGradient>
<clipPath id="clip0">
<rect width="24" height="24" fill="white"/>
</clipPath>
</defs>
</svg>
