<svg width="24" height="24" viewBox="0 0 24 24" fill="none" xmlns="http://www.w3.org/2000/svg">
<path d="M11.5353 0C11.4609 0.613954 11.4237 1.13488 11.3493 1.63721C11.1074 3.36744 11.2749 5.02326 12.0563 6.62326C13.1167 8.76279 14.1214 10.9209 15.126 13.0791C15.74 14.4 16.2981 15.7581 16.5958 17.1907C16.726 17.8791 16.6702 18.5116 16.3353 19.1256C15.3307 20.8744 14.0283 22.3442 12.4656 23.6093C12.3167 23.7209 12.1121 23.7581 11.9446 23.8326C11.9446 23.6465 11.926 23.4419 11.9632 23.2744C12.1679 22.4558 12.4283 21.6372 12.6144 20.8C12.8563 19.7395 12.7446 18.6791 12.2981 17.6744C11.4795 15.8698 10.6237 14.0651 9.78648 12.2605C8.98648 10.5488 8.16788 8.85581 7.66555 7.03256C7.40509 6.08372 7.21904 5.11628 7.66555 4.18605C8.46555 2.53023 9.69346 1.24651 11.1818 0.186047C11.2376 0.111628 11.3307 0.0930233 11.5353 0Z" fill="#5C9DD5"/>
<path d="M4.00024 2.56738C4.00024 2.75343 4.01884 2.88366 4.00024 2.99529C3.8514 4.05575 3.72117 5.11622 3.92582 6.17669C4.01884 6.6232 4.16768 7.06971 4.35372 7.49762C5.19093 9.30227 6.06535 11.0697 6.86535 12.8744C7.31186 13.8976 7.64675 14.9767 8.00024 16.0558C8.16768 16.5581 8.07466 17.079 7.81419 17.5627C7.03279 18.9395 5.99093 20.093 4.76303 21.0976C4.6514 21.1906 4.50256 21.2465 4.37233 21.3209C4.33512 21.3023 4.31652 21.2837 4.27931 21.2651C4.29791 21.0976 4.31652 20.9302 4.35372 20.7813C4.52117 20.1302 4.70721 19.479 4.85605 18.8278C5.02349 18.0092 4.94907 17.2092 4.61419 16.4465C3.8514 14.7906 3.08861 13.1534 2.32582 11.5162C1.73047 10.2325 1.15373 8.96738 0.837446 7.60924C0.6514 6.80924 0.781632 6.08366 1.19093 5.39529C1.82349 4.35343 2.6421 3.49762 3.60954 2.77203C3.70256 2.71622 3.83279 2.66041 4.00024 2.56738ZM19.2374 2.6418C19.2002 2.95808 19.163 3.29296 19.1258 3.60924C18.9956 4.53948 18.9212 5.50692 19.1816 6.41855C19.3863 7.12552 19.7026 7.81389 20.0002 8.48366C20.8747 10.4185 21.8049 12.3348 22.6421 14.2697C22.9212 14.9209 23.0886 15.6278 23.2188 16.3348C23.2747 16.6697 23.2188 17.079 23.0514 17.3953C22.3072 18.8837 21.1909 20.0744 19.8886 21.1162C19.7956 21.1906 19.6654 21.2278 19.4607 21.3395C19.4979 21.0976 19.4979 20.9488 19.5351 20.7999C19.7212 20.0185 19.9258 19.2558 20.0933 18.4744C20.2421 17.7488 20.0933 17.0418 19.777 16.372C19.0142 14.7162 18.2328 13.0604 17.47 11.4046C16.8933 10.1581 16.3165 8.89296 16.0188 7.53482C15.8514 6.73482 15.9816 6.02785 16.4095 5.33948C17.0235 4.31622 17.8421 3.47901 18.7909 2.77203C18.9026 2.69762 19.0142 2.6418 19.1258 2.58599C19.1816 2.6232 19.2002 2.6418 19.2374 2.6418Z" fill="#195199"/>
</svg>
