<svg width="24" height="24" viewBox="0 0 24 24" fill="none" xmlns="http://www.w3.org/2000/svg">
<path d="M15.6018 11.9993V15.599H11.9991C11.2871 15.599 10.5912 15.3879 9.9992 14.9924C9.40722 14.5968 8.94583 14.0346 8.67338 13.3768C8.40092 12.7191 8.32964 11.9953 8.46853 11.297C8.60743 10.5987 8.95027 9.95731 9.4537 9.45388C9.95714 8.95045 10.5985 8.60761 11.2968 8.46871C11.9951 8.32981 12.7189 8.4011 13.3767 8.67355C14.0344 8.94601 14.5966 9.4074 14.9922 9.99937C15.3877 10.5913 15.5988 11.2873 15.5988 11.9993H15.6018ZM12.0466 5.99972C11.2588 5.97631 10.474 6.10832 9.73713 6.38821C9.00027 6.6681 8.32576 7.09037 7.7521 7.63094C7.17844 8.1715 6.71687 8.81976 6.39374 9.53871C6.07062 10.2577 5.89226 11.0332 5.86886 11.8211C5.84545 12.6089 5.97747 13.3937 6.25735 14.1306C6.53724 14.8674 6.95952 15.5419 7.50008 16.1156C8.04064 16.6893 8.6889 17.1508 9.40785 17.474C10.1268 17.7971 10.9023 17.9754 11.6902 17.9988H17.9987V12.0706C17.9987 8.76189 15.3553 6.02348 12.0466 5.99972Z" fill="#20EE82"/>
<path d="M20.4848 3.51472C18.5293 1.55914 15.9584 0.339058 13.2068 0.0608772C10.4553 -0.217304 7.69222 0.463494 5.3849 1.9881C5.51991 2.13738 5.63566 2.30302 5.72943 2.48113C7.9221 1.0419 10.5434 0.401505 13.1527 0.667626C15.762 0.933747 18.2001 2.09015 20.0571 3.94241C24.5003 8.3797 24.5003 15.6089 20.0571 20.0521C15.6138 24.4953 8.38468 24.4953 3.94144 20.0521C2.0901 18.1944 0.934802 15.7559 0.669765 13.1467C0.404728 10.5374 1.04612 7.91647 2.4861 5.72445C2.30786 5.63091 2.1422 5.51514 1.99307 5.37993C-1.66309 10.9043 -0.145384 18.3514 5.37896 22.0076C10.9033 25.6638 18.3505 24.1461 22.0066 18.6217C23.5337 16.3143 24.2164 13.55 23.939 10.7969C23.6617 8.04383 22.4414 5.47123 20.4848 3.51472Z" fill="#7F8C8D"/>
<path d="M2.75912 2.75432C2.92653 2.58612 3.14006 2.47134 3.3727 2.42449C3.60533 2.37765 3.84664 2.40083 4.0661 2.49112C4.28556 2.58141 4.47333 2.73474 4.60565 2.93174C4.73797 3.12874 4.8089 3.36054 4.80948 3.59785C4.81006 3.83516 4.74027 4.06731 4.60891 4.26496C4.47756 4.4626 4.29055 4.61685 4.07153 4.70821C3.85252 4.79958 3.61133 4.82395 3.37846 4.77824C3.1456 4.73253 2.93151 4.6188 2.76328 4.45142L2.75912 4.44727C2.53531 4.2224 2.40967 3.91805 2.40967 3.60079C2.40967 3.28353 2.53531 2.97918 2.75912 2.75432Z" fill="#20EE82"/>
</svg>
