<svg width="24" height="24" viewBox="0 0 24 24" fill="none" xmlns="http://www.w3.org/2000/svg">
<path d="M16.9177 0.296768C15.9646 0.687708 15.2437 1.40851 14.8283 2.26376C14.303 3.1313 13.3867 4.98842 11.6884 6.01475C10.4055 6.78446 6.87455 6.3934 6.34915 6.61339C5.24958 7.06541 4.71202 8.32389 5.16404 9.42346C5.40849 10.0221 6.75239 10.633 7.3144 10.8286C7.3144 10.8286 14.132 12.7834 14.132 14.8971C14.132 15.9478 13.3256 16.2167 11.7862 16.5953C9.55017 17.1329 5.92159 16.0822 5.92159 16.0822V16.0944C5.12742 15.9112 4.27204 15.9478 3.46583 16.2778C1.41318 17.1207 0.435767 19.4543 1.26656 21.4947C2.10952 23.5472 4.44324 24.5246 6.48361 23.694C7.44873 23.303 8.16953 22.5821 8.58492 21.7268C9.09815 20.8594 9.99015 19.0023 11.6884 17.9881C12.9713 17.2063 16.5266 17.5973 17.052 17.3772C18.1639 16.9252 18.6892 15.6668 18.2371 14.5673C17.9928 13.9563 16.6366 13.3454 16.0623 13.1499C16.0623 13.1499 9.26923 11.4395 9.26923 9.0936C9.26923 8.04282 10.0757 7.77404 11.6273 7.39527C13.8632 6.85771 17.4919 7.90849 17.4919 7.90849L17.4797 7.89633C18.2738 8.09173 19.129 8.04282 19.9476 7.71296C21.9881 6.87 22.9655 4.53628 22.1346 2.49591C21.4952 0.939178 19.9986 0.000898361 18.4225 0.000898361C17.9206 0.000898361 17.4106 0.0960941 16.9177 0.296768Z" fill="url(#paint0_linear)"/>
<defs>
<linearGradient id="paint0_linear" x1="0.970673" y1="11.9953" x2="22.4307" y2="11.9953" gradientUnits="userSpaceOnUse">
<stop stop-color="#6C3D94"/>
<stop offset="1" stop-color="#A13469"/>
</linearGradient>
</defs>
</svg>
