<svg width="24" height="24" viewBox="0 0 24 24" fill="none" xmlns="http://www.w3.org/2000/svg">
<path fill-rule="evenodd" clip-rule="evenodd" d="M7.44694 13.9483C7.36193 14.0071 7.30426 14.0535 7.24073 14.0899C6.37865 14.5849 5.51345 15.0748 4.65459 15.5756C4.47799 15.6786 4.33088 15.6957 4.14903 15.5887C3.79918 15.383 3.42187 15.3396 3.02223 15.4305C2.21244 15.6146 1.65805 16.519 1.86867 17.329C2.09853 18.2122 2.98999 18.7333 3.82641 18.4725C4.54497 18.2484 4.9107 17.7442 4.9593 17.0077C4.97411 16.7839 5.05984 16.6495 5.2553 16.5388C6.21411 15.9961 7.16706 15.4431 8.11811 14.8866C8.29936 14.7807 8.45673 14.7654 8.65303 14.8571C9.09841 15.0655 9.58414 15.1585 10.0586 15.0509C10.4865 14.9539 10.8442 15.0171 11.2221 15.2127C11.4262 15.3181 11.4933 15.4311 11.4921 15.6498C11.4841 17.126 11.4801 18.6024 11.4933 20.0785C11.4957 20.3563 11.4197 20.523 11.1782 20.679C10.461 21.142 10.2843 22.115 10.7572 22.8276C11.2362 23.55 12.2073 23.7521 12.926 23.2793C13.9026 22.6367 13.8767 21.2316 12.874 20.6194C12.7416 20.5384 12.6358 20.4678 12.6367 20.2815C12.6435 18.7638 12.6426 17.2461 12.6379 15.7285C12.6373 15.5625 12.7027 15.4884 12.8582 15.4604C13.1187 15.4136 13.381 15.3708 13.6358 15.3015C13.8684 15.2382 14.0812 15.2323 14.3125 15.3234C14.9102 15.5585 15.5002 15.5145 16.0573 15.1935C16.2388 15.089 16.3792 15.0984 16.5577 15.204C17.3136 15.6513 18.0749 16.0895 18.8417 16.5175C19.069 16.6444 19.1711 16.7968 19.1751 17.0673C19.1849 17.773 19.7914 18.4239 20.4849 18.5132C21.2016 18.6054 21.8558 18.2533 22.1592 17.6121C22.4446 17.0086 22.3017 16.2856 21.8032 15.8102C21.312 15.3415 20.5918 15.2505 19.9636 15.598C19.787 15.6958 19.6514 15.6889 19.4825 15.5892C18.762 15.164 18.0388 14.7426 17.308 14.3354C17.1089 14.2245 17.0391 14.1176 17.1015 13.883C17.2852 13.1932 17.1546 12.5603 16.7228 11.981C16.4264 11.5837 16.1646 11.1607 15.8835 10.7519C15.7628 10.5763 15.7938 10.4584 15.9817 10.351C17.1609 9.67621 18.3373 8.99657 19.5121 8.31418C19.6632 8.22654 19.7881 8.21687 19.9451 8.31263C20.3413 8.55442 20.7675 8.59131 21.2121 8.45472C21.9187 8.23764 22.4007 7.478 22.2875 6.75072C22.1657 5.96755 21.4806 5.36278 20.7291 5.37484C19.8627 5.38869 19.1924 6.05018 19.1693 6.92588C19.1646 7.10857 19.1155 7.2343 18.9474 7.3303C17.7392 8.02188 16.5343 8.71943 15.3317 9.42045C15.1874 9.50463 15.0886 9.49866 14.9628 9.38105C14.3881 8.84373 13.7045 8.53102 12.9216 8.44827C12.7031 8.42522 12.6375 8.32839 12.6387 8.11024C12.6469 6.67561 12.6461 5.24075 12.6364 3.80624C12.6348 3.5543 12.7177 3.38964 12.9305 3.25293C13.5316 2.86678 13.7784 2.16839 13.5717 1.49675C13.3693 0.838837 12.7697 0.394061 12.0816 0.391419C11.3647 0.388568 10.7724 0.816269 10.5632 1.48767C10.3423 2.19669 10.6022 2.88827 11.2471 3.29424C11.3765 3.37579 11.4912 3.44481 11.4906 3.63131C11.4856 5.20696 11.4915 6.78272 11.481 8.35848C11.4804 8.45735 11.3932 8.59108 11.3064 8.64767C10.9266 8.89603 10.533 9.12361 10.1425 9.35537C9.75787 9.58367 9.31894 9.68505 8.93208 9.47478C7.67285 8.79072 6.43906 8.05949 5.1962 7.34511C5.04217 7.25663 4.97029 7.13328 4.96563 6.94069C4.93829 5.82045 3.90891 5.23418 3.12193 5.41687C2.46784 5.56863 2.02808 5.93591 1.86951 6.58224C1.71142 7.2269 1.90653 7.79072 2.43357 8.19705C2.95966 8.60254 3.54748 8.64743 4.13697 8.334C4.33112 8.23096 4.47727 8.23239 4.6627 8.34272C5.28181 8.71143 5.91035 9.06415 6.53423 9.42475C6.96933 9.67621 7.40265 9.93042 7.8719 10.204C6.77602 11.3559 6.66318 12.6084 7.44694 13.9483ZM22.6569 6.95048C22.6567 7.64158 22.3751 8.18725 21.7945 8.56266C21.6124 8.68039 21.546 8.81364 21.547 9.03C21.5549 10.9789 21.5554 12.9278 21.5475 14.8767C21.5465 15.1013 21.6133 15.2355 21.8054 15.3607C22.6622 15.9192 22.9273 17.0689 22.4146 17.926C21.875 18.8281 20.7632 19.1596 19.8474 18.6753C19.6607 18.5765 19.5168 18.5822 19.3416 18.6836C17.6284 19.6767 15.9132 20.6665 14.1954 21.6516C14.0196 21.7524 14.0055 21.9004 13.9943 22.0707C13.9361 22.9581 13.3103 23.6855 12.4607 23.8609C11.3365 24.0928 10.2558 23.3111 10.1542 22.1704C10.1269 21.8669 10.0124 21.6891 9.74378 21.5369C8.09327 20.6017 6.45208 19.6498 4.81267 18.6951C4.62008 18.583 4.47106 18.573 4.26653 18.6775C3.33542 19.1536 2.23763 18.8249 1.72109 17.935C1.20348 17.0429 1.45948 15.9303 2.33041 15.3529C2.52718 15.2224 2.60038 15.0754 2.59942 14.8422C2.59166 12.9182 2.59142 10.9943 2.59894 9.07024C2.5999 8.83645 2.52814 8.68863 2.32862 8.56087C1.64193 8.12099 1.34473 7.38117 1.50008 6.55621C1.64157 5.80552 2.22545 5.23609 2.99465 5.06988C3.46282 4.96863 3.90091 5.02666 4.31333 5.2589C4.46856 5.34618 4.59405 5.3469 4.74999 5.25663C6.44181 4.27681 8.13494 3.29902 9.83429 2.33221C10.0635 2.20182 10.1304 2.02439 10.1433 1.78857C10.2004 0.74212 11.1778 -0.0818797 12.2997 0.0314337C13.153 0.117762 13.9226 0.883493 13.9846 1.75979C14.0067 2.07442 14.1489 2.24564 14.411 2.3949C16.0523 3.32922 17.6875 4.27418 19.3199 5.22415C19.5155 5.33806 19.6699 5.33746 19.8723 5.23681C21.1716 4.59072 22.6489 5.50463 22.6569 6.95048Z" fill="#2583FF"/>
<path fill-rule="evenodd" clip-rule="evenodd" d="M7.918 12.2468C7.92328 11.157 8.79432 10.2419 9.89056 10.2191C10.2312 10.212 10.483 10.11 10.7313 9.886C11.9846 8.75298 13.7208 9.18522 14.5819 10.1664C14.8957 10.524 15.0785 10.9501 15.1703 11.4091C15.2174 11.6434 15.3371 11.7907 15.5271 11.9151C16.0005 12.2249 16.2637 12.6767 16.2132 13.2349C16.1547 13.879 15.8336 14.3814 15.1807 14.5915C14.7989 14.7144 14.4095 14.7138 14.0486 14.5138C13.8712 14.4157 13.7107 14.4144 13.5285 14.4866C12.6908 14.8188 11.8761 14.7736 11.1 14.3041C10.9124 14.1906 10.7365 14.1828 10.5332 14.2411C9.20447 14.6213 7.91122 13.6326 7.918 12.2468Z" fill="#2583FF"/>
<path fill-rule="evenodd" clip-rule="evenodd" d="M20.7408 16.5153C20.9966 16.5216 21.2086 16.7344 21.1992 16.975C21.1899 17.2101 20.9572 17.421 20.7135 17.4149C20.4649 17.4086 20.2773 17.2136 20.2793 16.9634C20.2813 16.6977 20.476 16.5088 20.7408 16.5153Z" fill="#2583FF"/>
<path fill-rule="evenodd" clip-rule="evenodd" d="M11.6077 1.92457C11.6279 1.67191 11.8458 1.4903 12.1037 1.51144C12.3639 1.53257 12.5409 1.74547 12.5142 2.00493C12.4892 2.24541 12.2698 2.4343 12.0374 2.4152C11.792 2.39514 11.5887 2.1629 11.6077 1.92457Z" fill="#2583FF"/>
<path fill-rule="evenodd" clip-rule="evenodd" d="M20.7245 7.4025C20.473 7.40179 20.287 7.21755 20.2833 6.96549C20.2793 6.69826 20.4644 6.51235 20.7334 6.51319C20.9857 6.51403 21.2012 6.72191 21.1998 6.96298C21.1985 7.20811 20.9874 7.40322 20.7245 7.4025Z" fill="#2583FF"/>
<path fill-rule="evenodd" clip-rule="evenodd" d="M3.84313 6.96176C3.83943 7.22146 3.66223 7.40176 3.4091 7.40331C3.13149 7.4051 2.92838 7.20629 2.93782 6.94205C2.94689 6.68988 3.15167 6.50671 3.41698 6.51387C3.67011 6.52068 3.84683 6.70635 3.84313 6.96176Z" fill="#2583FF"/>
<path fill-rule="evenodd" clip-rule="evenodd" d="M12.0543 21.5157C12.3066 21.5123 12.5223 21.7177 12.5199 21.9592C12.5174 22.2179 12.3244 22.4038 12.0599 22.4026C11.7958 22.4013 11.6084 22.2137 11.6094 21.9516C11.6103 21.712 11.8074 21.5189 12.0543 21.5157Z" fill="#2583FF"/>
<path fill-rule="evenodd" clip-rule="evenodd" d="M3.40284 16.5171C3.65156 16.5164 3.83818 16.7016 3.84248 16.953C3.8469 17.2155 3.65215 17.4177 3.39735 17.4154C3.14254 17.4132 2.93753 17.2096 2.93848 16.9602C2.93956 16.7054 3.13621 16.5178 3.40284 16.5171Z" fill="#2583FF"/>
</svg>
