<svg width="24" height="24" viewBox="0 0 24 24" fill="none" xmlns="http://www.w3.org/2000/svg">
<path d="M12 24C18.6274 24 24 18.6274 24 12C24 5.37258 18.6274 0 12 0C5.37258 0 0 5.37258 0 12C0 18.6274 5.37258 24 12 24Z" fill="#2DC4E7"/>
<path d="M3.86625 6.77676C4.6695 6.77676 5.49975 6.72276 6.30375 6.79476C6.66075 7.19601 6.741 7.75851 7.01775 8.22276C10.6252 8.24076 14.25 8.22276 17.8575 8.22276C18.1252 8.24076 18.4552 8.24976 18.5895 8.51751C18.75 8.81226 18.6345 9.16026 18.4822 9.42801C17.7502 10.6693 17.0535 11.9285 16.3395 13.178C16.0717 13.625 15.8925 14.1245 15.4912 14.4733C15.1612 14.75 14.7052 14.7673 14.286 14.7673H9.285C9.01725 14.7673 8.7315 14.741 8.571 14.5265C8.0535 13.946 7.776 13.205 7.437 12.5263C6.84993 11.3509 6.27539 10.1694 5.7135 8.98176C5.59725 8.71401 5.45475 8.47326 5.3205 8.22276C4.848 8.22276 4.374 8.22276 3.9105 8.20476C3.8205 7.73226 3.8205 7.25001 3.8655 6.77676H3.86625ZM9.50025 15.7318C9.86356 15.6454 10.2413 15.6393 10.6072 15.7138C11.0175 15.8038 11.3752 16.1158 11.4735 16.5268C11.58 16.9993 11.58 17.5093 11.3925 17.9638C11.214 18.3748 10.7677 18.5713 10.3485 18.6073C9.86625 18.6425 9.31275 18.6073 8.955 18.2495C8.57175 17.8213 8.57175 17.1965 8.652 16.6603C8.70525 16.214 9.06225 15.83 9.4995 15.7318H9.50025ZM13.9642 15.7318C14.4105 15.6343 14.8927 15.6425 15.3217 15.803C15.732 15.9733 15.9465 16.4195 15.9817 16.8388C16.0357 17.33 15.9817 17.8925 15.6247 18.2675C15.2947 18.5803 14.8125 18.6245 14.3752 18.6155C13.9462 18.5983 13.4827 18.437 13.2592 18.0358C13.0463 17.6006 12.9893 17.1054 13.098 16.6333C13.188 16.196 13.527 15.8308 13.9642 15.7318Z" fill="white"/>
</svg>
