<svg width="24" height="24" viewBox="0 0 24 24" fill="none" xmlns="http://www.w3.org/2000/svg">
<path d="M0.487717 15.7498C0.656467 15.4873 0.806467 15.2623 0.975217 14.9998L1.25647 15.1686C4.78147 17.4373 8.32522 19.7061 11.8502 21.9936C12.0565 22.1248 12.1877 22.1436 12.394 21.9936C15.7502 19.8186 19.1252 17.6623 22.5002 15.5061C22.894 15.2623 23.1002 14.9436 23.0815 14.4748C23.0627 14.0061 23.0815 13.5373 23.0815 12.9936C22.9502 13.0686 22.8377 13.1248 22.744 13.1811C19.369 15.3373 15.994 17.4748 12.619 19.6311C12.2065 19.8936 11.8502 19.9123 11.4377 19.6498C8.00647 17.4561 4.57522 15.2623 1.12522 13.1061C0.375217 12.6373 0.000216603 12.0186 0.0377166 11.1186C0.0752166 10.4623 0.0377166 9.80607 0.0377166 9.14982C0.0377166 8.84982 0.150217 8.62482 0.412717 8.45607C4.12522 5.99982 7.87522 3.56232 11.6065 1.12482C11.7565 1.03107 11.9065 0.899819 12.0752 0.881069C12.2815 0.862319 12.5252 0.899819 12.6752 1.01232C16.3127 3.31857 19.9502 5.62482 23.5877 7.94982C24.1502 8.30607 24.1127 8.90607 23.5315 9.26232L15.1502 14.5498C14.3252 15.0748 13.5002 15.5623 12.694 16.1061C12.3002 16.3686 11.9627 16.3686 11.5502 16.1061C8.13772 13.9498 4.68772 11.7936 1.25647 9.63732C1.16272 9.58107 1.06897 9.52482 0.937717 9.44982C0.937717 10.1623 0.918967 10.8373 0.937717 11.5123C0.956467 11.8498 1.20022 12.0748 1.48147 12.2436L9.63772 17.4186C10.3502 17.8686 11.044 18.2998 11.7377 18.7686C11.9065 18.8811 12.0377 18.8811 12.2252 18.7686C15.6752 16.5561 19.144 14.3436 22.6127 12.1498C22.7065 12.0936 22.8002 12.0186 22.894 11.9811C23.4002 11.7373 23.944 12.0373 23.9627 12.5998C23.9815 13.3311 23.9815 14.0623 23.9627 14.7936C23.944 15.4311 23.6065 15.8811 23.0627 16.2186C20.7752 17.6811 18.4877 19.1436 16.2002 20.6248C15.0002 21.3936 13.7815 22.1623 12.5815 22.9498C12.244 23.1748 11.944 23.1748 11.6065 22.9498C7.96897 20.5873 4.29397 18.2248 0.637717 15.8623C0.581467 15.8436 0.543967 15.8061 0.487717 15.7498ZM1.61272 8.73732C1.68772 8.81232 1.76272 8.84982 1.81897 8.90607C5.19397 11.0248 8.56897 13.1436 11.9252 15.2623C12.094 15.3748 12.2065 15.3373 12.3565 15.2436C15.769 13.0873 19.1815 10.9311 22.594 8.79357C22.669 8.73732 22.7627 8.68107 22.8565 8.60607C22.7815 8.54982 22.744 8.51232 22.6877 8.47482C19.2752 6.29982 15.8627 4.12482 12.4315 1.94982C12.244 1.81857 12.1127 1.89357 11.9627 1.98732C9.63772 3.50607 7.29397 5.04357 4.96897 6.56232C3.84397 7.27482 2.73772 8.00607 1.61272 8.73732Z" fill="#2A8AC7"/>
</svg>
