<svg width="24" height="24" viewBox="0 0 24 24" fill="none" xmlns="http://www.w3.org/2000/svg">
<path fill-rule="evenodd" clip-rule="evenodd" d="M12 0C18.6264 0 24 5.3736 24 12C24 18.6264 18.6264 24 12 24C5.3736 24 0 18.6264 0 12C0 5.3736 5.3736 0 12 0Z" fill="#211F6D"/>
<path fill-rule="evenodd" clip-rule="evenodd" d="M7.89582 6.21582H15.8878C16.9486 6.21582 17.8078 7.07502 17.8078 8.13582V16.1278C17.8078 17.0566 17.0566 17.8078 16.1278 17.8078H7.89582C6.96702 17.8078 6.21582 17.0566 6.21582 16.1278V7.89582C6.21582 6.96702 6.96702 6.21582 7.89582 6.21582Z" fill="white"/>
<path d="M9.27154 11.0591C8.53954 11.0591 7.94434 10.4639 7.94434 9.7295C7.94434 8.9951 8.53954 8.3999 9.27154 8.3999C10.0035 8.3999 10.5987 8.9951 10.5987 9.7295C10.5987 10.4639 10.0035 11.0591 9.27154 11.0591Z" fill="#211F6D"/>
<path d="M14.7295 11.0591C13.9975 11.0591 13.4023 10.4639 13.4023 9.7295C13.4023 8.9951 13.9975 8.3999 14.7295 8.3999C15.4615 8.3999 16.0567 8.9951 16.0567 9.7295C16.0567 10.4639 15.4615 11.0591 14.7295 11.0591Z" fill="#211F6D"/>
<path d="M9.27154 15.6001C8.53954 15.6001 7.94434 15.0049 7.94434 14.2705C7.94434 13.5361 8.53954 12.9409 9.27154 12.9409C10.0035 12.9409 10.5987 13.5361 10.5987 14.2705C10.5987 15.0049 10.0035 15.6001 9.27154 15.6001Z" fill="#211F6D"/>
<path d="M14.7295 15.6001C13.9975 15.6001 13.4023 15.0049 13.4023 14.2705C13.4023 13.5361 13.9975 12.9409 14.7295 12.9409C15.4615 12.9409 16.0567 13.5361 16.0567 14.2705C16.0567 15.0049 15.4615 15.6001 14.7295 15.6001Z" fill="#211F6D"/>
</svg>
