<svg width="24" height="24" viewBox="0 0 24 24" fill="none" xmlns="http://www.w3.org/2000/svg">
<path d="M11.9998 23.9996C18.6271 23.9996 23.9996 18.6271 23.9996 11.9998C23.9996 5.37249 18.6271 0 11.9998 0C5.37249 0 0 5.37249 0 11.9998C0 18.6271 5.37249 23.9996 11.9998 23.9996Z" fill="url(#paint0_linear)"/>
<path fill-rule="evenodd" clip-rule="evenodd" d="M11.5655 4.32877C10.8688 4.40907 10.221 4.72697 9.73116 5.22896C9.3634 5.59308 9.01505 5.96691 8.64244 6.33467C8.45593 6.52604 8.26739 6.71214 8.07886 6.90108C7.89033 7.09002 7.68237 7.29069 7.48656 7.48894C7.29074 7.68718 7.1281 7.86115 6.94685 8.04523C6.66364 8.32844 6.38044 8.61164 6.09724 8.89768C5.87998 9.12222 5.66757 9.35405 5.45274 9.57818C5.32611 9.7121 5.18977 9.8363 5.07042 9.9771C4.57787 10.578 4.30867 11.331 4.30859 12.108C4.30859 12.1537 4.30859 12.2007 4.31143 12.246C4.3215 12.6921 4.43861 13.1293 4.65289 13.5208C4.77488 13.7574 4.91615 13.9835 5.07527 14.1969C5.18046 14.3449 5.25693 14.3425 5.39529 14.228C5.42173 14.206 5.44647 14.1821 5.46933 14.1564C5.60567 14.0128 5.73918 13.8696 5.87795 13.7263C6.07377 13.5208 6.27444 13.3157 6.47026 13.1077C6.66607 12.8998 6.87848 12.6708 7.084 12.456C7.18191 12.3508 7.28629 12.2537 7.38501 12.1501C7.59498 11.928 7.80051 11.699 8.01049 11.4793C8.22046 11.2596 8.43327 11.0541 8.6388 10.8393C8.84432 10.6244 9.09718 10.3614 9.3286 10.1227C9.56002 9.88404 9.75624 9.68337 9.97107 9.46369C10.2506 9.17441 10.5229 8.87826 10.7997 8.58939C10.9716 8.41259 11.1484 8.24307 11.3203 8.0687C11.559 7.83 11.7812 7.59129 12.0154 7.35259C12.2497 7.11389 12.4236 6.95368 12.6243 6.74815C13.0728 6.29502 13.5207 5.8392 13.9679 5.38067C13.9968 5.35221 14.0238 5.32194 14.0488 5.29005C14.1589 5.15128 14.1682 5.12053 14.0322 5.02262C13.8247 4.85909 13.6024 4.71512 13.3683 4.59255C12.9546 4.39905 12.5033 4.29878 12.0466 4.29883H12.0239C11.8713 4.29886 11.7189 4.30845 11.5675 4.32755L11.5651 4.32513L11.5655 4.32877ZM15.5178 7.26844H15.4891C15.2931 7.26851 15.0995 7.31129 14.9218 7.39381C14.744 7.47633 14.5864 7.5966 14.4599 7.74625C14.4372 7.77132 14.4133 7.79522 14.3883 7.81786L13.6576 8.53437C13.4189 8.77347 13.1608 9.03362 12.9099 9.28446C12.7024 9.49201 12.4944 9.69511 12.2893 9.90306C12.0842 10.111 11.8641 10.3424 11.642 10.5597C11.4199 10.777 11.1836 11.0047 10.9542 11.2285L10.1398 12.0498L8.62585 13.5641C7.95695 14.2357 7.28899 14.906 6.62197 15.5749C6.49332 15.7015 6.49089 15.7181 6.62197 15.854C6.94199 16.1777 7.26687 16.4989 7.57718 16.825C7.76917 17.0285 8.02255 17.1635 8.29855 17.2094C8.55893 17.2617 8.82794 17.2527 9.08424 17.1831C9.27626 17.1356 9.45349 17.0412 9.60008 16.9083L10.393 16.1425C10.5792 15.9637 10.7681 15.7869 10.9518 15.6052C11.3195 15.2411 11.6824 14.8745 12.0502 14.5128C12.3488 14.2191 12.6546 13.9278 12.9577 13.6341L14.2009 12.4224C14.5877 12.0425 14.9769 11.6606 15.3686 11.2807C15.3947 11.2418 15.4309 11.2109 15.4733 11.1913C15.5158 11.1717 15.5628 11.164 15.6092 11.1692C15.6557 11.1745 15.6999 11.1923 15.7369 11.2209C15.7739 11.2494 15.8024 11.2876 15.8193 11.3312C16.0183 11.6219 16.1248 11.9661 16.1247 12.3184C16.1246 12.3787 16.1215 12.4389 16.1154 12.4988C16.0833 12.854 15.9368 13.1892 15.6979 13.4541C15.411 13.7623 15.1056 14.0536 14.8078 14.3498C14.5954 14.5598 14.3781 14.7653 14.1653 14.9777C13.8906 15.25 13.6208 15.5271 13.3461 15.7994C13.3056 15.8447 13.2676 15.8925 13.2247 15.9353L12.9548 16.2149C12.7526 16.4172 12.5466 16.6138 12.348 16.8165C12.1493 17.0192 11.9211 17.2563 11.7087 17.4776C11.6897 17.499 11.6683 17.5132 11.6493 17.5322C11.4102 17.7543 11.1905 17.9772 10.9635 18.201C10.8563 18.3062 10.7535 18.4134 10.6483 18.5186C10.4671 18.7027 10.2806 18.8827 10.1062 19.0704C9.99899 19.1825 9.99899 19.2517 10.1256 19.3403C10.3335 19.4999 10.5549 19.6412 10.7871 19.7627C11.3649 20.0239 12.0051 20.115 12.6328 20.0252C13.2558 19.9513 13.8403 19.685 14.3049 19.2634C14.6581 18.9531 14.9737 18.6043 15.303 18.2702C15.5417 18.0311 15.7808 17.7758 16.0361 17.5298L16.7263 16.8347C16.9367 16.6223 17.1442 16.4095 17.3571 16.1995C17.5699 15.9895 17.8345 15.7387 18.0732 15.502C18.3119 15.2654 18.551 15.0246 18.7897 14.7714C18.98 14.5776 19.1558 14.37 19.3156 14.1503C19.6136 13.7001 19.7996 13.1852 19.8582 12.6485C19.8905 12.382 19.8905 12.1124 19.8582 11.8458C19.7871 11.3715 19.6152 10.9179 19.3541 10.5156C19.1662 10.2309 18.9415 9.97246 18.6857 9.74689C18.0242 9.09026 17.3647 8.42877 16.7178 7.75758C16.5768 7.60056 16.4043 7.47496 16.2116 7.38895C16.0189 7.30294 15.8102 7.25843 15.5992 7.25833H15.5903L15.5187 7.26803L15.5178 7.26844Z" fill="white"/>
<defs>
<linearGradient id="paint0_linear" x1="1.63512" y1="5.03499" x2="20.8941" y2="18.2122" gradientUnits="userSpaceOnUse">
<stop stop-color="#FF3B3B"/>
<stop offset="1" stop-color="#FF9914"/>
</linearGradient>
</defs>
</svg>
