<svg width="24" height="24" viewBox="0 0 24 24" fill="none" xmlns="http://www.w3.org/2000/svg">
<g clip-path="url(#clip0)">
<path fill-rule="evenodd" clip-rule="evenodd" d="M21.7687 9.68548C20.5791 8.55993 18.8992 7.62231 16.7194 7.02698H16.7068C11.52 5.61584 9.67211 8.95366 13.872 11.0578C18.6398 13.4433 19.3023 17.3502 16.6113 19.7935C15.9257 20.415 13.6977 21.5784 11.6481 21.8577C8.39326 22.3092 4.78139 21.6172 1.8457 20.6849C3.44241 21.9251 5.26711 22.8398 7.21625 23.377C11.793 24.6369 17.3211 23.7088 20.9844 20.5242C24.6739 17.3124 25.0267 12.7598 21.7687 9.68548ZM16.7215 7.02803L16.7688 7.04168L16.7215 7.02803Z" fill="#008DD0"/>
<path fill-rule="evenodd" clip-rule="evenodd" d="M6.74942 2.15502C9.27553 1.12538 12.0275 0.776372 14.7307 1.14283C17.4339 1.50928 19.9936 2.57838 22.1544 4.24339C16.6736 2.50046 12.4213 2.65165 9.63156 3.77406L9.59061 3.79086C6.14569 5.1999 4.95188 8.08415 6.45123 10.6922C7.25865 12.0981 8.68239 13.1492 10.1261 13.8705C13.9437 15.7825 12.7699 18.7108 8.6362 18.1753C8.17742 18.1141 7.72344 18.0212 7.27755 17.8971C-0.839698 15.6806 -2.0272 8.78762 3.01471 4.40403C4.12771 3.45443 5.3895 2.69459 6.74942 2.15502Z" fill="#008DD0"/>
</g>
<defs>
<clipPath id="clip0">
<rect width="24" height="24" fill="white"/>
</clipPath>
</defs>
</svg>
