<svg width="24" height="24" viewBox="0 0 24 24" fill="none" xmlns="http://www.w3.org/2000/svg">
<g clip-path="url(#clip0)">
<path d="M2.52346 9.21338L0 11.7364H5.04653L2.52346 9.21338Z" fill="#A02870"/>
<path d="M5.04597 12.2637H0.000976562L2.52338 14.7865L5.04597 12.2637Z" fill="#80286C"/>
<path d="M8.46858 8.84094L5.94531 6.31787V11.3637L8.46858 8.84094Z" fill="#C42C79"/>
<path d="M5.41858 11.3637V6.31787L2.89551 8.84094L5.41858 11.3637Z" fill="#A02870"/>
<path d="M8.84181 8.4679L11.3647 5.94531H6.31836L8.84181 8.4679Z" fill="#C42C79"/>
<path d="M8.84162 2.89551L6.31787 5.41877H11.3642L8.84162 2.89551Z" fill="#E4327F"/>
<path d="M14.7861 2.52307L12.2632 0V5.04586L14.7861 2.52307Z" fill="#0A8B4B"/>
<path d="M11.7364 5.04605V0L9.21338 2.52307L11.7364 5.04605Z" fill="#E4327F"/>
<path d="M8.46858 15.1583L5.94531 12.6357V17.6815L8.46858 15.1583Z" fill="#632A69"/>
<path d="M2.896 15.1583L5.419 17.681V12.6357L2.896 15.1583Z" fill="#80286C"/>
<path d="M15.1591 8.4679L17.6821 5.94531H12.6362L15.1591 8.4679Z" fill="#167B55"/>
<path d="M12.6357 5.41858H17.6818L15.1588 2.89551L12.6357 5.41858Z" fill="#0A8B4B"/>
<path d="M11.3644 18.5806H6.31787L8.84094 21.104L11.3644 18.5806Z" fill="#402863"/>
<path d="M8.84162 15.5312L6.31836 18.0538H11.3637L8.84162 15.5312Z" fill="#632A69"/>
<path d="M21.104 8.84114L18.5811 6.31836V11.3637L21.104 8.84114Z" fill="#21695E"/>
<path d="M15.5312 8.84094L18.0544 11.364V6.31787L15.5312 8.84094Z" fill="#167B55"/>
<path d="M9.21387 21.4767L11.7367 23.9995V18.9536L9.21387 21.4767Z" fill="#402863"/>
<path d="M12.2632 18.9534V23.9989L14.7862 21.4763L12.2632 18.9534ZM15.1586 21.1038L17.6819 18.5806H12.6353L15.1586 21.1038Z" fill="#223160"/>
<path d="M15.1588 15.5312L12.6362 18.0538H17.6813L15.1588 15.5312Z" fill="#1E4561"/>
<path d="M18.5815 12.6357V17.6811L21.1043 15.1582L18.5815 12.6357Z" fill="#245661"/>
<path d="M15.5312 15.1585L18.0544 17.6816V12.6357L15.5312 15.1585Z" fill="#1E4561"/>
<path d="M21.4769 14.7863L24.0001 12.2632H18.9541L21.4769 14.7863Z" fill="#245661"/>
<path d="M21.4766 9.21338L18.9531 11.7364H23.9998L21.4766 9.21338Z" fill="#21695E"/>
</g>
<defs>
<clipPath id="clip0">
<rect width="24" height="23.9993" fill="white"/>
</clipPath>
</defs>
</svg>
