<svg width="24" height="24" viewBox="0 0 24 24" fill="none" xmlns="http://www.w3.org/2000/svg">
<path d="M12 24C18.6274 24 24 18.6274 24 12C24 5.37258 18.6274 0 12 0C5.37258 0 0 5.37258 0 12C0 18.6274 5.37258 24 12 24Z" fill="#1B2D45"/>
<path d="M18.7915 11.0268V8.08073L11.9998 4.15088L8.49078 6.18157L11.2685 7.80717L10.5793 8.24908L7.7753 6.59717L5.20801 8.086L5.21853 15.9404L8.73804 17.9554V14.7673L9.41143 15.1566V18.3394L12.0419 19.8598L18.7968 15.9141V11.8212L16.0611 13.4258V12.6472L18.7915 11.0268ZM8.71699 10.1062L9.09052 9.90099L11.8577 11.5003L14.8038 9.85364L15.2457 10.1062V10.5481L12.4575 12.1684V15.4828L11.9998 15.7931L11.642 15.5406V12.3683L8.71699 10.6586V10.1062ZM10.2111 13.9466L7.31761 12.3525V15.5248L6.56531 15.0987L6.54952 8.90143L7.70691 8.21226L8.41713 8.65417L7.28604 9.33808L7.2913 11.4319L10.2058 13.1417V13.9466H10.2111ZM17.429 14.2728V15.1303L11.9787 18.2657L10.8319 17.5871V16.7717L11.9998 17.4293L13.8726 16.3455V12.9733L14.5776 12.5209L14.5986 15.9141L17.429 14.2728ZM14.788 8.207L11.8788 9.89047L11.2317 9.49064L14.0725 7.81243L11.279 6.19735L11.9998 5.77648L17.4079 8.91195V10.2166L16.6504 10.6638V9.3223L14.788 8.207Z" fill="#719CD0"/>
</svg>
