<svg width="24" height="24" viewBox="0 0 24 24" fill="none" xmlns="http://www.w3.org/2000/svg">
<path d="M7.31925 18.6385C11.3616 18.6385 14.6385 15.3616 14.6385 11.3193C14.6385 7.27694 11.3616 4 7.31925 4C3.27694 4 0 7.27694 0 11.3193C0 15.3616 3.27694 18.6385 7.31925 18.6385Z" fill="url(#paint0_linear)"/>
<path d="M6.47135 13.7952C6.77427 13.7952 7.01984 13.5497 7.01984 13.2467C7.01984 12.9438 6.77427 12.6982 6.47135 12.6982C6.16842 12.6982 5.92285 12.9438 5.92285 13.2467C5.92285 13.5497 6.16842 13.7952 6.47135 13.7952Z" fill="black"/>
<path d="M8.09146 13.7952C8.39439 13.7952 8.63996 13.5497 8.63996 13.2467C8.63996 12.9438 8.39439 12.6982 8.09146 12.6982C7.78854 12.6982 7.54297 12.9438 7.54297 13.2467C7.54297 13.5497 7.78854 13.7952 8.09146 13.7952Z" fill="black"/>
<path d="M9.7106 13.7952C10.0135 13.7952 10.2591 13.5497 10.2591 13.2467C10.2591 12.9438 10.0135 12.6982 9.7106 12.6982C9.40768 12.6982 9.16211 12.9438 9.16211 13.2467C9.16211 13.5497 9.40768 13.7952 9.7106 13.7952Z" fill="black"/>
<path d="M11.3317 13.7952C11.6346 13.7952 11.8802 13.5497 11.8802 13.2467C11.8802 12.9438 11.6346 12.6982 11.3317 12.6982C11.0288 12.6982 10.7832 12.9438 10.7832 13.2467C10.7832 13.5497 11.0288 13.7952 11.3317 13.7952Z" fill="black"/>
<path d="M12.9528 13.7952C13.2557 13.7952 13.5013 13.5497 13.5013 13.2467C13.5013 12.9438 13.2557 12.6982 12.9528 12.6982C12.6499 12.6982 12.4043 12.9438 12.4043 13.2467C12.4043 13.5497 12.6499 13.7952 12.9528 13.7952Z" fill="black"/>
<path d="M14.5719 13.7952C14.8749 13.7952 15.1204 13.5497 15.1204 13.2467C15.1204 12.9438 14.8749 12.6982 14.5719 12.6982C14.269 12.6982 14.0234 12.9438 14.0234 13.2467C14.0234 13.5497 14.269 13.7952 14.5719 13.7952Z" fill="black"/>
<path d="M16.193 13.7952C16.496 13.7952 16.7415 13.5497 16.7415 13.2467C16.7415 12.9438 16.496 12.6982 16.193 12.6982C15.8901 12.6982 15.6445 12.9438 15.6445 13.2467C15.6445 13.5497 15.8901 13.7952 16.193 13.7952Z" fill="black"/>
<path d="M17.8122 13.7952C18.1151 13.7952 18.3607 13.5497 18.3607 13.2467C18.3607 12.9438 18.1151 12.6982 17.8122 12.6982C17.5092 12.6982 17.2637 12.9438 17.2637 13.2467C17.2637 13.5497 17.5092 13.7952 17.8122 13.7952Z" fill="black"/>
<path d="M19.4323 13.7952C19.7352 13.7952 19.9808 13.5497 19.9808 13.2467C19.9808 12.9438 19.7352 12.6982 19.4323 12.6982C19.1294 12.6982 18.8838 12.9438 18.8838 13.2467C18.8838 13.5497 19.1294 13.7952 19.4323 13.7952Z" fill="black"/>
<path d="M20.3347 15.2665C20.5433 15.2665 20.7123 15.0975 20.7123 14.8889C20.7123 14.6803 20.5433 14.5112 20.3347 14.5112C20.1261 14.5112 19.957 14.6803 19.957 14.8889C19.957 15.0975 20.1261 15.2665 20.3347 15.2665Z" fill="black"/>
<path d="M18.6599 15.2665C18.8685 15.2665 19.0375 15.0975 19.0375 14.8889C19.0375 14.6803 18.8685 14.5112 18.6599 14.5112C18.4513 14.5112 18.2822 14.6803 18.2822 14.8889C18.2822 15.0975 18.4513 15.2665 18.6599 15.2665Z" fill="black"/>
<path d="M16.9861 15.2665C17.1946 15.2665 17.3637 15.0975 17.3637 14.8889C17.3637 14.6803 17.1946 14.5112 16.9861 14.5112C16.7775 14.5112 16.6084 14.6803 16.6084 14.8889C16.6084 15.0975 16.7775 15.2665 16.9861 15.2665Z" fill="black"/>
<path d="M15.3132 15.2665C15.5218 15.2665 15.6909 15.0975 15.6909 14.8889C15.6909 14.6803 15.5218 14.5112 15.3132 14.5112C15.1046 14.5112 14.9355 14.6803 14.9355 14.8889C14.9355 15.0975 15.1046 15.2665 15.3132 15.2665Z" fill="black"/>
<path d="M13.6384 15.2665C13.847 15.2665 14.016 15.0975 14.016 14.8889C14.016 14.6803 13.847 14.5112 13.6384 14.5112C13.4298 14.5112 13.2607 14.6803 13.2607 14.8889C13.2607 15.0975 13.4298 15.2665 13.6384 15.2665Z" fill="black"/>
<path d="M11.9636 15.2665C12.1722 15.2665 12.3412 15.0975 12.3412 14.8889C12.3412 14.6803 12.1722 14.5112 11.9636 14.5112C11.755 14.5112 11.5859 14.6803 11.5859 14.8889C11.5859 15.0975 11.755 15.2665 11.9636 15.2665Z" fill="black"/>
<path d="M10.2898 15.2665C10.4983 15.2665 10.6674 15.0975 10.6674 14.8889C10.6674 14.6803 10.4983 14.5112 10.2898 14.5112C10.0812 14.5112 9.91211 14.6803 9.91211 14.8889C9.91211 15.0975 10.0812 15.2665 10.2898 15.2665Z" fill="black"/>
<path d="M8.61496 15.2665C8.82353 15.2665 8.99261 15.0975 8.99261 14.8889C8.99261 14.6803 8.82353 14.5112 8.61496 14.5112C8.40639 14.5112 8.2373 14.6803 8.2373 14.8889C8.2373 15.0975 8.40639 15.2665 8.61496 15.2665Z" fill="black"/>
<path d="M6.9421 15.2665C7.15068 15.2665 7.31976 15.0975 7.31976 14.8889C7.31976 14.6803 7.15068 14.5112 6.9421 14.5112C6.73353 14.5112 6.56445 14.6803 6.56445 14.8889C6.56445 15.0975 6.73353 15.2665 6.9421 15.2665Z" fill="black"/>
<path d="M21.2238 16.4096C21.4262 16.4096 21.5902 16.2455 21.5902 16.0432C21.5902 15.8408 21.4262 15.6768 21.2238 15.6768C21.0215 15.6768 20.8574 15.8408 20.8574 16.0432C20.8574 16.2455 21.0215 16.4096 21.2238 16.4096Z" fill="black"/>
<path d="M19.5256 16.4096C19.728 16.4096 19.892 16.2455 19.892 16.0432C19.892 15.8408 19.728 15.6768 19.5256 15.6768C19.3232 15.6768 19.1592 15.8408 19.1592 16.0432C19.1592 16.2455 19.3232 16.4096 19.5256 16.4096Z" fill="black"/>
<path d="M17.8273 16.4096C18.0297 16.4096 18.1938 16.2455 18.1938 16.0432C18.1938 15.8408 18.0297 15.6768 17.8273 15.6768C17.625 15.6768 17.4609 15.8408 17.4609 16.0432C17.4609 16.2455 17.625 16.4096 17.8273 16.4096Z" fill="black"/>
<path d="M16.1301 16.4096C16.3324 16.4096 16.4965 16.2455 16.4965 16.0432C16.4965 15.8408 16.3324 15.6768 16.1301 15.6768C15.9277 15.6768 15.7637 15.8408 15.7637 16.0432C15.7637 16.2455 15.9277 16.4096 16.1301 16.4096Z" fill="black"/>
<path d="M14.4318 16.4096C14.6342 16.4096 14.7983 16.2455 14.7983 16.0432C14.7983 15.8408 14.6342 15.6768 14.4318 15.6768C14.2295 15.6768 14.0654 15.8408 14.0654 16.0432C14.0654 16.2455 14.2295 16.4096 14.4318 16.4096Z" fill="black"/>
<path d="M12.7336 16.4096C12.936 16.4096 13.1 16.2455 13.1 16.0432C13.1 15.8408 12.936 15.6768 12.7336 15.6768C12.5312 15.6768 12.3672 15.8408 12.3672 16.0432C12.3672 16.2455 12.5312 16.4096 12.7336 16.4096Z" fill="black"/>
<path d="M11.0363 16.4096C11.2387 16.4096 11.4027 16.2455 11.4027 16.0432C11.4027 15.8408 11.2387 15.6768 11.0363 15.6768C10.834 15.6768 10.6699 15.8408 10.6699 16.0432C10.6699 16.2455 10.834 16.4096 11.0363 16.4096Z" fill="black"/>
<path d="M9.33809 16.4096C9.54046 16.4096 9.7045 16.2455 9.7045 16.0432C9.7045 15.8408 9.54046 15.6768 9.33809 15.6768C9.13573 15.6768 8.97168 15.8408 8.97168 16.0432C8.97168 16.2455 9.13573 16.4096 9.33809 16.4096Z" fill="black"/>
<path d="M7.63985 16.4096C7.84221 16.4096 8.00626 16.2455 8.00626 16.0432C8.00626 15.8408 7.84221 15.6768 7.63985 15.6768C7.43749 15.6768 7.27344 15.8408 7.27344 16.0432C7.27344 16.2455 7.43749 16.4096 7.63985 16.4096Z" fill="black"/>
<path d="M22.4078 17.4875C22.5624 17.4875 22.6877 17.3622 22.6877 17.2076C22.6877 17.053 22.5624 16.9277 22.4078 16.9277C22.2532 16.9277 22.1279 17.053 22.1279 17.2076C22.1279 17.3622 22.2532 17.4875 22.4078 17.4875Z" fill="black"/>
<path d="M20.6861 17.4875C20.8407 17.4875 20.966 17.3622 20.966 17.2076C20.966 17.053 20.8407 16.9277 20.6861 16.9277C20.5316 16.9277 20.4062 17.053 20.4062 17.2076C20.4062 17.3622 20.5316 17.4875 20.6861 17.4875Z" fill="black"/>
<path d="M18.9654 17.4875C19.12 17.4875 19.2453 17.3622 19.2453 17.2076C19.2453 17.053 19.12 16.9277 18.9654 16.9277C18.8108 16.9277 18.6855 17.053 18.6855 17.2076C18.6855 17.3622 18.8108 17.4875 18.9654 17.4875Z" fill="black"/>
<path d="M17.2457 17.4875C17.4003 17.4875 17.5256 17.3622 17.5256 17.2076C17.5256 17.053 17.4003 16.9277 17.2457 16.9277C17.0911 16.9277 16.9658 17.053 16.9658 17.2076C16.9658 17.3622 17.0911 17.4875 17.2457 17.4875Z" fill="black"/>
<path d="M15.525 17.4875C15.6796 17.4875 15.8049 17.3622 15.8049 17.2076C15.8049 17.053 15.6796 16.9277 15.525 16.9277C15.3704 16.9277 15.2451 17.053 15.2451 17.2076C15.2451 17.3622 15.3704 17.4875 15.525 17.4875Z" fill="black"/>
<path d="M13.8043 17.4875C13.9588 17.4875 14.0841 17.3622 14.0841 17.2076C14.0841 17.053 13.9588 16.9277 13.8043 16.9277C13.6497 16.9277 13.5244 17.053 13.5244 17.2076C13.5244 17.3622 13.6497 17.4875 13.8043 17.4875Z" fill="black"/>
<path d="M12.0836 17.4875C12.2381 17.4875 12.3634 17.3622 12.3634 17.2076C12.3634 17.053 12.2381 16.9277 12.0836 16.9277C11.929 16.9277 11.8037 17.053 11.8037 17.2076C11.8037 17.3622 11.929 17.4875 12.0836 17.4875Z" fill="black"/>
<path d="M10.3639 17.4875C10.5184 17.4875 10.6437 17.3622 10.6437 17.2076C10.6437 17.053 10.5184 16.9277 10.3639 16.9277C10.2093 16.9277 10.084 17.053 10.084 17.2076C10.084 17.3622 10.2093 17.4875 10.3639 17.4875Z" fill="black"/>
<path d="M8.64315 17.4875C8.79771 17.4875 8.92302 17.3622 8.92302 17.2076C8.92302 17.053 8.79771 16.9277 8.64315 16.9277C8.48858 16.9277 8.36328 17.053 8.36328 17.2076C8.36328 17.3622 8.48858 17.4875 8.64315 17.4875Z" fill="black"/>
<path d="M23.785 18.4596C23.9035 18.4596 23.9997 18.3635 23.9997 18.2449C23.9997 18.1264 23.9035 18.0303 23.785 18.0303C23.6664 18.0303 23.5703 18.1264 23.5703 18.2449C23.5703 18.3635 23.6664 18.4596 23.785 18.4596Z" fill="black"/>
<path d="M22.0506 18.4596C22.1692 18.4596 22.2653 18.3635 22.2653 18.2449C22.2653 18.1264 22.1692 18.0303 22.0506 18.0303C21.9321 18.0303 21.8359 18.1264 21.8359 18.2449C21.8359 18.3635 21.9321 18.4596 22.0506 18.4596Z" fill="black"/>
<path d="M20.3153 18.4596C20.4338 18.4596 20.5299 18.3635 20.5299 18.2449C20.5299 18.1264 20.4338 18.0303 20.3153 18.0303C20.1967 18.0303 20.1006 18.1264 20.1006 18.2449C20.1006 18.3635 20.1967 18.4596 20.3153 18.4596Z" fill="black"/>
<path d="M18.5819 18.4596C18.7004 18.4596 18.7965 18.3635 18.7965 18.2449C18.7965 18.1264 18.7004 18.0303 18.5819 18.0303C18.4633 18.0303 18.3672 18.1264 18.3672 18.2449C18.3672 18.3635 18.4633 18.4596 18.5819 18.4596Z" fill="black"/>
<path d="M16.8475 18.4596C16.9661 18.4596 17.0622 18.3635 17.0622 18.2449C17.0622 18.1264 16.9661 18.0303 16.8475 18.0303C16.7289 18.0303 16.6328 18.1264 16.6328 18.2449C16.6328 18.3635 16.7289 18.4596 16.8475 18.4596Z" fill="black"/>
<path d="M15.1121 18.4596C15.2307 18.4596 15.3268 18.3635 15.3268 18.2449C15.3268 18.1264 15.2307 18.0303 15.1121 18.0303C14.9936 18.0303 14.8975 18.1264 14.8975 18.2449C14.8975 18.3635 14.9936 18.4596 15.1121 18.4596Z" fill="black"/>
<path d="M13.3778 18.4596C13.4963 18.4596 13.5924 18.3635 13.5924 18.2449C13.5924 18.1264 13.4963 18.0303 13.3778 18.0303C13.2592 18.0303 13.1631 18.1264 13.1631 18.2449C13.1631 18.3635 13.2592 18.4596 13.3778 18.4596Z" fill="black"/>
<path d="M11.6434 18.4596C11.762 18.4596 11.8581 18.3635 11.8581 18.2449C11.8581 18.1264 11.762 18.0303 11.6434 18.0303C11.5248 18.0303 11.4287 18.1264 11.4287 18.2449C11.4287 18.3635 11.5248 18.4596 11.6434 18.4596Z" fill="black"/>
<path d="M9.90804 18.4596C10.0266 18.4596 10.1227 18.3635 10.1227 18.2449C10.1227 18.1264 10.0266 18.0303 9.90804 18.0303C9.78947 18.0303 9.69336 18.1264 9.69336 18.2449C9.69336 18.3635 9.78947 18.4596 9.90804 18.4596Z" fill="black"/>
<path d="M5.68234 12.0746C5.89091 12.0746 6.05999 11.9056 6.05999 11.697C6.05999 11.4884 5.89091 11.3193 5.68234 11.3193C5.47377 11.3193 5.30469 11.4884 5.30469 11.697C5.30469 11.9056 5.47377 12.0746 5.68234 12.0746Z" fill="black"/>
<path d="M7.35617 12.0746C7.56474 12.0746 7.73382 11.9056 7.73382 11.697C7.73382 11.4884 7.56474 11.3193 7.35617 11.3193C7.1476 11.3193 6.97852 11.4884 6.97852 11.697C6.97852 11.9056 7.1476 12.0746 7.35617 12.0746Z" fill="black"/>
<path d="M9.03097 12.0746C9.23954 12.0746 9.40862 11.9056 9.40862 11.697C9.40862 11.4884 9.23954 11.3193 9.03097 11.3193C8.8224 11.3193 8.65332 11.4884 8.65332 11.697C8.65332 11.9056 8.8224 12.0746 9.03097 12.0746Z" fill="black"/>
<path d="M10.7048 12.0746C10.9134 12.0746 11.0825 11.9056 11.0825 11.697C11.0825 11.4884 10.9134 11.3193 10.7048 11.3193C10.4962 11.3193 10.3271 11.4884 10.3271 11.697C10.3271 11.9056 10.4962 12.0746 10.7048 12.0746Z" fill="black"/>
<path d="M12.3796 12.0746C12.5882 12.0746 12.7573 11.9056 12.7573 11.697C12.7573 11.4884 12.5882 11.3193 12.3796 11.3193C12.171 11.3193 12.002 11.4884 12.002 11.697C12.002 11.9056 12.171 12.0746 12.3796 12.0746Z" fill="black"/>
<path d="M14.0544 12.0746C14.263 12.0746 14.432 11.9056 14.432 11.697C14.432 11.4884 14.263 11.3193 14.0544 11.3193C13.8458 11.3193 13.6768 11.4884 13.6768 11.697C13.6768 11.9056 13.8458 12.0746 14.0544 12.0746Z" fill="black"/>
<path d="M15.7273 12.0746C15.9358 12.0746 16.1049 11.9056 16.1049 11.697C16.1049 11.4884 15.9358 11.3193 15.7273 11.3193C15.5187 11.3193 15.3496 11.4884 15.3496 11.697C15.3496 11.9056 15.5187 12.0746 15.7273 12.0746Z" fill="black"/>
<path d="M17.4021 12.0746C17.6106 12.0746 17.7797 11.9056 17.7797 11.697C17.7797 11.4884 17.6106 11.3193 17.4021 11.3193C17.1935 11.3193 17.0244 11.4884 17.0244 11.697C17.0244 11.9056 17.1935 12.0746 17.4021 12.0746Z" fill="black"/>
<path d="M19.0759 12.0746C19.2845 12.0746 19.4535 11.9056 19.4535 11.697C19.4535 11.4884 19.2845 11.3193 19.0759 11.3193C18.8673 11.3193 18.6982 11.4884 18.6982 11.697C18.6982 11.9056 18.8673 12.0746 19.0759 12.0746Z" fill="black"/>
<path d="M4.79415 10.9091C4.99651 10.9091 5.16056 10.745 5.16056 10.5427C5.16056 10.3403 4.99651 10.1763 4.79415 10.1763C4.59178 10.1763 4.42773 10.3403 4.42773 10.5427C4.42773 10.745 4.59178 10.9091 4.79415 10.9091Z" fill="black"/>
<path d="M6.49239 10.9091C6.69475 10.9091 6.8588 10.745 6.8588 10.5427C6.8588 10.3403 6.69475 10.1763 6.49239 10.1763C6.29002 10.1763 6.12598 10.3403 6.12598 10.5427C6.12598 10.745 6.29002 10.9091 6.49239 10.9091Z" fill="black"/>
<path d="M8.19063 10.9091C8.39299 10.9091 8.55704 10.745 8.55704 10.5427C8.55704 10.3403 8.39299 10.1763 8.19063 10.1763C7.98827 10.1763 7.82422 10.3403 7.82422 10.5427C7.82422 10.745 7.98827 10.9091 8.19063 10.9091Z" fill="black"/>
<path d="M9.8879 10.9091C10.0903 10.9091 10.2543 10.745 10.2543 10.5427C10.2543 10.3403 10.0903 10.1763 9.8879 10.1763C9.68553 10.1763 9.52148 10.3403 9.52148 10.5427C9.52148 10.745 9.68553 10.9091 9.8879 10.9091Z" fill="black"/>
<path d="M11.5861 10.9091C11.7885 10.9091 11.9526 10.745 11.9526 10.5427C11.9526 10.3403 11.7885 10.1763 11.5861 10.1763C11.3838 10.1763 11.2197 10.3403 11.2197 10.5427C11.2197 10.745 11.3838 10.9091 11.5861 10.9091Z" fill="black"/>
<path d="M13.2834 10.9091C13.4858 10.9091 13.6498 10.745 13.6498 10.5427C13.6498 10.3403 13.4858 10.1763 13.2834 10.1763C13.081 10.1763 12.917 10.3403 12.917 10.5427C12.917 10.745 13.081 10.9091 13.2834 10.9091Z" fill="black"/>
<path d="M14.9816 10.9091C15.184 10.9091 15.3481 10.745 15.3481 10.5427C15.3481 10.3403 15.184 10.1763 14.9816 10.1763C14.7793 10.1763 14.6152 10.3403 14.6152 10.5427C14.6152 10.745 14.7793 10.9091 14.9816 10.9091Z" fill="black"/>
<path d="M16.6799 10.9091C16.8823 10.9091 17.0463 10.745 17.0463 10.5427C17.0463 10.3403 16.8823 10.1763 16.6799 10.1763C16.4775 10.1763 16.3135 10.3403 16.3135 10.5427C16.3135 10.745 16.4775 10.9091 16.6799 10.9091Z" fill="black"/>
<path d="M18.3772 10.9091C18.5795 10.9091 18.7436 10.745 18.7436 10.5427C18.7436 10.3403 18.5795 10.1763 18.3772 10.1763C18.1748 10.1763 18.0107 10.3403 18.0107 10.5427C18.0107 10.745 18.1748 10.9091 18.3772 10.9091Z" fill="black"/>
<path d="M3.60995 9.65788C3.76451 9.65788 3.88981 9.53258 3.88981 9.37801C3.88981 9.22344 3.76451 9.09814 3.60995 9.09814C3.45538 9.09814 3.33008 9.22344 3.33008 9.37801C3.33008 9.53258 3.45538 9.65788 3.60995 9.65788Z" fill="black"/>
<path d="M5.33065 9.65788C5.48521 9.65788 5.61052 9.53258 5.61052 9.37801C5.61052 9.22344 5.48521 9.09814 5.33065 9.09814C5.17608 9.09814 5.05078 9.22344 5.05078 9.37801C5.05078 9.53258 5.17608 9.65788 5.33065 9.65788Z" fill="black"/>
<path d="M7.05135 9.65788C7.20592 9.65788 7.33122 9.53258 7.33122 9.37801C7.33122 9.22344 7.20592 9.09814 7.05135 9.09814C6.89679 9.09814 6.77148 9.22344 6.77148 9.37801C6.77148 9.53258 6.89679 9.65788 7.05135 9.65788Z" fill="black"/>
<path d="M8.77108 9.65788C8.92564 9.65788 9.05094 9.53258 9.05094 9.37801C9.05094 9.22344 8.92564 9.09814 8.77108 9.09814C8.61651 9.09814 8.49121 9.22344 8.49121 9.37801C8.49121 9.53258 8.61651 9.65788 8.77108 9.65788Z" fill="black"/>
<path d="M10.4918 9.65788C10.6463 9.65788 10.7716 9.53258 10.7716 9.37801C10.7716 9.22344 10.6463 9.09814 10.4918 9.09814C10.3372 9.09814 10.2119 9.22344 10.2119 9.37801C10.2119 9.53258 10.3372 9.65788 10.4918 9.65788Z" fill="black"/>
<path d="M12.2135 9.65788C12.368 9.65788 12.4933 9.53258 12.4933 9.37801C12.4933 9.22344 12.368 9.09814 12.2135 9.09814C12.0589 9.09814 11.9336 9.22344 11.9336 9.37801C11.9336 9.53258 12.0589 9.65788 12.2135 9.65788Z" fill="black"/>
<path d="M13.9342 9.65788C14.0887 9.65788 14.214 9.53258 14.214 9.37801C14.214 9.22344 14.0887 9.09814 13.9342 9.09814C13.7796 9.09814 13.6543 9.22344 13.6543 9.37801C13.6543 9.53258 13.7796 9.65788 13.9342 9.65788Z" fill="black"/>
<path d="M15.6539 9.65788C15.8085 9.65788 15.9338 9.53258 15.9338 9.37801C15.9338 9.22344 15.8085 9.09814 15.6539 9.09814C15.4993 9.09814 15.374 9.22344 15.374 9.37801C15.374 9.53258 15.4993 9.65788 15.6539 9.65788Z" fill="black"/>
<path d="M17.3746 9.65788C17.5292 9.65788 17.6545 9.53258 17.6545 9.37801C17.6545 9.22344 17.5292 9.09814 17.3746 9.09814C17.22 9.09814 17.0947 9.22344 17.0947 9.37801C17.0947 9.53258 17.22 9.65788 17.3746 9.65788Z" fill="black"/>
<path d="M2.23226 8.55533C2.35082 8.55533 2.44693 8.45922 2.44693 8.34065C2.44693 8.22209 2.35082 8.12598 2.23226 8.12598C2.11369 8.12598 2.01758 8.22209 2.01758 8.34065C2.01758 8.45922 2.11369 8.55533 2.23226 8.55533Z" fill="black"/>
<path d="M3.96663 8.55533C4.08519 8.55533 4.18131 8.45922 4.18131 8.34065C4.18131 8.22209 4.08519 8.12598 3.96663 8.12598C3.84807 8.12598 3.75195 8.22209 3.75195 8.34065C3.75195 8.45922 3.84807 8.55533 3.96663 8.55533Z" fill="black"/>
<path d="M5.70101 8.55533C5.81957 8.55533 5.91568 8.45922 5.91568 8.34065C5.91568 8.22209 5.81957 8.12598 5.70101 8.12598C5.58244 8.12598 5.48633 8.22209 5.48633 8.34065C5.48633 8.45922 5.58244 8.55533 5.70101 8.55533Z" fill="black"/>
<path d="M7.43636 8.55533C7.55492 8.55533 7.65103 8.45922 7.65103 8.34065C7.65103 8.22209 7.55492 8.12598 7.43636 8.12598C7.31779 8.12598 7.22168 8.22209 7.22168 8.34065C7.22168 8.45922 7.31779 8.55533 7.43636 8.55533Z" fill="black"/>
<path d="M9.17073 8.55533C9.28929 8.55533 9.38541 8.45922 9.38541 8.34065C9.38541 8.22209 9.28929 8.12598 9.17073 8.12598C9.05217 8.12598 8.95605 8.22209 8.95605 8.34065C8.95605 8.45922 9.05217 8.55533 9.17073 8.55533Z" fill="black"/>
<path d="M10.9061 8.55533C11.0246 8.55533 11.1208 8.45922 11.1208 8.34065C11.1208 8.22209 11.0246 8.12598 10.9061 8.12598C10.7875 8.12598 10.6914 8.22209 10.6914 8.34065C10.6914 8.45922 10.7875 8.55533 10.9061 8.55533Z" fill="black"/>
<path d="M12.6405 8.55533C12.759 8.55533 12.8551 8.45922 12.8551 8.34065C12.8551 8.22209 12.759 8.12598 12.6405 8.12598C12.5219 8.12598 12.4258 8.22209 12.4258 8.34065C12.4258 8.45922 12.5219 8.55533 12.6405 8.55533Z" fill="black"/>
<path d="M14.3748 8.55533C14.4934 8.55533 14.5895 8.45922 14.5895 8.34065C14.5895 8.22209 14.4934 8.12598 14.3748 8.12598C14.2563 8.12598 14.1602 8.22209 14.1602 8.34065C14.1602 8.45922 14.2563 8.55533 14.3748 8.55533Z" fill="black"/>
<path d="M16.1102 8.55533C16.2287 8.55533 16.3249 8.45922 16.3249 8.34065C16.3249 8.22209 16.2287 8.12598 16.1102 8.12598C15.9916 8.12598 15.8955 8.22209 15.8955 8.34065C15.8955 8.45922 15.9916 8.55533 16.1102 8.55533Z" fill="black"/>
<defs>
<linearGradient id="paint0_linear" x1="-3.45282" y1="11.3193" x2="11.2273" y2="11.3193" gradientUnits="userSpaceOnUse">
<stop stop-color="#3B007F"/>
<stop offset="1" stop-color="#AA003D"/>
</linearGradient>
</defs>
</svg>
