<svg width="24" height="24" viewBox="0 0 24 24" fill="none" xmlns="http://www.w3.org/2000/svg">
<path fill-rule="evenodd" clip-rule="evenodd" d="M9.13574 7.0261V7.15683C9.13574 9.31937 11.9155 10.4733 12.0022 10.5089V2.54883C11.9155 2.63184 9.13574 5.2964 9.13574 7.0261Z" fill="#5CFF96"/>
<path fill-rule="evenodd" clip-rule="evenodd" d="M12.0029 2.54834V10.5087C12.0902 10.4731 14.8694 9.31916 14.8694 7.15634V7.02561C14.8694 5.2962 12.0902 2.63135 12.0029 2.54834Z" fill="#00B269"/>
<path fill-rule="evenodd" clip-rule="evenodd" d="M11.9496 10.3267C11.9496 10.3267 10.7813 9.23965 8.57495 9.38732C6.36808 9.53528 5.36347 12.5293 3.96582 12.4314C3.96582 12.4314 6.37627 14.392 8.4589 14.7328C10.3351 15.0194 12.276 13.6215 11.9496 10.3267Z" fill="#5CFF96"/>
<path fill-rule="evenodd" clip-rule="evenodd" d="M12.0041 10.2482C12.0041 10.2482 12.49 9.76429 13.6505 9.50339C14.1037 9.40175 14.6413 9.34584 15.2608 9.38735C17.4673 9.5353 18.472 12.5294 19.8699 12.4314C19.8699 12.4314 17.4592 14.3918 15.3768 14.7329C13.8527 14.9655 12.2859 14.0868 11.9262 11.9833C11.8432 11.4968 11.9428 10.8669 12.0041 10.2482Z" fill="#00B269"/>
<path fill-rule="evenodd" clip-rule="evenodd" d="M11.9186 20.0888L1.94336 14.3297V4.83417L11.9186 0L21.8939 4.83417V14.3297L11.9186 20.0888ZM2.96661 13.739L11.9186 18.9075L20.8706 13.739V5.47511L11.9186 1.13704L2.96661 5.47511V13.739Z" fill="#241F21"/>
<mask id="mask0" mask-type="alpha" maskUnits="userSpaceOnUse" x="1" y="0" width="21" height="24">
<path d="M1.91992 23.9749H21.9153V0H1.91992V23.9749Z" fill="white"/>
</mask>
<g mask="url(#mask0)">
<path fill-rule="evenodd" clip-rule="evenodd" d="M11.6924 19.4979H12.1724V10.248H11.6924V19.4979Z" fill="#241F21"/>
<path fill-rule="evenodd" clip-rule="evenodd" d="M11.9793 23.4215L1.91992 17.6138V18.1672L11.9793 23.9749L21.915 18.2383V17.6849L11.9793 23.4215Z" fill="#54BD87"/>
<path fill-rule="evenodd" clip-rule="evenodd" d="M1.91992 16.4937V17.0471L11.9793 22.8551L21.9153 17.1185V16.5651L11.9793 22.3014L1.91992 16.4937Z" fill="#54BD87"/>
<path fill-rule="evenodd" clip-rule="evenodd" d="M11.9793 21.7347L21.915 15.9981V15.4447L11.9793 21.1813L1.91992 15.3735V15.9269L11.9793 21.7347Z" fill="#54BD87"/>
<path fill-rule="evenodd" clip-rule="evenodd" d="M11.9179 10.774L2.34863 5.69276L2.55983 5.29492L11.9179 10.2638L21.2759 5.29492L21.4871 5.69276L11.9179 10.774Z" fill="#241F21"/>
</g>
</svg>
