<svg width="24" height="24" viewBox="0 0 24 24" fill="none" xmlns="http://www.w3.org/2000/svg">
<g clip-path="url(#clip0)">
<path fill-rule="evenodd" clip-rule="evenodd" d="M16.5352 15.871L21.0835 19.7419V19.6452C21.4706 19.1613 21.8577 18.5806 22.2448 18L17.1158 15C16.9223 15.2903 16.7287 15.5806 16.5352 15.871Z" fill="url(#paint0_linear)"/>
<path fill-rule="evenodd" clip-rule="evenodd" d="M17.89 12H23.7933V12.0968C23.7933 12.6774 23.6965 13.2581 23.5997 13.8387V14.0323V14.2258C23.5029 14.8065 23.3094 15.3871 23.1158 15.9677V16.0645L17.5029 14.0323C17.7933 13.4516 17.89 12.7742 17.89 12Z" fill="url(#paint1_linear)"/>
<path fill-rule="evenodd" clip-rule="evenodd" d="M22.3425 5.99984C22.6328 6.58049 22.9231 7.16113 23.1167 7.74178L23.2135 7.83855V7.93533C23.407 8.51597 23.6006 9.09662 23.6973 9.67726V9.77404L17.8909 10.8386C17.6973 9.77404 17.3102 8.80629 16.6328 8.0321L21.1812 4.16113V4.25791C21.5683 4.83855 21.9554 5.4192 22.3425 5.99984Z" fill="url(#paint2_linear)"/>
<path fill-rule="evenodd" clip-rule="evenodd" d="M13.0518 6.09677C12.6647 6 12.3744 6 11.9873 6V0C12.6647 0 13.3421 0.096774 14.0196 0.193548C14.697 0.290322 15.2776 0.483871 15.955 0.677419C16.5357 0.870968 17.2131 1.16129 17.7938 1.54839C18.3744 1.83871 18.8583 2.22581 19.4389 2.70968H19.5357L15.7615 7.25806C15.2776 6.77419 14.6002 6.48387 14.0196 6.19355C13.7292 6.19355 13.3421 6.09677 13.0518 6.09677Z" fill="url(#paint3_linear)"/>
<path d="M11.9872 0V6C8.69689 6 5.98721 8.70968 5.98721 12C5.98721 15.2903 8.69689 18 11.9872 18C13.7291 18 15.4711 17.2258 16.5356 15.871L21.084 19.7419C18.8582 22.4516 15.4711 24 11.9872 24C5.40656 24 0.0839844 18.6774 0.0839844 12C0.0839844 5.32258 5.30979 0 11.9872 0ZM17.6001 14.0323L23.213 16.0645C23.0195 16.7419 22.6324 17.3226 22.342 18L17.213 15C17.3098 14.7097 17.5033 14.4194 17.6001 14.0323ZM23.6969 9.87097C23.7937 10.5484 23.8904 11.2258 23.8904 12H17.9872C17.9872 11.6129 17.9872 11.3226 17.8904 10.9355L23.6969 9.87097ZM19.6324 2.80645C20.1162 3.29032 20.6969 3.77419 21.084 4.25806L16.5356 8.12903C16.342 7.83871 16.0517 7.64516 15.7614 7.35484L19.6324 2.80645Z" fill="#1D2667"/>
</g>
<defs>
<linearGradient id="paint0_linear" x1="20.0361" y1="16.4325" x2="18.6688" y2="18.4518" gradientUnits="userSpaceOnUse">
<stop stop-color="white" stop-opacity="0"/>
<stop offset="1" stop-opacity="0.1"/>
</linearGradient>
<linearGradient id="paint1_linear" x1="21.1441" y1="13.352" x2="20.6042" y2="14.9233" gradientUnits="userSpaceOnUse">
<stop stop-color="white" stop-opacity="0"/>
<stop offset="1" stop-opacity="0.1"/>
</linearGradient>
<linearGradient id="paint2_linear" x1="18.9178" y1="6.66187" x2="21.1307" y2="10.6217" gradientUnits="userSpaceOnUse">
<stop stop-color="white" stop-opacity="0"/>
<stop offset="1" stop-opacity="0.1"/>
</linearGradient>
<linearGradient id="paint3_linear" x1="11.9296" y1="1.61048" x2="18.3277" y2="6.45485" gradientUnits="userSpaceOnUse">
<stop stop-color="white" stop-opacity="0"/>
<stop offset="1" stop-opacity="0.1"/>
</linearGradient>
<clipPath id="clip0">
<rect width="24" height="24" fill="white"/>
</clipPath>
</defs>
</svg>
