<svg width="24" height="24" viewBox="0 0 24 24" fill="none" xmlns="http://www.w3.org/2000/svg">
<path d="M12 24C18.6274 24 24 18.6274 24 12C24 5.37258 18.6274 0 12 0C5.37258 0 0 5.37258 0 12C0 18.6274 5.37258 24 12 24Z" fill="#30C0F2"/>
<path d="M16.423 5.25C16.423 5.25 16.657 6.4155 17.908 6.4935C17.908 6.4935 22.0495 16.131 11.9688 20.25C11.9688 20.25 2.66951 17.2965 5.95151 6.5715C5.95151 6.5715 7.35851 6.4935 7.59251 5.25H16.423ZM15.955 6.01725H8.06501L8.05451 6.18525C7.98851 6.552 7.80476 6.80775 7.53551 6.98025C7.36865 7.08546 7.18166 7.15469 6.98651 7.1835L6.84851 7.197L6.80951 7.3305C6.08276 9.813 6.05801 11.958 6.63026 13.788C7.09976 15.288 7.94951 16.518 9.06926 17.5005C9.66023 18.0187 10.3141 18.4605 11.0155 18.8152C11.248 18.933 11.4655 19.0297 11.6598 19.1077C11.7775 19.155 11.8638 19.1857 11.911 19.2015L11.9845 19.224L12.0558 19.194C14.8353 18.006 16.5168 16.2105 17.2698 13.974C17.8923 12.129 17.8368 10.1648 17.3725 8.30475C17.2833 7.94793 17.1756 7.59596 17.05 7.25025C17.0399 7.22286 17.0294 7.19561 17.0185 7.1685L16.9705 7.05L16.8423 7.04175C16.4778 7.01775 16.246 6.86925 16.1028 6.63075C16.0265 6.50251 15.9792 6.35918 15.964 6.21075L15.955 6.01725Z" fill="white"/>
<path d="M8.42095 6.42578C13.1962 6.42653 15.5835 6.42728 15.5835 6.42803C15.6165 6.56828 15.6697 6.70778 15.7485 6.84053C15.9405 7.15928 16.2487 7.37453 16.6807 7.43603C16.794 7.75353 16.8917 8.07642 16.9732 8.40353C17.4202 10.1945 17.4727 12.083 16.8795 13.844C16.1707 15.9493 14.595 17.6443 11.9662 18.7865C11.7055 18.6883 11.4504 18.5758 11.202 18.4498C10.5315 18.111 9.90632 17.6892 9.3412 17.1943C8.27545 16.2583 7.46845 15.0913 7.02295 13.667C6.48445 11.9458 6.4987 9.92228 7.16845 7.56653C7.37688 7.51893 7.57588 7.43679 7.7572 7.32353C8.07595 7.12028 8.30995 6.82328 8.42095 6.42578Z" fill="#F9B631"/>
<path d="M11.3187 8.93719C11.6679 8.81914 12.0432 8.80198 12.4017 8.88769C13.6355 9.16369 13.7367 10.1567 13.7142 10.6127H13.9422C14.297 10.6127 14.5851 10.8992 14.5872 11.2539V13.9352C14.5851 14.2899 14.297 14.5764 13.9422 14.5764H10.0737C9.71895 14.5764 9.43077 14.2899 9.42871 13.9352V11.2539C9.43077 10.8992 9.71895 10.6127 10.0737 10.6127H10.241C10.2627 9.53794 10.8372 9.10819 11.3187 8.93719ZM12.5606 11.6483C12.4143 11.5052 12.1959 11.4646 12.008 11.5457C11.768 11.5444 11.5604 11.7122 11.5112 11.9471C11.4621 12.182 11.5851 12.4189 11.8055 12.5139L11.5782 13.6442H12.4377L12.2105 12.5139C12.4152 12.5129 12.5989 12.3882 12.6757 12.1985C12.7525 12.0087 12.707 11.7914 12.5606 11.6483ZM13.0887 10.6127C13.1105 9.30244 11.891 9.36919 11.891 9.36919C10.9662 9.43069 10.8177 10.2617 10.7967 10.6127H13.0887Z" fill="white"/>
</svg>
