<svg width="24" height="24" viewBox="0 0 24 24" fill="none" xmlns="http://www.w3.org/2000/svg">
<path d="M12 24C18.6274 24 24 18.6274 24 12C24 5.37258 18.6274 0 12 0C5.37258 0 0 5.37258 0 12C0 18.6274 5.37258 24 12 24Z" fill="#00843D"/>
<path d="M12.0041 4.20008C12.2996 4.20008 12.5898 4.27733 12.8456 4.42508L18.2156 7.52558C18.4716 7.67346 18.6841 7.88612 18.8318 8.14219C18.9795 8.39826 19.0572 8.68871 19.0571 8.98433V15.3098C19.0571 15.9113 18.7368 16.4671 18.2156 16.7678L12.8448 19.8691C12.5889 20.0169 12.2985 20.0947 12.003 20.0947C11.7074 20.0947 11.4171 20.0169 11.1611 19.8691L5.78959 16.7678C5.53364 16.6201 5.32107 16.4075 5.17323 16.1516C5.02539 15.8957 4.94749 15.6054 4.94734 15.3098V8.98433C4.94734 8.38283 5.26834 7.82708 5.78959 7.52558L11.1596 4.42508C11.4161 4.27733 11.7071 4.19933 12.0018 4.19933H12.0033L12.0041 4.20008ZM12.0026 3.02933C11.5018 3.02963 11.0099 3.16153 10.5761 3.41183L5.20459 6.51158C4.77118 6.76269 4.41125 7.12315 4.16079 7.55695C3.91033 7.99074 3.77811 8.48268 3.77734 8.98358V15.3091C3.77811 15.81 3.91033 16.3019 4.16079 16.7357C4.41125 17.1695 4.77118 17.53 5.20459 17.7811L10.5746 20.8816C11.4581 21.3916 12.5463 21.3916 13.4291 20.8816L18.7998 17.7811C19.2333 17.53 19.5932 17.1695 19.8436 16.7357C20.0941 16.3019 20.2263 15.81 20.2271 15.3091V8.98358C20.2263 8.48268 20.0941 7.99074 19.8436 7.55695C19.5932 7.12315 19.2333 6.76269 18.7998 6.51158L13.4298 3.41033C12.9956 3.15978 12.5032 3.02786 12.0018 3.02783L12.0026 3.02933Z" fill="white"/>
<path d="M11.3447 13.1399C11.283 13.14 11.2224 13.1239 11.1689 13.093C11.1155 13.0622 11.0711 13.0179 11.0402 12.9644L10.3945 11.8447C10.3637 11.7913 10.3475 11.7308 10.3475 11.6692C10.3475 11.6076 10.3637 11.5471 10.3945 11.4937L11.0402 10.3739C11.0711 10.3205 11.1155 10.2761 11.1689 10.2453C11.2224 10.2145 11.283 10.1983 11.3447 10.1984H12.6632C12.7248 10.1986 12.7852 10.2149 12.8385 10.2457C12.8918 10.2765 12.9361 10.3207 12.967 10.3739L13.6135 11.4937C13.6443 11.5471 13.6605 11.6076 13.6605 11.6692C13.6605 11.7308 13.6443 11.7913 13.6135 11.8447L12.967 12.9644C12.9362 13.0178 12.8919 13.0621 12.8386 13.0929C12.7853 13.1237 12.7248 13.1399 12.6632 13.1399H11.3447ZM9.583 11.3767C9.64467 11.3766 9.70525 11.3604 9.75868 11.3296C9.81211 11.2988 9.85653 11.2545 9.8875 11.2012L10.5332 10.0814C10.5641 10.0281 10.5803 9.96756 10.5803 9.90594C10.5803 9.84433 10.5641 9.7838 10.5332 9.73044L9.72775 8.33469L8.155 9.19269C8.09861 9.22358 8.0518 9.26937 8.01966 9.32505C7.98752 9.38073 7.97129 9.44417 7.97275 9.50844C7.9855 10.1369 8.059 10.7624 8.191 11.3767H9.583ZM14.4242 11.3767C14.3627 11.3767 14.3022 11.3604 14.2489 11.3296C14.1956 11.2988 14.1513 11.2545 14.1205 11.2012L13.474 10.0814C13.4432 10.0281 13.427 9.96756 13.427 9.90594C13.427 9.84433 13.4432 9.7838 13.474 9.73044L14.2795 8.33469L15.8515 9.19269C15.9079 9.22343 15.9548 9.26905 15.9871 9.32459C16.0193 9.38013 16.0357 9.44347 16.0345 9.50769C16.0217 10.1362 15.9489 10.762 15.817 11.3767H14.4242ZM12.172 7.18344C12.1205 7.15535 12.0627 7.14062 12.004 7.14062C11.9453 7.14062 11.8875 7.15535 11.836 7.18344L10.2415 8.05344L11.041 9.43794C11.0718 9.49127 11.1161 9.53556 11.1694 9.56636C11.2227 9.59717 11.2832 9.6134 11.3447 9.61344H12.6632C12.7248 9.61348 12.7853 9.59727 12.8387 9.56646C12.892 9.53565 12.9363 9.49132 12.967 9.43794L13.7665 8.05419L12.172 7.18419V7.18344ZM8.3365 11.9617C8.6373 13.0318 9.1179 14.043 9.75775 14.9519L10.534 13.6079C10.5648 13.5546 10.581 13.4941 10.581 13.4324C10.581 13.3708 10.5648 13.3103 10.534 13.2569L9.8875 12.1372C9.85671 12.0839 9.81243 12.0396 9.75912 12.0088C9.7058 11.978 9.64532 11.9617 9.58375 11.9617H8.3365ZM15.67 11.9617C15.3694 13.0318 14.8891 14.0429 14.2495 14.9519L13.4732 13.6079C13.4424 13.5546 13.4262 13.4941 13.4262 13.4324C13.4262 13.3708 13.4424 13.3103 13.4732 13.2569L14.1205 12.1372C14.1513 12.0839 14.1956 12.0396 14.2489 12.0088C14.3022 11.978 14.3627 11.9617 14.4242 11.9617H15.6707H15.67ZM11.3447 13.7249C11.283 13.7248 11.2224 13.741 11.1689 13.7718C11.1155 13.8026 11.0711 13.847 11.0402 13.9004L10.1402 15.4604C10.6249 16.0627 11.1785 16.6061 11.7895 17.0797C11.8511 17.1271 11.9267 17.1528 12.0044 17.1528C12.0821 17.1528 12.1576 17.1271 12.2192 17.0797C12.8301 16.6059 13.3833 16.0622 13.8677 15.4597L12.9677 13.9004C12.937 13.8471 12.8927 13.8028 12.8394 13.772C12.7861 13.7412 12.7256 13.725 12.664 13.7249H11.344H11.3447Z" fill="white"/>
</svg>
