<svg width="24" height="24" viewBox="0 0 24 24" fill="none" xmlns="http://www.w3.org/2000/svg">
<path d="M11.9929 0C5.37991 0 0 5.37981 0 11.9928C0 18.6056 5.38002 23.9857 11.9929 23.9857C18.6056 23.9857 23.9855 18.6056 23.9855 11.9928C23.9855 5.37981 18.6056 0 11.9929 0ZM11.9929 23.2211C5.80166 23.2211 0.764617 18.1841 0.764617 11.9929C0.764617 5.80155 5.80166 0.764617 11.9929 0.764617C18.1841 0.764617 23.221 5.80155 23.221 11.9929C23.221 18.1841 18.1841 23.2211 11.9929 23.2211Z" fill="#1D1D1B"/>
<path d="M11.9931 7.74993C13.3339 7.74993 14.4208 6.66301 14.4208 5.32223C14.4208 3.98145 13.3339 2.89453 11.9931 2.89453C10.6523 2.89453 9.56543 3.98145 9.56543 5.32223C9.56543 6.66301 10.6523 7.74993 11.9931 7.74993Z" fill="#128ACF"/>
<path d="M5.71774 17.1113C7.05852 17.1113 8.14544 16.0243 8.14544 14.6836C8.14544 13.3428 7.05852 12.2559 5.71774 12.2559C4.37696 12.2559 3.29004 13.3428 3.29004 14.6836C3.29004 16.0243 4.37696 17.1113 5.71774 17.1113Z" fill="#128ACF"/>
<path d="M6.16187 11.3835C6.36011 9.47282 7.4805 7.833 9.06809 6.91497C8.80991 6.44174 8.66295 5.89904 8.66295 5.32209C8.66295 5.25538 8.66548 5.18919 8.66939 5.12354C6.22203 6.31265 4.50175 8.77164 4.37012 11.6384C4.78235 11.4556 5.23824 11.3532 5.71835 11.3532C5.8689 11.3532 6.01671 11.3642 6.16187 11.3835Z" fill="#1D1D1B"/>
<path d="M17.8224 11.3703C17.9336 11.3591 18.0461 11.3532 18.1601 11.3532C18.6827 11.3532 19.1771 11.4739 19.617 11.6882C19.5031 8.80029 17.778 6.31952 15.3167 5.12354C15.3203 5.18919 15.3229 5.25538 15.3229 5.32209C15.3229 5.89904 15.176 6.44174 14.918 6.91497C16.502 7.83109 17.6205 9.46532 17.8224 11.3703Z" fill="#1D1D1B"/>
<path d="M15.5011 16.6876C14.5222 17.4209 13.3076 17.8559 11.9932 17.8559C10.6474 17.8559 9.40719 17.399 8.41663 16.6338C8.05907 17.1276 7.56987 17.5196 7 17.7576C8.33956 18.9192 10.085 19.6249 11.9933 19.6249C13.8856 19.6249 15.6177 18.9311 16.953 17.7867C16.3723 17.5605 15.8705 17.1769 15.5011 16.6876Z" fill="#1D1D1B"/>
<path d="M18.1601 17.1113C19.5009 17.1113 20.5878 16.0243 20.5878 14.6836C20.5878 13.3428 19.5009 12.2559 18.1601 12.2559C16.8193 12.2559 15.7324 13.3428 15.7324 14.6836C15.7324 16.0243 16.8193 17.1113 18.1601 17.1113Z" fill="#128ACF"/>
<path d="M11.9932 1.61523C6.27071 1.61523 1.61523 6.2706 1.61523 11.993C1.61523 17.7154 6.27071 22.3707 11.9932 22.3707C17.7153 22.3707 22.3708 17.7154 22.3708 11.993C22.3708 6.2706 17.7152 1.61523 11.9932 1.61523ZM18.1604 18.0139C18.0597 18.0139 17.9599 18.0085 17.8613 17.9998C16.3457 19.4807 14.2742 20.3951 11.9932 20.3951C9.70651 20.3951 7.63067 19.4764 6.11434 17.9895C5.98429 18.005 5.85234 18.0138 5.71818 18.0138C3.87895 18.0138 2.38778 16.5227 2.38778 14.6836C2.38778 13.6523 2.85668 12.7307 3.59264 12.12C3.59201 12.0776 3.59106 12.0354 3.59106 11.993C3.59106 8.46803 5.77337 5.44318 8.85774 4.19814C9.31892 2.91197 10.5483 1.99204 11.9931 1.99204C13.4376 1.99204 14.6671 2.91208 15.1282 4.19814C18.2126 5.44318 20.395 8.46792 20.395 11.993C20.395 12.0662 20.394 12.1392 20.3922 12.2119C21.0668 12.8212 21.4908 13.7027 21.4908 14.6836C21.4908 16.5228 19.9998 18.0139 18.1604 18.0139Z" fill="#128ACF"/>
</svg>
