<svg width="24" height="24" viewBox="0 0 24 24" fill="none" xmlns="http://www.w3.org/2000/svg">
<g clip-path="url(#clip0)">
<path d="M15.3788 15.0047H14.3624C14.1741 15.0047 14.0141 14.8541 14.0141 14.6564V11.9835L12.2353 13.0941C12.0847 13.1882 11.8965 13.1882 11.7459 13.0941L9.97648 11.9835V14.6564C9.97648 14.8447 9.82589 15.0047 9.62824 15.0047H8.62118C8.43295 15.0047 8.27295 14.8541 8.27295 14.6564V9.49877C8.27295 9.24466 8.48001 9.0376 8.73413 9.0376C8.82824 9.0376 8.91295 9.06583 8.98824 9.1223L11.7929 11.0517C11.9059 11.1364 12.0659 11.1364 12.1788 11.0517L14.9835 9.1223C15.1906 8.98113 15.4824 9.0376 15.6235 9.24466C15.68 9.31995 15.6988 9.41407 15.7082 9.49877V14.6564C15.7177 14.8447 15.5671 15.0047 15.3788 15.0047Z" fill="#FF4A4A"/>
<path d="M6.75778 14.9953H0.451899C0.197781 14.9953 -0.00927734 14.7882 -0.00927734 14.5341V9.34824C0.000134422 9.15059 0.150723 9 0.34837 9H1.36484C1.55308 9 1.71308 9.15059 1.71308 9.34824V13.2918H5.53425V9.34824C5.53425 9.16 5.68484 9 5.88249 9H6.87072C7.05896 9 7.21896 9.15059 7.21896 9.34824V14.5341C7.21896 14.7882 7.0119 14.9953 6.75778 14.9953Z" fill="#FF4A4A"/>
<path d="M17.2424 9H23.5483C23.8024 9 24.0095 9.20706 24.0095 9.46118V14.6471C24.0095 14.8353 23.8589 14.9953 23.6707 14.9953H22.6542C22.466 14.9953 22.306 14.8447 22.306 14.6471V10.9294C22.306 10.8071 22.2024 10.7035 22.0801 10.7035H18.7201C18.5977 10.7035 18.4942 10.8071 18.4942 10.9294V14.6471C18.4942 14.8353 18.3436 14.9953 18.146 14.9953H17.1295C16.9412 14.9953 16.7812 14.8447 16.7812 14.6471V9.46118C16.7812 9.20706 16.9883 9 17.2424 9Z" fill="#FF4A4A"/>
<path d="M19.8873 11.7954H20.8944C21.0826 11.7954 21.2426 11.946 21.2426 12.1436V13.1695C21.2426 13.3578 21.092 13.5178 20.8944 13.5178H19.8873C19.6991 13.5178 19.5391 13.3672 19.5391 13.1695V12.1342C19.5391 11.946 19.6991 11.7954 19.8873 11.7954Z" fill="#FF4A4A"/>
</g>
<defs>
<clipPath id="clip0">
<rect width="24" height="24" fill="white"/>
</clipPath>
</defs>
</svg>
