<svg width="24" height="24" viewBox="0 0 24 24" fill="none" xmlns="http://www.w3.org/2000/svg">
<mask id="mask0" mask-type="alpha" maskUnits="userSpaceOnUse" x="12" y="0" width="12" height="20">
<path d="M22.5244 5.50282L14.3288 0.907227L12.1406 4.0642L22.7672 19.7984C23.5365 19.2644 24.0001 18.3985 24.0001 17.4674V7.98579C24.0001 6.96143 23.4378 6.01504 22.5244 5.50282Z" fill="white"/>
</mask>
<g mask="url(#mask0)">
<path fill-rule="evenodd" clip-rule="evenodd" d="M22.5244 5.50282L14.3288 0.907227L12.1406 4.0642L22.7672 19.7984C23.5365 19.2644 24.0001 18.3985 24.0001 17.4674V7.98579C24.0001 6.96143 23.4378 6.01504 22.5244 5.50282Z" fill="url(#paint0_linear)"/>
</g>
<mask id="mask1" mask-type="alpha" maskUnits="userSpaceOnUse" x="14" y="15" width="9" height="9">
<path d="M20.459 16.3813L15.6652 15.8978C15.2469 15.8558 14.8828 16.1748 14.8828 16.5831V23.5705C14.8828 23.8662 15.2126 24.0513 15.476 23.9034L22.5244 19.9512C22.608 19.9039 22.6889 19.8533 22.7672 19.7994C22.7672 19.7987 20.459 16.3813 20.459 16.3813Z" fill="white"/>
</mask>
<g mask="url(#mask1)">
<path fill-rule="evenodd" clip-rule="evenodd" d="M20.459 16.3813L15.6652 15.8978C15.2469 15.8558 14.8828 16.1748 14.8828 16.5831V23.5705C14.8828 23.8662 15.2126 24.0513 15.476 23.9034L22.5244 19.9512C22.608 19.9039 22.6889 19.8533 22.7672 19.7994C22.7672 19.7987 20.459 16.3813 20.459 16.3813Z" fill="url(#paint1_linear)"/>
</g>
<mask id="mask2" mask-type="alpha" maskUnits="userSpaceOnUse" x="0" y="0" width="15" height="20">
<path d="M13.4764 0.429037C12.5629 -0.0831164 11.4371 -0.0831164 10.5236 0.429037L1.47635 5.50285C0.562286 6.01507 0 6.96146 0 7.98582V17.4674C0 18.3979 0.463567 19.2637 1.23293 19.7985L14.3287 0.907257L13.4764 0.429037Z" fill="white"/>
</mask>
<g mask="url(#mask2)">
<path fill-rule="evenodd" clip-rule="evenodd" d="M13.4764 0.429037C12.5629 -0.0831164 11.4371 -0.0831164 10.5236 0.429037L1.47635 5.50285C0.562286 6.01507 0 6.96146 0 7.98582V17.4674C0 18.3979 0.463567 19.2637 1.23293 19.7985L14.3287 0.907257L13.4764 0.429037Z" fill="url(#paint2_linear)"/>
</g>
<mask id="mask3" mask-type="alpha" maskUnits="userSpaceOnUse" x="1" y="15" width="9" height="9">
<path d="M1.47683 19.951L8.55476 23.8679C8.81811 24.0144 9.14583 23.8292 9.14583 23.5342V16.5816C9.14583 16.1739 8.78311 15.8549 8.36483 15.8962L3.61141 16.3684L1.2334 19.7984C1.31155 19.853 1.39247 19.9037 1.47683 19.951Z" fill="white"/>
</mask>
<g mask="url(#mask3)">
<path fill-rule="evenodd" clip-rule="evenodd" d="M1.47683 19.951L8.55476 23.8679C8.81811 24.0144 9.14583 23.8292 9.14583 23.5342V16.5816C9.14583 16.1739 8.78311 15.8549 8.36483 15.8962L3.61141 16.3684L1.2334 19.7984C1.31155 19.853 1.39247 19.9037 1.47683 19.951Z" fill="url(#paint3_linear)"/>
</g>
<defs>
<linearGradient id="paint0_linear" x1="15.2647" y1="8.37576" x2="21.585" y2="10.0207" gradientUnits="userSpaceOnUse">
<stop stop-color="#235FAB"/>
<stop offset="1" stop-color="#15B09E"/>
</linearGradient>
<linearGradient id="paint1_linear" x1="14.8828" y1="19.9248" x2="22.7671" y2="19.9248" gradientUnits="userSpaceOnUse">
<stop stop-color="#235FAB"/>
<stop offset="1" stop-color="#15B09E"/>
</linearGradient>
<linearGradient id="paint2_linear" x1="0" y1="9.92172" x2="14.3287" y2="9.92172" gradientUnits="userSpaceOnUse">
<stop stop-color="#235FAB"/>
<stop offset="1" stop-color="#15B09E"/>
</linearGradient>
<linearGradient id="paint3_linear" x1="1.2334" y1="19.9058" x2="9.14583" y2="19.9058" gradientUnits="userSpaceOnUse">
<stop stop-color="#235FAB"/>
<stop offset="1" stop-color="#15B09E"/>
</linearGradient>
</defs>
</svg>
