<svg width="24" height="24" viewBox="0 0 24 24" fill="none" xmlns="http://www.w3.org/2000/svg">
<path d="M22.7998 0.741699C22.7324 0.741699 22.665 0.782149 22.638 0.849564L15.1549 16.1934C14.5077 17.5147 12.6335 17.5147 11.9998 16.1934L4.54366 0.930463C4.48973 0.822598 4.36838 0.741699 4.24703 0.741699H0.363887C0.121191 0.741699 -0.0406072 0.997879 0.067258 1.21361L10.3819 22.1799C11.083 23.5956 13.1055 23.5821 13.7931 22.1529L23.8515 0.997879C23.9055 0.876531 23.8246 0.741699 23.6897 0.741699H22.7998Z" fill="url(#paint0_linear)"/>
<path opacity="0.2" d="M9.46494 20.3329L0.47168 2.0498L6.93011 9.53295L9.46494 20.3329Z" fill="white"/>
<path opacity="0.2" d="M11.1371 14.4138L6.93032 9.5329L5.23145 2.35986L11.1371 14.4138Z" fill="white"/>
<path opacity="0.1" d="M6.93018 9.53339L0.471752 2.05024L0.067258 1.22777C-0.0406072 1.01204 0.121191 0.755859 0.363887 0.755859H4.24703C4.36838 0.755859 4.48973 0.823275 4.54366 0.944623L5.24479 2.37384L6.93018 9.53339Z" fill="white"/>
<defs>
<linearGradient id="paint0_linear" x1="3.08422" y1="3.01849" x2="19.9903" y2="14.7405" gradientUnits="userSpaceOnUse">
<stop stop-color="#B290D8"/>
<stop offset="1" stop-color="#26BFE2"/>
</linearGradient>
</defs>
</svg>
