<svg width="24" height="24" viewBox="0 0 24 24" fill="none" xmlns="http://www.w3.org/2000/svg">
<path d="M12 24C18.6274 24 24 18.6274 24 12C24 5.37258 18.6274 0 12 0C5.37258 0 0 5.37258 0 12C0 18.6274 5.37258 24 12 24Z" fill="#338BE5"/>
<path d="M16.9722 12.6885C17.5197 12.8355 18.0597 13.0057 18.5457 13.305C18.7617 13.4377 18.9635 13.5937 19.1457 13.7692C19.4157 14.0692 19.3977 14.3858 19.1517 14.703C18.9357 14.979 18.6417 15.1552 18.329 15.3022C17.537 15.684 16.697 15.9015 15.839 16.0305C15.1422 16.1355 14.4342 16.1955 13.7315 16.2833C13.6984 16.2903 13.6671 16.3038 13.6393 16.323C13.6115 16.3421 13.5878 16.3666 13.5695 16.395C13.0775 17.1285 12.5915 17.8628 12.0995 18.597C12.0599 18.6454 12.0238 18.6965 11.9915 18.75C11.4718 17.9703 10.9576 17.187 10.4487 16.4003C10.4273 16.3634 10.3967 16.3327 10.3599 16.3112C10.3231 16.2896 10.2813 16.2779 10.2387 16.2772C8.83395 16.1775 7.44795 15.9953 6.1212 15.5198C5.7012 15.3728 5.2992 15.1905 4.9512 14.9145C4.93245 14.8965 4.90845 14.8845 4.8912 14.8673C4.3812 14.439 4.36845 13.9807 4.8612 13.5397C5.2512 13.1872 5.7312 12.9878 6.2292 12.8348C6.7272 12.6818 7.2312 12.5708 7.73595 12.4418C7.75995 12.4358 7.78395 12.4358 7.82595 12.4238C6.7392 10.7618 5.6652 9.117 4.56645 7.449C4.63245 7.443 4.68045 7.437 4.72245 7.437C5.4012 7.431 6.0792 7.437 6.7572 7.431C6.80514 7.42812 6.85287 7.43938 6.89447 7.46338C6.93606 7.48738 6.9697 7.52306 6.9912 7.566C8.6337 10.071 10.2747 12.5768 11.9135 15.0848C11.9375 15.1267 11.9656 15.1661 11.9975 15.2025C12.3755 14.6325 12.7415 14.0865 13.1015 13.5397C14.4215 11.5447 15.7422 9.552 17.063 7.56075C17.111 7.49025 17.147 7.437 17.255 7.437C17.969 7.443 18.6837 7.443 19.3977 7.443C19.4315 7.443 19.4652 7.4445 19.4997 7.449C18.3853 9.13038 17.2688 10.8104 16.1502 12.489C16.433 12.5588 16.703 12.618 16.973 12.6885H16.9722ZM6.6732 14.0985C6.8127 14.2538 6.97695 14.3873 7.1592 14.4915C7.9092 14.8913 8.73795 15.0375 9.5967 15.1665C9.5847 15.126 9.5847 15.108 9.5787 15.0968C9.09195 14.3617 8.61195 13.6223 8.12595 12.888C8.10645 12.8689 8.08269 12.8546 8.05662 12.8464C8.03055 12.8382 8.00291 12.8362 7.97595 12.8408C7.69095 12.9345 7.41195 13.0463 7.1412 13.176C6.96594 13.2726 6.80945 13.3998 6.6792 13.5518C6.6064 13.6236 6.56492 13.7213 6.5638 13.8235C6.56267 13.9258 6.602 14.0243 6.6732 14.0978V14.0985ZM16.1262 14.7322C16.4533 14.6439 16.7526 14.4741 16.9962 14.2388C17.237 13.9988 17.237 13.728 16.9962 13.4813C16.9367 13.4168 16.8682 13.3613 16.793 13.3162C16.535 13.1872 16.265 13.0642 16.0002 12.9352C15.9102 12.888 15.8562 12.9232 15.8022 13.0057C15.5202 13.4407 15.2322 13.8682 14.9442 14.298C14.7642 14.568 14.5842 14.844 14.3982 15.126C14.446 15.132 14.4944 15.132 14.5422 15.126C15.0702 14.997 15.6042 14.8792 16.1262 14.7322ZM16.1322 6.75L12.0215 13.299L7.85595 6.75H16.1322Z" fill="white"/>
</svg>
