<svg width="24" height="24" viewBox="0 0 24 24" fill="none" xmlns="http://www.w3.org/2000/svg">
<g clip-path="url(#clip0)">
<path fill-rule="evenodd" clip-rule="evenodd" d="M0.214595 3.00004H7.07534C7.11195 2.99933 7.14814 3.00802 7.18044 3.02526C7.21125 3.04236 7.23728 3.06694 7.25611 3.09673L15.6092 16.4525C15.6315 16.4862 15.6433 16.5256 15.6433 16.566C15.6433 16.6063 15.6315 16.6458 15.6092 16.6795L12.1915 22.1319C12.1726 22.1617 12.1466 22.1863 12.1158 22.2034C12.0842 22.2207 12.0488 22.2298 12.0128 22.2298C11.9768 22.2298 11.9414 22.2207 11.9098 22.2034C11.879 22.1863 11.853 22.1617 11.8341 22.1319L0.0338282 3.32374C0.0134582 3.29233 0.00184775 3.25604 0.000197116 3.21864C-0.00145156 3.1806 0.00726669 3.14282 0.0254204 3.10934C0.0442583 3.07593 0.0718804 3.0483 0.105294 3.02947C0.138352 3.00985 0.176156 2.99967 0.214595 3.00004ZM14.5961 3.00004H23.7858C23.8242 2.99967 23.862 3.00985 23.8951 3.02947C23.9239 3.05001 23.947 3.07748 23.9624 3.10934C23.9803 3.14289 23.989 3.18062 23.9876 3.21864C23.9885 3.25527 23.9798 3.2915 23.9624 3.32374L19.3717 10.6553C19.3529 10.6851 19.3269 10.7097 19.296 10.7268C19.2645 10.7441 19.229 10.7531 19.1931 10.7531C19.157 10.7531 19.1216 10.7441 19.0901 10.7268C19.0592 10.7097 19.0332 10.6851 19.0144 10.6553L14.4195 3.32374C14.3992 3.29233 14.3876 3.25604 14.3859 3.21864C14.3843 3.1806 14.393 3.14282 14.4111 3.10934C14.43 3.07593 14.4576 3.0483 14.491 3.02947C14.5228 3.01058 14.5591 3.00042 14.5961 3.00004Z" fill="#FF8836"/>
</g>
<defs>
<clipPath id="clip0">
<rect width="24" height="24" fill="white"/>
</clipPath>
</defs>
</svg>
