<svg width="24" height="24" viewBox="0 0 24 24" fill="none" xmlns="http://www.w3.org/2000/svg">
<path d="M18.2767 10.605C18.2767 9.13834 18.2972 7.66141 18.2664 6.19475C18.2562 5.59987 18.5023 5.27167 19.0767 5.13834C20.3382 4.8409 21.5895 4.52295 22.8408 4.21526C23.4459 4.07167 23.928 4.38962 23.928 5.01526C23.9485 8.1127 23.9382 11.1999 23.928 14.2973C23.928 14.7486 23.651 15.0153 23.2203 15.1178C21.9485 15.4358 20.6767 15.764 19.4049 16.0614C18.6767 16.2358 18.2664 15.8768 18.2664 15.1178C18.2767 13.6101 18.2767 12.1127 18.2767 10.605ZM9.04592 10.5845C9.04592 9.11782 9.05617 7.65116 9.04592 6.18449C9.03566 5.62039 9.27156 5.29218 9.82541 5.15885C11.0972 4.85116 12.369 4.53321 13.6408 4.21526C14.2254 4.07167 14.7075 4.41013 14.728 5.03577C14.7485 5.93834 14.7177 6.8409 14.7382 7.75372C14.7485 8.05116 14.5639 8.08193 14.369 8.13321C13.2613 8.4409 12.8818 8.91269 12.8716 10.0614C12.8613 11.7024 12.8613 13.3435 12.8818 14.9742C12.8818 15.3024 12.7998 15.446 12.4613 15.5178C11.7331 15.6614 11.0151 15.8768 10.2869 16.0512C9.4972 16.2358 9.06643 15.8973 9.06643 15.0973C9.04592 13.5896 9.04592 12.0819 9.04592 10.5845ZM0.061303 10.6358C0.061303 9.14859 0.0715594 7.66141 0.0510466 6.17423C0.0407902 5.57936 0.32797 5.26141 0.892072 5.12808C2.1331 4.83064 3.37412 4.53321 4.61515 4.22552C5.2613 4.07167 5.74335 4.39987 5.77412 5.06654C5.80489 5.93834 5.77412 6.81013 5.78438 7.68193C5.79464 8.02039 5.54848 8.01013 5.34335 8.06141C3.969 8.42039 3.65105 8.81013 3.65105 10.246C3.65105 11.8358 3.64079 13.4255 3.6613 15.0153C3.6613 15.364 3.53823 15.4973 3.23053 15.5588C2.56387 15.7127 1.91771 15.8973 1.25105 16.0512C0.502329 16.2255 0.061303 15.8665 0.061303 15.0871V10.6358Z" fill="#8036FD"/>
<path d="M13.6507 14.3281C13.6507 12.8204 13.6609 11.323 13.6507 9.81527C13.6507 9.30245 13.8968 9.02552 14.3789 8.90245C15.2404 8.68706 16.1122 8.50245 16.9635 8.25629C17.3943 8.13322 17.4968 8.26655 17.4866 8.68706C17.4763 10.7589 17.4763 12.8204 17.4763 14.8922C17.4763 16.1537 17.8353 16.6153 19.0455 16.8922C19.1379 16.9127 19.2507 16.9537 19.2917 17.0255C19.6404 17.6717 19.1891 18.6768 18.4814 18.8614C17.2917 19.1691 16.102 19.4768 14.9122 19.7537C14.0302 19.9589 13.6609 19.6409 13.6609 18.7281C13.6507 17.2614 13.6507 15.7948 13.6507 14.3281ZM4.43016 14.3281C4.43016 12.9127 4.46093 11.4871 4.41991 10.0717C4.39939 9.35373 4.70709 8.99476 5.37375 8.85117C6.12247 8.67681 6.86093 8.49219 7.60965 8.28706C8.07119 8.16399 8.27631 8.25629 8.26606 8.79988C8.23529 10.8819 8.2558 12.9742 8.2558 15.0563C8.2558 16.1435 8.70708 16.6871 9.78401 16.8819C9.97888 16.9127 10.1225 16.964 10.102 17.1896C10.0507 17.7435 10.3481 18.5024 9.6199 18.7178C8.20452 19.1486 6.75837 19.4973 5.30196 19.7845C4.64555 19.9076 4.43016 19.3742 4.43016 18.7999V14.3281Z" fill="#09FAD9"/>
</svg>
