<svg width="24" height="24" viewBox="0 0 24 24" fill="none" xmlns="http://www.w3.org/2000/svg">
<path d="M11.4796 23.9998C13.5319 23.9998 15.1956 22.3361 15.1956 20.2838C15.1956 18.2316 13.5319 16.5679 11.4796 16.5679C9.42737 16.5679 7.76367 18.2316 7.76367 20.2838C7.76367 22.3361 9.42737 23.9998 11.4796 23.9998Z" fill="#22B24C"/>
<path d="M19.2904 19.6448C21.1335 19.6448 22.6277 18.1506 22.6277 16.3075C22.6277 14.4644 21.1335 12.9702 19.2904 12.9702C17.4473 12.9702 15.9531 14.4644 15.9531 16.3075C15.9531 18.1506 17.4473 19.6448 19.2904 19.6448Z" fill="#CECCCC"/>
<path d="M2.48521 10.509C3.85775 10.509 4.97041 9.39632 4.97041 8.02378C4.97041 6.65124 3.85775 5.53857 2.48521 5.53857C1.11267 5.53857 0 6.65124 0 8.02378C0 9.39632 1.11267 10.509 2.48521 10.509Z" fill="#CECCCC"/>
<path d="M15.3609 4.11834C16.4982 4.11834 17.4201 3.19642 17.4201 2.05917C17.4201 0.921923 16.4982 0 15.3609 0C14.2237 0 13.3018 0.921923 13.3018 2.05917C13.3018 3.19642 14.2237 4.11834 15.3609 4.11834Z" fill="#22B24C"/>
<path d="M20.7195 5.44359C20.3406 5.42804 19.963 5.49635 19.6136 5.64365C19.2642 5.79094 18.9516 6.01358 18.6982 6.29566L18.6934 6.30513L18.5751 6.44714C18.5304 6.50305 18.483 6.55676 18.4331 6.60809C17.9361 7.143 16.7337 8.09921 15.11 7.29921C14.8659 7.17909 14.6435 7.01911 14.452 6.82584C14.0633 6.43256 13.6004 6.1204 13.0901 5.9075C12.5797 5.69459 12.0322 5.58518 11.4792 5.58561L11.271 5.59034C11.0728 5.59951 10.8749 5.56893 10.6887 5.5004C9.75617 5.1643 9.49108 4.38797 9.43901 3.79626C9.41327 3.46314 9.46177 3.12847 9.58102 2.81637C9.7224 2.42926 9.74438 2.00864 9.6441 1.6089C9.54382 1.20917 9.3259 0.848722 9.01853 0.574188C8.71117 0.299654 8.32849 0.123665 7.92002 0.0689869C7.51154 0.0143087 7.09605 0.0834571 6.7273 0.267487C6.35855 0.451517 6.05351 0.741961 5.85163 1.10125C5.64975 1.46053 5.56032 1.87213 5.59491 2.2828C5.6295 2.69346 5.78653 3.0843 6.04567 3.40476C6.30481 3.72521 6.65414 3.96053 7.04848 4.08028C9.21179 4.96075 8.50173 6.62703 8.20351 7.16667C7.61375 7.90617 7.29322 8.82435 7.29463 9.77022C7.29331 9.95694 7.30438 10.1435 7.32777 10.3288C7.32726 10.3335 7.32726 10.3383 7.32777 10.343C7.39404 11.0578 7.31357 12.9986 4.65795 13.0649C4.49969 13.0664 4.34151 13.057 4.18457 13.0365C4.06038 13.0231 3.93552 13.0168 3.81061 13.0176C3.17421 13.0171 2.55174 13.2038 2.02074 13.5546C1.48975 13.9054 1.07371 14.4046 0.824464 14.9902C0.575222 15.5758 0.503795 16.2217 0.619084 16.8476C0.734372 17.4735 1.03128 18.0516 1.47281 18.5099C1.91434 18.9682 2.48097 19.2864 3.1021 19.425C3.72324 19.5635 4.3714 19.5162 4.96585 19.289C5.56029 19.0618 6.07473 18.6646 6.44507 18.1471C6.8154 17.6296 7.02525 17.0145 7.04848 16.3785H7.05321V16.2128C7.06741 15.5927 7.3183 13.3963 10.0591 13.7181C10.0591 13.7181 10.9822 13.9643 11.4792 13.9643C12.3093 13.9653 13.1209 13.7198 13.8112 13.2587C14.5014 12.7977 15.0392 12.1421 15.3562 11.375C15.6213 10.769 17.0082 9.24478 19.3988 10.2957C19.4787 10.3394 19.5608 10.3789 19.6449 10.414C19.9935 10.5545 20.3685 10.6171 20.7437 10.5975C21.119 10.5779 21.4855 10.4766 21.8175 10.3006C22.1495 10.1246 22.439 9.8782 22.6659 9.57863C22.8928 9.27907 23.0514 8.93356 23.1309 8.56627C23.2103 8.19898 23.2085 7.81878 23.1256 7.45226C23.0428 7.08573 22.8808 6.74173 22.6512 6.44431C22.4215 6.1469 22.1296 5.90324 21.796 5.73039C21.4623 5.55753 21.0949 5.45965 20.7195 5.44359Z" fill="#343433"/>
</svg>
