<svg width="24" height="24" viewBox="0 0 24 24" fill="none" xmlns="http://www.w3.org/2000/svg">
<path d="M18.6627 18.3168C18.8418 14.1377 16.4299 12.0959 15.1164 11.3078C14.2448 10.7825 13.5284 10.0302 13.0985 9.11081C11.5582 5.86305 13.7791 3.27201 13.7791 3.27201C15.1284 1.58843 16.812 0.692905 19.1761 1.20634C20.8478 1.74365 22.4358 2.44813 23.9165 3.31977V3.43917C23.9284 9.07499 21.9463 14.2571 18.6627 18.3168Z" fill="#67AFE2"/>
<path d="M16.0831 21.0272C14.8293 22.1496 13.4681 23.1407 11.9995 23.9765C7.30694 21.3019 3.62933 17.0631 1.65918 11.9646C3.48605 12.9078 5.71888 13.7198 7.295 13.2063C10.4353 12.1914 12.7159 10.5078 15.7487 13.2302C17.4562 14.7586 17.8144 16.7287 17.4084 18.7466C17.2174 19.6302 16.7517 20.4183 16.0831 21.0272Z" fill="#1EBBAD"/>
<path d="M16.0476 0.441972C14.173 1.17033 11.7252 2.71063 11.5223 5.83899V5.99421C11.4984 6.77033 11.5461 10.6987 7.54614 12.036C7.54614 12.036 4.69241 13.027 2.30435 10.9972C1.32524 10.1614 0.692406 9.00317 0.4536 7.73749C0.190914 6.30466 0.0595703 4.82406 0.0595703 3.31958C3.55808 1.26585 7.64166 0.0957031 11.9879 0.0957031C13.373 0.0957031 14.7342 0.215106 16.0476 0.441972Z" fill="#F7A800"/>
</svg>
