<svg width="24" height="25" viewBox="0 0 24 25" fill="none" xmlns="http://www.w3.org/2000/svg">
<g clip-path="url(#clip0)">
<path d="M23.9994 12.0001C23.9994 18.6273 18.6274 24.0001 11.9997 24.0001C5.37201 24.0001 0 18.6273 0 12.0001C0 5.37284 5.37214 0 11.9997 0C18.6273 0 23.9994 5.37233 23.9994 12.0001Z" fill="white"/>
<path d="M11.9994 0C5.37408 0 -0.00744784 5.38045 0.000986463 11.9997C0.00264777 13.324 0.213825 14.5979 0.610173 15.7895H4.20038V5.69475L11.9994 13.4937L19.7981 5.69475V15.7897H23.3891C23.786 14.5982 23.9961 13.3243 23.9984 11.9999C24.0097 5.37374 18.6255 0.00159741 11.9994 0.00159741V0Z" fill="#F26822"/>
<path d="M10.2063 15.2865L6.80273 11.8828V18.2349H4.20057L1.74512 18.2353C3.85132 21.6908 7.65772 24.0022 11.9998 24.0022C16.3419 24.0022 20.1485 21.6902 22.2551 18.2348H17.1962V11.8828L13.7924 15.2865L11.9994 17.0795L10.2064 15.2865H10.2063Z" fill="#4D4D4D"/>
</g>
<defs>
<clipPath id="clip0">
<rect width="24" height="24.0026" fill="white"/>
</clipPath>
</defs>
</svg>
