<svg width="24" height="24" viewBox="0 0 24 24" fill="none" xmlns="http://www.w3.org/2000/svg">
<g clip-path="url(#clip0)">
<path d="M23.9496 11.7363C23.952 11.8176 23.9529 11.8974 23.9529 11.9782C23.956 13.8956 23.4963 15.7855 22.6131 17.4874L16.083 20.1226L16.0962 20.0929L23.9496 11.7363Z" fill="#0F6089"/>
<path d="M23.9496 11.7336L16.0977 20.0929L23.3917 8.34521C23.7403 9.44179 23.9282 10.5831 23.9496 11.7336Z" fill="#078FA4"/>
<path d="M23.3915 8.34518L16.0975 20.0929L16.0776 20.1246L15.2031 4.92188L22.5364 7.66581L23.3915 8.34518Z" fill="#00AAA6"/>
<path d="M23.3913 8.34539L22.5361 7.66602L23.2514 7.93294C23.3015 8.06948 23.3487 8.20743 23.3913 8.34539Z" fill="#00AAA6"/>
<path d="M23.2516 7.93288L16.1839 0.76123C19.4776 1.99952 22.0615 4.62146 23.2516 7.93288ZM16.1839 0.76123L23.2516 7.93288L22.5363 7.66595L15.8145 2.32643L16.183 0.76123H16.1839Z" fill="#1EAAE2"/>
<path d="M16.0829 20.1225L22.612 17.4854C20.9586 20.6746 17.9621 22.9542 14.4473 23.6965L16.0144 20.2742L16.0829 20.1225Z" fill="#0C7392"/>
<path d="M22.5364 7.6657L15.2031 4.92176L15.8145 2.32617L22.5364 7.6657Z" fill="#1EAAE2"/>
<path d="M16.1825 0.760921L15.8135 2.32612L12.9316 0.0380859C14.044 0.124341 15.1384 0.367703 16.1825 0.760921Z" fill="#ABCF3A"/>
<path d="M16.0781 20.4144L16.2797 20.0928L16.1453 20.3952L16.0781 20.4144Z" fill="#CD1685"/>
<path d="M16.0844 20.1227L16.0144 20.2743L7.54688 14.0971L7.65648 13.9998L15.2033 4.92188L16.0777 20.1246L16.0844 20.1227Z" fill="#8F9990"/>
<path d="M16.0148 20.2745L14.4477 23.6968C13.6357 23.8679 12.8081 23.9538 11.9782 23.9529C11.6475 23.9529 11.3239 23.9397 11.0027 23.9137L3.55273 17.4365L3.76958 17.4838L16.0148 20.2745Z" fill="#CD1685"/>
<path d="M16.0147 20.2743L3.76953 17.4855L7.54717 14.0972L16.0147 20.2743Z" fill="#EC1076"/>
<path d="M15.814 2.32612L15.2027 4.92171L12.9316 0.0380859L15.814 2.32612Z" fill="#ABCF3A"/>
<path d="M12.9323 0.0383009L15.2028 4.92192L6.86328 1.1424C8.46194 0.387279 10.2085 -0.00292408 11.9765 1.64974e-05C12.2982 1.64974e-05 12.6162 0.0132615 12.9323 0.0383009Z" fill="#E0E224"/>
<path d="M15.2033 4.92188L7.65658 13.9998L4.375 9.9529L15.2033 4.92188Z" fill="#F9A516"/>
<path d="M15.2033 4.92168L4.375 9.95271L6.86335 1.14404L15.2033 4.92168Z" fill="#FDCD11"/>
<path d="M11.4458 24.3422L10.9658 23.9102L11.1735 23.9438L11.4458 24.3422Z" fill="#CD1685"/>
<path d="M3.55229 17.4364L11.0008 23.9136L10.9658 23.9103L2.67969 19.5265L3.49984 17.3901L3.55229 17.4364ZM2.67969 19.5265L10.9658 23.9103C7.72197 23.6387 4.72934 22.0554 2.67969 19.5265Z" fill="#B9204A"/>
<path d="M4.37504 9.95312L7.65661 14.0001L7.54701 14.0974L1.74023 13.975L4.37504 9.95312Z" fill="#F05B28"/>
<path d="M7.54701 14.097L3.76937 17.4853L1.74023 13.9746L7.54701 14.097Z" fill="#F05B28"/>
<path d="M6.86284 1.14355L4.37449 9.95269L1.73969 13.9746L1.74961 13.89L0.0195312 11.3209C0.260004 6.81474 2.99213 2.97237 6.86284 1.14355Z" fill="#FDCD11"/>
<path d="M1.74 13.9746L3.76914 17.4853L3.55228 17.4362L1.74 13.9746ZM3.55228 17.4362L3.49984 17.3889L2.67969 19.5263C2.16465 18.8934 1.7157 18.2095 1.33984 17.4853L1.74 13.9756L3.55228 17.4362Z" fill="#AB1F25"/>
<path d="M0.0175781 11.3213L1.75002 13.8904L1.7401 13.975L1.33994 17.4848L0.0175781 11.3213Z" fill="#CB0010"/>
<path d="M0.0198567 11.3213L1.34269 17.4848C0.458516 15.7834 -0.00207809 13.8939 7.04822e-06 11.9766C7.04822e-06 11.7569 0.00521099 11.5391 0.0198567 11.3213Z" fill="#CB0010"/>
<path d="M18.7032 13.9997L19.2484 11.7027C19.4733 11.0806 19.5853 10.4234 19.5791 9.7619C19.5791 9.32288 19.413 8.90012 19.1143 8.57843L19.033 8.49103C18.4746 7.88914 17.4739 7.54615 16.6509 7.54615H16.3632C15.6178 7.54569 14.8997 7.82739 14.3535 8.33465L13.6736 8.96819L13.5574 8.70174C13.4969 8.56142 13.4112 8.43334 13.3047 8.32378C12.7448 7.75588 11.9804 7.43642 11.1829 7.43701C10.5944 7.43692 10.0191 7.611 9.52938 7.93733L8.85945 8.42158V8.37434C8.85919 7.91634 8.48784 7.5452 8.02985 7.5452H0.765595L0.109375 9.95276L6.12497 10.0624L5.24103 14.8132C5.09079 15.46 5.5004 16.0973 6.16182 16.1772C6.69066 16.243 7.18979 15.9175 7.34292 15.4071L8.98843 10.3236C9.16607 9.73071 9.96638 9.35371 10.5806 9.43402C10.9446 9.48148 11.27 9.68505 11.472 9.99168C11.6739 10.2983 11.7324 10.6776 11.6322 11.0309L10.7658 14.8071C10.6508 15.2121 10.7325 15.6475 10.9863 15.9834C11.2402 16.3192 11.6369 16.5165 12.0579 16.5164C12.6309 16.5164 12.9224 16.1531 13.1091 15.6112L14.7602 10.703C14.9521 10.1469 15.6324 9.81575 16.2106 9.92583C16.5398 9.98872 16.827 10.1882 17.0008 10.4748C17.1746 10.7613 17.2188 11.1081 17.1224 11.4291L16.2465 14.6517C16.1129 15.0888 16.1945 15.5634 16.4665 15.9309C16.7384 16.2983 17.1685 16.515 17.6256 16.515L23.2817 16.4058L23.9379 13.9997H18.7032Z" fill="white"/>
</g>
<defs>
<clipPath id="clip0">
<rect width="24" height="24" fill="white"/>
</clipPath>
</defs>
</svg>
