<svg width="24" height="24" viewBox="0 0 24 24" fill="none" xmlns="http://www.w3.org/2000/svg">
<g clip-path="url(#clip0)">
<path d="M3.3365 13.3149H3.80156V13.8688L0.465064 14.7352H0V14.1814L3.3365 13.3149Z" fill="url(#paint0_linear)"/>
<path d="M5.37207 18.1933V18.6796H5.86222L7.43881 16.9814V16.4951H6.94673L5.37207 18.1933Z" fill="url(#paint1_linear)"/>
<path d="M0 23.5136V23.9999H0.488221L3.80349 20.6113V20.125H3.31527L0 23.5136Z" fill="url(#paint2_linear)"/>
<path d="M9.96357 18.6796L10.7355 16.966V16.4951H10.2279L9.45605 18.2087V18.6796H9.96164H9.96357Z" fill="url(#paint3_linear)"/>
<path d="M7.43531 3.87489V3.39632L5.09262 0H4.59668V0.480502L6.94709 3.87489H7.44303H7.43531Z" fill="url(#paint4_linear)"/>
<path d="M4.59668 23.5194V23.998H5.09262L7.43531 20.6036V20.125H6.94709L4.59668 23.5194Z" fill="url(#paint5_linear)"/>
<path d="M0 9.2627V9.81653L3.3365 10.6888H3.80156V10.1407L0.465064 9.2627H0Z" fill="url(#paint6_linear)"/>
<path d="M0 0V0.486291L3.31527 3.87489H3.80349V3.3886L0.488221 0H0Z" fill="url(#paint7_linear)"/>
<path d="M0 18.9111V19.4051H0.480502L3.80349 16.9814V16.4951H3.32299L0 18.9111Z" fill="url(#paint8_linear)"/>
<path d="M18.689 14.6966V14.1949L17.0372 13.3149H16.5605V13.8167L18.2124 14.7024H18.6871L18.689 14.6966Z" fill="url(#paint9_linear)"/>
<path d="M18.689 9.8069V9.30518H18.2124L16.5605 10.1909V10.6926H17.0353L18.689 9.8069Z" fill="url(#paint10_linear)"/>
<path d="M9.45605 5.32227V5.78926L10.2279 7.50285H10.7335V7.03586L9.96164 5.32227H9.45605Z" fill="url(#paint11_linear)"/>
<path d="M18.6273 5.80856V5.32227H18.1391L16.5625 7.02236V7.50865H17.0527L18.6273 5.80856Z" fill="url(#paint12_linear)"/>
<path d="M13.9598 9.95752H13.2227V10.6947H13.9598V9.95752Z" fill="#BE5095"/>
<path d="M10.7754 3.87489V3.41176L9.9591 0H9.40527V0.465064L10.2273 3.87489H10.7812H10.7754Z" fill="url(#paint13_linear)"/>
<path d="M13.2607 16.4951V16.9679L14.0326 18.6815H14.5382V18.2068L13.7663 16.4932H13.2607V16.4951Z" fill="url(#paint14_linear)"/>
<path d="M14.5421 5.32227H14.0365L13.2646 7.03586V7.50865H13.7702L14.5421 5.79505V5.32227Z" fill="url(#paint15_linear)"/>
<path d="M0 4.59668V5.09069L3.32299 7.50671H3.80349V7.0127L0.480502 4.59668H0Z" fill="url(#paint16_linear)"/>
<path d="M20.1963 16.4951V16.9814L23.5193 19.3974H23.9998V18.9111L20.6787 16.4951H20.1982H20.1963Z" fill="url(#paint17_linear)"/>
<path d="M16.5645 3.39632V3.87489H17.0604L19.4031 0.480502V0H18.911L16.5645 3.39632Z" fill="url(#paint18_linear)"/>
<path d="M20.1963 20.125V20.6113L23.5116 23.9999H23.9998V23.5136L20.6845 20.125H20.1963Z" fill="url(#paint19_linear)"/>
<path d="M16.5645 20.125V20.6036L18.911 23.998H19.4069V23.5194L17.0604 20.125H16.5645Z" fill="url(#paint20_linear)"/>
<path d="M18.6273 18.6795V18.1933L17.0507 16.4932H16.5605V16.9814L18.1391 18.6795H18.6292H18.6273Z" fill="url(#paint21_linear)"/>
<path d="M23.5116 0L20.1963 3.3886V3.87489H20.6845L23.9998 0.486291V0H23.5116Z" fill="url(#paint22_linear)"/>
<path d="M20.1963 7.0127V7.50671H20.6768L23.9998 5.09069V4.59668H23.5193L20.1963 7.0127Z" fill="url(#paint23_linear)"/>
<path d="M20.1963 10.1407V10.6946H20.6614L23.9978 9.82232V9.2627H23.5424L20.1963 10.1407Z" fill="url(#paint24_linear)"/>
<path d="M20.1963 13.3149V13.8688L23.5424 14.7352H24.0075V14.1814L20.6633 13.3149H20.1982H20.1963Z" fill="url(#paint25_linear)"/>
<path d="M9.40527 23.5426V24.0077H9.9591L10.7734 20.5959V20.1309H10.2273L9.40527 23.5426Z" fill="url(#paint26_linear)"/>
<path d="M5.31055 14.1949V14.6966H5.78912L7.44096 13.8109V13.3149H6.96239L5.31055 14.1949Z" fill="url(#paint27_linear)"/>
<path d="M5.37207 5.32227V5.80856L6.94673 7.50865H7.43688V7.02236L5.86029 5.32227H5.37207Z" fill="url(#paint28_linear)"/>
<path d="M10.0342 14.0463H10.7713V13.3149H10.0342V14.0521V14.0463Z" fill="#BD687B"/>
<path d="M5.31055 9.30713V9.80886L6.96239 10.6946H7.43711V10.1929L5.78912 9.30713H5.31055Z" fill="url(#paint29_linear)"/>
<path d="M13.2266 20.125V20.5901L14.0409 24.0018H14.5947V23.5425L13.7804 20.1308H13.2266V20.125Z" fill="url(#paint30_linear)"/>
<path d="M13.2266 3.41176V3.87682H13.7804L14.5967 0.465064V0H14.0409L13.2266 3.41176Z" fill="url(#paint31_linear)"/>
<path d="M10.0342 10.6927H10.7713V9.95752H10.0342V10.6947V10.6927Z" fill="#AC5E90"/>
<path d="M13.9598 13.3149H13.2227V14.0521H13.9598V13.3149Z" fill="#C85C7F"/>
</g>
<defs>
<linearGradient id="paint0_linear" x1="1.36046" y1="15.0382" x2="2.61864" y2="12.6781" gradientUnits="userSpaceOnUse">
<stop stop-color="#93966F"/>
<stop offset="1" stop-color="#9C8476"/>
</linearGradient>
<linearGradient id="paint1_linear" x1="7.4967" y1="16.5549" x2="5.31418" y2="18.6178" gradientUnits="userSpaceOnUse">
<stop stop-color="#C27E64"/>
<stop offset="1" stop-color="#CD8D56"/>
</linearGradient>
<linearGradient id="paint2_linear" x1="3.83822" y1="20.1617" x2="-0.0366597" y2="23.9632" gradientUnits="userSpaceOnUse">
<stop stop-color="#D7974E"/>
<stop offset="1" stop-color="#F5AE3D"/>
</linearGradient>
<linearGradient id="paint3_linear" x1="10.8455" y1="17.0181" x2="9.1666" y2="18.2956" gradientUnits="userSpaceOnUse">
<stop stop-color="#CB7365"/>
<stop offset="1" stop-color="#D57D56"/>
</linearGradient>
<linearGradient id="paint4_linear" x1="4.26284" y1="0.652247" x2="7.86178" y2="3.29211" gradientUnits="userSpaceOnUse">
<stop stop-color="#3658CA"/>
<stop offset="1" stop-color="#6B59B8"/>
</linearGradient>
<linearGradient id="paint5_linear" x1="4.3188" y1="23.3978" x2="7.83283" y2="20.6325" gradientUnits="userSpaceOnUse">
<stop stop-color="#F99F36"/>
<stop offset="1" stop-color="#DC8A4C"/>
</linearGradient>
<linearGradient id="paint6_linear" x1="1.22345" y1="8.6915" x2="2.43917" y2="11.0014" gradientUnits="userSpaceOnUse">
<stop stop-color="#668A87"/>
<stop offset="1" stop-color="#847C88"/>
</linearGradient>
<linearGradient id="paint7_linear" x1="3.83822" y1="3.83822" x2="-0.0366654" y2="0.0366653" gradientUnits="userSpaceOnUse">
<stop stop-color="#4A69B0"/>
<stop offset="1" stop-color="#056EBD"/>
</linearGradient>
<linearGradient id="paint8_linear" x1="3.28632" y1="16.2558" x2="0.445768" y2="19.7313" gradientUnits="userSpaceOnUse">
<stop stop-color="#B78D63"/>
<stop offset="1" stop-color="#C5A256"/>
</linearGradient>
<linearGradient id="paint9_linear" x1="16.8925" y1="13.0525" x2="18.2529" y2="14.8182" gradientUnits="userSpaceOnUse">
<stop stop-color="#D75080"/>
<stop offset="1" stop-color="#E34B76"/>
</linearGradient>
<linearGradient id="paint10_linear" x1="16.9542" y1="10.8798" x2="18.3494" y2="9.04852" gradientUnits="userSpaceOnUse">
<stop stop-color="#CF4794"/>
<stop offset="1" stop-color="#D739A3"/>
</linearGradient>
<linearGradient id="paint11_linear" x1="9.15116" y1="5.7854" x2="10.9439" y2="6.97604" gradientUnits="userSpaceOnUse">
<stop stop-color="#8554B2"/>
<stop offset="1" stop-color="#9C55A5"/>
</linearGradient>
<linearGradient id="paint12_linear" x1="16.5451" y1="7.4083" x2="18.6852" y2="5.38402" gradientUnits="userSpaceOnUse">
<stop stop-color="#C43CAE"/>
<stop offset="1" stop-color="#CD2CC3"/>
</linearGradient>
<linearGradient id="paint13_linear" x1="9.00582" y1="1.37782" x2="11.3254" y2="2.57618" gradientUnits="userSpaceOnUse">
<stop stop-color="#6344D6"/>
<stop offset="1" stop-color="#874ABF"/>
</linearGradient>
<linearGradient id="paint14_linear" x1="13.006" y1="16.9293" x2="14.6733" y2="18.1527" gradientUnits="userSpaceOnUse">
<stop stop-color="#D66766"/>
<stop offset="1" stop-color="#E26A55"/>
</linearGradient>
<linearGradient id="paint15_linear" x1="12.9598" y1="7.08604" x2="14.6946" y2="5.85101" gradientUnits="userSpaceOnUse">
<stop stop-color="#AD4AA9"/>
<stop offset="1" stop-color="#AD3EBB"/>
</linearGradient>
<linearGradient id="paint16_linear" x1="0.497869" y1="4.21652" x2="3.30562" y2="7.88879" gradientUnits="userSpaceOnUse">
<stop stop-color="#307CA3"/>
<stop offset="1" stop-color="#6A739A"/>
</linearGradient>
<linearGradient id="paint17_linear" x1="20.6363" y1="16.1381" x2="23.4865" y2="19.6676" gradientUnits="userSpaceOnUse">
<stop stop-color="#EA4C68"/>
<stop offset="1" stop-color="#F44752"/>
</linearGradient>
<linearGradient id="paint18_linear" x1="16.1438" y1="3.28632" x2="19.8315" y2="0.586636" gradientUnits="userSpaceOnUse">
<stop stop-color="#B930CC"/>
<stop offset="1" stop-color="#CE15F2"/>
</linearGradient>
<linearGradient id="paint19_linear" x1="24.0364" y1="23.9632" x2="20.1616" y2="20.1617" gradientUnits="userSpaceOnUse">
<stop stop-color="#F15829"/>
<stop offset="1" stop-color="#EF5948"/>
</linearGradient>
<linearGradient id="paint20_linear" x1="16.2731" y1="20.7251" x2="19.7774" y2="23.4634" gradientUnits="userSpaceOnUse">
<stop stop-color="#EA674A"/>
<stop offset="1" stop-color="#F26A28"/>
</linearGradient>
<linearGradient id="paint21_linear" x1="16.5027" y1="16.5549" x2="18.6852" y2="18.6178" gradientUnits="userSpaceOnUse">
<stop stop-color="#E15A68"/>
<stop offset="1" stop-color="#EB5A55"/>
</linearGradient>
<linearGradient id="paint22_linear" x1="24.0364" y1="0.036665" x2="20.1616" y2="3.83822" gradientUnits="userSpaceOnUse">
<stop stop-color="#F902FD"/>
<stop offset="1" stop-color="#DA1FD4"/>
</linearGradient>
<linearGradient id="paint23_linear" x1="23.5038" y1="4.21652" x2="20.6942" y2="7.88879" gradientUnits="userSpaceOnUse">
<stop stop-color="#FC11D5"/>
<stop offset="1" stop-color="#DE2AB7"/>
</linearGradient>
<linearGradient id="paint24_linear" x1="22.8014" y1="8.64904" x2="21.5606" y2="10.9994" gradientUnits="userSpaceOnUse">
<stop stop-color="#F922AA"/>
<stop offset="1" stop-color="#E2369D"/>
</linearGradient>
<linearGradient id="paint25_linear" x1="21.4217" y1="12.6878" x2="22.6258" y2="15.0594" gradientUnits="userSpaceOnUse">
<stop stop-color="#E64183"/>
<stop offset="1" stop-color="#F63777"/>
</linearGradient>
<linearGradient id="paint26_linear" x1="8.9074" y1="22.7688" x2="11.2115" y2="21.3929" gradientUnits="userSpaceOnUse">
<stop stop-color="#F68C31"/>
<stop offset="1" stop-color="#D77C4E"/>
</linearGradient>
<linearGradient id="paint27_linear" x1="7.1187" y1="13.0564" x2="5.74666" y2="14.8028" gradientUnits="userSpaceOnUse">
<stop stop-color="#AC757A"/>
<stop offset="1" stop-color="#AC8270"/>
</linearGradient>
<linearGradient id="paint28_linear" x1="5.31418" y1="5.38402" x2="7.48898" y2="7.4411" gradientUnits="userSpaceOnUse">
<stop stop-color="#6466AA"/>
<stop offset="1" stop-color="#8563A1"/>
</linearGradient>
<linearGradient id="paint29_linear" x1="5.67141" y1="9.07363" x2="7.00292" y2="10.8297" gradientUnits="userSpaceOnUse">
<stop stop-color="#857390"/>
<stop offset="1" stop-color="#986C8D"/>
</linearGradient>
<linearGradient id="paint30_linear" x1="15.0309" y1="22.6664" x2="12.7171" y2="21.4198" gradientUnits="userSpaceOnUse">
<stop stop-color="#F47B2C"/>
<stop offset="1" stop-color="#E5744A"/>
</linearGradient>
<linearGradient id="paint31_linear" x1="15.0984" y1="1.29292" x2="12.7847" y2="2.54917" gradientUnits="userSpaceOnUse">
<stop stop-color="#952EE3"/>
<stop offset="1" stop-color="#9D3FC3"/>
</linearGradient>
<clipPath id="clip0">
<rect width="24" height="24" fill="white"/>
</clipPath>
</defs>
</svg>
