<svg width="24" height="24" viewBox="0 0 24 24" fill="none" xmlns="http://www.w3.org/2000/svg">
<g clip-path="url(#clip0)">
<path d="M4.65988 11.9841V10.0097H11.0075V7.98231H4.65988V6.01858H19.3295V7.99292H12.9819V10.0203H19.3295V11.9947H12.9819L19.3613 21.4843C22.1849 19.287 24 15.8585 24 12.0053C24 5.37107 18.6289 0 12.0053 0C5.37107 0 0 5.37107 0 12.0053C0 15.8585 1.81513 19.287 4.63866 21.4843L11.0181 11.9947C11.0181 11.9841 4.65988 11.9841 4.65988 11.9841Z" fill="#E3242D"/>
<path d="M6.28418 22.5565C7.98254 23.48 9.92505 24.0001 11.9949 24.0001C14.0648 24.0001 16.0073 23.48 17.7057 22.5565L11.9949 14.0435L6.28418 22.5565Z" fill="#E3242D"/>
</g>
<defs>
<clipPath id="clip0">
<rect width="24" height="24" fill="white"/>
</clipPath>
</defs>
</svg>
