<svg width="24" height="24" viewBox="0 0 24 24" fill="none" xmlns="http://www.w3.org/2000/svg">
<path d="M12 24C18.6274 24 24 18.6274 24 12C24 5.37258 18.6274 0 12 0C5.37258 0 0 5.37258 0 12C0 18.6274 5.37258 24 12 24Z" fill="#00ABDF"/>
<path d="M17.8295 7.83298L11.9838 3.77732L6.13806 7.83298L11.9838 19.2478L17.8295 7.83298ZM11.9838 21.3645L4.89453 7.52143L11.9838 2.60303L19.073 7.52143L11.9838 21.3645Z" fill="white"/>
<path d="M6.13806 16.1345L11.9838 20.1902L17.8295 16.1345L11.9838 4.7197L6.13806 16.1345ZM11.9838 2.60303L19.073 16.4461L11.9838 21.3645L4.89453 16.4461L11.9838 2.60303Z" fill="white"/>
</svg>
