<svg width="24" height="24" viewBox="0 0 24 24" fill="none" xmlns="http://www.w3.org/2000/svg">
<path fill-rule="evenodd" clip-rule="evenodd" d="M16.0004 0H7.99959C3.59991 0 0 3.55721 0 7.90471V16.0953C0 20.4422 3.59991 24 7.99959 24H16.0004C20.4007 24 24 20.4428 24 16.0953V7.90471C24 3.55721 20.4007 0 16.0004 0Z" fill="#00569D"/>
<path fill-rule="evenodd" clip-rule="evenodd" d="M15.945 15.1644C15.8616 15.2598 15.7752 15.3528 15.6864 15.4422C15.024 16.104 14.1846 16.5882 13.245 16.818L13.236 16.8198L13.2438 16.818C13.197 16.8264 13.1478 16.8318 13.098 16.8318C12.675 16.8318 12.333 16.4886 12.333 16.0662C12.333 15.7284 12.5514 15.4422 12.8544 15.3396L12.8418 15.3432C13.5216 15.186 14.1294 14.8386 14.6064 14.3616C14.6742 14.2944 14.7402 14.223 14.802 14.1498C14.9412 14.013 15.1308 13.9272 15.342 13.9272C15.765 13.9272 16.107 14.2704 16.107 14.6928C16.107 14.8704 16.0464 15.0348 15.945 15.1644Z" fill="white"/>
<path fill-rule="evenodd" clip-rule="evenodd" d="M17.1518 12.5481C17.1014 12.8823 16.7318 13.1061 16.4108 13.1061C16.0118 13.1061 15.5858 12.7035 15.6452 12.2937C15.6704 12.1203 15.6842 11.9427 15.6842 11.7615C15.6842 10.7457 15.2726 9.82653 14.6066 9.16113C13.9418 8.49573 13.022 8.08413 12.0068 8.08413C10.9916 8.08413 10.0718 8.49573 9.40636 9.16113C8.74096 9.82653 8.32936 10.7457 8.32936 11.7615C8.32936 12.7767 8.74096 13.6965 9.40636 14.3613C9.76816 14.7231 10.205 15.0099 10.691 15.1965C10.907 15.2781 11.0492 15.6261 11.0492 15.8451C11.0492 16.2747 10.7006 16.6239 10.2704 16.6239C10.187 16.6239 10.1234 16.6161 10.0466 16.5843C9.39736 16.3215 8.81476 15.9291 8.32636 15.4419C7.38376 14.4999 6.80176 13.1985 6.80176 11.7621C6.80176 10.3257 7.38436 9.02373 8.32636 8.08173C9.26836 7.13973 10.5692 6.55713 12.0068 6.55713C13.4438 6.55713 14.7446 7.13973 15.6866 8.08113C16.6292 9.02313 17.2112 10.3245 17.2112 11.7615C17.2112 12.0291 17.1914 12.2919 17.1518 12.5481Z" fill="white"/>
<path fill-rule="evenodd" clip-rule="evenodd" d="M19.5811 15.0775C19.4497 15.3115 19.1995 15.4699 18.9127 15.4699C18.6529 15.4699 18.4237 15.3415 18.2851 15.1441L18.2299 15.0535C18.1765 14.9491 18.1459 14.8297 18.1459 14.7043C18.1459 14.6107 18.1633 14.5213 18.1933 14.4385C18.5485 13.6183 18.7453 12.7135 18.7453 11.7625C18.7453 9.90192 17.9917 8.21652 16.7713 6.99672C15.5521 5.77692 13.8679 5.02332 12.0067 5.02332C10.1449 5.02332 8.46066 5.77692 7.24146 6.99672C6.02106 8.21652 5.26686 9.90192 5.26686 11.7625C5.26686 13.6231 6.02106 15.3085 7.24146 16.5277C8.35446 17.6419 9.85626 18.3679 11.5267 18.4849L11.5099 18.4837C11.7373 18.5077 11.9341 18.6307 12.0577 18.8095L12.1063 18.8905C12.1627 18.9961 12.1939 19.1167 12.1939 19.2445C12.1939 19.6627 11.8591 20.0017 11.4427 20.0095C9.38406 19.8715 7.53246 18.9793 6.16026 17.6077C4.66506 16.1119 3.73926 14.0449 3.73926 11.7619C3.73926 9.47892 4.66506 7.41192 6.16026 5.91672C7.65666 4.42032 9.72366 3.49512 12.0061 3.49512C14.2891 3.49512 16.3555 4.42032 17.8519 5.91672C19.3477 7.41252 20.2735 9.47952 20.2735 11.7619C20.2735 12.9409 20.0263 14.0617 19.5811 15.0775Z" fill="white"/>
</svg>
