<svg width="24" height="24" viewBox="0 0 24 24" fill="none" xmlns="http://www.w3.org/2000/svg">
<path d="M14.2578 23.985C12.5462 23.985 11.297 23.5727 10.51 22.7482C9.78104 22.0503 9.358 21.0921 9.33338 20.0832C9.32452 19.7767 9.39556 19.4732 9.53951 19.2024C9.67377 18.9685 9.86773 18.7744 10.1016 18.6399C10.6526 18.3651 11.3007 18.3651 11.8517 18.6399C12.0851 18.7738 12.2782 18.9681 12.4106 19.2024C12.5587 19.4718 12.6324 19.7759 12.6241 20.0832C12.6394 20.4503 12.5341 20.8122 12.3243 21.1138C12.1495 21.36 11.8996 21.5429 11.612 21.6351C11.8932 21.9931 12.2911 22.2411 12.7363 22.336C13.2344 22.4806 13.7503 22.555 14.269 22.557C14.9558 22.563 15.6284 22.3619 16.1991 21.9799C16.7912 21.5616 17.2327 20.9637 17.4583 20.2747C17.7442 19.4548 17.8838 18.5909 17.8705 17.7227C17.8936 16.8174 17.7409 15.9163 17.4208 15.0693C17.1801 14.3918 16.7231 13.8123 16.1204 13.4203C15.5602 13.0658 14.9099 12.8798 14.2469 12.8844C13.6692 12.9334 13.1122 13.1225 12.6241 13.4353L11.4208 14.0386V13.4353L16.8286 6.18068H9.33338V13.7089C9.31221 14.2522 9.45592 14.7891 9.74563 15.2492C10.0307 15.6569 10.5084 15.8858 11.0048 15.8525C11.4558 15.8434 11.8919 15.6897 12.2489 15.4141C12.6536 15.1175 13.0058 14.7552 13.2908 14.3422C13.3165 14.2698 13.3638 14.207 13.4263 14.1624C13.4765 14.119 13.5406 14.0951 13.607 14.095C13.7372 14.1068 13.8604 14.1592 13.9593 14.2448C14.0846 14.3847 14.1528 14.5666 14.1504 14.7544C14.1359 14.8807 14.1134 15.0058 14.0829 15.1292C13.8167 15.7736 13.3704 16.3277 12.7974 16.7252C12.2653 17.0853 11.6368 17.2762 10.9943 17.2729C9.37148 17.2729 8.24726 16.9531 7.62161 16.3135C6.97199 15.5994 6.63702 14.6539 6.69218 13.6901V6.18068H2.87988V4.78193H6.70995V1.59267L5.83306 0.715182V0H8.3776L9.33338 0.494755V4.78193L19.2345 4.75182L20.2203 5.74118L14.149 11.8419C14.5158 11.6944 14.9021 11.601 15.2957 11.5646C16.0749 11.5987 16.835 11.8157 17.5148 12.198C18.3019 12.5721 18.9652 13.1641 19.4262 13.9037C19.8392 14.5299 20.1315 15.2277 20.2882 15.9612C20.4169 16.5398 20.486 17.1301 20.4943 17.7228C20.4983 18.8539 20.2418 19.9708 19.7448 20.9869C19.2734 21.9708 18.48 22.7642 17.4961 23.2356C16.4889 23.7319 15.3806 23.9884 14.2578 23.985Z" fill="#2C7DF7"/>
</svg>
