<svg width="24" height="24" viewBox="0 0 24 24" fill="none" xmlns="http://www.w3.org/2000/svg">
<path d="M16.5215 10.0806V11.5093H20.4633C20.4303 11.1085 20.369 10.4625 20.2794 10.0806H16.5215Z" fill="url(#paint0_linear)"/>
<path d="M20.4638 12.4429H15.7676V13.8716H20.28C20.3695 13.4896 20.4308 12.8437 20.4638 12.4429Z" fill="url(#paint1_linear)"/>
<path d="M3.71514 13.8716H8.22752V12.4429H3.53125C3.56426 12.8437 3.62555 13.4896 3.71514 13.8716Z" fill="url(#paint2_linear)"/>
<path d="M3.71514 10.0806C3.62555 10.4625 3.56426 11.1085 3.53125 11.5093H7.4731V10.0806H3.71514Z" fill="url(#paint3_linear)"/>
<path d="M11.9672 11.7736C11.7456 12.6176 11.5098 13.4522 11.2599 14.2821C11.01 15.1119 10.746 15.9512 10.4678 16.7905H8.53928C8.33653 16.3237 8.12435 15.772 7.8886 15.1261C7.65284 14.4848 7.41237 13.7823 7.16247 13.0231C6.91257 12.264 6.65795 11.4624 6.3939 10.6137C6.12985 9.76497 5.87995 8.91153 5.63477 8.04395H8.25166C8.34125 8.44473 8.44027 8.87852 8.544 9.35004C8.65245 9.82155 8.7609 10.3072 8.87877 10.807C8.99665 11.3068 9.11925 11.8066 9.24655 12.3111C9.37386 12.8157 9.50589 13.3013 9.64262 13.7681C9.78879 13.2825 9.92553 12.7826 10.067 12.2734C10.2037 11.7642 10.3357 11.2644 10.4678 10.7693C10.5951 10.2742 10.7177 9.79797 10.8308 9.3406C10.9487 8.87852 11.0524 8.44945 11.1373 8.05338H12.9338C13.0234 8.45416 13.1224 8.88324 13.2308 9.3406C13.344 9.80269 13.4572 10.2789 13.5798 10.7693C13.7024 11.2644 13.8297 11.7642 13.9617 12.2734C14.0937 12.7826 14.2352 13.2825 14.3766 13.7681C14.5086 13.3013 14.6454 12.8204 14.7774 12.3111C14.9094 11.8066 15.0367 11.3068 15.1546 10.807C15.2725 10.3072 15.3809 9.82155 15.4894 9.35004C15.5978 8.87852 15.6921 8.44473 15.7817 8.04395H18.3609C18.1157 8.90681 17.8658 9.76497 17.6018 10.6137C17.3424 11.4624 17.0831 12.264 16.8332 13.0231C16.5833 13.7823 16.3381 14.4848 16.0976 15.1261C15.8572 15.7673 15.6403 16.3237 15.4375 16.7905H13.509C13.2308 15.9465 12.9621 15.1119 12.6933 14.2821C12.4293 13.4522 12.1841 12.6176 11.9672 11.7736Z" fill="url(#paint4_linear)"/>
<path d="M12 0.00927734C5.38942 0.00927734 0.0283203 5.36566 0.0283203 11.9763C0.0283203 18.5869 5.38471 23.9433 11.9953 23.9433C18.6059 23.9433 23.9623 18.5869 23.9623 11.9763C23.967 5.36566 18.6059 0.00927734 12 0.00927734ZM12 22.0431C6.44089 22.0431 1.93323 17.5354 1.93323 11.9763C1.93323 6.41714 6.44089 1.90947 12 1.90947C17.5592 1.90947 22.0668 6.41714 22.0668 11.9763C22.0668 17.5354 17.5592 22.0431 12 22.0431Z" fill="url(#paint5_linear)"/>
<defs>
<linearGradient id="paint0_linear" x1="7.68447" y1="12.3301" x2="16.0032" y2="3.33503" gradientUnits="userSpaceOnUse">
<stop stop-color="#6449DE"/>
<stop offset="0.35" stop-color="#854CD9"/>
<stop offset="0.75" stop-color="#AA48D4"/>
<stop offset="1" stop-color="#BD5AFD"/>
</linearGradient>
<linearGradient id="paint1_linear" x1="8.60965" y1="14.0993" x2="16.6011" y2="5.45811" gradientUnits="userSpaceOnUse">
<stop stop-color="#6449DE"/>
<stop offset="0.35" stop-color="#854CD9"/>
<stop offset="0.75" stop-color="#AA48D4"/>
<stop offset="1" stop-color="#BD5AFD"/>
</linearGradient>
<linearGradient id="paint2_linear" x1="2.06352" y1="13.5391" x2="10.055" y2="4.89788" gradientUnits="userSpaceOnUse">
<stop stop-color="#6449DE"/>
<stop offset="0.35" stop-color="#854CD9"/>
<stop offset="0.75" stop-color="#AA48D4"/>
<stop offset="1" stop-color="#BD5AFD"/>
</linearGradient>
<linearGradient id="paint3_linear" x1="0.732223" y1="11.4855" x2="9.05097" y2="2.49044" gradientUnits="userSpaceOnUse">
<stop stop-color="#6449DE"/>
<stop offset="0.35" stop-color="#854CD9"/>
<stop offset="0.75" stop-color="#AA48D4"/>
<stop offset="1" stop-color="#BD5AFD"/>
</linearGradient>
<linearGradient id="paint4_linear" x1="4.20479" y1="15.6511" x2="15.3987" y2="3.54714" gradientUnits="userSpaceOnUse">
<stop stop-color="#6449DE"/>
<stop offset="0.35" stop-color="#854CD9"/>
<stop offset="0.75" stop-color="#AA48D4"/>
<stop offset="1" stop-color="#BD5AFD"/>
</linearGradient>
<linearGradient id="paint5_linear" x1="4.77204" y1="19.788" x2="20.4146" y2="2.87367" gradientUnits="userSpaceOnUse">
<stop stop-color="#6449DE"/>
<stop offset="0.35" stop-color="#854CD9"/>
<stop offset="0.75" stop-color="#AA48D4"/>
<stop offset="1" stop-color="#BD5AFD"/>
</linearGradient>
</defs>
</svg>
