<svg width="24" height="24" viewBox="0 0 24 24" fill="none" xmlns="http://www.w3.org/2000/svg">
<path fill-rule="evenodd" clip-rule="evenodd" d="M12 0C18.6264 0 24 5.3736 24 12C24 18.6264 18.6264 24 12 24C5.3736 24 0 18.6264 0 12C0 5.3736 5.3736 0 12 0Z" fill="#006AE3"/>
<path d="M11.5054 17.0592V7.0752H12.5926V17.0592H11.5054Z" fill="white"/>
<path d="M17.04 10.4013L13.6824 11.2917L12.9336 7.80693L13.932 7.58133L14.3256 9.23253C14.3256 9.23253 15.2328 7.74453 14.0232 6.20373C13.3104 5.41173 12.972 5.37813 12.1728 5.25333C11.4696 5.15253 9.83519 5.39013 9.34799 7.29813C9.14159 8.52693 9.37439 9.43653 10.9584 10.6269L10.8696 11.9517C10.8696 11.9517 9.10079 10.7061 8.64479 9.83253C8.29199 9.14133 7.68719 7.77573 8.77919 5.87493C9.36719 4.92453 10.5264 4.01253 12.5688 4.10853C13.596 4.15173 16.104 5.40693 15.7152 8.33973C15.648 8.88933 15.3624 9.62133 15.3624 9.62133L16.74 9.31413L17.04 10.4013Z" fill="white"/>
<path d="M15.1223 18.2135C14.5079 19.1471 13.3247 20.0279 11.2871 19.8791C10.2599 19.8095 7.78789 18.4871 8.25349 15.5663C8.33509 15.0191 8.63989 14.2967 8.63989 14.2967L7.25509 14.5655L6.98389 13.4735L10.3655 12.6719L11.0231 16.1759L10.0175 16.3751L9.66709 14.7119C9.66709 14.7119 8.72149 16.1735 9.88789 17.7479C10.5791 18.5591 10.9151 18.5999 11.7143 18.7463C12.4127 18.8663 14.0543 18.6695 14.5919 16.7759C14.8295 15.5543 14.6207 14.6375 13.0703 13.4039L13.1951 12.0815C13.1951 12.0815 14.9303 13.3727 15.3623 14.2583C15.6935 14.9615 16.2623 16.3439 15.1223 18.2135Z" fill="white"/>
</svg>
