<svg width="24" height="24" viewBox="0 0 24 24" fill="none" xmlns="http://www.w3.org/2000/svg">
<mask id="mask0" mask-type="alpha" maskUnits="userSpaceOnUse" x="0" y="0" width="24" height="24">
<path d="M24 12C24 18.6275 18.6275 24 12 24C5.37247 24 0 18.6275 0 12C0 5.37247 5.37247 0 12 0C18.6275 0 24 5.37247 24 12Z" fill="white"/>
</mask>
<g mask="url(#mask0)">
<path fill-rule="evenodd" clip-rule="evenodd" d="M4.06897 0H2.00391L12.5187 9.85165H25.238V8.17518H12.8999L4.06897 0Z" fill="#FFFFFE"/>
<path fill-rule="evenodd" clip-rule="evenodd" d="M1.9707 24.6178H4.09329L12.8801 16.4426H25.2376V14.7432H12.5184L1.9707 24.6178Z" fill="#FFFFFE"/>
<path fill-rule="evenodd" clip-rule="evenodd" d="M-1.23828 2.92432V4.97561L6.93407 12.309L-1.23828 19.6269V21.663L8.81842 12.309L-1.23828 2.92432Z" fill="#F1AF2B"/>
<path fill-rule="evenodd" clip-rule="evenodd" d="M-1.23828 4.97559V19.581L6.67925 12.309L-1.23828 4.97559Z" fill="#0A0B09"/>
<path fill-rule="evenodd" clip-rule="evenodd" d="M-1.23828 4.97559L6.67925 12.309L-1.23828 19.581V19.6269L6.93407 12.309L-1.23828 4.97559Z" fill="#0A0B09"/>
<path fill-rule="evenodd" clip-rule="evenodd" d="M4.09375 24.6176H25.2381V16.4424H12.8806L4.09375 24.6176Z" fill="#283172"/>
<path fill-rule="evenodd" clip-rule="evenodd" d="M4.06836 0L12.8993 8.17518H25.2374V0H4.06836Z" fill="#CB3733"/>
<path fill-rule="evenodd" clip-rule="evenodd" d="M2.00313 0H-1.23828V2.92412L8.81842 12.3088L-1.23828 21.6628V24.6176H1.97031L12.518 14.7431H25.2373V9.85165H12.518L2.00313 0Z" fill="#16714A"/>
</g>
</svg>
