<svg width="24" height="24" viewBox="0 0 24 24" fill="none" xmlns="http://www.w3.org/2000/svg">
<path d="M20.9531 9.9172L17.4975 11.4579L8.33008 16.1242L17.4975 20.5318V13.2463L20.9531 11.689V22.4522L17.4975 23.9929L3.99951 17.5328V14.0992L13.343 9.51551L3.99951 5.02537V1.5422L7.51019 0.00146484L20.9531 6.47256V9.9172Z" fill="black"/>
<path d="M3.99951 1.54221L17.4975 8.01335L20.9531 6.47261L7.51019 0.00146484L3.99951 1.54221Z" fill="#087A8E"/>
<path d="M17.498 7.99874L20.9538 6.45801V9.90265L17.498 11.4434V7.99874Z" fill="#2A8E97"/>
<path d="M3.99951 1.54541V5.02858L13.343 9.51872L3.99951 14.1024V17.5361L17.4975 23.9962V20.5405L8.33008 16.1274L17.4975 11.4612V8.01651L3.99951 1.54541Z" fill="#49C1BF"/>
<path d="M17.498 23.9704L20.9538 22.4296V11.6665L17.498 13.2237V23.9704Z" fill="#2A8E97"/>
</svg>
