<svg width="24" height="24" viewBox="0 0 24 24" fill="none" xmlns="http://www.w3.org/2000/svg">
<path fill-rule="evenodd" clip-rule="evenodd" d="M7.88183 18.4843C6.69223 19.3913 5.50302 20.2978 4.31384 21.2044C1.6776 19.0066 0 15.6976 0 11.997C0 9.81819 0.581375 7.77531 1.59787 6.01465L7.05545 13.1539L5.03072 15.2613C5.26586 15.7385 5.61956 16.3385 6.1464 16.9554C6.7604 17.6744 7.39467 18.1649 7.88183 18.4843Z" fill="#004466"/>
<path fill-rule="evenodd" clip-rule="evenodd" d="M18.4706 16.0981C19.3776 17.2878 20.2841 18.477 21.1907 19.6662C18.9929 22.3024 15.684 23.98 11.9833 23.98C9.80448 23.98 7.7616 23.3986 6.00098 22.3821L13.1403 16.9246L15.2476 18.9493C15.7248 18.7142 16.3248 18.3605 16.9417 17.8336C17.6607 17.2196 18.1512 16.5853 18.4706 16.0981Z" fill="#004466"/>
<path fill-rule="evenodd" clip-rule="evenodd" d="M16.084 5.50963C17.2736 4.60266 18.4628 3.69611 19.652 2.78955C22.2882 4.98735 23.9658 8.29627 23.9658 11.9969C23.9658 14.1758 23.3845 16.2186 22.368 17.9793L16.9104 10.84L18.9351 8.73262C18.7 8.25539 18.3463 7.65542 17.8194 7.03851C17.2054 6.31954 16.5712 5.82906 16.084 5.50963Z" fill="#004466"/>
<path fill-rule="evenodd" clip-rule="evenodd" d="M5.4955 7.89602C4.58854 6.70639 3.68195 5.51721 2.77539 4.328C4.97322 1.69176 8.28214 0.0141602 11.9828 0.0141602C14.1616 0.0141602 16.2045 0.595535 17.9651 1.61203L10.8258 7.06961L8.71849 5.04492C8.24123 5.28002 7.64126 5.63372 7.02435 6.16056C6.30538 6.77459 5.81493 7.40886 5.4955 7.89602Z" fill="#004466"/>
</svg>
