<svg width="24" height="25" viewBox="0 0 24 25" fill="none" xmlns="http://www.w3.org/2000/svg">
<path d="M12.3348 21.4581C13.6963 21.4581 15.2815 21.049 16.2211 20.5376L15.8952 19.6428C15.2048 20.0199 13.773 20.5057 12.3667 20.5057C8.1416 20.5057 5.52086 17.7379 5.52086 13.4297C5.52086 9.17898 8.17356 6.34091 12.1622 6.34091C16.1764 6.34091 18.5223 9.38352 18.5223 12.701C18.5223 15.3409 17.9342 16.728 16.5407 16.728C15.7737 16.728 15.4349 16.2038 15.4349 15.3089V9.38352H14.393V10.5405H14.3291C14.0031 9.73509 12.9484 9.12145 11.6444 9.20455C9.68848 9.33878 8.17995 11.0263 8.17995 13.3466C8.17995 15.75 9.48393 17.6229 11.6444 17.674C13.0635 17.7124 13.9711 16.9453 14.3802 16.0249H14.4442C14.5464 17.2393 15.5883 17.6676 16.528 17.6676C18.9378 17.6676 19.545 15.1428 19.545 12.7138C19.545 8.89773 16.7836 5.40128 12.2133 5.40128C7.53436 5.40128 4.447 8.59091 4.447 13.3977C4.447 18.3132 7.46404 21.4581 12.3348 21.4581ZM11.7787 16.6705C10.0848 16.6705 9.20268 15.0916 9.20268 13.2955C9.20268 11.6016 10.251 10.1761 11.8106 10.1761C13.4214 10.1761 14.4442 11.1541 14.4442 13.2955C14.4442 15.424 13.5109 16.6705 11.7787 16.6705Z" fill="#95A7AE"/>
</svg>
