<svg width="21" height="17" viewBox="0 0 21 17" fill="none" xmlns="http://www.w3.org/2000/svg">
<path d="M10.4854 7.66992L17.126 1.0293C17.585 0.570313 18.3272 0.570313 18.7813 1.0293L19.8848 2.13281C20.3438 2.5918 20.3438 3.33398 19.8848 3.78809L15.1826 8.5L19.8897 13.207C20.3486 13.666 20.3486 14.4082 19.8897 14.8623L18.7861 15.9707C18.3272 16.4297 17.585 16.4297 17.1309 15.9707L10.4902 9.33008C10.0264 8.87109 10.0264 8.12891 10.4854 7.66992ZM1.11035 9.33008L7.75098 15.9707C8.20996 16.4297 8.95215 16.4297 9.40625 15.9707L10.5098 14.8672C10.9688 14.4082 10.9688 13.666 10.5098 13.2119L5.80762 8.5L10.5147 3.79297C10.9736 3.33398 10.9736 2.5918 10.5147 2.1377L9.41114 1.0293C8.95215 0.570313 8.20996 0.570313 7.75586 1.0293L1.11524 7.66992C0.65137 8.12891 0.65137 8.87109 1.11035 9.33008Z" fill="white"/>
</svg>
