<svg width="23" height="22" viewBox="0 0 23 22" fill="none" xmlns="http://www.w3.org/2000/svg">
<path d="M20.1429 21.5H2.85714C1.55531 21.5 0.5 20.4927 0.5 19.25V2.75C0.5 1.50734 1.55531 0.5 2.85714 0.5H20.1429C21.4447 0.5 22.5 1.50734 22.5 2.75V19.25C22.5 20.4927 21.4447 21.5 20.1429 21.5ZM10.0913 16.9035L19.127 8.27848C19.4338 7.98561 19.4338 7.51072 19.127 7.21784L18.0159 6.1572C17.7091 5.86433 17.2116 5.86428 16.9047 6.1572L9.53571 13.1912L6.09532 9.90716C5.7885 9.61428 5.29099 9.61428 4.98412 9.90716L3.87297 10.9678C3.56615 11.2607 3.56615 11.7356 3.87297 12.0284L8.98012 16.9034C9.28699 17.1964 9.78444 17.1964 10.0913 16.9035Z" fill="#D0FFF7"/>
</svg>
