<svg width="25" height="24" viewBox="0 0 25 24" fill="none" xmlns="http://www.w3.org/2000/svg">
<path fill-rule="evenodd" clip-rule="evenodd" d="M11.9333 4H19.4444C19.9967 4 20.4444 4.44772 20.4444 5V15.8C20.4444 16.3523 19.9967 16.8 19.4444 16.8H11.9333C11.381 16.8 10.9333 16.3523 10.9333 15.8V5C10.9333 4.44772 11.381 4 11.9333 4ZM9.93333 5C9.93333 3.89543 10.8288 3 11.9333 3H19.4444C20.549 3 21.4444 3.89543 21.4444 5V15.8C21.4444 16.9046 20.549 17.8 19.4444 17.8H16.1889V19.0889C16.1889 20.4696 15.0696 21.5889 13.6889 21.5889H7C5.61928 21.5889 4.5 20.4696 4.5 19.0889V9.11111C4.5 7.7304 5.61929 6.61111 7 6.61111H9.93333V5ZM9.93333 7.61111H7C6.17157 7.61111 5.5 8.28268 5.5 9.11111V19.0889C5.5 19.9173 6.17157 20.5889 7 20.5889H13.6889C14.5173 20.5889 15.1889 19.9173 15.1889 19.0889V17.8H11.9333C10.8288 17.8 9.93333 16.9046 9.93333 15.8V7.61111Z" fill="#A2EFE1"/>
</svg>
