<svg width="25" height="24" viewBox="0 0 25 24" fill="none" xmlns="http://www.w3.org/2000/svg">
<path opacity="0.5" d="M11 6C12.24 7.16 12.48 8.42 12.5 10.5C12.5 11.06 13.1999 13.42 13.7399 13.5C13.7999 13.52 15.4601 12.04 15.5201 12.04C16.1401 12.04 15.98 10.62 16 10C16 9.94 15.5 11.56 15.5 11.5C15.5 11.42 16.3199 11.2 16.3399 11C16.3399 10.82 13.38 12.88 13.5 13C14.56 14.16 11.8999 12.48 11.8999 14C11.8999 15.3 11.06 13.48 10 14.5C8.92 15.54 13.88 15 12.5 15C11.12 15 14.08 15.02 13 14C11.94 12.98 14.5 16.8 14.5 15.5C14.5 13.44 13.4399 16.24 14.5399 15C15.7999 13.58 11.2199 6.56 11.3399 5.62C11.3599 5.46 10.68 5.5 11 5.5V6ZM10.6799 4C10.5399 4 10.4199 4.06 10.3399 4.18C10.2599 4.32 10.3799 4.62 10.5199 5C10.7999 5.86 9.93991 7.24 8.71991 8.62C7.57991 9.92 6.15991 11.52 6.15991 13.9C6.15991 17.1 9.17991 20 12.4999 20C15.8199 20 18.8399 17.1 18.8399 13.9C18.8399 11.88 17.8799 9.88 16.2799 8.54L16.0799 8.38C15.9799 8.3 15.8799 8.26 15.7599 8.26C15.5799 8.26 15.3999 8.36 15.3199 8.54C15.2599 8.68 15.1999 10.08 15.1999 10.32C15.1999 10.36 15.1999 10.44 15.1999 10.46C15.1999 10.64 15.0599 10.78 14.8799 10.78C14.8599 10.78 14.8399 10.78 14.8199 10.78C14.6599 10.76 14.5399 10.6 14.5399 10.44C14.5199 8.04 13.7999 6.36 12.4399 5.1C11.8199 4.52 11.1199 4 10.6799 4Z" fill="url(#paint0_linear_1815:15763)"/>
<path d="M11.9 5.68C13.14 6.84 13.72 8.34 13.74 10.42C13.74 10.98 14.14 11.46 14.68 11.54C14.74 11.56 14.8 11.56 14.86 11.56C15.48 11.56 15.96 11.08 15.98 10.46C15.98 10.4 15.98 10.36 15.98 10.3C15.98 10.22 15.98 10.04 16 9.83999C16 9.66 16.22 9.58 16.34 9.7C17.4 10.86 18.02 12.36 18.02 13.88C18.02 15.18 17.4 16.52 16.34 17.54C15.26 18.58 13.86 19.16 12.48 19.16C11.1 19.16 9.69997 18.56 8.61997 17.54C7.55997 16.52 6.93997 15.18 6.93997 13.88C6.93997 11.82 8.19997 10.38 9.29997 9.14C10.56 7.72 11.22 6.56 11.34 5.62C11.36 5.46 11.54 5.4 11.66 5.5L11.9 5.68ZM10.68 4C10.54 4 10.42 4.06 10.34 4.18C10.26 4.32 10.38 4.62 10.52 5C10.8 5.86 9.93997 7.24 8.71997 8.62C7.57997 9.92 6.15997 11.52 6.15997 13.9C6.15997 17.1 9.17997 20 12.5 20C15.82 20 18.84 17.1 18.84 13.9C18.84 11.88 17.88 9.87999 16.28 8.54L16.08 8.38C15.98 8.3 15.88 8.26 15.76 8.26C15.58 8.26 15.4 8.36 15.32 8.54C15.26 8.68 15.2 10.08 15.2 10.32C15.2 10.36 15.2 10.44 15.2 10.46C15.2 10.64 15.06 10.78 14.88 10.78C14.86 10.78 14.84 10.78 14.82 10.78C14.66 10.76 14.54 10.6 14.54 10.44C14.52 8.04 13.8 6.36 12.44 5.1C11.82 4.52 11.12 4 10.68 4Z" fill="url(#paint1_linear_1815:15763)"/>
<defs>
<linearGradient id="paint0_linear_1815:15763" x1="6.15991" y1="3.80488" x2="21.2403" y2="18.1492" gradientUnits="userSpaceOnUse">
<stop stop-color="#04AB8D"/>
<stop offset="0.541668" stop-color="#79FFCF"/>
<stop offset="1" stop-color="#00B78B"/>
</linearGradient>
<linearGradient id="paint1_linear_1815:15763" x1="6.15997" y1="3.80488" x2="21.2404" y2="18.1492" gradientUnits="userSpaceOnUse">
<stop stop-color="#04AB8D"/>
<stop offset="0.541668" stop-color="#79FFCF"/>
<stop offset="1" stop-color="#00B78B"/>
</linearGradient>
</defs>
</svg>
