<svg width="25" height="25" viewBox="0 0 25 25" fill="none" xmlns="http://www.w3.org/2000/svg">
<path d="M18.391 18.2378C18.3344 19.1628 17.77 19.7587 17.2802 20.1054C16.8286 20.4251 16.2639 20.5 15.7107 20.5H9.35405C8.81905 20.5 8.275 20.4294 7.82853 20.1347C7.31051 19.7927 6.69113 19.1894 6.62633 18.2378M18.391 18.2378C18.4207 17.7529 18.3107 17.1774 17.9772 16.5C17.1047 14.7281 16.0498 13.6539 15.3324 13.0713C15.0109 12.8103 15.0141 12.1943 15.3375 11.9356C16.0638 11.3547 17.1287 10.279 17.9772 8.5C18.9088 6.54653 18.0205 5.44107 17.2874 4.90753C16.8332 4.57705 16.2595 4.5 15.6979 4.5H9.34324C8.81524 4.5 8.27916 4.56866 7.83537 4.85474C7.04168 5.36639 5.99765 6.47967 7.04624 8.5C7.9747 10.2889 9.02395 11.3667 9.71979 11.9453C10.0306 12.2037 10.0281 12.7918 9.71548 13.0481C9.01157 13.6251 7.95284 14.7042 7.04632 16.5C6.70435 17.1774 6.59331 17.7529 6.62633 18.2378M18.391 18.2378L12.7412 15.1326C12.591 15.05 12.409 15.0501 12.259 15.1329L6.62633 18.2378" stroke="#95A7AE" stroke-linejoin="round"/>
</svg>
