<svg width="18" height="19" viewBox="0 0 18 19" fill="none" xmlns="http://www.w3.org/2000/svg">
<path d="M10.3024 16.8861C11.2723 16.715 12.1991 16.3546 13.0297 15.8254C13.8604 15.2962 14.5787 14.6086 15.1436 13.8018C15.7086 12.995 16.109 12.0849 16.3222 11.1233C16.5354 10.1617 16.5571 9.16759 16.3861 8.19764C16.215 7.22769 15.8546 6.30092 15.3254 5.47025C14.7962 4.63958 14.1086 3.92128 13.3018 3.35636C12.495 2.79144 11.5849 2.39095 10.6233 2.17778C9.66173 1.96461 8.66759 1.94291 7.69764 2.11394C6.72769 2.28497 5.80092 2.64537 4.97025 3.17456C4.13958 3.70376 3.42128 4.39138 2.85636 5.19818C2.29144 6.00497 1.89095 6.91514 1.67778 7.8767C1.46461 8.83827 1.44291 9.83241 1.61394 10.8024C1.78497 11.7723 2.14537 12.6991 2.67457 13.5297C3.20376 14.3604 3.89138 15.0787 4.69818 15.6436C5.50497 16.2086 6.41514 16.609 7.3767 16.8222C8.33827 17.0354 9.33241 17.0571 10.3024 16.8861L10.3024 16.8861Z" stroke="#95A7AE"/>
<path d="M9 9.5L9 14" stroke="#95A7AE" stroke-linecap="square"/>
<path d="M9 5.75L9 5" stroke="#95A7AE" stroke-linecap="square"/>
</svg>
