<svg width="72" height="73" viewBox="0 0 72 73" fill="none" xmlns="http://www.w3.org/2000/svg">
<rect x="0.5" y="1" width="71" height="71" rx="7.5" fill="#A2EFE1"/>
<path d="M30.7969 40H35.5003L35.5003 49.2299L35.5003 49.262C35.5003 49.68 35.5003 50.0357 35.5277 50.2907C35.5415 50.4191 35.5664 50.5698 35.6266 50.7046C35.6919 50.8507 35.8303 51.0404 36.089 51.0974C36.3477 51.1544 36.553 51.0403 36.6736 50.9352C36.7849 50.8382 36.8708 50.7119 36.9372 50.6012C37.0693 50.3813 37.2187 50.0585 37.3943 49.6792L37.4078 49.65L43.4725 36.5503L43.4896 36.5134C43.7709 35.9058 44.0056 35.3988 44.1272 34.9859C44.2536 34.5564 44.2962 34.1046 44.0327 33.6923C43.7692 33.28 43.3413 33.1288 42.8985 33.0631C42.4727 33 41.914 33 41.2445 33L41.2038 33H36.5003V23.7701V23.7381C36.5003 23.32 36.5004 22.9643 36.4729 22.7093C36.4591 22.5809 36.4343 22.4302 36.374 22.2954C36.3087 22.1493 36.1704 21.9596 35.9116 21.9026C35.6529 21.8456 35.4476 21.9597 35.327 22.0648C35.2157 22.1618 35.1299 22.2881 35.0634 22.3988C34.9314 22.6187 34.7819 22.9415 34.6063 23.3209L34.5929 23.35L28.5282 36.4497L28.5111 36.4866C28.2298 37.0942 27.995 37.6012 27.8735 38.0141C27.747 38.4436 27.7045 38.8953 27.9679 39.3077C28.2314 39.72 28.6593 39.8712 29.1021 39.9369C29.5279 40 30.0866 40 30.7561 40H30.7969Z" fill="#05141A" stroke="black"/>
<rect x="0.5" y="1" width="71" height="71" rx="7.5" stroke="#9EFFEE"/>
</svg>
