<svg width="72" height="73" viewBox="0 0 72 73" fill="none" xmlns="http://www.w3.org/2000/svg">
<rect x="0.5" y="1" width="71" height="71" rx="7.5" fill="#A2EFE1"/>
<path fill-rule="evenodd" clip-rule="evenodd" d="M50.6075 23.9487L38.4372 18.7329C36.6751 17.9777 34.6805 17.9777 32.9185 18.7329L20.7482 23.9487C19.8897 24.3167 19.333 25.1608 19.333 26.0949V38.3603C19.333 42.8848 21.5181 47.1307 25.1998 49.7606L32.9635 55.306C34.5872 56.4658 36.7685 56.4658 38.3922 55.306L46.1559 49.7606C49.8376 47.1307 52.0226 42.8848 52.0226 38.3603V26.0949C52.0226 25.1608 51.466 24.3167 50.6075 23.9487ZM43.9365 32.5638C44.4904 31.8713 44.3782 30.8609 43.6857 30.3069C42.9933 29.753 41.9829 29.8653 41.4289 30.5577L33.2097 40.8318L29.8082 37.4303C29.1812 36.8033 28.1645 36.8033 27.5375 37.4303C26.9105 38.0573 26.9105 39.074 27.5375 39.701L31.5732 43.7367C32.5882 44.7517 34.2602 44.6591 35.1569 43.5382L43.9365 32.5638Z" fill="#05141A"/>
<rect x="0.5" y="1" width="71" height="71" rx="7.5" stroke="#9EFFEE"/>
</svg>
