<svg width="470" height="767" viewBox="0 0 470 767" fill="none" xmlns="http://www.w3.org/2000/svg">
<path d="M235.661 1.19266V1.57345C236.042 3.47739 236.042 5.76212 236.042 8.04685V282.595C235.661 284.118 234.519 284.499 233.376 285.261C225.38 289.069 217.764 292.496 209.768 295.923C198.725 300.873 187.301 306.204 176.258 311.154L136.275 329.432C125.233 334.382 114.19 339.333 103.528 344.283C90.5809 350.375 77.2533 356.087 64.3065 362.18C53.2636 367.13 42.2208 372.461 30.7971 377.411C21.6582 381.6 12.5193 385.408 3.76115 389.597C2.99957 389.977 2.238 390.358 1.47642 390.358C1.09563 390.358 1.09563 390.358 0.714844 389.977L10.9961 372.842C30.7971 340.094 50.2173 307.727 70.0183 274.979C90.9616 239.947 112.286 204.914 133.229 169.882C152.649 137.515 172.45 105.148 191.871 72.7808C205.96 49.172 220.43 25.5631 234.519 1.95423C234.9 1.19266 235.28 0.811869 235.28 0.050293H235.661C235.28 0.431081 235.661 0.811869 235.661 1.19266Z" fill="#8A92B2" fill-opacity="0.2"/>
<path d="M234.966 2.17784C235.04 2.02972 235.115 1.89612 235.189 1.76576C235.54 3.59272 235.542 5.78673 235.542 8.04685V282.531C235.379 283.134 235.077 283.508 234.682 283.823C234.471 283.992 234.232 284.145 233.961 284.31C233.707 284.465 233.417 284.635 233.129 284.824C225.151 288.623 217.551 292.043 209.571 295.463L209.563 295.466C204.041 297.942 198.424 300.512 192.809 303.082L192.805 303.084C187.188 305.654 181.573 308.224 176.054 310.698L176.05 310.699L136.071 328.976C125.029 333.926 113.983 338.877 103.317 343.829L103.315 343.83C96.846 346.875 90.2814 349.824 83.7122 352.775L83.7104 352.776C77.1445 355.726 70.5739 358.678 64.0977 361.725C59.602 363.741 55.1152 365.815 50.6058 367.9C44.0172 370.946 37.3807 374.014 30.5983 376.953L30.5888 376.957C26.8605 378.666 23.1214 380.316 19.4045 381.956C14.0383 384.324 8.71859 386.671 3.54539 389.145L3.53754 389.149C2.74694 389.545 2.097 389.858 1.47642 389.858C1.43015 389.858 1.39598 389.858 1.36974 389.858L11.424 373.101C21.3247 356.726 31.1303 340.447 40.9355 324.169C50.7408 307.89 60.5459 291.612 70.4462 275.238L70.4475 275.236C80.917 257.723 91.4818 240.21 102.047 222.697L102.052 222.689L102.053 222.686C112.62 205.171 123.187 187.655 133.658 170.138C143.368 153.956 153.172 137.774 162.977 121.591L162.977 121.59C172.783 105.407 182.589 89.2227 192.299 73.0381L192.3 73.0371C199.344 61.2341 206.483 49.431 213.622 37.6263L213.623 37.6257C220.762 25.8217 227.903 14.0162 234.948 2.21046L234.958 2.19448L234.966 2.17784Z" stroke="white" stroke-opacity="0.5"/>
<path d="M469.435 389.978L469.815 390.359L413.84 423.488L237.915 527.443C237.154 527.824 236.392 528.204 236.012 528.585C234.869 528.585 234.869 527.443 234.869 527.062V523.635V288.308C234.869 287.166 234.869 285.642 235.25 284.5C235.631 282.977 236.773 283.358 237.915 283.739C242.866 286.023 248.197 288.308 253.147 290.593C267.998 297.447 282.848 304.301 297.699 310.774C310.646 316.486 323.212 322.579 336.159 328.291C349.106 334.003 362.052 340.095 374.999 345.807C386.042 350.757 397.466 356.088 408.509 361.039C419.551 365.989 430.975 371.32 442.018 376.27C450.776 380.078 459.534 384.267 468.292 388.074C468.292 389.217 468.673 389.598 469.435 389.978Z" fill="#454A75" fill-opacity="0.2"/>
<path d="M235.73 284.64L235.724 284.658C235.374 285.708 235.369 287.142 235.369 288.308V523.635V527.062C235.369 527.261 235.374 527.543 235.472 527.77C235.516 527.873 235.572 527.945 235.639 527.992C235.681 528.022 235.743 528.053 235.837 528.07C236.051 527.894 236.31 527.73 236.573 527.58C236.915 527.384 237.303 527.19 237.676 527.004L413.585 423.057L413.585 423.057L468.953 390.288C468.649 390.114 468.369 389.9 468.162 389.589C467.944 389.263 467.836 388.876 467.803 388.407C463.517 386.539 459.231 384.582 454.949 382.628L454.947 382.627C450.568 380.628 446.193 378.63 441.819 376.729L441.813 376.726C436.292 374.251 430.676 371.681 425.062 369.112L425.055 369.109C419.438 366.538 413.823 363.969 408.304 361.495C402.782 359.019 397.165 356.449 391.55 353.879L391.546 353.877L391.545 353.877C385.929 351.307 380.314 348.738 374.796 346.264C368.32 343.407 361.845 340.455 355.374 337.505L355.372 337.504C348.898 334.553 342.427 331.603 335.957 328.748C329.479 325.89 323.097 322.938 316.72 319.987L316.719 319.986C310.34 317.035 303.967 314.086 297.498 311.232C297.498 311.232 297.498 311.232 297.497 311.232L297.699 310.774C282.848 304.301 267.998 297.447 253.147 290.593C250.672 289.45 248.102 288.308 245.531 287.166C242.961 286.023 240.391 284.881 237.915 283.739L235.73 284.64ZM235.73 284.64L235.735 284.621C235.816 284.299 235.923 284.132 236.014 284.044C236.098 283.963 236.2 283.918 236.347 283.903C236.505 283.887 236.705 283.909 236.954 283.969C237.195 284.027 237.451 284.111 237.731 284.204L235.73 284.64Z" stroke="white" stroke-opacity="0.5"/>
<path d="M235.634 765.053C235.634 765.434 235.253 765.814 235.253 766.195H234.872C234.872 765.434 234.111 765.053 233.73 764.291C210.121 731.163 186.512 697.653 162.903 664.525C138.914 630.635 114.543 596.364 90.5535 562.473C67.3254 529.726 43.7166 496.597 20.4885 463.849C14.3959 455.091 8.30326 446.714 2.21065 437.956C1.82986 437.194 1.44908 436.813 0.6875 435.671C1.82986 435.671 2.59144 436.432 2.97223 436.813C36.1008 456.233 68.8486 475.654 101.977 495.074C140.056 517.54 177.754 540.007 215.833 562.473L235.253 573.897C236.015 574.659 236.015 575.42 236.015 576.182V759.722C236.015 761.626 236.015 763.53 235.634 765.053Z" fill="#8A92B2" fill-opacity="0.2"/>
<path d="M235.149 764.931L235.134 764.991V765.053C235.134 765.088 235.119 765.139 235.071 765.246C234.993 765.126 234.908 765.02 234.828 764.923C234.763 764.846 234.702 764.775 234.644 764.707C234.453 764.488 234.297 764.306 234.177 764.068L234.16 764.033L234.137 764.001C222.334 747.438 210.53 730.78 198.726 714.122L198.724 714.119C186.92 697.459 175.115 680.799 163.31 664.234C151.316 647.29 139.226 630.25 127.136 613.21L127.135 613.208C115.045 596.168 102.956 579.129 90.9616 562.185L90.9613 562.184C79.3471 545.81 67.6377 529.341 55.9285 512.872L55.9237 512.865C44.2165 496.399 32.5094 479.933 20.8976 463.562C17.8502 459.181 14.8031 454.896 11.7577 450.614L11.757 450.613C8.71725 446.338 5.67917 442.066 2.64132 437.699C2.43952 437.301 2.23666 436.999 1.99874 436.665C1.97855 436.637 1.95815 436.609 1.93749 436.58C2.21688 436.769 2.44252 436.991 2.61868 437.167L2.66403 437.212L2.71937 437.245C19.283 446.954 35.7516 456.664 52.2207 466.374L52.2215 466.375C68.6902 476.085 85.1596 485.795 101.724 495.505C120.762 506.737 139.705 517.97 158.648 529.202L158.65 529.204L158.654 529.206C177.597 540.438 196.54 551.671 215.579 562.904L215.579 562.904L234.942 574.294C235.506 574.884 235.515 575.446 235.515 576.182V759.722C235.515 761.645 235.511 763.481 235.149 764.931Z" stroke="white" stroke-opacity="0.5"/>
<path d="M0.3125 390.74V390.359C12.4977 385.028 24.3022 379.317 36.4874 373.986C52.0997 366.751 67.712 359.896 83.3243 352.661C95.1288 347.33 107.314 341.618 119.118 336.287C136.635 328.291 153.77 320.675 171.286 312.679C183.091 307.348 194.895 302.017 207.08 296.305C215.458 292.497 224.216 288.689 232.593 284.881C233.355 284.5 234.497 284.119 234.878 283.358C235.259 283.358 235.259 283.739 234.878 284.119V525.92C234.878 527.062 234.497 528.205 235.259 528.966C234.497 530.109 233.736 528.966 233.355 528.585C229.928 526.682 226.501 524.778 223.074 522.493C149.581 479.083 75.7086 435.292 2.21644 391.883C1.83565 391.502 1.07408 391.121 0.3125 390.74Z" fill="#62688F" fill-opacity="0.2"/>
<path d="M234.378 284.547V525.92C234.378 526.181 234.356 526.446 234.332 526.728L234.33 526.755C234.307 527.022 234.283 527.308 234.283 527.586C234.283 528.031 234.345 528.509 234.607 528.941C234.588 528.952 234.575 528.956 234.569 528.958C234.552 528.962 234.51 528.969 234.412 528.913C234.309 528.854 234.194 528.753 234.067 528.62C234.037 528.59 234.009 528.559 233.98 528.527C233.949 528.493 233.918 528.459 233.887 528.424L233.885 528.421C233.829 528.359 233.767 528.29 233.708 528.232L233.659 528.182L233.598 528.148C230.168 526.243 226.759 524.349 223.351 522.077L223.34 522.069L223.328 522.062C186.582 500.358 149.741 478.558 112.9 456.757C76.0754 434.967 39.251 413.177 2.52159 391.482C2.28665 391.261 1.9744 391.06 1.65534 390.877C1.47376 390.773 1.27952 390.67 1.08154 390.568C6.98286 387.978 12.7968 385.302 18.606 382.628L18.609 382.627C24.6071 379.866 30.6002 377.107 36.6878 374.444L36.6878 374.444L36.6976 374.439C44.501 370.823 52.3049 367.302 60.1114 363.779L60.1115 363.779L60.1128 363.779C67.9174 360.257 75.7246 356.734 83.5322 353.116C89.4351 350.45 95.4329 347.689 101.429 344.929L101.43 344.929C107.428 342.168 113.424 339.408 119.324 336.743L119.326 336.742C128.083 332.745 136.745 328.842 145.408 324.939L145.408 324.939C154.071 321.036 162.735 317.132 171.494 313.133L171.494 313.133C183.297 307.803 195.103 302.471 207.29 296.759C211.476 294.856 215.757 292.953 220.04 291.05C224.323 289.146 228.609 287.241 232.8 285.336L232.809 285.332L232.817 285.328C232.955 285.259 233.104 285.191 233.269 285.116C233.32 285.093 233.373 285.069 233.427 285.044C233.649 284.942 233.89 284.828 234.121 284.699C234.206 284.652 234.292 284.602 234.378 284.547Z" stroke="white" stroke-opacity="0.5"/>
<path d="M468.695 435.671H469.075C469.075 436.432 468.314 437.194 467.933 437.956C397.868 536.58 327.803 635.585 257.738 734.209C250.503 744.49 242.887 754.771 235.652 765.053C235.271 764.672 235.271 764.291 235.271 763.91V761.626V576.943V573.516C251.265 563.997 266.877 554.858 282.87 545.338C344.558 508.782 406.245 472.607 467.552 436.052C467.933 436.432 468.314 436.052 468.695 435.671Z" fill="#62688F" fill-opacity="0.2"/>
<path d="M257.33 733.919L257.329 733.921C253.714 739.059 250.003 744.197 246.29 749.338L246.289 749.339C242.758 754.229 239.224 759.122 235.772 764.015C235.772 763.982 235.771 763.947 235.771 763.91V761.626V576.943V573.801C243.684 569.092 251.504 564.475 259.325 559.858L259.325 559.857C267.226 555.193 275.128 550.528 283.126 545.768C306.94 531.656 330.755 517.6 354.548 503.557C392.297 481.277 429.991 459.029 467.542 436.64C467.615 436.671 467.693 436.692 467.776 436.703C467.909 436.719 468.032 436.704 468.143 436.674C468.1 436.739 468.054 436.808 468.007 436.879C467.836 437.136 467.643 437.425 467.504 437.696C432.485 486.99 397.465 536.378 362.446 585.767L362.428 585.793C327.395 635.2 292.363 684.607 257.33 733.919Z" stroke="white" stroke-opacity="0.5"/>
<path d="M235.256 284.117V283.355V281.071V4.61833C235.256 3.47596 234.875 2.71439 235.637 1.57202C312.937 129.898 390.237 257.842 467.156 386.168C467.917 387.31 469.06 388.834 469.441 390.357C464.109 388.453 459.159 385.787 454.209 383.503C448.116 380.837 441.643 377.791 435.55 375.125C431.742 373.221 427.554 371.698 423.746 369.794C417.273 366.748 410.799 364.082 404.326 361.036C400.518 359.513 396.71 357.609 392.902 355.705L367.77 344.281C363.581 342.377 359.393 340.474 354.823 338.57L336.545 330.573C332.738 329.05 328.93 327.146 325.122 325.242L299.99 313.818C295.801 311.914 291.612 310.01 287.043 308.107L268.765 300.11C264.576 298.206 260.769 296.302 256.58 294.398C249.345 290.971 242.11 287.544 234.494 284.498C235.637 284.117 235.256 284.117 235.256 284.117Z" fill="#62688F" fill-opacity="0.2"/>
<path d="M256.788 293.943C249.884 290.673 242.966 287.396 235.714 284.45C235.779 284.36 235.862 284.193 235.79 283.979C235.781 283.95 235.769 283.923 235.756 283.898V283.355V281.071V4.61833C235.756 4.30643 235.73 4.02337 235.706 3.77365C235.705 3.76547 235.704 3.75734 235.704 3.74925C235.68 3.5035 235.661 3.29792 235.661 3.09517C235.661 2.94699 235.671 2.80046 235.702 2.64923C256.664 37.4481 277.626 72.2189 298.58 106.977C354.733 200.12 410.83 293.172 466.727 386.425L466.733 386.435L466.74 386.445C466.85 386.61 466.965 386.779 467.083 386.953C467.387 387.399 467.71 387.872 468.012 388.377C468.24 388.756 468.447 389.139 468.618 389.522C465.207 388.235 461.954 386.661 458.724 385.099C457.288 384.405 455.857 383.713 454.419 383.049L454.409 383.045C451.367 381.713 448.229 380.287 445.087 378.859C441.95 377.433 438.809 376.005 435.762 374.672C433.849 373.716 431.843 372.856 429.852 372.003L429.845 372C427.843 371.142 425.858 370.291 423.97 369.347L423.959 369.342C420.716 367.816 417.474 366.386 414.239 364.958L414.238 364.958C411 363.529 407.769 362.104 404.539 360.584L404.525 360.577L404.511 360.572C400.726 359.058 396.937 357.164 393.126 355.258L393.117 355.254L393.109 355.25L367.977 343.826L367.972 343.824C363.787 341.922 359.593 340.016 355.019 338.109C355.018 338.109 355.017 338.108 355.016 338.108L336.746 330.115L336.739 330.112L336.731 330.109C332.946 328.595 329.157 326.701 325.345 324.795L325.337 324.791L325.329 324.787L300.197 313.363L300.194 313.362C296.008 311.459 291.814 309.553 287.238 307.646C287.237 307.646 287.236 307.645 287.235 307.645L268.972 299.655C268.971 299.654 268.97 299.654 268.969 299.653C266.88 298.704 264.886 297.754 262.888 296.803L262.887 296.803C260.89 295.852 258.888 294.898 256.791 293.945L256.788 293.943Z" stroke="white" stroke-opacity="0.5"/>
</svg>
