<svg width="715" height="773" viewBox="0 0 715 773" fill="none" xmlns="http://www.w3.org/2000/svg">
<path d="M329.661 4.19266V4.57345C330.042 6.47739 330.042 8.76212 330.042 11.0468V285.595C329.661 287.118 328.519 287.499 327.376 288.261C319.38 292.069 311.764 295.496 303.768 298.923C292.725 303.873 281.301 309.204 270.258 314.154L230.275 332.432C219.233 337.382 208.19 342.333 197.528 347.283C184.581 353.375 171.253 359.087 158.306 365.18C147.264 370.13 136.221 375.461 124.797 380.411C115.658 384.6 106.519 388.408 97.7611 392.597C96.9996 392.977 96.238 393.358 95.4764 393.358C95.0956 393.358 95.0956 393.358 94.7148 392.977L104.996 375.842C124.797 343.094 144.217 310.727 164.018 277.979C184.962 242.947 206.286 207.914 227.229 172.882C246.649 140.515 266.45 108.148 285.871 75.7808C299.96 52.172 314.43 28.5631 328.519 4.95423C328.9 4.19266 329.28 3.81187 329.28 3.05029H329.661C329.28 3.43108 329.661 3.81187 329.661 4.19266Z" fill="#8A92B2" fill-opacity="0.2"/>
<path d="M328.966 5.17784C329.04 5.02972 329.115 4.89612 329.189 4.76576C329.54 6.59272 329.542 8.78673 329.542 11.0468V285.531C329.379 286.134 329.077 286.508 328.682 286.823C328.471 286.992 328.232 287.145 327.961 287.31C327.707 287.465 327.417 287.635 327.129 287.824C319.151 291.623 311.551 295.043 303.571 298.463L303.563 298.466C298.041 300.942 292.424 303.512 286.809 306.082L286.805 306.084C281.188 308.654 275.573 311.224 270.054 313.698L270.05 313.699L230.071 331.976C219.029 336.926 207.983 341.877 197.317 346.829L197.315 346.83C190.846 349.875 184.281 352.824 177.712 355.775L177.71 355.776C171.144 358.726 164.574 361.678 158.098 364.725C153.602 366.741 149.115 368.815 144.606 370.9C138.017 373.946 131.381 377.014 124.598 379.953L124.589 379.957C120.861 381.666 117.121 383.316 113.404 384.956C108.038 387.324 102.719 389.671 97.5454 392.145L97.5375 392.149C96.7469 392.545 96.097 392.858 95.4764 392.858C95.4302 392.858 95.396 392.858 95.3697 392.858L105.424 376.101C115.325 359.726 125.13 343.447 134.936 327.169C144.741 310.89 154.546 294.612 164.446 278.238L164.447 278.236C174.917 260.723 185.482 243.21 196.047 225.697L196.052 225.689L196.053 225.686C206.62 208.171 217.187 190.655 227.658 173.138C237.368 156.956 247.172 140.774 256.977 124.591L256.977 124.59C266.783 108.407 276.589 92.2227 286.299 76.0381L286.3 76.0371C293.344 64.2341 300.483 52.431 307.622 40.6263L307.623 40.6257C314.762 28.8217 321.903 17.0162 328.948 5.21046L328.958 5.19448L328.966 5.17784Z" stroke="white" stroke-opacity="0.5"/>
<path d="M563.435 392.978L563.815 393.359L507.84 426.488L331.915 530.443C331.154 530.824 330.392 531.204 330.012 531.585C328.869 531.585 328.869 530.443 328.869 530.062V526.635V291.308C328.869 290.166 328.869 288.642 329.25 287.5C329.631 285.977 330.773 286.358 331.915 286.739C336.866 289.023 342.197 291.308 347.147 293.593C361.998 300.447 376.848 307.301 391.699 313.774C404.646 319.486 417.212 325.579 430.159 331.291C443.106 337.003 456.052 343.095 468.999 348.807C480.042 353.757 491.466 359.088 502.509 364.039C513.551 368.989 524.975 374.32 536.018 379.27C544.776 383.078 553.534 387.267 562.292 391.074C562.292 392.217 562.673 392.598 563.435 392.978Z" fill="#454A75" fill-opacity="0.2"/>
<path d="M329.73 287.64L329.724 287.658C329.374 288.708 329.369 290.142 329.369 291.308V526.635V530.062C329.369 530.261 329.374 530.543 329.472 530.77C329.516 530.873 329.572 530.945 329.639 530.992C329.681 531.022 329.743 531.053 329.837 531.07C330.051 530.894 330.31 530.73 330.573 530.58C330.915 530.384 331.303 530.19 331.676 530.004L507.585 426.057L507.585 426.057L562.953 393.288C562.649 393.114 562.369 392.9 562.162 392.589C561.944 392.263 561.836 391.876 561.803 391.407C557.517 389.539 553.231 387.582 548.949 385.628L548.947 385.627C544.568 383.628 540.193 381.63 535.819 379.729L535.813 379.726C530.292 377.251 524.676 374.681 519.062 372.112L519.055 372.109C513.438 369.538 507.823 366.969 502.304 364.495C496.782 362.019 491.165 359.449 485.55 356.879L485.546 356.877L485.545 356.877C479.929 354.307 474.314 351.738 468.796 349.264C462.32 346.407 455.845 343.455 449.374 340.505L449.372 340.504C442.898 337.553 436.427 334.603 429.957 331.748C423.479 328.89 417.097 325.938 410.72 322.987L410.719 322.986C404.34 320.035 397.967 317.086 391.498 314.232C391.498 314.232 391.498 314.232 391.497 314.232L391.699 313.774C376.848 307.301 361.998 300.447 347.147 293.593C344.672 292.45 342.102 291.308 339.531 290.166C336.961 289.023 334.391 287.881 331.915 286.739L329.73 287.64ZM329.73 287.64L329.735 287.621C329.816 287.299 329.923 287.132 330.014 287.044C330.098 286.963 330.2 286.918 330.347 286.903C330.505 286.887 330.705 286.909 330.954 286.969C331.195 287.027 331.451 287.111 331.731 287.204L329.73 287.64Z" stroke="white" stroke-opacity="0.5"/>
<path d="M329.634 768.053C329.634 768.434 329.253 768.814 329.253 769.195H328.872C328.872 768.434 328.111 768.053 327.73 767.291C304.121 734.163 280.512 700.653 256.903 667.525C232.914 633.635 208.543 599.364 184.553 565.473C161.325 532.726 137.717 499.597 114.488 466.849C108.396 458.091 102.303 449.714 96.2107 440.956C95.8299 440.194 95.4491 439.813 94.6875 438.671C95.8299 438.671 96.5914 439.432 96.9722 439.813C130.101 459.233 162.849 478.654 195.977 498.074C234.056 520.54 271.754 543.007 309.833 565.473L329.253 576.897C330.015 577.659 330.015 578.42 330.015 579.182V762.722C330.015 764.626 330.015 766.53 329.634 768.053Z" fill="#8A92B2" fill-opacity="0.2"/>
<path d="M329.149 767.931L329.134 767.991V768.053C329.134 768.088 329.119 768.139 329.071 768.246C328.993 768.126 328.908 768.02 328.828 767.923C328.763 767.846 328.702 767.775 328.644 767.707C328.453 767.488 328.297 767.306 328.177 767.068L328.16 767.033L328.137 767.001C316.334 750.438 304.53 733.78 292.726 717.122L292.724 717.119C280.92 700.459 269.115 683.799 257.31 667.234C245.316 650.29 233.226 633.25 221.136 616.21L221.135 616.208C209.045 599.168 196.956 582.129 184.962 565.185L184.961 565.184C173.347 548.81 161.638 532.341 149.928 515.872L149.924 515.865C138.216 499.399 126.509 482.933 114.898 466.562C111.85 462.181 108.803 457.896 105.758 453.614L105.757 453.613C102.717 449.338 99.6792 445.066 96.6413 440.699C96.4395 440.301 96.2367 439.999 95.9987 439.665C95.9786 439.637 95.9581 439.609 95.9375 439.58C96.2169 439.769 96.4425 439.991 96.6187 440.167L96.664 440.212L96.7194 440.245C113.283 449.954 129.752 459.664 146.221 469.374L146.221 469.375C162.69 479.085 179.16 488.795 195.724 498.505C214.762 509.737 233.705 520.97 252.648 532.202L252.65 532.204L252.654 532.206C271.597 543.438 290.54 554.671 309.579 565.904L309.579 565.904L328.942 577.294C329.506 577.884 329.515 578.446 329.515 579.182V762.722C329.515 764.645 329.511 766.481 329.149 767.931Z" stroke="white" stroke-opacity="0.5"/>
<path d="M94.3125 393.74V393.359C106.498 388.028 118.302 382.317 130.487 376.986C146.1 369.751 161.712 362.896 177.324 355.661C189.129 350.33 201.314 344.618 213.118 339.287C230.635 331.291 247.77 323.675 265.286 315.679C277.091 310.348 288.895 305.017 301.08 299.305C309.458 295.497 318.216 291.689 326.593 287.881C327.355 287.5 328.497 287.119 328.878 286.358C329.259 286.358 329.259 286.739 328.878 287.119V528.92C328.878 530.062 328.497 531.205 329.259 531.966C328.497 533.109 327.736 531.966 327.355 531.585C323.928 529.682 320.501 527.778 317.074 525.493C243.581 482.083 169.709 438.292 96.2164 394.883C95.8357 394.502 95.0741 394.121 94.3125 393.74Z" fill="#62688F" fill-opacity="0.2"/>
<path d="M328.378 287.547V528.92C328.378 529.181 328.356 529.446 328.332 529.728L328.33 529.755C328.307 530.022 328.283 530.308 328.283 530.586C328.283 531.031 328.345 531.509 328.607 531.941C328.588 531.952 328.575 531.956 328.569 531.958C328.552 531.962 328.51 531.969 328.412 531.913C328.309 531.854 328.194 531.753 328.067 531.62C328.037 531.59 328.009 531.559 327.98 531.527C327.949 531.493 327.918 531.459 327.887 531.424L327.885 531.421C327.829 531.359 327.767 531.29 327.708 531.232L327.659 531.182L327.598 531.148C324.168 529.243 320.759 527.349 317.351 525.077L317.34 525.069L317.328 525.062C280.582 503.358 243.741 481.558 206.9 459.757C170.075 437.967 133.251 416.177 96.5216 394.482C96.2866 394.261 95.9744 394.06 95.6553 393.877C95.4738 393.773 95.2795 393.67 95.0815 393.568C100.983 390.978 106.797 388.302 112.606 385.628L112.609 385.627C118.607 382.866 124.6 380.107 130.688 377.444L130.688 377.444L130.698 377.439C138.501 373.823 146.305 370.302 154.111 366.779L154.111 366.779L154.113 366.779C161.917 363.257 169.725 359.734 177.532 356.116C183.435 353.45 189.433 350.689 195.429 347.929L195.43 347.929C201.428 345.168 207.424 342.408 213.324 339.743L213.326 339.742C222.083 335.745 230.745 331.842 239.408 327.939L239.408 327.939C248.071 324.036 256.735 320.132 265.494 316.133L265.494 316.133C277.297 310.803 289.103 305.471 301.29 299.759C305.476 297.856 309.757 295.953 314.04 294.05C318.323 292.146 322.609 290.241 326.8 288.336L326.809 288.332L326.817 288.328C326.955 288.259 327.104 288.191 327.269 288.116C327.32 288.093 327.373 288.069 327.427 288.044C327.649 287.942 327.89 287.828 328.121 287.699C328.206 287.652 328.292 287.602 328.378 287.547Z" stroke="white" stroke-opacity="0.5"/>
<path d="M562.695 438.671H563.075C563.075 439.432 562.314 440.194 561.933 440.956C491.868 539.58 421.803 638.585 351.738 737.209C344.503 747.49 336.887 757.771 329.652 768.053C329.271 767.672 329.271 767.291 329.271 766.91V764.626V579.943V576.516C345.265 566.997 360.877 557.858 376.87 548.338C438.558 511.782 500.245 475.607 561.552 439.052C561.933 439.432 562.314 439.052 562.695 438.671Z" fill="#62688F" fill-opacity="0.2"/>
<path d="M351.33 736.919L351.329 736.921C347.714 742.059 344.003 747.197 340.29 752.338L340.289 752.339C336.758 757.229 333.224 762.122 329.772 767.015C329.772 766.982 329.771 766.947 329.771 766.91V764.626V579.943V576.801C337.684 572.092 345.504 567.475 353.325 562.858L353.325 562.857C361.226 558.193 369.128 553.528 377.126 548.768C400.94 534.656 424.755 520.6 448.548 506.557C486.297 484.277 523.991 462.029 561.542 439.64C561.615 439.671 561.693 439.692 561.776 439.703C561.909 439.719 562.032 439.704 562.143 439.674C562.1 439.739 562.054 439.808 562.007 439.879C561.836 440.136 561.643 440.425 561.504 440.696C526.485 489.99 491.465 539.378 456.446 588.767L456.428 588.793C421.395 638.2 386.363 687.607 351.33 736.919Z" stroke="white" stroke-opacity="0.5"/>
<path d="M329.256 287.117V286.355V284.071V7.61833C329.256 6.47596 328.875 5.71439 329.637 4.57202C406.937 132.898 484.237 260.842 561.156 389.168C561.917 390.31 563.06 391.834 563.441 393.357C558.109 391.453 553.159 388.787 548.209 386.503C542.116 383.837 535.643 380.791 529.55 378.125C525.742 376.221 521.554 374.698 517.746 372.794C511.273 369.748 504.799 367.082 498.326 364.036C494.518 362.513 490.71 360.609 486.902 358.705L461.77 347.281C457.581 345.377 453.393 343.474 448.823 341.57L430.545 333.573C426.738 332.05 422.93 330.146 419.122 328.242L393.99 316.818C389.801 314.914 385.612 313.01 381.043 311.107L362.765 303.11C358.576 301.206 354.769 299.302 350.58 297.398C343.345 293.971 336.11 290.544 328.494 287.498C329.637 287.117 329.256 287.117 329.256 287.117Z" fill="#62688F" fill-opacity="0.2"/>
<path d="M350.788 296.943C343.884 293.673 336.966 290.396 329.714 287.45C329.779 287.36 329.862 287.193 329.79 286.979C329.781 286.95 329.769 286.923 329.756 286.898V286.355V284.071V7.61833C329.756 7.30643 329.73 7.02337 329.706 6.77365C329.705 6.76547 329.704 6.75734 329.704 6.74925C329.68 6.5035 329.661 6.29792 329.661 6.09517C329.661 5.94699 329.671 5.80046 329.702 5.64923C350.664 40.4481 371.626 75.2189 392.58 109.977C448.733 203.12 504.83 296.172 560.727 389.425L560.733 389.435L560.74 389.445C560.85 389.61 560.965 389.779 561.083 389.953C561.387 390.399 561.71 390.872 562.012 391.377C562.24 391.756 562.447 392.139 562.618 392.522C559.207 391.235 555.954 389.661 552.724 388.099C551.288 387.405 549.857 386.713 548.419 386.049L548.409 386.045C545.367 384.713 542.229 383.287 539.087 381.859C535.95 380.433 532.809 379.005 529.762 377.672C527.849 376.716 525.843 375.856 523.852 375.003L523.845 375C521.843 374.142 519.858 373.291 517.97 372.347L517.959 372.342C514.716 370.816 511.474 369.386 508.239 367.958L508.238 367.958C505 366.529 501.769 365.104 498.539 363.584L498.525 363.577L498.511 363.572C494.726 362.058 490.937 360.164 487.126 358.258L487.117 358.254L487.109 358.25L461.977 346.826L461.972 346.824C457.787 344.922 453.593 343.016 449.019 341.109C449.018 341.109 449.017 341.108 449.016 341.108L430.746 333.115L430.739 333.112L430.731 333.109C426.946 331.595 423.157 329.701 419.345 327.795L419.337 327.791L419.329 327.787L394.197 316.363L394.194 316.362C390.008 314.459 385.814 312.553 381.238 310.646C381.237 310.646 381.236 310.645 381.235 310.645L362.972 302.655C362.971 302.654 362.97 302.654 362.969 302.653C360.88 301.704 358.886 300.754 356.888 299.803L356.887 299.803C354.89 298.852 352.888 297.898 350.791 296.945L350.788 296.943Z" stroke="white" stroke-opacity="0.5"/>
</svg>
