<svg width="25" height="25" viewBox="0 0 25 25" fill="none" xmlns="http://www.w3.org/2000/svg">
<path d="M10.6299 14.8H12V19.2299L12 19.262C12 19.68 12 20.0357 12.0274 20.2907C12.0412 20.4191 12.066 20.5698 12.1263 20.7046C12.1916 20.8507 12.33 21.0404 12.5887 21.0974C12.8474 21.1544 13.0527 21.0403 13.1733 20.9352C13.2846 20.8382 13.3704 20.7119 13.4369 20.6012C13.569 20.3813 13.7184 20.0585 13.894 19.6791L13.9075 19.65L16.6388 13.7503L16.6559 13.7134C16.9372 13.1058 17.172 12.5988 17.2935 12.1859C17.42 11.7564 17.4625 11.3046 17.199 10.8923C16.9356 10.48 16.5077 10.3288 16.0649 10.2631C15.6391 10.2 15.0803 10.2 14.4108 10.2L14.3701 10.2H13V5.77013L13 5.73804C13 5.32003 13 4.9643 12.9726 4.70926C12.9588 4.58088 12.934 4.43022 12.8737 4.29539C12.8084 4.14932 12.67 3.9596 12.4113 3.90262C12.1526 3.84563 11.9473 3.95966 11.8267 4.06479C11.7154 4.16183 11.6296 4.28811 11.5631 4.39881C11.431 4.61873 11.2816 4.94155 11.106 5.32089L11.0925 5.35L8.3612 11.2497L8.3441 11.2866C8.0628 11.8942 7.82804 12.4012 7.70647 12.8141C7.58003 13.2436 7.53747 13.6954 7.80095 14.1077C8.06444 14.52 8.49231 14.6712 8.93515 14.7369C9.36092 14.8 9.91965 14.8 10.5892 14.8L10.6299 14.8Z" stroke="#95A7AE"/>
</svg>
