<svg width="24" height="24" viewBox="0 0 24 24" fill="none" xmlns="http://www.w3.org/2000/svg">
<mask id="path-2-inside-1_1846_2390" fill="white">
<path d="M8.14609 4.98948C9.8392 4.05872 11.812 3.77215 13.6999 4.18269C15.5879 4.59324 17.2635 5.67317 18.4172 7.22299C19.5709 8.7728 20.1247 10.6878 19.9764 12.6142C19.8281 14.5405 18.9876 16.3482 17.6102 17.7031C16.2329 19.058 14.4117 19.8687 12.4832 19.9854C10.5546 20.1021 8.64897 19.5169 7.1183 18.3379C5.58763 17.1589 4.53535 15.4658 4.15584 13.5714C3.77634 11.6769 4.09526 9.70915 5.05368 8.03154L5.9425 8.53932C5.10671 10.0023 4.8286 11.7183 5.15954 13.3703C5.49049 15.0224 6.40812 16.4988 7.74294 17.5269C9.07775 18.5551 10.7395 19.0654 12.4213 18.9636C14.1031 18.8619 15.6913 18.1549 16.8924 16.9734C18.0935 15.7918 18.8264 14.2155 18.9558 12.5356C19.0851 10.8557 18.6021 9.18574 17.5961 7.83423C16.59 6.48272 15.1288 5.54097 13.4824 5.18296C11.836 4.82494 10.1157 5.07485 8.63922 5.88651L8.14609 4.98948Z"/>
</mask>
<path d="M8.14609 4.98948C9.8392 4.05872 11.812 3.77215 13.6999 4.18269C15.5879 4.59324 17.2635 5.67317 18.4172 7.22299C19.5709 8.7728 20.1247 10.6878 19.9764 12.6142C19.8281 14.5405 18.9876 16.3482 17.6102 17.7031C16.2329 19.058 14.4117 19.8687 12.4832 19.9854C10.5546 20.1021 8.64897 19.5169 7.1183 18.3379C5.58763 17.1589 4.53535 15.4658 4.15584 13.5714C3.77634 11.6769 4.09526 9.70915 5.05368 8.03154L5.9425 8.53932C5.10671 10.0023 4.8286 11.7183 5.15954 13.3703C5.49049 15.0224 6.40812 16.4988 7.74294 17.5269C9.07775 18.5551 10.7395 19.0654 12.4213 18.9636C14.1031 18.8619 15.6913 18.1549 16.8924 16.9734C18.0935 15.7918 18.8264 14.2155 18.9558 12.5356C19.0851 10.8557 18.6021 9.18574 17.5961 7.83423C16.59 6.48272 15.1288 5.54097 13.4824 5.18296C11.836 4.82494 10.1157 5.07485 8.63922 5.88651L8.14609 4.98948Z" stroke="#95A7AE" stroke-width="2" mask="url(#path-2-inside-1_1846_2390)"/>
<path d="M6.4 9.2L6.4 9.2C6.50137 9.50412 6.55206 9.65618 6.60276 9.7225C6.80288 9.98431 7.19712 9.98431 7.39724 9.7225C7.44794 9.65618 7.49863 9.50412 7.6 9.2L7.6 9.2C7.68177 8.95468 7.72266 8.83201 7.77555 8.72099C7.97291 8.30672 8.30672 7.97291 8.72099 7.77555C8.83201 7.72266 8.95468 7.68177 9.2 7.6L9.2 7.6C9.50412 7.49863 9.65618 7.44794 9.7225 7.39724C9.98431 7.19712 9.98431 6.80288 9.7225 6.60276C9.65618 6.55206 9.50412 6.50137 9.2 6.4L9.2 6.4C8.95468 6.31822 8.83201 6.27734 8.72099 6.22445C8.30672 6.02709 7.97291 5.69329 7.77555 5.27901C7.72266 5.16799 7.68177 5.04532 7.6 4.8C7.49863 4.49588 7.44794 4.34382 7.39724 4.2775C7.19712 4.01569 6.80288 4.01569 6.60276 4.2775C6.55206 4.34382 6.50137 4.49588 6.4 4.8C6.31823 5.04532 6.27734 5.16799 6.22445 5.27901C6.02709 5.69329 5.69329 6.02709 5.27901 6.22445C5.16799 6.27734 5.04532 6.31823 4.8 6.4C4.49588 6.50137 4.34382 6.55206 4.2775 6.60276C4.01569 6.80288 4.01569 7.19712 4.2775 7.39724C4.34382 7.44794 4.49588 7.49863 4.8 7.6C5.04532 7.68177 5.16799 7.72266 5.27901 7.77555C5.69329 7.97291 6.02709 8.30672 6.22445 8.72099C6.27734 8.83201 6.31822 8.95468 6.4 9.2Z" fill="#7E869E" fill-opacity="0.25" stroke="#95A7AE"/>
</svg>
