<svg width="24" height="24" viewBox="0 0 24 24" fill="none" xmlns="http://www.w3.org/2000/svg">
<path d="M21 3V2.5H21.5V3H21ZM11.3536 13.3536C11.1583 13.5488 10.8417 13.5488 10.6464 13.3536C10.4512 13.1583 10.4512 12.8417 10.6464 12.6464L11.3536 13.3536ZM20.5 11V3H21.5V11H20.5ZM21 3.5H13V2.5H21V3.5ZM21.3536 3.35355L11.3536 13.3536L10.6464 12.6464L20.6464 2.64645L21.3536 3.35355Z" fill="white"/>
<path d="M20 15V15C20 16.8692 20 17.8038 19.5981 18.5C19.3348 18.9561 18.9561 19.3348 18.5 19.5981C17.8038 20 16.8692 20 15 20H10C7.17157 20 5.75736 20 4.87868 19.1213C4 18.2426 4 16.8284 4 14V9C4 7.13077 4 6.19615 4.40192 5.5C4.66523 5.04394 5.04394 4.66523 5.5 4.40192C6.19615 4 7.13077 4 9 4V4" stroke="white" stroke-linecap="round"/>
</svg>
