<svg width="18" height="19" viewBox="0 0 18 19" fill="none" xmlns="http://www.w3.org/2000/svg">
<path d="M10.6021 3.02109L11.0374 2.97756L11.0355 2.95827L11.0319 2.93923L10.6021 3.02109ZM10.6021 3.02107L10.1668 3.0646L10.1687 3.08389L10.1723 3.10293L10.6021 3.02107ZM10.7214 3.77007L10.3217 3.94797L10.3217 3.94797L10.7214 3.77007ZM11.8345 4.23112L11.6776 3.82269L11.6776 3.82269L11.8345 4.23112ZM12.4484 3.78586L12.1812 3.43921L12.1714 3.44726L12.4484 3.78586ZM12.4484 3.78585L12.7156 4.1325L12.7255 4.12446L12.4484 3.78585ZM12.789 3.53383L12.5916 3.14339L12.5916 3.14339L12.789 3.53383ZM13.6543 3.57699L13.4191 3.94585L13.6543 3.57699ZM13.9682 3.86166L14.2776 3.5523L14.2776 3.5523L13.9682 3.86166ZM13.9682 3.86167L14.2776 3.55231V3.55231L13.9682 3.86167ZM14.6383 4.53177L14.329 4.84113L14.329 4.84113L14.6383 4.53177ZM14.923 4.84564L14.5541 5.0809V5.0809L14.923 4.84564ZM14.9662 5.71095L14.5757 5.51356L14.5757 5.51356L14.9662 5.71095ZM14.7141 6.05157L14.3754 5.7744L14.3674 5.78482L14.7141 6.05157ZM14.7141 6.05159L14.3673 5.78482L14.3641 5.78909L14.7141 6.05159ZM14.7141 6.0516L15.0527 6.32864L15.0586 6.32149L15.0641 6.3141L14.7141 6.0516ZM14.2689 6.66554L13.8604 6.5087V6.5087L14.2689 6.66554ZM14.7299 7.7786L14.552 8.1783L14.7299 7.7786ZM15.4789 7.89789L15.5508 7.46634L15.5367 7.46399L15.5224 7.46256L15.4789 7.89789ZM15.4789 7.89789L15.407 8.32944L15.4211 8.33179L15.4354 8.33322L15.4789 7.89789ZM15.898 7.96055L16.0345 7.54489L15.898 7.96055ZM16.4794 8.60291L16.9065 8.50844L16.9065 8.50844L16.4794 8.60291ZM16.4794 10.397L16.0522 10.3026V10.3026L16.4794 10.397ZM15.898 11.0395L16.0344 11.4551H16.0344L15.898 11.0395ZM15.479 11.1021L15.4354 10.6668L15.4142 10.6689L15.3932 10.6731L15.479 11.1021ZM15.479 11.1021L15.5225 11.5374L15.5438 11.5353L15.5648 11.5311L15.479 11.1021ZM14.7304 11.2213L14.9082 11.621L14.9082 11.621L14.7304 11.2213ZM14.2692 12.3346L14.6776 12.1777L14.6776 12.1777L14.2692 12.3346ZM14.7142 12.9482L15.0783 12.7055L15.0664 12.6877L15.0528 12.6711L14.7142 12.9482ZM14.7142 12.9482L14.3502 13.1909L14.3621 13.2087L14.3756 13.2252L14.7142 12.9482ZM14.9661 13.2886L15.3566 13.0912L15.3566 13.0912L14.9661 13.2886ZM14.923 14.1541L15.2918 14.3894L15.2918 14.3894L14.923 14.1541ZM14.6384 14.4678L14.3291 14.1584V14.1584L14.6384 14.4678ZM13.9682 15.138L14.2776 15.4473V15.4473L13.9682 15.138ZM13.6544 15.4227L13.4191 15.0538L13.4191 15.0538L13.6544 15.4227ZM12.7891 15.4658L12.5917 15.8563L12.5917 15.8563L12.7891 15.4658ZM12.4485 15.2138L12.7256 14.8751L12.7171 14.8685L12.4485 15.2138ZM12.4484 15.2138L12.1713 15.5525L12.1798 15.5591L12.4484 15.2138ZM11.8345 14.7685L11.9913 14.3601L11.8345 14.7685ZM10.7214 15.2296L10.3217 15.0517L10.7214 15.2296ZM10.6021 15.9787L11.0374 16.0223V16.0223L10.6021 15.9787ZM10.5394 16.3981L10.9551 16.5347V16.5347L10.5394 16.3981ZM9.89716 16.9793L9.99168 17.4065L9.99168 17.4065L9.89716 16.9793ZM8.10291 16.9794L8.00844 17.4065H8.00844L8.10291 16.9794ZM7.46054 16.398L7.04488 16.5345L7.46054 16.398ZM7.39788 15.9789L7.83321 15.9354L7.83179 15.9211L7.82943 15.907L7.39788 15.9789ZM7.39788 15.9789L6.96255 16.0224L6.96398 16.0367L6.96633 16.0508L7.39788 15.9789ZM7.27859 15.2299L6.8789 15.4078L6.8789 15.4078L7.27859 15.2299ZM6.16554 14.7689L6.32237 15.1773L6.32237 15.1773L6.16554 14.7689ZM5.55155 15.2142L5.27451 14.8756L5.25762 14.8894L5.2422 14.9048L5.55155 15.2142ZM5.55155 15.2142L5.82859 15.5528L5.84548 15.539L5.86091 15.5235L5.55155 15.2142ZM5.21088 15.4662L5.40826 15.8567L5.21088 15.4662ZM4.3456 15.4231L4.58086 15.0542L4.58086 15.0542L4.3456 15.4231ZM4.0317 15.1384L3.72234 15.4477L4.0317 15.1384ZM3.36163 14.4683L3.67099 14.1589H3.67099L3.36163 14.4683ZM3.07693 14.1544L2.70806 14.3896H2.70806L3.07693 14.1544ZM3.03377 13.2891L2.64333 13.0917L2.64333 13.0917L3.03377 13.2891ZM3.28583 12.9484L3.62444 13.2255L3.63406 13.2137L3.64284 13.2013L3.28583 12.9484ZM3.28584 12.9484L2.94723 12.6714L2.93761 12.6831L2.92883 12.6955L3.28584 12.9484ZM3.7311 12.3345L3.32268 12.1776L3.7311 12.3345ZM3.27006 11.2214L3.09216 11.6211H3.09216L3.27006 11.2214ZM2.52108 11.1021L2.47754 11.5374H2.47754L2.52108 11.1021ZM2.10199 11.0395L2.23849 10.6238H2.23849L2.10199 11.0395ZM1.52064 10.3971L1.09346 10.4915H1.09346L1.52064 10.3971ZM1.52066 8.60285L1.09349 8.50834L1.52066 8.60285ZM2.10191 7.96057L2.23846 8.37622L2.23846 8.37622L2.10191 7.96057ZM2.52116 7.89788L2.47968 7.46235L2.47762 7.46255L2.52116 7.89788ZM2.52117 7.89788L2.56265 8.33342L2.5647 8.33321L2.52117 7.89788ZM3.27045 7.77853L3.44841 8.1782L3.27045 7.77853ZM3.73143 6.66562L4.13988 6.50884L3.73143 6.66562ZM3.28596 6.05135L3.62457 5.77431L3.61075 5.75742L3.59532 5.74199L3.28596 6.05135ZM3.28596 6.05135L2.94736 6.32839L2.96117 6.34528L2.9766 6.3607L3.28596 6.05135ZM3.03375 5.71045L3.42422 5.51312L3.42422 5.51311L3.03375 5.71045ZM3.0769 4.84536L3.44579 5.08057L3.44579 5.08057L3.0769 4.84536ZM3.36175 4.53128L3.05239 4.22192L3.05239 4.22192L3.36175 4.53128ZM4.03173 3.8613L3.72237 3.55194L3.72237 3.55194L4.03173 3.8613ZM4.34563 3.57659L4.11038 3.20773L4.34563 3.57659ZM5.21091 3.53344L5.40829 3.14299L5.40829 3.14299L5.21091 3.53344ZM5.55165 3.78555L5.82869 3.44694L5.55165 3.78555ZM6.16545 4.23073L6.00856 4.63913L6.16545 4.23073ZM7.27868 3.76962L7.6784 3.94746V3.94746L7.27868 3.76962ZM7.39789 3.02098L7.83322 3.06451L7.83539 3.0428V3.02098H7.39789ZM7.39789 3.02097L6.96257 2.97744L6.96039 2.99915V3.02097H7.39789ZM7.46051 2.60207L7.04484 2.4656L7.04484 2.4656L7.46051 2.60207ZM8.103 2.02062L8.00857 1.59344V1.59344L8.103 2.02062ZM9.89707 2.02064L9.99154 1.59347V1.59347L9.89707 2.02064ZM10.5394 2.60198L10.9551 2.46547L10.9551 2.46547L10.5394 2.60198ZM11.0319 2.93923L11.0319 2.93921L10.1723 3.10293L10.1723 3.10295L11.0319 2.93923ZM11.1211 3.59217C11.1176 3.58442 11.1048 3.54917 11.0887 3.43904C11.073 3.33183 11.0585 3.18855 11.0374 2.97756L10.1668 3.06462C10.187 3.26719 10.2036 3.43409 10.2229 3.56582C10.2418 3.69462 10.2679 3.82709 10.3217 3.94797L11.1211 3.59217ZM11.6776 3.82269C11.4603 3.90614 11.2157 3.80482 11.1211 3.59217L10.3217 3.94797C10.6056 4.58593 11.3394 4.88987 11.9913 4.63954L11.6776 3.82269ZM12.1714 3.44726C12.0072 3.58153 11.8957 3.67263 11.8088 3.73734C11.7195 3.80381 11.6855 3.81965 11.6776 3.82269L11.9913 4.63954C12.1148 4.59211 12.2269 4.51691 12.3314 4.43918C12.4381 4.35967 12.5679 4.25338 12.7254 4.12447L12.1714 3.44726ZM12.1813 3.43935L12.1813 3.43936L12.7155 4.13237L12.7155 4.13236L12.1813 3.43935ZM12.5916 3.14339C12.4531 3.21345 12.3241 3.32226 12.1714 3.44724L12.7255 4.12446C12.9131 3.97092 12.9544 3.94047 12.9864 3.92427L12.5916 3.14339ZM13.8896 3.20813C13.4987 2.95884 13.0054 2.93423 12.5916 3.14339L12.9864 3.92427C13.1243 3.85455 13.2888 3.86275 13.4191 3.94585L13.8896 3.20813ZM14.2776 3.5523C14.138 3.41273 14.0205 3.29163 13.8896 3.20813L13.4191 3.94585C13.4494 3.96516 13.4874 3.99957 13.6589 4.17102L14.2776 3.5523ZM14.2776 3.55231L14.2776 3.5523L13.6588 4.17102L13.6589 4.17103L14.2776 3.55231ZM14.9477 4.22241L14.2776 3.55231L13.6589 4.17102L14.329 4.84113L14.9477 4.22241ZM15.2919 4.61038C15.2084 4.47946 15.0872 4.36198 14.9477 4.22241L14.329 4.84113C14.5004 5.01259 14.5348 5.05063 14.5541 5.0809L15.2919 4.61038ZM15.3566 5.90834C15.5658 5.49461 15.5412 5.00124 15.2919 4.61038L14.5541 5.0809C14.6372 5.21119 14.6454 5.37565 14.5757 5.51356L15.3566 5.90834ZM15.0527 6.32861C15.1777 6.17586 15.2865 6.04691 15.3566 5.90834L14.5757 5.51356C14.5595 5.5456 14.5291 5.58687 14.3755 5.77453L15.0527 6.32861ZM15.0609 6.31834L15.0609 6.31832L14.3674 5.78482L14.3673 5.78484L15.0609 6.31834ZM15.0641 6.3141L15.0641 6.31409L14.3641 5.78909L14.3641 5.7891L15.0641 6.3141ZM14.6773 6.82237C14.6803 6.81445 14.6962 6.78045 14.7626 6.69117C14.8273 6.60427 14.9184 6.49275 15.0527 6.32864L14.3755 5.77456C14.2466 5.93212 14.1403 6.06185 14.0608 6.16863C13.9831 6.27305 13.9079 6.38519 13.8604 6.5087L14.6773 6.82237ZM14.9078 7.3789C14.6952 7.28426 14.5938 7.03967 14.6773 6.82237L13.8604 6.5087C13.6101 7.16059 13.9141 7.89435 14.552 8.1783L14.9078 7.3789ZM15.5224 7.46256C15.3114 7.44146 15.1682 7.42702 15.0609 7.41132C14.9508 7.39519 14.9156 7.38235 14.9078 7.3789L14.552 8.1783C14.6729 8.2321 14.8054 8.25823 14.9342 8.27709C15.0659 8.29638 15.2328 8.31296 15.4354 8.33322L15.5224 7.46256ZM15.5508 7.46634L15.5508 7.46634L15.407 8.32944L15.407 8.32944L15.5508 7.46634ZM16.0345 7.54489C15.887 7.49644 15.7189 7.4822 15.5224 7.46256L15.4354 8.33322C15.6767 8.35735 15.7274 8.365 15.7615 8.37621L16.0345 7.54489ZM16.9065 8.50844C16.8064 8.0558 16.475 7.68954 16.0345 7.54489L15.7615 8.37621C15.9083 8.42442 16.0188 8.54651 16.0522 8.69739L16.9065 8.50844ZM16.9375 9.02618C16.9375 8.82878 16.9401 8.66007 16.9065 8.50844L16.0522 8.69739C16.0599 8.73245 16.0625 8.78369 16.0625 9.02618H16.9375ZM16.9375 9.97392V9.02618H16.0625V9.97392H16.9375ZM16.9066 10.4914C16.9401 10.3399 16.9375 10.1712 16.9375 9.97392H16.0625C16.0625 10.2163 16.0599 10.2675 16.0522 10.3026L16.9066 10.4914ZM16.0344 11.4551C16.4749 11.3105 16.8065 10.9442 16.9066 10.4914L16.0522 10.3026C16.0188 10.4535 15.9083 10.5756 15.7615 10.6238L16.0344 11.4551ZM15.5225 11.5374C15.7189 11.5178 15.8869 11.5036 16.0344 11.4551L15.7615 10.6238C15.7274 10.635 15.6767 10.6427 15.4354 10.6668L15.5225 11.5374ZM15.5648 11.5311L15.5648 11.5311L15.3932 10.6731L15.3932 10.6731L15.5648 11.5311ZM14.9082 11.621C14.9159 11.6176 14.9511 11.6048 15.0612 11.5886C15.1684 11.573 15.3116 11.5585 15.5225 11.5374L15.4354 10.6668C15.233 10.687 15.0661 10.7036 14.9345 10.7229C14.8057 10.7417 14.6733 10.7678 14.5525 10.8216L14.9082 11.621ZM14.6776 12.1777C14.5941 11.9603 14.6954 11.7157 14.9082 11.621L14.5525 10.8216C13.9143 11.1055 13.6103 11.8395 13.8608 12.4915L14.6776 12.1777ZM15.0528 12.6711C14.9186 12.5071 14.8276 12.3956 14.7629 12.3088C14.6965 12.2196 14.6807 12.1856 14.6776 12.1777L13.8608 12.4915C13.9082 12.6149 13.9834 12.727 14.0611 12.8314C14.1406 12.9381 14.2468 13.0677 14.3756 13.2252L15.0528 12.6711ZM15.0783 12.7055L15.0783 12.7055L14.3502 13.1908L14.3502 13.1909L15.0783 12.7055ZM15.3566 13.0912C15.2865 12.9527 15.1778 12.8238 15.0528 12.6711L14.3756 13.2252C14.5291 13.4128 14.5595 13.454 14.5757 13.486L15.3566 13.0912ZM15.2918 14.3894C15.5412 13.9985 15.5658 13.505 15.3566 13.0912L14.5757 13.486C14.6455 13.624 14.6373 13.7885 14.5541 13.9188L15.2918 14.3894ZM14.9478 14.7771C15.0873 14.6377 15.2083 14.5202 15.2918 14.3894L14.5541 13.9188C14.5348 13.949 14.5004 13.9871 14.3291 14.1584L14.9478 14.7771ZM14.2776 15.4473L14.9478 14.7771L14.3291 14.1584L13.6589 14.8286L14.2776 15.4473ZM13.8896 15.7915C14.0206 15.708 14.138 15.5869 14.2776 15.4473L13.6589 14.8286C13.4874 15.0001 13.4494 15.0345 13.4191 15.0538L13.8896 15.7915ZM12.5917 15.8563C13.0054 16.0654 13.4988 16.0408 13.8896 15.7915L13.4191 15.0538C13.2888 15.1369 13.1244 15.1451 12.9865 15.0754L12.5917 15.8563ZM12.1714 15.5524C12.3242 15.6774 12.4531 15.7862 12.5917 15.8563L12.9865 15.0754C12.9544 15.0592 12.9131 15.0287 12.7255 14.8752L12.1714 15.5524ZM12.1798 15.5591L12.1799 15.5592L12.7171 14.8685L12.717 14.8684L12.1798 15.5591ZM11.6777 15.177C11.6856 15.18 11.7196 15.1958 11.8089 15.2623C11.8958 15.327 12.0073 15.4181 12.1714 15.5524L12.7255 14.8752C12.5679 14.7463 12.4382 14.64 12.3314 14.5605C12.227 14.4827 12.1148 14.4075 11.9913 14.3601L11.6777 15.177ZM11.1211 15.4075C11.2158 15.1948 11.4604 15.0935 11.6777 15.177L11.9913 14.3601C11.3394 14.1098 10.6057 14.4137 10.3217 15.0517L11.1211 15.4075ZM11.0374 16.0223C11.0586 15.8112 11.073 15.6679 11.0887 15.5607C11.1048 15.4505 11.1177 15.4152 11.1211 15.4075L10.3217 15.0517C10.2679 15.1726 10.2418 15.3051 10.2229 15.4339C10.2036 15.5656 10.1871 15.7326 10.1668 15.9352L11.0374 16.0223ZM10.9551 16.5347C11.0036 16.3871 11.0178 16.2188 11.0374 16.0223L10.1668 15.9352C10.1426 16.1767 10.135 16.2274 10.1238 16.2616L10.9551 16.5347ZM9.99168 17.4065C10.4442 17.3064 10.8104 16.975 10.9551 16.5347L10.1238 16.2616C10.0756 16.4083 9.95349 16.5188 9.80264 16.5522L9.99168 17.4065ZM9.4737 17.4375C9.67119 17.4375 9.83998 17.4401 9.99168 17.4065L9.80264 16.5522C9.76756 16.5599 9.71631 16.5625 9.4737 16.5625V17.4375ZM8.52617 17.4375H9.4737V16.5625H8.52617V17.4375ZM8.00844 17.4065C8.16006 17.4401 8.32877 17.4375 8.52617 17.4375V16.5625C8.28368 16.5625 8.23245 16.5599 8.19738 16.5522L8.00844 17.4065ZM7.04488 16.5345C7.18953 16.975 7.55579 17.3064 8.00844 17.4065L8.19738 16.5522C8.0465 16.5188 7.92441 16.4083 7.8762 16.2615L7.04488 16.5345ZM6.96255 16.0225C6.9822 16.2189 6.99643 16.387 7.04488 16.5345L7.8762 16.2615C7.86499 16.2274 7.85734 16.1767 7.83321 15.9354L6.96255 16.0225ZM6.96633 16.0508L6.96634 16.0508L7.82943 15.907L7.82943 15.907L6.96633 16.0508ZM6.8789 15.4078C6.88235 15.4156 6.89519 15.4508 6.91132 15.561C6.92702 15.6682 6.94145 15.8114 6.96255 16.0224L7.83321 15.9354C7.81295 15.7328 7.79637 15.5659 7.77708 15.4342C7.75822 15.3054 7.73209 15.1729 7.67828 15.052L6.8789 15.4078ZM6.32237 15.1773C6.53966 15.0939 6.78424 15.1952 6.8789 15.4078L7.67829 15.052C7.39433 14.4141 6.66059 14.1101 6.00871 14.3605L6.32237 15.1773ZM5.8286 15.5528C5.99272 15.4185 6.10425 15.3274 6.19116 15.2627C6.28045 15.1962 6.31445 15.1803 6.32237 15.1773L6.00871 14.3605C5.88519 14.4079 5.77304 14.4831 5.66862 14.5608C5.56183 14.6403 5.43209 14.7466 5.27451 14.8756L5.8286 15.5528ZM5.86091 15.5235L5.86091 15.5235L5.2422 14.9048L5.24219 14.9048L5.86091 15.5235ZM5.40826 15.8567C5.54686 15.7866 5.67581 15.6778 5.82859 15.5528L5.27451 14.8756C5.08683 15.0291 5.04555 15.0596 5.0135 15.0758L5.40826 15.8567ZM4.11035 15.7919C4.50119 16.0412 4.99455 16.0658 5.40826 15.8567L5.0135 15.0758C4.87559 15.1455 4.71114 15.1373 4.58086 15.0542L4.11035 15.7919ZM3.72234 15.4477C3.86193 15.5873 3.97941 15.7084 4.11035 15.7919L4.58086 15.0542C4.55058 15.0349 4.51254 15.0005 4.34106 14.829L3.72234 15.4477ZM3.05227 14.7776L3.72234 15.4477L4.34106 14.829L3.67099 14.1589L3.05227 14.7776ZM2.70806 14.3896C2.79157 14.5206 2.91269 14.6381 3.05227 14.7776L3.67099 14.1589C3.49951 13.9874 3.4651 13.9494 3.44579 13.9191L2.70806 14.3896ZM2.64333 13.0917C2.43418 13.5054 2.45879 13.9988 2.70806 14.3896L3.44579 13.9191C3.3627 13.7888 3.3545 13.6244 3.42421 13.4865L2.64333 13.0917ZM2.94722 12.6714C2.82222 12.8242 2.71339 12.9531 2.64333 13.0917L3.42421 13.4865C3.44042 13.4544 3.47087 13.4132 3.62444 13.2255L2.94722 12.6714ZM2.92883 12.6955L2.92882 12.6955L3.64284 13.2013L3.64285 13.2013L2.92883 12.6955ZM3.32268 12.1776C3.31964 12.1855 3.3038 12.2195 3.23732 12.3088C3.17261 12.3957 3.08151 12.5073 2.94723 12.6714L3.62444 13.2255C3.75336 13.0679 3.85965 12.9382 3.93916 12.8314C4.0169 12.727 4.0921 12.6148 4.13953 12.4913L3.32268 12.1776ZM3.09216 11.6211C3.30481 11.7157 3.40612 11.9603 3.32268 12.1776L4.13953 12.4913C4.38985 11.8394 4.08592 11.1056 3.44796 10.8217L3.09216 11.6211ZM2.47754 11.5374C2.68854 11.5585 2.83182 11.573 2.93902 11.5887C3.04916 11.6048 3.0844 11.6176 3.09216 11.6211L3.44796 10.8217C3.32708 10.7679 3.19461 10.7418 3.06581 10.7229C2.93408 10.7036 2.76718 10.687 2.56461 10.6668L2.47754 11.5374ZM1.96548 11.4551C2.11301 11.5036 2.28114 11.5178 2.47754 11.5374L2.56461 10.6668C2.32333 10.6426 2.27261 10.635 2.23849 10.6238L1.96548 11.4551ZM1.09346 10.4915C1.19357 10.9442 1.52503 11.3105 1.96548 11.4551L2.23849 10.6238C2.09168 10.5756 1.98119 10.4535 1.94782 10.3026L1.09346 10.4915ZM1.0625 9.97383C1.0625 10.1712 1.05993 10.3399 1.09346 10.4915L1.94782 10.3026C1.94007 10.2675 1.9375 10.2163 1.9375 9.97383H1.0625ZM1.0625 9.02626V9.97383H1.9375V9.02626H1.0625ZM1.09349 8.50834C1.05993 8.66002 1.0625 8.8288 1.0625 9.02626H1.9375C1.9375 8.78368 1.94007 8.73243 1.94783 8.69736L1.09349 8.50834ZM1.96537 7.54492C1.52502 7.68958 1.19361 8.05578 1.09349 8.50834L1.94783 8.69736C1.9812 8.5465 2.09167 8.42444 2.23846 8.37622L1.96537 7.54492ZM2.47762 7.46255C2.28115 7.4822 2.11295 7.49644 1.96537 7.54492L2.23846 8.37622C2.27259 8.36501 2.32332 8.35735 2.56469 8.33321L2.47762 7.46255ZM2.47969 7.46235L2.47968 7.46235L2.56264 8.33341L2.56265 8.33341L2.47969 7.46235ZM3.0925 7.37885C3.08474 7.38231 3.04949 7.39516 2.93931 7.41129C2.83206 7.427 2.68872 7.44145 2.47764 7.46255L2.5647 8.33321C2.76736 8.31295 2.93432 8.29636 3.06611 8.27706C3.19496 8.25818 3.32748 8.23204 3.44841 8.1782L3.0925 7.37885ZM3.32299 6.8224C3.40639 7.03967 3.3051 7.28419 3.0925 7.37885L3.44841 8.1782C4.08621 7.89422 4.39007 7.16064 4.13988 6.50884L3.32299 6.8224ZM2.94736 6.32839C3.0817 6.49259 3.17286 6.60417 3.23759 6.69113C3.3041 6.78046 3.31995 6.81448 3.32299 6.8224L4.13988 6.50884C4.09244 6.38526 4.01722 6.27306 3.93944 6.1686C3.8599 6.06176 3.75356 5.93196 3.62457 5.77431L2.94736 6.32839ZM2.9766 6.3607L2.97661 6.36071L3.59532 5.74199L3.59532 5.74199L2.9766 6.3607ZM2.64329 5.90779C2.71337 6.04647 2.82227 6.17551 2.94736 6.32839L3.62457 5.7743C3.4709 5.58649 3.44043 5.54518 3.42422 5.51312L2.64329 5.90779ZM2.70801 4.61015C2.45884 5.00093 2.43424 5.49415 2.64329 5.90779L3.42422 5.51311C3.35454 5.37524 3.36274 5.21083 3.44579 5.08057L2.70801 4.61015ZM3.05239 4.22192C2.91273 4.36158 2.79154 4.47913 2.70801 4.61015L3.44579 5.08057C3.46511 5.05027 3.49954 5.01221 3.67111 4.84064L3.05239 4.22192ZM3.05239 4.22192L3.05239 4.22192L3.67111 4.84064L3.67111 4.84064L3.05239 4.22192ZM3.72237 3.55194L3.05239 4.22192L3.67111 4.84064L4.34109 4.17066L3.72237 3.55194ZM4.11038 3.20773C3.97945 3.29123 3.86196 3.41235 3.72237 3.55194L4.34109 4.17066C4.51257 3.99918 4.55061 3.96477 4.58089 3.94546L4.11038 3.20773ZM5.40829 3.14299C4.99458 2.93385 4.50123 2.95845 4.11038 3.20773L4.58089 3.94546C4.71117 3.86237 4.87562 3.85416 5.01353 3.92388L5.40829 3.14299ZM5.82869 3.44694C5.67587 3.32191 5.54689 3.21306 5.40829 3.14299L5.01353 3.92388C5.04558 3.94008 5.08687 3.97055 5.27461 4.12415L5.82869 3.44694ZM6.32234 3.82233C6.31443 3.81929 6.28044 3.80345 6.19117 3.73698C6.10428 3.67228 5.99277 3.58119 5.82869 3.44694L5.27461 4.12415C5.43214 4.25305 5.56185 4.35931 5.66861 4.4388C5.77299 4.51652 5.88509 4.5917 6.00856 4.63913L6.32234 3.82233ZM6.87896 3.59177C6.78432 3.80448 6.53967 3.90582 6.32234 3.82233L6.00856 4.63913C6.66055 4.8896 7.39449 4.58559 7.6784 3.94746L6.87896 3.59177ZM6.96257 2.97744C6.94148 3.18834 6.92705 3.33155 6.91136 3.43871C6.89524 3.54879 6.88241 3.58402 6.87896 3.59177L7.6784 3.94746C7.73216 3.82663 7.75827 3.69422 7.77712 3.56548C7.7964 3.4338 7.81298 3.26699 7.83322 3.06451L6.96257 2.97744ZM6.96039 3.02097V3.02098H7.83539V3.02097H6.96039ZM7.04484 2.4656C6.99643 2.61307 6.9822 2.78112 6.96257 2.97744L7.83322 3.0645C7.85734 2.82333 7.86499 2.77264 7.87618 2.73853L7.04484 2.4656ZM8.00857 1.59344C7.55582 1.69351 7.18947 2.02506 7.04484 2.4656L7.87618 2.73853C7.92439 2.59169 8.04651 2.48117 8.19743 2.44781L8.00857 1.59344ZM8.52605 1.5625C8.32876 1.5625 8.16013 1.55994 8.00857 1.59344L8.19743 2.44781C8.23248 2.44006 8.28368 2.4375 8.52605 2.4375V1.5625ZM9.47382 1.5625H8.52605V2.4375H9.47382V1.5625ZM9.99154 1.59347C9.83992 1.55993 9.67121 1.5625 9.47382 1.5625V2.4375C9.71631 2.4375 9.76754 2.44007 9.8026 2.44782L9.99154 1.59347ZM10.9551 2.46547C10.8105 2.02503 10.4442 1.69357 9.99154 1.59347L9.8026 2.44782C9.95348 2.48119 10.0756 2.59168 10.1238 2.73849L10.9551 2.46547ZM11.0374 2.97754C11.0178 2.78113 11.0036 2.61301 10.9551 2.46547L10.1238 2.73849C10.135 2.77261 10.1426 2.82333 10.1668 3.0646L11.0374 2.97754ZM11.5625 9.49997C11.5625 10.9152 10.4152 12.0625 9 12.0625V12.9375C10.8985 12.9375 12.4375 11.3984 12.4375 9.49997H11.5625ZM9 6.93747C10.4152 6.93747 11.5625 8.08474 11.5625 9.49997H12.4375C12.4375 7.60149 10.8985 6.06247 9 6.06247V6.93747ZM6.4375 9.49997C6.4375 8.08474 7.58477 6.93747 9 6.93747V6.06247C7.10152 6.06247 5.5625 7.60149 5.5625 9.49997H6.4375ZM9 12.0625C7.58477 12.0625 6.4375 10.9152 6.4375 9.49997H5.5625C5.5625 11.3984 7.10152 12.9375 9 12.9375V12.0625Z" fill="#95A7AE"/>
</svg>
