<svg width="23" height="23" viewBox="0 0 23 23" fill="none" xmlns="http://www.w3.org/2000/svg">
<path d="M20.875 0.5625H2.125C1.7106 0.5625 1.31317 0.72712 1.02015 1.02015C0.72712 1.31317 0.5625 1.7106 0.5625 2.125L0.5625 20.875C0.5625 21.2894 0.72712 21.6868 1.02015 21.9799C1.31317 22.2729 1.7106 22.4375 2.125 22.4375H20.875C21.2894 22.4375 21.6868 22.2729 21.9799 21.9799C22.2729 21.6868 22.4375 21.2894 22.4375 20.875V2.125C22.4375 1.7106 22.2729 1.31317 21.9799 1.02015C21.6868 0.72712 21.2894 0.5625 20.875 0.5625ZM19.3125 3.6875V9.9375H13.0625V3.6875H19.3125ZM9.9375 3.6875V9.9375H3.6875V3.6875H9.9375ZM3.6875 19.3125V13.0625H9.9375V19.3125H3.6875ZM13.0625 19.3125V13.0625H19.3125V19.3125H13.0625Z" fill="black"/>
</svg>
