<svg width="41" height="41" viewBox="0 0 41 41" fill="none" xmlns="http://www.w3.org/2000/svg">
<path d="M0.640625 20.5C0.640625 9.5293 9.5293 0.640625 20.5 0.640625C31.4707 0.640625 40.3594 9.5293 40.3594 20.5C40.3594 31.4707 31.4707 40.3594 20.5 40.3594C9.5293 40.3594 0.640625 31.4707 0.640625 20.5ZM24.0234 29.7891V20.5H29.701C30.5578 20.5 30.9902 19.459 30.3816 18.8584L21.1807 9.70547C20.8043 9.3291 20.2037 9.3291 19.8273 9.70547L10.6184 18.8584C10.0098 19.467 10.4422 20.5 11.299 20.5H16.9766V29.7891C16.9766 30.3176 17.409 30.75 17.9375 30.75H23.0625C23.591 30.75 24.0234 30.3176 24.0234 29.7891Z" fill="#081B24"/>
</svg>
