<svg width="38" height="38" viewBox="0 0 38 38" fill="none" xmlns="http://www.w3.org/2000/svg">
<path d="M0 19C0 8.50659 8.50659 0 19 0C29.4934 0 38 8.50659 38 19C38 29.4934 29.4934 38 19 38C8.50659 38 0 29.4934 0 19Z" fill="#5D7078"/>
<path fill-rule="evenodd" clip-rule="evenodd" d="M15.5955 8.26016L9.41006 13.6781L8.55127 14.4304L9.41006 15.1826L15.5955 20.6006L16.9133 19.0961L12.7283 15.4304H21.7526H29.9999V13.4304H21.7526H12.7283L16.9133 9.76463L15.5955 8.26016Z" fill="#081B24"/>
<path fill-rule="evenodd" clip-rule="evenodd" d="M22.4045 17.3995L28.5899 22.8175L29.4487 23.5697L28.5899 24.3219L22.4045 29.7399L21.0867 28.2354L25.2717 24.5697H16.2474H8.00011V22.5697H16.2474H25.2717L21.0867 18.904L22.4045 17.3995Z" fill="#081B24"/>
</svg>
