<svg width="25" height="24" viewBox="0 0 25 24" fill="none" xmlns="http://www.w3.org/2000/svg">
<g clip-path="url(#clip0)">
<path d="M8.34384 16.683C6.80717 16.6559 5.47229 15.7933 4.77572 14.5303C4.80377 14.5307 4.83186 14.531 4.86001 14.531C5.32827 14.531 5.78315 14.4691 6.21753 14.3516L6.18542 13.3787C4.52079 13.0446 3.21618 11.716 2.91552 10.0402C3.39663 10.2076 3.91017 10.3062 4.44366 10.3237L6.19277 10.3809L4.7379 9.40829C3.62212 8.66235 2.88801 7.38841 2.88801 5.94595C2.88801 5.44261 2.9778 4.95984 3.14205 4.51222C5.50931 7.10143 8.85316 8.78293 12.5949 8.97132L13.2543 9.00452L13.1075 8.36077C13.0375 8.05396 13 7.73724 13 7.41195C13 5.11396 14.8623 3.25195 17.158 3.25195C18.3545 3.25195 19.4343 3.7568 20.1937 4.56446L20.383 4.76577L20.6542 4.71261C21.2479 4.59623 21.8224 4.42639 22.3727 4.20851C22.0543 4.62096 21.6601 4.97216 21.2112 5.24097L21.5275 6.1664C21.9152 6.11994 22.2957 6.05146 22.6679 5.962C22.3155 6.32059 21.933 6.64977 21.525 6.94478L21.3064 7.10288L21.3185 7.37243C21.3272 7.56572 21.332 7.76019 21.332 7.95195C21.332 13.8929 16.8135 20.706 8.57701 20.706C6.75844 20.706 5.0308 20.3235 3.46617 19.6359C5.40858 19.4571 7.18964 18.7158 8.64343 17.5765L9.75178 16.7079L8.34384 16.683Z" stroke="#A2EFE1"/>
</g>
<defs>
<clipPath id="clip0">
<rect width="24" height="24" fill="white" transform="translate(0.5)"/>
</clipPath>
</defs>
</svg>
