<svg width="18" height="18" viewBox="0 0 18 18" fill="none" xmlns="http://www.w3.org/2000/svg">
<path d="M5.88509 12.3873C4.85482 12.3691 3.95026 11.8292 3.42578 11.0203C3.73331 11.0086 4.03281 10.9623 4.32078 10.8844L4.28867 9.91153C3.15956 9.68486 2.26055 8.82253 1.97936 7.71451C2.29039 7.80393 2.61691 7.85671 2.95366 7.86773L4.70277 7.92497L3.2479 6.95233C2.44436 6.41514 1.91601 5.49796 1.91601 4.4595C1.91601 4.16972 1.95732 3.88945 2.03433 3.624C3.82142 5.50094 6.30002 6.71416 9.06487 6.85337L9.72431 6.88657L9.57749 6.24282C9.52702 6.02151 9.50001 5.79329 9.50001 5.559C9.50001 3.9045 10.8408 2.564 12.4935 2.564C13.3549 2.564 14.1323 2.92734 14.6792 3.50901L14.8685 3.71032L15.1397 3.65716C15.4244 3.60135 15.7033 3.52943 15.9755 3.44242C15.8211 3.58647 15.6514 3.71441 15.4692 3.82352L15.7855 4.74895C15.9324 4.73134 16.078 4.70958 16.2221 4.68378C16.0541 4.83375 15.8783 4.97519 15.6955 5.10732L15.4769 5.26543L15.489 5.53498C15.4955 5.67827 15.499 5.82224 15.499 5.964C15.499 10.366 12.1517 15.4045 6.05776 15.4045C4.87937 15.4045 3.75266 15.1876 2.71329 14.7921C4.00902 14.5889 5.19613 14.0555 6.18468 13.2808L7.29302 12.4122L5.88509 12.3873Z" fill="#95A7AE" stroke="#95A7AE"/>
</svg>
