<svg width="19" height="16" viewBox="0 0 19 16" fill="none" xmlns="http://www.w3.org/2000/svg">
<path fill-rule="evenodd" clip-rule="evenodd" d="M9.49982 1.00003L17.2941 14.5H1.70559L9.49982 1.00003ZM8.6338 0.50003C9.0187 -0.166636 9.98095 -0.166636 10.3658 0.500031L18.1601 14C18.545 14.6667 18.0639 15.5 17.2941 15.5H1.70559C0.935793 15.5 0.454668 14.6667 0.839568 14L8.6338 0.50003ZM9.00468 10.5775H9.98902L10.0715 4.418H8.92806L9.00468 10.5775ZM9.04594 12.0098C8.93985 12.1277 8.8868 12.275 8.8868 12.4519C8.8868 12.6287 8.93985 12.776 9.04594 12.8939C9.15597 13.0079 9.31708 13.0649 9.52927 13.0649C9.74147 13.0649 9.90257 13.0079 10.0126 12.8939C10.1226 12.776 10.1776 12.6287 10.1776 12.4519C10.1776 12.275 10.1226 12.1277 10.0126 12.0098C9.90257 11.888 9.74147 11.8271 9.52927 11.8271C9.31708 11.8271 9.15597 11.888 9.04594 12.0098Z" fill="#F49F2F"/>
</svg>
