<svg width="38" height="38" viewBox="0 0 38 38" fill="none" xmlns="http://www.w3.org/2000/svg">
<path d="M0 19C0 8.50659 8.50659 0 19 0C29.4934 0 38 8.50659 38 19C38 29.4934 29.4934 38 19 38C8.50659 38 0 29.4934 0 19Z" fill="#5D7078"/>
<path fill-rule="evenodd" clip-rule="evenodd" d="M8 8.02184L9.375 8.02184L28.625 8.02184L30 8.02184L30 9.39684L30 14.9841L27.25 14.9841L27.25 10.7718L10.75 10.7718L10.75 14.9841L8 14.9841L8 9.39684L8 8.02184ZM17.6284 16.0246L17.6284 14.6278L20.3784 14.6278L20.3784 16.0246L20.3784 24.2381L23.4686 20.7064L25.5381 22.5173L20.0381 28.803L19.0034 29.9856L17.9686 28.803L12.4686 22.5173L14.5381 20.7064L17.6284 24.2381L17.6284 16.0246Z" fill="#081B24"/>
</svg>
