<svg width="24" height="24" fill="none" xmlns="http://www.w3.org/2000/svg"><g clip-path="url(#a)"><path d="M11.575 7.068c6.517 0 11.802 5.072 11.802 11.332 0 1.283-.227 2.556-.668 3.76a11.072 11.072 0 0 0 1.261-5.146c0-6.26-5.186-11.332-11.579-11.332-4.24 0-7.947 2.232-9.966 5.557 2.167-2.543 5.458-4.171 9.15-4.171Z" fill="#000"/><path d="M7.566 2.713A9.117 9.117 0 0 0 0 6.736a9.587 9.587 0 0 1 4.746-1.247c5.369 0 9.723 4.4 9.723 9.823a9.892 9.892 0 0 1-.465 3.008 9.1 9.1 0 0 0 2.692-6.472c0-5.048-4.087-9.135-9.13-9.135Z" fill="url(#b)"/><path d="M19.269 4.474a10.554 10.554 0 0 0-9.526-2.76 11.152 11.152 0 0 1 4.949 2.785c4.458 4.33 4.527 11.49.158 15.994a11.489 11.489 0 0 1-2.81 2.123 10.532 10.532 0 0 0 7.452-3.207c4.062-4.181 3.963-10.872-.223-14.934Z" fill="url(#c)"/></g><defs><linearGradient id="b" x1="5.963" y1="5.719" x2="17.095" y2="16.726" gradientUnits="userSpaceOnUse"><stop stop-color="#137EAF"/><stop offset="1" stop-color="#003C5A"/></linearGradient><linearGradient id="c" x1="14.496" y1="15.017" x2="20.59" y2="8.313" gradientUnits="userSpaceOnUse"><stop stop-color="#137EAF"/><stop offset="1" stop-color="#003C5A"/></linearGradient><clipPath id="a"><path fill="#fff" d="M0 0h24v24H0z"/></clipPath></defs></svg>