<svg width="24" height="24" viewBox="0 0 24 24" fill="none" xmlns="http://www.w3.org/2000/svg">
<g clip-path="url(#clip0)">
<path d="M11.1592 11.9985L20.1077 17.1242C20.1796 17.1674 20.2618 17.1907 20.3457 17.1917C20.4296 17.1927 20.5122 17.1713 20.5851 17.1297C20.658 17.0882 20.7185 17.028 20.7604 16.9553C20.8024 16.8826 20.8242 16.8001 20.8236 16.7161V7.27364C20.8247 7.1896 20.8031 7.10681 20.7612 7.03395C20.7193 6.96109 20.6586 6.90083 20.5854 6.85948C20.5122 6.81814 20.4293 6.79722 20.3452 6.79892C20.2612 6.80063 20.1792 6.82489 20.1077 6.86917L11.1592 11.9985Z" fill="#31CB9E"/>
<path d="M19.9176 4.59951L13.8003 0.100178C13.737 0.0515522 13.6627 0.019254 13.5839 0.00613077C13.5051 -0.00699248 13.4243 -0.000537818 13.3487 0.0249258C13.273 0.0503895 13.2047 0.0940801 13.1499 0.152147C13.0951 0.210213 13.0554 0.280873 13.0343 0.357897L10.8008 10.3803L19.8639 5.36908C19.9328 5.33361 19.9915 5.28095 20.0342 5.2162C20.0768 5.15144 20.1021 5.07678 20.1075 4.99942C20.1129 4.92206 20.0982 4.84461 20.065 4.77456C20.0317 4.7045 19.9809 4.64421 19.9176 4.59951Z" fill="#31CB9E"/>
<path d="M13.7932 23.8924L19.9176 19.3931C19.9818 19.3479 20.0333 19.2871 20.0673 19.2163C20.1012 19.1455 20.1164 19.0672 20.1113 18.9889C20.1063 18.9105 20.0812 18.8348 20.0385 18.7689C19.9958 18.7031 19.9369 18.6493 19.8674 18.6127L10.8008 13.6016L13.0343 23.6239C13.0529 23.7018 13.0904 23.7739 13.1437 23.8336C13.197 23.8934 13.2642 23.9389 13.3395 23.9663C13.4147 23.9936 13.4955 24.0018 13.5747 23.9902C13.6539 23.9785 13.729 23.9474 13.7932 23.8995" fill="#31CB9E"/>
<path d="M8.83236 11.8123L11.159 0.930903C11.1767 0.840732 11.1672 0.747309 11.1316 0.662593C11.0959 0.577877 11.0358 0.505723 10.9589 0.455366C10.8821 0.405008 10.7919 0.378739 10.7 0.379921C10.6081 0.381103 10.5187 0.409682 10.4431 0.462L4.48336 5.03292C4.33245 5.14869 4.21032 5.29777 4.1265 5.46851C4.04269 5.63925 3.99944 5.82705 4.00014 6.01726V17.6146C3.99721 17.8072 4.03939 17.9978 4.12329 18.1712C4.2072 18.3446 4.33051 18.496 4.48336 18.6132L10.4145 23.1698C10.49 23.2221 10.5795 23.2507 10.6714 23.2519C10.7633 23.2531 10.8534 23.2268 10.9303 23.1765C11.0072 23.1261 11.0673 23.054 11.1029 22.9692C11.1386 22.8845 11.1481 22.7911 11.1303 22.7009L8.83236 11.8123Z" fill="#31CB9E"/>
</g>
<defs>
<clipPath id="clip0">
<rect width="24" height="24" fill="white"/>
</clipPath>
</defs>
</svg>
