<svg width="25" height="25" viewBox="0 0 25 25" fill="none" xmlns="http://www.w3.org/2000/svg">
<g clip-path="url(#clip0)">
<path d="M12.5 15.5C14.1569 15.5 15.5 14.1569 15.5 12.5C15.5 10.8431 14.1569 9.5 12.5 9.5C10.8431 9.5 9.5 10.8431 9.5 12.5C9.5 14.1569 10.8431 15.5 12.5 15.5Z" stroke="#B4B4B4" stroke-width="2" stroke-linecap="round" stroke-linejoin="round"/>
<path d="M19.9 15.5C19.7669 15.8016 19.7272 16.1362 19.786 16.4606C19.8448 16.785 19.9995 17.0843 20.23 17.32L20.29 17.38C20.476 17.5657 20.6235 17.7863 20.7241 18.0291C20.8248 18.2719 20.8766 18.5322 20.8766 18.795C20.8766 19.0578 20.8248 19.3181 20.7241 19.5609C20.6235 19.8037 20.476 20.0243 20.29 20.21C20.1043 20.396 19.8837 20.5435 19.6409 20.6441C19.3981 20.7448 19.1378 20.7966 18.875 20.7966C18.6122 20.7966 18.3519 20.7448 18.1091 20.6441C17.8663 20.5435 17.6457 20.396 17.46 20.21L17.4 20.15C17.1643 19.9195 16.865 19.7648 16.5406 19.706C16.2162 19.6472 15.8816 19.6869 15.58 19.82C15.2842 19.9468 15.032 20.1572 14.8543 20.4255C14.6766 20.6938 14.5813 21.0082 14.58 21.33V21.5C14.58 22.0304 14.3693 22.5391 13.9942 22.9142C13.6191 23.2893 13.1104 23.5 12.58 23.5C12.0496 23.5 11.5409 23.2893 11.1658 22.9142C10.7907 22.5391 10.58 22.0304 10.58 21.5V21.41C10.5723 21.079 10.4651 20.758 10.2725 20.4887C10.0799 20.2194 9.81074 20.0143 9.5 19.9C9.19838 19.7669 8.86381 19.7272 8.53941 19.786C8.21502 19.8448 7.91568 19.9995 7.68 20.23L7.62 20.29C7.43425 20.476 7.21368 20.6235 6.97088 20.7241C6.72808 20.8248 6.46783 20.8766 6.205 20.8766C5.94217 20.8766 5.68192 20.8248 5.43912 20.7241C5.19632 20.6235 4.97575 20.476 4.79 20.29C4.60405 20.1043 4.45653 19.8837 4.35588 19.6409C4.25523 19.3981 4.20343 19.1378 4.20343 18.875C4.20343 18.6122 4.25523 18.3519 4.35588 18.1091C4.45653 17.8663 4.60405 17.6457 4.79 17.46L4.85 17.4C5.08054 17.1643 5.23519 16.865 5.294 16.5406C5.35282 16.2162 5.31312 15.8816 5.18 15.58C5.05324 15.2842 4.84276 15.032 4.57447 14.8543C4.30618 14.6766 3.99179 14.5813 3.67 14.58H3.5C2.96957 14.58 2.46086 14.3693 2.08579 13.9942C1.71071 13.6191 1.5 13.1104 1.5 12.58C1.5 12.0496 1.71071 11.5409 2.08579 11.1658C2.46086 10.7907 2.96957 10.58 3.5 10.58H3.59C3.92099 10.5723 4.242 10.4651 4.5113 10.2725C4.78059 10.0799 4.98572 9.81074 5.1 9.5C5.23312 9.19838 5.27282 8.86381 5.214 8.53941C5.15519 8.21502 5.00054 7.91568 4.77 7.68L4.71 7.62C4.52405 7.43425 4.37653 7.21368 4.27588 6.97088C4.17523 6.72808 4.12343 6.46783 4.12343 6.205C4.12343 5.94217 4.17523 5.68192 4.27588 5.43912C4.37653 5.19632 4.52405 4.97575 4.71 4.79C4.89575 4.60405 5.11632 4.45653 5.35912 4.35588C5.60192 4.25523 5.86217 4.20343 6.125 4.20343C6.38783 4.20343 6.64808 4.25523 6.89088 4.35588C7.13368 4.45653 7.35425 4.60405 7.54 4.79L7.6 4.85C7.83568 5.08054 8.13502 5.23519 8.45941 5.294C8.78381 5.35282 9.11838 5.31312 9.42 5.18H9.5C9.79577 5.05324 10.048 4.84276 10.2257 4.57447C10.4034 4.30618 10.4987 3.99179 10.5 3.67V3.5C10.5 2.96957 10.7107 2.46086 11.0858 2.08579C11.4609 1.71071 11.9696 1.5 12.5 1.5C13.0304 1.5 13.5391 1.71071 13.9142 2.08579C14.2893 2.46086 14.5 2.96957 14.5 3.5V3.59C14.5013 3.91179 14.5966 4.22618 14.7743 4.49447C14.952 4.76276 15.2042 4.97324 15.5 5.1C15.8016 5.23312 16.1362 5.27282 16.4606 5.214C16.785 5.15519 17.0843 5.00054 17.32 4.77L17.38 4.71C17.5657 4.52405 17.7863 4.37653 18.0291 4.27588C18.2719 4.17523 18.5322 4.12343 18.795 4.12343C19.0578 4.12343 19.3181 4.17523 19.5609 4.27588C19.8037 4.37653 20.0243 4.52405 20.21 4.71C20.396 4.89575 20.5435 5.11632 20.6441 5.35912C20.7448 5.60192 20.7966 5.86217 20.7966 6.125C20.7966 6.38783 20.7448 6.64808 20.6441 6.89088C20.5435 7.13368 20.396 7.35425 20.21 7.54L20.15 7.6C19.9195 7.83568 19.7648 8.13502 19.706 8.45941C19.6472 8.78381 19.6869 9.11838 19.82 9.42V9.5C19.9468 9.79577 20.1572 10.048 20.4255 10.2257C20.6938 10.4034 21.0082 10.4987 21.33 10.5H21.5C22.0304 10.5 22.5391 10.7107 22.9142 11.0858C23.2893 11.4609 23.5 11.9696 23.5 12.5C23.5 13.0304 23.2893 13.5391 22.9142 13.9142C22.5391 14.2893 22.0304 14.5 21.5 14.5H21.41C21.0882 14.5013 20.7738 14.5966 20.5055 14.7743C20.2372 14.952 20.0268 15.2042 19.9 15.5V15.5Z" stroke="#B4B4B4" stroke-width="2" stroke-linecap="round" stroke-linejoin="round"/>
</g>
<defs>
<clipPath id="clip0">
<rect width="24" height="24" fill="white" transform="translate(0.5 0.5)"/>
</clipPath>
</defs>
</svg>
