<svg width="24" height="24" fill="none" xmlns="http://www.w3.org/2000/svg"><path d="M12 22.012a9.996 9.996 0 0 1-9.188-6.037l1.29-.444A8.648 8.648 0 0 0 12 20.66c3.996 0 7.348-2.707 8.352-6.375l-2.516.814A6.617 6.617 0 0 1 12 18.608a6.592 6.592 0 0 1-5.952-3.753l2.505-.878-.497 2.601 15.923-5.191C23.662 5.043 18.418 0 12 0 5.37 0 0 5.37 0 12c0 .624.053 1.248.137 1.85l12.54-4.017-.688 2.326 8.279-2.718c-1.1-3.52-4.388-6.09-8.268-6.09-4.42 0-8.067 3.32-8.585 7.602l-1.406.444c.317-5.244 4.673-9.41 10.002-9.41 4.926 0 9.029 3.564 9.864 8.258l-11.45 3.753.539-2.495L.37 14.94c1.311 5.202 6.026 9.05 11.63 9.05 6.248 0 11.376-4.778 11.947-10.879l-2.093.677c-.846 4.673-4.938 8.225-9.854 8.225Zm0-16.62a6.617 6.617 0 0 1 5.582 3.066L14.57 9.473l.592-2.273-9.515 3.034A6.587 6.587 0 0 1 12 5.392Z" fill="#2727A4"/></svg>