<svg width="24" height="24" fill="none" xmlns="http://www.w3.org/2000/svg"><path d="M12 24c6.627 0 12-5.373 12-12S18.627 0 12 0 0 5.373 0 12s5.373 12 12 12Z" fill="#D21E2B"/><path d="M12.105 4.391V2.25l7.97 4.599-1.843 1.071-6.127-3.529Zm6.249 10.813V8.148l1.86-1.071v9.198l-1.86-1.071Zm-6.249 3.757 6.127-3.528 1.843 1.07-7.97 4.599v-2.141Zm-8.232-2.458 1.86-1.07 6.109 3.528v2.141l-7.969-4.599ZM3.75 7.077l1.843 1.071v7.056L3.75 16.275V7.077Zm.123-.228 7.969-4.599v2.141L5.734 7.92 3.873 6.849Zm8.118-2.256-6.143 3.53v7.09l6.143 3.547 6.126-3.546V8.123l-6.126-3.53Zm4.933 6.338-.264.456-1.755-.983-2.246 1.263 2.246 1.264 1.755-.983.264.456-1.475.825 1.475.825-.264.457-1.474-.825v1.65h-.544v-1.949l-2.247-1.263v2.527l1.738.966-.263.447-1.475-.825v1.65h-.545v-1.65l-1.474.825-.281-.456 1.755-.966v-2.518l-2.247 1.263v1.949h-.562v-1.65l-1.456.825-.282-.457 1.475-.825-1.475-.825.282-.456 1.737.983 2.265-1.264-2.265-1.264-1.737.983-.282-.456 1.475-.825-1.475-.825.282-.456 1.456.825v-1.66h.563v1.95l2.246 1.263V8.684l-1.738-.966.264-.457 1.474.825v-1.65h.545v1.65l1.474-.825.263.457-1.737.966v2.527l2.246-1.264V7.99h.544v1.65l1.475-.825.262.457-1.474.825 1.475.833Z" fill="#fff"/></svg>