<svg width="24" height="24" fill="none" xmlns="http://www.w3.org/2000/svg"><path fill-rule="evenodd" clip-rule="evenodd" d="M24 12c0 6.627-5.373 12-12 12S0 18.627 0 12 5.373 0 12 0s12 5.373 12 12Z" fill="#182C44"/><path fill-rule="evenodd" clip-rule="evenodd" d="M10.645 19.866c-.24 0-.48-.065-.695-.195a1.338 1.338 0 0 1-.654-1.156v-3.162a.525.525 0 1 1 1.05 0v3.162c0 .153.101.23.145.257.044.026.16.079.294.008l2.461-1.305c.475-.252.752-.722.742-1.259a1.371 1.371 0 0 0-.787-1.23l-3.208-1.553A1.58 1.58 0 0 1 9.095 12c0-.616.344-1.165.898-1.433l3.208-1.552c.483-.234.777-.694.787-1.23a1.371 1.371 0 0 0-.742-1.26l-2.46-1.304a.294.294 0 0 0-.295.008.294.294 0 0 0-.145.256v3.162a.525.525 0 1 1-1.05 0V5.485c0-.478.245-.91.654-1.156.409-.246.905-.26 1.327-.036l2.461 1.305a2.434 2.434 0 0 1 1.3 2.205 2.434 2.434 0 0 1-1.38 2.157l-3.207 1.552a.532.532 0 0 0-.306.488c0 .213.114.396.306.488l3.207 1.552a2.434 2.434 0 0 1 1.38 2.157 2.434 2.434 0 0 1-1.3 2.206l-2.46 1.304a1.35 1.35 0 0 1-.633.16ZM17.057 9.998v4.004L19.637 12l-2.58-2.002Zm-.525 5.601a.522.522 0 0 1-.525-.525V8.925a.525.525 0 0 1 .847-.414l3.96 3.074a.525.525 0 0 1 0 .83l-3.96 3.074a.525.525 0 0 1-.322.11ZM4.364 12l2.58 2.003V9.998L4.363 12Zm3.104 3.6a.525.525 0 0 1-.322-.11l-3.96-3.075a.525.525 0 0 1 0-.829l3.96-3.074a.525.525 0 0 1 .847.414v6.15a.525.525 0 0 1-.525.524Z" fill="#FFFFFE"/></svg>