<svg width="24" height="24" fill="none" xmlns="http://www.w3.org/2000/svg"><path d="M14.897 14.85v-.069" stroke="#ABABAB" stroke-width=".333" stroke-miterlimit="1.333"/><path d="M20.264 8.473 24 2a8.455 8.455 0 0 0-2.688.815c-.718 1.407-.738 2.824-1.602 4.086-3.037 4.464-8.142 5.852-12.616 2.921C4.522 8.143 2.98 3.795 2.688 2.815A8.456 8.456 0 0 0 0 2c1.242 2.154 2.494 4.319 3.736 6.473 4.552 1.601 7.58 7.123 8.24 11.355.582-4.882 4.027-9.462 8.288-11.355Z" fill="url(#a)"/><path d="M20.264 8.473c-6.221 1.689-9.909 8.084-8.26 14.315l8.26-14.315Z" fill="url(#b)"/><path d="m3.736 8.473 8.26 14.315c1.649-6.23-2.039-12.617-8.26-14.315Z" fill="url(#c)"/><path d="M19.944 6.96a9.376 9.376 0 0 0 1.378-4.145 8.552 8.552 0 0 0-4.3 4.93c-1.61 4.824-8.423 4.824-10.034 0a8.538 8.538 0 0 0-4.3-4.92A9.344 9.344 0 0 0 19.944 6.96Z" fill="url(#d)"/><defs><linearGradient id="a" x1="12.002" y1="2.003" x2="12.002" y2="19.836" gradientUnits="userSpaceOnUse"><stop stop-color="#0090FF"/><stop offset="1" stop-color="#0A3979"/></linearGradient><linearGradient id="b" x1="11.61" y1="15.631" x2="20.263" y2="15.631" gradientUnits="userSpaceOnUse"><stop stop-color="#0090FF"/><stop offset=".96" stop-color="#084A93"/><stop offset="1" stop-color="#084A93"/></linearGradient><linearGradient id="c" x1="8.065" y1="8.475" x2="8.065" y2="22.786" gradientUnits="userSpaceOnUse"><stop stop-color="#0090FF"/><stop offset=".96" stop-color="#084A93"/><stop offset="1" stop-color="#084A93"/></linearGradient><linearGradient id="d" x1="12" y1="11.377" x2="12" y2="2.817" gradientUnits="userSpaceOnUse"><stop stop-color="#13D5D2"/><stop offset=".43" stop-color="#12E0E4"/><stop offset="1" stop-color="#76BDFF"/></linearGradient></defs></svg>