<svg width="24" height="24" viewBox="0 0 24 24" fill="none" xmlns="http://www.w3.org/2000/svg">
<path d="M12 24C18.6274 24 24 18.6274 24 12C24 5.37258 18.6274 0 12 0C5.37258 0 0 5.37258 0 12C0 18.6274 5.37258 24 12 24Z" fill="#FEC60D"/>
<path d="M20.0006 7.61014L17.4221 6.12589C17.3336 6.07339 17.2519 6.02764 17.1641 5.97739C17.0786 5.92864 16.9954 5.87614 16.9084 5.82589C16.3916 5.53039 15.8734 5.24389 15.3626 4.93789L12.9131 3.52339C12.7706 3.43714 12.0341 3.00439 12.0026 3.00439C11.9899 3.00439 11.8969 3.06439 11.8766 3.07714L8.53013 5.00464C8.48138 5.03239 8.44763 5.05414 8.39813 5.08114C8.35559 5.10471 8.31358 5.12922 8.27213 5.15464L8.01563 5.30464C7.97199 5.331 7.92798 5.35675 7.88363 5.38189L7.63163 5.52739C7.54313 5.57989 7.45988 5.62489 7.37288 5.67514L6.85463 5.97139C6.80963 5.99464 6.77213 6.01939 6.72863 6.04414L6.08063 6.41914C5.99063 6.47164 5.90738 6.51514 5.81963 6.56539L5.30738 6.86764C5.05013 7.01464 4.79213 7.17139 4.53113 7.31314C4.41638 7.37464 3.81413 7.74214 3.75488 7.75789V17.2934C3.80288 17.2979 4.46138 17.6901 4.52963 17.7306L5.56163 18.3276C5.64788 18.3801 5.73413 18.4274 5.81963 18.4769L6.32963 18.7709C6.37313 18.7934 6.41213 18.8189 6.45713 18.8436C6.50663 18.8706 6.53888 18.8939 6.58913 18.9186C6.72038 18.9861 6.84638 19.0664 6.97163 19.1421L7.62113 19.5164C7.66613 19.5411 7.70213 19.5629 7.74638 19.5891C7.99988 19.7421 8.26313 19.8794 8.51588 20.0316L9.42113 20.5566C10.0189 20.9099 10.6286 21.2391 11.2234 21.5961L11.9306 22.0056C12.0431 22.0814 12.0844 21.9959 12.2614 21.8991L13.8109 21.0051C13.8964 20.9556 13.9796 20.9076 14.0696 20.8574L14.3224 20.7126C14.3651 20.6894 14.4049 20.6646 14.4476 20.6384L15.8689 19.8156C16.2934 19.5614 16.7314 19.3311 17.1559 19.0761L19.9856 17.4366C20.0269 17.4119 20.0681 17.3871 20.1116 17.3631C20.1566 17.3391 20.1994 17.3054 20.2504 17.2941V7.75789C20.1701 7.70389 20.0869 7.66264 20.0006 7.61014ZM14.9081 16.9431H12.4969V17.5746C12.4969 17.5821 12.4939 17.5844 12.4864 17.5844H11.3239V16.9431H9.09713V15.1581C9.09713 15.1394 9.11963 15.1236 9.13088 15.1131L9.35663 14.8694C9.36329 14.8633 9.36955 14.8568 9.37538 14.8499C9.38059 14.8427 9.38636 14.8359 9.39263 14.8296L9.52388 14.6901L9.52538 14.6879L9.56438 14.6481L9.58163 14.6271L9.62363 14.5829L9.62813 14.5776L9.76838 14.4261C9.79838 14.3954 9.82838 14.3661 9.85688 14.3324L9.85838 14.3309L9.86288 14.3249L9.95738 14.2244C9.97088 14.2094 9.98138 14.2011 9.99413 14.1846L10.1081 14.0631L10.1269 14.0444C10.1331 14.0378 10.1388 14.0308 10.1441 14.0234L10.3354 13.8194L10.3369 13.8179L10.3414 13.8126L10.3706 13.7826C10.4081 13.7346 10.4756 13.6746 10.5154 13.6266L10.5199 13.6206C10.5326 13.6056 10.5469 13.5951 10.5589 13.5809L10.6331 13.5006C10.6856 13.4481 10.7306 13.3911 10.7831 13.3386L10.9519 13.1571L10.9706 13.1384L11.0441 13.0574C11.0584 13.0431 11.0719 13.0326 11.0831 13.0176C11.0944 13.0026 11.1086 12.9921 11.1214 12.9771L11.1956 12.8969C11.2031 12.8894 11.2091 12.8841 11.2159 12.8759L11.2721 12.8151C11.2834 12.8001 11.2976 12.7896 11.3104 12.7746C11.3434 12.7379 11.4379 12.6411 11.4581 12.6141C11.4701 12.5991 11.4844 12.5901 11.4949 12.5751C11.4652 12.5388 11.4334 12.5042 11.3996 12.4716L11.3261 12.3906L11.3066 12.3719C11.2991 12.3629 11.2969 12.3584 11.2879 12.3494C11.2301 12.2909 11.1769 12.2286 11.1184 12.1694L11.0246 12.0681C11.0192 12.0609 11.0132 12.0541 11.0066 12.0479L10.1441 11.1224C10.1384 11.1145 10.1321 11.107 10.1254 11.0999L9.99788 10.9626L9.99638 10.9611L9.71363 10.6566C9.70763 10.6491 9.70163 10.6446 9.69488 10.6379L9.61988 10.5554C9.56888 10.5029 9.52013 10.4459 9.46838 10.3941L9.45188 10.3761L9.45038 10.3746L9.39488 10.3139C9.36938 10.2861 9.34238 10.2606 9.31763 10.2329C9.30938 10.2239 9.30788 10.2194 9.29888 10.2104C9.24788 10.1586 9.20138 10.1024 9.14888 10.0514C9.14288 10.0439 9.13688 10.0394 9.13088 10.0326C9.12413 10.0251 9.09713 9.9989 9.09713 9.99064V8.19889H11.3231V7.45489C11.7146 7.45489 12.1016 7.46239 12.4931 7.46239V8.17489C12.4931 8.18314 12.4954 8.18614 12.5036 8.18614H14.9081V9.99439H11.5909C11.6104 10.0244 11.6404 10.0491 11.6636 10.0761L11.8481 10.2786C11.8594 10.2936 11.8714 10.3041 11.8841 10.3191C11.9156 10.3566 11.9509 10.3889 11.9816 10.4264L12.2501 10.7211C12.3026 10.7721 12.3476 10.8299 12.3979 10.8824L13.0826 11.6346L13.0871 11.6406L13.3324 11.9106L13.3511 11.9286C13.3841 11.9616 13.4111 11.9991 13.4441 12.0321L13.8851 12.5144C13.9031 12.5339 13.9226 12.5519 13.9376 12.5744C13.9309 12.5849 13.9256 12.5879 13.9174 12.5969C13.9121 12.604 13.9063 12.6108 13.9001 12.6171L13.8079 12.7169C13.8026 12.724 13.7968 12.7308 13.7906 12.7371L13.5694 12.9794C13.5544 12.9936 13.5469 13.0056 13.5319 13.0199C13.5019 13.0499 13.4569 13.1061 13.4216 13.1399L13.2671 13.3116C13.2364 13.3484 13.1539 13.4301 13.1291 13.4616L12.9094 13.7016C12.8621 13.7594 12.8089 13.8089 12.7609 13.8659L12.6709 13.9634C12.6259 14.0091 12.5869 14.0579 12.5434 14.1044C12.5359 14.1119 12.5299 14.1171 12.5231 14.1254C12.4721 14.1831 12.4166 14.2379 12.3664 14.2979L12.3589 14.3069L12.1661 14.5161L12.1616 14.5214L12.1549 14.5289L12.1534 14.5311L12.0649 14.6286C12.0586 14.6347 12.0529 14.6412 12.0476 14.6481C12.0418 14.6551 12.0356 14.6616 12.0289 14.6676C11.9906 14.7051 11.9576 14.7501 11.9194 14.7876C11.9132 14.794 11.9074 14.8008 11.9021 14.8079L11.8286 14.8889C11.8226 14.8964 11.8166 14.9009 11.8099 14.9076L11.5909 15.1491H14.8159C14.8466 15.1491 14.9081 15.1416 14.9081 15.1589V16.9439V16.9431Z" fill="white"/>
</svg>
