<svg width="24" height="24" fill="none" xmlns="http://www.w3.org/2000/svg"><g clip-path="url(#a)"><path d="M0 4.494h24v15.001H0v-15Z" fill="#fff"/><path d="M0 4.494h6.855a9.207 9.207 0 0 0-3.858 7.496c0 1.47.35 2.925 1.023 4.232a9.107 9.107 0 0 0 2.835 3.273H0v-15Zm11.996 0a7.34 7.34 0 0 0-5.222 2.193 7.572 7.572 0 0 0-2.16 5.304c0 1.99.779 3.898 2.16 5.303a7.326 7.326 0 0 0 5.222 2.193 7.34 7.34 0 0 0 5.222-2.193 7.572 7.572 0 0 0 2.16-5.303c0-1.99-.779-3.899-2.16-5.304a7.326 7.326 0 0 0-5.222-2.193Zm12.004 0h-6.855a9.107 9.107 0 0 1 2.835 3.274 9.215 9.215 0 0 1 1.023 4.231c0 1.47-.35 2.924-1.023 4.231a9.109 9.109 0 0 1-2.835 3.273H24V4.494Z" fill="#F7931A"/><path d="M15.26 9.794c-.332-.95-1.242-1.064-2.306-.893l-.333-1.348-.812.203.325 1.316c-.211.057-.43.113-.642.17l-.325-1.324-.812.203.333 1.349c-.17.048-.35.097-.512.138V9.6l-1.12.284.219.877s.593-.162.585-.146c.325-.081.479.081.552.244l.382 1.543c.032-.008.057-.016.089-.016l-.09.024.529 2.16c.008.106-.008.293-.236.35.016.008-.593.146-.593.146l.081 1.023 1.056-.268c.195-.049.39-.097.577-.138l.333 1.364.812-.203-.333-1.356c.227-.049.438-.106.65-.154l.333 1.348.812-.203-.333-1.365c1.34-.422 2.209-1.015 2.006-2.347-.163-1.072-.764-1.413-1.584-1.405.414-.366.601-.869.357-1.568Zm-.413 3.208c.251 1.024-1.503 1.34-2.047 1.479l-.447-1.812c.552-.13 2.233-.722 2.494.333Zm-1-2.452c.228.926-1.234 1.185-1.689 1.3l-.406-1.641c.455-.122 1.852-.634 2.095.34Z" fill="#fff"/></g><defs><clipPath id="a"><path fill="#fff" d="M0 0h24v24H0z"/></clipPath></defs></svg>