<svg width="24" height="24" fill="none" xmlns="http://www.w3.org/2000/svg"><path d="M12 0C5.37 0 0 5.37 0 12s5.37 12 12 12 12-5.37 12-12S18.63 0 12 0Zm3.62 16.84H8.34V15.52c.02-.02.098-.098.236-.216a1.49 1.49 0 0 0 .256-.256c.04-.059.137-.137.236-.295.118-.138.177-.275.236-.393.059-.138.098-.295.177-.473.079-.177.118-.393.138-.649.02-.236.039-.511.039-.806v-.177H8.361v-1.358h1.278v-.354c0-.492.02-.924.079-1.318a5.22 5.22 0 0 1 .295-1.121c.158-.374.335-.669.61-.925.236-.236.59-.452.984-.59a4.572 4.572 0 0 1 1.436-.236c.964 0 1.75.177 2.38.512l-.433 1.357c-.649-.295-1.279-.453-1.849-.453-.61 0-1.062.178-1.338.551-.295.354-.433.964-.433 1.81v.767h2.38v1.358h-2.36v.216c0 .728-.04 1.338-.118 1.79-.079.472-.216.846-.413 1.122h4.76v1.455Z" fill="#0B223D"/></svg>