<svg width="24" height="24" fill="none" xmlns="http://www.w3.org/2000/svg"><mask id="a" mask-type="alpha" maskUnits="userSpaceOnUse" x="5" y="9" width="19" height="15"><path d="M5.463 9.9h18.47v13.38H5.464V9.9Z" fill="#fff"/></mask><g mask="url(#a)"><path fill-rule="evenodd" clip-rule="evenodd" d="M22.847 9.9c1.976 2.994 1.225 5.8-1.995 7.253-1.888.852-3.52 2.048-5.029 3.439-.054.05-.113.094-.162.147-3.29 3.544-6.482 3.303-10.198-.231l.117-.13c1.09-.195 2.178.027 3.265.05 3.43.07 6.274-1.186 8.676-3.564 2.031-1.62 3.434-3.714 4.576-6.013.178-.357.184-.887.75-.95Z" fill="#0095D9"/></g><path fill-rule="evenodd" clip-rule="evenodd" d="M5.463 20.508c-.993-.246-1.997-.447-2.924-.914C.566 18.602-.314 16.877.1 14.702c.116-.607.26-1.224.5-1.79.817-1.93 1.307-3.94 1.725-5.987.744-3.64 1.692-4.406 5.383-4.63.146-.01.29-.045.434-.068.402-.176.807-.371 1.127.133-.022.072-.05.172-.104.18-2.106.333-2.993 2.07-3.98 3.596-1.838 2.837-2.74 5.933-2.067 9.35.092.467.234.917.502 1.316.488 1.293 1.421 2.353 1.92 3.642l-.077.064Z" fill="#B2D134"/><path fill-rule="evenodd" clip-rule="evenodd" d="M9.247 2.427c-.33-.28-.738-.126-1.105-.2 1.709-1.63 3.6-2.061 5.445-.888 2.092 1.33 4.351 1.936 6.744 2.322 2.465.398 3.182 1.404 2.995 3.914-.052.69-.144 1.374-.512 1.984-.68-.088-.857-.724-1.219-1.146-1.586-1.85-3.41-3.339-5.82-3.975-.268-.075-.524-.176-.782-.275-1.487-.688-3.07-1.033-4.669-1.33-.377-.07-.81-.031-1.077-.406Z" fill="#EBE710"/><path fill-rule="evenodd" clip-rule="evenodd" d="M15.784 4.214c2.5.487 4.24 2.127 5.885 3.899.417.45.765.962 1.145 1.446l.034.342c-1.092 2.345-2.354 4.578-4.239 6.396-.253.244-.433.597-.84.647-.258-.752.378-1.203.623-1.776 1.347-3.153 1.286-6.16-.817-8.994-.31-.417-.708-.728-1.104-1.052-.295-.242-.716-.412-.687-.908Z" fill="#00845D"/><path fill-rule="evenodd" clip-rule="evenodd" d="M15.784 4.214c4.691 2.958 4.606 8.905 2.14 12.327-.082.112-.104.268-.154.403-2.02 2.243-4.545 3.504-7.543 3.736-1.562.121-3.138.1-4.687-.236-.998-.955-1.474-2.22-2.037-3.433-1.12-3.504-.622-6.777 1.791-9.543C7.87 4.517 11.087 2.984 15.13 3.99l.654.223Z" fill="#005120"/><path fill-rule="evenodd" clip-rule="evenodd" d="M15.13 3.99c-3.538-.36-6.637.553-9.169 3.138-2.426 2.477-2.995 5.496-2.59 8.804l.132 1.078c-1.22-1.64-1.027-3.545-.776-5.348.437-3.146 2.008-5.799 4.06-8.197.683-.797 1.443-1.16 2.46-1.038 2.042.217 4.053.55 5.883 1.563Z" fill="#4CB748"/><path fill-rule="evenodd" clip-rule="evenodd" d="M17.558 12.155c0 3.472-2.647 6.123-6.096 6.104-3.419-.018-6.225-2.826-6.202-6.205.025-3.506 3.117-6.55 6.63-6.526 3.316.022 5.667 2.772 5.668 6.627Z" fill="#FEFEFE"/></svg>