<svg width="24" height="24" fill="none" xmlns="http://www.w3.org/2000/svg"><path fill-rule="evenodd" clip-rule="evenodd" d="M12 0c6.626 0 12 5.374 12 12s-5.374 12-12 12S0 18.626 0 12 5.374 0 12 0Z" fill="#211F6D"/><path fill-rule="evenodd" clip-rule="evenodd" d="M7.896 6.216h7.992c1.06 0 1.92.859 1.92 1.92v7.992c0 .929-.751 1.68-1.68 1.68H7.896c-.929 0-1.68-.751-1.68-1.68V7.896c0-.929.751-1.68 1.68-1.68Z" fill="#fff"/><path d="M9.272 11.06a1.329 1.329 0 0 1 0-2.66 1.329 1.329 0 0 1 0 2.66ZM14.73 11.06a1.329 1.329 0 0 1 0-2.66 1.329 1.329 0 0 1 0 2.66ZM9.272 15.6a1.329 1.329 0 0 1 0-2.66 1.329 1.329 0 0 1 0 2.66ZM14.73 15.6a1.329 1.329 0 0 1 0-2.66 1.329 1.329 0 0 1 0 2.66Z" fill="#211F6D"/></svg>