<svg width="24" height="24" fill="none" xmlns="http://www.w3.org/2000/svg"><path d="M12 24c6.627 0 12-5.373 12-12S18.627 0 12 0 0 5.373 0 12s5.373 12 12 12Z" fill="#B3B3B3"/><path d="M5.06 5.243c.983-1.028 2.778-1.068 3.794-.07a220.17 220.17 0 0 1 3.149 3.14c1.106-1.05 2.14-2.17 3.25-3.216 1.056-.954 2.85-.839 3.79.23.961 1.007.946 2.766-.054 3.744-1.028 1.047-2.068 2.077-3.104 3.114 1.059 1.091 2.162 2.14 3.212 3.244.942 1.033.851 2.79-.168 3.74-1.005 1.014-2.805 1.017-3.808 0-1.043-1.021-2.063-2.072-3.1-3.1-1.105 1.064-2.16 2.18-3.279 3.233-1.07.95-2.875.806-3.796-.282-.928-1.005-.906-2.718.063-3.693.91-.933 1.835-1.85 2.764-2.761l1.166 1.166c-.91.94-1.867 1.84-2.764 2.795-.605.62-.072 1.774.777 1.761.515.045.87-.381 1.205-.703.888-.904 1.79-1.793 2.677-2.696-1.935-1.952-3.902-3.878-5.828-5.84-1.005-1.012-.973-2.818.054-3.8v-.006Zm1.123 2.63c1.025 1.069 2.089 2.097 3.131 3.15.502-.51 1.008-1.016 1.52-1.52-1.01-1.016-2.015-2.042-3.037-3.043-.326-.351-.883-.484-1.309-.23-.591.287-.777 1.166-.306 1.644l.001-.001Zm10.018-1.386c-1.925 1.89-3.81 3.817-5.725 5.717.517.5 1.032 1.003 1.535 1.517.386-.38.77-.766 1.155-1.152.389.388.775.778 1.167 1.164-.38.387-.762.77-1.149 1.154 1.039 1.044 2.057 2.108 3.13 3.118.544.573 1.6.226 1.757-.53.168-.534-.215-.995-.577-1.332-1.706-1.697-3.409-3.399-5.108-5.104.389-.388.776-.777 1.162-1.168.386.386.773.771 1.169 1.15 1.018-1.054 2.097-2.051 3.1-3.122.505-.492.302-1.432-.342-1.698-.434-.223-.963-.066-1.275.286Z" fill="url(#a)"/><defs><linearGradient id="a" x1="12.009" y1="19.934" x2="12.009" y2="4.448" gradientUnits="userSpaceOnUse"><stop stop-color="#2F75BB"/><stop offset="1" stop-color="#0A4185"/></linearGradient></defs></svg>