<svg width="24" height="24" fill="none" xmlns="http://www.w3.org/2000/svg"><path d="M12 24c6.627 0 12-5.373 12-12S18.627 0 12 0 0 5.373 0 12s5.373 12 12 12Z" fill="#25AAE1"/><path fill-rule="evenodd" clip-rule="evenodd" d="M12.26 18.745c-1.23.014-2.264-.209-3.237-.692-.06-.03-.105-.032-.165.002a5.388 5.388 0 0 1-1.913.646c-.288.038-.58.078-.869.02a1.024 1.024 0 0 1-.56-1.696c.344-.39.602-.848.757-1.344a.161.161 0 0 0-.02-.15 6.43 6.43 0 0 1-.958-2.789c-.22-2.192.462-4.069 2.033-5.608a6.437 6.437 0 0 1 3.647-1.803c1.903-.278 3.637.161 5.16 1.341 1.36 1.053 2.205 2.44 2.5 4.134.373 2.143-.167 4.053-1.605 5.685-1.063 1.206-2.413 1.922-4.001 2.176-.302.049-.608.062-.77.078Zm-4.823-1.791.105-.03c.426-.144.83-.35 1.195-.613.264-.186.524-.195.803-.036a4.863 4.863 0 0 0 1.923.628c1.115.12 2.167-.093 3.108-.697 1.628-1.044 2.438-2.547 2.35-4.494-.056-1.246-.544-2.323-1.429-3.2-1.065-1.055-2.362-1.537-3.864-1.433-1.013.07-1.928.418-2.707 1.068-1.51 1.26-2.093 2.876-1.758 4.813.11.638.364 1.223.722 1.763a.825.825 0 0 1 .128.673 6.118 6.118 0 0 1-.36 1.088c-.066.152-.138.301-.216.47Zm4.568-7.809.427.868c.15.307.305.615.45.925.038.081.088.11.172.121.63.088 1.26.18 1.889.27l.07.016c-.116.12-.224.237-.337.347-.356.347-.712.693-1.07 1.037-.063.06-.088.116-.071.208.112.632.217 1.266.324 1.9.002.015.002.032.004.063-.034-.014-.06-.022-.084-.035-.557-.293-1.114-.585-1.668-.883-.075-.04-.134-.044-.212-.002-.558.297-1.118.59-1.678.884-.023.013-.047.023-.09.044.027-.17.051-.322.078-.474.088-.511.176-1.024.27-1.534.013-.075-.029-.11-.07-.152-.447-.439-.895-.877-1.343-1.314-.026-.025-.062-.04-.093-.06l.023-.035.687-.1c.432-.06.863-.124 1.296-.183.069-.01.1-.046.129-.105.283-.577.568-1.152.853-1.728.01-.02.022-.039.045-.078h-.001Z" fill="#fff"/></svg>