<svg width="24" height="24" viewBox="0 0 24 24" fill="none" xmlns="http://www.w3.org/2000/svg">
<path fill-rule="evenodd" clip-rule="evenodd" d="M19.7601 4.34821L20.1185 3.16378C19.9505 3.00936 19.7783 2.85961 19.6018 2.71484L19.2461 3.85977C19.4227 4.01709 19.5941 4.17988 19.7601 4.34821Z" fill="#FBC531"/>
<path fill-rule="evenodd" clip-rule="evenodd" d="M4.33284 19.7451L3.97656 20.9227C4.14599 21.0751 4.31985 21.2226 4.49777 21.3653L4.85147 20.2268C4.67333 20.0719 4.50051 19.9111 4.33284 19.7451Z" fill="#FBC531"/>
<path fill-rule="evenodd" clip-rule="evenodd" d="M1.10132 12C1.10132 5.98082 5.98082 1.10132 12 1.10132C13.9119 1.10132 15.7084 1.59419 17.2706 2.45896L17.5961 1.38301C15.9251 0.500438 14.0212 0 12 0C5.3726 0 0 5.37255 0 12C0 14.5602 0.802301 16.9327 2.16838 18.8809L2.59468 17.5085C1.64592 15.8921 1.10132 14.0098 1.10132 12Z" fill="#FBC531"/>
<path fill-rule="evenodd" clip-rule="evenodd" d="M21.917 5.24268L21.4857 6.63111C22.3845 8.21588 22.8983 10.0478 22.8983 11.9999C22.8983 18.0192 18.0188 22.8986 11.9996 22.8986C10.1299 22.8986 8.37039 22.4276 6.83274 21.598L6.50781 22.672C8.15346 23.5205 10.0205 23.9999 11.9996 23.9999C18.627 23.9999 23.9996 18.6273 23.9996 11.9999C23.9996 9.49374 23.2309 7.16733 21.917 5.24268Z" fill="#FBC531"/>
<path fill-rule="evenodd" clip-rule="evenodd" d="M19.0361 4.53395C19.2125 4.70014 19.3828 4.87258 19.547 5.05077L19.7595 4.3483C19.5936 4.17997 19.4221 4.01718 19.2455 3.85986L19.0361 4.53395Z" fill="#FBC531"/>
<path fill-rule="evenodd" clip-rule="evenodd" d="M4.54408 19.0474L4.33301 19.745C4.50068 19.911 4.6735 20.0717 4.85164 20.2266L5.05997 19.5559C4.8821 19.3924 4.71005 19.2229 4.54408 19.0474Z" fill="#FBC531"/>
<path fill-rule="evenodd" clip-rule="evenodd" d="M12.0003 22.8986C18.0195 22.8986 22.899 18.0191 22.899 11.9999C22.899 10.0478 22.3852 8.21585 21.4864 6.63108L21.9177 5.24264C21.3985 4.4822 20.7943 3.78472 20.1185 3.16357L16.3016 15.7796L17.5016 19.4596L21.2189 7.49212C21.8855 8.85283 22.2603 10.3825 22.2603 11.9999C22.2603 17.6663 17.6667 22.2599 12.0003 22.2599C10.1939 22.2599 8.49684 21.7925 7.02254 20.9728L9.25503 13.5938L8.05509 9.91382L4.49805 21.3651C5.12051 21.8643 5.79339 22.3032 6.50851 22.672L6.83344 21.598C8.37109 22.4275 10.1306 22.8986 12.0003 22.8986Z" fill="white"/>
<path fill-rule="evenodd" clip-rule="evenodd" d="M16.8989 19.6002H15.2398C14.7877 19.6002 14.3887 19.3049 14.2566 18.8726L9.83892 4.42023H11.3971C11.8857 4.42023 12.3171 4.73875 12.4611 5.2056L16.8989 19.6002ZM12.3488 19.6002C11.8967 19.6002 11.4977 19.3049 11.3656 18.8726L6.94796 4.42023H8.5061C8.99465 4.42023 9.42615 4.73875 9.5701 5.2056L14.008 19.6002H12.3488ZM19.0367 4.53399L15.9454 14.4859L14.7455 10.806L17.0814 3.08511C15.5834 2.22949 13.8489 1.74023 12.0002 1.74023C6.33377 1.74023 1.74023 6.33377 1.74023 12.0002C1.74023 13.6788 2.14341 15.263 2.85799 16.6617L6.49897 4.94023L7.69892 8.62023L4.54412 19.0476C4.7101 19.2231 4.88215 19.3927 5.06002 19.5561L8.05503 9.91415L9.25497 13.5942L7.02248 20.9732C8.49678 21.7928 10.1938 22.2602 12.0002 22.2602C17.6666 22.2602 22.2602 17.6666 22.2602 12.0002C22.2602 10.3828 21.8854 8.85317 21.2189 7.49245L17.5015 19.4599L16.3016 15.7799L19.5476 5.05081C19.3834 4.87262 19.2131 4.70018 19.0367 4.53399Z" fill="#FBC531"/>
<path fill-rule="evenodd" clip-rule="evenodd" d="M4.54414 19.0472L7.69893 8.61976L6.49899 4.93976L2.858 16.6612C2.14343 15.2626 1.74025 13.6783 1.74025 11.9998C1.74025 6.33329 6.33378 1.73976 12.0002 1.73976C13.849 1.73976 15.5834 2.22902 17.0814 3.08464L14.7455 10.8055L15.9455 14.4855L19.6018 2.7145C18.9821 2.20661 18.3104 1.75992 17.5963 1.38277L17.2708 2.45872C15.7087 1.59395 13.9122 1.10107 12.0002 1.10107C5.98107 1.10107 1.10156 5.98058 1.10156 11.9998C1.10156 14.0095 1.64617 15.8918 2.59493 17.5083L2.16863 18.8807C2.6928 19.6283 3.29986 20.3133 3.9768 20.9224L4.54414 19.0472Z" fill="white"/>
<path fill-rule="evenodd" clip-rule="evenodd" d="M11.3971 4.41992H9.83887L14.2565 18.8723C14.3886 19.3046 14.7876 19.5999 15.2397 19.5999H16.8989L12.461 5.20529C12.3171 4.73844 11.8856 4.41992 11.3971 4.41992Z" fill="white"/>
<path fill-rule="evenodd" clip-rule="evenodd" d="M8.5054 4.41992H6.94727L11.3649 18.8723C11.497 19.3046 11.896 19.5999 12.3481 19.5999H14.0073L9.5694 5.20529C9.42546 4.73844 8.99395 4.41992 8.5054 4.41992Z" fill="white"/>
</svg>
