<svg width="24" height="24" fill="none" xmlns="http://www.w3.org/2000/svg"><g clip-path="url(#a)"><path d="M10.587 3.467c0-.067.067-.067.133-.134 1.867-1.066 3.8-2.2 5.667-3.266.067 0 .067 0 .133-.067h.067l1 .6c1.667.933 3.267 1.933 4.933 2.867V3.6c-.066 0-.133.067-.2.067l-1 .6c-.6.333-1.266.733-1.866 1.066-.534.334-1.067.667-1.667.934-.4.266-.8.466-1.2.733 0 0-.067 0-.067-.067-1.533-.866-3-1.733-4.533-2.6-.467-.333-.933-.6-1.4-.866Z" fill="#234871"/><path d="M1.92 8.6c.067 0 .067-.067.133-.067 1.867-1.066 3.8-2.2 5.667-3.333.067-.067.133-.067.267 0 1.866 1.133 3.8 2.2 5.666 3.333.067 0 .067 0 .134.067-.867.467-1.734 1-2.534 1.467l-3.4 2c-.133-.134-.333-.2-.533-.334-.533-.333-1.067-.6-1.6-.933-.467-.267-1-.6-1.467-.867-.6-.333-1.133-.666-1.733-1-.133-.066-.333-.2-.6-.333Z" fill="#1B2E58"/><path d="M1.92 8.6c.2.067.467.267.667.333.6.334 1.133.667 1.733 1 .467.267 1 .6 1.467.867.533.333 1.066.6 1.6.933.2.067.333.2.533.334V19c-.6-.333-1.133-.667-1.667-1-1.4-.8-2.8-1.6-4.2-2.467 0 0-.066-.066-.133-.066V8.6ZM16.52 24s0-.067 0 0c.067-.133 0-.133 0-.2v-6.733c1.733-1 3.4-2 5.133-3 .267-.134.534-.334.8-.467v6.933c-.066 0-.066 0-.133.067-1.867 1.133-3.8 2.2-5.667 3.333-.066 0-.066 0-.133.067Z" fill="#234871"/><path d="M16.52 6.933c.4-.266.8-.466 1.2-.733.533-.333 1.066-.667 1.666-.933.6-.334 1.267-.734 1.867-1.067l1-.6c.067-.067.133-.067.2-.067v6.934c-.067 0-.133.066-.133.066-1.867 1.067-3.734 2.2-5.667 3.267 0 0-.067.066-.133.066V6.934Z" fill="#1B2E58"/><path d="M22.454 13.666a4.966 4.966 0 0 0-.8.467c-1.734 1-3.4 2-5.134 3-1.6-.933-3.266-1.866-4.866-2.866-.334-.2-.667-.4-1.067-.6.2-.134.4-.267.533-.334.534-.267 1-.6 1.534-.867.133-.066.2-.066.266 0 1.2.667 2.334 1.4 3.534 2.067.066.067.133.067.2 0 1.133-.666 2.333-1.333 3.466-2.066a.203.203 0 0 1 .267 0c.733.333 1.4.733 2.067 1.2 0-.067 0-.067 0 0Z" fill="#69FEBB"/><path d="M10.586 13.666c.333.2.667.4 1.067.6 1.6.934 3.266 1.867 4.867 2.867V24l-1-.6c-1.6-.933-3.2-1.867-4.867-2.8-.067-.067-.133-.067-.133-.2v-6.6c.066-.067.066-.134.066-.134Z" fill="#1B2E58"/><path d="M16.52 6.933v6.934c-.2-.067-.333-.134-.466-.267-.534-.267-1-.6-1.534-.867-.066-.066-.133-.133-.133-.2V8.467c0-.067 0-.134-.133-.2-1.2-.667-2.4-1.4-3.6-2.067-.067-.067-.067-.067-.067-.133V3.6c.467.133.933.4 1.4.667 1.467.866 3 1.733 4.533 2.666 0-.066 0 0 0 0Z" fill="#69FEBB"/><path d="M7.854 19v-6.933l3.4-2c.866-.467 1.733-1 2.533-1.467.066.067 0 .067 0 .133v2.134c0 .066 0 .133-.134.2-1.2.733-2.466 1.4-3.666 2.133-.067.067-.067.133-.067.2v4.267c0 .133 0 .2-.133.2-.6.333-1.267.733-1.933 1.133.066-.067 0 0 0 0Z" fill="#69FDBB"/></g><defs><clipPath id="a"><path fill="#fff" d="M0 0h24v24H0z"/></clipPath></defs></svg>