<svg width="24" height="24" fill="none" xmlns="http://www.w3.org/2000/svg"><path d="M12 24c6.627 0 12-5.373 12-12S18.627 0 12 0 0 5.373 0 12s5.373 12 12 12Z" fill="#1B2D45"/><path d="M18.791 11.027V8.08L12 4.15 8.49 6.18l2.778 1.626-.689.442-2.804-1.652-2.567 1.489.01 7.854 3.52 2.015v-3.188l.673.39v3.182l2.63 1.52 6.756-3.945v-4.093l-2.736 1.605v-.779l2.73-1.62Zm-10.074-.92.374-.206 2.767 1.6 2.946-1.647.442.252v.442l-2.789 1.62v3.315l-.457.31-.358-.252v-3.173l-2.925-1.71v-.552Zm1.494 3.84-2.893-1.595v3.173l-.753-.426L6.55 8.9l1.157-.689.71.442-1.131.684.005 2.094 2.915 1.71v.805h.005Zm7.218.326v.857l-5.45 3.136-1.147-.679v-.815l1.168.657 1.873-1.083v-3.373l.705-.452.02 3.393 2.831-1.641Zm-2.641-6.066-2.91 1.683-.646-.4 2.84-1.678-2.793-1.615.72-.42 5.409 3.135v1.305l-.758.447V9.322l-1.862-1.115Z" fill="#719CD0"/></svg>