<svg width="24" height="24" fill="none" xmlns="http://www.w3.org/2000/svg"><path d="M12 24c6.627 0 12-5.373 12-12S18.627 0 12 0 0 5.373 0 12s5.373 12 12 12Z" fill="#338BE5"/><path d="M16.972 12.688c.548.147 1.088.318 1.574.617.216.133.418.289.6.464.27.3.252.617.006.934-.216.276-.51.452-.823.6-.792.381-1.632.598-2.49.727-.697.105-1.405.165-2.107.253a.255.255 0 0 0-.162.112c-.492.733-.979 1.468-1.47 2.202-.04.048-.076.1-.108.153-.52-.78-1.034-1.563-1.543-2.35a.246.246 0 0 0-.21-.123c-1.405-.1-2.791-.282-4.118-.757-.42-.147-.822-.33-1.17-.605-.019-.018-.043-.03-.06-.048-.51-.428-.523-.886-.03-1.327.39-.353.87-.552 1.368-.705.498-.153 1.002-.264 1.507-.393.024-.006.048-.006.09-.018-1.087-1.662-2.16-3.307-3.26-4.975.066-.006.114-.012.156-.012.68-.006 1.357 0 2.035-.006a.245.245 0 0 1 .234.135c1.643 2.505 3.284 5.01 4.923 7.519a.726.726 0 0 0 .084.117c.378-.57.744-1.116 1.104-1.662 1.32-1.995 2.64-3.988 3.961-5.98.048-.07.084-.123.192-.123.714.006 1.429.006 2.143.006.034 0 .067.002.102.006-1.115 1.681-2.231 3.361-3.35 5.04.283.07.553.129.823.2Zm-10.299 1.41c.14.156.304.29.486.393.75.4 1.579.546 2.438.675-.012-.04-.012-.058-.018-.07-.487-.734-.967-1.474-1.453-2.208a.174.174 0 0 0-.15-.047 6.974 6.974 0 0 0-.835.335 1.67 1.67 0 0 0-.462.376.388.388 0 0 0-.006.546Zm9.453.634c.327-.088.627-.258.87-.493.241-.24.241-.511 0-.758a.92.92 0 0 0-.203-.165c-.258-.129-.528-.252-.793-.38-.09-.048-.144-.013-.198.07-.282.435-.57.862-.858 1.292-.18.27-.36.546-.546.828a.578.578 0 0 0 .144 0c.528-.129 1.062-.247 1.584-.394Zm.006-7.982-4.11 6.549L7.855 6.75h8.276Z" fill="#fff"/></svg>