<svg width="24" height="24" fill="none" xmlns="http://www.w3.org/2000/svg"><path d="m9.968 21.029-1.523-3.15-2.718 4.28a10.651 10.651 0 0 0 1.676.863c1.042.432 2.134.711 3.251.838.229.026.47.051.698.064l-1.384-2.895Z" fill="#7CC245"/><path d="M23.505 8.813a19.396 19.396 0 0 0-.254-.8l-8.394 7.416-1.155 1.028.101.94.635 6.298c.42-.089.826-.19 1.232-.317 4.8-1.55 8.28-6.045 8.28-11.365a12.558 12.558 0 0 0-.445-3.2Z" fill="#FCCB32"/><path d="m6.997 18.362 1.854 3.847 6.425-5.676L14.108 4.99 6.997 18.362Z" fill="#EE3F26"/><path d="m7.81 17.943 6.133-11.518.038.432.66-1.232L3.1 9.245l4.571 9.498.28-.52-.14-.28Z" fill="#CF3627"/><path d="m9.41 21.257 1.257 2.603c.444.051.889.076 1.333.076 1.27 0 2.502-.203 3.657-.571l-.71-6.997-5.537 4.89Z" fill="#F05048"/><path d="m14.946 16.368.71 6.997c4.8-1.55 8.28-6.045 8.28-11.365 0-1.105-.152-2.172-.431-3.188l-8.56 7.556Z" fill="#FCCB32"/><path d="M13.308.14C12.876.089 12.432.063 12 .063c-4.254 0-7.987 2.235-10.108 5.588a12.13 12.13 0 0 0-1.27 2.73L3.797 9.6l10.146-3.187L15.035.444A13.29 13.29 0 0 0 13.308.14Z" fill="#2591D4"/><path d="M21.029 4.203A11.813 11.813 0 0 0 16.8 1.08a11.018 11.018 0 0 0-1.752-.61l-1.092 5.969 1.003 9.943 8.558-7.556a12.028 12.028 0 0 0-2.488-4.622Z" fill="#F47F22"/><path d="M7.81 17.943 3.797 9.6.622 8.38A12.034 12.034 0 0 0 .063 12c0 4.241 2.21 7.962 5.55 10.082.279.178.558.343.85.496l2.032-3.213-.685-1.422Z" fill="#4CAA4C"/><path d="m9.41 21.257-.915-1.892-2.032 3.213c.305.165.635.317.953.444a12.02 12.02 0 0 0 3.25.838L9.41 21.257Z" fill="#7CC245"/><path d="M21.029 4.203A11.813 11.813 0 0 0 16.8 1.08l-2.857 5.333 7.086-2.21Zm-7.086 2.223 1.003 9.943 8.559-7.556a11.873 11.873 0 0 0-2.476-4.61l-7.086 2.223Z" fill="#F47F22"/><path d="m7.81 17.943 1.6 3.314 5.536-4.889-1.003-9.943L7.81 17.943Z" fill="#EE3F26"/><path d="M13.943 6.425 13.308.14C12.876.089 12.432.063 12 .063c-4.254 0-7.987 2.235-10.108 5.588L3.797 9.6l10.146-3.175Z" fill="#1E85CA"/><path d="M13.943 6.425 3.797 9.6l4.013 8.343 6.133-11.518Z" fill="#CF3627"/><path d="m13.943 6.413 2.845-5.346A11.839 11.839 0 0 0 13.295.14l.648 6.273Z" fill="#35A9E1"/><path d="m9.41 21.257 1.257 2.603c.444.051.889.076 1.333.076 1.27 0 2.502-.203 3.657-.571l-.71-6.997-5.537 4.89Z" fill="#F05048"/><path d="m14.946 16.368.71 6.997c4.8-1.55 8.28-6.045 8.28-11.365 0-1.105-.152-2.172-.431-3.188l-8.56 7.556Z" fill="#FCCB32"/><path d="M7.416 23.022c1.041.432 2.133.712 3.25.838L9.41 21.257l-1.994 1.765Z" fill="#7CC245"/><path d="M1.892 5.65a11.965 11.965 0 0 0-1.765 5.106L3.797 9.6 1.892 5.65Z" fill="#0161AD"/><path d="m3.797 9.6-3.67 1.156A13.38 13.38 0 0 0 .063 12c0 4.241 2.21 7.962 5.55 10.083l2.197-4.14L3.797 9.6Z" fill="#4CAA4C"/><path d="m7.81 17.943-2.197 4.14a11.56 11.56 0 0 0 1.803.94l1.994-1.766-1.6-3.314Z" fill="#51B34B"/><path d="m14.197 2.692-.28.838c2.49 1.346 4.902 3.746 6.21 5.829l.85-.254c-1.409-2.286-4.05-4.94-6.78-6.413Z" fill="#444344"/><path d="M18.336.749c-1.6 0-2.996.876-3.733 2.171a3.442 3.442 0 0 0-.254.534c-.013.05-.038.089-.05.14-.013.038-.039.088-.051.126 2.235 1.308 4.368 3.404 5.65 5.321.026-.013.038-.013.064-.025.14-.064.28-.127.419-.203.102-.051.203-.115.305-.178A4.276 4.276 0 0 0 22.64 5.04c0-2.362-1.93-4.292-4.305-4.292Z" fill="#EE3F26"/><path d="M14.298 3.594c-.012.038-.038.089-.05.127 2.235 1.308 4.368 3.403 5.65 5.32.026-.012.038-.012.064-.025.14-.064.28-.127.419-.203-1.359-1.892-3.683-3.988-6.083-5.22Z" fill="#C03225"/></svg>