<svg width="24" height="24" fill="none" xmlns="http://www.w3.org/2000/svg"><path fill-rule="evenodd" clip-rule="evenodd" d="M20.41 20.41c-.849.85-2.328.849-3.177 0L3.589 6.767a2.233 2.233 0 0 1-.658-1.589c0-.6.234-1.165.658-1.59.425-.424.99-.657 1.59-.657.6 0 1.164.233 1.588.658l13.644 13.643a2.25 2.25 0 0 1 0 3.178ZM19.324 12l3.16-3.16A5.143 5.143 0 0 0 24 5.177a5.143 5.143 0 0 0-1.517-3.661 5.184 5.184 0 0 0-7.323 0L13.846 2.83l2.072 2.073 1.315-1.314a2.25 2.25 0 0 1 3.836 1.589c0 .6-.234 1.164-.658 1.589l-3.16 3.16-8.411-8.41A5.142 5.142 0 0 0 5.178 0a5.143 5.143 0 0 0-3.661 1.516A5.143 5.143 0 0 0 0 5.178c0 1.383.539 2.683 1.517 3.661L4.677 12l-3.16 3.161A5.143 5.143 0 0 0 0 18.822c0 1.382.539 2.683 1.517 3.661a5.162 5.162 0 0 0 3.661 1.514 5.163 5.163 0 0 0 3.662-1.514l1.304-1.305-2.072-2.072-1.305 1.304a2.25 2.25 0 0 1-3.178 0 2.25 2.25 0 0 1 0-3.178l3.16-3.16 8.411 8.411A5.146 5.146 0 0 0 18.822 24a5.145 5.145 0 0 0 3.661-1.517 5.184 5.184 0 0 0 0-7.323L19.323 12Z" fill="url(#a)"/><defs><linearGradient id="a" x1="1.517" y1="1.517" x2="22.483" y2="22.483" gradientUnits="userSpaceOnUse"><stop stop-color="#D53F3C"/><stop offset="1" stop-color="#C22752"/></linearGradient></defs></svg>