<svg width="24" height="24" viewBox="0 0 24 24" fill="none" xmlns="http://www.w3.org/2000/svg">
<g clip-path="url(#clip0)">
<path d="M11.6092 19.7731C7.96562 19.7731 5.00684 16.8144 5.00684 13.1708C5.00684 9.62873 10.9836 3.37301 11.2372 3.11094L11.55 2.78125L11.8712 3.10249C12.1333 3.36455 18.2115 9.62028 18.2115 13.1624C18.2115 16.8144 15.2527 19.7731 11.6092 19.7731ZM11.5584 4.05776C11.0343 4.62415 9.93533 5.84994 8.84481 7.28706C6.90891 9.84007 5.88602 11.869 5.88602 13.1624C5.88602 16.3156 8.45594 18.8855 11.6092 18.8855C14.7624 18.8855 17.3323 16.3156 17.3323 13.1624C17.3323 11.869 16.2925 9.84007 14.3228 7.28706C13.2154 5.85839 12.091 4.62415 11.5584 4.05776Z" fill="url(#paint0_linear)"/>
<path d="M11.6093 21.8864C6.79916 21.8864 2.89355 17.9724 2.89355 13.1707C2.89355 8.47044 9.45361 1.91038 9.73258 1.63986C9.90166 1.47079 10.1891 1.47079 10.3582 1.63986C10.5272 1.80894 10.5272 2.09636 10.3582 2.26544C10.2905 2.33306 3.78119 8.8424 3.78119 13.1707C3.78119 17.4905 7.29792 21.0072 11.6178 21.0072C15.9376 21.0072 19.4543 17.4905 19.4543 13.1707C19.4543 11.3954 18.3046 8.94384 16.1236 6.06114C14.4497 3.85473 12.7675 2.1809 12.7505 2.16399C12.573 1.99492 12.573 1.71595 12.7505 1.53842C12.9196 1.36089 13.1986 1.36089 13.3761 1.53842C13.6635 1.81739 20.342 8.46198 20.342 13.1707C20.325 17.9724 16.4194 21.8864 11.6093 21.8864Z" fill="url(#paint1_linear)"/>
<path d="M11.6094 23.9999C5.75942 23.9999 1 19.2405 1 13.3906C1 10.9728 2.21733 7.99712 4.60972 4.55647C6.37654 2.02037 8.10955 0.211281 8.18563 0.135198C8.3547 -0.0423292 8.63367 -0.0423292 8.8112 0.126744C8.98873 0.295818 8.98873 0.57479 8.81965 0.752317C8.80275 0.769224 7.05284 2.59522 5.32828 5.07215C3.07115 8.30991 1.87918 11.1842 1.87918 13.3906C1.87918 18.7502 6.24128 23.1208 11.6094 23.1208C16.9775 23.1208 21.3396 18.7587 21.3396 13.3906C21.3396 11.1842 20.1391 8.30991 17.8651 5.07215C16.1236 2.59522 14.3568 0.769224 14.3399 0.752317C14.1708 0.57479 14.1708 0.295818 14.3484 0.126744C14.5259 -0.0423292 14.8049 -0.0423292 14.9739 0.135198C15.2698 0.439531 22.2187 7.65897 22.2187 13.3906C22.2187 19.2405 17.4593 23.9999 11.6094 23.9999Z" fill="url(#paint2_linear)"/>
</g>
<defs>
<linearGradient id="paint0_linear" x1="11.6092" y1="19.7721" x2="11.6092" y2="2.78021" gradientUnits="userSpaceOnUse">
<stop stop-color="#05AAC5"/>
<stop offset="1" stop-color="#71E0EC"/>
</linearGradient>
<linearGradient id="paint1_linear" x1="11.6178" y1="21.8854" x2="11.6178" y2="1.40424" gradientUnits="userSpaceOnUse">
<stop stop-color="#05AAC5"/>
<stop offset="1" stop-color="#71E0EC"/>
</linearGradient>
<linearGradient id="paint2_linear" x1="11.6094" y1="23.9989" x2="11.6094" y2="-6.05138e-05" gradientUnits="userSpaceOnUse">
<stop stop-color="#05AAC5"/>
<stop offset="1" stop-color="#71E0EC"/>
</linearGradient>
<clipPath id="clip0">
<rect width="24" height="24" fill="white"/>
</clipPath>
</defs>
</svg>
