<svg width="24" height="24" fill="none" xmlns="http://www.w3.org/2000/svg"><path d="M11.61 1.092 1.92 6.703v11.223l9.69 5.612 9.69-5.612V6.703l-9.69-5.61Z" fill="#fff"/><path d="M15.428 19.146h-1.375l-1.646-1.52v-.773l1.708-1.642V12.62l2.232-1.457 2.549 1.923-3.469 6.06Zm-5.7-4.094.254-2.441-.832-2.178h4.938l-.814 2.178.237 2.433-1.9.008H9.727Zm1.12 2.574-1.645 1.537H7.81l-3.484-6.078 2.556-1.906 2.26 1.44v2.592l1.706 1.643v.772ZM7.784 5.944h7.627l.919 3.9H6.9l.884-3.9Zm3.826-4.852L1.92 6.703v11.223l9.69 5.612 9.69-5.612V6.703l-9.69-5.61Z" fill="#002D72"/><path style="mix-blend-mode:multiply" d="M15.428 19.146h-1.375l-1.646-1.52v-.773l1.708-1.642v-2.592l2.232-1.457 2.549 1.923-3.469 6.06ZM11.61 1.092v4.852h3.8l.92 3.9h-4.72v.589h2.478l-.814 2.178.236 2.433-1.9.008v8.486l9.69-5.612V6.703l-9.69-5.61Z" fill="url(#a)"/><path style="mix-blend-mode:multiply" d="m10.848 17.626-1.645 1.537H7.81l-3.484-6.078 2.556-1.906 2.26 1.44v2.592l1.707 1.642v.773Zm-1.12-2.574.254-2.441-.832-2.178h2.46v-.59H6.9l.884-3.9h3.826v-4.85l-9.69 5.61v11.223l9.69 5.612v-8.486H9.728Z" fill="url(#b)"/><defs><linearGradient id="a" x1="16.456" y1="21.117" x2="16.456" y2="3.458" gradientUnits="userSpaceOnUse"><stop stop-color="#002D72"/><stop offset="1" stop-color="#002D72" stop-opacity="0"/></linearGradient><linearGradient id="b" x1="6.765" y1="21.117" x2="6.765" y2="3.458" gradientUnits="userSpaceOnUse"><stop stop-color="#002D72" stop-opacity="0"/><stop offset="1" stop-color="#002D72"/></linearGradient></defs></svg>