<svg width="24" height="24" fill="none" xmlns="http://www.w3.org/2000/svg"><path d="M16.969 8.964v5.973l5.172-2.98V5.972L16.97 8.964Z" fill="#9290B0"/><path d="m22.141 17.929-5.172-2.992v5.984l5.172 2.98V17.93Z" fill="#A2EEE3"/><path d="M11.796 5.973V0L1.44 5.973l5.173 2.991 5.183-2.991Z" fill="#46DDC8"/><path d="m11.796 17.929-5.183-2.992-5.173 2.992 5.173 2.992 5.183 2.98V17.93Z" fill="#262261"/><path d="M1.44 5.973v11.956l5.173-2.992V8.964L1.44 5.973Z" fill="#9290B0"/><path d="m16.968 14.937-5.172 2.992V23.9l5.172-2.98v-5.984Z" fill="#46DDC8"/><path d="m16.968 8.964 5.173-2.991-5.172-2.981L11.795 0v5.973l5.172 2.991Z" fill="#262261"/></svg>