<svg width="24" height="24" viewBox="0 0 24 24" fill="none" xmlns="http://www.w3.org/2000/svg">
<path d="M12.0397 0.102051C5.44696 0.102051 0.102539 5.44668 0.102539 12.0389C0.102539 18.6317 5.44696 23.9767 12.0397 23.9767C18.6323 23.9767 23.9767 18.6318 23.9767 12.0389C23.9767 5.44668 18.6323 0.102051 12.0397 0.102051ZM18.8607 12.0389C18.8607 14.2267 17.8278 16.1694 16.2263 17.417L15.4429 16.1744C16.6362 15.1916 17.3991 13.7057 17.3991 12.0388C17.3991 10.2521 16.522 8.673 15.1776 7.69952L16.1798 6.62373C17.8079 7.87047 18.8607 9.83026 18.8607 12.0389ZM14.0463 8.91395C15.0752 9.57437 15.7585 10.7252 15.7585 12.039C15.7585 13.1209 15.2958 14.0928 14.5583 14.7714L12.1494 10.9502L14.0463 8.91395ZM15.8346 2.87963L10.0679 8.97816L10.8854 2.92879H8.12843C9.32843 2.41268 10.6504 2.12584 12.0397 2.12584C13.3841 2.12595 14.6654 2.39458 15.8346 2.87963ZM5.99517 15.1991C5.4997 14.2544 5.21864 13.1799 5.21864 12.0389C5.21864 10.2435 5.91528 8.61247 7.0498 7.39468L5.99517 15.1991ZM2.12643 12.0389C2.12643 8.15237 4.36433 4.79026 7.62107 3.16552L7.42833 4.59163C4.93791 6.13637 3.27896 8.8931 3.27896 12.039C3.27896 14.3387 4.16833 16.4275 5.61791 17.99L5.42454 19.421C3.40054 17.6058 2.12643 14.9716 2.12643 12.0389ZM6.56138 20.3006H8.53822L9.57349 12.6402L9.65822 12.6505L14.4814 20.3007H17.5182C15.9484 21.3439 14.0659 21.9529 12.0398 21.9529C10.014 21.9529 8.13075 21.3438 6.56138 20.3006ZM17.883 20.0453L17.2663 19.0668C19.4101 17.4704 20.8003 14.9177 20.8003 12.0389C20.8003 9.27016 19.5143 6.8031 17.5084 5.19784L18.2969 4.35163C20.5275 6.16921 21.9526 8.93721 21.9526 12.0389C21.9527 15.3283 20.3497 18.2421 17.883 20.0453Z" fill="#DE4235"/>
</svg>
