<svg width="24" height="24" fill="none" xmlns="http://www.w3.org/2000/svg"><path d="M23.741 11.72 17.373 4.8l-5.45 5.865L6.582 4.8.213 11.72a.805.805 0 0 0 0 1.092l6.368 6.956 5.353-5.744 5.44 5.744 6.367-6.961a.809.809 0 0 0 0-1.086Zm-20.483.934a.642.642 0 0 1 .01-.872L6.596 8.29l3.851 4.034-3.85 4.033-3.34-3.704Zm17.429 0-3.35 3.694-3.85-4.034 3.85-4.033 3.33 3.49a.64.64 0 0 1 .02.883Z" fill="#3C3738"/><path d="m6.902 8.609 9.21 9.838 1.522-1.78L8.49 6.898l-1.589 1.71Z" fill="url(#a)"/><path d="m6.75 16.159 1.573 1.644 9.164-9.701-1.589-1.71-9.148 9.767Z" fill="#3C3738"/><defs><linearGradient id="a" x1="16.713" y1="16.923" x2="7.241" y2="9.052" gradientUnits="userSpaceOnUse"><stop stop-color="#3C3738"/><stop offset=".5" stop-color="#040404"/><stop offset="1" stop-color="#3C3738"/></linearGradient></defs></svg>