<svg width="24" height="24" viewBox="0 0 24 24" fill="none" xmlns="http://www.w3.org/2000/svg">
<g clip-path="url(#clip0)">
<path d="M23.5496 11.2314H23.5226L22.6676 7.10211C22.7491 7.07204 22.8175 7.01431 22.8608 6.93899C22.9041 6.86367 22.9196 6.77553 22.9046 6.68995C22.8896 6.60436 22.845 6.52676 22.7786 6.47068C22.7123 6.4146 22.6283 6.38358 22.5414 6.38305C22.4756 6.38309 22.411 6.40122 22.3547 6.43547L18.9904 2.4569C19.0606 2.38989 19.1014 2.29771 19.1037 2.20064C19.106 2.10358 19.0697 2.00957 19.0027 1.93931C18.9357 1.86904 18.8435 1.82827 18.7464 1.82597C18.6493 1.82366 18.5553 1.86001 18.4851 1.92702C18.4554 1.9551 18.4307 1.98806 18.4122 2.02448L15.0282 0.491361C15.0415 0.45373 15.0484 0.414151 15.0487 0.374248C15.0484 0.281184 15.0131 0.191632 14.9499 0.123354C14.8866 0.0550764 14.8 0.0130601 14.7073 0.00563862C14.6145 -0.00178284 14.5223 0.0259326 14.449 0.0832881C14.3757 0.140643 14.3267 0.223449 14.3116 0.315282H12.2535C12.1821 0.255427 12.092 0.222621 11.9988 0.222621C11.9057 0.222621 11.8155 0.255427 11.7441 0.315282H9.68194C9.67587 0.265896 9.65991 0.21824 9.63501 0.175161C9.61011 0.132083 9.57678 0.0944668 9.53702 0.0645605C9.49725 0.0346543 9.45186 0.0130719 9.40357 0.00110323C9.35527 -0.0108654 9.30506 -0.0129747 9.25593 -0.00509853C9.2068 0.00277764 9.15976 0.0204776 9.11763 0.0469435C9.07549 0.0734094 9.03912 0.108098 9.0107 0.148936C8.98227 0.189775 8.96237 0.235925 8.95219 0.284628C8.942 0.333331 8.94174 0.383588 8.95141 0.432395C8.95401 0.452477 8.95868 0.472237 8.96534 0.491361L5.58707 2.02448C5.54265 1.93814 5.46576 1.87298 5.3733 1.84334C5.28084 1.8137 5.18039 1.822 5.09405 1.86642C5.00771 1.91084 4.94255 1.98773 4.91291 2.08019C4.88327 2.17265 4.89157 2.2731 4.93599 2.35944C4.95495 2.39559 4.97956 2.42849 5.00888 2.4569L1.62979 6.424C1.57353 6.38976 1.50894 6.37162 1.44307 6.37159C1.35618 6.37212 1.27224 6.40313 1.20587 6.45921C1.13951 6.5153 1.09493 6.5929 1.07992 6.67848C1.06491 6.76406 1.08041 6.8522 1.12373 6.92752C1.16705 7.00285 1.23543 7.06058 1.31695 7.09065L0.4775 11.2338H0.450474C0.3293 11.2389 0.214771 11.2906 0.130822 11.3781C0.0468725 11.4656 0 11.5822 0 11.7035C0 11.8248 0.0468725 11.9414 0.130822 12.0289C0.214771 12.1164 0.3293 12.1681 0.450474 12.1732H0.4775L1.32186 16.3074C1.24034 16.3374 1.17196 16.3952 1.12864 16.4705C1.08533 16.5458 1.06982 16.6339 1.08483 16.7195C1.09985 16.8051 1.14442 16.8827 1.21078 16.9388C1.27715 16.9949 1.36109 17.0259 1.44798 17.0264C1.51374 17.0256 1.57814 17.0075 1.63471 16.974L5.0097 20.9501C4.97119 20.9869 4.94116 21.0315 4.9217 21.0811C4.90223 21.1306 4.8938 21.1838 4.89698 21.2369C4.90017 21.29 4.91489 21.3418 4.94014 21.3887C4.96538 21.4355 5.00054 21.4763 5.04315 21.5082C5.08577 21.54 5.13482 21.5622 5.1869 21.5732C5.23897 21.5842 5.29281 21.5837 5.34466 21.5717C5.39652 21.5598 5.44514 21.5366 5.48715 21.504C5.52916 21.4713 5.56354 21.4299 5.58789 21.3825L8.96943 22.9165C8.95648 22.9542 8.94957 22.9937 8.94896 23.0336C8.94926 23.1267 8.98453 23.2162 9.04777 23.2845C9.111 23.3528 9.1976 23.3948 9.29036 23.4022C9.38313 23.4096 9.4753 23.3819 9.54859 23.3246C9.62188 23.2672 9.67094 23.1844 9.68603 23.0926H11.7441C11.8156 23.1521 11.9057 23.1847 11.9988 23.1847C12.0919 23.1847 12.182 23.1521 12.2535 23.0926H14.3116C14.3267 23.1844 14.3757 23.2672 14.449 23.3246C14.5223 23.3819 14.6145 23.4096 14.7073 23.4022C14.8 23.3948 14.8866 23.3528 14.9499 23.2845C15.0131 23.2162 15.0484 23.1267 15.0487 23.0336C15.0485 22.9937 15.0415 22.9541 15.0282 22.9165L18.413 21.3793C18.4374 21.4266 18.4717 21.468 18.5138 21.5007C18.5558 21.5334 18.6044 21.5565 18.6562 21.5684C18.7081 21.5804 18.7619 21.5809 18.814 21.5699C18.8661 21.5589 18.9151 21.5367 18.9577 21.5049C19.0004 21.473 19.0355 21.4322 19.0608 21.3854C19.086 21.3385 19.1007 21.2867 19.1039 21.2336C19.1071 21.1805 19.0987 21.1273 19.0792 21.0778C19.0597 21.0283 19.0297 20.9836 18.9912 20.9468L22.358 16.9904C22.4146 17.0239 22.479 17.042 22.5447 17.0428C22.6316 17.0423 22.7156 17.0113 22.7819 16.9552C22.8483 16.8991 22.8929 16.8215 22.9079 16.7359C22.9229 16.6503 22.9074 16.5622 22.8641 16.4869C22.8207 16.4115 22.7524 16.3538 22.6708 16.3237L23.525 12.1683H23.5521C23.6732 12.1632 23.7878 12.1115 23.8717 12.024C23.9557 11.9365 24.0025 11.8199 24.0025 11.6986C24.0025 11.5773 23.9557 11.4607 23.8717 11.3732C23.7878 11.2857 23.6732 11.234 23.5521 11.2289L23.5496 11.2314ZM22.512 7.12504L22.8903 10.1692L21.6856 7.64181C21.7622 7.58458 21.8183 7.50421 21.8456 7.4126C21.8728 7.32099 21.8699 7.22303 21.8371 7.13323L22.2261 6.95306C22.2572 7.00196 22.2991 7.04296 22.3487 7.07282C22.3983 7.10267 22.4542 7.12055 22.512 7.12504ZM20.8626 15.0306L20.7807 11.9889C20.839 11.9845 20.8947 11.9624 20.9403 11.9257C20.9859 11.889 21.0193 11.8394 21.0362 11.7834H21.6439C21.6439 11.7981 21.6504 11.8128 21.6545 11.8284C21.6586 11.844 21.6643 11.862 21.6701 11.8784V11.8882C21.6934 11.9469 21.7286 12.0002 21.7734 12.0447C21.8182 12.0892 21.8717 12.124 21.9305 12.147L21.6144 14.3091L21.0411 15.3549L20.8626 15.0306ZM2.94834 15.3533L2.37506 14.3074L2.06221 12.1445C2.13816 12.1149 2.20488 12.0656 2.25553 12.0017C2.30618 11.9378 2.33895 11.8616 2.35049 11.7809H2.97045C2.97884 11.7994 2.9887 11.8172 2.99994 11.8341C3.02143 11.8744 3.05214 11.9091 3.08957 11.9353C3.127 11.9615 3.17009 11.9785 3.21533 11.9848L3.13343 15.0289L2.94834 15.3533ZM2.97209 15.6055V15.5998V15.6055ZM3.13589 8.37152L3.21778 11.4156C3.17244 11.4217 3.12922 11.4385 3.09174 11.4648C3.05426 11.491 3.02362 11.5258 3.00239 11.5663C2.99081 11.583 2.98094 11.6009 2.97291 11.6196H2.35622C2.34493 11.5388 2.31225 11.4625 2.26157 11.3985C2.21088 11.3346 2.14404 11.2854 2.06795 11.2559L2.38407 9.09058L2.95735 8.04475L3.13589 8.37152ZM21.0476 8.04966L21.6209 9.09549L21.937 11.2576C21.878 11.2803 21.8244 11.315 21.7796 11.3596C21.7348 11.4041 21.6997 11.4575 21.6766 11.5164V11.5262C21.6705 11.5425 21.6653 11.5592 21.6611 11.5762C21.6566 11.591 21.6531 11.606 21.6504 11.6212H21.0476C21.0311 11.565 20.9977 11.5152 20.9521 11.4784C20.9064 11.4417 20.8506 11.4198 20.7921 11.4156L20.874 8.37398L21.0476 8.04966ZM21.0239 7.79742H21.028V7.80315L21.0239 7.79742ZM21.1058 7.94729L21.2434 7.70733C21.2956 7.72766 21.3511 7.73848 21.4072 7.73927H21.4211L21.5775 8.80394L21.1058 7.94729ZM22.7912 11.6327H22.5709C22.5597 11.5648 22.5337 11.5002 22.4946 11.4436C22.4555 11.3869 22.4044 11.3397 22.3449 11.3051C22.3356 11.2994 22.326 11.2942 22.3162 11.2895C22.3059 11.2837 22.2952 11.2785 22.2843 11.274C22.2264 11.2476 22.1636 11.234 22.1 11.2338H22.0746L21.8142 9.45748L22.8977 11.4361C22.84 11.4868 22.8011 11.5555 22.7871 11.631L22.7912 11.6327ZM22.8985 11.9725L21.8175 13.9512L22.0779 12.1748H22.1033C22.1668 12.1743 22.2296 12.1607 22.2876 12.1347C22.2982 12.1347 22.3089 12.1241 22.3187 12.1191C22.3285 12.1144 22.3381 12.1092 22.3474 12.1036C22.4067 12.0688 22.4577 12.0215 22.4968 11.9649C22.5358 11.9083 22.562 11.8438 22.5734 11.776H22.7937C22.8063 11.8508 22.8428 11.9194 22.8977 11.9717L22.8985 11.9725ZM20.8716 8.06604L20.8773 7.84983C20.8958 7.84822 20.9142 7.84493 20.9322 7.84001L20.9657 7.90143L20.8716 8.06604ZM20.9535 7.28228V7.28884C20.9231 7.27738 20.8909 7.27155 20.8585 7.27164C20.8352 7.27164 20.812 7.27495 20.7897 7.28147V7.26672L20.7012 7.07181L20.969 7.16599C20.9564 7.20334 20.9487 7.24215 20.9461 7.28147L20.9535 7.28228ZM20.7782 7.84001L20.7676 8.24949L19.5661 10.3395L18.377 9.00131C18.4186 8.95016 18.4414 8.88627 18.4417 8.82032C18.4417 8.79255 18.4376 8.76494 18.4294 8.73842L20.6054 7.71143C20.6428 7.77217 20.701 7.81727 20.7692 7.83837L20.7782 7.84001ZM16.8389 17.8446L16.9978 17.7889L16.8553 18.1984C16.841 18.1958 16.8265 18.1944 16.8119 18.1943C16.7929 18.1942 16.774 18.1961 16.7554 18.2C16.7935 18.1503 16.8205 18.093 16.8347 18.032C16.8488 17.971 16.8497 17.9076 16.8373 17.8462L16.8389 17.8446ZM16.7898 17.707C16.7517 17.6362 16.6951 17.577 16.626 17.5358L17.7644 14.7022L17.884 14.6809C17.9086 14.7515 17.9593 14.8101 18.0256 14.8447L17.0527 17.6079L16.7898 17.707ZM16.5187 18.4875L15.8635 18.6079L16.1363 18.3081C16.1968 18.3481 16.266 18.373 16.3382 18.3805C16.4103 18.3881 16.4832 18.3781 16.5507 18.3515C16.5311 18.3893 16.5202 18.431 16.5187 18.4736L16.5138 18.485L16.5187 18.4875ZM12.2846 19.367L15.5269 18.77L13.6433 20.8494L12.2339 19.539C12.2667 19.4907 12.2844 19.4337 12.2846 19.3752C12.2818 19.3723 12.2793 19.369 12.2773 19.3654L12.2846 19.367ZM12.2666 19.272C12.2506 19.2249 12.2223 19.1828 12.1847 19.15L12.889 17.9985H15.943C15.956 18.0751 15.9884 18.147 16.0372 18.2074L15.6424 18.6472L12.2666 19.272ZM11.7752 19.5358L10.3658 20.8461L8.48214 18.7667L11.7245 19.3638V19.3687C11.7216 19.426 11.7355 19.483 11.7646 19.5325L11.7752 19.5358ZM11.7433 19.272L8.37486 18.6504L7.97602 18.2107C8.02479 18.1503 8.05722 18.0784 8.0702 18.0018H11.1241L11.8178 19.1484C11.7804 19.1809 11.7521 19.2227 11.7359 19.2696L11.7433 19.272ZM7.48463 18.4727C7.48315 18.4302 7.47224 18.3885 7.45269 18.3507C7.52017 18.3773 7.59307 18.3872 7.6652 18.3797C7.73734 18.3721 7.80659 18.3473 7.86709 18.3073L8.13981 18.607L7.48463 18.4867V18.4727ZM7.25123 18.1984C7.21833 18.191 7.18421 18.191 7.15131 18.1984L7.00881 17.7889L7.16769 17.8446C7.16245 17.8716 7.15971 17.899 7.1595 17.9265C7.15769 18.0229 7.18635 18.1175 7.2414 18.1967L7.25123 18.1984ZM7.21601 17.707L6.94657 17.6128L5.97854 14.8414C6.04489 14.8068 6.09556 14.7482 6.12022 14.6776L6.23979 14.6989L7.37817 17.5326C7.30719 17.574 7.24886 17.634 7.20946 17.7062L7.21601 17.707ZM7.16687 5.55998L7.00799 5.61567L7.15049 5.20619C7.16495 5.207 7.17944 5.207 7.1939 5.20619C7.21284 5.20549 7.23171 5.20358 7.25041 5.20046C7.17876 5.304 7.14678 5.42988 7.16032 5.55507L7.16687 5.55998ZM7.21601 5.69757C7.25458 5.76806 7.31108 5.8271 7.3798 5.86874L6.24143 8.70238L6.12186 8.72368C6.09772 8.65274 6.0469 8.59399 5.98018 8.55988L6.95148 5.78848L7.21601 5.69757ZM7.49037 4.91382L8.14554 4.79343L7.87283 5.09317C7.81249 5.05277 7.74321 5.02771 7.671 5.02014C7.59879 5.01258 7.52582 5.02275 7.45843 5.04976C7.47778 5.01188 7.48867 4.97024 7.49037 4.92774L7.49528 4.91627L7.49037 4.91382ZM11.7236 4.03751L8.48132 4.63455L10.365 2.55517L11.7744 3.86553C11.7413 3.91374 11.7236 3.97085 11.7236 4.02932C11.7236 4.02932 11.7171 4.03506 11.7171 4.0367L11.7236 4.03751ZM11.7417 4.13251C11.7582 4.17948 11.7863 4.22148 11.8236 4.25454L11.1184 5.4052H8.06447C8.05181 5.32857 8.01934 5.25657 7.97028 5.19636L8.36912 4.75657L11.7417 4.13251ZM12.233 3.86881L13.6425 2.55845L15.5261 4.63782L12.2846 4.04079V4.03588C12.2848 3.97561 12.2659 3.91683 12.2306 3.86799L12.233 3.86881ZM12.265 4.13251L15.6334 4.75412L16.0323 5.1939C15.9828 5.25481 15.9503 5.3277 15.9381 5.4052H12.8841L12.1798 4.25372C12.2166 4.2213 12.2448 4.1802 12.2617 4.13415L12.265 4.13251ZM16.5236 4.93183C16.5253 4.97434 16.5362 5.01597 16.5556 5.05386C16.4882 5.02684 16.4152 5.01668 16.343 5.02424C16.2708 5.0318 16.2015 5.05687 16.1412 5.09727L15.8685 4.79752L16.5236 4.91791V4.93183ZM16.757 5.20619C16.7757 5.20931 16.7946 5.21123 16.8136 5.21192C16.828 5.21277 16.8425 5.21277 16.857 5.21192L16.9995 5.62141L16.8406 5.56572C16.8531 5.50432 16.8522 5.44096 16.8381 5.37992C16.824 5.31888 16.7969 5.26159 16.7587 5.21192L16.757 5.20619ZM16.7923 5.69757L17.0617 5.79175L18.0297 8.56316C17.963 8.59727 17.9122 8.65602 17.888 8.72695L17.7685 8.70566L16.6252 5.87201C16.6944 5.82878 16.7509 5.76804 16.789 5.69593L16.7923 5.69757ZM19.0412 11.2527C18.959 11.2222 18.8693 11.2185 18.7848 11.242L18.3319 10.1159L18.2369 9.09959C18.2659 9.09154 18.2936 9.07912 18.3188 9.06273L19.517 10.4247L19.0412 11.2527ZM19.6234 10.5451L20.5079 11.5475L20.4801 11.6138H19.3458C19.3272 11.5005 19.2663 11.3983 19.1755 11.328L19.6234 10.5451ZM18.5219 11.4238C18.4997 11.4168 18.4765 11.4129 18.4531 11.4124L18.3819 10.6474L18.6448 11.3026C18.5954 11.334 18.5528 11.3749 18.5195 11.423L18.5219 11.4238ZM18.644 12.1011L18.3811 12.7563L18.4523 11.9914C18.4756 11.9901 18.4987 11.9862 18.5211 11.9799C18.5533 12.0275 18.5941 12.0686 18.6415 12.1011H18.644ZM18.2631 10.3477L18.3655 11.4238C18.3207 11.4364 18.2796 11.4598 18.246 11.4919C18.2123 11.524 18.1869 11.5639 18.1722 11.6081H16.1445C16.1345 11.5785 16.1196 11.5508 16.1002 11.5262L17.843 9.30597L18.2631 10.3477ZM11.6786 11.3591C11.6108 11.4254 11.5655 11.5114 11.5492 11.6048L8.3896 11.6089C8.36342 11.5548 8.32106 11.5101 8.26839 11.4812L9.42396 8.44604C9.48453 8.46214 9.54872 8.45783 9.60659 8.43376L11.6786 11.3591ZM9.73026 8.32893C9.75804 8.29073 9.77603 8.2463 9.78267 8.19953H14.2199C14.2265 8.2463 14.2445 8.29073 14.2723 8.32893L12.188 11.269C12.1294 11.2421 12.0657 11.2281 12.0013 11.2281H11.9955C11.9311 11.2281 11.8674 11.2421 11.8088 11.269L9.73026 8.32893ZM8.38796 11.7973H11.5476C11.564 11.8907 11.6093 11.9766 11.677 12.043L9.60495 14.9724C9.54728 14.9476 9.48281 14.9432 9.42232 14.9602L8.26675 11.93C8.31991 11.8993 8.36226 11.853 8.38796 11.7973ZM11.8096 12.1331C11.8684 12.1593 11.932 12.1732 11.9964 12.174H12.0021C12.0665 12.1732 12.13 12.1593 12.1888 12.1331L14.2682 15.0691C14.2401 15.1071 14.2221 15.1516 14.2158 15.1985H9.78021C9.77388 15.1516 9.75585 15.1071 9.7278 15.0691L11.8096 12.1331ZM12.3215 12.043C12.3892 11.9766 12.4344 11.8907 12.4509 11.7973H15.5966C15.6195 11.861 15.6638 11.9148 15.7219 11.9496L14.5753 14.961C14.5146 14.9436 14.4497 14.948 14.3919 14.9733L12.3215 12.043ZM15.5974 11.604L12.4484 11.5999C12.4321 11.5065 12.3869 11.4205 12.319 11.3542L14.3902 8.42393C14.4496 8.44904 14.5158 8.45308 14.5778 8.4354L15.7243 11.4468C15.6644 11.4821 15.6193 11.538 15.5974 11.604ZM14.5049 7.86867C14.4695 7.86862 14.4345 7.87529 14.4017 7.88832L12.9742 5.55425H15.9348C15.9509 5.64724 15.9952 5.73303 16.0617 5.79994L14.5876 7.88014C14.561 7.87225 14.5334 7.86866 14.5057 7.86949L14.5049 7.86867ZM14.3255 7.93255C14.2682 7.97708 14.2301 8.04183 14.219 8.11354H9.78021C9.76913 8.04183 9.73104 7.97708 9.67375 7.93255L11.1323 5.55753H12.8661L14.3255 7.93255ZM9.60004 7.88914C9.54073 7.86516 9.47481 7.86312 9.41413 7.88341L7.94408 5.80322C8.01088 5.7365 8.05525 5.65062 8.07102 5.55753H11.0316L9.60004 7.88914ZM9.34534 8.40755L8.18977 11.4451C8.16991 11.4405 8.14956 11.4383 8.12916 11.4386C8.07596 11.4385 8.02379 11.4533 7.97847 11.4812L6.19885 9.20851L6.37492 8.76954L9.22085 8.25031C9.24174 8.31523 9.2846 8.37083 9.34206 8.40755H9.34534ZM8.12589 11.9635C8.14733 11.9632 8.1687 11.961 8.18977 11.957L9.34616 14.9946C9.28795 15.0305 9.24441 15.0859 9.22331 15.151L6.37738 14.6317L6.2013 14.1928L7.97684 11.9201C8.02186 11.9474 8.07326 11.9624 8.12589 11.9635ZM9.41086 15.5195C9.47165 15.539 9.53728 15.5369 9.59676 15.5138L11.0242 17.8462H8.06365C8.04825 17.753 8.00383 17.667 7.93671 17.6005L9.41086 15.5195ZM9.67375 15.4696C9.73073 15.4248 9.76874 15.3601 9.78021 15.2886H14.219C14.2305 15.3601 14.2685 15.4248 14.3255 15.4696L12.8669 17.8446H11.1315L9.67375 15.4696ZM14.4025 15.5138C14.462 15.5369 14.5276 15.539 14.5884 15.5195L16.0626 17.5997C15.9957 17.6664 15.9513 17.7523 15.9356 17.8454H12.975L14.4025 15.5138ZM14.6597 14.9954L15.8062 11.9832C15.8461 11.993 15.8876 11.994 15.9279 11.9862C15.9681 11.9785 16.0063 11.9621 16.0396 11.9381L17.8053 14.1936L17.6284 14.6317L14.78 15.151C14.7589 15.0857 14.715 15.0302 14.6564 14.9946L14.6597 14.9954ZM15.8726 11.4115C15.8502 11.4114 15.8279 11.4142 15.8062 11.4197L14.6597 8.40755C14.7177 8.37142 14.7612 8.31606 14.7825 8.25113L17.6284 8.77036L17.8045 9.20933L16.0363 11.4656C15.9875 11.4304 15.9287 11.4115 15.8685 11.4115H15.8726ZM17.9503 9.02506L17.9134 9.07174L17.8053 8.80312L17.8668 8.81458V8.82195C17.8669 8.89743 17.8963 8.96991 17.9487 9.02424L17.9503 9.02506ZM17.9503 9.16674L18.0199 9.07747C18.0585 9.09754 18.101 9.109 18.1444 9.11105L18.2107 9.81619L17.9503 9.16674ZM17.5875 8.66635L14.7972 8.16104C14.797 8.08909 14.7699 8.01983 14.7211 7.96695L16.1887 5.89003C16.2804 5.93501 16.3846 5.94743 16.4843 5.92525L17.5875 8.66635ZM12.776 5.4052H11.2282L11.9054 4.30204C11.936 4.31511 11.9689 4.32185 12.0021 4.32185C12.0353 4.32185 12.0682 4.31511 12.0987 4.30204L12.776 5.4052ZM7.51821 5.92525C7.61788 5.94783 7.72228 5.93539 7.81386 5.89003L9.28146 7.96695C9.23267 8.01983 9.2055 8.08909 9.20529 8.16104L6.4126 8.66635L7.51821 5.92525ZM6.13415 8.81376L6.19557 8.8023L6.08746 9.07092L6.05061 9.02424C6.10369 8.9697 6.13312 8.89642 6.13251 8.82032C6.13336 8.81822 6.13392 8.81602 6.13415 8.81376ZM5.97854 9.07584L6.04897 9.1651L5.78772 9.81291L5.85406 9.10778C5.89738 9.10631 5.93986 9.09541 5.97854 9.07584ZM6.15708 9.30351L7.90886 11.5328C7.88998 11.5536 7.87426 11.577 7.86218 11.6024H5.80983C5.79625 11.5618 5.77375 11.5248 5.74399 11.494C5.71423 11.4633 5.67796 11.4396 5.63785 11.4246L5.7394 10.342L6.15708 9.30351ZM5.66569 10.1143L5.2128 11.2404C5.12837 11.2168 5.03865 11.2206 4.95646 11.251L4.48064 10.423L5.6788 9.06109C5.70414 9.07732 5.73174 9.08974 5.76069 9.09795L5.66569 10.1143ZM5.54449 11.4115H5.53302C5.51207 11.4109 5.49113 11.4131 5.47078 11.4181C5.43916 11.3725 5.39947 11.3331 5.35367 11.3018L5.61656 10.6466L5.54449 11.4115ZM5.61574 12.7547L5.35285 12.0995C5.39857 12.0678 5.43847 12.0285 5.47078 11.9832C5.49126 11.9874 5.51211 11.9896 5.53302 11.9897H5.54449L5.61574 12.7547ZM4.82051 11.3247C4.72965 11.3951 4.66878 11.4972 4.65017 11.6106H3.53063C3.52326 11.5848 3.51223 11.5603 3.49787 11.5377L4.37663 10.5385L4.82051 11.3247ZM3.43235 11.4754C3.39752 11.4466 3.35621 11.4266 3.31196 11.4173L3.2399 8.55824L4.32749 10.4615L3.43235 11.4754ZM3.31196 11.9848C3.35596 11.9748 3.39711 11.9549 3.43235 11.9267L4.32749 12.9397L3.2399 14.8439L3.31196 11.9848ZM3.49541 11.8587C3.50947 11.8359 3.52048 11.8114 3.52817 11.7858L4.64935 11.7907C4.66835 11.904 4.72913 12.006 4.81969 12.0766L4.37417 12.8579L3.49541 11.8587ZM4.95728 12.1503C5.03963 12.1799 5.12909 12.1836 5.21362 12.1609L5.66815 13.2878L5.76315 14.3042C5.73394 14.3117 5.70624 14.3241 5.68125 14.341L4.48392 12.9791L4.95728 12.1503ZM5.73694 13.0511L5.63539 11.9684C5.67536 11.9533 5.7115 11.9295 5.74122 11.8988C5.77095 11.8681 5.79354 11.8312 5.80738 11.7907H7.86218C7.87469 11.8158 7.89038 11.8392 7.90886 11.8603L6.16035 14.0986L5.73694 13.0511ZM6.04979 14.3746L6.08665 14.3279L6.19475 14.5965L6.13333 14.5851V14.5777C6.13295 14.503 6.10359 14.4313 6.05143 14.3779L6.04979 14.3746ZM6.04979 14.2329L5.97854 14.3222C5.94011 14.3017 5.89756 14.2902 5.85406 14.2886L5.78772 13.5835L6.04979 14.2329ZM6.4126 14.7292L9.20366 15.2329C9.20417 15.3048 9.23131 15.3739 9.27982 15.427L7.81058 17.5113C7.71913 17.4655 7.61458 17.453 7.51494 17.476L6.4126 14.7292ZM11.2249 17.9936H12.776L12.0987 19.0968C12.0683 19.0834 12.0354 19.0765 12.0021 19.0765C11.9688 19.0765 11.9359 19.0834 11.9054 19.0968L11.2249 17.9936ZM16.4827 17.4736C16.383 17.4506 16.2785 17.463 16.187 17.5088L14.7194 15.4319C14.768 15.3788 14.7951 15.3097 14.7956 15.2378L17.5858 14.7325L16.4827 17.4736ZM17.8635 14.5851L17.8021 14.5965L17.911 14.332L17.9478 14.3787C17.9214 14.4056 17.9006 14.4375 17.8866 14.4725C17.8725 14.5075 17.8655 14.5449 17.8659 14.5826C17.8656 14.5859 17.8656 14.5892 17.8659 14.5924L17.8635 14.5851ZM18.0183 14.3222L17.9487 14.2329L18.2099 13.5835L18.1436 14.2886C18.0992 14.2905 18.0559 14.3031 18.0174 14.3255L18.0183 14.3222ZM17.8397 14.0945L16.0978 11.8751C16.1168 11.8503 16.1317 11.8227 16.142 11.7932H18.1673C18.1823 11.8372 18.2077 11.877 18.2413 11.9091C18.275 11.9411 18.3159 11.9646 18.3606 11.9775L18.2631 13.0528L17.8397 14.0945ZM18.3311 13.2837L18.784 12.1576C18.8685 12.1804 18.958 12.1766 19.0403 12.147L19.5162 12.975L18.318 14.3369C18.2931 14.3199 18.2654 14.3074 18.2361 14.3001L18.3311 13.2837ZM19.1763 12.0733C19.2668 12.0027 19.3276 11.9007 19.3466 11.7875L20.4793 11.7825L20.5071 11.8489L19.6234 12.8579L19.1763 12.0733ZM20.5685 11.9136C20.6013 11.942 20.6399 11.963 20.6816 11.975L20.7536 14.8414L19.6669 12.9397L20.5685 11.9136ZM20.6816 11.4222C20.6396 11.4335 20.6009 11.4546 20.5685 11.4836L19.6677 10.4607L20.7553 8.55743L20.6816 11.4222ZM20.6382 7.36582L19.585 6.67788L20.5006 6.99974L20.5055 7.00957L20.6554 7.34862C20.6504 7.35599 20.6439 7.36091 20.639 7.36746L20.6382 7.36582ZM20.5833 7.45263C20.5613 7.50725 20.557 7.56742 20.571 7.62462L18.3958 8.6598C18.3666 8.61244 18.3237 8.57499 18.2729 8.55235C18.2221 8.52971 18.1656 8.52291 18.1108 8.53286L17.1698 5.83025L19.1894 6.53702L20.5833 7.45263ZM17.1084 5.65089L16.9446 5.17015C16.9724 5.15486 16.9978 5.13554 17.0199 5.11283L18.6906 6.21271L17.1084 5.65089ZM16.8889 4.63782C16.8515 4.62567 16.8119 4.62179 16.7729 4.62646C16.7339 4.63112 16.6963 4.64422 16.6629 4.66485L14.5524 2.06051C14.5768 2.03298 14.5962 2.00138 14.6097 1.96715L18.2132 2.46509C18.2166 2.53989 18.2455 2.61129 18.2951 2.66737L18.1698 2.84427L16.8889 4.63782ZM18.2312 2.35616L14.6277 1.85331C14.6278 1.79055 14.6091 1.7292 14.5741 1.67711C14.5391 1.62503 14.4893 1.58458 14.4312 1.56094L14.4778 1.36684L14.4959 1.31033L17.6899 2.05642L18.2353 2.34879L18.2312 2.35616ZM14.4639 2.12685L16.5818 4.73118C16.5595 4.75706 16.542 4.78675 16.5302 4.81881L15.7481 4.67467L13.7334 2.46345L14.1167 2.10556C14.1652 2.14408 14.2241 2.16717 14.2859 2.17184C14.3476 2.17651 14.4094 2.16255 14.4631 2.13176L14.4639 2.12685ZM14.3321 1.54128H14.314C14.2664 1.54166 14.2195 1.55292 14.177 1.57422C14.1344 1.59551 14.0972 1.62627 14.0684 1.66413L12.6122 0.873002L14.3902 1.28904L14.3321 1.54128ZM13.6687 2.38728L13.2338 1.909H14.0045C14.0114 1.95247 14.0273 1.99403 14.0512 2.03103L13.6687 2.38728ZM13.5704 2.47983L12.1634 3.79919C12.117 3.76184 12.0592 3.74147 11.9996 3.74147C11.94 3.74147 11.8823 3.76184 11.8358 3.79919L10.4264 2.47901L10.9423 1.90573H13.0553L13.5704 2.47983ZM10.3273 2.38728L9.94565 2.03267C9.96949 1.99566 9.98539 1.95411 9.99233 1.91064H10.7613L10.3273 2.38728ZM9.68112 2.17189C9.75129 2.17126 9.81927 2.14735 9.8744 2.10392L10.2577 2.46181L8.243 4.67304L7.46252 4.81718C7.45104 4.78496 7.43353 4.75522 7.41092 4.72955L9.52961 2.12931C9.57604 2.15598 9.6284 2.17062 9.68194 2.17189H9.68112ZM9.60413 1.28904L11.3838 0.873002L9.92845 1.66167C9.89958 1.62381 9.86243 1.59305 9.81985 1.57176C9.77726 1.55047 9.73037 1.5392 9.68276 1.53883H9.66392L9.60413 1.28904ZM9.36417 1.85577L5.76069 2.35862V2.34715L6.30613 2.05478L9.50012 1.31033L9.51405 1.3693L9.56073 1.5634C9.50248 1.58727 9.45271 1.62802 9.41783 1.68042C9.38295 1.73282 9.36454 1.79446 9.36499 1.85741L9.36417 1.85577ZM5.78199 2.46918L9.38547 1.97125C9.3993 2.00532 9.41867 2.03686 9.4428 2.06461L7.3323 4.66812C7.29884 4.6475 7.26129 4.6344 7.22226 4.62973C7.18323 4.62507 7.14365 4.62894 7.10627 4.6411L5.83276 2.84755L5.70746 2.67065C5.75511 2.61422 5.78174 2.54303 5.78281 2.46918H5.78199ZM6.8876 5.65662L5.30289 6.2168L6.97933 5.11856C7.00148 5.14128 7.02687 5.1606 7.05467 5.17589L6.8876 5.65662ZM6.82618 5.83188L5.88518 8.53449C5.83042 8.52466 5.77398 8.53151 5.72316 8.55414C5.67234 8.57678 5.6295 8.61416 5.60018 8.66144L3.42498 7.62625C3.43007 7.60477 3.43282 7.58281 3.43317 7.56074C3.43303 7.52428 3.42608 7.48818 3.4127 7.45427L4.80495 6.54111L6.82618 5.83188ZM3.35783 7.37073L3.34063 7.35354L3.4905 7.01448L3.49541 7.00465L4.41103 6.6828L3.35783 7.37073ZM3.38731 7.71798L5.56906 8.74169C5.56086 8.76822 5.55672 8.79583 5.55677 8.82359C5.557 8.88955 5.57983 8.95343 5.62147 9.00458L4.4356 10.3444L3.23416 8.25441L3.22352 7.84492C3.29227 7.82314 3.35059 7.77678 3.38731 7.7147V7.71798ZM3.21041 7.26836V7.2831C3.18806 7.27659 3.1649 7.27328 3.14162 7.27328C3.10917 7.27319 3.07698 7.27902 3.04662 7.29047V7.28474C3.04644 7.24407 3.04094 7.20359 3.03024 7.16435L3.29804 7.07017L3.21041 7.26836ZM3.12852 8.0685L3.03433 7.9047L3.06791 7.84328C3.08587 7.84821 3.10423 7.8515 3.12278 7.85311L3.12852 8.0685ZM1.90006 11.2297C1.78906 11.2302 1.68202 11.271 1.59886 11.3445C1.5157 11.4181 1.46208 11.5193 1.44798 11.6294H1.21212C1.20022 11.5523 1.16237 11.4815 1.10483 11.4287L2.18833 9.45011L1.9279 11.2265C1.9192 11.2275 1.9104 11.2275 1.90169 11.2265L1.90006 11.2297ZM2.18588 13.9536L1.10401 11.9717C1.16124 11.9187 1.19903 11.8481 1.2113 11.7711H1.44716C1.46073 11.882 1.51431 11.9841 1.59785 12.0583C1.6814 12.1325 1.78915 12.1736 1.90087 12.174H1.92626L2.18588 13.9536ZM2.42338 8.80803L2.5798 7.74337H2.59373C2.6498 7.74266 2.70529 7.73184 2.75752 7.71143L2.89511 7.95139L2.42338 8.80803ZM2.22764 9.16101L1.01147 11.3722C1.00082 11.3673 0.990177 11.364 0.978711 11.36L1.06061 10.5819L2.43648 7.71552L2.22764 9.16101ZM1.01311 12.0307L2.22928 14.2419L2.44222 15.6899L1.06634 12.8235L0.984444 12.0454C0.992498 12.0396 1.00132 12.0349 1.01065 12.0315L1.01311 12.0307ZM2.4242 14.5957L2.89593 15.4532L2.75834 15.6931C2.70633 15.672 2.6507 15.6611 2.59454 15.6612H2.58062L2.4242 14.5957ZM3.13015 15.3328L3.12442 15.549C3.10577 15.5498 3.08732 15.5531 3.06955 15.5588L3.03597 15.4974L3.13015 15.3328ZM3.04826 16.119V16.1133C3.07883 16.1239 3.11089 16.1297 3.14326 16.1305C3.16658 16.1296 3.1897 16.1257 3.21205 16.119V16.1337L3.3005 16.3287L3.03024 16.2345C3.04112 16.1969 3.04717 16.1581 3.04826 16.119ZM3.22352 15.5605L3.23416 15.151L4.4356 13.061L5.61819 14.3992C5.5894 14.4353 5.56986 14.4779 5.5613 14.5233C5.55274 14.5687 5.5554 14.6155 5.56906 14.6596L3.38977 15.689C3.35272 15.6283 3.2943 15.5836 3.22597 15.5637L3.22352 15.5605ZM3.35783 16.0371L4.41103 16.725L3.49705 16.4032L3.49214 16.3934L3.34227 16.0518C3.348 16.0461 3.35783 16.0371 3.35783 16.0371ZM3.41188 15.9503C3.42512 15.9163 3.43206 15.8803 3.43235 15.8438C3.4321 15.8217 3.42935 15.7998 3.42416 15.7783L5.60099 14.7415C5.63055 14.7885 5.67344 14.8257 5.72418 14.8483C5.77493 14.8709 5.83126 14.8779 5.886 14.8684L6.827 17.571L4.80823 16.8626L3.41188 15.9503ZM6.88678 17.752L7.05058 18.2328C7.02242 18.2475 6.99694 18.2669 6.97523 18.2901L5.30371 17.1837L6.88678 17.752ZM7.10872 18.7667C7.14617 18.7785 7.18568 18.7821 7.22464 18.7775C7.2636 18.7728 7.30113 18.7599 7.33476 18.7397L9.44525 21.344C9.42079 21.3715 9.40138 21.4032 9.38793 21.4374L5.78444 20.9395C5.78181 20.8645 5.75281 20.7929 5.70255 20.7372L5.82949 20.5562L7.10872 18.7667ZM5.76643 21.041L9.36991 21.5439C9.37007 21.6066 9.38883 21.6678 9.42382 21.7199C9.45881 21.7719 9.50845 21.8124 9.56646 21.8363L9.51978 22.0303L9.50586 22.0893L6.31186 21.3432L5.76643 21.0476V21.041ZM9.5337 21.2712L7.41256 18.6726C7.43483 18.6466 7.4523 18.617 7.46416 18.5849L8.24628 18.7291L10.261 20.9403L9.87767 21.2933C9.82932 21.2544 9.77035 21.2312 9.70852 21.2265C9.64669 21.2218 9.58488 21.2359 9.53125 21.2671L9.5337 21.2712ZM9.66883 21.8616H9.68685C9.7344 21.8609 9.78117 21.8495 9.8237 21.8282C9.86623 21.807 9.90343 21.7764 9.93254 21.7388L11.3838 22.5275L9.60332 22.1122L9.66883 21.8616ZM10.3322 21.0156L10.7671 21.4939H9.99151C9.98486 21.4504 9.96894 21.4088 9.94483 21.3719L10.3322 21.0156ZM10.4305 20.9231L11.8383 19.6029C11.8849 19.6399 11.9426 19.6599 12.0021 19.6599C12.0616 19.6599 12.1193 19.6399 12.1659 19.6029L13.5737 20.9231L13.0577 21.4964H10.9448L10.4305 20.9231ZM13.6736 21.0156L14.0544 21.3735C14.0303 21.4104 14.0144 21.452 14.0078 21.4956H13.2346L13.6736 21.0156ZM14.319 21.2302C14.2487 21.2301 14.1804 21.2541 14.1257 21.2982L13.7424 20.9403L15.7571 18.7291L16.5392 18.5849C16.5514 18.6168 16.5688 18.6464 16.5908 18.6726L14.4737 21.2744C14.4259 21.2453 14.3709 21.23 14.3149 21.2302H14.319ZM14.3959 22.1131L12.6122 22.5291L14.0651 21.7404C14.0942 21.778 14.1314 21.8086 14.1739 21.8299C14.2165 21.8511 14.2632 21.8625 14.3108 21.8633H14.3321L14.3959 22.1131ZM14.6359 21.5463L18.2394 21.0435V21.055L17.6899 21.3473L14.4959 22.0934L14.4819 22.0344L14.4353 21.8403C14.4936 21.8165 14.5435 21.7758 14.5785 21.7234C14.6135 21.671 14.6321 21.6094 14.6318 21.5463H14.6359ZM18.2189 20.9329L14.6154 21.4309C14.6023 21.3964 14.5828 21.3648 14.5581 21.3375L16.6686 18.7332C16.7022 18.7534 16.7398 18.7663 16.7787 18.7709C16.8177 18.7756 16.8572 18.7719 16.8946 18.7602L18.1714 20.5562L18.2967 20.7331C18.247 20.7881 18.218 20.8588 18.2148 20.9329H18.2189ZM17.1133 17.7455L18.6947 17.1837L17.0183 18.2811C16.9966 18.2579 16.9711 18.2385 16.943 18.2238L17.1133 17.7455ZM17.1747 17.5702L18.1157 14.8676C18.1705 14.8772 18.2268 14.8703 18.2776 14.8477C18.3284 14.825 18.3712 14.7878 18.4007 14.7407L20.5784 15.7767C20.5644 15.8339 20.5687 15.894 20.5907 15.9487L19.1984 16.8618L17.1747 17.5702ZM20.6382 16.0371L20.6554 16.0543L20.5055 16.3934L20.5006 16.4032L19.585 16.725L20.6382 16.0371ZM20.6087 15.6899L18.4327 14.6596C18.4463 14.6149 18.4487 14.5674 18.4395 14.5216C18.4304 14.4757 18.41 14.4328 18.3802 14.3967L19.562 13.0569L20.7635 15.151L20.7741 15.5605C20.7056 15.5813 20.6472 15.6268 20.6103 15.6882L20.6087 15.6899ZM20.7864 16.1395V16.119C20.8089 16.1247 20.832 16.128 20.8552 16.1288C20.8876 16.1281 20.9196 16.1223 20.9502 16.1116V16.1174C20.951 16.157 20.9568 16.1963 20.9674 16.2345L20.6996 16.3287L20.7864 16.1395ZM20.8683 15.3393L20.9625 15.5031L20.9289 15.5646C20.9111 15.5588 20.8927 15.5555 20.874 15.5547L20.8683 15.3393ZM21.5742 14.6023L21.4178 15.6669H21.4039C21.3477 15.6669 21.2921 15.6777 21.2401 15.6989L21.1025 15.4589L21.5742 14.6023ZM21.7692 14.2485L22.9853 12.0372C22.996 12.0422 23.0066 12.0454 23.0181 12.0495L22.9362 12.8276L21.5603 15.694L21.7692 14.2485ZM22.987 11.369L21.7708 9.15773L21.557 7.71061L22.9329 10.577L23.0148 11.355C23.0077 11.3631 22.9977 11.3681 22.987 11.369ZM22.2171 6.51573L22.2253 6.5231L22.2392 6.53948C22.2081 6.58195 22.1867 6.63073 22.1765 6.68238C22.1663 6.73404 22.1676 6.7873 22.1803 6.8384L21.7798 7.01448C21.7379 6.95453 21.6821 6.90558 21.6173 6.87179C21.5524 6.838 21.4803 6.82037 21.4072 6.82038C21.3657 6.82032 21.3245 6.82696 21.2851 6.84004L19.4687 3.50027L21.8592 6.02025L22.2171 6.51573ZM20.4866 4.41097L19.2705 3.13337L19.0494 2.72388L20.4866 4.41097ZM18.8364 2.59366L18.9363 2.78449L18.8037 2.64526C18.8159 2.62893 18.8268 2.61168 18.8364 2.59366ZM19.128 3.13992L21.1402 6.9072C21.0925 6.94167 21.0519 6.98505 21.0206 7.03496L20.7872 6.95306L20.6234 6.89409L18.7398 2.72388L19.128 3.13992ZM18.5391 2.78449C18.5711 2.78384 18.6028 2.7786 18.6333 2.76892L20.4244 6.82612H20.4129L19.0895 6.35848L17.0707 5.03994C17.0947 4.98689 17.102 4.92784 17.0918 4.87053C17.0816 4.81323 17.0542 4.76037 17.0134 4.7189L18.4056 2.75336C18.4474 2.77304 18.4929 2.78364 18.5391 2.78449ZM18.3368 2.2112C18.3187 2.2254 18.3022 2.24161 18.2877 2.25952L18.0912 2.15388L18.3368 2.2112ZM18.0772 2.02366L17.6751 1.92948L16.7497 1.43072L18.0772 2.02366ZM14.6334 0.737053C14.6914 0.746348 14.7509 0.740529 14.8059 0.720158C14.861 0.699786 14.9099 0.66555 14.9479 0.620759L15.3574 0.804209L17.2681 1.83038L14.5237 1.18749L14.6334 0.737053ZM14.3206 0.46843C14.3419 0.543746 14.3863 0.610483 14.4475 0.65925L14.4705 0.679725H14.477C14.4924 0.689256 14.5083 0.698003 14.5245 0.705932L14.4197 1.16128L12.794 0.782915L12.405 0.679725V0.66744L14.3206 0.46843ZM13.2387 0.432395L12.387 0.506102C12.3789 0.481033 12.3682 0.456878 12.3551 0.434033L13.2387 0.432395ZM12.3469 0.853347L14.0168 1.75422C14.011 1.76957 14.0069 1.78549 14.0045 1.80172H13.1396L12.3141 0.900847C12.326 0.887135 12.3369 0.872633 12.3469 0.857442V0.853347ZM11.7793 0.982745C11.8446 1.02528 11.9209 1.04793 11.9988 1.04793C12.0767 1.04793 12.153 1.02528 12.2183 0.982745L12.9611 1.80172H11.0365L11.7793 0.982745ZM11.6835 0.900847L10.858 1.80172H9.99151C9.98916 1.78522 9.98504 1.76902 9.97922 1.7534L11.6491 0.852528C11.659 0.867255 11.6697 0.881468 11.6811 0.895115L11.6835 0.900847ZM11.6434 0.437309C11.6302 0.460154 11.6195 0.484309 11.6114 0.509378L10.7597 0.435671L11.6434 0.437309ZM9.52142 0.683001H9.52797L9.5509 0.662526C9.61213 0.613759 9.65652 0.547022 9.67784 0.471706L11.5918 0.669897V0.682182L11.2028 0.785372L9.57711 1.16292L9.47228 0.70757C9.488 0.699913 9.50331 0.691439 9.51814 0.682182L9.52142 0.683001ZM9.05051 0.622397C9.08868 0.666894 9.13766 0.700816 9.19274 0.720897C9.24782 0.740978 9.30714 0.746542 9.36499 0.737053L9.4731 1.18749L6.72872 1.82874L8.63938 0.804209L9.05051 0.622397ZM7.24877 1.42745L6.32415 1.92538L5.92203 2.01956L7.24877 1.42745ZM5.90729 2.14814L5.71074 2.25379C5.69624 2.23588 5.67975 2.21967 5.6616 2.20547L5.90729 2.14814ZM5.45931 2.78449C5.50598 2.78391 5.552 2.77359 5.59444 2.75418L6.9867 4.71972C6.94585 4.76119 6.91851 4.81405 6.90827 4.87135C6.89804 4.92865 6.9054 4.98771 6.92937 5.04076L4.90732 6.35685L3.58386 6.82448H3.5724L5.36431 2.76974C5.3948 2.77942 5.42652 2.78466 5.45849 2.7853L5.45931 2.78449ZM5.16366 2.59285C5.17233 2.61137 5.18247 2.62917 5.19396 2.64608L5.06129 2.78449L5.16366 2.59285ZM5.25948 2.72716L3.37584 6.89737L3.21205 6.95633L2.97864 7.03823C2.9474 6.98833 2.9068 6.94494 2.85907 6.91047L4.87129 3.1432L5.25948 2.72716ZM4.945 2.72716L4.72387 3.13664L3.5077 4.41342L4.945 2.72716ZM1.751 6.51081L1.75919 6.50344L2.13346 6.02107L4.52404 3.50027L2.70838 6.8425C2.66903 6.82941 2.62782 6.82278 2.58635 6.82284C2.51279 6.82243 2.44023 6.83987 2.3749 6.87368C2.30957 6.90749 2.25341 6.95665 2.21127 7.01694L1.80178 6.82694C1.80813 6.80008 1.8117 6.77263 1.81243 6.74504C1.81244 6.66796 1.78808 6.59285 1.74281 6.53047L1.751 6.51081ZM1.47419 7.1103C1.53199 7.10572 1.58793 7.08771 1.63755 7.05772C1.68716 7.02772 1.7291 6.98655 1.76001 6.9375L2.16458 7.13159C2.13183 7.22139 2.12887 7.31935 2.15616 7.41096C2.18345 7.50257 2.23954 7.58294 2.31609 7.64018L1.10729 10.1692L1.47419 7.1103ZM1.20311 8.15695L0.957418 10.4894L0.614268 11.2093L1.20311 8.15695ZM0.911555 10.8923L0.864874 11.3337C0.83061 11.3335 0.796547 11.339 0.76414 11.3501C0.748106 11.3346 0.730852 11.3203 0.712545 11.3075L0.911555 10.8923ZM0.76414 12.0438C0.796739 12.0541 0.830677 12.0597 0.864874 12.0602L0.911555 12.5016L0.711726 12.088C0.729618 12.0756 0.74684 12.0622 0.763321 12.0479L0.76414 12.0438ZM0.610992 12.1855L0.954142 12.9054L1.19983 15.2378L0.610992 12.1855ZM1.47419 16.2803L1.10647 13.2313L2.31118 15.7587C2.23462 15.8159 2.17854 15.8963 2.15125 15.9879C2.12396 16.0795 2.12691 16.1774 2.15967 16.2672L1.75919 16.4523C1.72843 16.4036 1.68657 16.3628 1.63704 16.3334C1.5875 16.3039 1.5317 16.2866 1.47419 16.2828V16.2803ZM1.76902 16.8888L1.76083 16.8815L1.74691 16.8651C1.79197 16.8026 1.81631 16.7276 1.81652 16.6505C1.81591 16.6229 1.81234 16.5955 1.80587 16.5686L2.21536 16.3868C2.25751 16.4465 2.31332 16.4953 2.37814 16.529C2.44296 16.5628 2.51491 16.5806 2.58799 16.5809C2.62939 16.5802 2.67048 16.5735 2.71002 16.5612L4.52568 19.9035L2.1351 17.386L1.76902 16.8888ZM3.51098 18.9887L4.72715 20.2663L4.94827 20.6758L3.51098 18.9887ZM5.15957 20.8101L5.0572 20.6176L5.18987 20.7568C5.17787 20.7729 5.1677 20.7902 5.15957 20.8084V20.8101ZM4.86801 20.2638L2.8558 16.4965C2.90316 16.4617 2.94369 16.4184 2.97537 16.3688L3.20877 16.4507L3.37257 16.5097L5.25621 20.6799L4.86801 20.2638ZM5.45604 20.6184C5.42399 20.6183 5.39215 20.6235 5.36186 20.634L3.57322 16.5768H3.58468L4.90814 17.0444L6.92691 18.363C6.90294 18.416 6.89558 18.4751 6.90582 18.5324C6.91605 18.5897 6.94339 18.6426 6.98424 18.684L5.59199 20.6496C5.55045 20.6289 5.50486 20.6177 5.45849 20.6168L5.45604 20.6184ZM5.65832 21.1966C5.67609 21.182 5.69253 21.1658 5.70746 21.1483L5.90401 21.254L5.65832 21.1966ZM5.91794 21.3842L6.32005 21.4784L7.24549 21.9771L5.91794 21.3842ZM9.36172 22.6667C9.30371 22.6571 9.2442 22.6627 9.18905 22.6831C9.1339 22.7035 9.08502 22.7379 9.04723 22.783L8.63775 22.5995L6.72954 21.5734L9.47392 22.2163L9.36172 22.6667ZM9.67457 22.9353C9.65366 22.8598 9.60919 22.793 9.54763 22.7445L9.52469 22.724H9.51814C9.50323 22.7137 9.48732 22.7049 9.47064 22.6978L9.57547 22.2425L11.2011 22.6233L11.5901 22.7265V22.7388L9.67457 22.9353ZM10.7564 22.9713L11.6082 22.8976C11.6164 22.9227 11.6271 22.9468 11.6401 22.9697L10.7564 22.9713ZM11.645 22.5479L9.97513 21.6471C9.98076 21.6314 9.98487 21.6152 9.98741 21.5988H10.8514L11.6811 22.507C11.6688 22.5198 11.6576 22.5335 11.6475 22.5479H11.645ZM12.2126 22.4169C12.1474 22.3741 12.0711 22.3512 11.9931 22.3512C11.9151 22.3512 11.8388 22.3741 11.7736 22.4169L11.0308 21.5979H12.9554L12.2126 22.4169ZM12.3084 22.5037L13.1339 21.5971H14.0045C14.007 21.6136 14.0111 21.6298 14.0168 21.6454L12.3469 22.5463C12.3383 22.5325 12.3287 22.5194 12.3182 22.507L12.3084 22.5037ZM12.3485 22.9673C12.3615 22.9443 12.3722 22.9202 12.3805 22.8952L13.2322 22.9689L12.3485 22.9673ZM14.4705 22.7216H14.4639L14.441 22.742C14.3794 22.7905 14.335 22.8574 14.314 22.9329L12.4001 22.7347V22.7224L12.7891 22.6192L14.414 22.2384L14.5188 22.6937C14.5032 22.7013 14.4881 22.7101 14.4737 22.7199L14.4705 22.7216ZM14.9414 22.7822C14.9036 22.7371 14.8547 22.7027 14.7996 22.6823C14.7444 22.6619 14.6849 22.6562 14.6269 22.6659L14.5188 22.2154L17.2632 21.5725L15.3558 22.5971L14.9414 22.7822ZM16.7431 21.9771L17.6686 21.4784L18.0707 21.3842L16.7431 21.9771ZM18.0846 21.2531L18.2812 21.1475C18.2961 21.165 18.3125 21.1812 18.3303 21.1958L18.0846 21.2531ZM18.5326 20.6176C18.4858 20.6174 18.4396 20.6278 18.3974 20.6479L17.0052 18.6824C17.046 18.6409 17.0734 18.5881 17.0836 18.5308C17.0938 18.4735 17.0865 18.4144 17.0625 18.3614L19.0821 17.0428L20.4088 16.5776H20.4203L18.6317 20.6324C18.6013 20.6223 18.5695 20.617 18.5375 20.6168L18.5326 20.6176ZM18.8282 20.8093C18.8199 20.7906 18.8098 20.7727 18.7979 20.756L18.9306 20.6168L18.8282 20.8093ZM18.7275 20.6758L20.6111 16.5056L20.7749 16.4466L21.0083 16.3647C21.04 16.4143 21.0805 16.4576 21.1279 16.4925L19.1157 20.2597L18.7275 20.6758ZM19.042 20.6758L19.2631 20.2663L20.4793 18.9887L19.042 20.6758ZM22.218 16.9019L22.2098 16.9093L21.8502 17.3819L19.4687 19.901L21.2843 16.5588C21.3239 16.5711 21.365 16.5777 21.4064 16.5784C21.4794 16.5781 21.5514 16.5603 21.6162 16.5266C21.681 16.4928 21.7368 16.4441 21.779 16.3843L22.1803 16.585C22.1677 16.6361 22.1664 16.6894 22.1766 16.741C22.1868 16.7926 22.2082 16.8414 22.2392 16.8839L22.218 16.9019ZM22.5054 16.3025C22.4475 16.3067 22.3914 16.3245 22.3418 16.3545C22.2921 16.3846 22.2502 16.4259 22.2196 16.4753L21.8298 16.2713C21.8625 16.1815 21.8655 16.0836 21.8382 15.992C21.8109 15.9004 21.7548 15.82 21.6783 15.7627L22.883 13.2346L22.5054 16.3025ZM22.7871 15.2452L23.0328 12.9127L23.376 12.1928L22.7871 15.2452ZM23.1262 12.0659C23.1604 12.0654 23.1943 12.0599 23.2269 12.0495C23.2434 12.0646 23.2606 12.0788 23.2785 12.0921L23.0795 12.5082L23.1262 12.0659ZM23.0795 10.8972L23.2785 11.3133C23.2602 11.3261 23.243 11.3403 23.2269 11.3559C23.1945 11.3447 23.1605 11.3392 23.1262 11.3395L23.0795 10.8972ZM23.0361 10.4918L22.7904 8.1594L23.3825 11.2117L23.0361 10.4918Z" fill="#0432A9"/>
</g>
<defs>
<clipPath id="clip0">
<rect width="24" height="24" fill="white"/>
</clipPath>
</defs>
</svg>
