<svg width="24" height="24" viewBox="0 0 24 24" fill="none" xmlns="http://www.w3.org/2000/svg">
<path fill-rule="evenodd" clip-rule="evenodd" d="M12 0C18.6264 0 24 5.3736 24 12C24 18.6264 18.6264 24 12 24C5.3736 24 0 18.6264 0 12C0 5.3736 5.3736 0 12 0Z" fill="#383B4A"/>
<path fill-rule="evenodd" clip-rule="evenodd" d="M18.7271 12.7319L18.2375 13.2215C12.6743 7.68234 6.50388 10.7615 5.03027 11.6279C5.08244 11.4649 5.17297 11.3167 5.29427 11.1959L11.2415 5.24874C11.3423 5.14775 11.462 5.06764 11.5938 5.01298C11.7255 4.95831 11.8668 4.93018 12.0095 4.93018C12.1522 4.93018 12.2934 4.95831 12.4252 5.01298C12.557 5.06764 12.6767 5.14775 12.7775 5.24874L18.7247 11.1959C18.8261 11.2964 18.9066 11.416 18.9617 11.5477C19.0167 11.6794 19.0451 11.8207 19.0454 11.9634C19.0456 12.1062 19.0176 12.2476 18.963 12.3795C18.9083 12.5114 18.8282 12.6311 18.7271 12.7319Z" fill="white"/>
<path fill-rule="evenodd" clip-rule="evenodd" d="M14.1268 17.3326L12.7804 18.6789C12.6796 18.7799 12.5599 18.86 12.4281 18.9147C12.2963 18.9694 12.1551 18.9975 12.0124 18.9975C11.8697 18.9975 11.7285 18.9694 11.5967 18.9147C11.4649 18.86 11.3452 18.7799 11.2444 18.6789L9.95801 17.3926C12.0268 15.9286 13.7956 17.0854 14.1268 17.3326Z" fill="white"/>
<path fill-rule="evenodd" clip-rule="evenodd" d="M17.9353 13.5238L16.3993 15.0598C11.8345 10.8262 7.25527 13.5526 6.56887 14.0038L6.23047 13.6654C6.23502 13.663 6.23909 13.6597 6.24247 13.6558C12.2233 8.86064 17.4289 13.0894 17.9353 13.5238Z" fill="white"/>
<path fill-rule="evenodd" clip-rule="evenodd" d="M8.57077 16.0081L8.20117 15.6384C11.7508 12.4032 15.6508 15.156 16.0276 15.4344L14.458 17.0041C11.6476 14.2992 9.04117 15.7129 8.57077 16.0081Z" fill="white"/>
</svg>
