<svg width="24" height="24" fill="none" xmlns="http://www.w3.org/2000/svg"><path d="M12 24c6.627 0 12-5.373 12-12 0-6.628-5.373-12-12-12C5.372 0 0 5.372 0 12c0 6.627 5.372 12 12 12Z" fill="url(#a)"/><path fill-rule="evenodd" clip-rule="evenodd" d="M11.566 4.329a3.051 3.051 0 0 0-1.835.9c-.368.364-.716.738-1.089 1.106-.186.191-.375.377-.563.566-.189.189-.397.39-.592.588-.196.198-.359.372-.54.556-.283.283-.567.567-.85.853-.217.224-.43.456-.644.68-.127.134-.263.258-.383.4a3.362 3.362 0 0 0-.759 2.268c.01.446.128.883.342 1.275.122.236.263.462.422.676.105.148.182.146.32.031a.688.688 0 0 0 .074-.072c.137-.143.27-.286.409-.43.196-.205.396-.41.592-.618.196-.208.408-.437.614-.652.098-.105.202-.202.301-.306.21-.222.416-.451.625-.67.21-.22.423-.426.629-.64A152.98 152.98 0 0 1 9.97 9.463c.28-.29.552-.586.829-.875.172-.176.348-.346.52-.52.239-.239.461-.478.695-.716.235-.24.409-.4.61-.605a260 260 0 0 0 1.343-1.367.948.948 0 0 0 .08-.091c.11-.139.12-.17-.016-.267a4.28 4.28 0 0 0-.664-.43 3.12 3.12 0 0 0-1.321-.294h-.023c-.153 0-.305.01-.456.029l-.003-.003v.004Zm3.952 2.94h-.029a1.348 1.348 0 0 0-1.03.477 1.023 1.023 0 0 1-.07.072l-.731.716c-.24.24-.497.5-.748.75-.208.208-.416.411-.62.62-.206.207-.426.438-.648.656-.222.217-.458.445-.688.668l-.814.822-1.514 1.514-2.004 2.01c-.129.127-.131.144 0 .28.32.324.645.645.955.971.192.204.446.338.722.384.26.053.529.044.785-.026.192-.047.37-.142.516-.275l.793-.766c.186-.178.375-.355.559-.537.367-.364.73-.73 1.098-1.092.299-.294.605-.585.908-.879l1.243-1.212c.387-.38.776-.761 1.168-1.141a.255.255 0 0 1 .45.05 1.747 1.747 0 0 1 .296 1.168c-.032.355-.178.69-.417.955-.287.308-.592.6-.89.896-.213.21-.43.415-.643.628-.274.272-.544.55-.819.821-.04.046-.078.094-.121.136l-.27.28c-.202.202-.408.399-.607.602-.199.202-.427.44-.64.66-.018.022-.04.036-.059.055-.239.222-.458.445-.685.669-.108.105-.21.212-.316.318-.18.184-.367.364-.542.551-.107.113-.107.182.02.27.208.16.429.301.661.423a3.334 3.334 0 0 0 1.846.262 3.017 3.017 0 0 0 1.672-.762c.353-.31.669-.659.998-.993.239-.239.478-.494.733-.74l.69-.695c.21-.213.418-.425.631-.636.213-.21.477-.46.716-.697.239-.237.478-.477.717-.73.19-.194.366-.402.526-.622.298-.45.484-.965.542-1.502a3.337 3.337 0 0 0 0-.802 3.358 3.358 0 0 0-.504-1.33 3.859 3.859 0 0 0-.668-.77 126.585 126.585 0 0 1-1.968-1.988 1.505 1.505 0 0 0-1.119-.5h-.009l-.071.01h-.001Z" fill="#fff"/><defs><linearGradient id="a" x1="1.635" y1="5.035" x2="20.894" y2="18.212" gradientUnits="userSpaceOnUse"><stop stop-color="#FF3B3B"/><stop offset="1" stop-color="#FF9914"/></linearGradient></defs></svg>