<svg width="24" height="24" fill="none" xmlns="http://www.w3.org/2000/svg"><path d="M12 24c6.627 0 12-5.373 12-12S18.627 0 12 0 0 5.373 0 12s5.373 12 12 12Z" fill="#0AF"/><path d="M11.972 3.705a8.267 8.267 0 1 0 0 16.534 8.267 8.267 0 0 0 0-16.534Zm.026 1.31a4.108 4.108 0 0 1 3.857 5.523 2.686 2.686 0 0 0-2.044.474 2.61 2.61 0 0 0 .805-1.887 2.623 2.623 0 0 0-2.62-2.622 2.621 2.621 0 0 0-2.605 2.354A4.492 4.492 0 0 0 7.9 8.842a4.109 4.109 0 0 1 4.098-3.827Zm1.511 7.719-1.453-.87a.3.3 0 0 0-.314.002l-1.275.787a.3.3 0 0 0-.14.297 1.749 1.749 0 0 1-1.673 1.988 1.741 1.741 0 0 1-1.293-2.964c.32-.325.755-.512 1.21-.522a1.74 1.74 0 0 1 1.33.583.3.3 0 0 0 .37.06l1.228-.689a.305.305 0 0 0 .155-.263v-.075a.304.304 0 0 0-.208-.286 1.745 1.745 0 0 1 .633-3.397 1.75 1.75 0 0 1 1.654 1.614 1.741 1.741 0 0 1-1.298 1.814.304.304 0 0 0-.23.292v.013c0 .105.055.202.143.257l1.29.794a.3.3 0 0 0 .392-.066 1.743 1.743 0 0 1 1.403-.653 1.745 1.745 0 1 1-.134 3.488 1.747 1.747 0 0 1-1.646-1.916.3.3 0 0 0-.144-.288ZM8.6 17.258a4.065 4.065 0 0 1-3.68-5.802 4.065 4.065 0 0 1 4.458-2.257c.02.687.308 1.34.805 1.816a2.671 2.671 0 0 0-1.58-.515 2.692 2.692 0 0 0 0 5.384 2.687 2.687 0 0 0 2.497-1.695 4.37 4.37 0 0 0 .684 1.533A4.057 4.057 0 0 1 8.6 17.259Zm6.792 0a4.068 4.068 0 0 1-4.058-3.79c.457.07.923.067 1.38-.008a2.694 2.694 0 0 0 4.405 1.8 2.692 2.692 0 0 0-.983-4.656c.156-.435.241-.893.253-1.356a4.068 4.068 0 0 1-.997 8.01Z" fill="#fff"/><path d="M12 2.25c-5.384 0-9.75 4.366-9.75 9.75s4.366 9.75 9.75 9.75 9.75-4.366 9.75-9.75S17.384 2.25 12 2.25Zm-.028 18.767a9.043 9.043 0 0 1-9.044-9.044 9.042 9.042 0 0 1 9.044-9.043 9.043 9.043 0 0 1 9.042 9.043 9.043 9.043 0 0 1-9.042 9.043Z" fill="#fff"/></svg>