<svg width="24" height="24" fill="none" xmlns="http://www.w3.org/2000/svg"><g clip-path="url(#a)"><path d="M0 11.989a12 12 0 0 0 24 .04v-.09c0-.924-.11-1.843-.324-2.741a1.29 1.29 0 0 0-2.509.589 9.442 9.442 0 1 1-6.983-6.957A1.288 1.288 0 0 0 15.577.905a1.271 1.271 0 0 0-.796-.57A11.986 11.986 0 0 0 .324 9.197 12.277 12.277 0 0 0 0 11.988Z" fill="url(#b)"/><path d="M18.094 3.157c-.02.021-.03.043-.042.052a1.923 1.923 0 0 0-.515 1.147v.206c0 .052-.01.092-.01.144a3.458 3.458 0 0 1-3.792 3.107 3.35 3.35 0 0 1-.454-.071 1.949 1.949 0 0 1-.259-.073 4.113 4.113 0 0 0-1.125-.124 4.523 4.523 0 0 0-2.978 1.197c-.04.04-.092.073-.134.123a4.498 4.498 0 1 0 6.355 6.359 4.506 4.506 0 0 0 1.189-4.23 2.3 2.3 0 0 1-.064-.25c0-.01-.01-.02-.01-.041a3.462 3.462 0 0 1 2.603-4.16c.16-.039.323-.063.487-.071l.071-.011a1.62 1.62 0 0 1 .217-.01h.021c.449-.043.868-.24 1.187-.558.073-.083.146-.162.208-.248a1.922 1.922 0 0 0-.465-2.694 1.946 1.946 0 0 0-2.49.206Z" fill="url(#c)"/></g><defs><linearGradient id="b" x1="20.937" y1="3.18" x2="3.099" y2="20.775" gradientUnits="userSpaceOnUse"><stop offset=".09" stop-color="#00EDD3"/><stop offset=".41" stop-color="#1B456E"/></linearGradient><linearGradient id="c" x1="20.942" y1="2.943" x2="8.455" y2="15.592" gradientUnits="userSpaceOnUse"><stop offset=".4" stop-color="#00EDD3"/><stop offset=".89" stop-color="#1B456E"/></linearGradient><clipPath id="a"><path fill="#fff" d="M0 0h24v24H0z"/></clipPath></defs></svg>