<svg width="24" height="24" fill="none" xmlns="http://www.w3.org/2000/svg"><g clip-path="url(#a)"><path d="M.627 3.02c-.363.028-.643.085-.627.128a174.74 174.74 0 0 0 1.053 2.389c.012.012.22.026.466.036 1.086.041 1.945.253 2.874.713A5.965 5.965 0 0 1 6.07 7.48a5.803 5.803 0 0 1 1.6 2.863c0 .022-.165.026-.896.026-.494 0-.919.008-.945.019-.039.014-.141.234-.566 1.208a69.57 69.57 0 0 0-.527 1.225c-.014.053.158.1.586.164.088.014.615.028 1.238.036l1.084.013-.065.224c-.731 2.479-3 4.212-5.779 4.42-.157.01-.363.021-.459.021h-.173L.633 18.93c-.46 1.052-.531 1.231-.5 1.242.138.05.449.069 1.167.069.919 0 1.366-.04 2.124-.196 3.093-.635 5.663-2.603 6.827-5.233.225-.506.488-1.34.535-1.688l.014-.1h2.322l.008.044c.167.821.35 1.375.663 2.028.946 1.968 2.718 3.575 4.913 4.457 1.333.534 2.76.79 4.196.753.6-.018 1.078-.085 1.053-.149a400.12 400.12 0 0 0-1.043-2.393c-.006-.006-.217-.014-.472-.024a7.443 7.443 0 0 1-1.864-.286 7.221 7.221 0 0 1-2.575-1.354c-.894-.753-1.541-1.69-1.884-2.73a3.414 3.414 0 0 1-.084-.28l-.014-.065.874-.006c.48-.004.888-.014.904-.022.027-.014 1.072-2.385 1.072-2.432 0-.03-.263-.108-.502-.147-.176-.028-.398-.036-1.286-.043l-1.076-.01.04-.145c.597-2.11 2.426-3.787 4.784-4.381a7.935 7.935 0 0 1 1.685-.225c.392-.016.44-.022.465-.055.017-.022.258-.564.535-1.203.341-.782.498-1.167.484-1.178-.045-.024-.33-.075-.555-.098-.327-.034-1.28-.028-1.701.008-2.405.215-4.573 1.185-6.199 2.769-.992.968-1.688 2.054-2.117 3.308a8.36 8.36 0 0 0-.284 1.055l-.024.15h-2.282l-.008-.048c-.007-.024-.03-.14-.054-.259-.336-1.674-1.288-3.301-2.631-4.5-1.53-1.366-3.437-2.221-5.535-2.481a11.41 11.41 0 0 0-1.98-.063Z" fill="#007F88"/></g><defs><clipPath id="a"><path fill="#fff" d="M0 0h24v24H0z"/></clipPath></defs></svg>