<svg width="24" height="24" fill="none" xmlns="http://www.w3.org/2000/svg"><path d="M12 24c6.627 0 12-5.373 12-12S18.627 0 12 0 0 5.373 0 12s5.373 12 12 12Z" fill="#2B1544"/><path d="M18.743 9.376v4.992c0 .222.01.449-.04.667a2.602 2.602 0 0 1-.75 1.32c-.178.17-.398.28-.61.405-1.43.833-2.855 1.667-4.285 2.501-.436.234-.952.273-1.437.213a1.96 1.96 0 0 1-.72-.235l-4.515-2.634c-.367-.205-.642-.542-.843-.905-.165-.315-.286-.662-.286-1.023v-5.39c.028-.524.26-1.021.59-1.418.135-.168.297-.311.48-.423a2654.45 2654.45 0 0 0 4.196-2.45c.23-.127.448-.283.697-.369a2.673 2.673 0 0 1 1.301-.073c.193.054.39.11.563.213 1.522.893 3.047 1.78 4.569 2.674.406.24.703.64.897 1.07.122.27.193.567.193.865ZM11.955 7.52a8.01 8.01 0 0 1-1.115 1.32c-.22.208-.43.432-.555.71-.1.197-.168.42-.14.646.034.303.25.57.53.678.286.114.608.088.892-.023a.296.296 0 0 1 .162-.022c-.055.355-.271.655-.442.962l.007.05c.155.166.318.322.471.484.04.037.075.088.13.105.179-.139.319-.321.484-.474.037-.042.112-.088.073-.153-.16-.3-.337-.604-.387-.95.03-.07.114-.012.165.006.266.13.588.15.866.042.379-.144.614-.588.53-.988a1.772 1.772 0 0 0-.514-.942c-.397-.409-.779-.845-1.05-1.35a.176.176 0 0 0-.107-.1ZM9.23 12.402c-.45.244-.75.724-.825 1.233a1.712 1.712 0 0 0 .963 1.754c.41.176.885.173 1.297.011a1.59 1.59 0 0 0 .552-.389c.06-.063.146-.12.146-.216-.008-.097-.095-.15-.151-.216-.074-.065-.132-.15-.216-.202-.135-.059-.216.089-.303.162-.341.347-.956.35-1.305.012a.94.94 0 0 1-.284-.84.948.948 0 0 1 .468-.696c.165-.083.35-.128.533-.12.257.017.493.153.667.34.594.592 1.165 1.205 1.757 1.798.313.31.748.508 1.19.491.338.008.662-.127.937-.318.404-.281.65-.77.675-1.263.054-.781-.512-1.57-1.275-1.72-.487-.1-1.037.003-1.412.35-.267.242-.51.515-.774.765-.272-.224-.487-.508-.753-.737a1.314 1.314 0 0 0-.39-.256c-.027-.017-.036-.026-.072-.04a1.576 1.576 0 0 0-1.425.097Zm3.778.789a.959.959 0 0 1 .743-.284.91.91 0 0 1 .742.423c.246.375.174.914-.142 1.223-.326.316-.884.355-1.234.057-.26-.221-.479-.485-.728-.718l-.009-.062c.208-.216.42-.423.628-.64Z" fill="#fff"/></svg>