<svg width="24" height="24" fill="none" xmlns="http://www.w3.org/2000/svg"><path d="M10.82 9.204a4.77 4.77 0 0 0 2.914-4.42C13.751 2.147 11.628 0 9.034 0 6.427 0 4.308 2.148 4.308 4.784A4.797 4.797 0 0 0 5.924 8.38l-2.482 1.66s4.978.432 7.377-.837Z" fill="url(#a)"/><path d="M20.903 14.434c-2.37-.85-5.676.795-5.676.795s2.552-3.417 2.496-8.466c-.027-3.695-1.338-4.895-2.343-5.786.084.506.126 1.02.126 1.533 0 5.355-3.319 8.953-8.66 8.953-2.218 0-4.253-.014-5.885-1.255.028.084.265 1.1 1.213 2.161a6.389 6.389 0 0 0 1.73 1.354c2.398 1.296 4.24 1.45 4.42 1.464.014.014.014.042.028.056 0 2.663-1.869 6.47-4.519 6.47a5.413 5.413 0 0 1-1.169-.138 4.125 4.125 0 0 1-1.676-.738s.363 2.774 3.347 3.054c3.277.306 4.783-.405 8.032-2.385 3.473-2.12 6.108-4.365 8.13-3.807 1.535.418 1.789 2.858 1.789 2.858s.46-.962.6-1.812c.136-.895.387-3.46-1.983-4.311Z" fill="url(#b)"/><path d="M8.923 1.548a3.274 3.274 0 0 1 2.482 1.144l.377-.322a3.775 3.775 0 0 0-5.007-.64l.28.402c.549-.38 1.2-.583 1.868-.584Z" fill="#fff"/><defs><linearGradient id="a" x1="3.442" y1="5.056" x2="13.734" y2="5.056" gradientUnits="userSpaceOnUse"><stop stop-color="#FF3F3F"/><stop offset="1" stop-color="#EB0000"/></linearGradient><linearGradient id="b" x1=".96" y1="12.466" x2="22.966" y2="12.466" gradientUnits="userSpaceOnUse"><stop stop-color="#2482C5"/><stop offset="1" stop-color="#285FAC"/></linearGradient></defs></svg>