<svg width="24" height="24" fill="none" xmlns="http://www.w3.org/2000/svg"><path d="M12 24c6.627 0 12-5.373 12-12S18.627 0 12 0 0 5.373 0 12s5.373 12 12 12Z" fill="#5DF"/><path d="M8.872 7.59a5.715 5.715 0 0 1 1.5-3.84c.263-.263.293-.315.293-.525 0-.21 0-.225-.158-.225a4.223 4.223 0 0 0-.577.105 9.075 9.075 0 0 0-5.468 3.802 8.46 8.46 0 0 0-1.275 3 10.553 10.553 0 0 0-.135 3 8.753 8.753 0 0 0 3.12 5.678c.923.75 1.958 1.35 1.958 1.08a1.073 1.073 0 0 0-.24-.307 4.755 4.755 0 0 1-1.193-3.818 5.453 5.453 0 0 1 2.55-4.2c.183-.13.376-.246.578-.345.112 0 .045-.225-.233-.75a5.183 5.183 0 0 1-.72-2.655Zm11.633 2.34a9 9 0 0 0-4.56-6.12c-.42-.232-.63-.285-.63-.143.04.12.1.232.18.33.465.66.726 1.443.75 2.25a3.002 3.002 0 0 1-.75 2.34.81.81 0 0 1-1.133.046c-.3-.218-.3-.368-.112-.645A3.27 3.27 0 0 0 14.812 6a1.914 1.914 0 0 0-.555-1.553 1.448 1.448 0 0 0-1.455-.382 2.378 2.378 0 0 0-1.44 1.725 6.862 6.862 0 0 0-.3 1.71c.006.889.225 1.763.638 2.55.288.452.645.857 1.057 1.2.083.054.156.12.218.195a.66.66 0 0 1-.248.127 4.808 4.808 0 0 0-2.49 2.783 5.362 5.362 0 0 0-.36 2.212 2.573 2.573 0 0 0 .75 1.928 2.49 2.49 0 0 0 2.1.563 3.952 3.952 0 0 0 2.595-1.245c.308-.33.368-.368.428-.293.06.075.045.12-.068.308a5.625 5.625 0 0 1-3.202 2.535c-.263.067-.375.12-.375.18 0 .195 1.642-.075 2.64-.428a9.076 9.076 0 0 0 5.475-5.595 7.073 7.073 0 0 0 .412-2.79 7.105 7.105 0 0 0-.127-1.8Z" fill="#fff"/></svg>