<svg width="24" height="24" fill="none" xmlns="http://www.w3.org/2000/svg"><g clip-path="url(#a)"><path d="M2.523 9.213 0 11.736h5.047L2.523 9.213Z" fill="#A02870"/><path d="M5.046 12.264H.001l2.522 2.523 2.523-2.523Z" fill="#80286C"/><path d="M8.469 8.84 5.945 6.319v5.046L8.47 8.84Z" fill="#C42C79"/><path d="M5.419 11.364V6.318L2.896 8.84l2.523 2.523Z" fill="#A02870"/><path d="m8.842 8.468 2.523-2.523H6.318l2.524 2.523Z" fill="#C42C79"/><path d="M8.842 2.896 6.318 5.419h5.046L8.842 2.896Z" fill="#E4327F"/><path d="M14.786 2.523 12.263 0v5.046l2.523-2.523Z" fill="#0A8B4B"/><path d="M11.736 5.046V0L9.213 2.523l2.523 2.523Z" fill="#E4327F"/><path d="m8.469 15.158-2.524-2.522v5.046l2.524-2.524Z" fill="#632A69"/><path d="m2.896 15.158 2.523 2.523v-5.045l-2.523 2.522Z" fill="#80286C"/><path d="m15.16 8.468 2.522-2.523h-5.046l2.523 2.523Z" fill="#167B55"/><path d="M12.636 5.419h5.046l-2.523-2.523-2.523 2.523Z" fill="#0A8B4B"/><path d="M11.364 18.58H6.318l2.523 2.524 2.523-2.523Z" fill="#402863"/><path d="m8.842 15.531-2.524 2.523h5.046L8.842 15.53Z" fill="#632A69"/><path d="m21.104 8.841-2.523-2.523v5.046l2.523-2.523Z" fill="#21695E"/><path d="m15.531 8.84 2.523 2.524V6.318L15.531 8.84Z" fill="#167B55"/><path d="M9.214 21.477 11.737 24v-5.046l-2.523 2.523Z" fill="#402863"/><path d="M12.263 18.953V24l2.523-2.523-2.523-2.523Zm2.896 2.15 2.523-2.522h-5.047l2.524 2.523Z" fill="#223160"/><path d="m15.159 15.531-2.523 2.523h5.045L15.16 15.53Z" fill="#1E4561"/><path d="M18.581 12.636v5.045l2.523-2.523-2.523-2.522Z" fill="#245661"/><path d="m15.531 15.159 2.523 2.523v-5.046l-2.523 2.523Z" fill="#1E4561"/><path d="M21.477 14.786 24 12.263h-5.046l2.523 2.523Z" fill="#245661"/><path d="m21.477 9.213-2.524 2.523H24l-2.523-2.523Z" fill="#21695E"/></g><defs><clipPath id="a"><path fill="#fff" d="M0 0h24v23.999H0z"/></clipPath></defs></svg>