<svg width="24" height="24" fill="none" xmlns="http://www.w3.org/2000/svg"><path d="M12 24c6.627 0 12-5.373 12-12S18.627 0 12 0 0 5.373 0 12s5.373 12 12 12Z" fill="#42C1CA"/><path d="M11.949 9.681c.279-1.172.615-2.226.972-2.914.131-.328.664-1.115 1.248-1.635.973-.866 2.064-1.086 3.2-.372l-.1.158.1-.158c.58.363.813.738.71 1.09-.075.263-.362.473-.515.45a.93.93 0 0 1-.668-.18 1.264 1.264 0 0 1-.406-.541c-.159-.375-.367-.503-.623-.473-.185.021-.4.14-.469.22l-.176.194a2.922 2.922 0 0 0-.363.476c-.357.595-.686 1.685-1.143 3.943l3.027.443-.166 1.213-3.073-.45-.13.798-.035.2c-.018.103-.037.216-.06.336l3.102.454-.177 1.211-3.175-.465c-.367 1.559-.85 3.23-1.191 3.888-.132.33-.664 1.115-1.248 1.635-.973.866-2.064 1.086-3.2.373-.58-.364-.812-.739-.71-1.091.075-.263.362-.472.516-.45a.933.933 0 0 1 .667.18c.167.124.305.302.406.542.159.374.367.503.623.473.185-.022.4-.14.469-.22.68-.758 1.22-2.217 1.901-5.588l-3.027-.444.167-1.212 3.072.45.131-.798c.03-.179.061-.358.094-.536l-3.09-.452.177-1.211 3.163.463Z" fill="#fff"/></svg>