<svg width="24" height="24" fill="none" xmlns="http://www.w3.org/2000/svg"><path d="M12 24c6.627 0 12-5.373 12-12S18.627 0 12 0 0 5.373 0 12s5.373 12 12 12Z" fill="#1347E8"/><path d="M12 3.75a8.25 8.25 0 1 0 0 16.5 8.25 8.25 0 0 0 0-16.5Zm7.83 7.912-.667.007-.003-.28.668-.005.003.278h-.001Zm-.171-1.442-.662.092-.038-.277.661-.091.039.277Zm-.57-1.756.116.255-.609.276-.115-.254.607-.277h.001Zm-.834-1.272.184.21-.502.441-.184-.21.502-.44Zm-.979-1.044.212.183-.436.505-.212-.182.436-.506Zm-1.166-.944.234.152-.364.56-.234-.152.364-.56Zm-1.327-.655.27.071-.17.646-.27-.072.17-.644v-.001Zm-1.46-.359.279.023-.056.666-.278-.023.056-.666Zm-1.51-.176h.28v.668h-.28v-.668Zm-1.24.176.055.665-.279.024-.055-.665.279-.024Zm-1.46.359.17.645-.27.072-.17-.645.27-.072Zm-1.326.654.363.561-.235.152-.363-.56.235-.152ZM6.62 6.15l.436.505-.212.182-.435-.505.211-.183ZM5.642 7.19l.503.441-.185.21-.502-.44.184-.21V7.19ZM4.81 8.463l.607.277-.114.255-.608-.278.115-.254Zm-.532 1.48.662.091-.038.278-.662-.092.038-.278Zm-.207 1.44.668.006-.003.28-.667-.007.002-.28Zm.062 1.569.664-.068.028.278-.664.067-.028-.277Zm.302 1.42.651-.151.064.272-.651.152-.064-.273Zm.728 1.698-.138-.244.58-.331.139.243-.58.332Zm.947 1.19-.204-.192.46-.486.203.192-.46.486Zm1.069.95-.228-.162.388-.544.227.162-.388.544Zm1.247.833-.247-.13.31-.59.248.13-.31.59Zm1.381.531-.276-.046.11-.659.276.047-.11.658Zm1.207.227-.005-.668.28-.003.005.668-.28.003ZM5.055 12A6.953 6.953 0 0 1 12 5.055 6.953 6.953 0 0 1 18.945 12 6.953 6.953 0 0 1 12 18.945 6.953 6.953 0 0 1 5.055 12Zm7.49 7.86-.01.002-.06-.665.278-.025.009-.002.06.665-.277.026Zm1.488-.313-.116-.657.275-.05.117.66-.276.047Zm1.42-.49-.228-.628.263-.095.228.628-.262.095Zm1.262-.773-.413-.525.219-.174.413.525-.22.174Zm1.075-1.047-.48-.464.194-.202.48.465-.194.2Zm.879-1.13-.54-.393.165-.226.54.393-.165.227Zm.714-1.342-.631-.22.092-.264.63.22-.091.264Zm.394-1.522-.668-.03.013-.28.668.03-.013.28Zm-5.125 2.306c.111.12.114.303.004.412-.11.11-.293.104-.412-.01l-.208-.21-.474-.48a2.078 2.078 0 0 1-.987.2H11.27c-1.18.044-2.271-.546-2.183-2.463.004-.08-.005-1.112-.005-1.194l.002-.774c-.002-1.912.465-2.78 1.754-3.086.146-.035.944-.053 1.096-.053h.068c.153 0 .857.018 1.003.053 1.288.307 1.755 1.174 1.753 3.086l.002.775c0 .082-.008 1.113-.004 1.194.048 1.035-.249 1.485-.718 1.93l.405.41.208.21Zm-1.994-.696c.149 0 .297-.021.44-.063l-.268-.27-.208-.211c-.113-.12-.115-.303-.005-.411.11-.11.293-.105.412.008l.208.21.374.38a.956.956 0 0 0 .055-.055c.35-.366.516-.672.483-1.414-.002-.053-.003-.053.002-.985l.002-.238-.001-.523c-.001-.32-.002-.207-.002-.252.001-.847-.095-1.584-.301-1.916-.123-.198-.334-.42-.974-.574-.29-.024-.58-.037-.871-.038h-.07c-.192 0-.837.019-.963.038-.64.154-.852.376-.974.574-.207.332-.303 1.069-.301 1.917l-.002.25v.762c.006.931.006.933.003.985-.034.742.133 1.048.483 1.414.325.34.727.413 1.008.413l.06-.002h1.349l.06.001Z" fill="#fff"/></svg>