<svg width="24" height="24" viewBox="0 0 24 24" fill="none" xmlns="http://www.w3.org/2000/svg">
<path d="M12 24C18.6274 24 24 18.6274 24 12C24 5.37258 18.6274 0 12 0C5.37258 0 0 5.37258 0 12C0 18.6274 5.37258 24 12 24Z" fill="#47B95C"/>
<path d="M12 4.5C7.86 4.5 4.5 7.86 4.5 12C4.5 12.0998 4.50975 12.195 4.515 12.2947H8.03475L9.735 9.36975L12 12.615L14.2597 9.36975L15.96 12.2947H19.4797C19.485 12.195 19.4947 12.0998 19.4947 12C19.5 7.86 16.14 4.5 12 4.5ZM17.1697 11.3903C16.8652 8.805 14.6647 6.795 12 6.795C9.33525 6.795 7.13475 8.81025 6.83025 11.3903H5.91975C6.225 8.30475 8.835 5.88975 12 5.88975C15.165 5.88975 17.7697 8.30475 18.0802 11.3903H17.1697Z" fill="white"/>
<path d="M14.1957 11.0498L12.0005 14.1998L9.80522 11.0498L8.55572 13.2001H4.60547C5.18072 16.7701 8.26547 19.5001 12.0005 19.5001C15.7355 19.5001 18.8202 16.7701 19.3955 13.1948H15.4452L14.1957 11.0498ZM16.7607 14.1001H17.7305C16.8702 16.4348 14.6307 18.1103 12.0005 18.1103C9.37022 18.1103 7.13072 16.4348 6.27047 14.1001H7.24022C8.05022 15.9248 9.87572 17.2051 12.0005 17.2051C14.1252 17.2051 15.9507 15.9248 16.7607 14.1001Z" fill="white"/>
</svg>
