<svg width="24" height="24" fill="none" xmlns="http://www.w3.org/2000/svg"><path d="M12 24c6.627 0 12-5.373 12-12S18.627 0 12 0 0 5.373 0 12s5.373 12 12 12Z" fill="#454545"/><path fill-rule="evenodd" clip-rule="evenodd" d="M8.625 12A3.38 3.38 0 0 1 12 8.625 3.38 3.38 0 0 1 15.375 12c0 .49-.107.954-.296 1.375l-2.227-2.228-1.704 1.705 2.228 2.227a3.352 3.352 0 0 1-1.376.296A3.379 3.379 0 0 1 8.625 12Zm8.86 0a5.454 5.454 0 0 0-.885-2.983l2.15-2.151-1.616-1.616-2.15 2.151A5.454 5.454 0 0 0 12 6.515a5.46 5.46 0 0 0-2.983.885L6.866 5.25 5.25 6.865l2.151 2.152a5.46 5.46 0 0 0 0 5.967l-2.151 2.15 1.615 1.616 2.152-2.151c.859.559 1.882.886 2.983.886a5.453 5.453 0 0 0 2.983-.886l2.151 2.151 1.616-1.616-2.151-2.15A5.454 5.454 0 0 0 17.485 12Z" fill="#fff"/></svg>