<svg width="24" height="24" fill="none" xmlns="http://www.w3.org/2000/svg"><path d="M12 24c6.627 0 12-5.373 12-12S18.627 0 12 0 0 5.373 0 12s5.373 12 12 12Z" fill="#F49E00"/><path d="M14.816 13c1.685-2.639 2.997-7 2.997-7l-2.809.637-1.028 3.637c-.097-2.727-1.967-3.725-1.967-3.725-1.498-.73-2.833-.409-3.795.093-1.19.62-2.057 1.7-2.472 2.943-.59 1.77-.517 3.754-.44 4.653.032.421.125.836.278 1.232 1.034 2.68 3.896 2.528 3.896 2.528 2.623-.093 4.217-3.182 4.217-3.182l.752 2.271c.673 1.14 2.165.713 2.471.649.055-.012.102-.018.157-.03l1.677-.256v-.73c-3.65.1-3.934-3.719-3.934-3.719Zm-3.554 2.745c-.226.232-.51.397-.823.479-.68.17-1.203-.116-1.564-.466a2.953 2.953 0 0 1-.794-1.484c-.662-3.742.252-5.383.86-6.136a1.693 1.693 0 0 1 1.401-.649c2.358.123 2.887 5.057 2.887 5.057-.667 1.751-1.527 2.768-1.967 3.2Z" fill="#fff"/></svg>