<svg width="24" height="24" fill="none" xmlns="http://www.w3.org/2000/svg"><g clip-path="url(#a)"><path d="m17.98 17.953-6.028 6.027-2.99-2.99a18.097 18.097 0 0 0 9.018-3.037Zm5.713-6.19-.738-.736L11.952.021.945 11.027 0 11.973l.341.293a18.119 18.119 0 0 0 15.923 3.685 17.915 17.915 0 0 0 5.706-2.497c.433-.286.854-.596 1.267-.922.226-.182.449-.369.667-.56l-.21-.21Zm-8.838 2.767a20.69 20.69 0 0 0-10.916-3.062c5.019-2.188 11.178-2.485 16.824.763a16.35 16.35 0 0 1-5.908 2.299Z" fill="#2B71FF"/></g><defs><clipPath id="a"><path fill="#fff" d="M0 0h24v24H0z"/></clipPath></defs></svg>