<svg width="24" height="24" viewBox="0 0 24 24" fill="none" xmlns="http://www.w3.org/2000/svg">
<path d="M12.119 21.1461C7.05632 21.1461 2.94886 17.0386 2.94886 11.9759C2.94886 6.91326 7.05632 2.80579 12.119 2.80579C16.2623 2.80579 19.7727 5.564 20.8951 9.33714H23.7608C22.5668 4.01176 17.8026 0.0356445 12.119 0.0356445C5.52797 0.0356445 0.178711 5.3849 0.178711 11.9759C0.178711 18.567 5.52797 23.9162 12.119 23.9162C17.7907 23.9162 22.5429 19.964 23.7608 14.6625H20.8832C19.7369 18.4118 16.2504 21.1461 12.119 21.1461Z" fill="#2FA73F"/>
<path d="M14.7936 10.376C14.7936 11.4506 14.1608 12.37 13.2414 12.7999V16.3939H10.9608V12.776C10.0652 12.3462 9.44434 11.4268 9.44434 10.3641C9.44434 8.88348 10.6384 7.68945 12.119 7.68945C13.5876 7.70139 14.7936 8.89542 14.7936 10.376Z" fill="#2FA73F"/>
</svg>
