<svg width="24" height="24" fill="none" xmlns="http://www.w3.org/2000/svg"><g clip-path="url(#a)" fill-rule="evenodd" clip-rule="evenodd"><path d="M11.382.583V1.1c.18-.073.35-.17.505-.288-.172 0-.344-.229-.516-.229h.011Z" fill="#000"/><path d="M11.992.621c-.184 0-.374-.03-.55-.034h-.056A11.428 11.428 0 0 0 5.489 21.39a3.515 3.515 0 0 1-1.156-2.617 3.56 3.56 0 0 1 3.538-3.538l.707-.022v-.154a3.511 3.511 0 0 1 3.515-3.515 3.514 3.514 0 0 1 3.208 2.072A7.144 7.144 0 0 0 11.991.62Z" fill="#B4E1FF"/><path d="M12.366.583c6.177.748 8.088 5.284 8.092 9.38 0 4.187-3.519 7.243-6.596 8.05a28.323 28.323 0 0 1-3.486.628l-.467.057a2.296 2.296 0 0 0-1.554 3.606 2.3 2.3 0 0 0 1.116.84c.161.037.326.067.494.1.67.12 1.35.18 2.03.18A11.424 11.424 0 0 0 12.37.584h-.003Z" fill="#90D595"/><path d="M12.366.583h-.924c.187 0 .374.02.55.038a7.139 7.139 0 0 1 3.31 13.002 3.515 3.515 0 0 0-6.732 1.444v.15l-.71.025a3.533 3.533 0 0 0-2.371 6.148c.224.157.452.3.688.441a11.162 11.162 0 0 0 3.294 1.31 2.297 2.297 0 0 1-.78-3.877c.255-.23.56-.4.889-.5.108-.028.218-.05.329-.066l.467-.053c1.174-.14 2.338-.35 3.485-.632 3.078-.811 6.6-3.863 6.597-8.05 0-4.114-1.915-8.647-8.092-9.38Z" fill="#fff"/><path d="m15.705 14.034-.411-.411.411.411Z" fill="#000"/><path d="M11.996 0h-.602A11.996 11.996 0 0 0 5.149 21.83c.22.196.459.369.714.516a.595.595 0 0 0 .206.064 11.875 11.875 0 0 0 3.257 1.267c.185.065.377.109.572.131.694.123 1.397.186 2.101.187A11.999 11.999 0 1 0 11.996 0ZM7.508 21.872a10.65 10.65 0 0 1-1.709-.968 2.966 2.966 0 0 1 2.076-5.094c.232 0 .497 0 .718-.022a.576.576 0 0 0 .55-.572v-.15a2.947 2.947 0 0 1 5.635-1.208.569.569 0 0 0 .748.288 7.689 7.689 0 0 0 2.565-9.992c1.526 1.979 1.78 4.42 1.78 5.8 0 3.815-3.178 6.71-6.17 7.48-1.28.306-2.58.53-3.89.669a2.88 2.88 0 0 0-2.47 2.842c.005.306.058.61.156.901l.011.026ZM1.151 12A10.845 10.845 0 0 1 11.562 1.155a6.56 6.56 0 0 1 3.919 11.593 4.088 4.088 0 0 0-7.45 1.892h-.179a4.114 4.114 0 0 0-4.113 4.113c0 .101 0 .199.022.3A10.796 10.796 0 0 1 1.144 12h.007Zm10.845 10.844a10.872 10.872 0 0 1-2.386-.273 1.724 1.724 0 0 1 .355-3.317 31.68 31.68 0 0 0 4.043-.703c3.402-.893 7.022-4.214 7.019-8.6.05-2.039-.482-4.05-1.534-5.796a10.844 10.844 0 0 1-7.478 18.697l-.02-.008Z" fill="#41474E"/></g><defs><clipPath id="a"><path fill="#fff" d="M0 0h24v24H0z"/></clipPath></defs></svg>