<svg width="24" height="24" viewBox="0 0 24 24" fill="none" xmlns="http://www.w3.org/2000/svg">
<path fill-rule="evenodd" clip-rule="evenodd" d="M12 0C18.6264 0 24 5.3736 24 12C24 18.6264 18.6264 24 12 24C5.3736 24 0 18.6264 0 12C0 5.3736 5.3736 0 12 0Z" fill="black"/>
<path d="M17.1477 10.3753C17.6949 7.77845 16.4877 6.45605 14.2101 6.45605C12.8421 6.45605 11.7045 6.95765 10.6773 7.89125L10.9053 6.84245C10.9053 6.84245 10.5405 6.68405 9.81085 6.68405C9.01405 6.68405 8.62525 6.84245 8.62525 6.84245L6.43164 17.1457C6.43164 17.1457 6.75084 17.3041 7.54764 17.3041C8.27725 17.3041 8.70925 17.1457 8.70925 17.1457L10.2885 9.76086C11.0853 8.84886 12.1797 8.30165 13.1829 8.30165C14.6421 8.30165 15.1413 9.03126 14.8701 10.3081L13.4037 17.1457C13.4037 17.1457 13.7445 17.3041 14.5197 17.3041C15.2709 17.3041 15.6813 17.1457 15.6813 17.1457L17.1477 10.3753Z" fill="white"/>
</svg>
