<svg width="24" height="24" fill="none" xmlns="http://www.w3.org/2000/svg"><path d="M12 0c6.627 0 12 5.373 12 12s-5.373 12-12 12S0 18.627 0 12 5.373 0 12 0Z" fill="#1A82FF"/><path d="M16.387 16.941c-1.039 1.273-2.5 1.91-4.383 1.91s-3.345-.637-4.384-1.91c-1.04-1.273-1.559-2.919-1.558-4.937 0-2.019.52-3.665 1.557-4.938 1.04-1.273 2.5-1.91 4.384-1.91 1.884.001 3.345.638 4.383 1.91 1.04 1.273 1.559 2.919 1.559 4.938 0 2.018-.52 3.664-1.558 4.937Z" fill="#fff"/><path d="M11.982 16.19c.496 0 .918-.136 1.265-.406.347-.27.598-.637.754-1.1.155-.462.265-.906.33-1.33.063-.425.095-.875.095-1.35 0-.586-.036-1.11-.107-1.573l-4.271 4.451c.395.871 1.04 1.307 1.934 1.307ZM12.025 7.818c-.496 0-.918.135-1.265.405-.347.27-.598.637-.754 1.1a7.714 7.714 0 0 0-.33 1.33 9 9 0 0 0-.094 1.35c0 .314.01.61.03.888l4.073-4.245c-.395-.552-.949-.828-1.66-.828Z" fill="#1A82FF"/><path d="m6.394 16.247-.525-.504 3.978-4.146.524.503-3.977 4.147Zm7.495-4.327-.525-.504 3.978-4.146.524.503-3.977 4.147Z" fill="#1A82FF"/></svg>