<svg width="24" height="24" fill="none" xmlns="http://www.w3.org/2000/svg"><path d="M12 24c6.627 0 12-5.373 12-12S18.627 0 12 0 0 5.373 0 12s5.373 12 12 12Z" fill="#004A80"/><path d="m17.25 14.655-1.112 4.095H6.75v-.685l5.092-5.789-4.99-6.282V5.25h9.249l.323 3.189h-.593c-.39-.727-.722-1.27-.996-1.631-.273-.361-.517-.585-.731-.675a2.008 2.008 0 0 0-.626-.157 8.16 8.16 0 0 0-.954-.049H9.896l3.937 4.905v.236l-4.866 5.524h5.554c.273 0 .523-.065.75-.195.226-.13.423-.294.588-.49.166-.191.32-.41.462-.655.142-.247.267-.503.373-.767l.556.17Z" fill="#fff"/></svg>