<svg width="24" height="24" fill="none" xmlns="http://www.w3.org/2000/svg"><path d="M2.25 22.512 0 16.027l4.272-4.943-2.065-5.881L6.704 0l6.752 1.289L15.54 7.28l6.219 1.202L24 14.977l-4.484 5.186-6.32-1.225-4.174 4.855-6.771-1.282Z" fill="#fff"/><path d="m12.147 16.894-.817.449c.116.247.212.503.287.766.08.23.074.138-.21.459-.05.057-.057.074-.12.141l-.851.969c-.057.057-.057.1-.111.151l-.115.132a.832.832 0 0 0-.125.138l-.253.277a.696.696 0 0 1-.142.172l-.82.942c-.057.06-.459.546-.499.553l-4.892-.941a.176.176 0 0 1 .09-.105c.031-.034.028-.068.078-.125l.064-.06a.171.171 0 0 0 .027-.041c.034-.04.07-.08.108-.115.037-.04.048-.07.088-.111a.166.166 0 0 0 .057-.05l1.218-1.421a.26.26 0 0 0 .095-.105.42.42 0 0 1 .108-.111c.067-.075.024-.064.08-.122l.396-.445a.513.513 0 0 1 .104-.118l.587-.675c.24-.337.2 0-.182-1.168-.135-.414-.3-.836-.428-1.251-.26-.834-.621-1.687-.868-2.507l1.542.297c.103-.115.199-.236.287-.361a.476.476 0 0 0 .19-.446l-2.363-.465c-.158.236-1.35 1.535-1.626 1.893l-.246.283-1.856 2.146c-.036.046-.074.09-.115.131-.118.132-.07.19.061.527l.526 1.515c.081.243.183.503.264.752.168.503.337.985.516 1.502l.523 1.511 1.484.287c.5.101 1.013.19 1.485.29l.742.142c.442.081 2.025.412 2.247.412.024-.054.06-.101.105-.139l2.092-2.426c.202-.202.641-.755.864-1.012.054-.057.074-.088.121-.145l.736-.857a1.426 1.426 0 0 0-.061-.182l-.415-1.14a1.37 1.37 0 0 1-.068-.21" fill="#3AB54A"/><path d="M7.97 3.523c-.061.07-2.025 1.167-2.298 1.35-.142.087-.337.124-.307.28l.594 2.422c.148.63.337 1.279.486 1.906.099.32.177.648.232.979.112.313.2.634.26.961l.102.051h.131l3.53.675c.086.023.174.037.263.044a3.21 3.21 0 0 1 .3-.361c.104-.135.21-.226.304-.368-.061-.233-.125-.449-.193-.675a.337.337 0 0 1 .02-.337l.588-.675c.178-.21.337-.338.28-.54-.058-.203-.52-2.025-.618-2.244-.174.14-.33.3-.462.48-.07.09-.149.161-.216.249a1.69 1.69 0 0 1-.226.24l-.675-2.619c-.067-.273-.574-2.392-.675-2.598l-1.42.78Z" fill="#fff"/><path d="m16.364 11.08.466-.25a9.113 9.113 0 0 1 1.39-.708c.329.966.604 1.95.823 2.946a12.9 12.9 0 0 1-1.228.705c-.206.108-.401.226-.614.337l-.604.338a.63.63 0 0 1-.145.195l-.256.26a.676.676 0 0 1-.071.108l-1.144 1.3a.378.378 0 0 0-.088.09 4.135 4.135 0 0 1-.337.388l-.253.277c-.085.145-.233.246-.338.395l4.93.941.189-.23c.057-.077.057-.036.108-.107.094-.128.195-.25.303-.365l.618-.712c.033-.037.065-.077.094-.118.122-.152.145-.145.3-.36.051-.072.055-.035.112-.112l.203-.24c.11-.108.276-.337.307-.357l.31-.355c.047-.05.054-.074.098-.121l.52-.59a.653.653 0 0 1 .1-.112c-.1-.374-.65-1.903-.816-2.362-.135-.384-.273-.79-.422-1.184l-.337-1.06a.576.576 0 0 0 0-.08l-.05-.075-4.896-.941.728 2.16Z" fill="#02833D"/><path d="M6.937 11.411a6.328 6.328 0 0 0-.26-.951 5.193 5.193 0 0 1-.87-.155l-.108-.037.374-.416a.49.49 0 0 0 .078-.121c.029-.029.06-.056.091-.081a.526.526 0 0 0 .169-.202.044.044 0 0 1 .05.03c-.145-.628-.337-1.275-.485-1.906l-.604-2.423a.418.418 0 0 1 .307-.28c.27-.165 2.237-1.262 2.297-1.35a1.012 1.012 0 0 1-.178-.435c-.146-.442-.338-.894-.466-1.35l4.9.935.637 1.819c.189.597.418 1.214.627 1.808.112.307.21.614.318.921.107.307.043.2-.108.392a.545.545 0 0 1-.075.077.455.455 0 0 0-.067.091l-.135.152c-.05.064-.095.098-.145.166-.05.067-.091.097-.145.165a.558.558 0 0 1-.074.078.952.952 0 0 1-.146.165.233.233 0 0 0-.054.077c-.07.108-.05.034-.145.17-.094.134-.04.02-.145.164a.237.237 0 0 1-.077.075l-.193.256a.138.138 0 0 1-.054-.037c.04.213-.1.337-.28.54l-.587.675a.338.338 0 0 0-.02.337c.067.23.132.446.192.675a1.23 1.23 0 0 0 .155-.172l.631-.722c.338-.388.969-1.158 1.272-1.471a.678.678 0 0 0 .081-.098l1.013-1.188c.243-.256.148-.202-.105-.965l-.88-2.53c-.065-.18-.109-.338-.176-.51-.172-.428-.337-1.053-.53-1.532-.155-.418-.067-.337-.3-.384L7.257.81a2.7 2.7 0 0 0-.303-.05L5.22 2.783l-.058.074-2.081 2.396c-.112.128 0 .256.121.62l1.184 3.422c.044.138.102.287.149.428l.482 1.306c.305.103.62.176.938.216l.982.165ZM11.732 12.076c.067.226.128.449.189.675.044.225.12.443.226.648a21.15 21.15 0 0 0 1.07-.557c.644-.365 1.487-.807 2.105-1.174.212-.129.904-.476 1.042-.59l-.728-2.147 4.902.945.044.074c.011.026.02.054.027.081l.358 1.036c.138.398.276.8.411 1.184.166.473.716 2.001.817 2.362a.652.652 0 0 0-.101.112l-.5.59c-.044.047-.05.07-.098.122l-.323.354c-.03.027-.196.25-.308.357l-.202.24c-.057.078-.06.04-.111.111-.156.216-.18.21-.3.361a1.54 1.54 0 0 1-.105.119l-.621.725c-.108.115-.21.237-.304.364-.05.071-.05.03-.108.108l-.189.23-4.92-.942c.092-.148.24-.25.338-.394l.253-.277c.115-.149.226-.25.338-.388a.378.378 0 0 1 .088-.091l1.136-1.3a.67.67 0 0 0 .071-.107l.25-.277a.487.487 0 0 0 .145-.196l-3.85 2.12c.071.273.51 1.386.577 1.686l5.2 1.013c.131.027.644.108.735.151.061-.094.172-.199.243-.29l3.712-4.268-.533-1.45c-.159-.396-.6-1.722-.743-2.14l-.752-2.146-4.454-.86c-.492-.102-1.012-.18-1.481-.29a.776.776 0 0 1-.095.138l-1.687 1.933c-.067.085-.145.162-.219.246l-1.33 1.532-.232.264" fill="#3AB54A"/><path d="m11.33 17.343-.914.51a6.245 6.245 0 0 1-.297.168c-.203.108-.408.23-.607.337-.203.126-.418.23-.642.31-.216-.563-1.035-3.849-1.14-4.018a3.627 3.627 0 0 0-.398.446c-.081.088-.132.142-.21.233a.82.82 0 0 1-.104.118.778.778 0 0 0-.091.09 7.836 7.836 0 0 1-.412-1.366 6.406 6.406 0 0 1-.175-.712.463.463 0 0 1 .125-.337c.074-.088.125-.152.195-.243l-1.542-.297c.247.83.608 1.687.868 2.507.128.415.293.837.428 1.252.381 1.167.422.843.182 1.167l-2.591 3.01a.248.248 0 0 0-.057.05 1.078 1.078 0 0 1-.088.112 1.175 1.175 0 0 0-.108.115.17.17 0 0 1-.027.04l-.07.06c-.052.058-.031.075-.079.126a.22.22 0 0 0-.09.104l4.892.942c.177-.175.343-.36.5-.554l.82-.951a.892.892 0 0 0 .14-.172l.254-.277a.832.832 0 0 1 .125-.138l.114-.132c.054-.05.054-.094.112-.152l.85-.968c.064-.068.07-.084.122-.142.283-.337.29-.23.209-.459a4.991 4.991 0 0 0-.287-.766" fill="#02833D"/><path d="M16.364 11.08c-.138.115-.83.463-1.042.59-.618.369-1.461.81-2.106 1.175-.357.202-.675.368-1.07.557a2.46 2.46 0 0 1-.225-.648c-.061-.23-.122-.452-.19-.675l-.39.462 1.393 4.015 3.85-2.118.604-.338c.212-.111.408-.23.614-.337.422-.213.832-.448 1.228-.706a27.663 27.663 0 0 0-.81-2.935 9.11 9.11 0 0 0-1.377.726l-.479.232ZM6.65 12.882c-.07.091-.121.155-.196.243a.463.463 0 0 0-.124.338c.045.239.103.476.175.708.094.473.232.936.412 1.384a.778.778 0 0 1 .09-.091.821.821 0 0 0 .105-.119c.078-.09.129-.145.21-.232.12-.16.253-.308.398-.446.104.169.924 3.455 1.14 4.019.224-.081.439-.185.641-.31.2-.112.405-.234.608-.338.1-.054.202-.111.296-.169l.925-.51.816-.448a1.344 1.344 0 0 1-.084-.24l-1.35-3.893-3.11-.608a2.83 2.83 0 0 0-.46-.077.476.476 0 0 1-.188.445 3.97 3.97 0 0 1-.287.361" fill="#fff"/><path d="m7.97 3.523 1.41-.783c.104.206.61 2.325.675 2.598l.675 2.618c.082-.072.158-.152.226-.24.067-.087.145-.158.216-.249a2.61 2.61 0 0 1 .462-.479c.098.202.573 1.987.617 2.244.02.01.037.023.054.037l.18-.257a.23.23 0 0 0 .077-.074c.104-.145.074-.064.145-.165.07-.101.074-.06.145-.169a.129.129 0 0 1 .054-.077c.054-.05.102-.106.145-.166a.155.155 0 0 0 .074-.077c.044-.06.092-.115.145-.166.054-.067.095-.1.145-.165l.135-.152a.455.455 0 0 1 .068-.091.545.545 0 0 0 .074-.078c.152-.192.21-.108.108-.391-.101-.283-.206-.614-.317-.921-.21-.594-.439-1.211-.628-1.809L12.231 2.7l-4.916-.954c.142.448.337.9.466 1.35a.982.982 0 0 0 .178.435" fill="#02833D"/><path d="M6.677 10.46a7.593 7.593 0 0 0-.232-.986c0-.027-.034-.027-.034-.027a.526.526 0 0 1-.162.216c-.047.058-.047.024-.091.081a.263.263 0 0 1-.078.122l-.364.405.108.037c.285.076.576.128.87.155" fill="#128241"/></svg>