<svg width="24" height="24" fill="none" xmlns="http://www.w3.org/2000/svg"><path d="M11.37 0h1.2c1.114.093 2.228.273 3.285.648A11.928 11.928 0 0 1 22.39 6.12c1.224 2.198 1.747 4.79 1.425 7.287-.354 3-1.902 5.84-4.236 7.759a11.93 11.93 0 0 1-7.572 2.74A11.945 11.945 0 0 1 4.839 21.5a11.974 11.974 0 0 1-4.554-7.433A11.934 11.934 0 0 1 .87 7.718a11.94 11.94 0 0 1 5.638-6.366C8.008.554 9.683.134 11.37 0ZM6.144 4.735c-1.382 1.185-2.27 2.881-2.63 4.652-.34 1.734-.318 3.55.123 5.264.52 1.958 1.713 3.81 3.496 4.833 1.694.971 3.7 1.197 5.619 1.128 1.79-.09 3.617-.323 5.248-1.114v-2.622c-1.874 1.04-4.058 1.635-6.206 1.324-1.28-.168-2.54-.767-3.337-1.808-.993-1.23-1.399-2.835-1.42-4.392-.047-1.83.38-3.746 1.558-5.187.808-.97 2.068-1.444 3.302-1.533 2.021-.146 4.022.322 5.942.907-.002-.873 0-1.748-.001-2.623-2.122-.503-4.315-.74-6.494-.626-1.846.11-3.757.585-5.2 1.797Z" fill="#2C3E50"/><path d="M6.144 4.735c1.444-1.212 3.354-1.687 5.2-1.797 2.18-.113 4.373.123 6.494.626l.001 2.623c-1.92-.585-3.92-1.053-5.942-.907-1.233.09-2.493.562-3.301 1.533C7.418 8.253 6.99 10.17 7.037 12c.022 1.557.428 3.162 1.42 4.392.797 1.04 2.057 1.64 3.337 1.808 2.148.31 4.332-.283 6.206-1.324v2.622c-1.63.791-3.457 1.024-5.248 1.114-1.919.07-3.925-.157-5.618-1.128-1.783-1.023-2.976-2.875-3.497-4.833-.44-1.713-.463-3.53-.123-5.264.361-1.77 1.248-3.467 2.63-4.652Z" fill="#fff"/></svg>