<svg width="24" height="24" viewBox="0 0 24 24" fill="none" xmlns="http://www.w3.org/2000/svg">
<g clip-path="url(#clip0)">
<path d="M12.3038 3.06031C12.3038 3.06031 14.7667 4.04548 16.9013 8.91664C17.1613 9.77164 17.3265 10.6527 17.3939 11.5438C17.3939 11.5438 17.5033 14.773 15.1499 15.7581C14.85 15.8446 14.5912 16.0358 14.4205 16.2969C14.2497 16.5581 14.1784 16.8719 14.2194 17.1812C14.3289 18.3305 14.5478 20.1367 14.5478 20.5198C14.5144 20.832 14.368 21.1213 14.1361 21.333C13.9043 21.5447 13.6029 21.6643 13.289 21.6692C12.4721 21.7859 11.6429 21.7859 10.826 21.6692C10.0051 21.4503 9.89559 21.0124 9.89559 21.0124C9.89559 21.0124 9.51246 20.4651 9.78612 18.0569C9.78612 18.0569 10.3334 16.3602 8.74621 15.7034C7.15898 15.0466 6.61166 12.1458 6.61166 12.1458C6.61166 12.1458 6.11908 9.29976 9.18407 5.30432C9.18407 5.30432 11.0997 2.89611 12.2491 3.00557" fill="url(#paint0_linear)"/>
<path d="M9.45765 4.64209L9.29346 4.80629L9.45765 4.64209Z" fill="url(#paint1_linear)"/>
<path d="M8.1441 6.34418C7.30337 5.74879 6.35558 5.32135 5.35277 5.08534C4.34511 4.87081 3.31801 4.76076 2.28778 4.75695H1.57626C1.33885 4.74815 1.10249 4.79276 0.884615 4.88749C0.666741 4.98222 0.472912 5.12464 0.317422 5.30427C0.179456 5.46881 0.0826715 5.66386 0.0350823 5.87325C-0.0125069 6.08264 -0.00953161 6.30036 0.0437618 6.50837C0.372908 8.76971 1.36307 10.8833 2.88983 12.5836C3.65684 13.3976 4.52075 14.1145 5.46223 14.7182C6.43362 15.2785 7.48604 15.6847 8.58196 15.9223C6.94 15.2108 6.39268 12.2552 6.39268 12.2552C4.80545 11.2701 3.76554 9.7923 2.99929 7.60301H3.05402C4.44455 7.6338 5.79555 8.07145 6.94 8.86185C7.20482 7.96389 7.6113 7.11397 8.1441 6.34418Z" fill="url(#paint2_linear)"/>
<path d="M17.0654 8.86176C18.2065 8.06455 19.5596 7.62621 20.9514 7.60293H21.0061C20.2399 9.79221 19.1453 11.27 17.558 12.2551V11.9268C17.5033 12.8025 17.1749 15.1559 15.2593 15.9769C16.4127 15.7305 17.5206 15.3058 18.5432 14.7181C19.5292 14.1776 20.4025 13.453 21.1156 12.5835C22.6006 10.8559 23.5848 8.75503 23.9617 6.50828C24.015 6.30027 24.0179 6.08255 23.9704 5.87316C23.9228 5.66377 23.826 5.46872 23.688 5.30418C23.5247 5.13436 23.3294 4.99856 23.1133 4.90462C22.8973 4.81068 22.6647 4.76046 22.4292 4.75686H21.7177C20.6871 4.75502 19.6594 4.86513 18.6527 5.08525C17.6223 5.31865 16.6527 5.7662 15.8066 6.39882C16.3073 7.17578 16.729 8.00087 17.0654 8.86176Z" fill="url(#paint3_linear)"/>
</g>
<defs>
<linearGradient id="paint0_linear" x1="6.55693" y1="12.3812" x2="17.3665" y2="12.3812" gradientUnits="userSpaceOnUse">
<stop stop-color="#29DCE8"/>
<stop offset="1" stop-color="#29DC93"/>
</linearGradient>
<linearGradient id="paint1_linear" x1="12.0831" y1="10.2412" x2="12.1258" y2="10.2412" gradientUnits="userSpaceOnUse">
<stop stop-color="#29DCE8"/>
<stop offset="1" stop-color="#29DC93"/>
</linearGradient>
<linearGradient id="paint2_linear" x1="1.20273" y1="271.075" x2="134.801" y2="271.075" gradientUnits="userSpaceOnUse">
<stop stop-color="#29DCE8"/>
<stop offset="1" stop-color="#29DC93"/>
</linearGradient>
<linearGradient id="paint3_linear" x1="259.324" y1="271.795" x2="398.102" y2="271.795" gradientUnits="userSpaceOnUse">
<stop stop-color="#29DCE8"/>
<stop offset="1" stop-color="#29DC93"/>
</linearGradient>
<clipPath id="clip0">
<rect width="24" height="24" fill="white"/>
</clipPath>
</defs>
</svg>
