<svg width="24" height="25" viewBox="0 0 24 25" fill="none" xmlns="http://www.w3.org/2000/svg">
<g clip-path="url(#clip0)">
<path fill-rule="evenodd" clip-rule="evenodd" d="M12 0.5C5.37343 0.5 0 5.7789 0 12.2912C0 17.5006 3.43823 21.9203 8.20622 23.4798C8.80585 23.5888 9.02615 23.2238 9.02615 22.9124C9.02615 22.6315 9.01506 21.7023 9.00977 20.717C5.67139 21.4303 4.9661 19.3258 4.9661 19.3258C4.42141 17.9631 3.63476 17.6008 3.63476 17.6008C2.54592 16.8688 3.71665 16.8839 3.71665 16.8839C4.92172 16.9669 5.55622 18.0991 5.55622 18.0991C6.62657 19.9015 8.36365 19.3803 9.04834 19.0792C9.154 18.3171 9.46676 17.797 9.81016 17.5026C7.14484 17.2047 4.3427 16.1934 4.3427 11.675C4.3427 10.3881 4.81183 9.33589 5.57947 8.50842C5.45479 8.21097 5.04376 7.01181 5.69569 5.38801C5.69569 5.38801 6.70318 5.07083 8.99604 6.59651C10.9632 6.06771 13.0389 6.06771 15.0061 6.59651C17.2963 5.07083 18.3027 5.38801 18.3027 5.38801C18.9557 7.01181 18.5452 8.21097 18.4205 8.50842C19.1898 9.33382 19.6557 10.3861 19.6557 11.675C19.6557 16.2043 16.8483 17.201 14.1761 17.4933C14.6067 17.8567 14.9897 18.5767 14.9897 19.6767C14.9897 21.2543 14.976 22.5241 14.976 22.9124C14.976 23.2264 15.192 23.594 15.8001 23.4782C20.566 21.9172 24 17.499 24 12.2912C24 5.7789 18.6271 0.5 12 0.5Z" fill="white"/>
<path d="M4.54375 17.4294C4.51733 17.4881 4.42329 17.5057 4.33824 17.4652C4.25318 17.4248 4.20193 17.3469 4.23258 17.2882C4.26322 17.2296 4.35197 17.2114 4.43914 17.2514C4.52631 17.2913 4.57597 17.3708 4.5448 17.4294H4.54375Z" fill="white"/>
<path d="M5.03155 17.962C4.97449 18.0139 4.86249 17.9901 4.78641 17.9075C4.71033 17.825 4.69343 17.7154 4.75154 17.6625C4.80966 17.6095 4.91902 17.635 4.99721 17.717C5.0754 17.799 5.09125 17.9091 5.03155 17.962Z" fill="white"/>
<path d="M5.50452 18.6411C5.43055 18.693 5.31063 18.6442 5.23614 18.5372C5.16165 18.4303 5.1627 18.3067 5.23614 18.2564C5.30957 18.206 5.42897 18.2517 5.50452 18.3555C5.58007 18.4594 5.57795 18.5876 5.50452 18.639V18.6411Z" fill="white"/>
<path d="M6.15195 19.2973C6.08644 19.3689 5.94644 19.3492 5.84395 19.2521C5.74146 19.155 5.70976 19.0221 5.7758 18.951C5.84183 18.8799 5.98342 18.8991 6.08644 18.9962C6.18946 19.0932 6.22222 19.2267 6.15195 19.2973Z" fill="white"/>
<path d="M7.04688 19.6784C7.01783 19.7708 6.88311 19.8129 6.74733 19.7734C6.61155 19.734 6.5228 19.625 6.54974 19.5315C6.57669 19.4381 6.71352 19.395 6.85035 19.437C6.98718 19.4791 7.07488 19.5845 7.04688 19.6784Z" fill="white"/>
<path d="M8.0303 19.749C8.03347 19.8461 7.9183 19.9271 7.77565 19.9286C7.63301 19.9302 7.51625 19.8534 7.51466 19.7573C7.51308 19.6613 7.62719 19.5793 7.7709 19.5772C7.9146 19.5751 8.0303 19.6525 8.0303 19.749Z" fill="white"/>
<path d="M8.94255 19.596C8.95945 19.6905 8.86013 19.7881 8.71854 19.814C8.57696 19.84 8.45069 19.7803 8.43273 19.6863C8.41476 19.5924 8.5162 19.4917 8.65567 19.4667C8.79515 19.4418 8.92458 19.4994 8.94255 19.596Z" fill="white"/>
</g>
<defs>
<clipPath id="clip0">
<rect width="24" height="23" fill="white" transform="translate(0 0.5)"/>
</clipPath>
</defs>
</svg>
