<svg width="24" height="24" fill="none" xmlns="http://www.w3.org/2000/svg"><g clip-path="url(#a)"><path d="M12 23.515c6.36 0 11.515-5.156 11.515-11.515C23.515 5.64 18.359.485 12 .485 5.64.485.485 5.641.485 12c0 6.36 5.156 11.515 11.515 11.515Z" fill="#fff" stroke="#3E4B52"/><path fill-rule="evenodd" clip-rule="evenodd" d="M10.053 18.827c-.898-.092-1.785-.294-2.221-.86-.076-.098-.077-.248-.242-.287-.013.469.28.841.55 1.117.142.144.307.265.483.371.18.109.173.17-.012.106-.565-.194-1.097-.425-1.52-.777-.335.552-.827.999-1.323 1.423-.112.095-.11.002-.015-.132.227-.322.819-.9.955-1.401.065-.241-.067-.668-.245-.683-.182-.015-.3.222-.376.34-.11.175-.175.315-.256.466-.21-.443-.033-.982.214-1.234-.412-.436-.814-.885-1.259-1.284-.18-.162-.117-.28.101-.18.657.304 1.26.69 1.652 1.211-.206-.709-.447-1.45-.72-2.072-.06-.14.01-.17.106-.053.44.545.829 1.147 1.16 1.813-.067-.963-.039-1.88.317-2.443.025-.04.05-.147.126-.12.115.348.196.656.339 1.034.057.153.32.882.517.856.132-.018.16-.34.174-.593.064-1.064-.092-2.288-.16-3.263a20.9 20.9 0 0 1 .534-.538c.055-.053.119-.147.181-.123-.014.243.02.497.023.752.007.654.02 1.375.268 1.79.205-.168.268-.471.335-.733.22-.851.352-1.815.49-2.716.372-.337.803-.728 1.164-1.061.045-.042.082-.123.145-.102.097.436.078 1.001.368 1.22.24-.249.298-.612.36-.978.03-.17.054-.377.082-.569.027-.19.015-.44.08-.587.08-.183.495-.446.7-.622 1.663-1.425 3.442-2.892 5.466-3.874.446.374.742 1.062.724 1.878-.015.697-.306 1.326-.614 1.84-.311.52-.695.992-1.067 1.45-.518.638-1.135 1.4-1.69 2.087-.154.19-.45.622-.603.672-.109.036-.24 0-.357.001-.546.006-1.104.082-1.273.447.251.27.826.178 1.308.19-.643.955-1.368 1.899-2.08 2.861-.091.123-.219.38-.316.412-.194.066-.594-.029-.905-.025-1.261.016-2.697.153-3.183.928 1.584.122 3.176.235 4.883.22-1.353.753-3.686.475-5.214.268.32.824 1.018 1.227 1.862 1.465.156.044.157.11-.016.092Zm6.78-11.943c-2.414 2.699-4.803 5.42-6.911 8.392 1.223-1.293 2.534-2.57 3.693-3.965 1.165-1.401 2.164-2.94 3.217-4.427Z" fill="#3E4B52"/></g><defs><clipPath id="a"><path fill="#fff" d="M0 0h24v24H0z"/></clipPath></defs></svg>