<svg width="24" height="24" fill="none" xmlns="http://www.w3.org/2000/svg"><g clip-path="url(#a)"><path opacity=".8" d="m8.311 3.699 6.53 6.53L9.302 0l-4.63 4.673 3.64-.974ZM15.689 20.3l-6.53-6.53L14.698 24l4.628-4.673-3.638.974ZM3.699 15.69l4.187-8.877-6.41 6.412L0 14.698l4.673 4.629-.974-3.638Zm16.605-7.38-6.533 6.533L24 9.302 19.327 4.67l.977 3.638Z" fill="#040000"/><path opacity=".8" d="m17.185 7.883-6.41-6.406L9.302 0l5.54 10.23 2.343-2.347Zm-10.37 8.231L14.698 24l-5.54-10.23-2.343 2.344Zm3.414-6.956L7.886 6.812 3.698 15.69l6.53-6.53Zm5.885 8.027L24 9.302l-10.23 5.54 2.344 2.343Z" fill="#323333"/><path opacity=".8" d="M1.968 1.965 0 9.302l4.008-2.153-2.04-5.184Zm20.067 20.07L24 14.698l-4.008 2.15 2.043 5.187Zm-20.067-.003L9.302 24l-2.15-4.01-5.184 2.042ZM22.035 1.965 14.698 0l2.15 4.008 5.187-2.043Z" fill="#555"/><path opacity=".8" d="M4.67 4.673 9.302 0 1.968 1.965l2.04 5.184.662-2.476Zm14.657 14.654L14.698 24l7.337-1.965-2.043-5.187-.665 2.479Zm-14.654 0L0 14.698l1.968 7.334 5.184-2.043-2.479-.662ZM19.327 4.67 24 9.302l-1.965-7.337-5.187 2.043 2.479.662Z" fill="#323333"/><path opacity=".8" d="M4.008 7.149 0 9.302l.93.927 3.078-3.08Zm15.984 9.7L24 14.698l-.93-.928-3.078 3.077ZM9.302 24l.927-.93-3.077-3.08L9.302 24Zm5.396-24-.927.93 3.077 3.078L14.698 0Z" fill="#040000"/></g><defs><clipPath id="a"><path fill="#fff" d="M0 0h24v24H0z"/></clipPath></defs></svg>