<svg width="24" height="24" fill="none" xmlns="http://www.w3.org/2000/svg"><g clip-path="url(#a)"><path d="M12 22.701c5.91 0 10.701-4.79 10.701-10.701 0-5.91-4.79-10.701-10.701-10.701C6.09 1.299 1.299 6.089 1.299 12c0 5.91 4.79 10.701 10.701 10.701Z" fill="#fff"/><path d="M12 0a12 12 0 1 0 12 12A11.966 11.966 0 0 0 12.07 0H12Zm.203 12.407-1.249 4.213h6.683a.336.336 0 0 1 .348.325v.11l-.58 2.006a.434.434 0 0 1-.437.32H6.741l1.714-5.841-1.917.581.435-1.337 1.918-.58 2.412-8.194a.438.438 0 0 1 .435-.32h2.587a.337.337 0 0 1 .348.326v.11L12.64 11.04l1.918-.581-.407 1.395-1.947.552Z" fill="#345D9D"/></g><defs><clipPath id="a"><path fill="#fff" d="M0 0h24v24H0z"/></clipPath></defs></svg>