<svg width="24" height="24" fill="none" xmlns="http://www.w3.org/2000/svg"><g clip-path="url(#a)"><path d="M24 12.002C24.008 18.568 18.687 24 12.002 24S-.004 18.564 0 11.994C.004 5.424 5.317 0 12.006 0S24.012 5.44 24 12.002Z" fill="#FE9B00"/><path d="M21.225 13.492c-.02-.04-.005-.074-.005-.106a1.366 1.366 0 0 0-1.072-1.49c-.45-.095-.851.032-1.195.327-.418.356-.815.737-1.208 1.122-.479.47-.948.95-1.408 1.436-.323.344-.7.61-1.15.766-1.27.434-2.657-.246-3.14-1.425-.057-.143-.053-.171.061-.27.266-.233.537-.462.803-.696.008-.008.016-.012.024-.02.033-.02.058-.07.099-.05.04.021.016.066.02.099a1.359 1.359 0 0 0 1.175 1.277c.65.09 1.302-.307 1.498-.93.233-.736-.155-1.469-.909-1.71-.458-.147-.876-.05-1.24.254-.299.245-.585.503-.876.761-.192.172-.385.348-.581.516a.431.431 0 0 0-.144.25c-.155.79-.597 1.379-1.297 1.768a2.41 2.41 0 0 1-1.441.29 2.515 2.515 0 0 1-1.461-.63 2.45 2.45 0 0 1-.676-.974.141.141 0 0 1 .045-.176c.094-.078.184-.156.279-.233.192-.168.384-.336.58-.5.034-.028.066-.078.107-.061.041.016.025.073.029.114a1.39 1.39 0 0 0 1.089 1.314 1.369 1.369 0 0 0 1.604-.974 1.394 1.394 0 0 0-1.404-1.752 1.247 1.247 0 0 0-.773.299c-.266.221-.528.45-.786.68-.266.233-.528.47-.794.704a.302.302 0 0 0-.11.241v1.777c0 .168-.026.192-.193.188a1.097 1.097 0 0 1-.831-.38c-.082-.095-.099-.095-.21-.034a2.457 2.457 0 0 1-1.297.332c-.95-.033-1.674-.463-2.165-1.277a2.4 2.4 0 0 1-.344-1.273c0-.588.208-1.158.585-1.609.385-.47.876-.778 1.478-.876.802-.127 1.54.02 2.157.581.197.18.368.385.508.61.02.046.055.083.098.107a.204.204 0 0 0 .094-.18c-.004-.406 0-.81 0-1.22 0-.921-.001-1.84-.004-2.76 0-.18.02-.2.205-.2a1.105 1.105 0 0 1 1.097.983c.008.065.012.13.012.196v2.15c.004.097.025.11.115.065.263-.14.548-.232.843-.275.733-.102 1.388.082 1.97.54a2.473 2.473 0 0 1 .531.59c.029.041.053.086.107.094.028.004.11-.102.114-.147.007-.056.01-.112.009-.168V8.65c0-.593.368-1.04.953-1.15a.781.781 0 0 1 .197-.02c.086.004.123.037.143.118.014.065.02.131.016.197v3.025c.009.053.025.07.078.05.07-.03.14-.062.209-.09a2.524 2.524 0 0 1 2.796.605c.239.257.425.56.548.888l.025.074c.04.106.053.11.139.033l1.154-1.02a2.596 2.596 0 0 1 1.142-.605 2.555 2.555 0 0 1 2.96 1.55.233.233 0 0 1-.057.283c-.283.279-.557.561-.84.844a.254.254 0 0 1-.085.061Z" fill="#191C31"/><path d="M20.115 14.601a.101.101 0 0 1-.045.078c-.299.3-.597.598-.892.9a.172.172 0 0 1-.2.046 2.508 2.508 0 0 1-1.495-1.429c-.045-.102-.037-.135.045-.204.29-.254.586-.508.876-.758a.131.131 0 0 1 .07-.04c.029.028.02.065.024.098.015.192.064.38.144.556.192.401.52.63.941.733.09.02.182.029.274.025.082-.009.168-.005.258-.005Z" fill="#191C31"/><path d="M5.85 13.079c.02.728-.602 1.363-1.36 1.371a1.369 1.369 0 0 1-1.375-1.355 1.38 1.38 0 0 1 1.375-1.4c.741-.016 1.363.59 1.36 1.384Z" fill="#FF9C00"/></g><defs><clipPath id="a"><path fill="#fff" d="M0 0h24v24H0z"/></clipPath></defs></svg>