<svg width="24" height="24" viewBox="0 0 24 24" fill="none" xmlns="http://www.w3.org/2000/svg">
<path d="M12 24C18.6274 24 24 18.6274 24 12C24 5.37258 18.6274 0 12 0C5.37258 0 0 5.37258 0 12C0 18.6274 5.37258 24 12 24Z" fill="#00AAFF"/>
<path d="M11.9716 3.70508C7.40558 3.70508 3.70508 7.40558 3.70508 11.9716C3.70508 16.5368 7.40558 20.2388 11.9716 20.2388C16.5368 20.2388 20.2388 16.5368 20.2388 11.9716C20.2388 7.40558 16.5368 3.70508 11.9716 3.70508ZM11.9978 5.01458C12.6593 5.01437 13.311 5.17391 13.8976 5.47963C14.4842 5.78535 14.9883 6.2282 15.367 6.77053C15.7457 7.31285 15.9878 7.93862 16.0728 8.59461C16.1578 9.25059 16.0831 9.9174 15.8551 10.5383C15.4999 10.476 15.1359 10.4858 14.7846 10.5672C14.4333 10.6487 14.1021 10.8 13.8106 11.0123C14.0655 10.7685 14.2684 10.4755 14.4069 10.151C14.5453 9.82655 14.6165 9.47736 14.6161 9.12458C14.6159 8.42963 14.3399 7.76317 13.8487 7.27156C13.3575 6.77995 12.6913 6.50337 11.9963 6.50258C11.3477 6.5031 10.7223 6.74408 10.2411 7.17892C9.75984 7.61377 9.45689 8.21159 9.39083 8.85683C8.89813 8.76881 8.39419 8.76374 7.89983 8.84183C7.97108 7.80346 8.43377 6.83084 9.19443 6.12043C9.95509 5.41003 10.957 5.0148 11.9978 5.01458ZM13.5091 12.7336L12.0556 11.8636C12.0082 11.835 11.9538 11.8201 11.8985 11.8205C11.8432 11.8209 11.789 11.8366 11.7421 11.8658L10.4671 12.6533C10.4172 12.6837 10.3773 12.728 10.3523 12.7808C10.3272 12.8336 10.3181 12.8925 10.3261 12.9503C10.3596 13.1928 10.3419 13.4396 10.274 13.6748C10.2061 13.91 10.0896 14.1284 9.93203 14.3157C9.77446 14.5031 9.57931 14.6552 9.35921 14.7624C9.13912 14.8696 8.89898 14.9293 8.65433 14.9378C8.42078 14.9452 8.18814 14.9055 7.97025 14.8211C7.75236 14.7367 7.55367 14.6093 7.38601 14.4465C7.21836 14.2838 7.08515 14.0889 6.99433 13.8736C6.9035 13.6584 6.85691 13.427 6.85733 13.1933C6.85996 12.7369 7.0406 12.2995 7.36081 11.9743C7.68102 11.649 8.11551 11.4616 8.57183 11.4518C8.82242 11.4476 9.07098 11.4975 9.30048 11.5982C9.52999 11.6989 9.73503 11.848 9.90158 12.0353C9.99458 12.1403 10.1491 12.1628 10.2706 12.0953L11.4991 11.4061C11.5457 11.3797 11.5846 11.3414 11.6117 11.2952C11.6388 11.249 11.6533 11.1964 11.6536 11.1428V11.0678C11.6532 11.0045 11.6329 10.9428 11.5957 10.8915C11.5584 10.8403 11.506 10.802 11.4458 10.7821C11.0463 10.6488 10.7084 10.3755 10.4947 10.0126C10.2809 9.64971 10.2056 9.22173 10.2828 8.80767C10.3599 8.39361 10.5843 8.02144 10.9144 7.75988C11.2445 7.49831 11.6581 7.36501 12.0788 7.38458C12.5037 7.4065 12.906 7.58245 13.2105 7.87951C13.515 8.17657 13.7009 8.5744 13.7333 8.99858C13.7635 9.40512 13.6501 9.80936 13.4128 10.1409C13.1756 10.4724 12.8296 10.7102 12.4351 10.8128C12.3695 10.829 12.3113 10.8665 12.2694 10.9195C12.2276 10.9724 12.2046 11.0378 12.2041 11.1053V11.1181C12.2041 11.2231 12.2596 11.3198 12.3481 11.3753L13.6388 12.1688C13.7009 12.2074 13.775 12.222 13.8471 12.2099C13.9191 12.1977 13.9843 12.1596 14.0303 12.1028C14.1981 11.8935 14.412 11.7256 14.6552 11.6125C14.8985 11.4993 15.1646 11.4438 15.4328 11.4503C15.8953 11.4681 16.3318 11.6689 16.6462 12.0085C16.9606 12.3481 17.1273 12.7987 17.1095 13.2612C17.0917 13.7237 16.8909 14.1601 16.5513 14.4746C16.2117 14.789 15.761 14.9556 15.2986 14.9378C15.063 14.925 14.8325 14.8646 14.6209 14.7603C14.4093 14.6561 14.2209 14.5101 14.0672 14.3311C13.9135 14.1522 13.7975 13.944 13.7264 13.719C13.6552 13.4941 13.6303 13.2571 13.6531 13.0223C13.6591 12.9655 13.6487 12.9081 13.6232 12.8569C13.5977 12.8058 13.5581 12.763 13.5091 12.7336ZM8.59883 17.2583C8.06472 17.2585 7.5358 17.1535 7.0423 16.9492C6.5488 16.7449 6.10038 16.4454 5.72267 16.0678C5.34497 15.6901 5.04537 15.2418 4.84099 14.7483C4.63662 14.2548 4.53148 13.7259 4.53158 13.1918C4.53119 12.5916 4.66369 11.9988 4.91958 11.4559C5.17546 10.9129 5.54837 10.4334 6.01154 10.0517C6.47472 9.66996 7.01666 9.39552 7.59846 9.24806C8.18027 9.10061 8.7875 9.08379 9.37658 9.19883C9.39607 9.88641 9.68543 10.5387 10.1821 11.0146C9.72322 10.6793 9.16939 10.499 8.60108 10.5001C7.89486 10.5119 7.22156 10.8007 6.72631 11.3043C6.23105 11.8079 5.95351 12.4859 5.95351 13.1922C5.95351 13.8985 6.23105 14.5765 6.72631 15.0801C7.22156 15.5837 7.89486 15.8725 8.60108 15.8843C9.13921 15.8843 9.66493 15.7227 10.1102 15.4205C10.5555 15.1183 10.8998 14.6894 11.0986 14.1893C11.2268 14.7488 11.4638 15.2656 11.7833 15.7216C11.403 16.2016 10.9189 16.5892 10.3674 16.8555C9.81588 17.1218 9.21125 17.2597 8.59883 17.2591V17.2583ZM15.3908 17.2583C14.36 17.2583 13.3677 16.8669 12.6143 16.1632C11.861 15.4596 11.4029 14.4962 11.3326 13.4678C11.7904 13.5375 12.2564 13.5347 12.7133 13.4596C12.7619 13.9463 12.9421 14.4107 13.2346 14.8028C13.5272 15.1948 13.921 15.4998 14.3739 15.6848C14.8267 15.8699 15.3214 15.9281 15.8048 15.8532C16.2882 15.7783 16.7421 15.5732 17.1177 15.2597C17.4933 14.9463 17.7764 14.5365 17.9366 14.0743C18.0968 13.6121 18.128 13.1149 18.027 12.6363C17.9259 12.1577 17.6964 11.7156 17.363 11.3576C17.0297 10.9996 16.6051 10.7392 16.1348 10.6043C16.291 10.1687 16.3765 9.71094 16.3883 9.24833C17.3483 9.49296 18.1859 10.0795 18.7442 10.8978C19.3025 11.7161 19.543 12.71 19.4206 13.693C19.2981 14.6761 18.8212 15.5806 18.0793 16.2371C17.3374 16.8935 16.3814 17.2566 15.3908 17.2583Z" fill="white"/>
<path d="M12 2.25C6.61575 2.25 2.25 6.61575 2.25 12C2.25 17.3842 6.61575 21.75 12 21.75C17.3842 21.75 21.75 17.3842 21.75 12C21.75 6.61575 17.3842 2.25 12 2.25ZM11.9715 21.0165C6.9765 21.0165 2.928 16.968 2.928 11.973C2.928 6.978 6.9765 2.93025 11.9715 2.93025C16.9657 2.93025 21.0142 6.97875 21.0142 11.973C21.0142 16.968 16.9657 21.0165 11.9715 21.0165Z" fill="white"/>
</svg>
