<svg width="24" height="24" fill="none" xmlns="http://www.w3.org/2000/svg"><path d="M12 24c6.627 0 12-5.373 12-12S18.627 0 12 0 0 5.373 0 12s5.373 12 12 12Z" fill="#FF0060"/><path d="M18.802 9.035h-6.86a2.907 2.907 0 1 0 2.72 3.918h-2.72a.765.765 0 0 1-.768-.767v-.093a.765.765 0 0 1 .768-.767h4.535c.033.211.049.425.046.639a4.583 4.583 0 1 1-4.582-4.604l.14-.024c.03.014.06.021.094.024h4.07c2.22 0 3.127-1.186 3.127-2.861h-7.43a7.443 7.443 0 1 0 7.442 7.477v-2.35a.582.582 0 0 0-.582-.592Z" fill="#fff"/></svg>