<svg width="24" height="24" fill="none" xmlns="http://www.w3.org/2000/svg"><path d="M12 24c6.627 0 12-5.373 12-12S18.627 0 12 0 0 5.373 0 12s5.373 12 12 12Z" fill="#00843D"/><path d="M12.004 4.2c.296 0 .586.077.842.225l5.37 3.1a1.683 1.683 0 0 1 .841 1.46v6.325c0 .601-.32 1.157-.841 1.458l-5.371 3.101a1.683 1.683 0 0 1-1.684 0L5.79 16.768a1.684 1.684 0 0 1-.843-1.458V8.984c0-.601.321-1.157.843-1.458l5.37-3.1a1.69 1.69 0 0 1 .842-.227h.001l.001.001Zm-.001-1.17c-.501 0-.993.132-1.427.382l-5.371 3.1a2.862 2.862 0 0 0-1.428 2.472v6.325a2.862 2.862 0 0 0 1.428 2.472l5.37 3.1c.883.51 1.971.51 2.854 0l5.37-3.1a2.86 2.86 0 0 0 1.428-2.472V8.984A2.862 2.862 0 0 0 18.8 6.512L13.43 3.41a2.857 2.857 0 0 0-1.428-.382v.001Z" fill="#fff"/><path d="M11.345 13.14a.35.35 0 0 1-.305-.176l-.645-1.12a.351.351 0 0 1 0-.35l.645-1.12a.352.352 0 0 1 .305-.176h1.318a.353.353 0 0 1 .304.176l.646 1.12a.351.351 0 0 1 0 .35l-.646 1.12a.35.35 0 0 1-.304.176h-1.318Zm-1.762-1.763a.353.353 0 0 0 .304-.176l.646-1.12a.35.35 0 0 0 0-.35l-.805-1.396-1.573.858a.351.351 0 0 0-.182.315c.013.629.086 1.254.218 1.869h1.392Zm4.841 0a.35.35 0 0 1-.303-.176l-.647-1.12a.35.35 0 0 1 0-.35l.806-1.396 1.572.858a.351.351 0 0 1 .183.315 9.866 9.866 0 0 1-.218 1.869h-1.393Zm-2.252-4.194a.35.35 0 0 0-.336 0l-1.595.87.8 1.385a.351.351 0 0 0 .304.175h1.318a.35.35 0 0 0 .304-.175l.8-1.384-1.595-.87Zm-3.836 4.779c.301 1.07.782 2.081 1.422 2.99l.776-1.344a.35.35 0 0 0 0-.351l-.647-1.12a.351.351 0 0 0-.303-.175H8.336Zm7.334 0a9.803 9.803 0 0 1-1.42 2.99l-.777-1.344a.35.35 0 0 1 0-.351l.647-1.12a.351.351 0 0 1 .304-.175h1.247-.001Zm-4.325 1.763a.351.351 0 0 0-.305.175l-.9 1.56a9.91 9.91 0 0 0 1.65 1.62.352.352 0 0 0 .43 0 9.901 9.901 0 0 0 1.648-1.62l-.9-1.56a.35.35 0 0 0-.304-.175h-1.32Z" fill="#fff"/></svg>