<svg width="24" height="24" viewBox="0 0 24 24" fill="none" xmlns="http://www.w3.org/2000/svg">
<g clip-path="url(#clip0)">
<path d="M22.4758 1.43262H1.52344V22.385H22.4758V1.43262Z" fill="white"/>
<path d="M8.62494 14.7731H10.8649C11.5055 14.7722 12.1378 14.629 12.7164 14.3541C13.2645 14.0844 13.7539 13.7089 14.1564 13.2493C14.5563 12.7735 14.8662 12.2287 15.0707 11.6417C15.2931 11.0471 15.4066 10.4174 15.4059 9.78263C15.4079 9.16535 15.2862 8.55394 15.0478 7.98453C14.8155 7.40854 14.4884 6.87548 14.0802 6.40739C13.6682 5.93726 13.1688 5.5517 12.6097 5.27215C12.0351 4.97596 11.397 4.82428 10.7507 4.83025H4.85352V19.1464H8.66304L8.62494 14.7731ZM8.62494 8.2893H10.5297C10.7957 8.30625 11.0446 8.42656 11.223 8.62453C11.4958 8.96619 11.6243 9.40091 11.5811 9.83596C11.6272 10.2523 11.5097 10.6703 11.2535 11.0017C11.1779 11.101 11.0813 11.1824 10.9707 11.2404C10.8602 11.2983 10.7382 11.3313 10.6135 11.3369H8.62494V8.2893Z" fill="#2D8EFF"/>
<path d="M0 1.37905V22.621C0 22.9867 0.145292 23.3375 0.403914 23.5961C0.662535 23.8547 1.0133 24 1.37905 24H22.621C22.9867 24 23.3375 23.8547 23.5961 23.5961C23.8547 23.3375 24 22.9867 24 22.621V1.37905C24 1.0133 23.8547 0.662535 23.5961 0.403914C23.3375 0.145292 22.9867 0 22.621 0L1.37905 0C1.0133 0 0.662535 0.145292 0.403914 0.403914C0.145292 0.662535 0 1.0133 0 1.37905H0ZM19.8095 21.1886H4.17524C3.80949 21.1886 3.45873 21.0433 3.2001 20.7847C2.94148 20.526 2.79619 20.1753 2.79619 19.8095V4.17524C2.79619 3.80949 2.94148 3.45873 3.2001 3.2001C3.45873 2.94148 3.80949 2.79619 4.17524 2.79619H19.8095C20.1753 2.79619 20.526 2.94148 20.7847 3.2001C21.0433 3.45873 21.1886 3.80949 21.1886 4.17524V19.8095C21.1846 20.1726 21.0375 20.5195 20.7793 20.7748C20.5211 21.0302 20.1726 21.1734 19.8095 21.1733V21.1886Z" fill="#2D8EFF"/>
<path d="M19.1391 16.457H10.3086V19.1694H19.1391V16.457Z" fill="#2D8EFF"/>
</g>
<defs>
<clipPath id="clip0">
<rect width="24" height="24" fill="white"/>
</clipPath>
</defs>
</svg>
