<svg width="24" height="24" fill="none" xmlns="http://www.w3.org/2000/svg"><path d="M12 24c6.627 0 12-5.373 12-12S18.627 0 12 0 0 5.373 0 12s5.373 12 12 12Z" fill="#1EB5FA"/><path d="M19.804 5.363 17.08 6.571a.504.504 0 0 0-.262.442v9.735a.494.494 0 0 0 .27.443l2.722 1.177a.253.253 0 0 0 .375-.225V5.588a.264.264 0 0 0-.382-.225ZM6.765 6.556l-2.64-1.2a.253.253 0 0 0-.375.225v12.555a.256.256 0 0 0 .39.217l2.655-1.402a.5.5 0 0 0 .24-.428V6.998a.525.525 0 0 0-.27-.442Zm8.28 3.322-2.842-1.627a.5.5 0 0 0-.503 0L8.805 9.863a.513.513 0 0 0-.255.443v3.3c0 .182.098.35.255.442l2.895 1.665c.155.09.347.09.503 0l2.842-1.65a.512.512 0 0 0 .255-.442v-3.3a.504.504 0 0 0-.255-.443Z" fill="#fff"/></svg>