<svg width="24" height="24" fill="none" xmlns="http://www.w3.org/2000/svg"><path d="m1 18.091 10.578 5.91V13.713L1 7.806V18.09Z" fill="#CCC"/><path d="m1 7.805 10.578 5.91 10.577-5.91-10.578-5.909L1 7.806Z" fill="#F2F2F2"/><path d="M11.578 13.714V24l10.577-5.909V7.806l-10.577 5.908Z" fill="#E6E6E6"/><path d="m13.693 12.547-2.116 1.167-2.115-1.167h4.23Z" fill="#686868"/><path d="m11.578 15.83 2.115-3.283-2.115 1.167v2.115Z" fill="#383838"/><path d="m11.577 15.83-2.115-3.283 2.115 1.167v2.115Z" fill="#000"/><path d="M1 0v7.805l8.39.876L1 0ZM22.155 0 14.86 7.514l7.295.291V0Z" fill="#F2F2F2"/><path d="m20.55 3.866-1.897 1.97L20.55 6.93V3.866ZM2.605 4.012 4.429 5.91 2.605 6.93V4.012Z" fill="#383838"/></svg>