<svg width="24" height="24" viewBox="0 0 24 24" fill="none" xmlns="http://www.w3.org/2000/svg">
<path d="M12 24C18.6274 24 24 18.6274 24 12C24 5.37258 18.6274 0 12 0C5.37258 0 0 5.37258 0 12C0 18.6274 5.37258 24 12 24Z" fill="#2B1544"/>
<path d="M18.7426 9.37639V14.3684C18.7426 14.5904 18.7538 14.8169 18.7036 15.0351C18.5899 15.5401 18.3283 15.9997 17.9521 16.3551C17.7751 16.5254 17.5546 16.6356 17.3438 16.7601C15.9136 17.5926 14.4878 18.4274 13.0583 19.2614C12.6218 19.4946 12.1058 19.5344 11.6213 19.4744C11.3683 19.4435 11.1237 19.3635 10.9013 19.2389C9.39609 18.3614 7.89084 17.4816 6.38634 16.6049C6.01884 16.4001 5.74434 16.0626 5.54259 15.6996C5.37759 15.3846 5.25684 15.0381 5.25684 14.6774V9.28789C5.28459 8.76289 5.51709 8.26564 5.84784 7.86889C5.98187 7.70118 6.14403 7.55805 6.32709 7.44589C7.72584 6.63139 9.12459 5.81389 10.5226 4.99639C10.7528 4.86889 10.9711 4.71289 11.2201 4.62739C11.6411 4.4959 12.0882 4.47065 12.5213 4.55389C12.7141 4.60789 12.9106 4.66489 13.0838 4.76689C14.6063 5.66014 16.1311 6.54664 17.6528 7.44064C18.0586 7.68064 18.3563 8.08189 18.5498 8.51014C18.6721 8.78014 18.7426 9.07789 18.7426 9.37639ZM11.9551 7.51939C11.632 7.99833 11.2581 8.44091 10.8398 8.83939C10.6208 9.04714 10.4101 9.27139 10.2848 9.54964C10.1843 9.74614 10.1168 9.96964 10.1453 10.1946C10.1791 10.4976 10.3951 10.7646 10.6756 10.8726C10.9606 10.9866 11.2831 10.9611 11.5666 10.8501C11.6176 10.8274 11.674 10.8196 11.7293 10.8276C11.6738 11.1831 11.4578 11.4831 11.2868 11.7899L11.2943 11.8409C11.4488 12.0059 11.6116 12.1619 11.7653 12.3239C11.8043 12.3606 11.8403 12.4116 11.8943 12.4289C12.0736 12.2901 12.2138 12.1079 12.3788 11.9549C12.4156 11.9129 12.4913 11.8671 12.4516 11.8019C12.2918 11.5019 12.1148 11.1981 12.0646 10.8516C12.0946 10.7811 12.1793 10.8404 12.2296 10.8576C12.4958 10.9881 12.8176 11.0076 13.0958 10.9004C13.4746 10.7556 13.7101 10.3124 13.6253 9.91189C13.5608 9.55189 13.3703 9.22189 13.1123 8.96989C12.7148 8.56114 12.3331 8.12464 12.0616 7.61914C12.052 7.59587 12.0375 7.57493 12.0191 7.55772C12.0008 7.54052 11.9789 7.52745 11.9551 7.51939ZM9.23034 12.4019C8.78034 12.6464 8.47959 13.1256 8.40534 13.6349C8.30259 14.3496 8.72034 15.0966 9.36759 15.3891C9.77709 15.5654 10.2526 15.5616 10.6651 15.4004C10.8781 15.3149 11.0603 15.1754 11.2171 15.0111C11.2763 14.9481 11.3626 14.8919 11.3626 14.7951C11.3551 14.6984 11.2681 14.6451 11.2118 14.5791C11.1383 14.5139 11.0798 14.4291 10.9958 14.3774C10.8608 14.3181 10.7798 14.4659 10.6928 14.5394C10.3516 14.8859 9.73734 14.8889 9.38784 14.5506C9.27522 14.4447 9.19044 14.3126 9.141 14.1661C9.09155 14.0196 9.07896 13.8632 9.10434 13.7106C9.14634 13.4234 9.31734 13.1511 9.57234 13.0146C9.73734 12.9321 9.92259 12.8871 10.1048 12.8954C10.3621 12.9119 10.5976 13.0484 10.7716 13.2359C11.3656 13.8269 11.9371 14.4396 12.5288 15.0329C12.8423 15.3426 13.2766 15.5414 13.7191 15.5241C14.0566 15.5316 14.3813 15.3966 14.6558 15.2061C15.0601 14.9249 15.3061 14.4366 15.3308 13.9431C15.3848 13.1616 14.8186 12.3734 14.0558 12.2226C13.5691 12.1236 13.0193 12.2256 12.6443 12.5721C12.3773 12.8151 12.1343 13.0881 11.8703 13.3379C11.5981 13.1136 11.3828 12.8301 11.1166 12.6006C11.0029 12.4928 10.8708 12.4062 10.7266 12.3449C10.6996 12.3276 10.6906 12.3194 10.6546 12.3051C10.4263 12.2081 10.1784 12.1663 9.93089 12.1832C9.68342 12.2 9.44341 12.2749 9.23034 12.4019ZM13.0081 13.1909C13.2023 12.9974 13.4768 12.8841 13.7506 12.9066C14.0476 12.9149 14.3356 13.0739 14.4931 13.3296C14.7391 13.7046 14.6671 14.2439 14.3506 14.5529C14.0251 14.8686 13.4671 14.9084 13.1168 14.6099C12.8566 14.3886 12.6383 14.1246 12.3893 13.8921C12.3863 13.8756 12.3833 13.8441 12.3803 13.8299C12.5881 13.6139 12.8003 13.4069 13.0081 13.1909Z" fill="white"/>
</svg>
