<svg width="24" height="24" viewBox="0 0 24 24" fill="none" xmlns="http://www.w3.org/2000/svg">
<path fill-rule="evenodd" clip-rule="evenodd" d="M19.3373 7.88686C19.162 8.0238 18.9383 8.17948 18.6797 8.34767L18.702 8.36111L23.4223 16.2875V7.00186C23.4223 6.01042 23.1976 5.07086 22.7958 4.23242C22.7958 4.23242 20.3279 7.11192 19.3373 7.88686Z" fill="#560B74"/>
<path fill-rule="evenodd" clip-rule="evenodd" d="M5.89 8.60009L12.0893 5.02078L12.5224 5.27134L18.285 8.59828C18.4237 8.51241 18.5553 8.42916 18.6797 8.34772L12.0893 4.54297L5.47656 8.36116V15.9895C5.61525 15.8643 5.75394 15.7435 5.89 15.6271V8.60009Z" fill="#763C90"/>
<path fill-rule="evenodd" clip-rule="evenodd" d="M18.285 8.59822L18.2886 8.60003V15.7577L12.0893 19.337L5.89 15.7577V15.627C5.75394 15.7434 5.61525 15.8642 5.47656 15.9895V15.9966L12.0893 19.8148L18.702 15.9966V8.36109L18.6797 8.34766C18.5553 8.42909 18.4238 8.51234 18.285 8.59822Z" fill="#602278"/>
<path fill-rule="evenodd" clip-rule="evenodd" d="M14.9481 10.4816L17.7435 15.3163C17.766 15.3549 17.7373 15.4031 17.6926 15.4031H6.50015C6.4554 15.4031 6.42765 15.3549 6.45002 15.3163L6.5959 15.064L12.0391 5.62458C12.0615 5.58608 12.117 5.58608 12.1393 5.62458L14.9481 10.4816ZM11.4386 5.66927L6.12608 14.8698C6.01065 15.0703 5.99902 15.2904 6.06346 15.4819C6.16008 15.771 6.4294 15.9964 6.77665 15.9964H17.4018C17.8402 15.9964 18.1543 15.6367 18.1543 15.2439C18.1543 15.1195 18.1221 14.9906 18.0523 14.8698L12.7397 5.66927C12.6673 5.54402 12.5688 5.45008 12.4551 5.38739C12.116 5.19952 11.6552 5.29346 11.4386 5.66927Z" fill="#743E89"/>
<path fill-rule="evenodd" clip-rule="evenodd" d="M23.4223 16.9977V16.2872L18.702 8.36084V15.9963L12.0893 19.8146L5.47656 15.9963L9.82988 23.4216H16.9974C20.5454 23.4216 23.4223 20.5457 23.4223 16.9977Z" fill="#753F8A"/>
<path fill-rule="evenodd" clip-rule="evenodd" d="M5.47627 15.9896V8.36125L12.089 4.54306L18.6794 8.34781C18.938 8.17963 19.1617 8.02394 19.337 7.887C20.3276 7.11206 22.7955 4.23256 22.7955 4.23256C21.7611 2.07069 19.5536 0.578125 16.9971 0.578125H7.00196C3.45396 0.578125 0.577148 3.45406 0.577148 7.002V16.9981C0.577148 18.1712 0.891211 19.2709 1.44065 20.2168C1.44065 20.2168 3.52734 17.739 5.47627 15.9896Z" fill="#662083"/>
<path fill-rule="evenodd" clip-rule="evenodd" d="M18.0522 14.87C18.122 14.9908 18.1542 15.1196 18.1542 15.244H18.2884V8.59996L18.2848 8.59814C17.45 9.11539 16.3762 9.71489 15.3838 10.2491L18.0522 14.87Z" fill="#50056E"/>
<path fill-rule="evenodd" clip-rule="evenodd" d="M23.4225 16.9981C23.4225 20.546 20.5456 23.422 16.9976 23.422H9.83008L10.1656 23.9938H17.2481C20.9733 23.9938 23.9942 20.9737 23.9942 17.2477L23.4225 16.2876V16.9981Z" fill="#7E4498"/>
<path fill-rule="evenodd" clip-rule="evenodd" d="M12.0389 5.62458L6.5957 15.064C6.84352 14.8797 7.0807 14.7222 7.3017 14.5978C8.60189 13.8668 12.5364 11.7344 12.5364 11.7344C12.5364 11.7344 13.6201 11.1895 14.948 10.4816L12.1391 5.62458C12.1168 5.58608 12.0613 5.58608 12.0389 5.62458Z" fill="#5E187B"/>
<path fill-rule="evenodd" clip-rule="evenodd" d="M12.4551 5.38731C12.5687 5.45 12.6672 5.54393 12.7396 5.66918L15.3838 10.2489C16.3762 9.71468 17.45 9.11518 18.2848 8.59793L12.5222 5.271L12.4551 5.38731Z" fill="#60187C"/>
<path fill-rule="evenodd" clip-rule="evenodd" d="M7.30216 14.5981C7.08116 14.7225 6.84398 14.88 6.59616 15.0643L6.45029 15.3166C6.42792 15.3552 6.45566 15.4034 6.50041 15.4034H17.6929C17.7376 15.4034 17.7662 15.3552 17.7438 15.3166L14.9484 10.4819C13.6205 11.1897 12.5369 11.7347 12.5369 11.7347C12.5369 11.7347 8.60235 13.8671 7.30216 14.5981Z" fill="#4D026B"/>
<path fill-rule="evenodd" clip-rule="evenodd" d="M17.4015 15.9966H6.7764C6.42915 15.9966 6.15984 15.7712 6.06321 15.4821C6.00596 15.5296 5.94777 15.5779 5.88965 15.6271V15.7578L12.089 19.3371L18.2883 15.7578V15.2441H18.1541C18.1541 15.637 17.84 15.9966 17.4015 15.9966Z" fill="#4B0069"/>
<path fill-rule="evenodd" clip-rule="evenodd" d="M6.12584 14.8698L11.4384 5.66926C11.655 5.29345 12.1158 5.19951 12.4549 5.38738L12.522 5.27107L12.089 5.02051L5.88965 8.59982V15.6268C5.94777 15.5776 6.00596 15.5293 6.06321 15.4819C5.99877 15.2904 6.0104 15.0703 6.12584 14.8698Z" fill="#5E167A"/>
<path fill-rule="evenodd" clip-rule="evenodd" d="M5.47703 15.9893C3.52809 17.7386 1.44141 20.2164 1.44141 20.2164C2.55366 22.1331 4.62784 23.4216 7.00272 23.4216H9.83034L5.47703 15.9964V15.9893Z" fill="#4B0069"/>
<path fill-rule="evenodd" clip-rule="evenodd" d="M17.2482 0.00634766H6.75192C3.0268 0.00634766 0.00585938 3.02635 0.00585938 6.75241V17.2478C0.00585938 20.9738 3.0268 23.9938 6.75192 23.9938H10.1657L9.83011 23.422H7.00248C4.62761 23.422 2.55342 22.1335 1.44117 20.2168C0.891734 19.271 0.577672 18.1712 0.577672 16.9982V7.00203C0.577672 3.4541 3.45448 0.57816 7.00248 0.57816H16.9976C19.5541 0.57816 21.7617 2.07072 22.796 4.2326C23.1979 5.07103 23.4225 6.0106 23.4225 7.00203V16.2877L23.9942 17.2478V6.75241C23.9942 3.02635 20.9733 0.00634766 17.2482 0.00634766Z" fill="#500071"/>
</svg>
