<svg width="24" height="24" fill="none" xmlns="http://www.w3.org/2000/svg"><g clip-path="url(#a)"><path d="M20.738 19.937a.885.885 0 0 1-.89.846H6.815a.893.893 0 0 1-.889-.893v-.296c.048-.475.192-.936.423-1.354.635-1.185 1.82-2.031 3.513-2.624l5.205-1.735a7.122 7.122 0 0 0 2.201-1.312 6.263 6.263 0 0 0 2.243-4.74l.381.254a1.951 1.951 0 0 1 .847 1.566v10.288ZM16.294 7.791a3.046 3.046 0 0 1-1.016 2.328c-.357.309-.755.565-1.185.761l-5.205 1.736c-3.09 1.015-4.613 2.793-5.333 4.105-.13.245-.243.5-.338.761 0 .043-.043.043-.043.085V9.695a1.998 1.998 0 0 1 .847-1.565l7.11-4.656a1.562 1.562 0 0 1 1.65 0l3.513 2.328V7.79Zm7.66 11.977V9.695a5.223 5.223 0 0 0-2.285-4.232l-2.117-1.396V.893A.893.893 0 0 0 18.664 0h-1.397a.867.867 0 0 0-.889.889v1.058L14.601.762a4.807 4.807 0 0 0-5.205 0l-7.11 4.655A5.108 5.108 0 0 0 0 9.649V19.72a4.186 4.186 0 0 0 .678 2.455c.351.55.85.989 1.438 1.27a5.832 5.832 0 0 0 2.116.55h15.532a4.972 4.972 0 0 0 2.116-.55 3.61 3.61 0 0 0 1.481-1.27c.414-.735.619-1.57.593-2.412" fill="#38A6FA"/></g><defs><clipPath id="a"><path fill="#fff" d="M0 0h24v24H0z"/></clipPath></defs></svg>