<svg width="24" height="24" fill="none" xmlns="http://www.w3.org/2000/svg"><path fill-rule="evenodd" clip-rule="evenodd" d="M18.568 9.134a.477.477 0 1 1-.955.001.477.477 0 0 1 .955 0ZM18.12 8.12a1.044 1.044 0 1 0 1.044 1.045 1.047 1.047 0 0 0-1.044-1.045Zm-1.345 9.154a.552.552 0 0 0-.74-.817A5.954 5.954 0 0 1 12.025 18a5.978 5.978 0 0 1-5.97-5.972 5.978 5.978 0 0 1 5.97-5.973 5.954 5.954 0 0 1 4.008 1.546.551.551 0 1 0 .74-.816 7.051 7.051 0 0 0-4.746-1.831c-3.9 0-7.072 3.174-7.072 7.075 0 3.901 3.172 7.074 7.07 7.074a7.058 7.058 0 0 0 4.749-1.831ZM12.03 1.134c-6.008 0-10.896 4.888-10.896 10.896 0 6.008 4.888 10.896 10.896 10.896 6.008 0 10.896-4.888 10.896-10.896 0-6.008-4.888-10.896-10.896-10.896ZM12 24C5.383 24 0 18.617 0 12S5.383 0 12 0s12 5.383 12 12-5.383 12-12 12Z" fill="#4054A8"/></svg>