<svg width="24" height="24" viewBox="0 0 24 24" fill="none" xmlns="http://www.w3.org/2000/svg">
<path d="M1 18.0914L11.5775 24.0002V13.7145L1 7.80566V18.0914Z" fill="#CCCCCC"/>
<path d="M1 7.8053L11.5775 13.7141L22.155 7.8053L11.5775 1.89648L1 7.8053Z" fill="#F2F2F2"/>
<path d="M11.5776 13.7145V24.0002L22.1551 18.0914V7.80566L11.5776 13.7145Z" fill="#E6E6E6"/>
<path d="M13.6929 12.5469L11.5774 13.714L9.46191 12.5469H13.6929Z" fill="#686868"/>
<path d="M11.5776 15.8295L13.6931 12.5469L11.5776 13.714V15.8295Z" fill="#383838"/>
<path d="M11.5774 15.8295L9.46191 12.5469L11.5774 13.714V15.8295Z" fill="black"/>
<path d="M1 0V7.80547L9.38906 8.68085L1 0Z" fill="#F2F2F2"/>
<path d="M22.1552 0L14.8604 7.51368L22.1552 7.80547V0Z" fill="#F2F2F2"/>
<path d="M20.55 3.86621L18.6533 5.83582L20.55 6.93004V3.86621Z" fill="#383838"/>
<path d="M2.60498 4.01221L4.42869 5.90886L2.60498 6.93014V4.01221Z" fill="#383838"/>
</svg>
