<svg width="24" height="24" viewBox="0 0 24 24" fill="none" xmlns="http://www.w3.org/2000/svg">
<path d="M12.0004 10.8679C15.0015 10.8679 17.4343 8.43506 17.4343 5.43396C17.4343 2.43287 15.0015 0 12.0004 0C8.99927 0 6.56641 2.43287 6.56641 5.43396C6.56641 8.43506 8.99927 10.8679 12.0004 10.8679Z" fill="#88BDF3"/>
<path d="M12.0004 23.9998C15.0015 23.9998 17.4343 21.5669 17.4343 18.5658C17.4343 15.5647 15.0015 13.1318 12.0004 13.1318C8.99927 13.1318 6.56641 15.5647 6.56641 18.5658C6.56641 21.5669 8.99927 23.9998 12.0004 23.9998Z" fill="#3075EE"/>
<path d="M18.5658 17.4338C21.5669 17.4338 23.9998 15.001 23.9998 11.9999C23.9998 8.99879 21.5669 6.56592 18.5658 6.56592C15.5647 6.56592 13.1318 8.99879 13.1318 11.9999C13.1318 15.001 15.5647 17.4338 18.5658 17.4338Z" fill="#5795F1"/>
<path d="M5.43396 17.4338C8.43506 17.4338 10.8679 15.001 10.8679 11.9999C10.8679 8.99879 8.43506 6.56592 5.43396 6.56592C2.43287 6.56592 0 8.99879 0 11.9999C0 15.001 2.43287 17.4338 5.43396 17.4338Z" fill="#205FEC"/>
<path d="M10.7208 10.7208C9.75228 10.4853 8.86716 9.98794 8.16233 9.28312C7.4575 8.57829 6.96012 7.69317 6.72461 6.72461C7.69145 6.9637 8.57466 7.46228 9.27891 8.16653C9.98317 8.87079 10.4817 9.75399 10.7208 10.7208Z" fill="#134BEF"/>
<path d="M6.71289 17.2868C6.9484 16.3182 7.44578 15.4331 8.15061 14.7283C8.85544 14.0234 9.74055 13.526 10.7091 13.2905C10.47 14.2574 9.97145 15.1406 9.26719 15.8448C8.56293 16.5491 7.67973 17.0477 6.71289 17.2868Z" fill="#0932E8"/>
<path d="M13.2793 13.2793C14.2479 13.5148 15.133 14.0122 15.8378 14.717C16.5426 15.4218 17.04 16.307 17.2755 17.2755C16.3087 17.0364 15.4255 16.5379 14.7212 15.8336C14.017 15.1293 13.5184 14.2461 13.2793 13.2793Z" fill="#164BEA"/>
<path d="M17.2872 6.71338C17.0517 7.68193 16.5544 8.56705 15.8495 9.27188C15.1447 9.97671 14.2596 10.4741 13.291 10.7096C13.5301 9.74275 14.0287 8.85956 14.7329 8.1553C15.4372 7.45104 16.3204 6.95247 17.2872 6.71338Z" fill="#3170F1"/>
</svg>
