<svg width="24" height="24" fill="none" xmlns="http://www.w3.org/2000/svg"><path fill-rule="evenodd" clip-rule="evenodd" d="M24 12c0 6.627-5.373 12-12 12S0 18.627 0 12 5.373 0 12 0s12 5.373 12 12Z" fill="#127A51"/><path fill-rule="evenodd" clip-rule="evenodd" d="M6.83 13.456a.503.503 0 1 1 1.006 0 .503.503 0 0 1-1.005 0Zm-3.41-.414a.503.503 0 1 1 1.005.001.503.503 0 0 1-1.006-.001Zm1.11-2.276.02-.018.002.001c-.007.007-.015.012-.022.017Zm-1.11-.7a.503.503 0 1 1 1.005 0 .503.503 0 0 1-1.006 0ZM5.861 8.69a.503.503 0 1 1 1.005.001.503.503 0 0 1-1.005-.001Zm1.976-2.314a.503.503 0 1 1 1.006.002.503.503 0 0 1-1.006-.002Zm.842.86a.926.926 0 0 0-.34-1.785.926.926 0 0 0-.084 1.846v4.92l-1.68-1.71v-.917a.926.926 0 0 0 .713-.9.926.926 0 0 0-1.85 0c0 .437.305.804.713.9v1.091l.606.615h-1.32a45.706 45.706 0 0 0-.404-.406 15.086 15.086 0 0 0-.33-.32l-.006-.005a.926.926 0 1 0-1.702-.5.926.926 0 0 0 1.398.794c.167.154.504.489.803.796l.063.064h1.914l3.753 3.814v1.183l-2.821-2.754a.926.926 0 1 0-1.698-.507.926.926 0 0 0 1.39.798l1.332 1.3H6.706L4.687 13.56a.926.926 0 1 0-1.691-.518.926.926 0 0 0 1.38.805l2.157 2.13h3.03l1.364 1.33v.92l-.024-.024-1.858 1.798.294.304 1.588-1.536v1.833h.423v-5.241l-2.67-2.713v-5.41Z" fill="#FFFFFE"/><path fill-rule="evenodd" clip-rule="evenodd" d="M9.402 8.691a.503.503 0 1 1 1.006.001.503.503 0 0 1-1.006 0Zm1.373-3.155a.503.503 0 1 1 1.006 0 .503.503 0 0 1-1.006 0Zm1.922 2.494a.503.503 0 1 1 1.005.001.503.503 0 0 1-1.005 0Zm1.48-3.707a.503.503 0 1 1 1.006.001.503.503 0 0 1-1.006 0Zm.159 8.111a.503.503 0 1 1 1.005.001.503.503 0 0 1-1.005-.001Zm.713 1.635v-.735a.926.926 0 0 0 .714-.9.926.926 0 0 0-1.85 0c0 .437.305.804.713.9v.554l-2.22 2.122v-1.347l1.004-1.003v-2.062l1.48-1.443V5.223a.926.926 0 0 0 .714-.9.926.926 0 0 0-1.85 0c0 .437.305.804.714.9v4.754l-1.058 1.03V8.93a.926.926 0 0 0 .714-.9.926.926 0 0 0-1.85 0c0 .438.305.804.713.9v4.555l-.58.58V11.13l-.918-.899V6.436a.926.926 0 0 0 .713-.9.926.926 0 0 0-1.85 0c0 .437.305.804.714.9v3.972l.917.899v2.524l-1.867-1.88V9.59a.926.926 0 0 0-.211-1.825.926.926 0 0 0-.212 1.825v2.534l2.29 2.306v6.171h.423v-4.006l2.643-2.527Z" fill="#FFFFFE"/><path fill-rule="evenodd" clip-rule="evenodd" d="M17.526 7.737a.503.503 0 1 1 1.006 0 .503.503 0 0 1-1.006 0Zm2.081 4.908a.503.503 0 1 1 0 1.006.503.503 0 0 1 0-1.006Zm-3.614-2.58a.503.503 0 1 1 1.006.002.503.503 0 0 1-1.006-.001Zm3.583-1.48a.503.503 0 1 1 1.006.001.503.503 0 0 1-1.006 0Zm-1.336 3.408 2.05-2.026v-.482a.926.926 0 0 0 .714-.9.926.926 0 0 0-1.85 0c0 .438.305.804.713.9v.305L18.24 11.4V8.637a.926.926 0 0 0-.212-1.825.926.926 0 0 0-.212 1.825v4.211l-1.111 1.108c-.005-1.117-.009-2.51-.004-2.99a.926.926 0 0 0-.206-1.826.926.926 0 0 0-.216 1.824c-.008.64 0 2.504.005 3.38h.03l-3.22 3.21v3.048h.423v-1.756l1.546 1.46.29-.307-1.836-1.735v-.534l1.627-1.622H17.2l2.078-2.097a.926.926 0 1 0 .33-1.789.926.926 0 0 0-.926.926.92.92 0 0 0 .241.62l-1.9 1.917h-1.455l2.672-2.661v-1.03Z" fill="#FFFFFE"/></svg>