<svg width="24" height="24" fill="none" xmlns="http://www.w3.org/2000/svg"><path fill-rule="evenodd" clip-rule="evenodd" d="m20.837 7.829-1.49-2.65 2.889.002c.077 0 .168.051.209.12.046.076.28.463.563.927.338.556.74 1.222.972 1.6h-3.143Zm-5.344 16.046c-.07.125-.161.125-.191.125h-1.181l-1.775-.001 4.59-8.243a.441.441 0 0 0-.383-.657l-7.824.01-1.557-2.694h11.404l.019-.002a.428.428 0 0 0 .13-.027l.03-.012a.435.435 0 0 0 .209-.19l1.878-3.473h3.102l-8.451 15.164Zm-3.91-.314-.371-.61a603.829 603.829 0 0 0-1.152-1.897c-.023-.037-.033-.127.015-.215l2.695-4.853 3.034-.003-4.221 7.578Zm-5.174-5.157-1.508-2.68 1.52-2.85 1.524 2.64c-.473.893-1.213 2.284-1.536 2.89Zm-2.024.417H2.742a.268.268 0 0 1-.207-.121l-.49-.809L1 16.171h3.141l1.492 2.65H4.385ZM9.486.126C9.556 0 9.646 0 9.676 0h2.967L8.04 8.242l-.01.022A.474.474 0 0 0 8 8.35c-.004.015-.008.027-.01.04a.343.343 0 0 0-.004.05c0 .007-.003.014-.003.022l.003.016c0 .016.002.032.004.048a.567.567 0 0 0 .054.159c.007.011.014.024.023.035a.706.706 0 0 0 .056.064c.01.01.021.018.033.027a.755.755 0 0 0 .051.037c.005.003.01.003.016.007a.42.42 0 0 0 .072.028l.026.008a.41.41 0 0 0 .1.013h.2l7.628-.01c.202.35.579 1.01.9 1.573.245.432.45.788.61 1.068H6.408l-.015.002a.439.439 0 0 0-.381.231l-1.88 3.523H1.036C2.388 12.86 9.396.287 9.486.126Zm3.916.323.275.454a962.67 962.67 0 0 0 1.24 2.043c.023.037.033.127-.015.215L12.21 8.01l-3.033.004L13.402.449Zm5.166 5.145 1.509 2.68-1.539 2.844-.625-1.094c-.422-.74-.73-1.278-.904-1.58.33-.6 1.196-2.188 1.56-2.85Z" fill="#000"/></svg>