<svg width="24" height="24" fill="none" xmlns="http://www.w3.org/2000/svg"><path fill-rule="evenodd" clip-rule="evenodd" d="M16.717 8.475a5.523 5.523 0 0 1 2.079-.287l.056.008h5.098V5.778h-4.967a7.848 7.848 0 0 0-2.931.371 7.03 7.03 0 0 0-4.009 3.262 14.432 14.432 0 0 1 1.454 2.659c.085-.201.168-.407.248-.616.574-1.499 1.573-2.5 2.972-2.979ZM10.827 12.07c-.813 1.567-1.823 2.71-2.969 3.345-1.02.566-1.808.55-1.918.546l-.036-.006H2.518v2.41h-.059v.007h3.318c.052.003.124.006.214.006.504 0 1.575-.091 2.835-.74.944-.485 1.813-1.189 2.584-2.092.219-.256.43-.529.632-.818a8.47 8.47 0 0 1-.555-1.178 14.38 14.38 0 0 0-.66-1.48Z" fill="#1BB168"/><path fill-rule="evenodd" clip-rule="evenodd" d="M11.41 8.593c-.77-.902-1.64-1.606-2.584-2.092-1.485-.764-2.707-.755-3.048-.734h-3.26v-.002H.051v12.6h2.467V8.185h3.304l.043.004.074-.01c.105-.005.896-.022 1.92.545 1.145.636 2.156 1.779 2.968 3.346.238.458.458.951.66 1.48.165.43.352.822.556 1.178a7.03 7.03 0 0 0 4.008 3.262 8.08 8.08 0 0 0 2.452.39c.22 0 .385-.01.48-.019h4.967v-2.417h-5.091l-.067.008a5.53 5.53 0 0 1-1.996-.261c-1.44-.467-2.467-1.478-3.051-3.005a18.09 18.09 0 0 0-.249-.616 14.425 14.425 0 0 0-1.453-2.659 11.02 11.02 0 0 0-.633-.818Z" fill="#008A6E"/></svg>