<svg width="24" height="24" fill="none" xmlns="http://www.w3.org/2000/svg"><g clip-path="url(#a)" fill="#008DE4"><path d="M15.719 2H6.982l-.725 4.048 7.886.01c3.885 0 5.03 1.411 4.998 3.749-.02 1.197-.538 3.225-.762 3.884-.599 1.753-1.828 3.75-6.438 3.745l-7.666-.005-.722 4.053h8.718c3.076 0 4.38-.36 5.769-.996 3.071-1.425 4.899-4.454 5.633-8.41C24.76 6.189 23.403 2 15.719 2Z"/><path d="M3.212 9.709c-2.291 0-2.618 1.49-2.833 2.393C.093 13.28 0 13.762 0 13.762h8.947c2.291 0 2.618-1.492 2.833-2.394.285-1.178.379-1.66.379-1.66H3.212Z"/></g><defs><clipPath id="a"><path fill="#fff" d="M0 0h24v24H0z"/></clipPath></defs></svg>