<svg width="24" height="24" fill="none" xmlns="http://www.w3.org/2000/svg"><path d="M12 24c6.627 0 12-5.373 12-12S18.627 0 12 0 0 5.373 0 12s5.373 12 12 12Z" fill="#152743"/><path d="M12.037 6.237c-.987 0-1.787-.55-1.787-1.229 0-.678.8-1.228 1.787-1.228.987 0 1.787.55 1.787 1.228 0 .679-.8 1.229-1.787 1.229Zm-.925 13.713V6.828h3.984c.148 0 .252.11.252.258v7.28c0 .148-.105.274-.252.274H12.9v5.31c0 .148-.112.282-.26.282h-1.25a.288.288 0 0 1-.278-.281v-.001Zm-.672-5.311H8.933a.284.284 0 0 1-.28-.273v-7.28c0-.148.132-.258.28-.258h1.507v7.812-.001Z" fill="#fff"/></svg>