<svg width="24" height="24" fill="none" xmlns="http://www.w3.org/2000/svg"><path fill-rule="evenodd" clip-rule="evenodd" d="M24 12c0 6.627-5.373 12-12 12S0 18.627 0 12 5.373 0 12 0s12 5.373 12 12Z" fill="#000"/><path fill-rule="evenodd" clip-rule="evenodd" d="M4.873 9.363h.704v3.143c0 .555.1.954.301 1.197.201.244.527.366.977.366.449 0 .773-.122.974-.366.201-.243.302-.642.302-1.197V9.363h.703v3.23c0 .674-.167 1.184-.5 1.528-.334.344-.827.516-1.479.516-.654 0-1.147-.172-1.481-.516-.334-.344-.5-.854-.5-1.528v-3.23ZM10.148 9.363h.942l2.294 4.328V9.363h.68v5.174h-.943l-2.294-4.329v4.329h-.68V9.363ZM16.157 12.066v1.896h1.123c.377 0 .655-.078.837-.234.181-.156.272-.395.272-.716 0-.323-.09-.562-.272-.716-.181-.153-.46-.23-.837-.23h-1.123Zm0-2.128v1.56h1.036c.342 0 .597-.064.764-.193.168-.128.252-.324.252-.587 0-.261-.084-.456-.252-.586-.167-.13-.422-.194-.764-.194h-1.036Zm-.7-.575h1.788c.534 0 .945.11 1.234.332.289.222.433.538.433.947 0 .316-.074.568-.221.755-.148.187-.366.304-.652.35.344.074.612.228.802.463.19.234.286.527.286.878 0 .463-.157.82-.471 1.071-.314.252-.762.378-1.341.378h-1.858V9.363Z" fill="#BEF400"/></svg>