<svg width="24" height="24" fill="none" xmlns="http://www.w3.org/2000/svg"><path fill-rule="evenodd" clip-rule="evenodd" d="M11.986 20.838c-4.882 0-8.853-3.971-8.853-8.852a8.798 8.798 0 0 1 1.761-5.294 8.922 8.922 0 0 1 1.464-1.535 8.812 8.812 0 0 1 5.628-2.024 8.812 8.812 0 0 1 6.405 2.748 8.989 8.989 0 0 1 1.05 1.337 8.797 8.797 0 0 1 1.396 4.768c.001 4.88-3.97 8.852-8.851 8.852Zm0-20.838C5.376 0 0 5.377 0 11.986 0 18.594 5.377 23.97 11.986 23.97c6.608 0 11.985-5.377 11.985-11.985C23.971 5.376 18.594 0 11.986 0Z" fill="#1E4691"/><path fill-rule="evenodd" clip-rule="evenodd" d="M5.04 1.108H.99v4.08s.806-1.289 1.744-2.227C3.862 1.833 5.04 1.108 5.04 1.108ZM21.01 2.734a14.18 14.18 0 0 1 1.853 2.306V.99h-4.079s1.288.806 2.227 1.744ZM2.96 21.237c-1.127-1.128-1.852-2.305-1.852-2.305v4.05h4.08s-1.289-.806-2.227-1.745ZM18.932 22.863h4.05v-4.08s-.806 1.289-1.745 2.227c-1.128 1.128-2.305 1.853-2.305 1.853Z" fill="#1E4691"/></svg>