<svg width="24" height="24" fill="none" xmlns="http://www.w3.org/2000/svg"><g clip-path="url(#a)"><path d="M23.55 11.231h-.027l-.855-4.129a.371.371 0 0 0-.127-.719.36.36 0 0 0-.186.052L18.99 2.457a.366.366 0 1 0-.578-.433L15.028.491a.36.36 0 0 0-.078-.368.371.371 0 0 0-.638.192h-2.058a.396.396 0 0 0-.51 0H9.682a.37.37 0 1 0-.73.117c.002.02.007.04.013.06L5.587 2.023a.366.366 0 1 0-.578.433l-3.38 3.967a.36.36 0 0 0-.423.035.371.371 0 0 0 .111.632l-.84 4.143H.45a.47.47 0 0 0 0 .94h.027l.845 4.133a.37.37 0 0 0 .126.72c.066-.001.13-.02.187-.053L5.01 20.95a.366.366 0 1 0 .578.433l3.381 1.534a.371.371 0 1 0 .717.176h2.058a.398.398 0 0 0 .51 0h2.058a.371.371 0 0 0 .737-.06c0-.04-.008-.079-.02-.117l3.384-1.537a.366.366 0 1 0 .578-.432l3.367-3.957a.376.376 0 0 0 .187.053.37.37 0 0 0 .126-.72l.854-4.155h.027a.47.47 0 0 0 0-.94l-.002.003Zm-1.038-4.106.378 3.044-1.204-2.527a.445.445 0 0 0 .151-.509l.39-.18a.374.374 0 0 0 .285.172Zm-1.65 7.906-.081-3.042a.29.29 0 0 0 .255-.206h.608c0 .015.006.03.01.045a.66.66 0 0 0 .016.05v.01a.46.46 0 0 0 .26.259l-.316 2.162-.573 1.046-.178-.324Zm-17.914.322-.573-1.046-.313-2.162a.46.46 0 0 0 .288-.364h.62a.378.378 0 0 0 .03.053.29.29 0 0 0 .215.15l-.082 3.045-.185.324Zm.024.252V15.6v.005Zm.164-7.233.082 3.044a.286.286 0 0 0-.216.15.304.304 0 0 0-.03.054h-.616a.458.458 0 0 0-.288-.364l.316-2.165.573-1.046.179.327Zm17.912-.322.573 1.045.316 2.163a.454.454 0 0 0-.26.258v.01a.452.452 0 0 0-.027.095h-.602a.288.288 0 0 0-.256-.205l.082-3.042.174-.324Zm-.024-.253h.004v.006l-.004-.006Zm.082.15.137-.24a.47.47 0 0 0 .164.032h.014l.157 1.065-.472-.857Zm1.685 3.686h-.22a.466.466 0 0 0-.287-.359.447.447 0 0 0-.184-.04h-.025l-.26-1.777 1.083 1.98a.343.343 0 0 0-.11.194l.003.002Zm.107.34-1.08 1.978.26-1.776h.025a.46.46 0 0 0 .185-.04c.01 0 .02-.01.03-.016l.03-.015a.472.472 0 0 0 .225-.328h.22a.35.35 0 0 0 .105.196Zm-2.026-3.907.005-.216a.31.31 0 0 0 .055-.01l.034.061-.094.165Zm.081-.784v.007a.267.267 0 0 0-.163-.008v-.014l-.089-.195.268.094a.455.455 0 0 0-.023.115l.007.001Zm-.175.558-.01.41-1.202 2.09L18.377 9a.289.289 0 0 0 .052-.263l2.176-1.027c.038.061.096.106.164.127l.01.002Zm-3.94 10.005.16-.056-.143.41a.252.252 0 0 0-.1.001.44.44 0 0 0 .082-.354l.002-.001Zm-.048-.138a.445.445 0 0 0-.164-.171l1.138-2.834.12-.021c.025.07.075.13.142.164l-.973 2.763-.263.099Zm-.271.78-.655.12.272-.299a.45.45 0 0 0 .415.044.287.287 0 0 0-.032.122l-.005.011.005.003Zm-4.234.88 3.242-.597-1.884 2.08-1.41-1.311a.293.293 0 0 0 .052-.164.047.047 0 0 1-.008-.01l.008.002Zm-.018-.095a.283.283 0 0 0-.082-.122l.704-1.151h3.054a.453.453 0 0 0 .094.208l-.395.44-3.375.625Zm-.492.264-1.41 1.31-1.883-2.08 3.243.598v.005a.294.294 0 0 0 .04.163l.01.004Zm-.032-.264-3.368-.622-.399-.44a.453.453 0 0 0 .094-.208h3.054l.694 1.146a.283.283 0 0 0-.082.122l.007.002Zm-4.258-.8a.287.287 0 0 0-.032-.121.452.452 0 0 0 .414-.044l.273.3-.655-.12v-.014Zm-.234-.274a.228.228 0 0 0-.1 0l-.142-.41.159.057a.458.458 0 0 0 .074.352l.01.001Zm-.035-.491-.27-.094-.967-2.772a.294.294 0 0 0 .141-.163l.12.02 1.138 2.835a.451.451 0 0 0-.169.173l.007.001ZM7.166 5.56l-.158.056.142-.41a.388.388 0 0 0 .1-.006.524.524 0 0 0-.09.355l.007.005Zm.05.138c.039.07.095.13.164.17L6.24 8.703l-.12.022a.288.288 0 0 0-.14-.164l.97-2.772.265-.09Zm.274-.784.656-.12-.273.3a.446.446 0 0 0-.415-.044c.02-.038.03-.08.032-.122l.005-.012-.005-.002Zm4.234-.876-3.243.597 1.884-2.08 1.41 1.31a.29.29 0 0 0-.051.164s-.007.006-.007.008h.007Zm.018.095a.292.292 0 0 0 .082.122l-.706 1.15H8.064a.446.446 0 0 0-.094-.209l.4-.44 3.372-.623Zm.491-.264 1.41-1.31 1.883 2.079-3.241-.597v-.005a.285.285 0 0 0-.054-.168h.002Zm.032.264 3.368.621.4.44a.445.445 0 0 0-.095.211h-3.054l-.704-1.151a.295.295 0 0 0 .082-.12l.003-.001Zm4.259.799a.293.293 0 0 0 .032.122.446.446 0 0 0-.415.043l-.272-.3.655.12v.015Zm.233.274a.441.441 0 0 0 .1.006l.143.41-.16-.056a.438.438 0 0 0-.081-.354l-.002-.006Zm.035.492.27.094.968 2.771a.289.289 0 0 0-.142.164l-.12-.021-1.143-2.834a.462.462 0 0 0 .164-.176l.003.002Zm2.25 5.555a.416.416 0 0 0-.257-.011l-.453-1.126-.095-1.016a.295.295 0 0 0 .082-.037l1.198 1.362-.476.828Zm.581-.708.885 1.002-.028.067h-1.134a.455.455 0 0 0-.17-.286l.447-.783Zm-1.101.879a.247.247 0 0 0-.069-.012l-.071-.765.263.656a.438.438 0 0 0-.125.12h.002Zm.122.677-.263.655.071-.765a.32.32 0 0 0 .07-.011.458.458 0 0 0 .12.121h.002Zm-.38-1.753.102 1.076a.285.285 0 0 0-.194.184h-2.027a.273.273 0 0 0-.045-.082l1.743-2.22.42 1.042Zm-6.585 1.011a.453.453 0 0 0-.13.246l-3.16.004a.29.29 0 0 0-.12-.128l1.155-3.035c.06.016.125.012.183-.012l2.072 2.925ZM9.73 8.33a.29.29 0 0 0 .053-.13h4.437a.288.288 0 0 0 .052.13l-2.084 2.94a.448.448 0 0 0-.187-.04h-.005a.448.448 0 0 0-.187.04L9.73 8.329Zm-1.342 3.468h3.16c.016.094.061.18.129.246l-2.072 2.93a.274.274 0 0 0-.183-.013l-1.155-3.03a.297.297 0 0 0 .121-.133Zm3.422.336c.058.026.122.04.186.041h.006a.473.473 0 0 0 .187-.04l2.08 2.935a.28.28 0 0 0-.053.13H9.78a.281.281 0 0 0-.052-.13l2.082-2.936Zm.511-.09a.455.455 0 0 0 .13-.246h3.146a.293.293 0 0 0 .125.153l-1.147 3.011a.271.271 0 0 0-.183.012l-2.07-2.93Zm3.276-.439-3.149-.004a.452.452 0 0 0-.129-.246l2.071-2.93c.06.025.126.03.188.011l1.146 3.012a.288.288 0 0 0-.127.157Zm-1.092-3.735a.278.278 0 0 0-.103.02l-1.428-2.335h2.96a.46.46 0 0 0 .128.246l-1.474 2.08a.26.26 0 0 0-.082-.01l-.001-.001Zm-.18.064a.284.284 0 0 0-.106.18H9.78a.284.284 0 0 0-.106-.18l1.458-2.375h1.734l1.46 2.375ZM9.6 7.889a.269.269 0 0 0-.186-.006l-1.47-2.08a.455.455 0 0 0 .127-.245h2.96L9.6 7.889Zm-.255.519L8.19 11.445a.286.286 0 0 0-.211.036L6.198 9.21l.176-.44L9.22 8.25c.02.065.064.12.121.158h.003Zm-1.22 3.556a.37.37 0 0 0 .065-.007l1.156 3.038a.288.288 0 0 0-.123.156l-2.846-.52-.176-.438 1.776-2.273a.3.3 0 0 0 .149.043Zm1.286 3.556c.06.019.126.017.186-.006l1.427 2.332h-2.96a.449.449 0 0 0-.127-.245L9.41 15.52Zm.263-.05a.288.288 0 0 0 .106-.181h4.439c.011.071.05.136.107.18l-1.46 2.376h-1.734L9.674 15.47Zm4.729.044c.059.023.125.025.185.006l1.475 2.08a.453.453 0 0 0-.127.245h-2.961l1.428-2.331Zm.257-.519 1.146-3.012a.284.284 0 0 0 .234-.045l1.765 2.256-.177.438-2.848.519a.286.286 0 0 0-.124-.156h.004Zm1.213-3.583a.265.265 0 0 0-.067.008L14.66 8.408a.291.291 0 0 0 .123-.157l2.845.52.177.438-1.769 2.257a.287.287 0 0 0-.168-.054h.005Zm2.077-2.387-.037.047-.108-.269.062.012v.007c0 .075.03.148.082.202l.001.001Zm0 .142.07-.09a.3.3 0 0 0 .124.034l.067.705-.26-.65Zm-.363-.5-2.79-.506a.287.287 0 0 0-.076-.194L16.19 5.89a.45.45 0 0 0 .295.035l1.103 2.741Zm-4.811-3.262h-1.548l.677-1.103a.246.246 0 0 0 .194 0l.677 1.103Zm-5.258.52c.1.023.204.01.296-.035L9.28 7.967a.287.287 0 0 0-.076.194l-2.792.505 1.105-2.74ZM6.134 8.814l.062-.012-.109.269-.036-.047a.29.29 0 0 0 .082-.204l.001-.006Zm-.155.262.07.09-.261.647.066-.705a.298.298 0 0 0 .125-.032Zm.178.228 1.752 2.229a.287.287 0 0 0-.047.07H5.81a.287.287 0 0 0-.172-.178l.101-1.083.418-1.038Zm-.491.81-.453 1.126a.416.416 0 0 0-.257.011l-.475-.828 1.198-1.362a.307.307 0 0 0 .082.037l-.095 1.016Zm-.122 1.297h-.011a.233.233 0 0 0-.062.007.455.455 0 0 0-.117-.116l.263-.655-.073.764Zm.072 1.344-.263-.655a.482.482 0 0 0 .118-.117c.02.004.041.007.062.007h.011l.072.765Zm-.795-1.43a.455.455 0 0 0-.17.286H3.53a.278.278 0 0 0-.033-.073l.879-1 .444.787Zm-1.389.15a.28.28 0 0 0-.12-.058L3.24 8.558l1.087 1.903-.895 1.014Zm-.12.51a.299.299 0 0 0 .12-.058l.895 1.013-1.087 1.904.072-2.86Zm.183-.126a.307.307 0 0 0 .033-.073l1.121.005c.02.113.08.215.17.286l-.445.78-.879-.998Zm1.462.291c.083.03.172.034.257.01l.454 1.128.095 1.016a.263.263 0 0 0-.082.037l-1.197-1.362.473-.829Zm.78.901-.102-1.083a.29.29 0 0 0 .172-.177h2.055a.327.327 0 0 0 .047.07L6.16 14.098l-.423-1.048Zm.313 1.324.037-.047.108.269-.062-.012v-.007a.288.288 0 0 0-.082-.2l-.001-.003Zm0-.142-.071.09a.287.287 0 0 0-.125-.034l-.066-.705.262.649Zm.363.496 2.79.504a.29.29 0 0 0 .077.194l-1.47 2.084a.44.44 0 0 0-.295-.035l-1.102-2.747Zm4.812 3.265h1.551l-.677 1.103a.24.24 0 0 0-.194 0l-.68-1.103Zm5.258-.52a.44.44 0 0 0-.296.035l-1.468-2.077a.29.29 0 0 0 .077-.194l2.79-.505-1.103 2.74Zm1.38-2.889-.06.011.108-.264.037.047a.285.285 0 0 0-.082.213l-.003-.007Zm.155-.263-.07-.09.262-.648-.066.705a.274.274 0 0 0-.127.037l.001-.004Zm-.178-.227-1.742-2.22a.294.294 0 0 0 .044-.082h2.025a.29.29 0 0 0 .194.184l-.098 1.076-.423 1.041Zm.491-.811.453-1.126a.428.428 0 0 0 .256-.011l.476.828-1.198 1.362a.254.254 0 0 0-.082-.037l.095-1.016Zm.845-1.21a.459.459 0 0 0 .17-.287l1.133-.005.028.067-.884 1.009-.447-.785Zm1.393-.16a.3.3 0 0 0 .113.061l.072 2.866-1.087-1.901.901-1.026Zm.113-.492a.278.278 0 0 0-.113.062l-.901-1.023 1.087-1.904-.073 2.865Zm-.044-4.056-1.053-.688.916.322.005.01.15.339-.017.018v-.001Zm-.055.087a.281.281 0 0 0-.012.172L18.396 8.66a.277.277 0 0 0-.285-.127L17.17 5.83l2.02.707 1.393.916ZM17.108 5.65l-.163-.48a.32.32 0 0 0 .075-.058l1.67 1.1-1.582-.562Zm-.22-1.013a.271.271 0 0 0-.225.027l-2.11-2.604a.315.315 0 0 0 .057-.094l3.603.498a.328.328 0 0 0 .082.202l-.125.177-1.281 1.794Zm1.343-2.282-3.603-.503a.315.315 0 0 0-.197-.292l.047-.194.018-.057 3.194.746.545.293-.004.007Zm-3.767-.23 2.118 2.605a.285.285 0 0 0-.052.088l-.782-.144-2.015-2.212.384-.357a.31.31 0 0 0 .346.026v-.005Zm-.132-.585h-.018a.311.311 0 0 0-.246.123L12.612.873l1.778.416-.058.252Zm-.663.846-.435-.478h.77a.316.316 0 0 0 .047.122l-.382.356Zm-.099.093L12.163 3.8a.261.261 0 0 0-.327 0l-1.41-1.321.516-.573h2.113l.515.574Zm-3.243-.093-.381-.354a.318.318 0 0 0 .046-.122h.77l-.435.476Zm-.646-.215c.07 0 .138-.025.193-.068l.384.358-2.015 2.211-.78.144a.27.27 0 0 0-.052-.087l2.119-2.6a.321.321 0 0 0 .152.042Zm-.077-.883 1.78-.416-1.456.789a.312.312 0 0 0-.245-.123h-.02l-.059-.25Zm-.24.567-3.603.503v-.012l.545-.292L9.5 1.31l.014.06.047.193a.315.315 0 0 0-.196.294v-.001Zm-3.582.613 3.603-.498a.333.333 0 0 0 .058.094l-2.11 2.603a.271.271 0 0 0-.227-.027L5.833 2.848l-.126-.177a.32.32 0 0 0 .076-.202h-.001Zm1.106 3.188-1.585.56 1.676-1.098a.322.322 0 0 0 .076.057l-.167.48Zm-.062.175-.94 2.702a.278.278 0 0 0-.286.127L3.425 7.626a.293.293 0 0 0-.012-.172l1.392-.913 2.021-.71ZM3.358 7.37l-.017-.017.15-.34.004-.01.916-.321-1.053.688Zm.03.347 2.181 1.024a.288.288 0 0 0 .052.263l-1.185 1.34-1.202-2.09-.01-.41a.293.293 0 0 0 .163-.13v.003Zm-.178-.45v.015a.267.267 0 0 0-.164.007v-.005a.465.465 0 0 0-.016-.12l.268-.095-.088.198Zm-.081.8-.095-.163.034-.062a.308.308 0 0 0 .055.01l.006.216ZM1.9 11.23a.458.458 0 0 0-.452.4h-.236a.344.344 0 0 0-.107-.201L2.188 9.45l-.26 1.777a.115.115 0 0 1-.026 0l-.002.003Zm.286 2.724-1.082-1.982a.348.348 0 0 0 .107-.2h.236a.459.459 0 0 0 .454.402h.025l.26 1.78Zm.237-5.146.157-1.065h.014a.466.466 0 0 0 .164-.032l.137.24-.472.857Zm-.195.353L1.01 11.372c-.01-.005-.02-.008-.032-.012l.082-.778 1.375-2.866-.208 1.445Zm-1.215 2.87 1.216 2.21.213 1.449-1.376-2.867-.082-.778a.108.108 0 0 1 .027-.014h.002Zm1.411 2.565.472.857-.138.24a.434.434 0 0 0-.163-.032H2.58l-.157-1.065Zm.706.737-.006.216a.209.209 0 0 0-.054.01l-.034-.062.094-.164Zm-.082.786v-.006c.03.01.063.017.095.018a.277.277 0 0 0 .07-.012v.015l.087.195-.27-.095a.462.462 0 0 0 .018-.115Zm.176-.559.01-.409 1.202-2.09 1.182 1.338a.283.283 0 0 0-.049.26l-2.18 1.03a.285.285 0 0 0-.163-.125l-.002-.004Zm.134.477 1.053.688-.914-.322-.005-.01-.15-.341.016-.015Zm.054-.087a.3.3 0 0 0 .012-.172l2.177-1.037a.28.28 0 0 0 .285.127l.941 2.703-2.019-.708-1.396-.913Zm3.475 1.802.164.48a.282.282 0 0 0-.076.058l-1.671-1.106 1.583.568Zm.222 1.015a.277.277 0 0 0 .226-.027l2.11 2.604a.313.313 0 0 0-.057.093l-3.604-.498a.319.319 0 0 0-.081-.202l.126-.18 1.28-1.79ZM5.766 21.04l3.604.503a.317.317 0 0 0 .196.292l-.046.194-.014.06-3.194-.747-.546-.295v-.007Zm3.768.23-2.121-2.598a.288.288 0 0 0 .051-.088l.782.144 2.015 2.211-.383.353a.307.307 0 0 0-.347-.026l.003.004Zm.135.59h.018a.316.316 0 0 0 .246-.122l1.45.788-1.78-.415.066-.25Zm.663-.845.435.478h-.775a.308.308 0 0 0-.047-.122l.387-.356Zm.098-.093 1.408-1.32a.263.263 0 0 0 .328 0l1.408 1.32-.516.573h-2.113l-.514-.573Zm3.244.093.38.358a.307.307 0 0 0-.046.122h-.773l.439-.48Zm.645.214a.307.307 0 0 0-.193.068l-.384-.358 2.015-2.21.782-.145c.012.032.03.061.052.088l-2.117 2.601a.303.303 0 0 0-.16-.044h.005Zm.077.883-1.784.416 1.453-.789a.317.317 0 0 0 .246.123h.021l.064.25Zm.24-.567 3.603-.502v.011l-.55.292-3.193.746-.014-.059-.047-.194a.316.316 0 0 0 .197-.294h.004Zm3.583-.613-3.604.498a.296.296 0 0 0-.057-.094l2.11-2.604a.277.277 0 0 0 .227.027l1.276 1.796.126.177a.319.319 0 0 0-.082.2h.004Zm-1.106-3.188 1.582-.561-1.677 1.097a.282.282 0 0 0-.075-.057l.17-.479Zm.062-.175.94-2.702a.28.28 0 0 0 .286-.127l2.177 1.036a.281.281 0 0 0 .013.172l-1.393.913-2.023.708Zm3.463-1.533.017.017-.15.34-.004.01-.916.321 1.053-.688Zm-.03-.347-2.175-1.03a.283.283 0 0 0-.053-.263l1.182-1.34 1.201 2.094.011.41a.29.29 0 0 0-.164.127l-.001.002Zm.178.45v-.021a.326.326 0 0 0 .07.01.308.308 0 0 0 .094-.017v.005c.001.04.007.08.017.117l-.267.095.086-.19Zm.082-.8.095.163-.034.062a.205.205 0 0 0-.055-.01l-.006-.216Zm.706-.738-.156 1.065h-.014a.434.434 0 0 0-.164.032l-.137-.24.471-.857Zm.195-.354 1.216-2.21.033.011-.082.779-1.376 2.866.21-1.446Zm1.218-2.879-1.216-2.211-.214-1.447 1.376 2.866.082.778a.042.042 0 0 1-.028.014Zm-.77-4.853.008.007.014.016a.36.36 0 0 0-.059.3l-.4.175a.455.455 0 0 0-.373-.194.386.386 0 0 0-.122.02L19.47 3.5l2.39 2.52.358.496Zm-1.73-2.105L19.27 3.133l-.222-.41 1.438 1.688Zm-1.65-1.817.1.19-.133-.139a.402.402 0 0 0 .032-.051Zm.291.546 2.012 3.767a.457.457 0 0 0-.12.128l-.233-.082-.164-.059-1.883-4.17.388.416Zm-.589-.356a.334.334 0 0 0 .094-.015l1.791 4.057h-.011l-1.323-.468-2.02-1.318a.288.288 0 0 0-.057-.321l1.393-1.966c.041.02.087.03.133.031Zm-.202-.573a.307.307 0 0 0-.05.049l-.196-.106.246.057Zm-.26-.187-.402-.095-.925-.498 1.327.593ZM14.633.737a.341.341 0 0 0 .315-.116l.41.183 1.91 1.026-2.744-.643.11-.45Zm-.312-.269a.374.374 0 0 0 .127.191l.022.02h.007c.015.01.031.019.047.027l-.104.455-1.626-.378-.389-.103V.667l1.916-.199ZM13.239.432l-.852.074a.38.38 0 0 0-.032-.072l.884-.002Zm-.892.421 1.67.901a.23.23 0 0 0-.012.048h-.865L12.314.9a.41.41 0 0 0 .033-.044V.853Zm-.568.13a.402.402 0 0 0 .44 0l.742.819h-1.925l.743-.82ZM11.684.9l-.826.9h-.866a.232.232 0 0 0-.013-.048l1.67-.9c.01.014.02.028.032.042l.003.006Zm-.04-.464a.374.374 0 0 0-.033.072L10.76.436l.883.001ZM9.52.683h.007l.023-.02a.374.374 0 0 0 .127-.191l1.914.198v.012l-.39.103-1.625.378-.105-.455a.5.5 0 0 0 .046-.026l.003.001Zm-.47-.06a.342.342 0 0 0 .314.114l.108.45-2.744.642L8.639.804l.412-.182Zm-1.802.804-.925.498-.402.095 1.327-.593Zm-1.342.721-.196.106a.305.305 0 0 0-.05-.049l.246-.057Zm-.448.636c.047 0 .093-.01.135-.03L6.987 4.72a.288.288 0 0 0-.058.32L4.907 6.358l-1.323.467h-.012L5.364 2.77c.03.01.063.015.094.015h.001Zm-.295-.191a.386.386 0 0 0 .03.053l-.133.138.103-.191Zm.095.134-1.883 4.17-.164.06-.233.081a.456.456 0 0 0-.12-.128l2.012-3.767.388-.416Zm-.314 0-.221.41-1.216 1.276 1.437-1.686ZM1.751 6.511l.008-.008.374-.482 2.391-2.52-1.816 3.342a.455.455 0 0 0-.497.174l-.41-.19a.365.365 0 0 0-.059-.296l.009-.02Zm-.277.6a.373.373 0 0 0 .286-.173l.405.194a.445.445 0 0 0 .151.508l-1.209 2.53.367-3.06Zm-.27 1.046-.247 2.332-.343.72.59-3.052Zm-.292 2.735-.047.442a.305.305 0 0 0-.1.016.423.423 0 0 0-.052-.043l.199-.415Zm-.148 1.152c.033.01.067.016.1.016l.048.442-.2-.414a.602.602 0 0 0 .051-.04l.001-.004Zm-.153.141.343.72.246 2.333-.589-3.053Zm.863 4.095-.368-3.049 1.205 2.528a.445.445 0 0 0-.151.508l-.4.185a.365.365 0 0 0-.286-.17v-.002Zm.295.609-.008-.008-.014-.016a.369.369 0 0 0 .059-.296l.41-.182a.458.458 0 0 0 .372.194.436.436 0 0 0 .122-.02l1.816 3.343-2.39-2.518-.367-.497Zm1.742 2.1 1.216 1.277.221.41-1.437-1.687ZM5.16 20.81l-.103-.192.133.139a.272.272 0 0 0-.03.051v.002Zm-.292-.546-2.012-3.767a.477.477 0 0 0 .12-.128l.233.082.164.059 1.883 4.17-.388-.416Zm.588.354a.285.285 0 0 0-.094.016l-1.789-4.057h.012l1.323.467 2.019 1.319a.288.288 0 0 0 .057.321L5.592 20.65a.313.313 0 0 0-.134-.033l-.002.001Zm.202.579a.39.39 0 0 0 .05-.049l.196.106-.246-.057Zm.26.187.402.094.925.5-1.327-.594Zm3.444 1.283a.338.338 0 0 0-.315.116l-.41-.184-1.907-1.026 2.744.643-.112.45Zm.313.268a.368.368 0 0 0-.127-.19l-.023-.021h-.007a.269.269 0 0 0-.047-.026l.104-.456 1.626.381.39.104v.012l-1.916.196Zm1.081.036.852-.073c.008.025.02.049.032.072l-.884.001Zm.889-.423-1.67-.9a.262.262 0 0 0 .012-.05h.864l.83.909a.344.344 0 0 0-.033.04h-.003Zm.568-.131a.4.4 0 0 0-.44 0l-.742-.82h1.924l-.742.82Zm.095.087.826-.907h.87a.25.25 0 0 0 .013.048l-1.67.901a.335.335 0 0 0-.029-.039l-.01-.003Zm.04.463a.407.407 0 0 0 .032-.072l.852.074-.883-.002Zm2.122-.245h-.006l-.023.02a.369.369 0 0 0-.127.19l-1.914-.197v-.013l.39-.103 1.624-.38.105.455a.362.362 0 0 0-.045.026l-.004.002Zm.471.06a.338.338 0 0 0-.314-.116l-.108-.45 2.744-.643-1.907 1.024-.415.185Zm1.802-.805.926-.499.402-.094-1.328.593Zm1.342-.724.196-.105a.386.386 0 0 0 .05.048l-.246.057Zm.448-.635a.311.311 0 0 0-.136.03l-1.392-1.966a.288.288 0 0 0 .058-.32l2.02-1.32 1.326-.464h.011l-1.788 4.054a.305.305 0 0 0-.095-.015h-.004Zm.295.191a.305.305 0 0 0-.03-.053l.133-.14-.103.193Zm-.1-.133 1.883-4.17.164-.06.233-.081c.032.05.073.093.12.128l-2.012 3.767-.389.416Zm.314 0 .221-.41 1.216-1.277-1.437 1.687Zm3.176-3.774-.008.007-.36.473L19.47 19.9l1.815-3.342a.436.436 0 0 0 .495-.175l.401.201a.36.36 0 0 0 .06.299l-.022.018Zm.287-.6a.368.368 0 0 0-.285.173l-.39-.204a.445.445 0 0 0-.152-.508l1.205-2.528-.378 3.067Zm.282-1.057.246-2.332.343-.72-.589 3.052Zm.34-3.18a.348.348 0 0 0 .1-.015c.016.015.034.029.052.042l-.2.416.047-.442Zm-.047-1.168.199.416a.42.42 0 0 0-.052.043.3.3 0 0 0-.1-.017l-.047-.442Zm-.044-.405-.246-2.333.593 3.053-.347-.72Z" fill="#0432A9"/></g><defs><clipPath id="a"><path fill="#fff" d="M0 0h24v24H0z"/></clipPath></defs></svg>