<svg width="24" height="24" viewBox="0 0 24 24" fill="none" xmlns="http://www.w3.org/2000/svg">
<path fill-rule="evenodd" clip-rule="evenodd" d="M22.1271 15.151L23.6406 12.5452L21.7698 18.1772L22.1271 15.151ZM21.633 18.5893V15.7455L22.0287 15.2718L21.6389 18.5714L21.633 18.5893ZM18.3187 20.4749L21.0477 19.2677L16.0945 22.8172L18.3187 20.4749ZM15.5801 23.1857L15.5029 23.1852L12.9736 22.2199L15.4251 21.1909L17.456 20.6894L15.6575 23.1303L15.5801 23.1857ZM12.2145 22.5336L15.0384 23.1822L11.7621 23.1608L12.2145 22.5336ZM13.18 0.989469L13.4027 0.680607L15.01 0.691169L13.18 0.989469ZM17.4215 3.08994L15.2548 2.58622L12.7965 1.55524L15.6261 0.69517L15.7272 0.69581L15.7982 0.748141L17.4215 3.08994ZM18.3193 3.3015L16.2477 1.07919L21.0843 4.64172L18.3193 3.3015ZM22.1895 8.65111L22.1939 8.60112L22.182 8.60491L21.8105 5.65766L23.6205 11.3548L22.1895 8.65111ZM21.633 15.0091L22.0169 15.1552L21.633 15.6148V15.0091ZM20.2351 17.2882L21.5491 15.0995V15.7152L20.2351 17.2882ZM21.5365 18.8795L18.7339 19.7872L19.956 17.7529L21.5491 15.8459V18.8417L21.5365 18.8795ZM18.6683 19.8966L21.4085 19.0091L21.3817 19.0283L18.396 20.3497L18.6683 19.8966ZM18.1657 20.5142L16.0394 22.7534L17.5833 20.658L18.1657 20.5142ZM17.9544 20.1543L17.9979 20.2132L17.9977 20.1898L18.2138 20.4167L17.6604 20.5532L17.9544 20.1543ZM17.8306 20.1812L17.5333 20.5846L15.9223 20.9822L17.8306 20.1812ZM15.9197 17.3973L17.8418 20.0016L14.7824 18.9739L15.9197 17.3973ZM16.356 16.7925L17.8666 16.2731L17.911 19.9542L15.9712 17.3259L16.356 16.7925ZM17.8479 14.7243L17.8655 16.1848L16.441 16.6746L17.8479 14.7243ZM18.353 14.0241L21.4541 14.951L17.949 16.1561L17.9304 14.6099L18.353 14.0241ZM19.3208 11.9354L21.483 14.8721L18.405 13.9521L18.6558 13.6043L18.2113 13.4608L19.3208 11.9354ZM17.9178 10.0298L19.2687 11.8646L18.1274 13.4338L12.8118 11.7184L17.9178 10.0298ZM15.7274 6.93124L17.8916 7.63571V9.95019L12.6767 11.6748L12.3101 11.5565L15.7274 6.93124ZM12.0419 5.71393L14.2549 4.9947L15.6595 6.88211L12.2259 11.5294L12.0419 11.47V5.71393ZM11.9581 5.62389L10.2738 5.01934L11.9581 2.68383V5.62389ZM12.2421 2.28989L14.2021 4.9237L12.0419 5.62576V2.56754L12.2421 2.28989ZM17.8172 3.66083L15.7157 2.77948L17.4926 3.19263L17.8172 3.66083ZM17.543 3.11822L16.1201 1.06532L18.1695 3.26384L17.543 3.11822ZM18.2171 3.36104L17.9371 3.6866L17.6142 3.22085L18.2171 3.36104ZM18.7217 3.96809L18.4022 3.43492L21.1098 4.74734L18.7217 3.96809ZM21.6274 7.99231L21.7075 5.51021L22.0878 8.52858L21.6274 7.99231ZM22.1167 9.47495L22.1759 8.80485L23.6062 11.507L22.1167 9.47495ZM22.0449 14.4385L22.0452 15.0762L21.6592 14.9294L22.0449 14.4385ZM21.8602 12.3789L22.0436 14.3043L21.6453 14.8114L21.8602 12.3789ZM21.5286 8.8999L21.8164 11.9207L21.559 14.8341L19.3725 11.8643L21.5286 8.8999ZM21.3963 8.93911L19.3203 11.7934L18.0021 10.003L21.3963 8.93911ZM21.4919 8.80767L21.4792 8.82517L17.9754 9.92342V7.66302L21.4919 8.80767ZM17.9754 3.86823L19.9227 6.13514L21.4664 8.71123L17.9754 7.57484V3.86823ZM17.8916 3.88642V7.54753L15.7789 6.85982L17.8916 3.88642ZM19.6688 5.71153L18.0629 3.84145L18.666 4.03819L19.6688 5.71153ZM21.5224 8.64188L20.2455 6.511L21.5425 8.0209L21.5224 8.64188ZM21.6103 8.78409L21.6021 8.77295L21.6234 8.11505L22.0734 8.63895L21.6103 8.78409ZM22.0305 9.49891L21.8569 11.4628L21.6159 8.93324L22.0305 9.49891ZM21.6627 8.85563L22.0994 8.71875L22.0416 9.37253L21.6627 8.85563ZM21.611 5.02969L21.6364 5.10987L21.5464 7.8981L19.9919 6.08782L18.7874 4.07782L21.5365 4.97475L21.611 5.02969ZM15.7108 6.81074L14.3391 4.96733L17.8259 3.83414L15.7108 6.81074ZM17.995 19.9699L17.9501 16.2444L21.4959 15.0253L19.8874 17.7044L17.995 19.9699ZM18.5479 19.9355L18.2864 20.3713L18.0308 20.1031L18.5479 19.9355ZM18.0798 19.9991L19.6085 18.1691L18.6136 19.8262L18.0798 19.9991ZM23.8236 11.9942L23.7978 12.0721L22.1187 14.209L21.9006 11.921L22.1055 9.60133L23.7963 11.9081L23.8236 11.9942ZM18.6002 3.92851L18.0063 3.73466L18.2879 3.40723L18.6002 3.92851ZM12.4917 1.94379L12.7273 1.61711L14.7684 2.47313L12.4917 1.94379ZM12.4385 2.01757L15.2292 2.66639L17.8133 3.75007L14.2863 4.89633L12.2937 2.21846L12.4385 2.01757ZM13.1106 1.0857L15.1428 0.754435L12.846 1.45255L13.1106 1.0857ZM11.6234 11.335L8.68846 7.21765L10.2227 5.09008L11.9581 5.71297V11.443L11.6234 11.335ZM8.63666 7.2894L11.4897 11.2918L6.83379 9.78936L8.63666 7.2894ZM12.7731 21.7594L14.7311 19.0451L17.8357 20.088L15.3964 21.1119L12.7731 21.7594ZM12.8525 22.1798H12.4699L12.6973 21.8644L14.8988 21.3208L12.8525 22.1798ZM12.4094 22.2636H12.8533L15.0286 23.0939L12.2678 22.4598L12.4094 22.2636ZM22.1287 14.9813L22.1286 14.332L23.5749 12.4913L22.1287 14.9813ZM11.4466 22.3537L11.4788 22.3443L11.4595 22.3359L17.503 14.003L5.68098 10.1461L12.5475 0.675006L13.1969 0.679274L12.5812 1.53304L12.5497 1.54259L12.5686 1.55054L6.56302 9.87813L18.385 13.693L11.5564 23.1595L10.8655 23.155L11.4466 22.3537ZM10.9048 22.8152L10.6594 23.1536L9.03018 23.143L10.9048 22.8152ZM5.86661 20.6209L7.80913 22.7966L2.91456 19.1913L5.86661 20.6209ZM2.44444 15.7561L3.95764 17.5688L5.3464 19.792L2.46273 18.8585L2.38896 18.8041L2.36293 18.7222L2.44444 15.7561ZM1.91788 15.1091L1.90662 15.1118L1.94161 15.1537L2.2237 18.284L0.344869 12.3703L1.91788 15.1091ZM1.94194 8.64263L1.90838 8.68248L1.91825 8.68525L0.349297 11.3188L2.30025 5.44551L1.94194 8.64263ZM5.73043 3.30102L2.97526 4.54965L7.90243 1.01875L5.73043 3.30102ZM8.41976 0.648014L8.50709 0.648601L11.0901 1.55817L8.68371 2.59795L6.64954 3.00123L8.34241 0.703439L8.41976 0.648014ZM11.9367 1.23186L9.0456 0.652122L12.3413 0.673673L11.9367 1.23186ZM11.326 2.07411L9.0743 2.52055L11.3199 1.55017L8.9683 0.722109L11.8825 1.30649L11.326 2.07411ZM9.36475 4.77935L6.22957 3.74975L8.70883 2.67845L11.2537 2.17392L9.36475 4.77935ZM8.1436 6.46363L6.2222 3.83548L9.31312 4.85056L8.1436 6.46363ZM7.63475 7.16553L6.15339 7.61351V3.88343L8.09191 6.53501L7.63475 7.16553ZM6.15339 7.70116L7.55346 7.27766L6.15339 9.20877V7.70116ZM5.69196 9.84527L2.55993 8.78794L6.06959 7.72644V9.32442L5.69196 9.84527ZM4.70403 11.8517L2.53368 8.86747L5.64043 9.91638L5.4101 10.2341L5.79817 10.3607L4.70403 11.8517ZM6.12725 13.8087L4.75583 11.923L5.88214 10.388L11.156 12.1087L6.12725 13.8087ZM8.39779 16.9143L6.15339 16.1908V13.8884L11.2892 12.1521L11.7905 12.3156L8.39779 16.9143ZM11.9581 18.1458L9.83023 18.835L8.46559 16.9635L11.8745 12.343L11.9581 12.3703V18.1458ZM12.0419 18.2319L13.8516 18.752L12.0419 21.2473V18.2319ZM11.8161 21.5587L9.88219 18.9063L11.9581 18.2339V21.3629L11.8161 21.5587ZM6.2269 20.179L8.52746 21.1674L6.58665 20.708L6.2269 20.179ZM6.5356 20.7821L7.85304 22.7198L6.01235 20.6582L6.5356 20.7821ZM5.95079 20.5575L6.11957 20.1701L6.46583 20.6795L5.95079 20.5575ZM5.77977 20.4856L2.88186 19.0823L5.41543 19.9024L5.77977 20.4856ZM5.98626 19.9991L5.47032 19.8321L4.35026 18.0392L5.98626 19.9991ZM6.15339 19.9563V16.2789L8.34529 16.9854L6.15339 19.9563ZM8.41342 17.0342L9.74627 18.8622L6.22263 20.0036L8.41342 17.0342ZM6.0546 20.1093L5.88571 20.4971L5.53935 19.9425L6.0546 20.1093ZM2.51853 15.1072L6.06959 16.2518V19.968L4.02539 17.5192L2.51853 15.1072ZM2.46044 15.1721L3.63278 17.0489L2.4479 15.6294L2.46044 15.1721ZM6.06959 13.9156V16.1638L2.55982 15.0324L6.06959 13.9156ZM2.06985 14.4787L2.2062 12.5113L2.3705 14.8901L2.06985 14.4787ZM2.36319 15.6588L2.29497 18.141L2.03598 15.2668L2.36319 15.6588ZM2.05774 15.162L2.37898 15.0855L2.36666 15.5321L2.05774 15.162ZM2.06084 14.6085L2.3514 15.0059L2.02798 15.0829L2.06084 14.6085ZM1.98402 14.5034L1.94988 14.9964L0.503887 12.4788L1.98402 14.5034ZM1.9837 9.29049L0.495619 11.237L1.94956 8.79658L1.9837 9.29049ZM2.37813 8.1245L2.03923 8.52703L2.36943 5.58073L2.37813 8.1245ZM5.33584 3.94126L2.98113 4.639L5.64828 3.43033L5.33584 3.94126ZM6.0379 3.73316L5.45581 3.90568L5.76073 3.40707L6.0379 3.73316ZM6.45382 3.12547L6.46369 3.12355L6.10661 3.68467L5.81151 3.33741L7.9641 1.07551L6.45382 3.12547ZM8.31814 2.7559L6.22007 3.66243L6.57742 3.10098L8.31814 2.7559ZM4.19721 5.9638L5.39052 4.01247L5.98941 3.835L4.19721 5.9638ZM2.37087 8.92172L2.20631 11.2962L2.06953 9.31599L2.37087 8.92172ZM2.35167 8.80917L2.06079 9.18967L2.02814 8.71667L2.35167 8.80917ZM2.38026 8.73006L2.05593 8.6374L2.37861 8.25418L2.38026 8.73006ZM3.5477 6.86547L2.46375 8.63809L2.46215 8.15496L3.5477 6.86547ZM2.47986 4.90465L2.55032 4.85414L5.27055 4.048L3.83863 6.38975L2.46167 8.02528L2.45132 4.9907L2.47986 4.90465ZM4.70377 11.9939L6.04345 13.836L2.5324 14.9531L4.70377 11.9939ZM2.45628 14.9149L2.24829 11.9037L2.45622 8.90353L4.65197 11.9227L2.45628 14.9149ZM6.06959 7.63885L2.51554 8.71373L3.90622 6.43963L6.06959 3.86994V7.63885ZM0.176302 11.8396L0.203774 11.7569L1.99245 9.41686L2.16422 11.9038L1.99304 14.3737L0.203827 11.9262L0.176302 11.8396ZM11.5231 21.9627L11.3016 22.2681L9.4469 21.4712L11.5231 21.9627ZM11.5764 21.8892L9.00052 21.2794L6.23047 20.0892L9.79828 18.9335L11.7644 21.63L11.5764 21.8892ZM10.9755 22.7178L9.06331 23.052L11.1836 22.4308L10.9755 22.7178ZM12.4617 12.5346L15.4099 16.6035L13.904 18.6798L12.0419 18.1447V12.3977L12.4617 12.5346ZM15.4616 16.5322L12.5972 12.5788L17.2321 14.0909L15.4616 16.5322ZM8.20468 23.0879L6.65648 20.8107L8.97385 21.3593L11.2317 22.3294L8.46761 23.1393L8.27269 23.138L8.20468 23.0879ZM21.7626 4.95298L21.7543 4.927L15.8047 0.544687L15.7828 0.52847L8.36642 0.47998L2.36005 4.7842L2.33791 4.79999L0 11.8385L2.23741 18.8809L2.24568 18.9068L8.19519 23.2892L8.21711 23.3053L15.6335 23.3537L21.6398 19.0497L21.662 19.0338L24 11.9954L21.7626 4.95298Z" fill="black"/>
</svg>
