<svg width="24" height="24" fill="none" xmlns="http://www.w3.org/2000/svg"><path d="M4.08 9.6 5.2 7.12c0-.08 0-.08.08-.08v.08l.88 1.28c0 .08 0 .08-.08.08l-1.92 1.2h-.08V9.6Zm4.4 9.04-.8-2.48v-.08h.08l.8.16v2.48c-.08 0-.08 0-.08-.08Zm0-2.64-.72-.08s0-.08-.08-.08l.8-1.76c0-.08 0-.08.08-.08v2h-.08Zm-4.4 7.6 2.16-1.12h.08l2 1.36v.08s0 .08-.08.08l-4.08-.24c-.08 0-.08-.08-.08-.08v-.08ZM4 22.96v-2.88h.08l1.92.56c.08 0 .08 0 .08.08l-2 2.32c-.08 0-.08 0-.08-.08Zm0-3.12v-.24l.96-2.16c0-.08 0-.08.08-.08v.08l1.04 2.88v.08s0 .08-.08 0l-1.92-.48-.08-.08Zm0-1.04v-2.16h.08l.72.48v.08l-.64 1.6H4Zm0-2.48v-.4l1.92-1.52H6v.08l-1.04 2.4s0 .08-.08.08L4 16.4v-.08Zm0-.8v-.16l1.04-2.56h.08l1.04 1.04v.08L4.08 15.6H4v-.08Zm0-1.04v-3.44s0-.08.08-.08l.08.08.72 1.52v.08l-.72 1.84-.08.08c-.08 0-.08-.08-.08-.08Zm.08-4.16 2.48.72.08.08-.08.08-1.44 1.2h-.08v-.08L4 10.4s0-.08.08-.08ZM4 8.96V6.8h.08l.96.08v.08l-.88 2-.08.08C4 9.04 4 8.96 4 8.96Zm0-2.48v-.32L5.12 4.8h.08v.08l-.08 1.68v.08l-1.04-.08c-.08 0-.08 0-.08-.08Zm0-.8V4.24h.08l.96.16c0 .08.08.08.08.08s0 .08-.08.08l-.96 1.2c-.08 0-.08 0-.08-.08Zm0-1.76v-.48l.64-.72.08-.08c0 .08.08.08.08.08l.4 1.44s0 .08-.08.08L4.08 4C4 4 4 4 4 3.92Zm0-.96v-1.6l.08-.08s0 .08.08.08l.48.96v.08l-.56.56v.08C4 3.04 4 2.96 4 2.96ZM4 .72V0h3.36s.08 0 .08.08v.08l-2.56 2H4.8L4 .72ZM7.84.16l.4 2v.08H5.2v-.08l2.48-2h.16ZM8.08 0h2.16v.08L8.56 2c0 .08-.08.08-.08.08L8.4 2 8 .08C8 0 8 0 8.08 0Zm-.16 2.56-2.48 1.6c0 .08 0 .08-.08 0l-.4-1.6v-.08h2.96v.08ZM13.6.4l-2.4 1.36h-.08l-.4-1.68V0h.08l2.72.32h.08V.4Zm2.48 1.28-2.8.48c0 .08 0 0-.08 0v-.08l.8-1.6c0-.08.08-.08.08-.08h.08l1.92 1.12v.16ZM17.68 4 16 5.68h-.08c-.08 0-.08-.08-.08-.08l.72-3.52h.08l1.04 1.84V4ZM18 6.56l-.56 1.84c0 .08-.08.08-.08.08h-.08l-1.44-2.24c-.08-.08-.08-.08 0-.16l1.84-1.76v-.08c.08 0 .08.08.08.08L18 6.56Zm-2.32 3.84-.56-1.68v-.08h.08l1.84.16c.08 0 .08.08.08.08v.08l-1.36 1.44s0 .08-.08 0Zm-.4-.08-2.4-1.92v-.08h.08l1.92.32.56 1.6s0 .08-.08.08h-.08Zm-.16-2 .56-1.84h.08l1.36 2.08v.08h-.08l-1.84-.16c0-.08-.08-.08-.08-.08v-.08ZM14.88 8l-.96-2.56v-.08H14l1.52.8v.08L15.04 8l-.08.08s-.08 0-.08-.08Zm.64-2.08-1.68-.88v-.08l2.32-2.72h.08s.08 0 .08.08l-.72 3.6h-.08Zm-2.56.16-.24-.88.08-.08h.56c.08 0 .08 0 .08.08v.08l-.4.8v.08c-.08 0-.08-.08-.08-.08Zm.72-.64 1.12 2.88-.08.08-2.16-.32-.08-.08v-.08l.56-1.28.56-1.2h.08Zm0-.72-.56-2.24c0-.08 0-.08.08-.08l2.88-.56s.08 0 .08.08V2l-2.4 2.72h-.08Zm-.24.24h-.72v-.08l.24-1.68h.16l.4 1.68v.08h-.08Zm-1.76-1.12-.4-1.68c0-.08 0-.08.08-.08l1.36.32v.08l-.96 1.36c0 .08 0 .08-.08.08v-.08Zm1.12-.88-.24 1.76s0 .08-.08.08h-.08l-.56-.56c-.08 0-.08-.08 0-.08l.8-1.2c.08 0 .08-.08.08 0h.08Zm.08-.72-1.36-.32v-.08L13.6.56s.08 0 .08.08v.08l-.72 1.52h-.08Zm-2.32-2 .4 1.6s-.08 0-.08.08l-2 .24H8.8v-.08L10.4.16h.08l.08.08Zm-2 3.52L6 4.16h-.08c0-.08 0-.08.08-.08l2.24-1.52h.08s0 .08.08.08l.16 1.04v.08Zm.16-1.04 1.28.96h.08c0 .08-.08.08-.08.08H8.88c-.08 0-.08 0-.08-.08l-.24-.88c0-.08.08-.08.08-.08h.08Zm-.08 1.92v3.68h-.16l-.8-1.92h.08l.72-1.76s.08-.08.08 0h.08Zm2.08-.88.32-1.2h.08l.4 1.44h-.08v.08l-.72-.24s-.08-.08 0-.08ZM8.8 2.4l2.08-.32.08.08-.48 1.44v.08h-.08L8.8 2.56c0-.08-.08-.08-.08-.08l.08-.08Zm3.6 5.84 2.4 1.92v.08c0 .08 0 .08-.08.08l-3.36-1.2v-.08l.88-.8h.16Zm-1.36 1.04.48 1.68s0 .08-.08.08h-.08L9.12 9.36v-.08c0-.08.08-.08.08-.08h1.76s.08 0 .08.08Zm.32 0 3.6 1.28.08.08c0 .08 0 .08-.08.08l-3.12.56c-.08 0-.08-.08-.08-.08l-.48-1.84c0-.08.08-.08.08-.08Zm4.24 1.6.4 1.76s0 .08-.08.08l-3.6-1.2-.08-.08c0-.08.08-.08.08-.08l3.2-.56.08.08Zm1.84.8-1.12.96h-.08c-.08 0-.08 0-.08-.08l-.32-1.52v-.08h.08l1.52.56.08.08s0 .08-.08.08Zm1.52 1.68-2.48-.48v-.16l1.2-.96h.08l1.2 1.52c.08 0 .08 0 .08.08h-.08ZM20 16.08l-1.2.4h-.08v-.08l.56-2.24.08-.08.08.08L20 16v.08Zm-.4 3.2-1.36-.16s0-.08-.08-.08l.08-.08 1.6-2.24h.08c.08 0 .08 0 .08.08l-.32 2.48h-.08Zm-1.44 2.08-.08-2v-.08h.08l1.36.24v.08l-1.2 1.76c-.08 0-.08.08-.08.08l-.08-.08Zm-2.8 1.76-.16-2.24v-.08h.08l2.48.96v.16l-2.32 1.2h-.08Zm-2.4.56-2.08-1.36c-.08 0-.08 0-.08-.08h.08l3.76 1.04v.08l-1.6.32h-.08Zm-4 .16.96-1.76V22H10l2.48 1.6c.08 0 .08.08.08.08 0 .08-.08.08-.08.08L9.04 24c-.08 0-.08 0-.08-.08v-.08Zm2.16-12.64-3.84-.24H7.2v-.08l1.44-1.6h.16l2.4 1.84v.08h-.08Zm-4.16-.48L6.48 8.8v-.08s.08-.08.08 0l1.84.4c.08 0 .08.08.08.08v.08l-1.44 1.44c0 .08 0 .08-.08.08v-.08Zm1.52 2.4-1.84.64c-.08 0-.08 0-.08-.08l.4-2.24v-.08h.08l1.44 1.68v.08Zm-1.2-1.92 3.92.24s.08 0 .08.08h-.08l-2.4 1.52h-.08L7.2 11.28v-.08h.08Zm4.4.4.48 1.36v.08c-.08 0-.08.08-.08.08H9.36c-.08 0-.08-.08-.08-.08v-.08l2.32-1.36c0-.08 0-.08.08-.08v.08Zm.32 0 3.28 1.12c.08 0 .08 0 .08.08h-.08l-2.88.24-.48-1.36v-.08H12Zm3.68 1.52-1.52 1.2h-.08l-1.36-.96v-.08h.08l2.8-.24h.08v.08Zm-1.2 1.6 3.12 1.6v.08h-.08l-2.48-.32s-.08 0-.08-.08l-.56-1.2v-.08h.08Zm.64 1.76 2.32 2.32v.08h-.08l-2.64-.64s-.08 0-.08-.08l.4-1.68v-.08s.08 0 .08.08Zm-.64 2.08.4 1.76c.08 0 0 0 0 .08h-.08l-1.6-.96v-.08l1.2-.8h.08Zm-1.52.96 1.2.72c.08 0 .08.08.08.08-.08 0-.08.08-.08 0l-2.48-.4v-.08l1.2-.32h.08Zm-2.32.56-.72 1.44h-.08L8.96 20v-.08c0-.08 0-.08.08-.08l1.52.16h.08v.08Zm5.52-6.96 2 3.12v.08h-.08l-3.68-1.84-.08-.08h.08l1.68-1.36s.08 0 .08.08Zm.32-.08 2.72.56v.08l-.64 2.64h-.08l-2.08-3.2v-.08h.08Zm1.92 3.76-.48 2c0 .08 0 .08-.08.08l-2.48-2.48v-.08h.08l2.88.4c.08 0 .08.08.08.08Zm1.36-.32-1.44 2h-.08v-.08l.4-1.6v-.08l1.12-.32c.08.08.08.08 0 .08Zm-4.96 2 2.72.64.08.08s0 .08-.08.08l-2.24 1.2h-.08l-.08-.08-.4-1.84v-.08h.08Zm3.04.96L18 21.6v.08h-.08l-2.4-1.04h-.08c0-.08 0-.08.08-.08l2.24-1.2h.08v.08Zm-3.52 1.28-4.08.96h-.08v-.08l.72-1.52c0-.08.08-.08.08-.08l3.36.56v.16ZM4.16 10l2-1.28h.08v.08l.48 2v.08h-.08l-2.48-.8h-.08c0-.08 0-.08.08-.08Zm2.08 3.6-1.04-.96v-.08l1.44-1.2h.08v.08l-.4 2.16h-.08Zm2.24-.16L7.6 15.6l-.08.08-.08-.08-.88-1.6c0-.08 0-.08.08-.08l1.76-.56h.08v.08Zm-2 .8.88 1.6v.08L5.2 17.04h-.08v-.08l1.2-2.72s.08 0 .08-.08l.08.08Zm0 6.08 1.04-3.84h.08l.96 3.12c0 .08 0 .08-.08.08l-1.92.72h-.08v-.08Zm1.76-.16L6.56 22h-.08c-.08 0-.08-.08-.08-.08v-1.2l.08-.08 1.68-.56c.08-.08.08 0 .08 0 .08 0 .08.08 0 .08Zm1.52 1.76-.8 1.52s-.08.08-.08 0H8.8v-3.12s0-.08.08-.08v.08l.88 1.52v.08Zm-1.28 1.84L6.56 22.4c-.08 0-.08-.08-.08-.08l2-2.16h.08v.08l.08 3.44c0 .08 0 .08-.08.08h-.08Zm-2.24-2.72v1.2c0 .08 0 .08-.08.08l-1.92.96c0 .08 0 0-.08 0v-.08l1.92-2.16c0-.08.08-.08.08-.08l.08.08Zm8.8 2.16-4.56-1.28v-.08l4.48-1.04h.08l.08 2.32v.08h-.08Zm-9.76-5.92 2-1.04h.08v.08l-1.04 3.76v.08c-.08 0-.08-.08-.08-.08l-.96-2.72c-.08-.08 0-.08 0-.08Zm3.2-13.2L7.6 6.16h-.08l-1.84-1.6V4.4L8.4 4h.08v.08ZM5.84 6.16l-.4.32c-.08 0-.08-.08-.08-.08l.08-1.12V5.2c.08 0 .08 0 .08.08l.32.8v.08Zm-.08-1.28 1.36 1.28v.08h-.08l-.96-.16-.4-1.12c-.08 0 0-.08 0-.08h.08Zm1.6 1.68-.88 1.52h-.16L6.08 6.4v-.08h.08l1.2.16v.08c.08 0 .08 0 0 0Zm1.04 2.4-1.84-.48c-.08-.08-.08-.08 0-.08l.96-1.68h.16l.8 2.16c0 .08 0 .08-.08.08ZM6 7.76l-.64-.88c0-.08 0-.08.08-.08l.4-.4c.08 0 .08.08.08.08l.16 1.28v.08c-.08 0-.08 0-.08-.08Z" fill="url(#a)"/><defs><linearGradient id="a" x1="12.072" y1="23.808" x2="11.672" y2="-.112" gradientUnits="userSpaceOnUse"><stop stop-color="#11A1BC"/><stop offset="1" stop-color="#5FCEB4"/></linearGradient></defs></svg>