<svg width="24" height="24" fill="none" xmlns="http://www.w3.org/2000/svg"><path fill-rule="evenodd" clip-rule="evenodd" d="M12 0c6.626 0 12 5.374 12 12s-5.374 12-12 12S0 18.626 0 12 5.374 0 12 0Z" fill="#006AE3"/><path d="M11.505 17.06V7.074h1.088v9.984h-1.088Z" fill="#fff"/><path d="m17.04 10.401-3.358.89-.748-3.484.998-.226.394 1.652s.907-1.488-.303-3.03c-.713-.791-1.051-.825-1.85-.95-.703-.1-2.338.137-2.825 2.045-.206 1.229.026 2.139 1.61 3.329l-.088 1.325s-1.77-1.246-2.225-2.12c-.353-.69-.958-2.056.134-3.957.588-.95 1.747-1.862 3.79-1.766 1.027.043 3.535 1.298 3.146 4.23-.067.55-.353 1.282-.353 1.282l1.378-.307.3 1.087ZM15.122 18.213c-.614.934-1.797 1.815-3.835 1.666-1.027-.07-3.5-1.392-3.034-4.313.082-.547.387-1.27.387-1.27l-1.385.27-.271-1.093 3.382-.801.657 3.504-1.005.2-.35-1.664s-.947 1.462.22 3.036c.691.811 1.027.852 1.826.998.699.12 2.34-.076 2.878-1.97.237-1.222.029-2.139-1.522-3.372l.125-1.322s1.735 1.29 2.167 2.176c.332.704.9 2.086-.24 3.956Z" fill="#fff"/></svg>