<svg width="24" height="24" fill="none" xmlns="http://www.w3.org/2000/svg"><mask id="a" mask-type="alpha" maskUnits="userSpaceOnUse" x="1" y="0" width="22" height="24"><path d="M22.604 7.178a.414.414 0 0 0-.629-.353l-8.118 4.642a1.94 1.94 0 0 1 .052 1.333l2.273 1.2a1.949 1.949 0 1 1-.319.6l-2.273-1.199c-.279.358-.68.618-1.14.713l-.143 9.455a.414.414 0 0 0 .622.369l9.69-5.633-.015-11.127Zm-12.08 6.233L8.33 14.59a1.949 1.949 0 1 1-.322-.599l2.195-1.177a1.944 1.944 0 0 1 .05-1.353L2.086 6.744a.414.414 0 0 0-.63.354l.032 11.208 9.644 5.551a.414.414 0 0 0 .62-.368l-.102-9.376a1.947 1.947 0 0 1-1.125-.7Zm1.19-3.123c-.395.07-.75.257-1.024.526l-8.257-4.51a.414.414 0 0 1-.009-.722l9.63-5.577 9.723 5.576a.414.414 0 0 1-.009.723l-8.345 4.515a1.943 1.943 0 0 0-1.03-.531v-2.42a1.948 1.948 0 1 0-.68 0v2.42Z" fill="#fff"/></mask><g mask="url(#a)"><path fill-rule="evenodd" clip-rule="evenodd" d="M22.604 7.178a.414.414 0 0 0-.629-.353l-8.118 4.642a1.94 1.94 0 0 1 .052 1.333l2.273 1.2a1.949 1.949 0 1 1-.319.6l-2.273-1.199c-.279.358-.68.618-1.14.713l-.143 9.455a.414.414 0 0 0 .622.369l9.69-5.633-.015-11.127Zm-12.08 6.233L8.33 14.59a1.949 1.949 0 1 1-.322-.599l2.195-1.177a1.944 1.944 0 0 1 .05-1.353L2.086 6.744a.414.414 0 0 0-.63.354l.032 11.208 9.644 5.551a.414.414 0 0 0 .62-.368l-.102-9.376a1.947 1.947 0 0 1-1.125-.7Zm1.19-3.123c-.395.07-.75.257-1.024.526l-8.257-4.51a.414.414 0 0 1-.009-.722l9.63-5.577 9.723 5.576a.414.414 0 0 1-.009.723l-8.345 4.515a1.943 1.943 0 0 0-1.03-.531v-2.42a1.948 1.948 0 1 0-.68 0v2.42Z" fill="url(#b)"/></g><defs><linearGradient id="b" x1="4.11" y1="6.296" x2="21.431" y2="16.296" gradientUnits="userSpaceOnUse"><stop stop-color="#F75B60"/><stop offset="1" stop-color="#F14F1B"/></linearGradient></defs></svg>