<svg width="24" height="24" fill="none" xmlns="http://www.w3.org/2000/svg"><path d="M12 9.89c-1.162 0-2.11.947-2.11 2.11a.702.702 0 1 0 1.407 0c0-.39.314-.703.703-.703a.702.702 0 1 0 0-1.406Z" fill="#000"/><path d="M22.303 13.247A4.202 4.202 0 0 0 24 9.89c0-1.81-1.181-3.404-2.883-3.985-.234-2.522-2.344-4.5-4.898-4.5-.24 0-.483.019-.736.066A4.882 4.882 0 0 0 12 0c-1.308 0-2.555.53-3.483 1.472a4.561 4.561 0 0 0-.736-.066c-2.578 0-4.71 2.011-4.945 4.5A4.23 4.23 0 0 0 0 9.891c0 1.35.647 2.587 1.678 3.365C.563 13.903 0 14.662 0 15.516v.06C.047 20.227 5.41 24 12 24s11.953-3.773 12-8.428v-.061c0-.853-.572-1.617-1.697-2.264Zm.29-3.356c0 1.176-.768 2.236-1.888 2.643-1.064-.375-2.353-.68-3.792-.89a4.885 4.885 0 0 0-.347-1.482l3.956-2.967c1.214.342 2.072 1.444 2.072 2.696Zm-7.1-6.994c.262-.056.5-.084.726-.084 1.828 0 3.328 1.415 3.497 3.224L15.848 8.94a4.96 4.96 0 0 0-1.917-1.462l1.561-4.58ZM15.515 12A3.517 3.517 0 0 1 12 15.516 3.517 3.517 0 0 1 8.484 12 3.517 3.517 0 0 1 12 8.484 3.517 3.517 0 0 1 15.516 12ZM12 1.406c.82 0 1.608.296 2.236.825l-1.669 4.88A4.55 4.55 0 0 0 12 7.078c-.192 0-.38.01-.567.033L9.764 2.23A3.466 3.466 0 0 1 12 1.406ZM7.781 2.813c.225 0 .46.028.727.084l1.56 4.575a4.942 4.942 0 0 0-1.921 1.467l-3.91-2.906c.179-1.777 1.73-3.22 3.544-3.22ZM1.406 9.89c0-1.257.84-2.358 2.03-2.7l3.998 2.971a4.88 4.88 0 0 0-.342 1.482c-1.453.215-2.747.52-3.815.9a2.83 2.83 0 0 1-1.87-2.653ZM12 22.594c-4.523 0-8.395-1.946-9.91-4.594 2.663 1.331 6.891 1.734 9.91 1.734s7.247-.407 9.91-1.734c-1.552 2.714-5.48 4.594-9.91 4.594Zm0-4.266c-6.572 0-10.594-1.725-10.594-2.812 0-.305.417-.82 1.58-1.35 1.05-.474 2.522-.863 4.205-1.12.051.243.122.477.21.707a8.236 8.236 0 0 0-1.551 1.294.704.704 0 0 0 1.05.937c.005-.004.464-.51 1.19-.998A4.91 4.91 0 0 0 12 16.922c1.594 0 3.01-.76 3.91-1.936.721.487 1.185.994 1.19.998a.704.704 0 0 0 1.05-.937 8.444 8.444 0 0 0-1.552-1.294c.09-.23.16-.464.211-.708 3.938.6 5.785 1.772 5.785 2.466 0 1.078-3.966 2.817-10.594 2.817Z" fill="#000"/><path d="M22.594 9.89c0 1.177-.77 2.237-1.89 2.644-1.064-.375-2.353-.68-3.792-.89a4.885 4.885 0 0 0-.347-1.482l3.957-2.967c1.214.342 2.072 1.444 2.072 2.696ZM15.493 2.897c.262-.056.501-.084.726-.084 1.828 0 3.328 1.415 3.497 3.224L15.849 8.94a4.96 4.96 0 0 0-1.917-1.462l1.56-4.58Z" fill="#8A67AC"/><path d="M12 15.516a3.516 3.516 0 1 0 0-7.032 3.516 3.516 0 0 0 0 7.032Z" fill="#000"/><path d="M12 1.406c.82 0 1.607.296 2.236.825l-1.67 4.88A4.55 4.55 0 0 0 12 7.078c-.193 0-.38.01-.568.033L9.764 2.23A3.466 3.466 0 0 1 12 1.406ZM7.781 2.813c.225 0 .46.028.727.084l1.56 4.575a4.942 4.942 0 0 0-1.921 1.467l-3.91-2.906c.178-1.777 1.73-3.22 3.544-3.22ZM1.406 9.89c0-1.256.84-2.357 2.03-2.7l3.998 2.972a4.88 4.88 0 0 0-.342 1.482c-1.453.215-2.747.52-3.815.9a2.83 2.83 0 0 1-1.87-2.654Z" fill="#8A67AC"/><path d="M12 22.594c-4.523 0-8.395-1.946-9.91-4.594 2.663 1.331 6.891 1.734 9.91 1.734s7.247-.407 9.91-1.734c-1.552 2.714-5.48 4.594-9.91 4.594Z" fill="#8C69AF"/><path d="M12 18.328c-6.572 0-10.594-1.725-10.594-2.812 0-.305.417-.82 1.58-1.35 1.05-.474 2.522-.863 4.205-1.12.051.243.122.478.21.707a8.236 8.236 0 0 0-1.551 1.294.704.704 0 0 0 1.05.938c.005-.005.464-.511 1.19-.999A4.91 4.91 0 0 0 12 16.922c1.594 0 3.01-.76 3.91-1.936.721.487 1.185.994 1.19.998a.704.704 0 0 0 1.05-.937 8.444 8.444 0 0 0-1.552-1.294c.09-.23.16-.464.211-.708 3.938.6 5.785 1.772 5.785 2.466 0 1.078-3.966 2.817-10.594 2.817Z" fill="#B49AC9"/><path d="M11.995 15.52a3.516 3.516 0 1 0 0-7.03 3.516 3.516 0 0 0 0 7.03Z" fill="#E5E5E5"/><path d="M11.11 12.825a1.71 1.71 0 1 0 0-3.422 1.71 1.71 0 0 0 0 3.422Z" fill="url(#a)"/><defs><linearGradient id="a" x1="9.397" y1="11.114" x2="12.819" y2="11.114" gradientUnits="userSpaceOnUse"><stop offset=".006" stop-color="#F2F2F2"/><stop offset="1" stop-color="#fff"/></linearGradient></defs></svg>