<svg width="24" height="24" viewBox="0 0 24 24" fill="none" xmlns="http://www.w3.org/2000/svg">
<path fill-rule="evenodd" clip-rule="evenodd" d="M8.77703 9.18505L10.4184 7.5437C10.6003 7.3617 10.6003 7.06667 10.4184 6.88467L8.33951 4.8058H3.5227L0 8.32851V13.1213L3.5227 16.644H8.48324L17.0264 8.10083H19.1473L20.7229 9.67651V11.7075L19.1083 13.322H16.7749L15.8657 12.4129C15.6837 12.2309 15.3886 12.2309 15.2067 12.4129L13.1922 14.4273V19.2215C13.1922 19.4789 13.4009 19.6875 13.6582 19.6875H16.0692C16.3265 19.6875 16.5352 19.4789 16.5352 19.2215V17.315C16.5352 16.9312 16.8463 16.6201 17.2302 16.6201H20.5372L24 13.1573V8.32851L20.4713 4.7998H15.5766L7.06643 13.3101H4.96059L3.34449 11.694V9.67051L4.87146 8.14353H6.99751L8.13022 9.19678C8.31389 9.36753 8.59973 9.36235 8.77703 9.18505Z" fill="#ED1650"/>
</svg>
