<svg width="24" height="25" fill="none" xmlns="http://www.w3.org/2000/svg"><g clip-path="url(#a)" fill="#000"><path d="M11.365 0h1.25c1.305.086 2.602.347 3.814.836 3 1.18 5.476 3.627 6.684 6.618 1.664 3.981.95 8.838-1.827 12.151-1.88 2.307-4.643 3.878-7.593 4.277-2.768.395-5.674-.201-8.043-1.698a11.984 11.984 0 0 1-4.318-4.692C.076 15.084-.306 12.237.246 9.58c.59-2.945 2.349-5.632 4.8-7.363C6.884.888 9.11.14 11.366 0Zm-.744.544c-3.65.418-7.006 2.718-8.746 5.95a11.473 11.473 0 0 0-1.293 7.112c.402 2.924 1.992 5.659 4.32 7.468a11.49 11.49 0 0 0 6.217 2.424c2.55.203 5.161-.477 7.278-1.914 2.596-1.718 4.438-4.529 4.967-7.597.305-1.809.202-3.693-.357-5.441a11.596 11.596 0 0 0-4.753-6.231A11.471 11.471 0 0 0 10.621.544Z"/><path d="M10.91 5.27c2.086-.35 4.324.334 5.826 1.832 1.332 1.257 2.11 3.085 2.07 4.918.027 1.822-.754 3.636-2.08 4.883-1.444 1.435-3.567 2.12-5.58 1.855a6.813 6.813 0 0 1-4.748-2.884c-1.193-1.69-1.521-3.938-.902-5.908.725-2.424 2.914-4.319 5.413-4.697Zm.416.415c0 .596.002 1.192 0 1.789l.894.001c0-.612.002-1.224 0-1.835-.298.01-.597.024-.894.045Zm2.147 1.818c.783.105 1.626.225 2.25.754.955.857.831 2.656-.336 3.278.7.163 1.392.63 1.565 1.364.224.964.045 2.12-.729 2.8-.767.631-1.805.714-2.753.804.005.558.003 1.116.001 1.675 1.996-.488 3.718-1.974 4.45-3.896.695-1.774.53-3.86-.45-5.494-.866-1.474-2.34-2.556-3.995-2.971-.005.561-.005 1.123-.003 1.686Zm-5.956-.024c.864.042 1.729.032 2.594.03 0-.526.001-1.052-.002-1.578-.969.314-1.831.878-2.592 1.548Zm-.104.07c-.229.281-.654.814-.906 1.286-1.016 1.731-1.131 3.954-.283 5.776.732 1.633 2.184 2.904 3.885 3.45.002-.525.001-1.05.001-1.575-.868-.008-1.738.023-2.604-.024.01-.483.123-.956.288-1.412.425-.009.868.066 1.278-.073.24-.202.172-.536.185-.812-.013-1.578.006-3.156-.009-4.733.016-.254-.144-.529-.408-.58-.435-.087-.884-.052-1.325-.056a8.212 8.212 0 0 1-.062-1.073s.006-.112-.032-.186l-.008.011Zm3.95 1.355v2.326c.776-.014 1.638.072 2.317-.38.564-.369.528-1.304-.054-1.636-.68-.402-1.51-.288-2.263-.31Zm0 3.578v2.58c.959-.077 2.034.084 2.868-.495.597-.396.524-1.376-.09-1.72-.835-.498-1.85-.34-2.778-.365Zm-.035 4.04-.002 1.79c.31.02.62.032.93.042.003-.611.002-1.222.002-1.833h-.93Z"/><path d="M10.69 1.167c2.103-.226 4.28.094 6.168 1.064a10.892 10.892 0 0 1 5.331 5.865 10.985 10.985 0 0 1-.056 7.956c-1.539 3.976-5.601 6.835-9.878 6.84-2.512.092-5.04-.753-7.006-2.316a10.878 10.878 0 0 1-3.996-6.688c-.457-2.594.055-5.35 1.442-7.593 1.696-2.813 4.733-4.757 7.995-5.128Zm-.366 3.52a7.492 7.492 0 0 0-5.77 8.196 7.45 7.45 0 0 0 2.978 5.142 7.483 7.483 0 0 0 5.454 1.407c2.358-.288 4.526-1.79 5.627-3.896.824-1.502 1.05-3.288.747-4.964a7.516 7.516 0 0 0-3.42-4.958c-1.654-1.03-3.719-1.36-5.616-.926Z"/></g><defs><clipPath id="a"><path fill="#fff" d="M0 0h24v24.001H0z"/></clipPath></defs></svg>