<svg width="24" height="24" fill="none" xmlns="http://www.w3.org/2000/svg"><g clip-path="url(#a)" fill="#CD0124"><path d="M14.24 12.56c0-.16 0-.24-.16-.32-.56-.4-1.2-.8-1.76-1.2a.36.36 0 0 0-.4 0l-1.76 1.28a.44.44 0 0 0-.24.4.856.856 0 0 1-.16.48.36.36 0 0 0 0 .4c.64 1.28 1.2 2.56 1.84 3.84.24.4.4.88.64 1.36.08-.08.08-.16.16-.24.72-1.6 1.36-3.2 2.08-4.8.08-.16.08-.24-.08-.32a1.048 1.048 0 0 1-.16-.88ZM11.52 10.48C9.92 9.36 8.32 8.24 6.8 7.2l-.08.08c.08.16.08.24.16.4l1.68 3.6c.16.32.24.64.72.72a.72.72 0 0 0 .4-.08c.48-.4 1.04-.72 1.52-1.12l.32-.32Z"/><path d="M12 0a12 12 0 1 0 0 24 12 12 0 0 0 0-24Zm6.48 6.96c-.16 0-.24.08-.32.24-.64 1.6-1.36 3.2-2 4.8v.32a1.04 1.04 0 0 1-.64 1.44c-.08 0-.16.08-.24.24-.72 1.6-1.44 3.28-2.08 4.88a.36.36 0 0 0 0 .4 1.008 1.008 0 0 1-.16 1.36.976.976 0 0 1-1.28.08.92.92 0 0 1-.24-1.28.512.512 0 0 0 0-.48c-.8-1.6-1.52-3.2-2.32-4.8a.56.56 0 0 0-.4-.32 1.024 1.024 0 0 1-.72-1.52.36.36 0 0 0 0-.4c-.72-1.6-1.44-3.12-2.24-4.72 0-.08-.08-.16-.32-.16a1.024 1.024 0 0 1-.88-.96 1.232 1.232 0 0 1 .72-1.04.992.992 0 0 1 1.2.4c.08.16.16.16.4.16h10.16c.16 0 .32 0 .4-.24a.92.92 0 0 1 1.12-.4 1.12 1.12 0 0 1 .72.96 1.04 1.04 0 0 1-.88 1.04Z"/><path d="M12 9.92a.36.36 0 0 0 .4 0c1.52-1.12 3.04-2.16 4.48-3.28.08-.08.16-.08.16-.16V6.4H6.96a.616.616 0 0 1 .24.16L12 9.92ZM12.8 10.48c.64.48 1.28.88 1.92 1.28.16.08.4 0 .64 0 .08 0 .16-.16.16-.24.56-1.28 1.12-2.64 1.68-3.92 0-.08.08-.16.08-.24h-.08c-1.36.96-2.88 2-4.4 3.12Z"/></g><defs><clipPath id="a"><path fill="#fff" d="M0 0h24v24H0z"/></clipPath></defs></svg>