<svg width="24" height="24" viewBox="0 0 24 24" fill="none" xmlns="http://www.w3.org/2000/svg">
<mask id="mask0" mask-type="alpha" maskUnits="userSpaceOnUse" x="0" y="1" width="24" height="22">
<path d="M0 1.91992H23.8657V22.3763H0V1.91992Z" fill="white"/>
</mask>
<g mask="url(#mask0)">
<path fill-rule="evenodd" clip-rule="evenodd" d="M23.0915 6.59037C20.7612 1.8491 13.8763 0.493606 7.71364 3.56305C1.55075 6.63275 -1.55597 12.9647 0.774326 17.7059C3.10462 22.4475 9.98956 23.8027 16.1522 20.7333C22.3148 17.6638 25.4218 11.3316 23.0915 6.59037ZM15.8111 19.8368C11.3379 22.0648 6.02292 20.4353 3.94003 16.197C1.85713 11.959 3.79475 6.71727 8.26794 4.48935C12.7411 2.26118 18.0559 3.89088 20.139 8.12893C22.2219 12.367 20.284 17.6089 15.8111 19.8368ZM16.862 11.852L9.04615 7.07727C8.81024 6.94935 8.52352 7.12016 8.52352 7.3885V16.9096C8.52352 17.1779 8.81024 17.3485 9.04615 17.2206L16.862 12.4742C17.1086 12.3402 17.1086 11.9858 16.862 11.852Z" fill="#454545"/>
</g>
</svg>
