<svg width="24" height="24" fill="none" xmlns="http://www.w3.org/2000/svg"><path d="m23 14.401-4.158 4.157v-.34a.642.642 0 0 0-.192-.467l-.493-.48 3.85-3.851a2.008 2.008 0 0 0 0-2.835L13.406 1.98a2.007 2.007 0 0 0-2.834 0l-8.597 8.601a2.008 2.008 0 0 0 0 2.835l8.604 8.604a2.004 2.004 0 0 0 2.833 0l3.207-3.207.166.12-.02 1.76-2.335 2.304a3.425 3.425 0 0 1-4.828 0L.995 14.4a3.4 3.4 0 0 1 0-4.8L9.594.995a3.397 3.397 0 0 1 4.8 0L23 9.6a3.401 3.401 0 0 1 0 4.8Z" fill="#1EB3DE"/><path d="m18.659 17.751-.494-.48-4.603-4.515a1.743 1.743 0 1 0-.941.869l2.476 2.429 2.232 2.049.216.199a.305.305 0 0 1 .1.24l-.003 1.25v2.589l-.036.524a.654.654 0 0 0 .6.697h.01a.682.682 0 0 0 .64-.676v-4.693a.666.666 0 0 0-.198-.482Z" fill="#1EB3DE"/><path d="M11.948 12.961a.96.96 0 1 1 .053 0h-.053Z" fill="#1EB3DE"/></svg>