<svg width="24" height="24" fill="none" xmlns="http://www.w3.org/2000/svg"><path d="M12 24c6.627 0 12-5.373 12-12S18.627 0 12 0 0 5.373 0 12s5.373 12 12 12Z" fill="#36A9CF"/><path fill-rule="evenodd" clip-rule="evenodd" d="M19.733 13.856c.132.058.18.237.11.4a.333.333 0 0 1-.26.209l-1.668 3.077a.403.403 0 0 1-.122.382.408.408 0 0 1-.322.125l-3.254 1.948a.393.393 0 0 1-.307.245c-.16.03-.314-.028-.387-.137l-3.824-.267a.4.4 0 0 1-.338.07c-.189-.041-.32-.192-.312-.347l-2.954-2.132a.395.395 0 0 1-.345-.105c-.13-.117-.176-.287-.126-.416L4.409 14.09c-.133-.026-.248-.156-.278-.329-.025-.155.026-.301.122-.38l.179-4.265a.409.409 0 0 1-.053-.387c.06-.174.205-.285.348-.277L7.916 5.11c-.028-.158.092-.325.28-.384a.4.4 0 0 1 .353.047l4.588-.834c.06-.135.227-.215.409-.182.165.028.289.141.318.272l2.12 1.209a.427.427 0 0 1 .354.043.44.44 0 0 1 .215.321l.912.614a.397.397 0 0 1 .345.067c.17.123.232.338.135.48l-.006.008 1.337 2.61c.128-.017.258.082.305.238.05.172-.02.347-.157.39-.137.045-.289-.058-.34-.23l-.008-.037-2.752-1.473a.422.422 0 0 1-.173.14v7.346a.425.425 0 0 1 .244.48l1.117 1.14a.355.355 0 0 1 .181-.026l1.688-2.982a.338.338 0 0 1-.016-.321c.072-.164.237-.248.368-.19Zm.003.357c.028-.066.008-.138-.044-.16-.053-.023-.119.01-.148.076-.028.065-.009.136.045.16.052.023.117-.011.147-.076Zm-1.999 3.594c.06-.06.07-.149.023-.198-.047-.05-.134-.042-.195.018-.06.06-.07.149-.023.198.047.05.135.042.195-.018Zm-.472-.188.008-.018-1.071-1.09a.404.404 0 0 1-.436-.004.413.413 0 0 1-.152-.175h-1.439a.424.424 0 0 1-.172.186l.14 2.03a.401.401 0 0 1 .143.102l2.98-1.03Zm-3.126 2.09 2.6-1.557-2.37.819a.39.39 0 0 1-.234.263l-.072.423a.331.331 0 0 1 .076.052Zm-.243.403c.082-.015.138-.082.126-.151-.012-.068-.09-.111-.172-.095-.082.015-.139.083-.127.15.013.07.09.112.172.096Zm-.379-.298a.397.397 0 0 1 .22-.173l.068-.401a.417.417 0 0 1-.16-.107l-2.983.482 2.855.199Zm-2.79-3.252-.97 2.862 3.761-.607-2.662-2.31a.415.415 0 0 1-.13.055Zm-1.249 2.666.925-2.73a.418.418 0 0 1-.14-.167H8.57a.52.52 0 0 1-.035.06l.943 2.837Zm-.115.551c.083.018.16-.022.174-.09.015-.067-.04-.137-.122-.156-.083-.017-.16.023-.175.09-.014.07.04.138.123.156ZM6.298 17.22l2.854 2.06-.902-2.712a.412.412 0 0 1-.355-.128l-1.592.694a.33.33 0 0 1-.004.086h-.001Zm-.267-.448c.04.018.078.041.112.07l1.638-.713a.432.432 0 0 1 .075-.227l-2.532-2.616.707 3.486Zm-.017.456c.045-.05.03-.14-.033-.196-.063-.056-.15-.06-.195-.01-.045.053-.031.142.032.198.063.056.15.06.195.008Zm-1.343-3.25.872 2.02-.585-2.878-.23.49a.43.43 0 0 1-.057.369Zm-.02-3.254-.106 2.514.209-.443a.418.418 0 0 1 .017-.42l-.12-1.651ZM4.5 8.735c-.03.081.001.165.065.189.065.022.138-.024.166-.105.028-.081-.002-.165-.066-.189-.065-.022-.138.024-.167.105H4.5Zm.632 3.865c0-.085-.062-.154-.137-.154-.076 0-.138.069-.138.154 0 .086.062.155.138.155.075 0 .137-.069.137-.155Zm-.172-3.664a.45.45 0 0 1-.103.17l.217 2.992L6.41 7.877l-1.428.97a.49.49 0 0 1-.021.089Zm2.27-2.69L5.404 8.16l.935-.634a.448.448 0 0 1 .333-.37l.557-.908Zm.94-.904L6.98 7.278a.312.312 0 0 1 .035.175l.882.27a.41.41 0 0 1 .672.112h1.476a.418.418 0 0 1 .292-.233l.802-1.705a.429.429 0 0 1-.083-.195l-2.45-.543a.429.429 0 0 1-.232.168.438.438 0 0 1-.204.015Zm.043-.49c-.08.025-.129.099-.11.165.021.067.102.1.181.075.08-.025.13-.1.11-.165-.02-.067-.1-.1-.18-.075Zm4.686-.573-3.699.673 1.935.429a.411.411 0 0 1 .469-.145l1.295-.957Zm.454.073-1.38 1.02 3.784.105.009-.029-2.006-1.143a.409.409 0 0 1-.32.071.442.442 0 0 1-.087-.024Zm.179-.465c-.083-.015-.16.029-.171.098-.012.067.044.135.128.15.082.015.159-.029.17-.098.013-.067-.045-.135-.127-.15Zm2.424 2.044a.464.464 0 0 1-.131-.121l-3.947-.11a.37.37 0 0 1-.016.07l1.593 1.836a.416.416 0 0 1 .465.23h1.693a.421.421 0 0 1 .2-.202l.143-1.703Zm.03 1.919a.168.168 0 0 0-.165.17c0 .094.075.17.165.17a.168.168 0 0 0 .167-.17.169.169 0 0 0-.166-.17Zm.074-2.4c-.04.072-.01.17.07.216.078.048.177.027.217-.045.042-.072.011-.17-.068-.216-.08-.048-.177-.027-.219.045Zm2.937 3.988-2.72-3.44-.138 1.627a.425.425 0 0 1 .263.36l2.595 1.453Zm-1.72-2.998-.61-.41 1.97 2.566-.959-1.715a.435.435 0 0 1-.222-.082c-.127-.09-.195-.233-.18-.359h.001Zm.285-.042c-.039.057-.015.142.054.192.068.048.156.042.195-.015.039-.057.015-.143-.053-.192-.07-.048-.157-.042-.195.015h-.001ZM13.386 8.02c0 .091.07.166.162.166a.165.165 0 0 0 .162-.166.165.165 0 0 0-.163-.167.165.165 0 0 0-.162.167Zm.089 3.58a.169.169 0 0 0-.167.17c0 .093.075.17.167.17a.168.168 0 0 0 .165-.17.167.167 0 0 0-.165-.17Zm-2.173-6.018c0 .093.074.17.166.17a.168.168 0 0 0 .166-.17.169.169 0 0 0-.166-.17.168.168 0 0 0-.166.17Zm.122.477-.761 1.617a.426.426 0 0 1 .115.56l2.535 3.142a.432.432 0 0 1 .072-.023V8.411a.425.425 0 0 1-.193-.61L11.647 6.02a.415.415 0 0 1-.223.04Zm-1.17 1.96c0 .095.075.17.166.17.09 0 .166-.075.166-.17a.169.169 0 0 0-.166-.17.169.169 0 0 0-.166.17Zm-2.22 0c0 .092.071.167.161.167.09 0 .163-.075.163-.166a.164.164 0 0 0-.163-.167.164.164 0 0 0-.162.167Zm.161 7.958a.167.167 0 0 0-.165.17c0 .094.074.17.165.17a.167.167 0 0 0 .155-.106.168.168 0 0 0 .012-.064.167.167 0 0 0-.167-.17ZM6.548 7.382c-.054.065-.059.154-.007.2.05.045.136.031.192-.034.055-.064.06-.153.008-.199-.05-.046-.136-.031-.193.033ZM5.33 12.377a.417.417 0 0 1 .063.223.417.417 0 0 1-.061.221l2.701 2.792V8.41a.424.424 0 0 1-.252-.376l-.917-.281a.434.434 0 0 1-.094.065l-1.44 4.558Zm8.47 3.345c.18 0 .332.116.39.277H15.6a.422.422 0 0 1 .226-.243V8.411a.419.419 0 0 1-.226-.243h-1.662a.423.423 0 0 1-.227.243v3.007a.427.427 0 0 1 .18.351.42.42 0 0 1-.415.425.42.42 0 0 1-.389-.575l-2.57-3.186a.416.416 0 0 1-.486-.265H8.585a.424.424 0 0 1-.227.243v7.345a.422.422 0 0 1 .227.243h1.662a.423.423 0 0 1 .227-.243v-3.052a.426.426 0 0 1-.17-.523.419.419 0 0 1 .582-.215.42.42 0 0 1 .195.523l2.612 3.248a.446.446 0 0 1 .107-.015Zm.18 3.035c-.09 0-.165.067-.165.151 0 .084.075.151.165.151.092 0 .168-.067.168-.15 0-.082-.075-.152-.167-.152Zm-.346-2.61c0 .094.075.17.165.17a.17.17 0 0 0 .155-.105.168.168 0 0 0 .013-.065.167.167 0 0 0-.167-.17.168.168 0 0 0-.166.17Zm-3.11-3.805c0 .094.075.17.167.17a.168.168 0 0 0 .165-.17.167.167 0 0 0-.165-.17.168.168 0 0 0-.167.17Zm.113 3.635a.167.167 0 0 0-.155.105.17.17 0 0 0-.012.065c0 .094.075.17.167.17a.168.168 0 0 0 .165-.17.167.167 0 0 0-.165-.17Zm.162-.22a.424.424 0 0 1 .244.477l2.695 2.338a.437.437 0 0 1 .077-.036l-.138-1.983a.425.425 0 0 1-.24-.61l-2.582-3.21a.36.36 0 0 1-.056.019v3.004Zm5.355.39a.168.168 0 0 0-.166-.17.167.167 0 0 0-.154.105.167.167 0 0 0-.012.065c0 .094.075.17.166.17a.168.168 0 0 0 .166-.17ZM4.37 13.88c.068-.01.11-.089.096-.173-.015-.085-.08-.144-.147-.132-.067.011-.11.09-.095.174.013.085.08.144.146.131Zm14.98-4.285c-.055.017-.083.088-.063.156.02.068.081.11.135.092.056-.017.083-.088.063-.156-.02-.069-.081-.11-.135-.092Z" fill="#fff"/></svg>