<svg width="24" height="24" fill="none" xmlns="http://www.w3.org/2000/svg"><path fill-rule="evenodd" clip-rule="evenodd" d="m.592 12.032 11.376 11.376 11.376-11.376L11.968.656.592 12.032Zm11.376 11.941a.233.233 0 0 1-.166-.068L.095 12.197a.234.234 0 0 1 0-.33L11.802.158a.234.234 0 0 1 .331 0l11.708 11.707a.234.234 0 0 1 0 .331L12.133 23.905a.233.233 0 0 1-.165.068Z" fill="#00C0AC"/><path fill-rule="evenodd" clip-rule="evenodd" d="M1.334 11.798H8.31l2.5-4.343-9.477 4.343Zm7.112.468H.261a.234.234 0 0 1-.098-.447l11.12-5.095a.234.234 0 0 1 .3.33L8.65 12.149a.234.234 0 0 1-.203.117ZM15.594 12.266l-2.501 4.343 9.478-4.343h-6.977Zm-3.07 5.095a.234.234 0 0 1-.203-.35l2.935-5.096a.234.234 0 0 1 .203-.117h8.185a.234.234 0 0 1 .098.447l-11.12 5.095a.233.233 0 0 1-.098.021Z" fill="#00C0AC"/><path fill-rule="evenodd" clip-rule="evenodd" d="m2.103 6.365 4.198 15.53L21.83 17.7 17.635 2.167 2.104 6.365Zm4.033 16.052a.234.234 0 0 1-.226-.173L1.59 6.261a.234.234 0 0 1 .165-.287l15.983-4.32a.233.233 0 0 1 .287.165l4.32 15.983a.234.234 0 0 1-.165.287L6.197 22.41a.235.235 0 0 1-.061.008Z" fill="#00C0AC"/><path fill-rule="evenodd" clip-rule="evenodd" d="M4.532 7.994c-.04 0-.08-.01-.117-.03L1.7 6.402a.234.234 0 1 1 .233-.406l2.716 1.56a.234.234 0 0 1-.117.437ZM22.092 18.082c-.04 0-.08-.01-.116-.031l-2.693-1.547a.234.234 0 0 1 .233-.406l2.693 1.547a.234.234 0 0 1-.117.437ZM19.37 7.98a.234.234 0 0 1-.118-.437l2.713-1.565a.234.234 0 1 1 .234.406l-2.713 1.565a.233.233 0 0 1-.117.031ZM1.828 18.101a.234.234 0 0 1-.117-.437l2.69-1.552a.234.234 0 1 1 .234.406l-2.69 1.552a.233.233 0 0 1-.117.031ZM11.976 3.698a.235.235 0 0 1-.237-.234l.007-3.132c0-.13.106-.234.237-.234.13 0 .236.105.236.235l-.007 3.132a.235.235 0 0 1-.236.233ZM11.932 23.95a.235.235 0 0 1-.237-.235l.007-3.106c0-.13.106-.234.237-.234.13 0 .237.106.236.235l-.006 3.107a.236.236 0 0 1-.237.233Z" fill="#00C0AC"/><path fill-rule="evenodd" clip-rule="evenodd" d="m2.128 17.74 15.549 4.132 4.13-15.55L6.26 2.193 2.128 17.74Zm15.715 4.652a.237.237 0 0 1-.06-.008l-16.002-4.25a.234.234 0 0 1-.166-.287L5.866 1.845a.234.234 0 0 1 .287-.166L22.154 5.93a.234.234 0 0 1 .167.287l-4.252 16.001a.234.234 0 0 1-.226.174Z" fill="#00C0AC"/><path fill-rule="evenodd" clip-rule="evenodd" d="m6.834 2.716 3.501 6.035 5.011-.016-8.512-6.019ZM10.2 9.22a.234.234 0 0 1-.203-.117L5.89 2.023a.234.234 0 0 1 .338-.309l9.987 7.062a.234.234 0 0 1-.134.425l-5.88.019ZM8.574 15.302l8.513 6.018-3.502-6.034-5.01.016Zm9.254 7.063a.233.233 0 0 1-.135-.042L7.705 15.26a.234.234 0 0 1 .135-.425l5.88-.02c.083 0 .16.045.202.117l4.108 7.08a.234.234 0 0 1-.202.352Z" fill="#00C0AC"/><path fill-rule="evenodd" clip-rule="evenodd" d="m2.148 6.288 4.076 15.564 15.564-4.077L17.71 2.212 2.148 6.288Zm3.91 16.084a.234.234 0 0 1-.227-.175L1.636 6.18a.234.234 0 0 1 .167-.285L17.819 1.7a.234.234 0 0 1 .286.167L22.3 17.883a.234.234 0 0 1-.167.286L6.116 22.364a.235.235 0 0 1-.059.008Z" fill="#00C0AC"/><path fill-rule="evenodd" clip-rule="evenodd" d="m14.016 8.993 2.486 4.351L17.54 2.972l-3.523 6.022Zm2.646 5.338a.234.234 0 0 1-.203-.118l-2.916-5.105a.234.234 0 0 1 0-.234l4.133-7.066a.234.234 0 0 1 .435.141L16.895 14.12a.234.234 0 0 1-.233.211ZM7.45 10.692 6.412 21.066l3.522-6.022-2.486-4.352ZM6.072 22.345a.234.234 0 0 1-.233-.258l1.216-12.17a.234.234 0 0 1 .437-.093l2.916 5.105a.234.234 0 0 1-.001.234l-4.133 7.066a.234.234 0 0 1-.202.116Z" fill="#00C0AC"/></svg>