<svg width="24" height="24" viewBox="0 0 24 24" fill="none" xmlns="http://www.w3.org/2000/svg">
<g clip-path="url(#clip0)">
<path d="M1.71447e-05 11.9888C-0.00535887 15.1714 1.25377 18.2258 3.5004 20.48C5.74704 22.7343 8.79715 24.0037 11.9797 24.0091C15.1623 24.0145 18.2167 22.7553 20.471 20.5087C22.7252 18.2621 23.9946 15.212 24 12.0294V11.9386C23.9996 11.0155 23.8908 10.0957 23.6757 9.19802C23.588 8.87566 23.3786 8.59994 23.0916 8.42894C22.8046 8.25795 22.4624 8.20503 22.1372 8.28135C21.812 8.35766 21.5291 8.55725 21.3481 8.83805C21.1671 9.11886 21.1022 9.45895 21.167 9.78666C21.6522 11.7863 21.4709 13.8896 20.6507 15.7767C19.8304 17.6637 18.4161 19.2311 16.623 20.2403C14.8299 21.2496 12.7562 21.6454 10.7174 21.3676C8.67864 21.0898 6.78645 20.1535 5.32879 18.7012C3.87114 17.249 2.92782 15.3603 2.6424 13.3226C2.35698 11.2849 2.74508 9.20968 3.74765 7.41284C4.75021 5.616 6.31234 4.19588 8.19632 3.36859C10.0803 2.5413 12.183 2.35215 14.1843 2.82991C14.5161 2.90732 14.865 2.8501 15.1547 2.67077C15.4443 2.49145 15.6511 2.20463 15.7297 1.87315C15.7697 1.70977 15.7768 1.54008 15.7506 1.37393C15.7244 1.20779 15.6655 1.04851 15.5772 0.90533C15.4889 0.762153 15.3731 0.637939 15.2365 0.5399C15.0998 0.441861 14.945 0.371951 14.7811 0.334231C13.2498 -0.0337619 11.661 -0.0963613 10.1055 0.150011C8.55006 0.396383 7.05838 0.946895 5.71577 1.77008C4.37317 2.59327 3.20595 3.67298 2.28086 4.94751C1.35576 6.22204 0.690924 7.6664 0.324341 9.19802C0.109795 10.1128 0.000974719 11.0492 1.71447e-05 11.9888Z" fill="url(#paint0_linear)"/>
<path d="M18.0944 3.15736C18.0733 3.17844 18.0636 3.19953 18.0522 3.20926C17.7568 3.52286 17.5752 3.92661 17.5366 4.35574V4.56169C17.5366 4.61358 17.5268 4.65412 17.5268 4.70601C17.4828 5.15933 17.3497 5.59948 17.1351 6.00122C16.9206 6.40296 16.6288 6.75837 16.2765 7.04706C15.9243 7.33574 15.5185 7.55201 15.0824 7.68346C14.6463 7.81491 14.1886 7.85894 13.7355 7.81304C13.5827 7.79969 13.431 7.77585 13.2814 7.74169C13.1934 7.72339 13.1067 7.69901 13.022 7.66872C12.6543 7.57595 12.2756 7.53447 11.8966 7.54547C10.7912 7.56709 9.73207 7.99282 8.91926 8.74223C8.87872 8.78277 8.82683 8.8152 8.78467 8.86547C8.33984 9.27644 7.98257 9.77299 7.73429 10.3254C7.486 10.8777 7.35181 11.4746 7.33976 12.0801C7.32771 12.6856 7.43804 13.2872 7.66415 13.8491C7.89025 14.4109 8.22748 14.9213 8.6556 15.3496C9.08372 15.778 9.59393 16.1154 10.1556 16.3418C10.7173 16.5682 11.319 16.6789 11.9245 16.6671C12.53 16.6554 13.1269 16.5215 13.6794 16.2735C14.2319 16.0255 14.7286 15.6685 15.1398 15.2238C15.3257 15.0361 15.495 14.8327 15.6457 14.6157C16.0084 14.0941 16.2567 13.5017 16.3743 12.8774C16.492 12.253 16.4763 11.6109 16.3285 10.993C16.3028 10.9116 16.2817 10.8287 16.2652 10.7449C16.2652 10.7336 16.2555 10.7239 16.2555 10.7028C16.1523 10.2587 16.1377 9.79864 16.2128 9.34896C16.2878 8.89928 16.451 8.46885 16.6928 8.08238C16.9346 7.69591 17.2504 7.361 17.622 7.09688C17.9936 6.83277 18.4137 6.64464 18.8582 6.54331C19.0177 6.50418 19.1806 6.48029 19.3447 6.47196L19.416 6.46061C19.4882 6.4525 19.5607 6.44925 19.6333 6.45088H19.6544C20.1027 6.40789 20.5222 6.21074 20.8414 5.89304C20.9144 5.81034 20.9874 5.73088 21.049 5.64493C21.1967 5.43803 21.302 5.20387 21.3586 4.95601C21.4152 4.70815 21.422 4.45152 21.3788 4.20099C21.3355 3.95046 21.2429 3.71101 21.1064 3.49651C20.9699 3.28202 20.7922 3.09674 20.5836 2.95142C20.2104 2.68825 19.7566 2.56468 19.3016 2.60233C18.8465 2.63998 18.4192 2.83645 18.0944 3.15736Z" fill="url(#paint1_linear)"/>
</g>
<defs>
<linearGradient id="paint0_linear" x1="20.9368" y1="3.18018" x2="3.09894" y2="20.7748" gradientUnits="userSpaceOnUse">
<stop offset="0.09" stop-color="#00EDD3"/>
<stop offset="0.41" stop-color="#1B456E"/>
</linearGradient>
<linearGradient id="paint1_linear" x1="20.942" y1="2.94331" x2="8.45548" y2="15.592" gradientUnits="userSpaceOnUse">
<stop offset="0.4" stop-color="#00EDD3"/>
<stop offset="0.89" stop-color="#1B456E"/>
</linearGradient>
<clipPath id="clip0">
<rect width="24" height="24" fill="white"/>
</clipPath>
</defs>
</svg>
