<svg width="24" height="24" fill="none" xmlns="http://www.w3.org/2000/svg"><path d="M12 24c6.627 0 12-5.373 12-12S18.627 0 12 0 0 5.373 0 12s5.373 12 12 12Z" fill="#F2941B"/><path d="M12.425 3.75h.008c1.554 1.537 3.09 3.09 4.636 4.636h3.855L12.245 20.68c-.144-1.443-.255-2.887-.383-4.33 1.258-1.808 2.548-3.6 3.805-5.4l-2.87-2.861a6.677 6.677 0 0 0-.085-1.01c-.093-1.104-.153-2.225-.288-3.329ZM3.008 16.095c2.912-4.092 5.8-8.201 8.703-12.302l.365 4.347c-1.265 1.808-2.538 3.591-3.803 5.391.942.942 1.884 1.902 2.844 2.844.128 1.444.238 2.904.383 4.357h-.018l-4.61-4.62c-1.29.018-2.581-.008-3.872.018v-.035h.008Z" fill="#fff"/></svg>