<svg width="24" height="24" fill="none" xmlns="http://www.w3.org/2000/svg"><path d="M0 0h24v24H0V0Z" fill="#EFD96F"/><path d="M17.076 8.784c-2.736 0-4.992 2.196-7.032 4.02-.588-.516-1.248-1.152-1.752-1.752-.048-.06-.12-.072-.156-.048a.103.103 0 0 0-.012.156 25.846 25.846 0 0 0 1.68 1.86C8.712 14.052 7.044 15.3 5.7 15.3c-2.712 0-2.724-3.756-.348-4.464.108-.024.108-.156 0-.12-3.108.768-2.94 5.148.408 5.148 1.596 0 3.06-1.068 4.536-2.328 1.596 1.44 3.612 2.616 6.204 2.616 6.576 0 6.384-7.368.576-7.368Zm-.624 6.804c-2.076-.012-4.092-.924-5.856-2.304 2.004-1.74 4.032-3.732 6.42-3.732 4.656 0 4.776 6.072-.564 6.036Z" fill="#333"/><path d="M6.768 11.292a.96.96 0 1 0 0-1.92.96.96 0 0 0 0 1.92Z" fill="#333"/></svg>