<svg width="24" height="24" fill="none" xmlns="http://www.w3.org/2000/svg"><g clip-path="url(#a)" fill="#FF4A4A"><path d="M15.379 15.005h-1.017a.347.347 0 0 1-.348-.349v-2.673l-1.779 1.111a.46.46 0 0 1-.49 0l-1.769-1.11v2.672c0 .189-.15.349-.348.349H8.621a.347.347 0 0 1-.348-.349V9.5c0-.254.207-.461.461-.461.094 0 .179.028.254.084l2.805 1.93a.325.325 0 0 0 .386 0l2.804-1.93a.466.466 0 0 1 .725.377v5.157a.332.332 0 0 1-.33.349ZM6.758 14.995H.452a.462.462 0 0 1-.461-.46V9.347A.356.356 0 0 1 .348 9h1.017c.188 0 .348.15.348.348v3.944h3.821V9.348c0-.188.15-.348.348-.348h.989c.188 0 .348.15.348.348v5.186a.462.462 0 0 1-.461.461ZM17.242 9h6.306c.254 0 .462.207.462.461v5.186c0 .188-.151.348-.34.348h-1.016a.347.347 0 0 1-.348-.348V10.93a.23.23 0 0 0-.226-.226h-3.36a.23.23 0 0 0-.226.226v3.718c0 .188-.15.348-.348.348h-1.017a.347.347 0 0 1-.348-.348V9.461c0-.254.207-.461.461-.461Z"/><path d="M19.887 11.795h1.007c.189 0 .349.151.349.349v1.025c0 .189-.151.349-.349.349h-1.007a.347.347 0 0 1-.348-.349v-1.035c0-.188.16-.339.348-.339Z"/></g><defs><clipPath id="a"><path fill="#fff" d="M0 0h24v24H0z"/></clipPath></defs></svg>