<svg width="24" height="24" viewBox="0 0 24 24" fill="none" xmlns="http://www.w3.org/2000/svg">
<path d="M11.9992 23.9985C18.6263 23.9985 23.9985 18.6263 23.9985 11.9992C23.9985 5.37225 18.6263 0 11.9992 0C5.37225 0 0 5.37225 0 11.9992C0 18.6263 5.37225 23.9985 11.9992 23.9985Z" fill="#F04086"/>
<path d="M17.5773 12.5653C17.1048 12.0433 16.4253 11.7193 15.5373 11.5933V11.5745C16.315 11.4485 16.9263 11.1298 17.3418 10.6198C17.7634 10.114 17.9925 9.47529 17.9883 8.81679C17.9883 7.72104 17.6358 6.97629 16.9053 6.39054C16.1748 5.80554 15.0783 5.61279 13.5925 5.61279H7.98177V10.835H4.75977V12.8353H13.555C14.2473 12.8353 14.767 12.884 15.1105 13.1608C15.454 13.4375 15.6295 13.7953 15.6295 14.324C15.6295 14.8528 15.4563 15.3043 15.1105 15.5878C14.7655 15.8705 14.245 16.0573 13.555 16.0573H10.537V14.5018H7.98177V18.0575H13.777C15.2508 18.0575 16.3773 17.6728 17.1588 17.075C17.9395 16.4773 18.3063 15.5945 18.3063 14.5108C18.316 13.7938 18.0558 13.0994 17.5773 12.5653ZM13.2325 10.8298H10.537V7.60779H13.2325C14.6185 7.60779 15.31 8.14854 15.31 9.21879C15.31 10.289 14.6185 10.8298 13.2325 10.8298Z" fill="white"/>
</svg>
