<svg width="24" height="24" fill="none" xmlns="http://www.w3.org/2000/svg"><path d="M12 23.998c6.626 0 11.998-5.372 11.998-11.999C23.998 5.372 18.627 0 12 0 5.372 0 0 5.372 0 12c0 6.626 5.372 11.998 12 11.998Z" fill="#F04086"/><path d="M17.577 12.565c-.472-.522-1.152-.846-2.04-.972v-.018c.778-.127 1.39-.445 1.805-.955.421-.506.65-1.145.646-1.803 0-1.096-.352-1.84-1.083-2.426-.73-.585-1.827-.778-3.313-.778h-5.61v5.222H4.76v2h8.795c.692 0 1.212.049 1.556.326.343.277.518.634.518 1.163s-.173.98-.518 1.264c-.346.283-.866.47-1.556.47h-3.018v-1.556H7.982v3.556h5.795c1.474 0 2.6-.385 3.382-.983.78-.598 1.147-1.48 1.147-2.564a2.858 2.858 0 0 0-.729-1.946Zm-4.345-1.735h-2.695V7.608h2.695c1.386 0 2.078.54 2.078 1.61 0 1.071-.692 1.612-2.078 1.612Z" fill="#fff"/></svg>