<svg width="24" height="24" fill="none" xmlns="http://www.w3.org/2000/svg"><path d="M12 24c6.627 0 12-5.373 12-12S18.627 0 12 0 0 5.373 0 12s5.373 12 12 12Z" fill="#00AEEF"/><path d="M11.82 11.03c.178-.031.336-.098.474-.2.138-.1.268-.271.39-.505l2.72-5.24a1.45 1.45 0 0 1 .386-.425.9.9 0 0 1 .526-.16h1.724l-3.386 6.164c-.15.253-.32.46-.51.62-.19.157-.405.28-.638.361.363.094.667.246.915.46.245.21.478.507.695.889l3.259 6.506h-1.898c-.383 0-.691-.206-.924-.615l-2.671-5.513c-.138-.246-.288-.42-.45-.527a1.257 1.257 0 0 0-.611-.183v2.798h-1.492v-2.81H9.232v6.85H7.125v-15h2.107v6.554h1.097V7.812h1.492v3.218h-.001Z" fill="#fff"/></svg>