<svg width="24" height="24" fill="none" xmlns="http://www.w3.org/2000/svg"><path d="M8.822 8.893c-.36-.1-1.97-.492-2.308-.579-.362-.093-.928-.154-1.172.398-.244.552-.94 2.178-1.162 2.74-.222.562.119.774.448.86.33.086 2.03.492 2.424.578.394.086.776.053 1.02-.492.243-.544.95-2.18 1.144-2.71.193-.53-.036-.695-.394-.795Z" fill="#1767A0"/><path d="M11.996 0C5.37 0 0 5.37 0 11.996c0 6.625 5.37 11.996 11.996 11.996 6.624 0 11.996-5.37 11.996-11.996S18.62 0 11.996 0ZM7.788 15.422c-.804-.175-5.304-1.359-5.976-1.534-.673-.175-1.389-.776-.936-1.922a235.328 235.328 0 0 1 2.265-5.413c.497-1.125 2.447-.817 3.185-.628.69.177 4.179 1.023 4.91 1.228.73.204 1.724.818 1.33 1.899-.395 1.082-1.74 4.223-2.236 5.333-.497 1.11-1.739 1.213-2.542 1.037Zm13.285-.507c-.296.789-1.403 3.44-1.403 3.44l-2.816-.7s.92-2.17 1.008-2.445c.088-.274.164-.624-.252-.745-.416-.12-2.893-.767-2.893-.767l-1.293 3.123-2.871-.745 3.473-8.262 2.85.723-1.765 4.087 5.107-3.265 3.397.86-4 2.405s1.096.427 1.36.822c.262.395.394.68.098 1.469Z" fill="#1767A0"/></svg>