<svg width="24" height="24" fill="none" xmlns="http://www.w3.org/2000/svg"><g clip-path="url(#a)"><path d="m23.738 11.525-4.988-8.55A2.094 2.094 0 0 0 16.988 2H7.013c-.713 0-1.388.375-1.725.975l-5.025 8.55c-.375.6-.375 1.35 0 1.987l4.987 8.513A2.03 2.03 0 0 0 6.975 23h10.013c.712 0 1.387-.375 1.762-.975l4.988-8.55c.337-.6.337-1.35 0-1.95Z" fill="url(#b)"/></g><defs><radialGradient id="b" cx="0" cy="0" r="1" gradientUnits="userSpaceOnUse" gradientTransform="translate(17.251 21.358) scale(22.3013)"><stop stop-color="#EC991C"/><stop offset="1" stop-color="#E9B213"/></radialGradient><clipPath id="a"><path fill="#fff" d="M0 0h24v24H0z"/></clipPath></defs></svg>