<svg width="24" height="24" viewBox="0 0 24 24" fill="none" xmlns="http://www.w3.org/2000/svg">
<path d="M12 24C18.6274 24 24 18.6274 24 12C24 5.37258 18.6274 0 12 0C5.37258 0 0 5.37258 0 12C0 18.6274 5.37258 24 12 24Z" fill="#0093DD"/>
<path fill-rule="evenodd" clip-rule="evenodd" d="M10.1248 11.9999L14.0248 15.9749L16.4998 13.4999C16.9498 13.0499 17.6248 13.0499 17.9998 13.4999C18.4498 13.9499 18.4498 14.6999 17.9998 15.1499L14.7748 18.4499C14.3248 18.8999 13.6498 18.8999 13.1998 18.4499L8.5498 13.6499V16.4999C8.5498 17.0999 8.0248 17.6249 7.4248 17.6249C6.8248 17.6249 6.2998 17.0999 6.2998 16.4999V7.4999C6.2998 6.8999 6.8248 6.3749 7.4248 6.3749C8.0248 6.3749 8.5498 6.8999 8.5498 7.4999V10.3499L13.1998 5.5499C13.6498 5.0999 14.3248 5.0999 14.7748 5.5499L17.9998 8.8499C18.4498 9.2999 18.4498 10.0499 17.9998 10.4999C17.5498 10.9499 16.8748 10.9499 16.4998 10.4999L14.0248 7.9499L10.1248 11.9999ZM14.0248 10.8749C14.6248 10.8749 15.1498 11.3999 15.1498 11.9999C15.1498 12.5999 14.6248 13.1249 14.0248 13.1249C13.4248 13.1249 12.8998 12.5999 12.8998 11.9999C12.8998 11.3999 13.4248 10.8749 14.0248 10.8749Z" fill="white"/>
</svg>
