<svg width="24" height="24" fill="none" xmlns="http://www.w3.org/2000/svg"><path d="M12 24c6.627 0 12-5.373 12-12S18.627 0 12 0 0 5.373 0 12s5.373 12 12 12Z" fill="#00DCFA"/><path d="M14.534 3.75c-2.903 0-5.368 2.232-5.678 5.105-2.875.31-5.106 2.776-5.106 5.678a5.72 5.72 0 0 0 5.716 5.717c2.903 0 5.378-2.232 5.678-5.105 2.874-.31 5.106-2.776 5.106-5.678a5.72 5.72 0 0 0-5.716-5.717Zm4.376 6.357a4.447 4.447 0 0 1-3.727 3.728v-3.728h3.727ZM5.09 13.893a4.448 4.448 0 0 1 3.727-3.737v3.727H5.089v.01Zm8.754 1.29a4.42 4.42 0 0 1-4.377 3.776 4.42 4.42 0 0 1-4.378-3.775h8.755v-.001Zm.049-5.076v3.776h-3.786v-3.776h3.786Zm5.017-1.29h-8.754a4.42 4.42 0 0 1 4.377-3.776 4.42 4.42 0 0 1 4.377 3.775v.001Z" fill="#fff"/></svg>