<svg width="24" height="24" fill="none" xmlns="http://www.w3.org/2000/svg"><path d="M5.239 14.812a7 7 0 0 0 13.523 0" stroke="#fff" stroke-width="1.2"/><circle r="5" transform="matrix(0 -1 -1 0 12 15)" fill="#7E869E" fill-opacity=".25"/><circle r="5.3" transform="matrix(0 -1 -1 0 12 15)" stroke="#7E869E" stroke-opacity=".25" stroke-width=".6"/><path d="m12 4-.375-.469.375-.3.375.3L12 4Zm.6 9a.6.6 0 1 1-1.2 0h1.2ZM6.625 7.531l5-4 .75.938-5 4-.75-.938Zm5.75-4 5 4-.75.938-5-4 .75-.938ZM12.6 4v9h-1.2V4h1.2Z" fill="#fff"/></svg>