<svg width="24" height="24" fill="none" xmlns="http://www.w3.org/2000/svg"><path d="M12 24c6.627 0 12-5.373 12-12S18.627 0 12 0 0 5.373 0 12s5.373 12 12 12Z" fill="#1591CA"/><path d="M12.429 11.454s.995-2.213-.957-4.35c0 0-1.11-1.425-3.405-1.313l.459-.18c.076-.03.156-.05.237-.061l.452-.059 3.175-.487s1.123-.22 1.974.022c.243.07.463.201.638.38.47.475 1.412 1.733.795 3.723 0 0-.613 2.212-2.909 2.737 0 0-.574.15-.46-.412Zm-.142 1.233s1.435 1.967 4.306 1.413c0 0 1.817-.21 2.889-2.203l-.077.48a.97.97 0 0 1-.067.231l-.179.41-1.19 2.925s-.38 1.059-1.027 1.653c-.186.169-.412.287-.657.344-.656.152-2.24.306-3.673-1.229 0 0-1.63-1.644-.92-3.847 0-.002.16-.56.595-.177Zm-1.039-.71s-2.452.258-3.371 2.98c0 0-.708 1.654.535 3.548l-.387-.3a.976.976 0 0 1-.173-.171l-.277-.354-2.013-2.455s-.756-.845-.963-1.688a1.4 1.4 0 0 1 .016-.733c.187-.636.83-2.063 2.897-2.53 0 0 2.263-.582 3.872 1.108.001 0 .42.412-.135.595Z" fill="#fff"/><path opacity=".5" d="M12.83 12.119s2.444-.318 3.292-3.064c0 0 .665-1.67-.628-3.533l.396.29c.066.049.125.105.177.167l.286.347L18.43 8.73s.776.825 1.007 1.664c.065.24.065.492 0 .732-.17.64-.776 2.084-2.831 2.601 0 0-2.247.637-3.899-1.01.002 0-.427-.402.122-.598Zm-1.229.453s-1.05 2.187.845 4.372c0 0 1.072 1.451 3.372 1.395l-.464.169a1.013 1.013 0 0 1-.24.054l-.452.048-3.187.41s-1.127.192-1.973-.072a1.464 1.464 0 0 1-.627-.395c-.458-.487-1.367-1.767-.7-3.74 0 0 .668-2.197 2.977-2.665 0 .002.58-.136.449.424Zm.082-1.153s-1.464-1.947-4.327-1.35c0 0-1.813.234-2.856 2.243l.069-.481a.974.974 0 0 1 .064-.232l.173-.413 1.147-2.943s.364-1.064 1.002-1.667c.185-.171.41-.292.654-.351.655-.163 2.237-.338 3.69 1.176 0 0 1.654 1.621.977 3.835 0-.002-.153.56-.593.183Z" fill="#fff"/></svg>