<svg width="18" height="18" viewBox="0 0 18 18" fill="none" xmlns="http://www.w3.org/2000/svg">
<path d="M17.9519 9.00002C17.9519 13.92 13.9439 17.952 8.99985 17.952C4.05585 17.952 0.0478516 13.944 0.0478516 9.00002C0.0478516 8.76002 0.239854 8.54402 0.503854 8.54402C0.767854 8.54402 0.959852 8.73602 0.959852 9.00002C0.959852 13.44 4.55985 17.04 8.99985 17.04C13.4399 17.04 17.0399 13.44 17.0399 9.00002C17.0399 6.91202 16.2478 4.94402 14.8078 3.43202C14.6398 3.24002 14.6399 2.97602 14.8319 2.78402C15.0239 2.61602 15.3118 2.61602 15.4798 2.80802C17.0639 4.46402 17.9519 6.67202 17.9519 9.00002ZM3.91185 9.00002C3.91185 8.76002 4.10385 8.54402 4.36785 8.54402H7.63185C7.63185 8.52002 7.63185 8.52002 7.65585 8.49602C7.65585 8.47202 7.67985 8.42402 7.70385 8.40002C7.72785 8.35202 7.75185 8.30402 7.77585 8.23202C7.79985 8.20802 7.82385 8.16002 7.84785 8.13602C7.89585 8.08802 7.91985 8.04002 7.96785 7.99202C7.99185 7.96802 7.99185 7.96802 7.99185 7.94402C8.25585 7.68002 8.63985 7.51202 9.02385 7.51202C9.02385 7.51202 9.02385 7.51202 9.04785 7.51202C9.09585 7.51202 9.14385 7.51202 9.16785 7.51202C9.19185 7.51202 9.21585 7.51202 9.26385 7.53602C9.28785 7.53602 9.31185 7.53602 9.31185 7.53602C9.33585 7.53602 9.38385 7.56002 9.40785 7.56002C9.43185 7.56002 9.43185 7.56002 9.45585 7.56002C9.47985 7.56002 9.52785 7.58402 9.55185 7.58402C9.55185 7.58402 9.57585 7.58402 9.57585 7.60802C9.59985 7.63202 9.64785 7.63202 9.67185 7.65602L12.5279 4.80002C12.6958 4.63202 12.9838 4.63202 13.1758 4.80002C13.3438 4.96802 13.3438 5.25602 13.1758 5.44802L10.3199 8.30402C10.4159 8.49602 10.4879 8.73602 10.4879 8.95202C10.4879 9.74402 9.83985 10.416 9.02385 10.416C8.92785 10.416 8.83185 10.416 8.75985 10.392C8.75985 10.392 8.75985 10.392 8.73585 10.392C8.66385 10.368 8.56785 10.344 8.49585 10.32C8.47185 10.32 8.47185 10.32 8.44785 10.296C8.37585 10.272 8.30385 10.224 8.25585 10.2C8.23185 10.176 8.20785 10.176 8.18385 10.152C8.13585 10.104 8.06385 10.08 8.01585 10.032C7.99185 10.032 7.99185 10.008 7.96785 10.008C7.94385 9.98402 7.94385 9.98402 7.94385 9.96002C7.89585 9.91202 7.87185 9.86402 7.82385 9.81602C7.79985 9.79202 7.77585 9.74402 7.75185 9.72002C7.72785 9.67202 7.70385 9.62402 7.67985 9.55202C7.65585 9.52802 7.65585 9.48002 7.63185 9.45602C7.63185 9.43202 7.63185 9.43202 7.60785 9.40802H4.34385C4.10385 9.45602 3.91185 9.24002 3.91185 9.00002ZM8.99985 8.44802C8.68785 8.44802 8.44785 8.68802 8.44785 9.00002C8.44785 9.28802 8.68785 9.55202 8.97585 9.55202C9.11985 9.55202 9.26385 9.50402 9.35985 9.38402C9.45585 9.28802 9.52785 9.14402 9.52785 9.00002C9.52785 8.85602 9.47985 8.71202 9.35985 8.61602C9.28785 8.54402 9.19185 8.49602 9.07185 8.47202C9.04785 8.47202 9.04785 8.47202 9.02385 8.47202C9.02385 8.44802 9.02385 8.44802 8.99985 8.44802ZM8.49585 0.984022H8.51985C8.75985 0.960022 8.95185 0.744022 8.95185 0.504022C8.92785 0.264022 8.71185 0.0720215 8.47185 0.0720215C8.23185 0.0960215 8.03985 0.312021 8.03985 0.552022C8.06385 0.792022 8.25585 0.984022 8.49585 0.984022ZM6.69585 1.27202C6.74385 1.27202 6.76785 1.27202 6.81585 1.24802C7.05585 1.17602 7.19985 0.936019 7.12785 0.696019C7.05585 0.456019 6.81585 0.312022 6.57585 0.384022C6.33585 0.456022 6.19185 0.696019 6.26385 0.936019C6.31185 1.15202 6.50385 1.27202 6.69585 1.27202ZM11.9278 1.51202C11.9759 1.53602 12.0478 1.53602 12.0958 1.53602C12.2878 1.53602 12.4558 1.41602 12.5279 1.24802C12.6238 1.00802 12.5039 0.74402 12.2639 0.64802C12.0239 0.55202 11.7598 0.672022 11.6878 0.912022C11.5919 1.15202 11.6878 1.41602 11.9278 1.51202ZM13.4639 2.30402C13.5359 2.35202 13.6318 2.37602 13.7278 2.37602C13.8719 2.37602 14.0159 2.30402 14.1119 2.18402C14.2559 1.96802 14.1839 1.70402 13.9919 1.56002C13.7759 1.41602 13.5118 1.48802 13.3678 1.68002C13.1999 1.89602 13.2479 2.18402 13.4639 2.30402ZM10.2479 1.05602C10.2718 1.05602 10.2959 1.05602 10.3199 1.05602C10.5359 1.05602 10.7278 0.888022 10.7758 0.672022C10.8238 0.432021 10.6559 0.192022 10.3919 0.144022C10.1519 0.0960222 9.91185 0.26402 9.86385 0.52802C9.83985 0.79202 10.0078 1.00802 10.2479 1.05602ZM0.599852 7.60802C0.623852 7.60802 0.671851 7.60802 0.695851 7.60802C0.911851 7.60802 1.10385 7.46402 1.12785 7.24802C1.17585 7.00802 1.03185 6.76802 0.791853 6.72002C0.551853 6.67202 0.311854 6.81602 0.263854 7.05602C0.215854 7.32002 0.359852 7.56002 0.599852 7.60802ZM1.10385 5.85602C1.17585 5.88002 1.22385 5.90402 1.29585 5.90402C1.46385 5.90402 1.63185 5.80802 1.70385 5.64002C1.79985 5.42402 1.70385 5.13602 1.48785 5.04002C1.27185 4.94402 0.983851 5.04002 0.887851 5.25602C0.767851 5.47202 0.863854 5.73602 1.10385 5.85602ZM3.47985 3.00002C3.57585 3.00002 3.69585 2.95202 3.76785 2.88002C3.95985 2.71202 3.98385 2.42402 3.81585 2.23202C3.64785 2.04002 3.35985 2.01602 3.16785 2.18402C2.97585 2.35202 2.95185 2.64002 3.11985 2.83202C3.23985 2.92802 3.35985 3.00002 3.47985 3.00002ZM1.96785 4.22402C2.03985 4.29602 2.13585 4.32002 2.23185 4.32002C2.37585 4.32002 2.49585 4.24802 2.59185 4.15202C2.73585 3.96002 2.71185 3.67202 2.49585 3.50402C2.30385 3.36002 2.01585 3.38402 1.87185 3.60002C1.72785 3.79202 1.75185 4.08002 1.96785 4.22402ZM4.99185 1.96802C5.06385 1.96802 5.13585 1.94402 5.20785 1.92002C5.42385 1.80002 5.51985 1.53602 5.39985 1.29602C5.27985 1.08002 5.01585 0.984022 4.77585 1.10402C4.55985 1.22402 4.46385 1.48802 4.58385 1.72802C4.67985 1.87202 4.84785 1.96802 4.99185 1.96802Z" fill="#95A7AE"/>
</svg>
