<svg width="24" height="24" fill="none" xmlns="http://www.w3.org/2000/svg"><path fill-rule="evenodd" clip-rule="evenodd" d="M24 12c0 6.627-5.373 12-12 12S0 18.627 0 12 5.373 0 12 0s12 5.373 12 12Z" fill="#A4252E"/><path fill-rule="evenodd" clip-rule="evenodd" d="M12 22.254c-5.654 0-10.254-4.6-10.254-10.254S6.346 1.746 12 1.746 22.254 6.346 22.254 12 17.654 22.254 12 22.254Zm0-21.171C5.98 1.083 1.083 5.98 1.083 12S5.98 22.917 12 22.917 22.917 18.02 22.917 12 18.02 1.083 12 1.083Z" fill="#FFFFFE"/><path fill-rule="evenodd" clip-rule="evenodd" d="M7.082 18.748h3.815l8.749-12.482h-3.533l-6.139 8.768V6.266h-3.24L5.236 8.36h1.845v10.388Z" fill="#FFFFFE"/></svg>