<svg width="24" height="24" fill="none" xmlns="http://www.w3.org/2000/svg"><g clip-path="url(#a)"><path d="M3.337 13.315h.465v.554l-3.337.866H0v-.554l3.337-.866Z" fill="url(#b)"/><path d="M5.372 18.193v.487h.49L7.44 16.98v-.486h-.492l-1.575 1.698Z" fill="url(#c)"/><path d="M0 23.514V24h.488l3.315-3.389v-.486h-.488L0 23.514Z" fill="url(#d)"/><path d="m9.964 18.68.771-1.714v-.47h-.507l-.772 1.713v.47h.508Z" fill="url(#e)"/><path d="M7.435 3.875v-.479L5.093 0h-.496v.48l2.35 3.395h.496-.008Z" fill="url(#f)"/><path d="M4.597 23.52v.478h.496l2.342-3.394v-.479h-.488l-2.35 3.394Z" fill="url(#g)"/><path d="M0 9.263v.554l3.337.872h.465v-.548L.465 9.263H0Z" fill="url(#h)"/><path d="M0 0v.486l3.315 3.389h.488v-.486L.488 0H0Z" fill="url(#i)"/><path d="M0 18.911v.494h.48l3.323-2.424v-.486h-.48L0 18.911Z" fill="url(#j)"/><path d="M18.689 14.697v-.502l-1.652-.88h-.476v.502l1.651.885h.475l.002-.005Z" fill="url(#k)"/><path d="M18.689 9.807v-.502h-.477l-1.651.886v.502h.474l1.654-.886Z" fill="url(#l)"/><path d="M9.456 5.322v.467l.772 1.714h.505v-.467l-.771-1.714h-.506Z" fill="url(#m)"/><path d="M18.627 5.809v-.487h-.488l-1.576 1.7v.487h.49l1.574-1.7Z" fill="url(#n)"/><path d="M13.96 9.958h-.737v.737h.737v-.737Z" fill="#BE5095"/><path d="M10.775 3.875v-.463L9.96 0h-.554v.465l.822 3.41h.554-.006Z" fill="url(#o)"/><path d="M13.26 16.495v.473l.773 1.713h.505v-.474l-.772-1.714h-.505v.002Z" fill="url(#p)"/><path d="M14.542 5.322h-.505l-.772 1.714v.473h.505l.772-1.714v-.473Z" fill="url(#q)"/><path d="M0 4.597v.494l3.323 2.416h.48v-.494L.481 4.597H0Z" fill="url(#r)"/><path d="M20.196 16.495v.486l3.323 2.416H24v-.486l-3.32-2.416h-.483Z" fill="url(#s)"/><path d="M16.564 3.396v.479h.496L19.403.48V0h-.492l-2.347 3.396Z" fill="url(#t)"/><path d="M20.196 20.125v.486L23.512 24H24v-.486l-3.316-3.389h-.488Z" fill="url(#u)"/><path d="M16.564 20.125v.479l2.347 3.394h.496v-.479l-2.347-3.394h-.495Z" fill="url(#v)"/><path d="M18.627 18.68v-.487l-1.576-1.7h-.49v.488l1.578 1.698h.49-.002Z" fill="url(#w)"/><path d="m23.512 0-3.316 3.389v.486h.488L24 .486V0h-.488Z" fill="url(#x)"/><path d="M20.196 7.013v.494h.48L24 5.09v-.494h-.48l-3.324 2.416Z" fill="url(#y)"/><path d="M20.196 10.14v.555h.465l3.337-.873v-.56h-.456l-3.346.879Z" fill="url(#z)"/><path d="M20.196 13.315v.554l3.346.866h.465v-.554l-3.344-.866h-.467Z" fill="url(#A)"/><path d="M9.405 23.543v.465h.554l.814-3.412v-.465h-.546l-.822 3.412Z" fill="url(#B)"/><path d="M5.31 14.195v.502h.48l1.651-.886v-.496h-.479l-1.651.88Z" fill="url(#C)"/><path d="M5.372 5.322v.487l1.575 1.7h.49v-.487l-1.577-1.7h-.488Z" fill="url(#D)"/><path d="M10.034 14.046h.737v-.731h-.737v.737-.006Z" fill="#BD687B"/><path d="M5.31 9.307v.502l1.652.886h.475v-.502L5.79 9.307h-.478Z" fill="url(#E)"/><path d="M13.227 20.125v.465l.814 3.412h.554v-.46l-.815-3.411h-.553v-.006Z" fill="url(#F)"/><path d="M13.227 3.412v.465h.553l.817-3.412V0h-.556l-.814 3.412Z" fill="url(#G)"/><path d="M10.034 10.693h.737v-.735h-.737v.737-.002Z" fill="#AC5E90"/><path d="M13.96 13.315h-.737v.737h.737v-.737Z" fill="#C85C7F"/></g><defs><linearGradient id="b" x1="1.36" y1="15.038" x2="2.619" y2="12.678" gradientUnits="userSpaceOnUse"><stop stop-color="#93966F"/><stop offset="1" stop-color="#9C8476"/></linearGradient><linearGradient id="c" x1="7.497" y1="16.555" x2="5.314" y2="18.618" gradientUnits="userSpaceOnUse"><stop stop-color="#C27E64"/><stop offset="1" stop-color="#CD8D56"/></linearGradient><linearGradient id="d" x1="3.838" y1="20.162" x2="-.037" y2="23.963" gradientUnits="userSpaceOnUse"><stop stop-color="#D7974E"/><stop offset="1" stop-color="#F5AE3D"/></linearGradient><linearGradient id="e" x1="10.845" y1="17.018" x2="9.167" y2="18.296" gradientUnits="userSpaceOnUse"><stop stop-color="#CB7365"/><stop offset="1" stop-color="#D57D56"/></linearGradient><linearGradient id="f" x1="4.263" y1=".652" x2="7.862" y2="3.292" gradientUnits="userSpaceOnUse"><stop stop-color="#3658CA"/><stop offset="1" stop-color="#6B59B8"/></linearGradient><linearGradient id="g" x1="4.319" y1="23.398" x2="7.833" y2="20.633" gradientUnits="userSpaceOnUse"><stop stop-color="#F99F36"/><stop offset="1" stop-color="#DC8A4C"/></linearGradient><linearGradient id="h" x1="1.223" y1="8.691" x2="2.439" y2="11.001" gradientUnits="userSpaceOnUse"><stop stop-color="#668A87"/><stop offset="1" stop-color="#847C88"/></linearGradient><linearGradient id="i" x1="3.838" y1="3.838" x2="-.037" y2=".037" gradientUnits="userSpaceOnUse"><stop stop-color="#4A69B0"/><stop offset="1" stop-color="#056EBD"/></linearGradient><linearGradient id="j" x1="3.286" y1="16.256" x2=".446" y2="19.731" gradientUnits="userSpaceOnUse"><stop stop-color="#B78D63"/><stop offset="1" stop-color="#C5A256"/></linearGradient><linearGradient id="k" x1="16.892" y1="13.053" x2="18.253" y2="14.818" gradientUnits="userSpaceOnUse"><stop stop-color="#D75080"/><stop offset="1" stop-color="#E34B76"/></linearGradient><linearGradient id="l" x1="16.954" y1="10.88" x2="18.349" y2="9.049" gradientUnits="userSpaceOnUse"><stop stop-color="#CF4794"/><stop offset="1" stop-color="#D739A3"/></linearGradient><linearGradient id="m" x1="9.151" y1="5.785" x2="10.944" y2="6.976" gradientUnits="userSpaceOnUse"><stop stop-color="#8554B2"/><stop offset="1" stop-color="#9C55A5"/></linearGradient><linearGradient id="n" x1="16.545" y1="7.408" x2="18.685" y2="5.384" gradientUnits="userSpaceOnUse"><stop stop-color="#C43CAE"/><stop offset="1" stop-color="#CD2CC3"/></linearGradient><linearGradient id="o" x1="9.006" y1="1.378" x2="11.325" y2="2.576" gradientUnits="userSpaceOnUse"><stop stop-color="#6344D6"/><stop offset="1" stop-color="#874ABF"/></linearGradient><linearGradient id="p" x1="13.006" y1="16.929" x2="14.673" y2="18.153" gradientUnits="userSpaceOnUse"><stop stop-color="#D66766"/><stop offset="1" stop-color="#E26A55"/></linearGradient><linearGradient id="q" x1="12.96" y1="7.086" x2="14.695" y2="5.851" gradientUnits="userSpaceOnUse"><stop stop-color="#AD4AA9"/><stop offset="1" stop-color="#AD3EBB"/></linearGradient><linearGradient id="r" x1=".498" y1="4.217" x2="3.306" y2="7.889" gradientUnits="userSpaceOnUse"><stop stop-color="#307CA3"/><stop offset="1" stop-color="#6A739A"/></linearGradient><linearGradient id="s" x1="20.636" y1="16.138" x2="23.486" y2="19.668" gradientUnits="userSpaceOnUse"><stop stop-color="#EA4C68"/><stop offset="1" stop-color="#F44752"/></linearGradient><linearGradient id="t" x1="16.144" y1="3.286" x2="19.831" y2=".587" gradientUnits="userSpaceOnUse"><stop stop-color="#B930CC"/><stop offset="1" stop-color="#CE15F2"/></linearGradient><linearGradient id="u" x1="24.036" y1="23.963" x2="20.162" y2="20.162" gradientUnits="userSpaceOnUse"><stop stop-color="#F15829"/><stop offset="1" stop-color="#EF5948"/></linearGradient><linearGradient id="v" x1="16.273" y1="20.725" x2="19.777" y2="23.463" gradientUnits="userSpaceOnUse"><stop stop-color="#EA674A"/><stop offset="1" stop-color="#F26A28"/></linearGradient><linearGradient id="w" x1="16.503" y1="16.555" x2="18.685" y2="18.618" gradientUnits="userSpaceOnUse"><stop stop-color="#E15A68"/><stop offset="1" stop-color="#EB5A55"/></linearGradient><linearGradient id="x" x1="24.036" y1=".037" x2="20.162" y2="3.838" gradientUnits="userSpaceOnUse"><stop stop-color="#F902FD"/><stop offset="1" stop-color="#DA1FD4"/></linearGradient><linearGradient id="y" x1="23.504" y1="4.217" x2="20.694" y2="7.889" gradientUnits="userSpaceOnUse"><stop stop-color="#FC11D5"/><stop offset="1" stop-color="#DE2AB7"/></linearGradient><linearGradient id="z" x1="22.801" y1="8.649" x2="21.561" y2="10.999" gradientUnits="userSpaceOnUse"><stop stop-color="#F922AA"/><stop offset="1" stop-color="#E2369D"/></linearGradient><linearGradient id="A" x1="21.422" y1="12.688" x2="22.626" y2="15.059" gradientUnits="userSpaceOnUse"><stop stop-color="#E64183"/><stop offset="1" stop-color="#F63777"/></linearGradient><linearGradient id="B" x1="8.907" y1="22.769" x2="11.211" y2="21.393" gradientUnits="userSpaceOnUse"><stop stop-color="#F68C31"/><stop offset="1" stop-color="#D77C4E"/></linearGradient><linearGradient id="C" x1="7.119" y1="13.056" x2="5.747" y2="14.803" gradientUnits="userSpaceOnUse"><stop stop-color="#AC757A"/><stop offset="1" stop-color="#AC8270"/></linearGradient><linearGradient id="D" x1="5.314" y1="5.384" x2="7.489" y2="7.441" gradientUnits="userSpaceOnUse"><stop stop-color="#6466AA"/><stop offset="1" stop-color="#8563A1"/></linearGradient><linearGradient id="E" x1="5.671" y1="9.074" x2="7.003" y2="10.83" gradientUnits="userSpaceOnUse"><stop stop-color="#857390"/><stop offset="1" stop-color="#986C8D"/></linearGradient><linearGradient id="F" x1="15.031" y1="22.666" x2="12.717" y2="21.42" gradientUnits="userSpaceOnUse"><stop stop-color="#F47B2C"/><stop offset="1" stop-color="#E5744A"/></linearGradient><linearGradient id="G" x1="15.098" y1="1.293" x2="12.785" y2="2.549" gradientUnits="userSpaceOnUse"><stop stop-color="#952EE3"/><stop offset="1" stop-color="#9D3FC3"/></linearGradient><clipPath id="a"><path fill="#fff" d="M0 0h24v24H0z"/></clipPath></defs></svg>