<svg width="24" height="24" fill="none" xmlns="http://www.w3.org/2000/svg"><path fill-rule="evenodd" clip-rule="evenodd" d="M12 24a12 12 0 0 0 0-24v1.46a10.54 10.54 0 1 1 0 21.08V24Z" fill="#FFBC00"/><path opacity=".3" fill-rule="evenodd" clip-rule="evenodd" d="M1.46 12H0a12 12 0 0 0 12 12v-1.46A10.547 10.547 0 0 1 1.46 12Z" fill="#FFBC00"/><path fill-rule="evenodd" clip-rule="evenodd" d="M4.28 12a7.72 7.72 0 1 0 15.44 0h1.46a9.18 9.18 0 1 1-18.36 0h1.46Z" fill="#FFBC00"/><path opacity=".3" fill-rule="evenodd" clip-rule="evenodd" d="M12 4.28V2.82A9.193 9.193 0 0 0 2.82 12h1.46A7.727 7.727 0 0 1 12 4.28Z" fill="#FFBC00"/><path fill-rule="evenodd" clip-rule="evenodd" d="M12 7.093a4.907 4.907 0 1 0 0 9.814v1.46a6.367 6.367 0 1 1 0-12.734" fill="#FFBC00"/><path opacity=".3" fill-rule="evenodd" clip-rule="evenodd" d="M12 5.633v1.46A4.913 4.913 0 0 1 16.907 12h1.46A6.38 6.38 0 0 0 12 5.633Z" fill="#FFBC00"/><path fill-rule="evenodd" clip-rule="evenodd" d="M12 8.453a3.547 3.547 0 0 1 0 7.094v-1.46a2.087 2.087 0 0 0 0-4.174" fill="#FFBC00"/><path opacity=".3" fill-rule="evenodd" clip-rule="evenodd" d="M12 8.453A3.553 3.553 0 0 0 8.453 12h1.46A2.086 2.086 0 0 1 12 9.913v-1.46Z" fill="#FFBC00"/><path fill-rule="evenodd" clip-rule="evenodd" d="M16.473 16.513 15.44 15.48a4.893 4.893 0 0 1-1.44.987l.613 1.333a6.494 6.494 0 0 0 1.84-1.28M6.946 1.113a11.887 11.887 0 0 0-3.46 2.414l1 1.066A10.367 10.367 0 0 1 7.56 2.44l-.614-1.327ZM20.306 8.167A9.025 9.025 0 0 0 18.46 5.5l-1.054 1.033A7.446 7.446 0 0 1 18.98 8.78l1.326-.613Z" fill="#FFBC00"/></svg>