<svg width="24" height="24" fill="none" xmlns="http://www.w3.org/2000/svg"><path d="M10.56 14.496h5.923c2.201 0 4.004-1.779 4.004-4.003 0-2.225-1.78-3.98-3.98-3.98H14.61L10.56 3h5.923A7.47 7.47 0 0 1 24 10.47c.024 3.066-1.85 5.83-4.706 6.977l4.683 4.05h-5.338l-8.078-7Z" fill="url(#a)"/><path d="M13.463 10.025H7.54c-2.201 0-4.004 1.78-4.004 4.004a3.987 3.987 0 0 0 4.004 4.003h1.896l4.027 3.512H7.54c-4.145 0-7.516-3.348-7.54-7.469a7.479 7.479 0 0 1 4.706-7L.024 3h5.361l8.078 7.025Z" fill="#4971FA"/><path d="M13.463 10.025H7.54c-2.201 0-4.004 1.78-4.004 4.004a3.987 3.987 0 0 0 4.004 4.003h1.896l4.027 3.512H7.54c-4.145 0-7.516-3.348-7.54-7.469a7.479 7.479 0 0 1 4.706-7L.024 3h5.361l8.078 7.025Z" fill="url(#b)"/><defs><linearGradient id="a" x1="10.571" y1="12.25" x2="23.994" y2="12.25" gradientUnits="userSpaceOnUse"><stop stop-color="#62D0C9"/><stop offset="1" stop-color="#7DE2AC"/></linearGradient><linearGradient id="b" x1=".042" y1="12.261" x2="13.466" y2="12.261" gradientUnits="userSpaceOnUse"><stop stop-color="#3268FB"/><stop offset="1" stop-color="#4795FA"/></linearGradient></defs></svg>