<svg width="24" height="24" fill="none" xmlns="http://www.w3.org/2000/svg"><mask id="a" fill="#fff"><path d="M8.146 4.99a8 8 0 1 1-3.092 3.042l.888.507A6.976 6.976 0 1 0 8.64 5.887l-.493-.898Z"/></mask><path d="M8.146 4.99a8 8 0 1 1-3.092 3.042l.888.507A6.976 6.976 0 1 0 8.64 5.887l-.493-.898Z" stroke="#95A7AE" stroke-width="2" mask="url(#a)"/><path d="M6.4 9.2c.101.304.152.456.203.523a.5.5 0 0 0 .794 0c.05-.067.102-.219.203-.523.082-.245.123-.368.176-.479a2 2 0 0 1 .945-.945c.111-.053.234-.094.479-.176.304-.101.456-.152.523-.203a.5.5 0 0 0 0-.794c-.067-.05-.219-.102-.523-.203-.245-.082-.368-.123-.479-.176a2 2 0 0 1-.945-.945A4.365 4.365 0 0 1 7.6 4.8c-.101-.304-.152-.456-.203-.522a.5.5 0 0 0-.794 0c-.05.066-.102.218-.203.522a4.365 4.365 0 0 1-.176.479 2 2 0 0 1-.945.945A4.365 4.365 0 0 1 4.8 6.4c-.304.101-.456.152-.522.203a.5.5 0 0 0 0 .794c.066.05.218.102.522.203.245.082.368.123.479.176a2 2 0 0 1 .945.945c.053.111.094.234.176.479Z" fill="#7E869E" fill-opacity=".25" stroke="#95A7AE"/></svg>