<svg width="24" height="24" fill="none" xmlns="http://www.w3.org/2000/svg"><path d="M12 24c6.627 0 12-5.373 12-12S18.627 0 12 0 0 5.373 0 12s5.373 12 12 12Z" fill="#3EFFFF"/><path d="M4.875 7.865 12 3.75l7.125 4.115v8.27L12 20.25l-7.125-4.115v-8.27Zm.684 7.478 2.857-1.654 1.45-2.539L5.56 8.658v6.685Zm.343.593 5.776 3.337V16.08L8.65 14.345l-2.748 1.59v.001ZM18.44 8.681l-4.269 2.47 1.449 2.537 2.82 1.631V8.681Zm-.322-.606-5.757-3.324v3.231l1.47 2.574 4.287-2.48Zm-4.536 3.417-.879.508 1.744 1.009-.865-1.518Zm-.34-.596-.88-1.545v2.055l.88-.51Zm-3.648 2.111L11.335 12l-.876-.507-.863 1.514Zm-.259.942 2.342 1.341v-2.696l-2.342 1.355ZM5.901 8.064l4.305 2.49 1.472-2.576v-3.25L5.901 8.063Zm12.218 7.86-2.727-1.577-3.03 1.755v3.148l5.757-3.325Zm-3.412-1.973-2.345-1.357v2.716l2.345-1.36Zm-3.909-3.053.88.508V9.355l-.88 1.543Z" fill="#fff"/></svg>