<svg width="24" height="24" fill="none" xmlns="http://www.w3.org/2000/svg"><path d="M16.875 0h-9.75A7.125 7.125 0 0 0 0 7.125v9.707a7.125 7.125 0 0 0 7.125 7.125h9.75A7.125 7.125 0 0 0 24 16.832V7.125A7.125 7.125 0 0 0 16.875 0Z" fill="#000"/><path d="M16.875 0h-9.75A7.125 7.125 0 0 0 0 7.125v9.707a7.125 7.125 0 0 0 7.125 7.125h9.75A7.125 7.125 0 0 0 24 16.832V7.125A7.125 7.125 0 0 0 16.875 0Z" fill="#2CC981"/><path fill-rule="evenodd" clip-rule="evenodd" d="m16.291 3.716 3.862 3.993h-7.837l3.975-3.993Zm-8.193 8.143-4.13-4.114L7.974 3.75l12.205 12.234-4.044 3.986-3.993-3.986L8.119 20l-4.05-4.044 4.029-4.096Z" fill="#fff"/></svg>