<svg width="24" height="24" fill="none" xmlns="http://www.w3.org/2000/svg"><path d="M12 24c6.627 0 12-5.373 12-12S18.627 0 12 0 0 5.373 0 12s5.373 12 12 12Z" fill="url(#a)" fill-opacity=".05"/><path d="M21.375 11.205c.082-1.729-1.125-2.876-2.49-3.664L18 12.75a1.282 1.282 0 0 1 1.024.307.893.893 0 0 1 .067 1.2c.855-.142 2.186-.963 2.284-3.052Z" fill="url(#b)"/><path fill-rule="evenodd" clip-rule="evenodd" d="M9.75 5.149 8.7 4.088c1.59-.195 5.786.052 9.847 2.598a2.13 2.13 0 0 1 0 .687l.341.172a3.968 3.968 0 0 1 .443 3.045c-.353 1.41-.956 2.033-1.226 2.16-.544 0-1.47.315-1.77 1.71-.3 1.395-.878 1.699-1.125 1.676l-6 .072-3.96-2.333-.57-4.826 1.125-1.5 2.01-1.643 1.432-.585.503-.172Zm7.09 1.976c-.168.18-.366.33-.584.446-1.541-.33-2.1-1.125-2.1-1.125a7.21 7.21 0 0 1 3.75.923 6.915 6.915 0 0 0-1.065-.244Z" fill="url(#c)"/><path fill-rule="evenodd" clip-rule="evenodd" d="M16.282 14.46a8.316 8.316 0 0 1-3.66.821c-3.783 0-6.847-2.377-6.847-5.306 0-2.167 1.672-4.027 4.069-4.852-4.56.262-8.228 3.926-8.228 8.448 0 5.22 4.654 9.533 10.384 9.533a11.205 11.205 0 0 0 9.727-5.809c-2.568.578-5.602-.521-5.445-2.835Z" fill="url(#d)"/><defs><linearGradient id="a" x1="12" y1="8.396" x2="12" y2="24.315" gradientUnits="userSpaceOnUse"><stop stop-color="#01E8F8"/><stop offset="1" stop-color="#01E8F8" stop-opacity="0"/></linearGradient><linearGradient id="b" x1="19.462" y1="9.064" x2="19.995" y2="15.427" gradientUnits="userSpaceOnUse"><stop stop-color="#01E8F7"/><stop offset="1" stop-color="#00C2FF"/></linearGradient><linearGradient id="c" x1="8.981" y1="5.644" x2="15.161" y2="15.454" gradientUnits="userSpaceOnUse"><stop stop-color="#01E8F7"/><stop offset="1" stop-color="#00B3EC"/></linearGradient><linearGradient id="d" x1="617.624" y1="702.076" x2="641.262" y2="-57.277" gradientUnits="userSpaceOnUse"><stop stop-color="#01E8F7"/><stop offset="1" stop-color="#00C2FF"/></linearGradient></defs></svg>