<svg width="24" height="24" fill="none" xmlns="http://www.w3.org/2000/svg"><path d="M12 24c6.627 0 12-5.373 12-12S18.627 0 12 0 0 5.373 0 12s5.373 12 12 12Z" fill="#0092B5"/><path d="m8.82 10.576 3.211-5.653c.006-.01.018-.017.06 0l3.056 5.55a.731.731 0 0 0 .018 1.15l-2.822 5.09a.756.756 0 0 0-.645-.004l-2.905-5.174a.728.728 0 0 0 .026-.959Zm-.308 1.151 2.916 5.194a.73.73 0 0 0-.135.267 1374.39 1374.39 0 0 0-4.389-1.047 7.166 7.166 0 0 1-.633-1.079l1.87-3.29c.125.017.253.001.371-.044v-.001Zm-.404-1.412L5.793 6.19c1.578-.838 3.536-1.278 5.876-1.315L8.547 10.37a.756.756 0 0 0-.439-.055Zm-.315.132a.733.733 0 0 0 .025 1.206l-1.717 3.022a7.098 7.098 0 0 1-.503-2.215l-.347-5.537a.667.667 0 0 1 .25-.56l2.292 4.084Zm4.95 6.748a.732.732 0 0 0-.131-.266l2.863-5.165a.765.765 0 0 0 .372-.018l1.856 3.37a7.297 7.297 0 0 1-.543.934l-4.417 1.145Zm-.556.9a.745.745 0 0 0 .56-.554l4.093-1.061a7.244 7.244 0 0 1-1.752 1.569l-2.718 1.735a.687.687 0 0 1-.183.083v-1.772Zm-.34 0v1.78a.688.688 0 0 1-.218-.09l-2.717-1.736a7.248 7.248 0 0 1-1.685-1.487c.743.176 2.095.499 4.057.968.06.28.28.502.563.566Zm4.027-7.75a.757.757 0 0 0-.423-.021l-2.998-5.447c2.274.05 4.186.485 5.731 1.301l-2.31 4.167Zm.287.18 2.318-4.179a.668.668 0 0 1 .27.577l-.347 5.537a7.097 7.097 0 0 1-.525 2.27l-1.736-3.153a.73.73 0 0 0 .02-1.052ZM12 8.425a.412.412 0 0 0-.406.401v1.465l-2.165 1.334.232.5 1.933-.633v1.466l-.541.4v.4L12 13.49l.947.267v-.4l-.541-.4v-1.466l1.9.668.264-.534-2.165-1.334V8.826a.413.413 0 0 0-.404-.4H12Z" fill="#fff"/></svg>