<svg width="24" height="24" viewBox="0 0 24 24" fill="none" xmlns="http://www.w3.org/2000/svg">
<path d="M2.27244 15.7021L0 20.1839H5.27736L7.5498 15.7021H2.27244Z" fill="#0175B0"/>
<path d="M5.27902 9.77197L3.0127 14.2416H8.29006L10.5564 9.77197H5.27902Z" fill="#0175B0"/>
<path d="M8.28683 3.8418L6.02051 8.31144H11.2979L13.5642 3.8418H8.28683Z" fill="#0175B0"/>
<path d="M7.53221 15.7002L5.25977 20.1818H10.537L12.8096 15.7002H7.53221Z" fill="#00A2D0"/>
<path d="M10.5388 9.77002L8.27246 14.2397H13.5497L15.8161 9.77002H10.5388Z" fill="#00A2D0"/>
<path d="M13.5466 3.83984L11.2803 8.30936H16.5575L18.824 3.83984H13.5466Z" fill="#00A2D0"/>
<path d="M12.709 15.7002L10.4365 20.1818H15.7139L17.9863 15.7002H12.709Z" fill="#00CCFF"/>
<path d="M15.7155 9.77002L13.4492 14.2397H18.7266L20.9929 9.77002H15.7155Z" fill="#00CCFF"/>
<path d="M18.7234 3.83984L16.457 8.30936H21.7344L24.0007 3.83984H18.7234Z" fill="#00CCFF"/>
</svg>
