<svg width="24" height="24" fill="none" xmlns="http://www.w3.org/2000/svg"><path d="M12 24c6.627 0 12-5.373 12-12S18.627 0 12 0 0 5.373 0 12s5.373 12 12 12Z" fill="#2B77B3"/><path d="M20.25 12.03c-.035 4.58-3.748 8.254-8.308 8.22-4.564-.034-8.229-3.763-8.192-8.335.037-4.527 3.76-8.195 8.287-8.165 4.56.03 8.246 3.747 8.213 8.28Zm-15.903-.027c.008 4.215 3.418 7.618 7.641 7.628 4.228.007 7.678-3.419 7.663-7.638-.015-4.395-3.656-7.71-7.846-7.638-4.052.069-7.466 3.513-7.458 7.648Zm9.663-3.582-.305.977c-.568-.094-1.095-.206-1.628-.258-.316-.031-.645.051-.767.408-.126.365-.141.754.161 1.036.31.289.675.518 1.015.774.313.236.657.441.93.716.74.747.872 1.653.568 2.63-.18.579-.609.945-1.158 1.167-.84.34-2.27.172-3.073-.368l.352-1.023c.512.135.98.297 1.461.374.46.073.94.002 1.175-.467.238-.472.162-.97-.209-1.349-.286-.292-.646-.515-.98-.759-.224-.162-.474-.29-.691-.459a2.353 2.353 0 0 1-.717-2.835 1.558 1.558 0 0 1 1.103-.923c.941-.224 1.854-.122 2.764.36Zm-6.06 3.443a.953.953 0 0 1-.942.952.976.976 0 0 1-.962-.978.971.971 0 0 1 .97-.933.945.945 0 0 1 .935.959Zm9.07-.933c.524 0 .914.386.92.912a.949.949 0 1 1-1.896.015c0-.55.398-.927.976-.927Z" fill="#fff"/></svg>