<svg width="24" height="24" viewBox="0 0 24 24" fill="none" xmlns="http://www.w3.org/2000/svg">
<g clip-path="url(#clip0)">
<path d="M12.002 14.2902C13.4426 14.2902 14.6105 13.1223 14.6105 11.6817C14.6105 10.2411 13.4426 9.07324 12.002 9.07324C10.5614 9.07324 9.39355 10.2411 9.39355 11.6817C9.39355 13.1223 10.5614 14.2902 12.002 14.2902Z" fill="black"/>
<path d="M2.8872 15.7814C3.1707 15.5916 3.38712 15.3171 3.50569 14.9972C3.62426 14.6773 3.63895 14.3281 3.54767 13.9993C2.93905 11.7736 3.2317 9.39777 4.36223 7.38629C5.49276 5.37481 7.37016 3.88964 9.58784 3.25243C9.98923 3.12412 10.3247 2.8442 10.5228 2.47227C10.7209 2.10034 10.766 1.66577 10.6485 1.26107C10.531 0.856383 10.2602 0.513533 9.89373 0.305512C9.52725 0.0974913 9.09405 0.0407307 8.68635 0.147314C5.65298 1.0226 3.08607 3.05678 1.54081 5.8099C-0.00445349 8.56302 -0.403857 11.8138 0.428982 14.8591C0.496416 15.1064 0.621643 15.3342 0.794348 15.5236C0.967053 15.7131 1.1823 15.8588 1.42235 15.9487C1.6624 16.0387 1.92038 16.0704 2.17506 16.0411C2.42974 16.0118 2.67382 15.9225 2.8872 15.7804V15.7814Z" fill="black"/>
<path d="M12.9385 1.61806C12.9376 1.97666 13.0563 2.32532 13.2759 2.60881C13.4955 2.89231 13.8034 3.09442 14.1509 3.18314C16.3705 3.74501 18.2822 5.15316 19.4769 7.10639C20.6716 9.05962 21.0545 11.4028 20.5437 13.6348C20.4633 13.9975 20.5103 14.3769 20.6769 14.7091C20.8435 15.0412 21.1194 15.3059 21.4583 15.4584C21.7971 15.6109 22.1782 15.642 22.5372 15.5464C22.8963 15.4509 23.2115 15.2345 23.4298 14.9338C23.5581 14.7565 23.6497 14.5554 23.6989 14.3422C24.3889 11.2927 23.8632 8.09442 22.2334 5.42628C20.6036 2.75814 17.9981 0.830258 14.97 0.0519337C14.7635 -0.00211472 14.5483 -0.014914 14.3369 0.0142682C14.1255 0.0434504 13.9218 0.114041 13.7377 0.222001C13.5536 0.329961 13.3925 0.473171 13.2638 0.643436C13.1351 0.813701 13.0412 1.00768 12.9875 1.21427C12.9546 1.34633 12.9382 1.48196 12.9385 1.61806Z" fill="black"/>
<path d="M20.4662 17.484C20.1524 17.2593 19.7675 17.1565 19.3834 17.1949C18.9994 17.2333 18.6425 17.4103 18.3794 17.6927C17.5894 18.5298 16.6422 19.2031 15.592 19.6741C14.5417 20.1451 13.409 20.4047 12.2584 20.4379C11.1079 20.4711 9.96203 20.2774 8.88635 19.8678C7.81067 19.4582 6.82621 18.8407 5.98918 18.0506C5.94536 18.0088 5.90154 17.9671 5.85876 17.9243C5.60109 17.6734 5.26488 17.5189 4.90668 17.4868C4.54849 17.4547 4.19016 17.5469 3.89197 17.748L3.82311 17.7939C3.65065 17.908 3.50237 18.0549 3.38673 18.2263C3.2711 18.3977 3.19039 18.5902 3.1492 18.7929C3.10802 18.9955 3.10718 19.2042 3.14672 19.4072C3.18627 19.6101 3.26542 19.8033 3.37967 19.9756C3.437 20.064 3.50382 20.1459 3.57896 20.2198C5.84367 22.4554 8.90373 23.6998 12.086 23.6793C15.2682 23.6587 18.3119 22.3749 20.5476 20.1102C20.6175 20.0393 20.6863 19.9673 20.7562 19.8942C21.0432 19.5892 21.1973 19.1827 21.1848 18.764C21.1723 18.3454 20.9941 17.9488 20.6895 17.6614C20.6399 17.6145 20.5872 17.571 20.5319 17.531L20.4662 17.484Z" fill="black"/>
</g>
<defs>
<clipPath id="clip0">
<rect width="24" height="24" fill="white"/>
</clipPath>
</defs>
</svg>
