<svg width="24" height="24" fill="none" xmlns="http://www.w3.org/2000/svg"><path d="M7.451 5.44v1.605A1.833 1.833 0 0 1 5.616 8.88h-3.55A2.065 2.065 0 0 0 0 10.945v3.028a2.07 2.07 0 0 0 2.065 2.065h3.551c1.019 0 1.835.83 1.835 1.835v3.551a2.07 2.07 0 0 0 2.065 2.065h3.028a2.07 2.07 0 0 0 2.065-2.065v-3.551c0-1.019.824-1.835 1.835-1.835h1.605c-5.833 0-10.598-4.765-10.598-10.598Z" fill="#000"/><path d="M22.06 13.973v-3.028a2.07 2.07 0 0 0-2.065-2.065h-3.55a1.833 1.833 0 0 1-1.836-1.835v-3.55a2.07 2.07 0 0 0-2.065-2.066H9.516a2.07 2.07 0 0 0-2.065 2.065v1.947c0 5.832 4.772 10.598 10.598 10.598h1.946a2.07 2.07 0 0 0 2.066-2.066Z" fill="#DB0029"/><path d="M16.765 6.208S16.075-.999 24 .76c-.146 2.121.049 7.34-7.235 5.45Z" fill="#DB0029"/></svg>