<svg width="24" height="24" fill="none" xmlns="http://www.w3.org/2000/svg"><path d="M12.224 0 1.92 5.948v11.895l10.304 5.948 10.305-5.948V5.948L12.224 0Z" fill="url(#a)"/><path d="M12.224 0 1.92 5.948v11.895l10.304 5.948V0Z" fill="url(#b)"/><path d="M16.242 5.14H8.155l-.94 4.12h10.018l-.991-4.12ZM9.59 14.921v-2.74l-2.4-1.512-2.713 2.008 3.704 6.444h1.487l1.748-1.644v-.808L9.59 14.922Z" fill="#fff"/><path d="M14.833 9.887H9.615l.861 2.295-.26 2.583h4.017l-.261-2.583.86-2.295Z" fill="#fff"/><path d="m17.233 10.644-2.374 1.539v2.739l-1.8 1.748v.808l1.747 1.618h1.461l3.679-6.418-2.713-2.034Z" fill="#fff"/><defs><linearGradient id="a" x1="12.224" y1="0" x2="12.224" y2="23.765" gradientUnits="userSpaceOnUse"><stop stop-color="#25376C"/><stop offset="1" stop-color="#1F1F49"/></linearGradient><linearGradient id="b" x1="7.059" y1="23.765" x2="7.059" y2="0" gradientUnits="userSpaceOnUse"><stop stop-color="#25376C"/><stop offset="1" stop-color="#1F1F49"/></linearGradient></defs></svg>