<svg width="24" height="24" fill="none" xmlns="http://www.w3.org/2000/svg"><path d="M12 24c6.627 0 12-5.373 12-12S18.627 0 12 0 0 5.373 0 12s5.373 12 12 12Z" fill="#B3BA00"/><path d="m9.848 7.998-.098.06L14.25 15V8.051L12.003 6.75 9.848 7.998Zm-.098 7.876 2.352 1.376 2.148-1.254L9.75 9v6.874ZM7.5 9.267v5.466L9 15.75v-7.5L7.5 9.267ZM15 15.75l1.5-1.04V9.29L15 8.25v7.5Z" fill="#fff"/><path d="M12 3c-4.969 0-9 4.031-9 9s4.031 9 9 9 9-4.031 9-9-4.031-9-9-9Zm-.037 14.715-4.857-2.88V9.084l4.857-2.872 4.857 2.872v5.752l-4.857 2.878v.001Z" fill="#fff"/></svg>