<svg width="24" height="24" viewBox="0 0 24 24" fill="none" xmlns="http://www.w3.org/2000/svg">
<path d="M17.7767 7.97883C17.3036 7.97883 16.8498 8.16678 16.5153 8.50135C16.1807 8.83591 15.9927 9.28968 15.9927 9.76283C15.9927 10.236 16.1807 10.6897 16.5153 11.0243C16.8498 11.3589 17.3036 11.5468 17.7767 11.5468C18.2499 11.5468 18.7037 11.3589 19.0382 11.0243C19.3728 10.6897 19.5607 10.236 19.5607 9.76283C19.5607 9.28968 19.3728 8.83591 19.0382 8.50135C18.7037 8.16678 18.2499 7.97883 17.7767 7.97883ZM17.7767 10.6443C17.5448 10.6416 17.3233 10.5475 17.1602 10.3825C16.9971 10.2174 16.9057 9.99481 16.9057 9.76283C16.9057 9.2801 17.294 8.88132 17.7767 8.88132C18.2595 8.88132 18.6478 9.2801 18.6478 9.76283C18.6478 10.2456 18.2595 10.6443 17.7767 10.6443ZM6.31719 7.97883C5.84404 7.97883 5.39028 8.16678 5.05571 8.50135C4.72115 8.83591 4.53319 9.28968 4.53319 9.76283C4.53319 10.236 4.72115 10.6897 5.05571 11.0243C5.39028 11.3589 5.84404 11.5468 6.31719 11.5468C6.79034 11.5468 7.2441 11.3589 7.57867 11.0243C7.91323 10.6897 8.10119 10.236 8.10119 9.76283C8.10119 9.28968 7.91323 8.83591 7.57867 8.50135C7.2441 8.16678 6.79034 7.97883 6.31719 7.97883ZM6.31719 10.6443C6.08522 10.6416 5.8637 10.5475 5.70065 10.3825C5.53759 10.2174 5.44616 9.99481 5.44618 9.76283C5.44618 9.2801 5.83446 8.88132 6.31719 8.88132C6.79992 8.88132 7.1882 9.2801 7.1882 9.76283C7.1882 10.2456 6.79992 10.6443 6.31719 10.6443ZM11.4593 12.5018H10.242V11.274H11.4698V12.5018H11.4593ZM13.6945 12.5018H12.4667V11.274H13.6945V12.5018ZM23.2861 17.3815L22.4991 11.253L22.3627 10.1931L22.3207 9.8048C22.1907 8.62512 21.6353 7.53324 20.7583 6.73355C19.8813 5.93386 18.743 5.48118 17.5564 5.46024V1.01074L15.3106 2.30152V1.6194L14.3767 2.17559L13.3168 2.78425V1.96571L11.3439 3.07808V1.54594L9.1401 2.82622V1.92373L6.23324 3.62377V5.48123C5.09875 5.56947 4.03054 6.05058 3.21261 6.84168C2.39469 7.63279 1.87825 8.68438 1.75226 9.8153L1.71028 10.1931C1.6683 10.5394 1.63682 10.9067 1.57386 11.274L0.7868 17.392C0.671124 18.1695 0.830094 18.963 1.23635 19.6358C1.6426 20.3087 2.27072 20.8189 3.01258 21.0786C3.75445 21.3384 4.56364 21.3313 5.30088 21.0588C6.03812 20.7862 6.65728 20.2652 7.05178 19.5853L8.9617 16.3531C9.20307 15.9439 9.64382 15.6815 10.1161 15.6815H13.9569C14.4291 15.6815 14.8699 15.9334 15.1112 16.3531L17.0212 19.5853C17.4156 20.267 18.0358 20.7896 18.7746 21.0626C19.5133 21.3356 20.3243 21.342 21.0673 21.0807C21.8102 20.8193 22.4386 20.3066 22.8437 19.6312C23.2489 18.9558 23.4054 18.1601 23.2861 17.3815ZM21.7855 19.5014C21.5273 19.7937 21.2034 20.0205 20.8404 20.1634C20.4775 20.3062 20.0859 20.3609 19.6977 20.323C19.3095 20.2851 18.9358 20.1557 18.6074 19.9454C18.2789 19.735 18.005 19.4498 17.8082 19.1131L15.8983 15.8809C15.7003 15.5442 15.4182 15.2647 15.0798 15.0697C14.7413 14.8747 14.358 14.7709 13.9674 14.7685H10.1161C9.329 14.7685 8.58392 15.1988 8.18514 15.8809L6.27521 19.1131C6.08163 19.4535 5.80909 19.7425 5.48054 19.9557C5.15198 20.1689 4.77702 20.3 4.38722 20.3381C3.99742 20.3761 3.60418 20.32 3.24059 20.1744C2.87701 20.0288 2.55373 19.798 2.29795 19.5014C2.05978 19.2298 1.88229 18.9105 1.77733 18.5648C1.67237 18.2192 1.64236 17.8551 1.68929 17.497L2.47635 11.3894C2.53931 11.0221 2.5708 10.6443 2.61277 10.2875L2.65475 9.92024C2.73568 9.21457 3.0041 8.54346 3.43214 7.97663C3.86017 7.40979 4.43219 6.96793 5.08876 6.69695C5.74532 6.42597 6.46248 6.33576 7.1657 6.43569C7.86892 6.53563 8.53255 6.82206 9.08763 7.26523C9.8749 7.92954 10.87 8.29713 11.9001 8.30414H12.2044C13.2013 8.30414 14.1983 7.93685 15.0168 7.26523C15.7178 6.68939 16.5967 6.37418 17.5039 6.37323C18.481 6.37781 19.4223 6.74193 20.1481 7.39613C20.8739 8.05034 21.3335 8.94884 21.4392 9.92024L21.4812 10.298L21.6176 11.3789L22.4046 17.497C22.4886 18.2211 22.2682 18.9557 21.7855 19.5014Z" fill="url(#paint0_linear)"/>
<path d="M9.67578 18.3572C10.8511 19.5115 13.2648 19.501 14.4191 18.3257" stroke="url(#paint1_linear)" stroke-width="8" stroke-miterlimit="10"/>
<defs>
<linearGradient id="paint0_linear" x1="4.20788" y1="5.7226" x2="21.4392" y2="21.2329" gradientUnits="userSpaceOnUse">
<stop stop-color="#8D5AE9"/>
<stop offset="1" stop-color="#63D1DF"/>
</linearGradient>
<linearGradient id="paint1_linear" x1="10.5888" y1="17.3078" x2="13.5166" y2="19.9418" gradientUnits="userSpaceOnUse">
<stop stop-color="#7B8DE5"/>
<stop offset="1" stop-color="#70ADE2"/>
</linearGradient>
</defs>
</svg>
