<svg width="24" height="24" fill="none" xmlns="http://www.w3.org/2000/svg"><path d="M22.85 2h-10.5c-.7 0-1.25.55-1.25 1.25v10.8H7.3c-.7 0-1.3.5-1.3 1.15 0 .65.6 1.15 1.3 1.15h5.1c.7 0 1.25-.55 1.25-1.25V9.55h6.2c.65 0 1.15-.5 1.15-1.15 0-.65-.5-1.15-1.15-1.15H13.6V4.3h9.25c.65 0 1.15-.5 1.15-1.15C24 2.5 23.5 2 22.85 2Zm-10.4 18.2H7.1c-.65 0-1.15.5-1.15 1.15 0 .65.5 1.15 1.15 1.15h5.35c.65 0 1.15-.5 1.15-1.15 0-.65-.5-1.15-1.15-1.15ZM6.5 7.25H1.15C.5 7.25 0 7.75 0 8.4c0 .65.5 1.15 1.15 1.15H6.5c.65 0 1.15-.5 1.15-1.15 0-.6-.5-1.15-1.15-1.15Z" fill="#06142E"/></svg>