<svg width="24" height="24" fill="none" xmlns="http://www.w3.org/2000/svg"><path d="M18.663 18.317c.179-4.18-2.233-6.221-3.547-7.01-.871-.524-1.588-1.277-2.018-2.196-1.54-3.248.681-5.839.681-5.839 1.35-1.684 3.033-2.58 5.397-2.066a23.508 23.508 0 0 1 4.74 2.114v.12a23.52 23.52 0 0 1-5.253 14.877Z" fill="#67AFE2"/><path d="M16.083 21.027A23.686 23.686 0 0 1 12 23.977 23.659 23.659 0 0 1 1.66 11.965c1.826.943 4.059 1.755 5.635 1.241 3.14-1.015 5.42-2.698 8.454.024 1.707 1.529 2.065 3.499 1.66 5.517a4.313 4.313 0 0 1-1.326 2.28Z" fill="#1EBBAD"/><path d="M16.048.442c-1.875.728-4.323 2.269-4.526 5.397v.155c-.024.776.024 4.705-3.976 6.042 0 0-2.854.991-5.242-1.039-.979-.836-1.612-1.994-1.85-3.26A24.517 24.517 0 0 1 .06 3.32 23.5 23.5 0 0 1 11.988.096c1.385 0 2.746.12 4.06.346Z" fill="#F7A800"/></svg>