<svg width="24" height="24" viewBox="0 0 24 24" fill="none" xmlns="http://www.w3.org/2000/svg">
<path d="M9.96832 21.0286L8.44451 17.8794L5.72705 22.1588C5.96832 22.3111 6.20959 22.4508 6.45086 22.5778C6.75562 22.7429 7.08578 22.8953 7.40324 23.0223C8.44451 23.454 9.53657 23.7334 10.654 23.8603C10.8826 23.8857 11.1239 23.9111 11.3524 23.9238L9.96832 21.0286Z" fill="#7CC245"/>
<path d="M23.5048 8.8127C23.4286 8.54603 23.3398 8.27936 23.2509 8.0127L14.8572 15.4286L13.7017 16.4571L13.8032 17.3968L14.4382 23.6952C14.8572 23.6063 15.2636 23.5048 15.6699 23.3778C20.4699 21.8286 23.9493 17.3333 23.9493 12.0127C23.9366 10.8952 23.7842 9.82857 23.5048 8.8127Z" fill="#FCCB32"/>
<path d="M6.99658 18.3617L8.85055 22.2093L15.2759 16.5331L14.1077 4.99023L6.99658 18.3617Z" fill="#EE3F26"/>
<path d="M7.80974 17.9429L13.9431 6.42549L13.9812 6.85723L14.6415 5.62549L3.09863 9.24454L7.67006 18.7429L7.94943 18.2223L7.80974 17.9429Z" fill="#CF3627"/>
<path d="M9.40967 21.2571L10.6668 23.8602C11.1113 23.911 11.5557 23.9364 12.0001 23.9364C13.27 23.9364 14.5017 23.7332 15.6573 23.365L14.9462 16.3682L9.40967 21.2571Z" fill="#F05048"/>
<path d="M14.9458 16.3681L15.6569 23.3649C20.4569 21.8157 23.9363 17.3204 23.9363 11.9998C23.9363 10.895 23.7839 9.82837 23.5045 8.8125L14.9458 16.3681Z" fill="#FCCB32"/>
<path d="M13.3078 0.139667C12.876 0.0888734 12.4316 0.0634766 11.9998 0.0634766C7.74588 0.0634766 4.01255 2.2984 1.89191 5.65078C1.35858 6.50157 0.926832 7.42856 0.62207 8.38094L3.79667 9.59998L13.9427 6.41268L15.0348 0.444429C14.4633 0.304746 13.8919 0.203159 13.3078 0.139667Z" fill="#2591D4"/>
<path d="M21.0286 4.20306C19.873 2.85703 18.4254 1.79036 16.8 1.07925C16.2286 0.825282 15.6445 0.622108 15.0476 0.469727L13.9556 6.43798L14.9587 16.3808L23.5175 8.82528C23.0349 7.111 22.1841 5.53639 21.0286 4.20306Z" fill="#F47F22"/>
<path d="M7.80951 17.9428L3.79681 9.59991L0.622207 8.38086C0.253953 9.54911 0.0634766 10.7682 0.0634766 11.9999C0.0634766 16.2412 2.273 19.9618 5.61268 22.0824C5.89205 22.2602 6.17141 22.4253 6.46348 22.5777L8.49522 19.365L7.80951 17.9428Z" fill="#4CAA4C"/>
<path d="M9.40941 21.2573L8.49512 19.3652L6.46338 22.5779C6.76814 22.743 7.0983 22.8954 7.41576 23.0224C8.45703 23.4541 9.54909 23.7335 10.6666 23.8605L9.40941 21.2573Z" fill="#7CC245"/>
<path d="M21.0286 4.2034C19.873 2.85737 18.4254 1.7907 16.8 1.07959L13.9429 6.41292L21.0286 4.2034ZM13.9429 6.42562L14.946 16.3685L23.5048 8.81292C23.0349 7.11134 22.1841 5.53673 21.0286 4.2034L13.9429 6.42562Z" fill="#F47F22"/>
<path d="M7.80957 17.9428L9.40957 21.257L14.9461 16.3682L13.9429 6.42529L7.80957 17.9428Z" fill="#EE3F26"/>
<path d="M13.9429 6.42538L13.308 0.139667C12.8762 0.0888734 12.4318 0.0634766 12 0.0634766C7.74606 0.0634766 4.01272 2.2984 1.89209 5.65078L3.79685 9.59998L13.9429 6.42538Z" fill="#1E85CA"/>
<path d="M13.9429 6.42529L3.79688 9.5999L7.80957 17.9428L13.9429 6.42529Z" fill="#CF3627"/>
<path d="M13.943 6.41266L16.7875 1.06663C15.6827 0.584093 14.5018 0.266633 13.2954 0.139648L13.943 6.41266Z" fill="#35A9E1"/>
<path d="M9.40967 21.2571L10.6668 23.8602C11.1113 23.911 11.5557 23.9364 12.0001 23.9364C13.27 23.9364 14.5017 23.7332 15.6573 23.365L14.9462 16.3682L9.40967 21.2571Z" fill="#F05048"/>
<path d="M14.9458 16.3681L15.6569 23.3649C20.4569 21.8157 23.9363 17.3204 23.9363 11.9998C23.9363 10.895 23.7839 9.82837 23.5045 8.8125L14.9458 16.3681Z" fill="#FCCB32"/>
<path d="M7.41602 23.0224C8.45729 23.4542 9.54935 23.7335 10.6668 23.8605L9.40967 21.2573L7.41602 23.0224Z" fill="#7CC245"/>
<path d="M1.89203 5.65088C0.926953 7.18739 0.317429 8.93977 0.126953 10.7556L3.79679 9.60009L1.89203 5.65088Z" fill="#0161AD"/>
<path d="M3.79681 9.6001L0.126969 10.7557C0.0888734 11.162 0.0634766 11.581 0.0634766 12.0001C0.0634766 16.2414 2.273 19.962 5.61268 22.0826L7.80951 17.943L3.79681 9.6001Z" fill="#4CAA4C"/>
<path d="M7.80962 17.9429L5.61279 22.0826C6.18422 22.4508 6.78105 22.7556 7.41597 23.0222L9.40962 21.2572L7.80962 17.9429Z" fill="#51B34B"/>
<path d="M14.1968 2.69189L13.9175 3.52999C16.4064 4.87602 18.8191 7.27602 20.127 9.35856L20.9778 9.10459C19.5683 6.81888 16.927 4.16491 14.1968 2.69189Z" fill="#444344"/>
<path d="M18.3364 0.749023C16.7364 0.749023 15.3396 1.62521 14.6031 2.92045C14.5015 3.08553 14.4253 3.26331 14.3491 3.45379C14.3364 3.50458 14.3111 3.54267 14.2984 3.59347C14.2857 3.63156 14.2603 3.68236 14.2476 3.72045C16.4825 5.02839 18.6158 7.12363 19.8984 9.04109C19.9237 9.02839 19.9364 9.02839 19.9618 9.01569C20.1015 8.9522 20.2412 8.88871 20.3809 8.81251C20.4825 8.76172 20.5841 8.69823 20.6857 8.63474C21.8666 7.87283 22.6412 6.5395 22.6412 5.04109C22.6412 2.67918 20.7111 0.749023 18.3364 0.749023Z" fill="#EE3F26"/>
<path d="M14.2984 3.59375C14.2857 3.63185 14.2603 3.68264 14.2476 3.72073C16.4825 5.02867 18.6158 7.12391 19.8984 9.04137C19.9237 9.02867 19.9364 9.02867 19.9618 9.01597C20.1015 8.95248 20.2412 8.88899 20.3809 8.8128C19.0222 6.92073 16.6984 4.8255 14.2984 3.59375Z" fill="#C03225"/>
</svg>
