<svg width="24" height="24" fill="none" xmlns="http://www.w3.org/2000/svg"><path fill-rule="evenodd" clip-rule="evenodd" d="M10.52 17.587a5.807 5.807 0 0 1-4.34-5.611 5.807 5.807 0 0 1 4.34-5.611V4.294c-3.617.684-6.363 3.868-6.363 7.682 0 3.814 2.746 6.998 6.364 7.682v-2.07Z" fill="#000"/><path fill-rule="evenodd" clip-rule="evenodd" d="M11.976 23.224C5.773 23.224.727 18.178.727 11.976.727 5.773 5.773.727 11.976.727c6.202 0 11.248 5.046 11.248 11.249 0 6.202-5.046 11.248-11.248 11.248Zm0-23.224C5.372 0 0 5.372 0 11.976c0 6.603 5.372 11.976 11.976 11.976 6.603 0 11.976-5.373 11.976-11.976C23.952 5.372 18.579 0 11.976 0Z" fill="#000"/><path fill-rule="evenodd" clip-rule="evenodd" d="M13.43 4.294v2.07a5.807 5.807 0 0 1 4.342 5.612 5.807 5.807 0 0 1-4.341 5.611v2.07c3.618-.683 6.363-3.867 6.363-7.681s-2.745-6.998-6.363-7.682Z" fill="#000"/></svg>