<svg width="24" height="24" fill="none" xmlns="http://www.w3.org/2000/svg"><path d="M12 .063C5.403.063.062 5.403.062 12c0 6.597 5.34 11.937 11.938 11.937 6.596 0 11.937-5.34 11.937-11.937C23.937 5.403 18.597.063 12 .063Z" fill="#1A53F0"/><path d="M15.77 5.479a3.202 3.202 0 0 0-3.205 3.204 3.202 3.202 0 0 0 3.204 3.204 3.202 3.202 0 0 0 3.204-3.204 3.202 3.202 0 0 0-3.204-3.204Zm0 5.44a2.242 2.242 0 0 1-2.237-2.236 2.242 2.242 0 0 1 2.236-2.237 2.242 2.242 0 0 1 2.237 2.237 2.242 2.242 0 0 1-2.237 2.236Zm-6.836 1.395a3.202 3.202 0 0 0-3.205 3.204 3.202 3.202 0 0 0 3.205 3.205 3.202 3.202 0 0 0 3.204-3.205 3.202 3.202 0 0 0-3.204-3.204Zm0 5.441a2.242 2.242 0 0 1-2.237-2.237 2.242 2.242 0 0 1 2.237-2.236 2.242 2.242 0 0 1 2.236 2.236 2.242 2.242 0 0 1-2.236 2.237Zm3.204-11.309V5.48H8.934a3.18 3.18 0 0 0-3.142 2.563 3.21 3.21 0 0 0 5.793 2.45 3.211 3.211 0 0 0-.352-4.046h.905ZM8.934 10.92a2.242 2.242 0 0 1-2.237-2.236 2.242 2.242 0 0 1 2.237-2.237 2.242 2.242 0 0 1 2.236 2.237 2.242 2.242 0 0 1-2.236 2.236Z" fill="#fff"/></svg>