<svg width="24" height="24" fill="none" xmlns="http://www.w3.org/2000/svg"><g clip-path="url(#a)"><path d="M12.304 3.06s2.463.985 4.597 5.857c.26.855.425 1.736.493 2.627 0 0 .11 3.229-2.244 4.214a1.303 1.303 0 0 0-.93 1.423c.109 1.15.328 2.956.328 3.339a1.286 1.286 0 0 1-1.259 1.15 8.708 8.708 0 0 1-2.463 0c-.82-.22-.93-.658-.93-.658s-.384-.547-.11-2.955c0 0 .547-1.697-1.04-2.354-1.587-.656-2.134-3.557-2.134-3.557S6.119 9.3 9.184 5.304c0 0 1.916-2.408 3.065-2.298" fill="url(#b)"/><path d="m9.458 4.642-.165.164.165-.164Z" fill="url(#c)"/><path d="M8.144 6.344a8.002 8.002 0 0 0-2.791-1.259 14.985 14.985 0 0 0-3.065-.328h-.712a1.587 1.587 0 0 0-1.259.547 1.352 1.352 0 0 0-.273 1.204 11.592 11.592 0 0 0 2.846 6.076c.767.814 1.63 1.53 2.572 2.134.972.56 2.024.967 3.12 1.204-1.642-.711-2.19-3.667-2.19-3.667C4.806 11.27 3.767 9.792 3 7.603h.055c1.39.03 2.742.468 3.886 1.259a8.795 8.795 0 0 1 1.204-2.518Z" fill="url(#d)"/><path d="M17.065 8.862a6.99 6.99 0 0 1 3.886-1.26h.055c-.766 2.19-1.86 3.668-3.448 4.653v-.328c-.055.876-.383 3.229-2.299 4.05a11.348 11.348 0 0 0 3.284-1.259 8.794 8.794 0 0 0 2.573-2.134 12.49 12.49 0 0 0 2.846-6.076 1.353 1.353 0 0 0-.274-1.204 1.784 1.784 0 0 0-1.259-.547h-.711a14.23 14.23 0 0 0-3.065.328c-1.03.234-2 .681-2.846 1.314.5.777.922 1.602 1.258 2.463Z" fill="url(#e)"/></g><defs><linearGradient id="b" x1="6.557" y1="12.381" x2="17.366" y2="12.381" gradientUnits="userSpaceOnUse"><stop stop-color="#29DCE8"/><stop offset="1" stop-color="#29DC93"/></linearGradient><linearGradient id="c" x1="12.083" y1="10.241" x2="12.126" y2="10.241" gradientUnits="userSpaceOnUse"><stop stop-color="#29DCE8"/><stop offset="1" stop-color="#29DC93"/></linearGradient><linearGradient id="d" x1="1.203" y1="271.075" x2="134.801" y2="271.075" gradientUnits="userSpaceOnUse"><stop stop-color="#29DCE8"/><stop offset="1" stop-color="#29DC93"/></linearGradient><linearGradient id="e" x1="259.324" y1="271.795" x2="398.102" y2="271.795" gradientUnits="userSpaceOnUse"><stop stop-color="#29DCE8"/><stop offset="1" stop-color="#29DC93"/></linearGradient><clipPath id="a"><path fill="#fff" d="M0 0h24v24H0z"/></clipPath></defs></svg>