<svg width="24" height="24" fill="none" xmlns="http://www.w3.org/2000/svg"><g clip-path="url(#a)"><path d="M.017 24a10.012 10.012 0 0 1-.006-1c.111-.034.222-.056.34-.073a8.53 8.53 0 0 0 .988-.233 5.06 5.06 0 0 0 .267-.095 2.658 2.658 0 0 0 1.095-.8c.2-.25.373-.523.523-.806.21-.39.394-.795.561-1.206.333-.834.667-1.662.995-2.496L8.18 8.687A608.943 608.943 0 0 0 11.344.483l.067-.166c.383-.106.756-.217 1.145-.323.022.056.044.106.06.156.44 1.223.88 2.445 1.313 3.674 1.495 4.174 2.99 8.342 4.524 12.5.422 1.134.845 2.273 1.273 3.407.166.461.367.917.594 1.35.1.19.206.367.323.545.355.556.906.95 1.545 1.117.345.09.69.162 1.045.206l.25.04c.033.11.017.216.017.322v.338c.005.112 0 .217-.006.328l-.094.017H14.607a.198.198 0 0 1-.022-.061v-.9c0-.012.005-.028.01-.04a1.42 1.42 0 0 1 .223-.044c.361-.05.717-.117 1.073-.211.139-.039.283-.089.417-.145.066-.027.133-.06.2-.1.35-.194.489-.5.455-.889a2.782 2.782 0 0 0-.094-.522c-.072-.267-.167-.528-.256-.784a2074.29 2074.29 0 0 1-5.408-15.28c-.017-.055-.028-.116-.083-.166-.017.011-.045.022-.056.033a.263.263 0 0 0-.033.084c-.873 2.506-1.801 4.996-2.724 7.48a219.443 219.443 0 0 0-2 5.542c-.256.745-.5 1.495-.74 2.246a5.436 5.436 0 0 0-.205.878c-.034.2-.04.4-.017.606a.93.93 0 0 0 .383.656c.14.1.295.178.462.233.26.095.528.161.8.206.3.055.6.1.906.144.022.006.039.006.067.011l.016.067v.873c0 .016-.005.033-.01.05-.029.005-.056.01-.084.01H7.77L.017 24Z" fill="#000"/></g><defs><clipPath id="a"><path fill="#fff" d="M0 0h24v24H0z"/></clipPath></defs></svg>