<svg width="24" height="24" fill="none" xmlns="http://www.w3.org/2000/svg"><path fill-rule="evenodd" clip-rule="evenodd" d="M24 12c0 6.627-5.373 12-12 12S0 18.627 0 12 5.373 0 12 0s12 5.373 12 12Z" fill="#84BF42"/><path fill-rule="evenodd" clip-rule="evenodd" d="M12.03 12.548h5.31V11.51h-5.31v1.037Zm0 .372h5.278v4.327c-.54.392-1.294.707-2.26.947-.967.239-1.906.359-2.819.359-2.047 0-3.664-.593-4.85-1.778-1.187-1.185-1.78-2.76-1.78-4.727 0-1.96.651-3.551 1.952-4.77 1.301-1.22 2.94-1.83 5.15-1.83 1.547 0 3.216.91 4.12 1.777l-1.446 1.608c-2.214-2.56-7.752-1.446-7.538 3.284.215 4.758 4.864 5.48 7.444 3.506v-1.666h-3.25V12.92Z" fill="#FFFFFE"/></svg>