<svg width="24" height="24" viewBox="0 0 24 24" fill="none" xmlns="http://www.w3.org/2000/svg">
<path d="M12 24C18.6274 24 24 18.6274 24 12C24 5.37258 18.6274 0 12 0C5.37258 0 0 5.37258 0 12C0 18.6274 5.37258 24 12 24Z" fill="#0E0E21"/>
<path d="M18.6998 14.7999L17.2748 12.3749C17.2248 12.2749 17.0998 12.2499 17.0248 12.3249L16.0998 12.9249C16.0248 12.9749 15.9998 13.0999 16.0498 13.1749L16.8748 14.5499C16.8998 14.5999 16.8748 14.6499 16.8498 14.6749L12.0498 17.7749C12.0248 17.7999 11.9748 17.7999 11.9498 17.7749L7.19979 14.6749C7.14979 14.6499 7.1498 14.5999 7.1748 14.5499L7.99979 13.1749C8.04979 13.0999 8.02479 12.9749 7.94979 12.9249L7.0248 12.3249C6.9248 12.2749 6.8248 12.2999 6.7748 12.3749L5.34979 14.7999C5.24979 14.9749 5.29979 15.1999 5.47479 15.2999L11.8498 19.4499C11.9748 19.5249 12.1248 19.5249 12.2498 19.4499L18.6248 15.2999C18.7498 15.1749 18.7998 14.9499 18.6998 14.7999Z" fill="white"/>
<path d="M7.72543 11.025L8.65043 11.625C8.75043 11.675 8.85043 11.65 8.90043 11.575L11.9004 6.475C11.9254 6.425 12.0254 6.425 12.0504 6.475L15.0504 11.575C15.1004 11.675 15.2254 11.7 15.3004 11.625L16.2254 11.025C16.3004 10.975 16.3254 10.85 16.2754 10.775L12.7504 4.675C12.6754 4.55 12.5754 4.5 12.4254 4.5H11.5754C11.4504 4.5 11.3254 4.575 11.2504 4.675L7.67543 10.775C7.62543 10.85 7.65043 10.975 7.72543 11.025Z" fill="#2AE7A8"/>
</svg>
