<svg width="24" height="24" fill="none" xmlns="http://www.w3.org/2000/svg"><g clip-path="url(#a)"><path fill-rule="evenodd" clip-rule="evenodd" d="M.215 3h6.86c.037 0 .073.008.105.025a.21.21 0 0 1 .076.072l8.353 13.355a.205.205 0 0 1 0 .227l-3.418 5.453a.21.21 0 0 1-.357 0L.034 3.324a.21.21 0 0 1-.009-.215.21.21 0 0 1 .08-.08A.21.21 0 0 1 .215 3Zm14.381 0h9.19a.21.21 0 0 1 .11.03.21.21 0 0 1 .066.08.215.215 0 0 1 .026.109.21.21 0 0 1-.026.105l-4.59 7.331a.21.21 0 0 1-.179.098.214.214 0 0 1-.179-.098L14.42 3.324a.211.211 0 0 1-.008-.215.21.21 0 0 1 .08-.08.21.21 0 0 1 .105-.029Z" fill="#FF8836"/></g><defs><clipPath id="a"><path fill="#fff" d="M0 0h24v24H0z"/></clipPath></defs></svg>