<svg width="24" height="24" fill="none" xmlns="http://www.w3.org/2000/svg"><g clip-path="url(#a)" fill-rule="evenodd" clip-rule="evenodd" fill="#DEC685"><path d="M10.93 13.935c-.084-.108-.171-.223-.257-.343a.49.49 0 0 1-.1-.4c.064-.298.419-.558.55-.633l-.162-.291c-.024.013-.6.345-.71.85a.82.82 0 0 0 .153.67c.089.123.178.24.264.351.428.559.622.843.358 1.198-.113.15-.243.249-.381.352-.344.257-.7.523-.58 1.514l.328-.04c-.097-.799.132-.969.448-1.206.145-.108.308-.23.45-.42.428-.575.044-1.074-.362-1.602Z"/><path d="M10.94 12.348c-.149.095-.546.382-.633.782a.76.76 0 0 0 .145.623c.088.124.176.239.26.35.435.566.649.879.36 1.267-.117.158-.251.257-.393.364-.34.254-.66.493-.563 1.403l.212-.027c-.082-.782.164-.968.476-1.2.142-.107.301-.226.439-.41.402-.539.049-.999-.36-1.533-.084-.109-.173-.223-.258-.344a.543.543 0 0 1-.11-.448c.063-.286.368-.535.529-.639l-.104-.188Zm-.926 4.92-.008-.057c-.125-1.026.262-1.314.601-1.57.135-.1.264-.197.37-.34.23-.308.093-.54-.357-1.126-.091-.117-.18-.235-.265-.354a.876.876 0 0 1-.164-.716c.112-.514.674-.851.739-.888l.052-.03.218.394-.05.029c-.116.066-.462.317-.52.593-.026.118.003.235.089.356.086.12.172.233.255.341.401.522.816 1.063.362 1.673-.147.196-.314.322-.461.432-.312.233-.518.387-.425 1.152l.008.057-.444.054ZM6.972 6.941c-1.709-.067-2.11.578-2.146 1.133-.016.25.003.528.024.824.044.648.09 1.319-.25 1.657-.198.199-.522.277-.99.24l-.025.334c.082.006.16.01.237.01.446 0 .779-.114 1.01-.346.447-.446.394-1.228.348-1.917a6.437 6.437 0 0 1-.024-.78c.038-.59.644-.868 1.803-.82l.013-.335Z"/><path d="M3.646 11.077c.522.031.895-.074 1.145-.324.427-.428.375-1.196.33-1.873a6.536 6.536 0 0 1-.024-.788c.04-.618.647-.912 1.806-.876l.009-.218c-1.282-.04-1.981.334-2.028 1.08-.016.249.002.523.023.815.044.661.091 1.346-.266 1.703-.202.202-.521.288-.976.261l-.019.22Zm.176.12c-.078 0-.157-.003-.242-.01l-.058-.005.035-.449.057.005c.45.036.759-.038.944-.224.32-.32.274-.978.233-1.613-.02-.296-.04-.576-.024-.832.037-.58.45-1.255 2.206-1.186l.058.002-.018.45-.057-.002c-1.12-.045-1.708.212-1.743.765-.015.226.003.492.023.773.048.702.1 1.498-.363 1.963-.244.245-.589.363-1.051.363Z"/><path d="M9.497 12.563c-.083-.11-.17-.222-.256-.344-.107-.15-.143-.289-.113-.429.053-.238.285-.418.392-.49.23.093.51.154.85.167v.003l.072-.001.071.001v-.003c.948-.036 1.428-.448 1.67-.853.228.092.878.425.848 1.231-.014.398-.347.777-.67 1.143-.457.523-.977 1.116-.544 1.818l.28-.176c-.281-.459.006-.843.512-1.42.361-.41.734-.836.752-1.352.026-.72-.385-1.174-.773-1.414.324-.033.735-.143.835-.35.035-.073.128-.268-.765-2.392-.063-.304-.244-1.177-.296-1.6.663-.914.366-1.85-.233-2.382-.621-.55-1.648-.75-2.44-.126-.227-.519-.801-.885-1.564-.979-1.357-.167-2.347.557-2.691 1.3-.446.96-.2 1.637.035 1.997-.734.008-1.246.188-1.555.545-.496.571-.33 1.434-.198 2.128.062.323.139.724.06.822-.257.324-.549.23-.663.175-.195-.094-.318-.282-.283-.436l-.323-.072c-.066.307.129.648.465.81.297.143.732.148 1.063-.269.175-.218.1-.604.006-1.094-.117-.622-.266-1.394.123-1.845.283-.327.842-.467 1.66-.42l.111-.298c-.008-.007-.783-.646-.2-1.9.421-.91 1.514-1.215 2.352-1.112.58.071 1.241.365 1.361.975l.28.085c.5-.513 1.434-.7 2.183-.034.454.402.765 1.151.17 1.949-1.519-.236-2.656-.033-3.375.607A2.291 2.291 0 0 0 8 7.734a.612.612 0 0 0-.115-.071c-.112-.052-.34-.107-.61.095-.268.201-.377.503-.308.848.08.41.397.827.711 1.06-.15.147-.303.343-.354.58a.82.82 0 0 0 .153.67c.088.123.178.24.264.352.428.558.622.842.358 1.197-.113.15-.244.249-.383.352-.343.257-.699.524-.579 1.515l.328-.04c-.097-.8.131-.97.447-1.205.145-.108.308-.23.45-.421.429-.574.045-1.073-.361-1.603a13.738 13.738 0 0 1-.257-.343.495.495 0 0 1-.099-.4c.04-.19.199-.364.342-.484.01.004.04-.032.04-.032.067-.053.127-.093.168-.115l-.081-.146-.081-.146c-.03.017-.058.034-.086.054-.254-.16-.587-.546-.659-.909-.044-.22.016-.389.182-.515.101-.077.193-.097.276-.059.098.044.179.173.187.298l.156-.012.174-.008c-.001-.008-.022-.866.661-1.47.647-.57 1.698-.744 3.123-.52.083.565.3 1.578.31 1.626l.014-.004c.36.857.729 1.854.744 2.08-.105.09-.544.172-.733.171.048-.187.05-.32.05-.325h-.332c0 .054-.02 1.298-1.66 1.332-1.628-.035-1.657-1.279-1.658-1.333l-.164.001H8.45c0 .012.012.843.742 1.327-.15.128-.33.327-.387.585-.053.236.002.472.166.7.089.125.178.241.264.353.428.558.622.841.358 1.196-.112.15-.244.249-.381.353-.344.258-.7.523-.58 1.515l.328-.04c-.096-.799.132-.97.448-1.206.145-.108.308-.23.45-.42.427-.576.043-1.075-.362-1.604Z"/><path d="M8.513 9.862c.017.194.12.828.714 1.22l.064.044-.06.05c-.138.118-.313.308-.367.553-.05.22.004.44.157.654.088.124.176.24.262.35.433.566.647.879.359 1.266a1.78 1.78 0 0 1-.392.364c-.34.255-.66.494-.565 1.405l.213-.027c-.082-.782.165-.969.476-1.2.142-.107.302-.226.438-.409.401-.538.05-.998-.36-1.532l.046-.037-.047.036c-.083-.11-.17-.223-.257-.345-.117-.163-.157-.32-.122-.476.058-.261.31-.455.416-.526l.026-.017.028.01c.24.096.52.152.832.164l.054.002H10.485l.027-.002c.767-.03 1.313-.308 1.624-.826l.026-.041.046.018c.214.087.915.437.884 1.288-.016.417-.356.805-.683 1.179-.434.494-.924 1.052-.57 1.699l.183-.116c-.252-.47.054-.878.546-1.438.355-.404.72-.821.739-1.317.028-.765-.455-1.182-.746-1.361l-.145-.09.17-.017c.333-.034.705-.146.787-.316.078-.163-.18-.952-.765-2.346-.06-.278-.247-1.183-.301-1.616l-.004-.022.014-.02c.643-.883.35-1.793-.226-2.304-.59-.522-1.59-.733-2.365-.123l-.059.046-.03-.069c-.219-.501-.787-.855-1.516-.944-1.329-.163-2.296.542-2.632 1.267-.423.913-.217 1.56.031 1.942l.058.088-.106.001c-.719.008-1.213.18-1.511.524-.477.55-.315 1.398-.185 2.08.084.438.137.757.049.868-.283.355-.609.252-.735.191-.199-.096-.326-.276-.322-.444l-.213-.047c-.025.265.152.547.442.688.276.134.682.138.992-.251.157-.199.086-.573-.005-1.048-.121-.634-.27-1.422.135-1.892.29-.335.85-.485 1.665-.443l.083-.222c-.146-.141-.72-.791-.185-1.942.434-.937 1.554-1.248 2.412-1.143.588.072 1.26.37 1.404.986l.213.065c.524-.514 1.475-.69 2.239-.012.469.416.796 1.196.178 2.028l-.021.028-.034-.005c-1.504-.233-2.624-.034-3.328.592a2.243 2.243 0 0 0-.69 1.175l-.02.089-.072-.057a.63.63 0 0 0-.101-.065c-.1-.046-.307-.095-.551.09-.25.188-.35.468-.287.79.082.416.406.814.69 1.025l.054.04-.049.049c-.184.176-.296.361-.338.55a.76.76 0 0 0 .145.622c.083.117.168.227.249.333l.013.018c.434.566.648.878.36 1.266a1.747 1.747 0 0 1-.395.364c-.339.254-.66.493-.564 1.405l.214-.026c-.082-.784.166-.97.477-1.2.144-.109.303-.228.438-.41.402-.54.05-1-.36-1.533a13.833 13.833 0 0 1-.258-.343.54.54 0 0 1-.11-.447c.047-.213.224-.398.362-.516l.025-.02h.004l.005-.005c.049-.04.094-.073.135-.099l-.106-.19-.032.02-.034.022-.032-.02c-.279-.175-.612-.578-.685-.946-.047-.241.021-.434.204-.573.12-.09.233-.114.335-.066a.42.42 0 0 1 .213.289l.224-.013c.007-.208.078-.926.68-1.457.66-.583 1.725-.762 3.17-.535l.043.008.006.041c.07.477.233 1.267.296 1.567l.005-.002.018.045c.35.837.732 1.858.748 2.097l.003.03-.022.018c-.124.107-.58.185-.766.185h-.078l.017-.071a1.78 1.78 0 0 0 .044-.253h-.213c-.021.263-.2 1.3-1.715 1.332-1.509-.031-1.694-1.07-1.718-1.332h-.213Zm.07 6.034-.007-.058c-.126-1.025.26-1.313.602-1.567.136-.102.262-.198.37-.341.23-.308.094-.54-.357-1.126-.086-.112-.175-.23-.265-.355-.173-.243-.231-.493-.175-.747.055-.243.211-.435.35-.567-.697-.508-.706-1.324-.706-1.333v-.058h.446V9.8c0 .051.029 1.241 1.605 1.275 1.582-.033 1.6-1.222 1.6-1.274v-.058h.447v.058c0 .001 0 .106-.034.265.194-.014.492-.079.597-.139-.039-.244-.342-1.085-.716-1.984l-.024.006-.013-.057A32.952 32.952 0 0 1 12 6.305c-1.387-.211-2.408-.038-3.033.514-.662.584-.643 1.415-.642 1.424l.002.058-.443.025-.005-.057c-.009-.104-.076-.214-.155-.25-.061-.029-.132-.012-.217.052-.148.113-.2.258-.16.458.065.32.355.68.602.85l.057-.036.05-.027.218.392-.05.028a1.443 1.443 0 0 0-.161.111.121.121 0 0 1-.05.04c-.103.09-.272.258-.312.442a.434.434 0 0 0 .09.356c.084.12.17.23.252.338.404.526.818 1.067.365 1.676-.145.195-.312.32-.458.43-.315.235-.52.389-.428 1.154l.007.058-.443.055-.007-.058c-.124-1.025.261-1.314.602-1.569.135-.1.263-.196.37-.34.23-.309.093-.54-.357-1.127l-.014-.018a11.915 11.915 0 0 1-.25-.335.872.872 0 0 1-.163-.716c.041-.193.15-.38.324-.561-.289-.233-.599-.635-.682-1.055-.073-.368.044-.69.33-.905.293-.222.544-.16.67-.103a.745.745 0 0 1 .053.028c.117-.445.362-.846.704-1.153.728-.645 1.867-.855 3.388-.626.544-.756.244-1.464-.183-1.843-.722-.64-1.622-.463-2.103.032l-.025.024-.347-.104-.006-.034c-.114-.58-.753-.86-1.312-.929-.816-.1-1.883.194-2.293 1.078-.56 1.206.178 1.824.185 1.832l.032.025-.14.378-.043-.002c-.8-.048-1.342.088-1.613.4-.37.429-.225 1.187-.109 1.797.097.504.173.901-.018 1.14-.353.443-.817.438-1.134.284-.359-.173-.568-.541-.495-.875l.012-.056.437.095-.013.057c-.026.127.084.292.253.373.125.06.37.12.593-.16.061-.077-.026-.53-.073-.774-.135-.705-.303-1.583.211-2.176.307-.355.798-.538 1.497-.562-.237-.414-.401-1.07.014-1.966.354-.762 1.366-1.504 2.75-1.333.74.09 1.324.443 1.58.947.814-.594 1.844-.37 2.455.173.61.54.922 1.504.255 2.44.058.436.24 1.312.293 1.574.9 2.137.806 2.335.76 2.43-.092.194-.414.31-.727.362.307.227.698.659.672 1.379-.02.537-.398.97-.766 1.388-.534.609-.758.941-.505 1.352l.029.05-.378.237-.03-.05c-.456-.74.078-1.35.55-1.887.315-.359.64-.73.655-1.106.026-.713-.495-1.038-.766-1.157-.235.365-.704.784-1.637.836v.002l-.057.003h-.2v-.005a2.648 2.648 0 0 1-.787-.157c-.104.073-.298.234-.342.436-.027.123.006.248.103.384.086.12.173.233.255.341l-.045.036.047-.034c.4.522.814 1.063.36 1.671-.146.197-.314.322-.461.432-.313.234-.518.388-.426 1.153l.008.058-.443.049Z"/><path d="M6.751 5.268a.801.801 0 0 0-.01 1.007.714.714 0 0 0 .556.292c.085 0 .17-.018.25-.055.34-.157.421-.284.64-.63.109-.17.257-.404.497-.736.186-.256.383-.39.59-.399.337-.012.619.304.621.308l.125-.11.125-.108c-.014-.018-.366-.425-.847-.425l-.035.001c-.312.013-.597.193-.845.535-.178.245-.347.498-.509.755-.205.322-.248.39-.5.506-.152.07-.314-.02-.407-.141a.466.466 0 0 1 .01-.594l-.26-.206Z"/><path d="M6.763 5.35a.74.74 0 0 0 .024.889c.188.241.489.333.734.22.325-.15.399-.265.616-.608.109-.17.257-.405.5-.74.195-.272.409-.413.633-.423.288-.01.531.195.626.286l.164-.144c-.102-.104-.393-.363-.765-.363-.01 0-.02 0-.031.002-.296.01-.564.182-.801.511a14.3 14.3 0 0 0-.507.75c-.208.328-.257.406-.525.528-.18.082-.37-.02-.477-.157a.52.52 0 0 1-.023-.618l-.168-.132Zm.533 1.275a.771.771 0 0 1-.6-.315c-.252-.323-.247-.746.01-1.078l.035-.047.35.278-.034.046a.41.41 0 0 0-.01.522c.078.102.214.18.336.123.237-.11.273-.167.475-.485.11-.174.263-.412.512-.756.258-.359.558-.546.889-.56h.036c.51 0 .877.426.891.444l.037.044-.337.294-.038-.043c-.003-.003-.26-.289-.558-.289h-.016c-.188.009-.37.134-.545.375-.173.239-.338.484-.495.734-.22.345-.31.487-.667.652a.622.622 0 0 1-.27.061Zm9.434 12.201c.812-.24 1.205-1.238.955-2.467l-.324.068c.18.882.012 1.915-.78 2.095-.758.173-1.49-.496-1.78-1.627-.173-.677-.127-1.308.13-1.733.154-.256.375-.42.655-.483.183-.044.373-.04.553.013l.093-.32a1.414 1.414 0 0 0-1.116.14l-.006-.012a6.1 6.1 0 0 1-2.941.683l-.007.334.132.001c.79 0 1.572-.146 2.3-.422-.25.494-.294 1.17-.112 1.882.218.85.67 1.472 1.216 1.746-.68.128-1.468.227-2.01.227a8.154 8.154 0 0 1-2.348-.34l-.093.32a8.482 8.482 0 0 0 2.441.354c.886 0 2.316-.242 3.045-.458h-.003Z"/><path d="M11.318 18.895a8.44 8.44 0 0 0 2.369.336c.86 0 2.237-.23 2.977-.44l.05-.02c.779-.23 1.147-1.168.925-2.343l-.21.044c.167.896-.022 1.921-.835 2.108-.791.179-1.55-.507-1.849-1.67-.176-.69-.127-1.338.137-1.776.163-.271.396-.443.691-.51.173-.04.354-.04.526 0l.062-.21a1.347 1.347 0 0 0-1.013.15l-.054.033-.009-.016a6.14 6.14 0 0 1-2.86.663l-.003.219c.809.008 1.6-.131 2.352-.418l.14-.054-.068.133c-.244.482-.283 1.153-.108 1.841.208.812.64 1.436 1.186 1.71l.153.078-.169.032c-.761.142-1.517.228-2.021.228a8.218 8.218 0 0 1-2.309-.328l-.06.21Zm2.369.453a8.548 8.548 0 0 1-2.457-.357l-.055-.016.126-.432.056.016c.75.224 1.535.338 2.33.338.455 0 1.15-.074 1.843-.197-.509-.32-.906-.93-1.104-1.704-.17-.666-.15-1.296.057-1.793a6.529 6.529 0 0 1-2.322.376h-.058l.009-.451.057.001.124.001c.977 0 1.942-.234 2.79-.677l.052-.027.007.011a1.47 1.47 0 0 1 1.108-.117l.054.017-.125.431-.056-.017a1.039 1.039 0 0 0-.524-.013.95.95 0 0 0-.618.457c-.248.412-.293 1.027-.124 1.688.28 1.1.986 1.75 1.71 1.585.756-.172.911-1.171.737-2.028l-.011-.056.437-.092.012.058c.251 1.236-.126 2.237-.94 2.515v.005l-.054.016c-.732.219-2.17.462-3.061.462ZM12 7.764l-.774-.33h-.13l-1.296.569.131.306 1.233-.538.709.302.127-.31Z"/><path d="m9.877 8.033.086.2 1.2-.525.679.288.083-.2-.71-.304-.105.001-1.233.54Zm.024.353-.176-.413 1.372-.595.143-.001.01.005.827.352-.173.415-.74-.315-1.263.552Z"/><path d="M10.997 8.401c0 .152.13.276.29.276.159 0 .289-.124.289-.276a.283.283 0 0 0-.29-.276c-.159 0-.289.125-.289.276Z"/><path d="M11.287 8.184c-.128 0-.232.098-.232.218s.103.219.232.219c.128 0 .231-.099.231-.219s-.104-.218-.231-.218Zm0 .55a.34.34 0 0 1-.348-.333.34.34 0 0 1 .348-.334c.19 0 .348.15.348.334a.342.342 0 0 1-.348.334Z"/><path d="m17.295 11.859-2.828 1.136 1.14-3.588.014.001.028-.002 1.688 2.237a.353.353 0 0 0-.045.172l.003.044Zm-8.752 5.28a.388.388 0 0 0 .295.135l.026-.002 1.546 2.614a8.07 8.07 0 0 1-1.62-.5 8.192 8.192 0 0 1-2.571-1.739l2.324-.509Zm-3.74-4.273a.374.374 0 0 0 .238.282l.6 3.865a8.305 8.305 0 0 1-1.244-2.07l-.222-.086-.122.057a8.519 8.519 0 0 1-.45-2.407l1.2.359Zm15.518 7.247a11.71 11.71 0 0 1-3.74 2.55 11.58 11.58 0 0 1-4.581.936c-1.588 0-3.13-.315-4.581-.936a11.714 11.714 0 0 1-3.74-2.55 11.875 11.875 0 0 1-2.406-3.516l2.888-1.365a8.647 8.647 0 0 0 1.77 2.6 8.553 8.553 0 0 0 2.729 1.861 8.445 8.445 0 0 0 3.339.682c.69 0 1.374-.082 2.032-.244l-.078-.324c-1.02.25-2.08.3-3.118.151l-1.683-2.845a.364.364 0 0 0 .067-.209.378.378 0 0 0-.384-.372.38.38 0 0 0-.37.281l-2.439.534-.653-4.223a.368.368 0 0 0 .192-.32.377.377 0 0 0-.384-.371.39.39 0 0 0-.276.114l-1.311-.391c0-.006-.06-.017-.06-.017h-.271c0 1.003.165 1.983.49 2.918l-1.16.548a10.21 10.21 0 0 1-.576-4.209l-.33-.024a10.517 10.517 0 0 0 .605 4.375l-1.155.546a11.801 11.801 0 0 1-.748-4.154c0-1.586.308-3.125.912-4.573A11.724 11.724 0 0 1 7.48 1.315 11.451 11.451 0 0 1 12 .392c1.568 0 3.089.31 4.52.924a11.564 11.564 0 0 1 3.691 2.517 11.699 11.699 0 0 1 2.488 3.733c.605 1.448.915 3.003.912 4.573 0 1.39-.24 2.75-.709 4.044l-1.193-.437c.42-1.157.633-2.377.631-3.607 0-5.768-4.637-10.46-10.339-10.46-.806 0-1.608.093-2.386.28l.076.325a9.903 9.903 0 0 1 8.929 2.268l.324 2.672a.37.37 0 0 0-.214.33v.003l-2.905 1.167a.385.385 0 0 0-.204-.058c-.014 0-.026.002-.038.004l-1.267-2.714a.365.365 0 0 0 .09-.236c0-.1-.041-.195-.114-.264l.479-1.348a8.258 8.258 0 0 1 3.173 2.018l.233-.237A8.707 8.707 0 0 0 15.4 3.994a8.634 8.634 0 0 0-1.94-.572l-.053.33c.356.06.706.146 1.051.254l-.478 1.348a.375.375 0 0 0-.339.367c0 .201.167.364.373.37l1.284 2.75a.369.369 0 0 0-.06.197c0 .08.027.153.071.214l-1.164 3.664a.374.374 0 0 0-.326.366c0 .205.172.37.384.37a.377.377 0 0 0 .38-.344l2.855-1.146-.533 2.712a.373.373 0 0 0-.286.357c0 .205.172.37.384.37.209 0 .377-.16.383-.362l3.723-1.689a.38.38 0 0 0 .238.083.379.379 0 0 0 .384-.37.378.378 0 0 0-.384-.373.378.378 0 0 0-.383.36l-3.724 1.69-.008-.007.542-2.76a.374.374 0 0 0 .285-.357.377.377 0 0 0-.45-.364l-1.668-2.21a.355.355 0 0 0 .064-.203c0-.009-.003-.016-.003-.025l2.887-1.159a.395.395 0 0 0 .225.073c.211 0 .384-.167.384-.37a.37.37 0 0 0-.222-.336l-.28-2.316a10.15 10.15 0 0 1 3.013 7.233c0 1.202-.205 2.376-.61 3.493l-1.354-.496-.056.157.056-.157-.308-.112-.207.088a8.33 8.33 0 0 1-1.247 1.994l.251.217a8.627 8.627 0 0 0 1.234-1.933l.165.06 2.84 1.042a11.895 11.895 0 0 1-2.452 3.62Zm3.621-7.974c0-1.63-.316-3.213-.938-4.703a12.051 12.051 0 0 0-2.559-3.84 11.912 11.912 0 0 0-3.795-2.588C15.18.38 13.6.055 12.001.058c-1.61 0-3.176.32-4.649.95a11.886 11.886 0 0 0-3.795 2.588 12.116 12.116 0 0 0-3.5 8.542c0 1.507.28 2.98.814 4.374l.035.072A12.21 12.21 0 0 0 7.29 22.97c1.488.638 3.09.965 4.71.963a11.9 11.9 0 0 0 4.71-.963 12.048 12.048 0 0 0 3.844-2.621 12.202 12.202 0 0 0 2.592-3.89l.01-.02a12.09 12.09 0 0 0 .786-4.301Z"/><path d="m15.64 9.49-1.081 3.405 2.674-1.074v-.006c0-.057.012-.112.035-.166L15.641 9.49Zm-1.265 3.604 1.19-3.747.066.002.046-.003 1.73 2.292-.018.033a.311.311 0 0 0-.04.145c0 .009.002.016.003.023l.006.044-.04.03-2.943 1.181Zm-10.202 1.7.269.104.01.023a8.277 8.277 0 0 0 1.1 1.886L4.99 13.19a.432.432 0 0 1-.234-.279l-1.092-.325c.04.768.181 1.524.423 2.249l.086-.04Zm1.559 2.42-.135-.164a8.39 8.39 0 0 1-1.244-2.062l-.175-.069-.16.075-.02-.061a8.641 8.641 0 0 1-.454-2.424l-.004-.082 1.315.391.006.036a.318.318 0 0 0 .201.239l.032.012.638 4.11Zm.603.466a8.154 8.154 0 0 0 2.477 1.653c.475.203.973.36 1.48.47L8.83 17.33a.442.442 0 0 1-.307-.13l-2.188.48Zm4.19 2.288-.127-.026a8.25 8.25 0 0 1-4.22-2.255l-.076-.074 2.462-.538.024.025a.329.329 0 0 0 .25.116l.057-.004 1.63 2.756Zm-9.174-3.341a11.813 11.813 0 0 0 2.37 3.445 11.67 11.67 0 0 0 3.72 2.538c1.44.617 2.993.935 4.559.931 1.58 0 3.114-.314 4.558-.93a11.67 11.67 0 0 0 3.722-2.539l.04.04-.04-.04a11.802 11.802 0 0 0 2.415-3.547l-2.899-1.062a8.689 8.689 0 0 1-1.219 1.897l-.038.046-.338-.293.036-.045a8.31 8.31 0 0 0 1.24-1.98l.009-.02.25-.107 1.627.596c.391-1.098.59-2.253.587-3.418 0-2.668-1.02-5.173-2.877-7.072l.256 2.115a.429.429 0 0 1 .227.373c0 .236-.199.43-.442.43a.441.441 0 0 1-.231-.066l-2.82 1.132a.418.418 0 0 1-.05.188l1.62 2.15a.436.436 0 0 1 .483.426.429.429 0 0 1-.292.402l-.516 2.629 3.6-1.635a.435.435 0 0 1 .439-.38c.244 0 .441.193.441.43a.435.435 0 0 1-.441.428.444.444 0 0 1-.244-.072l-3.66 1.66a.438.438 0 0 1-.438.38.436.436 0 0 1-.442-.428c0-.182.119-.343.293-.403l.505-2.573-2.724 1.094a.438.438 0 0 1-.434.36.436.436 0 0 1-.442-.428c0-.197.144-.37.339-.415l1.146-3.604a.415.415 0 0 1-.014-.423l-1.256-2.692a.437.437 0 0 1-.394-.425c0-.205.15-.378.354-.419l.446-1.258a8.231 8.231 0 0 0-.986-.234l-.057-.01.074-.444.058.01a8.735 8.735 0 0 1 4.748 2.483l.04.04-.315.319-.041-.042a8.316 8.316 0 0 0-3.098-1.983l-.446 1.26c.13.146.14.364.024.522l1.234 2.643a.519.519 0 0 1 .211.052l2.846-1.142a.422.422 0 0 1 .207-.325l-.316-2.61a9.868 9.868 0 0 0-8.861-2.243l-.057.014-.103-.438.057-.014A10.33 10.33 0 0 1 12 1.62c5.733 0 10.397 4.719 10.397 10.517 0 1.228-.207 2.429-.616 3.572l1.084.397a11.77 11.77 0 0 0 .687-3.969c0-1.577-.305-3.108-.907-4.55a11.685 11.685 0 0 0-2.476-3.716A11.44 11.44 0 0 0 12 .45c-1.558 0-3.07.31-4.497.919A11.533 11.533 0 0 0 3.83 3.872 11.738 11.738 0 0 0 .446 12.14c0 1.398.245 2.77.724 4.074l1.05-.496a10.588 10.588 0 0 1-.591-4.35l.004-.058.445.034-.004.057a10.108 10.108 0 0 0 .552 4.125l1.055-.499a8.964 8.964 0 0 1-.476-2.887v-.058h.33a.315.315 0 0 1 .082.022l1.274.38a.448.448 0 0 1 .291-.106c.243 0 .442.192.442.429a.425.425 0 0 1-.188.348l.64 4.124 2.346-.514a.44.44 0 0 1 .417-.29c.244 0 .442.193.442.43 0 .074-.02.146-.058.211l1.651 2.792a8.158 8.158 0 0 0 3.068-.155l.056-.013.106.436-.057.014a8.516 8.516 0 0 1-2.047.245 8.507 8.507 0 0 1-3.362-.685 8.6 8.6 0 0 1-2.747-1.873 8.702 8.702 0 0 1-1.759-2.564l-2.781 1.315ZM12 23.657c-1.596 0-3.145-.316-4.604-.94a11.792 11.792 0 0 1-3.758-2.564 11.921 11.921 0 0 1-2.416-3.531l-.024-.052 2.993-1.415.024.054a8.608 8.608 0 0 0 4.468 4.432 8.372 8.372 0 0 0 3.317.677c.665 0 1.326-.078 1.963-.23l-.052-.212a8.278 8.278 0 0 1-3.082.139l-.027-.004-1.718-2.902.022-.03a.302.302 0 0 0 .057-.176.32.32 0 0 0-.326-.314.323.323 0 0 0-.316.238l-.008.034-2.534.555-.671-4.324.035-.02a.308.308 0 0 0 .163-.269.32.32 0 0 0-.325-.312.332.332 0 0 0-.235.097l-.025.024-1.386-.415-.012-.002-.203.001c.005.968.17 1.927.486 2.841l.017.05-1.263.597-.022-.06a10.235 10.235 0 0 1-.605-3.487c0-.229.008-.46.022-.689l-.213-.016a10.474 10.474 0 0 0 .606 4.293l.018.05-1.26.595-.022-.058a11.81 11.81 0 0 1-.753-4.173A11.854 11.854 0 0 1 3.75 3.79a11.616 11.616 0 0 1 3.708-2.528A11.496 11.496 0 0 1 12 .335c1.575 0 3.103.311 4.543.928a11.605 11.605 0 0 1 3.71 2.53 11.843 11.843 0 0 1 3.417 8.347 11.891 11.891 0 0 1-.713 4.064l-.02.055-1.302-.477.02-.054c.417-1.15.629-2.364.628-3.587C22.283 6.405 17.67 1.74 12 1.74c-.782 0-1.561.09-2.316.265l.05.213a9.986 9.986 0 0 1 8.925 2.295l.015.014.331 2.734-.036.019a.31.31 0 0 0-.18.278v.04l-.037.017L15.82 8.79l-.025-.015a.297.297 0 0 0-.192-.047l-.042.006-.03-.037-1.283-2.748.025-.028a.305.305 0 0 0 .077-.199.308.308 0 0 0-.095-.222l-.028-.025.51-1.44.056.02a8.423 8.423 0 0 1 3.152 1.99l.152-.153a8.622 8.622 0 0 0-4.587-2.4l-.036.216c.327.058.663.141 1.001.246l.058.018-.51 1.439-.037.004a.318.318 0 0 0-.287.309.32.32 0 0 0 .316.311l.036.001 1.312 2.813-.017.027a.305.305 0 0 0-.05.164.3.3 0 0 0 .06.18l.017.024-1.185 3.727-.035.004a.319.319 0 0 0-.276.308.32.32 0 0 0 .326.313c.168 0 .31-.127.323-.29l.002-.036.033-.014 2.954-1.186-.56 2.853-.036.009a.314.314 0 0 0-.242.3.32.32 0 0 0 .326.313.32.32 0 0 0 .324-.305l.001-.037 3.787-1.719.028.021c.058.046.129.07.201.07a.32.32 0 0 0 .327-.313.32.32 0 0 0-.327-.312.316.316 0 0 0-.324.303v.035l-.034.015-3.756 1.705-.061-.044.004-.042.55-2.797.035-.008a.314.314 0 0 0 .241-.3.32.32 0 0 0-.325-.313c-.02 0-.038.002-.057.004l-.035.006-1.712-2.27.023-.034a.307.307 0 0 0 .054-.172.128.128 0 0 1-.002-.022l-.003-.042.038-.016 2.916-1.17.026.018c.056.04.122.062.192.062.18 0 .327-.141.327-.313a.316.316 0 0 0-.188-.282l-.03-.014-.306-2.513.119.118a10.16 10.16 0 0 1 3.03 7.274c0 1.208-.206 2.39-.614 3.513l-.02.055-1.352-.497-.037.102-.11-.04.038-.102-.232-.086-.165.07c-.312.701-.72 1.355-1.21 1.944l.163.14a8.624 8.624 0 0 0 1.187-1.875l.024-.047 3.113 1.14-.025.057a11.916 11.916 0 0 1-2.464 3.64 11.777 11.777 0 0 1-3.758 2.563 11.626 11.626 0 0 1-4.604.942Zm0-23.54c-1.603 0-3.16.317-4.626.945a11.839 11.839 0 0 0-3.776 2.576 12.074 12.074 0 0 0-3.482 8.5c0 1.49.272 2.953.809 4.353l.033.067a12.183 12.183 0 0 0 2.528 3.751 11.981 11.981 0 0 0 3.826 2.61c1.48.633 3.075.96 4.687.957 1.625 0 3.201-.323 4.687-.958a11.989 11.989 0 0 0 3.826-2.609 12.139 12.139 0 0 0 2.58-3.871l.01-.023c.517-1.367.782-2.815.78-4.275a12.095 12.095 0 0 0-.934-4.68 12.004 12.004 0 0 0-6.324-6.398A11.673 11.673 0 0 0 12 .117Zm0 23.874c-1.64 0-3.233-.325-4.732-.967a12.128 12.128 0 0 1-3.864-2.634 12.27 12.27 0 0 1-2.552-3.784l-.034-.07A12.218 12.218 0 0 1 0 12.139a12.176 12.176 0 0 1 3.514-8.583 11.96 11.96 0 0 1 3.814-2.6A11.815 11.815 0 0 1 12 0c1.618 0 3.19.321 4.672.954a11.958 11.958 0 0 1 3.814 2.6A12.182 12.182 0 0 1 24 12.139c0 1.482-.265 2.936-.789 4.32l-.012.027a12.246 12.246 0 0 1-2.603 3.905A12.081 12.081 0 0 1 12 23.991Z"/><path d="M19.747 8.83a8.537 8.537 0 0 1 .66 3.309h.331c0-1.194-.23-2.35-.686-3.44l-.305.13Z"/><path d="M20.465 12.08h.215a8.806 8.806 0 0 0-.659-3.305l-.197.085a8.605 8.605 0 0 1 .641 3.22Zm.33.116h-.446v-.057a8.496 8.496 0 0 0-.655-3.288l-.022-.053.41-.175.023.054a8.927 8.927 0 0 1 .69 3.463v.056Zm-16.56 5.435.13.157c.013.016.126.161-.009.275a.165.165 0 0 1-.109.046c-.088 0-.16-.085-.16-.085l-.13-.157.278-.236Zm.033-.543-1.314 1.111.25.303.468-.395.13.157c.008.01.2.238.466.238a.518.518 0 0 0 .338-.135c.335-.283.173-.66.042-.818l-.38-.461Z"/><path d="m4.036 17.874.094.113c.014.017.066.064.115.064.015 0 .038-.004.072-.032.085-.072.03-.16.002-.195l-.092-.112-.19.162Zm.21.294c-.115 0-.201-.102-.205-.106l-.167-.201.367-.31.167.202c.082.1.11.25-.016.356a.231.231 0 0 1-.146.058Zm-.568-.144.167.202c.002.003.18.218.42.218.105 0 .207-.041.301-.122.3-.254.154-.594.035-.738l-.344-.416-1.224 1.036.177.214.468-.394Zm-.482.56-.325-.392 1.402-1.186.418.506c.145.175.32.587-.049.9a.57.57 0 0 1-.375.148c-.298 0-.51-.258-.51-.259l-.092-.111-.469.394Zm3.115.541-.965 1.436.787.54.207-.311-.461-.318.755-1.125-.323-.222Z"/><path d="m5.427 20.545.69.474.144-.213-.462-.318.756-1.125-.229-.157-.899 1.339Zm.722.636-.882-.606 1.028-1.53.419.286-.756 1.127.462.317-.271.406Zm2.768.564c-.001.002-.042.126-.167.126a.242.242 0 0 1-.083-.015c-.182-.06-.145-.21-.136-.238l.362-1.116-.372-.124-.36 1.116c-.002.005-.165.532.392.716a.72.72 0 0 0 .224.04c.307 0 .469-.25.512-.383l.36-1.116-.371-.123-.361 1.117Z"/><path d="m8.558 20.453-.343 1.06a.506.506 0 0 0 .356.644.684.684 0 0 0 .206.036c.273 0 .417-.224.457-.342l.343-1.06-.261-.088-.344 1.062a.247.247 0 0 1-.316.148c-.001-.002-.004-.002-.005-.003a.242.242 0 0 1-.174-.31l.343-1.063-.262-.084Zm.22 1.856a.796.796 0 0 1-.244-.042c-.613-.202-.431-.784-.429-.79l.38-1.171.481.16-.379 1.17c-.01.035-.024.123.1.165.02.007.042.01.065.012.077 0 .106-.075.111-.086l.38-1.17.481.16-.379 1.17c-.049.146-.228.422-.568.422Zm2.423-.904.396.012-.041 1.357.39.012.043-1.358.398.012.012-.374-1.187-.037-.01.376Z"/><path d="m11.616 22.718.275.009.041-1.358.4.012.008-.258-1.071-.034-.007.259.396.012-.042 1.358Zm.388.129-.507-.016.042-1.357-.396-.012.014-.49 1.304.041-.016.49-.398-.013-.043 1.357Zm2.861-.786a.358.358 0 0 1-.07.01c-.13 0-.168-.12-.171-.134l-.157-.598s-.011-.046.001-.096c.016-.068.065-.112.148-.134a.287.287 0 0 1 .073-.01c.129 0 .167.121.17.135l.157.597c.005.029.033.18-.15.23Zm.37-.93c-.036-.142-.194-.412-.523-.412a.777.777 0 0 0-.191.027c-.296.078-.398.265-.432.406-.037.15-.003.282-.001.287l.157.598c.037.143.195.413.524.413.06 0 .123-.01.19-.027.569-.153.435-.689.434-.693l-.157-.6Z"/><path d="M14.688 21.155a.185.185 0 0 0-.058.009c-.08.022-.1.06-.107.09-.008.036 0 .07 0 .07l.156.598c.005.017.04.116.172.083.12-.032.119-.114.108-.16l-.156-.598c-.004-.01-.028-.092-.115-.092Zm.105.974a.234.234 0 0 1-.227-.178l-.157-.598a.277.277 0 0 1 .002-.125c.022-.089.085-.148.19-.176a.35.35 0 0 1 .087-.012c.14 0 .208.112.227.178l.155.597c.027.11-.007.253-.19.3a.347.347 0 0 1-.087.014Zm-.08-1.353a.708.708 0 0 0-.177.025c-.268.072-.36.237-.39.363-.034.137-.003.258-.003.259l.157.598c.033.128.174.37.467.37a.661.661 0 0 0 .177-.026.505.505 0 0 0 .391-.623l-.157-.598c-.032-.126-.173-.368-.466-.368Zm.054 1.731c-.363 0-.537-.298-.579-.455l-.157-.599a.684.684 0 0 1 .002-.315c.038-.157.15-.362.473-.448a.783.783 0 0 1 .207-.029c.365 0 .539.298.58.455l.156.599c.052.206.02.631-.474.764a.832.832 0 0 1-.208.028Zm2.633-3.02.437.721-.804-.494-.313.194.896 1.478.333-.206-.436-.721.803.494.313-.194-.896-1.48-.333.208Z"/><path d="m16.8 19.927.835 1.38.236-.145-.531-.877.976.6.233-.144-.835-1.38-.236.145.531.877-.976-.601-.233.145Zm.797 1.54-.955-1.578.39-.243.63.387-.342-.565.432-.267.955 1.578-.391.243-.63-.388.343.566-.432.267Zm1.835-3.746c-.235.269-.249.58-.034.772a.375.375 0 0 0 .26.088c.147 0 .314-.054.461-.103.118-.038.228-.075.3-.075.018 0 .042.003.055.012.08.073-.029.203-.032.208l-.307.35.275.246.306-.35c.13-.148.195-.314.186-.467a.44.44 0 0 0-.151-.306.372.372 0 0 0-.26-.088c-.146 0-.314.055-.462.103a1.17 1.17 0 0 1-.301.075c-.017 0-.042-.002-.054-.013-.08-.073.03-.202.035-.208l.305-.348-.278-.248-.304.352Z"/><path d="m20.216 18.97.189.169.267-.307c.12-.136.18-.285.172-.424a.384.384 0 0 0-.131-.266.318.318 0 0 0-.221-.074c-.137 0-.3.054-.444.1-.183.06-.35.108-.413.051-.089-.08-.043-.201.029-.288l.269-.307-.192-.17-.266.304c-.212.243-.23.52-.04.69.055.048.129.073.222.073.137 0 .299-.053.441-.1.183-.06.349-.106.412-.05.09.08.042.205-.025.287l-.269.312Zm.2.333-.362-.323.345-.394c.018-.022.066-.095.039-.124h-.017c-.064 0-.175.035-.284.071-.152.05-.322.106-.478.106a.435.435 0 0 1-.3-.104c-.24-.215-.227-.558.03-.852l.344-.392.363.325-.342.39c-.02.024-.07.096-.043.126h.017c.065 0 .175-.037.284-.072.152-.05.324-.107.481-.107a.43.43 0 0 1 .298.103.494.494 0 0 1 .17.345c.01.168-.062.348-.2.506l-.345.396Z"/></g><defs><clipPath id="a"><path fill="#fff" d="M0 0h24v24H0z"/></clipPath></defs></svg>