<svg width="24" height="24" fill="none" xmlns="http://www.w3.org/2000/svg"><g clip-path="url(#a)" fill-rule="evenodd" clip-rule="evenodd"><path d="m12.273 0-.928.128-.897.288-.831.432-.768.592-.72.752-.624.944-.56 1.104-.465 1.296 1.153.784L9.36 4.816l.017-.016-.032-.176-.017-.192V4.24l.209-1.072.591-.864.865-.576 1.056-.224h5.424l-.113-.08-1.055-.528L15.28.464 14.256.176l-1.008-.16L12.273 0Zm5.2 1.504h-5.424l.784.112.688.32.576.48.415.64.017-.016 4.912-.176-1.04-.768-.928-.592Zm-6.224.832-.657.448-.431.656-.16.8.16.8.431.656.657.448.8.16.8-.16.655-.448.449-.656.16-.8-.16-.8-.448-.656-.657-.448-.8-.16-.8.16Z" fill="#B72D23"/><path d="m16.4 3.648-1.343.208-.16 1.392 2.16.8h.016l.143-.112.16-.112.16-.096 1.04-.32h3.392l-.512-.512-.784-.528-.896-.4-1.008-.256-1.12-.112-1.248.048Zm2.177 1.76 1.04.096.927.496.704.832.272.736.048.752-.16.736-.352.672h.017l2.511 4.24.176-1.28.08-1.232-.016-1.184-.128-1.12-.24-1.024-.335-.96-.448-.864-.56-.752-.145-.144h-3.392Zm-.72.912-.624.528-.369.688-.064.8.24.768.512.64.704.352.784.08.784-.24.624-.528.369-.688.08-.8-.24-.768-.529-.64-.704-.352-.784-.08-.784.24Z" fill="#97B63D"/><path d="m20.545 10.24-1.28.576.432 2.272-.016.016.192.048.16.08.176.096.8.736.448.944.064 1.04-.352 1.024-.496.624-.624.432-.704.24-.752.048h-.016l-2.352 4.336 1.2-.512 1.104-.56.992-.624.896-.672.768-.736.656-.784.512-.832.352-.864.224-.912.048-.928-.112-.976-.288-.992-.48-1.024-.672-1.04-.88-1.056Zm-1.456 3.408-.784.048-.72.336-.544.608-.272.768.048.784.336.72.608.544.784.272.784-.048.704-.336.56-.608.272-.768-.048-.8-.336-.704-.608-.544-.784-.272Z" fill="#00743C"/><path d="M14.896 18.992h-.016l.048.176.016.192v.208l-.224 1.056-.592.864-.88.576-1.056.208h3.296l.624-.656.64-.928.56-1.104.48-1.296-1.152-.8-1.744 1.504Zm-3.472-1.36-.656.448-.448.64-.176.8.16.816.432.656.656.448.8.16.8-.16.656-.432.448-.656.176-.8-.16-.8-.432-.656-.656-.448-.8-.16-.8.144ZM9.728 20.72l-4.912.144 1.024.768 1.04.672 1.04.56 1.04.416 1.024.304.992.16.976.032.928-.128.896-.272.848-.416.768-.592.096-.096h-3.296l-.784-.112-.688-.32-.56-.496-.416-.64-.016.016Z" fill="#05A7E0"/><path d="m.56 11.12-.08 1.232.032 1.184.128 1.104.224 1.04.352.96.448.848.56.768.672.64.784.528.897.4 1.007.256 1.12.112 1.232-.048 1.36-.224.144-1.392-.416-.144H5.76l-1.04-.112-.928-.48-.704-.816-.272-.752-.048-.752.144-.736.352-.672h-.016L.736 9.84.56 11.12Zm3.936 2.736-.624.528-.368.688-.064.8.24.768.528.64.704.352.785.08.783-.24.624-.528.368-.704.064-.784-.24-.784-.528-.624-.704-.368-.784-.08-.784.256Zm2.624 4-.144.112-.176.08-1.04.336h3.264l-1.744-.64-.016-.016-.144.128Z" fill="#004C77"/><path d="m8.144 1.008-1.2.496-1.104.56-1.008.624-.88.672-.784.736-.64.768-.512.832-.368.864-.224.912-.064.928.128.976.288.992.464 1.024.672 1.056.88 1.056 1.265-.592-.4-2.256v-.016l-.177-.064-.176-.08-.176-.096-.8-.72-.448-.96-.048-1.04.352-1.024.496-.608.624-.432.72-.24.753-.048 2.367-4.32ZM5.808 6.016l-.784.048-.704.336-.56.592-.272.784.048.784.336.72.608.544.768.272.784-.048.72-.336.545-.608.271-.768-.031-.784-.337-.72-.608-.544-.784-.272Z" fill="#F47D20"/></g><defs><clipPath id="a"><path fill="#fff" d="M0 0h24v24H0z"/></clipPath></defs></svg>