<svg width="24" height="24" fill="none" xmlns="http://www.w3.org/2000/svg"><g clip-path="url(#a)"><path d="m5.641 21.594-1.625-2.815a.374.374 0 0 1 0-.33l1.805-3.124a.371.371 0 0 1 .287-.166h3.608a.373.373 0 0 1 .289.166l1.804 3.125a.378.378 0 0 1 0 .333l-1.804 3.124a.379.379 0 0 1-.284.166H6.478a1.094 1.094 0 0 1-.837-.479Zm11.718-6.43-3.595-6.223a.512.512 0 0 0-.394-.228H6.18a.511.511 0 0 0-.393.228l-3.595 6.226a.51.51 0 0 0 0 .455l1.054 1.827 1.843-3.19a.582.582 0 0 1 .456-.265h4.736a.582.582 0 0 1 .456.264l2.368 4.102a.584.584 0 0 1 0 .527l-1.843 3.19h2.106a.509.509 0 0 0 .394-.228l3.595-6.225a.508.508 0 0 0 .002-.46Zm6.522-4.118L18.367 1.49a1.09 1.09 0 0 0-.85-.491H6.484a1.09 1.09 0 0 0-.85.491L.116 11.046a1.089 1.089 0 0 0 0 .982l1.265 2.189 3.665-6.35a.719.719 0 0 1 .563-.324h8.324a.719.719 0 0 1 .563.324l4.163 7.21a.717.717 0 0 1 0 .65l-3.665 6.346h2.522a1.09 1.09 0 0 0 .85-.491l5.517-9.554a1.089 1.089 0 0 0 0-.982h-.003Z" fill="url(#b)"/></g><defs><linearGradient id="b" x1="6.001" y1="21.929" x2="18.001" y2="1.145" gradientUnits="userSpaceOnUse"><stop stop-color="#FFDC00"/><stop offset=".33" stop-color="#E58E2F"/><stop offset=".67" stop-color="#DB2D72"/><stop offset="1" stop-color="#F0F"/></linearGradient><clipPath id="a"><path fill="#fff" d="M0 0h24v24H0z"/></clipPath></defs></svg>