<svg width="24" height="24" fill="none" xmlns="http://www.w3.org/2000/svg"><path d="M12 24c6.627 0 12-5.373 12-12S18.627 0 12 0 0 5.373 0 12s5.373 12 12 12Z" fill="#34445B"/><path d="m11.953 7.666 1.508-2.352a1.523 1.523 0 0 0 .622-2.977 1.523 1.523 0 0 0-1.53 2.4l-1.87 2.918a5.97 5.97 0 0 0-3.201 10.56 5.974 5.974 0 0 0 8.404-.829 5.973 5.973 0 0 0 1.327-4.374 5.975 5.975 0 0 0-5.26-5.346Zm-.686 9.092a3.164 3.164 0 0 1-3.168-3.167 3.165 3.165 0 0 1 3.168-3.168 3.165 3.165 0 0 1 2.962 2.049 1.831 1.831 0 0 0-2.893 2.243 1.832 1.832 0 0 0 2.887.005 3.16 3.16 0 0 1-2.956 2.038Z" fill="#fff"/><path d="m11.953 7.666 1.508-2.352a1.523 1.523 0 0 0 .622-2.977 1.523 1.523 0 0 0-1.53 2.4l-1.87 2.918a5.97 5.97 0 0 0-3.201 10.56 5.974 5.974 0 0 0 8.404-.829 5.973 5.973 0 0 0 1.327-4.374 5.975 5.975 0 0 0-5.26-5.346Zm-.686 9.092a3.164 3.164 0 0 1-3.168-3.167 3.165 3.165 0 0 1 3.168-3.168 3.165 3.165 0 0 1 2.962 2.049 1.831 1.831 0 0 0-2.893 2.243 1.832 1.832 0 0 0 2.887.005 3.16 3.16 0 0 1-2.956 2.038Z" fill="#fff"/></svg>