<svg width="24" height="24" fill="none" xmlns="http://www.w3.org/2000/svg"><path d="M12 24c6.627 0 12-5.373 12-12S18.627 0 12 0 0 5.373 0 12s5.373 12 12 12Z" fill="#6916FF"/><path d="M12.858 4.818a.21.21 0 0 1-.061-.272.217.217 0 0 1 .234 0c.528.22 1.007.544 1.406.954.227.21.418.457.563.728.153.276.278.564.375.864.092.31.14.631.14.954-.047.318-.093 1.863-.984 2.59a.536.536 0 0 1-.704-.136.47.47 0 0 1-.046-.545A3.786 3.786 0 0 0 13.875 6a8.24 8.24 0 0 0-1.017-1.182Zm-1.383 13.937c.093.09.093.181.047.227-.047.046-.141.09-.188.045a4.222 4.222 0 0 1-1.406-.954 2.782 2.782 0 0 1-.562-.727 4.847 4.847 0 0 1-.375-.864 3.362 3.362 0 0 1-.141-.954c.047-.319.093-1.864.984-2.592a.535.535 0 0 1 .703.137.404.404 0 0 1 0 .546 3.784 3.784 0 0 0-.094 3.954c.304.425.65.821 1.032 1.182Z" fill="#fff" fill-opacity=".5"/><path d="M15.52 15.005a4.105 4.105 0 0 0-.984-2.364 8.112 8.112 0 0 0-1.969-1.455c-.633-.35-1.23-.762-1.781-1.231a3.024 3.024 0 0 1-.89-1.59 3.182 3.182 0 0 1 .229-1.86 5.019 5.019 0 0 1 1.317-1.682.195.195 0 0 0 .047-.228.182.182 0 0 0-.281-.045 4.183 4.183 0 0 0-1.829 1.545 3.757 3.757 0 0 0-.66 2.455c.037.44.148.87.328 1.273a4.5 4.5 0 0 0 .75 1.091 8.084 8.084 0 0 0 2.015 1.409c.636.33 1.234.726 1.782 1.182.481.422.797 1.002.89 1.636.133.66.05 1.343-.234 1.955a4.598 4.598 0 0 1-1.36 1.636.154.154 0 0 0-.074.103.154.154 0 0 0 .027.124.18.18 0 0 0 .13.091.185.185 0 0 0 .152-.045 5.852 5.852 0 0 0 1.781-1.591 3.88 3.88 0 0 0 .614-2.41Z" fill="#fff"/></svg>