<svg width="24" height="24" viewBox="0 0 24 24" fill="none" xmlns="http://www.w3.org/2000/svg">
<path d="M12 24C18.6274 24 24 18.6274 24 12C24 5.37258 18.6274 0 12 0C5.37258 0 0 5.37258 0 12C0 18.6274 5.37258 24 12 24Z" fill="#37DCD8"/>
<path d="M11.9926 9.50925L9.90458 7.40625C10.531 6.38752 11.2314 5.41615 12.0001 4.5C12.7675 5.41222 13.4669 6.37958 14.0926 7.39425L11.9926 9.50925ZM16.2811 11.6168C16.8706 13.2683 17.7353 14.9198 16.9111 16.5052C16.3866 17.5055 15.5734 18.3247 14.5771 18.8565C11.8628 20.2965 8.50282 19.239 7.07333 16.5052C6.24083 14.9198 7.21058 13.1377 7.80083 11.487C8.34158 10.2698 8.88832 9.14775 9.50933 8.06925L11.9918 10.5698L14.4886 8.05575C15.1448 9.19125 15.7118 10.3597 16.2811 11.6175V11.6168Z" fill="white"/>
</svg>
