<svg width="24" height="24" fill="none" xmlns="http://www.w3.org/2000/svg"><path d="M16.918.297a4.016 4.016 0 0 0-2.09 1.967c-.525.867-1.441 2.724-3.14 3.75-1.283.77-4.813.38-5.339.6a2.16 2.16 0 0 0-1.185 2.81c.244.598 1.588 1.209 2.15 1.405 0 0 6.818 1.954 6.818 4.068 0 1.05-.806 1.32-2.346 1.698-2.236.538-5.864-.513-5.864-.513v.012a4.052 4.052 0 0 0-2.456.184 4.007 4.007 0 0 0-2.2 5.217 4.008 4.008 0 0 0 7.319.232c.513-.868 1.405-2.725 3.103-3.739 1.283-.782 4.839-.39 5.364-.61a2.149 2.149 0 0 0 1.185-2.81c-.244-.612-1.6-1.223-2.175-1.418 0 0-6.793-1.71-6.793-4.056 0-1.051.807-1.32 2.358-1.699 2.236-.537 5.865.513 5.865.513l-.012-.012c.794.196 1.649.147 2.468-.183a4.012 4.012 0 0 0 2.187-5.217A4.014 4.014 0 0 0 18.422 0c-.501 0-1.011.095-1.504.296Z" fill="url(#a)"/><defs><linearGradient id="a" x1=".971" y1="11.995" x2="22.431" y2="11.995" gradientUnits="userSpaceOnUse"><stop stop-color="#6C3D94"/><stop offset="1" stop-color="#A13469"/></linearGradient></defs></svg>