<svg width="24" height="24" viewBox="0 0 24 24" fill="none" xmlns="http://www.w3.org/2000/svg">
<g clip-path="url(#clip0)">
<path d="M11.3093 0.207633C12.0824 -0.128751 12.6336 0.584176 13.1102 1.0607C13.9607 1.78387 14.7714 2.55259 15.5388 3.36348C15.979 3.8436 15.8007 4.7222 15.2021 4.98953C14.7419 5.24056 14.1798 5.05139 13.827 4.70182C12.901 3.81471 12.0151 2.88288 11.0528 2.0352C10.4562 1.54777 10.5781 0.488751 11.3093 0.207273V0.207633ZM19.7425 2.66673C20.2665 2.38478 21.1049 2.61399 21.2506 3.23784C21.4725 3.79265 21.1159 4.34182 20.7248 4.71117C19.868 5.55692 19.0345 6.42629 18.2016 7.29578C17.8979 7.66334 17.3631 7.76152 16.9338 7.56324C16.3135 7.30669 16.1462 6.37546 16.6137 5.90434C17.6652 4.83489 18.5929 3.6362 19.7426 2.66673H19.7425ZM2.99737 2.8396C3.54319 2.51041 4.21799 2.72859 4.62187 3.1761C5.53008 4.09271 6.46682 4.97862 7.38498 5.88084C7.99254 6.44284 7.56876 7.63241 6.72109 7.63612C6.01164 7.74533 5.63509 7.04308 5.16025 6.65934C4.32804 5.97003 3.56548 5.2028 2.81048 4.42933C2.38299 3.98913 2.51078 3.18162 2.99785 2.8396H2.99737ZM3.70191 8.25818C4.61683 7.90525 5.51006 9.0585 4.93943 9.85319C4.26451 10.7336 3.3859 11.4411 2.64972 12.2725C2.21491 12.7199 1.80936 13.4074 1.08528 13.3201C0.237612 13.2874 -0.188082 12.1093 0.428581 11.5376C1.54191 10.4718 2.4259 9.12384 3.70299 8.25806L3.70191 8.25818ZM22.2547 10.8082C22.884 10.3971 23.8336 10.8645 23.8538 11.6233C23.9464 12.3363 23.2389 12.7128 22.8495 13.1912C22.1638 14.017 21.411 14.7865 20.6339 15.5268C20.0664 16.0632 19.0058 15.6867 18.9039 14.9102C18.7711 14.108 19.5242 13.6096 19.999 13.0968C20.7848 12.3673 21.4487 11.5071 22.2546 10.8085L22.2547 10.8082ZM6.08848 16.4486C6.69987 16.083 7.6275 16.5177 7.64201 17.2597C7.75482 17.9764 7.04716 18.3566 6.65971 18.835C5.97567 19.6621 5.21348 20.421 4.44409 21.1705C3.94383 21.6761 2.87785 21.4323 2.73591 20.7067C2.49388 20.0064 3.08884 19.4407 3.54175 19.001C4.42047 18.1789 5.18411 17.2388 6.08848 16.4492V16.4486ZM16.9521 16.4213C17.2906 16.305 17.7194 16.2959 18.0053 16.5396C19.0641 17.5455 20.19 18.4804 21.1851 19.5535C21.4925 19.8646 21.5198 20.3866 21.3161 20.7612C21.0284 21.4342 20.0426 21.4505 19.5642 20.974C18.5983 20.0629 17.6701 19.106 16.6991 18.1983C16.1117 17.7418 16.2498 16.6849 16.952 16.4212L16.9521 16.4213ZM8.80077 18.9932C9.30427 18.7204 9.89587 18.9787 10.2579 19.3624C11.171 20.2683 12.0842 21.1741 13.0321 22.0436C13.6554 22.6365 13.2339 23.8389 12.3553 23.8479C11.646 23.9318 11.2764 23.2276 10.8 22.8421C9.97284 22.1562 9.20465 21.4014 8.46235 20.6243C8.01484 20.1459 8.19669 19.2566 8.80065 18.9927L8.80077 18.9932ZM7.18119 1.12244C7.18124 1.54313 6.92785 1.92243 6.53919 2.08344C6.15052 2.24446 5.70314 2.15548 5.40566 1.85801C5.10818 1.56053 5.01921 1.11314 5.18022 0.724481C5.34124 0.335819 5.72053 0.0824293 6.14123 0.0824777C6.71558 0.0824777 7.18119 0.548084 7.18119 1.12244ZM10.2127 3.88843C10.2127 4.46277 9.74714 4.92837 9.1728 4.92839C8.59846 4.92841 8.13284 4.46285 8.1328 3.88851C8.13275 3.31417 8.5983 2.84854 9.17264 2.84847C9.44847 2.84844 9.71302 2.95799 9.90808 3.15303C10.1031 3.34806 10.2127 3.6126 10.2127 3.88843ZM2.0924 6.42941C2.09249 6.85011 1.83915 7.22943 1.4505 7.39049C1.06186 7.55155 0.614465 7.46262 0.316955 7.16518C0.0194441 6.86774 -0.0695847 6.42036 0.0913859 6.03168C0.252356 5.643 0.631622 5.38957 1.05232 5.38957C1.32813 5.38954 1.59266 5.49907 1.78772 5.69408C1.98277 5.88909 2.09237 6.1536 2.0924 6.42941ZM18.6023 1.03996C18.6023 1.46063 18.3489 1.83987 17.9602 2.0008C17.5715 2.16174 17.1242 2.07268 16.8268 1.77515C16.5294 1.47763 16.4405 1.03024 16.6017 0.641652C16.7628 0.253061 17.1421 -0.000193745 17.5628 1.11214e-07C17.8386 -3.15782e-05 18.1032 0.109525 18.2982 0.304562C18.4932 0.4996 18.6028 0.764136 18.6028 1.03996H18.6023ZM23.9884 6.16855C23.9884 6.74291 23.5228 7.20851 22.9484 7.20851C22.3741 7.20851 21.9085 6.74291 21.9085 6.16855C21.9085 5.5942 22.3741 5.12859 22.9484 5.12859C23.5228 5.12859 23.9884 5.5942 23.9884 6.16855ZM21.146 9.15668C21.1461 9.73104 20.6805 10.1967 20.1062 10.1968C19.5318 10.1968 19.0662 9.73128 19.0661 9.15692C19.066 8.58257 19.5316 8.11691 20.1059 8.11684C20.3818 8.11681 20.6463 8.22635 20.8413 8.42136C21.0364 8.61636 21.146 8.88087 21.146 9.15668ZM23.9836 17.5556C23.9836 18.1299 23.518 18.5955 22.9437 18.5956C22.3693 18.5956 21.9037 18.13 21.9037 17.5557C21.9036 16.9813 22.3692 16.5157 22.9435 16.5156C23.2193 16.5156 23.4839 16.6252 23.6789 16.8202C23.874 17.0152 23.9836 17.2798 23.9836 17.5556ZM15.8725 20.0919C15.8725 20.5126 15.6192 20.8919 15.2305 21.0529C14.8419 21.2139 14.3945 21.125 14.097 20.8275C13.7995 20.5301 13.7105 20.0827 13.8715 19.694C14.0325 19.3054 14.4117 19.0519 14.8324 19.0519C15.1083 19.0519 15.3728 19.1615 15.5679 19.3565C15.7629 19.5515 15.8725 19.8161 15.8725 20.0919ZM18.8647 22.9361C18.8648 23.3568 18.6115 23.7361 18.2228 23.8971C17.8342 24.0582 17.3868 23.9693 17.0893 23.6718C16.7918 23.3744 16.7027 22.927 16.8637 22.5383C17.0247 22.1497 17.4039 21.8962 17.8246 21.8962C18.1004 21.8962 18.365 22.0057 18.56 22.2007C18.7551 22.3957 18.8647 22.6602 18.8647 22.9361ZM7.47513 22.9361C7.47518 23.3568 7.22179 23.7361 6.83313 23.8971C6.44447 24.0581 5.99708 23.9691 5.69961 23.6716C5.40213 23.3742 5.31315 22.9268 5.47417 22.5381C5.63518 22.1494 6.01448 21.8961 6.43517 21.8961C7.00953 21.8961 7.47513 22.3617 7.47513 22.9361ZM4.93859 14.7909C4.93864 15.2116 4.68525 15.5909 4.29659 15.7519C3.90793 15.913 3.46054 15.824 3.16306 15.5265C2.86559 15.229 2.77661 14.7816 2.93763 14.393C3.09864 14.0043 3.47794 13.7509 3.89863 13.751C4.47299 13.751 4.93859 14.2166 4.93859 14.7909ZM2.0924 17.8133C2.09245 18.234 1.83907 18.6133 1.45042 18.7743C1.06177 18.9354 0.614398 18.8464 0.316912 18.549C0.0194266 18.2515 -0.0695802 17.8041 0.0913973 17.4155C0.252375 17.0268 0.631633 16.7734 1.05232 16.7734C1.32815 16.7734 1.5927 16.8829 1.78776 17.0779C1.98281 17.273 2.0924 17.5375 2.0924 17.8133Z" fill="#03E8B0"/>
</g>
<defs>
<clipPath id="clip0">
<rect width="24" height="24" fill="white"/>
</clipPath>
</defs>
</svg>
