<svg width="24" height="24" fill="none" xmlns="http://www.w3.org/2000/svg"><path d="M12.002 23.969c6.606 0 11.962-5.356 11.962-11.962C23.964 5.4 18.608.045 12.002.045S.04 5.4.04 12.007c0 6.606 5.356 11.962 11.962 11.962Z" fill="url(#a)"/><path d="M18.669 2.433c.843.374.916 1.706.421 2.477-.638.994-2.886.705-2.549-1.266-.09-.03-.078-.066-.192.037-3.05 5.46-2.971 11.606-5.55 15.897-.537.74-1.007 1.09-1.682 1.476-.675.386-1.163.633-2.266.687-1.102.048-1.542-.428-1.542-.428-1.26-.813-.53-2.278.174-2.573.706-.295 1.164-.175 1.537-.006.38.169.802.837.802.837.44-1.126.626-1.741 1.102-3.567C10.853 8.05 11.72 1.101 18.67 2.434Z" fill="#fff"/><path d="M8.28 10.424h6.743a.976.976 0 1 1 0 1.952H8.28a.976.976 0 0 1-.976-.976.984.984 0 0 1 .976-.976ZM9.147 7.242h6.743a.976.976 0 1 1 0 1.953H9.147a.976.976 0 0 1-.976-.977.984.984 0 0 1 .976-.976Z" fill="#fff"/><defs><linearGradient id="a" x1="1.878" y1=".892" x2="30.002" y2="31.753" gradientUnits="userSpaceOnUse"><stop stop-color="#E3D531"/><stop offset="1" stop-color="#C4A600"/></linearGradient></defs></svg>