<svg width="24" height="24" fill="none" xmlns="http://www.w3.org/2000/svg"><path fill-rule="evenodd" clip-rule="evenodd" d="M12 0c6.626 0 12 5.374 12 12s-5.374 12-12 12S0 18.626 0 12 5.374 0 12 0Z" fill="#B41514"/><path d="M11.904 19.8a1.608 1.608 0 1 1 0-3.217 1.608 1.608 0 0 1 0 3.217ZM11.904 8.712a1.608 1.608 0 1 1 0-3.217 1.608 1.608 0 0 1 0 3.217ZM5.328 15.504v-2.232H18.48v2.232H5.328Z" fill="#fff"/><path d="M11.904 12.168a6.935 6.935 0 0 1-6.931-6.696H7.35a4.56 4.56 0 0 0 9.106 0h2.378a6.935 6.935 0 0 1-6.931 6.696Z" fill="#fff"/></svg>