<svg width="24" height="24" viewBox="0 0 24 24" fill="none" xmlns="http://www.w3.org/2000/svg">
<path d="M23.6307 14.913C23.0546 17.213 21.8097 19.2907 20.0533 20.8835C18.2968 22.4763 16.1077 23.5127 13.7624 23.8617C11.4172 24.2108 9.02106 23.8568 6.87691 22.8446C4.73276 21.8323 2.93677 20.2072 1.7159 18.1746C0.495031 16.1419 -0.0959325 13.793 0.0176872 11.4247C0.131307 9.05632 0.944411 6.77478 2.35425 4.86837C3.76409 2.96195 5.7074 1.51623 7.93861 0.71387C10.1698 -0.0884845 12.5888 -0.211458 14.8899 0.36049C16.4227 0.7361 17.8661 1.41154 19.1365 2.34784C20.407 3.28414 21.4795 4.46275 22.2921 5.81568C23.1048 7.16861 23.6414 8.66907 23.8712 10.2305C24.1009 11.7919 24.0192 13.3833 23.6307 14.913Z" fill="#EC672F"/>
<path d="M7.21798 11.054H11.5186V14.4481C11.1898 14.556 10.903 14.7643 10.6986 15.0437C10.4943 15.3231 10.3827 15.6595 10.3795 16.0056C10.3795 16.4372 10.551 16.8511 10.8562 17.1563C11.1613 17.4614 11.5752 17.6329 12.0068 17.6329C12.4384 17.6329 12.8523 17.4614 13.1575 17.1563C13.4627 16.8511 13.6341 16.4372 13.6341 16.0056C13.6322 15.6624 13.5239 15.3283 13.324 15.0493C13.1242 14.7703 12.8426 14.5602 12.5183 14.4481V11.054H16.7724C16.8401 11.0534 16.9047 11.0263 16.9526 10.9785C17.0004 10.9306 17.0275 10.866 17.0281 10.7983V10.2404C17.0275 10.1728 17.0004 10.1081 16.9526 10.0603C16.9047 10.0124 16.8401 9.98529 16.7724 9.98469H12.402V4.05675H16.7724C16.8401 4.05615 16.9047 4.02901 16.9526 3.98119C17.0004 3.93336 17.0275 3.86867 17.0281 3.80104V3.25474C17.0275 3.18711 17.0004 3.12242 16.9526 3.07459C16.9047 3.02677 16.8401 2.99963 16.7724 2.99902H7.21798C7.15239 3.00257 7.09062 3.031 7.04527 3.07852C6.99991 3.12603 6.97439 3.18905 6.97389 3.25474V3.81266C6.9745 3.88029 7.00163 3.94498 7.04946 3.99281C7.09728 4.04063 7.16197 4.06777 7.22961 4.06838H11.4605V9.99631H7.21798C7.15035 9.99692 7.08566 10.0241 7.03784 10.0719C6.99001 10.1197 6.96287 10.1844 6.96227 10.252V10.8099C6.96041 10.8435 6.96586 10.8771 6.97822 10.9083C6.99058 10.9395 7.00956 10.9677 7.03387 10.9909C7.05817 11.0141 7.08722 11.0318 7.119 11.0427C7.15079 11.0536 7.18456 11.0575 7.21798 11.054ZM12.7856 16.0405C12.7856 16.1922 12.7406 16.3405 12.6563 16.4667C12.572 16.5928 12.4522 16.6912 12.312 16.7492C12.1718 16.8073 12.0176 16.8225 11.8688 16.7929C11.72 16.7633 11.5833 16.6902 11.476 16.5829C11.3687 16.4756 11.2956 16.339 11.266 16.1901C11.2364 16.0413 11.2516 15.8871 11.3097 15.7469C11.3678 15.6067 11.4661 15.4869 11.5922 15.4026C11.7184 15.3183 11.8667 15.2733 12.0184 15.2733C12.1195 15.2724 12.2196 15.2916 12.3131 15.3298C12.4066 15.3681 12.4916 15.4245 12.563 15.496C12.6344 15.5674 12.6909 15.6523 12.7291 15.7458C12.7673 15.8393 12.7865 15.9395 12.7856 16.0405Z" fill="white"/>
<path d="M15.7504 12.4022L15.7272 12.379C15.6957 12.3494 15.6541 12.3329 15.6109 12.3329C15.5677 12.3329 15.5262 12.3494 15.4947 12.379L15.0762 12.7974C15.0559 12.8148 15.0392 12.8361 15.0272 12.8601C15.0152 12.884 15.0082 12.9102 15.0065 12.9369C15.003 12.9697 15.0113 13.0026 15.0298 13.0299C15.0298 13.036 15.0322 13.042 15.0366 13.0463C15.0409 13.0507 15.0468 13.0531 15.053 13.0531L15.0762 13.0764C15.7689 13.86 16.1567 14.8666 16.1688 15.9125C16.1688 17.0161 15.7304 18.0745 14.9501 18.8549C14.1697 19.6353 13.1113 20.0737 12.0077 20.0737C10.9041 20.0737 9.84564 19.6353 9.06527 18.8549C8.2849 18.0745 7.84649 17.0161 7.84649 15.9125C7.84649 14.8431 8.28818 13.9133 8.93909 13.0764L8.96234 13.0531C8.96234 13.047 8.96479 13.0411 8.96915 13.0367C8.97351 13.0323 8.97942 13.0299 8.98559 13.0299C9.00883 13.0066 9.00883 12.9834 9.00883 12.9369C9.0096 12.9097 9.00364 12.8827 8.99147 12.8584C8.97931 12.8341 8.96131 12.8131 8.93909 12.7974L8.52065 12.379C8.48945 12.3489 8.44778 12.332 8.40442 12.332C8.36105 12.332 8.31938 12.3489 8.28818 12.379L8.26493 12.4022C7.78442 12.855 7.40385 13.4033 7.14764 14.0118C6.89142 14.6203 6.76523 15.2756 6.77714 15.9357C6.77467 17.3259 7.32421 18.6601 8.30499 19.6452C9.28577 20.6304 10.6176 21.1858 12.0077 21.1895C13.3978 21.1858 14.7296 20.6304 15.7104 19.6452C16.6911 18.6601 17.2407 17.3259 17.2382 15.9357C17.2501 15.2756 17.1239 14.6203 16.8677 14.0118C16.6115 13.4033 16.2309 12.855 15.7504 12.4022Z" fill="white"/>
</svg>
