<svg width="24" height="24" viewBox="0 0 24 24" fill="none" xmlns="http://www.w3.org/2000/svg">
<path d="M12 24C18.6274 24 24 18.6274 24 12C24 5.37258 18.6274 0 12 0C5.37258 0 0 5.37258 0 12C0 18.6274 5.37258 24 12 24Z" fill="#4FA784"/>
<path fill-rule="evenodd" clip-rule="evenodd" d="M19.1811 9.63462L13.0986 7.89162L11.0181 11.4354L8.60162 8.63262L9.69662 8.49162L10.8254 9.81762L12.0779 7.59837L6.56537 6.01812C6.49131 5.99617 6.41277 5.99412 6.33767 6.01219C6.26257 6.03026 6.19356 6.0678 6.13759 6.12104C6.08162 6.17427 6.04067 6.24131 6.01886 6.31541C5.99705 6.38951 5.99515 6.46805 6.01337 6.54312L8.45537 16.3501L11.0781 11.9341L13.4946 14.7369L12.3996 14.8779L11.2716 13.5519L8.78912 17.6896L9.15662 19.1671C9.17574 19.242 9.21416 19.3107 9.26806 19.3661C9.32196 19.4216 9.38945 19.4619 9.46381 19.4832C9.53817 19.5044 9.6168 19.5058 9.69186 19.4872C9.76692 19.4686 9.83579 19.4306 9.89162 19.3771L19.3641 10.3696C19.42 10.3166 19.4609 10.2497 19.4825 10.1758C19.5041 10.1018 19.5057 10.0235 19.4871 9.94872C19.4685 9.87396 19.4303 9.80549 19.3766 9.7503C19.3228 9.69511 19.2554 9.65519 19.1811 9.63462Z" fill="white"/>
</svg>
