<svg width="24" height="24" viewBox="0 0 24 24" fill="none" xmlns="http://www.w3.org/2000/svg">
<path d="M20.4626 3.75537C21.0821 4.03179 21.5267 4.86665 21.4667 5.48719C21.3885 6.29328 20.9819 6.94271 20.5193 7.56325C19.2608 9.25125 17.6293 10.5353 15.9233 11.729C14.2 12.9348 12.3683 13.9615 10.4498 14.8176C9.38953 15.2905 8.29055 15.6866 7.18607 16.0468C6.30782 16.3324 5.41129 16.5583 4.50261 16.7231C3.69353 16.8706 2.85986 16.937 2.04028 16.7536C1.55646 16.6454 1.07431 16.4856 0.784756 16.0433C0.638726 15.8203 0.554905 15.5531 0.465353 15.2981C0.403025 15.1209 0.378905 14.9303 0.324219 14.6856C0.614129 14.9549 0.800398 15.2081 1.05055 15.3401C1.3721 15.5098 1.74308 15.671 2.09592 15.6782C2.88744 15.6944 3.70022 15.7069 4.46941 15.5496C5.6232 15.3141 6.77389 15.0048 7.87825 14.5974C10.9565 13.4615 13.815 11.8995 16.4328 9.91633C17.6121 9.02272 18.7172 8.04146 19.6356 6.86904C20.0585 6.32922 20.4385 5.75179 20.601 5.08767C20.6816 4.75788 20.5628 4.37854 20.5294 4.022C20.5222 3.94689 20.4929 3.8737 20.4625 3.75537" fill="#3C7CA8"/>
<path d="M18.5178 2.14307C19.3265 2.4282 20.0634 3.19465 19.8209 4.07728C19.4986 5.25101 18.7612 6.13495 17.9504 6.96981C16.3697 8.59751 14.5222 9.87954 12.5768 11.0298C11.2057 11.8403 9.78201 12.5486 8.30727 13.1433C7.45473 13.4872 6.56159 13.7298 5.68912 14.0245C4.75455 14.34 3.78691 14.4875 2.81007 14.5564C2.16756 14.6017 1.52828 14.5407 0.922072 14.2687C0.343565 14.0091 0.0669081 13.5634 0.0345499 12.9489C0.0220853 12.7198 0.0340935 12.4899 0.0703708 12.2633C0.274908 12.758 0.630132 13.0835 1.10548 13.2566C1.81115 13.5137 2.54022 13.6307 3.29353 13.5076C3.70333 13.4405 4.11777 13.3961 4.52279 13.3077C5.00124 13.2032 5.48183 13.0911 5.94309 12.9301C6.62488 12.6917 7.29449 12.4163 7.96267 12.1404C9.69521 11.425 11.319 10.5041 12.8854 9.48133C14.4428 8.46438 15.9259 7.35083 17.219 6.00504C17.844 5.35453 18.4431 4.67787 18.7616 3.81101C18.9568 3.27919 19.0228 2.75357 18.5812 2.2928C18.5546 2.26486 18.5327 2.23202 18.5107 2.20002C18.5067 2.19405 18.5126 2.18116 18.5178 2.14307Z" fill="#D87E3A"/>
<path d="M1.30203 17.2396C1.38048 17.2766 1.43863 17.2895 1.47696 17.3242C1.87457 17.6835 2.35576 17.7857 2.87218 17.8758C3.54919 17.9939 4.20722 17.877 4.86788 17.8337C5.37128 17.8007 5.86919 17.6439 6.36293 17.5167C6.94919 17.366 7.53642 17.2119 8.10872 17.0164C8.90227 16.7454 9.69558 16.4656 10.4653 16.1348C12.3037 15.345 14.0826 14.4309 15.737 13.3037C16.8522 12.5442 17.9125 11.7029 18.9887 10.887C19.3284 10.6294 19.5706 10.58 19.7703 10.789C20.023 11.0532 20.0344 11.4639 19.7468 11.7232C19.2841 12.1401 18.8063 12.543 18.3113 12.921C16.1899 14.5413 13.8932 15.8712 11.466 16.9736C10.0729 17.6063 8.64364 18.1608 7.15505 18.5183C6.23206 18.7399 5.28364 18.8758 4.33893 18.98C3.66549 19.0544 2.99087 18.9426 2.35504 18.6719C1.79958 18.4355 1.53952 17.9487 1.3049 17.4409C1.28316 17.3941 1.30203 17.3283 1.30203 17.2396Z" fill="#EAB600"/>
<path d="M1.08916 7.31974C1.09597 7.41932 1.1288 7.52559 1.10492 7.61706C0.986593 8.07115 1.20044 8.50422 1.64486 8.6358C2.2851 8.82506 2.93549 8.82589 3.58468 8.68297C4.13143 8.56261 4.68725 8.46601 5.21764 8.29288C6.01764 8.0321 6.81931 7.75843 7.58409 7.41049C9.18074 6.68452 10.689 5.79903 12.0672 4.70565C12.9954 3.96941 13.8759 3.18852 14.464 2.1318C14.6621 1.77526 14.721 1.40141 14.6511 1.01491C14.626 0.877235 14.497 0.748996 14.3926 0.637951C14.3098 0.549951 14.192 0.495026 14.0157 0.375026C14.1695 0.341593 14.256 0.292876 14.3202 0.313533C14.6741 0.426608 15.0438 0.516757 15.3674 0.690488C15.802 0.923324 15.9366 1.46888 15.7828 1.94326C15.4322 3.02506 14.6696 3.8038 13.871 4.54685C12.4561 5.8635 10.8561 6.92524 9.13418 7.79007C8.09955 8.30947 7.03292 8.77276 5.95435 9.19401C5.33107 9.43736 4.66098 9.57276 4.00212 9.70971C3.45215 9.82386 2.88856 9.91986 2.32976 9.92762C1.94767 9.93288 1.54635 9.8161 1.18456 9.67473C0.700504 9.48547 0.462056 8.95879 0.59328 8.38422C0.678056 8.01324 0.859309 7.66422 0.99722 7.30518L1.08916 7.31974Z" fill="#3C7CA8"/>
<path d="M16.4463 0.937012C16.8157 1.1345 17.2303 1.27791 17.5441 1.54155C18.0518 1.96806 18.0647 2.45976 17.8122 3.11922C17.3852 4.23456 16.5861 5.08519 15.7298 5.87815C14.0653 7.4194 12.1935 8.6705 10.1796 9.70298C9.1897 10.2104 8.17 10.6632 7.14791 11.1037C6.57573 11.3504 5.97179 11.5239 5.3792 11.7218C5.31173 11.7445 5.2149 11.7343 5.15054 11.7017C4.90863 11.5795 4.83412 11.3647 4.84355 11.1039C4.85275 10.844 4.97645 10.6454 5.21132 10.5764C6.82314 10.1021 8.35388 9.43755 9.83305 8.64734C11.7258 7.636 13.505 6.46191 15.0596 4.97128C15.733 4.32531 16.344 3.63086 16.7255 2.75815C17.0387 2.04137 17.0044 1.75301 16.4637 1.17641C16.425 1.13522 16.4064 1.07516 16.3788 1.02394L16.4463 0.937012Z" fill="#EAB600"/>
<path d="M6.40482 22.5474C6.50583 22.5416 6.59133 22.5202 6.66989 22.5351C7.01664 22.6012 7.3598 22.6873 7.70763 22.7462C7.86261 22.7725 8.02774 22.7685 8.18476 22.749C8.75431 22.6786 9.32864 22.6268 9.88864 22.509C10.4326 22.3947 10.9668 22.2237 11.4958 22.0487C12.2086 21.813 12.9375 21.6034 13.6141 21.2861C14.8708 20.6963 16.1226 20.0854 17.3257 19.3953C19.1861 18.3278 20.9151 17.0723 22.3639 15.4686C22.8841 14.8929 23.3148 14.2552 23.6132 13.5351C23.6788 13.3769 23.7224 13.2096 23.8114 13.0581C23.8981 14.2091 23.4342 15.1502 22.72 15.9923C21.3409 17.6184 19.6568 18.8818 17.8322 19.9455C16.5629 20.6854 15.2384 21.341 13.8993 21.9476C13.0457 22.3342 12.1223 22.5692 11.2261 22.8593C10.3549 23.1414 9.45294 23.2748 8.54213 23.2959C7.78703 23.3135 7.10237 23.0225 6.45067 22.6613C6.4318 22.6508 6.42942 22.611 6.40482 22.5474ZM23.2851 8.16588C23.4373 8.74857 23.7161 9.29938 23.5197 9.94976C23.1196 11.2736 22.2257 12.2496 21.2753 13.1784C19.3887 15.0218 17.2064 16.4578 14.9006 17.716C14.7129 17.8187 14.5119 17.9131 14.3056 17.9611C14.051 18.0201 13.8058 17.934 13.7215 17.6699C13.6355 17.4013 13.7254 17.1607 13.9945 17.0153C14.2868 16.8573 14.5794 16.7001 14.8675 16.5348C17.2411 15.1748 19.5003 13.6596 21.39 11.6553C22.0348 10.9715 22.6331 10.244 22.9599 9.34368C23.059 9.07096 23.0943 8.7746 23.1517 8.48744C23.172 8.38559 23.1708 8.27968 23.1795 8.17556L23.2852 8.166L23.2851 8.16588ZM9.75109 2.12015C9.809 2.00314 9.85974 1.90594 9.90548 1.8066C10.0041 1.59287 10.135 1.38594 10.1882 1.16159C10.2508 0.897705 10.1087 0.770182 9.825 0.732809C8.94237 0.616272 8.13067 0.883735 7.36697 1.24529C6.5801 1.61782 5.82428 2.06272 5.08995 2.52851C4.54189 2.87621 4.03992 3.29496 3.75049 3.90356C3.55443 4.31597 3.69998 4.57102 4.17103 4.60517C5.03073 4.66762 5.809 4.37854 6.57664 4.06463C6.97748 3.90069 7.35706 3.68708 7.74416 3.49209C7.98655 3.3703 8.13377 3.45126 8.35049 3.74499C8.5364 3.99693 8.32434 4.08791 8.18536 4.15359C7.43876 4.50602 6.68613 4.84553 5.9278 5.17197C5.27789 5.45209 4.58512 5.58606 3.88088 5.62809C3.64972 5.64194 3.3961 5.5715 3.17927 5.47967C2.80709 5.32194 2.70739 4.90212 2.90369 4.48541C3.19264 3.87168 3.68267 3.42093 4.19288 2.99251C5.26273 2.09365 6.43598 1.36099 7.78034 0.910481C8.21975 0.763376 8.6441 0.551675 9.09449 0.463675C9.62679 0.359794 10.1936 0.262839 10.7208 0.335078C11.422 0.431078 11.5889 0.90869 11.2119 1.64039C11.1397 1.78033 11.0361 1.90666 10.9352 2.03024C10.716 2.29854 10.4821 2.35287 10.1507 2.23203C10.0474 2.19466 9.93843 2.17209 9.75121 2.12015" fill="#3C7CA8"/>
<path d="M23.3157 15.7246C23.2685 15.8996 23.2388 16.0814 23.1716 16.2483C22.7187 17.3732 21.926 18.2405 21.0311 19.0244C19.2105 20.6196 17.1458 21.8172 14.91 22.723C14.1654 23.0248 13.4091 23.3136 12.635 23.5221C11.9714 23.7008 11.2774 23.8155 10.5917 23.8477C10.0437 23.8735 9.48774 23.7331 8.93515 23.6662C8.93467 23.6287 8.93395 23.5915 8.93359 23.554C8.9884 23.5322 9.04225 23.4951 9.09813 23.4916C9.25739 23.4812 9.4171 23.4792 9.57658 23.4857C10.4067 23.5234 11.2028 23.3577 12.002 23.1467C14.3891 22.5166 16.5628 21.4252 18.6323 20.113C19.9194 19.2968 21.1314 18.3721 22.1515 17.2313C22.5418 16.7947 22.8339 16.2701 23.1712 15.7861C23.1921 15.7562 23.2177 15.7297 23.2409 15.7017C23.2659 15.7093 23.2908 15.7172 23.3157 15.7246Z" fill="#EAB600"/>
<path d="M11.269 0.0854492C11.8076 0.124016 12.3759 0.067897 12.8777 0.224434C13.5711 0.440912 13.7772 0.953987 13.373 1.75482C12.9193 2.65393 12.1829 3.30885 11.4327 3.94348C11.0492 4.26802 10.634 4.55805 10.2139 4.83423C10.0861 4.9184 9.85946 4.97548 9.73911 4.91781C9.57481 4.839 9.42746 4.65512 9.35821 4.48223C9.32967 4.4113 9.50711 4.23112 9.62006 4.13476C10.2762 3.57548 10.9681 3.05476 11.5909 2.46121C11.8956 2.17094 12.1139 1.76975 12.3056 1.38599C12.5409 0.914345 12.3811 0.419181 11.8263 0.361151C11.6364 0.34121 11.4547 0.243419 11.2691 0.18133V0.0854492H11.269ZM4.35809 21.1974C4.73218 21.29 5.08358 21.3666 5.4289 21.4647C5.97994 21.6212 6.52657 21.5871 7.08084 21.481C7.45815 21.4089 7.84549 21.3887 8.22352 21.3189C8.60824 21.2478 8.99284 21.1637 9.3674 21.0508C9.9366 20.8796 10.4978 20.6813 11.0609 20.4896C11.3475 20.393 11.6318 20.2898 11.9137 20.18C12.1841 20.074 12.5329 20.1645 12.6788 20.4049C12.8221 20.6415 12.6647 20.805 12.4869 20.8917C12.1693 21.0469 11.8345 21.1723 11.4971 21.2795C10.7472 21.5183 9.99833 21.7666 9.23594 21.9583C8.22985 22.2114 7.19917 22.316 6.16358 22.2224C5.50114 22.1627 4.96621 21.788 4.46555 21.3755C4.416 21.3346 4.39451 21.2597 4.35809 21.1976V21.1974ZM23.7692 10.6487C23.8102 10.8056 23.8695 10.9603 23.8891 11.1197C24.0008 12.0275 23.6665 12.8021 23.1527 13.5201C22.1629 14.9035 20.8801 15.9824 19.5358 16.9967C19.375 17.1179 19.2037 17.1904 19.0334 17.0025C18.8836 16.8369 18.8777 16.4723 19.0671 16.294C19.3389 16.0385 19.6407 15.8146 19.9315 15.5793C21.1661 14.58 22.3506 13.5319 23.186 12.1545C23.4312 11.7503 23.6595 11.3354 23.6421 10.836C23.6402 10.7761 23.6784 10.7148 23.698 10.6542L23.7692 10.6487ZM2.51355 4.87291C2.39487 5.18455 2.26508 5.47614 2.17326 5.77918C2.07642 6.10002 2.26233 6.38754 2.57708 6.49942C3.24967 6.73894 3.91224 6.57894 4.5723 6.45381C4.88024 6.39554 5.17337 6.25727 5.48167 6.20354C5.57266 6.18766 5.75893 6.31757 5.78723 6.41405C5.90902 6.82957 5.68896 7.18061 5.24478 7.30849C4.41732 7.54682 3.57779 7.72652 2.71057 7.66933C2.47248 7.65357 2.22221 7.59052 2.00848 7.48617C1.53481 7.25524 1.32908 6.77214 1.56478 6.26527C1.78973 5.78133 2.13433 5.35303 2.42902 4.90193C2.44 4.88521 2.47642 4.88497 2.51355 4.87291Z" fill="#D87E3A"/>
<path d="M2.57937 19.3204C2.81185 19.4434 3.03072 19.5897 3.27107 19.6783C3.53364 19.7752 3.81352 19.8611 4.08994 19.8765C4.63645 19.9067 5.18582 19.8881 5.73388 19.8825C5.84063 19.8813 5.95334 19.8642 6.05257 19.8265C6.54606 19.6391 6.93173 19.8943 7.18296 20.2859C7.28707 20.4481 7.15788 20.664 6.92707 20.6796C6.17436 20.7307 5.41866 20.8137 4.66749 20.7878C3.76146 20.7565 3.10976 20.2284 2.60922 19.5022C2.5874 19.4691 2.57051 19.433 2.55907 19.3951C2.5543 19.38 2.56815 19.359 2.57937 19.3203V19.3204ZM11.7364 23.913C11.9871 23.8511 12.2349 23.7713 12.489 23.7301C14.9769 23.3256 17.1305 22.1564 19.2018 20.8009C19.5314 20.5853 19.8341 20.3289 20.1554 20.1003C20.233 20.045 20.3357 20.0247 20.469 19.9713C20.4452 20.3225 20.2601 20.51 20.0542 20.6457C19.1133 21.2655 18.1918 21.9252 17.2024 22.4573C16.326 22.9287 15.3841 23.2926 14.4437 23.6268C13.5795 23.934 12.6706 24.0671 11.7364 23.913Z" fill="#3C7CA8"/>
<path d="M0.368964 9.60826C0.383173 9.74318 0.412905 9.87858 0.408367 10.0129C0.398218 10.3198 0.534696 10.5364 0.778278 10.7071C1.15082 10.9681 1.2467 11.4749 0.979233 11.8474C0.941621 11.9 0.761681 11.9127 0.692546 11.8703C0.140546 11.5323 -0.0575432 10.9107 0.138994 10.1982C0.1938 9.99966 0.247293 9.80061 0.301382 9.60181L0.368964 9.60826ZM22.691 7.37793C22.182 6.94569 22.0873 6.39631 22.0438 5.81494C22.4 5.97733 22.8017 6.89112 22.691 7.37793Z" fill="#EAB600"/>
</svg>
