<svg width="24" height="24" viewBox="0 0 24 24" fill="none" xmlns="http://www.w3.org/2000/svg">
<g clip-path="url(#clip0)">
<path fill-rule="evenodd" clip-rule="evenodd" d="M4.8504 9.51624C4.72946 9.39615 4.63347 9.25331 4.56797 9.09596C4.50247 8.93861 4.46875 8.76985 4.46875 8.59941C4.46875 8.42898 4.50247 8.26022 4.56797 8.10287C4.63347 7.94552 4.72946 7.80268 4.8504 7.68259L12.1386 0.378912C12.3845 0.137917 12.715 0.00292969 13.0593 0.00292969C13.4036 0.00292969 13.7341 0.137917 13.98 0.378912C14.221 0.624776 14.356 0.95533 14.356 1.29961C14.356 1.64389 14.221 1.97444 13.98 2.2203L6.68405 9.51624C6.56396 9.63718 6.42112 9.73317 6.26377 9.79867C6.10642 9.86417 5.93766 9.89789 5.76722 9.89789C5.59679 9.89789 5.42803 9.86417 5.27068 9.79867C5.11333 9.73317 4.97049 9.63718 4.8504 9.51624Z" fill="#242328"/>
<path fill-rule="evenodd" clip-rule="evenodd" d="M18.0191 14.4755C18.1403 14.5963 18.2365 14.7398 18.3021 14.8978C18.3677 15.0558 18.4014 15.2252 18.4014 15.3962C18.4014 15.5673 18.3677 15.7367 18.3021 15.8947C18.2365 16.0527 18.1403 16.1962 18.0191 16.3169L10.7309 23.6129C10.6118 23.7392 10.4685 23.8404 10.3096 23.9104C10.1507 23.9804 9.97938 24.0179 9.80574 24.0207C9.6321 24.0234 9.45968 23.9913 9.29865 23.9262C9.13763 23.8612 8.99127 23.7646 8.86821 23.642C8.74516 23.5195 8.64791 23.3736 8.5822 23.2128C8.5165 23.0521 8.48367 22.8798 8.48566 22.7061C8.48765 22.5325 8.52441 22.361 8.59378 22.2018C8.66315 22.0426 8.76372 21.8989 8.88955 21.7792L16.1855 14.4755C16.4291 14.2332 16.7587 14.0971 17.1023 14.0971C17.4459 14.0971 17.7756 14.2332 18.0191 14.4755ZM4.37891 16.0229C4.13792 15.7771 4.00293 15.4465 4.00293 15.1022C4.00293 14.7579 4.13792 14.4274 4.37891 14.1815L9.02108 9.53936C9.14117 9.41842 9.28401 9.32244 9.44136 9.25694C9.59871 9.19144 9.76747 9.15771 9.93791 9.15771C10.1083 9.15771 10.2771 9.19144 10.4345 9.25694C10.5918 9.32244 10.7346 9.41842 10.8547 9.53936C11.0957 9.78522 11.2307 10.1158 11.2307 10.4601C11.2307 10.8043 11.0957 11.1349 10.8547 11.3808L6.21257 16.0229C5.96899 16.2653 5.63936 16.4014 5.29574 16.4014C4.95212 16.4014 4.62249 16.2653 4.37891 16.0229Z" fill="#242328"/>
<path fill-rule="evenodd" clip-rule="evenodd" d="M18.4912 7.96116C18.7336 8.20473 18.8696 8.53437 18.8696 8.87799C18.8696 9.22161 18.7336 9.55124 18.4912 9.79482L13.849 14.437C13.7293 14.5628 13.5857 14.6634 13.4265 14.7328C13.2673 14.8021 13.0958 14.8389 12.9221 14.8409C12.7485 14.8429 12.5762 14.81 12.4154 14.7443C12.2547 14.6786 12.1087 14.5814 11.9862 14.4583C11.8637 14.3353 11.767 14.1889 11.702 14.0279C11.637 13.8669 11.6049 13.6944 11.6076 13.5208C11.6103 13.3472 11.6478 13.1758 11.7178 13.0169C11.7879 12.858 11.889 12.7147 12.0154 12.5956L16.6575 7.95342C16.7776 7.83248 16.9205 7.7365 17.0778 7.671C17.2352 7.6055 17.4039 7.57178 17.5744 7.57178C17.7448 7.57178 17.9136 7.6055 18.0709 7.671C18.2283 7.7365 18.3711 7.83248 18.4912 7.95342" fill="#A573FF"/>
</g>
<defs>
<clipPath id="clip0">
<rect width="24" height="24" fill="white"/>
</clipPath>
</defs>
</svg>
