<svg width="24" height="24" fill="none" xmlns="http://www.w3.org/2000/svg"><path fill-rule="evenodd" clip-rule="evenodd" d="M1.991 6.042c.037.033.068.058.096.085.301.291.6.585.905.872.068.065.069.109.02.183-.64.964-.872 2.02-.659 3.139.286 1.501 1.163 2.595 2.595 3.255.845.389 1.743.489 2.665.353.62-.092 1.2-.3 1.73-.627.088-.055.136-.048.207.022.779.762 1.562 1.52 2.34 2.284.085.084.13.094.222.004.89-.866 1.785-1.725 2.674-2.59.098-.096.159-.112.287-.038.777.451 1.624.633 2.53.592 1.797-.081 3.439-1.294 3.996-2.958.421-1.26.265-2.456-.422-3.594-.045-.074-.05-.12.02-.184.25-.233.494-.473.74-.71.023-.021.049-.04.074-.062a11.177 11.177 0 0 1-1.233 14.171c-4.388 4.584-11.63 4.94-16.467 1.006-4.91-3.995-5.494-10.554-2.32-15.203Z" fill="#00A6C4"/><path fill-rule="evenodd" clip-rule="evenodd" d="M20.242 4.56C15.529-.091 7.866.303 3.777 4.374c.024.026.047.053.073.078 2.701 2.613 5.403 5.225 8.102 7.84.076.073.12.064.189-.004.348-.341.7-.68 1.053-1.017 2.278-2.185 4.556-4.369 6.835-6.552.061-.059.137-.103.213-.16ZM12.04 13.94c-3.294-3.192-6.58-6.374-9.875-9.565.024-.031.043-.06.066-.085C3.42 3.018 4.8 1.99 6.41 1.258c.879-.4 1.792-.7 2.742-.898 1.094-.227 2.2-.32 3.318-.271 1.63.07 3.188.43 4.678 1.072 1.792.772 3.305 1.9 4.588 3.324.075.083.032.12-.025.174L16.92 9.258l-4.777 4.59c-.029.028-.06.054-.104.093ZM7.795 11.704c-.67.59-2.156.727-3.14-.222-.988-.952-.853-2.36-.204-3.092l3.344 3.314ZM16.444 11.476l3.35-3.242c.47.51.69 1.809-.127 2.767-.907 1.065-2.403 1.059-3.223.475Z" fill="#00A6C4"/></svg>