<svg width="24" height="24" fill="none" xmlns="http://www.w3.org/2000/svg"><path d="m16.06 16.507-3.191 2.474v-7.466a4.08 4.08 0 0 1 1.626-3.259l3.144-2.366v7.393a4.078 4.078 0 0 1-1.578 3.224Zm-8.121.005a4.078 4.078 0 0 1-1.581-3.224V5.895l3.144 2.369a4.079 4.079 0 0 1 1.624 3.257v7.464l-3.19-2.473h.003Zm14.36 3.883L19.24 22.73V6.79a4.335 4.335 0 0 1 1.7-3.441L24 1v15.948a4.334 4.334 0 0 1-1.707 3.447h.007Zm-20.586 0A4.334 4.334 0 0 1 0 16.95V1l3.07 2.35a4.334 4.334 0 0 1 1.699 3.442V22.73l-3.06-2.333.004-.002Z" fill="#0072FF"/></svg>