<svg width="24" height="24" fill="none" xmlns="http://www.w3.org/2000/svg"><g clip-path="url(#a)"><path d="M4.947 3.486C6.935 1.829 9.524.896 12.114.952c3.162-.009 6.27 1.473 8.306 3.882A11.058 11.058 0 0 1 7.981 22.301a11.331 11.331 0 0 1-2.643-1.476c.193-1.451.91-2.82 1.955-3.84a6.711 6.711 0 0 1 4.273-1.901c.425-.04.849-.005 1.276-.025a9.443 9.443 0 0 1 4.715 1.126c.194.102.451.212.463.468.033.328-.314.47-.516.657.527-.02 1.019-.261 1.465-.526.424-.242.55-.89.207-1.254-.583-.65-1.212-1.255-1.804-1.897-.163-.182-.39-.34-.436-.6a7.93 7.93 0 0 0-3.484-4.697c-1.047-.672-2.267-1.058-3.503-1.174-2.653-.324-5.346-.227-7.98.21.662-1.506 1.719-2.826 2.978-3.886Z" fill="#fff"/><path d="M13.127 10.226c.178.129.343.276.49.44.536.535 1.074 1.067 1.605 1.607.114.104.216.222.304.35-.419.014-.837.009-1.255 0-.252-.546-.539-1.077-.8-1.62-.121-.256-.274-.5-.344-.777Z" fill="#fff"/><path d="M11.412.014a11.993 11.993 0 0 1 9.562 4.023c4.398 4.95 3.95 12.53-1 16.928a11.989 11.989 0 0 1-2.386 1.65c-2.998 1.603-6.684 1.819-9.854.6a12.014 12.014 0 0 1-7.59-9.363c-.46-2.894.186-5.95 1.8-8.396A12.034 12.034 0 0 1 8.208.616a12.204 12.204 0 0 1 3.205-.602ZM4.948 3.486c-1.26 1.06-2.317 2.38-2.979 3.89 2.634-.437 5.328-.534 7.98-.21 1.236.115 2.456.501 3.503 1.174a7.93 7.93 0 0 1 3.485 4.697c.046.259.272.415.435.6.591.642 1.221 1.247 1.805 1.897.343.364.219 1.011-.208 1.254-.446.264-.938.506-1.465.526.202-.188.55-.329.517-.657-.012-.257-.27-.364-.464-.468a9.439 9.439 0 0 0-4.715-1.13c-.424.02-.849-.014-1.273.026a6.712 6.712 0 0 0-4.273 1.901c-1.046 1.019-1.763 2.39-1.956 3.84a11.33 11.33 0 0 0 2.644 1.476c5.69 2.217 12.102-.6 14.318-6.292a11.057 11.057 0 0 0-1.88-11.176c-2.035-2.41-5.144-3.89-8.304-3.88-2.59-.055-5.18.878-7.167 2.535l-.003-.003Zm8.18 6.743c.071.277.224.522.346.777.261.542.545 1.072.8 1.619.418.01.836.015 1.255 0a2.062 2.062 0 0 0-.303-.35c-.532-.54-1.07-1.072-1.606-1.606a3.054 3.054 0 0 0-.493-.443l.002.003Z" fill="#333"/></g><defs><clipPath id="a"><path fill="#fff" d="M0 0h24v23.995H0z"/></clipPath></defs></svg>