<svg width="24" height="24" fill="none" xmlns="http://www.w3.org/2000/svg"><mask id="a" mask-type="alpha" maskUnits="userSpaceOnUse" x="0" y="0" width="24" height="24"><path d="M0 0h24v24H0V0Z" fill="#fff"/></mask><g mask="url(#a)"><path fill-rule="evenodd" clip-rule="evenodd" d="M12 0c6.628 0 12 5.372 12 12 0 6.627-5.372 12-12 12S0 18.627 0 12C0 5.372 5.372 0 12 0Z" fill="#2775CA"/></g><path fill-rule="evenodd" clip-rule="evenodd" d="M9.75 20.343c0 .282-.22.443-.494.358a9.004 9.004 0 0 1 0-17.148c.273-.085.494.075.494.357v.697c0 .188-.145.41-.324.47-2.87 1.055-4.927 3.812-4.927 7.045s2.056 5.991 4.927 7.045c.179.066.324.282.324.47v.706Z" fill="#fff"/><path fill-rule="evenodd" clip-rule="evenodd" d="M12.748 17.75c0 .207-.169.377-.376.377h-.748a.378.378 0 0 1-.377-.377v-1.185c-1.637-.222-2.437-1.14-2.654-2.386a.35.35 0 0 1 .348-.405h.857c.179 0 .33.127.367.306.16.743.588 1.313 1.901 1.313.97 0 1.657-.542 1.657-1.35 0-.81-.405-1.116-1.826-1.352-2.1-.282-3.092-.917-3.092-2.564 0-1.27.96-2.259 2.447-2.47V6.493c0-.207.17-.377.376-.377h.749c.207 0 .376.17.376.377v1.195c1.21.217 1.976.904 2.226 2.042a.348.348 0 0 1-.343.42h-.791a.381.381 0 0 1-.362-.278c-.212-.725-.73-1.035-1.629-1.035-.993 0-1.506.48-1.506 1.152 0 .71.292 1.068 1.817 1.29 2.061.282 3.125.87 3.125 2.626 0 1.332-.989 2.41-2.537 2.659v1.185h-.005Z" fill="#fff"/><path fill-rule="evenodd" clip-rule="evenodd" d="M14.744 20.7c-.273.086-.495-.075-.495-.357v-.696a.5.5 0 0 1 .325-.471c2.87-1.054 4.927-3.812 4.927-7.045 0-3.232-2.056-5.99-4.927-7.044a.544.544 0 0 1-.325-.471V3.92c0-.283.222-.447.495-.358a9.005 9.005 0 0 1 6.258 8.574c-.004 4.005-2.63 7.402-6.258 8.565Z" fill="#fff"/></svg>