<svg width="24" height="24" fill="none" xmlns="http://www.w3.org/2000/svg"><path d="M12 24c6.627 0 12-5.373 12-12S18.627 0 12 0 0 5.373 0 12s5.373 12 12 12Z" fill="#3058A6"/><path d="M11.996 20.421a8.417 8.417 0 1 1 0-16.835 8.417 8.417 0 0 1 0 16.835Zm0-17.37c-4.937 0-8.953 4.016-8.953 8.953 0 4.937 4.016 8.953 8.953 8.953 4.938 0 8.954-4.016 8.954-8.953 0-4.937-4.016-8.954-8.954-8.954Z" fill="#fff"/><path fill-rule="evenodd" clip-rule="evenodd" d="m15.15 15.206-.467 2.024-.113.49h-.502l-2.584-.001h-.01c-1.036-.018-1.85-.293-2.383-.779.46.813 1.439 1.283 2.804 1.305h.01l2.583.002h.503l.113-.49.467-2.024-.364-.774-.057.247Zm-.812-8.678-.37-.767-.052.24-.35 1.595h.537l.235-1.068Zm1.865 1.846-.465 1.968-.116.486h-2.8l-.71 3.247a1.752 1.752 0 0 0-.024.24.32.32 0 0 0 .01.089c.053.02.11.03.167.028h.306l.673-3.076h2.8l.115-.487.465-1.969-.362-.777-.06.25Zm-6.947 2.454h-1.95l.672.528h1.164l.114-.527Z" fill="#fff"/><path fill-rule="evenodd" clip-rule="evenodd" d="M12.326 15.065h-.072c-.543-.015-.8-.297-.8-.75 0-.108.019-.252.037-.359l.823-3.759h2.808l.465-1.969H12.78l.52-2.362h-2.291l-.52 2.362H8.003l-.447 1.969h2.485l-.967 4.421a2.811 2.811 0 0 0-.072.59c0 1.262.996 1.854 2.481 1.88h2.583l.468-2.024h-2.208Z" fill="#fff"/></svg>