<svg width="24" height="24" fill="none" xmlns="http://www.w3.org/2000/svg"><path fill="#00C38C" d="M0 0h24v24H0z"/><path fill-rule="evenodd" clip-rule="evenodd" d="m13.84 3.956-1.305.75v6.282l.713.405v-4.79l2.448 1.388.473.27.397-.225v-.375l-3.315-1.875V5.12l.593-.338 3.435 1.95v1.736l-1.65.93-.056-.026a.698.698 0 0 0-.823.143.716.716 0 0 0-.201.521.72.72 0 0 0 .712.72.713.713 0 0 0 .705-.649v-.063l1.665-.942 1.545.878v3.873l-1.545.878-6.277-3.57V4.699l-1.305-.75-4.144 2.366v2.149L4 9.544v4.725l1.905 1.083v2.153l4.144 2.355 1.305-.75v-6.292l-.713-.405v4.803L7.72 15.56l-.397.225v.375l3.314 1.875v.664l-.592.337-3.435-1.95v-1.74l1.65-.93.056.026a.692.692 0 0 0 .587.02.716.716 0 0 0 .44-.676.716.716 0 0 0-.712-.72.712.712 0 0 0-.705.649v.063l-1.665.942-1.541-.878V9.967l1.545-.877 6.274 3.57v6.461l1.305.75 4.147-2.355v-2.16l1.905-1.08V9.551l-1.905-1.084V6.315L13.84 3.956ZM6.617 6.735l3.436-1.95.592.337v.653L6.618 8.059V6.735Zm.375 1.942 3.657-2.073v4.151L6.993 8.677Zm6.263 4.388 3.656 2.078-3.656 2.073v-4.151Zm0 5.625v-.645l4.027-2.284v1.324l-3.442 1.95-.592-.337.007-.008Z" fill="#fff"/></svg>