<svg width="24" height="24" fill="none" xmlns="http://www.w3.org/2000/svg"><g clip-path="url(#a)"><path d="M1.024 7.482a2.104 2.104 0 0 1 2.523-.368l8.62 4.898-8.645 4.898A2.11 2.11 0 0 1 1 16.543c.024 0 .024-9.649.024-9.061Z" fill="url(#b)"/><path d="M21.547 4.983a1.989 1.989 0 0 1-.955 2.253l-8.425 4.776-8.645-4.898A2.109 2.109 0 0 0 1 7.48 2.968 2.968 0 0 1 2.543 4.91L10.478.404a3.1 3.1 0 0 1 3.06 0l8.009 4.58Z" fill="url(#c)"/><path d="m3.522 16.91 17.07-9.673c.808-.465 1.004-1.396.784-2.253.906.539 1.273 1.518 1.273 2.547v8.988c0 1.077-.416 2.057-1.347 2.596l-7.837 4.481a3.009 3.009 0 0 1-3.012 0l-7.935-4.482A3.05 3.05 0 0 1 1 16.544a2.11 2.11 0 0 0 2.522.366Z" fill="url(#d)"/></g><defs><linearGradient id="b" x1="2.21" y1="17.332" x2="6.998" y2="9.039" gradientUnits="userSpaceOnUse"><stop stop-color="#00DAD9"/><stop offset="1" stop-color="#095FA7"/></linearGradient><linearGradient id="c" x1="8.518" y1="1.459" x2="14.038" y2="11.02" gradientUnits="userSpaceOnUse"><stop stop-color="#0BF7DF"/><stop offset="1" stop-color="#0095FF"/></linearGradient><linearGradient id="d" x1="24.226" y1="8.679" x2="4.524" y2="22.474" gradientUnits="userSpaceOnUse"><stop stop-color="#00FCC6"/><stop offset="1" stop-color="#0095FF"/></linearGradient><clipPath id="a"><path fill="#fff" d="M0 0h24v24H0z"/></clipPath></defs></svg>