<svg width="11" height="20" viewBox="0 0 11 20" fill="none" xmlns="http://www.w3.org/2000/svg">
<path d="M3.62986 12.3H5V16.7299L5 16.762C4.99998 17.18 4.99997 17.5357 5.02739 17.7907C5.0412 17.9191 5.06604 18.0698 5.1263 18.2046C5.19158 18.3507 5.32995 18.5404 5.58868 18.5974C5.8474 18.6544 6.05268 18.5403 6.17329 18.4352C6.28461 18.3382 6.37045 18.2119 6.43691 18.1012C6.56895 17.8813 6.71839 17.5585 6.89398 17.1791L6.90747 17.15L9.63881 11.2503L9.6559 11.2134C9.9372 10.6058 10.172 10.0988 10.2935 9.6859C10.42 9.25645 10.4625 8.80465 10.199 8.39231C9.93556 7.97997 9.50769 7.82878 9.06485 7.7631C8.63908 7.69995 8.08035 7.69997 7.41085 7.7L7.37014 7.7H6V3.27013L6 3.23804C6.00002 2.82003 6.00003 2.4643 5.97261 2.20926C5.9588 2.08088 5.93396 1.93022 5.8737 1.79539C5.80842 1.64932 5.67005 1.4596 5.41132 1.40262C5.1526 1.34563 4.94732 1.45966 4.82671 1.56479C4.71538 1.66183 4.62955 1.78811 4.56309 1.89881C4.43105 2.11873 4.28161 2.44155 4.10601 2.82089L4.09253 2.85L1.3612 8.74969L1.3441 8.78662C1.0628 9.39417 0.828043 9.90119 0.706471 10.3141C0.580028 10.7436 0.537468 11.1954 0.800954 11.6077C1.06444 12.02 1.49231 12.1712 1.93515 12.2369C2.36092 12.3 2.91965 12.3 3.58915 12.3L3.62986 12.3Z" stroke="#CCD2E3"/>
</svg>
