<svg width="24" height="24" fill="none" xmlns="http://www.w3.org/2000/svg"><g clip-path="url(#a)"><path d="M23.93 13.613 16.146 5.83a.27.27 0 0 0-.362 0l-3.82 3.808-3.746-3.746a.253.253 0 0 0-.362 0L6.688 7.039l-4.297 4.213-.94.922-1.38 1.346a.246.246 0 0 0-.071.185c0 .07.03.133.07.185l3.883 3.883c.101.101.27.101.362 0l3.728-3.724 3.776 3.777c.102.101.27.101.362 0l3.737-3.737 3.759 3.759c.052.053.114.07.185.07.07 0 .132-.022.185-.07l3.882-3.882A.245.245 0 0 0 24 13.78c0-.075-.022-.128-.07-.167Zm-.698.322L21 13.114l-1.023-2.206.59.084 2.806 2.806-.14.137Zm-1.261 1.261-.662-1.416 1.522.56-.86.856ZM6.604 10.092l-3.145.847 3.145-3.093v2.246ZM2.7 11.676l2.206-.591-.146 2.483-2.682-1.274.622-.618Zm2.735-.732.393-.102 1.046 1.606-1.637 1.813.198-3.317Zm1.787 1.094-.878-1.346.499-.132 1.253.516-.874.962Zm-.101-1.924v-.94l2.982.247.745 2.237-3.727-1.544Zm2.523 2.907 1.068.653.176 2.493-1.509-1.5.265-1.646Zm1.452.283-1.355-.838.102-.653 1.275.529c.03.022.061.04.101.04l1.284.538.538 1.593-1.945-1.21Zm1.932-.46 1.399-.723-1.024 1.822-.375-1.098Zm1.937-1.57-1.293.67.309-2.192 1.8 1.099-.816.423Zm1.354-.705-2.413-1.47-.424-.26.636-.63 2.744.89.26 1.055-.803.415Zm1.315-.508-.64-2.66 2.983 2.982-2.343-.322Zm.022.52.547.071.591 5.568-1.575-1.575.437-4.063Zm1.068.155.652.093.931 2.007-1.138 2.113-.445-4.213Zm-2.767-4.359.322.322.437 1.814-2.184-.706 1.425-1.43Zm-3.816 3.82.975-.974.384.238-.393 2.775-.401.207-1.24-.507-1.014-3.053 1.323 1.324c.106.083.26.083.366-.01ZM8.03 6.453l1.606 1.602.278.838-2.792-.238V7.339l.908-.887Zm-6.353 6.23 3.045 1.438-.084 1.368-2.722-.477L.622 13.72l1.054-1.037Zm2.453 4.553L2.546 15.65l2.047.362-.053.798-.41.424Zm3.724-3.728L5.1 16.26l.07-1.178.01-.01 3.414-3.776.755.31-.155.952-.269 1.655-.706-.706a.258.258 0 0 0-.366 0Zm4.151 3.78-.56-.56-.185-2.722 2.047 1.262.185.538-1.487 1.483Zm3.923-3.811a.28.28 0 0 0-.186.07L13.888 15.4l-.269-.798 1.646-2.92 1.853-.954-.37 3.446-.632-.631a.31.31 0 0 0-.19-.066Zm3.935 3.83-.499-.5-.101-.952 1.314-2.444 1.006 2.175-1.72 1.72Z" fill="url(#b)"/></g><defs><linearGradient id="b" x1="0" y1="11.839" x2="24" y2="11.839" gradientUnits="userSpaceOnUse"><stop stop-color="#C51F5D"/><stop offset="1" stop-color="#2F2361"/></linearGradient><clipPath id="a"><path fill="#fff" d="M0 0h24v24H0z"/></clipPath></defs></svg>