<svg width="24" height="24" fill="none" xmlns="http://www.w3.org/2000/svg"><path d="m9.783 23.898 3.112-3.498c.06-.061.02-.142-.061-.142H9.396c-.02 0-.06-.02-.06-.041l-2.91-3.254c-.02-.041-.04-.061-.02-.102l4.882-8.36c.02-.04.02-.06 0-.08L9.274 4.941a.095.095 0 0 0-.162 0l-7.22 12.366c-.021.041-.021.061 0 .102l5.796 6.509c.02.02.04.04.06.04h1.974c0-.02.04-.04.06-.06Z" fill="#003265"/><path d="M11.918.102 9.884 3.58c-.02.04-.02.06 0 .08L12 7.26l5.573 9.58c.02.041.02.061-.02.102l-2.95 3.295-3.132 3.54c-.061.06-.02.142.06.142h4.7c.02 0 .06-.02.06-.041l5.797-6.509c.02-.04.04-.06.02-.101L12.061.102c-.02-.082-.102-.082-.143 0Z" fill="#003265"/></svg>