<svg width="24" height="24" fill="none" xmlns="http://www.w3.org/2000/svg"><path d="M3.792 6.542V9.25a.542.542 0 0 1-.542.542H.542A.542.542 0 0 1 0 9.25V6.542A.542.542 0 0 1 .542 6H3.25a.542.542 0 0 1 .542.542Zm3.765 3.632H4.85a.543.543 0 0 0-.543.542v6.514a.542.542 0 0 0 .543.543h2.707a.542.542 0 0 0 .542-.543v-6.514a.542.542 0 0 0-.542-.542Zm8.065 0h-2.043a1.454 1.454 0 0 1-1.455-1.455V6.542A.543.543 0 0 0 11.582 6H8.874a.542.542 0 0 0-.542.542V9.25a.542.542 0 0 0 .542.542h.993c.055-.008.11-.012.164-.012h.886a1.454 1.454 0 0 1 1.455 1.455v5.992a.54.54 0 0 0 .543.542h2.707a.544.544 0 0 0 .542-.542v-6.511a.544.544 0 0 0-.542-.542Zm7.84 0h-2.043a1.454 1.454 0 0 1-1.455-1.455V6.542A.543.543 0 0 0 19.42 6h-2.71a.542.542 0 0 0-.543.542V9.25a.54.54 0 0 0 .542.542h.993c.055-.008.11-.012.164-.012h.886a1.455 1.455 0 0 1 1.455 1.455v5.992a.541.541 0 0 0 .542.542h2.708a.544.544 0 0 0 .542-.542v-6.511a.532.532 0 0 0-.538-.542Z" fill="#231F20"/></svg>