<svg width="24" height="24" fill="none" xmlns="http://www.w3.org/2000/svg"><g clip-path="url(#a)"><path fill-rule="evenodd" clip-rule="evenodd" d="M12 0a12 12 0 1 1 0 24 12 12 0 0 1 0-24Z" fill="#1E9ADA"/><path d="M9.321 6.702C6.345 11.267 4.517 17.607 3.804 19.76 3.403 15.695 5.52 10.162 7.07 6.891c-.713.033-4.515.301-6.62 2.478 0 0 1.136-3.494 7.702-4.555l.022-.045c5.139-7.511 8.995-3.024 8.995-3.024-2.341-.391-4.38.78-6.12 2.69.848-.034 6.332-.1 7.911 4.24 0 0-3.177-2.276-9.642-1.977l.003.004Zm3.713 5.234a2.389 2.389 0 1 0-.007 4.777 2.389 2.389 0 0 0 .007-4.777Z" fill="#FEFEFE"/></g><defs><clipPath id="a"><path fill="#fff" d="M0 0h24v24H0z"/></clipPath></defs></svg>