<svg width="24" height="24" fill="none" xmlns="http://www.w3.org/2000/svg"><path d="M12 24c6.627 0 12-5.373 12-12S18.627 0 12 0 0 5.373 0 12s5.373 12 12 12Z" fill="#5B6DEE"/><path d="M9.975 11.266a6.853 6.853 0 0 0-1.248.107c.34-3.135 2.952-5.51 6.063-5.51 1.905 0 3.21.933 3.21 2.864 0 1.931-1.567 2.864-3.852 2.864-1.687 0-2.486-.325-4.173-.325Zm-.123 1.143C7.567 12.41 6 13.342 6 15.273c0 1.93 1.305 2.864 3.21 2.864 3.111 0 5.724-2.374 6.063-5.51-.412.074-.83.11-1.248.108-1.687 0-2.486-.326-4.173-.326Z" fill="#fff"/></svg>