<svg width="18" height="18" fill="none" xmlns="http://www.w3.org/2000/svg"><path d="M17.952 9c0 4.92-4.008 8.952-8.952 8.952A8.952 8.952 0 0 1 .048 9c0-.24.192-.456.456-.456S.96 8.736.96 9a8.04 8.04 0 0 0 16.08 0 8.025 8.025 0 0 0-2.232-5.568.457.457 0 0 1 .024-.648c.192-.168.48-.168.648.024A8.935 8.935 0 0 1 17.952 9ZM3.912 9c0-.24.192-.456.456-.456h3.264c0-.024 0-.024.024-.048 0-.024.024-.072.048-.096a1.17 1.17 0 0 0 .072-.168c.024-.024.048-.072.072-.096.048-.048.072-.096.12-.144.024-.024.024-.024.024-.048a1.494 1.494 0 0 1 1.032-.432h.144c.024 0 .048 0 .096.024h.048c.024 0 .072.024.096.024h.048c.024 0 .072.024.096.024 0 0 .024 0 .024.024.024.024.072.024.096.048L12.528 4.8c.168-.168.456-.168.648 0 .168.168.168.456 0 .648L10.32 8.304c.096.192.168.432.168.648a1.47 1.47 0 0 1-1.464 1.464c-.096 0-.192 0-.264-.024h-.024c-.072-.024-.168-.048-.24-.072-.024 0-.024 0-.048-.024-.072-.024-.144-.072-.192-.096-.024-.024-.048-.024-.072-.048-.048-.048-.12-.072-.168-.12-.024 0-.024-.024-.048-.024-.024-.024-.024-.024-.024-.048-.048-.048-.072-.096-.12-.144-.024-.024-.048-.072-.072-.096a1.17 1.17 0 0 1-.072-.168c-.024-.024-.024-.072-.048-.096 0-.024 0-.024-.024-.048H4.344c-.24.048-.432-.168-.432-.408ZM9 8.448A.543.543 0 0 0 8.448 9c0 .288.24.552.528.552a.478.478 0 0 0 .384-.168A.566.566 0 0 0 9.528 9a.478.478 0 0 0-.168-.384.547.547 0 0 0-.288-.144h-.048c0-.024 0-.024-.024-.024ZM8.496.984h.024a.491.491 0 0 0 .432-.48.491.491 0 0 0-.48-.432.491.491 0 0 0-.432.48c.024.24.216.432.456.432Zm-1.8.288c.048 0 .072 0 .12-.024a.445.445 0 0 0 .312-.552.445.445 0 0 0-.552-.312.445.445 0 0 0-.312.552c.048.216.24.336.432.336Zm5.232.24c.048.024.12.024.168.024.192 0 .36-.12.432-.288a.46.46 0 0 0-.264-.6.427.427 0 0 0-.576.264c-.096.24 0 .504.24.6Zm1.536.792a.483.483 0 0 0 .264.072.501.501 0 0 0 .384-.192c.144-.216.072-.48-.12-.624-.216-.144-.48-.072-.624.12-.168.216-.12.504.096.624Zm-3.216-1.248h.072a.484.484 0 0 0 .456-.384c.048-.24-.12-.48-.384-.528-.24-.048-.48.12-.528.384a.48.48 0 0 0 .384.528ZM.6 7.608h.096c.216 0 .408-.144.432-.36a.442.442 0 1 0-.864-.192c-.048.264.096.504.336.552Zm.504-1.752c.072.024.12.048.192.048a.444.444 0 0 0 .408-.264c.096-.216 0-.504-.216-.6-.216-.096-.504 0-.6.216-.12.216-.024.48.216.6ZM3.48 3a.443.443 0 0 0 .288-.12.458.458 0 0 0 .048-.648.458.458 0 0 0-.648-.048.458.458 0 0 0-.048.648c.12.096.24.168.36.168ZM1.968 4.224a.36.36 0 0 0 .264.096.51.51 0 0 0 .36-.168.465.465 0 0 0-.096-.648.434.434 0 0 0-.624.096.434.434 0 0 0 .096.624Zm3.024-2.256c.072 0 .144-.024.216-.048a.465.465 0 0 0 .192-.624.465.465 0 0 0-.624-.192.465.465 0 0 0-.192.624.53.53 0 0 0 .408.24Z" fill="#95A7AE"/></svg>