<svg width="24" height="24" viewBox="0 0 24 24" fill="none" xmlns="http://www.w3.org/2000/svg">
<path d="M8.82163 8.89302C8.46291 8.79281 6.85271 8.40093 6.51396 8.31446C6.15195 8.22139 5.58584 8.16038 5.34218 8.7122C5.09833 9.2642 4.4027 10.8896 4.18047 11.4519C3.95824 12.0141 4.29864 12.2255 4.62841 12.3116C4.95818 12.3976 6.65723 12.8041 7.05167 12.89C7.44575 12.976 7.82755 12.9433 8.07122 12.3985C8.31506 11.8538 9.02224 10.2182 9.21589 9.6874C9.40935 9.15721 9.17961 8.99342 8.82163 8.89302Z" fill="#1767A0"/>
<path d="M11.9956 0C5.3705 0 0 5.3705 0 11.996C0 18.6214 5.3705 23.9919 11.9956 23.9919C18.6205 23.9919 23.9916 18.6214 23.9916 11.996C23.9916 5.3705 18.6205 0 11.9956 0ZM7.78754 15.4223C6.98382 15.247 2.48354 14.0634 1.81154 13.8879C1.13936 13.713 0.423389 13.1122 0.876458 11.9659C1.32934 10.8198 2.64421 7.67835 3.14107 6.55347C3.63792 5.42821 5.58815 5.73582 6.32629 5.92525C7.01643 6.10205 10.505 6.94809 11.2355 7.15255C11.9661 7.35719 12.9596 7.97056 12.5652 9.05185C12.1707 10.1335 10.8266 13.2747 10.3297 14.385C9.83304 15.4954 8.59127 15.5978 7.78754 15.4223ZM21.0727 14.9146C20.777 15.7037 19.6703 18.3554 19.6703 18.3554L16.8537 17.6541C16.8537 17.6541 17.7743 15.4844 17.862 15.2103C17.9498 14.9364 18.0262 14.5858 17.6101 14.4654C17.1937 14.3449 14.7169 13.6983 14.7169 13.6983L13.4239 16.8214L10.5527 16.0762L14.0264 7.81356L16.8757 8.53667L15.1114 12.6242L20.2179 9.35853L23.6151 10.2187L19.6153 12.624C19.6153 12.624 20.7113 13.0514 20.9742 13.4459C21.2373 13.8407 21.3688 14.1256 21.0727 14.9146Z" fill="#1767A0"/>
</svg>
