<svg width="24" height="24" fill="none" xmlns="http://www.w3.org/2000/svg"><path d="M9.607 21.669C4.266 20.345 1.008 14.942 2.332 9.6a9.964 9.964 0 0 1 7.275-7.275V.242C3.115 1.562-1.077 7.895.243 14.388a11.995 11.995 0 0 0 9.364 9.364V21.67Zm1.62-19.603c.26-.02.52-.034.781-.034.393 0 .786.023 1.177.07V.058A12.343 12.343 0 0 0 12.008 0c-.265 0-.522.012-.78.028v2.038Z" fill="#231F20"/><path d="M14.804.331V2.43a9.996 9.996 0 0 1 6.413 5.753h-2.283a7.904 7.904 0 1 0 .382 6.832h2.192a9.99 9.99 0 0 1-6.703 6.55v2.097c6.44-1.55 10.405-8.029 8.855-14.47A11.997 11.997 0 0 0 14.805.337l-.001-.006Zm-.933 16.803-2.312-3.283H7.71v-2.017h4.519c1.104 0 1.5-.691 1.5-1.515 0-.823-.5-1.575-1.619-1.575H7.712V6.86h4.63c1.466 0 3.797.648 3.797 3.385 0 2.738-2.06 3.283-2.06 3.283l2.65 3.607h-2.85l-.008-.002Z" fill="#D31F26"/><path d="M13.185 21.893a9.756 9.756 0 0 1-1.958.035v2.036a11.769 11.769 0 0 0 1.958-.031v-2.04Z" fill="#231F20"/></svg>