<svg width="24" height="24" fill="none" xmlns="http://www.w3.org/2000/svg"><path d="M9.474 21.474a6.947 6.947 0 0 0 6.947-6.948A6.947 6.947 0 0 0 9.474 7.58a6.947 6.947 0 0 0-6.948 6.947 6.947 6.947 0 0 0 6.948 6.948Zm0 2.526a9.474 9.474 0 1 1 0-18.948 9.474 9.474 0 0 1 0 18.948Z" fill="#FBCC5C"/><path d="M14.526 16.421a6.947 6.947 0 0 0 6.948-6.947 6.947 6.947 0 0 0-6.948-6.948A6.947 6.947 0 0 0 7.58 9.474a6.947 6.947 0 0 0 6.947 6.947Zm0 2.526a9.474 9.474 0 1 1 0-18.947 9.474 9.474 0 0 1 0 18.947Z" fill="#35D07F"/><path d="M14.84 18.948a6.917 6.917 0 0 0 1.377-2.732c1-.25 1.932-.72 2.73-1.376a9.404 9.404 0 0 1-.737 3.372 9.43 9.43 0 0 1-3.37.736ZM7.784 7.784c-1 .25-1.933.72-2.731 1.377a9.379 9.379 0 0 1 .737-3.37 9.499 9.499 0 0 1 3.37-.738 6.916 6.916 0 0 0-1.376 2.73Z" fill="#5EA33B"/></svg>