<svg width="24" height="24" fill="none" xmlns="http://www.w3.org/2000/svg"><g clip-path="url(#a)"><path d="M18.864 10.56c0-2.976-2.424-5.4-5.4-5.4a5.388 5.388 0 0 0-4.992 3.336 5.411 5.411 0 0 0-3.288 4.968c0 2.976 2.424 5.4 5.4 5.4a5.388 5.388 0 0 0 4.992-3.336c1.896-.816 3.288-2.736 3.288-4.968Zm-8.28 6.96a4.066 4.066 0 0 1-4.056-4.056c0-1.272.6-2.424 1.536-3.168v.264c0 2.976 2.424 5.4 5.4 5.4h.336a4.097 4.097 0 0 1-3.216 1.56Zm3.936-3.048a3.867 3.867 0 0 1-1.056.144 4.066 4.066 0 0 1-4.056-4.056c0-.36.048-.696.144-1.008a3.868 3.868 0 0 1 1.056-.144 4.066 4.066 0 0 1 4.056 4.056c-.024.36-.072.696-.144 1.008Zm1.464-.744v-.264c0-2.976-2.424-5.4-5.4-5.4h-.336a4.014 4.014 0 0 1 3.192-1.56 4.066 4.066 0 0 1 4.056 4.056 4.07 4.07 0 0 1-1.512 3.168Z" fill="#fff"/><path d="M12 24c6.628 0 12-5.372 12-12 0-6.627-5.372-12-12-12C5.373 0 0 5.373 0 12c0 6.628 5.373 12 12 12Z" fill="#47CC85"/><path d="M11.658 18.7c2.42 0 4.471-1.557 5.237-3.707h-1.507a4.138 4.138 0 0 1-3.73 2.323 4.186 4.186 0 0 1-4.176-4.176c0-1.63.939-3.063 2.323-3.73V7.903c-2.15.766-3.706 2.816-3.706 5.237a5.567 5.567 0 0 0 5.559 5.56Zm2.272-5.09h1.285v-.297l-.099-.642c1.384-.148 2.248-.914 2.248-2.026 0-2.619-4.447-1.556-4.447-2.89 0-.47.544-.766 1.483-.766.741 0 1.532.197 2.273.519V6.223a7.239 7.239 0 0 0-1.68-.272l.099-.642v-.297h-1.285v.297l.099.642c-1.458.148-2.323.84-2.323 1.853 0 2.718 4.447 1.482 4.447 2.94 0 .494-.593.815-1.457.815-.89 0-1.804-.271-2.915-.79v1.334c.74.346 1.531.519 2.371.568l-.099.642v.297Z" fill="#fff"/></g><defs><clipPath id="a"><path fill="#fff" d="M0 0h24v24H0z"/></clipPath></defs></svg>