<svg width="24" height="24" fill="none" xmlns="http://www.w3.org/2000/svg"><path d="M.488 15.75c.168-.263.318-.488.487-.75l.281.169c3.525 2.268 7.07 4.537 10.594 6.825.207.13.338.15.544 0 3.356-2.175 6.731-4.332 10.106-6.488.394-.244.6-.562.581-1.031-.018-.469 0-.938 0-1.481-.13.075-.243.13-.337.187-3.375 2.156-6.75 4.294-10.125 6.45-.412.263-.769.281-1.181.019-3.432-2.194-6.863-4.388-10.313-6.544C.375 12.637 0 12.02.038 11.12c.037-.657 0-1.313 0-1.97 0-.3.112-.524.375-.693C4.125 6 7.875 3.562 11.607 1.125c.15-.094.3-.225.468-.244.207-.019.45.019.6.131C16.313 3.32 19.95 5.625 23.588 7.95c.562.356.525.956-.056 1.312L15.15 14.55c-.825.525-1.65 1.012-2.456 1.556-.394.263-.731.263-1.144 0-3.412-2.156-6.862-4.312-10.294-6.469-.093-.056-.187-.112-.318-.187 0 .712-.019 1.387 0 2.062.018.338.262.563.543.732l8.157 5.175c.712.45 1.406.88 2.1 1.35.168.112.3.112.487 0 3.45-2.213 6.919-4.425 10.388-6.62.093-.055.187-.13.281-.168.506-.244 1.05.056 1.069.619.018.731.018 1.462 0 2.194-.019.637-.357 1.087-.9 1.425-2.288 1.462-4.575 2.925-6.863 4.406-1.2.769-2.418 1.537-3.618 2.325-.338.225-.638.225-.976 0C7.97 20.587 4.295 18.225.639 15.862c-.057-.018-.094-.056-.15-.112Zm1.125-7.013c.075.075.15.113.206.17 3.375 2.118 6.75 4.237 10.106 6.355.169.113.281.075.431-.018a3073.08 3073.08 0 0 1 10.238-6.45c.075-.057.169-.113.262-.188-.075-.056-.112-.094-.168-.131-3.413-2.175-6.825-4.35-10.256-6.525-.188-.131-.32-.056-.47.037-2.324 1.52-4.668 3.057-6.993 4.575-1.125.713-2.231 1.444-3.356 2.175Z" fill="#2A8AC7"/></svg>