<svg width="24" height="24" fill="none" xmlns="http://www.w3.org/2000/svg"><path d="M12 24c6.627 0 12-5.373 12-12S18.627 0 12 0 0 5.373 0 12s5.373 12 12 12Z" fill="#105B2F"/><path d="M7.383 8.158c.242-1.294.504-2.583.756-3.876 1.294-.007 2.588-.01 3.883-.01 1.19-.002 2.382-.007 3.57.086.7.055 1.402.135 2.085.302.708.17 1.38.546 1.847 1.108.425.516.625 1.18.682 1.837.05.355.062.717.008 1.071-.081 1.064-.432 2.116-1.07 2.976-.524.719-1.257 1.266-2.057 1.644-.883.414-1.847.626-2.814.714-.733.068-1.47.05-2.206.052-1.035-.001-2.07.003-3.105-.006-.376 1.868-.719 3.743-1.078 5.615-.904-.005-1.809-.01-2.713-.013.61-3.215 1.248-6.425 1.885-9.635-.538-.002-1.075.002-1.612.002.124-.619.235-1.24.351-1.86.53-.005 1.06 0 1.588-.007Zm2.965-1.222c-.075.408-.158.814-.236 1.222 1.287.002 2.575 0 3.863.003-.12.62-.239 1.239-.349 1.86-1.293.004-2.585 0-3.878.001-.086.476-.194.947-.267 1.424 1.5 0 3 .002 4.502 0 .818-.012 1.682-.175 2.33-.708.554-.458 1.013-1.101 1.063-1.838.015-.318-.012-.646-.132-.944-.176-.43-.587-.733-1.032-.84-.701-.163-1.426-.165-2.141-.187-1.242.006-2.483-.008-3.723.007Z" fill="#FEFEFE"/></svg>