<svg width="24" height="24" viewBox="0 0 24 24" fill="none" xmlns="http://www.w3.org/2000/svg">
<path d="M14.0855 13.8689C13.9675 13.6919 13.7707 13.5542 13.515 13.3968C13.2593 13.2591 12.9248 13.1017 12.5117 12.9443V16.8788C13.7511 16.7214 14.3806 16.0919 14.3806 14.9509C14.3806 14.6952 14.3609 14.4984 14.3216 14.3411C14.2822 14.1837 14.2232 14.046 14.0855 13.8689Z" fill="#0B223D"/>
<path d="M12 0C5.37049 0 0 5.37049 0 12C0 18.6295 5.37049 24 12 24C18.6295 24 24 18.6295 24 12C24 5.37049 18.6295 0 12 0ZM16.6426 16.7607C16.4066 17.2721 16.0721 17.6852 15.6393 17.9803C15.2066 18.2951 14.7344 18.5311 14.2229 18.6885C13.7115 18.8656 13.141 18.9639 12.5115 19.0033V20.9311H11.5475V19.023C10.6426 18.9836 9.79672 18.8262 8.99016 18.5508C8.18361 18.2754 7.53443 17.9016 7.06229 17.4295L8.10492 15.659C8.51803 15.9934 9.06885 16.2689 9.71803 16.5049C10.3672 16.741 10.977 16.8787 11.5475 16.918V12.6295C11.4689 12.6098 11.3311 12.5705 11.1738 12.5115C11.0164 12.4525 10.859 12.4131 10.741 12.3738C10.6033 12.3344 10.4852 12.2951 10.3869 12.2557C9.22623 11.823 8.38033 11.2918 7.84918 10.7016C7.31803 10.1115 7.06229 9.28525 7.06229 8.2623C7.06229 7.08197 7.47541 6.17705 8.30164 5.5082C9.12787 4.83934 10.2098 4.48525 11.5475 4.42623V3.02951H12.5115V4.42623C13.5738 4.46557 14.4197 4.60328 15.0492 4.83934C15.6787 5.09508 16.2689 5.48852 16.859 6.03934L15.6 7.67213C14.8328 6.94426 13.8098 6.57049 12.5115 6.53115V10.4656C13.259 10.7213 13.7311 10.8787 13.9279 10.9377C15.0885 11.3902 15.8754 11.9213 16.3279 12.5115C16.7803 13.1016 17.0164 13.9279 17.0164 14.9902C17.0164 15.6787 16.8984 16.2689 16.6426 16.7607Z" fill="#0B223D"/>
<path d="M9.69824 8.1641C9.69824 8.67558 9.81628 9.04935 10.0523 9.32476C10.2884 9.60017 10.7802 9.87558 11.5671 10.151V6.59033C10.9966 6.66902 10.5441 6.84607 10.2097 7.10181C9.85562 7.35755 9.69824 7.71164 9.69824 8.1641Z" fill="#0B223D"/>
</svg>
