<svg width="24" height="24" viewBox="0 0 24 24" fill="none" xmlns="http://www.w3.org/2000/svg">
<path d="M12 24C18.6274 24 24 18.6274 24 12C24 5.37258 18.6274 0 12 0C5.37258 0 0 5.37258 0 12C0 18.6274 5.37258 24 12 24Z" fill="#2FD2E5"/>
<path d="M12.4273 3.00533C10.4007 2.93493 8.41159 3.56329 6.79326 4.78508C6.63635 4.90301 6.50764 5.05436 6.41643 5.22817C6.32522 5.40197 6.27381 5.59389 6.26592 5.79001C6.25802 5.98614 6.29384 6.18156 6.37077 6.36214C6.44771 6.54271 6.56384 6.70392 6.71076 6.83408C7.17726 7.27508 7.89576 7.30958 8.40276 6.91583C9.64422 5.94968 11.2027 5.48382 12.7707 5.61016C14.3387 5.73651 15.8025 6.44587 16.8733 7.59833C17.3158 8.05583 17.3293 8.77658 16.9048 9.25058C16.7981 9.36502 16.6699 9.45731 16.5275 9.52218C16.3851 9.58706 16.2314 9.62324 16.075 9.62868C15.9186 9.63411 15.7627 9.60868 15.6162 9.55384C15.4697 9.49901 15.3354 9.41584 15.221 9.30908L15.1633 9.25058C14.6293 8.66509 13.9308 8.25475 13.1595 8.07344C12.3881 7.89212 11.5799 7.94831 10.8411 8.23462C10.1022 8.52093 9.46721 9.02397 9.01943 9.67771C8.57165 10.3315 8.33203 11.1053 8.33203 11.8977C8.33203 12.6901 8.57165 13.464 9.01943 14.1177C9.46721 14.7714 10.1022 15.2745 10.8411 15.5608C11.5799 15.8471 12.3881 15.9033 13.1595 15.722C13.9308 15.5407 14.6293 15.1303 15.1633 14.5448C15.3343 14.3534 15.5637 14.2238 15.8159 14.1759C16.0681 14.128 16.329 14.1646 16.5583 14.2801C16.7214 14.3619 16.8633 14.4803 16.9731 14.6261C17.0829 14.7718 17.1574 14.941 17.191 15.1204C17.2245 15.2998 17.2162 15.4844 17.1665 15.66C17.1169 15.8356 17.0273 15.9974 16.9048 16.1326C15.8384 17.2999 14.3727 18.0244 12.7978 18.1627C11.2228 18.301 9.65326 17.8431 8.39976 16.8796C8.15171 16.6906 7.84492 16.5953 7.53346 16.6104C7.222 16.6255 6.92586 16.75 6.69726 16.9621C6.55131 17.0958 6.43682 17.2602 6.36202 17.4435C6.28722 17.6268 6.25396 17.8243 6.26465 18.022C6.27533 18.2197 6.3297 18.4125 6.42382 18.5866C6.51795 18.7608 6.6495 18.9119 6.80901 19.0291C7.92776 19.8588 9.22582 20.4139 10.5985 20.6498C11.9712 20.8857 13.3802 20.7957 14.7117 20.3871C16.0432 19.9785 17.2601 19.2627 18.2642 18.2975C19.2684 17.3322 20.0316 16.1445 20.4924 14.8301C20.9532 13.5157 21.0987 12.1115 20.9171 10.7305C20.7356 9.34957 20.2321 8.03062 19.4472 6.88001C18.6623 5.72941 17.618 4.77935 16.3985 4.10644C15.179 3.43354 13.8184 3.05662 12.4265 3.00608L12.4273 3.00533ZM12.2623 14.0963C11.9734 14.0953 11.6875 14.0373 11.4211 13.9257C11.1546 13.8142 10.9127 13.6512 10.7092 13.4462C10.5057 13.2412 10.3446 12.9981 10.235 12.7308C10.1255 12.4635 10.0697 12.1772 10.0708 11.8883C10.0718 11.5995 10.1298 11.3136 10.2414 11.0472C10.3529 10.7807 10.5159 10.5388 10.7209 10.3353C10.9259 10.1318 11.169 9.97067 11.4363 9.86112C11.7036 9.75158 11.9899 9.69575 12.2788 9.69683C12.8622 9.69892 13.4209 9.93268 13.8319 10.3467C14.243 10.7607 14.4727 11.321 14.4706 11.9045C14.4685 12.4879 14.2348 13.0466 13.8208 13.4576C13.4068 13.8687 12.8464 14.0984 12.263 14.0963H12.2623Z" fill="white"/>
</svg>
