<svg width="20" height="17" fill="none" xmlns="http://www.w3.org/2000/svg"><path d="m9.986 7.703 6.679-6.375a1.213 1.213 0 0 1 1.664 0l1.11 1.06c.462.44.462 1.153 0 1.589L14.71 8.5l4.734 4.519c.462.44.462 1.153 0 1.589l-1.11 1.064c-.461.44-1.208.44-1.664 0L9.99 9.297a1.086 1.086 0 0 1-.005-1.594ZM.558 9.297l6.678 6.375c.462.44 1.208.44 1.665 0l1.11-1.06a1.085 1.085 0 0 0 0-1.589L5.28 8.5l4.734-4.519a1.085 1.085 0 0 0 0-1.589l-1.11-1.064a1.213 1.213 0 0 0-1.664 0L.562 7.703a1.086 1.086 0 0 0-.004 1.594Z" fill="#00FFD1"/></svg>