<svg width="24" height="24" viewBox="0 0 24 24" fill="none" xmlns="http://www.w3.org/2000/svg">
<path d="M12 24C5.4 24 0 18.6 0 12C0 5.4 5.4 0 12 0C18.6 0 24 5.4 24 12C24 18.6 18.6 24 12 24Z" fill="#002868"/>
<path d="M18.0478 19.1998H5.9518C5.3182 19.1998 4.7998 18.6814 4.7998 18.0478V5.9518C4.7998 5.3182 5.3182 4.7998 5.9518 4.7998H18.0478C18.6814 4.7998 19.1998 5.3182 19.1998 5.9518V18.0478C19.1998 18.6814 18.6814 19.1998 18.0478 19.1998Z" fill="white"/>
<path d="M7.6096 17.7506C7.57168 17.7506 7.54096 17.7161 7.54096 17.6782V15.7433C7.54096 15.7054 7.51024 15.6708 7.47232 15.6708H6.78928C6.75088 15.6708 6.7168 15.6401 6.7168 15.6022V15.2282C6.7168 15.1903 6.75136 15.1558 6.78928 15.1558H8.89168C8.9296 15.1558 8.96416 15.1898 8.96416 15.2282V15.6022C8.96416 15.6401 8.9296 15.6708 8.89168 15.6708H8.21248C8.17456 15.6708 8.14 15.7049 8.14 15.7433V17.6782C8.14 17.7161 8.10928 17.7506 8.07136 17.7506H7.6096Z" fill="#002868"/>
<path d="M11.0628 15.2282C11.0628 15.1903 11.0935 15.1558 11.1314 15.1558H11.5893C11.6272 15.1558 11.6618 15.1898 11.6618 15.2282V16.5487C11.6618 17.3311 11.2192 17.7852 10.517 17.7852C9.8186 17.7852 9.37988 17.3311 9.37988 16.5487V15.2282C9.37988 15.1903 9.4106 15.1558 9.44852 15.1558H9.90644C9.94436 15.1558 9.97892 15.1898 9.97892 15.2282V16.5674C9.97892 16.9529 10.1772 17.2274 10.5208 17.2274C10.8645 17.2274 11.0628 16.9529 11.0628 16.5674V15.2282Z" fill="#002868"/>
<path d="M13.7643 16.0029C13.7034 16.0029 13.6842 15.9799 13.6611 15.9343C13.581 15.7471 13.4053 15.629 13.1384 15.629C12.8979 15.629 12.6958 15.713 12.6958 15.8733C12.6958 16.049 12.883 16.1215 13.2949 16.1709C13.9208 16.2434 14.2794 16.4344 14.2794 16.9303C14.2794 17.4876 13.7907 17.7813 13.1653 17.7813C12.6234 17.7813 12.1578 17.5178 12.0853 16.9648C12.0776 16.9116 12.1045 16.8924 12.1578 16.8924H12.5778C12.631 16.8924 12.6618 16.9154 12.6771 16.9572C12.7342 17.1405 12.9291 17.2816 13.2114 17.2816C13.4595 17.2816 13.677 17.19 13.677 16.9956C13.677 16.7628 13.448 16.721 12.9901 16.6634C12.4635 16.5948 12.0973 16.4421 12.0973 15.9573C12.0973 15.4725 12.5134 15.1255 13.1658 15.1255C13.7533 15.1255 14.1618 15.4423 14.2458 15.9156C14.2573 15.9688 14.2419 16.0034 14.1848 16.0034H13.7643V16.0029Z" fill="#002868"/>
<path d="M14.7981 17.7506C14.7602 17.7506 14.7295 17.7161 14.7295 17.6782V15.2282C14.7295 15.1903 14.7602 15.1558 14.7981 15.1558H15.8359C16.6068 15.1558 17.2058 15.6862 17.2058 16.4609C17.2058 17.2241 16.6145 17.7506 15.8359 17.7506H14.7981ZM15.8359 17.2351C16.2521 17.2351 16.5761 16.9068 16.5761 16.4527C16.5761 15.9986 16.2516 15.6703 15.8321 15.6703H15.401C15.3631 15.6703 15.3324 15.7044 15.3324 15.7428V17.166C15.3324 17.2039 15.3631 17.2346 15.401 17.2346H15.8359V17.2351Z" fill="#002868"/>
<path d="M18.8162 13.7282H5.18419C5.07859 13.7282 4.99219 13.6418 4.99219 13.5362V5.95219C4.99219 5.42419 5.42419 4.99219 5.95219 4.99219H18.0482C18.5762 4.99219 19.0082 5.42419 19.0082 5.95219V13.5362C19.0082 13.6418 18.9218 13.7282 18.8162 13.7282Z" fill="#002868"/>
<path d="M12.7074 12.171H11.4594C11.3802 12.171 11.3154 12.1062 11.3154 12.027V6.74703C11.3154 6.66783 11.3802 6.60303 11.4594 6.60303H12.7074C12.7866 6.60303 12.8514 6.66783 12.8514 6.74703V12.027C12.8514 12.1062 12.7866 12.171 12.7074 12.171Z" fill="white"/>
<path d="M14.8324 8.13903H9.16841C9.08921 8.13903 9.02441 8.07423 9.02441 7.99503V6.74703C9.02441 6.66783 9.08921 6.60303 9.16841 6.60303H14.8324C14.9116 6.60303 14.9764 6.66783 14.9764 6.74703V7.99503C14.9764 8.07423 14.9116 8.13903 14.8324 8.13903Z" fill="white"/>
</svg>
