<svg width="24" height="24" viewBox="0 0 24 24" fill="none" xmlns="http://www.w3.org/2000/svg">
<g clip-path="url(#clip0)">
<path d="M17.9796 17.9525L11.952 23.9801L8.96201 20.9901C12.1863 20.7995 15.2994 19.7512 17.9796 17.9525ZM23.6935 11.7621L22.955 11.0275L11.952 0.0205078L0.945042 11.0275L0 11.9725L0.341486 12.2663C0.72665 12.588 1.12373 12.8937 1.53272 13.1796C5.88467 16.2451 11.2809 17.1702 16.2642 15.9512C18.2973 15.4588 20.2271 14.6131 21.9702 13.4536C22.403 13.1677 22.824 12.858 23.2369 12.5324C23.4632 12.3497 23.6856 12.1631 23.904 11.9725L23.6935 11.7621ZM14.8546 14.5297C11.5708 12.5125 7.79064 11.4523 3.939 11.4682C8.95804 9.28033 15.1167 8.98252 20.7631 12.2306C18.9644 13.3742 16.9552 14.1564 14.8546 14.5297Z" fill="#2B71FF"/>
</g>
<defs>
<clipPath id="clip0">
<rect width="24" height="24" fill="white"/>
</clipPath>
</defs>
</svg>
