<svg width="24" height="24" viewBox="0 0 24 24" fill="none" xmlns="http://www.w3.org/2000/svg">
<path d="M9.60724 21.6689C4.26558 20.345 1.00835 14.9417 2.33228 9.6C3.22095 6.0139 6.02115 3.2137 9.60724 2.32504V0.241814C3.11455 1.56212 -1.07729 7.89521 0.243012 14.3879C1.20301 19.1057 4.88946 22.7934 9.60724 23.7521V21.6689ZM11.2274 2.0663C11.4861 2.04574 11.7461 2.03244 12.0085 2.03244C12.4014 2.03244 12.7943 2.05542 13.1849 2.10136V0.0592443C12.7931 0.0205542 12.4014 0.00120907 12.0085 0C11.7425 0 11.4861 0.0120907 11.2274 0.0278086V2.0663Z" fill="#231F20"/>
<path d="M14.804 0.331055V2.43C17.7009 3.28118 20.0574 5.39463 21.2169 8.18274H18.9342C16.828 4.35967 12.0219 2.96682 8.19764 5.07302C4.37336 7.17922 2.98172 11.9853 5.08792 15.8095C7.19411 19.6338 12.0002 21.0255 15.8244 18.9193C17.3986 18.0524 18.6295 16.6752 19.3162 15.0152H21.5083C20.4999 18.1757 17.9887 20.6301 14.8052 21.5647V23.6624C21.2459 22.1112 25.2104 15.633 23.6604 9.19232C22.6061 4.81186 19.1856 1.39262 14.8052 0.3371L14.804 0.331055ZM13.8706 17.1335L11.5588 13.8509H7.71039V11.8341H12.2287C13.3326 11.8341 13.7291 11.1425 13.7291 10.3192C13.7291 9.49579 13.2298 8.74375 12.1102 8.74375H7.71159V6.86002H12.3411C13.8077 6.86002 16.1388 7.50808 16.1388 10.2454C16.1388 12.9827 14.0785 13.528 14.0785 13.528L16.7288 17.1347H13.8791L13.8706 17.1335Z" fill="#D31F26"/>
<path d="M13.185 21.8926C12.7945 21.9385 12.4015 21.9615 12.0086 21.9615C11.7426 21.9615 11.4863 21.9482 11.2275 21.9276V23.9637C11.4863 23.9806 11.7462 23.9915 12.0086 23.9915C12.4088 23.9915 12.7981 23.971 13.185 23.9323V21.8926Z" fill="#231F20"/>
</svg>
