<svg width="24" height="24" viewBox="0 0 24 24" fill="none" xmlns="http://www.w3.org/2000/svg">
<path d="M12 24C18.6274 24 24 18.6274 24 12C24 5.37258 18.6274 0 12 0C5.37258 0 0 5.37258 0 12C0 18.6274 5.37258 24 12 24Z" fill="#000D2B"/>
<path d="M11.9404 4.40967L8.55163 6.39531L11.9404 8.38095L15.3928 6.39531L11.9404 4.40967ZM12.4977 15.0106V18.9818L17.1004 16.356V12.384L12.4977 15.0106ZM15.9496 7.64403V11.616L12.4972 13.6017V9.62967L15.9496 7.64403ZM7.63867 11.616L11.0911 13.6017V9.62967L7.63867 7.64403V11.616ZM7.63867 16.9962L11.0911 18.9819V15.0106L7.63867 13.0249V16.9961V16.9962Z" fill="white"/>
</svg>
