<svg width="24" height="24" viewBox="0 0 24 24" fill="none" xmlns="http://www.w3.org/2000/svg">
<path d="M6.9793 10.2827H6.9901L7.17372 10.3475L7.34654 10.4123L7.53015 10.4663L7.70297 10.5419L7.88659 10.6067L8.05941 10.6715L8.24302 10.7363L8.41584 10.8011L8.58866 10.8659L8.76148 10.9307L8.9451 10.9955L9.11791 11.0711L9.30153 11.1252L9.47435 11.19L9.65797 11.2548L9.83078 11.3304L10.0144 11.3952L10.1872 11.4492L10.36 11.514L10.5437 11.5896L10.7273 11.6544V11.3736V11.3304V11.1036V10.9415V10.8227V10.5419V10.2719V9.99104V9.72101V9.42938V9.15936V9.12695H10.5113H10.306H10.2844H10.0576H9.88479H9.81998H9.59316H9.47435H9.35554H9.11791H9.05311H8.89109H8.66427H8.65347H8.64266H8.42664H8.23222H8.19982H7.9622H7.81098H7.40054H6.9901H6.9793H6.74167L6.56886 9.21336L6.15842 9.42938L5.73717 9.65621L5.31593 9.86143L4.91629 10.0774L4.49505 10.3043L4.07381 10.5095L3.66337 10.7363L3.24212 10.9523L2.83168 11.1576L2.42124 11.3844L2.0432 11.5788L2 17.7678L2.42124 18.0594L2.83168 18.3511L3.24212 18.6319L3.66337 18.9343L4.07381 19.226L4.49505 19.5176L4.67867 19.658L4.91629 19.3556L5.31593 18.8155L5.35914 18.7615L5.31593 18.7291L4.91629 18.4375L4.49505 18.1459L4.07381 17.8542L3.66337 17.5626L3.24212 17.2602L3.13411 17.1954L3.16652 12.1837L3.24212 12.1405L3.66337 11.9352L4.07381 11.73L4.49505 11.5248L4.91629 11.3196L5.31593 11.1036L5.73717 10.8983L6.15842 10.7039L6.56886 10.4879L6.9793 10.2827Z" fill="url(#paint0_linear)"/>
<path d="M14.1298 22.0881L13.7842 22.2285L13.3953 22.3905L13.0065 22.5417L12.6177 22.7037L12.4448 22.7685L12.2396 22.6713L11.8508 22.4661L11.462 22.2825L11.0839 22.0772L10.6951 21.8828L10.3062 21.6992L9.9174 21.494L9.52856 21.2996L9.13972 21.1052L8.75088 20.9107L8.36204 20.7055L7.99481 20.5219L7.60597 20.3275L7.56276 20.3059V15.251H7.21713H6.82829H6.43945V20.9971L6.82829 21.1808L7.21713 21.3752L7.60597 21.5804L7.99481 21.764L8.36204 21.9692L8.75088 22.1637L9.13972 22.3581L9.52856 22.5525L9.9174 22.7469L10.3062 22.9413L10.6951 23.1358L11.0839 23.341L11.462 23.5246L11.8508 23.7298L12.2396 23.9134L12.3908 23.9998L12.6177 23.8918L13.0065 23.7514L13.3953 23.5894L13.7842 23.4274L14.1622 23.2762L14.5511 23.125L14.1622 22.1529L14.1298 22.0881Z" fill="url(#paint1_linear)"/>
<path d="M21.0313 15.0676L21.0529 17.4438L20.9557 17.5302L20.2968 17.9839L19.638 18.4591L18.9791 18.9344L18.3203 19.3988L17.6614 19.8633L17.0133 20.3385L16.3545 20.803L15.9656 21.0838L15.6956 20.8786L15.0475 20.3709L14.3887 19.8741L13.7298 19.3664L13.0817 18.8696L12.9629 18.7832V16.2233L13.0817 16.1153L13.7298 15.424L14.3887 14.7436L15.0475 14.0523L15.6956 13.3718L16.3329 12.7021H15.6956H15.0475H14.3887H13.7298H13.0817H12.4121H11.7532H11.1051H10.4463H9.7874H9.13933H8.48047L9.13933 13.3934L9.7874 14.0739L10.4463 14.7544L11.1051 15.4456L11.7532 16.1261L11.8504 16.2233V19.3232L12.4121 19.7661L13.0817 20.2737L13.7298 20.7706L14.3887 21.2782L15.0475 21.7751L15.6956 22.2827L15.9332 22.4663L16.3545 22.1639L17.0133 21.7103L17.6614 21.235L18.3203 20.7598L18.9791 20.3061L19.638 19.8309L20.2968 19.3556L20.9557 18.902L21.6146 18.4267L22.1546 18.0271L22.2626 15.1108L21.6146 15.0892L21.0313 15.0676Z" fill="url(#paint2_linear)"/>
<path d="M3.06919 9.53755H3.1448L3.1556 6.36204L3.57684 6.09201L4.10609 5.77878L4.62455 5.46555L5.143 5.14151L5.66145 4.82828L6.1907 4.50425L6.69836 4.19102L7.22761 3.87779L7.74606 3.55376L8.27531 3.22972H8.28612L8.78297 3.52135L9.31222 3.81298L9.83067 4.11541L10.3491 4.40704L10.8676 4.69867L11.386 4.9903L11.9045 5.29273L12.4121 5.58436L12.4337 5.54115L12.9522 4.60146L12.4337 4.29903L11.9045 4.0074L11.386 3.71577L10.8676 3.42414L10.3491 3.12171L9.83067 2.83008L9.31222 2.53845L8.78297 2.23602L8.27531 1.94439L8.25371 1.93359L7.74606 2.23602L7.22761 2.56006L6.69836 2.88409L6.1907 3.20812L5.66145 3.52135L5.143 3.83458L4.62455 4.15862L4.10609 4.47185L3.57684 4.79588L3.06919 5.10911L2.53994 5.42234L2.04309 5.73557L2.02148 9.52675H2.53994L3.06919 9.53755Z" fill="url(#paint3_linear)"/>
<path d="M23.375 6.63166L23.1049 6.41564L22.8349 6.19962L22.5649 5.97279L22.2949 5.75677L22.0248 5.54075L21.744 5.32473L21.474 5.10871L21.2039 4.89269L20.9231 4.66586L20.7179 4.51465L20.6423 4.60106L20.3723 4.93589L20.1022 5.28153L20.0266 5.36793L20.1022 5.44354L20.3723 5.67036L20.6423 5.89719L20.9231 6.12401L21.2039 6.35083L21.474 6.58846L21.744 6.81528L22.0248 7.0421L22.1544 7.15011L22.1652 12.259L22.0248 12.3562L21.744 12.529L21.474 12.7019L21.2039 12.8747L20.9231 13.0475L20.6423 13.2203L20.3723 13.3931L20.1022 13.566L19.8322 13.7388L19.5622 13.9116L19.2922 14.0844L19.0113 14.2572L18.7413 14.43L18.4713 14.6029L18.2012 14.7757L17.9204 14.9485L17.6504 15.1213L17.9204 15.5534L18.2012 15.9854L18.2445 16.061L18.4713 15.9206L18.7413 15.7586L19.0113 15.5858L19.2922 15.4237L19.5622 15.2401L19.8322 15.0781L20.1022 14.9053L20.3723 14.7433L20.6423 14.5705L20.9231 14.4084L21.2039 14.2248L21.474 14.0628L21.744 13.89L22.0248 13.728L22.2949 13.5552L22.5649 13.3931L22.8349 13.2095L23.1049 13.0475L23.375 12.8747V6.63166Z" fill="url(#paint4_linear)"/>
<path d="M14.464 9.67777V9.9586V10.2394V10.5203V10.8119V11.1035V11.3843V11.6652V11.8812L14.5504 11.8488L14.9176 11.7084L15.2849 11.5572L15.6413 11.4167L16.0085 11.2655L16.3758 11.1143L16.7322 10.9739L17.0994 10.8227L17.4667 10.6823L17.8231 10.5311L18.1904 10.3906L18.5468 10.2394V9.9586V9.85058V9.10531V3.55356L18.1363 3.29433L17.7151 3.05671L17.2939 2.81908L16.8834 2.55986L16.4622 2.32223L16.0409 2.08461L15.6305 1.83618L15.2093 1.58776L14.7988 1.33933L14.3776 1.10171L13.9563 0.853285L13.5459 0.60486L13.1354 0.367237L12.7142 0.129613L12.4874 0L12.293 0.108011L11.8717 0.334834L11.4505 0.550855L11.0508 0.788479L10.6296 1.0153L10.2084 1.23132L9.78711 1.46895L10.2084 1.70657L10.6296 1.94419L10.8888 2.10621L11.0508 2.0198L11.4505 1.80378L11.8717 1.57696L12.293 1.36094L12.455 1.27453L12.7142 1.42574L13.1354 1.66337L13.5459 1.90099L13.9563 2.14942L14.3776 2.39784L14.7988 2.63546L15.2093 2.88389L15.6305 3.13231L16.0409 3.36994L16.4622 3.60756L16.8834 3.86679L17.2939 4.10441L17.4343 4.18002V9.10531H17.3371H17.2939H17.0994H16.8834H16.8618H16.6134H16.4622H16.3758H16.1381H16.0409H15.9005H15.6629H15.6305H15.4253H15.2093H15.1877H14.9392H14.7988H14.7016H14.518H14.4856" fill="url(#paint5_linear)"/>
<path d="M14.4648 11.8813L18.5476 10.2396L14.4648 9.10547" fill="url(#paint6_linear)"/>
<path d="M10.7274 11.8811V9.14844L6.99023 10.2609L10.7274 11.8703" fill="url(#paint7_linear)"/>
<defs>
<linearGradient id="paint0_linear" x1="6.36094" y1="9.13019" x2="6.36094" y2="19.6537" gradientUnits="userSpaceOnUse">
<stop stop-color="#F6E93D"/>
<stop offset="0.13" stop-color="#F8E330"/>
<stop offset="0.35" stop-color="#F7C730"/>
<stop offset="0.64" stop-color="#F59C2E"/>
<stop offset="0.98" stop-color="#EB5E2C"/>
<stop offset="1" stop-color="#EB5C2C"/>
</linearGradient>
<linearGradient id="paint1_linear" x1="10.4969" y1="15.2553" x2="10.4969" y2="23.9988" gradientUnits="userSpaceOnUse">
<stop stop-color="#F6E93D"/>
<stop offset="0.13" stop-color="#F8E330"/>
<stop offset="0.35" stop-color="#F7C730"/>
<stop offset="0.64" stop-color="#F59C2E"/>
<stop offset="0.98" stop-color="#EB5E2C"/>
<stop offset="1" stop-color="#EB5C2C"/>
</linearGradient>
<linearGradient id="paint2_linear" x1="15.371" y1="12.7011" x2="15.371" y2="22.4696" gradientUnits="userSpaceOnUse">
<stop stop-color="#F6E93D"/>
<stop offset="0.13" stop-color="#F8E330"/>
<stop offset="0.35" stop-color="#F7C730"/>
<stop offset="0.64" stop-color="#F59C2E"/>
<stop offset="0.98" stop-color="#EB5E2C"/>
<stop offset="1" stop-color="#EB5C2C"/>
</linearGradient>
<linearGradient id="paint3_linear" x1="7.48629" y1="1.93683" x2="7.48629" y2="9.53863" gradientUnits="userSpaceOnUse">
<stop stop-color="#F6E93D"/>
<stop offset="0.13" stop-color="#F8E330"/>
<stop offset="0.35" stop-color="#F7C730"/>
<stop offset="0.64" stop-color="#F59C2E"/>
<stop offset="0.98" stop-color="#EB5E2C"/>
<stop offset="1" stop-color="#EB5C2C"/>
</linearGradient>
<linearGradient id="paint4_linear" x1="20.517" y1="4.51249" x2="20.517" y2="16.0621" gradientUnits="userSpaceOnUse">
<stop stop-color="#F6E93D"/>
<stop offset="0.13" stop-color="#F8E330"/>
<stop offset="0.35" stop-color="#F7C730"/>
<stop offset="0.64" stop-color="#F59C2E"/>
<stop offset="0.98" stop-color="#EB5E2C"/>
<stop offset="1" stop-color="#EB5C2C"/>
</linearGradient>
<linearGradient id="paint5_linear" x1="14.1659" y1="0" x2="14.1659" y2="11.8844" gradientUnits="userSpaceOnUse">
<stop stop-color="#F6E93D"/>
<stop offset="0.13" stop-color="#F8E330"/>
<stop offset="0.35" stop-color="#F7C730"/>
<stop offset="0.64" stop-color="#F59C2E"/>
<stop offset="0.98" stop-color="#EB5E2C"/>
<stop offset="1" stop-color="#EB5C2C"/>
</linearGradient>
<linearGradient id="paint6_linear" x1="16.5019" y1="9.11303" x2="16.5019" y2="11.8878" gradientUnits="userSpaceOnUse">
<stop stop-color="#F6E93D"/>
<stop offset="0.13" stop-color="#F8E330"/>
<stop offset="0.35" stop-color="#F7C730"/>
<stop offset="0.64" stop-color="#F59C2E"/>
<stop offset="0.98" stop-color="#EB5E2C"/>
<stop offset="1" stop-color="#EB5C2C"/>
</linearGradient>
<linearGradient id="paint7_linear" x1="8.81376" y1="11.195" x2="9.69513" y2="8.77336" gradientUnits="userSpaceOnUse">
<stop stop-color="#F6E93D"/>
<stop offset="0.13" stop-color="#F8E330"/>
<stop offset="0.35" stop-color="#F7C730"/>
<stop offset="0.64" stop-color="#F59C2E"/>
<stop offset="0.98" stop-color="#EB5E2C"/>
<stop offset="1" stop-color="#EB5C2C"/>
</linearGradient>
</defs>
</svg>
