<svg width="24" height="24" fill="none" xmlns="http://www.w3.org/2000/svg"><path fill-rule="evenodd" clip-rule="evenodd" d="m13.843 18.8 3.357 3.373-.227.19A7.403 7.403 0 0 1 12.801 24v-4.773a2.83 2.83 0 0 0 1.042-.427Zm-3.117 0 .149.102c.254.16.54.264.858.325V24l-.314-.029a7.468 7.468 0 0 1-4.086-1.798l3.393-3.373ZM9.59 17.067l.048.22c.079.289.208.56.36.813l-3.372 3.367-.191-.23a7.405 7.405 0 0 1-1.636-4.17h4.79Zm9.875 0-.032.323a7.439 7.439 0 0 1-1.707 3.943L14.4 17.997l.1-.17c.124-.23.213-.482.284-.76h4.683ZM4.8 9.867l5.199 5.121-.118.184c-.148.252-.26.534-.325.828H4.8V9.867ZM17.772 11.6l.192.23A7.404 7.404 0 0 1 19.599 16h-4.772l-.057-.216a3.315 3.315 0 0 0-.37-.819l3.372-3.365Zm-5.105-2.4.314.028a7.482 7.482 0 0 1 4.086 1.8L13.674 14.4l-.15-.103a2.477 2.477 0 0 0-.857-.325V9.2ZM4.8 0l6.933 6.118v7.77l-.206.052c-.267.079-.506.197-.739.327l-.07-.07c-.841-.848-4.659-4.661-5.9-5.895v-.227L4.801.397 4.8 0Z" fill="#00A9E0"/></svg>