<svg width="24" height="24" fill="none" xmlns="http://www.w3.org/2000/svg"><g clip-path="url(#a)"><path d="M12 23.004c6.077 0 11.004-4.927 11.004-11.004S18.077.996 12 .996.996 5.923.996 12 5.923 23.004 12 23.004Z" fill="#fff"/><path d="M10.977 7.565a3.523 3.523 0 0 0-1.793 2.057 6.934 6.934 0 0 0-.182 4.13 4.138 4.138 0 0 0 1.15 2.069c.416.418.942.71 1.517.842l-.099-9.307c-.223.084-.418.127-.593.209Z" fill="#000"/><path d="M12 0a12 12 0 1 0 0 24 12 12 0 0 0 0-24Zm5.016 15.54a1.513 1.513 0 0 1-.305.46 5.28 5.28 0 0 1-3.12 1.638l-.314.052c-.024 0-.048.022-.029.012-.163.579-.278 1.143-.48 1.68-.372.96-.994 1.728-1.997 2.112a2.035 2.035 0 0 1-2.496-.772 1.68 1.68 0 0 1-.24-.72.792.792 0 0 1 .562-.828.857.857 0 0 1 1.003 1.262c-.055.089-.125.17-.187.254.48.36 1.037.334 1.385-.117a3.46 3.46 0 0 0 .48-.96 7.35 7.35 0 0 0 .343-1.973.873.873 0 0 0-.183-.08c-2.078-.414-3.43-1.655-4.11-3.64a5.868 5.868 0 0 1 .48-5.08 4.925 4.925 0 0 1 3.282-2.36l.392-.086c.024 0 .043-.03.084-.056a5.63 5.63 0 0 1 .554-2.13 3.389 3.389 0 0 1 1.994-1.849 2.02 2.02 0 0 1 2.307.735c.146.217.244.462.29.72a.794.794 0 0 1-.499.866.847.847 0 0 1-.984-.218.838.838 0 0 1-.091-1.004c.06-.1.132-.192.197-.288-.528-.362-1.047-.3-1.424.164a3.482 3.482 0 0 0-.626 1.581c-.089.442-.13.893-.202 1.395l.555.096a5.457 5.457 0 0 1 2.222.844 1.155 1.155 0 0 1 .579 1.2 2.8 2.8 0 0 0 .052.75c.039.304-.016.465-.21.54a.442.442 0 0 1-.565-.255c-.185-.324-.338-.665-.52-.989a2.436 2.436 0 0 0-1.68-1.2 4.666 4.666 0 0 0-.45-.05l.094 9.484a5.487 5.487 0 0 0 1.899-.64c.396-.24.753-.545 1.13-.819.104-.103.227-.184.362-.24a.506.506 0 0 1 .39.101.396.396 0 0 1 .076.408Z" fill="#000"/></g><defs><clipPath id="a"><path fill="#fff" d="M0 0h24v24H0z"/></clipPath></defs></svg>