<svg width="24" height="24" viewBox="0 0 24 24" fill="none" xmlns="http://www.w3.org/2000/svg">
<path d="M12 24C18.6274 24 24 18.6274 24 12C24 5.37258 18.6274 0 12 0C5.37258 0 0 5.37258 0 12C0 18.6274 5.37258 24 12 24Z" fill="#C1A05C"/>
<path fill-rule="evenodd" clip-rule="evenodd" d="M12.2069 19.5C10.4676 19.4955 8.9106 18.9615 7.5201 17.94C7.15035 17.6685 7.1391 17.5125 7.4541 17.1742L7.4826 17.1442C7.86735 16.7272 7.8651 16.7295 8.32185 17.058C9.3744 17.827 10.636 18.2576 11.9391 18.2925C13.3236 18.3405 14.5956 18.0098 15.7454 17.268C17.1246 16.3785 18.0651 15.1395 18.4589 13.5577C18.9531 11.5717 18.5856 9.73275 17.2836 8.1165C16.3716 6.984 15.1866 6.25425 13.7549 5.9085C12.4769 5.5995 11.2214 5.67525 9.9876 6.09975C9.33435 6.32475 8.7306 6.65625 8.18535 7.08225C7.9161 7.29225 7.8141 7.28775 7.58535 7.03125C7.4753 6.91171 7.37213 6.78601 7.27635 6.65475C7.13535 6.45525 7.15485 6.33675 7.34535 6.18525C8.25051 5.46728 9.30513 4.96137 10.4316 4.70475C11.4511 4.46311 12.5095 4.43502 13.5404 4.62225C14.9414 4.87575 16.1879 5.45175 17.2581 6.38475C18.0501 7.07625 18.6906 7.88475 19.1361 8.82975C19.7496 10.1318 19.9994 11.4953 19.8156 12.9338C19.6517 14.2463 19.136 15.4902 18.3231 16.5338C17.4929 17.6152 16.4301 18.4042 15.1596 18.9225C14.2236 19.3095 13.2197 19.5059 12.2069 19.5ZM11.7299 14.7128C11.6796 14.7893 11.6534 14.8463 11.6114 14.8898C11.3579 15.156 11.0481 15.3158 10.6746 15.3278C10.4159 15.3352 10.1564 15.3135 9.8976 15.3195C9.79752 15.3186 9.69887 15.3434 9.6111 15.3915C8.4156 16.1415 7.1286 16.251 5.7726 15.963C5.32635 15.8685 4.9266 15.6967 4.5861 15.4042C4.3296 15.1845 4.14885 14.925 4.1271 14.5605C4.0896 13.9253 4.55985 13.4917 5.04435 13.35C5.9391 13.0875 6.79035 13.2473 7.60485 13.6425C7.97685 13.8225 8.32485 14.052 8.68035 14.265C8.88435 14.3858 8.9451 14.3812 9.0471 14.1727C9.50835 13.2307 9.2106 12.192 8.0841 11.808C7.0956 11.4705 6.12885 11.5043 5.1771 11.943C5.0376 12.0075 4.8846 12.1305 4.72035 11.9985C4.5501 11.8605 4.6641 11.6962 4.7076 11.5507C5.02035 10.4977 5.3376 9.447 5.65935 8.397C5.72985 8.16675 5.9136 8.04825 6.1821 8.0625C6.57735 8.08425 6.97035 8.1435 7.3656 8.1525C7.9581 8.1675 8.55285 8.17275 9.1446 8.1435C9.58485 8.121 9.9711 7.9275 10.3109 7.647C10.3521 7.61325 10.4354 7.57425 10.4624 7.59225C10.5021 7.6185 10.5261 7.692 10.5299 7.7475C10.5576 8.202 10.3626 8.55225 10.0011 8.8245C9.5736 9.147 9.08535 9.297 8.5521 9.30975C7.99935 9.3225 7.4466 9.33 6.8946 9.33225C6.7701 9.33375 6.7041 9.37875 6.67485 9.49575C6.62535 9.69075 6.57285 9.8865 6.5166 10.0808C6.47385 10.2255 6.5286 10.2833 6.67485 10.2773C7.02285 10.2645 7.37085 10.2413 7.7181 10.2435C8.51741 10.2388 9.28925 10.5349 9.88035 11.073C10.4601 11.589 10.6949 12.255 10.7301 12.999C10.7579 13.5953 10.6439 14.166 10.3161 14.6798C10.2269 14.82 10.2674 14.8807 10.4181 14.9205C10.8186 15.0262 11.1884 14.9543 11.5416 14.757C11.5716 14.7405 11.5994 14.7218 11.6301 14.7075C11.6406 14.703 11.6564 14.7083 11.7299 14.7128ZM8.30385 14.8822L8.29185 14.8095C8.2416 14.7788 8.19435 14.7405 8.1396 14.7165C7.7421 14.5402 7.34985 14.3453 6.94185 14.1968C6.5256 14.0445 6.09285 13.9358 5.63985 14.0415C5.43585 14.0887 5.23185 14.1405 5.1726 14.3752C5.1066 14.634 5.26485 14.7953 5.44935 14.9363C5.5071 14.9805 5.57835 15.012 5.64735 15.039C6.34785 15.309 7.05885 15.3165 7.77285 15.105C7.95585 15.051 8.1276 14.9573 8.30385 14.8822Z" fill="white"/>
</svg>
