<svg width="24" height="24" viewBox="0 0 24 24" fill="none" xmlns="http://www.w3.org/2000/svg">
<path d="M11.9997 0.0629883C5.40281 0.0629883 0.0625 5.4033 0.0625 12.0002C0.0625 18.597 5.40281 23.9373 11.9997 23.9373C18.5965 23.9373 23.9368 18.597 23.9368 12.0002C23.9368 5.4033 18.5965 0.0629883 11.9997 0.0629883Z" fill="#1A53F0"/>
<path d="M15.7692 5.47862C13.9975 5.47862 12.565 6.91108 12.565 8.68281C12.565 10.4545 13.9975 11.887 15.7692 11.887C17.5409 11.887 18.9734 10.4545 18.9734 8.68281C18.9734 6.91108 17.5409 5.47862 15.7692 5.47862ZM15.7692 10.9195C14.5378 10.9195 13.5325 9.91423 13.5325 8.68281C13.5325 7.4514 14.5378 6.44616 15.7692 6.44616C17.0006 6.44616 18.0058 7.4514 18.0058 8.68281C18.0058 9.91423 17.0006 10.9195 15.7692 10.9195ZM8.93358 12.3142C7.16186 12.3142 5.7294 13.7467 5.7294 15.5184C5.7294 17.2901 7.16186 18.7226 8.93358 18.7226C10.7053 18.7226 12.1378 17.2901 12.1378 15.5184C12.1378 13.7467 10.7053 12.3142 8.93358 12.3142ZM8.93358 17.7551C7.70217 17.7551 6.69693 16.7498 6.69693 15.5184C6.69693 14.287 7.70217 13.2818 8.93358 13.2818C10.165 13.2818 11.1702 14.287 11.1702 15.5184C11.1702 16.7498 10.165 17.7551 8.93358 17.7551ZM12.1378 6.44616V5.47862H8.93358C7.4006 5.46606 6.09379 6.54669 5.79222 8.04198C5.49065 9.53726 6.28228 11.0451 7.68961 11.6357C9.09694 12.2263 10.7304 11.7488 11.5849 10.4922C12.4393 9.23569 12.3011 7.53936 11.2331 6.44616H12.1378ZM8.93358 10.9195C7.70217 10.9195 6.69693 9.91423 6.69693 8.68281C6.69693 7.4514 7.70217 6.44616 8.93358 6.44616C10.165 6.44616 11.1702 7.4514 11.1702 8.68281C11.1702 9.91423 10.165 10.9195 8.93358 10.9195Z" fill="white"/>
</svg>
