<svg width="24" height="24" viewBox="0 0 24 24" fill="none" xmlns="http://www.w3.org/2000/svg">
<g clip-path="url(#clip0)">
<path d="M12 24C18.6274 24 24 18.6274 24 12C24 5.37258 18.6274 0 12 0C5.37258 0 0 5.37258 0 12C0 18.6274 5.37258 24 12 24Z" fill="#1666AE"/>
<path d="M7.22869 20.7138C7.40341 20.7858 7.60309 20.7023 7.67413 20.5276C7.74612 20.3529 7.66261 20.1532 7.48789 20.0821C7.31317 20.0101 7.11349 20.0937 7.04245 20.2684C6.99925 20.374 7.01173 20.494 7.07509 20.5881L6.2255 21.4377H4.59735C4.68471 21.5058 4.77207 21.573 4.86135 21.6393H6.3023L7.22869 20.7138ZM2.05337 16.3084C2.22713 16.2354 2.30969 16.0357 2.23673 15.862C2.16377 15.6882 1.96409 15.6057 1.79033 15.6786C1.61657 15.7516 1.53401 15.9513 1.60697 16.125C1.65113 16.2297 1.74425 16.3065 1.85657 16.3285L1.84121 17.1887L1.41113 17.6255C1.44377 17.6879 1.47737 17.7493 1.51193 17.8117L2.03801 17.277L2.05337 16.3084ZM6.64885 3.06517C6.54325 3.22165 6.58549 3.43381 6.74197 3.53941C6.89845 3.64501 7.11061 3.60277 7.21621 3.44629C7.32181 3.28981 7.27957 3.07765 7.12309 2.97205C7.02805 2.90869 6.90805 2.89621 6.80245 2.93941L6.10742 2.26549L5.00055 2.25781C4.91031 2.32309 4.82007 2.39029 4.73175 2.45749L6.03062 2.46709L6.64885 3.06517ZM6.88597 4.66837C6.84181 4.66837 6.79765 4.67701 6.75637 4.69333L6.06134 4.01941L3.29944 4.00789V4.20949L5.98358 4.22101L6.60277 4.81813C6.49717 4.97461 6.53941 5.18677 6.69589 5.29237C6.85237 5.39797 7.06453 5.35573 7.17013 5.19925C7.27573 5.04277 7.23349 4.83061 7.07701 4.72501C7.02037 4.68853 6.95413 4.66837 6.88597 4.66837ZM6.71509 17.6236C6.52693 17.6236 6.37333 17.7772 6.3743 17.9653C6.3743 18.0325 6.39445 18.0988 6.43189 18.1545L5.8127 18.7525L3.1276 18.7641V18.9657L5.8895 18.9541L6.58453 18.2812C6.75925 18.3522 6.95893 18.2687 7.02997 18.0949C7.10101 17.9202 7.01749 17.7205 6.84373 17.6495C6.80341 17.6322 6.76021 17.6236 6.71509 17.6236ZM17.1368 8.11093L17.2798 7.96789L17.1349 7.82293L17.1358 8.10901L17.1368 8.11093ZM16.1105 6.79957L14.2107 6.78421C14.1378 6.61045 13.9381 6.52789 13.7643 6.60085C13.5906 6.67381 13.508 6.87349 13.581 7.04725C13.6539 7.22101 13.8536 7.30357 14.0274 7.23061C14.132 7.18645 14.2088 7.09333 14.2309 6.98197L16.0222 6.99733L16.9054 7.88053V7.59541L16.1105 6.79957ZM11.6379 7.56373C11.6831 7.56373 11.7272 7.55509 11.7685 7.53781L12.3685 8.13109H14.6514V7.92853H12.4462L11.9231 7.41109C12.0287 7.25365 11.9864 7.04053 11.829 6.93493C11.6715 6.82933 11.4584 6.87157 11.3528 7.02901C11.2472 7.18645 11.2895 7.39957 11.4469 7.50517C11.5026 7.54357 11.5698 7.56373 11.6379 7.56373Z" fill="#7290C9"/>
<path d="M16.0826 2.57492L16.098 4.6917L16.9054 5.51058V10.1521H17.1377L17.1348 8.10928V7.82416L17.131 5.43954L16.2958 4.60434L16.2804 2.59508C16.4657 2.5586 16.5857 2.37908 16.5492 2.19476C16.5127 2.00948 16.3332 1.88948 16.1489 1.92596C15.9636 1.96244 15.8436 2.14196 15.8801 2.32628C15.9012 2.43764 15.978 2.53076 16.0826 2.57492ZM19.5252 7.04081C19.6308 6.88433 19.5886 6.67217 19.4321 6.56657C19.2756 6.46097 19.0635 6.50321 18.9579 6.65969C18.8523 6.81617 18.8945 7.02833 19.051 7.13393C19.146 7.19729 19.266 7.20977 19.3716 7.16657L20.4085 8.02672L23.3154 8.03824C23.2914 7.97104 23.2674 7.90288 23.2424 7.83664L20.4862 7.82608L19.5252 7.04081Z" fill="#7290C9"/>
<path d="M23.1493 8.62683L20.0053 8.61531L18.9052 7.70715C19.0108 7.55067 18.9685 7.33851 18.8121 7.23291C18.6556 7.12731 18.4434 7.16955 18.3378 7.32603C18.2322 7.48251 18.2745 7.69467 18.4309 7.80027C18.526 7.86363 18.646 7.87611 18.7516 7.83291L19.9285 8.81691L23.1426 8.82843C23.1253 8.76219 23.1273 8.69211 23.1493 8.62683ZM19.6261 5.28219C19.7308 5.12571 19.6895 4.91355 19.533 4.80891C19.3765 4.70427 19.1644 4.74555 19.0597 4.90203C18.9551 5.05851 18.9964 5.27067 19.1529 5.37531C19.2469 5.43867 19.3669 5.45115 19.4725 5.40795L20.4133 6.25659L22.533 6.27099C22.4965 6.20283 22.4581 6.13563 22.4197 6.06843L20.4911 6.05403L19.6261 5.28219ZM2.1244 6.81051C1.93912 6.84699 1.81816 7.02555 1.85464 7.21083C1.89112 7.39611 2.06968 7.51707 2.25496 7.48059C2.44024 7.44411 2.5612 7.26555 2.52472 7.08027C2.50264 6.96795 2.4268 6.87483 2.3212 6.83067L2.25496 5.56539L2.03032 5.33787C1.99192 5.39547 1.95448 5.45307 1.91704 5.51067L2.05912 5.65275L2.1244 6.81051ZM14.3596 19.7004C14.1705 19.7004 14.0178 19.8531 14.0178 20.0422C14.0178 20.1103 14.038 20.1766 14.0754 20.2323L13.7221 20.647H10.773L10.0492 21.4486C9.87447 21.3766 9.67479 21.4601 9.60375 21.6348C9.53175 21.8096 9.61527 22.0092 9.78999 22.0803C9.96471 22.1513 10.1644 22.0688 10.2354 21.894C10.2786 21.7884 10.2662 21.6684 10.2028 21.5744L10.8508 20.8486H13.7999L14.229 20.3571C14.4037 20.4291 14.6034 20.3455 14.6745 20.1708C14.7465 19.9961 14.6629 19.7964 14.4882 19.7254C14.4489 19.7091 14.4037 19.7004 14.3596 19.7004ZM13.7701 2.20443L14.4181 2.93019C14.3125 3.08667 14.3548 3.29883 14.5113 3.40443C14.6677 3.51003 14.8799 3.46779 14.9855 3.31131C15.0911 3.15483 15.0489 2.94267 14.8924 2.83707C14.7973 2.77371 14.6773 2.76123 14.5717 2.80443L13.8479 2.00283H10.8978L10.5446 1.58811C10.6502 1.43163 10.6079 1.21947 10.4514 1.11387C10.2949 1.00827 10.0828 1.05051 9.97719 1.20699C9.87159 1.36347 9.91383 1.57563 10.0703 1.68123C10.1654 1.74459 10.2854 1.75707 10.391 1.71387L10.8201 2.20539L13.7701 2.20443ZM21.8937 13.5622C21.7602 13.6956 21.7602 13.9116 21.8937 14.0451C21.9417 14.0931 22.0021 14.1257 22.0693 14.1382L22.0818 15.3795L21.0825 16.2233L21.0441 17.3647C20.8703 17.4377 20.7877 17.6374 20.8607 17.8111C20.9337 17.9849 21.1333 18.0675 21.3071 17.9945C21.4809 17.9215 21.5634 17.7219 21.4905 17.5481C21.4463 17.4435 21.3532 17.3667 21.2418 17.3446L21.2802 16.3116L22.2796 15.4678L22.2671 14.118C22.4409 14.0451 22.5234 13.8454 22.4505 13.6716C22.3775 13.4979 22.1778 13.4153 22.0041 13.4883C21.9628 13.5055 21.9253 13.5305 21.8937 13.5622ZM6.65463 20.0623C6.82935 20.1334 7.02807 20.0499 7.09911 19.8751C7.17015 19.7004 7.08663 19.5017 6.91191 19.4307C6.73719 19.3596 6.53847 19.4431 6.46743 19.6179C6.42423 19.7235 6.43671 19.8435 6.50007 19.9375L5.65047 20.7871H3.83704C3.91 20.8553 3.98392 20.9225 4.0588 20.9888H5.72727L6.65463 20.0623Z" fill="#7290C9"/>
<path d="M11.7543 19.7848C11.7908 19.9701 11.9703 20.0901 12.1546 20.0536C12.3399 20.0171 12.4599 19.8376 12.4234 19.6533C12.3869 19.468 12.2074 19.348 12.0231 19.3845C11.9117 19.4066 11.8176 19.4824 11.7744 19.588H9.96867L9.12867 20.428V18.2872L9.83907 17.5854L9.82563 15.3755C10.0004 15.3026 10.082 15.1029 10.01 14.9282C9.93699 14.7534 9.73731 14.6718 9.56259 14.7438C9.38787 14.8168 9.30627 15.0165 9.37827 15.1912C9.42243 15.2968 9.51555 15.3736 9.62787 15.3947L9.64131 17.4962L8.90115 18.2056L8.89827 20.6574L8.89731 20.6584L8.89827 20.6594L8.89539 22.7886H9.12771V20.7122L10.056 19.7838L11.7543 19.7848ZM9.12963 2.33487L9.13059 2.33583L9.13347 4.78767L9.87363 5.49615L9.86019 7.59759C9.67491 7.63407 9.55491 7.81359 9.59139 7.99887C9.62787 8.18415 9.80739 8.30415 9.99267 8.26767C10.178 8.23119 10.298 8.05167 10.2615 7.86639C10.2394 7.75503 10.1636 7.66095 10.058 7.61775L10.0714 5.40783L9.36099 4.70607V2.56527L10.201 3.40527H12.0077C12.0807 3.57903 12.2804 3.66159 12.4541 3.58863C12.6279 3.51567 12.7104 3.31599 12.6375 3.14223C12.5645 2.96847 12.3648 2.88591 12.1911 2.95887C12.0864 3.00303 12.0096 3.09615 11.9876 3.20847H10.2893L9.36099 2.28111V0.291992C9.28323 0.309272 9.20547 0.327512 9.12867 0.346712L9.13155 2.33295L9.12963 2.33487ZM16.9037 19.9307C16.826 19.7589 16.6234 19.683 16.4516 19.7618C16.2797 19.8395 16.2039 20.0421 16.2826 20.2139C16.3604 20.3858 16.5629 20.4616 16.7348 20.3829C16.8385 20.3358 16.9114 20.2398 16.9306 20.1275L18.8622 20.1285L19.8202 21.0942C19.8711 21.0501 19.922 21.0059 19.9719 20.9618L18.9438 19.9288L16.9037 19.9307ZM18.8295 21.1739C18.6922 21.0453 18.4762 21.052 18.3466 21.1893C18.218 21.3266 18.2247 21.5426 18.362 21.6722C18.4993 21.8008 18.7153 21.7941 18.8449 21.6568C18.891 21.6078 18.9217 21.5454 18.9332 21.4782H19.3508C19.4343 21.413 19.5169 21.3467 19.5994 21.2795L18.9073 21.2805C18.8881 21.2402 18.8622 21.2046 18.8295 21.1739ZM13.5361 18.7787C13.6647 18.6414 13.658 18.4254 13.5207 18.2958C13.4708 18.2498 13.4093 18.219 13.3421 18.2075L13.3431 16.1829L13.1424 16.179L13.1453 18.2334C12.9735 18.3122 12.8976 18.5147 12.9764 18.6856C13.0551 18.8574 13.2576 18.9333 13.4285 18.8546C13.4689 18.8373 13.5053 18.8104 13.5361 18.7787ZM3.03551 17.8533C3.16415 17.716 3.15743 17.5 3.02015 17.3704C2.88287 17.2418 2.66687 17.2485 2.53727 17.3858C2.40863 17.523 2.41535 17.739 2.55263 17.8686C2.60159 17.9147 2.66399 17.9454 2.73119 17.957L2.69471 19.563C2.75807 19.6418 2.82335 19.7195 2.88959 19.7963L2.92799 17.9301C2.96831 17.9118 3.00479 17.8859 3.03551 17.8533ZM20.9099 4.54767C20.7726 4.41807 20.5566 4.42575 20.427 4.56303C20.2974 4.70031 20.305 4.91631 20.4423 5.04591C20.5796 5.17551 20.7956 5.16783 20.9252 5.03055C20.9713 4.98063 21.002 4.91919 21.0135 4.85199H21.6279C21.578 4.78575 21.5281 4.71951 21.4772 4.65327L20.9867 4.65423C20.9684 4.61391 20.9425 4.57839 20.9099 4.54767ZM19.4814 3.32079C19.3441 3.19215 19.1281 3.19887 18.9994 3.33615C18.8708 3.47343 18.8775 3.68943 19.0148 3.81807C19.1521 3.94671 19.3681 3.93999 19.4967 3.80271C19.5428 3.75375 19.5735 3.69135 19.5841 3.62511L20.5834 3.62607C20.5182 3.55887 20.4519 3.49263 20.3847 3.42639L19.5572 3.42831C19.5399 3.38799 19.514 3.35151 19.4814 3.32079ZM7.24514 2.65935C7.2509 2.84751 7.40834 2.99631 7.59746 2.99055C7.78562 2.98479 7.93442 2.82735 7.92866 2.63823C7.9229 2.45007 7.76546 2.30127 7.57634 2.30703C7.50818 2.30895 7.4429 2.33103 7.38722 2.37135L6.40321 1.38639C6.34177 1.41903 6.28129 1.45167 6.21985 1.48623L7.26626 2.52975C7.2509 2.57103 7.24322 2.61519 7.24514 2.65935ZM2.79935 5.15439C2.66975 5.29167 2.67743 5.50767 2.81471 5.63727C2.95199 5.76687 3.16799 5.75919 3.2976 5.62191C3.4272 5.48463 3.41952 5.26863 3.28224 5.13903C3.23231 5.09295 3.17087 5.06223 3.10367 5.05071L3.10463 3.95823C3.03743 4.03311 2.97119 4.10895 2.90495 4.18479L2.90687 5.07663C2.86655 5.09583 2.83007 5.12175 2.79935 5.15439ZM18.602 17.1803L16.5629 17.1832C16.4852 17.0114 16.2826 16.9355 16.1108 17.0142C15.9389 17.092 15.8631 17.2946 15.9418 17.4664C16.0196 17.6382 16.2221 17.7141 16.394 17.6354C16.4977 17.5883 16.5706 17.4923 16.5898 17.38H18.5214L19.5102 18.3765L17.4337 18.3774C17.3559 18.2056 17.1534 18.1298 16.9815 18.2085C16.8097 18.2862 16.7338 18.4888 16.8125 18.6606C16.8913 18.8325 17.0929 18.9083 17.2647 18.8296C17.3684 18.7826 17.4414 18.6866 17.4606 18.5742L22.0292 18.5752C22.0724 18.509 22.1156 18.4418 22.1579 18.3755L19.7953 18.3765L18.602 17.1803ZM5.91841 8.05743C6.04705 8.19471 6.26401 8.20239 6.40129 8.07279C6.53857 7.94415 6.54625 7.72719 6.41665 7.58991C6.28801 7.45263 6.07105 7.44495 5.93377 7.57455C5.90113 7.60527 5.87521 7.64175 5.85601 7.68303L3.77952 7.68207L4.76832 6.68559L6.69985 6.68463C6.73057 6.87087 6.90625 6.99663 7.0925 6.96591C7.27874 6.93519 7.4045 6.75951 7.37378 6.57327C7.34306 6.38703 7.16738 6.26127 6.98114 6.29199C6.86881 6.31023 6.77377 6.38319 6.72577 6.48687L4.68672 6.48399L3.49632 7.68015H0.815982C0.790062 7.74639 0.765102 7.81359 0.741102 7.87983L5.83105 7.87887C5.84065 7.94607 5.87137 8.00847 5.91841 8.05743ZM4.128 17.884C4.17408 17.835 4.2048 17.7726 4.21632 17.7054L5.06112 17.7064C5.11776 17.8859 5.30881 17.9867 5.48929 17.9301C5.66881 17.8734 5.76961 17.6824 5.71297 17.5019C5.65633 17.3224 5.46529 17.2216 5.28481 17.2782C5.17633 17.3118 5.0928 17.3973 5.06016 17.5058L4.1904 17.5086C4.11264 17.3368 3.91008 17.261 3.73824 17.3397C3.5664 17.4174 3.49056 17.62 3.56928 17.7918C3.64704 17.9637 3.8496 18.0395 4.02144 17.9608C4.0608 17.9426 4.09728 17.9166 4.128 17.884ZM5.65057 5.06127C5.49985 5.06127 5.36641 5.16015 5.32321 5.30511L4.45344 5.30799C4.37568 5.13615 4.17312 5.06031 4.00128 5.13903C3.82944 5.21775 3.7536 5.41935 3.83232 5.59119C3.91008 5.76303 4.11264 5.83887 4.28448 5.76015C4.38816 5.71311 4.46112 5.61711 4.48032 5.50479L5.32513 5.50575C5.38177 5.68527 5.57377 5.78607 5.75329 5.72943C5.93281 5.67279 6.03361 5.48079 5.97697 5.30127C5.93185 5.15727 5.80033 5.06127 5.65057 5.06127ZM16.4381 13.6206C16.2634 13.5486 16.0637 13.6322 15.9927 13.8069C15.9207 13.9816 16.0042 14.1813 16.1789 14.2523C16.3537 14.3243 16.5533 14.2408 16.6244 14.0661C16.6676 13.9605 16.6551 13.8405 16.5917 13.7464L17.5057 12.8546L23.1399 12.843V12.6414L17.4279 12.653L16.4381 13.6206ZM16.2999 14.2043C16.154 14.2043 16.0359 14.0862 16.0359 13.9403C16.0359 13.7944 16.154 13.6763 16.2999 13.6763C16.4458 13.6763 16.5639 13.7944 16.5639 13.9403C16.5639 14.0862 16.4458 14.2043 16.2999 14.2043ZM4.51104 16.589L6.57889 16.6043C6.65185 16.7781 6.85153 16.8606 7.0253 16.7877C7.19906 16.7147 7.28162 16.515 7.20866 16.3413C7.1357 16.1675 6.93602 16.085 6.76225 16.1579C6.65761 16.2021 6.58081 16.2952 6.55873 16.4066L4.65984 16.3912L3.54048 15.1163H0.42334C0.44446 15.196 0.46654 15.2747 0.48958 15.3534H3.46176L4.51104 16.589ZM6.71617 16.2885C6.81889 16.1858 6.98594 16.1858 7.08962 16.2885C7.19234 16.3912 7.19234 16.5582 7.08962 16.6619C6.9869 16.7646 6.81985 16.7646 6.71617 16.6619C6.61345 16.5582 6.61249 16.3922 6.71617 16.2885Z" fill="#7290C9"/>
<path d="M15.9083 13.0936L16.8223 12.2017L19.5064 12.1902V11.9886L16.7445 12.0001L15.7538 12.9688C15.5791 12.8968 15.3794 12.9803 15.3083 13.155C15.2363 13.3297 15.3199 13.5294 15.4946 13.6004C15.6693 13.6724 15.869 13.5889 15.94 13.4142C15.9842 13.3086 15.9727 13.1886 15.9083 13.0936ZM15.6328 13.5524C15.4869 13.5524 15.3688 13.4344 15.3688 13.2884C15.3688 13.1425 15.4869 13.0244 15.6328 13.0244C15.7787 13.0244 15.8968 13.1425 15.8968 13.2884C15.8968 13.4344 15.7787 13.5524 15.6328 13.5524ZM8.92246 13.3892L9.44854 12.9006L12.1173 12.9054L13.0552 12.0011L12.9775 11.8149L12.03 12.7153H9.35542L8.76886 13.2644C8.59414 13.1924 8.39446 13.276 8.32246 13.4507C8.25046 13.6254 8.33398 13.8251 8.5087 13.8971C8.68342 13.9691 8.8831 13.8856 8.9551 13.7108C8.9983 13.6043 8.98678 13.4833 8.92246 13.3892ZM8.64694 13.8472C8.50102 13.8472 8.38294 13.7291 8.38294 13.5832C8.38294 13.4372 8.50102 13.3192 8.64694 13.3192C8.79286 13.3192 8.90998 13.4372 8.91094 13.5822C8.91094 13.7291 8.79286 13.8472 8.64694 13.8472ZM6.83351 9.01169C6.61463 8.92241 6.36503 9.02609 6.27575 9.24497C6.18647 9.46384 6.29015 9.71344 6.50903 9.80272C6.72791 9.892 6.97751 9.78832 7.06679 9.56944C7.12055 9.43696 7.10615 9.28721 7.02647 9.16817L7.40567 8.88209L7.28855 8.64977L6.83351 9.01169ZM6.68087 9.70192C6.52055 9.70192 6.39095 9.57232 6.39095 9.412C6.39095 9.25169 6.52055 9.12209 6.68087 9.12209C6.84119 9.12209 6.97079 9.25169 6.97079 9.412C6.97079 9.57232 6.84119 9.70192 6.68087 9.70192C6.68087 9.70288 6.68087 9.70288 6.68087 9.70192ZM1.95577 13.754H2.73241V13.5217H2.09593L0.96314 12.388H1.47578V12.1086H0.015625C0.016585 12.2075 0.018505 12.3054 0.021385 12.4033H0.651142L1.95577 13.754ZM2.45305 11.1467L2.48377 10.9144L1.05626 9.48592H0.278664C0.265224 9.54832 0.252744 9.60976 0.240264 9.67216H0.97754L2.45305 11.1467ZM23.1496 8.62673C23.0872 8.81393 23.188 9.01649 23.3752 9.07889C23.4568 9.10577 23.5461 9.10289 23.6248 9.07025C23.5672 8.83985 23.5029 8.61233 23.4318 8.3877C23.3013 8.40786 23.1918 8.50001 23.1496 8.62673ZM11.2552 13.8011H12.9477V14.018H11.2552V13.8011Z" fill="#7290C9"/>
<path d="M14.2146 7.45166V9.23725H12.7295V16.5486H21.0661V7.45166H14.2146ZM19.1308 14.4375H14.6639V9.56269H19.1308V14.4375Z" fill="#FFFFFA"/>
<path d="M8.86488 14.7784V16.5477H6.55128C6.55128 16.5477 4.21464 16.5784 2.8476 14.4751C2.12184 13.3566 1.90104 11.9838 2.23992 10.6936C2.57304 9.42638 3.49944 7.92493 5.96088 7.45068H11.3791V9.14414H6.59832C6.59832 9.14414 4.07736 10.0101 4.11 12.101C4.1244 13.0206 4.64184 13.8539 5.43864 14.3138C5.79768 14.5202 6.19032 14.6613 6.59832 14.7323L8.86488 14.7784Z" fill="white"/>
<path d="M6.59814 11.1465V12.8073H9.60967V16.5484H11.3799V11.1465H6.59814Z" fill="white"/>
</g>
<defs>
<clipPath id="clip0">
<rect width="24" height="24" fill="white"/>
</clipPath>
</defs>
</svg>
