<svg width="24" height="24" viewBox="0 0 24 24" fill="none" xmlns="http://www.w3.org/2000/svg">
<path d="M12 24C18.6274 24 24 18.6274 24 12C24 5.37258 18.6274 0 12 0C5.37258 0 0 5.37258 0 12C0 18.6274 5.37258 24 12 24Z" fill="#2D9CDB"/>
<path d="M15.0404 4.2045C15.3344 4.2045 15.5714 4.2945 15.7507 4.47375C15.9299 4.653 16.0192 4.88925 16.0192 5.184V13.9395C16.0192 14.937 15.7829 15.8468 15.3089 16.6658C14.8571 17.4631 14.2012 18.1258 13.4084 18.5858C12.6149 19.0463 11.7254 19.2765 10.7392 19.2765C9.75368 19.2765 8.85143 19.0463 8.03168 18.5858C7.23896 18.1258 6.58299 17.4631 6.13118 16.6658C5.67068 15.8468 5.44043 14.9378 5.44043 13.9395C5.44043 12.9413 5.65118 12.0383 6.07418 11.232C6.50918 10.413 7.09793 9.7725 7.84043 9.312C8.59568 8.8515 9.43418 8.6205 10.3552 8.6205C11.0644 8.6153 11.7656 8.76965 12.4071 9.07214C13.0486 9.37463 13.6138 9.81751 14.0609 10.368V5.184C14.0609 4.88925 14.1509 4.653 14.3302 4.47375C14.5222 4.29384 14.7774 4.19707 15.0404 4.2045ZM10.7392 17.5485C11.3797 17.5485 11.9557 17.3955 12.4672 17.088C12.9878 16.7727 13.4128 16.3216 13.6964 15.783C13.9904 15.2318 14.1382 14.6175 14.1382 13.9395C14.1382 13.2615 13.9904 12.6525 13.6957 12.1155C13.4154 11.5795 12.9896 11.1334 12.4672 10.8285C11.9557 10.509 11.3797 10.3485 10.7392 10.3485C10.0994 10.3485 9.51668 10.509 8.99168 10.8285C8.47508 11.1407 8.05103 11.5849 7.76318 12.1155C7.46918 12.6525 7.32218 13.2608 7.32218 13.9395C7.32218 14.6183 7.46918 15.2318 7.76318 15.7823C8.05434 16.3156 8.47761 16.7652 8.99243 17.088C9.51743 17.3955 10.0994 17.5485 10.7399 17.5485H10.7392Z" fill="white"/>
</svg>
