<svg width="25" height="25" fill="none" xmlns="http://www.w3.org/2000/svg"><path d="M10.63 14.8H12v4.462c0 .418 0 .774.027 1.029.014.128.039.279.1.414a.665.665 0 0 0 .462.392.665.665 0 0 0 .584-.162 1.39 1.39 0 0 0 .264-.334c.132-.22.281-.543.457-.922l.014-.029 2.73-5.9.018-.037c.281-.607.516-1.114.638-1.527.126-.43.168-.881-.095-1.294-.263-.412-.691-.563-1.134-.629-.426-.063-.985-.063-1.654-.063H13V5.738c0-.418 0-.774-.027-1.029a1.387 1.387 0 0 0-.1-.414.665.665 0 0 0-.462-.392.664.664 0 0 0-.584.162 1.39 1.39 0 0 0-.264.334c-.132.22-.281.543-.457.922l-.014.029-2.73 5.9-.018.037c-.281.607-.516 1.114-.638 1.527-.126.43-.169.881.095 1.294.263.412.691.563 1.134.629.426.063.985.063 1.654.063h.04Z" stroke="#95A7AE"/></svg>