<svg width="24" height="24" fill="none" xmlns="http://www.w3.org/2000/svg"><g clip-path="url(#a)"><mask id="b" mask-type="alpha" maskUnits="userSpaceOnUse" x="0" y="0" width="24" height="25"><path d="M12.41 24h8.295v-3.873h-6.976L12.41 24Zm8.843 0h1.852v-3.873h-1.852V24ZM14.2 18.07h6.505v-3.874h-5.202L14.2 18.07Zm7.053 0h1.852v-3.874h-1.852v3.874Zm-5.244-5.793h4.696V8.403H17.26l-1.251 3.874Zm5.244 0h1.852V8.403h-1.852v3.874ZM17.963.004 10.284 24H7.679L0 .004h4.73L8.982 14.95 13.232.004h4.73Z" fill="#fff"/></mask><g mask="url(#b)"><path fill-rule="evenodd" clip-rule="evenodd" d="M12.41 24h8.295v-3.873h-6.976L12.41 24Zm8.843 0h1.852v-3.873h-1.852V24ZM14.2 18.07h6.505v-3.874h-5.202L14.2 18.07Zm7.053 0h1.852v-3.874h-1.852v3.874Zm-5.244-5.793h4.696V8.403H17.26l-1.251 3.874Zm5.244 0h1.852V8.403h-1.852v3.874ZM17.963.004 10.284 24H7.679L0 .004h4.73L8.982 14.95 13.232.004h4.73Z" fill="url(#c)"/></g></g><defs><linearGradient id="c" x1="11.552" y1=".004" x2="11.552" y2="24" gradientUnits="userSpaceOnUse"><stop stop-color="#fff"/><stop offset="1" stop-color="#1D1D1B"/></linearGradient><clipPath id="a"><path fill="#fff" d="M0 0h24v24H0z"/></clipPath></defs></svg>