<svg width="24" height="24" fill="none" xmlns="http://www.w3.org/2000/svg"><path fill-rule="evenodd" clip-rule="evenodd" d="M20.039 19.376a.168.168 0 0 0-.241-.01l-.002.004a.167.167 0 0 0-.003.241l3.774 3.718-3.528-3.953ZM18.614 13.55l-.003.003a.168.168 0 0 0-.003.241l3.936 3.871-3.689-4.106a.168.168 0 0 0-.24-.01Z" fill="#000"/><path fill-rule="evenodd" clip-rule="evenodd" d="m15.397 12.777-2.442-2.386c-.037 1.26-.235 3.86-.738 5.075-.008.02-.019.039-.027.058.355.226 1.103.664 1.4.664.372-.001 1.113-.412 1.381-.67.233-.225.48-.676.717-1.113.193-.352.392-.716.598-.996.124-.167.239-.29.351-.374.232-.175.616-.316 1.022-.464.543-.2 1.158-.425 1.346-.732.187-.306.077-1.369.002-1.874-.514.056-2.596.211-4.096-.753-.715-.459-1.767-1.462-2.254-1.94.175 1.026.29 2.087.3 2.8l2.44 2.705Z" fill="#FECD0F"/><path fill-rule="evenodd" clip-rule="evenodd" d="m15.237 19.892-.002.002a.167.167 0 0 0-.002.24l3.788 3.736-3.543-3.97a.168.168 0 0 0-.24-.008ZM15.966 16.516a.168.168 0 0 0-.117.289l2.661 2.564-2.418-2.794a.165.165 0 0 0-.126-.059Z" fill="#000"/><path fill-rule="evenodd" clip-rule="evenodd" d="M12.156 19.222v.299l.568-.435a.184.184 0 0 1 .182-.025.18.18 0 0 1 .11.143c.02.296.09 1.092.202 1.333.106.226.49.672 1.079 1.256a.04.04 0 0 0 .044.01.041.041 0 0 0 .029-.037c.026-.136.048-.299.04-.341-.135-.752-1.277-2.66-1.504-3.035a.156.156 0 0 0-.061-.056l-.953-.502v.377l.264.212v.8Z" fill="#FECD0F"/><path fill-rule="evenodd" clip-rule="evenodd" d="M10.487 21.049a.168.168 0 0 0-.003.242l2.765 2.696-2.52-2.925a.167.167 0 0 0-.242-.013Z" fill="#000"/><mask id="a" mask-type="alpha" maskUnits="userSpaceOnUse" x="1" y="0" width="12" height="20"><path d="m10.702 11.232.263.302-.214.03c-.346.047-.888.166-1.006.283-.16.158-.315.856-.375 1.26l-.005.03-.019.024c-.104.134-.463.57-.72.58h-.013c-.162 0-.347-.123-.565-.373-.207-.013-.7-.078-.874-.399-.1-.185.083-.6.176-.785a.57.57 0 0 1-.005-.072c.004-.249.26-.725.493-.842.168-.085.419-.059.684-.03.236.025.502.054.603-.023.153-.113.226-.799.227-1.226l.001-.312.574.66c.108-.27.226-.615.215-.747-.017-.183-.314-.68-.497-.949l.193-.131c.052.076.509.756.537 1.059.02.236-.194.768-.277.965l.446.514c.218-.314.587-.893.6-1.135.018-.317-.363-1.125-.693-1.72l-.03-.055.201-.119.034.062c.175.314.747 1.383.722 1.845-.02.345-.503 1.06-.676 1.304Zm-4.16-4.03a2.234 2.234 0 0 1-.349.507c-.022.022-.046.045-.07.066a.334.334 0 0 1 .33.098c.105.116.085.545-.05.622-.198.11-.753-.323-.9-.443-.117.03-.234.053-.353.07a.114.114 0 0 1-.13-.104.114.114 0 0 1 .104-.121c.156-.013.313-.036.463-.071.094-.023.186-.048.272-.085a.86.86 0 0 0 .236-.14c.147-.12.272-.275.386-.437.112-.164.214-.337.301-.518-.065.19-.146.375-.24.555Zm-3.24-.739a1.209 1.209 0 1 1 .337-2.367 1.831 1.831 0 1 1 .868 1.118l.002.042c0 .666-.541 1.207-1.207 1.207Zm9.422 3.817h.117l-.084-.082.084-.08h-.117c-.008-.783-.15-2.027-.362-3.169a13.898 13.898 0 0 0-.263-1.185c-.669-2.398-2.466-4.28-5.06-5.3C6.257.155 4.467.154 3.832.56.765 2.517 1.615 5.64 1.894 6.667 2.167 7.67 2.986 8.99 4.396 9.405l.925.088-.787.068a.503.503 0 0 1-.025.255l.439.02-.476.078c-.04.093-.087.174-.116.214-.095.127-.256.267-.428.415-.21.182-.447.387-.52.544a2.079 2.079 0 0 0-.075.182c-.15.425-.234 1.067-.235 1.808-.002.922.124 1.873.323 2.422.23.64 1.35 1.627 1.962 1.955.156.083.384.154.678.211l-.023.117.002-.002.023-.114a9.15 9.15 0 0 0 1.905.139c.427-.018 1.711-.382 2.117-.5l-.292-.713.217-.089 1.025 2.507.887.083v-.56l-.81-.65-.374-1.75.229-.048.134.627c.26-.34.654-.87.835-1.202.025-.045.047-.091.065-.133.462-1.115.685-3.628.722-5.044l.001-.053Z" fill="#fff"/></mask><g mask="url(#a)"><path fill-rule="evenodd" clip-rule="evenodd" d="m10.702 11.232.263.302-.214.03c-.346.047-.888.166-1.006.283-.16.158-.315.856-.375 1.26l-.005.03-.019.024c-.104.134-.463.57-.72.58h-.013c-.162 0-.347-.123-.565-.373-.207-.013-.7-.078-.874-.399-.1-.185.083-.6.176-.785a.57.57 0 0 1-.005-.072c.004-.249.26-.725.493-.842.168-.085.419-.059.684-.03.236.025.502.054.603-.023.153-.113.226-.799.227-1.226l.001-.312.574.66c.108-.27.226-.615.215-.747-.017-.183-.314-.68-.497-.949l.193-.131c.052.076.509.756.537 1.059.02.236-.194.768-.277.965l.446.514c.218-.314.587-.893.6-1.135.018-.317-.363-1.125-.693-1.72l-.03-.055.201-.119.034.062c.175.314.747 1.383.722 1.845-.02.345-.503 1.06-.676 1.304Zm-4.16-4.03a2.234 2.234 0 0 1-.349.507c-.022.022-.046.045-.07.066a.334.334 0 0 1 .33.098c.105.116.085.545-.05.622-.198.11-.753-.323-.9-.443-.117.03-.234.053-.353.07a.114.114 0 0 1-.13-.104.114.114 0 0 1 .104-.121c.156-.013.313-.036.463-.071.094-.023.186-.048.272-.085a.86.86 0 0 0 .236-.14c.147-.12.272-.275.386-.437.112-.164.214-.337.301-.518-.065.19-.146.375-.24.555Zm-3.24-.739a1.209 1.209 0 1 1 .337-2.367 1.831 1.831 0 1 1 .868 1.118l.002.042c0 .666-.541 1.207-1.207 1.207Zm9.422 3.817h.117l-.084-.082.084-.08h-.117c-.008-.783-.15-2.027-.362-3.169a13.898 13.898 0 0 0-.263-1.185c-.669-2.398-2.466-4.28-5.06-5.3C6.257.155 4.467.154 3.832.56.765 2.517 1.615 5.64 1.894 6.667 2.167 7.67 2.986 8.99 4.396 9.405l.925.088-.787.068a.503.503 0 0 1-.025.255l.439.02-.476.078c-.04.093-.087.174-.116.214-.095.127-.256.267-.428.415-.21.182-.447.387-.52.544a2.079 2.079 0 0 0-.075.182c-.15.425-.234 1.067-.235 1.808-.002.922.124 1.873.323 2.422.23.64 1.35 1.627 1.962 1.955.156.083.384.154.678.211l-.023.117.002-.002.023-.114a9.15 9.15 0 0 0 1.905.139c.427-.018 1.711-.382 2.117-.5l-.292-.713.217-.089 1.025 2.507.887.083v-.56l-.81-.65-.374-1.75.229-.048.134.627c.26-.34.654-.87.835-1.202.025-.045.047-.091.065-.133.462-1.115.685-3.628.722-5.044l.001-.053Z" fill="url(#b)"/></g><mask id="c" mask-type="alpha" maskUnits="userSpaceOnUse" x="5" y="17" width="3" height="3"><path d="M5.499 17.758c.113.43.318 1.124.486 1.339.164.21.787.572 1.158.773v-1.337c-.205.01-.57.015-.72-.065-.158-.086-.368-.427-.459-.584a3.474 3.474 0 0 1-.465-.126Z" fill="#fff"/></mask><g mask="url(#c)"><path fill-rule="evenodd" clip-rule="evenodd" d="M5.499 17.758c.113.43.318 1.124.486 1.339.164.21.787.572 1.158.773v-1.337c-.205.01-.57.015-.72-.065-.158-.086-.368-.427-.459-.584a3.474 3.474 0 0 1-.465-.126Z" fill="#356C00"/></g><path fill-rule="evenodd" clip-rule="evenodd" d="M9.265 11.405c-.175.13-.463.1-.768.067a3.496 3.496 0 0 0-.35-.026.48.48 0 0 0-.204.033c-.144.072-.362.452-.365.635 0 .025.003.052.01.078v.002c.063.286.408.735.521.882.022.03.05.064.082.1.262.313.39.33.425.332.097-.004.346-.24.527-.467.032-.205.187-1.113.438-1.36.161-.16.636-.265.928-.316l-.933-1.072c-.021.374-.09.948-.311 1.112ZM7.85 18.526h-.474v1.12l1.546 1.532-1.072-2.652ZM7.38 12.86c.074.13.27.206.476.245a3.987 3.987 0 0 1-.392-.592c-.065.162-.101.303-.084.346Z" fill="#FECD0F"/><path fill-rule="evenodd" clip-rule="evenodd" d="M3.828 3.619a.876.876 0 1 1 1.754 0 .877.877 0 0 1-1.754 0Zm-.683 2.26a.624.624 0 1 1 .001-1.248.624.624 0 0 1-.001 1.248Zm2.261-.43A1.83 1.83 0 1 0 3.64 4.097a1.21 1.21 0 1 0 .87 1.16l-.003-.043c.266.15.572.237.9.237Z" fill="#fff"/><path fill-rule="evenodd" clip-rule="evenodd" d="M6.094 7.601a.86.86 0 0 1-.236.14 1.697 1.697 0 0 1-.271.085c-.15.035-.308.058-.463.071a.114.114 0 0 0-.104.122.114.114 0 0 0 .13.104 3.619 3.619 0 0 0 .487-.107c.1-.03.199-.065.296-.112a.83.83 0 0 0 .19-.129c.024-.02.047-.044.07-.066.146-.153.254-.329.35-.508.093-.18.173-.364.239-.555-.088.181-.19.354-.302.518a2.107 2.107 0 0 1-.386.437Z" fill="#000"/><path fill-rule="evenodd" clip-rule="evenodd" d="M5.637 8.016a4.297 4.297 0 0 1-.134.036c.147.12.701.553.899.443.136-.077.156-.506.05-.622a.334.334 0 0 0-.33-.098.83.83 0 0 1-.189.129 2.07 2.07 0 0 1-.296.112Z" fill="#CA1117"/><path fill-rule="evenodd" clip-rule="evenodd" d="M5.582 3.619a.876.876 0 1 0-1.753-.001.876.876 0 0 0 1.753 0ZM3.145 4.631a.624.624 0 1 0 .001 1.248.624.624 0 0 0-.001-1.248Z" fill="#000"/><path fill-rule="evenodd" clip-rule="evenodd" d="M2.062 10.974c-.092.005-.152.035-.184.093-.098.18.071.606.262.944l.008.014.012.02.02.033-.105.053-.012-.02a.267.267 0 0 1-.017-.03l-.006-.01c-.19-.307-.46-.627-.65-.6-.125.017-.202.196-.244.343-.014.05.068.163.128.244.052.07.1.136.12.194.02.06.025.146.031.236.007.108.014.23.049.28.074.107.278.315.415.315h.003c.043 0 .13-.104.183-.196l.154-.27-.045.307c-.019.128-.01.267.02.286.16.109.48-.03.66-.132v-.002c.002-.73.083-1.37.228-1.82a4.432 4.432 0 0 0-.493-.215 2.301 2.301 0 0 0-.537-.067Z" fill="#FECD0F"/><path fill-rule="evenodd" clip-rule="evenodd" d="M11.936 15.51c-.181.332-.575.862-.835 1.202l-.135-.627-.228.049.375 1.75.809.649v.56l-.887-.083-1.025-2.507-.217.089.292.714c-.406.117-1.69.48-2.117.499a9.15 9.15 0 0 1-1.905-.139l-.023.114-.002.002.023-.117c-.294-.057-.522-.128-.678-.211-.613-.328-1.731-1.316-1.962-1.955-.198-.549-.325-1.5-.323-2.422.001-.74.085-1.383.235-1.808.026-.07.05-.13.074-.182.074-.157.312-.362.521-.544.172-.148.333-.288.428-.415.03-.04.076-.12.116-.214l.476-.079-.44-.019a.503.503 0 0 0 .026-.255l.787-.068-.925-.088c-1.41-.414-2.229-1.734-2.502-2.738C1.615 5.64.764 2.517 3.832.56 4.467.155 6.257.156 7.04.463c2.594 1.02 4.391 2.903 5.06 5.301.088.313.179.722.263 1.185.213 1.142.354 2.386.362 3.17l.117-.002-.084.08.084.083h-.117l-.001.053c-.037 1.416-.26 3.929-.722 5.044-.017.042-.04.088-.065.133Zm-.044 2.322.953.502a.156.156 0 0 1 .06.056c.228.375 1.37 2.283 1.506 3.035a1.65 1.65 0 0 1-.041.341.041.041 0 0 1-.029.037.04.04 0 0 1-.044-.01c-.59-.584-.973-1.03-1.079-1.256-.112-.24-.183-1.037-.201-1.333a.18.18 0 0 0-.111-.143.184.184 0 0 0-.182.025l-.568.435v-1.1l-.264-.212v-.377Zm-5.47.636c.15.08.516.076.72.066v1.336c-.37-.2-.993-.564-1.157-.773-.168-.215-.374-.909-.486-1.339.132.047.288.09.465.126.09.157.3.498.458.584Zm-3.558-5.392v.003c-.181.102-.5.24-.66.131-.03-.02-.04-.158-.02-.285l.045-.308-.154.27c-.053.093-.14.196-.183.196h-.003c-.137 0-.342-.207-.415-.314-.035-.051-.043-.173-.05-.28a1.011 1.011 0 0 0-.031-.237.814.814 0 0 0-.12-.194c-.06-.081-.142-.193-.127-.244.042-.146.118-.325.244-.343.189-.027.46.293.65.6l.005.011a.262.262 0 0 0 .018.029l.011.02.105-.052-.02-.034-.011-.02-.008-.013c-.191-.339-.36-.764-.262-.944.032-.058.092-.089.184-.094.135-.006.408.031.537.067.11.03.383.162.493.216-.145.449-.226 1.09-.228 1.819ZM14.91 9.212c1.501.964 3.583.81 4.096.753.076.505.186 1.568-.002 1.874-.187.307-.802.532-1.346.731-.405.15-.789.29-1.021.465a1.837 1.837 0 0 0-.35.374c-.207.28-.406.644-.599.996-.238.437-.484.888-.717 1.114-.268.257-1.009.668-1.38.669-.298 0-1.046-.438-1.402-.664.01-.02.02-.039.028-.058.503-1.216.701-3.816.738-5.075l2.442 2.386-2.44-2.705c-.01-.713-.125-1.774-.3-2.8.487.478 1.54 1.481 2.253 1.94Zm-7.534 9.314h.474l1.072 2.652-1.546-1.532v-1.12Zm6.215-2.104c.445-.002 1.242-.447 1.542-.735.259-.25.503-.697.76-1.17.19-.345.384-.702.581-.969.11-.149.21-.255.304-.327.204-.153.572-.288.961-.43.607-.224 1.235-.454 1.465-.83.285-.464.044-1.974.016-2.145l-.02-.112-.112.016c-.024.003-2.439.331-4.051-.704-.85-.547-2.25-1.943-2.451-2.145a14.013 14.013 0 0 0-.261-1.17c-.69-2.47-2.537-4.408-5.2-5.455C6.37-.051 4.46-.118 3.705.363.494 2.412 1.378 5.661 1.67 6.728c.287 1.058 1.151 2.446 2.64 2.894.008.063-.06.257-.141.367-.079.106-.231.237-.393.377-.238.207-.484.42-.58.622-.021.046-.043.1-.065.158a4.317 4.317 0 0 0-.5-.218 2.38 2.38 0 0 0-.574-.07c-.134.007-.229.059-.28.153-.077.14-.042.35.03.559-.135-.137-.286-.236-.432-.215-.151.021-.266.165-.34.428-.03.105.059.227.145.345a.77.77 0 0 1 .103.162c.016.046.02.127.026.206.008.128.016.26.069.339.054.078.304.37.516.365.06 0 .117-.042.165-.093.005.082.025.164.08.2a.375.375 0 0 0 .215.06c.179 0 .38-.087.512-.156.01.905.139 1.822.336 2.367.246.684 1.36 1.68 2.025 2.055.06.243.326 1.29.575 1.608.26.332 1.288.868 1.405.928l.17.087v-.28l1.47 1.456a.207.207 0 0 0 .262.027.207.207 0 0 0 .078-.253l-1.178-2.914h-.632v-.01l-.126.01c-.239.02-.62.022-.717-.03-.056-.03-.16-.166-.26-.322a9.892 9.892 0 0 0 1.704.098c.468-.02 1.813-.402 2.197-.515l.699 1.707 1.049.098v.303a.179.179 0 0 0 .29.142l.579-.444c.02.284.087 1.03.215 1.307.15.32.696.896 1.126 1.322a.274.274 0 0 0 .287.065.27.27 0 0 0 .182-.221c.014-.072.059-.312.04-.418-.14-.773-1.21-2.58-1.536-3.116a.392.392 0 0 0-.151-.141l-1.01-.532a.196.196 0 0 0-.286.174v.252l-.334-.268-.16-.742c.263-.335.681-.888.915-1.28.301.191 1.124.69 1.512.69Z" fill="#000"/><path fill-rule="evenodd" clip-rule="evenodd" d="M9.58 11.68c-.25.248-.405 1.155-.437 1.36-.181.228-.43.464-.527.468-.034-.001-.163-.019-.425-.331a1.94 1.94 0 0 1-.082-.1c-.113-.148-.457-.597-.52-.883l-.001-.002a.331.331 0 0 1-.01-.078c.003-.184.221-.564.365-.636a.48.48 0 0 1 .203-.032c.107 0 .234.014.351.026.305.033.593.064.768-.067.22-.165.29-.738.311-1.112l.933 1.072c-.291.05-.766.155-.928.315Zm-2.2 1.18c-.017-.043.018-.185.08-.347.099.2.245.413.378.592-.199-.039-.388-.116-.458-.246Zm3.242-4.839-.202.119.03.054c.331.596.712 1.403.695 1.721-.014.242-.384.821-.601 1.135l-.446-.514c.083-.197.297-.729.276-.965-.027-.303-.484-.983-.536-1.06l-.193.132c.183.27.48.766.497.949.011.132-.107.478-.216.747l-.573-.66-.001.311c-.001.428-.074 1.114-.227 1.227-.101.076-.368.048-.603.023-.265-.029-.516-.056-.684.03-.234.117-.49.593-.494.842 0 .024.002.048.005.072-.092.186-.276.6-.175.785.173.321.666.386.874.4.218.25.403.373.565.373h.013c.256-.011.616-.448.72-.581l.019-.024.004-.03c.06-.404.216-1.102.376-1.26.118-.117.66-.236 1.006-.284l.214-.029-.263-.302c.172-.244.656-.959.676-1.304.025-.462-.547-1.53-.722-1.845l-.034-.062Z" fill="#000"/><defs><linearGradient id="b" x1="5.957" y1=".244" x2="12.182" y2="16.457" gradientUnits="userSpaceOnUse"><stop stop-color="#B8E27F"/><stop offset="1" stop-color="#2A6700"/></linearGradient></defs></svg>