<svg width="24" height="24" fill="none" xmlns="http://www.w3.org/2000/svg"><g clip-path="url(#a)"><path d="M23.95 11.736a11.919 11.919 0 0 1-1.337 5.751l-6.53 2.636.013-.03 7.854-8.357Z" fill="#0F6089"/><path d="m23.95 11.734-7.852 8.359 7.294-11.748c.348 1.097.536 2.238.558 3.389Z" fill="#078FA4"/><path d="m23.392 8.345-7.294 11.748-.02.032-.875-15.203 7.333 2.744.855.68Z" fill="#00AAA6"/><path d="m23.391 8.345-.855-.679.715.267c.05.136.098.274.14.412Z" fill="#00AAA6"/><path d="M23.252 7.933 16.184.76a11.996 11.996 0 0 1 7.068 7.172ZM16.184.76l7.068 7.172-.716-.267-6.722-5.34.369-1.565Z" fill="#1EAAE2"/><path d="m16.083 20.122 6.529-2.637a11.987 11.987 0 0 1-8.165 6.212l1.567-3.423.069-.152Z" fill="#0C7392"/><path d="m22.536 7.666-7.333-2.744.612-2.596 6.721 5.34Z" fill="#1EAAE2"/><path d="m16.183.76-.37 1.566L12.932.038c1.112.086 2.206.33 3.25.723Z" fill="#ABCF3A"/><path d="m16.078 20.414.202-.321-.135.302-.067.02Z" fill="#CD1685"/><path d="m16.084 20.123-.07.151-8.467-6.177.11-.097 7.546-9.078.875 15.203.006-.002Z" fill="#8F9990"/><path d="m16.015 20.274-1.567 3.423a11.914 11.914 0 0 1-3.445.217l-7.45-6.478.217.048 12.245 2.79Z" fill="#CD1685"/><path d="M16.015 20.274 3.77 17.485l3.777-3.388 8.468 6.177Z" fill="#EC1076"/><path d="m15.814 2.326-.611 2.596L12.932.038l2.882 2.288Z" fill="#ABCF3A"/><path d="m12.932.038 2.27 4.884-8.339-3.78a11.926 11.926 0 0 1 6.07-1.104Z" fill="#E0E224"/><path d="M15.203 4.922 7.657 14 4.375 9.953l10.828-5.031Z" fill="#F9A516"/><path d="M15.203 4.922 4.375 9.952l2.488-8.808 8.34 3.778Z" fill="#FDCD11"/><path d="m11.446 24.342-.48-.432.208.034.272.398Z" fill="#CD1685"/><path d="m3.552 17.436 7.449 6.478-.035-.004-8.286-4.384.82-2.136.052.046Zm-.872 2.09 8.286 4.384a11.95 11.95 0 0 1-8.286-4.384Z" fill="#B9204A"/><path d="M4.375 9.953 7.657 14l-.11.097-5.807-.122 2.635-4.022Z" fill="#F05B28"/><path d="m7.547 14.097-3.778 3.388-2.029-3.51 5.807.122Z" fill="#F05B28"/><path d="M6.863 1.144 4.374 9.953 1.74 13.975l.01-.085-1.73-2.57C.26 6.816 2.992 2.973 6.863 1.145Z" fill="#FDCD11"/><path d="m1.74 13.975 2.03 3.51-.218-.049-1.812-3.461Zm1.812 3.461L3.5 17.39l-.82 2.137a11.968 11.968 0 0 1-1.34-2.04l.4-3.51 1.812 3.46Z" fill="#AB1F25"/><path d="m.018 11.321 1.732 2.57-.01.084-.4 3.51L.018 11.32Z" fill="#CB0010"/><path d="m.02 11.321 1.323 6.164A11.917 11.917 0 0 1 .02 11.32Z" fill="#CB0010"/><path d="m18.703 14 .545-2.297c.225-.622.337-1.28.331-1.941a1.74 1.74 0 0 0-.465-1.184l-.081-.087c-.558-.602-1.56-.945-2.382-.945h-.288a2.95 2.95 0 0 0-2.01.789l-.68.633-.116-.266a1.256 1.256 0 0 0-.252-.378 2.977 2.977 0 0 0-3.776-.387l-.67.485v-.048a.83.83 0 0 0-.83-.829H.767L.109 9.953l6.016.11-.884 4.75c-.15.647.26 1.284.92 1.364a1.092 1.092 0 0 0 1.182-.77l1.645-5.083c.178-.593.978-.97 1.593-.89a1.263 1.263 0 0 1 1.051 1.597l-.866 3.776a1.343 1.343 0 0 0 1.292 1.71c.573 0 .864-.364 1.051-.906l1.651-4.908c.192-.556.872-.887 1.45-.777a1.184 1.184 0 0 1 .912 1.503l-.875 3.223a1.442 1.442 0 0 0 1.379 1.863l5.656-.11.656-2.405h-5.235Z" fill="#fff"/></g><defs><clipPath id="a"><path fill="#fff" d="M0 0h24v24H0z"/></clipPath></defs></svg>