<svg width="24" height="24" fill="none" xmlns="http://www.w3.org/2000/svg"><path d="M6.98 10.283h.01l.184.065.173.064.183.054.173.076.184.065.172.065.184.064.173.065.173.065.172.065.184.065.173.075.184.054.172.065.184.065.173.075.183.065.173.054.173.065.184.076.183.064V9.127H6.742l-.173.086-.41.216-.422.227-.421.205-.4.216-.421.227-.421.205-.41.227-.422.216-.41.206-.41.226-.379.195L2 17.768l.421.291.41.292.411.28.421.303.41.292.422.292.184.14.237-.302.4-.54.043-.054-.043-.033-.4-.291-.421-.292-.421-.292-.41-.291-.422-.303-.108-.065.033-5.011.075-.043.421-.206.41-.205.422-.205.421-.205.4-.216.421-.206.421-.194.41-.216.411-.205Z" fill="url(#a)"/><path d="m14.13 22.088-.346.14-.389.162-.388.152-.39.162-.172.064-.205-.097-.39-.205-.388-.184-.378-.205-.389-.194-.389-.184-.389-.205-.388-.194-.39-.195-.388-.194-.389-.206-.367-.183-.389-.194-.043-.022V15.25H6.439v5.746l.39.184.388.194.389.205.389.184.367.205.389.195.389.194.389.194.388.195.39.194.388.195.389.205.378.184.389.205.389.183.15.087.228-.108.389-.14.388-.163.39-.162.377-.15.39-.152-.39-.972-.032-.065Z" fill="url(#b)"/><path d="m21.031 15.068.022 2.376-.097.086-.66.454-.658.475-.659.475-.659.465-.659.464-.648.476-.659.464-.388.28-.27-.204-.649-.508-.658-.497-.66-.508-.647-.496-.12-.087v-2.56l.12-.108.648-.691.659-.68.659-.692.648-.68.637-.67H8.48l.66.691.647.68.66.681.658.692.648.68.097.097v3.1l.562.443.67.508.648.497.659.507.659.497.648.508.237.183.422-.302.658-.454.648-.475.66-.475.658-.454.659-.475.659-.475.659-.454.659-.475.54-.4.108-2.916-.648-.022-.584-.021Z" fill="url(#c)"/><path d="M3.07 9.538h.075l.01-3.176.422-.27.53-.313.518-.313.518-.324.518-.314.53-.324.507-.313.53-.313.518-.324.53-.324h.01l.497.291.53.292.518.302.518.292.519.292.518.291.519.303.507.291.022-.043.518-.94-.518-.302-.53-.292-.518-.291-.518-.292-.519-.302-.518-.292-.519-.292-.529-.302-.508-.292-.021-.01-.508.302-.518.324-.53.324-.507.324-.53.313-.518.314-.518.324-.519.313-.53.324-.507.313-.53.313-.496.314-.022 3.79h.519l.53.012Z" fill="url(#d)"/><path d="m23.375 6.632-.27-.216-.27-.216-.27-.227-.27-.216-.27-.216-.281-.216-.27-.216-.27-.216-.28-.227-.206-.151-.076.086-.27.335-.27.346-.075.086.075.076.27.226.27.227.281.227.28.227.271.237.27.227.28.227.13.108.011 5.109-.14.097-.281.173-.27.173-.27.173-.28.172-.282.173-.27.173-.27.173-.27.173-.27.173-.27.172-.28.173-.27.173-.27.173-.27.173-.282.172-.27.173.27.432.281.432.043.076.227-.14.27-.162.27-.173.281-.162.27-.184.27-.162.27-.173.27-.162.27-.173.281-.162.28-.183.271-.162.27-.173.28-.162.27-.173.27-.162.27-.184.27-.162.271-.172V6.632Z" fill="url(#e)"/><path d="M14.464 9.678V11.88l.086-.032.368-.14.367-.152.356-.14.368-.152.367-.15.356-.141.367-.151.368-.14.356-.152.367-.14.357-.152V3.554l-.41-.26-.422-.237-.421-.238-.41-.26-.422-.237-.421-.237-.41-.249-.422-.248-.41-.249-.421-.237-.422-.249-.41-.248-.41-.238-.422-.237-.227-.13-.194.108-.421.227-.421.216-.4.237-.421.227-.422.216-.42.238.42.238.422.237.259.162.162-.086.4-.216.42-.227.422-.216.162-.086.26.15.42.238.41.238.411.248.422.249.42.237.411.249.421.248.41.238.422.238.421.259.41.237.141.076v4.925H14.486" fill="url(#f)"/><path d="m14.465 11.881 4.083-1.641-4.083-1.135" fill="url(#g)"/><path d="M10.727 11.881V9.148L6.99 10.261l3.737 1.61" fill="url(#h)"/><defs><linearGradient id="a" x1="6.361" y1="9.13" x2="6.361" y2="19.654" gradientUnits="userSpaceOnUse"><stop stop-color="#F6E93D"/><stop offset=".13" stop-color="#F8E330"/><stop offset=".35" stop-color="#F7C730"/><stop offset=".64" stop-color="#F59C2E"/><stop offset=".98" stop-color="#EB5E2C"/><stop offset="1" stop-color="#EB5C2C"/></linearGradient><linearGradient id="b" x1="10.497" y1="15.255" x2="10.497" y2="23.999" gradientUnits="userSpaceOnUse"><stop stop-color="#F6E93D"/><stop offset=".13" stop-color="#F8E330"/><stop offset=".35" stop-color="#F7C730"/><stop offset=".64" stop-color="#F59C2E"/><stop offset=".98" stop-color="#EB5E2C"/><stop offset="1" stop-color="#EB5C2C"/></linearGradient><linearGradient id="c" x1="15.371" y1="12.701" x2="15.371" y2="22.47" gradientUnits="userSpaceOnUse"><stop stop-color="#F6E93D"/><stop offset=".13" stop-color="#F8E330"/><stop offset=".35" stop-color="#F7C730"/><stop offset=".64" stop-color="#F59C2E"/><stop offset=".98" stop-color="#EB5E2C"/><stop offset="1" stop-color="#EB5C2C"/></linearGradient><linearGradient id="d" x1="7.486" y1="1.937" x2="7.486" y2="9.539" gradientUnits="userSpaceOnUse"><stop stop-color="#F6E93D"/><stop offset=".13" stop-color="#F8E330"/><stop offset=".35" stop-color="#F7C730"/><stop offset=".64" stop-color="#F59C2E"/><stop offset=".98" stop-color="#EB5E2C"/><stop offset="1" stop-color="#EB5C2C"/></linearGradient><linearGradient id="e" x1="20.517" y1="4.512" x2="20.517" y2="16.062" gradientUnits="userSpaceOnUse"><stop stop-color="#F6E93D"/><stop offset=".13" stop-color="#F8E330"/><stop offset=".35" stop-color="#F7C730"/><stop offset=".64" stop-color="#F59C2E"/><stop offset=".98" stop-color="#EB5E2C"/><stop offset="1" stop-color="#EB5C2C"/></linearGradient><linearGradient id="f" x1="14.166" y1="0" x2="14.166" y2="11.884" gradientUnits="userSpaceOnUse"><stop stop-color="#F6E93D"/><stop offset=".13" stop-color="#F8E330"/><stop offset=".35" stop-color="#F7C730"/><stop offset=".64" stop-color="#F59C2E"/><stop offset=".98" stop-color="#EB5E2C"/><stop offset="1" stop-color="#EB5C2C"/></linearGradient><linearGradient id="g" x1="16.502" y1="9.113" x2="16.502" y2="11.888" gradientUnits="userSpaceOnUse"><stop stop-color="#F6E93D"/><stop offset=".13" stop-color="#F8E330"/><stop offset=".35" stop-color="#F7C730"/><stop offset=".64" stop-color="#F59C2E"/><stop offset=".98" stop-color="#EB5E2C"/><stop offset="1" stop-color="#EB5C2C"/></linearGradient><linearGradient id="h" x1="8.814" y1="11.195" x2="9.695" y2="8.773" gradientUnits="userSpaceOnUse"><stop stop-color="#F6E93D"/><stop offset=".13" stop-color="#F8E330"/><stop offset=".35" stop-color="#F7C730"/><stop offset=".64" stop-color="#F59C2E"/><stop offset=".98" stop-color="#EB5E2C"/><stop offset="1" stop-color="#EB5C2C"/></linearGradient></defs></svg>