<svg width="24" height="24" viewBox="0 0 24 24" fill="none" xmlns="http://www.w3.org/2000/svg">
<path d="M12 24C18.6274 24 24 18.6274 24 12C24 5.37258 18.6274 0 12 0C5.37258 0 0 5.37258 0 12C0 18.6274 5.37258 24 12 24Z" fill="#199248"/>
<path d="M12 3C7.02975 3 3 7.02975 3 12C3 16.9703 7.02975 21 12 21C16.9703 21 21 16.9703 21 12C21 9.61305 20.0518 7.32387 18.364 5.63604C16.6761 3.94821 14.3869 3 12 3ZM14.0573 19.677C13.0219 19.9529 11.9414 20.0166 10.8808 19.8642C9.82025 19.7118 8.80142 19.3465 7.88562 18.7903C6.96981 18.2341 6.17594 17.4984 5.55174 16.6276C4.92754 15.7567 4.4859 14.7685 4.25337 13.7226C4.02084 12.6766 4.00223 11.5945 4.19865 10.5411C4.39507 9.48782 4.80247 8.48509 5.39635 7.59325C5.99024 6.7014 6.75834 5.93887 7.65447 5.35149C8.55061 4.7641 9.55627 4.36401 10.611 4.17525C12.6273 3.81899 14.7033 4.25464 16.4063 5.39138C18.1093 6.52813 19.3078 8.27826 19.7522 10.277C20.1965 12.2757 19.8524 14.3688 18.7914 16.12C17.7304 17.8712 16.0346 19.1454 14.0573 19.677Z" fill="white"/>
<path d="M14.1977 5.4654C14.1977 5.85315 14.1977 6.24015 14.2127 6.6279C13.694 6.42662 13.154 6.28521 12.6032 6.2064C12.5807 5.85465 12.6812 5.4684 12.5784 5.13465C12.1861 5.10668 11.7924 5.10192 11.3994 5.1204C11.3799 5.4819 11.3874 5.8449 11.3994 6.2079C10.8484 6.29034 10.3085 6.43475 9.78995 6.6384C9.8012 6.2469 9.80495 5.85615 9.7997 5.4639C8.43062 5.92489 7.24076 6.80395 6.39786 7.97716C5.55497 9.15037 5.10156 10.5585 5.10156 12.0031C5.10156 13.4478 5.55497 14.8559 6.39786 16.0291C7.24076 17.2023 8.43062 18.0814 9.7997 18.5424C9.7997 18.1584 9.79595 17.7759 9.78845 17.3934C10.3031 17.5948 10.8403 17.7331 11.3882 17.8051C11.3882 18.1569 11.3882 18.5086 11.3672 18.8566C11.7872 18.9166 12.2132 18.9166 12.6332 18.8566C12.6141 18.5102 12.6041 18.1634 12.6032 17.8164C13.1515 17.7393 13.6897 17.6025 14.2082 17.4084C14.1963 17.7883 14.1963 18.1685 14.2082 18.5484C15.5767 18.0864 16.7657 17.2065 17.6077 16.0329C18.4496 14.8592 18.902 13.451 18.9011 12.0066C18.9002 10.5622 18.446 9.15445 17.6026 7.98187C16.7592 6.80928 15.569 5.93094 14.1999 5.47065L14.1984 5.4654H14.1977ZM15.2252 15.9166C14.3192 16.7379 13.0322 16.9321 11.8502 16.9149C10.8129 16.9149 9.71495 16.6336 8.9657 15.8829C8.5682 15.4989 8.3432 14.9859 8.14145 14.4766C8.86595 14.2891 9.6137 14.2261 10.3434 14.0701C10.3888 14.2908 10.4916 14.4955 10.6415 14.6637C10.7914 14.8319 10.983 14.9575 11.1969 15.0279C11.8592 15.2349 12.6797 15.2641 13.2317 14.7916C13.6232 14.4669 13.6344 13.7566 13.1492 13.5136C12.0114 12.9256 10.5939 13.1251 9.51845 12.3811C8.0372 11.4474 7.9277 8.9709 9.37745 7.9629C10.4859 7.18515 11.9679 7.0884 13.2534 7.4004C14.4159 7.6944 15.2447 8.6799 15.6437 9.77115C14.9282 9.8949 14.2134 10.0216 13.4979 10.1424C13.3097 9.00615 11.7189 8.73615 10.9284 9.3984C10.4784 9.77265 10.5939 10.5699 11.1564 10.7694C12.3864 11.2794 13.8639 11.1324 14.9537 11.9859C16.2189 12.8439 16.3509 14.8929 15.2244 15.9159L15.2252 15.9166Z" fill="white"/>
</svg>
