<svg width="24" height="24" viewBox="0 0 24 24" fill="none" xmlns="http://www.w3.org/2000/svg">
<g clip-path="url(#clip0)">
<path d="M11.9999 23.5145C18.3592 23.5145 23.5145 18.3592 23.5145 11.9999C23.5145 5.6406 18.3592 0.485352 11.9999 0.485352C5.6406 0.485352 0.485352 5.6406 0.485352 11.9999C0.485352 18.3592 5.6406 23.5145 11.9999 23.5145Z" fill="white" stroke="#3E4B52"/>
<path fill-rule="evenodd" clip-rule="evenodd" d="M10.0528 18.827C9.15531 18.735 8.2678 18.533 7.83201 17.9676C7.75568 17.8687 7.75544 17.7191 7.59049 17.68C7.57667 18.1489 7.87081 18.5211 8.14091 18.7969C8.28167 18.9406 8.4474 19.062 8.62258 19.1681C8.80209 19.277 8.7958 19.3371 8.61088 19.2737C8.0458 19.0799 7.5144 18.8485 7.09008 18.4974C6.75614 19.0494 6.26424 19.496 5.76752 19.9204C5.65637 20.0153 5.65765 19.9221 5.75272 19.7876C5.97968 19.4662 6.57157 18.8879 6.7078 18.3869C6.77336 18.1457 6.6414 17.7194 6.46337 17.7045C6.28076 17.6892 6.16219 17.9264 6.08714 18.0449C5.97732 18.2187 5.91191 18.3592 5.83067 18.5105C5.6218 18.0672 5.7984 17.5282 6.0448 17.2762C5.63281 16.8397 5.23136 16.3913 4.78608 15.9918C4.60534 15.8297 4.66863 15.7111 4.88749 15.8124C5.54404 16.1163 6.14626 16.5012 6.53872 17.0233C6.33309 16.3144 6.09245 15.5738 5.81921 14.9508C5.75827 14.8119 5.82924 14.7804 5.9245 14.8982C6.36506 15.4427 6.75368 16.0453 7.0857 16.7111C7.01827 15.7483 7.04596 14.8308 7.40247 14.2676C7.42721 14.2285 7.45244 14.1206 7.52754 14.1477C7.64262 14.4957 7.72441 14.8041 7.86659 15.1823C7.92432 15.3354 8.18631 16.0645 8.38401 16.0377C8.51591 16.0199 8.54306 15.6986 8.55821 15.4451C8.62175 14.381 8.46649 13.1569 8.39734 12.1816C8.55585 12.0144 8.76885 11.8032 8.93203 11.6443C8.98716 11.5906 9.05085 11.497 9.11331 11.5215C9.0989 11.7636 9.13303 12.0184 9.13588 12.2726C9.14306 12.9267 9.1556 13.6482 9.40372 14.0633C9.60939 13.8946 9.6718 13.592 9.73947 13.3301C9.9595 12.4789 10.0914 11.5151 10.2294 10.6138C10.6013 10.2774 11.0317 9.88625 11.3934 9.55295C11.4383 9.51149 11.4745 9.43025 11.5381 9.45095C11.6348 9.88713 11.616 10.452 11.9063 10.6719C12.1459 10.4221 12.2036 10.0592 12.2662 9.69297C12.2954 9.52226 12.3199 9.31639 12.3477 9.12429C12.3752 8.93357 12.3634 8.68472 12.4282 8.53684C12.5084 8.35364 12.9226 8.09082 13.1274 7.91534C14.7914 6.49034 16.5696 5.0229 18.5938 4.04102C19.0398 4.41459 19.3357 5.10282 19.3178 5.91946C19.3026 6.6158 19.0119 7.24452 18.7045 7.75865C18.393 8.27952 18.0095 8.75082 17.6371 9.20918C17.1187 9.84715 16.5022 10.6091 15.9465 11.2958C15.7926 11.4861 15.4969 11.9181 15.3441 11.9684C15.235 12.0043 15.1048 11.968 14.9868 11.9692C14.4413 11.9753 13.8835 12.0511 13.7137 12.4155C13.9651 12.6853 14.5404 12.5938 15.0219 12.6069C14.379 13.5606 13.6537 14.5046 12.9414 15.4671C12.8505 15.5899 12.7231 15.8467 12.6256 15.8795C12.4325 15.9446 12.0321 15.85 11.7214 15.854C10.4599 15.8704 9.02424 16.0067 8.5377 16.7817C10.1216 16.9039 11.7139 17.0169 13.4208 17.0018C12.0678 17.7552 9.73475 17.4772 8.20726 17.2701C8.52713 18.0943 9.2248 18.4965 10.069 18.7352C10.2253 18.7792 10.2263 18.8449 10.0528 18.827ZM16.8321 6.88374C14.4185 9.58251 12.0297 12.3035 9.92178 15.276C11.1445 13.9826 12.4557 12.706 13.6154 11.3113C14.7804 9.91005 15.7786 8.37193 16.8321 6.88374Z" fill="#3E4B52"/>
</g>
<defs>
<clipPath id="clip0">
<rect width="24" height="24" fill="white"/>
</clipPath>
</defs>
</svg>
