<svg width="24" height="24" fill="none" xmlns="http://www.w3.org/2000/svg"><g clip-path="url(#a)"><path d="M12 24c6.627 0 12-5.373 12-12S18.627 0 12 0 0 5.373 0 12s5.373 12 12 12Z" fill="#1666AE"/><path d="M7.229 20.714a.34.34 0 1 0-.154-.126l-.85.85H4.598c.088.068.175.135.264.201h1.441l.927-.925Zm-5.176-4.406a.341.341 0 1 0-.196.02l-.016.86-.43.438.1.186.527-.535.015-.969ZM6.65 3.065a.342.342 0 1 0 .153-.126l-.695-.674-1.106-.007c-.09.065-.18.132-.27.2l1.3.01.618.597Zm.237 1.603a.354.354 0 0 0-.13.025l-.695-.674L3.3 4.008v.201l2.685.012.619.597a.342.342 0 1 0 .283-.15Zm-.17 12.956a.341.341 0 0 0-.284.53l-.62.599-2.684.011v.202l2.761-.012.696-.673a.342.342 0 1 0 .13-.657Zm10.42-9.513.144-.143-.145-.145v.286l.002.002ZM16.11 6.8l-1.9-.016a.341.341 0 1 0 .02.198l1.792.015.883.884v-.286L16.11 6.8Zm-4.472.764c.045 0 .09-.009.13-.026l.6.593h2.283V7.93h-2.205l-.523-.518a.343.343 0 1 0-.285.153Z" fill="#7290C9"/><path d="m16.083 2.575.015 2.117.807.819v4.641h.233l-.003-2.043v-.285L17.13 5.44l-.835-.836-.016-2.009a.34.34 0 1 0-.197-.02Zm3.442 4.466a.342.342 0 1 0-.153.126l1.037.86 2.906.011-.073-.201-2.756-.01-.96-.786Z" fill="#7290C9"/><path d="m23.15 8.627-3.145-.012-1.1-.908a.342.342 0 1 0-.153.126l1.177.984 3.214.011a.352.352 0 0 1 .006-.201Zm-3.524-3.345a.341.341 0 1 0-.154.126l.941.849 2.12.014a8.443 8.443 0 0 0-.113-.203l-1.929-.014-.865-.772ZM2.124 6.811a.34.34 0 1 0 .197.02l-.066-1.266-.225-.227-.113.173.142.142.065 1.158ZM14.36 19.7a.341.341 0 0 0-.285.531l-.353.415h-2.949l-.724.802a.34.34 0 1 0 .186.445.34.34 0 0 0-.032-.32l.648-.725H13.8l.429-.492a.34.34 0 1 0 .13-.657Zm-.59-17.497.648.726a.342.342 0 1 0 .154-.126l-.724-.801h-2.95l-.353-.415a.342.342 0 1 0-.154.126l.43.491h2.95Zm8.124 11.358a.341.341 0 0 0 .175.576l.013 1.242-1 .843-.038 1.142a.341.341 0 1 0 .198-.02l.038-1.033 1-.844-.013-1.35a.341.341 0 1 0-.373-.556Zm-15.24 6.5a.34.34 0 1 0-.154-.125l-.85.85H3.837c.073.068.147.136.222.202h1.668l.928-.927Z" fill="#7290C9"/><path d="M11.754 19.785a.34.34 0 1 0 .02-.197H9.97l-.84.84v-2.14l.71-.703-.013-2.21a.342.342 0 1 0-.198.02l.013 2.101-.74.71-.003 2.451v.002l-.003 2.13h.233v-2.077l.928-.928h1.698ZM9.13 2.335l.003 2.453.74.708-.013 2.102a.341.341 0 1 0 .198.02l.013-2.21-.71-.702v-2.14l.84.84h1.807a.341.341 0 1 0-.02-.198h-1.699l-.928-.927V.292a9.09 9.09 0 0 0-.232.055l.003 1.986-.002.002Zm7.774 17.596a.34.34 0 0 0-.452-.17.34.34 0 0 0-.17.453.34.34 0 0 0 .453.169.343.343 0 0 0 .196-.255h1.931l.958.966.152-.132-1.028-1.033-2.04.002Zm1.925 1.243a.342.342 0 0 0-.467.498.342.342 0 0 0 .571-.194h.418c.083-.065.166-.131.248-.199l-.692.002a.354.354 0 0 0-.078-.107Zm-5.293-2.395a.342.342 0 0 0-.194-.572l.001-2.024-.2-.004.002 2.054a.341.341 0 1 0 .284.622.337.337 0 0 0 .107-.076Zm-10.5-.926a.342.342 0 0 0-.499-.467.342.342 0 0 0 .194.571l-.036 1.606c.063.079.128.157.195.233l.038-1.866a.341.341 0 0 0 .108-.077ZM20.91 4.548a.341.341 0 1 0 .104.304h.614l-.15-.199-.491.001a.337.337 0 0 0-.077-.106ZM19.48 3.32a.341.341 0 1 0 .103.304l1 .001a12.627 12.627 0 0 0-.2-.2l-.827.002a.323.323 0 0 0-.076-.107ZM7.245 2.659a.342.342 0 1 0 .142-.288l-.984-.985a8.617 8.617 0 0 0-.183.1L7.266 2.53a.331.331 0 0 0-.02.13ZM2.8 5.154a.341.341 0 1 0 .305-.103V3.958l-.2.227.003.892a.358.358 0 0 0-.108.077ZM18.602 17.18l-2.04.003a.34.34 0 0 0-.451-.169.34.34 0 0 0-.17.452.34.34 0 0 0 .649-.086h1.931l.99.997h-2.077a.34.34 0 0 0-.453-.168.34.34 0 1 0 .48.366h4.568c.043-.066.087-.133.129-.2l-2.363.002-1.193-1.197ZM5.918 8.057a.341.341 0 1 0-.062-.374H3.78l.988-.997L6.7 6.685a.341.341 0 1 0 .026-.198l-2.04-.003-1.19 1.196H.816c-.026.066-.05.134-.075.2l5.09-.001c.01.067.04.13.087.178Zm-1.79 9.827a.346.346 0 0 0 .088-.179l.845.001a.342.342 0 1 0 0-.2l-.87.003a.34.34 0 0 0-.453-.17.34.34 0 0 0-.169.453.34.34 0 0 0 .559.092ZM5.651 5.061a.342.342 0 0 0-.328.244l-.87.003a.34.34 0 1 0-.169.452.343.343 0 0 0 .196-.255h.845a.342.342 0 1 0 .326-.444Zm10.787 8.56a.34.34 0 0 0-.445.186.34.34 0 1 0 .599-.06l.914-.892 5.634-.012v-.202l-5.712.012-.99.968Zm-.138.583a.264.264 0 1 1 0-.527.264.264 0 0 1 0 .527ZM4.51 16.59l2.068.015a.341.341 0 1 0-.02-.197l-1.9-.016-1.119-1.275H.423c.021.08.044.159.067.237h2.972L4.51 16.59Zm2.205-.3a.265.265 0 0 1 .374 0 .265.265 0 0 1 0 .373.264.264 0 1 1-.373-.373Z" fill="#7290C9"/><path d="m15.908 13.094.914-.892 2.684-.012v-.201L16.744 12l-.99.969a.34.34 0 1 0-.26.631.34.34 0 0 0 .446-.186.338.338 0 0 0-.032-.32Zm-.275.458a.264.264 0 1 1 0-.527.264.264 0 0 1 0 .527Zm-6.71-.163.526-.488 2.668.004.938-.904-.078-.186-.947.9H9.355l-.586.55a.342.342 0 1 0 .153.124Zm-.276.458a.264.264 0 1 1 0-.528.264.264 0 0 1 0 .528ZM6.834 9.012a.427.427 0 1 0 .192.156l.38-.286-.117-.232-.455.362Zm-.153.69a.29.29 0 1 1 0-.58.29.29 0 0 1 0 .58Zm-4.725 4.052h.776v-.232h-.636L.963 12.388h.513v-.28H.016c0 .1.003.197.005.295h.63l1.305 1.351Zm.497-2.607.03-.233-1.427-1.428H.28a12.82 12.82 0 0 0-.039.186h.738l1.475 1.475Zm20.697-2.52a.357.357 0 0 0 .475.443 11.52 11.52 0 0 0-.193-.682.355.355 0 0 0-.282.239ZM11.255 13.8h1.693v.217h-1.693v-.217Z" fill="#7290C9"/><path d="M14.215 7.452v1.785h-1.486v7.312h8.337V7.452h-6.851Zm4.916 6.986h-4.467V9.563h4.467v4.874Z" fill="#FFFFFA"/><path d="M8.865 14.778v1.77H6.55s-2.336.03-3.703-2.073a4.736 4.736 0 0 1-.608-3.781c.333-1.268 1.26-2.77 3.72-3.243h5.42v1.693H6.597s-2.52.866-2.488 2.957c.014.92.532 1.753 1.329 2.213.359.206.751.347 1.16.418l2.266.046Z" fill="#fff"/><path d="M6.598 11.146v1.661H9.61v3.741h1.77v-5.401H6.598Z" fill="#fff"/></g><defs><clipPath id="a"><path fill="#fff" d="M0 0h24v24H0z"/></clipPath></defs></svg>