<svg width="24" height="24" fill="none" xmlns="http://www.w3.org/2000/svg"><path fill-rule="evenodd" clip-rule="evenodd" d="M9.136 7.026v.13c0 2.163 2.78 3.317 2.866 3.353v-7.96c-.087.083-2.866 2.747-2.866 4.477Z" fill="#5CFF96"/><path fill-rule="evenodd" clip-rule="evenodd" d="M12.003 2.548v7.96c.087-.035 2.866-1.189 2.866-3.352v-.13c0-1.73-2.779-4.395-2.866-4.478Z" fill="#00B269"/><path fill-rule="evenodd" clip-rule="evenodd" d="M11.95 10.327s-1.169-1.087-3.375-.94c-2.207.148-3.212 3.142-4.61 3.044 0 0 2.411 1.961 4.494 2.302 1.876.286 3.817-1.112 3.49-4.406Z" fill="#5CFF96"/><path fill-rule="evenodd" clip-rule="evenodd" d="M12.004 10.248s.486-.484 1.646-.745c.454-.101.991-.157 1.61-.116 2.207.148 3.212 3.142 4.61 3.044 0 0-2.41 1.96-4.493 2.302-1.524.232-3.091-.646-3.45-2.75-.084-.486.016-1.116.077-1.735Z" fill="#00B269"/><path fill-rule="evenodd" clip-rule="evenodd" d="m11.919 20.089-9.976-5.76V4.835L11.92 0l9.975 4.834v9.496l-9.975 5.759Zm-8.952-6.35 8.952 5.168 8.952-5.168V5.475l-8.952-4.338-8.952 4.338v8.264Z" fill="#241F21"/><mask id="a" mask-type="alpha" maskUnits="userSpaceOnUse" x="1" y="0" width="21" height="24"><path d="M1.92 23.975h19.995V0H1.92v23.975Z" fill="#fff"/></mask><g mask="url(#a)" fill-rule="evenodd" clip-rule="evenodd"><path d="M11.692 19.498h.48v-9.25h-.48v9.25Z" fill="#241F21"/><path d="M11.98 23.422 1.92 17.614v.553l10.06 5.808 9.935-5.737v-.553l-9.936 5.737Z" fill="#54BD87"/><path d="M1.92 16.494v.553l10.06 5.808 9.935-5.736v-.554l-9.936 5.736-10.06-5.807Z" fill="#54BD87"/><path d="m11.98 21.735 9.935-5.737v-.553l-9.936 5.736-10.06-5.808v.554l10.06 5.808Z" fill="#54BD87"/><path d="m11.918 10.774-9.57-5.081.212-.398 9.358 4.969 9.358-4.97.211.399-9.57 5.081Z" fill="#241F21"/></g></svg>