<svg width="24" height="24" viewBox="0 0 24 24" fill="none" xmlns="http://www.w3.org/2000/svg">
<path d="M12 24C18.6274 24 24 18.6274 24 12C24 5.37258 18.6274 0 12 0C5.37258 0 0 5.37258 0 12C0 18.6274 5.37258 24 12 24Z" fill="#3C80F1"/>
<path d="M12.0634 3C7.96086 3.003 4.63536 6.327 4.63086 10.4288C4.63461 10.8292 4.67961 11.2282 4.76436 11.6198C4.76868 11.6383 4.7775 11.6554 4.79005 11.6697C4.8026 11.684 4.81848 11.695 4.83629 11.7017C4.8541 11.7084 4.87328 11.7105 4.89214 11.708C4.91099 11.7055 4.92893 11.6984 4.94436 11.6873C5.2283 11.4839 5.56863 11.3743 5.91786 11.3737C5.93473 11.3743 5.95152 11.3711 5.96702 11.3644C5.98251 11.3577 5.99631 11.3476 6.00744 11.3349C6.01856 11.3222 6.02672 11.3072 6.03134 11.291C6.03595 11.2747 6.0369 11.2577 6.03411 11.241C5.98472 10.9758 5.95912 10.7067 5.95761 10.437C5.95761 9.63528 6.11552 8.84141 6.42232 8.10072C6.72913 7.36002 7.17882 6.68701 7.74572 6.12011C8.31262 5.55321 8.98563 5.10352 9.72633 4.79672C10.467 4.48991 11.2609 4.332 12.0626 4.332C12.8643 4.332 13.6582 4.48991 14.3989 4.79672C15.1396 5.10352 15.8126 5.55321 16.3795 6.12011C16.9464 6.68701 17.3961 7.36002 17.7029 8.10072C18.0097 8.84141 18.1676 9.63528 18.1676 10.437C18.1676 13.8045 13.8596 18.1058 12.3176 19.6245C12.2497 19.6911 12.1584 19.7284 12.0634 19.7284C11.9683 19.7284 11.877 19.6911 11.8091 19.6245C11.1563 18.9874 10.5228 18.3309 9.90936 17.6558H9.87936C9.28942 17.5978 8.71025 17.459 8.15811 17.2432L8.05611 17.202C8.03249 17.1911 8.00585 17.1886 7.98063 17.195C7.9554 17.2013 7.9331 17.2161 7.91742 17.2368C7.90175 17.2576 7.89364 17.2831 7.89445 17.3091C7.89525 17.3351 7.90493 17.36 7.92186 17.3798C8.87657 18.5206 9.88967 19.6113 10.9571 20.6475C11.2525 20.9356 11.6488 21.0969 12.0615 21.0969C12.4741 21.0969 12.8704 20.9356 13.1659 20.6475C15.8809 17.9655 19.4959 13.998 19.4959 10.4288C19.4914 6.32625 16.1659 3.003 12.0634 3Z" fill="white"/>
<path d="M15.1537 11.1801C15.1537 11.2851 15.1455 11.3879 15.1357 11.4899C15.1087 11.8804 15.0183 12.2639 14.868 12.6254C14.706 12.9854 14.49 13.3176 14.2282 13.6124L14.2357 13.6191C13.7172 14.1985 13.0769 14.6559 12.3607 14.9586C11.6515 15.2637 10.8776 15.388 10.1085 15.3201C9.37555 15.2473 8.67503 14.9815 8.07823 14.5499C8.27098 14.5439 8.46223 14.5146 8.64823 14.4629C8.81619 14.4164 8.97713 14.3475 9.12673 14.2581C9.45014 14.065 9.70104 13.7709 9.84073 13.4211C9.90598 13.2614 9.95023 13.0949 9.97423 12.9239C9.98923 12.7814 9.99298 12.6366 9.98773 12.4926V7.62511C9.98738 7.62036 9.98738 7.6156 9.98773 7.61086V7.58536C9.9986 7.52671 10.0277 7.473 10.071 7.43191C10.1142 7.39082 10.1693 7.36447 10.2285 7.35661H11.8357C12.2167 7.38661 12.5895 7.48636 12.9345 7.65136C13.6535 7.99129 14.2548 8.5378 14.6617 9.22111C14.7607 9.38911 14.8477 9.56461 14.9205 9.74611C14.9902 9.92611 15.0457 10.1136 15.0855 10.3026C15.1252 10.4916 15.1477 10.6836 15.153 10.8764V11.1809L15.1537 11.1801ZM16.4767 10.8306C16.4686 10.5605 16.4362 10.2917 16.38 10.0274C16.2685 9.50457 16.0718 9.00366 15.798 8.54461C15.2551 7.63162 14.4514 6.90205 13.4902 6.44986C12.9991 6.21667 12.4693 6.07583 11.9272 6.03435C11.859 6.03435 11.793 6.03436 11.718 6.02686H10.2195C10.1715 6.02686 10.122 6.02686 10.0732 6.03736C9.87748 6.05986 9.68698 6.11986 9.51223 6.21286C9.272 6.34122 9.06833 6.52852 8.92035 6.75719C8.77237 6.98585 8.68492 7.24838 8.66623 7.52011V12.4926C8.66623 12.5796 8.66023 12.6666 8.64823 12.7529C8.64073 12.8114 8.62648 12.8684 8.60548 12.9239C8.58906 12.9651 8.56628 13.0036 8.53798 13.0379C8.4688 13.1121 8.37891 13.1638 8.27998 13.1864C8.13223 13.2239 7.97998 13.2359 7.82773 13.2216C7.28466 13.1684 6.77366 12.9399 6.37198 12.5706C6.25661 12.4639 6.10709 12.4016 5.95008 12.3949C5.79308 12.3882 5.63879 12.4375 5.51475 12.534C5.3907 12.6305 5.30496 12.7679 5.27281 12.9217C5.24066 13.0755 5.2642 13.2358 5.33923 13.3739C5.8072 14.2286 6.44958 14.9755 7.22473 15.5661C7.6245 15.8643 8.06239 16.1078 8.52673 16.2899C8.99279 16.4717 9.48159 16.5888 9.97948 16.6379C10.9678 16.7294 11.9635 16.5737 12.8767 16.1849C13.7864 15.8086 14.593 15.2206 15.2295 14.4696L15.2377 14.4764C15.5889 14.0793 15.8772 13.6309 16.0927 13.1466C16.297 12.6535 16.4199 12.1304 16.4565 11.5979C16.467 11.4644 16.4737 11.3436 16.4782 11.2161V11.0279C16.4835 10.9724 16.479 10.8966 16.4782 10.8306H16.4767Z" fill="white"/>
</svg>
