<svg width="24" height="24" fill="none" xmlns="http://www.w3.org/2000/svg"><g clip-path="url(#a)"><path d="M0 12.168h10.522l-6.62-6.562L0 12.168Z" fill="url(#b)"/><path d="M12.06 2v5.97L6.088 2h5.97Z" fill="url(#c)"/><path d="m10.522 12.168-6.561 6.62L0 12.168h10.522Z" fill="url(#d)"/><path d="M12.06 7.97 18.005 2h-5.947v5.97Z" fill="url(#e)"/><path d="m24 12.168-3.96-6.562-6.562 6.562H24Z" fill="url(#f)"/><path d="m20.158 18.788-6.68-6.62H24l-3.842 6.62Z" fill="url(#g)"/><path d="M12.06 16.364v6.089H6.088l5.97-6.089Z" fill="url(#h)"/><path d="M18.006 22.453h-5.947v-6.089l5.947 6.089Z" fill="url(#i)"/></g><defs><linearGradient id="b" x1="5.277" y1="11.076" x2="5.356" y2="5.716" gradientUnits="userSpaceOnUse"><stop stop-color="#43C465"/><stop offset="1" stop-color="#14A53C"/></linearGradient><linearGradient id="c" x1="11.739" y1="4.972" x2="6.222" y2="4.735" gradientUnits="userSpaceOnUse"><stop stop-color="#33C2F7"/><stop offset="1" stop-color="#0F95B2"/></linearGradient><linearGradient id="d" x1="5.343" y1="18.78" x2="5.264" y2="12.395" gradientUnits="userSpaceOnUse"><stop stop-color="#43C465"/><stop offset="1" stop-color="#14A53C"/></linearGradient><linearGradient id="e" x1="12.796" y1="4.973" x2="17.604" y2="4.894" gradientUnits="userSpaceOnUse"><stop stop-color="#03B7F9"/><stop offset="1" stop-color="#0F95B2"/></linearGradient><linearGradient id="f" x1="18.713" y1="11.282" x2="18.556" y2="5.844" gradientUnits="userSpaceOnUse"><stop stop-color="#43C465"/><stop offset="1" stop-color="#14A53C"/></linearGradient><linearGradient id="g" x1="18.822" y1="19.13" x2="18.743" y2="12.509" gradientUnits="userSpaceOnUse"><stop stop-color="#43C465"/><stop offset="1" stop-color="#14A53C"/></linearGradient><linearGradient id="h" x1="11.868" y1="19.414" x2="5.957" y2="19.571" gradientUnits="userSpaceOnUse"><stop stop-color="#FFF58E"/><stop offset="1" stop-color="#FFCA20"/></linearGradient><linearGradient id="i" x1="12.544" y1="19.434" x2="17.036" y2="19.671" gradientUnits="userSpaceOnUse"><stop stop-color="#FEDA5A"/><stop offset="1" stop-color="#FFCA20"/></linearGradient><clipPath id="a"><path fill="#fff" d="M0 0h24v24H0z"/></clipPath></defs></svg>