<svg width="24" height="24" fill="none" xmlns="http://www.w3.org/2000/svg"><path d="M12 24c6.627 0 12-5.373 12-12S18.627 0 12 0 0 5.373 0 12s5.373 12 12 12Z" fill="#96B73D"/><path d="M8.695 12.079c.065.193.16.375.283.538l-1.87-1.888a1.05 1.05 0 0 1 0-1.478l2.359-2.36a1.88 1.88 0 0 0 .14-.115l.068-.06 1.91-1.912a1.033 1.033 0 0 1 1.465.002l6.258 6.302a1.056 1.056 0 0 1-.755 1.66 1.068 1.068 0 0 1-.694-.163l-5.527-5.58-.006-.007-.018-.02L9.35 9.956l-.045.038A.188.188 0 0 1 9.3 10l2.922 2.945a1.05 1.05 0 0 1-.465 1.749 1.032 1.032 0 0 1-1.002-.27l-1.497-1.508c-.022-.02-.044-.045-.07-.072l-.07-.07a1.936 1.936 0 0 1-.14-.177l.034.04-.023-.03a1.899 1.899 0 0 1-.294-.528Zm6.11 1.93-2.926-2.947a1.05 1.05 0 0 1 .337-1.703 1.034 1.034 0 0 1 1.13.228l1.498 1.508c.02.018.042.045.07.071l.068.069c.04.043.075.09.108.137l.017.02a3.476 3.476 0 0 0-.065-.089L17 13.273a1.05 1.05 0 0 1 0 1.48l-2.36 2.36c-.05.036-.097.074-.143.114l-1.968 1.968a1.033 1.033 0 0 1-1.465 0l-6.358-6.41a1.056 1.056 0 0 1 .139-1.408 1.038 1.038 0 0 1 1.404.008l5.538 5.591.018.023 2.952-2.95.043-.036.005-.005Z" fill="#fff"/></svg>