<svg width="24" height="24" fill="none" xmlns="http://www.w3.org/2000/svg"><path d="M12 10.968c-.24.072-.48.216-.672.384a1.563 1.563 0 0 0-.36.648c.072.24.216.48.384.672.192.168.408.312.648.384.24-.072.48-.216.672-.384.168-.168.312-.408.384-.648a1.883 1.883 0 0 0-.384-.672 1.453 1.453 0 0 0-.672-.384Z" fill="#172026"/><path d="M12 0C5.376 0 0 5.376 0 12s5.376 12 12 12 12-5.376 12-12S18.624 0 12 0Zm5.76 15.384a2.519 2.519 0 0 1-.744 1.608c-.936.936-2.4 1.032-3.24.168l-.408-.384.768-.768.384.384c.192.168.432.288.696.264a1.526 1.526 0 0 0 1.464-1.392 1.063 1.063 0 0 0-.264-.792l-1.752-1.752-.84.84c-.048.048-.096.072-.144.12l-.12.12-.84.84 1.032 1.032-.768.768L12 15.408l-1.752 1.752a1.953 1.953 0 0 1-1.632.576 2.519 2.519 0 0 1-1.608-.744c-.936-.936-1.032-2.4-.168-3.24l.384-.384.768.768-.384.384c-.168.192-.288.432-.264.696a1.526 1.526 0 0 0 1.392 1.464c.288.024.576-.072.792-.264l1.752-1.752-.84-.84c-.048-.048-.072-.096-.12-.144l-.12-.12-.84-.84-1.032 1.032-.768-.768 1.032-1.032L6.84 10.2a1.953 1.953 0 0 1-.576-1.632 2.519 2.519 0 0 1 .744-1.608c.936-.936 2.4-1.032 3.24-.168l.384.384-.768.768-.384-.384c-.192-.168-.432-.288-.696-.264A1.526 1.526 0 0 0 7.32 8.688c-.024.288.072.576.264.792l1.752 1.752.84-.84c.048-.048.096-.072.144-.12l.12-.12.84-.84-1.032-1.032.768-.768 1.032 1.032L13.8 6.792a1.953 1.953 0 0 1 1.632-.576 2.519 2.519 0 0 1 1.608.744c.936.936 1.032 2.4.168 3.24l-.384.408-.768-.768.384-.384c.168-.192.288-.432.264-.696a1.526 1.526 0 0 0-1.392-1.464 1.063 1.063 0 0 0-.792.264l-1.752 1.752.84.84c.048.048.072.096.12.144l.12.12.84.84 1.032-1.032.768.768L15.408 12l1.752 1.752c.432.432.648 1.032.6 1.632Z" fill="#172026"/></svg>