<svg width="24" height="24" fill="none" xmlns="http://www.w3.org/2000/svg"><path d="M12 0c6.624 0 12 5.376 12 12s-5.376 12-12 12S0 18.624 0 12 5.376 0 12 0Z" fill="#071630"/><path opacity=".9" d="M19.728 17.328c0 .336-.288.576-.72.576-.384 0-.672-.24-.672-.576V8.544c0-.048 0-.048-.048-.048h-.096l-5.52 7.056c-.24.24-.672.336-.96.144-.096-.048-.144-.096-.192-.144L6 8.496h-.096l-.048.048v8.832c0 .336-.336.576-.72.576-.384 0-.672-.24-.672-.576V6.816c0-.192.144-.384.288-.48a.794.794 0 0 1 .96.144l6.096 7.728a.37.37 0 0 0 .48.048s.048 0 .048-.048l6.096-7.728a.774.774 0 0 1 .624-.288c.384 0 .72.24.72.576l-.048 10.56Z" fill="url(#a)"/><path d="M19.728 17.328c0 .288-.288.576-.72.576a.774.774 0 0 1-.624-.288l-6.048-7.728a.37.37 0 0 0-.48-.048s-.048.048-.096.144l-6 7.68c-.24.288-.624.336-.96.144a.528.528 0 0 1-.288-.48V6.816c0-.336.288-.576.672-.576.384 0 .72.24.72.576v8.832c0 .048 0 .048.048.048h.096l5.376-6.864c.048-.096.24-.288.336-.336.336-.192.72-.144.96.144l5.472 7.056h.096c.048 0 .048-.048.048-.048V6.816c0-.336.288-.576.672-.576.384 0 .72.24.72.576v10.512Z" fill="url(#b)"/><defs><linearGradient id="a" x1="12.12" y1="17.914" x2="12.12" y2="6.244" gradientUnits="userSpaceOnUse"><stop stop-color="#3F5CAA"/><stop offset=".2" stop-color="#3F5FAC"/><stop offset=".33" stop-color="#4168B2"/><stop offset=".46" stop-color="#4378BD"/><stop offset=".57" stop-color="#468ECC"/><stop offset=".64" stop-color="#48A0D9"/><stop offset=".8" stop-color="#3ABBEC"/><stop offset=".9" stop-color="#35C6F4"/></linearGradient><linearGradient id="b" x1="12.12" y1="17.924" x2="12.12" y2="6.24" gradientUnits="userSpaceOnUse"><stop stop-color="#4068B1"/><stop offset=".13" stop-color="#3D7FC1"/><stop offset=".39" stop-color="#39A5DD"/><stop offset=".59" stop-color="#36BDEE"/><stop offset=".72" stop-color="#35C6F4"/></linearGradient></defs></svg>