<svg width="72" height="73" fill="none" xmlns="http://www.w3.org/2000/svg"><rect x=".5" y="1" width="71" height="71" rx="7.5" fill="#A2EFE1"/><path d="M23.017 45.5H34.19v-3.043h-7.483V28.045h-3.69V45.5Zm13.515 0h12.443v-3.017h-7.33v-.12l2.549-2.496c3.588-3.273 4.551-4.91 4.551-6.895 0-3.026-2.472-5.165-6.213-5.165-3.665 0-6.179 2.19-6.17 5.616h3.502c-.008-1.67 1.049-2.693 2.642-2.693 1.535 0 2.676.955 2.676 2.489 0 1.389-.852 2.343-2.437 3.87l-6.213 5.752V45.5Z" fill="#000"/><rect x=".5" y="1" width="71" height="71" rx="7.5" stroke="#9EFFEE"/></svg>