<svg width="24" height="24" fill="none" xmlns="http://www.w3.org/2000/svg"><path d="M12 24c6.627 0 12-5.373 12-12S18.627 0 12 0 0 5.373 0 12s5.373 12 12 12Z" fill="#FB2EA3"/><path d="M16.974 10.515c-.17 1.151-.808 1.708-1.655 1.903 1.162.606 1.755 1.535 1.19 3.145-.699 1.999-2.361 2.167-4.571 1.75l-.538 2.15-1.296-.324.53-2.12c-.346-.086-.69-.176-1.034-.27l-.531 2.132-1.295-.322.537-2.155c-.303-.077-.61-.16-.925-.238l-1.687-.42.644-1.486s.955.255.942.236c.367.09.53-.149.594-.308l.848-3.399.137.034a1.064 1.064 0 0 0-.135-.043l.605-2.426c.015-.276-.079-.622-.604-.754.02-.014-.942-.234-.942-.234l.345-1.385 1.788.447-.002.007c.269.066.546.13.829.194l.531-2.129 1.296.322-.52 2.088c.347.08.697.16 1.038.245l.517-2.074 1.296.323-.53 2.13c1.636.564 2.833 1.409 2.598 2.981Zm-2.963 4.153c.42-1.678-2.398-2.112-3.277-2.332l-.712 2.854c.88.218 3.59 1.089 3.99-.521Zm.402-4.176c.38-1.528-1.976-1.868-2.708-2.05l-.645 2.588c.731.183 2.987.927 3.353-.538Zm3.772 5.721a.483.483 0 0 0-.357.096.565.565 0 0 0-.187.324.737.737 0 0 0-.015.213c.006.082.032.16.076.23a.703.703 0 0 0 .215.212c.097.065.232.117.405.157.093.023.189.033.287.032.099 0 .19-.015.274-.047a.545.545 0 0 0 .353-.406.517.517 0 0 0-.053-.393.654.654 0 0 0-.34-.266l.116-.5c.285.115.484.28.6.492.115.213.139.466.072.758a1.19 1.19 0 0 1-.2.45 1.025 1.025 0 0 1-.744.415 1.632 1.632 0 0 1-.943-.215 1.125 1.125 0 0 1-.34-.3 1.011 1.011 0 0 1-.178-.409c-.03-.17-.024-.343.019-.51a1.4 1.4 0 0 1 .137-.363.993.993 0 0 1 .224-.281.822.822 0 0 1 .306-.167.896.896 0 0 1 .389-.022l-.116.5Zm2.02-1.584a1.266 1.266 0 0 1-.202.464 1.071 1.071 0 0 1-.33.302 1.088 1.088 0 0 1-.43.137 1.499 1.499 0 0 1-.5-.035 1.476 1.476 0 0 1-.46-.187 1.09 1.09 0 0 1-.326-.31 1.062 1.062 0 0 1-.165-.418 1.269 1.269 0 0 1 .023-.505 1.27 1.27 0 0 1 .201-.464c.094-.127.203-.229.331-.302.132-.075.278-.121.43-.136.157-.018.322-.007.494.033.165.036.322.1.465.188.135.085.243.189.326.311.082.122.137.261.165.416.026.168.019.34-.023.506Zm-1.969-2.099.109-.468.438.1.002-.008a.519.519 0 0 1-.16-.128.856.856 0 0 1-.195-.416.612.612 0 0 1 .008-.234c.014-.063.033-.125.057-.185l.482.11-.04.105a.925.925 0 0 0-.031.106.563.563 0 0 0 .099.48c.058.075.13.139.213.187.09.055.197.097.323.126l1.078.25-.116.499-2.267-.524Zm1.71-1.642a.89.89 0 0 0 .263.022.646.646 0 0 0 .24-.063.553.553 0 0 0 .191-.154.64.64 0 0 0 .117-.259.617.617 0 0 0-.013-.375.572.572 0 0 0-.236-.265l.109-.473a.968.968 0 0 1 .566.84c.008.12-.003.24-.03.364-.042.178-.108.33-.198.454a1.006 1.006 0 0 1-.753.42 1.572 1.572 0 0 1-.939-.222 1.203 1.203 0 0 1-.332-.308 1.075 1.075 0 0 1-.172-.883 1.043 1.043 0 0 1 .6-.74 1.33 1.33 0 0 1 .971-.025l-.385 1.668.001-.001Zm-.136 3.65a.589.589 0 0 0-.141-.55.825.825 0 0 0-.23-.175 1.176 1.176 0 0 0-.581-.135.795.795 0 0 0-.283.057.589.589 0 0 0-.365.433.587.587 0 0 0 .138.55c.062.07.139.127.23.175.179.093.379.14.58.135a.825.825 0 0 0 .284-.058.588.588 0 0 0 .368-.432Zm.076-4.892a.827.827 0 0 0-.24-.003.58.58 0 0 0-.389.216.616.616 0 0 0-.113.468.58.58 0 0 0 .085.213c.093.135.23.231.388.273l.27-1.167Z" fill="#fff"/></svg>