<svg width="24" height="24" fill="none" xmlns="http://www.w3.org/2000/svg"><path fill-rule="evenodd" clip-rule="evenodd" d="M17.642 9.509c1.269 1.906-1.065 5.688-5.208 8.447-3.887 2.587-7.99 3.357-9.532 1.867a7.055 7.055 0 0 1-.292-.353c-.828-1.291-.036-3.423 1.837-5.517a1.38 1.38 0 0 0 1.964-1.854 19.04 19.04 0 0 1 1.427-1.046c4.146-2.758 8.535-3.45 9.804-1.544Z" fill="#0CA4FB"/><path fill-rule="evenodd" clip-rule="evenodd" d="M12.434 17.956c-3.887 2.587-7.99 3.357-9.532 1.867a1.823 1.823 0 0 1-.273-.323c-.005-.01-.013-.019-.019-.03-.828-1.291-.036-3.423 1.837-5.517a1.38 1.38 0 0 0 1.964-1.854 19.04 19.04 0 0 1 1.427-1.046c4.146-2.758 8.535-3.45 9.804-1.544 1.269 1.906-1.065 5.688-5.208 8.447Z" fill="#0CA4FB"/><path fill-rule="evenodd" clip-rule="evenodd" d="M22.62 6.411c-2.529-1.74-8.135-.601-13.428 2.921a26.254 26.254 0 0 0-3.104 2.409 1.38 1.38 0 0 0-2.226 1.087c0 .328.116.629.309.866-1.252 1.448-2.146 2.91-2.599 4.248A11.933 11.933 0 0 1 0 12C0 5.374 5.374 0 12 0a12 12 0 0 1 10.62 6.411ZM24 12c0 6.626-5.374 12-12 12-1.561 0-3.054-.298-4.422-.841 2.535-.414 5.537-1.63 8.444-3.567 4.306-2.866 7.239-6.532 7.84-9.415.091.593.138 1.203.138 1.823Z" fill="#0CA4FB"/><path fill-rule="evenodd" clip-rule="evenodd" d="M12.434 17.956c-3.887 2.587-7.99 3.357-9.532 1.867a1.823 1.823 0 0 1-.273-.323c-.005-.01-.013-.019-.019-.03-.828-1.291-.036-3.423 1.837-5.517a1.38 1.38 0 0 0 1.964-1.854 19.04 19.04 0 0 1 1.427-1.046c4.146-2.758 8.535-3.45 9.804-1.544 1.269 1.906-1.065 5.688-5.208 8.447Z" fill="#0CA4FB"/></svg>