<svg width="24" height="24" fill="none" xmlns="http://www.w3.org/2000/svg"><path d="M12 24c6.627 0 12-5.373 12-12S18.627 0 12 0 0 5.373 0 12s5.373 12 12 12Z" fill="#00D4D5"/><path d="M12.39 3.75v4.093l3.553-2.044L12.39 3.75Z" fill="#fff"/><path opacity=".9" d="M15.942 5.799v4.093l3.553-2.05L15.942 5.8Z" fill="#fff"/><path opacity=".8" d="M12.39 7.843v4.092l3.553-2.043-3.553-2.05Zm3.553 2.05v4.091l3.553-2.049-3.553-2.042ZM12.39 11.935v4.093l3.553-2.043-3.553-2.05Z" fill="#fff"/><path d="M15.942 13.984v4.093l3.553-2.049-3.553-2.044Z" fill="#fff"/><path opacity=".4" d="M3.205 7.705v4.092L6.76 9.748 3.205 7.705Z" fill="#fff"/><path opacity=".2" d="M7.688 9.227v4.092l3.547-2.043-3.547-2.05Z" fill="#fff"/><path opacity=".3" d="M5.054 11.815v4.093l3.552-2.05-3.552-2.043Z" fill="#fff"/><path opacity=".9" d="M7.395 14.903v4.093l3.547-2.049-3.547-2.044Z" fill="#fff"/><path opacity=".7" d="M12.36 16.665v4.094l3.548-2.05-3.548-2.044Z" fill="#fff"/><path opacity=".9" d="M8.28 7.205V11.3l3.547-2.044-3.548-2.05Z" fill="#fff"/><path opacity=".8" d="M12.39 3.75v4.093L8.835 5.799l3.553-2.049Z" fill="#fff"/><path opacity=".6" d="M8.279 5.49v4.092L4.725 7.533 8.279 5.49ZM11.833 7.515v4.094l-3.554-2.05 3.554-2.044Z" fill="#fff"/><path opacity=".95" d="M7.67 9.227v4.092l-3.553-2.043 3.554-2.05Z" fill="#fff"/><path opacity=".6" d="M12.39 11.935v4.093l-3.548-2.043 3.547-2.05Z" fill="#fff"/><path opacity=".55" d="M5.053 12.889v4.092L1.5 14.931l3.553-2.042Z" fill="#fff"/><path d="M19.495 7.843v4.092l-3.553-2.043 3.553-2.05Z" fill="#fff"/><path opacity=".95" d="M15.943 9.893v4.092l-3.553-2.05 3.553-2.042Z" fill="#fff"/><path opacity=".9" d="M19.495 11.935v4.093l-3.553-2.043 3.553-2.05Z" fill="#fff"/><path opacity=".7" d="M15.943 13.984v4.093l-3.553-2.049 3.553-2.044Z" fill="#fff"/><path opacity=".4" d="M11.603 15.69v4.093L8.05 17.739l3.553-2.05Z" fill="#fff"/><path d="M15.943 5.799v4.093l-3.553-2.05L15.943 5.8Z" fill="#fff"/></svg>