<svg width="24" height="24" viewBox="0 0 24 24" fill="none" xmlns="http://www.w3.org/2000/svg">
<mask id="mask0" mask-type="alpha" maskUnits="userSpaceOnUse" x="5" y="9" width="19" height="15">
<path d="M5.46338 9.90039H23.9338V23.2806H5.46338V9.90039Z" fill="white"/>
</mask>
<g mask="url(#mask0)">
<path fill-rule="evenodd" clip-rule="evenodd" d="M22.8473 9.90039C24.8235 12.8936 24.0723 15.6992 20.8522 17.1528C18.9642 18.005 17.3316 19.2005 15.823 20.5919C15.7693 20.6415 15.7102 20.6857 15.6607 20.7389C12.3702 24.2833 9.1794 24.0416 5.46338 20.5077C5.50235 20.4643 5.54131 20.4209 5.58001 20.3771C6.66992 20.1828 7.75808 20.4054 8.84475 20.4276C12.2741 20.4977 15.1189 19.2422 17.5212 16.8641C19.552 15.2446 20.955 13.1502 22.0972 10.8509C22.2746 10.4939 22.2806 9.96417 22.8473 9.90039Z" fill="#0095D9"/>
</g>
<path fill-rule="evenodd" clip-rule="evenodd" d="M5.46349 20.5076C4.47045 20.262 3.46589 20.0607 2.53913 19.5944C0.566003 18.6017 -0.313637 16.8771 0.100093 14.7023C0.215644 14.095 0.359846 13.4783 0.599644 12.9121C1.41665 10.9829 1.9067 8.97254 2.32528 6.92533C3.06949 3.28522 4.01688 2.51904 7.7085 2.29414C7.85385 2.28531 7.99751 2.25005 8.14205 2.22706C8.54418 2.05124 8.94868 1.85587 9.26944 2.36047C9.24713 2.4316 9.21875 2.53171 9.16508 2.5402C7.05861 2.87331 6.17176 4.61054 5.18425 6.13555C3.3467 8.97342 2.44427 12.0691 3.11789 15.486C3.20985 15.9526 3.35162 16.4026 3.62048 16.8021C4.10843 18.0952 5.04099 19.1551 5.53946 20.4435L5.46349 20.5076Z" fill="#B2D134"/>
<path fill-rule="evenodd" clip-rule="evenodd" d="M9.24737 2.42656C8.91724 2.14725 8.50917 2.30076 8.14209 2.22741C9.85061 0.597434 11.7419 0.165569 13.5871 1.33914C15.6791 2.66973 17.9384 3.27505 20.3313 3.66134C22.7964 4.0593 23.5131 5.06474 23.3257 7.5755C23.2743 8.26429 23.1817 8.94856 22.8145 9.55874C22.1338 9.47069 21.9573 8.83516 21.5953 8.41301C20.0093 6.56386 18.1852 5.07418 15.7741 4.43791C15.5075 4.36341 15.2509 4.26195 14.9929 4.16278C13.5059 3.4746 11.9227 3.13024 10.3241 2.83287C9.94715 2.76283 9.51488 2.80152 9.24737 2.42656Z" fill="#EBE710"/>
<path fill-rule="evenodd" clip-rule="evenodd" d="M15.7836 4.21436C18.2832 4.70123 20.0238 6.34092 21.6687 8.11301C22.0857 8.56233 22.4342 9.07516 22.8143 9.55887C22.8254 9.67307 22.8365 9.78714 22.8475 9.90094C21.7563 12.2463 20.4935 14.4794 18.6091 16.2975C18.3562 16.5414 18.1762 16.8944 17.7699 16.9443C17.5111 16.1916 18.1473 15.741 18.3921 15.1675C19.7389 12.0149 19.6782 9.00748 17.575 6.1742C17.2657 5.7575 16.8666 5.44624 16.4711 5.12191C16.1757 4.87975 15.7552 4.71013 15.7836 4.21436Z" fill="#00845D"/>
<path fill-rule="evenodd" clip-rule="evenodd" d="M15.7836 4.21438C20.4753 7.17224 20.3895 13.1195 17.9234 16.5405C17.8421 16.6533 17.8199 16.8089 17.77 16.9444C15.7499 19.1873 13.2254 20.4477 10.2275 20.6801C8.66491 20.8013 7.08907 20.7807 5.53959 20.444C4.54183 19.4888 4.06622 18.2238 3.50316 17.0108C2.38251 13.5069 2.88084 10.2343 5.29426 7.46793C7.86914 4.51654 11.087 2.98431 15.1303 3.99069L15.7836 4.21438Z" fill="#005120"/>
<path fill-rule="evenodd" clip-rule="evenodd" d="M15.13 3.99038C11.5923 3.6295 8.49293 4.54292 5.96113 7.12797C3.53484 9.60537 2.96565 12.6242 3.37122 15.9321C3.41524 16.2913 3.459 16.6504 3.50289 17.01C2.2836 15.3702 2.47648 13.4655 2.72693 11.6624C3.16405 8.51559 4.73518 5.86332 6.78765 3.46487C7.4699 2.66761 8.22954 2.30573 9.24697 2.4266C11.2888 2.64395 13.2999 2.97685 15.13 3.99038Z" fill="#4CB748"/>
<path fill-rule="evenodd" clip-rule="evenodd" d="M17.5577 12.1547C17.5582 15.627 14.9112 18.2777 11.4616 18.2593C8.04298 18.2411 5.23701 15.4331 5.2604 12.0538C5.28474 8.54765 8.37676 5.50437 11.8907 5.52797C15.206 5.55028 17.5572 8.29963 17.5577 12.1547Z" fill="#FEFEFE"/>
</svg>
