<svg width="24" height="24" viewBox="0 0 24 24" fill="none" xmlns="http://www.w3.org/2000/svg">
<path d="M12 24C18.6274 24 24 18.6274 24 12C24 5.37258 18.6274 0 12 0C5.37258 0 0 5.37258 0 12C0 18.6274 5.37258 24 12 24Z" fill="#666666"/>
<path fill-rule="evenodd" clip-rule="evenodd" d="M18.8113 15.8625C18.6569 16.1201 18.4079 16.307 18.1175 16.3834C17.8271 16.4598 17.5184 16.4195 17.2573 16.2712L13.673 14.2388V12.9487L14.8115 12.3038L18.395 14.3355C18.9395 14.6438 19.1255 15.3278 18.8113 15.8617V15.8625ZM13.1375 18.6068C13.1375 19.224 12.6283 19.7242 11.9998 19.7242C11.3713 19.7242 10.862 19.224 10.862 18.6068V14.5425L11.9998 13.8975L13.1375 14.5425V18.6068ZM6.74228 16.2712C6.48109 16.4195 6.17226 16.4596 5.88186 16.3831C5.59145 16.3066 5.34251 16.1194 5.18828 15.8617C5.11383 15.7346 5.06551 15.5939 5.04616 15.4478C5.02681 15.3017 5.03681 15.1533 5.07558 15.0111C5.11434 14.869 5.1811 14.736 5.27193 14.62C5.36276 14.504 5.47584 14.4072 5.60453 14.3355L9.18803 12.303L10.3265 12.9487V14.2388L6.74228 16.2712ZM5.60453 9.6645C5.47584 9.59275 5.36276 9.49604 5.27193 9.38002C5.1811 9.26401 5.11434 9.13103 5.07558 8.98887C5.03681 8.84672 5.02681 8.69826 5.04616 8.5522C5.06551 8.40613 5.11383 8.2654 5.18828 8.13825C5.34251 7.88056 5.59145 7.69344 5.88186 7.61692C6.17226 7.54039 6.48109 7.58053 6.74228 7.72875L10.3265 9.76125V11.0512L9.18803 11.6962L5.60453 9.6645ZM10.862 5.39325C10.862 4.776 11.372 4.27575 11.9998 4.27575C12.6283 4.27575 13.1375 4.776 13.1375 5.39325V9.45675L11.9998 10.1025L10.862 9.4575V5.39325ZM13.673 11.6588L14.276 12L13.673 12.3412V11.6588ZM12.5353 10.4062L13.1375 10.0642V10.7475L12.5353 10.4062ZM10.862 10.7475V10.065L11.4643 10.4062L10.862 10.7475ZM10.3265 12.3412L9.72353 12L10.3265 11.6588V12.3412ZM11.4643 13.5938L10.862 13.9357V13.2525L11.4643 13.5938ZM13.1375 13.2525V13.935L12.5353 13.5938L13.1375 13.2525ZM11.9998 13.29L10.862 12.645V11.355L11.9998 10.71L13.1375 11.355V12.645L11.9998 13.29ZM17.2573 7.72875C17.5185 7.58053 17.8273 7.54039 18.1177 7.61692C18.4081 7.69344 18.6571 7.88056 18.8113 8.13825C19.1263 8.67225 18.9388 9.35625 18.395 9.6645L14.8115 11.697L13.673 11.0512V9.76125L17.2573 7.72875ZM18.6628 13.8802L15.347 12L18.6628 10.1198C18.8522 10.0143 19.0186 9.87216 19.1523 9.70155C19.286 9.53095 19.3842 9.33536 19.4413 9.12626C19.4984 8.91717 19.5131 8.69877 19.4847 8.4839C19.4562 8.26903 19.3851 8.06202 19.2755 7.875C18.8135 7.089 17.7898 6.81975 16.9895 7.2735L13.673 9.15375V5.3925C13.673 4.48575 12.9238 3.75 11.9998 3.75C11.0758 3.75 10.3265 4.48575 10.3265 5.39325V9.15375L7.01003 7.2735C6.20978 6.81975 5.18603 7.089 4.72478 7.875C4.61522 8.06202 4.54412 8.26903 4.51564 8.4839C4.48717 8.69877 4.50191 8.91717 4.55899 9.12626C4.61606 9.33536 4.71433 9.53095 4.84803 9.70155C4.98172 9.87216 5.14814 10.0143 5.33753 10.1198L8.65253 12L5.33753 13.8802C5.14808 13.9856 4.98159 14.1277 4.84782 14.2983C4.71405 14.4689 4.6157 14.6645 4.55855 14.8736C4.50141 15.0827 4.4866 15.3011 4.51502 15.516C4.54344 15.7309 4.6145 15.9379 4.72403 16.125C5.18603 16.911 6.20978 17.1803 7.01003 16.7265L10.3265 14.8463V18.6068C10.3265 19.5142 11.0758 20.25 11.9998 20.25C12.9238 20.25 13.673 19.5142 13.673 18.6068V14.8463L16.9895 16.7265C17.7898 17.1803 18.8135 16.911 19.2755 16.125C19.3851 15.938 19.4562 15.731 19.4847 15.5161C19.5131 15.3012 19.4984 15.0828 19.4413 14.8737C19.3842 14.6646 19.286 14.469 19.1523 14.2984C19.0186 14.1278 18.8522 13.9857 18.6628 13.8802Z" fill="white"/>
</svg>
