<svg width="24" height="24" fill="none" xmlns="http://www.w3.org/2000/svg"><g clip-path="url(#a)"><path d="M12.017 23.012c6.073 0 10.995-4.922 10.995-10.995 0-6.072-4.922-10.995-10.995-10.995-6.072 0-10.995 4.923-10.995 10.995 0 6.073 4.923 10.995 10.995 10.995Z" fill="#fff"/><path d="M12.626 0a12.014 12.014 0 1 0 11.358 12.49A12.041 12.041 0 0 0 12.626 0Zm-.663 19.866c-3.865 0-6.83-3.903-5.855-7.65.33-1.154.844-2.248 1.522-3.24a35.97 35.97 0 0 1 3.864-4.878c.351-.39.625-.39.976-.039a30.979 30.979 0 0 1 4.371 5.737c.703 1.289 1.25 2.616 1.21 4.099a6.244 6.244 0 0 1-6.088 5.987v-.016Z" fill="#168DFF"/></g><defs><clipPath id="a"><path fill="#fff" d="M0 0h24v24H0z"/></clipPath></defs></svg>