<svg width="24" height="24" fill="none" xmlns="http://www.w3.org/2000/svg"><path d="M0 0h24v24H0V0Z" fill="#1B1F2B"/><path d="M8.04 5.16h7.92v13.68H8.04V5.16Z" fill="#1B1F2B"/><path fill-rule="evenodd" clip-rule="evenodd" d="m7.286 5.16.755-.754h7.92l.754.754v13.68l-.754.755H8.04l-.755-.755V5.16Zm1.509.755v12.17h6.411V5.916H8.795Z" fill="url(#a)"/><path d="M14.4 14.16h-1.64v1.718h-1.48V14.16H9.64v-1.48h4.76v1.48Zm0-4.24h-1.64V8.202h-1.48V9.92H9.64v1.48h4.76V9.92Z" fill="url(#b)"/><defs><linearGradient id="a" x1="6.223" y1="6.223" x2="17.777" y2="17.777" gradientUnits="userSpaceOnUse"><stop stop-color="#2AB8E6"/><stop offset=".53" stop-color="#29CAD2"/><stop offset="1" stop-color="#2EE4BE"/></linearGradient><linearGradient id="b" x1="845.271" y1="1358.61" x2="1413.46" y2="1710.92" gradientUnits="userSpaceOnUse"><stop stop-color="#2AB8E6"/><stop offset=".53" stop-color="#29CAD2"/><stop offset="1" stop-color="#2EE4BE"/></linearGradient></defs></svg>