<svg width="24" height="24" fill="none" xmlns="http://www.w3.org/2000/svg"><path d="M12.29 21.177a9.532 9.532 0 1 0 0-19.064 9.532 9.532 0 0 0 0 19.064Z" fill="url(#a)"/><path d="M13.498 10.62c.772-1.004.53-2.894-.406-3.54-.935-.646-1.92-.323-2.11-.14-.19.181-.182 4.42-.182 4.42s1.925.264 2.698-.74Zm.143 1.804c-.723-.314-2.841-.232-2.841-.232s-.033 1.07.044 3.073.761 1.992 1.473 2.02c.712.027 2.07-.022 2.516-1.75.447-1.726-.469-2.796-1.192-3.11" fill="#000"/><path d="M12 0C5.373 0 0 5.373 0 12s5.373 12 12 12 12-5.372 12-12c0-6.627-5.372-12-12-12Zm4.874 8.637c.033 2.003-1.713 2.566-1.713 2.566s.712-.688.679-2.45c-.034-1.762-1.358-2.632-1.358-2.632s2.36.513 2.392 2.516Zm-7.85 9.41-2.418.116v-.221s1.48-.15 1.48-2.742V8.573c0-2.196-1.48-2.576-1.48-2.576v-.199l2.417.116v12.133Zm3.861.124c-1.05.008-3.001-.136-3.001-.136V5.931c1.285-.017 1.735-.19 2.794-.042 1.06.149 1.97 1.184 2.218 2.218.249 1.035-.016 2.02-.356 2.557-.34.538-1.084.911-1.084.911s1.126.38 1.523.712c.398.33 1.167 1.233.87 3.194a3.058 3.058 0 0 1-2.964 2.69Zm2.793-.447s1.146-.977 1.096-2.957c-.05-1.98-1.096-2.911-1.096-2.911s2.156.53 2.18 2.888c.026 2.359-2.18 2.98-2.18 2.98Z" fill="#000"/><defs><linearGradient id="a" x1="7.731" y1="5.21" x2="16.912" y2="18.171" gradientUnits="userSpaceOnUse"><stop stop-color="#DEB354"/><stop offset="1" stop-color="#C89550"/></linearGradient></defs></svg>