<svg width="24" height="24" fill="none" xmlns="http://www.w3.org/2000/svg"><path d="M12 24c6.627 0 12-5.373 12-12S18.627 0 12 0 0 5.373 0 12s5.373 12 12 12Z" fill="#001D57"/><path d="m15.374 3.966.902.903-1.707 1.755c.36.547.553 1.193.553 1.86a3.336 3.336 0 0 1-.943 2.347 3.137 3.137 0 0 1-1.663.92v1.53c.633.13 1.211.449 1.66.914.612.63.952 1.474.946 2.352a3.338 3.338 0 0 1-.946 2.351 3.197 3.197 0 0 1-2.303.977 3.18 3.18 0 0 1-2.302-.977 3.356 3.356 0 0 1-.946-2.35c0-.886.336-1.725.944-2.35a3.137 3.137 0 0 1 1.662-.919v-1.53a3.205 3.205 0 0 1-1.66-.915 3.355 3.355 0 0 1-.946-2.352c0-.885.336-1.724.947-2.35a3.197 3.197 0 0 1 2.302-.978c.645 0 1.265.196 1.796.562l1.705-1.75Zm-3.5 10.543a1.898 1.898 0 0 0-1.393.592 2.063 2.063 0 0 0-.581 1.446c0 .544.206 1.052.581 1.445a1.934 1.934 0 0 0 1.393.593 1.897 1.897 0 0 0 1.392-.593c.375-.387.584-.906.581-1.445 0-.544-.206-1.051-.583-1.448a1.898 1.898 0 0 0-1.39-.59Zm1.39-4.568c.376-.388.586-.908.583-1.448a2.025 2.025 0 0 0-.581-1.446 1.932 1.932 0 0 0-1.392-.593 1.898 1.898 0 0 0-1.393.593A2.063 2.063 0 0 0 9.9 8.493c0 .544.206 1.051.581 1.445a1.934 1.934 0 0 0 1.393.593c.533 0 1.025-.207 1.39-.59Z" fill="#fff"/></svg>