<svg width="24" height="24" fill="none" xmlns="http://www.w3.org/2000/svg"><path d="M12 24c6.627 0 12-5.373 12-12S18.627 0 12 0 0 5.373 0 12s5.373 12 12 12Z" fill="url(#a)"/><path d="M17.445 11.571a3.576 3.576 0 0 0-.388-.2h-.017l.091-.085c.172-.138.343-.286.486-.458.674-.777.868-1.645.583-2.588-.229-.777-.755-1.354-1.577-1.772-.629-.314-1.338-.457-2.189-.457H7.486l.022 6.829H4.377v2.685h4.571l-1.428.87v1.6h7.063c.457 0 .942-.058 1.428-.132 1.634-.286 2.915-1.84 2.915-3.543 0-1.24-.498-2.172-1.486-2.755l.005.006ZM15 10.497c-.143.097-.326.149-.514.194-.138.04-.286.04-.418.04H10.24V8.388h4.16c.497.012.914.343 1.063.835.137.468-.057.994-.457 1.28L15 10.497Zm-3.714 5.143H10.24v-2.743h4.257c.611 0 1.046.2 1.354.628.252.343.315.8.172 1.218-.149.4-.457.697-.857.8-.246.057-.48.097-.686.103h-3.2l.006-.006Z" fill="#fff"/><defs><linearGradient id="a" x1="3.514" y1="3.514" x2="20.486" y2="20.486" gradientUnits="userSpaceOnUse"><stop stop-color="#30B5EC"/><stop offset="1" stop-color="#1E58BB"/></linearGradient></defs></svg>