<svg width="24" height="24" fill="none" xmlns="http://www.w3.org/2000/svg"><g clip-path="url(#a)" fill="#000"><path d="M12.025.768C12.94.664 13.768.242 14.656 0c.121.242.268.535.587.535.32.052.5-.259.647-.492.768.302 1.475.725 2.26.984.406.138.898.112 1.208.457.371.405.38.992.32 1.5-.078.406-.311.838-.743.941-.414.104-.828.173-1.216.345-.63.25-1.208.639-1.872.82-.086-.155-.181-.302-.276-.457-.198 0-.414-.018-.595.086-.121.103-.199.25-.285.38-.966-.052-1.829-.622-2.804-.604a7.296 7.296 0 0 0-2.924.681c-1.984.785-3.59 2.398-4.478 4.33-.483 1.08-.785 2.244-.828 3.426-.034 2.027.578 4.089 1.82 5.702.596.863 1.398 1.57 2.26 2.157 1.83 1.285 4.168 1.76 6.376 1.492 2.692-.319 5.21-1.863 6.72-4.115 1.01-1.406 1.57-3.097 1.7-4.814.155-1.363-.078-2.743-.5-4.037-.328-1.061-.906-2.027-1.57-2.907-.337-.466-.76-.846-1.157-1.251.794.578 1.45 1.32 2.002 2.13 1 1.416 1.587 3.098 1.803 4.815.052 1.078.086 2.174-.164 3.226-.423 2.165-1.562 4.175-3.166 5.685-.785.802-1.751 1.38-2.735 1.907-.949.465-1.975.802-3.028.931a11.004 11.004 0 0 1-6.392-.837c-.415-.206-.811-.448-1.217-.664-1.596-.992-2.967-2.372-3.9-4.003-.836-1.57-1.457-3.287-1.509-5.064.009-.862-.052-1.725.112-2.579.44-2.597 1.734-5.055 3.701-6.815 1.061-1.001 2.33-1.752 3.675-2.295 1.122-.483 2.33-.699 3.537-.828Z"/><path d="M11.249 9.18a5.85 5.85 0 0 1 1.553 0 3.554 3.554 0 0 1 2.484 2.078c.51 1.044.362 2.312-.224 3.296-.5.742-1.234 1.345-2.114 1.561-.38.07-.768.207-1.164.138-.535-.086-1.087-.198-1.553-.492-1.148-.638-1.89-1.958-1.803-3.278 0-.75.345-1.458.785-2.053.483-.647 1.242-1.07 2.036-1.25Z"/></g><defs><clipPath id="a"><path fill="#fff" d="M0 0h24v24H0z"/></clipPath></defs></svg>