<svg width="24" height="24" fill="none" xmlns="http://www.w3.org/2000/svg"><g clip-path="url(#a)"><path d="M13.171 4.931s.025-.09.098-.09c.074 0 .27-.041.328 0 .057.04.033.164-.033.164-.065 0-.426-.017-.393-.074Zm2.015-.254c.213.106.435.19.664.254a.15.15 0 0 0 .13-.041c.066-.074.156-.213.066-.254-.13-.065-.344-.213-.68-.123-.335.09-.229.148-.18.164ZM4.652 9.854s-.196.008-.163-.221c.032-.23.294-.508.45-.615.156-.106.238-.188.238-.352 0-.164.237-.295.294-.377.058-.082.27-.188.238-.049-.033.14-.115.197-.115.377s.033.303.123.115c.09-.189.647-1.065 1.213-1.524.565-.459 1.318-.966 1.417-.983.098-.016.155.05.155.156s-.27.213-.401.327c-.131.115-1.737 1.385-2.195 2.36-.094.13-.201.251-.32.36-.155.131-.18.32-.393.532-.213.213-.205.434-.311.467-.107.033-.246-.098-.164-.377.082-.278.336-.45.516-.655.18-.205.246-.385.197-.385-.05 0-.312.058-.385.262-.074.205-.074.295-.164.377-.107.098-.172.213-.23.205Zm3.965-3.752a.13.13 0 0 0-.074.099.122.122 0 0 0 .017.073c.049.066.163.017.245-.057.18-.13.366-.25.557-.36 0 0-.532.13-.745.245Z" fill="#000"/><path d="M5.16 10.796s-.073.115-.18 0c-.106-.115.033-.352.213-.516.18-.164.697-.983.836-1.212A7.099 7.099 0 0 1 7.282 7.7c.54-.434 1.507-1.213 1.999-1.491.491-.279 1.163-.647 1.875-.786.713-.14 2.18-.025 3.973 1.089a.211.211 0 0 1-.106.278s-1.835-1.146-3.424-1.089c-1.59.057-2.883 1.114-4.038 2.13-1.155 1.015-1.024 1.13-1.172 1.31-.147.18-.614.828-.696.942-.082.115-.344.574-.532.713Zm10.428-5.218c-1.966-.762-3.227-.573-3.596-.491a.056.056 0 0 0-.042.05.057.057 0 0 0 .034.056c.104.032.21.05.32.057.425.041.81.132 1.089.123.278-.008.99.074 1.417.238.426.164.606.23.606.23a.178.178 0 0 0 .155-.099c.082-.107.017-.164.017-.164Z" fill="#000"/><path d="M15.383 6.012s.074.262-.172.279c-.246.016-1.245-.59-1.63-.631-.385-.04-.123-.287.377-.147.5.139 1.425.5 1.425.5ZM14.04 4.767a.056.056 0 0 0-.027.086c.006.01.016.017.027.02.138.063.284.107.434.132.23.016.852.213 1.147.368.188.099.286-.245.163-.286-.22-.082-.778-.295-.95-.336-.155-.041-.565-.066-.794.016ZM10.64 6.3c2.646-.36 4.022.934 4.194.901.172-.033.123-.221.123-.221-.663-.557-2.285-1.212-3.792-1.024-1.507.188-2.318 1.18-2.621 1.36-.304.18-.55.565-.787.794-.237.23-.581.303-.68.385-.098.082-1.482 2.13-1.662 2.351-.18.221-.23.426-.074.508.155.082.254-.18.254-.18s.729-1.196.893-1.385c.163-.188.696-1.015.802-1.146.107-.131.23-.107.189 0-.041.106-.885 1.327-1.04 1.515-.156.188-.836 1.122-.877 1.458-.041.336.205.393.393-.05.189-.441.475-1.064.59-1.187.115-.123.532-.59.639-.803.106-.213.573-1.064.942-1.474.371-.393.78-.75 1.22-1.065a4.71 4.71 0 0 1 .688-.401c.123-.058.336-.303.606-.336Z" fill="#000"/><path d="M7.732 8.961s.64-.966 1.32-1.433c.68-.467 1.072-.795 1.285-.877.213-.082.942-.458 2.597-.082 1.654.377 1.851.918 1.777 1.024-.074.107-.336-.057-.712-.262-.377-.205-1.09-.524-1.663-.508-.574.017-1.704.41-1.778.475-.073.066-.082-.13.115-.172.197-.04.32-.196.442-.213.123-.016.303-.057.303-.155 0-.099-.41-.082-.614 0-.205.082-1 .532-1.147.614-.147.082-.344.14-.376.262-.033.123-.279.41-.402.475-.123.066-.737.55-.803.664a.32.32 0 0 1-.344.188Z" fill="#000"/><path d="M9.002 8.2s.082.122.426-.14.385-.32.418-.32c.032 0-.058-.13-.123-.073-.066.057-.713.417-.721.532Zm.95-.214s-.098-.024.09-.164c.189-.139 1.425-.876 2.318-.827.893.05 1.925.573 2.105.729.18.156.05.467 0 .45-.049-.016-1.163-.86-1.933-.884-.77-.025-1.548.27-1.867.475-.32.205-.434.278-.713.221Z" fill="#000"/><path d="M10.951 7.937a.05.05 0 0 1-.016-.09 2.364 2.364 0 0 1 1.81-.352c1.106.237 1.565.761 1.59.884.024.123-.017.41-.18.352-.165-.057-.697-.868-1.557-.941-.828-.074-1.016.294-1.647.147Z" fill="#000"/><path d="m12.09 8.134-.098-.033c-.017-.008-.008-.025 0-.025.14-.032.606-.123 1.032.033.303.125.576.312.803.549a.024.024 0 0 1 .003.03.024.024 0 0 1-.028.01l-1.712-.564ZM6.127 12.31s-.05.156-.188.041c-.14-.115-.05-.295 0-.426.049-.13.426-.9.516-.991.09-.09.426-.492.426-.582 0-.09.09.254-.254.779-.328.524-.197.663-.5 1.18Zm.295.516s-.05.107-.14 0c-.09-.106-.008-.36.099-.614.106-.254.254-.827.328-.942.073-.115.081.14.081.213 0 .073.025.475-.114.819a2.756 2.756 0 0 1-.254.524Zm.426.5s-.098.164-.221-.033a.414.414 0 0 1 0-.442c.04-.074.098-.312.13-.353.033-.04.074.058.09.18.017.124.09.263.09.32 0 .057-.015.246-.09.328Zm.237.196a.482.482 0 0 0-.065-.13c-.025-.017-.107.09-.115.171-.008.082.082.115.09.189.008.073.074-.017.09-.098a.292.292 0 0 0 0-.132Zm.254-2.457c.082-.46.28-.89.574-1.253.475-.557.696-.647.696-.647s.065-.017.033.114c-.033.131-.279.435-.32.525-.04.09-.336.385-.336.434 0 .049.131.008.148.032.016.025.074.058 0 .23-.074.172-.36.778-.369.91-.008.13-.434 1.113-.475 1.113-.04 0-.131-.008-.123-.311.008-.303.459-1.442.582-1.63.123-.189.13-.189.082-.18-.05.008-.352.335-.393.565-.041.23-.099.098-.099.098Zm1.147-.074s-.115.27-.352.254c-.238-.016.123-.614.18-.868.057-.254.5-1.229.59-1.31.09-.082.336-.18.377-.099.04.082-.132.197-.222.377s-.368.688-.393.868c-.024.18-.18.778-.18.778Z" fill="#000"/><path d="M8.257 11.566a.156.156 0 0 0-.099-.205c-.155-.065-.163-.016-.237.107-.074.123-.549 1.27-.549 1.441 0 .172.05.492.107.54.057.05.114-.04.114-.163a.792.792 0 0 1 .18-.41.595.595 0 0 0 .099-.474c-.033-.197.278-.517.278-.517.002.23-.01.46-.033.688-.032.205-.245.37-.294.46-.05.09-.074.442-.115.548a.836.836 0 0 0-.025.401c.025.107.09.369.131.18.041-.188.189-.745.23-.737.04.009.033.615.008.738-.025.122-.057.72-.057.794 0 .074-.222.41-.263.532-.04.123-.286.574-.286.598 0 .025.246 0 .401-.122a.573.573 0 0 0 .197-.41c0-.098-.017-.336.04-.475.058-.14.205-.467.23-.598.02-.335.02-.672 0-1.007-.016-.189.025-.983.082-1.147.057-.164.065-.246.106-.246.041 0 .017.5 0 .655a18.13 18.13 0 0 0-.057.738c-.07.626.029 1.26.287 1.834 0 0 .04.18.237.058.197-.123-.09-.672-.139-.828-.05-.155-.213-.966-.156-1.08.058-.115.385 1.13.394 1.252.008.123.049.508.114.516.066.009.336-.155.336-.188a.452.452 0 0 0-.074-.246c-.073-.123-.466-1.13-.54-1.966-.074-.835.057-2.26.123-2.408.065-.147.368-.819.442-.925.074-.107.287-.55.328-.566.04-.016.082-.016.082.033-.05.17-.11.337-.18.5-.05.14-.312.557-.361.696a5.58 5.58 0 0 0-.279 1.368c-.073.737.099 1.982.148 2.228.049.246.36 1.081.532 1.155.172.074.32-.147.295-.188-.024-.041-.385-.697-.467-.967-.082-.27-.23-.917-.204-1.065.024-.147.212 1.229.86 1.95 0 0 .082.049.229-.05.147-.098.14-.18 0-.335-.14-.156-.614-1.073-.68-1.31a16.625 16.625 0 0 0-.369-1.05c-.03-.278-.02-.56.033-.835.074-.344.18-.827.189-.958.008-.131.22-.426.27-.492.05-.065.164-.376.221-.598.057-.22.172-.368.074-.385-.098-.016-.459.041-.524.115-.066.074-.328.23-.885 1.499 0 0-.156.295-.156.467 0 .223-.068.44-.196.622a1.12 1.12 0 0 1-.172.238Z" fill="#000"/><path d="M8.388 14.933a.149.149 0 0 0-.172.123 3.126 3.126 0 0 0-.017.458c-.008.082-.106.287-.082.303.025.017.213-.033.303-.139a.66.66 0 0 0 .172-.401c0-.14-.049-.344-.204-.344Zm2.359-6.11s.122-.148.09-.181c-.033-.033-.213-.14-.279-.057-.167.236-.3.495-.393.77-.065.245-.426.941-.459 1.089a4.045 4.045 0 0 0-.016 1.351c.098.705.713 2.138.983 2.441.27.303.532 0 .532 0L11.001 14s-.508-.918-.574-1.024c-.065-.107-.418-.91-.393-1.171.024-.263.082-.623-.008-.967s.32-1.188.385-1.31c.065-.107.336-.705.336-.705Z" fill="#000"/><path d="M10.526 10.624c.006-.131.03-.26.074-.385.057-.164.122-.434 0-.5-.123-.065-.336-.016-.336.443 0 .458-.107.982 0 1.67.106.689.622 1.9 1.31 2.524.688.622.565.409.901.712.336.303 2.04.623 2.515.565.475-.057.598-.286.622-.368.025-.082-.04-.222-.106-.156s-.418.385-1.573.131-1.458-.54-1.523-.598c-.066-.057-.713-.72-.787-.786-.073-.066-.819-1.081-.819-1.229 0-.147.967 1.696 2.253 2.187 1.286.492 1.76.41 2.007.328.245-.082.5-.156.5-.246s-.009-.262-.09-.262c-.083 0-.566.287-.795.262-.23-.024-.566-.172-.877-.172-.311 0-.966-.385-1.13-.54-.164-.156-1.032-.599-1.868-2.392-.008.008-.32-.918-.278-1.188Z" fill="#000"/><path d="M12.786 15.416s-.344-.23-.41-.221c-.065.008-.056.122-.048.245s.057.254.139.27c.082.017.303-.032.352 0 .395.2.828.314 1.27.336.663.025.794.05.983.033.188-.016.508-.13.532-.205.025-.073.008-.303-.057-.303-.066 0-.14.328-1.393.18-1.236-.163-1.368-.335-1.368-.335Z" fill="#000"/><path d="M12.95 15.924s-.254-.18-.327-.107c-.074.074-.09.295.164.352.253.058.827.221.958.246.257.048.517.075.778.082.279 0 .557-.131.672-.131.114 0 .458 0 .475-.074a.715.715 0 0 0-.041-.254c-.008-.033-.107-.024-.172.008a3.14 3.14 0 0 1-.655.18 4.286 4.286 0 0 1-1.123-.081 5.842 5.842 0 0 1-.729-.221Z" fill="#000"/><path d="M15.416 16.636s-.525.36-1.983.131c-1.458-.23-1.08-.803-1.048-.778.033.025.155.197.246.23.09.032 1.18.393 1.482.4.303.009.696-.007.869-.065.171-.057.4-.204.49-.082.091.107-.056.164-.056.164Z" fill="#000"/><path d="M12.573 16.653s-.13-.09-.13 0a.376.376 0 0 0 .212.303c.115.057.24.088.369.09.155.012.306.057.442.13.123.058.557.23 1.31.09.754-.138.943-.318.976-.368a.365.365 0 0 0 0-.229c-.017-.082-.074-.115-.14-.05-.065.066-.508.46-1.589.386-1.081-.074-1.45-.352-1.45-.352Z" fill="#000"/><path d="M13.31 17.242s-.09-.13-.335-.065c-.246.065.63.532.68.573.049.041.106.066.319.041.213-.024.819-.057 1.032-.106.213-.05.639-.172.77-.336.131-.164.082-.27-.041-.254-.123.016-.877.483-1.63.418-.754-.066-.795-.27-.795-.27Z" fill="#000"/><path d="M14.359 17.906s-.369.008-.352.082a.355.355 0 0 0 .352.196c.164-.033 1.081-.18 1.27-.278.188-.099.344-.123.344-.238 0-.115-.033-.246-.115-.221-.082.024-.877.532-1.5.459Zm.729.327s-.401.131-.401.172c0 .041.163.23.294.221.132-.008.418-.196.566-.245.147-.05.5-.099.516-.197a.483.483 0 0 0-.058-.295.207.207 0 0 0-.172 0c-.057.033-.614.336-.745.344Zm.385.623a.327.327 0 0 1-.287 0c-.155-.074-.098-.164.033-.23.131-.065.377-.155.467-.196.09-.041.336-.131.377-.098a.31.31 0 0 1 .082.163c0 .041-.672.36-.672.36Zm.221.368s-.246-.13-.246-.163a.223.223 0 0 1 .172-.123c.074 0 .574-.205.574-.205s.13.123.13.246-.532.262-.63.245Zm.63.27a.574.574 0 0 1-.212 0c-.074-.024-.172-.13-.205-.13s.074-.066.156-.074c.082-.008.22-.057.27-.066.05-.008.115.058.115.14 0 .082-.123.13-.123.13Zm-4.947-10.59c.053-.05.1-.105.14-.164 0-.025-.254-.18-.377-.156-.123.025-.54.844-.41 1.982.131 1.139.426 2.31 2.032 3.572a2.705 2.705 0 0 0 2.228.54s.114-.106-.05-.114c-.163-.008-1.023-.164-1.31-.295-.287-.131-.91-.73-1.008-.77-.098-.041-.835-.803-.851-.893-.017-.09-.304-.606-.37-.852-.065-.246-.228-1.278-.278-1.474-.049-.197-.098-.516-.082-.631.017-.115.197-.582.336-.745Z" fill="#000"/><path d="M11.943 9.027s.147-.041.155-.09c.008-.05-.016-.164-.213-.197-.196-.033-.385.106-.516.459-.13.352-.073 1.097.098 1.556.172.459.074.827.394 1.442.32.614.31.614.434.712.123.099.712.672.803.762.09.09.614.434.712.434.098 0 .148-.164.14-.245-.009-.082-.017-.123-.156-.132-.14-.008-.336-.237-.336-.237s-.745-.705-.803-.737c-.057-.033-.663-.721-.663-.803 0-.082.008-.197.057-.131.05.065.401.573.63.786.23.213.96.828 1.131.901.172.074.254.082.27-.057.017-.14.099-.205.172-.164.074.041.623.36.795.336.172-.025.426-.279.508-.262.082.016-.148.27-.221.311-.074.041.057.131.082.148a.251.251 0 0 0 .286-.033c.131-.115.148-.27.058-.475-.09-.205-.115-.55-.14-.615-.024-.065-.057-.163-.122 0-.066.164-.189.5-.615.516a2.182 2.182 0 0 1-1.425-.385c-.524-.344-1.155-.819-1.646-2.22-.492-1.4.13-1.58.13-1.58Z" fill="#000"/><path d="M15.432 12.008a.113.113 0 0 0-.13.025c-.025.04-.058-.148-.01-.328.05-.18.01-.45-.048-.434-.057.016-.5.72-.991.45-.492-.27-1.106-1.04-1.278-1.384-.172-.344-.385-.737-.352-.966 0 0 .024-.18.032-.23.009-.049-.098-.245-.229-.196-.131.049-.45.23-.491.36-.041.131-.172.254-.107.631.066.377.262.86.336 1.081.074.221.303.721.549.942.246.221.729.655.942.754.213.098.663.434 1.245.303.581-.131.59-.713.59-.77a.72.72 0 0 0-.058-.238Zm-2.555-.172c-.025-.033-.312-.475-.345-.5.156.116.301.245.435.386.163.188.31.41.31.475 0 0-.376-.328-.4-.36Zm1.72.688c-.459-.016-.631-.22-.754-.294-.123-.074-.442-.484-.713-.762-.27-.279-.483-.516-.573-.688-.09-.172-.328-1.016-.352-1.114-.025-.099.13-.18.13-.131.005.088.016.175.034.262-.017.41.475 1.13.54 1.27.066.139.631.753 1.13 1.089.5.336.828.155.91.123.082-.033.172-.033.197 0 .024.032-.09.262-.55.245Z" fill="#000"/><path d="M15.186 10.878c-.073 0-.237.196-.262.082-.024-.115.115-.36.115-.59 0-.23-.05-.664-.156-.877-.106-.213-.213-.401-.401-.286-.188.114-.09.204-.008.31.082.107.286.345.286.623 0 .279-.04.64-.147.664-.106.024-.36-.057-.59-.238a4.986 4.986 0 0 1-.68-.614c-.073-.106-.22-.352-.18-.393.041-.041.107-.057.172.057.066.115.385.45.467.533.137.137.282.265.434.385.098.065.221.18.311.032.09-.147.107-.5.033-.63-.073-.131-.196-.36-.237-.418-.041-.057-.107-.156-.246-.098-.14.057-.131.172-.082.213.05.04.27.196.287.303.016.106.065.294-.017.204s-.294-.385-.352-.417a40.94 40.94 0 0 1-.45-.279s-.476-.196-.508-.246c-.033-.049-.131-.057-.058.222.074.278.123.614.328.868.115.133.199.29.246.459.04.122.45.729.975.86.524.13.712-.475.737-.525.024-.049.057-.204-.017-.204Zm-.5.368c-.016.123-.245-.008-.343 0-.099.008-.279-.155-.393-.287-.115-.13-.205-.27-.172-.286.032-.017.18.164.327.246.148.082.344.196.475.18.131-.017.107.147.107.147Zm1.123 2.589s-.107.122-.107.172c0 .049.058.073.058.123 0 .049.04.073.098.032.057-.04.057-.09.05-.155-.009-.066.007-.197-.1-.172Zm.106.434s-.106.065-.106.147a1.707 1.707 0 0 0 0 .205.07.07 0 0 0 .065.046.07.07 0 0 0 .066-.046c.033-.066.074-.107.04-.188-.032-.066 0-.222-.065-.164Zm.082.794s-.147.107-.139.05c.008-.058.016-.304.066-.312.049-.008.049-.106.13.041.083.148.025.172-.057.221Zm.123.189s.041-.156-.074-.058c-.114.099-.147.066-.139.131.008.066.033.18.099.164.049-.016.163.008.114-.237Zm.066.327s-.189.09-.172.197c.016.106.106.213.147.213.041 0 .107-.115.082-.205-.025-.09.008-.246-.057-.205Z" fill="#000"/><path d="M12 1.696a10.304 10.304 0 1 0 0 20.609 10.304 10.304 0 0 0 0-20.61Zm0 19.92a9.62 9.62 0 1 1-.009-19.24A9.62 9.62 0 0 1 12 21.616Z" fill="#000"/><path d="M12 0a12 12 0 1 0 0 24 12 12 0 0 0 0-24Zm0 22.878A10.878 10.878 0 1 1 12 1.12a10.878 10.878 0 0 1 0 21.757Z" fill="#151515"/></g><defs><clipPath id="a"><path fill="#fff" d="M0 0h24v24H0z"/></clipPath></defs></svg>