<svg width="24" height="24" fill="none" xmlns="http://www.w3.org/2000/svg"><path d="M12 24c6.627 0 12-5.373 12-12S18.627 0 12 0 0 5.373 0 12s5.373 12 12 12Z" fill="#4C6BAE"/><path opacity=".5" fill-rule="evenodd" clip-rule="evenodd" d="m4.787 12.757-1.037.108c.555-1.553 1.652-2.795 3.293-3.726.155 1.287.765 2.35 1.83 3.194l-.975.101a4.127 4.127 0 0 0 3.415 3.634 4.564 4.564 0 0 1-2.24.889c.51.9 1.115 1.637 1.813 2.21a7.255 7.255 0 0 1-6.099-6.41Zm14.426-1.515 1.037-.107c-.555 1.553-1.652 2.795-3.293 3.726-.155-1.287-.765-2.351-1.83-3.194l.975-.101a4.126 4.126 0 0 0-3.47-3.643 4.564 4.564 0 0 1 2.23-.88c-.516-.907-1.125-1.647-1.83-2.222a7.255 7.255 0 0 1 6.18 6.421Z" fill="#fff"/><path fill-rule="evenodd" clip-rule="evenodd" d="m12.692 19.22.107 1.03c-1.553-.555-2.794-1.652-3.726-3.293 1.286-.155 2.35-.765 3.194-1.83l.101.982a4.127 4.127 0 0 0 3.71-3.477c.486.652.79 1.421.879 2.23.907-.516 1.647-1.125 2.222-1.83a7.255 7.255 0 0 1-6.487 6.188Zm-1.45-14.433-.107-1.037c1.553.555 2.795 1.652 3.726 3.293-1.287.155-2.35.765-3.194 1.83l-.101-.975a4.127 4.127 0 0 0-3.643 3.47 4.563 4.563 0 0 1-.88-2.23c-.906.516-1.646 1.125-2.222 1.83a7.256 7.256 0 0 1 6.422-6.18Z" fill="#fff"/></svg>