<svg width="24" height="24" fill="none" xmlns="http://www.w3.org/2000/svg"><path d="M12 24c6.627 0 12-5.373 12-12S18.627 0 12 0 0 5.373 0 12s5.373 12 12 12Z" fill="#199248"/><path d="M12 3a9 9 0 1 0 0 18 9 9 0 0 0 0-18Zm2.057 16.677a7.947 7.947 0 1 1-3.446-15.502 7.948 7.948 0 0 1 3.446 15.502Z" fill="#fff"/><path d="M14.198 5.465c0 .388 0 .775.015 1.163a7.312 7.312 0 0 0-1.61-.422c-.022-.351.078-.738-.025-1.071A9.984 9.984 0 0 0 11.4 5.12c-.02.362-.012.725 0 1.088a7.397 7.397 0 0 0-1.609.43c.011-.391.015-.782.01-1.174a6.9 6.9 0 0 0 0 13.078c0-.384-.004-.766-.012-1.149.515.202 1.052.34 1.6.412 0 .352 0 .704-.02 1.052.42.06.845.06 1.265 0-.019-.347-.029-.694-.03-1.04a7.594 7.594 0 0 0 1.605-.409c-.012.38-.012.76 0 1.14A6.9 6.9 0 0 0 14.2 5.471l-.002-.006Zm1.027 10.452c-.906.82-2.193 1.015-3.375.998-1.037 0-2.135-.281-2.884-1.032-.398-.384-.623-.897-.825-1.406.725-.188 1.473-.25 2.202-.407a1.28 1.28 0 0 0 .854.958c.662.207 1.483.236 2.035-.236.391-.325.402-1.035-.083-1.278-1.138-.588-2.555-.389-3.63-1.133-1.482-.934-1.591-3.41-.142-4.418 1.109-.778 2.59-.875 3.876-.563 1.163.294 1.992 1.28 2.39 2.371-.715.124-1.43.25-2.145.371-.188-1.136-1.78-1.406-2.57-.744-.45.375-.334 1.172.228 1.371 1.23.51 2.708.363 3.798 1.217 1.265.858 1.397 2.907.27 3.93h.001Z" fill="#fff"/></svg>