<svg width="24" height="24" fill="none" xmlns="http://www.w3.org/2000/svg"><path d="M12 24C5.4 24 0 18.6 0 12S5.4 0 12 0s12 5.4 12 12-5.4 12-12 12Z" fill="#002868"/><path d="M18.048 19.2H5.952A1.155 1.155 0 0 1 4.8 18.048V5.952c0-.634.518-1.152 1.152-1.152h12.096c.633 0 1.152.518 1.152 1.152v12.096c0 .633-.519 1.152-1.152 1.152Z" fill="#fff"/><path d="M7.61 17.75c-.038 0-.069-.034-.069-.072v-1.935c0-.038-.03-.072-.069-.072H6.79c-.038 0-.072-.03-.072-.069v-.374c0-.038.034-.072.072-.072h2.103c.038 0 .072.034.072.072v.374c0 .038-.034.069-.072.069h-.68a.075.075 0 0 0-.072.072v1.935c0 .038-.03.073-.069.073H7.61ZM11.063 15.228c0-.038.03-.072.068-.072h.458c.038 0 .073.034.073.072v1.32c0 .783-.443 1.237-1.145 1.237-.698 0-1.137-.454-1.137-1.236v-1.32c0-.039.03-.073.069-.073h.457c.038 0 .073.034.073.072v1.34c0 .385.198.66.542.66.343 0 .542-.275.542-.66v-1.34ZM13.764 16.003c-.06 0-.08-.023-.103-.069-.08-.187-.256-.305-.523-.305-.24 0-.442.084-.442.244 0 .176.187.249.599.298.626.072.984.263.984.76 0 .557-.488.85-1.114.85-.542 0-1.007-.263-1.08-.816-.007-.053.02-.073.073-.073h.42c.053 0 .084.023.1.065.056.183.251.325.533.325.248 0 .466-.092.466-.286 0-.233-.229-.275-.687-.333-.527-.068-.893-.22-.893-.706 0-.485.416-.832 1.069-.832.587 0 .996.317 1.08.79.011.054-.004.088-.061.088h-.42ZM14.798 17.75c-.038 0-.069-.034-.069-.072v-2.45c0-.038.031-.072.07-.072h1.037c.77 0 1.37.53 1.37 1.305 0 .763-.591 1.29-1.37 1.29h-1.038Zm1.038-.515c.416 0 .74-.328.74-.782s-.324-.783-.744-.783h-.431c-.038 0-.069.034-.069.073v1.423c0 .038.031.069.069.069h.435ZM18.816 13.728H5.184a.193.193 0 0 1-.192-.192V5.952c0-.528.432-.96.96-.96h12.096c.528 0 .96.432.96.96v7.584a.193.193 0 0 1-.192.192Z" fill="#002868"/><path d="M12.707 12.171H11.46a.144.144 0 0 1-.144-.144v-5.28c0-.08.065-.144.144-.144h1.248c.08 0 .144.065.144.144v5.28c0 .08-.064.144-.144.144Z" fill="#fff"/><path d="M14.832 8.139H9.168a.144.144 0 0 1-.144-.144V6.747c0-.08.065-.144.144-.144h5.664c.08 0 .144.065.144.144v1.248c0 .08-.064.144-.144.144Z" fill="#fff"/></svg>