<svg width="24" height="24" fill="none" xmlns="http://www.w3.org/2000/svg"><path fill-rule="evenodd" clip-rule="evenodd" d="M24 12c0 6.627-5.373 12-12 12S0 18.627 0 12 5.373 0 12 0s12 5.373 12 12Z" fill="url(#a)"/><path fill-rule="evenodd" clip-rule="evenodd" d="M12 22.254c-5.654 0-10.254-4.6-10.254-10.254S6.346 1.746 12 1.746 22.254 6.346 22.254 12 17.654 22.254 12 22.254Zm0-21.171C5.98 1.083 1.083 5.98 1.083 12S5.98 22.917 12 22.917 22.917 18.02 22.917 12 18.02 1.083 12 1.083Z" fill="#FFFFFE"/><path fill-rule="evenodd" clip-rule="evenodd" d="M12 22.917C5.98 22.917 1.083 18.02 1.083 12S5.98 1.083 12 1.083 22.917 5.98 22.917 12 18.02 22.917 12 22.917ZM12 0C5.373 0 0 5.373 0 12s5.373 12 12 12 12-5.373 12-12S18.627 0 12 0Z" fill="#D6552B"/><path fill-rule="evenodd" clip-rule="evenodd" d="m7.42 16.861-.693.595h5.591l-.603-.43a1.881 1.881 0 0 1-.788-1.531V3.598H8.894l-.15.608a2.546 2.546 0 0 1-.837 1.345l-1.34 1.124h1.498v8.78c0 .54-.236 1.054-.646 1.406ZM14.86 7.425c.49.023.822.163.822.489 0 .352-.394.517-.838.528-.114.003-.213-.001-.3-.004 0-.365-.018-.691-.056-.98.271-.022.128-.045.372-.033Zm-.253 2.56c-.038-.469-.057-.847-.057-1.133.068.003.184.004.345.004.887 0 .993-.087 1.604-.26.61-.174.915-.443.915-.808 0-.267-.226-.466-.676-.597-.45-.13-1.002-.196-1.655-.196-.264 0-.577.002-.938.006-.361.005-.605.007-.732.007h-.897c.044.398.067.872.067 1.42 0 .598-.023 1.117-.067 1.558h2.09ZM17.052 11.205l.03-.49h-4.514l-.035.492c.723-.024.89-.036 1.303-.036.012.293.018.614.018.96 0 .552-.02 1.07-.057 1.553h2.035a23.643 23.643 0 0 1-.048-1.553c0-.353.003-.673.009-.96.52 0 .672.011 1.259.034ZM16.533 17.008c-.724 0-1.126-.106-1.527-.319-.401-.212-.602-.463-.602-.752 0-.283.17-.524.507-.722.338-.198.693-.296 1.386-.296.369 0 .273.029.676.087l.18-.533a10.316 10.316 0 0 0-1.184-.065c-1.133 0-2.025.16-2.675.48-.65.32-.976.697-.976 1.13 0 .417.307.771.92 1.063.612.292 1.504.438 2.675.438.471 0 .949-.027 1.434-.079l.087-.531c-.499.066-.478.1-.901.1ZM12.392 19.134l-.415-1.276-.414 1.276h-1.341l1.085.788-.415 1.276 1.085-.789 1.086.789-.415-1.276 1.085-.788h-1.341Z" fill="#FFFFFE"/><defs><linearGradient id="a" x1="12" y1="0" x2="12" y2="24" gradientUnits="userSpaceOnUse"><stop stop-color="#EBA019"/><stop offset="1" stop-color="#EB7912"/></linearGradient></defs></svg>