<svg width="24" height="24" fill="none" xmlns="http://www.w3.org/2000/svg"><path d="M0 4.8C0 2.16 2.16 0 4.8 0h14.4C21.84 0 24 2.16 24 4.8v14.4c0 2.64-2.16 4.8-4.8 4.8H4.8C2.16 24 0 21.84 0 19.2V4.8Z" fill="url(#a)"/><path d="M9.6 0H7.2v5.52h2.4V0ZM13.65 17.01h-3.18c-1.8 0-3.27-1.47-3.27-3.27V11.4h2.4v2.31c0 .48.39.87.87.87h3.18c.48 0 .87-.39.87-.87v-3.15a.87.87 0 0 0-.87-.87H0v-2.4h13.65c1.8 0 3.27 1.47 3.27 3.27v3.18c0 1.8-1.47 3.27-3.27 3.27Z" fill="#fff"/><defs><linearGradient id="a" x1="22.44" y1="22.44" x2="3.24" y2="3.24" gradientUnits="userSpaceOnUse"><stop offset=".159" stop-color="#003CDA"/><stop offset="1" stop-color="#33DFCC"/></linearGradient></defs></svg>