<svg width="24" height="25" viewBox="0 0 24 25" fill="none" xmlns="http://www.w3.org/2000/svg">
<g clip-path="url(#clip0)">
<path d="M11.3649 0H12.6154C13.9198 0.0864043 15.2171 0.346817 16.4291 0.836442C19.4293 2.0161 21.905 4.46302 23.1135 7.45357C24.7768 11.4354 24.0627 16.292 21.2858 19.6054C19.4065 21.9119 16.6428 23.4828 13.693 23.8824C10.9245 24.2772 8.01912 23.6808 5.6502 22.1843C3.82371 21.0467 2.31164 19.4098 1.33239 17.4921C0.0759262 15.0836 -0.305693 12.237 0.246335 9.58008C0.836764 6.63513 2.59485 3.9482 5.04657 2.21651C6.88267 0.888044 9.10878 0.140407 11.3649 0ZM10.6209 0.543627C6.97027 0.962448 3.6149 3.26176 1.87482 6.49472C0.697557 8.64403 0.227134 11.1786 0.582351 13.6063C0.984372 16.5296 2.57445 19.2646 4.90257 21.0743C6.67506 22.4723 8.86757 23.3304 11.1189 23.4984C13.669 23.7012 16.2803 23.0208 18.3972 21.5843C20.993 19.8658 22.8351 17.0553 23.3643 13.9867C23.6691 12.1782 23.5659 10.2941 23.0067 8.54563C22.2086 6.0027 20.4985 3.75499 18.2544 2.31492C16.0235 0.850842 13.2694 0.216011 10.6209 0.543627Z" fill="black"/>
<path d="M10.9093 5.2693C12.9962 4.92008 15.2343 5.60411 16.7356 7.10179C18.0676 8.35945 18.8453 10.1871 18.8069 12.0196C18.8333 13.8425 18.052 15.6558 16.726 16.9027C15.2823 18.338 13.1594 19.0232 11.1469 18.758C9.25078 18.53 7.47589 17.4523 6.39823 15.8742C5.20537 14.1845 4.87656 11.9356 5.49579 9.96633C6.22063 7.54221 8.40954 5.64732 10.9093 5.2693ZM11.3257 5.68452C11.3269 6.28095 11.3281 6.87738 11.3269 7.47381C11.6245 7.47381 11.9221 7.47381 12.2197 7.47501C12.2209 6.86298 12.2221 6.25095 12.2197 5.64012C11.9221 5.64972 11.6233 5.66412 11.3257 5.68452ZM13.4726 7.50261C14.2562 7.60821 15.0987 7.72822 15.7239 8.25745C16.678 9.11429 16.5543 10.9132 15.3867 11.5348C16.0863 11.698 16.7788 12.1648 16.9516 12.8993C17.176 13.8629 16.9972 15.0198 16.2231 15.699C15.4563 16.3302 14.4182 16.4131 13.4702 16.5031C13.475 17.0611 13.4726 17.6191 13.4714 18.1783C15.4671 17.6899 17.1892 16.2042 17.9212 14.2817C18.616 12.5081 18.4516 10.4212 17.4712 8.78787C16.6047 7.3142 15.1311 6.23175 13.4762 5.81653C13.4714 6.37815 13.4714 6.93978 13.4726 7.50261ZM7.51669 7.47861C8.38073 7.52061 9.24598 7.51101 10.1112 7.50981C10.1112 6.98298 10.1124 6.45736 10.1088 5.93053C9.14037 6.24495 8.27753 6.80897 7.51669 7.47861ZM7.41349 7.54821C7.18427 7.83023 6.75945 8.36305 6.50744 8.83468C5.49099 10.5664 5.37578 12.7889 6.22423 14.6106C6.95626 16.2438 8.40834 17.5147 10.1088 18.0619C10.1112 17.5363 10.11 17.0107 10.11 16.4863C9.24238 16.4779 8.37233 16.5091 7.50589 16.4623C7.51549 15.9786 7.6295 15.5058 7.7939 15.0498C8.21873 15.0414 8.66155 15.1158 9.07197 14.9766C9.31198 14.775 9.24358 14.4414 9.25678 14.1653C9.24358 12.5873 9.26278 11.0092 9.24838 9.43231C9.26398 9.17789 9.10437 8.90308 8.84036 8.85268C8.40474 8.76507 7.95591 8.79987 7.51549 8.79627C7.46389 8.44106 7.45789 8.08224 7.45309 7.72342C7.45309 7.72342 7.45909 7.61061 7.42069 7.53741L7.41349 7.54821ZM11.3629 8.90428V11.23C12.1393 11.2156 13.001 11.302 13.6802 10.8508C14.2442 10.4812 14.2082 9.54631 13.6262 9.21389C12.9458 8.81187 12.1165 8.92588 11.3629 8.90428ZM11.3629 12.4817V15.0618C12.3217 14.985 13.397 15.1458 14.231 14.5674C14.8275 14.1713 14.7555 13.1909 14.141 12.8477C13.3058 12.3485 12.2905 12.5069 11.3629 12.4817ZM11.3281 16.5211C11.3281 17.1175 11.3269 17.7151 11.3257 18.3115C11.6365 18.332 11.9461 18.344 12.2569 18.3536C12.2593 17.7427 12.2581 17.1319 12.2581 16.5211H11.3281Z" fill="black"/>
<path d="M10.6901 1.16669C12.7926 0.941075 14.9695 1.26149 16.8584 2.23114C19.2885 3.4228 21.2314 5.56491 22.1891 8.09583C23.1659 10.6304 23.1443 13.5297 22.1327 16.0522C20.5942 20.028 16.532 22.8866 12.255 22.8926C9.74323 22.9838 7.2159 22.1389 5.24901 20.5765C3.1513 18.9456 1.70043 16.5083 1.25281 13.8885C0.795583 11.294 1.30801 8.53746 2.69528 6.29454C4.39096 3.4816 7.42831 1.53751 10.6901 1.16669ZM10.3241 4.68766C8.61517 5.07288 7.0527 6.08213 6.00504 7.4874C4.84819 9.00908 4.31776 10.988 4.55417 12.8829C4.77618 14.911 5.88384 16.8239 7.53152 18.0251C9.0736 19.1844 11.0777 19.6932 12.9858 19.4316C15.3439 19.1436 17.5124 17.6423 18.6129 15.5362C19.4373 14.0337 19.6629 12.248 19.3605 10.5716C18.9753 8.53866 17.7056 6.69176 15.9391 5.61411C14.2855 4.58446 12.2214 4.25444 10.3241 4.68766Z" fill="black"/>
</g>
<defs>
<clipPath id="clip0">
<rect width="24" height="24.0012" fill="white"/>
</clipPath>
</defs>
</svg>
