<svg width="24" height="24" viewBox="0 0 24 24" fill="none" xmlns="http://www.w3.org/2000/svg">
<path d="M12 24C18.6274 24 24 18.6274 24 12C24 5.37258 18.6274 0 12 0C5.37258 0 0 5.37258 0 12C0 18.6274 5.37258 24 12 24Z" fill="url(#paint0_linear)" fill-opacity="0.05"/>
<path d="M21.375 11.2048C21.4575 9.47601 20.25 8.32852 18.885 7.54102L18 12.7498C18.1827 12.7244 18.3688 12.7387 18.5454 12.7918C18.7221 12.8448 18.8853 12.9354 19.0237 13.0573C19.1824 13.213 19.2773 13.4223 19.2898 13.6442C19.3023 13.8661 19.2315 14.0848 19.0912 14.2573C19.9462 14.1148 21.2775 13.2935 21.375 11.2048Z" fill="url(#paint1_linear)"/>
<path fill-rule="evenodd" clip-rule="evenodd" d="M9.74969 5.14894L8.69969 4.08769C10.2897 3.89269 14.4859 4.14019 18.5472 6.68644C18.5843 6.91368 18.5843 7.14545 18.5472 7.37269L18.8884 7.54519C19.1612 7.99771 19.3409 8.50015 19.4169 9.02305C19.4929 9.54594 19.4637 10.0787 19.3309 10.5902C18.9784 12.0002 18.3747 12.6227 18.1047 12.7502C17.5609 12.7502 16.6347 13.0652 16.3347 14.4602C16.0347 15.8552 15.4572 16.1589 15.2097 16.1364L9.20969 16.2077L5.24969 13.8752L4.67969 9.04894L5.80469 7.54894L7.81469 5.90644L9.24719 5.32144L9.74969 5.14894ZM16.8409 7.12519C16.6715 7.30478 16.4739 7.45551 16.2559 7.57144C14.7147 7.24144 14.1559 6.44644 14.1559 6.44644C15.4666 6.4073 16.7631 6.72623 17.9059 7.36894C17.5579 7.25973 17.2018 7.17823 16.8409 7.12519Z" fill="url(#paint2_linear)"/>
<path fill-rule="evenodd" clip-rule="evenodd" d="M16.2825 14.4601C15.141 15.009 13.8891 15.2899 12.6225 15.2813C8.83871 15.2813 5.77496 12.9038 5.77496 9.97506C5.77496 7.80756 7.44746 5.94756 9.84371 5.12256C5.28371 5.38506 1.61621 9.04881 1.61621 13.5713C1.61621 18.7913 6.26996 23.1038 12 23.1038C13.9913 23.0873 15.9422 22.5405 17.652 21.5195C19.3617 20.4985 20.7685 19.0403 21.7275 17.2951C19.1587 17.8726 16.125 16.7738 16.2825 14.4601Z" fill="url(#paint3_linear)"/>
<defs>
<linearGradient id="paint0_linear" x1="12" y1="8.39625" x2="12" y2="24.315" gradientUnits="userSpaceOnUse">
<stop stop-color="#01E8F8"/>
<stop offset="1" stop-color="#01E8F8" stop-opacity="0"/>
</linearGradient>
<linearGradient id="paint1_linear" x1="19.4625" y1="9.06352" x2="19.995" y2="15.4273" gradientUnits="userSpaceOnUse">
<stop stop-color="#01E8F7"/>
<stop offset="1" stop-color="#00C2FF"/>
</linearGradient>
<linearGradient id="paint2_linear" x1="8.98094" y1="5.64394" x2="15.1609" y2="15.4539" gradientUnits="userSpaceOnUse">
<stop stop-color="#01E8F7"/>
<stop offset="1" stop-color="#00B3EC"/>
</linearGradient>
<linearGradient id="paint3_linear" x1="617.624" y1="702.076" x2="641.262" y2="-57.277" gradientUnits="userSpaceOnUse">
<stop stop-color="#01E8F7"/>
<stop offset="1" stop-color="#00C2FF"/>
</linearGradient>
</defs>
</svg>
