<svg width="24" height="24" fill="none" xmlns="http://www.w3.org/2000/svg"><mask id="a" mask-type="alpha" maskUnits="userSpaceOnUse" x="0" y="0" width="24" height="24"><path d="M24 12c0 6.628-5.372 12-12 12S0 18.628 0 12 5.372 0 12 0s12 5.372 12 12Z" fill="#fff"/></mask><g mask="url(#a)" fill-rule="evenodd" clip-rule="evenodd"><path d="M4.069 0H2.004l10.515 9.852h12.719V8.175H12.9L4.069 0ZM1.97 24.618h2.123l8.787-8.175h12.358v-1.7h-12.72L1.971 24.618Z" fill="#FFFFFE"/><path d="M-1.238 2.924v2.052l8.172 7.333-8.172 7.318v2.036l10.056-9.354-10.056-9.385Z" fill="#F1AF2B"/><path d="M-1.238 4.976V19.58l7.917-7.272-7.917-7.333Z" fill="#0A0B09"/><path d="m-1.238 4.976 7.917 7.333-7.917 7.272v.046l8.172-7.318-8.172-7.333Z" fill="#0A0B09"/><path d="M4.094 24.618h21.144v-8.176H12.881l-8.787 8.176Z" fill="#283172"/><path d="M4.068 0 12.9 8.175h12.338V0H4.068Z" fill="#CB3733"/><path d="M2.003 0h-3.241v2.924L8.818 12.31l-10.056 9.354v2.955H1.97l10.548-9.875h12.72V9.852h-12.72L2.003 0Z" fill="#16714A"/></g></svg>