<svg width="24" height="24" fill="none" xmlns="http://www.w3.org/2000/svg"><path d="M6.272 3h4.75c-.571.9-.922 1.894-.9 2.97 1.414.015 2.83.015 4.244 0 .018-1.069-.27-2.092-.89-2.97h4.783c-.329.687-.889 1.323-.835 2.129-.021 3.603.008 7.21-.003 10.813.47 0 .943 0 1.417.004.347-.683.654-1.38.9-2.104 1.42.036 2.849-.04 4.262.149-1.4 1.2-2.13 2.905-3.04 4.46-3.615.007-7.23-.011-10.849.01-.17 1.312.643 2.216 1.587 2.971H5.592c.531-.698 1.601-1.146 1.49-2.168.035-3.484 0-6.973.01-10.46h3.099v2.147h4.11V8.49H5.719l-2.133 3.726a852.56 852.56 0 0 0 2.136 3.726h1.056v2.508H3.55C2.371 16.37 1.15 14.312 0 12.216v-.004c1.153-2.092 2.379-4.149 3.55-6.23 1.204 0 2.408 0 3.611-.011A5.151 5.151 0 0 0 6.272 3Zm3.919 10.48v2.462h4.11v-2.461h-4.11Z" fill="#56428E"/><path d="M17.735 5.981h3.217c.882 1.41 1.49 3.036 2.762 4.165l.097.335c-1.36.178-2.736.04-4.107.108-.173-.751-.516-1.442-.896-2.103-.271 0-.806.004-1.074.004V5.98ZM14.412 18.765c.951.003 1.906 0 2.856-.004-.021 1.207.828 1.955 1.663 2.67h-6.149c.788-.743 1.71-1.448 1.63-2.666Z" fill="#56428E"/></svg>