<svg width="24" height="24" viewBox="0 0 24 24" fill="none" xmlns="http://www.w3.org/2000/svg">
<path d="M12 0C18.6274 0 24 5.37257 24 12C24 18.6274 18.6274 24 12 24C5.37257 24 0 18.6274 0 12C0 5.37257 5.37257 0 12 0Z" fill="#1A82FF"/>
<path d="M16.387 16.9414C15.3482 18.2141 13.8871 18.8505 12.0039 18.8505C10.1207 18.8505 8.65947 18.2141 7.62015 16.9414C6.58061 15.6681 6.06107 14.0221 6.06152 12.0036C6.06198 9.98508 6.58129 8.33937 7.61947 7.06645C8.65832 5.79308 10.1196 5.15651 12.0032 5.15674C13.8869 5.15697 15.3479 5.79354 16.3863 7.06645C17.4252 8.33914 17.9447 9.98485 17.945 12.0036C17.9452 14.0223 17.4259 15.6683 16.387 16.9414Z" fill="white"/>
<path d="M11.9823 16.1891C12.478 16.1891 12.8995 16.054 13.2467 15.7838C13.5939 15.5137 13.8453 15.1473 14.001 14.6846C14.1564 14.2218 14.2661 13.7781 14.3301 13.3537C14.3941 12.9292 14.4259 12.4792 14.4255 12.0035C14.4255 11.4179 14.39 10.8938 14.3192 10.4312L10.0479 14.8821C10.4428 15.753 11.0876 16.1886 11.9823 16.1891Z" fill="#1A82FF"/>
<path d="M12.0247 7.81787C11.529 7.81787 11.1075 7.95295 10.7603 8.22312C10.4131 8.49328 10.1617 8.85967 10.006 9.32229C9.84966 9.78514 9.73995 10.2288 9.67686 10.6532C9.61286 11.0777 9.58109 11.5277 9.58155 12.0034C9.58155 12.3167 9.5916 12.6125 9.61172 12.8907L13.6855 8.64619C13.2899 8.09421 12.7363 7.8181 12.0247 7.81787Z" fill="#1A82FF"/>
<path d="M6.39371 16.2467L5.86914 15.7434L9.84697 11.5969L10.3715 12.1002L6.39371 16.2467ZM13.8886 11.9198L13.364 11.4165L17.3418 7.27002L17.8664 7.77333L13.8886 11.9198Z" fill="#1A82FF"/>
</svg>
