<svg width="24" height="24" fill="none" xmlns="http://www.w3.org/2000/svg"><path d="M12 24c6.627 0 12-5.373 12-12S18.627 0 12 0 0 5.373 0 12s5.373 12 12 12Z" fill="#2FD2E5"/><path d="M12.427 3.005a8.841 8.841 0 0 0-5.634 1.78 1.324 1.324 0 0 0-.082 2.05 1.301 1.301 0 0 0 1.692.08 6.29 6.29 0 0 1 8.47.683c.443.458.456 1.179.032 1.653a1.19 1.19 0 0 1-1.684.058l-.058-.058a3.929 3.929 0 1 0 0 5.294 1.167 1.167 0 0 1 1.395-.265 1.183 1.183 0 0 1 .347 1.853 6.31 6.31 0 0 1-8.505.747 1.324 1.324 0 0 0-1.703.082 1.339 1.339 0 0 0 .112 2.067 8.889 8.889 0 1 0 5.618-16.023Zm-.165 11.091a2.197 2.197 0 0 1-2.191-2.208 2.197 2.197 0 0 1 2.208-2.191 2.2 2.2 0 1 1-.016 4.4Z" fill="#fff"/></svg>