<svg width="24" height="24" fill="none" xmlns="http://www.w3.org/2000/svg"><path d="M12 24c6.627 0 12-5.373 12-12S18.627 0 12 0 0 5.373 0 12s5.373 12 12 12Z" fill="#FF3B81"/><path d="M6.344 16.606v.105H5.237v-2l-.035.111-1.058-.32.598-1.927-.074.108-.918-.61 1.147-1.675-.109.087-.698-.848L5.741 8.32l-.21.08-.397-1.018 1.971-.745-.23.015-.077-1.088 2.064-.142-.187-.042.25-1.063 1.972.449-.125-.071.553-.945 1.72.978-.068-.07.81-.745 1.34 1.415-.029-.057.995-.478.86 1.735-.008-.049 1.093-.17.323 2.004.022-.143 1.095.17-.328 2.035.08-.164.996.479-.921 1.86.135-.142.81.745-1.433 1.512.174-.098.553.944-1.799 1.024.18-.042.25 1.063-1.989.452.154.01-.077 1.089-1.99-.137.1.038-.397 1.018-1.905-.72.121.096-.697.848-1.572-1.255.078.113-.918.611-1.126-1.643.034.108-1.059.32-.588-1.898Zm0-1.296.692-.209.537 1.733.598-.398 1.022 1.493.457-.555 1.415 1.13.254-.651 1.707.645.05-.704 1.826.126-.164-.702 1.79-.407-.37-.633 1.598-.909-.548-.502 1.262-1.334-.673-.324.812-1.64-.737-.115.29-1.8-.705.11-.289-1.8-.634.304-.806-1.627-.518.474-1.247-1.317-.356.609-1.58-.898-.163.696-1.776-.404.052.727-1.823.125.269.692-1.718.65.463.561-1.441 1.15.608.404-1.038 1.518.7.211-.543 1.748h.728v1.823Zm5.438-2.044c0-.276-.098-.487-.292-.633-.195-.15-.544-.305-1.05-.467a7.433 7.433 0 0 1-1.2-.488c-.802-.435-1.204-1.02-1.204-1.757 0-.383.107-.724.32-1.023.218-.302.527-.538.928-.707a3.507 3.507 0 0 1 1.36-.252c.506 0 .956.092 1.35.277.396.182.702.44.92.774.22.339.336.736.33 1.14h-1.458c0-.325-.102-.577-.306-.755-.204-.181-.49-.272-.86-.272-.355 0-.633.075-.83.229a.709.709 0 0 0-.296.593c0 .23.114.424.345.58.232.155.574.302 1.024.438.83.25 1.433.56 1.812.93.38.37.568.832.568 1.383 0 .614-.231 1.096-.694 1.447-.463.347-1.087.521-1.87.521a3.627 3.627 0 0 1-1.487-.297c-.446-.201-.788-.476-1.024-.823a2.115 2.115 0 0 1-.35-1.208H9.28c0 .782.466 1.174 1.399 1.174.346 0 .617-.07.811-.21a.696.696 0 0 0 .292-.594Zm4.447-4.348-1.404 5.139-1.158-.082.876-5.297 1.686.24Zm-1.225 5.674-.365 1.816-1.54-.45.354-1.741 1.55.375Z" fill="#fff"/></svg>