<svg width="24" height="24" fill="none" xmlns="http://www.w3.org/2000/svg"><path d="M12 24c6.627 0 12-5.373 12-12S18.627 0 12 0 0 5.373 0 12s5.373 12 12 12Z" fill="#666"/><path fill-rule="evenodd" clip-rule="evenodd" d="M18.811 15.863a1.15 1.15 0 0 1-1.554.408l-3.584-2.032v-1.29l1.139-.645 3.583 2.031c.544.309.73.993.416 1.527Zm-5.674 2.744c0 .617-.509 1.117-1.137 1.117-.629 0-1.138-.5-1.138-1.117v-4.064L12 13.898l1.137.645v4.064ZM6.742 16.27a1.15 1.15 0 0 1-1.554-.41 1.106 1.106 0 0 1 .417-1.526l3.583-2.032 1.138.646v1.29L6.742 16.27ZM5.605 9.664a1.107 1.107 0 0 1-.417-1.526 1.15 1.15 0 0 1 1.554-.41l3.584 2.033v1.29l-1.138.645-3.583-2.031Zm5.257-4.27c0-.618.51-1.118 1.138-1.118.628 0 1.137.5 1.137 1.117v4.064L12 10.102l-1.138-.645V5.393Zm2.811 6.265.603.341-.603.341v-.682Zm-1.138-1.253.602-.342v.684l-.602-.342Zm-1.673.341v-.682l.602.341-.602.341Zm-.536 1.594L9.724 12l.602-.341v.682Zm1.138 1.253-.602.342v-.684l.602.342Zm1.673-.341v.682l-.602-.341.602-.341ZM12 13.29l-1.138-.645v-1.29L12 10.71l1.137.645v1.29L12 13.29Zm5.257-5.561a1.15 1.15 0 0 1 1.554.41 1.106 1.106 0 0 1-.416 1.526l-3.583 2.032-1.139-.646v-1.29l3.584-2.032Zm1.406 6.151L15.347 12l3.316-1.88a1.629 1.629 0 0 0 .613-2.245 1.69 1.69 0 0 0-2.287-.601l-3.316 1.88V5.393c0-.907-.75-1.643-1.673-1.643-.924 0-1.674.736-1.674 1.643v3.76L7.01 7.274a1.69 1.69 0 0 0-2.285.602 1.628 1.628 0 0 0 .613 2.245L8.653 12l-3.315 1.88a1.628 1.628 0 0 0-.614 2.245 1.69 1.69 0 0 0 2.286.602l3.316-1.88v3.76c0 .907.75 1.643 1.674 1.643.924 0 1.673-.736 1.673-1.643v-3.76l3.316 1.88a1.69 1.69 0 0 0 2.287-.602 1.627 1.627 0 0 0-.613-2.245Z" fill="#fff"/></svg>