<svg width="24" height="24" fill="none" xmlns="http://www.w3.org/2000/svg"><path d="M12 24c6.627 0 12-5.373 12-12S18.627 0 12 0 0 5.373 0 12s5.373 12 12 12Z" fill="#7F27FF"/><path d="M11.6 10.4H6.4v5.2a1.98 1.98 0 0 0 2 2h3.2v-7.2Zm.8 0h5.2v5.2a1.98 1.98 0 0 1-2 2h-3.2v-7.2ZM12.4 9.6h5.042c.558 0 .96-.48.96-.96 0-.558-.48-.96-.96-.96H6.64c-.558 0-.96.48-.96.96 0 .558.48.96.96.96h4.96V8.32h.8" fill="#fff"/><path d="M12.732 8.23c1.12-2 2-2.639 2.64-2 .64.64.24 1.28-1.12 2M11.617 8.23c-1.12-2-2-2.639-2.64-2-.64.64-.24 1.28 1.12 2" stroke="#fff"/></svg>