<svg width="24" height="24" fill="none" xmlns="http://www.w3.org/2000/svg"><path d="M12 24c6.627 0 12-5.373 12-12S18.627 0 12 0 0 5.373 0 12s5.373 12 12 12Z" fill="#610089"/><path fill-rule="evenodd" clip-rule="evenodd" d="M12.368 3.752c3.847.207 6.961 2.877 7.725 6.651.1.498.128 1.013.156 1.523.024.45-.269.753-.675.753-.397 0-.657-.288-.667-.735-.073-3.29-2.295-6.004-5.504-6.69-.48-.102-.98-.104-1.471-.16a.662.662 0 0 1-.61-.693c.01-.36.28-.63.656-.648.13-.006.26 0 .39 0Zm-.719 16.498c-3.692-.111-7.013-2.91-7.714-6.534-.106-.555-.147-1.124-.183-1.69-.023-.344.197-.592.517-.674a.633.633 0 0 1 .71.297c.067.128.1.29.102.438.055 3.153 2.187 5.866 5.247 6.62.552.137 1.134.16 1.704.22.326.034.587.255.63.572.042.3-.147.635-.435.707-.185.045-.385.031-.578.044Zm.34-11.252c1.632-.006 3.003 1.333 3.014 2.943.004.555-.505.905-.975.666-.255-.13-.364-.345-.375-.633a1.652 1.652 0 0 0-1.4-1.599 1.643 1.643 0 0 0-1.872 1.308c-.172.886.383 1.75 1.247 1.936.119.026.24.04.36.047.402.02.684.297.681.675-.003.382-.305.666-.715.67-1.287.01-2.5-.928-2.851-2.206-.524-1.91.91-3.801 2.885-3.807Zm5.665 2.817c-.015.128-.01.288-.056.43-.097.303-.42.479-.735.428-.328-.054-.56-.323-.565-.69-.005-.56-.096-1.103-.325-1.61-.76-1.677-2.06-2.576-3.903-2.663-.45-.023-.75-.287-.747-.69.004-.404.305-.667.763-.665 2.752.005 5.157 2.135 5.506 4.878.024.185.04.37.062.582Zm-11.295.346c-.039-.305.04-.606.388-.766.46-.213.94.116.949.655a4.313 4.313 0 0 0 1.815 3.472 4.284 4.284 0 0 0 2.374.785c.582.015.92.437.735.915-.103.27-.331.427-.643.424-1.652-.015-3.044-.634-4.158-1.847a5.495 5.495 0 0 1-1.46-3.637Zm8.65 2.115c-.028.335-.142.548-.394.665-.25.117-.505.1-.705-.086a20.32 20.32 0 0 1-1.051-1.048c-.233-.249-.21-.64.018-.886.232-.25.648-.302.902-.068.377.343.733.71 1.08 1.085.092.099.117.259.15.337v.001Z" fill="#fff"/></svg>