<svg width="24" height="24" fill="none" xmlns="http://www.w3.org/2000/svg"><path d="M12 24c6.627 0 12-5.373 12-12S18.627 0 12 0 0 5.373 0 12s5.373 12 12 12Z" fill="#AA15DD"/><path d="M12 19.209c.18 0 .325.15.326.333a.33.33 0 0 1-.326.333.329.329 0 0 1-.327-.333.33.33 0 0 1 .327-.333ZM5.413 8.519a.338.338 0 0 1 .02-.59.327.327 0 0 1 .463.214.337.337 0 0 1-.118.352.324.324 0 0 1-.365.024Zm0 6.97a.325.325 0 0 1 .447.122.336.336 0 0 1-.12.455.323.323 0 0 1-.447-.122.336.336 0 0 1 .12-.455Zm13.17-6.97a.326.326 0 0 1-.447-.123.338.338 0 0 1 .177-.484.326.326 0 0 1 .355.097.336.336 0 0 1-.085.51ZM12 4.79a.33.33 0 0 1-.322-.333c0-.135.081-.257.204-.308a.323.323 0 0 1 .357.075.337.337 0 0 1-.055.512.327.327 0 0 1-.184.054Zm5.85 10.646a.678.678 0 0 0 .166.864l-5.363 3.15a.663.663 0 0 0-.652-.577.662.662 0 0 0-.653.577L5.984 16.3a.678.678 0 0 0-.19-1.162.653.653 0 0 0-.462.011v-6.3a.653.653 0 0 0 .816-.286.678.678 0 0 0-.163-.863l5.363-3.15a.662.662 0 0 0 .653.577.662.662 0 0 0 .652-.578l5.365 3.15a.678.678 0 0 0-.165.863.653.653 0 0 0 .817.287v6.296a.655.655 0 0 0-.82.29Zm-4.584-.966a2.72 2.72 0 0 1-3.58-.745l3.539-2.073 1.206-.708.571-.338.033-.015 2.43-1.43a.323.323 0 0 0-.072-.586.306.306 0 0 0-.24.034l-1.786 1.054a4.217 4.217 0 0 0-3.021-1.845V5.772a.326.326 0 0 0-.45-.304.328.328 0 0 0-.199.304V7.8a4.12 4.12 0 0 0-1.89.566A4.249 4.249 0 0 0 8.492 9.57L6.854 8.61a.31.31 0 0 0-.429.117.323.323 0 0 0 .115.435l1.625.955a4.323 4.323 0 0 0-.442 2.252l.15.858c.068.232.153.459.256.677l-1.589.934a.323.323 0 0 0 .077.586.312.312 0 0 0 .239-.032l1.595-.935a4.241 4.241 0 0 0 3.244 1.837v1.934c0 .182.145.33.325.33a.327.327 0 0 0 .324-.33v-1.95a4.024 4.024 0 0 0 1.65-.547 4.155 4.155 0 0 0 1.399-1.367l1.753 1.026a.31.31 0 0 0 .425-.12.322.322 0 0 0-.111-.434L15.696 13.8c.005-.01.015-.021.015-.033.536-1.233-.898-1.763-1.216-.813a2.78 2.78 0 0 1-1.23 1.516h.001Zm5.319 1.018a.338.338 0 0 1 .037.553.325.325 0 0 1-.517-.179.336.336 0 0 1 .23-.407.325.325 0 0 1 .25.033ZM9.213 12.44c-.032-1.25.116-2.122 1.3-2.818a2.715 2.715 0 0 1 3.095.237L9.213 12.44Z" fill="#fff"/></svg>