<svg width="24" height="24" fill="none" xmlns="http://www.w3.org/2000/svg"><path d="M12 24c6.627 0 12-5.373 12-12S18.627 0 12 0 0 5.373 0 12s5.373 12 12 12Z" fill="#630"/><path d="m8.766 7.547.937-2.297 6.422.023c.937.07 2.062.07 2.695.868.75.867.586 2.109.21 3.093a6.535 6.535 0 0 1-4.757 4.266c-1.547.235-3.117.164-4.688.164.313-.762.626-1.528.938-2.297 1.29 0 2.602.07 3.914-.14 1.196-.305 2.297-1.5 2.11-2.813-.118-.562-.75-.82-1.29-.82-2.156-.094-4.313 0-6.468-.048h-.023v.001Z" fill="#fff"/><path d="M6 8.18h7.617L12.61 10.78H4.968L6 8.203V8.18Zm1.219 3.187h2.648l-2.765 7.031H4.5l2.742-7.03h-.023Z" fill="#fff"/></svg>