<svg width="24" height="24" fill="none" xmlns="http://www.w3.org/2000/svg"><g clip-path="url(#a)"><path d="M11.83 24c5.982 0 10.831-4.849 10.831-10.83 0-5.982-4.849-10.831-10.83-10.831C5.849 2.339 1 7.188 1 13.169 1 19.151 5.849 24 11.83 24Z" fill="#09006E"/><path d="m18.416.879-7.197 12.464a1.757 1.757 0 1 0 3.042 1.757l7.197-12.465A1.757 1.757 0 1 0 18.416.88Z" fill="url(#b)"/><path d="m15.304 19.015-.035-5.484-2.613 4.4h-1.788L8.255 13.72v5.295H4.56V6.98h3.335l3.92 6.412 3.816-6.412h3.335L19 19.015h-3.696Z" fill="#00FFD9"/><path d="m11.625 12.64 5.095-8.823a1.756 1.756 0 1 1 3.042 1.755l-5.095 8.825a1.757 1.757 0 1 1-3.042-1.757Z" fill="url(#c)"/></g><defs><linearGradient id="b" x1="17.554" y1="6.122" x2="20.769" y2=".553" gradientUnits="userSpaceOnUse"><stop stop-color="#00FFD9"/><stop offset=".85" stop-color="#09006E"/></linearGradient><linearGradient id="c" x1="12.369" y1="15.156" x2="19.166" y2="3.382" gradientUnits="userSpaceOnUse"><stop offset=".08" stop-color="#00FFD9"/><stop offset=".68" stop-color="#064E8F"/><stop offset="1" stop-color="#09006E"/></linearGradient><clipPath id="a"><path fill="#fff" d="M0 0h24v24H0z"/></clipPath></defs></svg>