<svg width="24" height="24" fill="none" xmlns="http://www.w3.org/2000/svg"><path d="M12 24c6.627 0 12-5.373 12-12S18.627 0 12 0 0 5.373 0 12s5.373 12 12 12Z" fill="#C1A05C"/><path fill-rule="evenodd" clip-rule="evenodd" d="M12.207 19.5c-1.74-.005-3.296-.538-4.687-1.56-.37-.271-.38-.428-.066-.766l.029-.03c.384-.417.382-.414.839-.086a6.423 6.423 0 0 0 3.617 1.235c1.385.047 2.657-.283 3.806-1.025 1.38-.89 2.32-2.129 2.714-3.71.494-1.986.127-3.825-1.175-5.441-.912-1.133-2.097-1.863-3.53-2.209a6.593 6.593 0 0 0-3.766.192 6.198 6.198 0 0 0-1.803.982c-.269.21-.37.206-.6-.05a4.286 4.286 0 0 1-.309-.377c-.14-.2-.121-.318.07-.47a7.729 7.729 0 0 1 3.086-1.48 7.595 7.595 0 0 1 3.108-.083c1.401.254 2.648.83 3.718 1.763.792.691 1.433 1.5 1.878 2.445.614 1.302.863 2.665.68 4.104a7.338 7.338 0 0 1-1.493 3.6c-.83 1.081-1.893 1.87-3.163 2.389a7.612 7.612 0 0 1-2.953.577Zm-.477-4.787c-.05.076-.077.133-.119.177a1.32 1.32 0 0 1-.936.438c-.26.007-.519-.014-.777-.008-.1-.001-.2.023-.287.072-1.195.75-2.482.859-3.838.571-.447-.095-.846-.266-1.187-.559-.256-.22-.437-.479-.459-.844-.037-.635.433-1.068.917-1.21.895-.262 1.746-.103 2.56.293.373.18.72.409 1.076.622.204.12.265.116.367-.092.461-.942.164-1.981-.963-2.365-.988-.338-1.955-.304-2.907.135-.14.065-.292.188-.457.056-.17-.139-.056-.303-.012-.448.312-1.053.63-2.104.951-3.154.07-.23.255-.349.523-.335.395.022.788.082 1.184.09.592.016 1.187.02 1.779-.008.44-.023.826-.216 1.166-.497.041-.034.124-.073.151-.055.04.027.064.1.068.155.028.455-.167.805-.529 1.078a2.44 2.44 0 0 1-1.449.485c-.553.012-1.105.02-1.657.022-.125.002-.19.047-.22.164-.05.195-.102.39-.158.585-.043.145.012.202.158.196.348-.012.696-.036 1.043-.034.8-.004 1.571.292 2.162.83.58.516.815 1.182.85 1.926.028.596-.086 1.167-.414 1.68-.09.141-.049.202.102.242.4.105.77.033 1.124-.164.03-.016.057-.035.088-.05.01-.004.026.001.1.006Zm-3.426.17-.012-.073c-.05-.031-.098-.07-.152-.094-.398-.176-.79-.37-1.198-.52-.416-.152-.85-.26-1.302-.155-.204.048-.408.1-.467.334-.066.259.092.42.276.561a.815.815 0 0 0 .198.103c.7.27 1.412.277 2.126.066.183-.054.355-.148.53-.223Z" fill="#fff"/></svg>