<svg width="24" height="24" fill="none" xmlns="http://www.w3.org/2000/svg"><path d="M12 0c6.627 0 12 5.373 12 12s-5.373 12-12 12S0 18.627 0 12 5.373 0 12 0Z" fill="#000"/><path d="M6.236 9.796c0 .09.09.18.18.18h2.183v1.11H6.416c-.09 0-.18.089-.18.179v1.83c0 .09.09.179.18.179h2.183v4.379c0 .09.06.15.15.15h2.093c.09 0 .15-.06.15-.15v-4.138c0-.09.059-.15.149-.15h1.675c.06 0 .12.03.15.09l1.853 4.29c.03.059.09.089.15.089h2.243c.12 0 .18-.12.15-.21l-1.855-4.2c-.03-.089 0-.179.09-.209.897-.33 1.465-1.14 1.465-2.22v-2.7a2.53 2.53 0 0 0-2.512-2.519H8.748c-.09 0-.15.06-.15.15v1.86H6.417c-.09 0-.18.09-.18.18v1.83Z" fill="#fff"/><path d="M10.991 8.206c0-.09.06-.15.15-.15h2.811c.389 0 .718.33.718.72v1.62c0 .39-.33.72-.718.72h-2.811c-.09 0-.15-.061-.15-.15v-2.76Z" fill="#000"/></svg>