<svg width="24" height="24" fill="none" xmlns="http://www.w3.org/2000/svg"><path d="M4.756 5.075h9.972c.03 0 .055.009.076.026l4.057 2.983c.06.042.068.123.026.183a.13.13 0 0 1-.107.051H8.25a.133.133 0 0 0-.132.132v3.823c0 .072.06.132.132.132h6.712c.072 0 .132.06.132.132v2.787c0 .072-.06.132-.132.132H4.71a.133.133 0 0 1-.132-.132l.047-10.112c0-.077.055-.133.132-.137-.004 0 0 0 0 0Z" fill="#0E67AE"/><path d="M19.129 19.21H8.752a.119.119 0 0 1-.076-.025l-3.814-2.821c-.06-.043-.068-.124-.026-.184a.13.13 0 0 1 .107-.05h10.696c.072 0 .132-.06.132-.133v-4.146a.133.133 0 0 0-.132-.132H9.025a.132.132 0 0 1-.132-.128V9.132c0-.072.06-.132.128-.132h10.155c.072 0 .132.06.132.132l-.047 9.95a.132.132 0 0 1-.132.128Z" fill="#0E67AE"/><path fill-rule="evenodd" clip-rule="evenodd" d="M12 1.108C5.984 1.108 1.108 5.984 1.108 12c0 6.015 4.876 10.892 10.892 10.892 6.015 0 10.892-4.877 10.892-10.892 0-6.016-4.877-10.892-10.892-10.892ZM0 12C0 5.373 5.373 0 12 0s12 5.373 12 12-5.373 12-12 12S0 18.627 0 12Z" fill="#0E67AE"/></svg>