<svg width="24" height="24" viewBox="0 0 24 24" fill="none" xmlns="http://www.w3.org/2000/svg">
<path d="M4.75613 5.0752H14.7277C14.7575 5.0752 14.7831 5.08372 14.8044 5.10076L18.8612 8.08373C18.9209 8.12634 18.9294 8.20731 18.8868 8.26697C18.8612 8.30106 18.8229 8.3181 18.7803 8.3181H8.25044C8.178 8.3181 8.11834 8.37776 8.11834 8.45021V12.2727C8.11834 12.3451 8.178 12.4048 8.25044 12.4048H14.9621C15.0345 12.4048 15.0942 12.4644 15.0942 12.5369V15.3238C15.0942 15.3962 15.0345 15.4559 14.9621 15.4559H4.70925C4.63681 15.4559 4.57715 15.3962 4.57715 15.3238L4.62402 5.21156C4.62402 5.13485 4.67942 5.07946 4.75613 5.0752C4.75186 5.0752 4.75613 5.0752 4.75613 5.0752Z" fill="#0E67AE"/>
<path d="M19.1288 19.2102H8.7524C8.72257 19.2102 8.697 19.2017 8.67569 19.1846L4.86177 16.3636C4.80211 16.321 4.79359 16.24 4.8362 16.1804C4.86177 16.1463 4.90012 16.1293 4.94274 16.1293H15.6388C15.7112 16.1293 15.7709 16.0696 15.7709 15.9971V11.8508C15.7709 11.7784 15.7112 11.7187 15.6388 11.7187H9.02512C8.95268 11.7187 8.89302 11.6591 8.89302 11.5909V9.1321C8.89302 9.05966 8.95268 9 9.02086 9H19.1757C19.2481 9 19.3078 9.05966 19.3078 9.1321L19.2609 19.0824C19.2567 19.1548 19.2013 19.2102 19.1288 19.2102Z" fill="#0E67AE"/>
<path fill-rule="evenodd" clip-rule="evenodd" d="M12 1.10795C5.98449 1.10795 1.10795 5.98449 1.10795 12C1.10795 18.0155 5.98449 22.892 12 22.892C18.0155 22.892 22.892 18.0155 22.892 12C22.892 5.98449 18.0155 1.10795 12 1.10795ZM0 12C0 5.37258 5.37258 0 12 0C18.6274 0 24 5.37258 24 12C24 18.6274 18.6274 24 12 24C5.37258 24 0 18.6274 0 12Z" fill="#0E67AE"/>
</svg>
