<svg width="24" height="24" fill="none" xmlns="http://www.w3.org/2000/svg"><path d="M12 24C5.333 24 0 18.6 0 12S5.4 0 12 0s12 5.4 12 12c0 6.533-5.267 12-12 12Zm-4.867-6.533c.067-.067.067-.134.067-.134 1.067-1.866 2.133-3.8 3.2-5.666a325.776 325.776 0 0 1 2.8-4.934c.067-.066.067-.066.133-.066h3.4c-1.533 2.666-3 5.333-4.533 8h8.4a.143.143 0 0 0 .133-.134c.4-1.466.467-3 .134-4.466-.4-1.8-1.334-3.334-2.667-4.6a6.79 6.79 0 0 0-2-1.4c-1.8-.934-3.733-1.2-5.733-.867-2 .333-3.734 1.333-5.067 2.8-.2.133-.333.333-.533.533V6.6h7.866c-.066.067-.066.133-.133.2-.467.867-.933 1.667-1.4 2.533-.067.067-.133.134-.2.134H3.467C2.2 13.4 4 18.333 8.4 20.267c4.267 1.933 8.8.133 10.867-2.8H7.133Zm13.734 2.066c1.533-1.666 2.866-4.466 2.8-7.8-.067-2.733-1-5.133-2.8-7.266l-1.6 1.6c2.8 3.333 2.933 8.333 0 11.866a18.12 18.12 0 0 1 1.6 1.6Z" fill="#C87035"/></svg>