<svg width="24" height="24" fill="none" xmlns="http://www.w3.org/2000/svg"><path d="M13.236 14.623a2.868 2.868 0 1 0 0-5.737 2.868 2.868 0 0 0 0 5.737Z" fill="#57BEEA"/><path d="M13.236 22.1c-5.714 0-10.345-4.632-10.345-10.345 0-5.714 4.631-10.346 10.345-10.346s10.345 4.632 10.345 10.346c0 5.713-4.631 10.345-10.345 10.345Zm0-.521c5.426 0 9.824-4.399 9.824-9.824 0-5.426-4.398-9.825-9.824-9.825S3.412 6.33 3.412 11.755c0 5.425 4.398 9.824 9.824 9.824Z" fill="#292929"/><path d="M18.293 6.21a2.865 2.865 0 1 0 0-5.73 2.865 2.865 0 0 0 0 5.73ZM18.192 23.665a2.865 2.865 0 1 0 0-5.73 2.865 2.865 0 0 0 0 5.73ZM3.153 15.263a2.865 2.865 0 1 0 0-5.73 2.865 2.865 0 0 0 0 5.73Z" fill="#292929"/></svg>