<svg width="24" height="24" viewBox="0 0 24 24" fill="none" xmlns="http://www.w3.org/2000/svg">
<path d="M12 24C18.6274 24 24 18.6274 24 12C24 5.37258 18.6274 0 12 0C5.37258 0 0 5.37258 0 12C0 18.6274 5.37258 24 12 24Z" fill="black"/>
<path fill-rule="evenodd" clip-rule="evenodd" d="M13.0409 16.8195V19.6247C13.0409 20.0082 12.7303 20.3187 12.3468 20.3187C12.216 20.3187 12.0897 20.2847 11.9781 20.2168L6.14933 16.6496C5.73674 16.3972 5.48438 15.9459 5.48438 15.4605V12.7572C5.48438 12.4369 5.74646 12.1748 6.06662 12.1748C6.16853 12.1748 6.27066 12.204 6.35789 12.2574L12.4634 15.8148C12.8227 16.0235 13.0409 16.4069 13.0409 16.8195Z" fill="#01D494"/>
<path fill-rule="evenodd" clip-rule="evenodd" d="M15.826 12.5196V18.2077C15.826 18.3776 15.7388 18.5329 15.5933 18.6105L14.2537 19.3628C14.2392 19.3725 14.2198 19.3823 14.2003 19.3871V16.2276C14.2003 15.8199 13.9868 15.4413 13.6325 15.2278L8.27441 12.0197V8.45737C8.27441 8.13699 8.5365 7.875 8.85666 7.875C8.95857 7.875 9.0607 7.90402 9.14793 7.95261L15.2487 11.515C15.6078 11.7237 15.826 12.1071 15.826 12.5196Z" fill="#01D494"/>
<path fill-rule="evenodd" clip-rule="evenodd" d="M18.5009 16.63C18.5009 16.7999 18.4087 16.9552 18.2582 17.0377L16.9916 17.722V11.9368C16.9916 11.5242 16.778 11.1507 16.4285 10.937L10.9443 7.6513V4.26852C10.9443 4.16662 10.9732 4.06471 11.0218 3.9774C11.187 3.70071 11.5413 3.60367 11.8178 3.76389L17.9234 7.31158C18.2826 7.52023 18.5009 7.90369 18.5009 8.31626V16.63Z" fill="#01D494"/>
</svg>
