<svg width="24" height="24" viewBox="0 0 24 24" fill="none" xmlns="http://www.w3.org/2000/svg">
<g clip-path="url(#clip0)">
<path fill-rule="evenodd" clip-rule="evenodd" d="M11.3823 0.583496V1.09954C11.5627 1.02661 11.7325 0.92976 11.8871 0.811605C11.7151 0.811605 11.5431 0.583496 11.3711 0.583496H11.3823Z" fill="black"/>
<path fill-rule="evenodd" clip-rule="evenodd" d="M11.9917 0.621058C11.8085 0.621058 11.6178 0.591142 11.442 0.587402H11.3859C9.00699 0.715442 6.72752 1.58378 4.86632 3.07099C3.00513 4.55819 1.65526 6.5899 1.0055 8.88199C0.35574 11.1741 0.438574 13.6119 1.24242 15.8546C2.04627 18.0973 3.53093 20.0327 5.48878 21.3901C5.1234 21.0592 4.8317 20.6552 4.63263 20.2042C4.43356 19.7533 4.33157 19.2655 4.33328 18.7725C4.33917 17.8361 4.71376 16.9397 5.37591 16.2776C6.03806 15.6154 6.93443 15.2408 7.87083 15.235L8.5776 15.2125V15.0592C8.57716 14.3185 8.81093 13.5967 9.24548 12.9969C9.68003 12.3972 10.2931 11.9502 10.997 11.7198C11.3503 11.6022 11.7204 11.5429 12.0927 11.5441C12.7703 11.5434 13.4336 11.7386 14.0028 12.1062C14.5721 12.4737 15.0229 12.9979 15.3012 13.6158C16.507 12.7885 17.4299 11.6111 17.9452 10.2426C18.4604 8.87404 18.5432 7.38033 18.1823 5.96324C17.8214 4.54615 17.0342 3.27398 15.9271 2.31861C14.8201 1.36324 13.4464 0.770703 11.9917 0.621058Z" fill="#B4E1FF"/>
<path fill-rule="evenodd" clip-rule="evenodd" d="M12.3657 0.583496C18.5433 1.33139 20.4542 5.86739 20.4579 9.96212C20.4579 14.1503 16.9391 17.2055 13.8615 18.0132C12.714 18.2951 11.55 18.505 10.3763 18.6415L9.90886 18.6975C9.79749 18.7126 9.68746 18.7364 9.57978 18.7686C9.24954 18.8656 8.94532 19.0356 8.68965 19.266C8.43397 19.4965 8.23337 19.7814 8.10269 20.0999C7.98835 20.3761 7.92988 20.6722 7.93067 20.9712C7.93031 21.4484 8.07842 21.9139 8.35447 22.3032C8.63053 22.6925 9.02085 22.9863 9.47134 23.1438C9.63214 23.1812 9.79667 23.2111 9.96495 23.2448C10.6353 23.3635 11.3147 23.4235 11.9955 23.4243C14.9864 23.4144 17.8542 22.232 19.9829 20.1309C22.1116 18.0299 23.3315 15.1778 23.3804 12.1872C23.4294 9.19665 22.3036 6.30616 20.2448 4.13655C18.186 1.96694 15.3585 0.691256 12.3694 0.583496H12.3657Z" fill="#90D595"/>
<path fill-rule="evenodd" clip-rule="evenodd" d="M12.3656 0.583496C12.2422 0.583496 12.1226 0.583496 11.9917 0.583496C11.8085 0.583496 11.6177 0.583496 11.442 0.583496C11.629 0.583496 11.8159 0.602194 11.9917 0.620891C13.4495 0.766778 14.8271 1.35769 15.9376 2.31341C17.0481 3.26914 17.8376 4.54339 18.1989 5.96322C18.5603 7.38306 18.4761 8.8797 17.9577 10.25C17.4393 11.6203 16.5118 12.798 15.3011 13.6231C14.9748 12.8834 14.4035 12.2788 13.6834 11.9112C12.9633 11.5436 12.1386 11.4354 11.348 11.6049C10.5575 11.7745 9.84964 12.2113 9.34362 12.8418C8.8376 13.4724 8.5644 14.2581 8.57006 15.0665V15.2161L7.85956 15.2423C7.14705 15.2437 6.45162 15.4605 5.86451 15.8643C5.27741 16.268 4.82607 16.8398 4.56969 17.5046C4.31332 18.1693 4.26389 18.8961 4.4279 19.5895C4.59191 20.2829 4.96169 20.9105 5.48873 21.39C5.7131 21.547 5.94121 21.6891 6.17679 21.8312C7.19823 22.4402 8.31041 22.8821 9.47128 23.1401C9.02109 22.9832 8.63088 22.6901 8.3548 22.3015C8.07873 21.9128 7.93047 21.4479 7.93061 20.9712C7.92942 20.671 7.9879 20.3735 8.10263 20.0961C8.23445 19.7784 8.43543 19.4941 8.69094 19.2638C8.94645 19.0335 9.25007 18.8631 9.57972 18.7649C9.68793 18.7357 9.79783 18.7132 9.9088 18.6975L10.3762 18.6452C11.5497 18.5053 12.7136 18.2943 13.8614 18.0132C16.939 17.2018 20.4616 14.1503 20.4579 9.96212C20.4579 5.84869 18.5433 1.31643 12.3656 0.583496Z" fill="white"/>
<path fill-rule="evenodd" clip-rule="evenodd" d="M15.7053 14.0344L15.2939 13.623L15.7053 14.0344Z" fill="black"/>
<path fill-rule="evenodd" clip-rule="evenodd" d="M11.9958 -5.02359e-05C11.8013 -5.02359e-05 11.6218 -5.02359e-05 11.4161 -5.02359e-05H11.3937C8.89364 0.125683 6.49553 1.03034 4.53533 2.5872C2.57514 4.14405 1.15107 6.27509 0.462614 8.68179C-0.225838 11.0885 -0.144176 13.6503 0.696159 16.0082C1.53649 18.3662 3.0934 20.4022 5.14877 21.8311C5.36852 22.0271 5.60786 22.2 5.86301 22.3471C5.92713 22.3806 5.99683 22.4022 6.06868 22.4107C7.0859 22.9916 8.18349 23.4188 9.32577 23.6784C9.51106 23.743 9.70294 23.7869 9.89791 23.8092C10.5917 23.9323 11.2949 23.9949 11.9995 23.9962C13.5929 24.0241 15.176 23.7343 16.6562 23.1437C18.1364 22.5532 19.4842 21.6737 20.6208 20.5566C21.7575 19.4395 22.6602 18.1072 23.2764 16.6374C23.8925 15.1676 24.2097 13.5899 24.2094 11.9962C24.2092 10.4025 23.8915 8.82481 23.2749 7.35524C22.6583 5.88567 21.7552 4.55363 20.6182 3.43689C19.4812 2.32015 18.1332 1.44108 16.6527 0.850976C15.1723 0.260875 13.5892 -0.0284295 11.9958 -5.02359e-05ZM7.50838 21.8722C6.91012 21.6027 6.33804 21.2785 5.79944 20.9037C5.37531 20.4919 5.08389 19.9629 4.9626 19.3843C4.84132 18.8058 4.89569 18.2042 5.11875 17.6568C5.34181 17.1094 5.72338 16.6412 6.21446 16.3122C6.70555 15.9832 7.28376 15.8085 7.87485 15.8105C8.1067 15.8105 8.37221 15.8105 8.59283 15.788C8.74034 15.7813 8.87964 15.7182 8.98194 15.6117C9.08424 15.5053 9.14173 15.3636 9.14254 15.2159V15.0663C9.14208 14.3917 9.3731 13.7374 9.79702 13.2126C10.2209 12.6879 10.8121 12.3244 11.4717 12.183C12.1313 12.0417 12.8195 12.1309 13.4212 12.4358C14.023 12.7408 14.5019 13.2429 14.7779 13.8585C14.8393 13.9955 14.9524 14.1027 15.0925 14.1567C15.2326 14.2106 15.3884 14.2069 15.5258 14.1464C15.5547 14.1299 15.5822 14.1111 15.6081 14.0903C17.1702 13.0284 18.2868 11.4286 18.7448 9.59602C19.2027 7.76348 18.97 5.82647 18.0911 4.15452C19.6168 6.1327 19.8711 8.57458 19.8711 9.95445C19.8711 13.7687 16.6926 16.6631 13.701 17.4334C12.4204 17.7399 11.1213 17.9635 9.81191 18.1028C9.12727 18.2007 8.50074 18.5417 8.04687 19.0636C7.593 19.5854 7.34213 20.2532 7.34011 20.9448C7.34595 21.2515 7.39892 21.5554 7.49717 21.846L7.50838 21.8722ZM1.15126 12C1.14902 9.19741 2.23183 6.50283 4.17268 4.48111C6.11352 2.45939 8.76169 1.26755 11.562 1.15545C12.885 1.21186 14.1599 1.66739 15.2191 2.46211C16.2782 3.25683 17.0721 4.35352 17.4961 5.60795C17.9202 6.86238 17.9547 8.2158 17.595 9.49019C17.2353 10.7646 16.4983 11.9003 15.481 12.7478C15.0093 12.053 14.335 11.5203 13.5499 11.2222C12.7648 10.9242 11.9069 10.8752 11.0929 11.0819C10.279 11.2887 9.54848 11.7412 9.00078 12.3778C8.45308 13.0144 8.11479 13.8043 8.03191 14.64H7.85242C6.76147 14.64 5.7152 15.0734 4.94378 15.8448C4.17236 16.6162 3.73899 17.6625 3.73899 18.7535C3.73899 18.8544 3.73899 18.9516 3.76142 19.0526C2.07154 17.0916 1.14255 14.5886 1.14378 12H1.15126ZM11.9958 22.8444C11.1929 22.8418 10.3927 22.7503 9.60997 22.5715C9.25336 22.4363 8.95161 22.1868 8.75197 21.8619C8.55233 21.537 8.46607 21.155 8.50668 20.7758C8.54729 20.3966 8.71249 20.0416 8.97641 19.7663C9.24033 19.4911 9.58808 19.3111 9.96523 19.2545C11.3265 19.1078 12.6767 18.8729 14.0076 18.5515C17.4105 17.6578 21.0304 14.3371 21.0266 9.95071C21.0774 7.91213 20.5455 5.90137 19.4934 4.15452C21.0629 5.64925 22.1485 7.57998 22.6101 9.69761C23.0718 11.8152 22.8883 14.0226 22.0833 16.035C21.2784 18.0473 19.8889 19.7723 18.0942 20.9874C16.2995 22.2025 14.1818 22.8519 12.0145 22.8519L11.9958 22.8444Z" fill="#41474E"/>
</g>
<defs>
<clipPath id="clip0">
<rect width="24" height="24" fill="white"/>
</clipPath>
</defs>
</svg>
