<svg width="24" height="24" fill="none" xmlns="http://www.w3.org/2000/svg"><path d="M12 24c6.627 0 12-5.373 12-12S18.627 0 12 0 0 5.373 0 12s5.373 12 12 12Z" fill="#ED79AA"/><path opacity=".5" d="m17.589 6.697-1.402 1.412a5.429 5.429 0 0 0-3.865-1.612c-2.936 0-5.332 2.333-5.458 5.258h-.006v5.341A7.503 7.503 0 0 1 4.875 12c0-4.142 3.335-7.5 7.447-7.5a7.399 7.399 0 0 1 5.267 2.197Zm0 10.606a7.4 7.4 0 0 1-5.145 2.197v-1.998a5.429 5.429 0 0 0 3.742-1.61l1.403 1.411Z" fill="#fff"/><path d="M8.76 18.588v-6.833h.006c.105-1.953 1.711-3.505 3.678-3.505 2.034 0 3.683 1.66 3.683 3.71 0 2.048-1.649 3.708-3.682 3.708a3.647 3.647 0 0 1-1.863-.507v4.133a7.368 7.368 0 0 1-1.821-.705v-.001Zm3.684-4.754a1.868 1.868 0 0 0 1.862-1.874 1.869 1.869 0 0 0-1.862-1.876 1.868 1.868 0 0 0-1.862 1.876c0 1.034.834 1.874 1.862 1.874Z" fill="#fff"/></svg>