<svg width="24" height="24" fill="none" xmlns="http://www.w3.org/2000/svg"><g clip-path="url(#a)"><path d="M6.898 15.258a.27.27 0 0 1-.486.142L2.52 11.775a.292.292 0 0 1 .098-.53l5.448-2.173c.253-.1.405.032.338.297l-1.506 5.89Z" fill="#404A72"/><path d="M3.68 18.702c-.208.177-.416.105-.464-.164l-1.062-5.89c-.05-.27.075-.337.275-.15l3.697 3.448a.437.437 0 0 1-.013.664L3.68 18.702ZM8.137 7.9a.333.333 0 0 1-.138.56l-5.415 2.167c-.254.101-.383-.025-.288-.281l2.225-5.98a.269.269 0 0 1 .497-.09L8.137 7.9ZM2.462 17.701c.05.269-.033.3-.177.073L.177 14.528a.768.768 0 0 1 .028-.816l.938-1.257c.164-.22.338-.177.385.09l.934 5.156ZM1.8 9.978c-.095.257-.244.255-.33 0l-.717-2.16a.831.831 0 0 1 .21-.805l2.56-2.319c.202-.176.29-.123.195.133L1.801 9.978ZM1.125 10.81a1.062 1.062 0 0 1-.14.864l-.733.99c-.165.219-.275.176-.248-.096l.35-3.42c.027-.272.122-.283.207-.023l.564 1.684ZM4.013 3.11c.092.104 0 .341-.203.53L2.653 4.68c-.204.176-.235.153-.073-.066l.957-1.296c.177-.22.386-.31.476-.207ZM11.279 21.308a.292.292 0 0 1-.531.019l-3.007-4.38a.27.27 0 0 1 .212-.46l6.048-.624c.27-.028.38.142.242.378l-2.964 5.067ZM10.017 21.311c.156.227.07.338-.19.251l-5.66-1.928c-.258-.088-.3-.306-.093-.484l2.421-2.091a.436.436 0 0 1 .658.085l2.864 4.167Z" fill="#556195"/><path d="M14.123 14.846c.177.207.1.398-.177.427l-6.138.633a.324.324 0 0 1-.37-.43l1.536-5.975c.069-.264.27-.312.447-.105l4.702 5.45Z" fill="#6ECCE0"/><path d="M18.533 19.965a.269.269 0 0 1-.163.48l-6.244 1.312c-.267.057-.373-.09-.235-.327l2.945-5.036a.335.335 0 0 1 .575-.053l3.122 3.624ZM8.49 23.326a.769.769 0 0 1-.81-.094l-2.904-2.56c-.203-.176-.159-.256.1-.176l4.952 1.686c.26.088.274.267.034.396l-1.371.748ZM15.223 23.57a.83.83 0 0 1-.826.088l-2.015-1.027c-.244-.126-.224-.273.043-.33l5.379-1.131c.267-.057.313.038.102.212l-2.683 2.188ZM9.589 23.703c-.274-.013-.3-.13-.059-.258l1.083-.588a1.062 1.062 0 0 1 .884-.01l1.582.804c.244.124.219.215-.053.202l-3.437-.15ZM19.537 21.133c.09.104-.032.297-.272.426l-1.426.76c-.242.13-.267.093-.055-.08l1.203-.984c.212-.174.46-.228.55-.122Z" fill="#556195"/><path d="M15.934 14.782c-.255.101-.407-.032-.338-.297l1.512-5.887a.272.272 0 0 1 .488-.143l3.892 3.626a.29.29 0 0 1-.098.53l-5.456 2.171Z" fill="#404A72"/><path d="M21.849 11.208c.048.268-.074.337-.274.15l-3.699-3.45a.439.439 0 0 1 .014-.663l2.429-2.092c.207-.177.417-.105.465.164l1.065 5.89ZM19.48 19.491a.272.272 0 0 1-.38.197.27.27 0 0 1-.12-.108l-3.12-3.625a.332.332 0 0 1 .136-.566l5.42-2.167c.253-.1.384.025.288.282L19.48 19.49ZM23.82 9.327a.772.772 0 0 1-.027.816l-.939 1.257c-.163.22-.336.177-.386-.09l-.932-5.156c-.048-.269.034-.3.177-.073l2.107 3.246ZM23.247 16.037a.832.832 0 0 1-.21.804l-2.56 2.32c-.204.176-.29.123-.195-.132l1.917-5.152c.094-.257.243-.255.33 0l.718 2.16ZM23.642 14.706c-.028.273-.122.282-.209.023l-.56-1.684a1.06 1.06 0 0 1 .14-.868l.735-.986c.163-.219.274-.176.246.096l-.352 3.42ZM20.448 20.538c-.164.221-.371.313-.463.207-.092-.106 0-.341.203-.53l1.152-1.044c.201-.177.235-.154.072.065l-.964 1.302Z" fill="#556195"/><path d="M16.263 6.907a.27.27 0 0 1-.212.46l-6.048.625c-.272.028-.382-.142-.244-.377l2.963-5.068a.292.292 0 0 1 .53-.02l3.011 4.38Z" fill="#404A72"/><path d="M17.512 6.796a.437.437 0 0 1-.658-.085l-2.88-4.168c-.154-.226-.069-.337.19-.249l5.66 1.925c.258.088.3.306.094.484l-2.406 2.093ZM15.018 14.354c-.067.266-.269.312-.447.105L9.878 9.01c-.177-.207-.103-.4.177-.429l6.136-.633a.323.323 0 0 1 .371.43l-1.544 5.975ZM9.163 7.461a.333.333 0 0 1-.575.053l-3.12-3.622a.269.269 0 0 1 .16-.48l6.245-1.314c.269-.057.375.09.237.327L9.163 7.461ZM14.161 1.666c-.258-.088-.272-.265-.031-.396l1.383-.74a.77.77 0 0 1 .81.094l2.897 2.56c.206.177.161.256-.097.177l-4.962-1.695ZM6.203 2.685c-.267.057-.313-.032-.1-.209L8.774.285a.833.833 0 0 1 .828-.089l2.024 1.03c.244.124.224.27-.043.327l-5.38 1.132ZM13.387.998a1.062 1.062 0 0 1-.884.01L10.91.203c-.23-.124-.207-.214.067-.203l3.433.16c.271.017.3.128.059.257l-1.083.58ZM5.013 2.6c-.212.177-.46.229-.55.124-.09-.104.032-.299.273-.426l1.425-.762c.241-.13.266-.092.055.08L5.013 2.6ZM3.184 19.914c.104-.092.341 0 .53.202l1.044 1.151c.177.204.154.236-.065.073l-1.299-.964c-.226-.163-.318-.372-.21-.462ZM21.203 4.39c.106-.092.3.032.427.273l.762 1.425c.127.243.092.266-.081.055l-.984-1.203c-.173-.212-.228-.46-.124-.55ZM20.611 3.48c.22.162.313.37.207.461-.106.09-.341 0-.53-.201l-1.044-1.152c-.177-.203-.154-.235.065-.073l1.302.964ZM2.673 18.914c.177.213.228.46.122.55-.106.09-.297-.031-.426-.272l-.76-1.426c-.13-.242-.093-.265.08-.054l.984 1.202Z" fill="#556195"/></g><defs><clipPath id="a"><path fill="#fff" d="M0 0h24v24H0z"/></clipPath></defs></svg>