<svg width="24" height="24" fill="none" xmlns="http://www.w3.org/2000/svg"><path d="M12 24c6.627 0 12-5.373 12-12S18.627 0 12 0 0 5.373 0 12s5.373 12 12 12Z" fill="#0F63D8"/><path d="M19.413 15.553a5.13 5.13 0 0 1-.238.435c-.058.103-.113.207-.174.305-.027.046-.05.093-.078.137h-.009a8.171 8.171 0 0 1-11.469 2.435c-.037-.026-.07-.053-.106-.078a5.238 5.238 0 0 1-.412-.296c-.21-.16-.41-.33-.6-.513a7.216 7.216 0 0 1-.266-.26c-.093-.094-.174-.187-.269-.294a9.369 9.369 0 0 1-.277-.327 7.338 7.338 0 0 1-.205-.274 8.516 8.516 0 0 1-.265-.387 7.522 7.522 0 0 1-.158-.26 7.084 7.084 0 0 1-.366-.697c-.07-.149-.135-.3-.197-.452-.038-.094-.071-.19-.105-.286-.052-.15-.103-.307-.147-.454-.03-.107-.049-.208-.082-.317a7.815 7.815 0 0 1-.1-.443c-.015-.112-.04-.23-.05-.337a9.048 9.048 0 0 1-.055-.443c-.01-.116-.023-.232-.023-.35-.012-.146-.012-.294-.012-.442 0-.112.009-.225.009-.338a8.285 8.285 0 0 1 .658-2.88c.017-.041.037-.092.048-.125a.255.255 0 0 1 .06-.1c.077-.166.162-.33.252-.494.043-.092.095-.182.148-.27.038-.065.063-.126.113-.196.048-.071.104-.145.154-.218a7.458 7.458 0 0 1 .5-.667c.178-.211.367-.414.566-.606.074-.07.146-.139.221-.205.202-.173.41-.34.623-.5.141-.098.285-.197.431-.295.078-.05.156-.1.236-.147a7.952 7.952 0 0 1 1.476-.69c.37-.133.749-.237 1.134-.313.253-.05.507-.088.762-.116.167-.018.335-.03.504-.037.092-.008.185-.008.278-.008.266-.003.533.007.799.032a7.92 7.92 0 0 1 1.602.307c.158.045.306.094.453.148.11.04.222.082.33.128.083.035.167.06.25.098v.012a8.172 8.172 0 0 1 4.103 10.99c-.015.03-.033.057-.047.088ZM8.871 18.928v-.002a7.609 7.609 0 0 0 9.588-2.95c.054-.09.105-.182.156-.274.07-.135.15-.265.218-.412a7.565 7.565 0 0 0-3.966-10.322 5.844 5.844 0 0 0-.295-.116 8.494 8.494 0 0 0-.718-.22 7.422 7.422 0 0 0-1.195-.203l-.253-.018a10.525 10.525 0 0 0-.485-.011h-.253a8.056 8.056 0 0 0-.746.069c-.25.033-.498.08-.742.142-.247.06-.49.132-.728.218a5.794 5.794 0 0 0-.306.114c-.219.09-.434.188-.645.295-.214.11-.423.231-.627.36-.137.085-.27.177-.4.275a3.61 3.61 0 0 0-.2.147c-.197.155-.386.32-.567.494a7.959 7.959 0 0 0-.801.911c-.156.21-.302.426-.437.649-.049.08-.093.162-.139.243a7.648 7.648 0 0 0-.596 1.393c-.082.243-.149.491-.2.743a7.34 7.34 0 0 0-.08.476c-.013.092-.026.185-.034.276-.015.148-.032.295-.032.443-.009.1-.009.202-.009.303 0 .14.012.28.012.42.013.244.038.487.074.728.02.101.036.197.054.306.027.139.06.277.093.416a7.13 7.13 0 0 0 .214.707c.031.086.06.173.095.258.056.142.117.28.175.425.038.08.075.163.117.242.073.134.144.267.22.398.051.081.098.16.149.24.076.121.16.239.244.357.062.086.107.156.189.254.081.097.173.203.252.295.08.091.168.19.247.273.08.082.142.14.245.238.174.168.358.326.55.473.481.377 1.005.695 1.562.947Zm3.114-.619a6.314 6.314 0 1 1 6.309-6.316 6.321 6.321 0 0 1-6.309 6.316Zm0-10.558a4.245 4.245 0 1 0 2.997 1.243 4.25 4.25 0 0 0-2.997-1.246v.003Z" fill="#fff"/></svg>