<svg width="24" height="24" fill="none" xmlns="http://www.w3.org/2000/svg"><path d="M23.663 0H.337A.337.337 0 0 0 0 .337v23.326c0 .186.15.337.337.337h23.326c.186 0 .337-.15.337-.337V.337A.337.337 0 0 0 23.663 0Z" fill="#322A3F"/><path d="m11.854 6.393-4.614 9.62h7.66a.555.555 0 0 1 .51.337l.008.018a.464.464 0 0 1-.023.414.728.728 0 0 1-.633.366h-8.14a.636.636 0 0 1-.354-.107l-.043-.028a.638.638 0 0 1-.22-.807L11.45 5.002a.922.922 0 0 1 .238-.304.533.533 0 0 1 .675-.006.365.365 0 0 1 .103.126l5.522 11.281c.075.154.09.33.044.494a.43.43 0 0 1-.415.313h-.064a.665.665 0 0 1-.601-.382l-4.763-10.13a.184.184 0 0 0-.335-.001Z" fill="#F4AE95"/></svg>