<svg width="24" height="24" fill="none" xmlns="http://www.w3.org/2000/svg"><path d="M12 0C5.371 0 0 5.371 0 12s5.371 12 12 12 12-5.371 12-12S18.629 0 12 0ZM6.583 8.898a2.68 2.68 0 0 1 2.695-2.677h6.15c.702 0 1.378.276 1.88.769L14.16 8.573H9.83c-.488 0-.877.353-.877.777v1.926l-2.36 1.23V8.898h-.009Zm11.512 4.007a2.677 2.677 0 0 1-2.677 2.677H8.944v2.288c0 .39-.29.706-.634.788l-.805.018h-.923v-3.98l3.084-1.609h5.182c.488 0 .895-.353.895-.787V9.947l2.35-1.185.002 4.143Z" fill="url(#a)"/><defs><linearGradient id="a" x1="0" y1="12" x2="24" y2="12" gradientUnits="userSpaceOnUse"><stop stop-color="#B38C30"/><stop offset="1" stop-color="#F2DE98"/></linearGradient></defs></svg>