<svg width="24" height="24" fill="none" xmlns="http://www.w3.org/2000/svg"><path fill-rule="evenodd" clip-rule="evenodd" d="M12.57 10.802s.306-2.022 2.736-2.022c2.35 0 2.736 2.022 2.736 2.022H12.57Zm2.838-4.228c-1.903.003-5.554 1.266-5.554 5.208 0 4.595 3.399 5.645 5.33 5.595 3.185-.081 4.738-1.777 4.738-1.777l-1.716-1.551s-.919.98-2.818.98c-2.655 0-2.86-2.206-2.86-2.206h7.945s.816-6.257-5.065-6.249Z" fill="#fff"/><mask id="a" mask-type="alpha" maskUnits="userSpaceOnUse" x="12" y="8" width="7" height="3"><path d="M15.305 8.78c-2.43 0-2.736 2.022-2.736 2.022h5.472s-.387-2.022-2.736-2.022Z" fill="#fff"/></mask><g mask="url(#a)"><path fill-rule="evenodd" clip-rule="evenodd" d="M15.305 8.78c-2.43 0-2.736 2.022-2.736 2.022h5.472s-.387-2.022-2.736-2.022Z" fill="url(#b)"/></g><mask id="c" mask-type="alpha" maskUnits="userSpaceOnUse" x="0" y="2" width="24" height="19"><path d="M20.473 12.823h-7.945s.205 2.206 2.86 2.206c1.9 0 2.818-.98 2.818-.98l1.716 1.551s-1.553 1.696-4.739 1.777c-1.93.05-5.33-1-5.33-5.595 0-3.942 3.652-5.205 5.555-5.208 5.881-.008 5.065 6.25 5.065 6.25Zm-5.29-9.894A8.769 8.769 0 0 0 6.96 8.653H.05l3.227 2.68h3.148a8.821 8.821 0 0 0 .039 1.27H3.257l-3.144 2.63h7.048A8.766 8.766 0 1 0 15.183 2.93Z" fill="#fff"/></mask><g mask="url(#c)"><path fill-rule="evenodd" clip-rule="evenodd" d="M20.473 12.823h-7.945s.205 2.206 2.86 2.206c1.9 0 2.818-.98 2.818-.98l1.716 1.551s-1.553 1.696-4.739 1.777c-1.93.05-5.33-1-5.33-5.595 0-3.942 3.652-5.205 5.555-5.208 5.881-.008 5.065 6.25 5.065 6.25Zm-5.29-9.894A8.769 8.769 0 0 0 6.96 8.653H.05l3.227 2.68h3.148a8.821 8.821 0 0 0 .039 1.27H3.257l-3.144 2.63h7.048A8.766 8.766 0 1 0 15.183 2.93Z" fill="url(#d)"/></g><defs><linearGradient id="b" x1="10.608" y1="8.803" x2="13.95" y2="14.592" gradientUnits="userSpaceOnUse"><stop stop-color="#5AC2F6"/><stop offset="1" stop-color="#1170AB"/></linearGradient><linearGradient id="d" x1="7.462" y1="7.755" x2="13.661" y2="18.492" gradientUnits="userSpaceOnUse"><stop stop-color="#5AC2F6"/><stop offset="1" stop-color="#1170AB"/></linearGradient></defs></svg>