<svg width="24" height="24" viewBox="0 0 24 24" fill="none" xmlns="http://www.w3.org/2000/svg">
<g clip-path="url(#clip0)">
<path fill-rule="evenodd" clip-rule="evenodd" d="M11.2141 9.81242C11.1438 9.81387 11.0746 9.79346 11.0163 9.75399C10.958 9.71453 10.9134 9.65796 10.8886 9.59207C10.8637 9.52618 10.86 9.45421 10.8778 9.38609C10.8955 9.31796 10.934 9.25703 10.9879 9.21167C11.5599 8.72954 12.0543 8.16219 12.4537 7.52957C12.7361 7.03495 13.1926 6.78063 13.6692 6.84471C13.7162 6.84769 13.762 6.86031 13.8038 6.88178C13.8457 6.90326 13.8827 6.93312 13.9125 6.96952C13.9423 7.00592 13.9643 7.04806 13.9771 7.09333C13.9899 7.1386 13.9932 7.18602 13.9868 7.23263C13.9805 7.27924 13.9646 7.32405 13.9402 7.36425C13.9158 7.40446 13.8833 7.4392 13.8449 7.46631C13.8064 7.49341 13.7628 7.51231 13.7167 7.52182C13.6707 7.53132 13.6231 7.53124 13.5771 7.52156C13.2988 7.48351 13.1125 7.75185 13.0444 7.86799C12.6107 8.56609 12.0701 9.19181 11.4424 9.72231C11.3805 9.7802 11.2989 9.8124 11.2141 9.81242ZM5.46296 15.5937C5.39359 15.5927 5.32614 15.5708 5.26952 15.5307C5.21291 15.4906 5.16981 15.4343 5.14593 15.3691C5.12205 15.304 5.11851 15.2332 5.13579 15.166C5.15307 15.0988 5.19034 15.0384 5.24268 14.9929C5.63919 14.6806 6.05968 14.4001 6.50025 14.1539C6.57769 14.1281 6.66182 14.131 6.7373 14.162C6.81279 14.193 6.8746 14.2502 6.91149 14.323C6.94838 14.3958 6.95789 14.4794 6.93827 14.5586C6.91866 14.6379 6.87123 14.7074 6.80463 14.7546C6.41204 14.9774 6.03654 15.2291 5.68123 15.5075C5.62004 15.5589 5.54283 15.5872 5.46296 15.5876" fill="#28646E"/>
<path fill-rule="evenodd" clip-rule="evenodd" d="M14.0415 12.3555C14.1777 12.4816 14.3359 12.4275 14.4801 12.2894C15.4693 11.3442 16.5166 9.86834 16.865 9.09938C16.8772 9.06102 16.897 9.02552 16.9232 8.995C16.9495 8.96449 16.9816 8.9396 17.0177 8.92182C17.0538 8.90405 17.0931 8.89377 17.1333 8.89159C17.1735 8.88941 17.2137 8.89538 17.2515 8.90915C17.4418 8.98524 17.4398 9.30965 17.2675 9.66809C16.6744 10.8818 15.8825 11.9877 14.9246 12.9402C14.8976 12.9646 14.876 12.9944 14.8612 13.0277C14.8464 13.061 14.8387 13.097 14.8387 13.1334C14.8387 13.1699 14.8464 13.2059 14.8612 13.2392C14.876 13.2724 14.8976 13.3023 14.9246 13.3267C15.0348 13.4248 15.215 13.4188 15.3812 13.2486C15.9151 12.7203 16.4047 12.149 16.845 11.5404C16.8754 11.4816 16.9234 11.4336 16.9822 11.4031C17.041 11.3727 17.1078 11.3612 17.1734 11.3702C17.3376 11.4023 17.3637 11.5605 17.3136 11.7507C17.2315 12.0571 16.3684 13.1905 16.026 13.571C15.0988 14.6063 14.1717 15.173 12.3874 16.1001C11.7707 16.4205 11.3041 16.7349 11.0137 17.2215C10.7554 17.6541 10.6793 17.7963 10.6533 17.8503C10.6057 17.9529 10.5998 18.0699 10.6368 18.1767C10.6738 18.2835 10.7508 18.3718 10.8515 18.423C10.9016 18.4471 10.9559 18.461 11.0113 18.4639C11.0668 18.4669 11.1223 18.4588 11.1746 18.4402C11.2269 18.4215 11.275 18.3928 11.3162 18.3554C11.3573 18.3181 11.3906 18.273 11.4142 18.2228C11.4142 18.2228 11.4142 18.2068 11.4142 18.2008C11.4142 18.1948 11.4022 18.2008 11.7386 17.6401C11.9898 17.2339 12.3556 16.9113 12.7899 16.7129C14.5802 15.8979 15.3111 15.2551 16.3484 14.2178C16.8371 13.6646 17.2735 13.0673 17.652 12.4336C18.1506 11.5925 17.8883 10.8736 17.4378 10.7514C17.4233 10.7472 17.411 10.7376 17.4036 10.7245C17.3961 10.7114 17.394 10.696 17.3977 10.6814C17.3968 10.6761 17.3968 10.6706 17.3977 10.6653C17.6601 10.2562 17.8542 9.80711 17.9724 9.33568C18.0605 8.90114 17.9364 8.37247 17.3416 8.24431C17.3269 8.24096 17.314 8.23196 17.3058 8.21924C17.2975 8.20652 17.2946 8.19108 17.2976 8.17623C17.3356 8.03806 17.3737 7.86384 17.3977 7.7497C17.46 7.50715 17.4259 7.24993 17.3027 7.03192C17.1795 6.81392 16.9768 6.65205 16.7369 6.58024C16.599 6.55027 16.4564 6.54977 16.3184 6.57875C16.1804 6.60774 16.05 6.66557 15.9359 6.74845C15.92 6.75929 15.9007 6.76404 15.8816 6.76184C15.8625 6.75963 15.8448 6.75061 15.8317 6.73643C15.7747 6.67462 15.7057 6.62502 15.629 6.5906C15.5522 6.55618 15.4693 6.53767 15.3852 6.53618C15.0107 6.53618 14.6443 6.64431 14.3839 7.21903C14.1837 7.61953 13.9053 8.18224 13.0663 9.1134C12.3038 9.92058 11.4512 10.6375 10.5251 11.2501C10.407 11.3262 10.2428 11.3081 10.2608 11.1519C10.2928 10.9016 10.5612 9.21152 10.6132 8.72291C10.6873 7.92191 10.2548 7.54945 9.76817 7.48537C9.36767 7.4313 8.76691 7.54544 8.43049 8.45658C8.04761 9.37299 7.73172 10.316 7.48531 11.2781C7.22477 12.4218 7.19888 13.6065 7.40922 14.7605C7.42372 14.8404 7.40878 14.9229 7.36716 14.9928C7.04445 15.4767 6.75348 15.981 6.49608 16.5026C6.45307 16.6 6.44747 16.7098 6.48035 16.811C6.51323 16.9123 6.58229 16.9978 6.6743 17.0513C6.77214 17.1044 6.88696 17.1167 6.99382 17.0855C7.10068 17.0544 7.19095 16.9824 7.24501 16.8851L7.25703 16.8611C7.38519 16.5907 7.65753 16.0801 7.75365 15.8598C7.88437 15.6117 8.00071 15.3563 8.10208 15.0949C8.16879 14.8762 8.16879 14.6427 8.10208 14.424C7.93489 13.4945 7.95874 12.5406 8.17217 11.6205C8.44645 10.5572 8.78074 9.51018 9.17342 8.48462C9.27555 8.2323 9.41973 8.1542 9.57392 8.16822C9.72812 8.18224 9.99445 8.25032 9.91635 8.76897C9.77417 9.68812 9.57392 10.8556 9.51585 11.2501C9.48381 11.4503 9.44777 11.8929 9.80221 12.0991C10.0806 12.2593 10.3869 12.1712 10.7234 11.9449C11.7751 11.2322 12.7455 10.4063 13.617 9.48186C14.4801 8.51265 14.7544 7.93393 14.9767 7.41127C15.0165 7.32996 15.0837 7.26529 15.1665 7.22865C15.2492 7.19202 15.3423 7.18578 15.4292 7.21102C15.5214 7.23706 15.6295 7.36121 15.5554 7.62354C15.3552 8.26234 14.5742 9.72216 13.0563 11.0919C13.0224 11.1154 12.9938 11.1457 12.9723 11.1808C12.9507 11.2159 12.9367 11.2552 12.9311 11.296C12.9254 11.3368 12.9283 11.3784 12.9395 11.418C12.9507 11.4577 12.97 11.4946 12.9962 11.5264C13.0227 11.5556 13.055 11.579 13.091 11.595C13.127 11.611 13.166 11.6192 13.2055 11.6192C13.2449 11.6192 13.2839 11.611 13.3199 11.595C13.356 11.579 13.3883 11.5556 13.4147 11.5264C14.462 10.6048 15.3063 9.47555 15.8938 8.21027C16.0104 7.96231 16.1101 7.70674 16.1922 7.44532C16.209 7.36497 16.2544 7.29346 16.3199 7.24409C16.3855 7.19473 16.4668 7.17088 16.5486 7.17698C16.7149 7.21102 16.825 7.37723 16.7729 7.66359C16.6876 8.02146 16.5627 8.3687 16.4005 8.69888C15.9639 9.62804 15.0388 10.8716 14.0415 11.9389C14.0136 11.9653 13.9913 11.9971 13.9761 12.0324C13.9609 12.0677 13.953 12.1058 13.953 12.1442C13.953 12.1826 13.9609 12.2206 13.9761 12.2559C13.9913 12.2912 14.0136 12.3231 14.0415 12.3494V12.3555ZM7.8718 7.72967C7.92386 7.68361 7.90384 7.62354 7.88982 7.57748C7.81573 7.34119 7.3972 6.35996 7.28907 6.16371C7.28182 6.14475 7.27081 6.12745 7.25669 6.11286C7.24257 6.09828 7.22564 6.0867 7.20693 6.07884C7.18821 6.07098 7.16809 6.067 7.14779 6.06713C7.12749 6.06726 7.10743 6.07151 7.08882 6.07961C6.94095 6.15569 6.80583 6.25432 6.68832 6.37197C6.55513 6.47483 6.43949 6.59859 6.34589 6.73843C6.33638 6.75535 6.33035 6.774 6.32812 6.79328C6.3259 6.81256 6.32754 6.83209 6.33295 6.85073C6.33835 6.86937 6.34742 6.88675 6.35961 6.90185C6.3718 6.91695 6.38688 6.92947 6.40396 6.93868C6.58419 7.07485 7.50333 7.61753 7.72561 7.71966C7.77167 7.74169 7.82774 7.76972 7.87981 7.71966L7.8718 7.72967ZM5.86929 8.06008C5.75515 8.06008 5.70709 8.10814 5.69307 8.18624C5.67992 8.35408 5.69275 8.52294 5.73112 8.68687C5.75077 8.85368 5.79603 9.01646 5.86529 9.16947C5.88432 9.20354 5.91587 9.22886 5.95324 9.24007C5.99062 9.25129 6.03089 9.24751 6.06554 9.22955C6.26579 9.14544 7.21497 8.64281 7.41923 8.50664C7.46128 8.47861 7.51335 8.44457 7.50133 8.37448L5.86929 8.06008ZM15.4413 16.4205C15.3712 16.4205 15.3511 16.4866 15.3331 16.5327C15.249 16.763 14.9867 17.7983 14.9526 18.0205C14.9466 18.04 14.9447 18.0605 14.9469 18.0807C14.9492 18.101 14.9556 18.1206 14.9657 18.1382C14.9758 18.1559 14.9895 18.1713 15.0059 18.1834C15.0222 18.1955 15.0409 18.2042 15.0608 18.2088C15.2264 18.2405 15.3961 18.2459 15.5634 18.2248C15.7315 18.2228 15.8983 18.1951 16.058 18.1427C16.0766 18.1351 16.0935 18.1238 16.1077 18.1095C16.1219 18.0952 16.133 18.0782 16.1405 18.0595C16.1479 18.0408 16.1516 18.0209 16.1512 18.0007C16.1508 17.9806 16.1463 17.9608 16.1381 17.9424C16.0761 17.7262 15.6776 16.7409 15.5634 16.5187C15.5394 16.4746 15.5113 16.4185 15.4413 16.4225V16.4205ZM16.042 15.9419C16.008 16.004 16.042 16.0521 16.0801 16.0901C16.2343 16.2904 16.9812 17.0453 17.1534 17.1895C17.1674 17.2043 17.1844 17.2162 17.2031 17.2243C17.2219 17.2323 17.2421 17.2365 17.2625 17.2365C17.283 17.2365 17.3032 17.2323 17.322 17.2243C17.3407 17.2162 17.3576 17.2043 17.3717 17.1895C17.4839 17.0645 17.5758 16.9226 17.644 16.769C17.7283 16.6234 17.7885 16.4652 17.8222 16.3004C17.8222 16.2203 17.8022 16.1562 17.6921 16.1262C17.4758 16.0661 16.4225 15.8939 16.1762 15.8799C16.1261 15.8799 16.064 15.8799 16.032 15.9319L16.042 15.9419ZM12.3814 21.6791C12.3818 21.7549 12.3597 21.8291 12.3178 21.8924C12.2759 21.9556 12.2162 22.0049 12.1462 22.0341C12.0763 22.0633 11.9992 22.071 11.9248 22.0563C11.8505 22.0416 11.7821 22.0052 11.7285 21.9516C11.6749 21.8979 11.6384 21.8296 11.6237 21.7552C11.609 21.6809 11.6168 21.6038 11.646 21.5338C11.6752 21.4638 11.7245 21.4041 11.7877 21.3623C11.8509 21.3204 11.9251 21.2982 12.001 21.2986C12.0509 21.2986 12.1004 21.3085 12.1466 21.3276C12.1927 21.3467 12.2347 21.3747 12.27 21.4101C12.3053 21.4454 12.3334 21.4873 12.3525 21.5335C12.3716 21.5797 12.3814 21.6291 12.3814 21.6791ZM12.3814 2.32291C12.3814 2.39865 12.3589 2.47267 12.3168 2.53561C12.2747 2.59855 12.2149 2.64758 12.1449 2.67646C12.0749 2.70535 11.9978 2.71281 11.9236 2.69789C11.8493 2.68297 11.7812 2.64634 11.7278 2.59265C11.6744 2.53896 11.6381 2.47062 11.6236 2.3963C11.6091 2.32197 11.6169 2.24501 11.6462 2.17515C11.6754 2.1053 11.7248 2.0457 11.7879 2.00392C11.8511 1.96213 11.9252 1.94004 12.001 1.94043C12.0511 1.94043 12.1007 1.95034 12.147 1.96959C12.1933 1.98883 12.2353 2.01704 12.2707 2.05258C12.3061 2.08812 12.334 2.1303 12.353 2.1767C12.3721 2.22309 12.3817 2.27278 12.3814 2.32291ZM14.8725 21.2506C14.8917 21.3233 14.889 21.4 14.8646 21.4711C14.8402 21.5422 14.7953 21.6045 14.7355 21.6501C14.6757 21.6958 14.6038 21.7226 14.5288 21.7274C14.4537 21.7322 14.379 21.7146 14.3139 21.6769C14.2489 21.6392 14.1965 21.5831 14.1633 21.5156C14.1301 21.4482 14.1176 21.3724 14.1275 21.2979C14.1373 21.2233 14.169 21.1534 14.2186 21.0968C14.2682 21.0403 14.3334 20.9997 14.406 20.9802C14.4544 20.9672 14.5048 20.9639 14.5545 20.9705C14.6042 20.977 14.6521 20.9934 14.6954 21.0185C14.7388 21.0436 14.7767 21.077 14.8071 21.1169C14.8375 21.1567 14.8598 21.2021 14.8725 21.2506ZM9.86629 2.5532C9.87944 2.60159 9.88293 2.65209 9.87656 2.70183C9.87019 2.75156 9.85409 2.79956 9.82917 2.84307C9.80425 2.88658 9.77101 2.92476 9.73134 2.95542C9.69166 2.98609 9.64634 3.00864 9.59795 3.02179C9.54957 3.03494 9.49906 3.03842 9.44933 3.03206C9.39959 3.02569 9.3516 3.00958 9.30809 2.98467C9.26457 2.95975 9.2264 2.92651 9.19573 2.88683C9.16507 2.84716 9.14252 2.80184 9.12937 2.75345C9.10281 2.65573 9.11617 2.55146 9.16649 2.46358C9.21681 2.37571 9.29998 2.31142 9.3977 2.28487C9.49542 2.25831 9.59969 2.27166 9.68757 2.32199C9.77545 2.37231 9.83973 2.45548 9.86629 2.5532ZM17.1714 20.1912C17.1976 20.2346 17.2149 20.2827 17.2223 20.3327C17.2296 20.3828 17.227 20.4338 17.2144 20.4829C17.2018 20.5319 17.1795 20.5779 17.1489 20.6182C17.1183 20.6585 17.08 20.6923 17.0361 20.7176C16.9923 20.7429 16.9439 20.7592 16.8937 20.7656C16.8434 20.772 16.7925 20.7682 16.7437 20.7547C16.695 20.7411 16.6494 20.7179 16.6097 20.6865C16.57 20.6551 16.537 20.6161 16.5126 20.5717C16.4646 20.4845 16.4526 20.3819 16.4793 20.286C16.5061 20.1901 16.5693 20.1085 16.6556 20.0587C16.7418 20.0089 16.8441 19.9949 16.9406 20.0196C17.037 20.0444 17.1199 20.106 17.1714 20.1912ZM7.49132 3.4283C7.51683 3.47129 7.53362 3.51889 7.54073 3.56837C7.54784 3.61786 7.54514 3.66826 7.53277 3.7167C7.52041 3.76514 7.49862 3.81067 7.46866 3.85069C7.4387 3.89071 7.40115 3.92444 7.35815 3.94995C7.27132 4.00146 7.16758 4.01637 7.06975 3.9914C6.97192 3.96643 6.88802 3.90361 6.8365 3.81678C6.78846 3.72956 6.77652 3.62698 6.80325 3.53106C6.82998 3.43514 6.89325 3.35352 6.97948 3.30372C7.06571 3.25392 7.16803 3.23992 7.26447 3.2647C7.36091 3.28949 7.44379 3.3511 7.49532 3.4363L7.49132 3.4283ZM19.1098 18.5832C19.1813 18.6547 19.2214 18.7516 19.2214 18.8526C19.2214 18.9536 19.1813 19.0505 19.1098 19.1219C19.0384 19.1933 18.9415 19.2335 18.8405 19.2335C18.7395 19.2335 18.6426 19.1933 18.5712 19.1219C18.4997 19.0505 18.4596 18.9536 18.4596 18.8526C18.4596 18.7516 18.4997 18.6547 18.5712 18.5832C18.6426 18.5118 18.7395 18.4717 18.8405 18.4717C18.9415 18.4717 19.0384 18.5118 19.1098 18.5832ZM5.42674 4.88812C5.49817 4.95955 5.5383 5.05644 5.5383 5.15746C5.5383 5.25848 5.49817 5.35536 5.42674 5.42679C5.35531 5.49823 5.25842 5.53836 5.1574 5.53836C5.05638 5.53836 4.9595 5.49823 4.88807 5.42679C4.81663 5.35536 4.7765 5.25848 4.7765 5.15746C4.7765 5.05644 4.81663 4.95955 4.88807 4.88812C4.9595 4.81669 5.05638 4.77656 5.1574 4.77656C5.25842 4.77656 5.35531 4.81669 5.42674 4.88812ZM20.5717 16.5026C20.6598 16.552 20.7248 16.6344 20.7522 16.7317C20.7796 16.829 20.7672 16.9331 20.7179 17.0213C20.6685 17.1094 20.5861 17.1744 20.4888 17.2018C20.3915 17.2292 20.2874 17.2169 20.1992 17.1675C20.1116 17.117 20.0476 17.0338 20.0213 16.9362C19.995 16.8385 20.0086 16.7344 20.059 16.6468C20.1095 16.5592 20.1927 16.4952 20.2903 16.4689C20.388 16.4426 20.4921 16.4562 20.5797 16.5066L20.5717 16.5026ZM3.80471 6.83255C3.84904 6.85697 3.88806 6.88999 3.91947 6.92967C3.95088 6.96936 3.97406 7.01491 3.98764 7.06367C4.00123 7.11242 4.00495 7.1634 3.99859 7.21361C3.99224 7.26382 3.97592 7.31226 3.95061 7.35608C3.9253 7.39991 3.8915 7.43825 3.85119 7.46885C3.81088 7.49946 3.76486 7.52171 3.71584 7.53431C3.66683 7.54691 3.61579 7.5496 3.56571 7.54223C3.51564 7.53485 3.46754 7.51757 3.42424 7.49137C3.33903 7.43984 3.27742 7.35696 3.25263 7.26052C3.22785 7.16408 3.24186 7.06176 3.29165 6.97553C3.34145 6.8893 3.42307 6.82603 3.51899 6.7993C3.61491 6.77257 3.71749 6.7845 3.80471 6.83255ZM21.4468 14.1377C21.5448 14.1621 21.629 14.2245 21.681 14.311C21.733 14.3976 21.7485 14.5013 21.7241 14.5993C21.6997 14.6972 21.6373 14.7815 21.5508 14.8335C21.4642 14.8855 21.3605 14.901 21.2625 14.8766H21.2505C21.2023 14.8635 21.1571 14.8409 21.1175 14.8103C21.078 14.7797 21.0448 14.7416 21.02 14.6982C20.9952 14.6548 20.9792 14.6069 20.9728 14.5573C20.9665 14.5076 20.97 14.4573 20.9832 14.409C20.9963 14.3608 21.0189 14.3156 21.0495 14.276C21.0801 14.2365 21.1182 14.2033 21.1616 14.1785C21.205 14.1537 21.2529 14.1377 21.3025 14.1313C21.3521 14.125 21.4025 14.1285 21.4508 14.1417L21.4468 14.1377ZM2.7554 9.13543C2.85339 9.16198 2.93681 9.22638 2.98732 9.31444C3.03783 9.40251 3.05129 9.50703 3.02474 9.60502C2.99818 9.703 2.93379 9.78643 2.84572 9.83694C2.75766 9.88745 2.65314 9.90091 2.55515 9.87435C2.46266 9.8433 2.38553 9.77808 2.33955 9.69203C2.29356 9.60598 2.2822 9.50562 2.30779 9.41147C2.33337 9.31732 2.39397 9.2365 2.47717 9.18556C2.56038 9.13462 2.65991 9.1174 2.7554 9.13743V9.13543ZM21.6791 11.6145C21.7543 11.6145 21.8279 11.6368 21.8904 11.6786C21.953 11.7205 22.0018 11.7799 22.0306 11.8494C22.0594 11.9189 22.0669 11.9954 22.0522 12.0692C22.0375 12.143 22.0013 12.2108 21.9481 12.264C21.8949 12.3173 21.8271 12.3535 21.7533 12.3682C21.6795 12.3828 21.603 12.3753 21.5335 12.3465C21.4639 12.3177 21.4045 12.269 21.3627 12.2064C21.3209 12.1438 21.2986 12.0703 21.2986 11.995C21.2986 11.945 21.3084 11.8956 21.3275 11.8494C21.3467 11.8032 21.3747 11.7613 21.41 11.726C21.4454 11.6906 21.4873 11.6626 21.5335 11.6435C21.5796 11.6244 21.6291 11.6145 21.6791 11.6145ZM2.32286 11.6145C2.37282 11.6145 2.4223 11.6244 2.46846 11.6435C2.51462 11.6626 2.55657 11.6906 2.5919 11.726C2.62723 11.7613 2.65525 11.8032 2.67437 11.8494C2.69349 11.8956 2.70333 11.945 2.70333 11.995C2.70333 12.045 2.69349 12.0944 2.67437 12.1406C2.65525 12.1868 2.62723 12.2287 2.5919 12.264C2.55657 12.2994 2.51462 12.3274 2.46846 12.3465C2.4223 12.3656 2.37282 12.3755 2.32286 12.3755C2.22195 12.3755 2.12517 12.3354 2.05382 12.264C1.98247 12.1927 1.94238 12.0959 1.94238 11.995C1.94238 11.8941 1.98247 11.7973 2.05382 11.726C2.12517 11.6546 2.22195 11.6145 2.32286 11.6145ZM21.2505 9.12141C21.3456 9.10102 21.4449 9.11782 21.528 9.16836C21.6111 9.21889 21.6717 9.29933 21.6973 9.39315C21.7229 9.48697 21.7117 9.58704 21.6658 9.67281C21.62 9.75858 21.543 9.82353 21.4508 9.85433H21.4408C21.343 9.88088 21.2388 9.86753 21.1509 9.81721C21.063 9.76688 20.9987 9.68371 20.9722 9.58599C20.9456 9.48827 20.959 9.384 21.0093 9.29613C21.0596 9.20825 21.1428 9.14396 21.2405 9.11741L21.2505 9.12141ZM2.54313 14.1237C2.59221 14.1073 2.64412 14.1011 2.69568 14.1054C2.74723 14.1098 2.79736 14.1246 2.84299 14.149C2.88862 14.1734 2.92879 14.2069 2.96106 14.2473C2.99332 14.2878 3.017 14.3344 3.03063 14.3843C3.04427 14.4342 3.04758 14.4864 3.04037 14.5376C3.03316 14.5888 3.01557 14.6381 2.98868 14.6823C2.9618 14.7265 2.92618 14.7647 2.884 14.7947C2.84182 14.8247 2.79398 14.8457 2.74338 14.8566C2.64593 14.8831 2.54191 14.8699 2.45423 14.8198C2.36654 14.7696 2.30235 14.6867 2.2758 14.5892C2.24924 14.4918 2.26249 14.3878 2.31263 14.3001C2.36276 14.2124 2.44568 14.1482 2.54313 14.1217V14.1237ZM20.1812 6.81653C20.2245 6.79034 20.2726 6.77305 20.3227 6.76568C20.3727 6.75831 20.4238 6.761 20.4728 6.7736C20.5218 6.7862 20.5678 6.80845 20.6081 6.83905C20.6484 6.86965 20.6822 6.90799 20.7076 6.95182C20.7329 6.99565 20.7492 7.04409 20.7555 7.0943C20.7619 7.14451 20.7582 7.19548 20.7446 7.24424C20.731 7.29299 20.7078 7.33854 20.6764 7.37823C20.645 7.41791 20.606 7.45093 20.5617 7.47535C20.4744 7.5234 20.3719 7.53534 20.2759 7.5086C20.18 7.48187 20.0984 7.4186 20.0486 7.33237C19.9988 7.24614 19.9848 7.14383 20.0096 7.04738C20.0344 6.95094 20.096 6.86806 20.1812 6.81653ZM3.42824 16.5086C3.49333 16.47 3.56846 16.4517 3.64401 16.456C3.71957 16.4604 3.79212 16.4871 3.85239 16.5329C3.91267 16.5786 3.95793 16.6413 3.98238 16.7129C4.00684 16.7846 4.00938 16.8618 3.98969 16.9349C3.96999 17.008 3.92895 17.0735 3.87182 17.1231C3.81468 17.1728 3.74405 17.2042 3.66894 17.2135C3.59383 17.2228 3.51767 17.2094 3.45018 17.1752C3.38269 17.141 3.32694 17.0874 3.29007 17.0213C3.24102 16.9342 3.22802 16.8314 3.25385 16.7348C3.27967 16.6382 3.34227 16.5556 3.42824 16.5046V16.5086ZM18.5752 4.89012C18.6284 4.837 18.6962 4.80084 18.77 4.78623C18.8438 4.77162 18.9202 4.7792 18.9897 4.80803C19.0592 4.83685 19.1186 4.88562 19.1603 4.94817C19.2021 5.01072 19.2244 5.08424 19.2244 5.15946C19.2244 5.23467 19.2021 5.3082 19.1603 5.37075C19.1186 5.4333 19.0592 5.48207 18.9897 5.51089C18.9202 5.53971 18.8438 5.5473 18.77 5.53269C18.6962 5.51807 18.6284 5.48192 18.5752 5.4288C18.5041 5.35716 18.4643 5.26035 18.4643 5.15946C18.4643 5.05856 18.5041 4.96176 18.5752 4.89012ZM4.88807 18.5752C4.94131 18.5221 5.00911 18.486 5.08289 18.4713C5.15667 18.4567 5.23313 18.4643 5.3026 18.4931C5.37207 18.522 5.43145 18.5707 5.47322 18.6333C5.51498 18.6958 5.53728 18.7694 5.53728 18.8446C5.53728 18.9198 5.51498 18.9933 5.47322 19.0559C5.43145 19.1184 5.37207 19.1672 5.3026 19.196C5.23313 19.2248 5.15667 19.2324 5.08289 19.2178C5.00911 19.2032 4.94131 19.167 4.88807 19.1139C4.8524 19.0787 4.82409 19.0368 4.80476 18.9905C4.78544 18.9443 4.77549 18.8947 4.77549 18.8446C4.77549 18.7945 4.78544 18.7448 4.80476 18.6986C4.82409 18.6524 4.8524 18.6104 4.88807 18.5752ZM16.5026 3.4283C16.5402 3.36322 16.5963 3.31075 16.6638 3.27752C16.7312 3.2443 16.807 3.23179 16.8815 3.2416C16.9561 3.2514 17.026 3.28306 17.0826 3.3326C17.1392 3.38213 17.1798 3.44731 17.1993 3.51991C17.2189 3.59251 17.2165 3.66927 17.1924 3.7405C17.1684 3.81174 17.1238 3.87425 17.0642 3.92016C17.0047 3.96606 16.9329 3.99329 16.8578 3.99841C16.7828 4.00354 16.708 3.98632 16.6428 3.94895C16.5554 3.89826 16.4916 3.81507 16.4653 3.71752C16.4391 3.61997 16.4525 3.516 16.5026 3.4283ZM6.8325 20.1912C6.85576 20.1456 6.88802 20.105 6.92735 20.0721C6.96667 20.0392 7.01224 20.0146 7.06132 19.9997C7.1104 19.9849 7.16197 19.9801 7.21295 19.9857C7.26392 19.9912 7.31324 20.0071 7.35795 20.0322C7.40265 20.0573 7.44181 20.0912 7.47309 20.1318C7.50436 20.1725 7.5271 20.219 7.53993 20.2687C7.55276 20.3183 7.55542 20.37 7.54776 20.4207C7.54009 20.4714 7.52226 20.5201 7.49532 20.5637C7.44379 20.6489 7.36091 20.7105 7.26447 20.7353C7.16803 20.7601 7.06571 20.7461 6.97948 20.6963C6.89325 20.6465 6.82998 20.5649 6.80325 20.469C6.77652 20.373 6.78846 20.2705 6.8365 20.1832L6.8325 20.1912ZM14.1376 2.5532C14.1492 2.50455 14.1702 2.45866 14.1995 2.41814C14.2289 2.37762 14.2659 2.34327 14.3084 2.31705C14.351 2.29083 14.3984 2.27326 14.4477 2.26533C14.4971 2.2574 14.5476 2.25928 14.5962 2.27085C14.6449 2.28242 14.6907 2.30346 14.7313 2.33277C14.7718 2.36207 14.8061 2.39908 14.8324 2.44166C14.8586 2.48424 14.8761 2.53157 14.8841 2.58094C14.892 2.63032 14.8901 2.68077 14.8786 2.72942V2.75145C14.852 2.84891 14.7878 2.93182 14.7001 2.98196C14.6124 3.03209 14.5084 3.04534 14.411 3.01878C14.3135 2.99223 14.2306 2.92805 14.1805 2.84036C14.1303 2.75267 14.1171 2.64865 14.1436 2.5512L14.1376 2.5532ZM9.13738 21.2486C9.14961 21.2001 9.17127 21.1544 9.20114 21.1143C9.231 21.0741 9.26848 21.0403 9.31143 21.0146C9.35439 20.9889 9.40198 20.972 9.45148 20.9647C9.50099 20.9574 9.55144 20.96 9.59996 20.9722C9.64847 20.9845 9.69411 21.0061 9.73425 21.036C9.7744 21.0658 9.80827 21.1033 9.83393 21.1463C9.85959 21.1892 9.87654 21.2368 9.88381 21.2863C9.89108 21.3358 9.88853 21.3863 9.8763 21.4348C9.84975 21.5323 9.78557 21.6152 9.69788 21.6653C9.61019 21.7154 9.50617 21.7287 9.40872 21.7021C9.31126 21.6756 9.22834 21.6114 9.17821 21.5237C9.12807 21.436 9.11483 21.332 9.14138 21.2346" fill="#28646E"/>
<path d="M12.001 24.0001C14.3747 24.0001 16.695 23.2962 18.6686 21.9774C20.6422 20.6586 22.1804 18.7842 23.0887 16.5912C23.9969 14.3982 24.2345 11.9851 23.7713 9.65704C23.308 7.32902 22.1648 5.19065 20.4863 3.51236C18.8077 1.83407 16.6691 0.691239 14.341 0.228404C12.013 -0.234431 9.59989 0.00351454 7.40703 0.912149C5.21417 1.82078 3.34001 3.35929 2.02156 5.33311C0.703114 7.30693 -0.000395905 9.6274 1.67148e-07 12.0011C0.00423984 15.1824 1.27005 18.2323 3.51981 20.4817C5.76958 22.731 8.81962 23.9963 12.001 24.0001ZM12.001 1.01532C14.1738 1.01532 16.2977 1.65963 18.1043 2.86675C19.9109 4.07388 21.319 5.78962 22.1505 7.797C22.982 9.80438 23.1995 12.0132 22.7756 14.1443C22.3518 16.2753 21.3055 18.2328 19.7691 19.7691C18.2327 21.3055 16.2752 22.3518 14.1442 22.7757C12.0132 23.1996 9.80432 22.982 7.79694 22.1506C5.78956 21.3191 4.07383 19.911 2.8667 18.1044C1.65957 16.2978 1.01527 14.1738 1.01527 12.0011C1.01845 9.08844 2.17689 6.29602 4.23643 4.23648C6.29596 2.17695 9.08838 1.0185 12.001 1.01532Z" fill="#28646E"/>
</g>
<defs>
<clipPath id="clip0">
<rect width="24" height="24" fill="white"/>
</clipPath>
</defs>
</svg>
