<svg width="24" height="24" viewBox="0 0 24 24" fill="none" xmlns="http://www.w3.org/2000/svg">
<path fill-rule="evenodd" clip-rule="evenodd" d="M11.682 0C16.6344 0.04375 20.386 3.34935 21.1125 7.74288C21.9338 12.7103 18.5629 17.4461 13.6014 18.3016C12.9317 18.4171 12.2472 18.4624 11.5673 18.5012C10.1891 18.5798 8.79516 19.5129 8.47171 21.343C8.3789 21.868 8.25483 22.3877 8.1429 22.9093C7.98025 23.667 7.3382 24.1171 6.62767 23.9734C5.89328 23.8249 5.46889 23.1676 5.62771 22.396C5.8307 21.4097 6.04828 20.4263 6.25951 19.4417C6.99783 16.0003 7.73798 12.5592 8.47295 9.117C8.64213 8.32462 9.11 7.89178 9.81277 7.90543C10.5915 7.92057 11.19 8.63917 11.0293 9.40199C10.6444 11.2295 10.2429 13.0535 9.84891 14.879C9.77272 15.2321 9.70259 15.5865 9.62531 15.9394C9.59417 16.0815 9.61889 16.1529 9.7884 16.1338C10.8336 16.0159 11.8813 15.9182 12.9247 15.7858C15.7023 15.4334 18.0286 13.2224 18.5309 10.476C19.2016 6.80855 16.8325 3.37668 13.1606 2.69696C9.49658 2.01861 5.89077 4.64132 5.40043 8.3359C5.2655 9.35271 5.35707 10.3447 5.67775 11.3173C5.92596 12.07 5.58409 12.8169 4.88899 13.0379C4.16262 13.2687 3.45902 12.8783 3.21591 12.1095C1.55499 6.85721 4.61576 1.48244 9.99369 0.238587C10.6454 0.0879004 11.323 0.0489549 11.682 0Z" fill="black"/>
<path fill-rule="evenodd" clip-rule="evenodd" d="M10.8008 22.4535C10.8036 21.5919 11.4617 20.9363 12.3239 20.936C13.1955 20.9358 13.871 21.6129 13.8589 22.4743C13.8469 23.3332 13.1809 23.9938 12.3269 23.9942C11.4539 23.9946 10.798 23.3324 10.8008 22.4535Z" fill="#E6027A"/>
</svg>
