<svg width="24" height="24" viewBox="0 0 24 24" fill="none" xmlns="http://www.w3.org/2000/svg">
<rect width="24" height="24" fill="#00C38C"/>
<path fill-rule="evenodd" clip-rule="evenodd" d="M13.84 3.95623L12.535 4.70623V10.9875L13.2475 11.3925V6.60373L15.6962 7.99123L16.1687 8.26123L16.5662 8.03623V7.66123L13.2512 5.78623V5.11873L13.8438 4.78123L17.2787 6.73123V8.46748L15.6287 9.39748L15.5725 9.37123C15.4771 9.323 15.3719 9.29734 15.265 9.29623C15.169 9.29618 15.074 9.31543 14.9856 9.35282C14.8972 9.39022 14.8172 9.44499 14.7504 9.51391C14.6836 9.58282 14.6313 9.66446 14.5967 9.75397C14.562 9.84348 14.5457 9.93904 14.5487 10.035C14.5483 10.129 14.5663 10.2223 14.6018 10.3094C14.6374 10.3965 14.6897 10.4757 14.7559 10.5425C14.822 10.6094 14.9007 10.6626 14.9874 10.699C15.0741 10.7355 15.1672 10.7545 15.2612 10.755C15.4384 10.7538 15.6087 10.6867 15.7391 10.5668C15.8694 10.4468 15.9504 10.2827 15.9662 10.1062V10.0425L17.6312 9.10123L19.1762 9.97873V13.8525L17.6312 14.73L11.3538 11.16V4.69873L10.0488 3.94873L5.905 6.31498V8.46373L4 9.54373V14.2687L5.905 15.3525V17.505L10.0488 19.86L11.3538 19.11V12.8175L10.6412 12.4125V17.2162L7.72 15.5587L7.3225 15.7837V16.1587L10.6375 18.0337V18.6975L10.045 19.035L6.61 17.085V15.345L8.26 14.415L8.31625 14.4412C8.4116 14.4896 8.51684 14.5153 8.62375 14.5162C8.7194 14.5168 8.81419 14.4981 8.90251 14.4614C8.99084 14.4247 9.07092 14.3707 9.13803 14.3025C9.20514 14.2344 9.25792 14.1534 9.29325 14.0646C9.32858 13.9757 9.34575 13.8806 9.34375 13.785C9.34424 13.6909 9.32621 13.5977 9.29067 13.5106C9.25513 13.4235 9.20278 13.3443 9.13662 13.2774C9.07046 13.2106 8.99178 13.1574 8.90506 13.1209C8.81835 13.0845 8.72531 13.0655 8.63125 13.065C8.45412 13.0661 8.28377 13.1332 8.15343 13.2532C8.02309 13.3731 7.9421 13.5373 7.92625 13.7137V13.7775L6.26125 14.7187L4.72 13.8412V9.96748L6.265 9.08998L12.5387 12.66V19.1212L13.8438 19.8712L17.9912 17.5162V15.3562L19.8962 14.2762V9.55123L17.9912 8.46748V6.31498L13.84 3.95623ZM6.6175 6.73498L10.0525 4.78498L10.645 5.12248V5.77498L6.6175 8.05873V6.73498ZM6.9925 8.67748L10.6487 6.60373V10.755L6.9925 8.67748ZM13.255 13.065L16.9113 15.1425L13.255 17.2162V13.065ZM13.255 18.69V18.045L17.2825 15.7612V17.085L13.84 19.035L13.2475 18.6975L13.255 18.69Z" fill="white"/>
</svg>
