<svg width="24" height="24" fill="none" xmlns="http://www.w3.org/2000/svg"><path d="M12 24c6.627 0 12-5.373 12-12S18.627 0 12 0 0 5.373 0 12s5.373 12 12 12Z" fill="#00AFEC"/><path d="M15.23 8.871c.036-.059.07-.138.103-.205A9.028 9.028 0 0 0 16.5 4.233a8.715 8.715 0 0 0-3.448-1.148c.457 1.996 1.105 3.93 2.042 5.752l.136.034ZM9.058 8.53l-.034-.008-.263-.06v-.004h-.004l.237-1.03c.175.038.35.079.523.122h.004a24.393 24.393 0 0 0 1.483-4.465 8.983 8.983 0 0 0-4.436 1.766v.003A9.011 9.011 0 0 0 3 11.85v.18c.96.552 2.014.924 3.108 1.1l.005-.006a24.834 24.834 0 0 0 2.948-4.592h-.002V8.53Zm5.634 1.519c.197.105.27.255.364.549.13.444.042.911-.05 1.35l1.088.252.27-1.172c1.099 1.691 2.318 3.438 3.797 4.81-.268.609-.435.822-.83 1.357a25.006 25.006 0 0 0-7.538-1.116l.217-.866-.723-.168a.488.488 0 0 1-.295-.178c-.084-.113-.084-.261-.056-.394l.453-1.966c.233.056.478.093.697.197a.704.704 0 0 1 .42.477c.059.299-.068.586-.12.873l.974.225.812-3.516-.083-.028-.063-.012a9.95 9.95 0 0 0 .624-.703l.042.029Zm-8.556 3.305.023-.032c.189.042.334.026.528.046.692.062 1.364.075 2.053-.022.053-.008.107-.013.16-.015l-.16.613a.545.545 0 0 1-.186.324.447.447 0 0 1-.354.062c-.247-.05-.495-.118-.745-.166-.076.343-.158.686-.237 1.027l1.663.384c-.068.31-.085.394-.155.701-1.384.19-2.75.488-4.087.892-.393-.535-.562-.664-.826-1.274.841-.78 1.599-1.648 2.322-2.54Zm3.858 2.478.667.154-.023.133-.711.05.067-.337Zm-1.229-2.684c.052-.007.104-.012.156-.014v-.003L9.78 9.42c.034-.169.101-.338.048-.507a.416.416 0 0 0-.261-.26l-.028-.009c-.142-.038-.033-.011-.178-.045-.015-.004-.087.02-.104.017a24.315 24.315 0 0 1-2.919 4.536c.189.04.158.028.346.048a9.028 9.028 0 0 0 2.081-.05l.001-.001Z" fill="#fff"/><path d="M10.672 7.813v.003c.133-.557.256-1.117.391-1.673l1.109.255-.386 1.674.664.154c.066-.278.131-.557.195-.836l.097-.419.096-.418 1.108.253-.048.225c-.107.485-.226.966-.333 1.452l1.275.297c-.937-1.822-1.557-3.727-2.014-5.724-.286-.033-.407-.022-.697-.027h-.177c-.318 0-.436-.009-.748.027-.35 1.533-.765 3.14-1.402 4.577l.87.18Zm1.471 1.432.034.007.004-.007h-.038Z" fill="#fff"/><path d="m12.146 9.244-.514 2.23c.32.07.652.188.98.096a.676.676 0 0 0 .445-.453c.062-.198.093-.4.147-.597l.543.138c.024.004-.004.018.012.003l.013-.01c.225-.242.48-.507.683-.763a3.946 3.946 0 0 0-1.052-.352l-1.257-.292Zm8.078-.877c-.776-1.735-1.883-3.042-3.527-3.994-.002 1.554-.375 2.94-1.139 4.294a3.063 3.063 0 0 0-.127.26c.515.113.836.182 1.35.297v.006l-.331 1.49c1.096 1.69 2.32 3.552 3.796 4.924A8.972 8.972 0 0 0 21 12.242v-.423a9.04 9.04 0 0 0-.776-3.453v.001ZM3 12.225v.13c.017 1.2.274 2.185.754 3.285a21.578 21.578 0 0 0 2.213-2.374c-1.091-.174-2.01-.486-2.967-1.04Zm8.764 4.05-.377 1.643h-.003l-1.114-.255.31-1.348-.709.05-.262 1.142h-.002l-1.114-.255c.057-.254.112-.501.175-.751-1.327.18-2.636.469-3.915.863a9.011 9.011 0 0 0 7.092 3.665h.369a9.035 9.035 0 0 0 7.034-3.665 24.612 24.612 0 0 0-7.484-1.089Z" fill="#fff"/></svg>