<svg width="24" height="24" viewBox="0 0 24 24" fill="none" xmlns="http://www.w3.org/2000/svg">
<path d="M12 24C18.6274 24 24 18.6274 24 12C24 5.37258 18.6274 0 12 0C5.37258 0 0 5.37258 0 12C0 18.6274 5.37258 24 12 24Z" fill="#7C5D00"/>
<path d="M12 23.04C18.0972 23.04 23.04 18.0972 23.04 12C23.04 5.90274 18.0972 0.959961 12 0.959961C5.90274 0.959961 0.959961 5.90274 0.959961 12C0.959961 18.0972 5.90274 23.04 12 23.04Z" fill="#EED554"/>
<path d="M11.9999 22.0799C17.567 22.0799 22.0799 17.567 22.0799 11.9999C22.0799 6.43289 17.567 1.91992 11.9999 1.91992C6.43289 1.91992 1.91992 6.43289 1.91992 11.9999C1.91992 17.567 6.43289 22.0799 11.9999 22.0799Z" fill="#F1C700"/>
<path fill-rule="evenodd" clip-rule="evenodd" d="M18.71 11.3344H14.2051C13.9347 11.3344 13.7154 11.5536 13.7154 11.8241V13.0233C13.7154 13.2938 13.9347 13.5131 14.2051 13.5131H16.6782C16.0179 15.0683 14.4753 16.1618 12.6821 16.1618C11.1405 16.1618 9.78498 15.3529 9.01517 14.1379H9.91788C10.1884 14.1379 10.4077 13.9186 10.4077 13.6481V13.2179C10.4077 12.9474 10.1884 12.7281 9.91788 12.7281H8.43889C8.37661 12.436 8.34322 12.1333 8.34322 11.8228C8.34322 11.5744 8.36533 11.3312 8.40564 11.0941H9.91788C10.1884 11.0941 10.4077 10.8748 10.4077 10.6043V10.174C10.4077 9.90356 10.1884 9.68427 9.91788 9.68427H8.90918C9.65611 8.3717 11.067 7.48393 12.6821 7.48393C14.0227 7.48393 15.2229 8.09519 16.0191 9.05365C16.2026 9.27454 16.5391 9.28338 16.7405 9.07871C17.1635 8.64898 17.575 8.23547 17.8986 7.91948C16.7086 6.33329 14.8132 5.30518 12.6821 5.30518C9.83708 5.30518 7.41232 7.1377 6.52525 9.68427H5.28957C5.01909 9.68427 4.7998 9.90356 4.7998 10.174V10.6043C4.7998 10.8748 5.01909 11.0941 5.28957 11.0941H6.20542C6.17863 11.3334 6.16447 11.5765 6.16447 11.8228C6.16447 12.13 6.18632 12.4321 6.22759 12.7281H5.28957C5.01909 12.7281 4.7998 12.9474 4.7998 13.2179V13.6481C4.7998 13.9186 5.01909 14.1379 5.28957 14.1379H6.58965C7.52542 16.5922 9.90321 18.3405 12.6821 18.3405C16.276 18.3405 19.1998 15.4167 19.1998 11.8228V11.8179C19.1996 11.5499 18.9781 11.3344 18.71 11.3344Z" fill="white"/>
</svg>
