<svg width="24" height="24" fill="none" xmlns="http://www.w3.org/2000/svg"><g clip-path="url(#a)"><path d="M11.61 19.773a6.606 6.606 0 0 1-6.603-6.602c0-3.542 5.977-9.798 6.23-10.06l.313-.33.321.321c.262.263 6.34 6.518 6.34 10.06a6.608 6.608 0 0 1-6.602 6.611Zm-.052-15.715a45.326 45.326 0 0 0-2.713 3.23c-1.936 2.552-2.959 4.581-2.959 5.874a5.733 5.733 0 0 0 5.723 5.723 5.733 5.733 0 0 0 5.723-5.723c0-1.293-1.04-3.322-3.01-5.875a46.967 46.967 0 0 0-2.764-3.23Z" fill="url(#b)"/><path d="M11.61 21.886c-4.81 0-8.716-3.914-8.716-8.715 0-4.7 6.56-11.26 6.839-11.531a.45.45 0 0 1 .625 0 .45.45 0 0 1 0 .625c-.068.068-6.577 6.577-6.577 10.906 0 4.32 3.517 7.836 7.837 7.836s7.836-3.517 7.836-7.836c0-1.776-1.15-4.227-3.33-7.11a41.402 41.402 0 0 0-3.373-3.897.434.434 0 0 1 0-.626.434.434 0 0 1 .625 0c.288.28 6.966 6.924 6.966 11.633-.017 4.801-3.923 8.715-8.733 8.715Z" fill="url(#c)"/><path d="M11.61 24C5.76 24 1 19.24 1 13.39c0-2.417 1.217-5.393 3.61-8.834C6.377 2.02 8.11.211 8.186.136a.441.441 0 1 1 .634.616 39.518 39.518 0 0 0-3.492 4.32C3.071 8.31 1.88 11.184 1.88 13.391c0 5.36 4.362 9.73 9.73 9.73s9.73-4.362 9.73-9.73c0-2.207-1.2-5.081-3.474-8.319A39.655 39.655 0 0 0 14.34.752a.441.441 0 0 1 .008-.625.441.441 0 0 1 .626.008c.296.305 7.245 7.524 7.245 13.256 0 5.85-4.76 10.609-10.61 10.609Z" fill="url(#d)"/></g><defs><linearGradient id="b" x1="11.609" y1="19.772" x2="11.609" y2="2.78" gradientUnits="userSpaceOnUse"><stop stop-color="#05AAC5"/><stop offset="1" stop-color="#71E0EC"/></linearGradient><linearGradient id="c" x1="11.618" y1="21.885" x2="11.618" y2="1.404" gradientUnits="userSpaceOnUse"><stop stop-color="#05AAC5"/><stop offset="1" stop-color="#71E0EC"/></linearGradient><linearGradient id="d" x1="11.609" y1="23.999" x2="11.609" y2="0" gradientUnits="userSpaceOnUse"><stop stop-color="#05AAC5"/><stop offset="1" stop-color="#71E0EC"/></linearGradient><clipPath id="a"><path fill="#fff" d="M0 0h24v24H0z"/></clipPath></defs></svg>