<svg width="24" height="24" fill="none" xmlns="http://www.w3.org/2000/svg"><path fill-rule="evenodd" clip-rule="evenodd" d="M24 12c0 6.627-5.373 12-12 12S0 18.627 0 12 5.373 0 12 0s12 5.373 12 12Z" fill="#EF494D"/><path fill-rule="evenodd" clip-rule="evenodd" d="M5.09 8.344h-.836a.376.376 0 0 0-.376.375v.876c0 .208.168.376.376.376h.835a.376.376 0 0 0 .376-.376V8.72a.376.376 0 0 0-.376-.375ZM6.028 8.72v6.56c0 .208.168.376.376.376h1.181a.376.376 0 0 0 .376-.376V10.16c0-.104.084-.188.188-.188H9.73a.376.376 0 0 0 .376-.376V8.72a.376.376 0 0 0-.376-.375H6.404a.376.376 0 0 0-.376.375ZM13.56 15.656h1.5c.061 0 .12-.03.154-.082L16.49 13.7a.188.188 0 0 1 .31 0l1.272 1.874a.188.188 0 0 0 .156.082h1.518a.376.376 0 0 0 .307-.592l-2.152-3.059a.188.188 0 0 1-.002-.213L19.84 8.93a.376.376 0 0 0-.31-.586h-1.46a.188.188 0 0 0-.154.08l-4.664 6.64a.376.376 0 0 0 .308.592ZM12.574 15.28V8.72a.376.376 0 0 0-.375-.376h-1.182a.376.376 0 0 0-.375.375v6.561c0 .208.168.376.375.376H12.2a.376.376 0 0 0 .375-.376ZM16.288 9.765l-.885-1.337a.188.188 0 0 0-.156-.084h-1.469a.376.376 0 0 0-.31.588l.916 1.335a.188.188 0 0 0 .155.081h1.435c.3 0 .479-.333.314-.583Z" fill="#fff"/></svg>