<svg width="25" height="25" fill="none" xmlns="http://www.w3.org/2000/svg"><path d="M18.391 18.238c-.057.925-.621 1.52-1.11 1.867-.452.32-1.017.395-1.57.395H9.354c-.535 0-1.079-.07-1.525-.365-.518-.342-1.138-.946-1.203-1.897m11.765 0c.03-.485-.08-1.06-.414-1.738-.872-1.772-1.927-2.846-2.645-3.429-.321-.26-.318-.877.005-1.135.727-.581 1.792-1.657 2.64-3.436.932-1.953.043-3.059-.69-3.592-.454-.331-1.027-.408-1.59-.408H9.344c-.528 0-1.064.069-1.508.355-.793.511-1.837 1.625-.789 3.645.929 1.789 1.978 2.867 2.674 3.445.31.259.308.847-.005 1.103-.703.577-1.762 1.656-2.669 3.452-.342.677-.453 1.253-.42 1.738m11.765 0-5.65-3.105a.5.5 0 0 0-.482 0l-5.633 3.105" stroke="#95A7AE" stroke-linejoin="round"/></svg>