<svg width="24" height="24" viewBox="0 0 24 24" fill="none" xmlns="http://www.w3.org/2000/svg">
<path d="M22.8954 7.0117C21.8315 6.79957 20.9959 5.97466 20.7701 4.91358H22.3491C22.6478 4.91184 22.8917 5.15228 22.8941 5.45107L22.8954 7.0117ZM22.8954 15.7136C21.2339 15.9444 19.9213 17.2392 19.668 18.8974H4.31747C4.06414 17.2392 2.7516 15.9444 1.09011 15.7136V8.09864C2.75199 7.86773 4.06465 6.57229 4.31747 4.91359H19.668C19.9216 6.57155 21.2341 7.86605 22.8954 8.09675V15.7136ZM22.8954 18.3593C22.8933 18.6583 22.6494 18.8991 22.3503 18.8974H20.7714C20.9976 17.8368 21.8331 17.0125 22.8966 16.8005L22.8954 18.3593ZM1.63516 18.8974C1.33612 18.8991 1.09219 18.6583 1.09011 18.3593V16.8005C2.15363 17.0125 2.98913 17.8368 3.21537 18.8974H1.63516ZM1.09011 5.45296C1.09077 5.30913 1.14859 5.17147 1.25083 5.0703C1.35307 4.96913 1.49133 4.91275 1.63516 4.91358H3.21411C2.9885 5.9743 2.1535 6.79912 1.09011 7.0117V5.45296ZM22.3503 3.83988H1.63516C0.738678 3.835 0.0072978 4.5565 0 5.45296V18.3593C0.00695156 19.256 0.738433 19.9779 1.63516 19.973H22.3509C23.2477 19.9779 23.9792 19.256 23.9861 18.3593V5.45296C23.9792 4.5561 23.2472 3.83431 22.3503 3.83988Z" fill="#D9A162"/>
<path d="M12.0567 6.60859C9.11653 6.64858 6.76163 9.05748 6.78831 11.9978C6.81499 14.9382 9.21322 17.3039 12.1537 17.2906C15.0941 17.2772 17.4706 14.8897 17.4706 11.9492C17.4633 10.5223 16.8882 9.15708 15.8724 8.155C14.8565 7.15293 13.4836 6.59649 12.0567 6.60859ZM12.0567 7.55596C14.474 7.58899 16.41 9.56959 16.3879 11.987C16.3658 14.4044 14.3941 16.3493 11.9766 16.3383C9.55909 16.3271 7.60523 14.3642 7.60535 11.9467C7.62655 9.5073 9.61727 7.54482 12.0567 7.55849V7.55596Z" fill="#5DB3ED"/>
<path d="M14.1383 11.8306H12.2853V9.76593C12.2853 9.50014 12.0698 9.28467 11.804 9.28467C11.5382 9.28467 11.3228 9.50014 11.3228 9.76593V12.068C11.3228 12.1154 11.3348 12.1508 11.3348 12.1868C11.3248 12.2255 11.3208 12.2656 11.3228 12.3055C11.3252 12.5693 11.5402 12.7815 11.804 12.7805H14.1409C14.3183 12.7934 14.4882 12.7061 14.5809 12.5542C14.6736 12.4023 14.6736 12.2113 14.5809 12.0594C14.4882 11.9075 14.3183 11.8201 14.1409 11.8331" fill="#5DB3ED"/>
</svg>
