<svg width="24" height="24" viewBox="0 0 24 24" fill="none" xmlns="http://www.w3.org/2000/svg">
<path d="M11.9512 15.77L13.2413 13.5913H10.7119L11.9512 15.77Z" fill="#F0DBB0"/>
<path d="M21.0354 8.64117L19.327 0.959961L15.9706 6.24601C13.3614 5.61729 10.6398 5.61729 8.03063 6.24601L4.68151 0.959961L2.96705 8.64117C1.12322 10.1126 0 12.035 0 14.1448C0 18.7671 5.37068 22.5152 11.9964 22.5152C18.6221 22.5152 23.9927 18.7671 23.9927 14.1448C23.9915 12.035 22.8768 10.1126 21.0354 8.64117ZM5.33199 12.1596H4.5328L6.48423 9.9119H7.9061L5.33199 12.1596ZM11.9359 17.6487L8.61703 11.8138L9.43678 11.3471L10.1767 12.6468H13.8027L14.5753 11.341L15.3866 11.8222L11.9359 17.6487ZM18.6716 12.1596L16.0963 9.9119H17.5267L19.4769 12.1596H18.6716Z" fill="#F0DBB0"/>
</svg>
