<svg width="24" height="24" fill="none" xmlns="http://www.w3.org/2000/svg"><mask id="a" mask-type="alpha" maskUnits="userSpaceOnUse" x="0" y="1" width="24" height="22"><path d="M0 1.92h23.866v20.456H0V1.92Z" fill="#fff"/></mask><g mask="url(#a)"><path fill-rule="evenodd" clip-rule="evenodd" d="M23.091 6.59C20.761 1.85 13.877.494 7.714 3.563c-6.163 3.07-9.27 9.402-6.94 14.143 2.33 4.742 9.216 6.097 15.378 3.027 6.163-3.07 9.27-9.401 6.94-14.143Zm-7.28 13.247c-4.473 2.228-9.788.598-11.871-3.64s-.145-9.48 4.328-11.708c4.473-2.228 9.788-.598 11.871 3.64s.145 9.48-4.328 11.708Zm1.051-7.985L9.046 7.077a.354.354 0 0 0-.522.311v9.522c0 .268.286.439.522.31l7.816-4.746a.354.354 0 0 0 0-.622Z" fill="#454545"/></g></svg>