<svg width="24" height="24" viewBox="0 0 24 24" fill="none" xmlns="http://www.w3.org/2000/svg">
<g clip-path="url(#clip0)">
<path d="M15.7187 2H6.98164L6.25706 6.04831L14.1433 6.05765C18.028 6.05765 19.1733 7.46942 19.1406 9.80678C19.1219 11.0035 18.603 13.0323 18.3786 13.6915C17.7803 15.4445 16.5508 17.4406 11.9415 17.4359L4.27498 17.4312L3.55273 21.4842H12.2711C15.3471 21.4842 16.6513 21.1243 18.0397 20.4885C21.111 19.0627 22.9388 16.0335 23.6727 12.0787C24.7596 6.18855 23.4039 2 15.7187 2Z" fill="#008DE4"/>
<path d="M3.21153 9.7085C0.920919 9.7085 0.593689 11.1997 0.378652 12.102C0.0934944 13.28 0 13.7615 0 13.7615H8.94741C11.238 13.7615 11.5653 12.2702 11.7803 11.368C12.0654 10.19 12.1589 9.7085 12.1589 9.7085H3.21153Z" fill="#008DE4"/>
</g>
<defs>
<clipPath id="clip0">
<rect width="24" height="24" fill="white"/>
</clipPath>
</defs>
</svg>
