<svg width="24" height="24" viewBox="0 0 24 24" fill="none" xmlns="http://www.w3.org/2000/svg">
<g clip-path="url(#clip0)">
<path d="M0.627075 3.01906C0.263649 3.04765 -0.0160663 3.10481 -0.000345079 3.14769C0.144617 3.49274 1.04093 5.52425 1.05318 5.5365C1.06543 5.54875 1.27369 5.56304 1.51869 5.57325C2.60489 5.61409 3.46445 5.82643 4.39343 6.28581C5.06108 6.61453 5.55517 6.96775 6.06969 7.48022C6.82716 8.23565 7.32126 9.0748 7.61118 10.1018C7.64385 10.2202 7.67039 10.3264 7.67039 10.3427C7.67039 10.3652 7.50501 10.3693 6.77408 10.3693C6.27998 10.3693 5.85531 10.3774 5.82876 10.3876C5.78997 10.4019 5.68788 10.6224 5.26321 11.5963C4.97737 12.2517 4.74053 12.803 4.73644 12.8214C4.72215 12.8744 4.89366 12.9214 5.32242 12.9847C5.41021 12.999 5.93697 13.0133 6.5597 13.0214L7.64385 13.0337L7.57852 13.2583C6.84758 15.7369 4.57923 17.4703 1.80045 17.6786C1.64324 17.6888 1.43703 17.699 1.34106 17.699H1.16752L0.632588 18.9302C0.173201 19.9817 0.101741 20.1613 0.132367 20.1715C0.271204 20.2226 0.581545 20.241 1.30023 20.241C2.219 20.241 2.66614 20.2001 3.42362 20.045C6.51682 19.41 9.08735 17.4418 10.2511 14.812C10.4757 14.3057 10.7391 13.4727 10.7861 13.1235L10.8003 13.0235H13.1218L13.13 13.0684C13.2974 13.8892 13.4791 14.4425 13.7935 15.0958C14.7388 17.064 16.511 18.6709 18.7059 19.5529C20.0387 20.0867 21.4664 20.343 22.9016 20.3063C23.5019 20.2879 23.9796 20.2205 23.9551 20.1573C23.9347 20.1042 22.9179 17.7705 22.9118 17.7644C22.9057 17.7582 22.6954 17.7501 22.4402 17.7399C21.7235 17.7113 21.1845 17.6276 20.5761 17.454C19.639 17.1845 18.712 16.6965 18.0015 16.1004C17.1072 15.347 16.46 14.4098 16.117 13.3706C16.0782 13.2522 16.0394 13.1276 16.0333 13.0909L16.019 13.0255L16.8928 13.0194C17.3726 13.0153 17.781 13.0051 17.7973 12.9969C17.8239 12.9827 18.8692 10.6122 18.8692 10.5653C18.8692 10.5346 18.6058 10.457 18.367 10.4183C18.1914 10.3897 17.9688 10.3815 17.0807 10.3754L16.0047 10.3652L16.0455 10.2202C16.6417 8.10907 18.4711 6.43282 20.8293 5.83868C21.3499 5.70801 21.8563 5.64063 22.5137 5.61409C22.9057 5.59775 22.9547 5.59163 22.9792 5.55896C22.9955 5.5365 23.2365 4.99545 23.5141 4.35639C23.8551 3.57441 24.0123 3.18852 23.998 3.17832C23.9531 3.15382 23.6673 3.10277 23.4427 3.08031C23.116 3.0456 22.1625 3.05173 21.7419 3.08848C19.3368 3.30286 17.1685 4.27268 15.5433 5.85705C14.551 6.82483 13.8548 7.91102 13.426 9.16464C13.3157 9.4811 13.183 9.97928 13.1422 10.2202L13.1177 10.3693H10.8357L10.8275 10.3223C10.8214 10.2978 10.7989 10.1814 10.7744 10.063C10.4375 8.38878 9.48609 6.76153 8.14264 5.56304C6.6134 4.19713 4.70643 3.34165 2.60754 3.08174C1.97665 3.00477 1.16343 2.97823 0.627075 3.01906Z" fill="#007F88"/>
</g>
<defs>
<clipPath id="clip0">
<rect width="24" height="24" fill="white"/>
</clipPath>
</defs>
</svg>
