<svg width="24" height="24" viewBox="0 0 24 24" fill="none" xmlns="http://www.w3.org/2000/svg">
<path d="M0.0776683 12.5893C0.0776683 12.5893 0.244449 12.5097 0.521751 12.3422C0.660486 12.2596 0.8271 12.1562 1.00973 12.0267C1.19536 11.9019 1.39423 11.7468 1.60159 11.5702C1.80694 11.3911 2.01668 11.1855 2.21306 10.9505C2.25895 10.8897 2.30546 10.8281 2.35251 10.7657L2.38788 10.719L2.41936 10.6695C2.44053 10.6367 2.46182 10.6036 2.48327 10.5703C2.50472 10.5372 2.52628 10.5039 2.54795 10.4704C2.56602 10.4352 2.5842 10.3998 2.60249 10.3643C2.62073 10.3288 2.63907 10.2932 2.65753 10.2574L2.68502 10.2041L2.71174 10.1445C2.85535 9.82578 2.9983 9.49765 3.15222 9.1637C3.30442 8.82975 3.45989 8.48965 3.62424 8.15071C3.79307 7.81377 3.96755 7.47744 4.1728 7.15385C4.27323 6.99162 4.38697 6.83381 4.5119 6.68172C4.54505 6.64425 4.57814 6.6069 4.61106 6.5697L4.61727 6.56272L4.62875 6.55102L4.64072 6.53939L4.66466 6.51611L4.71238 6.46966C4.7411 6.43995 4.78422 6.40453 4.82108 6.37205C4.85921 6.3389 4.89723 6.30554 4.93631 6.27777C4.97528 6.24884 5.01402 6.22001 5.05265 6.1913C5.09395 6.16575 5.13502 6.14031 5.17587 6.11498L5.23728 6.07757L5.30185 6.0452C5.34486 6.02391 5.38765 6.00274 5.43022 5.98168C5.47429 5.96333 5.51946 5.94764 5.5638 5.93129C5.60853 5.91588 5.65154 5.89704 5.69799 5.88778C5.78978 5.86761 5.87808 5.83801 5.96992 5.83197C6.33413 5.78424 6.67861 5.84494 6.96467 5.94831C7.03506 5.9768 7.10213 6.00834 7.16814 6.03727C7.20074 6.05246 7.23299 6.06748 7.26481 6.08228C7.29463 6.10018 7.32412 6.11781 7.35322 6.13526C7.469 6.20555 7.57991 6.26873 7.67159 6.34428C7.8637 6.48462 8.00787 6.62918 8.12731 6.74585C8.24382 6.86535 8.32419 6.969 8.38172 7.03629C8.43876 7.10413 8.46764 7.14138 8.46764 7.14138C8.48072 7.15834 8.47767 7.18267 8.46071 7.19575C8.44702 7.20634 8.4285 7.20634 8.41504 7.19708L8.41348 7.19603C8.41348 7.19603 8.37496 7.16948 8.30269 7.11971C8.2671 7.0946 8.22326 7.06367 8.17165 7.02731C8.11972 6.99195 8.06557 6.94434 7.99523 6.90437C7.92611 6.86291 7.85201 6.81475 7.77136 6.76314C7.75124 6.75023 7.73073 6.73709 7.70978 6.72368C7.68783 6.71215 7.66544 6.70046 7.64266 6.68848C7.59721 6.6646 7.54959 6.64104 7.50193 6.61477C7.3122 6.50702 7.08279 6.42509 6.83835 6.35481C6.59054 6.29844 6.32094 6.2771 6.05178 6.33242C5.98333 6.33929 5.9182 6.36784 5.85047 6.3853C5.78324 6.40569 5.71911 6.43995 5.65204 6.466C5.52301 6.53401 5.39331 6.60917 5.27314 6.70899C5.24105 6.73188 5.21378 6.75705 5.18573 6.78188C5.15702 6.80804 5.13075 6.82755 5.09799 6.86186L5.05077 6.90881L5.0271 6.93236L5.01524 6.94411L5.0123 6.94705C5.01008 6.94927 5.02078 6.93857 5.01513 6.94439L5.0102 6.94993L4.93038 7.03817C4.82629 7.16261 4.72447 7.29857 4.63046 7.44706C4.43918 7.74027 4.26642 8.06402 4.09742 8.39032C3.92548 8.71579 3.7597 9.04752 3.59652 9.37521C3.43517 9.70295 3.26967 10.027 3.10815 10.3361L3.07806 10.3941L3.0428 10.4547C3.01936 10.4946 2.99597 10.5344 2.97269 10.5739C2.9493 10.6132 2.92607 10.6524 2.90291 10.6914C2.87647 10.7279 2.85008 10.7641 2.82392 10.8001C2.79771 10.8361 2.77165 10.8718 2.74571 10.9073L2.70675 10.9602L2.66368 11.0089C2.60648 11.0733 2.54995 11.1369 2.49419 11.1996C2.25945 11.4377 2.02122 11.641 1.7876 11.8073C1.55176 11.9701 1.33082 12.1095 1.1268 12.2175C0.92371 12.3271 0.741576 12.4112 0.590814 12.4777C0.287017 12.6053 0.106102 12.6607 0.106102 12.6607L0.105437 12.6609C0.0850955 12.6671 0.0635343 12.6557 0.0573265 12.6353C0.0517283 12.6168 0.0607076 12.5973 0.0776683 12.5893ZM0.718684 12.753C0.710925 12.7501 0.70189 12.7526 0.69668 12.7595C0.690306 12.768 0.692024 12.7801 0.700504 12.7864C0.700504 12.7864 0.704052 12.7891 0.714361 12.7945C0.725114 12.8001 0.743738 12.8084 0.761308 12.8152C0.799054 12.8309 0.854925 12.8509 0.927756 12.8711C1.00037 12.8931 1.09021 12.911 1.19458 12.9286C1.29901 12.9454 1.41829 12.9539 1.54943 12.9575C1.68035 12.9571 1.82302 12.9488 1.973 12.9258C2.12171 12.8978 2.27918 12.8625 2.43516 12.8028C2.59057 12.743 2.7476 12.668 2.89354 12.5701C2.96859 12.5243 3.0366 12.4676 3.1071 12.4139C3.17456 12.3567 3.2414 12.2978 3.30431 12.2354C3.42869 12.1094 3.54437 11.9744 3.63843 11.8294C3.66259 11.7936 3.68665 11.7579 3.71054 11.7225C3.73193 11.6856 3.75322 11.6489 3.77439 11.6124C3.79534 11.5759 3.81618 11.5396 3.83686 11.5036C3.85459 11.4662 3.87222 11.429 3.88973 11.3922C3.92526 11.3188 3.95891 11.2463 3.98573 11.173C4.01295 11.0999 4.04526 11.0306 4.06616 10.9595C4.08783 10.8889 4.10895 10.8201 4.12935 10.7537C4.14963 10.6873 4.16277 10.6215 4.17879 10.5595C4.2106 10.4351 4.22917 10.3191 4.24635 10.2168C4.25444 10.1656 4.26204 10.1177 4.26908 10.0734C4.27373 10.0288 4.27806 9.98785 4.28194 9.95088C4.29513 9.80311 4.30272 9.71864 4.30272 9.71864C4.30355 9.7096 4.2979 9.70101 4.28887 9.69841C4.27867 9.69547 4.26797 9.70134 4.26503 9.7116L4.26475 9.71248C4.26475 9.71248 4.24153 9.79341 4.20079 9.93508C4.1912 9.97044 4.18056 10.0096 4.16898 10.0522C4.15545 10.0942 4.14082 10.1397 4.12513 10.1882C4.09548 10.2855 4.06156 10.3949 4.01616 10.511C3.99438 10.5692 3.97526 10.6311 3.9491 10.6927C3.92299 10.754 3.89594 10.8174 3.86817 10.8827C3.84234 10.9486 3.80715 11.0121 3.77616 11.0792C3.74573 11.1466 3.70887 11.2122 3.67046 11.2782C3.65167 11.3115 3.63277 11.3449 3.61371 11.3786C3.59298 11.4112 3.57208 11.4439 3.55107 11.4768C3.53001 11.5097 3.50884 11.5427 3.48755 11.5759C3.46405 11.6074 3.4405 11.6391 3.41677 11.6709C3.39266 11.7023 3.3701 11.7351 3.34466 11.7656L3.26618 11.8556C3.21662 11.9183 3.15759 11.972 3.10267 12.0297C3.04535 12.0848 2.98483 12.1364 2.92397 12.1866C2.86039 12.2333 2.79926 12.2829 2.73219 12.3227C2.60332 12.4102 2.46581 12.4791 2.32962 12.5383C2.19421 12.6004 2.05492 12.6413 1.92184 12.676C1.78865 12.7123 1.65873 12.7323 1.53801 12.7488C1.41701 12.765 1.30477 12.7703 1.2045 12.7748C1.1044 12.7774 1.01638 12.7762 0.94383 12.7732C0.871387 12.7696 0.814075 12.7654 0.775553 12.7609C0.754768 12.7584 0.744624 12.7575 0.735867 12.7572C0.726832 12.7562 0.72068 12.7536 0.720957 12.754L0.718684 12.753ZM3.15482 12.5221C3.14778 12.5303 3.14867 12.5426 3.15682 12.5497L3.15721 12.55C3.15787 12.5501 3.15965 12.5522 3.17007 12.5566C3.1755 12.5588 3.18248 12.5615 3.19129 12.5643C3.19795 12.5662 3.20571 12.5684 3.21446 12.5709C3.24899 12.5803 3.29993 12.5924 3.36578 12.5994C3.49703 12.616 3.68981 12.6164 3.91551 12.5627C4.02747 12.5341 4.14708 12.4925 4.2678 12.4342C4.38681 12.3732 4.50764 12.2976 4.61993 12.2033C4.73018 12.1077 4.83837 12.0005 4.9285 11.8776C4.97688 11.8183 5.01513 11.752 5.05797 11.6883C5.09749 11.6228 5.13424 11.5554 5.17027 11.488C5.20192 11.4188 5.23789 11.3511 5.26544 11.2807C5.29105 11.2097 5.32125 11.1405 5.34226 11.0692C5.38849 10.9279 5.42573 10.7874 5.45489 10.6501C5.47856 10.5121 5.50394 10.3795 5.51591 10.2525C5.53149 10.1258 5.53603 10.0056 5.54235 9.89512C5.54928 9.78465 5.54341 9.683 5.54462 9.59354C5.54507 9.50397 5.5382 9.42593 5.53454 9.3618C5.52434 9.23381 5.51846 9.16071 5.51846 9.16071C5.51774 9.15189 5.51104 9.14441 5.50195 9.14314C5.49142 9.14164 5.4816 9.14901 5.48011 9.15954L5.48 9.16032C5.48 9.16032 5.4698 9.23254 5.4519 9.35897C5.44414 9.42205 5.43527 9.49859 5.42036 9.58572C5.40595 9.6728 5.39553 9.77151 5.37358 9.87738C5.35445 9.98358 5.33605 10.0988 5.30634 10.2181C5.28329 10.3388 5.24859 10.463 5.21478 10.5915C5.19416 10.6546 5.17415 10.7188 5.15475 10.784C5.13485 10.849 5.10858 10.9123 5.08563 10.9774C5.0353 11.1058 4.97694 11.232 4.91453 11.3552C4.88088 11.4153 4.84685 11.4753 4.8106 11.5332C4.77147 11.5888 4.73644 11.6475 4.69337 11.6986C4.67292 11.725 4.6533 11.7522 4.63246 11.7778C4.61056 11.8025 4.58884 11.8271 4.56722 11.8516C4.52476 11.9012 4.47787 11.9454 4.43231 11.9891C4.33997 12.0756 4.24136 12.1481 4.14376 12.2115C4.04637 12.2757 3.94599 12.3233 3.85127 12.3638C3.75682 12.4064 3.6647 12.4312 3.58272 12.455C3.50036 12.478 3.42631 12.4897 3.365 12.5001C3.30353 12.5093 3.25454 12.5132 3.22139 12.5152C3.21324 12.5155 3.20604 12.5158 3.19983 12.516C3.19545 12.5167 3.19179 12.5172 3.18886 12.5176C3.18204 12.5185 3.17572 12.5159 3.17622 12.5165C3.16874 12.5139 3.1602 12.5159 3.15482 12.5221ZM5.01851 11.9152C5.01402 11.9249 5.01823 11.9363 5.02782 11.9408C5.02854 11.9408 5.02982 11.9424 5.03985 11.9454C5.04523 11.9469 5.05238 11.9486 5.0613 11.95C5.06762 11.9507 5.07488 11.9516 5.08319 11.9526C5.11495 11.9562 5.16107 11.9592 5.21949 11.9557C5.33633 11.951 5.50455 11.9233 5.69317 11.8414C5.78679 11.7999 5.886 11.7459 5.98056 11.6732C6.0744 11.6003 6.16879 11.5144 6.24866 11.4108C6.32837 11.3077 6.40159 11.193 6.45557 11.0683C6.51244 10.9447 6.55318 10.8135 6.58472 10.6814C6.59658 10.6148 6.61293 10.5487 6.62063 10.4821C6.62673 10.4155 6.63782 10.3493 6.63931 10.2837C6.64718 10.1524 6.64718 10.0239 6.64003 9.90027C6.62862 9.77717 6.61897 9.6585 6.59946 9.54776C6.58305 9.43646 6.55789 9.33353 6.53744 9.23825C6.51671 9.14302 6.48755 9.05828 6.46716 8.98229C6.44615 8.90635 6.42104 8.84205 6.40258 8.78868C6.36378 8.68237 6.33995 8.62256 6.33995 8.62256C6.33685 8.6148 6.32892 8.60965 6.32016 8.61048C6.30952 8.61148 6.30171 8.6209 6.30265 8.63154L6.3027 8.63232C6.3027 8.63232 6.30869 8.69667 6.3221 8.80769C6.32925 8.86306 6.33873 8.93007 6.34516 9.00739C6.3522 9.08449 6.36484 9.17068 6.36988 9.26535C6.37681 9.35969 6.38734 9.4614 6.38812 9.56904C6.39521 9.6764 6.39366 9.78909 6.39283 9.90521C6.38961 9.96307 6.38618 10.0217 6.38418 10.081C6.38213 10.1403 6.37293 10.1993 6.36772 10.2592C6.35309 10.3783 6.33014 10.4969 6.30254 10.6135C6.28585 10.6708 6.27006 10.7284 6.25132 10.7843C6.23004 10.8391 6.21219 10.8953 6.18608 10.9467C6.14097 11.0534 6.08227 11.15 6.0208 11.2397C5.95994 11.3303 5.88783 11.4077 5.81622 11.4782C5.74472 11.5493 5.66712 11.6065 5.59346 11.6576C5.52007 11.71 5.44574 11.7476 5.37934 11.7816C5.31266 11.8154 5.25136 11.8389 5.20042 11.8583C5.14932 11.877 5.10791 11.8893 5.07998 11.8966C5.07327 11.8983 5.0674 11.8998 5.0623 11.9011C5.05941 11.9027 5.05698 11.904 5.05504 11.9051C5.04966 11.9073 5.04334 11.9054 5.04401 11.906C5.03442 11.9014 5.023 11.9056 5.01851 11.9152ZM6.48096 11.0178C6.47691 11.0276 6.48151 11.0389 6.49132 11.0429C6.49215 11.0429 6.4926 11.0443 6.50235 11.0467C6.50762 11.0479 6.51488 11.0491 6.52369 11.0495C6.52935 11.0497 6.53583 11.0498 6.54326 11.05C6.57169 11.0503 6.61287 11.0489 6.66387 11.0394C6.71514 11.0309 6.77677 11.0156 6.845 10.9894C6.91368 10.9641 6.98745 10.9254 7.06461 10.8756C7.14049 10.8241 7.21631 10.7576 7.28648 10.677C7.35676 10.5963 7.4159 10.4992 7.46518 10.3939C7.51512 10.2883 7.54499 10.1723 7.56855 10.0546C7.58523 9.93636 7.59765 9.81558 7.592 9.69674L7.58928 9.60762L7.5808 9.51971C7.57548 9.46101 7.56628 9.40364 7.55558 9.34711C7.54655 9.29018 7.53529 9.23442 7.52138 9.18027C7.50847 9.12584 7.49705 9.07163 7.47909 9.02064C7.46269 8.96926 7.44656 8.91871 7.43081 8.86921C7.41269 8.82083 7.3949 8.77349 7.37766 8.72743C7.34291 8.63537 7.30067 8.55278 7.26681 8.47463C7.22989 8.39775 7.19104 8.32985 7.15933 8.26872C7.12757 8.20752 7.09359 8.15736 7.06854 8.11479C7.01605 8.03077 6.98451 7.98399 6.98451 7.98399C6.97997 7.97728 6.97154 7.97384 6.96328 7.97611C6.95292 7.97889 6.94682 7.98958 6.94959 7.99995L6.94976 8.00061C6.94976 8.00061 6.96462 8.05527 6.99316 8.14894C7.00757 8.19566 7.02675 8.2517 7.04454 8.31721C7.06339 8.38229 7.08639 8.45495 7.10801 8.53488C7.12851 8.61503 7.15645 8.70005 7.17535 8.79228C7.1866 8.83779 7.19813 8.88451 7.20988 8.93229C7.21936 8.98029 7.229 9.02934 7.23881 9.07917C7.24946 9.12884 7.25572 9.17966 7.26481 9.23066C7.27429 9.28165 7.28105 9.33336 7.28559 9.38552C7.29186 9.43762 7.29662 9.49 7.29762 9.54238L7.30228 9.62097L7.30184 9.69913C7.30256 9.80355 7.29225 9.9057 7.27717 10.0046C7.25783 10.102 7.2371 10.1976 7.20234 10.2839C7.16892 10.3704 7.1304 10.4521 7.08301 10.5232C7.03656 10.595 6.98462 10.6584 6.93186 10.7141C6.87915 10.7701 6.82283 10.8139 6.77217 10.8536C6.72112 10.893 6.6719 10.9211 6.63139 10.9455C6.59032 10.9689 6.55645 10.9847 6.53361 10.9947C6.52813 10.997 6.52325 10.999 6.51904 11.0007C6.51759 11.0026 6.51632 11.0042 6.51538 11.0055C6.51166 11.0085 6.50535 11.0068 6.50618 11.0074C6.49631 11.0033 6.48506 11.008 6.48096 11.0178ZM7.57925 10.0066C7.57265 10.0067 7.56633 10.0102 7.5629 10.0163C7.55774 10.0255 7.56101 10.0371 7.57016 10.0422C7.57016 10.0422 7.57088 10.0426 7.57226 10.0433C7.57637 10.0459 7.59144 10.0447 7.59233 10.0443C7.60098 10.0435 7.61062 10.0418 7.6232 10.0385C7.6482 10.0322 7.68301 10.0207 7.72491 10.0007C7.76742 9.9817 7.81592 9.95309 7.86897 9.91551C7.92251 9.87838 7.97688 9.82844 8.03259 9.76919C8.14222 9.65007 8.24299 9.47775 8.28977 9.27494C8.31355 9.17401 8.32408 9.06687 8.32203 8.95939C8.31843 8.85203 8.30612 8.74395 8.28112 8.63997C8.25735 8.53565 8.22409 8.43489 8.18501 8.33944C8.14555 8.24411 8.10154 8.15343 8.05282 8.06973C8.00437 7.98593 7.95371 7.90811 7.90372 7.83611C7.85151 7.76555 7.80123 7.70009 7.7524 7.642C7.65369 7.52638 7.56489 7.43703 7.5006 7.37689C7.43575 7.3172 7.39695 7.2851 7.39695 7.2851C7.39085 7.28011 7.38187 7.27901 7.37461 7.28316C7.3653 7.2886 7.36208 7.30051 7.36746 7.30982C7.36746 7.30982 7.3924 7.353 7.43608 7.42855C7.4797 7.5036 7.54272 7.60974 7.61267 7.73828C7.64903 7.80163 7.68528 7.87175 7.72203 7.94602C7.75917 8.01996 7.79752 8.09789 7.83166 8.1802C7.86542 8.26262 7.8994 8.34726 7.9275 8.43461C7.95599 8.52174 7.97977 8.61087 7.99728 8.70011C8.0143 8.78945 8.02505 8.87869 8.02655 8.96599C8.02882 9.05312 8.0235 9.13826 8.01042 9.21902C7.99811 9.29999 7.9781 9.37704 7.9525 9.44843C7.92772 9.52021 7.8964 9.58611 7.86376 9.64592C7.83216 9.70666 7.79492 9.75805 7.76188 9.80466C7.72829 9.85089 7.69481 9.88852 7.66705 9.91995C7.63856 9.95043 7.61472 9.97366 7.5982 9.98807C7.59039 9.9945 7.5844 9.99943 7.58036 10.0028C7.57559 10.0045 7.58607 10.0034 7.58717 10.0066C7.58562 10.0066 7.58479 10.0066 7.58479 10.0066L7.57925 10.0066ZM23.8877 12.6353C23.8815 12.6556 23.8599 12.6671 23.8396 12.6609L23.8389 12.6607C23.8389 12.6607 23.658 12.6053 23.3542 12.4777C23.2034 12.4112 23.0213 12.3271 22.8182 12.2175C22.6142 12.1095 22.3932 11.9701 22.1574 11.8073C21.9238 11.641 21.6855 11.4377 21.4508 11.1996C21.395 11.1369 21.3385 11.0732 21.2813 11.0089L21.2382 10.9602L21.1993 10.9073C21.1733 10.8718 21.1473 10.8361 21.1211 10.8001C21.0949 10.7641 21.0685 10.7279 21.0421 10.6914C21.0189 10.6525 20.9957 10.6133 20.9723 10.5739C20.949 10.5343 20.9257 10.4946 20.9022 10.4547L20.8669 10.3941L20.8368 10.3361C20.6753 10.027 20.5098 9.70301 20.3485 9.37521C20.1852 9.04758 20.0195 8.71579 19.8476 8.39032C19.6786 8.06408 19.5058 7.74027 19.3145 7.44706C19.2205 7.29857 19.1186 7.16261 19.0146 7.03817L18.9348 6.94993L18.9299 6.94439C18.9242 6.93857 18.9349 6.94927 18.9327 6.94705L18.9298 6.94411L18.9179 6.93236L18.8942 6.90881L18.847 6.86186C18.8142 6.82755 18.788 6.80804 18.7593 6.78188C18.7312 6.75705 18.7039 6.73188 18.6718 6.70899C18.5517 6.60917 18.4219 6.53401 18.2929 6.466C18.2258 6.43995 18.1618 6.40575 18.0945 6.3853C18.0267 6.36778 17.9616 6.33929 17.8932 6.33242C17.6241 6.27716 17.3545 6.29844 17.1066 6.35481C16.8623 6.42504 16.6328 6.50702 16.4431 6.61477C16.3954 6.64104 16.3478 6.6646 16.3023 6.68848C16.2796 6.70046 16.2572 6.71215 16.2352 6.72368C16.2143 6.73709 16.1938 6.75023 16.1736 6.76314C16.093 6.81475 16.0189 6.86291 15.9498 6.90437C15.8795 6.94434 15.8253 6.99195 15.7733 7.02731C15.7217 7.06367 15.6779 7.0946 15.6423 7.11971C15.57 7.16948 15.5315 7.19603 15.5315 7.19603L15.53 7.19708C15.5165 7.20634 15.498 7.20634 15.4843 7.19575C15.4674 7.18267 15.4643 7.15829 15.4774 7.14138C15.4774 7.14138 15.5063 7.10413 15.5633 7.03629C15.6209 6.969 15.7012 6.8653 15.8177 6.74585C15.9372 6.62918 16.0813 6.48462 16.2735 6.34428C16.3651 6.26873 16.476 6.20555 16.5918 6.13526C16.6209 6.11781 16.6504 6.10018 16.6802 6.08228C16.7121 6.06742 16.7443 6.05246 16.7769 6.03727C16.8429 6.00828 16.9099 5.9768 16.9804 5.94831C17.2664 5.84494 17.6109 5.78424 17.9751 5.83197C18.067 5.83801 18.1553 5.86761 18.2471 5.88778C18.2934 5.89698 18.3365 5.91588 18.3812 5.93129C18.4256 5.94764 18.4708 5.96327 18.5148 5.98168C18.5574 6.00274 18.6002 6.02391 18.6432 6.0452L18.7078 6.07757L18.7692 6.11498C18.8101 6.14031 18.8512 6.16575 18.8924 6.1913C18.931 6.22001 18.9698 6.24878 19.0087 6.27777C19.0479 6.30554 19.0858 6.33885 19.124 6.37205C19.1608 6.40453 19.204 6.43995 19.2327 6.46966L19.2804 6.51611L19.3043 6.53939L19.3163 6.55102L19.3278 6.56272L19.334 6.5697C19.3669 6.6069 19.4 6.64425 19.4331 6.68172C19.558 6.83381 19.6718 6.99162 19.7722 7.15385C19.9775 7.47744 20.152 7.81377 20.3208 8.15071C20.4852 8.48965 20.6406 8.82975 20.7928 9.1637C20.9468 9.49765 21.0897 9.82578 21.2333 10.1445L21.26 10.2041L21.2875 10.2574C21.3059 10.2932 21.3243 10.3288 21.3426 10.3643C21.3608 10.3998 21.379 10.4352 21.3971 10.4704C21.4188 10.5039 21.4403 10.5372 21.4618 10.5703C21.4832 10.6036 21.5045 10.6367 21.5257 10.6695L21.5572 10.719L21.5925 10.7657C21.6396 10.8281 21.6861 10.8897 21.732 10.9505C21.9284 11.1856 22.1382 11.3911 22.3435 11.5702C22.5508 11.7468 22.7497 11.9018 22.9353 12.0267C23.1179 12.1562 23.2846 12.2596 23.4233 12.3422C23.7006 12.5097 23.8674 12.5893 23.8674 12.5893C23.8844 12.5973 23.8934 12.6168 23.8877 12.6353ZM23.2243 12.7538C23.2246 12.7534 23.2184 12.756 23.2094 12.757C23.2006 12.7573 23.1905 12.7583 23.1697 12.7608C23.1312 12.7652 23.0738 12.7695 23.0014 12.773C22.9289 12.7761 22.8409 12.7772 22.7408 12.7747C22.6406 12.7701 22.5283 12.7649 22.4073 12.7487C22.2865 12.7321 22.1567 12.7122 22.0234 12.6758C21.8903 12.6411 21.7511 12.6002 21.6156 12.5381C21.4795 12.4789 21.3419 12.41 21.2131 12.3225C21.146 12.2828 21.0849 12.2331 21.0213 12.1864C20.9604 12.1362 20.8999 12.0846 20.8426 12.0295C20.7876 11.9719 20.7286 11.9181 20.6791 11.8554L20.6006 11.7655C20.5752 11.7349 20.5526 11.7021 20.5285 11.6707C20.5048 11.6389 20.4812 11.6073 20.4577 11.5758C20.4364 11.5426 20.4153 11.5095 20.3942 11.4767C20.3732 11.4438 20.3523 11.411 20.3316 11.3785C20.3125 11.3448 20.2935 11.3113 20.2748 11.2781C20.2364 11.2121 20.1995 11.1464 20.1691 11.079C20.1381 11.0119 20.1029 10.9484 20.0771 10.8825C20.0493 10.8173 20.0223 10.7539 19.9962 10.6925C19.97 10.631 19.9509 10.5691 19.9291 10.5108C19.8837 10.3947 19.8498 10.2854 19.8201 10.1881C19.8045 10.1395 19.7899 10.0941 19.7763 10.052C19.7647 10.0094 19.7541 9.97028 19.7445 9.93491C19.7038 9.7933 19.6805 9.71232 19.6805 9.71232L19.6802 9.71143C19.6773 9.70118 19.6667 9.6953 19.6564 9.69824C19.6474 9.70085 19.6417 9.70944 19.6425 9.71847C19.6425 9.71847 19.6501 9.80294 19.6633 9.95071C19.6672 9.98774 19.6715 10.0287 19.6762 10.0733C19.6832 10.1175 19.6908 10.1654 19.6989 10.2166C19.716 10.3189 19.7346 10.4349 19.7665 10.5593C19.7825 10.6214 19.7956 10.6872 19.8159 10.7535C19.8363 10.82 19.8574 10.8887 19.8791 10.9593C19.9 11.0304 19.9323 11.0997 19.9595 11.1728C19.9864 11.2462 20.0199 11.3187 20.0555 11.392C20.073 11.4289 20.0906 11.466 20.1084 11.5035C20.1291 11.5395 20.1499 11.5758 20.1709 11.6123C20.1921 11.6487 20.2133 11.6854 20.2347 11.7223C20.2587 11.7578 20.2827 11.7934 20.3068 11.8292C20.4009 11.9742 20.5166 12.1092 20.641 12.2353C20.7038 12.2976 20.7707 12.3565 20.8382 12.4137C20.9087 12.4674 20.9767 12.5241 21.0517 12.57C21.1977 12.6678 21.3547 12.7428 21.5101 12.8026C21.6661 12.8623 21.8236 12.8977 21.9723 12.9256C22.1222 12.9486 22.2649 12.9569 22.3958 12.9574C22.527 12.9537 22.6462 12.9452 22.7507 12.9284C22.855 12.9109 22.9449 12.8929 23.0175 12.871C23.0903 12.8508 23.1462 12.8307 23.184 12.815C23.2015 12.8082 23.2202 12.7999 23.2309 12.7944C23.2412 12.7889 23.2444 12.7863 23.2448 12.7863C23.2532 12.7799 23.255 12.7678 23.2486 12.7593C23.2434 12.7524 23.2343 12.75 23.2266 12.7528L23.2243 12.7538ZM20.7691 12.5165C20.7696 12.5159 20.7633 12.5185 20.7565 12.5176C20.7535 12.5172 20.7499 12.5166 20.7455 12.516C20.7393 12.5157 20.7321 12.5154 20.7239 12.5152C20.6908 12.5132 20.6418 12.5093 20.5803 12.5001C20.519 12.4897 20.445 12.478 20.3626 12.455C20.2806 12.4312 20.1884 12.4064 20.0941 12.3638C19.9993 12.3233 19.899 12.2757 19.8016 12.2115C19.704 12.1481 19.6054 12.0756 19.513 11.9891C19.4675 11.9454 19.4206 11.9013 19.3781 11.8516C19.3565 11.8271 19.3347 11.8025 19.3129 11.7778C19.292 11.7522 19.2725 11.725 19.2519 11.6986C19.2089 11.6475 19.1739 11.5888 19.1347 11.5332C19.0985 11.4753 19.0645 11.4153 19.0308 11.3552C18.9683 11.232 18.91 11.1058 18.8597 10.9774C18.8367 10.9123 18.8105 10.849 18.7906 10.784C18.7712 10.7188 18.7512 10.6546 18.7305 10.5915C18.6967 10.463 18.662 10.3388 18.639 10.2181C18.6093 10.0988 18.5909 9.98358 18.5717 9.87738C18.5499 9.77151 18.5394 9.67274 18.525 9.58572C18.5101 9.49865 18.5012 9.4221 18.4934 9.35897C18.4755 9.23254 18.4653 9.16032 18.4653 9.16032L18.4652 9.15954C18.4637 9.14901 18.454 9.14164 18.4434 9.14314C18.4343 9.14441 18.4275 9.15189 18.4269 9.16071C18.4269 9.16071 18.421 9.23387 18.4108 9.3618C18.4071 9.42593 18.4002 9.50397 18.4007 9.59354C18.4019 9.68305 18.396 9.78465 18.403 9.89512C18.4093 10.0056 18.4139 10.1258 18.4294 10.2525C18.4413 10.3795 18.4668 10.5121 18.4904 10.6501C18.5196 10.7874 18.5568 10.9279 18.6031 11.0692C18.6241 11.1404 18.6543 11.2097 18.6799 11.2807C18.7074 11.3511 18.7434 11.4188 18.7751 11.488C18.8111 11.5554 18.8478 11.6228 18.8874 11.6883C18.9302 11.752 18.9684 11.8183 19.0168 11.8776C19.107 12.0005 19.2151 12.1077 19.3254 12.2033C19.4377 12.2976 19.5585 12.3732 19.6775 12.4342C19.7982 12.4926 19.9179 12.5341 20.0298 12.5627C20.2555 12.6164 20.4483 12.616 20.5795 12.5994C20.6453 12.5924 20.6963 12.5803 20.7309 12.5709C20.7396 12.5684 20.7473 12.5662 20.754 12.5643C20.7628 12.5615 20.7698 12.5588 20.7753 12.5566C20.7857 12.5521 20.7875 12.55 20.7881 12.55L20.7885 12.5497C20.7967 12.5427 20.7975 12.5303 20.7905 12.5221C20.785 12.5159 20.7764 12.5139 20.7691 12.5165ZM18.9011 11.9059C18.9017 11.9054 18.8954 11.9073 18.8901 11.905C18.8881 11.9039 18.8857 11.9026 18.8828 11.901C18.8777 11.8998 18.8718 11.8983 18.8651 11.8965C18.8372 11.8892 18.7958 11.877 18.7447 11.8582C18.6938 11.8388 18.6324 11.8153 18.5658 11.7815C18.4994 11.7476 18.425 11.7099 18.3516 11.6575C18.278 11.6065 18.2003 11.5493 18.1289 11.4781C18.0572 11.4077 17.9852 11.3302 17.9243 11.2397C17.8628 11.15 17.8041 11.0533 17.759 10.9467C17.7329 10.8952 17.7151 10.839 17.6938 10.7842C17.6751 10.7283 17.6592 10.6707 17.6426 10.6135C17.615 10.4969 17.592 10.3783 17.5774 10.2591C17.5722 10.1992 17.563 10.1402 17.5609 10.0809C17.5589 10.0216 17.5555 9.96307 17.5523 9.90515C17.5514 9.78909 17.5499 9.67635 17.557 9.56898C17.5578 9.46134 17.5683 9.35963 17.5752 9.2653C17.5803 9.17068 17.5929 9.08449 17.5999 9.00734C17.6064 8.93002 17.6158 8.86301 17.623 8.80763C17.6364 8.69661 17.6424 8.63226 17.6424 8.63226L17.6425 8.63149C17.6435 8.62084 17.6356 8.61142 17.6249 8.61042C17.6162 8.60959 17.6083 8.61475 17.6052 8.62251C17.6052 8.62251 17.5813 8.68231 17.5425 8.78862C17.5241 8.842 17.499 8.9063 17.4779 8.98223C17.4575 9.05828 17.4284 9.14302 17.4077 9.23819C17.3872 9.33342 17.362 9.43635 17.3456 9.5477C17.3261 9.65839 17.3165 9.77706 17.3051 9.90022C17.2979 10.0239 17.2979 10.1524 17.3058 10.2837C17.3073 10.3493 17.3184 10.4155 17.3245 10.4821C17.3322 10.5486 17.3485 10.6147 17.3604 10.6813C17.3919 10.8134 17.4327 10.9446 17.4895 11.0683C17.5435 11.1929 17.6167 11.3077 17.6964 11.4108C17.7763 11.5144 17.8707 11.6003 17.9645 11.6732C18.0591 11.7459 18.1583 11.7998 18.2519 11.8413C18.4406 11.9233 18.6088 11.951 18.7256 11.9557C18.784 11.9592 18.8302 11.9562 18.8619 11.9526C18.8702 11.9516 18.8775 11.9507 18.8838 11.9499C18.8927 11.9486 18.8999 11.9468 18.9053 11.9454C18.9153 11.9423 18.9166 11.9407 18.9173 11.9407C18.9269 11.9362 18.9311 11.9248 18.9266 11.9152C18.9222 11.9056 18.9107 11.9014 18.9011 11.9059ZM17.439 11.0074C17.4398 11.0068 17.4335 11.0087 17.4298 11.0055C17.4288 11.0043 17.4276 11.0027 17.4262 11.0008C17.422 10.999 17.4171 10.997 17.4116 10.9947C17.3887 10.9848 17.3548 10.9689 17.3138 10.9456C17.2733 10.9211 17.2241 10.893 17.173 10.8536C17.1223 10.814 17.0661 10.7701 17.0134 10.7141C16.9606 10.6584 16.9087 10.5951 16.8622 10.5233C16.8148 10.4522 16.7763 10.3704 16.7429 10.2839C16.7081 10.1977 16.6873 10.102 16.668 10.0047C16.653 9.90576 16.6427 9.80361 16.6434 9.69918L16.6429 9.62103L16.6476 9.54243C16.6485 9.49006 16.6534 9.43768 16.6596 9.38557C16.6642 9.33347 16.6709 9.2817 16.6804 9.23071C16.6894 9.17972 16.6958 9.12889 16.7064 9.07923C16.7162 9.02934 16.7259 8.98029 16.7353 8.93235C16.7471 8.88457 16.7587 8.83784 16.7699 8.79234C16.7888 8.70011 16.8167 8.61508 16.8373 8.53493C16.8589 8.45501 16.8819 8.38234 16.9007 8.31727C16.9185 8.25175 16.9377 8.19572 16.9521 8.14899C16.9807 8.05532 16.9955 8.00067 16.9955 8.00067L16.9957 8C16.9985 7.98964 16.9923 7.97894 16.982 7.97617C16.9737 7.97395 16.9653 7.97739 16.9608 7.98404C16.9608 7.98404 16.9293 8.03088 16.8767 8.11485C16.8517 8.15742 16.8177 8.20758 16.7859 8.26877C16.7543 8.32996 16.7154 8.39786 16.6785 8.47468C16.6446 8.55284 16.6023 8.63542 16.5676 8.72749C16.5503 8.77355 16.5326 8.82088 16.5145 8.86927C16.4987 8.91877 16.4826 8.96932 16.4662 9.0207C16.4482 9.07175 16.4368 9.12595 16.4239 9.18033C16.41 9.23448 16.3987 9.29018 16.3897 9.34716C16.379 9.4037 16.3698 9.46107 16.3645 9.51976L16.356 9.60767L16.3533 9.6968C16.3476 9.81564 16.36 9.93636 16.3767 10.0546C16.4003 10.1724 16.4301 10.2883 16.4801 10.394C16.5294 10.4992 16.5886 10.5964 16.6588 10.6771C16.729 10.7576 16.8048 10.8242 16.8807 10.8757C16.9578 10.9255 17.0316 10.9641 17.1003 10.9895C17.1685 11.0156 17.2301 11.031 17.2814 11.0394C17.3324 11.0489 17.3735 11.0503 17.402 11.0501C17.4094 11.0499 17.4159 11.0497 17.4216 11.0496C17.4304 11.0492 17.4376 11.0479 17.4429 11.0468C17.4527 11.0443 17.4531 11.0429 17.4539 11.043C17.4638 11.0389 17.4684 11.0276 17.4644 11.0179C17.4601 11.008 17.4488 11.0033 17.439 11.0074ZM16.3604 10.0066C16.3604 10.0066 16.3596 10.0066 16.358 10.0066C16.3591 10.0035 16.3696 10.0045 16.3649 10.0029C16.3608 9.99954 16.3548 9.99461 16.347 9.98812C16.3305 9.97371 16.3067 9.95043 16.2782 9.92C16.2504 9.88858 16.2169 9.85094 16.1833 9.80472C16.1503 9.75805 16.1131 9.70672 16.0815 9.64597C16.0488 9.58617 16.0175 9.52026 15.9927 9.44848C15.9671 9.37709 15.9471 9.30005 15.9348 9.21907C15.9217 9.13831 15.9164 9.05318 15.9187 8.96605C15.9202 8.87875 15.9309 8.78951 15.9479 8.70016C15.9654 8.61098 15.9892 8.5218 16.0177 8.43466C16.0458 8.34737 16.0797 8.26267 16.1135 8.18025C16.1477 8.09794 16.186 8.02001 16.2232 7.94607C16.2599 7.8718 16.2962 7.80169 16.3325 7.73833C16.4024 7.6098 16.4655 7.50365 16.5091 7.4286C16.5528 7.35306 16.5778 7.30988 16.5778 7.30988C16.5831 7.30057 16.58 7.2886 16.5706 7.28322C16.5633 7.27906 16.5544 7.28017 16.5483 7.28516C16.5483 7.28516 16.5095 7.31725 16.4446 7.37695C16.3803 7.43714 16.2915 7.52643 16.1928 7.64205C16.144 7.7002 16.0937 7.7656 16.0415 7.83616C15.9915 7.90816 15.9409 7.98604 15.8924 8.06979C15.8437 8.15343 15.7997 8.24416 15.7602 8.3395C15.7211 8.43494 15.6879 8.53571 15.6641 8.64002C15.6391 8.744 15.6268 8.85209 15.6232 8.95945C15.6211 9.06692 15.6317 9.17406 15.6554 9.275C15.7022 9.47786 15.8029 9.65018 15.9126 9.76924C15.9683 9.82849 16.0227 9.87838 16.0762 9.91557C16.1293 9.95315 16.1778 9.98175 16.2203 10.0008C16.2622 10.0207 16.297 10.0322 16.322 10.0385C16.3346 10.0418 16.3442 10.0436 16.3529 10.0444C16.3538 10.0448 16.3688 10.046 16.3729 10.0434C16.3743 10.0426 16.3751 10.0422 16.3751 10.0422C16.3842 10.0371 16.3875 10.0255 16.3823 10.0164C16.3789 10.0102 16.3725 10.0067 16.366 10.0067L16.3604 10.0066Z" fill="#F7931B"/>
<path d="M11.9727 17.8876C11.8176 17.8876 11.6706 17.8285 11.5587 17.7211L9.41219 15.6607C8.56155 14.8442 7.68198 13.9998 7.03436 13.002C6.51889 12.2079 5.94749 10.9782 6.15268 9.63008C6.3454 8.36373 7.26611 7.28578 8.44377 6.94762C8.68377 6.87872 8.93801 6.84375 9.19946 6.84375C9.79475 6.84375 10.3791 7.022 10.845 7.34564C11.3643 7.70631 11.7659 8.32028 11.9727 8.68255C12.1794 8.32028 12.581 7.70631 13.1003 7.34564C13.5662 7.022 14.1506 6.84375 14.7458 6.84375C15.0073 6.84375 15.2615 6.87872 15.5015 6.94762C16.6792 7.28578 17.5999 8.36373 17.7926 9.63008C17.9979 10.9781 17.4265 12.2078 16.9109 13.002C16.2633 13.9998 15.3837 14.8441 14.5331 15.6607L12.3866 17.7211C12.2747 17.8285 12.1277 17.8876 11.9727 17.8876Z" fill="#F7931B"/>
<path d="M14.7458 7.01426C14.9862 7.01426 15.2259 7.04586 15.4545 7.11148C16.6349 7.45036 17.4528 8.52926 17.6243 9.65592C17.7958 10.7826 17.4021 11.9328 16.7681 12.9096C16.1341 13.8863 15.2708 14.7168 14.4151 15.5381L12.2687 17.5985C12.186 17.6779 12.0793 17.7176 11.9726 17.7176C11.866 17.7176 11.7593 17.6779 11.6766 17.5985L9.5301 15.5381C8.67447 14.7168 7.81114 13.8863 7.1771 12.9096C6.54307 11.9328 6.14937 10.7826 6.32092 9.65592C6.49241 8.52926 7.3103 7.45036 8.49067 7.11148C8.71931 7.04586 8.95892 7.01426 9.19937 7.01426C9.75237 7.01426 10.3097 7.18138 10.7478 7.48567C11.4735 7.98978 11.9726 9.046 11.9726 9.046C11.9726 9.046 12.4716 7.98984 13.1973 7.48573C13.6354 7.18138 14.1928 7.01426 14.7458 7.01426ZM14.7458 6.67383C14.1162 6.67383 13.4973 6.86284 13.0031 7.2061C12.5642 7.51095 12.2072 7.98452 11.9726 8.35383C11.7379 7.98452 11.3809 7.51095 10.9421 7.2061C10.4479 6.86289 9.82897 6.67383 9.19931 6.67383C8.92201 6.67383 8.65197 6.71096 8.39667 6.78429C7.15632 7.14041 6.18679 8.27385 5.98426 9.60471C5.77097 11.0057 6.35989 12.276 6.89149 13.095C7.55007 14.1096 8.4368 14.9607 9.29426 15.7838L11.4407 17.8442C11.5845 17.9822 11.7733 18.0581 11.9726 18.0581C12.1718 18.0581 12.3606 17.9822 12.5043 17.8442L14.6509 15.7838C15.5084 14.9606 16.3951 14.1095 17.0536 13.095C17.5852 12.276 18.1741 11.0057 17.9609 9.60471C17.7583 8.27379 16.7888 7.14036 15.5484 6.78429C15.2931 6.71096 15.0231 6.67383 14.7458 6.67383Z" fill="white"/>
<path d="M16.9912 10.416C16.9859 10.4627 16.9438 10.4962 16.8971 10.491C16.8504 10.4857 16.8168 10.4436 16.822 10.3968C16.851 10.14 16.848 9.88759 16.8104 9.64056C16.778 9.42749 16.7139 9.21745 16.6212 9.01762C16.5302 8.82157 16.4127 8.63749 16.2736 8.47274C16.1347 8.30819 15.9758 8.1648 15.8033 8.04855C15.6281 7.93045 15.4406 7.84169 15.2472 7.78612C15.2104 7.77555 15.1727 7.76623 15.1343 7.7582C15.0958 7.75016 15.0568 7.74348 15.0174 7.73816C14.9781 7.73281 14.9379 7.72877 14.897 7.72606C14.8561 7.72334 14.8149 7.72197 14.7735 7.72197C14.6784 7.72197 14.5822 7.7292 14.4866 7.74344C14.3918 7.75754 14.2981 7.77851 14.207 7.80593C14.1159 7.83337 14.0281 7.86703 13.945 7.90639C13.8612 7.94608 13.7827 7.99127 13.7106 8.04133C13.6092 8.11177 13.5049 8.20701 13.3993 8.32353C13.3052 8.42751 13.2118 8.54658 13.1212 8.67617C13.0942 8.71469 13.0412 8.72409 13.0027 8.69716C12.9641 8.67023 12.9547 8.61717 12.9817 8.57864C13.0761 8.44352 13.1738 8.31892 13.2731 8.20927C13.3868 8.08378 13.5004 7.98005 13.6135 7.90154C13.6933 7.84605 13.78 7.79619 13.8721 7.75256C13.963 7.70952 14.0588 7.67281 14.1579 7.64295C14.2569 7.61315 14.3586 7.59039 14.4615 7.57508C14.5654 7.55961 14.6699 7.55176 14.7735 7.55176C14.8186 7.55176 14.8637 7.55325 14.9083 7.55621C14.953 7.55919 14.9971 7.56361 15.0402 7.56948C15.0836 7.57533 15.1266 7.5827 15.1691 7.59158C15.2116 7.60047 15.2534 7.61079 15.2942 7.62252C15.505 7.68311 15.7087 7.77952 15.8984 7.90739C16.0842 8.03252 16.2547 8.1865 16.4037 8.36294C16.5525 8.53925 16.6782 8.73616 16.7756 8.946C16.875 9.16025 16.9438 9.38576 16.9787 9.61495C17.0186 9.87721 17.0218 10.1446 16.9912 10.416Z" fill="white"/>
<path d="M13.4099 15.5401L13.896 15.0735C14.0232 14.9514 14.0755 14.9011 14.1442 14.8349C14.2856 14.6986 14.4034 14.584 14.5154 14.4734C14.7406 14.2514 14.9362 14.0517 15.1173 13.8579C15.3228 13.6377 15.5073 13.4273 15.6749 13.22C15.7045 13.1835 15.7581 13.1778 15.7946 13.2074C15.8312 13.2369 15.8368 13.2905 15.8073 13.3271C15.6369 13.5376 15.4499 13.7511 15.2417 13.974C15.0588 14.1698 14.8616 14.371 14.635 14.5946C14.5224 14.7057 14.4041 14.8207 14.2623 14.9574C14.1935 15.0237 14.1411 15.0741 14.0138 15.1963L12.0695 17.0627C12.0365 17.0943 11.9845 17.0943 11.9516 17.0626L10.0074 15.1963C9.69773 14.899 9.55801 14.764 9.3863 14.5946C9.15962 14.371 8.96241 14.1698 8.77959 13.974C8.57114 13.7508 8.38413 13.5374 8.21399 13.3271C8.02793 13.0972 7.86246 12.8714 7.71629 12.6462C7.59669 12.462 7.48621 12.271 7.38759 12.0746C7.27527 11.8509 7.18035 11.6239 7.10561 11.3949C7.02262 11.1406 6.96542 10.8866 6.93688 10.6341C6.90574 10.3584 6.90903 10.0866 6.94962 9.81997C6.98513 9.58692 7.05504 9.35775 7.15597 9.14013C7.25476 8.92701 7.38253 8.72691 7.53391 8.54753C7.68521 8.36823 7.85857 8.21174 8.04735 8.08454C8.24025 7.95456 8.44725 7.85657 8.66151 7.79505C8.70318 7.78312 8.74552 7.77265 8.78854 7.76364C8.83151 7.75464 8.87521 7.74714 8.91952 7.74115C8.96381 7.73516 9.00857 7.73066 9.05365 7.72766C9.09888 7.72465 9.14455 7.72314 9.19066 7.72314C9.23766 7.72314 9.27576 7.76125 9.27576 7.80825C9.27576 7.85526 9.23766 7.89336 9.19066 7.89336C9.1483 7.89336 9.1064 7.89474 9.06495 7.8975C9.02372 7.90024 8.98279 7.90436 8.94232 7.90983C8.90204 7.91528 8.86238 7.92209 8.82344 7.93024C8.78442 7.93841 8.74607 7.9479 8.70842 7.95868C8.51168 8.01516 8.32086 8.10549 8.14247 8.2257C7.96688 8.34402 7.80526 8.48991 7.66399 8.6573C7.52236 8.82514 7.40279 9.0124 7.3104 9.21173C7.21614 9.41495 7.15095 9.62866 7.1179 9.8456C7.07963 10.097 7.07652 10.3538 7.10602 10.615C7.13322 10.8556 7.18789 11.0984 7.26742 11.3421C7.33942 11.5627 7.43108 11.7818 7.53971 11.9982C7.63541 12.1888 7.74276 12.3744 7.85907 12.5535C8.00185 12.7735 8.16385 12.9946 8.34632 13.2201C8.51377 13.427 8.69817 13.6374 8.904 13.8579C9.08507 14.0517 9.28069 14.2514 9.50583 14.4734C9.67681 14.6421 9.81616 14.7767 10.1253 15.0735L12.0105 16.8833L13.4099 15.5401Z" fill="white"/>
<path d="M13.4912 10.9512C13.5158 10.9512 13.5387 10.9573 13.5598 10.9697C13.581 10.982 13.5975 10.9984 13.6096 11.0189C13.6216 11.0393 13.6276 11.06 13.6276 11.0808C13.6276 11.0951 13.6256 11.1105 13.6217 11.127C13.6178 11.1436 13.613 11.1598 13.6071 11.1758C13.6013 11.1917 13.5954 11.2081 13.5895 11.225L13.2437 12.1583C13.2313 12.1941 13.219 12.228 13.2067 12.2601C13.1943 12.2923 13.18 12.3206 13.1638 12.3449C13.1476 12.3693 13.126 12.3893 13.099 12.4049C13.072 12.4205 13.0391 12.4283 13.0001 12.4283C12.9612 12.4283 12.9282 12.4206 12.9012 12.4053C12.8743 12.39 12.8525 12.3699 12.836 12.3449C12.8194 12.3199 12.8049 12.2915 12.7926 12.2597C12.7803 12.2278 12.7679 12.1941 12.7556 12.1583L12.4155 11.2327C12.4097 11.2159 12.4037 11.1993 12.3975 11.1831C12.3914 11.1668 12.3861 11.1493 12.3819 11.1304C12.3777 11.1116 12.3756 11.0957 12.3756 11.0827C12.3756 11.0496 12.3889 11.0194 12.4155 10.9921C12.4421 10.9648 12.4756 10.9512 12.5159 10.9512C12.5652 10.9512 12.6002 10.9663 12.6206 10.9965C12.6411 11.0267 12.662 11.0749 12.6835 11.1412L13.007 12.0989L13.3314 11.1344C13.3483 11.0837 13.3609 11.0485 13.3694 11.0287C13.3778 11.0088 13.3918 10.991 13.4113 10.9751C13.4308 10.9591 13.4574 10.9512 13.4912 10.9512ZM12.0024 10.9512C12.0459 10.9512 12.0812 10.9656 12.1081 10.9945C12.1351 11.0234 12.1485 11.0675 12.1485 11.1265V12.2519C12.1485 12.311 12.1351 12.3551 12.1081 12.3844C12.0812 12.4136 12.0459 12.4283 12.0024 12.4283C11.9609 12.4283 11.9266 12.4135 11.8996 12.3839C11.8727 12.3543 11.8592 12.3103 11.8592 12.2519V11.1265C11.8592 11.0681 11.8725 11.0242 11.8991 10.995C11.9258 10.9658 11.9602 10.9512 12.0024 10.9512ZM10.9531 10.9512C11.0492 10.9512 11.1343 10.964 11.2083 10.9896C11.2824 11.0153 11.3425 11.0476 11.3886 11.0866C11.4347 11.1256 11.4695 11.1668 11.4928 11.2103C11.5162 11.2539 11.5279 11.2925 11.5279 11.3263C11.5279 11.3627 11.5145 11.3937 11.4875 11.4193C11.4605 11.445 11.4282 11.4578 11.3906 11.4578C11.3698 11.4578 11.3498 11.453 11.3307 11.4432C11.3115 11.4334 11.2954 11.4198 11.2824 11.4023C11.2467 11.3464 11.2165 11.3042 11.1918 11.2756C11.1671 11.247 11.1338 11.223 11.0919 11.2035C11.05 11.184 10.9966 11.1743 10.9316 11.1743C10.8648 11.1743 10.805 11.1858 10.7524 11.2089C10.6998 11.232 10.6548 11.2654 10.6174 11.3092C10.5801 11.3531 10.5515 11.4068 10.5317 11.4705C10.5119 11.5341 10.502 11.6046 10.502 11.6819C10.502 11.8495 10.5405 11.9784 10.6174 12.0687C10.6944 12.159 10.8017 12.2042 10.9395 12.2042C11.0063 12.2042 11.0692 12.1954 11.128 12.1778C11.1868 12.1603 11.2464 12.1353 11.3068 12.1028V11.8709H11.0827C11.0288 11.8709 10.988 11.8628 10.9604 11.8465C10.9328 11.8303 10.919 11.8027 10.919 11.7637C10.919 11.7319 10.9305 11.7056 10.9536 11.6848C10.9767 11.664 11.008 11.6537 11.0476 11.6537H11.3759C11.4162 11.6537 11.4503 11.6572 11.4783 11.6644C11.5062 11.6715 11.5287 11.6874 11.5459 11.7121C11.5632 11.7368 11.5718 11.7738 11.5718 11.8232V12.097C11.5718 12.1333 11.5682 12.1624 11.5611 12.1842C11.5539 12.2059 11.5408 12.2256 11.5216 12.2431C11.5024 12.2606 11.4779 12.2775 11.4481 12.2938C11.3617 12.3405 11.2785 12.3746 11.1986 12.396C11.1187 12.4175 11.0317 12.4283 10.9375 12.4283C10.8277 12.4283 10.7277 12.4113 10.6374 12.3775C10.5471 12.3438 10.4702 12.2947 10.4065 12.2304C10.3429 12.1661 10.294 12.0882 10.2599 11.9966C10.2258 11.905 10.2087 11.8027 10.2087 11.6897C10.2087 11.5786 10.2253 11.477 10.2584 11.3847C10.2915 11.2925 10.3403 11.2142 10.4046 11.1499C10.4689 11.0856 10.5471 11.0364 10.6394 11.0023C10.7316 10.9682 10.8362 10.9512 10.9531 10.9512ZM14.786 10.9755C14.8321 10.9755 14.8664 10.9858 14.8888 11.0062C14.9112 11.0267 14.9224 11.0535 14.9224 11.0866C14.9224 11.1204 14.9112 11.1475 14.8888 11.1679C14.8664 11.1884 14.8321 11.1987 14.786 11.1987H14.1342V11.5494H14.7344C14.7786 11.5494 14.8115 11.5593 14.8333 11.5791C14.855 11.5989 14.8659 11.6251 14.8659 11.6575C14.8659 11.69 14.8552 11.7165 14.8338 11.737C14.8123 11.7574 14.7792 11.7677 14.7344 11.7677L14.1342 11.7676V12.174H14.8084C14.8539 12.174 14.8882 12.1845 14.9112 12.2056C14.9343 12.2267 14.9458 12.2548 14.9458 12.2899C14.9458 12.3236 14.9343 12.3511 14.9112 12.3722C14.8882 12.3933 14.8539 12.4039 14.8084 12.4039H14.0222C13.9592 12.4039 13.9139 12.3899 13.8862 12.362C13.8586 12.334 13.8448 12.2889 13.8448 12.2266V11.1529C13.8448 11.1113 13.851 11.0774 13.8634 11.0511C13.8757 11.0247 13.895 11.0056 13.9213 10.9936C13.9476 10.9816 13.9813 10.9756 14.0222 10.9756L14.786 10.9755ZM9.52767 10.9667C9.62707 10.9667 9.71184 10.9823 9.78197 11.0135C9.82746 11.0343 9.8674 11.0629 9.90181 11.0993C9.93625 11.1356 9.96303 11.1777 9.98218 11.2254C10.0014 11.2732 10.0109 11.3227 10.0109 11.374C10.0109 11.4546 9.99097 11.5278 9.95103 11.5937C9.91108 11.6597 9.87032 11.7113 9.82875 11.7487C9.78718 11.786 9.71751 11.8446 9.61974 11.9245C9.522 12.0044 9.45493 12.0664 9.41854 12.1106C9.40298 12.1282 9.38707 12.1493 9.37081 12.174H9.87941C9.93007 12.174 9.96873 12.1843 9.99537 12.2051C10.022 12.2259 10.0353 12.2542 10.0353 12.2899C10.0353 12.3217 10.0247 12.3487 10.0036 12.3707C9.98253 12.3928 9.95055 12.4039 9.90768 12.4039H9.19056C9.14186 12.4039 9.10388 12.3904 9.07661 12.3635C9.0493 12.3365 9.03564 12.3048 9.03564 12.2685C9.03564 12.2451 9.04442 12.214 9.06197 12.1754C9.07949 12.1367 9.09865 12.1064 9.11945 12.0843C9.20584 11.9947 9.28379 11.9179 9.3533 11.8539C9.4228 11.7899 9.47249 11.7478 9.50234 11.7277C9.55563 11.69 9.59997 11.6522 9.63537 11.6142C9.67077 11.5762 9.69772 11.5372 9.71624 11.4973C9.73475 11.4574 9.744 11.4182 9.744 11.3798C9.744 11.3383 9.73408 11.3011 9.71424 11.2683C9.69443 11.2355 9.66748 11.21 9.63337 11.1918C9.5993 11.1737 9.56213 11.1646 9.52185 11.1646C9.43675 11.1646 9.36985 11.2019 9.32115 11.2766C9.31465 11.2863 9.30376 11.313 9.2885 11.3565C9.27324 11.4 9.25602 11.4334 9.23685 11.4568C9.2177 11.4802 9.18962 11.4919 9.1526 11.4919C9.12012 11.4919 9.09316 11.4812 9.07173 11.4598C9.0503 11.4383 9.03958 11.4091 9.03958 11.3721C9.03958 11.3273 9.04963 11.2805 9.06973 11.2318C9.08987 11.1831 9.11991 11.1389 9.15986 11.0993C9.19984 11.0597 9.25052 11.0277 9.31189 11.0033C9.37327 10.9789 9.4452 10.9667 9.52767 10.9667Z" fill="white"/>
</svg>
