<svg width="24" height="24" fill="none" xmlns="http://www.w3.org/2000/svg"><path d="M12 24c6.627 0 12-5.373 12-12S18.627 0 12 0 0 5.373 0 12s5.373 12 12 12Z" fill="#102044"/><path d="M18.186 14.512a.862.862 0 0 1-.291 1.676.879.879 0 0 1-.433-.106l-4.523 2.468a.87.87 0 0 1-.851.95.87.87 0 0 1-.891-.848L8.992 17.39h-.05v-.027l-2.324-1.328a.865.865 0 0 1-.493.153.87.87 0 0 1-.866-.745.866.866 0 0 1 .624-.953V9.528a.868.868 0 0 1-.63-.76.865.865 0 0 1 .494-.853.877.877 0 0 1 .979.155l4.478-2.565a.87.87 0 0 1 1.539-.684.87.87 0 0 1 .176.728l4.37 2.504a.867.867 0 0 1 .585-.223.865.865 0 1 1 .312 1.675v5.008Zm-3.088-1.953v4.262l2.004-1.093a.871.871 0 0 1 .597-1.255V9.545a.87.87 0 0 1-.668-1.086l-1.9-1.089v3.963h-.003l-.007.26-.107.05-.685.41.654.39.105.049.003.046.004.02h.002Zm-3.03-6.327a.873.873 0 0 1-.652-.29L9.428 7.08v4.209l.816.486 1.03-.606a.768.768 0 0 1 .76-.913.769.769 0 0 1 .762.883l1.064.633.789-.473V7.094l-1.96-1.123a.868.868 0 0 1-.621.26Zm.51 6.316.812-.489-.816-.486a.776.776 0 0 1-1.064.017l-.802.466.799.476a.776.776 0 0 1 1.07.016Zm-5.646 3.11 2.01 1.153v-4.12l.003-.132.034-.034.168-.1.624-.366-.564-.333-.262-.133v-.16h-.003V7.357l-1.97 1.13c.116.45-.15.91-.6 1.038v4.968a.873.873 0 0 1 .542.458c.107.223.114.48.018.707Zm5.136 2.095c.273 0 .53.128.694.347l1.852-1.013v-4.302l-.754-.45-1.065.64a.769.769 0 0 1-1.087.807.768.768 0 0 1-.433-.83l-1.044-.62-.806.47v4.285l1.894 1.085a.87.87 0 0 1 .748-.419Z" fill="#fff"/></svg>