<svg width="24" height="24" fill="none" xmlns="http://www.w3.org/2000/svg"><path d="M12 24c6.627 0 12-5.373 12-12S18.627 0 12 0 0 5.373 0 12s5.373 12 12 12Z" fill="#00B098"/><path d="M4.5 9.293v-.267h6.313v.267H4.5Zm0-.776V8.25h6.313v.267H4.5Zm2.662 7.98v-6.67h.254v6.67h-.254Zm.736 0v-6.67h.252v6.67h-.253Zm11.424-.546-2.849-3.01.178-.188 2.849 3.009-.178.189ZM12.389 8.25l2.849 3.01-.179.188-2.848-3.009.178-.189Zm6.413 8.25-2.849-3.01.179-.189 2.848 3.01-.178.189ZM11.87 8.799l2.849 3.009-.18.189-2.848-3.009.18-.189Zm4.066 3.576.18-.189 3.206-3.387.178.189-3.206 3.387-.179.189-.34.36-.18.189L12.39 16.5l-.179-.189 3.207-3.387.178-.189.34-.36Zm-.34-.738 3.206-3.387.179.189-3.206 3.387-.179.189-.34.36-.18.189-3.205 3.387-.18-.189 3.207-3.387.178-.189.342-.36.178-.189Z" fill="#fff"/></svg>