<svg width="24" height="24" viewBox="0 0 24 24" fill="none" xmlns="http://www.w3.org/2000/svg">
<path d="M12 24C18.6274 24 24 18.6274 24 12C24 5.37258 18.6274 0 12 0C5.37258 0 0 5.37258 0 12C0 18.6274 5.37258 24 12 24Z" fill="#610089"/>
<path fill-rule="evenodd" clip-rule="evenodd" d="M12.3676 3.75213C16.2151 3.95913 19.3291 6.62913 20.0933 10.4031C20.1938 10.9011 20.2208 11.4164 20.2486 11.9256C20.2733 12.3756 19.9801 12.6794 19.5743 12.6786C19.1768 12.6786 18.9166 12.3906 18.9068 11.9436C18.8341 8.65338 16.6118 5.93988 13.4033 5.25363C12.9233 5.15163 12.4223 5.15013 11.9318 5.09463C11.5583 5.05263 11.3108 4.76538 11.3213 4.40088C11.3318 4.04013 11.6018 3.77163 11.9783 3.75288C12.1081 3.74688 12.2378 3.75213 12.3676 3.75213ZM11.6491 20.2499C7.95683 20.1389 4.63583 17.3399 3.93533 13.7159C3.82883 13.1609 3.78833 12.5916 3.75158 12.0269C3.72908 11.6819 3.94883 11.4344 4.26908 11.3519C4.53458 11.2829 4.84358 11.3961 4.97858 11.6489C5.04608 11.7771 5.07833 11.9391 5.08133 12.0869C5.13608 15.2399 7.26833 17.9534 10.3283 18.7079C10.8803 18.8444 11.4623 18.8661 12.0323 18.9269C12.3578 18.9606 12.6188 19.1819 12.6623 19.4991C12.7036 19.7991 12.5146 20.1344 12.2273 20.2056C12.0421 20.2514 11.8418 20.2371 11.6491 20.2499ZM11.9881 8.99763C13.6208 8.99238 14.9918 10.3311 15.0031 11.9414C15.0068 12.4964 14.4983 12.8459 14.0281 12.6066C13.7731 12.4776 13.6636 12.2616 13.6531 11.9744C13.6452 11.5857 13.5005 11.2122 13.2444 10.9197C12.9882 10.6272 12.6371 10.4344 12.2528 10.3754C11.3888 10.2284 10.5488 10.8149 10.3808 11.6826C10.2091 12.5691 10.7641 13.4324 11.6281 13.6191C11.7466 13.6446 11.8681 13.6589 11.9881 13.6656C12.3901 13.6866 12.6721 13.9634 12.6691 14.3406C12.6661 14.7231 12.3638 15.0066 11.9543 15.0104C10.6673 15.0216 9.45383 14.0826 9.10283 12.8046C8.57858 10.8959 10.0126 9.00363 11.9881 8.99763ZM17.6543 11.8154C17.6393 11.9429 17.6446 12.1026 17.5981 12.2451C17.5006 12.5481 17.1781 12.7236 16.8631 12.6726C16.5353 12.6186 16.3021 12.3501 16.2983 11.9826C16.2931 11.4231 16.2023 10.8801 15.9728 10.3724C15.2131 8.69613 13.9133 7.79688 12.0698 7.70988C11.6191 7.68738 11.3198 7.42338 11.3228 7.01988C11.3266 6.61638 11.6281 6.35313 12.0856 6.35463C14.8381 6.35988 17.2433 8.48988 17.5921 11.2326C17.6161 11.4179 17.6318 11.6031 17.6543 11.8154ZM6.35858 12.1611C6.32033 11.8559 6.39833 11.5551 6.74708 11.3946C7.20608 11.1824 7.68683 11.5109 7.69583 12.0501C7.70483 12.5669 7.79333 13.0641 7.97933 13.5456C8.28194 14.3422 8.81522 15.0304 9.511 15.5223C10.2068 16.0142 11.0335 16.2875 11.8853 16.3071C12.4673 16.3221 12.8056 16.7436 12.6203 17.2221C12.5168 17.4921 12.2888 17.6489 11.9768 17.6459C10.3253 17.6309 8.93258 17.0121 7.81883 15.7994C6.90144 14.8076 6.38159 13.5127 6.35858 12.1619V12.1611ZM15.0091 14.2761C14.9813 14.6114 14.8666 14.8236 14.6146 14.9414C14.3641 15.0584 14.1098 15.0404 13.9096 14.8551C13.5467 14.5188 13.1962 14.1693 12.8588 13.8074C12.6263 13.5584 12.6488 13.1661 12.8768 12.9209C13.1093 12.6711 13.5248 12.6194 13.7791 12.8526C14.1556 13.1961 14.5118 13.5636 14.8591 13.9379C14.9506 14.0369 14.9761 14.1966 15.0091 14.2754V14.2761Z" fill="white"/>
</svg>
