<svg width="24" height="24" fill="none" xmlns="http://www.w3.org/2000/svg"><path d="M12 24c6.627 0 12-5.373 12-12S18.627 0 12 0 0 5.373 0 12s5.373 12 12 12Z" fill="#3D58B0"/><path d="M11.99 3C7.031 3 3 7.032 3 11.99c0 4.957 4.032 8.987 8.99 8.987 4.957 0 8.987-4.03 8.987-8.988C20.979 7.032 16.947 3 11.99 3Zm0 1.224a7.755 7.755 0 0 1 7.764 7.765 7.754 7.754 0 0 1-7.765 7.765 7.755 7.755 0 0 1-7.765-7.765 7.756 7.756 0 0 1 7.765-7.765Z" fill="#fff"/><path d="M8.65 8.67v6.637h6.678V8.67H8.65Zm1.087 1.087h4.503v4.463H9.738V9.757h-.001Z" fill="#fff"/></svg>