<svg width="24" height="24" fill="none" xmlns="http://www.w3.org/2000/svg"><path d="M12 24c6.627 0 12-5.373 12-12S18.627 0 12 0 0 5.373 0 12s5.373 12 12 12Z" fill="#fff"/><path d="M17.633 15.543a2.397 2.397 0 0 1-.488-.073c-1.227-.323-1.721-1.49-1.721-1.49-.222-.45-.338-1.025-.387-1.628h1.849v-1.934h-1.833c.044-.547.11-1.022.16-1.334.052-.333.185-.648.388-.917 1.214-1.588 3.43-.864 3.43-.864V5.297c-3.255-.203-4.56 1.39-4.664 1.524l-.016.02c-.82.968-1.103 2.43-1.19 3.574H12.05V5.111h-1.934v5.307H8.394v-5.59H6.46v5.59H4.454v1.934H6.46v7.736h1.934v-7.736h1.722v4.08h1.934v-4.08h1.122c.216 2.862 1.991 4.01 1.991 4.01 1.51 1.06 4.269.683 4.269.683v-1.51c-.233.079-1.398.027-1.799.008Z" fill="url(#a)"/><path d="M12.023 1.107a1.2 1.2 0 0 1-.39.135s.064-.135.26-.15c0 0-.306-.106-.442-.261 0 0 .261.02.457.165 0 0-.29-.226-.316-.588 0 0 .321.286.396.562 0 0-.115-.386.06-.732 0 0 .141.37.026.737.107-.213.265-.395.46-.531 0 0-.03.31-.355.556.15-.074.314-.118.481-.13 0 0-.23.21-.501.235.11.006.212.055.286.136 0 0-.281-.01-.422-.135Zm2.336.307c-.134.037-.274.05-.412.04 0 0 .095-.116.288-.085 0 0-.273-.173-.368-.357 0 0 .25.08.405.268 0 0-.23-.288-.17-.645 0 0 .246.353.254.64 0 0-.021-.403.23-.699 0 0 .05.394-.148.723.154-.182.35-.322.573-.409 0 0-.102.295-.477.459.164-.037.333-.042.5-.014 0 0-.275.15-.544.111.105.031.194.103.246.199 0 0-.27-.076-.377-.231Zm2.478.797a1.2 1.2 0 0 1-.41-.044s.116-.095.3-.025c0 0-.233-.226-.29-.424 0 0 .228.13.343.344 0 0-.167-.328-.037-.665 0 0 .17.395.12.676 0 0 .06-.398.366-.637 0 0-.03.396-.29.678a1.43 1.43 0 0 1 .643-.285s-.16.269-.559.353c.168-.004.335.026.492.086 0 0-.299.093-.554 0 .097.051.17.14.202.244 0 0-.253-.128-.326-.3Zm1.95 1.366a1.2 1.2 0 0 1-.39-.138s.135-.066.298.044c0 0-.175-.273-.185-.479 0 0 .193.178.255.415 0 0-.087-.358.117-.657 0 0 .074.423-.038.686 0 0 .15-.374.502-.536 0 0-.12.378-.438.593.216-.1.453-.145.691-.13 0 0-.216.225-.625.215.165.036.322.103.46.198 0 0-.31.021-.54-.127a.412.412 0 0 1 .14.284s-.214-.183-.247-.368Zm1.587 1.631a1.2 1.2 0 0 1-.36-.203s.145-.04.285.096c0 0-.123-.3-.096-.504 0 0 .157.208.178.452 0 0-.024-.368.23-.625 0 0-.002.43-.158.668 0 0 .213-.342.588-.44 0 0-.186.352-.536.508.23-.061.472-.063.703-.006 0 0-.252.183-.652.101.154.064.295.157.415.275 0 0-.312-.035-.51-.22.07.086.101.195.089.304 0 0-.177-.217-.176-.406Zm1.207 1.598c-.12-.07-.228-.16-.317-.267 0 0 .15-.013.263.147 0 0-.067-.317-.003-.513 0 0 .117.235.092.477 0 0 .045-.366.342-.572 0 0-.08.422-.279.628 0 0 .272-.297.66-.324 0 0-.247.31-.62.4.237-.017.474.025.691.123 0 0-.282.134-.66-.02.14.09.262.208.359.346 0 0-.3-.09-.46-.312.052.097.063.21.03.315 0 0-.135-.243-.098-.428Zm.889 2.22a1.198 1.198 0 0 1-.253-.327s.149.018.225.199c0 0 .002-.324.106-.502 0 0 .065.254-.01.484 0 0 .12-.348.454-.487 0 0-.168.395-.405.555 0 0 .329-.233.713-.177 0 0-.307.251-.692.26.236.033.46.124.652.266 0 0-.305.072-.642-.159.119.12.213.26.277.415 0 0-.274-.15-.384-.4a.412.412 0 0 1-.037.315s-.078-.27-.004-.442Zm.354 2.168a1.196 1.196 0 0 1-.153-.384s.138.058.162.253c0 0 .091-.311.242-.453 0 0-.008.262-.144.464 0 0 .212-.301.571-.343 0 0-.27.334-.543.422 0 0 .38-.133.735.027 0 0-.365.157-.736.058.218.097.409.247.554.437 0 0-.312-.016-.573-.33.081.147.133.308.153.475 0 0-.221-.221-.259-.49 0 .109-.044.214-.122.291 0 0-.006-.281.113-.427Zm-.168 2.5a1.2 1.2 0 0 1-.035-.412s.116.097.082.29c0 0 .178-.27.362-.363 0 0-.084.248-.273.401 0 0 .29-.226.646-.161 0 0-.356.24-.642.245 0 0 .403-.016.695.24 0 0-.395.044-.721-.159.18.157.317.357.4.58 0 0-.294-.106-.45-.484.035.164.037.334.007.5 0 0-.147-.277-.104-.545a.413.413 0 0 1-.201.242s.078-.267.234-.374Zm-.673 2.52a1.198 1.198 0 0 1 .013-.414s.104.109.048.297c0 0 .207-.248.4-.319 0 0-.111.237-.317.367 0 0 .315-.19.661-.085 0 0-.38.198-.666.17 0 0 .402.03.662.317 0 0-.397 0-.697-.24.16.177.274.39.331.623 0 0-.28-.139-.392-.532a1.3 1.3 0 0 1-.05.496s-.115-.29-.042-.553a.41.41 0 0 1-.228.218s.11-.258.277-.344Zm-1.092 1.88a1.2 1.2 0 0 1 .152-.385s.06.138-.056.296c0 0 .28-.163.484-.165 0 0-.185.185-.423.238 0 0 .361-.073.651.143 0 0-.426.057-.684-.066 0 0 .368.165.516.524 0 0-.373-.136-.576-.462.092.22.128.46.104.697 0 0-.216-.226-.19-.634a1.306 1.306 0 0 1-.215.45s-.01-.311.148-.534a.41.41 0 0 1-.289.128s.19-.206.378-.23Zm-1.525 1.878c.036-.134.096-.261.176-.375 0 0 .051.141-.074.292 0 0 .288-.146.494-.134 0 0-.196.172-.437.211 0 0 .365-.05.641.183 0 0-.429.03-.679-.108 0 0 .358.187.484.554 0 0-.363-.159-.545-.497.078.225.098.466.059.702 0 0-.202-.239-.15-.644-.052.16-.134.308-.243.436 0 0 .01-.311.181-.524a.411.411 0 0 1-.296.11s.2-.193.389-.206Zm-1.613 1.227c.06-.125.142-.239.242-.336 0 0 .025.148-.127.273 0 0 .311-.09.511-.04 0 0-.225.134-.468.127 0 0 .367.017.595.298 0 0-.427-.05-.646-.232 0 0 .316.25.37.634 0 0-.327-.223-.444-.588.035.236.01.477-.071.7 0 0-.155-.271-.029-.66-.08.148-.189.278-.319.384 0 0 .07-.305.275-.481a.413.413 0 0 1-.311.053s.236-.154.422-.132Zm-2.061 1.006a1.19 1.19 0 0 1 .286-.3s.004.15-.163.253c0 0 .32-.046.511.03 0 0-.242.102-.48.062 0 0 .36.07.548.378 0 0-.415-.108-.61-.319 0 0 .28.291.282.679 0 0-.294-.266-.36-.644.003.238-.055.473-.167.683 0 0-.115-.29.063-.657-.1.135-.226.25-.369.336 0 0 .109-.292.338-.439a.412.412 0 0 1-.316.01s.255-.12.437-.072Zm-2.348.668c.1-.097.215-.176.342-.234 0 0-.027.148-.212.214 0 0 .323.02.495.135 0 0-.257.05-.484-.039 0 0 .34.14.46.482 0 0-.386-.19-.531-.436 0 0 .214.341.136.722 0 0-.234-.32-.22-.705a1.43 1.43 0 0 1-.303.636s-.054-.309.195-.632a1.294 1.294 0 0 1-.43.254s.167-.265.422-.36a.41.41 0 0 1-.312-.055s.273-.066.442.018Zm-2.808-.051c.126-.058.261-.094.4-.106 0 0-.075.13-.271.13 0 0 .297.128.42.294 0 0-.258-.04-.443-.2 0 0 .274.247.272.61 0 0-.299-.31-.353-.59 0 0 .086.393-.115.726 0 0-.112-.38.03-.737a1.434 1.434 0 0 1-.5.496s.052-.31.398-.53a1.298 1.298 0 0 1-.49.095s.246-.193.52-.198a.413.413 0 0 1-.277-.156s.278.03.409.166Zm-2.286-.551a1.2 1.2 0 0 1 .41.055s-.119.091-.3.017c0 0 .225.231.276.431 0 0-.224-.135-.333-.353 0 0 .158.332.018.667 0 0-.158-.4-.101-.68 0 0-.07.396-.383.627 0 0 .041-.395.31-.67a1.434 1.434 0 0 1-.652.268s.166-.265.568-.338a1.298 1.298 0 0 1-.489-.1s.3-.084.554.015a.412.412 0 0 1-.195-.25s.248.135.317.31Zm-2.112-1.107c.138.01.274.043.402.098 0 0-.129.079-.301-.015 0 0 .2.255.23.459 0 0-.208-.158-.294-.387 0 0 .122.346-.052.665 0 0-.115-.415-.03-.687 0 0-.111.387-.447.583 0 0 .083-.388.379-.633-.206.12-.438.189-.676.197 0 0 .193-.245.6-.277a1.298 1.298 0 0 1-.475-.15s.308-.053.55.072a.41.41 0 0 1-.167-.268s.229.162.28.343Zm-1.84-1.605c.137.023.269.07.39.138 0 0-.136.065-.298-.045 0 0 .173.273.182.48 0 0-.191-.18-.253-.416 0 0 .086.358-.12.657 0 0-.072-.423.041-.686 0 0-.15.374-.504.534 0 0 .122-.377.441-.59a1.432 1.432 0 0 1-.692.126s.218-.224.626-.212a1.296 1.296 0 0 1-.457-.2s.311-.02.539.13a.411.411 0 0 1-.138-.285s.211.183.243.369Zm-1.353-1.663c.12.07.228.16.317.266 0 0-.15.014-.263-.146 0 0 .067.316.003.512 0 0-.117-.234-.093-.476 0 0-.044.365-.34.572 0 0 .08-.422.276-.628 0 0-.272.297-.66.324 0 0 .247-.31.62-.4a1.43 1.43 0 0 1-.691-.122s.282-.135.66.019a1.302 1.302 0 0 1-.359-.346s.3.09.46.31a.41.41 0 0 1-.03-.315s.135.245.1.43ZM1.913 16c.116.077.217.173.3.285 0 0-.15.004-.254-.163 0 0 .047.32-.029.512 0 0-.103-.242-.062-.481 0 0-.067.362-.377.55 0 0 .107-.415.318-.61 0 0-.29.28-.679.283 0 0 .266-.296.644-.361a1.429 1.429 0 0 1-.684-.166s.29-.116.657.061a1.3 1.3 0 0 1-.337-.368s.293.108.44.337a.412.412 0 0 1-.011-.316s.121.254.074.437Zm-.6-2.166c.09.106.16.228.208.359 0 0-.145-.039-.197-.228 0 0-.046.32-.173.482 0 0-.029-.26.077-.48 0 0-.167.33-.517.421 0 0 .22-.369.478-.494 0 0-.358.186-.73.078 0 0 .337-.207.719-.163a1.43 1.43 0 0 1-.612-.356s.31-.029.613.245a1.292 1.292 0 0 1-.218-.45s.25.188.326.45a.413.413 0 0 1 .079-.306s.043.279-.052.442Zm-.189-2.3c.067.122.113.254.134.392 0 0-.135-.067-.15-.262 0 0-.106.305-.262.44 0 0 .02-.26.167-.455 0 0-.227.29-.588.313 0 0 .288-.32.564-.394 0 0-.387.114-.732-.063 0 0 .372-.139.737-.022a1.43 1.43 0 0 1-.53-.464s.312.032.554.359a1.295 1.295 0 0 1-.127-.484s.21.232.234.503a.412.412 0 0 1 .138-.286s-.013.283-.139.423Zm.418-2.406c.049.13.074.268.076.407 0 0-.124-.085-.11-.28 0 0-.15.287-.323.398 0 0 .058-.255.23-.427 0 0-.265.254-.626.226 0 0 .33-.277.614-.31 0 0-.4.058-.716-.167 0 0 .388-.084.733.084a1.435 1.435 0 0 1-.458-.535s.304.076.499.435a1.3 1.3 0 0 1-.058-.496s.172.26.159.531a.41.41 0 0 1 .176-.263s-.052.276-.196.397Zm.93-2.36c.005.14-.015.278-.059.41 0 0-.09-.12-.013-.3 0 0-.235.223-.435.272 0 0 .138-.223.357-.33 0 0-.334.155-.667.011 0 0 .402-.153.681-.094 0 0-.396-.075-.622-.39 0 0 .394.046.666.317a1.434 1.434 0 0 1-.26-.654s.262.17.33.572c.004-.168.04-.333.106-.487 0 0 .081.301-.02.553a.411.411 0 0 1 .25-.192s-.137.245-.313.313Zm1.408-1.92a1.194 1.194 0 0 1-.144.388s-.063-.136.05-.297c0 0-.277.17-.482.176 0 0 .18-.189.417-.248 0 0-.359.082-.654-.128 0 0 .425-.067.686.05 0 0-.372-.156-.529-.51 0 0 .377.126.588.447a1.433 1.433 0 0 1-.119-.694s.222.22.205.628c.038-.163.108-.318.205-.455 0 0 .016.312-.136.538a.413.413 0 0 1 .286-.136s-.187.211-.373.24Zm1.607-1.581a1.194 1.194 0 0 1-.221.35s-.035-.147.11-.28c0 0-.305.108-.508.068 0 0 .217-.146.46-.154 0 0-.368.004-.612-.263 0 0 .429.024.66.193 0 0-.331-.23-.41-.61 0 0 .342.203.48.56a1.429 1.429 0 0 1 .03-.702s.17.262.068.657c.072-.152.172-.289.296-.402 0 0-.05.308-.246.496.09-.064.2-.09.308-.072 0 0-.226.17-.415.159Zm1.746-1.122a1.205 1.205 0 0 1-.259.323s-.017-.15.14-.266c0 0-.314.074-.512.014 0 0 .232-.122.474-.104 0 0-.366-.034-.58-.327 0 0 .424.069.635.263 0 0-.304-.265-.34-.651 0 0 .317.24.415.61a1.433 1.433 0 0 1 .107-.692s.14.28-.005.66c.088-.142.203-.267.338-.366 0 0-.083.301-.298.467a.413.413 0 0 1 .314-.038s-.243.14-.429.107Zm2.183-.745a1.2 1.2 0 0 1-.33.249s.02-.149.202-.223c0 0-.324-.007-.5-.113 0 0 .254-.061.484.018 0 0-.346-.126-.481-.462 0 0 .393.173.55.413 0 0-.23-.332-.168-.715 0 0 .247.31.25.694a1.43 1.43 0 0 1 .276-.648s.067.305-.168.639c.12-.117.263-.21.419-.272 0 0-.155.272-.406.379a.413.413 0 0 1 .314.04s-.27.077-.442.001Z" fill="#467A54"/><defs><linearGradient id="a" x1="4.455" y1="0" x2="19.432" y2="0" gradientUnits="userSpaceOnUse"><stop stop-color="#58B27A"/><stop offset=".05" stop-color="#56AA75"/><stop offset=".32" stop-color="#4A875D"/><stop offset=".46" stop-color="#467A54"/><stop offset="1" stop-color="#466454"/></linearGradient></defs></svg>