<svg width="24" height="24" viewBox="0 0 24 24" fill="none" xmlns="http://www.w3.org/2000/svg">
<path fill-rule="evenodd" clip-rule="evenodd" d="M12.5701 10.8015C12.5701 10.8015 12.8763 8.77979 15.3061 8.77979C17.6551 8.77979 18.0422 10.8015 18.0422 10.8015H12.5701ZM15.4078 6.57423C13.5049 6.57668 9.85352 7.83998 9.85352 11.7817C9.85352 16.3766 13.2525 17.4267 15.1836 17.3765C18.3694 17.2956 19.9219 15.5998 19.9219 15.5998L18.2064 14.0486C18.2064 14.0486 17.2874 15.0288 15.3882 15.0288C12.733 15.0288 12.5284 12.8233 12.5284 12.8233H20.4732C20.4732 12.8233 21.2893 6.56565 15.4078 6.57423Z" fill="white"/>
<mask id="mask0" mask-type="alpha" maskUnits="userSpaceOnUse" x="12" y="8" width="7" height="3">
<path d="M15.3054 8.77979C12.8756 8.77979 12.5693 10.8015 12.5693 10.8015H18.0415C18.0415 10.8015 17.6543 8.77979 15.3054 8.77979Z" fill="white"/>
</mask>
<g mask="url(#mask0)">
<path fill-rule="evenodd" clip-rule="evenodd" d="M15.3054 8.77979C12.8756 8.77979 12.5693 10.8015 12.5693 10.8015H18.0415C18.0415 10.8015 17.6543 8.77979 15.3054 8.77979Z" fill="url(#paint0_linear)"/>
</g>
<mask id="mask1" mask-type="alpha" maskUnits="userSpaceOnUse" x="0" y="2" width="24" height="19">
<path d="M20.4729 12.8235H12.5281C12.5281 12.8235 12.7327 15.0291 15.3879 15.0291C17.2871 15.0291 18.2061 14.0488 18.2061 14.0488L19.9215 15.6001C19.9215 15.6001 18.369 17.2958 15.1833 17.3767C13.2522 17.427 9.85319 16.3769 9.85319 11.782C9.85319 7.84021 13.5046 6.57691 15.4075 6.57446C21.289 6.56588 20.4729 12.8235 20.4729 12.8235ZM15.1833 2.9292C11.4118 2.9292 8.19662 5.31117 6.96028 8.65257H0.0507812L3.27702 11.3323H6.42483C6.41988 11.4524 6.41743 11.5737 6.41743 11.695C6.41743 12.0013 6.43342 12.304 6.46401 12.603H3.2574L0.113284 15.2324H7.16121C8.52011 18.3117 11.6005 20.4608 15.1833 20.4608C20.0245 20.4608 23.949 16.5362 23.949 11.695C23.949 6.85382 20.0245 2.9292 15.1833 2.9292Z" fill="white"/>
</mask>
<g mask="url(#mask1)">
<path fill-rule="evenodd" clip-rule="evenodd" d="M20.4729 12.8235H12.5281C12.5281 12.8235 12.7327 15.0291 15.3879 15.0291C17.2871 15.0291 18.2061 14.0488 18.2061 14.0488L19.9215 15.6001C19.9215 15.6001 18.369 17.2958 15.1833 17.3767C13.2522 17.427 9.85319 16.3769 9.85319 11.782C9.85319 7.84021 13.5046 6.57691 15.4075 6.57446C21.289 6.56588 20.4729 12.8235 20.4729 12.8235ZM15.1833 2.9292C11.4118 2.9292 8.19662 5.31117 6.96028 8.65257H0.0507812L3.27702 11.3323H6.42483C6.41988 11.4524 6.41743 11.5737 6.41743 11.695C6.41743 12.0013 6.43342 12.304 6.46401 12.603H3.2574L0.113284 15.2324H7.16121C8.52011 18.3117 11.6005 20.4608 15.1833 20.4608C20.0245 20.4608 23.949 16.5362 23.949 11.695C23.949 6.85382 20.0245 2.9292 15.1833 2.9292Z" fill="url(#paint1_linear)"/>
</g>
<defs>
<linearGradient id="paint0_linear" x1="10.6076" y1="8.80331" x2="13.9496" y2="14.5917" gradientUnits="userSpaceOnUse">
<stop stop-color="#5AC2F6"/>
<stop offset="1" stop-color="#1170AB"/>
</linearGradient>
<linearGradient id="paint1_linear" x1="7.46195" y1="7.755" x2="13.661" y2="18.492" gradientUnits="userSpaceOnUse">
<stop stop-color="#5AC2F6"/>
<stop offset="1" stop-color="#1170AB"/>
</linearGradient>
</defs>
</svg>
