<svg width="24" height="24" fill="none" xmlns="http://www.w3.org/2000/svg"><path fill-rule="evenodd" clip-rule="evenodd" d="M12 13.801s-1.8-2.227-1.8-4.909c0-2.427 1.8-4.2 1.8-4.2s1.8 1.773 1.8 4.2c0 2.682-1.8 4.91-1.8 4.91Zm.697 3.796c.025.19.04.396.04.622 0 .581-.349 1.266-.566 1.637a.197.197 0 0 1-.342 0c-.217-.371-.565-1.056-.565-1.637 0-.276.022-.524.058-.744.173-1.062.678-1.492.678-1.492s.544.463.697 1.614Zm8.055-6.833c-.759.018-2.75-.023-3.706.174-1.764.363-3.382 2.154-3.382 2.154s1.346-2.209.79-5.7c-.317-2-2.454-4.69-2.454-4.69s-2.137 2.69-2.455 4.69c-.555 3.491.791 5.7.791 5.7s-1.618-1.79-3.381-2.155c-.956-.196-2.948-.155-3.706-.173-1.149-.027.749 2.25 1.278 2.9.93 1.141 1.873 1.675 2.454 1.916.118.049.212-.106.114-.188-.971-.811-2.868-2.964-2.568-3.527.233-.437 2.755-.255 4.5 1.2.602.501 2.373 2.045 2.373 2.045h-.026c-.181-.005-1.306-.002-2.729.655-1.48.684-2.263 2.345-2.263 2.345.154.183 1.722.305 2.29.218.313-.047.97-.345 1.406-.554a.057.057 0 0 0 .034-.052c0-.035-.029-.068-.072-.06-.487.099-1.23.231-1.558.203-.215-.019-.775-.062-.818-.273-.104-.501 1.081-1.112 1.527-1.364.464-.261 1.95-.62 2.179-.674l.03-.007s-.468.774-.644 1.854a5.138 5.138 0 0 0-.065.791c0 1.891 1.2 3.11 1.2 3.11h.218s1.2-1.219 1.2-3.11a4.732 4.732 0 0 0-.046-.664 5.719 5.719 0 0 0-.663-1.981s1.706.397 2.21.681c.445.252 1.63.863 1.526 1.364-.043.211-.603.254-.818.273-.327.028-1.071-.104-1.558-.202-.046-.01-.075.03-.071.066a.057.057 0 0 0 .034.045c.434.21 1.092.507 1.404.554.57.087 2.137-.035 2.291-.218 0 0-.782-1.661-2.263-2.345-1.555-.719-2.755-.655-2.755-.655s1.771-1.544 2.373-2.045c1.745-1.455 4.268-1.637 4.5-1.2.3.563-1.597 2.716-2.568 3.527-.098.082-.004.237.114.188.581-.24 1.524-.775 2.454-1.915.53-.65 2.427-2.928 1.279-2.9Z" fill="#FDFFFF"/><path fill-rule="evenodd" clip-rule="evenodd" d="M19.473 13.665c-.93 1.14-1.873 1.674-2.454 1.915-.117.049-.212-.106-.114-.188.971-.811 2.868-2.964 2.568-3.527-.232-.437-2.755-.255-4.5 1.2-.602.501-2.373 2.045-2.373 2.045s1.2-.064 2.755.655c1.48.684 2.263 2.345 2.263 2.345-.154.183-1.722.305-2.29.218-.313-.047-.97-.345-1.405-.554a.056.056 0 0 1-.034-.045c-.005-.036.025-.076.07-.067.488.099 1.232.231 1.56.203.214-.019.774-.062.817-.273.104-.501-1.081-1.112-1.527-1.364-.503-.284-2.209-.682-2.209-.682a5.719 5.719 0 0 0 .692 2.24c.011.133.017.268.017.406 0 1.891-1.2 3.11-1.2 3.11h-.218s-1.2-1.219-1.2-3.11a4.836 4.836 0 0 1 .065-.79 5.711 5.711 0 0 1 .644-1.856l-.03.008c-.23.054-1.715.412-2.18.674-.445.252-1.63.863-1.526 1.364.043.211.603.254.818.273.327.028 1.071-.104 1.558-.203.043-.008.072.026.072.06 0 .02-.01.04-.034.052-.435.209-1.093.507-1.405.554-.57.087-2.137-.035-2.291-.218 0 0 .783-1.661 2.263-2.345 1.423-.658 2.548-.66 2.73-.656l.025.001s-1.771-1.544-2.373-2.045c-1.745-1.455-4.267-1.637-4.5-1.2-.3.563 1.597 2.716 2.568 3.527.098.082.004.237-.114.188-.581-.24-1.524-.775-2.454-1.915-.53-.65-2.427-2.928-1.278-2.901.758.018 2.75-.023 3.706.174 1.763.363 3.381 2.154 3.381 2.154s-1.346-2.209-.79-5.7c.317-2 2.454-4.69 2.454-4.69s2.136 2.69 2.454 4.69c.556 3.491-.79 5.7-.79 5.7s1.618-1.79 3.382-2.155c.955-.196 2.947-.155 3.706-.173 1.148-.027-.75 2.25-1.28 2.9ZM12 0C5.373 0 0 5.373 0 12s5.373 12 12 12 12-5.373 12-12S18.627 0 12 0Z" fill="#2182A5"/><path fill-rule="evenodd" clip-rule="evenodd" d="M12 4.692s-1.8 1.773-1.8 4.2c0 2.682 1.8 4.909 1.8 4.909s1.8-2.227 1.8-4.91c0-2.426-1.8-4.2-1.8-4.2ZM12 15.983s-.505.43-.678 1.492c-.036.22-.058.468-.058.744 0 .581.348 1.266.565 1.637.077.13.265.13.342 0 .217-.371.565-1.056.565-1.637a4.71 4.71 0 0 0-.04-.622c-.152-1.151-.696-1.614-.696-1.614Z" fill="#2182A5"/></svg>