<svg width="18" height="19" viewBox="0 0 18 19" fill="none" xmlns="http://www.w3.org/2000/svg">
<path fill-rule="evenodd" clip-rule="evenodd" d="M11.9148 4.78992L11.9015 4.78284C11.1576 4.34592 10.5844 4.04605 9.84968 4.1435C9.50106 4.18973 9.14532 4.32066 8.74439 4.50891C8.34306 4.69734 7.8621 4.96021 7.26253 5.2917L7.26151 5.29226L1.93777 8.2035L1.91024 8.21855L1.88481 8.23693C0.996943 8.87852 0.540483 9.68886 0.637946 10.5601C0.732022 11.401 1.32687 12.1322 2.15777 12.6798L2.17324 12.69L2.18943 12.699L6.43944 15.0688C6.64037 15.7021 7.23298 16.1609 7.93276 16.1609C8.75072 16.1609 9.42225 15.534 9.49301 14.7344L14.4473 12.1011L14.4403 12.0879C14.675 12.2281 14.9494 12.3087 15.2427 12.3087C16.1078 12.3087 16.8091 11.6074 16.8091 10.7423C16.8091 9.87723 16.1078 9.17593 15.2427 9.17593C14.3776 9.17593 13.6763 9.87723 13.6763 10.7423C13.6763 10.9463 13.7153 11.1412 13.7862 11.32L9.24253 13.7351C8.96254 13.3092 8.48048 13.0281 7.93276 13.0281C7.29424 13.0281 6.74494 13.4102 6.50102 13.9582L2.69305 11.8349C2.00271 11.3758 1.67946 10.8754 1.63175 10.4489C1.59302 10.1028 1.72437 9.68475 2.21703 9.2493L5.41028 11.1695L5.41135 11.1701C6.36368 11.7495 7.07971 12.1138 7.86941 12.0787C8.63553 12.0446 9.38757 11.6346 10.4206 11.0139L14.4375 8.82601L14.4375 8.82605L14.443 8.82299C14.5884 8.74142 14.7232 8.67248 14.8598 8.60254L14.8599 8.60253C14.944 8.55947 15.0289 8.51604 15.1175 8.46905C15.3179 8.3627 15.5587 8.22762 15.7254 8.0581C15.8137 7.96823 15.9134 7.83739 15.9564 7.66197C16.003 7.4715 15.9689 7.28636 15.8837 7.12792C15.7388 6.85876 15.443 6.66081 15.1281 6.49445C14.5078 6.16676 13.6989 5.73766 13.0448 5.39036L12.2232 4.95387L11.9802 4.82471L11.9148 4.78992ZM7.74334 6.16853L3.18214 8.66277L5.92783 10.3138L5.93006 10.3152C6.90329 10.9073 7.37633 11.0997 7.82495 11.0797C8.2952 11.0588 8.82893 10.8039 9.91454 10.1513L9.92364 10.1459L9.93297 10.1408L13.9565 7.9493C14.1135 7.8613 14.284 7.77387 14.4337 7.6971L14.4337 7.69708C14.5129 7.65647 14.5863 7.61883 14.6488 7.58568C14.7248 7.54534 14.7873 7.51032 14.8382 7.47997C14.7901 7.44976 14.7316 7.41597 14.661 7.37865C14.0397 7.05044 13.23 6.62092 12.5759 6.27357L11.7539 5.8369L11.5108 5.70767L11.4453 5.67285L11.4283 5.66383L11.424 5.66154L11.4229 5.66096L11.4226 5.66081L11.4226 5.66077L11.6573 5.21931L11.4225 5.66076L11.4131 5.65576L11.4039 5.65036C10.6323 5.19678 10.337 5.08763 9.98115 5.13482C9.78298 5.1611 9.53609 5.24193 9.1694 5.4141C8.80335 5.58597 8.35204 5.83199 7.74537 6.16741L7.74334 6.16853L7.74334 6.16853ZM15.0174 7.3514C15.0174 7.35139 15.017 7.35191 15.0161 7.35295L15.0174 7.3514ZM8.49917 14.5945C8.49917 14.9074 8.24558 15.1609 7.93276 15.1609C7.61995 15.1609 7.36636 14.9074 7.36636 14.5945C7.36636 14.2817 7.61995 14.0281 7.93276 14.0281C8.24558 14.0281 8.49917 14.2817 8.49917 14.5945ZM15.2427 11.3087C15.5555 11.3087 15.8091 11.0551 15.8091 10.7423C15.8091 10.4295 15.5555 10.1759 15.2427 10.1759C14.9298 10.1759 14.6763 10.4295 14.6763 10.7423C14.6763 11.0551 14.9298 11.3087 15.2427 11.3087Z" fill="#95A7AE"/>
</svg>
