<svg width="24" height="24" fill="none" xmlns="http://www.w3.org/2000/svg"><g clip-path="url(#a)" fill="#8500FF"><path d="M2.605 6.128h12.008a3.263 3.263 0 0 1 3.259 3.26 3.263 3.263 0 0 1-3.26 3.258H8.116a.928.928 0 0 0 0 1.856h6.497a5.12 5.12 0 0 0 5.115-5.115 5.12 5.12 0 0 0-5.115-5.115H2.605a.928.928 0 0 0 0 1.856Z"/><path d="M14.613 0H9.955a.928.928 0 0 0 0 1.856h4.658c4.153 0 7.53 3.378 7.53 7.531s-3.378 7.532-7.53 7.532H2.782a.928.928 0 1 0 0 1.855h11.83c5.175 0 9.387-4.21 9.387-9.387C24 4.211 19.789 0 14.613 0Z"/><path d="M9.233 9.387a.929.929 0 0 0-.928-.928H6.044a.929.929 0 0 0-.928.928c0 .514.41.928.75.928h2.261c.652 0 1.106-.381 1.106-.928ZM6.296 21.192H.928a.928.928 0 1 0 0 1.855h5.368a.928.928 0 1 0 0-1.855Z"/></g><defs><clipPath id="a"><path fill="#fff" d="M0 0h24v24H0z"/></clipPath></defs></svg>