<svg width="24" height="24" fill="none" xmlns="http://www.w3.org/2000/svg"><path d="M22.51 16.048V7.95a.862.862 0 0 0-.35-.714L12.51.184a.865.865 0 0 0-.696-.168c-.15.03-.285.104-.405.195a92377.88 92377.88 0 0 1-9.582 7.003.897.897 0 0 0-.385.74c-.002 2.7-.002 5.398 0 8.096a.897.897 0 0 0 .388.741c3.194 2.333 6.387 4.667 9.58 7.002.305.26.784.282 1.1.027 3.206-2.342 6.412-4.684 9.616-7.028a.871.871 0 0 0 .384-.744Z" fill="#050708"/><path d="M10.863 1.948c.085-.096.17-.245.32-.225.506.003 1.014-.008 1.52.005.088.054.155.136.23.206-.002.523-.002 1.046 0 1.569-.15.002-.302.008-.453-.002l-.036-.146c0-.39.034-.782.001-1.171H11.33l-.003.394-.471-.001c0-.209-.022-.421.008-.629ZM9.6 2.586c.171-.007.342-.007.514-.002.003.723.006 1.445-.002 2.168-.163.003-.326.003-.49.002-.053-.72-.01-1.445-.022-2.168Zm4.356.777c.456-.006.911-.004 1.367-.001.002.167.002.333 0 .5-.455.005-.911.007-1.367-.001a21.753 21.753 0 0 1 0-.498Zm-2.765.246c.184-.004.368-.003.552-.003.176.342.397.662.54 1.02-.169.008-.338.008-.507.009-.2-.339-.394-.681-.585-1.026Zm1.878.602c.16-.003.318-.003.478 0 .434.672.855 1.352 1.291 2.022 0 .204 0 .408-.004.612-.047-.008-.14-.025-.187-.032-.37-.552-.71-1.124-1.077-1.679-.006.624.002 1.248-.004 1.872a13.63 13.63 0 0 1-.498 0c-.002-.93-.005-1.863.001-2.795Zm1.978.379c.17-.004.34-.004.509 0a32 32 0 0 1 0 .48c-.17.005-.34.005-.509.002V4.59Zm-8.377.157c.134-.002.267-.001.401 0a8.59 8.59 0 0 1 1.07.003c.002.155.001.31 0 .466-.529.317-1.036.668-1.572.972-.157-.06-.278-.187-.407-.292.35-.213.694-.439 1.048-.646-.18-.01-.36-.008-.538-.01a16.585 16.585 0 0 1-.002-.493Zm4.224.184c.164-.004.328-.004.492 0 .004.165.004.329 0 .494a8.622 8.622 0 0 1-.492 0 11.29 11.29 0 0 1 0-.494Zm-2.408.482c.263.398.518.802.784 1.198.266-.4.522-.808.79-1.206 0 .264.018.53-.005.794-.243.417-.525.811-.787 1.217-.257-.4-.53-.79-.775-1.196-.028-.268-.008-.538-.007-.807Zm7.272.067c.789-.003 1.577-.003 2.366 0v.48c-.789.003-1.577.003-2.366.002V5.48Zm-4.173.625c.158-.003.317-.003.477-.001.008.7 0 1.4.004 2.1-.074.07-.147.141-.22.213-.546.006-1.092 0-1.638.003-.072-.07-.146-.135-.21-.21-.028-.214-.008-.433-.008-.648h.457c.004.124.004.247.002.37.376.043.754.013 1.132.022.002-.617-.004-1.234.004-1.85Zm7.623 2.067a85.434 85.434 0 0 1 0-1.585c.165-.003.33-.004.496 0 .005.528.005 1.057 0 1.586-.166.003-.331.002-.496 0Zm-2.355-1.185c.312-.003.626-.052.936-.002.203.663.378 1.336.58 2h-.48c-.153-.514-.283-1.035-.44-1.549a38.42 38.42 0 0 1-.263.003c-.131.519-.288 1.03-.423 1.546h-.483c.198-.664.384-1.332.573-1.998ZM3.514 7.24c.72-.005 1.439-.006 2.157 0 .005.165.005.33.001.495-.72.007-1.439.005-2.159 0a15.543 15.543 0 0 1 .001-.495Zm2.496 0c.164-.001.327-.002.491 0 .004.165.004.332 0 .498a22.3 22.3 0 0 1-.49-.001 21.425 21.425 0 0 1 0-.497Zm1.807.02.482.001c.005.384.002.77.002 1.154-.163.001-.325.002-.487 0-.002-.384-.007-.77.003-1.155Zm12.567.346c.185-.004.37-.003.554-.004.183.339.405.66.541 1.022-.168.006-.337.007-.505.007-.199-.34-.389-.687-.59-1.025Zm-7.276.41h.48c.004.527.001 1.054.001 1.58-.16.002-.321.002-.482.002V8.016Zm1.688.64c-.002-.164-.002-.329 0-.494.162-.003.325-.003.487.002 0 .164 0 .329-.002.493h-.485Zm-9.133.73c.388-.283.802-.529 1.2-.796.263.003.526-.001.79.003-.392.28-.808.521-1.2.797.403.254.8.52 1.202.777-.271.005-.541.002-.812.002-.39-.265-.796-.509-1.18-.783Zm13.545-.459c.166-.003.332-.004.498 0 .005.165.004.33 0 .496a11.4 11.4 0 0 1-.497 0c-.004-.165-.004-.33 0-.496Zm-17.023.068c.828-.005 1.657-.007 2.486.001.002.157.002.314.003.472-.37.242-.741.486-1.122.711-.16-.059-.282-.192-.42-.29.205-.13.414-.254.612-.393-.52-.002-1.04.003-1.56-.003a16.404 16.404 0 0 1 0-.498Zm7.09.48c.717.003 1.434-.003 2.15.003a2.05 2.05 0 0 1-.007.49c-.714.004-1.428.001-2.142.002-.002-.165-.002-.33-.002-.495Zm2.618.003a9.28 9.28 0 0 1 .517.003v.482c-.172.004-.345.004-.516.001a25.385 25.385 0 0 1 0-.486Zm2.256.694c-.023-.17.152-.257.241-.374.21 0 .421-.001.632.003.005.159.005.317.002.476-.133.003-.266.003-.4.005v1.129c.62.004 1.239-.003 1.858.003.001.16.001.321-.003.48-.697.005-1.395 0-2.092.003-.089-.117-.26-.204-.238-.373-.003-.45-.003-.901 0-1.352Zm2.347-.15c.17-.006.343-.006.514 0 .002.164.001.327 0 .49a7.7 7.7 0 0 1-.514.001 22.36 22.36 0 0 1 0-.491Zm1.63 0c.722-.01 1.443-.003 2.164-.004.002.167.002.334 0 .5-.721 0-1.442.006-2.162-.003a18.43 18.43 0 0 1-.001-.493Zm-9.991.575h1.212c.004.168.004.336 0 .504h-1.21a6.326 6.326 0 0 1-.002-.504Zm2.666 0h1.902c.23-.037.461.202.432.43v1.399l-.245.261c-.21 0-.42.001-.63-.002v-.48l.394-.004.001-1.1c-.616-.056-1.236-.01-1.854-.026-.002-.16-.002-.32 0-.478Zm-4.47.148c.31-.002.62-.004.929.001.188.67.389 1.336.566 2.01H7.36c-.159-.517-.282-1.043-.446-1.557l-.265.018c-.117.518-.285 1.023-.413 1.539-.16 0-.321 0-.48-.002.19-.67.38-1.34.576-2.01Zm13.517.605c.54-.005 1.08-.01 1.62.002.136.084.29.22.26.4 0 .383-.002.768 0 1.153-.005.184.004.369-.002.553.009.151-.032.3-.024.45l-.46-.001v-2.081c-.377-.01-.754-.003-1.13-.006-.001.13-.001.258-.004.388-.158.002-.317.003-.475.002a37.667 37.667 0 0 1-.002-.638c.073-.073.145-.147.217-.222Zm-15.367.02h.502v1.58H4.48c.003-.527 0-1.054.002-1.58Zm-1.574.44c.165-.002.33.002.493.013.002.156.002.313 0 .47-.165.001-.331.002-.497-.001-.002-.161-.001-.322.004-.482Zm5.894 2.888c-.004-.932-.004-1.864 0-2.796.163-.002.326-.002.49.002.384.619.78 1.231 1.172 1.846.17.218.068.511.095.765-.057 0-.114.001-.17.003-.353-.56-.721-1.112-1.059-1.68-.061.618-.01 1.242-.03 1.863a14.18 14.18 0 0 1-.498-.003Zm2.179-2.437c.166-.004.333-.004.5-.001.002.407.001.814 0 1.221-.167.003-.334.003-.5 0a72.876 72.876 0 0 1 0-1.22Zm3.017.545c.163-.002.326-.002.49 0 .002.165.002.331 0 .497h-.49c-.002-.166-.002-.332 0-.498Zm1.587.021c.507-.006 1.014-.003 1.522-.002.02.149.033.3.019.45-.048.097-.163.058-.249.067-.432-.013-.865.025-1.294-.024a9.564 9.564 0 0 1 .002-.49Zm2.046.07c.164-.002.329-.013.492.012.015.573.006 1.147.003 1.72-.165.003-.33.003-.495 0a92.504 92.504 0 0 1 0-1.732Zm-4.522.34a32 32 0 0 1 .48 0c.002.165.002.33 0 .495a16 16 0 0 1-.48 0 34.197 34.197 0 0 1 0-.496Zm-7.694.351c.57-.061 1.146-.012 1.718-.03.148-.002.295.004.442.02.002.166.002.333 0 .5-.72-.002-1.438.003-2.157-.003a14.604 14.604 0 0 1-.003-.486Zm-3.229.368.236-.23c.208 0 .416 0 .624.003.002.158.002.316 0 .473-.129.003-.257.004-.387.005.003.375-.002.75.003 1.125.613.002 1.226-.004 1.84.003.002.155.002.31 0 .464l-.455.002c-.544-.006-1.089.009-1.633-.007a.532.532 0 0 1-.223-.232c-.014-.535-.002-1.07-.005-1.606Zm12.717.312c.082-.077.164-.154.248-.229.53.005 1.06.001 1.59.002l.24.23.001 1.572c-.161.002-.323.001-.484-.004 0-.44-.003-.882.002-1.323h-1.114c.001.134 0 .268-.003.403-.159.002-.318.002-.476.002-.006-.218-.004-.435-.004-.653Zm3.403.926c.588-.383 1.182-.756 1.775-1.13.142.095.281.194.419.293l-1.28.814c.627.007 1.253 0 1.88.004.002.166.002.333 0 .5-.931.002-1.862.003-2.792 0a20.81 20.81 0 0 1-.002-.48Zm-6.654.095c.59-.392 1.199-.757 1.789-1.15.14.098.279.196.421.29-.408.286-.84.536-1.257.813.623.01 1.246-.002 1.869.006.004.171.004.343-.001.514-.932.006-1.864.002-2.796.002-.024-.157-.024-.316-.025-.474Zm-6.125-.423c.259.396.518.792.774 1.189.275-.392.52-.804.793-1.198.005.267.001.534.004.801-.272.397-.52.81-.798 1.201-.258-.393-.508-.792-.776-1.178-.003-.272-.006-.544.003-.815Zm2.838 1.016a5.51 5.51 0 0 1 .003-.508c.163-.002.327-.001.49.012.003.165.003.33-.001.496-.164.001-.328.002-.492 0Zm2.307.245c.165-.002.331-.003.496-.001.005.615 0 1.23.003 1.846a6.93 6.93 0 0 0-.352.021l-.15-.027c.003-.613-.004-1.227.003-1.84Zm3.418.385c.312-.006.624-.002.935-.003l.575 2.01c-.161 0-.322 0-.483-.004-.136-.512-.285-1.021-.424-1.532-.087-.006-.174-.01-.261-.014L14 18.52c-.16 0-.321 0-.482-.002.196-.667.391-1.334.571-2.005Zm-7.064 1.11c.593-.381 1.186-.765 1.788-1.133.138.097.278.192.415.292-.43.268-.853.55-1.288.81.63.012 1.262-.001 1.893.008.003.166.003.331-.001.497-.935.003-1.87.008-2.805-.002a11.463 11.463 0 0 1-.002-.472Zm4.903-1.012c.174.003.347-.008.52-.03.204.335.444.668.55 1.05l-.488.003a81.412 81.412 0 0 0-.582-1.023Zm6.872.206c.17-.006.341-.006.512-.002v.489c-.17.004-.341.004-.511-.003a14.473 14.473 0 0 1 0-.484Zm-1.253 1.302c.206-.331.426-.652.633-.983.006.245.01.491.004.737.006.092-.061.163-.104.238-.228.337-.447.68-.67 1.02-.27-.402-.53-.808-.797-1.212-.001-.27-.004-.538.003-.806.261.392.508.793.776 1.181.075-.032.11-.113.155-.175Zm-12.664-.476c.436-.015.873-.008 1.31-.005.003.162.013.325-.008.486-.433.02-.868.01-1.301.003a26.04 26.04 0 0 1-.001-.484Zm5.32 1.054c.699-.01 1.398 0 2.097-.005l.24.241c-.003.535-.002 1.07-.001 1.605-.07.073-.14.147-.208.222-.224.005-.448.006-.672-.001.003-.151-.017-.306.02-.454.126-.013.253-.008.38-.01.002-.374 0-.748.002-1.122-.62-.004-1.24.008-1.86-.006a18.376 18.376 0 0 1 .001-.47Zm-3.361.178c.163-.002.327-.002.49.002.003.163.003.327.001.49-.164.003-.328.003-.492.002a16.614 16.614 0 0 1 0-.494Zm8.654.265c.186-.156.354.104.512.18v.058c-.413.267-.836.52-1.241.8l.234-.001c.125 0 .25.001.376.004 0 .163 0 .327-.002.49-.51.008-1.019.006-1.528.002a7.963 7.963 0 0 1-.013-.463c.543-.373 1.111-.709 1.662-1.07Zm-7.735.454c.661-.003 1.323-.006 1.985.001v.49c-.662.01-1.324.005-1.986.002-.003-.165-.002-.33.001-.493Zm1.763 1.256c.186-.002.372-.003.559.001.172.343.402.66.534 1.021-.167.01-.333.01-.5.01-.204-.34-.395-.689-.593-1.032Zm3.303.521c.163 0 .326.002.488.012.003.163.002.327-.019.489h-.465a9.949 9.949 0 0 1-.004-.5Zm-1.134 1.62c0-.38-.009-.76.005-1.14.165 0 .33.008.492.023.002.372.002.745 0 1.117a15.31 15.31 0 0 1-.497 0Z" fill="#fff"/></svg>