<svg width="24" height="24" viewBox="0 0 24 24" fill="none" xmlns="http://www.w3.org/2000/svg">
<g clip-path="url(#clip0)">
<path d="M12.1016 2.38721C12.1651 2.52689 12.2032 2.67927 12.2793 2.80625C16.1143 8.92689 19.9619 15.0348 23.7968 21.1428C23.8857 21.2824 23.9746 21.4221 24 21.6253C20.0254 17.5237 16.0635 13.4221 12.0635 9.29514C8.07617 13.4221 4.10157 17.5237 0.126969 21.6253C0.101572 21.6126 0.0888734 21.5999 0.0634766 21.5872C0.139667 21.4602 0.203159 21.3459 0.27935 21.219C4.11427 15.111 7.96189 8.99038 11.7968 2.86975C11.8857 2.71737 11.9492 2.55229 12.0127 2.38721H12.1016Z" fill="#ED1C24"/>
<path d="M17.4987 17.854H6.62891C7.30192 17.1556 7.91145 16.508 8.54637 15.8858C8.60986 15.8223 8.76224 15.7969 8.87653 15.7969H15.2511C15.3654 15.7969 15.5305 15.8223 15.6067 15.8985C16.2289 16.5334 16.8257 17.1683 17.4987 17.854Z" fill="#ED1C24"/>
<path d="M10.0059 14.2221C10.717 13.5872 11.4281 12.9523 12.0376 12.4062C12.6725 12.965 13.3836 13.5999 14.1074 14.2475C14.082 14.2729 14.0567 14.311 14.044 14.3364H10.0947C10.0694 14.311 10.0313 14.2602 10.0059 14.2221Z" fill="#ED1C24"/>
</g>
<defs>
<clipPath id="clip0">
<rect width="24" height="24" fill="white"/>
</clipPath>
</defs>
</svg>
