<svg width="24" height="24" fill="none" xmlns="http://www.w3.org/2000/svg"><g clip-path="url(#a)"><path d="M23.973.027H.027v23.946h23.946V.027Z" fill="#000" stroke="#000" stroke-miterlimit="10"/><path d="M20.332 6.934c-.283-.223-.62-.528-1.236-.604-.576-.077-1.164.31-1.561.566-.398.255-1.149 1.006-1.459 1.235-.31.229-1.105.44-2.384 1.208-1.278.768-6.296 3.99-6.296 3.99l1.306.016-5.823 2.998h.582l-.838.637s.74.196 1.36-.196v.18s6.934-2.732 8.273-2.025l-.817.24c.071 0 1.388.087 1.388.087a1.87 1.87 0 0 0 .838 1.35c.795.522.811.81.811.81s-.414.169-.414.381c0 0 .61-.185 1.176-.168.36.013.716.07 1.061.168 0 0-.043-.228-.593-.38-.55-.153-1.094-.752-1.36-1.078a1.524 1.524 0 0 1-.224-1.492c.19-.495.855-.767 2.226-1.474 1.617-.838 1.987-1.459 2.215-1.943.229-.484.566-1.448.757-1.9.24-.582.533-.892.778-1.077.245-.185 1.333-.593 1.333-.593s-.832-.724-1.1-.936Z" fill="#fff"/></g><defs><clipPath id="a"><path fill="#fff" d="M0 0h24v24H0z"/></clipPath></defs></svg>