<svg width="24" height="24" viewBox="0 0 24 24" fill="none" xmlns="http://www.w3.org/2000/svg">
<path d="M12 24C18.6274 24 24 18.6274 24 12C24 5.37258 18.6274 0 12 0C5.37258 0 0 5.37258 0 12C0 18.6274 5.37258 24 12 24Z" fill="#5BC1D4"/>
<path fill-rule="evenodd" clip-rule="evenodd" d="M10.3387 12.6958L9.10125 13.9888C8.8785 14.2213 8.66025 14.456 8.43675 14.687C8.39925 14.726 8.346 14.7493 8.30025 14.78C8.20275 14.7643 8.12775 14.7035 8.115 14.615C8.09429 14.4803 8.07579 14.3453 8.0595 14.21C8.037 14.0315 7.98225 13.982 7.8015 13.9595C7.42875 13.9145 7.05675 13.8658 6.684 13.817L5.8335 13.7068C5.664 13.6843 5.6025 13.5628 5.691 13.418C5.895 13.0895 6.1005 12.7625 6.30525 12.4355L7.55775 10.4345C7.60725 10.3535 7.66275 10.298 7.76925 10.301C7.83675 10.3025 7.90725 10.286 7.974 10.2688C8.0535 10.2493 8.11575 10.2733 8.17125 10.3258C8.2695 10.418 8.36925 10.5095 8.46675 10.6025L9.59775 11.6758C9.8415 11.9068 10.0875 12.1363 10.3312 12.3673C10.4572 12.4858 10.4573 12.5713 10.3387 12.6958ZM18.6562 14.435C18.7268 14.4935 18.8032 14.549 18.8182 14.6488C18.837 14.7763 18.786 14.8685 18.678 14.9383C18.0405 15.3508 17.403 15.7655 16.7655 16.1788L15.5333 16.9775C15.4944 17.0021 15.4573 17.0295 15.4222 17.0593C15.3912 17.0848 15.3665 17.1172 15.3503 17.1539C15.334 17.1906 15.3265 17.2306 15.3285 17.2708C15.3345 17.4245 15.3435 17.5783 15.3458 17.7313C15.348 17.9075 15.2183 18.0178 15.0413 17.9975C14.9775 17.9891 14.9196 17.956 14.88 17.9053C14.7318 17.7342 14.5838 17.563 14.436 17.3915C14.2507 17.177 14.0662 16.961 13.8802 16.7473C13.8419 16.709 13.8129 16.6625 13.7954 16.6113C13.7778 16.56 13.7722 16.5055 13.779 16.4518L13.8045 15.5555C13.8075 15.4505 13.8698 15.383 13.9537 15.329L14.9722 14.678C15.5422 14.3143 16.1138 13.952 16.6823 13.5845C16.8022 13.5073 16.914 13.484 17.046 13.5515C17.1435 13.601 17.2537 13.61 17.3595 13.577C17.5177 13.5268 17.6392 13.571 17.7615 13.679C18.054 13.937 18.3577 14.183 18.657 14.435H18.6562ZM13.1827 15.179C13.229 15.2242 13.262 15.2813 13.278 15.344C13.3057 15.4843 13.2502 15.5795 13.1182 15.6433C12.6795 15.8548 12.2415 16.0685 11.799 16.2733C11.7195 16.3093 11.6198 16.3138 11.529 16.3183C11.1623 16.3348 10.7955 16.3445 10.4288 16.3595C10.212 16.3678 9.996 16.3813 9.7965 16.3918H9.6495C9.61625 16.3926 9.58317 16.3867 9.55224 16.3745C9.52132 16.3622 9.49318 16.3439 9.4695 16.3205C9.423 16.2778 9.375 16.2365 9.32925 16.193C9.07125 15.9478 8.81775 15.698 8.5545 15.458C8.4075 15.3245 8.40525 15.1453 8.5455 15.002C8.86125 14.6765 9.17325 14.348 9.48675 14.0195C9.825 13.6655 10.1633 13.31 10.5008 12.9545C10.5264 12.9244 10.5579 12.8998 10.5933 12.8823C10.6288 12.8648 10.6675 12.8548 10.707 12.8528C10.7465 12.8509 10.7859 12.857 10.823 12.8709C10.86 12.8848 10.8938 12.9061 10.9222 12.9335L12.2723 14.2753C12.5753 14.5768 12.8812 14.8753 13.1827 15.179ZM15.0413 9.14227C14.8965 8.91878 15.06 8.60978 15.3007 8.57003C15.9442 8.46278 16.5855 8.33978 17.2283 8.22803C17.37 8.20328 17.4825 8.26853 17.5605 8.38553C17.6955 8.58803 17.8282 8.79128 17.9618 8.99453C18.2437 9.42203 18.5265 9.84953 18.8055 10.2785C18.843 10.3363 18.8618 10.406 18.8895 10.4698L18.873 10.4773C18.8684 10.5868 18.8278 10.6917 18.7575 10.7758C18.3645 11.3038 17.967 11.8295 17.5748 12.3583C17.5377 12.4052 17.4898 12.4424 17.4352 12.4666C17.3806 12.4908 17.3209 12.5014 17.2612 12.4973C17.2016 12.4932 17.1439 12.4747 17.0931 12.4433C17.0422 12.4119 16.9998 12.3685 16.9695 12.317C16.3958 11.3645 15.816 10.415 15.2385 9.46478C15.1733 9.35678 15.1095 9.24727 15.0413 9.14227ZM13.9125 11.7913L13.8 12.7925C13.7685 13.07 13.7347 13.346 13.7032 13.6235L13.5922 14.5985C13.5847 14.6668 13.584 14.7365 13.5697 14.8025C13.5623 14.8348 13.5382 14.876 13.5112 14.8865C13.4842 14.897 13.4362 14.882 13.4122 14.8618C13.3057 14.7695 13.2045 14.672 13.1025 14.5753C12.735 14.2273 12.3698 13.8785 12.0023 13.532C11.6828 13.2298 11.3625 12.9298 11.0415 12.6298C10.935 12.5308 10.9342 12.4993 11.037 12.392L12.5055 10.8545L13.5082 9.80153L14.0002 9.28403C14.0145 9.26903 14.0265 9.24878 14.0438 9.24278C14.079 9.23003 14.1225 9.21278 14.1532 9.22253C14.1788 9.23153 14.1908 9.27728 14.1982 9.29003L14.1232 9.95003L14.0265 10.7983L13.9125 11.7913ZM16.767 12.5563C16.815 12.6335 16.8225 12.707 16.77 12.7873C16.7128 12.8773 16.6884 12.9843 16.701 13.0903C16.71 13.1848 16.671 13.2425 16.5907 13.2928C15.963 13.691 15.3383 14.0923 14.7128 14.4928C14.5163 14.6188 14.3197 14.744 14.1225 14.8685C14.0445 14.918 13.9643 14.9143 13.9215 14.8513C13.8975 14.8168 13.8945 14.7688 13.8878 14.7448L13.9703 14.1388L14.154 12.8023L14.3565 11.3398L14.5538 9.90953L14.6287 9.37703C14.6302 9.36278 14.631 9.34628 14.6385 9.33578C14.658 9.31103 14.6798 9.27428 14.7045 9.26977C14.7315 9.26528 14.7735 9.28628 14.7908 9.30953C14.8365 9.37103 14.8733 9.43928 14.9137 9.50528L16.38 11.9173C16.509 12.1303 16.6365 12.344 16.767 12.5555V12.5563ZM13.7272 8.87828C13.7505 8.89328 13.7955 8.90903 13.8195 8.94128C13.8563 8.99078 13.824 9.03728 13.7858 9.07702L13.2758 9.61328L11.7892 11.1688C11.4787 11.495 11.1698 11.8228 10.8593 12.1483C10.7467 12.2653 10.6568 12.2653 10.5398 12.1543C10.1775 11.8108 9.81525 11.4658 9.45225 11.123C9.09975 10.79 8.74575 10.4578 8.39175 10.1255C8.3445 10.0805 8.307 10.0318 8.31225 9.96278C8.31975 9.86903 8.37375 9.81578 8.481 9.79778C8.67675 9.76253 8.87325 9.72802 9.06975 9.69427L10.956 9.36428L13.1835 8.97353L13.7272 8.87828ZM8.673 9.35228C9.0225 9.11303 9.372 8.87528 9.72225 8.63753L13.1047 6.33353C13.2172 6.25703 13.2885 6.27278 13.3447 6.39428C13.578 6.89378 13.8097 7.39403 14.0422 7.89428C14.0722 7.95878 14.1007 8.02403 14.1315 8.08928C14.1562 8.14178 14.1398 8.18453 14.1083 8.23178C14.0673 8.28969 14.0326 8.35179 14.0048 8.41703C13.98 8.47928 13.9425 8.51303 13.875 8.52503C13.377 8.61353 12.8798 8.70503 12.3825 8.79353L10.617 9.11077L8.6895 9.45727C8.6625 9.46178 8.63475 9.45727 8.607 9.45727L8.5905 9.42653C8.61825 9.40178 8.643 9.37328 8.673 9.35228ZM5.1555 10.4968C4.935 10.4923 4.80375 10.2778 4.9095 10.0805C4.99875 9.91403 5.09775 9.75353 5.19375 9.59078C5.46975 9.11903 5.74725 8.64878 6.02175 8.17703C6.06654 8.09999 6.13133 8.0365 6.20925 7.99328C6.94125 7.57253 7.67175 7.14953 8.40375 6.72803C8.45022 6.69959 8.5012 6.6793 8.5545 6.66803C8.60447 6.65816 8.65623 6.66313 8.7034 6.68232C8.75058 6.70151 8.79111 6.73408 8.82 6.77603C8.85195 6.81701 8.87136 6.86636 8.87589 6.91813C8.88041 6.9699 8.86986 7.02187 8.8455 7.06778C8.73525 7.30328 8.6205 7.53653 8.508 7.77053C8.298 8.19953 8.088 8.62777 7.88025 9.05753C7.86057 9.10502 7.82993 9.14719 7.79082 9.18056C7.75171 9.21393 7.70525 9.23757 7.65525 9.24953C7.56221 9.27171 7.47712 9.31917 7.40935 9.38667C7.34159 9.45417 7.2938 9.53908 7.27125 9.63203C7.25986 9.67792 7.23661 9.72002 7.20384 9.75411C7.17107 9.7882 7.12991 9.81309 7.0845 9.82628C6.483 10.0378 5.88225 10.2538 5.2815 10.4675C5.241 10.4825 5.19825 10.487 5.15625 10.4975L5.1555 10.4968ZM8.27025 9.12728C8.27323 9.09598 8.28187 9.06548 8.29575 9.03728L9.08175 7.31453C9.24525 6.95603 9.411 6.59828 9.57225 6.23903C9.60975 6.15653 9.6645 6.11528 9.7575 6.11153C10.0028 6.10403 10.248 6.09128 10.4932 6.08153L11.9407 6.02678C12.1102 6.01928 12.2805 6.00803 12.4507 5.99978C12.5722 5.99453 12.6555 6.06803 12.6562 6.18728C12.6615 6.26003 12.615 6.30728 12.555 6.34853L12.0915 6.66428L9.321 8.54903L8.436 9.15203C8.41536 9.16763 8.39326 9.18119 8.37 9.19253C8.3175 9.21503 8.26725 9.18353 8.27025 9.12728ZM7.248 10.3648C7.12575 10.562 7.002 10.7578 6.879 10.9543C6.41925 11.6893 5.9595 12.425 5.499 13.1593C5.48001 13.1945 5.45456 13.2258 5.424 13.2515C5.3445 13.3085 5.23875 13.2688 5.20125 13.169C5.14125 13.0085 5.08425 12.8465 5.0265 12.6853L4.52475 11.2738C4.51275 11.2385 4.5045 11.2025 4.5 11.1853C4.50075 11.09 4.53225 11.0495 4.6215 11.0203C4.8885 10.934 5.1555 10.8493 5.4225 10.7645L6.93375 10.2845L7.1325 10.223C7.17975 10.208 7.227 10.1878 7.266 10.2403C7.30125 10.2875 7.272 10.3265 7.248 10.3648ZM19.3365 12.3215L19.488 13.1885C19.4925 13.2163 19.4955 13.2448 19.5 13.2815C19.4925 13.319 19.4842 13.364 19.4722 13.4075L19.2735 14.1245C19.2165 14.3308 19.053 14.3795 18.888 14.24C18.5498 13.955 18.21 13.67 17.8702 13.3865C17.793 13.322 17.7607 13.2478 17.7787 13.1458C17.8008 13.0442 17.7886 12.9382 17.7443 12.8443C17.6978 12.752 17.7128 12.6703 17.7735 12.5893C18.051 12.2173 18.3263 11.8438 18.603 11.4718L18.7717 11.2438C18.828 11.1665 18.9023 11.129 18.9967 11.15C19.0958 11.1725 19.1468 11.24 19.1632 11.3368L19.3358 12.3215H19.3365ZM13.6635 6.36353L13.6485 6.33203C13.6283 6.28703 13.62 6.23453 13.6658 6.20903C13.7059 6.19102 13.7513 6.18836 13.7933 6.20153C13.8593 6.22178 13.9185 6.25928 13.9808 6.29003L16.5023 7.54928L16.95 7.77428C17.0002 7.79903 17.04 7.82828 17.0295 7.89128C17.019 7.95353 16.9718 7.96703 16.917 7.97678C16.311 8.08478 15.7058 8.19428 15.1005 8.30303L15.0413 8.31503C15.024 8.30378 14.991 8.29103 14.97 8.26703C14.9161 8.1992 14.8482 8.14379 14.7709 8.10458C14.6936 8.06536 14.6088 8.04326 14.5223 8.03978C14.4548 8.03678 14.4203 7.99703 14.3948 7.94078C14.2883 7.70978 14.1795 7.48028 14.0723 7.25003L13.6635 6.36353Z" fill="white"/>
</svg>
