<svg width="24" height="24" viewBox="0 0 24 24" fill="none" xmlns="http://www.w3.org/2000/svg">
<g clip-path="url(#clip0)">
<path d="M0 4.49414H24V19.4951L0 19.4953V4.49414Z" fill="white"/>
<path d="M0 4.49433H6.85484C5.6609 5.33902 4.69436 6.45978 4.02037 7.76752C3.34619 9.07508 2.99693 10.5208 2.99693 11.9908C2.99693 13.4608 3.34619 14.9147 4.02037 16.2223C4.69455 17.53 5.6609 18.6508 6.85484 19.4953H0V4.49414V4.49433ZM11.996 4.49433C10.0386 4.49433 8.1624 5.28212 6.77361 6.68719C5.39287 8.09226 4.61313 10.001 4.61313 11.9908C4.61313 13.9806 5.39287 15.8893 6.77361 17.2944C8.15435 18.6994 10.0386 19.4872 11.996 19.4872C13.9532 19.4872 15.8294 18.6994 17.2183 17.2944C18.5991 15.8893 19.3788 13.9808 19.3788 11.9908C19.3788 10.001 18.5991 8.09226 17.2183 6.68719C15.8376 5.28212 13.9534 4.49433 11.996 4.49433ZM24 4.49433H17.1452C18.3391 5.33902 19.3056 6.45978 19.9796 7.76752C20.6538 9.07508 21.0029 10.5208 21.0029 11.999C21.0029 13.469 20.6536 14.9228 19.9796 16.2305C19.3055 17.5381 18.3391 18.6588 17.1452 19.5035H24V4.49433Z" fill="#F7931A"/>
<path d="M15.2607 9.79445C14.9277 8.84419 14.0181 8.7304 12.954 8.90109L12.621 7.55273L11.8089 7.75581L12.1338 9.0716C11.9227 9.1285 11.7033 9.18521 11.4922 9.24211L11.1673 7.91827L10.3552 8.12135L10.6881 9.46952C10.5176 9.51819 10.3389 9.56704 10.1764 9.60765V9.5996L9.05566 9.88391L9.27503 10.7612C9.27503 10.7612 9.86797 10.5987 9.85974 10.615C10.1845 10.5338 10.3389 10.6962 10.4121 10.8587L10.7937 12.4019C10.8263 12.3938 10.8506 12.3856 10.883 12.3856L10.7937 12.4099L11.3215 14.5704C11.3296 14.676 11.3135 14.8628 11.0861 14.9197C11.1023 14.9277 10.4931 15.0658 10.4931 15.0658L10.5743 16.0891L11.6302 15.8211C11.8252 15.7724 12.02 15.7237 12.2068 15.6829L12.5398 17.0474L13.3519 16.8443L13.0189 15.4879C13.2464 15.4392 13.4575 15.3824 13.6686 15.3337L14.0016 16.6819L14.8137 16.4788L14.4807 15.1143C15.8209 14.6921 16.6899 14.0991 16.4868 12.767C16.3243 11.695 15.7233 11.3539 14.903 11.362C15.3172 10.9964 15.504 10.493 15.2603 9.79445H15.2607ZM14.8465 13.0025C15.0982 14.0259 13.3439 14.3426 12.7998 14.4808L12.353 12.6695C12.9053 12.5396 14.5865 11.9467 14.8465 13.0025ZM13.8475 10.5497C14.0749 11.4756 12.613 11.7354 12.1582 11.8492L11.752 10.2086C12.2068 10.0868 13.6037 9.57509 13.8474 10.5497H13.8475Z" fill="white"/>
</g>
<defs>
<clipPath id="clip0">
<rect width="24" height="24" fill="white"/>
</clipPath>
</defs>
</svg>
