<svg width="24" height="24" viewBox="0 0 24 24" fill="none" xmlns="http://www.w3.org/2000/svg">
<path fill-rule="evenodd" clip-rule="evenodd" d="M21.1695 15.3212C21.1695 15.3212 21.0766 17.1659 18.84 19.1043C16.6034 21.0427 12.2018 22.6822 12.2018 22.6822C12.2018 22.6822 7.67145 20.7971 5.33081 18.8359C2.82355 16.7351 3.23399 15.3212 3.23399 15.3212V2.84617L12.2134 1.41329L21.1695 2.84617V15.3212ZM12.1972 0.0229492L2.40516 2.0409V15.6449C2.40516 15.6449 2.18764 17.2826 4.69174 19.4777C7.19579 21.6728 12.1845 23.9825 12.1845 23.9825C12.1845 23.9825 16.9844 21.8842 19.4234 19.7704C21.8625 17.6566 21.9637 15.6449 21.9637 15.6449V2.0409L12.1972 0.0229492Z" fill="#372F45"/>
<path fill-rule="evenodd" clip-rule="evenodd" d="M12.1816 0.0260712V1.41832L12.213 1.41329L21.1691 2.84617V15.3212C21.1691 15.3212 21.0762 17.1659 18.8395 19.1043C16.603 21.0427 12.2013 22.6822 12.2013 22.6822C12.2013 22.6822 12.1942 22.6792 12.1816 22.6739V23.9813C12.1827 23.9818 12.1841 23.9825 12.1841 23.9825C12.1841 23.9825 16.984 21.8842 19.423 19.7704C21.862 17.6566 21.9633 15.6449 21.9633 15.6449V2.0409L12.1968 0.0229492L12.1816 0.0260712Z" fill="#5C4D7D"/>
<path fill-rule="evenodd" clip-rule="evenodd" d="M12.0604 2.38818L3.9696 3.65994L3.95233 14.8855C3.95233 14.8855 3.61999 16.357 6.00297 18.3536C8.22765 20.2176 12.1825 21.7784 12.1825 21.7784C12.1825 21.7784 16.0694 20.0748 18.2814 18.3371C20.7003 16.437 20.3426 14.6564 20.3426 14.6564L20.3206 3.68994L12.0604 2.38818Z" fill="#372F45"/>
<path fill-rule="evenodd" clip-rule="evenodd" d="M20.3204 3.68994L12.0602 2.38818L5.46777 3.42438C6.60246 12.4425 12.5327 16.2688 19.9002 16.5208C20.4993 15.4394 20.3424 14.6564 20.3424 14.6564L20.3204 3.68994Z" fill="#5C4D7D"/>
<path fill-rule="evenodd" clip-rule="evenodd" d="M13.6398 5.20215H9.07422V6.29493H13.4886V6.29742C15.026 6.34917 16.2485 7.20386 16.2485 9.01976C16.2485 10.7265 15.026 11.6837 13.4886 11.742H13.4886C13.4389 11.7439 13.3889 11.7448 13.3385 11.7448L9.2709 11.742V17.7783H10.4392V12.8366C10.5354 12.8438 13.6398 12.8486 13.6398 12.8486C15.7669 12.8486 17.4911 11.1369 17.4911 9.02527C17.4911 6.91386 15.7669 5.20215 13.6398 5.20215Z" fill="white"/>
<path fill-rule="evenodd" clip-rule="evenodd" d="M8.23047 9.46793H12.95V8.52734H8.23047V9.46793Z" fill="white"/>
</svg>
