<svg width="24" height="24" fill="none" xmlns="http://www.w3.org/2000/svg"><g clip-path="url(#a)"><path d="M12.247 14.572c.15 1.083.022 2.276.967 3.248.552.568.335 1.443-.245 1.94a1.582 1.582 0 0 1-2.07.024c-.621-.52-.868-1.417-.298-2.005.934-.976.849-2.152.96-3.315.028-.285.173-.663-.297-.78-.429-.106-.754-.65-1.313-.186-.913.76-2.06 1.216-2.446 2.555-.237.814-1.197 1.073-1.959.767a1.563 1.563 0 0 1-1.007-1.726c.153-.833.912-1.533 1.748-1.32 1.249.318 2.18-.305 3.199-.751.217-.096.647-.174.507-.47-.236-.484.193-1.19-.446-1.482-1.002-.457-1.92-1.146-3.181-.79-.869.243-1.626-.39-1.8-1.231a1.646 1.646 0 0 1 1.13-1.91c.808-.228 1.736.163 1.94 1.023.32 1.288 1.496 1.606 2.326 2.316.057.049.2.09.23.06.379-.362.855-.581 1.268-.881.27-.197.064-.653.033-.99-.075-.854-.15-1.676-.827-2.379-.609-.632-.45-1.547.174-2.094a1.575 1.575 0 0 1 2.141.033c.603.563.719 1.459.118 2.106-.536.578-.708 1.216-.793 1.95-.162 1.332-.02 1.613 1.196 2.169.115.054.214.099.313.017.82-.682 1.969-.986 2.307-2.22a1.563 1.563 0 0 1 2.034-1.115c.758.25 1.215 1.125 1.026 1.963a1.521 1.521 0 0 1-1.931 1.157c-1.276-.386-2.186.385-3.141.884-.478.246-.191 1.002-.38 1.51-.106.287.388.348.63.459 1.009.477 1.962 1.015 3.203.694.797-.208 1.528.521 1.64 1.325a1.531 1.531 0 0 1-1.025 1.716c-.776.274-1.686-.023-1.92-.868-.386-1.39-1.587-1.841-2.563-2.555-.52-.37-1.478.379-1.448 1.152ZM12.948 0l8.856 5.101c-1.506 1.162-1.8 1.183-3.3.315a1720.81 1720.81 0 0 0-4.34-2.508c-1.356-.781-1.54-1.21-1.216-2.908ZM1.975 18.893c1.116-.998 2.13-1.154 3.353-.319 1.333.91 2.778 1.643 4.186 2.457 1.455.844 1.587 1.137 1.3 2.97l-8.84-5.108ZM2.005 5.094 10.825 0c.329 1.717.16 2.11-1.215 2.903C8.186 3.73 6.71 4.478 5.35 5.4c-1.208.821-2.227.712-3.345-.306ZM21.779 18.845l-8.798 5.14c-.36-1.64-.16-2.107 1.186-2.887 1.45-.838 2.952-1.606 4.34-2.538 1.17-.792 2.164-.714 3.272.285Z" fill="#09CBCD"/><path d="M1 6.86c1.443.414 2.007 1.263 1.91 2.72-.118 1.637-.026 3.299-.028 4.936 0 1.583-.24 1.91-1.877 2.476L1 6.86ZM22.772 17.016c-1.708-.694-1.856-.9-1.856-2.614V8.855a1.924 1.924 0 0 1 1.575-1.895c.497-.099.347.276.347.481.014 1.443 0 2.886 0 4.329v5.027a1.09 1.09 0 0 1-.066.218Z" fill="#08CBCD"/></g><defs><clipPath id="a"><path fill="#fff" d="M0 0h24v24H0z"/></clipPath></defs></svg>