<svg width="24" height="24" fill="none" xmlns="http://www.w3.org/2000/svg"><g clip-path="url(#a)"><path d="M15.134 9.338c.882.378 1.728.82 2.433 1.484 2.256 2.131 3.066 4.731 2.217 7.71-.827 2.9-2.819 4.715-5.783 5.315-4.394.889-8.519-2.204-8.971-6.65a7.107 7.107 0 0 1-.03-.715V5.754c0-1.571.562-2.915 1.645-4.049.07-.073.125-.168.235-.194a.514.514 0 0 1-.031.275c-.256.816-.414 1.644-.279 2.505.137.885.51 1.63 1.248 2.169.256.233.554.417.878.54.267.17.572.24.873.32.216.101.444.172.68.21.198.103.41.177.63.222.302.133.615.24.936.318l.873.312c.207.108.43.186.659.23.217.13.452.227.697.289.36.158.714.326 1.09.437Z" fill="#1C191A"/><path d="M15.135 9.337c-.375-.11-.73-.278-1.088-.436.232-.138.329-.317.213-.59-.038-.089-.015-.205-.015-.312V2.012c0-.172.036-.348-.085-.51-.083-.11.004-.166.115-.182.21-.014.293.17.414.281.265.246.514.509.693.828-.217.168-.139.401-.138.619v5.226c0 .137 0 .273-.083.388-.15.209-.125.374.105.499l-.131.176Z" fill="#818181"/><path d="M13.987 1.403c-.072-.102.01-.153.116-.167.2-.012.282.158.4.263.264.223.492.485.675.778a.331.331 0 0 0-.136.218c-.018.127.006.269.006.406v5.295a.987.987 0 0 1-.029.29.417.417 0 0 1-.048.105c-.136.211-.114.382.093.517l-.133.152a9.361 9.361 0 0 1-1.06-.423c.215-.147.303-.33.197-.602-.036-.09-.013-.206-.013-.312V1.91c-.001-.03 0-.061.003-.091.02-.138.023-.281-.07-.415Z" fill="gray"/><path d="M13.817 1.298c-.063-.093.016-.14.117-.152.187-.01.272.147.386.246.254.207.476.453.656.728a.305.305 0 0 0-.129.222c-.007.128.01.27.011.408v5.364c.005.098-.004.197-.026.293a.452.452 0 0 1-.043.108c-.125.213-.105.39.08.532l-.133.136a9.687 9.687 0 0 1-1.034-.41c.197-.156.277-.345.18-.615-.033-.092-.011-.207-.011-.311V1.8a.455.455 0 0 1 .005-.091.51.51 0 0 0-.06-.412Z" fill="#7F7F7F"/><path d="M13.645 1.198c-.053-.084.024-.125.119-.137.18-.008.26.136.374.228a3.1 3.1 0 0 1 .638.678.282.282 0 0 0-.125.225c.004.125.016.272.016.409v5.434c.004.1-.004.2-.024.298a.493.493 0 0 1-.04.11c-.112.217-.094.398.068.548l-.133.119a10.098 10.098 0 0 1-1.007-.397c.18-.164.25-.358.164-.624-.03-.094-.01-.209-.01-.312V1.701a.344.344 0 0 1 .006-.09.467.467 0 0 0-.046-.413Z" fill="#7E7E7E"/><path d="M13.474 1.095c-.043-.075.03-.113.12-.125.17-.006.249.125.357.21.236.178.445.39.62.629-.077.067-.125.137-.117.229.014.136.02.273.02.41V7.95c.004.101-.004.203-.022.303a.546.546 0 0 1-.035.112c-.1.218-.086.405.054.561l-.133.102c-.336-.104-.656-.25-.98-.384a.61.61 0 0 0 .148-.638c-.028-.095-.01-.21-.01-.316V1.585c0-.03.003-.061.009-.091.086-.117.044-.265-.03-.399Z" fill="#7D7D7D"/><path d="M13.304.992c-.034-.067.036-.1.12-.107.16-.004.24.114.344.191.227.163.43.358.6.58-.075.067-.128.136-.11.232.02.136.028.274.024.411v5.573c.003.103-.003.205-.02.307a.627.627 0 0 1-.03.116c-.088.221-.076.413.041.58l-.133.086c-.326-.103-.638-.24-.953-.37a.698.698 0 0 0 .132-.651 1.36 1.36 0 0 1-.01-.318V1.485c0-.03.005-.061.012-.091.105-.119.052-.271-.017-.402Z" fill="#7C7C7C"/><path d="M13.133.889c-.025-.058.041-.087.121-.092.15 0 .23.103.33.174.219.147.415.324.585.526-.075.069-.132.136-.106.236.026.136.036.275.029.413v5.642c.003.104-.003.209-.017.312a.719.719 0 0 1-.028.117.714.714 0 0 0 .03.595l-.134.069c-.316-.1-.62-.232-.926-.358a.81.81 0 0 0 .114-.662 1.542 1.542 0 0 1-.007-.32V1.375c0-.03.004-.061.013-.091.124-.111.059-.262-.004-.395Z" fill="#7B7B7B"/><path d="M12.962.786c-.014-.05.048-.073.125-.077.14 0 .219.092.315.156.21.133.4.294.565.479-.074.07-.134.137-.1.24.032.135.043.275.034.414v5.711c.002.104-.003.208-.015.312a.863.863 0 0 1-.024.119.925.925 0 0 0 .017.612l-.134.052c-.306-.1-.602-.224-.9-.345a.971.971 0 0 0 .099-.675 1.802 1.802 0 0 1-.007-.321V1.266c0-.031.005-.062.015-.091.145-.104.067-.256.01-.39Z" fill="#7B7B7B"/><path d="M12.792.682c-.005-.04.055-.062.124-.062.13 0 .209.081.302.137.2.118.383.262.545.428-.073.07-.137.136-.095.243.05.125.039.275.039.416v5.781a2.85 2.85 0 0 1-.013.319c-.004.042-.01.084-.02.125-.05.206-.05.422.004.627l-.133.036c-.296-.098-.584-.216-.873-.332a1.2 1.2 0 0 0 .082-.686 2.151 2.151 0 0 1-.006-.323V1.165a.217.217 0 0 1 .017-.091c.166-.104.076-.258.027-.392Z" fill="#7A7A7A"/><path d="M12.62.579c.006-.032.063-.046.126-.047.119.004.197.071.286.12.192.104.37.232.529.38-.071.072-.14.137-.09.25.058.125.044.276.044.417v5.85c0 .11 0 .218-.01.324a1.406 1.406 0 0 1-.015.124 1.99 1.99 0 0 0-.01.644l-.133.018c-.287-.096-.565-.209-.846-.318a1.55 1.55 0 0 0 .062-.7 2.71 2.71 0 0 1-.004-.325V1.06a.187.187 0 0 1 .019-.09c.189-.101.086-.257.043-.39Z" fill="#797979"/><path d="M12.45.476c.014-.023.067-.033.125-.032.108.006.187.063.273.103.182.089.354.2.51.33-.07.072-.143.136-.084.249.066.124.048.276.048.418v5.92c0 .11 0 .22-.007.327 0 .042-.006.084-.012.124a4.037 4.037 0 0 0-.022.659h-.134c-.276-.094-.547-.2-.819-.305a2.14 2.14 0 0 0 .05-.712c-.01-.105-.004-.217-.004-.327V.943c0-.044.007-.083.02-.091.192-.114.09-.242.056-.376Z" fill="#787878"/><path d="M12.28.366a.257.257 0 0 1 .124-.017c.09.013.178.042.259.085a2.5 2.5 0 0 1 .492.28c-.07.073-.146.137-.078.253.068.116.052.278.053.42v5.988c0 .111 0 .222-.006.332 0 .043-.004.086-.007.129-.02.232-.018.459-.035.675l-.134-.015c-.266-.092-.529-.193-.792-.292.037-.239.048-.481.033-.723-.007-.107 0-.219 0-.329V.835c0-.047.008-.085.022-.092.216-.107.1-.244.068-.377Z" fill="#777"/><path d="M12.11.254a.513.513 0 0 1 .125-.005c.084.013.166.035.245.067.165.06.324.137.473.23-.068.075-.15.139-.072.258.077.12.057.278.057.422v6.058c0 .112 0 .224-.003.335 0 .044 0 .088-.004.132 0 .23-.016.462-.047.69l-.134-.031c-.257-.09-.51-.188-.766-.279.019-.244.024-.49.017-.736-.003-.109 0-.22 0-.33V.717c0-.048.009-.086.024-.091.242-.091.108-.239.085-.372Z" fill="#767676"/><path d="m12.686 8.383-.873-.312V.815c0-.102-.007-.284.028-.294.265-.077.115-.237.096-.371.285.024.562.107.815.242-.067.075-.153.139-.067.261s.062.28.062.423v6.467c-.002.28.012.565-.06.84Z" fill="#757575"/><path d="M11.746.187c.142.004.283.025.42.062.137.038.27.087.4.146-.063.075-.146.139-.063.26.083.12.062.275.062.418v6.395c0 .277.01.558-.062.83a55.427 55.427 0 0 1-.872-.338 416.231 416.231 0 0 1-.004-7.12c0-.1-.005-.277.029-.288.125-.04.153-.092.149-.155V.382c-.014-.065-.05-.133-.06-.195Z" fill="#747474"/><path d="M11.555.222c.142-.002.283.013.421.045.138.03.272.072.403.124-.062.075-.137.14-.056.257.081.118.063.274.063.415V7.387c0 .274.008.55-.068.82a30.3 30.3 0 0 1-.871-.363c-.016-.778-.026-1.56-.03-2.344-.011-1.548 0-3.094.022-4.639 0-.098-.005-.271.028-.283.116-.042.148-.092.143-.153V.41c-.013-.06-.048-.127-.055-.19Z" fill="#737373"/><path d="M11.363.26c.141-.008.283.002.422.027.138.026.274.062.407.11-.056.075-.13.139-.052.255.078.116.063.27.063.41v3.003c0 .765 0 1.53-.002 2.297 0 .318 0 .636-.004.954 0 .271.005.545-.072.811a16.705 16.705 0 0 1-.45-.192 7.933 7.933 0 0 1-.42-.201c-.023-.761-.038-1.527-.046-2.297-.015-1.52 0-3.036.033-4.554 0-.096-.004-.265.03-.278.11-.043.14-.091.136-.152V.44c-.007-.054-.04-.12-.045-.18Z" fill="#727272"/><path d="M11.171.3c.141-.014.283-.01.424.01.139.019.276.05.41.091-.052.075-.12.14-.046.254.075.114.06.267.063.404V4.03c0 .756-.002 1.512-.005 2.267 0 .312 0 .63-.003.944-.003.267 0 .538-.076.8a14.327 14.327 0 0 1-.453-.204 9.235 9.235 0 0 1-.416-.208 79.923 79.923 0 0 1-.063-2.25c-.02-1.491.004-2.977.044-4.461 0-.095 0-.259.03-.273.104-.045.134-.091.13-.15V.48C11.205.422 11.175.358 11.17.3Z" fill="#717171"/><path d="M10.979.34c.14-.019.283-.021.424-.008.14.014.279.039.415.074-.049.075-.114.139-.041.25.072.11.057.264.062.4V3.993c0 .749-.001 1.497-.004 2.244 0 .312 0 .624-.004.936-.004.263 0 .53-.08.789a10.42 10.42 0 0 1-.868-.438c-.04-.726-.065-1.46-.077-2.203A84.313 84.313 0 0 1 10.861.95c0-.092 0-.25.03-.267.099-.047.129-.09.124-.15v-.01C11.01.458 10.982.396 10.98.34Z" fill="#707070"/><path d="M10.787.382c.14-.024.283-.032.425-.025.14.008.28.027.418.057-.045.074-.105.138-.036.25.076.12.057.26.059.395.003.228.003.456 0 .686v4.429c0 .307 0 .615-.006.922-.005.261-.004.524-.084.78a7.482 7.482 0 0 1-.868-.462 47.385 47.385 0 0 1-.09-2.156c-.032-1.434.004-2.86.062-4.283.003-.09 0-.246.03-.262.093-.05.124-.09.117-.148v-.01c0-.056-.025-.119-.027-.173Z" fill="#6F6F6F"/><path d="M10.594.426c.14-.03.283-.044.426-.043.142.002.283.015.423.04-.042.073-.098.138-.031.25.073.118.055.258.058.39.004.225.004.451.004.676v2.19c0 .731-.002 1.46-.007 2.19 0 .303 0 .608-.005.911-.005.258-.006.518-.088.77a6.86 6.86 0 0 1-.866-.485 40.61 40.61 0 0 1-.107-2.11 55.21 55.21 0 0 1 .076-4.194c.004-.089 0-.239.03-.256.088-.05.118-.09.112-.147v-.01c-.001-.058-.024-.117-.025-.172Z" fill="#6E6E6E"/><path d="M10.402.472c.14-.036.283-.057.427-.062.142-.005.285.002.426.02-.037.074-.09.14-.025.246.071.118.055.256.058.387.004.222.004.444.004.667v2.164c0 .722 0 1.442-.007 2.163 0 .299 0 .6-.006.9-.006.255-.01.511-.091.759a6.206 6.206 0 0 1-.866-.514 34.885 34.885 0 0 1-.124-2.061c-.042-1.377.006-2.744.086-4.106.005-.087 0-.232.03-.25.083-.05.112-.089.106-.145V.632c.002-.05-.018-.106-.018-.16Z" fill="#6D6D6D"/><path d="M10.21.52c.14-.04.283-.067.428-.077.143-.01.287-.01.43.003-.034.073-.08.139-.017.244.068.117.054.252.057.382.005.219.005.436.004.66v2.137c0 .712 0 1.424-.007 2.136 0 .296 0 .594-.006.89-.007.25-.013.504-.096.748a5.424 5.424 0 0 1-.864-.535c-.07-.657-.115-1.33-.139-2.014-.035-1.34-.003-2.68.098-4.017.005-.084 0-.225.03-.245.078-.052.106-.089.1-.145V.68c0-.052-.019-.108-.018-.16Z" fill="#6C6C6C"/><path d="M10.018.57c.139-.046.283-.077.428-.094.145-.017.291-.021.437-.014-.03.073-.074.138-.016.241.066.116.053.25.057.378.006.217.005.437.005.651v2.112c0 .703 0 1.407-.008 2.11-.003.292 0 .586-.006.879-.008.249-.015.499-.1.737a4.859 4.859 0 0 1-.863-.56 25.252 25.252 0 0 1-.154-1.967c-.052-1.32.009-2.626.108-3.93.006-.082.008-.213.031-.239a.133.133 0 0 0 .094-.143V.724c0-.049-.016-.1-.013-.154Z" fill="#6B6B6B"/><path d="M9.826.624c.139-.052.283-.09.43-.113a2.69 2.69 0 0 1 .436-.031c-.027.073-.066.138-.01.238.061.115.051.25.055.375.006.214.006.428.006.643V3.82c0 .695 0 1.39-.009 2.084-.003.288 0 .578-.007.868-.008.245-.018.49-.104.728a4.597 4.597 0 0 1-.863-.585 20.873 20.873 0 0 1-.168-1.92c-.057-1.291.01-2.568.119-3.84.006-.08.008-.206.031-.234A.132.132 0 0 0 9.83.781V.775c.005-.05-.008-.103-.004-.151Z" fill="#6A6A6A"/><path d="M9.634.677c.139-.057.283-.1.43-.13A2.72 2.72 0 0 1 10.506.5c-.023.072-.059.138-.005.237.062.114.05.244.055.369.007.21.006.423.006.635v2.058c0 .686 0 1.372-.01 2.058-.003.284 0 .57-.007.856-.009.242-.021.484-.109.718a4.303 4.303 0 0 1-.861-.61 18.222 18.222 0 0 1-.184-1.87c-.062-1.263.01-2.509.13-3.75.007-.079.01-.2.03-.228a.131.131 0 0 0 .082-.14V.826c.007-.051-.004-.102.001-.15Z" fill="#696969"/><path d="M9.441.731a2.37 2.37 0 0 1 .431-.147c.147-.035.296-.057.446-.067-.019.072-.05.139 0 .235.059.113.05.241.055.364.008.209.007.418.007.627v2.033c0 .677 0 1.355-.01 2.032-.004.28.003.561-.009.845-.009.238-.023.478-.112.708a4.054 4.054 0 0 1-.86-.634 15.944 15.944 0 0 1-.2-1.826c-.066-1.234.012-2.45.14-3.662.008-.076.012-.192.033-.222a.13.13 0 0 0 .074-.14V.875c.008-.047 0-.096.005-.143Z" fill="#696969"/><path d="M9.25.785a2.794 2.794 0 0 1 .881-.249c-.016.072-.043.139.005.233.056.112.05.239.055.36.008.205.007.412.006.619v2.007c0 .668 0 1.337-.01 2.005-.005.277.004.557-.008.835-.01.235-.027.47-.117.697a4.273 4.273 0 0 1-.468-.312 3.845 3.845 0 0 1-.391-.346 14.02 14.02 0 0 1-.21-1.78c-.073-1.206.011-2.392.15-3.573a.935.935 0 0 1 .032-.217.13.13 0 0 0 .067-.138c.007-.048 0-.096.008-.141Z" fill="#686868"/><path d="M9.058.84c.139-.075.284-.136.434-.183.147-.046.299-.08.452-.102a.326.326 0 0 0 .01.23c.054.111.049.236.054.356.009.203.007.407.007.61v1.98c0 .66 0 1.32-.01 1.98-.005.273.003.55-.01.824 0 .234-.04.466-.12.686a4.074 4.074 0 0 1-.47-.322 3.672 3.672 0 0 1-.389-.361 12.378 12.378 0 0 1-.23-1.732c-.077-1.176.013-2.333.161-3.484.003-.071.015-.142.033-.212a.131.131 0 0 0 .062-.136c.013-.045.007-.091.016-.135Z" fill="#676767"/><path d="M8.867.893c.138-.08.283-.146.434-.2.149-.052.302-.092.457-.12a.361.361 0 0 0 .015.23c.051.11.048.232.054.35.01.2.008.401.007.603V3.71c0 .65 0 1.302-.011 1.953-.005.268.004.542-.01.81-.001.232-.043.46-.124.677a3.902 3.902 0 0 1-.471-.333 3.53 3.53 0 0 1-.387-.375 10.968 10.968 0 0 1-.245-1.684c-.083-1.147.014-2.274.172-3.394.005-.07.016-.139.033-.206a.132.132 0 0 0 .056-.136c.01-.042.008-.087.02-.129Z" fill="#666"/><path d="M8.673.947a2.932 2.932 0 0 1 .898-.355.408.408 0 0 0 .02.227c.04.111.057.229.053.346.01.198.009.396.008.595 0 .642 0 1.285.003 1.928.004.642 0 1.285-.012 1.926-.005.265.004.535-.01.802a1.893 1.893 0 0 1-.128.667 3.753 3.753 0 0 1-.473-.345 3.406 3.406 0 0 1-.384-.388 9.745 9.745 0 0 1-.26-1.638c-.088-1.119.014-2.216.182-3.306.006-.067.017-.135.034-.2a.135.135 0 0 0 .05-.135c.007-.04.008-.083.02-.124Z" fill="#656565"/><path d="M8.481 1.002a2.807 2.807 0 0 1 .902-.39.473.473 0 0 0 .025.225c.038.11.055.226.053.342.01.194.01.39.008.586 0 .634 0 1.268.004 1.902.003.633 0 1.267-.014 1.9-.005.261.005.527-.01.791a1.83 1.83 0 0 1-.132.656 3.625 3.625 0 0 1-.474-.355 3.306 3.306 0 0 1-.382-.402 8.68 8.68 0 0 1-.28-1.591c-.092-1.09.016-2.157.194-3.217.007-.065.018-.13.033-.195a.139.139 0 0 0 .044-.133c.014-.038.017-.08.03-.12Z" fill="#646464"/><path d="M8.289 1.056a3.043 3.043 0 0 1 .906-.422.562.562 0 0 0 .03.222c.036.109.054.223.052.337.01.192.01.385.01.579 0 .623 0 1.247.003 1.875.004.628 0 1.248-.013 1.874-.006.257.005.52-.01.78a1.769 1.769 0 0 1-.138.646 3.253 3.253 0 0 1-.854-.782 7.746 7.746 0 0 1-.292-1.544c-.098-1.06.016-2.098.204-3.127.008-.063.02-.125.034-.187a.144.144 0 0 0 .038-.132s0 .004 0 0c.01-.041.016-.081.03-.12Z" fill="#636363"/><path d="M8.097 1.11a2.994 2.994 0 0 1 .91-.46c0 .076.012.151.036.223.034.108.051.22.051.333.011.187.01.379.01.57 0 .616 0 1.232.004 1.849.003.617 0 1.232-.015 1.848-.005.253.006.513-.01.769a1.71 1.71 0 0 1-.142.635 3.173 3.173 0 0 1-.851-.804 6.923 6.923 0 0 1-.306-1.497c-.106-1.036.014-2.044.21-3.042.013-.063.022-.143.035-.187a.152.152 0 0 0 .03-.13v.002c.016-.034.023-.072.038-.11Z" fill="#626262"/><path d="M7.905 1.164a3.093 3.093 0 0 1 .914-.495.936.936 0 0 0 .04.219c.033.106.05.217.05.328.013.187.011.374.01.561 0 .608 0 1.215.005 1.823.003.607 0 1.215-.015 1.822-.007.25.006.505-.012.757a1.652 1.652 0 0 1-.145.624 3.107 3.107 0 0 1-.853-.831 6.2 6.2 0 0 1-.321-1.45c-.108-1.004.018-1.981.225-2.95.013-.062.023-.135.035-.178a.162.162 0 0 0 .025-.13v.005c.016-.033.026-.07.042-.105Z" fill="#616161"/><path d="M7.713 1.218a3.19 3.19 0 0 1 .92-.532c.01.074.025.147.047.219.03.105.047.214.05.324.012.183.011.368.01.554 0 .598 0 1.197.004 1.796s0 1.197-.015 1.796c-.007.245.006.498-.012.748-.01.212-.06.42-.151.613a3.268 3.268 0 0 1-.48-.398 3.05 3.05 0 0 1-.375-.458 5.558 5.558 0 0 1-.336-1.402c-.114-.976.018-1.923.235-2.861.009-.059.02-.117.035-.174a.22.22 0 0 0 .02-.125v.005c.017-.036.03-.07.048-.105Z" fill="#606060"/><path d="M7.52 1.272c.275-.238.588-.43.925-.565.017.07.026.138.05.215.03.104.046.21.05.319.014.18.012.363.012.546 0 .59 0 1.18.003 1.77.004.59 0 1.18-.016 1.77-.006.241.007.49-.012.735-.01.21-.062.416-.154.605a3.002 3.002 0 0 1-.85-.88 4.99 4.99 0 0 1-.353-1.356c-.118-.947.02-1.864.25-2.772.014-.056.02-.124.035-.167a.24.24 0 0 0 .013-.125v.006a.936.936 0 0 1 .048-.1Z" fill="#5F5F5F"/><path d="M7.328 1.326c.275-.25.588-.453.93-.6.019.07.033.139.055.213.027.102.043.206.049.312.014.177.012.357.012.537 0 .582 0 1.163.004 1.747.004.583 0 1.162-.017 1.743-.007.238.007.483-.012.725a1.49 1.49 0 0 1-.157.595 2.962 2.962 0 0 1-.85-.905 4.482 4.482 0 0 1-.369-1.31c-.124-.919.021-1.806.257-2.682.015-.054.024-.115.036-.163a.268.268 0 0 0 .007-.125v.007c.019-.03.035-.062.055-.094Z" fill="#5E5E5E"/><path d="M7.138 1.38A3.493 3.493 0 0 1 8.07.745c.024.07.042.139.063.21.025.103.042.208.048.313.015.174.013.352.012.53 0 .572 0 1.144.005 1.717.004.573 0 1.145-.018 1.717-.007.234.008.476-.013.714a1.44 1.44 0 0 1-.162.585 2.932 2.932 0 0 1-.849-.93 4.03 4.03 0 0 1-.382-1.261c-.129-.89.02-1.747.268-2.594.015-.053.027-.108.036-.158a.306.306 0 0 0 0-.124v.008a1.03 1.03 0 0 1 .059-.092Z" fill="#5D5D5D"/><path d="M7.816 6.46a2.902 2.902 0 0 1-.848-.955A3.628 3.628 0 0 1 6.57 4.29c-.135-.86.023-1.69.279-2.506a.514.514 0 0 0 .03-.274v.009l.066-.086a3.513 3.513 0 0 1 .94-.671c.133.334.128.686.125 1.036 0 .562 0 1.128.005 1.692.004.564 0 1.127-.02 1.69-.013.425.05.877-.179 1.279Z" fill="#5C5C5C"/><path d="M7.142 1.416a3.512 3.512 0 0 1 .923-.645c.037.086.065.175.084.266.01.059.016.119.025.18.014.115.021.23.021.347v.253c0 .573 0 1.146.004 1.719.005.572-.002 1.142-.018 1.708-.005.181 0 .367-.003.552 0 .078-.01.156-.017.232-.016.177-.07.35-.16.503a2.876 2.876 0 0 1-.844-.935l-.07-.153a4.327 4.327 0 0 1-.31-1.133c-.114-.776-.009-1.525.192-2.264.025-.091.05-.183.078-.274a.565.565 0 0 0 .028-.275v.008l.067-.089Z" fill="#5D5D5D"/><path d="M7.337 1.392a3.436 3.436 0 0 1 .907-.62c.039.086.07.176.09.267.005.058.01.118.02.18.017.117.025.234.023.352v.258c0 .582 0 1.164.005 1.746.004.583 0 1.15-.018 1.724-.005.184 0 .375-.003.562 0 .078-.01.158-.016.234a1.103 1.103 0 0 1-.161.505 2.994 2.994 0 0 1-.48-.426 2.85 2.85 0 0 1-.361-.492c-.02-.053-.043-.107-.063-.162a4.996 4.996 0 0 1-.304-1.197c-.108-.785-.008-1.543.187-2.293.024-.092.049-.187.075-.278a.624.624 0 0 0 .034-.28v.007a.91.91 0 0 1 .065-.087Z" fill="#5E5E5E"/><path d="M7.532 1.372a3.361 3.361 0 0 1 .889-.594c.041.086.073.176.096.269 0 .06.005.12.016.18.02.117.028.237.025.356v.262c0 .59 0 1.181.004 1.772 0 .581 0 1.161-.017 1.741-.005.187 0 .375-.003.562 0 .079-.01.16-.015.237a1.02 1.02 0 0 1-.162.507 2.823 2.823 0 0 1-.835-.896 5.753 5.753 0 0 1-.357-1.43c-.104-.795-.008-1.563.18-2.322.024-.094.047-.187.073-.282a.697.697 0 0 0 .036-.283v.007c.022-.029.046-.057.07-.086Z" fill="#5F5F5F"/><path d="M7.728 1.35A3.287 3.287 0 0 1 8.6.781c.044.085.078.176.101.27-.004.06 0 .12.012.18.023.118.033.24.03.36v.267c0 .6 0 1.2.004 1.8 0 .586 0 1.171-.016 1.757-.005.187 0 .379-.004.57 0 .08-.01.161-.014.239a.949.949 0 0 1-.166.51 2.966 2.966 0 0 1-.472-.403 2.797 2.797 0 0 1-.36-.473 1.529 1.529 0 0 0-.055-.18 6.608 6.608 0 0 1-.285-1.323c-.099-.801-.005-1.582.176-2.352.022-.095.044-.187.069-.285a.784.784 0 0 0 .038-.287v.007c.022-.03.046-.06.07-.09Z" fill="#606060"/><path d="M7.924 1.328a3.216 3.216 0 0 1 .854-.542c.047.087.083.179.108.274a.489.489 0 0 0 .007.18c.024.121.034.244.029.366v.27c0 .61 0 1.218.004 1.827 0 .592 0 1.185-.016 1.774-.005.187 0 .382-.004.575 0 .08-.011.163-.013.24a.889.889 0 0 1-.166.514 2.955 2.955 0 0 1-.468-.394 2.772 2.772 0 0 1-.358-.462 1.2 1.2 0 0 0-.05-.187 7.572 7.572 0 0 1-.276-1.391c-.093-.811-.007-1.6.171-2.38.022-.096.043-.193.067-.289a.891.891 0 0 0 .04-.29v.007c.022-.032.046-.063.07-.092Z" fill="#616161"/><path d="M8.12 1.31a3.147 3.147 0 0 1 .837-.517c.05.084.088.174.115.267a.386.386 0 0 0 .003.181c.026.122.037.246.031.37v.275c0 .617 0 1.235.004 1.853 0 .597 0 1.194-.015 1.791-.004.19 0 .386-.003.58 0 .082-.012.165-.012.244a.837.837 0 0 1-.167.516 2.744 2.744 0 0 1-.823-.835 1.013 1.013 0 0 0-.045-.198c-.13-.475-.22-.96-.267-1.45-.09-.822-.007-1.622.165-2.41.021-.096.04-.195.062-.292.028-.095.042-.194.042-.293v.006l.072-.088Z" fill="#626262"/><path d="M8.316 1.286a3.075 3.075 0 0 1 .821-.491c.052.085.092.177.12.274a.319.319 0 0 0 0 .18c.028.123.039.25.032.375v.278c0 .624 0 1.254.004 1.88 0 .603 0 1.206-.014 1.809-.005.192 0 .39-.003.585 0 .083-.013.168-.012.247a.793.793 0 0 1-.169.518 2.932 2.932 0 0 1-.46-.374 2.722 2.722 0 0 1-.357-.442.895.895 0 0 0-.042-.207 9.882 9.882 0 0 1-.257-1.513c-.085-.83-.006-1.638.16-2.438.02-.098.038-.198.062-.297a1.2 1.2 0 0 0 .042-.298v.005l.073-.091Z" fill="#636363"/><path d="M8.513 1.265a3.012 3.012 0 0 1 .803-.466c.055.086.097.178.125.275a.272.272 0 0 0-.005.181c.031.125.043.253.035.38v.283c0 .635 0 1.27.004 1.906 0 .61 0 1.217-.015 1.825-.004.195 0 .393-.003.591 0 .084-.013.17-.01.25a.753.753 0 0 1-.17.52 2.925 2.925 0 0 1-.457-.365 2.698 2.698 0 0 1-.357-.432.815.815 0 0 0-.032-.216 11.258 11.258 0 0 1-.25-1.576c-.08-.84-.006-1.658.155-2.468.02-.099.036-.2.058-.3.025-.098.04-.198.045-.3v.005c.022-.032.047-.063.074-.093Z" fill="#646464"/><path d="M8.71 1.244a2.95 2.95 0 0 1 .786-.44c.057.084.102.177.131.276a.238.238 0 0 0-.01.18c.034.126.047.256.038.386v.286c0 .644 0 1.289.003 1.933 0 .614 0 1.228-.013 1.842-.005.196 0 .397 0 .596 0 .084-.014.172-.01.25a.72.72 0 0 1-.172.524 2.917 2.917 0 0 1-.453-.357 2.674 2.674 0 0 1-.359-.42.759.759 0 0 0-.031-.225 12.812 12.812 0 0 1-.239-1.638 9.005 9.005 0 0 1 .15-2.495c.018-.1.033-.202.055-.304.024-.1.04-.2.047-.302v.004a.917.917 0 0 1 .076-.096Z" fill="#656565"/><path d="M8.906 1.222a2.818 2.818 0 0 1 .77-.412.99.99 0 0 1 .137.279.211.211 0 0 0-.014.18c.047.125.037.26.039.391v.29c0 .654 0 1.31.003 1.961 0 .62 0 1.24-.013 1.858-.003.198 0 .4 0 .602 0 .085-.014.173-.008.253a.686.686 0 0 1-.174.527 2.91 2.91 0 0 1-.45-.347 2.651 2.651 0 0 1-.355-.411.72.72 0 0 0-.026-.234 14.565 14.565 0 0 1-.23-1.703 9.608 9.608 0 0 1 .144-2.525c.018-.101.033-.205.053-.308.023-.1.039-.203.048-.305v.003c.024-.034.049-.067.076-.099Z" fill="#666"/><path d="M9.102 1.201a2.835 2.835 0 0 1 .753-.39c.063.084.11.179.143.279a.192.192 0 0 0-.018.18c.05.126.04.263.04.396v.294c0 .662 0 1.325.004 1.988 0 .624 0 1.247-.012 1.875-.004.2 0 .404 0 .607-.007.085-.01.17-.008.255a.664.664 0 0 1-.175.53 2.903 2.903 0 0 1-.446-.338 2.628 2.628 0 0 1-.355-.401.69.69 0 0 0-.022-.243 16.542 16.542 0 0 1-.22-1.766c-.06-.855-.014-1.714.14-2.557.017-.103.029-.208.049-.312.022-.102.039-.205.05-.308 0 0 0 .003 0 0 .024-.031.05-.06.077-.089Z" fill="#676767"/><path d="M9.298 1.18a2.783 2.783 0 0 1 .736-.363c.065.084.115.18.149.28a.175.175 0 0 0-.022.181c.053.13.041.266.042.4v.299c0 .672 0 1.343.003 2.015 0 .63 0 1.26-.011 1.891-.004.202 0 .408 0 .613a2.17 2.17 0 0 0-.007.257.637.637 0 0 1-.177.532 2.9 2.9 0 0 1-.442-.328 2.606 2.606 0 0 1-.354-.391.669.669 0 0 0-.017-.25 18.309 18.309 0 0 1-.212-1.83c-.058-.864-.014-1.73.131-2.584.017-.103.028-.21.047-.315.019-.106.041-.209.052-.312 0 0 0 .003 0 0 .026-.033.053-.065.082-.095Z" fill="#686868"/><path d="M9.491 1.159A2.735 2.735 0 0 1 10.21.82c.068.084.12.18.155.282a.163.163 0 0 0-.026.181c.056.13.043.269.044.405v.302c0 .68 0 1.361.003 2.042 0 .636 0 1.272-.011 1.908-.004.204 0 .412 0 .618a1.93 1.93 0 0 0-.006.26.617.617 0 0 1-.178.534 2.892 2.892 0 0 1-.437-.318 2.583 2.583 0 0 1-.353-.381.653.653 0 0 0-.012-.261A21.496 21.496 0 0 1 9.187 4.5a11.763 11.763 0 0 1 .125-2.612c.016-.104.026-.212.044-.32.018-.107.04-.21.054-.311a.998.998 0 0 1 .081-.098Z" fill="#696969"/><path d="M9.69 1.138a2.697 2.697 0 0 1 .703-.312c.07.084.123.18.158.283a.153.153 0 0 0-.03.181c.062.133.045.273.046.41v.306c0 .69 0 1.38.003 2.069 0 .641 0 1.283-.01 1.925-.004.206 0 .415 0 .624a1.77 1.77 0 0 0-.005.262.595.595 0 0 1-.18.536 2.89 2.89 0 0 1-.437-.308 2.562 2.562 0 0 1-.353-.374.642.642 0 0 0-.007-.27 24.045 24.045 0 0 1-.192-1.956c-.05-.882-.009-1.767.125-2.641.016-.105.024-.215.041-.323.017-.109.04-.213.056-.318a.95.95 0 0 1 .083-.094Z" fill="#6A6A6A"/><path d="M9.886 1.116a2.657 2.657 0 0 1 .686-.285c.073.083.13.18.167.284a.145.145 0 0 0-.036.18c.063.134.048.277.05.416V4.12c0 .647 0 1.295-.01 1.942-.004.208 0 .419 0 .629a1.63 1.63 0 0 0-.005.265.58.58 0 0 1-.182.54 2.897 2.897 0 0 1-.43-.3 2.542 2.542 0 0 1-.353-.36.633.633 0 0 0 0-.279c-.09-.656-.14-1.33-.182-2.02a13.57 13.57 0 0 1 .116-2.67c.015-.106.022-.216.04-.326.016-.11.037-.216.057-.32a.905.905 0 0 1 .082-.104Z" fill="#6B6B6B"/><path d="M10.083 1.096a2.629 2.629 0 0 1 .669-.26c.076.083.135.18.174.286a.138.138 0 0 0-.04.181c.066.135.05.279.051.42v2.433c0 .653 0 1.306-.01 1.96v.634a1.526 1.526 0 0 0 0 .266.56.56 0 0 1-.188.545 2.89 2.89 0 0 1-.428-.29 2.524 2.524 0 0 1-.35-.348.63.63 0 0 0 0-.288 31.131 31.131 0 0 1-.172-2.082 14.62 14.62 0 0 1 .11-2.7c.015-.107.02-.22.036-.33a3.54 3.54 0 0 1 .063-.324.863.863 0 0 1 .085-.103Z" fill="#6C6C6C"/><path d="M10.28 1.074a2.405 2.405 0 0 1 .65-.235c.077.084.138.182.177.288a.133.133 0 0 0-.043.181c.069.136.051.282.052.426v2.468c0 .658 0 1.316-.01 1.975v.64c-.008.09-.008.18 0 .27a.548.548 0 0 1-.186.544 2.89 2.89 0 0 1-.424-.28 2.496 2.496 0 0 1-.351-.341.624.624 0 0 0 .007-.297 41.878 41.878 0 0 1-.162-2.146c-.044-.911-.009-1.824.105-2.729.013-.108.018-.222.033-.334a3.24 3.24 0 0 1 .063-.327.833.833 0 0 1 .088-.103Z" fill="#6D6D6D"/><path d="M10.474 1.053a2.605 2.605 0 0 1 .634-.21c.08.083.144.182.184.29a.125.125 0 0 0-.047.18c.072.138.053.285.054.43v2.499c0 .664 0 1.328-.009 1.992v.645c-.009.09-.009.181 0 .272a.535.535 0 0 1-.187.547 2.89 2.89 0 0 1-.42-.27 2.476 2.476 0 0 1-.35-.332c.029-.1.033-.204.012-.306a40.498 40.498 0 0 1-.154-2.209c-.041-.92-.008-1.842.1-2.757.013-.11.016-.225.03-.338.013-.112.034-.222.062-.33a.804.804 0 0 1 .09-.103Z" fill="#6D6D6D"/><path d="M10.668 1.032c.098-.043.197-.08.299-.11.104-.033.21-.057.319-.074a.816.816 0 0 1 .187.29.124.124 0 0 0-.07.132c.002.018.008.035.018.05.075.139.056.288.056.436v2.529c0 .67 0 1.34-.008 2.009v.65c-.01.091-.01.183 0 .274a.522.522 0 0 1-.187.55 2.896 2.896 0 0 1-.416-.26 2.456 2.456 0 0 1-.35-.322c.042-.097.028-.205.017-.311a50.474 50.474 0 0 1-.14-2.276c-.039-.93-.006-1.861.096-2.787.012-.11.014-.227.027-.342a2.07 2.07 0 0 1 .063-.333.78.78 0 0 1 .09-.105Z" fill="#6E6E6E"/><path d="M10.863 1.01a2.636 2.636 0 0 1 .603-.158.805.805 0 0 1 .195.29.121.121 0 0 0-.056.182c.078.14.057.292.058.44v2.561c0 .676 0 1.351-.008 2.026v.656c-.01.092-.01.185 0 .276.055.232-.015.406-.187.553a2.907 2.907 0 0 1-.412-.25 2.446 2.446 0 0 1-.35-.311c.046-.1.032-.212.023-.323a50.378 50.378 0 0 1-.136-2.337c-.036-.94-.006-1.88.089-2.815.011-.112.012-.23.024-.347.012-.114.034-.226.068-.336h.003a.755.755 0 0 1 .086-.106Z" fill="#6F6F6F"/><path d="M11.058.99c.092-.033.187-.06.283-.083.099-.024.2-.04.3-.05a.795.795 0 0 1 .202.293.118.118 0 0 0-.062.181c.08.143.062.295.062.446v2.591c0 .68 0 1.362-.007 2.042v.662a1.171 1.171 0 0 0 0 .279c.062.235-.013.408-.191.555a2.428 2.428 0 0 1-.754-.546c.05-.103.036-.217.026-.333a57.49 57.49 0 0 1-.124-2.399 22.152 22.152 0 0 1 .084-2.844c.01-.113.01-.232.021-.35.01-.115.034-.229.07-.339h.003a.737.737 0 0 1 .087-.105Z" fill="#707070"/><path d="M11.252.968c.09-.027.183-.05.276-.069.096-.019.193-.031.291-.037.09.08.162.181.207.294-.068.031-.12.088-.062.182.084.143.062.298.062.45V4.41c0 .686 0 1.372-.006 2.058v.667a1.122 1.122 0 0 0 0 .28c.062.24-.01.413-.194.558a2.926 2.926 0 0 1-.405-.232 2.405 2.405 0 0 1-.348-.29c.053-.106.04-.224.032-.342a69.834 69.834 0 0 1-.116-2.462c-.03-.959-.004-1.918.078-2.874.01-.114.008-.234.02-.354.008-.116.032-.231.07-.342l.004-.004a.716.716 0 0 1 .091-.105Z" fill="#717171"/><path d="M11.447.947a2.9 2.9 0 0 1 .268-.055 2.14 2.14 0 0 1 .282-.026c.093.08.167.182.213.296-.07.03-.125.087-.068.181.087.146.062.302.062.456V4.45c0 .693 0 1.384-.006 2.077V7.2c0 .095-.02.199.004.283.068.241-.008.416-.195.562a2.938 2.938 0 0 1-.402-.223 2.389 2.389 0 0 1-.347-.28c.057-.109.044-.229.037-.35a80.774 80.774 0 0 1-.107-2.526 26.931 26.931 0 0 1 .073-2.903c.01-.115.006-.237.016-.357a1.26 1.26 0 0 1 .076-.346l.003-.004a.696.696 0 0 1 .09-.109Z" fill="#727272"/><path d="M11.641.926a2.109 2.109 0 0 1 .531-.053c.097.08.172.182.22.297-.075.029-.133.085-.073.181.09.147.062.306.066.46V4.494c0 .698-.002 1.396-.006 2.094v.678c0 .096-.02.2.005.285.072.244-.005.419-.196.562a2.95 2.95 0 0 1-.398-.214 2.37 2.37 0 0 1-.347-.27c.062-.11.049-.235.042-.36a94.255 94.255 0 0 1-.098-2.589c-.027-.983 0-1.959.068-2.931.008-.116.004-.24.013-.361.007-.12.032-.237.075-.349l.004-.004a.685.685 0 0 1 .094-.109Z" fill="#737373"/><path d="M11.836.907c.081-.012.167-.022.253-.028.088-.005.176-.005.264 0 .098.08.175.182.224.298-.078.028-.138.085-.077.182.094.148.067.308.068.464V4.538c0 .703-.002 1.406-.005 2.11v.685c0 .097-.02.203.005.289.077.249 0 .421-.198.565a2.967 2.967 0 0 1-.395-.204 2.353 2.353 0 0 1-.346-.26c.063-.113.053-.24.046-.368-.042-.873-.066-1.76-.088-2.652-.024-.993 0-1.978.063-2.96.007-.118 0-.243.01-.365.005-.121.031-.24.076-.352l.005-.005a.664.664 0 0 1 .095-.114Z" fill="#747474"/><path d="M12.031.889c.08-.007.162-.013.246-.014.085-.002.17.001.254.01.101.079.18.182.23.3-.081.026-.144.082-.08.18.097.15.07.313.07.47v2.746c0 .707-.002 1.416-.005 2.126v.687c0 .097-.02.204.007.29.08.249 0 .425-.2.568a2.985 2.985 0 0 1-.39-.195 2.338 2.338 0 0 1-.346-.25c.068-.115.057-.245.051-.374-.038-.898-.059-1.803-.078-2.715-.022-1.002 0-1.996.056-2.99.007-.118 0-.244.008-.368.004-.122.03-.243.078-.355l.004-.006a.656.656 0 0 1 .095-.11Z" fill="#757575"/><path d="M12.226.873h.238c.082.002.164.01.245.021a.755.755 0 0 1 .236.302c-.086.024-.151.08-.085.181.099.15.071.312.072.475v2.776c0 .714-.002 1.429-.004 2.143v.694c0 .099-.021.207.007.293.085.252 0 .428-.201.57a3.002 3.002 0 0 1-.387-.187 2.323 2.323 0 0 1-.345-.24c.07-.118.062-.25.056-.386-.033-.92-.052-1.847-.07-2.779-.018-1.01 0-2.015.052-3.018.006-.12 0-.25.004-.375a.95.95 0 0 1 .08-.358l.005-.006a.645.645 0 0 1 .097-.106Z" fill="#767676"/><path d="M12.422.865c.075.003.153.007.231.013.08.007.158.018.236.034.106.077.19.182.243.302-.09.023-.159.08-.09.182.102.152.073.318.073.48v2.807c0 .72 0 1.44-.003 2.16v.7c0 .098-.021.208.009.294.09.256.005.432-.203.574a3.033 3.033 0 0 1-.384-.175 2.312 2.312 0 0 1-.344-.23c.075-.121.062-.258.062-.395-.029-.942-.044-1.89-.062-2.842-.016-1.02-.001-2.036.046-3.048.006-.12-.004-.25 0-.374a.903.903 0 0 1 .082-.361l.005-.007a.636.636 0 0 1 .1-.114Z" fill="#777"/><path d="M12.62.856c.073.009.148.017.223.028.077.01.152.026.227.045a.749.749 0 0 1 .25.304c-.094.021-.165.078-.095.181.106.154.075.321.076.485v5.719c0 .1-.022.21.009.298.094.259.007.436-.205.576a3.056 3.056 0 0 1-.38-.166 2.292 2.292 0 0 1-.343-.22c.078-.125.07-.263.066-.404-.024-.965-.037-1.934-.05-2.906-.013-1.028 0-2.054.04-3.076.006-.125-.006-.25 0-.38.001-.126.03-.25.084-.364l.006-.008a.623.623 0 0 1 .093-.112Z" fill="#787878"/><path d="M12.823.848c.07.013.143.026.215.041.073.015.146.034.217.057.11.077.198.182.254.305-.097.02-.171.077-.098.182.109.155.077.324.077.49v5.772c0 .1-.022.213.01.3.1.261.01.436-.205.579a3.082 3.082 0 0 1-.375-.157c-.12-.06-.235-.13-.343-.21.083-.124.074-.268.07-.413-.019-.986-.03-1.975-.04-2.968-.01-1.04.001-2.075.035-3.106.004-.125-.008-.254-.004-.383 0-.128.03-.254.086-.368l.005-.008a.614.614 0 0 1 .096-.113Z" fill="#797979"/><path d="M13.024.84c.068.018.138.035.208.055.07.02.14.042.208.069a.742.742 0 0 1 .26.306c-.1.02-.178.076-.102.182.111.157.079.327.079.494v5.827c0 .102-.023.215.011.302.103.264.012.442-.208.581a3.114 3.114 0 0 1-.374-.146 2.26 2.26 0 0 1-.342-.2c.086-.128.078-.275.075-.422a366.782 366.782 0 0 1-.031-3.031 91.417 91.417 0 0 1 .03-3.135c.003-.125-.01-.257-.007-.388a.79.79 0 0 1 .087-.37l.006-.009a.605.605 0 0 1 .1-.115Z" fill="#7A7A7A"/><path d="M13.227.831c.062.023.133.046.2.07.068.023.134.05.198.08a.74.74 0 0 1 .266.307c-.104.018-.187.075-.107.182.115.16.082.332.082.5v5.878c0 .103-.024.217.012.305.107.267.015.445-.21.584a3.149 3.149 0 0 1-.368-.138 2.247 2.247 0 0 1-.342-.187c.09-.13.082-.28.08-.43a588.65 588.65 0 0 1-.021-3.096c-.007-1.056 0-2.11.024-3.164 0-.124-.013-.258-.01-.391a.761.761 0 0 1 .09-.375l.006-.009a.6.6 0 0 1 .1-.116Z" fill="#7B7B7B"/><path d="m13.428.823.193.083c.064.028.127.058.187.093a.738.738 0 0 1 .272.311c-.108.017-.19.073-.11.182.116.16.082.335.083.505V7.931c0 .103-.023.218.013.307.112.27.017.448-.212.587a3.18 3.18 0 0 1-.364-.125 2.236 2.236 0 0 1-.342-.18c.093-.134.087-.286.086-.44-.005-1.051-.01-2.104-.013-3.158-.003-1.065.003-2.129.02-3.192 0-.125-.015-.262-.013-.396a.735.735 0 0 1 .09-.374l.007-.01a.593.593 0 0 1 .104-.127Z" fill="#7C7C7C"/><path d="M14.273 1.326c-.111.015-.197.072-.115.182.12.161.085.337.085.51v5.987c0 .104-.023.22.015.312.116.273.02.452-.213.59a3.221 3.221 0 0 1-.362-.12 2.219 2.219 0 0 1-.34-.169c.096-.136.09-.292.09-.449V4.947c0-1.074.004-2.148.013-3.221 0-.3-.099-.652.187-.907.125.067.25.125.365.201.119.074.214.18.275.306Z" fill="#7D7D7D"/><path d="M13.44.754c.25.118.521.221.66.481-.1.022-.175.081-.101.188.029.045.048.096.056.15.012.116.015.233.009.35.002 2 .002 4.001 0 6.002 0 .104-.022.22.013.312.106.27.019.454-.196.6a2.783 2.783 0 0 1-.719-.292c.091-.138.092-.292.096-.447V7.91c0-2.084-.01-4.168.01-6.252v-.073c-.009-.28-.082-.593.173-.831Z" fill="#7C7C7C"/><path d="M13.251.693c.253.104.525.21.678.45-.092.028-.153.092-.09.197a.311.311 0 0 1 .04.145c.008.102.006.23.007.346V7.85c0 .104-.021.22.011.312.096.269.017.456-.18.61a2.958 2.958 0 0 1-.737-.29c.086-.139.095-.29.102-.445 0-.062.004-.125.004-.187-.003-2.082-.009-4.165.008-6.247V1.53c-.01-.283-.091-.595.157-.837Z" fill="#7B7B7B"/><path d="M13.06.632c.257.089.53.2.695.42a.132.132 0 0 0-.093.082c-.007.02-.01.042-.007.063.003.022.01.042.023.06a.27.27 0 0 1 .023.14v6.377c0 .105-.02.22.01.312a.542.542 0 0 1-.163.624 3.142 3.142 0 0 1-.751-.297c.07-.138.106-.29.107-.444a2.65 2.65 0 0 0 .007-.187c-.004-2.08-.01-4.16.006-6.24v-.074c-.008-.283-.099-.59.143-.836Z" fill="#7A7A7A"/><path d="M12.863.57c.262.075.535.187.713.391a.149.149 0 0 0-.062.212.175.175 0 0 1 .006.135c.01.084 0 .223 0 .337v6.05c0 .105-.018.219.01.312a.6.6 0 0 1-.147.632 3.336 3.336 0 0 1-.774-.297 1.17 1.17 0 0 0 .114-.442c.005-.063.01-.121.009-.184-.006-2.078-.01-4.157.005-6.237v-.074c-.01-.277-.109-.585.126-.835Z" fill="#797979"/><path d="M12.667.51c.271.054.523.18.73.363a.174.174 0 0 0-.052.219.149.149 0 0 1-.01.13c.004.076-.003.22-.003.333v6.069c-.01.104-.007.209.008.312a.682.682 0 0 1-.13.642 3.54 3.54 0 0 1-.792-.3 1.39 1.39 0 0 0 .12-.44c.006-.06.01-.122.01-.183-.007-2.077-.009-4.154.004-6.23v-.073c-.004-.283-.113-.588.115-.843Z" fill="#787878"/><path d="M12.47.448c.273.047.53.161.749.331-.054.051-.063.13-.04.227a.138.138 0 0 1-.027.125c0 .067-.006.215-.006.326v6.087c-.009.105-.006.21.007.315a.79.79 0 0 1-.115.653 3.76 3.76 0 0 1-.81-.302c.06-.139.102-.286.124-.436.01-.06.014-.122.014-.183a860.87 860.87 0 0 1 0-6.224v-.073c-.001-.284-.117-.588.104-.846Z" fill="#777"/><path d="M12.273.387c.275.04.538.142.767.299-.044.057-.044.14-.028.233a.13.13 0 0 1-.043.122c-.006.06-.01.213-.01.322v6.103c-.007.106-.005.212.007.317a.941.941 0 0 1-.098.664 3.984 3.984 0 0 1-.828-.304c.058-.141.102-.288.131-.437.01-.06.016-.121.016-.182a740.791 740.791 0 0 1 0-6.219v-.073c-.004-.282-.129-.582.086-.845Z" fill="#777"/><path d="M12.076.327c.282.015.556.147.785.271-.034.062-.021.148-.014.24a.132.132 0 0 1-.063.117c-.01.106-.014.212-.012.318v6.12c-.006.106-.005.212.005.318.041.228.013.463-.081.674a4.223 4.223 0 0 1-.845-.307c.055-.142.1-.288.136-.436a.936.936 0 0 0 .018-.183c-.01-2.07-.01-4.141 0-6.212v-.073c-.004-.283-.136-.582.071-.847Z" fill="#767676"/><path d="M11.88.266c.286 0 .561.136.802.241-.025.069 0 .158 0 .25a.135.135 0 0 1-.077.112c-.015.103-.02.207-.016.312v6.136c-.005.107-.003.213.005.32.033.23.011.465-.063.685a4.474 4.474 0 0 1-.863-.312c.045-.149.109-.282.142-.436.014-.06.02-.12.02-.182-.01-2.069-.01-4.138 0-6.206v-.073c-.01-.282-.151-.577.05-.847Z" fill="#757575"/><path d="M11.674.205c.29-.014.565.125.82.211-.016.075.022.168.01.256a.147.147 0 0 1-.093.107c-.02.035-.019.203-.019.309V7.24c0 .107-.006.217.003.32.024.233.007.469-.049.696a4.74 4.74 0 0 1-.881-.312c.04-.15.11-.28.148-.432a.735.735 0 0 0 .022-.181 616.229 616.229 0 0 1-.004-6.201v-.073c.002-.285-.149-.58.043-.853Z" fill="#747474"/><path d="M11.472.145c.295-.028.57.116.838.181-.006.08.044.177.023.263-.01.04-.042.075-.11.103-.026.026-.022.2-.022.304v6.17c0 .108-.005.217 0 .322.015.236.004.473-.033.706a5.017 5.017 0 0 1-.898-.312c.033-.152.112-.28.154-.43a.662.662 0 0 0 .024-.181c-.012-2.066-.009-4.13-.005-6.196v-.073c0-.287-.159-.579.03-.857Z" fill="#737373"/><path d="M11.269.086c.3-.043.575.105.855.15.004.087.067.188.036.272-.014.038-.054.062-.125.097-.032.015-.025.196-.025.3v6.509c.008.24.002.479-.016.717a5.312 5.312 0 0 1-.917-.316c.028-.153.115-.28.16-.43a.609.609 0 0 0 .027-.18c-.013-2.063-.01-4.126-.006-6.19V.944c-.004-.286-.17-.575.01-.857Z" fill="#727272"/><path d="M11.937.149c.02.134.17.294-.095.371-.035.01-.029.192-.029.294V8.07a5.618 5.618 0 0 1-.935-.319c.03-.212.196-.365.195-.607-.015-2.086-.01-4.172-.007-6.257 0-.287-.176-.573 0-.86.302-.057.578.098.871.122Z" fill="#717171"/><path d="M11.64 8.005a5.19 5.19 0 0 1-.906-.306c.014-.22.168-.39.166-.637-.013-2.063-.008-4.125-.007-6.187 0-.28-.144-.562 0-.838.305-.062.585.069.88.094.004.143.137.312-.099.406-.03.226-.025.605-.025.913 0 2.185.002 4.37-.008 6.555Z" fill="#707070"/><path d="M11.47 7.942a4.785 4.785 0 0 1-.88-.295c-.003-.228.14-.413.138-.667-.011-2.04-.006-4.078-.007-6.118 0-.272-.112-.544 0-.816.305-.069.588.043.887.067-.013.152.104.328-.102.441-.026.444-.019 1.018-.019 1.531-.004 1.953 0 3.906-.018 5.857Z" fill="#6F6F6F"/><path d="M11.3 7.879a4.408 4.408 0 0 1-.85-.283c-.02-.236.11-.436.109-.696-.011-2.016-.007-4.031-.007-6.048 0-.265-.081-.53 0-.795.304-.074.592.016.893.04-.029.16.07.346-.106.476-.022.658-.018 1.43-.018 2.15-.001 1.719.007 3.439-.021 5.156Z" fill="#6E6E6E"/><path d="M11.12 7.817a4.047 4.047 0 0 1-.821-.27c-.038-.244.08-.46.08-.726-.008-1.996 0-3.986-.006-5.979 0-.258-.049-.516 0-.774.304-.08.598-.01.902.013-.045.169.038.362-.109.511-.018.873-.014 1.843-.015 2.768-.001 1.486.01 2.974-.031 4.457Z" fill="#6D6D6D"/><path d="M10.942 7.756a3.71 3.71 0 0 1-.793-.258c-.054-.25.052-.484.052-.755-.005-1.97 0-3.94-.005-5.91 0-.25-.017-.502 0-.753.303-.085.6-.035.908-.013-.063.178.005.379-.113.546-.014 1.09-.011 2.256-.011 3.386 0 1.253.013 2.508-.038 3.757Z" fill="#6D6D6D"/><path d="M10.765 7.696a3.394 3.394 0 0 1-.764-.246c-.072-.26.022-.508.022-.784 0-1.947 0-3.894-.004-5.84 0-.244.015-.488 0-.733.306-.09.607-.06.917-.04-.078.187-.028.396-.116.582-.01 1.305-.008 2.668-.008 4.004 0 1.02.014 2.042-.046 3.057Z" fill="#6C6C6C"/><path d="M10.591 7.64a3.092 3.092 0 0 1-.736-.235c-.09-.268-.007-.532-.007-.811 0-1.924 0-3.847-.004-5.771 0-.237.047-.474.003-.711.304-.098.61-.089.922-.069-.094.196-.062.413-.12.616-.004 1.524-.004 3.083-.004 4.623 0 .787.017 1.576-.054 2.357Z" fill="#6B6B6B"/><path d="M10.418 7.584a2.811 2.811 0 0 1-.708-.224c-.107-.276-.035-.555-.035-.843.003-1.901.003-3.799-.004-5.7 0-.23.08-.459.004-.69.3-.09.616-.122.929-.093-.11.204-.094.43-.125.65v5.24c0 .556.02 1.112-.06 1.66Z" fill="#6A6A6A"/><path d="M10.247 7.53a2.55 2.55 0 0 1-.679-.21c-.125-.283-.062-.579-.062-.873.003-1.878.003-3.755 0-5.633 0-.223.11-.445.004-.668.3-.102.619-.143.936-.121-.125.213-.125.447-.125.686.004 1.954.004 3.909 0 5.863-.006.319.017.642-.074.956Z" fill="#696969"/><path d="M9.7.237c.152-.045.307-.074.465-.085.154-.01.31-.008.463.008-.12.21-.12.436-.119.674.005.732.008 1.465.01 2.198.002 1.188.002 2.376 0 3.563 0 .315.02.633-.07.941a1.815 1.815 0 0 1-.341-.044c-.117-.026-.232-.062-.348-.097-.093-.2-.09-.408-.074-.618a4.14 4.14 0 0 0 .011-.25V3.639c0-.906-.002-1.817-.006-2.734 0-.223.105-.446.01-.667Z" fill="#6A6A6A"/><path d="M9.895.328c.152-.038.306-.059.462-.063.154-.003.307.006.458.029-.116.205-.115.432-.111.662a364.837 364.837 0 0 1 .013 5.661c0 .313.016.625-.07.926-.115.008-.23.005-.344-.009a3.879 3.879 0 0 1-.356-.062c-.097-.198-.094-.404-.076-.615.008-.082.013-.165.014-.25V3.722c0-.905-.002-1.815-.005-2.73.001-.22.1-.444.015-.663Z" fill="#6B6B6B"/><path d="M10.09.413c.152-.03.307-.042.461-.039.152.004.303.02.453.05-.11.202-.108.424-.105.65a214.188 214.188 0 0 1 .019 5.561c0 .304.014.61-.072.909-.114.02-.23.028-.345.026-.12 0-.24-.013-.364-.027-.102-.195-.099-.4-.076-.61.009-.082.015-.165.016-.25V3.802c0-.903-.002-1.812-.005-2.726 0-.22.093-.445.018-.662Z" fill="#6C6C6C"/><path d="M10.286.49c.152-.022.305-.028.458-.018.15.011.3.035.447.07-.106.2-.102.417-.097.639a169.116 169.116 0 0 1 .024 5.463c-.004.298.011.599-.073.891a1.842 1.842 0 0 1-.345.063c-.121.01-.245.01-.375.008-.106-.193-.104-.396-.077-.606.01-.083.017-.166.018-.25V3.871c0-.903-.002-1.81-.005-2.722.003-.22.09-.444.025-.66Z" fill="#6D6D6D"/><path d="M10.48.556a2.17 2.17 0 0 1 .456.006c.149.018.296.048.44.09-.1.197-.094.41-.088.628a132.908 132.908 0 0 1 .029 5.363c-.005.293.009.588-.074.873a1.887 1.887 0 0 1-.348.096 3.613 3.613 0 0 1-.381.043c-.111-.19-.11-.392-.08-.602.013-.082.02-.164.02-.246V3.932c0-.901 0-1.807-.004-2.718.004-.22.084-.444.03-.658Z" fill="#6E6E6E"/><path d="M10.676.623c.151-.006.303.004.453.029.148.025.294.062.436.111-.094.192-.088.401-.08.615a109.072 109.072 0 0 1 .034 5.264c-.005.289.006.577-.075.86a1.948 1.948 0 0 1-.348.131c-.129.034-.259.06-.39.078-.116-.187-.115-.388-.08-.598.014-.081.022-.163.023-.245V3.997c0-.9-.001-1.805-.004-2.715 0-.222.075-.445.03-.659Z" fill="#6F6F6F"/><path d="M10.872.696c.152.001.303.018.45.05.148.033.291.077.43.133-.088.187-.081.394-.073.603a90.966 90.966 0 0 1 .04 5.164c-.006.283.004.567-.075.844a2.017 2.017 0 0 1-.35.166 3.37 3.37 0 0 1-.399.113c-.12-.187-.12-.384-.08-.594.014-.08.022-.162.024-.244V4.063c0-.9 0-1.802-.002-2.71 0-.221.067-.446.035-.657Z" fill="#707070"/><path d="M11.066.768c.152.01.302.034.449.074.145.04.287.09.424.153-.084.187-.075.386-.066.591a76.504 76.504 0 0 1 .045 5.066c-.007.277 0 .555-.077.827-.11.079-.228.146-.351.202a3.302 3.302 0 0 1-.407.147c-.124-.183-.124-.38-.082-.59a1.38 1.38 0 0 0 .027-.244V4.131c0-.898-.001-1.8-.004-2.707.003-.222.065-.447.042-.656Z" fill="#717171"/><path d="M11.254.841c.151.017.3.048.446.094.144.047.284.106.418.175-.078.182-.068.379-.058.58.03.627.052 1.258.062 1.891.02 1.031.016 2.056-.013 3.075-.008.272 0 .544-.077.81-.11.09-.228.17-.353.237-.134.07-.273.13-.415.182-.13-.18-.13-.374-.083-.587.018-.08.027-.161.03-.243V1.497c0-.223.055-.449.043-.656Z" fill="#727272"/><path d="M11.442.914c.151.025.3.064.444.118.142.054.28.12.412.195-.073.179-.062.37-.051.568a56.405 56.405 0 0 1 .056 4.867c-.009.266-.004.533-.079.794a2.29 2.29 0 0 1-.354.272 3.273 3.273 0 0 1-.423.217c-.134-.179-.136-.375-.084-.583.019-.08.03-.16.031-.242V4.264c0-.896-.001-1.796-.004-2.699.003-.22.053-.446.052-.651Z" fill="#737373"/><path d="M11.628.986c.152.033.3.08.442.141.141.062.277.134.407.217-.067.174-.055.363-.043.556a49.519 49.519 0 0 1 .062 4.768c-.01.26-.007.521-.08.777a2.402 2.402 0 0 1-.355.307 3.295 3.295 0 0 1-.432.25c-.138-.176-.141-.37-.085-.58.02-.078.031-.159.033-.24V4.33c0-.894-.001-1.792-.004-2.694.003-.221.047-.448.055-.651Z" fill="#747474"/><path d="M11.816 1.06c.15.04.296.096.437.164.14.069.274.148.401.237-.062.172-.048.356-.035.544a43.75 43.75 0 0 1 .067 4.668c-.01.255-.01.511-.08.761-.108.126-.227.24-.357.342a3.335 3.335 0 0 1-.44.287c-.143-.173-.147-.365-.086-.575.021-.078.034-.158.036-.24v-2.85c0-.895-.002-1.792-.004-2.69.004-.221.043-.448.061-.648Z" fill="#757575"/><path d="M12.003 1.13c.151.05.297.112.437.188.138.076.27.162.396.258-.057.168-.043.348-.028.532a38.578 38.578 0 0 1 .072 4.569c-.011.25-.012.499-.082.745a2.627 2.627 0 0 1-.358.375c-.14.119-.29.226-.449.321-.147-.17-.152-.36-.086-.571a.939.939 0 0 0 .037-.239V4.463c0-.893-.001-1.788-.004-2.686.006-.217.028-.433.065-.646Z" fill="#767676"/><path d="M12.19 1.203c.152.056.299.126.437.21.137.082.268.175.39.278-.051.164-.035.34-.02.52a34.115 34.115 0 0 1 .078 4.469c-.012.244-.015.489-.082.728a2.76 2.76 0 0 1-.36.413c-.142.131-.295.25-.457.356-.152-.168-.158-.357-.088-.568a.884.884 0 0 0 .04-.238V4.53c0-.89 0-1.785-.003-2.682 0-.217.023-.433.066-.645Z" fill="#777"/><path d="M12.379 1.276c.15.064.295.142.432.232.136.09.265.19.385.3-.046.161-.03.333-.013.509a30.578 30.578 0 0 1 .083 4.37c-.013.239-.018.478-.084.712a2.89 2.89 0 0 1-.36.447c-.145.144-.3.274-.467.391-.156-.166-.162-.353-.088-.561a.835.835 0 0 0 .042-.237V4.6c0-.889-.002-1.781-.004-2.677a2.629 2.629 0 0 1 .074-.647Z" fill="#787878"/><path d="M12.566 1.348c.15.072.294.157.43.255.134.097.261.204.38.32-.041.157-.023.325-.006.5.054.535.09 1.075.11 1.62a27.47 27.47 0 0 1-.022 2.648c-.014.234-.02.467-.084.696a3.02 3.02 0 0 1-.362.482 3.65 3.65 0 0 1-.475.426c-.161-.163-.169-.35-.09-.561a.788.788 0 0 0 .044-.237V4.664c0-.889 0-1.78-.003-2.674-.006-.217.02-.433.078-.642Z" fill="#787878"/><path d="M12.753 1.42c.15.08.294.173.428.277.133.105.258.219.374.342-.026.16-.026.324 0 .484.058.522.096 1.052.118 1.586.038.861.03 1.725-.024 2.586a3.25 3.25 0 0 1-.085.68 3.158 3.158 0 0 1-.364.516 3.762 3.762 0 0 1-.482.461c-.166-.16-.174-.345-.09-.555a.748.748 0 0 0 .045-.236c.004-.056.004-.112.004-.168V2.061c-.002-.22.005-.448.076-.64Z" fill="#797979"/><path d="M12.941 1.493c.15.088.293.188.426.3.132.111.255.232.368.362-.02.157-.018.316.01.472.063.509.101 1.025.125 1.548.04.84.031 1.684-.026 2.524a3.27 3.27 0 0 1-.086.663 3.297 3.297 0 0 1-.365.553c-.149.18-.313.346-.492.496-.17-.159-.18-.341-.091-.552a.712.712 0 0 0 .048-.235c.003-.055.003-.111.003-.167V2.132c-.002-.22-.002-.448.08-.639Z" fill="#7A7A7A"/><path d="M13.13 1.565c.15.096.29.204.423.323.13.119.25.247.362.383a1.6 1.6 0 0 0 .017.46c.063.5.107.999.132 1.51.042.82.033 1.643-.027 2.463a3.296 3.296 0 0 1-.087.647 3.447 3.447 0 0 1-.366.588c-.15.191-.317.369-.5.53-.174-.156-.186-.337-.092-.547a.681.681 0 0 0 .05-.234c.004-.055.004-.111.004-.167V2.204c-.004-.22-.01-.449.083-.639Z" fill="#7B7B7B"/><path d="M13.316 1.638c.15.103.29.218.421.345.13.125.248.26.357.404-.011.15-.003.3.025.448.067.483.112.974.139 1.471.044.8.034 1.603-.028 2.403-.01.212-.04.423-.09.63-.1.22-.224.429-.367.624a4.122 4.122 0 0 1-.508.565c-.18-.154-.191-.334-.094-.544a.652.652 0 0 0 .053-.233c.004-.055.004-.11.004-.167V2.275c-.003-.22-.014-.45.088-.637Z" fill="#7C7C7C"/><path d="M13.504 1.71c.15.11.29.233.42.367.127.133.244.275.35.425-.006.146.005.293.033.437.07.47.118.948.145 1.434.047.78.037 1.563-.03 2.342-.01.207-.04.412-.088.614-.101.23-.225.45-.37.654a4.248 4.248 0 0 1-.517.6c-.184-.15-.196-.33-.094-.54a.623.623 0 0 0 .055-.232c.003-.055.003-.11.003-.167V2.342c-.002-.217-.02-.446.093-.632Z" fill="#7D7D7D"/><path d="M13.691 1.783c.15.119.288.249.415.39.127.14.243.29.348.447-.002.142.011.285.04.424.074.457.125.922.152 1.394.049.76.039 1.522-.03 2.28a3.423 3.423 0 0 1-.09.599c-.1.243-.224.475-.371.693-.155.227-.33.44-.525.635-.187-.149-.202-.326-.096-.537a.601.601 0 0 0 .057-.231c.004-.055.004-.111.004-.167V2.416c-.003-.22-.027-.449.096-.633Z" fill="#7E7E7E"/><path d="M13.879 1.855a3.644 3.644 0 0 1 .754.88c.003.139.02.277.048.413.077.449.13.901.16 1.356.05.74.04 1.482-.033 2.22-.014.196-.045.39-.092.58a4.03 4.03 0 0 1-.374.729c-.157.24-.335.464-.534.67-.193-.146-.208-.322-.097-.532a.58.58 0 0 0 .063-.23c.004-.055.004-.11.004-.167V2.487c-.003-.22-.033-.45.1-.632Z" fill="#7F7F7F"/><path d="M14.067 1.928a3.747 3.747 0 0 1 .747.924c.007.135.026.27.055.401.08.436.136.876.166 1.317.053.72.042 1.442-.034 2.16-.015.19-.046.379-.092.564a4.222 4.222 0 0 1-.374.763c-.158.252-.34.487-.542.705-.198-.144-.214-.318-.098-.528a.563.563 0 0 0 .062-.23c.005-.055.005-.11.005-.167V2.558c-.003-.22-.042-.45.105-.63Z" fill="gray"/><path d="M14.254 2a3.866 3.866 0 0 1 .739.966c.012.131.032.261.062.39.084.422.142.85.174 1.28.055.698.044 1.4-.035 2.097a3.67 3.67 0 0 1-.094.549 4.374 4.374 0 0 1-.374.797c-.16.264-.344.512-.55.74-.203-.14-.22-.312-.1-.524a.54.54 0 0 0 .063-.229c.004-.054.004-.11.004-.166V2.63c-.001-.22-.044-.45.111-.629Z" fill="#818181"/><path d="M14.442 2.072a3.987 3.987 0 0 1 .73 1.01c.018.127.041.251.071.375.087.41.147.824.179 1.241.057.678.045 1.36-.036 2.037-.019.18-.05.357-.094.532-.097.29-.222.57-.375.833-.161.276-.35.536-.56.775-.207-.138-.226-.312-.1-.52a.522.522 0 0 0 .065-.228c.005-.055.005-.11.005-.166V2.697c-.002-.217-.05-.448.115-.625Z" fill="#828282"/><path d="M14.63 2.145c.148.157.283.325.405.503.12.176.226.36.32.551.017.119.05.241.077.366.09.396.153.797.187 1.202.06.658.047 1.32-.037 1.975-.02.175-.052.347-.096.517-.095.301-.22.592-.374.868-.162.288-.353.56-.567.81-.211-.135-.231-.306-.101-.516a.506.506 0 0 0 .068-.227c.005-.054.005-.11.005-.165V2.773c-.009-.221-.063-.452.112-.628Z" fill="#838383"/><path d="M14.817 2.218a4.224 4.224 0 0 1 .714 1.098c.024.115.056.233.086.353.094.383.158.772.193 1.165.062.637.049 1.28-.04 1.914a4.188 4.188 0 0 1-.096.499 4.821 4.821 0 0 1-.378.903c-.164.3-.357.582-.576.844-.216-.134-.237-.303-.102-.513a.492.492 0 0 0 .07-.226c.005-.054.005-.11.005-.165V2.841c-.002-.218-.062-.45.124-.623Z" fill="#848484"/><path d="M15.005 2.29a4.337 4.337 0 0 1 .707 1.14l.094.342c.097.37.163.746.2 1.126a7.41 7.41 0 0 1-.041 1.853 4.466 4.466 0 0 1-.097.483 4.965 4.965 0 0 1-.38.936 5.412 5.412 0 0 1-.585.879c-.22-.131-.242-.3-.103-.51a.476.476 0 0 0 .073-.224 1.81 1.81 0 0 0 .006-.166V2.91c-.004-.216-.07-.448.126-.62Z" fill="#858585"/><path d="M15.19 2.361a4.47 4.47 0 0 1 .7 1.184c.034.107.07.218.1.33.1.355.17.72.207 1.087.067.597.053 1.2-.041 1.793a4.888 4.888 0 0 1-.099.467 5.124 5.124 0 0 1-.382.974 5.566 5.566 0 0 1-.592.91c-.225-.128-.25-.296-.104-.505a.466.466 0 0 0 .074-.224c.005-.055.007-.11.006-.165V2.973c-.002-.21-.075-.442.132-.612Z" fill="#868686"/><path d="M15.266 9.168c-.23-.124-.254-.292-.105-.499.082-.114.083-.249.083-.387V3.055c0-.219-.08-.45.138-.619a4.592 4.592 0 0 1 .69 1.228c.165.44.273.9.323 1.367.09.73.04 1.47-.143 2.183a5.278 5.278 0 0 1-.383 1.008c-.17.335-.371.652-.603.946Z" fill="#878787"/><path d="M15.197 2.35a4.446 4.446 0 0 1 .688 1.181c.029.102.067.206.096.312.104.378.176.764.214 1.154.07.621.05 1.25-.056 1.865-.023.125-.056.25-.088.375-.094.334-.221.659-.38.968a5.532 5.532 0 0 1-.592.908c-.218-.13-.242-.297-.098-.506a.514.514 0 0 0 .078-.275V2.973c0-.222-.079-.454.138-.624Z" fill="#868686"/><path d="M15.012 2.264a4.31 4.31 0 0 1 .686 1.136c.02.11.062.22.092.332.1.404.169.815.205 1.23.067.637.05 1.28-.053 1.913-.022.132-.063.256-.092.384a4.921 4.921 0 0 1-.379.927 5.35 5.35 0 0 1-.58.869c-.207-.133-.229-.302-.091-.512a.533.533 0 0 0 .074-.275V2.888c0-.22-.072-.456.138-.624Z" fill="#858585"/><path d="M14.828 2.178a4.162 4.162 0 0 1 .683 1.091c.025.12.055.237.093.353.095.43.16.866.194 1.305a7.936 7.936 0 0 1-.052 1.962c-.02.136-.062.262-.096.393a4.75 4.75 0 0 1-.374.886 5.16 5.16 0 0 1-.569.828c-.197-.136-.217-.307-.085-.517a.553.553 0 0 0 .072-.277V2.803c-.003-.22-.073-.452.134-.625Z" fill="#848484"/><path d="M14.643 2.092a4.03 4.03 0 0 1 .681 1.043c.005.125.063.25.086.374.091.456.154.918.187 1.382a8.71 8.71 0 0 1-.049 2.01c-.02.141-.068.268-.1.402a4.578 4.578 0 0 1-.374.846c-.16.28-.347.544-.558.788-.187-.14-.204-.312-.08-.523a.577.577 0 0 0 .07-.279V2.717c0-.217-.066-.45.137-.625Z" fill="#838383"/><path d="M14.46 2.007a3.894 3.894 0 0 1 .679 1c0 .131.056.263.081.395.088.482.148.969.18 1.458a9.572 9.572 0 0 1-.046 2.058 4.17 4.17 0 0 1-.104.41c-.097.28-.222.55-.374.806-.158.266-.34.517-.547.748-.175-.142-.192-.316-.072-.528a.604.604 0 0 0 .062-.28V2.637c.005-.221-.06-.454.141-.63Z" fill="#828282"/><path d="M14.276 1.921c.137.142.264.295.377.456.112.16.211.326.299.5-.01.137.054.276.078.415.084.508.141 1.02.172 1.534.056.702.041 1.409-.044 2.108-.018.15-.076.278-.108.42a4.24 4.24 0 0 1-.37.764c-.156.253-.335.49-.537.709-.164-.146-.18-.322-.066-.534a.634.634 0 0 0 .063-.281V2.557c0-.225-.061-.458.136-.636Z" fill="#818181"/><path d="M14.092 1.835c.136.135.26.28.374.434.111.151.211.31.3.476-.02.145.051.291.074.437.08.528.132 1.065.164 1.61.053.718.04 1.44-.041 2.156-.017.154-.082.284-.113.429a4.077 4.077 0 0 1-.369.724 4.44 4.44 0 0 1-.525.668c-.154-.148-.168-.326-.063-.538a.665.665 0 0 0 .063-.283V2.473c0-.225-.058-.457.136-.638Z" fill="gray"/><path d="M13.908 1.75a3.466 3.466 0 0 1 .674.864c-.026.153.05.305.07.459.077.553.126 1.116.156 1.684.05.735.038 1.473-.038 2.205-.017.159-.085.29-.117.437-.099.24-.22.47-.365.686a4.267 4.267 0 0 1-.515.628c-.142-.151-.155-.331-.053-.544a.702.702 0 0 0 .056-.284V2.39c-.003-.225-.058-.457.132-.64Z" fill="#7F7F7F"/><path d="M13.724 1.665c.133.119.256.248.368.387.11.136.21.28.3.431-.034.16.047.32.067.48.072.579.12 1.167.147 1.761a14.15 14.15 0 0 1-.036 2.255c-.015.162-.089.295-.12.446-.1.225-.222.44-.364.642a4.089 4.089 0 0 1-.503.588c-.132-.155-.143-.337-.046-.55a.741.741 0 0 0 .053-.285V2.305c0-.224-.053-.457.134-.64Z" fill="#7E7E7E"/><path d="M13.54 1.58c.13.11.252.232.364.363.11.13.21.266.301.41-.041.165.045.333.063.498.068.605.112 1.219.139 1.838a15.72 15.72 0 0 1-.033 2.303c-.015.167-.094.3-.125.455-.1.212-.221.413-.36.602a3.914 3.914 0 0 1-.493.548c-.122-.158-.131-.342-.04-.554a.787.787 0 0 0 .05-.287V2.225c0-.23-.048-.461.133-.646Z" fill="#7D7D7D"/><path d="M13.359 1.493c.13.104.25.218.361.341.11.122.21.251.302.387-.05.173.042.347.063.521.062.631.106 1.27.13 1.914.043.783.032 1.569-.03 2.35-.014.172-.098.307-.13.465a3.454 3.454 0 0 1-.358.561 3.748 3.748 0 0 1-.482.509c-.11-.162-.118-.347-.034-.562a.835.835 0 0 0 .047-.289V2.136c-.005-.223-.052-.456.13-.643Z" fill="#7C7C7C"/><path d="M13.17 1.408c.129.096.249.203.36.318.109.115.21.236.302.365-.058.18.04.36.056.542.062.656.1 1.32.125 1.99.04.799.03 1.6-.028 2.399-.013.176-.102.312-.133.473a3.318 3.318 0 0 1-.356.52c-.143.17-.3.327-.471.468-.1-.165-.107-.352-.027-.565a.898.898 0 0 0 .044-.29V2.056c-.004-.227-.047-.46.129-.648Z" fill="#7B7B7B"/><path d="M12.989 1.322c.126.089.245.188.355.296a3.3 3.3 0 0 1 .303.342c-.062.187.037.374.053.561.055.682.092 1.372.114 2.065.037.816.028 1.633-.026 2.448-.011.18-.106.318-.137.482a3.19 3.19 0 0 1-.354.48c-.14.157-.294.3-.46.429-.09-.168-.095-.357-.021-.571a.964.964 0 0 0 .04-.291V1.972c0-.226-.041-.46.133-.65Z" fill="#7A7A7A"/><path d="M12.804 1.237c.125.08.243.172.352.272.109.1.21.206.304.32-.073.194.034.389.049.585.051.708.085 1.422.105 2.141.035.831.027 1.664-.023 2.495-.01.187-.11.323-.141.49a3.251 3.251 0 0 1-.8.825.774.774 0 0 1-.015-.576c.026-.095.039-.194.037-.293V1.885c0-.223-.038-.457.132-.648Z" fill="#7A7A7A"/><path d="M12.62 1.15c.123.074.24.158.35.25.107.092.209.191.303.297-.08.202.032.404.045.606.048.733.079 1.473.098 2.217a28.04 28.04 0 0 1-.02 2.546c-.01.187-.115.328-.146.499a3.098 3.098 0 0 1-.787.747.882.882 0 0 1-.007-.582c.024-.096.036-.195.035-.295V1.805c-.003-.228-.038-.46.129-.654Z" fill="#797979"/><path d="M12.436 1.065c.122.066.238.142.347.227.107.085.21.177.305.275-.089.208.029.417.04.627.044.759.072 1.524.09 2.293.029.873.023 1.737-.018 2.594-.009.193-.119.334-.15.509a2.868 2.868 0 0 1-.775.666 1.023 1.023 0 0 1 0-.587c.023-.097.034-.196.032-.296V1.725c-.002-.231-.034-.464.13-.66Z" fill="#787878"/><path d="M12.253.98c.12.057.235.126.343.203.108.077.21.16.306.25-.097.216.027.432.037.648.042.785.069 1.575.08 2.37.027.89.022 1.77-.015 2.643-.007.198-.124.34-.154.517a2.807 2.807 0 0 1-.761.586 1.21 1.21 0 0 1 .005-.592c.02-.098.03-.198.029-.298V1.64c-.001-.23-.03-.463.13-.66Z" fill="#777"/><path d="M12.07.894c.117.05.231.11.34.18.106.07.208.147.305.23-.104.223.025.446.035.67.035.81.06 1.626.072 2.445.024.904.02 1.802-.013 2.691-.007.202-.125.345-.158.527a2.749 2.749 0 0 1-.748.505 1.474 1.474 0 0 1 .012-.598c.018-.098.027-.198.026-.299V1.556c-.003-.23-.028-.464.128-.662Z" fill="#767676"/><path d="M11.886.81c.117.043.23.096.337.158.106.063.209.132.306.207-.112.23.022.46.031.69.032.837.052 1.678.062 2.522.022.92.018 1.833-.01 2.74-.006.206-.131.35-.162.536a2.542 2.542 0 0 1-.735.423c-.027-.2-.02-.404.018-.603.016-.1.024-.2.022-.3V1.477c0-.235-.023-.469.13-.666Z" fill="#757575"/><path d="M11.702.723c.115.034.227.08.334.134.106.056.209.118.307.187-.12.238.019.475.027.712.027.862.046 1.728.056 2.597.018.935.015 1.865-.008 2.788-.005.212-.135.356-.166.545a2.723 2.723 0 0 1-.339.196c-.123.06-.252.11-.384.148a2.537 2.537 0 0 1 .026-.608c.014-.1.02-.2.02-.301V1.395c-.003-.237-.026-.47.127-.672Z" fill="#747474"/><path d="M11.52.637c.113.027.224.065.33.112.107.048.21.102.309.163-.128.244.016.487.023.732.023.888.039 1.779.047 2.673a76.82 76.82 0 0 1-.005 2.836c-.004.216-.14.362-.17.554-.109.059-.221.11-.337.155a2.299 2.299 0 0 1-.374.108c-.005-.205.005-.41.032-.614.012-.1.018-.202.016-.303V1.305c0-.231-.018-.464.129-.668Z" fill="#737373"/><path d="M11.34.552c.112.019.222.049.328.089.106.04.209.087.309.14-.136.25.014.502.02.753.018.915.031 1.831.038 2.749.014.966.014 1.928 0 2.885 0 .22-.143.368-.174.561-.11.045-.22.083-.335.115-.118.032-.24.055-.362.067.008-.196.013-.404.038-.62.01-.1.014-.202.013-.304V1.222c-.004-.232-.018-.466.126-.67Z" fill="#727272"/><path d="M11.16.466c.111.011.22.033.327.066.106.032.21.071.312.117-.144.258.01.517.015.775.016.94.026 1.881.03 2.825.012.981.012 1.958 0 2.931 0 .225-.147.374-.178.572-.109.03-.22.055-.331.074a2.1 2.1 0 0 1-.352.027c.018-.2.025-.408.045-.624.01-.1.01-.203.01-.305V1.139c-.006-.233-.017-.466.123-.673Z" fill="#717171"/><path d="M10.982.374c.108.004.216.018.321.043.106.025.21.057.312.095-.152.265.009.53.012.796.01.965.018 1.932.022 2.9.008.999.008 1.993 0 2.983 0 .23-.152.379-.183.58-.109.018-.22.029-.33.034a2.013 2.013 0 0 1-.34-.012c.03-.203.036-.414.051-.63.007-.102.006-.205.007-.308V1.051c0-.236-.009-.47.128-.677Z" fill="#707070"/><path d="M10.8.265c.107-.004.214.003.319.02a2.5 2.5 0 0 1 .312.073c-.16.272.006.544.008.816.007.991.012 1.984.014 2.976.006 1.013.007 2.023.005 3.032 0 .233-.156.384-.187.59-.108 0-.218 0-.327-.008a1.939 1.939 0 0 1-.33-.052 4.43 4.43 0 0 0 .058-.635c.005-.102.003-.205.004-.312V.942c0-.234-.007-.467.125-.677Z" fill="#6F6F6F"/><path d="M10.62.143c.106-.01.211-.01.316 0 .105.01.209.027.312.05-.167.28.004.562.005.838.003 1.017.005 2.035.005 3.052l.008 3.08c0 .238-.16.39-.191.6a3.411 3.411 0 0 1-.326-.05 1.88 1.88 0 0 1-.318-.092c.043-.21.064-.425.062-.64V.826c0-.237-.004-.47.128-.683Z" fill="#6E6E6E"/><path d="M10.247 7.53c.091-.312.069-.637.069-.957V.71c0-.24 0-.473.124-.686.103-.02.208-.028.312-.026.105.002.209.012.312.027-.175.287 0 .573 0 .86v3.128c0 1.043.004 2.086.01 3.128 0 .242-.165.396-.195.608a3.525 3.525 0 0 1-.323-.09 1.847 1.847 0 0 1-.309-.129Z" fill="#6D6D6D"/><path d="M10.06 7.441c.101-.321.076-.653.077-.982.003-1.89.003-3.78 0-5.67 0-.25 0-.49.107-.713.213-.047.431-.057.647-.03-.155.303.006.607.006.911 0 2.01-.007 4.021.006 6.031 0 .27-.147.459-.194.7a2.429 2.429 0 0 1-.65-.247Z" fill="#6C6C6C"/><path d="M9.873 7.355c.112-.327.084-.67.086-1.007.006-1.826 0-3.652 0-5.478 0-.257 0-.509.087-.74a1.99 1.99 0 0 1 .672-.063c-.134.321.01.643.01.964 0 1.934-.005 3.87.007 5.806 0 .297-.132.521-.193.79a2.432 2.432 0 0 1-.669-.272Z" fill="#6B6B6B"/><path d="M9.687 7.272c.124-.334.09-.686.094-1.03.008-1.763.003-3.526 0-5.29 0-.264 0-.525.068-.766a2.07 2.07 0 0 1 .698-.097c-.115.339.015.678.015 1.017 0 1.86-.005 3.72.005 5.58 0 .326-.115.584-.193.881a2.446 2.446 0 0 1-.687-.295Z" fill="#6A6A6A"/><path d="M9.5 7.19c.133-.34.099-.703.102-1.055.012-1.699.005-3.399 0-5.098a4.413 4.413 0 0 1 .053-.794c.23-.083.474-.127.719-.129-.095.356.02.713.02 1.07 0 1.784-.005 3.57.005 5.354 0 .354-.098.647-.192.972a2.462 2.462 0 0 1-.707-.319Z" fill="#696969"/><path d="M9.313 7.11c.143-.347.106-.72.11-1.08.015-1.636.006-3.273.006-4.907 0-.283 0-.562.029-.821.237-.096.488-.151.743-.162-.075.374.025.748.025 1.122 0 1.71-.004 3.42.005 5.129 0 .38-.082.71-.192 1.064a2.485 2.485 0 0 1-.726-.345Z" fill="#686868"/><path d="M9.126 7.028c.154-.354.115-.736.12-1.103.017-1.571.005-3.144.005-4.716 0-.291.003-.579.01-.848.243-.109.502-.175.768-.197-.055.39.028.783.029 1.175 0 1.634-.003 3.268.004 4.903 0 .392-.064.783-.19 1.155a2.51 2.51 0 0 1-.746-.369Z" fill="#676767"/><path d="M8.94 6.947c.164-.361.12-.754.127-1.13.02-1.508.006-3.017.007-4.525 0-.3.004-.597-.01-.874.25-.121.517-.2.792-.231-.035.408.034.818.034 1.228 0 1.56 0 3.119.004 4.678.01.423-.054.845-.187 1.247a2.539 2.539 0 0 1-.768-.393Z" fill="#676767"/><path d="M8.753 6.866c.175-.368.128-.77.137-1.155.021-1.444.006-2.89.008-4.335.007-.3-.003-.602-.03-.901a2.52 2.52 0 0 1 .816-.261c-.015.425.038.853.039 1.28v4.452c0 .464-.033.899-.187 1.337a2.57 2.57 0 0 1-.783-.417Z" fill="#666"/><path d="M8.566 6.785c.188-.375.136-.787.146-1.18.025-1.38.007-2.762.01-4.144 0-.317.003-.63-.05-.928a2.62 2.62 0 0 1 .84-.294c.004.443.042.889.042 1.333v4.226c0 .493-.015.962-.187 1.429a2.605 2.605 0 0 1-.8-.442Z" fill="#656565"/><path d="M8.379 6.703c.196-.381.143-.803.153-1.204.028-1.317.008-2.636.01-3.954 0-.326.006-.649-.067-.955.267-.157.559-.268.863-.326.025.46.048.923.048 1.386v4c0 .52 0 1.024-.187 1.52a2.64 2.64 0 0 1-.82-.467Z" fill="#646464"/><path d="M8.19 6.624c.207-.388.151-.82.163-1.228.03-1.254.008-2.508.01-3.763 0-.335.006-.666-.086-.983.273-.17.573-.29.887-.359.045.477.052.959.052 1.439v3.774c0 .548.018 1.088-.187 1.611a2.682 2.682 0 0 1-.839-.49Z" fill="#636363"/><path d="M8.004 6.542c.217-.394.158-.836.17-1.252.034-1.19.009-2.382.013-3.573 0-.343.007-.686-.107-1.01.28-.181.588-.314.912-.392.063.496.057.995.057 1.494v3.548c0 .576.034 1.15-.187 1.702a2.72 2.72 0 0 1-.858-.517Z" fill="#626262"/><path d="M7.816 6.46c.228-.402.166-.854.18-1.278.035-1.126.008-2.255.013-3.382 0-.352.007-.702-.125-1.036A3.02 3.02 0 0 1 8.82.338c.085.512.062 1.03.062 1.545v3.322c0 .604.05 1.214-.187 1.794a2.762 2.762 0 0 1-.879-.54Z" fill="#616161"/><path d="M8.073.741C8.36.558 8.677.425 9.01.35c.032.272.05.545.053.82.003.244 0 .488 0 .733v3.345c0 .477.03.958-.067 1.425-.026.13-.064.258-.115.381-.32-.12-.615-.3-.87-.528.095-.181.15-.38.162-.584.02-.238.007-.48.013-.714.035-1.144.01-2.29.014-3.435 0-.178 0-.355-.012-.53A1.74 1.74 0 0 0 8.14.95C8.115.88 8.097.81 8.073.74Z" fill="#626262"/><path d="M8.264.719c.287-.173.602-.294.93-.36.02.27.042.548.045.823v4.106c0 .48.029.964-.063 1.435a1.86 1.86 0 0 1-.117.387 2.721 2.721 0 0 1-.862-.516 1.49 1.49 0 0 0 .157-.595c.02-.242.007-.488.013-.725.033-1.162.008-2.325.013-3.487 0-.18 0-.36-.012-.539a1.53 1.53 0 0 0-.05-.312C8.299.857 8.285.788 8.265.72Z" fill="#636363"/><path d="M8.454.697c.289-.162.603-.273.929-.328.007.269.032.55.035.827v4.133c0 .485.027.971-.063 1.446a1.708 1.708 0 0 1-.114.386 2.702 2.702 0 0 1-.852-.504c.091-.19.143-.396.152-.607.019-.245.005-.494.012-.736.032-1.179.008-2.36.013-3.54 0-.183 0-.366-.011-.546a1.376 1.376 0 0 0-.05-.319C8.48.835 8.47.766 8.455.697Z" fill="#646464"/><path d="M8.645.674c.29-.15.603-.25.927-.294-.006.268.022.553.024.83V5.37c0 .488.027.977-.058 1.456-.02.134-.059.264-.112.389a2.682 2.682 0 0 1-.845-.492c.09-.193.141-.403.15-.616.017-.25.005-.499.011-.748.03-1.197.007-2.395.012-3.592 0-.187 0-.375-.01-.555a1.26 1.26 0 0 0-.05-.323 1.398 1.398 0 0 1-.05-.216Z" fill="#656565"/><path d="M8.834.652c.291-.14.604-.229.925-.262-.018.267.013.555.015.833v4.189c0 .49.025.983-.056 1.466a1.478 1.478 0 0 1-.11.391 2.664 2.664 0 0 1-.837-.48c.09-.196.139-.408.146-.624.017-.25.005-.508.011-.758.03-1.213.008-2.432.011-3.644 0-.187 0-.374-.01-.561a1.169 1.169 0 0 0-.054-.329.936.936 0 0 1-.04-.221Z" fill="#666"/><path d="M9.025.629c.292-.13.604-.207.923-.23-.031.267.003.559.005.837V5.453c0 .493.025.989-.053 1.475a1.388 1.388 0 0 1-.11.394 2.645 2.645 0 0 1-.827-.468c.087-.201.135-.417.14-.636.018-.256.006-.515.012-.768.028-1.232.008-2.465.011-3.697 0-.192 0-.382-.01-.57 0-.113-.017-.225-.05-.333a.703.703 0 0 1-.04-.221Z" fill="#676767"/><path d="M9.213.607c.293-.119.604-.185.92-.197-.043.266-.005.561-.003.84v4.245c0 .499.022.998-.051 1.485a1.31 1.31 0 0 1-.11.397c-.299-.1-.578-.254-.823-.454.086-.205.133-.424.138-.646.015-.26.005-.523.01-.78.026-1.251.01-2.503.01-3.75 0-.195 0-.388-.01-.58A1.036 1.036 0 0 0 9.241.83a.561.561 0 0 1-.028-.222Z" fill="#686868"/><path d="M9.399.584c.294-.107.605-.163.918-.164-.056.266-.015.562-.013.844v4.273c0 .499.021 1.002-.048 1.497a1.24 1.24 0 0 1-.108.4 2.61 2.61 0 0 1-.811-.445 1.83 1.83 0 0 0 .133-.656c.015-.264.005-.53.01-.79.025-1.267.007-2.535.01-3.805 0-.197 0-.393-.009-.588a.987.987 0 0 0-.057-.34.473.473 0 0 1-.025-.226Z" fill="#696969"/><path d="M9.584.561c.295-.096.605-.14.915-.13-.068.265-.024.565-.023.847 0 .258 0 .516-.003.774v3.527c0 .502.02 1.008-.045 1.504-.012.14-.049.275-.108.402a2.592 2.592 0 0 1-.802-.433c.082-.213.126-.439.128-.667.014-.267.004-.537.01-.801.024-1.285.006-2.57.009-3.855 0-.199 0-.398-.008-.596a.945.945 0 0 0-.053-.345.409.409 0 0 1-.02-.227Z" fill="#6A6A6A"/><path d="M9.769.542a2.65 2.65 0 0 1 .914-.1c-.082.265-.034.568-.033.852 0 .259 0 .518-.004.778-.002 1.183-.002 2.366 0 3.55 0 .506.02 1.014-.042 1.514-.01.14-.046.278-.106.405a2.576 2.576 0 0 1-.794-.42c.081-.217.124-.446.125-.677.014-.271.004-.544.01-.811.022-1.302.005-2.605.008-3.907 0-.202 0-.404-.008-.604-.006-.118 0-.24-.054-.35a.361.361 0 0 1-.016-.23Z" fill="#6B6B6B"/><path d="M9.954.523c.297-.075.604-.097.909-.066-.094.264-.043.57-.042.854l-.003.783c-.003 1.191-.003 2.382 0 3.572 0 .51.018 1.021-.04 1.525-.007.141-.042.28-.102.408a2.557 2.557 0 0 1-.785-.41c.08-.22.12-.451.12-.685.013-.275.004-.552.009-.823.022-1.32.005-2.64.008-3.96 0-.204 0-.408-.007-.612-.005-.12 0-.244-.054-.355a.326.326 0 0 1-.013-.231Z" fill="#6C6C6C"/><path d="M10.14.507c.3-.065.608-.076.91-.034-.106.264-.052.573-.051.858 0 .263-.003.526-.004.788a718.042 718.042 0 0 0 0 3.596c0 .512.018 1.027-.036 1.534a1.043 1.043 0 0 1-.105.41 2.544 2.544 0 0 1-.777-.396c.086-.227.1-.464.113-.698.012-.278.004-.562.008-.835.02-1.336.006-2.674.008-4.012 0-.207 0-.414-.007-.62-.005-.121 0-.249-.054-.359-.047-.094-.02-.16-.005-.232Z" fill="#6D6D6D"/><path d="M10.325.491c.3-.053.607-.053.907 0-.12.263-.062.575-.062.86 0 .265-.003.53-.005.794a660.948 660.948 0 0 0 0 3.618c0 .516.017 1.033-.034 1.544-.004.144-.04.285-.103.414a2.53 2.53 0 0 1-.768-.385c.088-.23.103-.47.112-.708.011-.28.004-.565.008-.845.02-1.354.005-2.71.008-4.064 0-.21 0-.419-.007-.628-.004-.125.004-.25-.055-.364-.051-.097-.02-.166 0-.236Z" fill="#6E6E6E"/><path d="M10.51.478c.301-.042.607-.032.905.032-.132.262-.071.578-.07.865 0 .266-.004.532-.005.798a581.127 581.127 0 0 0 0 3.64c0 .519.015 1.04-.031 1.554a.97.97 0 0 1-.102.416 2.514 2.514 0 0 1-.76-.374c.087-.233.1-.476.108-.718.01-.285.004-.572.007-.856.018-1.372.005-2.745.007-4.117 0-.212 0-.425-.006-.636-.004-.125.005-.254-.056-.369-.055-.096-.018-.162.003-.235Z" fill="#6E6E6E"/><path d="M10.696.467c.302-.033.607-.012.902.062-.145.261-.08.58-.08.868 0 .268-.004.536-.005.803-.004 1.221-.004 2.442 0 3.664 0 .522.014 1.046-.028 1.564a.94.94 0 0 1-.101.419c-.27-.078-.526-.2-.755-.362.086-.237.096-.483.104-.728.01-.29.004-.58.007-.867.017-1.39.005-2.78.006-4.17 0-.214 0-.43-.005-.643-.004-.125.007-.259-.057-.375-.055-.097-.015-.162.012-.235Z" fill="#6F6F6F"/><path d="M10.882.456c.303-.02.608.012.9.098-.158.26-.09.582-.09.873 0 .27-.003.539-.005.81a637.743 637.743 0 0 0-.003 3.686c0 .526.013 1.052-.025 1.574-.01.145-.022.29-.1.422a2.488 2.488 0 0 1-.744-.35c.085-.24.093-.49.1-.738.009-.292.003-.587.007-.878.015-1.407.004-2.814.006-4.221 0-.218 0-.437-.005-.653-.004-.127.01-.261-.057-.377-.059-.107-.015-.173.016-.246Z" fill="#707070"/><path d="M11.066.448c.305-.01.61.033.898.13-.17.26-.099.585-.1.873 0 .271-.003.542-.004.81a611.288 611.288 0 0 0-.004 3.71c0 .528.012 1.06-.023 1.583-.01.146-.018.292-.1.424A2.476 2.476 0 0 1 11 7.64c.084-.243.09-.498.096-.748.008-.296.003-.594.006-.889.014-1.424.005-2.849.006-4.274 0-.22 0-.441-.004-.66 0-.13.01-.266-.058-.383-.06-.1-.013-.165.021-.238Z" fill="#717171"/><path d="M11.252.44c.306.001.61.056.896.163-.183.26-.109.588-.11.878 0 .273-.003.546-.004.819a618.708 618.708 0 0 0-.004 3.73c0 .533.01 1.065-.02 1.594-.009.147-.015.295-.098.428a2.464 2.464 0 0 1-.727-.326c.083-.25.087-.504.092-.758.007-.3 0-.602.006-.9.012-1.443.004-2.885.005-4.327 0-.224 0-.446-.004-.669 0-.13.013-.269-.057-.387-.065-.106-.013-.171.025-.244Z" fill="#727272"/><path d="M11.437.437c.307.01.61.077.894.195-.196.259-.118.59-.119.882 0 .274-.004.549-.005.823a565.824 565.824 0 0 0-.004 3.754c0 .535.01 1.07-.018 1.603-.007.149-.012.296-.097.43a2.454 2.454 0 0 1-.718-.312c.081-.25.082-.511.088-.77.006-.303 0-.607.005-.91.011-1.46.004-2.919.004-4.379 0-.226 0-.451-.003-.677 0-.132.015-.271-.058-.39-.067-.113-.01-.178.03-.25Z" fill="#737373"/><path d="M11.623.428c.309.022.61.1.892.228-.208.258-.125.592-.129.886 0 .276-.004.552-.005.828-.006 1.259-.005 2.517-.005 3.776 0 .539.009 1.078-.014 1.614-.007.15-.01.299-.097.432a2.442 2.442 0 0 1-.71-.301c.08-.255.08-.518.084-.779.006-.308 0-.616.005-.922.01-1.477.003-2.954.004-4.428v-.686c0-.134.017-.276-.059-.396-.071-.113-.01-.178.034-.252Z" fill="#747474"/><path d="M11.811.422c.31.033.611.12.89.26-.221.258-.136.595-.138.889 0 .277-.005.555-.006.833a641.464 641.464 0 0 0-.004 3.8c0 .54.007 1.083-.012 1.62-.005.152-.008.302-.095.437a2.431 2.431 0 0 1-.7-.289c.078-.258.075-.525.079-.789.005-.312 0-.624.004-.936.01-1.497 0-2.99.004-4.484v-.692c0-.136.019-.28-.062-.4-.081-.122-.008-.172.04-.25Z" fill="#757575"/><path d="M11.999.416c.31.044.611.143.887.293-.233.257-.145.598-.147.893 0 .28-.004.561-.006.838a600.988 600.988 0 0 0-.005 3.821c0 .545.007 1.09-.009 1.634-.004.152-.004.303-.094.437a2.425 2.425 0 0 1-.693-.278c.078-.262.072-.532.075-.8.004-.311 0-.63.004-.943.008-1.512 0-3.025 0-4.537v-.7c0-.138.02-.283-.062-.405-.083-.123-.002-.179.05-.253Z" fill="#767676"/><path d="M12.187.41c.312.054.612.164.885.325-.246.257-.154.6-.157.896 0 .281-.004.561-.006.843a600.852 600.852 0 0 0-.005 3.845c0 .548.005 1.096-.006 1.643-.004.152 0 .305-.093.44a2.42 2.42 0 0 1-.687-.266c.077-.265.07-.54.072-.81.003-.319 0-.637.004-.955.006-1.53 0-3.057 0-4.59v-.708c0-.14.022-.287-.062-.41-.085-.122 0-.178.055-.253Z" fill="#777"/><path d="M12.376.403c.314.066.613.187.883.358-.258.256-.164.603-.166.9a566.442 566.442 0 0 0-.011 4.715c0 .551.003 1.103-.004 1.653 0 .154 0 .307-.092.443a2.415 2.415 0 0 1-.677-.254c.076-.268.063-.546.068-.82v-.965c.005-1.547 0-3.094 0-4.641v-.718c0-.14.024-.289-.063-.414-.086-.124.003-.182.062-.257Z" fill="#787878"/><path d="M12.564.397c.315.076.613.209.88.391-.27.255-.173.605-.175.903l-.007.853a536.635 536.635 0 0 0-.005 3.89v1.663c0 .156.004.312-.091.446a2.41 2.41 0 0 1-.668-.242c.075-.272.063-.553.063-.83v-.977c.004-1.564.004-3.129 0-4.693v-.725c0-.143.025-.293-.063-.419-.087-.126.003-.185.066-.26Z" fill="#797979"/><path d="M13.632.815c-.285.254-.183.607-.188.906-.02 2.147-.01 4.295-.01 6.444 0 .156.007.311-.09.449a2.407 2.407 0 0 1-.66-.23c.074-.277.06-.562.06-.841.006-2.156.006-4.312 0-6.468 0-.144.028-.296-.062-.423-.09-.126 0-.187.066-.26.318.086.617.23.884.423Z" fill="#7A7A7A"/><path d="M12.572.385c.312.078.606.212.87.395-.202.196-.2.446-.187.686.004.075.01.149.009.22-.018 1.973-.012 3.946-.01 5.92v.499c0 .155.007.311-.083.447a2.435 2.435 0 0 1-.668-.234c.073-.274.062-.556.062-.833 0-.445 0-.889.004-1.333V1.067c0-.143.026-.294-.063-.42-.088-.127.003-.187.066-.262Z" fill="#797979"/><path d="M12.39.378c.308.07.6.194.862.367-.187.197-.19.446-.177.686.005.075.009.148.008.219-.017 1.965-.011 3.93-.01 5.897v.499c0 .155.008.312-.074.446a2.466 2.466 0 0 1-.679-.238c.075-.272.066-.551.069-.826.005-.44.004-.882.004-1.322V1.061c0-.142.025-.292-.058-.417-.084-.126-.003-.19.056-.266Z" fill="#787878"/><path d="M12.21.374c.302.06.591.175.852.34-.172.198-.181.445-.168.685.003.074.008.147.008.217-.016 1.958-.01 3.916-.01 5.874v.494c0 .154.009.308-.066.445a2.495 2.495 0 0 1-.687-.242c.076-.27.07-.546.074-.819.007-.436.004-.873.005-1.31V1.054c0-.141.023-.29-.057-.415-.08-.126-.007-.19.049-.264Z" fill="#777"/><path d="M12.03.364c.297.052.583.158.843.312-.158.2-.172.445-.16.686.004.074.008.146.007.217-.014 1.95-.009 3.9-.008 5.85v.492c0 .153.008.306-.063.442a2.523 2.523 0 0 1-.698-.246c.076-.266.073-.54.079-.81.008-.434.006-.868.006-1.302V1.04c0-.14.022-.287-.055-.412-.078-.124-.003-.185.048-.263Z" fill="#767676"/><path d="M11.85.357c.294.043.577.14.836.284-.143.201-.163.446-.152.683.004.073.008.145.007.215-.013 1.942-.008 3.884-.008 5.827 0 .163-.004.326 0 .49 0 .152.01.304-.052.44a2.553 2.553 0 0 1-.708-.249c.077-.264.077-.535.083-.804.01-.43.007-.86.007-1.29V1.026c0-.138.02-.284-.053-.41-.07-.113-.007-.18.04-.259Z" fill="#757575"/><path d="M11.675.351c.288.034.568.12.826.256-.128.204-.153.445-.14.68.003.074.007.146.006.215-.011 1.934-.008 3.868-.007 5.804 0 .163-.004.326-.004.488 0 .152.01.304-.044.44a2.583 2.583 0 0 1-.717-.254c.078-.262.08-.53.088-.797.011-.426.007-.853.008-1.28V1.016c0-.137.018-.282-.052-.406-.067-.111-.008-.182.036-.259Z" fill="#747474"/><path d="M11.498.344c.284.025.561.103.818.228-.107.21-.154.446-.135.681.004.072.007.144.007.214-.01 1.927-.007 3.853-.007 5.78 0 .163-.005.324-.004.486 0 .152.01.302-.037.437a2.61 2.61 0 0 1-.727-.259c.079-.26.084-.525.093-.79.014-.422.008-.846.009-1.27V1.007c0-.137.017-.28-.05-.404-.062-.11-.008-.18.033-.258Z" fill="#737373"/><path d="M11.322.337c.28.016.555.084.81.2-.096.213-.139.446-.124.68 0 .072.006.143.006.213-.01 1.919-.006 3.838-.006 5.756 0 .161-.006.323-.005.484 0 .15.01.3-.03.436a2.64 2.64 0 0 1-.736-.262c.08-.257.088-.52.098-.782.015-.419.008-.84.009-1.26V.994c0-.135.016-.277-.049-.4-.058-.108-.01-.178.027-.257Z" fill="#727272"/><path d="M11.145.33c.275.008.547.066.8.172a1.649 1.649 0 0 0-.116.68c0 .071.006.142.006.211-.01 1.911-.006 3.823-.006 5.734 0 .16-.006.321-.006.482.01.146.003.292-.02.436a2.67 2.67 0 0 1-.75-.267c.081-.254.092-.515.103-.774.018-.415.01-.833.01-1.248V2.033c0-.349.004-.697 0-1.046 0-.134.014-.274-.046-.398-.053-.109-.007-.18.025-.258Z" fill="#717171"/><path d="M10.969.324c.27-.002.539.047.791.143a1.944 1.944 0 0 0-.108.679c0 .07.006.142.005.211-.008 1.904-.005 3.805-.005 5.711 0 .16-.008.32-.006.48a2.35 2.35 0 0 1-.014.436 2.7 2.7 0 0 1-.756-.27c.07-.25.106-.509.107-.768.019-.411.01-.825.011-1.239V2.014c0-.345.004-.691 0-1.037 0-.133.012-.272-.044-.394-.052-.108-.011-.18.019-.26Z" fill="#707070"/><path d="M10.792.318c.265-.01.53.03.782.118-.066.22-.1.448-.1.678 0 .07.005.141.005.21-.006 1.895-.004 3.791-.004 5.687 0 .159-.008.319-.007.478a3.19 3.19 0 0 1-.006.432 2.73 2.73 0 0 1-.766-.275c.071-.247.109-.503.112-.76.02-.408.012-.818.012-1.228V1.996c0-.342.003-.686 0-1.028 0-.132.01-.27-.043-.392-.048-.106-.011-.178.015-.258Z" fill="#707070"/><path d="M10.614.312c.261-.02.523.01.774.087-.041.21-.098.445-.091.677 0 .07.005.14.004.21-.005 1.887 0 3.775-.004 5.663 0 .159-.008.318-.007.476 0 .148.013.295 0 .431a2.76 2.76 0 0 1-.775-.279c.072-.244.111-.497.116-.752.023-.404.013-.811.013-1.218V1.976c0-.34.005-.68 0-1.02 0-.13.01-.266-.041-.388-.042-.1-.01-.174.01-.256Z" fill="#6F6F6F"/><path d="M10.44.312c.256-.027.516-.006.765.062-.03.207-.092.441-.083.671 0 .07.004.14.004.21-.004 1.88-.005 3.76-.003 5.64 0 .158-.01.316-.008.473 0 .148.014.294.01.43-.273-.065-.542-.138-.786-.282.074-.243.115-.495.121-.749.025-.4.014-.804.014-1.207v-3.6c0-.337.005-.674 0-1.01 0-.131.007-.265-.04-.388a.385.385 0 0 1 .005-.25Z" fill="#6E6E6E"/><path d="M10.262.307c.252-.036.509-.025.756.032-.011.213-.08.446-.073.675 0 .07.004.14.004.208a2103.53 2103.53 0 0 0 0 5.617c0 .157-.01.312-.01.472 0 .146.015.291.018.428-.275-.067-.549-.14-.795-.287.075-.24.117-.488.125-.738.026-.397.014-.798.014-1.197v-3.57c0-.334.005-.668 0-1.002.007-.129-.007-.259-.042-.384a.437.437 0 0 1 .003-.254Z" fill="#6D6D6D"/><path d="M10.085.307c.248-.046.502-.045.749.004 0 .213-.07.445-.063.674 0 .069.004.138.003.207v5.594c0 .157-.01.312-.009.469 0 .146.015.29.025.427-.278-.068-.556-.141-.805-.291.077-.237.121-.483.131-.731.028-.393.015-.79.016-1.185V1.937c0-.332.005-.663 0-.993a1.33 1.33 0 0 0-.045-.383.509.509 0 0 1-.002-.254Z" fill="#6C6C6C"/><path d="M9.907.307c.243-.054.493-.062.739-.024.018.215-.063.445-.056.674v5.776c0 .156-.012.312-.011.468.003.142.013.284.032.426-.28-.07-.56-.143-.814-.296.078-.234.124-.477.136-.724.03-.39.015-.783.016-1.176V1.923c0-.328.006-.656 0-.984a1.464 1.464 0 0 0-.035-.378.608.608 0 0 1-.007-.254Z" fill="#6B6B6B"/><path d="M9.729.312c.238-.064.485-.081.73-.053.032.217-.052.446-.048.673v5.752c0 .156-.013.312-.012.466.002.142.015.284.04.424-.284-.073-.57-.144-.824-.3a2.66 2.66 0 0 0 .14-.716c.032-.386.017-.777.018-1.166V1.915c0-.325.006-.65 0-.975A1.64 1.64 0 0 0 9.741.56a.755.755 0 0 1-.012-.25Z" fill="#6A6A6A"/><path d="M9.549.311c.233-.071.478-.098.722-.079.047.218-.043.446-.04.672v.205c.002 1.84.002 3.682 0 5.524 0 .154-.013.312-.011.463 0 .143.016.284.047.423-.288-.073-.576-.145-.833-.304.08-.228.13-.467.145-.709.033-.382.017-.77.018-1.155V1.905c0-.322.007-.645 0-.967a1.875 1.875 0 0 0-.031-.374.998.998 0 0 1-.017-.253Z" fill="#696969"/><path d="M9.366.318a1.91 1.91 0 0 1 .716-.108c.062.218-.033.445-.03.67v.204c.003 1.834.003 3.667 0 5.501 0 .154-.014.308-.013.461 0 .142.018.284.055.422-.291-.076-.584-.147-.843-.308.082-.226.133-.462.15-.701.035-.379.019-.763.019-1.146V1.898c0-.32.007-.64-.003-.958 0-.124-.01-.247-.03-.37a1.464 1.464 0 0 1-.02-.252Z" fill="#686868"/><path d="M9.188.324c.223-.09.462-.136.703-.137.077.22-.023.445-.022.67v.203c.005 1.826.005 3.652 0 5.478 0 .153-.015.307-.013.459 0 .142.02.284.063.42-.295-.078-.591-.148-.854-.312.084-.224.136-.457.155-.695.037-.374.02-.756.02-1.135V1.891c0-.316.008-.634-.003-.95a2.732 2.732 0 0 0-.028-.366c-.012-.086-.015-.168-.021-.25Z" fill="#676767"/><path d="M9.003.332c.22-.1.455-.155.695-.165.091.221-.015.445-.013.67v.201c.006 1.818.006 3.636 0 5.455 0 .152-.015.305-.014.457-.001.143.023.284.071.418-.297-.078-.597-.149-.862-.315.085-.22.139-.451.16-.686.038-.374.02-.749.02-1.123V1.89c0-.312.008-.627-.004-.94A3.63 3.63 0 0 0 9.03.586C9.02.5 9.013.415 9.003.332Z" fill="#666"/><path d="M8.694 7c.237-.58.187-1.19.187-1.795V1.883c0-.516.024-1.032-.062-1.544.214-.108.447-.173.686-.193.106.223-.005.446-.004.67.008 1.877.008 3.754 0 5.631 0 .293-.063.59.062.873-.296-.081-.6-.151-.869-.32Z" fill="#656565"/><path d="m6.946 1.435-.067.086c-.007-.052.03-.069.067-.086Z" fill="#1C191A"/></g><defs><clipPath id="a"><path fill="#fff" d="M0 0h24v24H0z"/></clipPath></defs></svg>