<svg width="24" height="24" viewBox="0 0 24 24" fill="none" xmlns="http://www.w3.org/2000/svg">
<path fill-rule="evenodd" clip-rule="evenodd" d="M24 12C24 18.6274 18.6274 24 12 24C5.37262 24 0 18.6274 0 12C0 5.37262 5.37262 0 12 0C18.6274 0 24 5.37262 24 12Z" fill="#EF494D"/>
<path fill-rule="evenodd" clip-rule="evenodd" d="M5.0894 8.34375H4.25351C4.04606 8.34375 3.87793 8.51188 3.87793 8.71933V9.5952C3.87793 9.80264 4.04606 9.97078 4.25351 9.97078H5.0894C5.29685 9.97078 5.46498 9.80264 5.46498 9.5952V8.71933C5.46498 8.51188 5.29685 8.34375 5.0894 8.34375Z" fill="white"/>
<path fill-rule="evenodd" clip-rule="evenodd" d="M6.02832 8.71933V15.2803C6.02832 15.4877 6.19645 15.6559 6.4039 15.6559H7.58547C7.79292 15.6559 7.96105 15.4877 7.96105 15.2803V10.1585C7.96105 10.0548 8.04512 9.97078 8.14881 9.97078H9.73095C9.9384 9.97078 10.1065 9.80264 10.1065 9.5952V8.71933C10.1065 8.51188 9.9384 8.34375 9.73095 8.34375H6.4039C6.19645 8.34375 6.02832 8.51188 6.02832 8.71933Z" fill="white"/>
<path fill-rule="evenodd" clip-rule="evenodd" d="M13.5598 15.6559H15.0593C15.1214 15.6559 15.1796 15.6251 15.2145 15.5738L16.4902 13.7004C16.5649 13.5909 16.7264 13.591 16.8008 13.7007L18.0724 15.5736C18.1074 15.625 18.1656 15.6559 18.2278 15.6559H19.7462C20.0504 15.6559 20.2284 15.313 20.0533 15.0641L17.9008 12.0054C17.8558 11.9416 17.8551 11.8566 17.8989 11.7919L19.8402 8.93016C20.0093 8.68074 19.8307 8.34375 19.5293 8.34375H18.0694C18.0082 8.34375 17.9508 8.37358 17.9157 8.42364L13.2525 15.0645C13.0777 15.3133 13.2557 15.6559 13.5598 15.6559Z" fill="white"/>
<path fill-rule="evenodd" clip-rule="evenodd" d="M12.5743 15.2803V8.71933C12.5743 8.51188 12.4062 8.34375 12.1988 8.34375H11.0172C10.8097 8.34375 10.6416 8.51188 10.6416 8.71933V15.2803C10.6416 15.4877 10.8097 15.6559 11.0172 15.6559H12.1988C12.4062 15.6559 12.5743 15.4877 12.5743 15.2803Z" fill="white"/>
<path fill-rule="evenodd" clip-rule="evenodd" d="M16.2877 9.76545L15.4035 8.42795C15.3688 8.37537 15.3099 8.34375 15.2468 8.34375H13.7785C13.4764 8.34375 13.2979 8.68253 13.4689 8.93175L14.3844 10.2666C14.4194 10.3177 14.4774 10.3482 14.5393 10.3482H15.9744C16.2737 10.3482 16.4528 10.0151 16.2877 9.76545Z" fill="white"/>
</svg>
