<svg width="24" height="24" fill="none" xmlns="http://www.w3.org/2000/svg"><path fill-rule="evenodd" clip-rule="evenodd" d="M24 12c0 6.627-5.373 12-12 12S0 18.627 0 12 5.373 0 12 0s12 5.373 12 12Z" fill="#5493C2"/><path fill-rule="evenodd" clip-rule="evenodd" d="M19.024 19.463a10.258 10.258 0 0 1-4.072 2.357v-.612A7.911 7.911 0 0 0 12 20.641c-1.043 0-2.04.201-2.952.567v.612a10.255 10.255 0 0 1-4.072-2.357l.525-.302a7.912 7.912 0 0 0-.984-2.84 7.913 7.913 0 0 0-1.968-2.273l-.53.306a10.245 10.245 0 0 1 0-4.708l.53.306A7.912 7.912 0 0 0 4.517 7.68 7.913 7.913 0 0 0 5.5 4.84l-.525-.303A10.258 10.258 0 0 1 9.048 2.18v.612A7.912 7.912 0 0 0 12 3.359c1.043 0 2.04-.201 2.952-.567V2.18c1.54.463 2.93 1.28 4.072 2.356l-.525.303a7.91 7.91 0 0 0 .984 2.84 7.913 7.913 0 0 0 1.968 2.273l.53-.306a10.242 10.242 0 0 1 0 4.708l-.53-.306a7.912 7.912 0 0 0-1.968 2.272 7.913 7.913 0 0 0-.984 2.84l.525.303ZM12 0C5.373 0 0 5.373 0 12s5.373 12 12 12 12-5.373 12-12S18.627 0 12 0Z" fill="#0C121A"/><path fill-rule="evenodd" clip-rule="evenodd" d="M19.782 12a7.782 7.782 0 1 1-15.564 0 7.782 7.782 0 0 1 15.564 0Z" fill="#0C121A"/><path fill-rule="evenodd" clip-rule="evenodd" d="M9.054 12.926c0-.437-.235-.656-.705-.656h-.928v1.338h.955c.235 0 .407-.056.515-.17.108-.114.163-.285.163-.512Zm-.204-1.954c0-.21-.05-.36-.15-.447-.1-.089-.248-.133-.445-.133H7.42v1.156h.839c.206 0 .357-.048.45-.144.093-.096.14-.24.14-.432Zm.938 2.03c0 .424-.12.752-.357.984-.238.232-.57.348-.993.348H6.69V9.666h1.6c.427 0 .75.1.97.297.218.198.328.49.328.876 0 .265-.055.489-.165.67a.824.824 0 0 1-.502.37c.282.045.498.163.646.356.148.194.222.45.222.767ZM12.674 11.098c0-.449-.215-.673-.645-.673h-.938v1.378h.958c.205 0 .36-.062.466-.185.106-.124.159-.297.159-.52Zm.087 3.236-.811-1.772h-.859v1.772h-.732V9.666h1.747c.417 0 .738.12.965.36.226.24.34.584.34 1.032 0 .327-.07.609-.209.846a.99.99 0 0 1-.563.469l.945 1.96h-.823ZM16.447 14.334l-1.255-2.143-.432.44v1.703h-.732V9.666h.732v2.117l1.575-2.117h.854l-1.494 1.975 1.615 2.693h-.863Z" fill="#FFFFFE"/></svg>