<svg width="24" height="24" fill="none" xmlns="http://www.w3.org/2000/svg"><g clip-path="url(#a)"><path d="M15.006 1.11V.416A.416.416 0 0 0 14.59 0h-.017a9.01 9.01 0 0 0-8.567 8.629c.01.292.247.369.386.369h.702A.418.418 0 0 0 7.51 8.6a7.507 7.507 0 0 1 7.11-7.1c.292-.037.386-.197.386-.392ZM8.682 9h.67a.416.416 0 0 0 .412-.387 5.255 5.255 0 0 1 4.888-4.855.379.379 0 0 0 .353-.398v-.687a.418.418 0 0 0-.447-.417 6.757 6.757 0 0 0-6.295 6.296.418.418 0 0 0 .39.445h.027l.002.004Zm6.322-4.069v.69c0 .282-.244.383-.363.397a3.004 3.004 0 0 0-2.617 2.61.42.42 0 0 1-.415.371h-.67a.416.416 0 0 1-.417-.454 4.506 4.506 0 0 1 4.028-4.028.415.415 0 0 1 .452.415h.002Zm7.886 10.054c-.195 0-.355-.094-.393-.386a7.508 7.508 0 0 0-7.1-7.112.416.416 0 0 1-.396-.416V6.37c0-.14.076-.376.368-.386A9.01 9.01 0 0 1 24 14.55a.417.417 0 0 1-.4.433h-.016l-.693.003Zm-7.892-6.324a.416.416 0 0 1 .418-.417h.028a6.757 6.757 0 0 1 6.3 6.296.42.42 0 0 1-.39.446H20.642a.378.378 0 0 1-.397-.353 5.256 5.256 0 0 0-4.856-4.888.415.415 0 0 1-.388-.412l-.003-.672Zm4.066 6.324h-.686c-.281 0-.382-.244-.397-.364a3.004 3.004 0 0 0-2.61-2.616.419.419 0 0 1-.371-.414v-.672a.416.416 0 0 1 .454-.418 4.505 4.505 0 0 1 4.027 4.027.415.415 0 0 1-.414.452l-.003.005ZM1.11 8.997c.195 0 .355.093.392.386a7.508 7.508 0 0 0 7.102 7.11.418.418 0 0 1 .396.416v.703c0 .139-.076.375-.368.385A9.01 9.01 0 0 1 0 9.43.416.416 0 0 1 .4 9h.017l.693-.002Zm7.892 6.324a.418.418 0 0 1-.42.417h-.027a6.757 6.757 0 0 1-6.297-6.295.418.418 0 0 1 .387-.446h.714a.378.378 0 0 1 .397.354 5.256 5.256 0 0 0 4.857 4.888.415.415 0 0 1 .387.412l.002.67ZM4.935 8.997h.687c.281 0 .383.244.397.363a3.006 3.006 0 0 0 2.61 2.617.418.418 0 0 1 .371.413v.672a.417.417 0 0 1-.414.418h-.04a4.506 4.506 0 0 1-4.028-4.028A.415.415 0 0 1 4.896 9h.04v-.003Zm4.069 13.891c0-.194.093-.354.386-.392a7.509 7.509 0 0 0 7.11-7.098.418.418 0 0 1 .416-.397h.702c.14 0 .375.077.386.369A9.01 9.01 0 0 1 9.437 24a.417.417 0 0 1-.433-.4v-.712Zm6.324-7.892a.417.417 0 0 1 .417.419v.028a6.757 6.757 0 0 1-6.296 6.3.419.419 0 0 1-.446-.389V20.642a.378.378 0 0 1 .353-.398 5.256 5.256 0 0 0 4.888-4.855.414.414 0 0 1 .412-.388l.672-.005Zm-6.324 4.066v-.684c0-.281.245-.383.364-.397a3.005 3.005 0 0 0 2.616-2.61.42.42 0 0 1 .415-.37h.672a.416.416 0 0 1 .417.413v.04a4.507 4.507 0 0 1-4.028 4.028.414.414 0 0 1-.452-.418l-.004-.002Z" fill="#FF5C00"/></g><defs><clipPath id="a"><path fill="#fff" d="M0 0h24v24H0z"/></clipPath></defs></svg>