<svg width="24" height="24" fill="none" xmlns="http://www.w3.org/2000/svg"><path d="M23.63 14.913A11.994 11.994 0 1 1 14.89.36a11.953 11.953 0 0 1 8.74 14.553Z" fill="#EC672F"/><path d="M7.218 11.054h4.3v3.394a1.656 1.656 0 0 0-1.139 1.558 1.627 1.627 0 1 0 2.945-.957c-.2-.279-.481-.489-.806-.6v-3.395h4.254a.258.258 0 0 0 .256-.256v-.558a.258.258 0 0 0-.256-.255h-4.37V4.057h4.37a.258.258 0 0 0 .256-.256v-.546a.258.258 0 0 0-.256-.256H7.218a.258.258 0 0 0-.244.256v.558a.258.258 0 0 0 .256.255h4.23v5.928H7.218a.258.258 0 0 0-.256.256v.558a.232.232 0 0 0 .256.244Zm5.568 4.987a.767.767 0 1 1-.473-.711.76.76 0 0 1 .473.71Z" fill="#fff"/><path d="m15.75 12.402-.023-.023a.17.17 0 0 0-.232 0l-.419.418a.201.201 0 0 0-.07.14.14.14 0 0 0 .024.093c0 .006.002.012.007.016.004.005.01.007.016.007l.023.023a4.358 4.358 0 0 1 1.093 2.836 4.161 4.161 0 0 1-8.323 0c0-1.069.442-1.999 1.093-2.836l.023-.023a.023.023 0 0 1 .024-.023c.023-.023.023-.047.023-.093a.165.165 0 0 0-.07-.14l-.418-.418a.167.167 0 0 0-.233 0l-.023.023a4.738 4.738 0 0 0-1.488 3.534 5.244 5.244 0 0 0 5.23 5.253 5.244 5.244 0 0 0 5.231-5.253 4.738 4.738 0 0 0-1.488-3.534Z" fill="#fff"/></svg>