<svg width="24" height="24" fill="none" xmlns="http://www.w3.org/2000/svg"><path d="m7.284 17.393-5.506.62 3.233-7.46L1.7 6.041l8.047-.917L11.935.096l4.79 6.511 5.506-.619-3.219 7.423 3.286 4.481-8.006.912-2.22 5.1-4.788-6.511Zm2.287-.494c-.211.103-.437.19-.67.254l-.211.058 3.103 4.219 1.102-2.535-.2-.026a3.967 3.967 0 0 1-2.707-1.6l-.31-.428-.107.058Zm-1.08-3.826 2.503 3.463a2.724 2.724 0 0 0 2.5 1.107l6.534-.744-2.602-3.55a2.765 2.765 0 0 0-.444-.473l-.154-.127-1.862 4.207-3.24-4.289-3.235.406Zm.108-4.217a2.72 2.72 0 0 0-2.203 1.623l-2.624 6.055 4.359-.49c.216-.024.427-.074.631-.149l.187-.07-2.697-3.724 5.318-.674 1.265-3.022-4.236.451Zm4.116 3.055 1.97 2.61 1.203-2.715.528-1.195a2.736 2.736 0 0 0-.298-2.727l-3.905-5.313-1.757 4.036c-.086.2-.148.408-.187.624l-.033.197 4.557-.482-2.078 4.965Zm4.788-4.137.077.185a4.01 4.01 0 0 1-.03 3.158l-.213.48.103.07c.197.132.382.285.552.456l.156.153 2.086-4.812-2.731.31Zm-13.531-.74L5.632 9.3l.123-.158a3.98 3.98 0 0 1 2.714-1.527l.521-.055.01-.127c.016-.262.062-.523.132-.778l.06-.216-5.22.596Z" fill="url(#a)"/><path d="M10.838 24c-3.455-.334-6.561-2.131-8.594-4.98l1.392-.156c.23.283.475.554.727.809a10.717 10.717 0 0 0 5.47 2.961L10.838 24Z" fill="url(#b)"/><path d="M13.738 22.711a10.68 10.68 0 0 0 5.9-3.038c.143-.147.29-.303.436-.466l1.687-.192A11.914 11.914 0 0 1 13.18 24l.559-1.289Z" fill="url(#c)"/><path d="M22.104 15.847c.46-1.226.695-2.52.695-3.847 0-1.171-.184-2.323-.547-3.422l.677-1.56A11.982 11.982 0 0 1 24 12c0 1.738-.36 3.41-1.067 4.977l-.828-1.13Z" fill="url(#d)"/><path d="M1.075 16.994A12.003 12.003 0 0 1 0 12c0-1.755.365-3.442 1.087-5.019l.826 1.128A10.862 10.862 0 0 0 1.2 12c0 1.177.185 2.331.55 3.435l-.675 1.56Z" fill="url(#e)"/><path d="M2.294 4.91C4.324 2.107 7.406.331 10.831 0l-.56 1.286a10.68 10.68 0 0 0-6.275 3.43l-1.702.194Z" fill="url(#f)"/><path d="M20.366 5.136c-.23-.283-.475-.554-.73-.809a10.712 10.712 0 0 0-5.46-2.959L13.172 0c3.454.336 6.554 2.134 8.585 4.98l-1.39.156Z" fill="url(#g)"/><defs><linearGradient id="a" x1="2.306" y1="21.66" x2="21.025" y2="2.941" gradientUnits="userSpaceOnUse"><stop stop-color="#009DDE"/><stop offset=".5" stop-color="#694D9F"/><stop offset="1" stop-color="#ED3554"/></linearGradient><linearGradient id="b" x1="4.349" y1="23.702" x2="23.068" y2="4.983" gradientUnits="userSpaceOnUse"><stop stop-color="#009DDE"/><stop offset=".5" stop-color="#694D9F"/><stop offset="1" stop-color="#ED3554"/></linearGradient><linearGradient id="c" x1="9.69" y1="29.043" x2="28.409" y2="10.324" gradientUnits="userSpaceOnUse"><stop stop-color="#009DDE"/><stop offset=".5" stop-color="#694D9F"/><stop offset="1" stop-color="#ED3554"/></linearGradient><linearGradient id="d" x1="7.787" y1="27.141" x2="26.506" y2="8.421" gradientUnits="userSpaceOnUse"><stop stop-color="#009DDE"/><stop offset=".5" stop-color="#694D9F"/><stop offset="1" stop-color="#ED3554"/></linearGradient><linearGradient id="e" x1="-3.142" y1="16.211" x2="15.577" y2="-2.508" gradientUnits="userSpaceOnUse"><stop stop-color="#009DDE"/><stop offset=".5" stop-color="#694D9F"/><stop offset="1" stop-color="#ED3554"/></linearGradient><linearGradient id="f" x1="-5.041" y1="14.313" x2="13.679" y2="-4.406" gradientUnits="userSpaceOnUse"><stop stop-color="#009DDE"/><stop offset=".5" stop-color="#694D9F"/><stop offset="1" stop-color="#ED3554"/></linearGradient><linearGradient id="g" x1=".3" y1="19.654" x2="19.019" y2=".934" gradientUnits="userSpaceOnUse"><stop stop-color="#009DDE"/><stop offset=".5" stop-color="#694D9F"/><stop offset="1" stop-color="#ED3554"/></linearGradient></defs></svg>