<svg width="24" height="24" fill="none" xmlns="http://www.w3.org/2000/svg"><mask id="a" mask-type="alpha" maskUnits="userSpaceOnUse" x="0" y="0" width="24" height="24"><path d="M12 23.248C5.799 23.248.753 18.203.753 12 .752 5.798 5.798.751 12 .751 18.204.751 23.25 5.798 23.25 12c0 6.202-5.046 11.248-11.248 11.248Z" fill="#fff"/></mask><g mask="url(#a)"><path d="M12 23.248C5.799 23.248.753 18.203.753 12 .752 5.798 5.798.751 12 .751 18.204.751 23.25 5.798 23.25 12c0 6.202-5.046 11.248-11.248 11.248Z" fill="#0F100F"/><path fill-rule="evenodd" clip-rule="evenodd" d="M13.782.751v.78l1.297-.473L13.782.75Z" fill="#C4CACA"/><path fill-rule="evenodd" clip-rule="evenodd" d="M14.522 1.607h-.74l1.106-.48-.366.48Z" fill="#ACB6BA"/><path fill-rule="evenodd" clip-rule="evenodd" d="m15.922 1.463-1.4.075.366-.41.191-.07.843.405Z" fill="#B7BFC3"/><path fill-rule="evenodd" clip-rule="evenodd" d="m12.812.633-.048.508 1.018.39V.75l-.97-.118Z" fill="#B7BDBF"/><path fill-rule="evenodd" clip-rule="evenodd" d="m11.564.633-.206.425 1.406.083.049-.508h-1.249Z" fill="#BCC2C4"/><path fill-rule="evenodd" clip-rule="evenodd" d="m9.504.936 1.49.28.364-.158.207-.425-2.061.303Z" fill="#B5BEC3"/><path fill-rule="evenodd" clip-rule="evenodd" d="M8.11 1.445c.003-.001.363.63.363.63l1.164-.948-.134-.19-1.394.508Z" fill="#A8AFB1"/><path fill-rule="evenodd" clip-rule="evenodd" d="m10 1.664-1.526.412 1.163-.949.364.537Z" fill="#9BA2A4"/><path fill-rule="evenodd" clip-rule="evenodd" d="m10.995 1.215.412.08L10 1.663l-.364-.537-.133-.19 1.49.278Z" fill="#B8BEBF"/><path fill-rule="evenodd" clip-rule="evenodd" d="M13.782 1.607h-.97l-.279-.48.231.017 1.018.463Z" fill="#BEC3C4"/><path fill-rule="evenodd" clip-rule="evenodd" d="m10.994 1.218.364-.16 1.175.07.28.41-1.407-.24-.412-.08Z" fill="#B5BABA"/><path fill-rule="evenodd" clip-rule="evenodd" d="m10 1.664 1.115.897.291-1.267-1.406.37Z" fill="#979C9B"/><path fill-rule="evenodd" clip-rule="evenodd" d="m8.474 2.076.654 1.09.873-1.502-1.527.412Z" fill="#444545"/><path fill-rule="evenodd" clip-rule="evenodd" d="M11.115 2.56 10 2.79V1.665l1.115.897Z" fill="#818685"/><path fill-rule="evenodd" clip-rule="evenodd" d="m11.406 1.294.497.37-.788.897.291-1.267Z" fill="#808686"/><path fill-rule="evenodd" clip-rule="evenodd" d="m12.812 1.6-.909.174-.497-.48 1.406.307Z" fill="#BBC1C4"/><path fill-rule="evenodd" clip-rule="evenodd" d="m10 2.794.454.247 1.655-.185-.994-.295L10 2.794Z" fill="#A3AAAD"/><path fill-rule="evenodd" clip-rule="evenodd" d="m12.812 1.53-.145.48-.764-.277.91-.203Z" fill="#B1B9BD"/><path fill-rule="evenodd" clip-rule="evenodd" d="m11.115 2.56.788-.896.764.181-.558 1.006-.994-.29Z" fill="#7F8485"/><path fill-rule="evenodd" clip-rule="evenodd" d="m10.455 3.033-1.29.813-.037-.68.873-.375.454.242Z" fill="#868D8D"/><path fill-rule="evenodd" clip-rule="evenodd" d="m8.473 2.076.655 1.09-.97-.206.315-.884Z" fill="#919493"/><path fill-rule="evenodd" clip-rule="evenodd" d="m9.164 3.846-.91.085.874-.764.036.679Z" fill="#909697"/><path fill-rule="evenodd" clip-rule="evenodd" d="m8.158 2.96.097.97.873-.763-.97-.206Z" fill="#989C9C"/><path fill-rule="evenodd" clip-rule="evenodd" d="m10.455 3.033.394.897 1.26-1.078-1.654.181Z" fill="#535554"/><path fill-rule="evenodd" clip-rule="evenodd" d="m9.164 3.845.473.412.818-1.224-1.29.812Z" fill="#4C4F4F"/><path fill-rule="evenodd" clip-rule="evenodd" d="m10.849 3.93-1.212.327.818-1.224.394.897Z" fill="#2F3130"/><path fill-rule="evenodd" clip-rule="evenodd" d="m12.812 1.53.97 1.14-.242.412-.873-1.237.145-.315Z" fill="#888E90"/><path fill-rule="evenodd" clip-rule="evenodd" d="m14.522 1.53.557 1.2-1.297-.06-.97-1.14h1.71Z" fill="#656767"/><path fill-rule="evenodd" clip-rule="evenodd" d="m15.637 1.472-.558 1.258-.558-1.2 1.116-.058Z" fill="#787D7D"/><path fill-rule="evenodd" clip-rule="evenodd" d="m16.691 2.1-.46-.771-.594.142 1.054.63Z" fill="#838C90"/><path fill-rule="evenodd" clip-rule="evenodd" d="m15.08 2.73 1.042.916.109-.855-1.152-.06Z" fill="#ABAEAF"/><path fill-rule="evenodd" clip-rule="evenodd" d="m15.637 1.472 1.054.63-.46.689-1.152-.06.558-1.26Z" fill="#B4BAB9"/><path fill-rule="evenodd" clip-rule="evenodd" d="m12.667 1.846.873 1.236-1.43-.23.557-1.006Z" fill="#717473"/><path fill-rule="evenodd" clip-rule="evenodd" d="m15.08 2.73-.191.458-1.349-.106.242-.412 1.297.06Z" fill="#A8AEB0"/><path fill-rule="evenodd" clip-rule="evenodd" d="m16.122 3.646-1.233-.458.19-.458 1.043.916Z" fill="#9EA4A7"/><path fill-rule="evenodd" clip-rule="evenodd" d="m16.231 2.791 1.079.397-1.188.458.11-.855Z" fill="#848A8B"/><path fill-rule="evenodd" clip-rule="evenodd" d="m16.691 2.101-.46.69 1.078.397-.618-1.087Z" fill="#83898A"/><path fill-rule="evenodd" clip-rule="evenodd" d="m8.158 2.96-.848.073 1.163-.957-.315.884Z" fill="#969C9D"/><path fill-rule="evenodd" clip-rule="evenodd" d="m8.11 1.445.364.63-1.164.958-.073-1.37.873-.218Z" fill="#858C8E"/><path fill-rule="evenodd" clip-rule="evenodd" d="m8.158 2.96.097.97-.69.437-.255-1.333.848-.073Z" fill="#3A3D3C"/><path fill-rule="evenodd" clip-rule="evenodd" d="m9.164 3.846.473.412 1.066.824-1.539.521-1.055-.879.146-.793.91-.085Z" fill="#858A8A"/><path fill-rule="evenodd" clip-rule="evenodd" d="m10.849 3.93-.146 1.152-1.066-.824 1.212-.327Z" fill="#676A69"/><path fill-rule="evenodd" clip-rule="evenodd" d="m12.11 2.852.327.945-1.588.133 1.26-1.078Z" fill="#727574"/><path fill-rule="evenodd" clip-rule="evenodd" d="m13.54 3.082-1.103.715-.328-.945 1.43.23Z" fill="#808483"/><path fill-rule="evenodd" clip-rule="evenodd" d="m14.889 3.188-.367.84-.982-.946 1.349.106Z" fill="#656867"/><path fill-rule="evenodd" clip-rule="evenodd" d="m16.122 3.646-.133.72-1.1-1.178 1.233.458Z" fill="#8B9191"/><path fill-rule="evenodd" clip-rule="evenodd" d="m16.23 1.329.813.456-.352.316-.46-.772Z" fill="#AFB4B5"/><path fill-rule="evenodd" clip-rule="evenodd" d="m18.195 2.415-.376.437-1.128-.75.352-.317 1.152.63Z" fill="#A2A8AB"/><path fill-rule="evenodd" clip-rule="evenodd" d="m17.31 3.188.509-.336-1.128-.75.619 1.086Z" fill="#7A7F81"/><path fill-rule="evenodd" clip-rule="evenodd" d="M7.236 1.664 7.29 2.67l-.938.06.884-1.066Z" fill="#91979A"/><path fill-rule="evenodd" clip-rule="evenodd" d="m7.31 3.034-1.055.69-.484-.278.581-.715.939-.061.019.364Z" fill="#AFB6BA"/><path fill-rule="evenodd" clip-rule="evenodd" d="M7.564 4.367c-.085.036-.679.424-.679.424l-.63-1.067 1.054-.69.255 1.333Z" fill="#171818"/><path fill-rule="evenodd" clip-rule="evenodd" d="m8.11 4.725-.546-.358.691-.436-.145.794Z" fill="#545859"/><path fill-rule="evenodd" clip-rule="evenodd" d="m8.588 5.123-1.473.722.994-1.12.479.398Z" fill="#151615"/><path fill-rule="evenodd" clip-rule="evenodd" d="m7.565 4.367.545.357-.994 1.121-.23-1.054.679-.424Z" fill="#353838"/><path fill-rule="evenodd" clip-rule="evenodd" d="m12 4.258-1.297.824.146-1.151L12 4.258Z" fill="#676A69"/><path fill-rule="evenodd" clip-rule="evenodd" d="m12.437 3.797 1.175.848L12 4.258 10.85 3.93l1.588-.133Z" fill="#979D9F"/><path fill-rule="evenodd" clip-rule="evenodd" d="m13.54 3.082.072 1.564-1.175-.849 1.103-.715Z" fill="#696C6A"/><path fill-rule="evenodd" clip-rule="evenodd" d="m15.988 4.367-1.466-.34.366-.839 1.1 1.179Z" fill="#5B5D5C"/><path fill-rule="evenodd" clip-rule="evenodd" d="m13.54 3.082.073 1.564 1.357.436-.448-1.055-.982-.945Z" fill="#565958"/><path fill-rule="evenodd" clip-rule="evenodd" d="m17.819 2.851-.51.337 1.104.257 1.224.582-.182-.588-1.26-1.024-.376.436Z" fill="#7E8588"/><path fill-rule="evenodd" clip-rule="evenodd" d="M16.122 3.646c.085.054 1.588.575 1.588.575l-.4-1.033-1.188.458Z" fill="#808687"/><path fill-rule="evenodd" clip-rule="evenodd" d="m15.988 4.367 1.322.485.4-.63-1.588-.576-.134.72Z" fill="#767C7D"/><path fill-rule="evenodd" clip-rule="evenodd" d="m17.31 3.188 1.103.258 1.224.581-.764.764-1.163-.57-.4-1.033Z" fill="#343736"/><path fill-rule="evenodd" clip-rule="evenodd" d="m5.77 3.445-1.188-.054 1.455-1.152 1.2-.575-.885 1.066-.582.715Z" fill="#92989A"/><path fill-rule="evenodd" clip-rule="evenodd" d="m6.255 3.724-1.122.534-.551-.867 1.188.055.485.278Z" fill="#474949"/><path fill-rule="evenodd" clip-rule="evenodd" d="m6.885 4.79-.976-.423-.776-.11 1.122-.533.63 1.067Z" fill="#404242"/><path fill-rule="evenodd" clip-rule="evenodd" d="m4.582 3.391-.849 1.333 1.4-.466-.551-.867Z" fill="#343736"/><path fill-rule="evenodd" clip-rule="evenodd" d="m5.26 4.791-1.527-.067 1.4-.466.128.533Z" fill="#939A9D"/><path fill-rule="evenodd" clip-rule="evenodd" d="m5.685 5.106-.424-.315-.128-.533.776.109-.224.74Z" fill="#606567"/><path fill-rule="evenodd" clip-rule="evenodd" d="m7.116 5.845-1.43-.739.224-.74.976.425.23 1.054Z" fill="#909494"/><path fill-rule="evenodd" clip-rule="evenodd" d="M3.733 4.724c.025.152.146 1.121.146 1.121l1.254-.085-.175.291.727.485 1.43-.69-1.43-.74-.424-.315-1.528-.067Z" fill="#0A0B09"/><path fill-rule="evenodd" clip-rule="evenodd" d="m4.582 3.391-.849 1.333h-.472l1.321-1.333Z" fill="#788084"/><path fill-rule="evenodd" clip-rule="evenodd" d="m3.879 5.845-.885-.097v-.751l.267-.273h.472l.146 1.121Z" fill="#202223"/><path fill-rule="evenodd" clip-rule="evenodd" d="m4.958 6.064-.788.177-.291-.392 1.254-.088-.175.303Z" fill="#535859"/><path fill-rule="evenodd" clip-rule="evenodd" d="m5.685 6.537-1.806.97 1.079-1.455.727.485Z" fill="#161716"/><path fill-rule="evenodd" clip-rule="evenodd" d="m2.897 7.785 2.061-1.733L3.88 7.506l-.982.28Z" fill="#404446"/><path fill-rule="evenodd" clip-rule="evenodd" d="m4.17 6.221.788-.17-2.06 1.734.096-.867 1.176-.697Z" fill="#2D2F30"/><path fill-rule="evenodd" clip-rule="evenodd" d="m9.164 5.603-1.006.776-1.043-.533 1.473-.722.576.48Z" fill="#323534"/><path fill-rule="evenodd" clip-rule="evenodd" d="m10.704 5.082 1.095 1.14 1.498 1.018 1.48.666 1.108-.57.83 1.091-1.696 1.055-1.237-.933-.957-.158-.825-.74-1.442-.981-1.394-1.067 1.54-.521Z" fill="#151615"/><path fill-rule="evenodd" clip-rule="evenodd" d="m12 4.258.94 1.188H11.89l-1.188-.364L12 4.258Z" fill="#0A0B09"/><path fill-rule="evenodd" clip-rule="evenodd" d="m11.799 6.221 1.813.316-.672-1.091H11.89l-1.188-.364 1.096 1.14Z" fill="#3F403F"/><path fill-rule="evenodd" clip-rule="evenodd" d="m13.297 7.24.315-.704-1.813-.315 1.498 1.018Z" fill="#4D4F4F"/><path fill-rule="evenodd" clip-rule="evenodd" d="m12 4.258 1.612.388-.673.8L12 4.258Z" fill="#373939"/><path fill-rule="evenodd" clip-rule="evenodd" d="m14.97 5.082 1.151.364-1.333.157-1.176-.957 1.358.436Z" fill="#9DA2A3"/><path fill-rule="evenodd" clip-rule="evenodd" d="m9.552 6.536-.388-.933-1.006.776 1.394.157Z" fill="#393C3B"/><path fill-rule="evenodd" clip-rule="evenodd" d="m12 7.651-1.296.134-1.152-1.249-.388-.933 1.394 1.067L12 7.65Z" fill="#595B5A"/><path fill-rule="evenodd" clip-rule="evenodd" d="m8.158 6.379-1.419.315-1.053-.157 1.43-.691 1.042.533Z" fill="#4B4E4E"/><path fill-rule="evenodd" clip-rule="evenodd" d="m7.91 7.179-1.17-.485 1.419-.315-.249.8Z" fill="#242625"/><path fill-rule="evenodd" clip-rule="evenodd" d="m10.703 7.785-1.297.303-1.497-.91.249-.8 1.394.159 1.151 1.248Z" fill="#0A0B09"/><path fill-rule="evenodd" clip-rule="evenodd" d="M6.738 6.694 5.2 7.282l-1.321.224 1.806-.97 1.053.158Z" fill="#282A29"/><path fill-rule="evenodd" clip-rule="evenodd" d="m2.995 6.918-.255-.381 1.14-.691.29.375-1.175.697Z" fill="#373A3B"/><path fill-rule="evenodd" clip-rule="evenodd" d="m2.995 5.749-.255.787 1.14-.69-.885-.097Z" fill="#44494A"/><path fill-rule="evenodd" clip-rule="evenodd" d="M2.994 4.997v.752l-.254.787-1.188.97.654-1.515.788-.994Z" fill="#454A4C"/><path fill-rule="evenodd" clip-rule="evenodd" d="m2.897 7.785-.624.146-.505-.6.972-.794.254.381-.097.867Z" fill="#1B1E1E"/><path fill-rule="evenodd" clip-rule="evenodd" d="m5.2 7.282-.86 1.182-1.079.678-1.37.17-.181-.473-.643-.218.485-1.115.216-.176.505.6.625-.145.981-.279 1.322-.224ZM6.739 6.694l.425.897-.624.933 1.024.436.691-.278 1.038.982.998-.704-.884-.872-1.497-.91-1.171-.484Z" fill="#0F100F"/><path fill-rule="evenodd" clip-rule="evenodd" d="m5.2 7.282 1.34 1.242.624-.933-.425-.897-1.539.588Z" fill="#1E211F"/><path fill-rule="evenodd" clip-rule="evenodd" d="m3.26 9.142.558.522 1.2-1.419.182-.963-.86 1.182-1.08.678Z" fill="#282B2C"/><path fill-rule="evenodd" clip-rule="evenodd" d="m2.546 9.231-.934 1.16.594.618.534-.34.52-1.526-.714.088Z" fill="#121413"/><path fill-rule="evenodd" clip-rule="evenodd" d="M1.067 8.622c-.006.036-.266.806-.266.806l.812.963.934-1.16-.655.081-.182-.472-.643-.218Z" fill="#242727"/><path fill-rule="evenodd" clip-rule="evenodd" d="m5.2 7.282-.181.963.99-.213-.809-.75Z" fill="#434545"/><path fill-rule="evenodd" clip-rule="evenodd" d="M6.54 8.524 5.52 9.818 5.02 8.246l.99-.214.53.492Z" fill="#363937"/><path fill-rule="evenodd" clip-rule="evenodd" d="m7.082 10.076-1.56-.258L6.54 8.524l.542 1.552Z" fill="#262827"/><path fill-rule="evenodd" clip-rule="evenodd" d="M8.255 8.682c.01.082.082 1.394.082 1.394H7.082L6.54 8.524l1.024.437.691-.279Z" fill="#161716"/><path fill-rule="evenodd" clip-rule="evenodd" d="m9.293 9.664-.956.412-.082-1.394 1.038.982Z" fill="#1C1E1D"/><path fill-rule="evenodd" clip-rule="evenodd" d="m10.703 7.785 1.119 1.233-1.53-.057-.886-.873 1.297-.303ZM15.018 9.482l-1.516-.22-1.68-.244-1.119-1.233L12 7.65l.824.74.958.157 1.236.934Z" fill="#333534"/><path fill-rule="evenodd" clip-rule="evenodd" d="m12.545 10.473.957-1.21.608.605-1.565.605Z" fill="#222423"/><path fill-rule="evenodd" clip-rule="evenodd" d="m15.019 9.482-.91.386-.607-.606 1.517.22Z" fill="#404140"/><path fill-rule="evenodd" clip-rule="evenodd" d="m15.886 7.337-1.11.57-1.478-.667.315-.703.91-.1 1.363.9Z" fill="#161817"/><path fill-rule="evenodd" clip-rule="evenodd" d="m14.788 5.603-.267.834-1.582-.991 1.849.157Z" fill="#191B1A"/><path fill-rule="evenodd" clip-rule="evenodd" d="m13.612 6.537-.672-1.091 1.581.99-.909.1Z" fill="#606261"/><path fill-rule="evenodd" clip-rule="evenodd" d="m13.612 4.646 1.176.957-1.848-.157.672-.8Z" fill="#8F9394"/><path fill-rule="evenodd" clip-rule="evenodd" d="m17.31 4.852-.337.594h-.851l-1.152-.364-.449-1.055 1.467.34 1.321.485Z" fill="#6A6C6B"/><path fill-rule="evenodd" clip-rule="evenodd" d="M19.455 3.44 21 4.926l-.672-.075-.619.272-.836.867-.679-.291.443-.848.236-.061.764-.764-.182-.588Z" fill="#0A0B09"/><path fill-rule="evenodd" clip-rule="evenodd" d="m17.31 4.851.884.849.443-.849.236-.06-1.163-.57-.4.63Z" fill="#5F6363"/><path fill-rule="evenodd" clip-rule="evenodd" d="m14.521 6.436 1.534.182 1.2-.24.054-1.526-.336.594h-.851l-1.334.157-.267.833Z" fill="#131513"/><path fill-rule="evenodd" clip-rule="evenodd" d="m15.885 7.337.17-.719-1.534-.181 1.364.9Z" fill="#484A49"/><path fill-rule="evenodd" clip-rule="evenodd" d="m18.873 5.991-.482.627-.197-.918.68.291Z" fill="#282B2C"/><path fill-rule="evenodd" clip-rule="evenodd" d="m19.71 5.125.363.684-.363.885-1.318-.076.481-.627.837-.866Z" fill="#7C807F"/><path fill-rule="evenodd" clip-rule="evenodd" d="m17.31 4.852.885.848.197.918-.9.718h-1.606l.17-.718 1.2-.24.054-1.526Z" fill="#4B4E4D"/><path fill-rule="evenodd" clip-rule="evenodd" d="m21 4.927.465.676-1.391.206-.364-.685.618-.272.673.075Z" fill="#666A6B"/><path fill-rule="evenodd" clip-rule="evenodd" d="m19.71 6.694 1.036.26-.672-1.145-.364.885Z" fill="#242626"/><path fill-rule="evenodd" clip-rule="evenodd" d="m17.492 7.336-.776 1.091-.83-1.09h1.606Z" fill="#161716"/><path fill-rule="evenodd" clip-rule="evenodd" d="M20.746 6.955c.01.072.527 1.472.527 1.472l-1.563-.436-1.091-.473-.7.57s-.727 1.248-.727 1.221c0-.027-.476-.882-.476-.882l.776-1.09.9-.719 1.318.076 1.036.26Z" fill="#0F100F"/><path fill-rule="evenodd" clip-rule="evenodd" d="M19.155 9.1 17.92 8.088l.7-.57 1.09.473-.326.097-.228 1.012Z" fill="#242625"/><path fill-rule="evenodd" clip-rule="evenodd" d="m21.273 8.427.818.782-.2.928L21.22 9.1l-1.582-.2.213-.87 1.423.397Z" fill="#3D3F3F"/><path fill-rule="evenodd" clip-rule="evenodd" d="m19.155 9.1.482-.2.213-.87-.14-.039-.328.097-.227 1.012Z" fill="#0F100E"/><path fill-rule="evenodd" clip-rule="evenodd" d="m21.464 5.603.364.697-.737.79.182 1.337-.527-1.472-.673-1.146 1.391-.206Z" fill="#444849"/><path fill-rule="evenodd" clip-rule="evenodd" d="m22.092 9.21-.264-1.52-.555.737.819.782Z" fill="#121413"/><path fill-rule="evenodd" clip-rule="evenodd" d="M21.828 6.3v1.391l-.554.737-.182-1.337.736-.79Z" fill="#515454"/><path fill-rule="evenodd" clip-rule="evenodd" d="m22.828 8.203-.907.025-.093-.537v-1.39l.746 1.036.254.866Z" fill="#343738"/><path fill-rule="evenodd" clip-rule="evenodd" d="m19.155 9.1-.16.767-.985-.605 1.145-.162Z" fill="#2C2E2E"/><path fill-rule="evenodd" clip-rule="evenodd" d="m10 2.79-.872.377L10 1.664V2.79Z" fill="#4C4F4F"/></g></svg>