<svg width="24" height="24" viewBox="0 0 24 24" fill="none" xmlns="http://www.w3.org/2000/svg">
<path fill-rule="evenodd" clip-rule="evenodd" d="M24 12C24 18.6274 18.6274 24 12 24C5.37255 24 0 18.6274 0 12C0 5.37255 5.37255 0 12 0C18.6274 0 24 5.37255 24 12Z" fill="url(#paint0_linear)"/>
<path fill-rule="evenodd" clip-rule="evenodd" d="M12.0002 22.2543C6.34604 22.2543 1.74599 17.6543 1.74599 12.0002C1.74599 6.34604 6.34604 1.74599 12.0002 1.74599C17.6543 1.74599 22.2543 6.34604 22.2543 12.0002C22.2543 17.6543 17.6543 22.2543 12.0002 22.2543ZM12.0002 1.08301C5.98047 1.08301 1.08301 5.98047 1.08301 12.0002C1.08301 18.0198 5.98047 22.9172 12.0002 22.9172C18.0198 22.9172 22.9173 18.0198 22.9173 12.0002C22.9173 5.98047 18.0198 1.08301 12.0002 1.08301Z" fill="#FFFFFE"/>
<path fill-rule="evenodd" clip-rule="evenodd" d="M16.5234 12C16.5234 14.4983 14.4983 16.5234 12 16.5234C9.50178 16.5234 7.47656 14.4983 7.47656 12C7.47656 9.50178 9.50178 7.47656 12 7.47656C14.4983 7.47656 16.5234 9.50178 16.5234 12Z" fill="#E48D2E"/>
<path fill-rule="evenodd" clip-rule="evenodd" d="M12.0004 19.9475C9.8565 19.9475 7.84666 19.1067 6.34123 17.5801C4.83599 16.0537 4.02357 14.0317 4.05353 11.8864C4.08244 9.81734 4.90958 7.86545 6.3826 6.39031C7.85555 4.91511 9.80624 4.08512 11.8752 4.05323C14.121 4.01776 16.2867 4.94103 17.8171 6.5841C18.1291 6.91898 18.1105 7.4434 17.7756 7.7554C17.4407 8.06733 16.9163 8.04864 16.6043 7.71383C15.3929 6.41319 13.6798 5.68251 11.9008 5.71049C8.53471 5.7624 5.75787 8.54329 5.71086 11.9097C5.68706 13.6078 6.33009 15.2083 7.52134 16.4163C8.71292 17.6246 10.3036 18.2901 12.0004 18.2901C15.1879 18.2901 17.8293 15.9068 18.2362 12.8286H13.0388L14.2449 14.0346C14.5685 14.3583 14.5685 14.883 14.2449 15.2067C13.9213 15.5303 13.3965 15.5303 13.0729 15.2067L10.4521 12.5859C10.2967 12.4305 10.2093 12.2197 10.2093 11.9999C10.2093 11.7801 10.2967 11.5693 10.4521 11.4139L13.0729 8.79303C13.3965 8.46943 13.9213 8.46943 14.2449 8.79303C14.5685 9.1167 14.5685 9.64145 14.2449 9.96505L13.0388 11.1712H19.1193C19.577 11.1712 19.948 11.5422 19.948 11.9999C19.948 16.3823 16.3828 19.9475 12.0004 19.9475Z" fill="#20211F"/>
<defs>
<linearGradient id="paint0_linear" x1="0" y1="11.2388" x2="24" y2="11.2388" gradientUnits="userSpaceOnUse">
<stop stop-color="#EE7B00"/>
<stop offset="1" stop-color="#B82600"/>
</linearGradient>
</defs>
</svg>
