<svg width="24" height="24" fill="none" xmlns="http://www.w3.org/2000/svg"><g clip-path="url(#a)"><path d="M11.999 23.997c6.626 0 11.998-5.372 11.998-11.998C23.997 5.372 18.625 0 12 0 5.372 0 0 5.372 0 11.999c0 6.626 5.372 11.998 11.999 11.998Z" fill="url(#b)"/><path d="M12 22.793c5.96 0 10.794-4.833 10.794-10.794 0-5.962-4.833-10.794-10.795-10.794-5.961 0-10.794 4.832-10.794 10.794 0 5.961 4.833 10.794 10.794 10.794Z" stroke="#fff" stroke-width="76.978" stroke-miterlimit="10"/><path d="m10.44 13.282 1.596-4.857 1.626 4.857H10.44Zm6.767 3.072-1.32-3.626h.788a.574.574 0 0 0 .569-.572.54.54 0 0 0-.542-.541H15.47l-.197-.565h1.402a.566.566 0 0 0 .566-.551.567.567 0 0 0-.569-.57h-1.82l-.986-2.709a2.44 2.44 0 0 0-.707-.998 1.65 1.65 0 0 0-1.113-.374 1.697 1.697 0 0 0-1.118.374c-.317.268-.561.611-.71.998L9.186 9.954h-1.81a.547.547 0 0 0-.547.545.567.567 0 0 0 .566.566H8.77l-.212.55H7.326a.547.547 0 0 0-.547.546.562.562 0 0 0 .56.562h.79l-1.342 3.631a1.882 1.882 0 0 0-.136.643c.014.31.149.601.375.813.249.215.567.333.896.33a1.207 1.207 0 0 0 1.232-.892l.52-1.55h4.781l.52 1.587a1.215 1.215 0 0 0 1.231.848c.207.004.412-.048.592-.15a2.02 2.02 0 0 0 .411-.41 1.11 1.11 0 0 0 .15-.576 3.795 3.795 0 0 0-.152-.633v-.01Z" fill="#FEFEFE"/></g><defs><linearGradient id="b" x1="4.998" y1="4.417" x2="21.278" y2="22.049" gradientUnits="userSpaceOnUse"><stop stop-color="#FC8F55"/><stop offset=".44" stop-color="#FE7A6A"/><stop offset="1" stop-color="#FE687C"/></linearGradient><clipPath id="a"><path fill="#fff" d="M0 0h24v24H0z"/></clipPath></defs></svg>