<svg width="24" height="24" fill="none" xmlns="http://www.w3.org/2000/svg"><path d="M12 24c6.627 0 12-5.373 12-12S18.627 0 12 0 0 5.373 0 12s5.373 12 12 12Z" fill="#00A8D6"/><path fill-rule="evenodd" clip-rule="evenodd" d="M10.824 14.213v-1.438h2.216c1.477 0 2.216-.37 2.216-1.107V7.795c0-.737-.739-1.106-2.216-1.106H9.495v2.323H7.5V5.25h5.318c2.955 0 4.432.811 4.432 2.434v4.095c0 1.623-1.477 2.434-4.432 2.434h-1.994Zm4.432.885h1.994v1.217c0 1.623-1.477 2.435-4.432 2.435H7.5v-8.631h5.318c.312 0 .607.009.887.027v1.44a6.843 6.843 0 0 0-.665-.03H9.495v5.755h3.545c1.478 0 2.217-.369 2.217-1.106v-1.107h-.001Z" fill="#fff"/></svg>