<svg width="24" height="25" fill="none" xmlns="http://www.w3.org/2000/svg"><path d="M12.335 21.458c1.361 0 2.946-.409 3.886-.92l-.326-.895c-.69.377-2.122.863-3.528.863-4.225 0-6.846-2.768-6.846-7.076 0-4.251 2.653-7.09 6.641-7.09 4.014 0 6.36 3.044 6.36 6.361 0 2.64-.588 4.027-1.981 4.027-.767 0-1.106-.524-1.106-1.42V9.385h-1.042v1.156h-.064c-.326-.805-1.38-1.419-2.685-1.335-1.956.134-3.464 1.821-3.464 4.142 0 2.403 1.304 4.276 3.464 4.327 1.42.038 2.327-.729 2.736-1.65h.064c.102 1.215 1.144 1.644 2.084 1.644 2.41 0 3.017-2.525 3.017-4.954 0-3.816-2.761-7.313-7.332-7.313-4.679 0-7.766 3.19-7.766 7.997 0 4.915 3.017 8.06 7.888 8.06Zm-.556-4.787c-1.694 0-2.576-1.58-2.576-3.375 0-1.694 1.048-3.12 2.608-3.12 1.61 0 2.633.978 2.633 3.12 0 2.128-.933 3.375-2.665 3.375Z" fill="#95A7AE"/></svg>