<svg width="24" height="24" fill="none" xmlns="http://www.w3.org/2000/svg"><path fill-rule="evenodd" clip-rule="evenodd" d="M4.369 2.727a11.957 11.957 0 0 0-1.677 16.8c3.297 4.049 8.694 5.381 13.342 3.705 1.041-.375 1.186-1.787.24-2.362l-6.877-4.181a4.167 4.167 0 0 0-1.962-.6l-2.069-.098-.037-.006a3.053 3.053 0 0 1-1.96-1.094 3.045 3.045 0 0 1 .44-4.28c.985-.803 1.981-.959 2.86-1.097.886-.138 1.65-.258 2.52-.966.869-.708 1.141-1.432 1.457-2.27.313-.834.668-1.777 1.654-2.58a3.045 3.045 0 0 1 4.28.438c.487.599.727 1.359.674 2.14l-.003.038-.322 2.045a4.165 4.165 0 0 0 .189 2.043l2.7 7.583c.369 1.037 1.779 1.192 2.355.254 2.59-4.214 2.383-9.774-.917-13.826C17.07-.73 9.496-1.491 4.37 2.727Z" fill="#2891A5"/><path fill-rule="evenodd" clip-rule="evenodd" d="M18.672 20.196a1.29 1.29 0 1 0 1.628 2 1.29 1.29 0 0 0-1.628-2Zm-3.42-12.102a5.87 5.87 0 0 0 .266 2.878l1.858 5.218c.283.793-.074 1.449-.503 1.797-.428.349-1.142.566-1.861.128l-4.734-2.877a5.869 5.869 0 0 0-2.764-.845l-1.987-.095a1.377 1.377 0 0 1-.841-.48 1.346 1.346 0 0 1 .194-1.89c.63-.514 1.258-.612 2.052-.736.986-.155 2.103-.33 3.328-1.328.498-.405.859-.82 1.136-1.233.405-.603.63-1.202.838-1.756.177-.47.331-.88.575-1.245.147-.22.326-.423.563-.616a1.346 1.346 0 0 1 1.89.194c.206.252.314.586.3.92l-.31 1.966Z" fill="#3C4D60"/></svg>