<svg width="24" height="24" fill="none" xmlns="http://www.w3.org/2000/svg"><path d="M12 24c6.627 0 12-5.373 12-12S18.627 0 12 0 0 5.373 0 12s5.373 12 12 12Z" fill="#2DC4E7"/><path d="M3.866 6.777c.804 0 1.634-.054 2.438.018.357.401.437.964.714 1.428 3.607.018 7.232 0 10.84 0 .267.018.597.027.732.295.16.294.044.642-.108.91-.732 1.241-1.428 2.5-2.142 3.75-.268.447-.447.946-.849 1.295-.33.277-.786.294-1.205.294H9.285c-.268 0-.553-.026-.714-.24-.518-.581-.795-1.322-1.134-2a184.954 184.954 0 0 1-1.724-3.545c-.116-.268-.258-.509-.393-.76-.472 0-.946 0-1.41-.017a5.067 5.067 0 0 1-.045-1.428h.001ZM9.5 15.732a2.569 2.569 0 0 1 1.107-.018c.41.09.768.402.867.813.106.472.106.982-.082 1.437-.178.41-.624.607-1.043.643-.483.035-1.036 0-1.394-.357-.383-.429-.383-1.053-.303-1.59.053-.446.41-.83.848-.928Zm4.464 0c.447-.098.929-.09 1.358.071.41.17.625.616.66 1.036.054.491 0 1.053-.357 1.428-.33.313-.813.358-1.25.349-.429-.018-.892-.179-1.116-.58a2.113 2.113 0 0 1-.161-1.403c.09-.437.429-.802.866-.901Z" fill="#fff"/></svg>