<svg width="24" height="24" fill="none" xmlns="http://www.w3.org/2000/svg"><path d="M8.315 4.121a1.758 1.758 0 1 0 0-3.515 1.758 1.758 0 0 0 0 3.515Z" fill="#8352A1"/><path d="M16.194 23.273a1.758 1.758 0 1 0 0-3.516 1.758 1.758 0 0 0 0 3.515Z" fill="#3E99D3"/><path d="M15.413 1.03 7.27 7.32a1.632 1.632 0 0 0 1.995 2.582l8.143-6.291a1.632 1.632 0 0 0-1.995-2.582Z" fill="#E53C54"/><path d="M15.412 7.454 7.27 13.746a1.631 1.631 0 1 0 1.995 2.582l8.143-6.292a1.632 1.632 0 0 0-1.995-2.582Z" fill="#F49352"/><path d="m7.148 20.413 8.144-6.292a1.632 1.632 0 1 1 1.995 2.582l-8.144 6.292a1.632 1.632 0 0 1-1.995-2.582Z" fill="#3EBB90"/></svg>