<svg width="24" height="24" viewBox="0 0 24 24" fill="none" xmlns="http://www.w3.org/2000/svg">
<path d="M12 0C18.6264 0 24 5.3736 24 12C24 18.6264 18.6264 24 12 24C5.3736 24 0 18.6264 0 12C0 5.3736 5.3736 0 12 0Z" fill="#1E0B49"/>
<path d="M7.7906 9.59969C8.321 8.69729 9.1706 8.16209 9.917 8.17649L10.2194 7.66529C10.7402 6.77969 10.5602 5.6997 9.8162 5.2629C9.0722 4.8261 8.0426 5.1957 7.5194 6.0765L7.2194 6.5877C7.5938 7.23329 7.5362 8.23169 7.0058 9.13889C6.4754 10.0461 5.6258 10.5765 4.8794 10.5621L4.577 11.0733C4.0562 11.9589 4.2362 13.0389 4.9802 13.4757C5.7218 13.9125 6.7538 13.5453 7.277 12.6621L7.577 12.1509C7.2026 11.5053 7.2602 10.5021 7.7906 9.59969Z" fill="#1E90FF"/>
<path d="M7.00873 14.7817C6.47833 13.8793 5.62873 13.3441 4.88233 13.3585L4.57993 12.8473C4.05913 11.9617 4.23913 10.8817 4.98313 10.4449C5.72713 10.0081 6.75673 10.3729 7.27993 11.2585L7.57993 11.7697C7.20553 12.4153 7.26313 13.4137 7.79353 14.3209C8.32633 15.2281 9.17353 15.7585 9.91993 15.7441L10.2223 16.2553C10.7431 17.1409 10.5631 18.2209 9.81913 18.6577C9.07753 19.0945 8.04553 18.7297 7.52233 17.8441L7.22233 17.3329C7.59433 16.6873 7.53673 15.6841 7.00873 14.7817Z" fill="url(#paint0_linear)"/>
<path d="M13.0488 14.7817C12.5184 13.8793 11.6688 13.3441 10.9224 13.3585L10.62 12.8473C10.0992 11.9617 10.2792 10.8817 11.0232 10.4449C11.7672 10.0081 12.7968 10.3729 13.3176 11.2585L13.62 11.7697C13.2456 12.4153 13.3032 13.4137 13.8336 14.3209C14.3664 15.2281 15.2136 15.7585 15.96 15.7441L16.2624 16.2553C16.7832 17.1409 16.6032 18.2209 15.8592 18.6577C15.1176 19.0945 14.0856 18.7297 13.5624 17.8441L13.2624 17.3329C13.6392 16.6873 13.584 15.6841 13.0488 14.7817Z" fill="url(#paint1_linear)"/>
<path d="M16.8268 14.8701C17.3572 13.9701 18.2068 13.4325 18.9532 13.4469L19.2556 12.9357C19.7764 12.0501 19.5964 10.9701 18.8524 10.5333C18.1084 10.0965 17.0788 10.4637 16.5555 11.3469L16.2555 11.8581C16.63 12.5037 16.5724 13.5021 16.0419 14.4093C15.5091 15.3165 14.6619 15.8469 13.9155 15.8325L13.6131 16.3437C13.0923 17.2293 13.2723 18.3093 14.0163 18.7461C14.7603 19.1829 15.7899 18.8157 16.3131 17.9325L16.6132 17.4213C16.2339 16.7733 16.2963 15.7701 16.8268 14.8701Z" fill="url(#paint2_linear)"/>
<path d="M8.9256 4.91992C7.92 4.91992 7.1064 5.74792 7.1304 6.75832C7.152 7.71112 7.9296 8.48632 8.8824 8.51032C9.8928 8.53432 10.7208 7.72072 10.7208 6.71512C10.7208 5.72392 9.9168 4.91992 8.9256 4.91992Z" fill="#1E90FF"/>
<path d="M8.92613 15.4561C7.92053 15.4561 7.10933 16.2841 7.13333 17.2969C7.15733 18.2689 7.96373 19.0513 8.93573 19.0465C9.92213 19.0417 10.7213 18.2425 10.7237 17.2537C10.7237 16.2625 9.91973 15.4561 8.92613 15.4561Z" fill="#4B0082"/>
<path d="M14.9432 4.91992C13.9376 4.91992 13.124 5.74792 13.148 6.75832C13.1696 7.71112 13.9472 8.48632 14.9 8.51032C15.9104 8.53432 16.7384 7.72072 16.7384 6.71512C16.7384 5.72392 15.9344 4.91992 14.9432 4.91992Z" fill="#1E90FF"/>
<path d="M14.9432 15.4561C13.9376 15.4561 13.124 16.2841 13.148 17.2945C13.1696 18.2665 13.9784 19.0513 14.9504 19.0465C15.9368 19.0417 16.736 18.2425 16.7384 17.2537C16.7384 16.2625 15.9368 15.4585 14.9432 15.4561Z" fill="#4B0082"/>
<path d="M11.8924 10.188C10.8868 10.188 10.0732 11.016 10.0972 12.0264C10.1188 12.9792 10.8964 13.7544 11.8492 13.7784C12.8596 13.8024 13.6876 12.9888 13.6876 11.9832C13.6876 10.992 12.8836 10.188 11.8924 10.188Z" fill="#8B008B"/>
<path d="M17.9764 10.188C16.9708 10.188 16.1572 11.0136 16.1812 12.0264C16.2028 12.9792 16.9804 13.7568 17.9308 13.7784C18.9412 13.8024 19.7692 12.9912 19.7692 11.9856C19.7692 10.992 18.9676 10.1904 17.9764 10.188Z" fill="#8B008B"/>
<path d="M5.80842 10.188C4.80282 10.188 3.98921 11.016 4.01321 12.0264C4.03481 12.9792 4.81242 13.7544 5.76522 13.7784C6.77562 13.8024 7.60363 12.9888 7.60363 11.9832C7.60363 10.992 6.79962 10.188 5.80842 10.188Z" fill="#1E90FF"/>
<defs>
<linearGradient id="paint0_linear" x1="6.75057" y1="13.4381" x2="8.08542" y2="15.7222" gradientUnits="userSpaceOnUse">
<stop offset="0.21" stop-color="#1E90FF"/>
<stop offset="1" stop-color="#4B0082"/>
</linearGradient>
<linearGradient id="paint1_linear" x1="12.7921" y1="13.4368" x2="14.0481" y2="15.5795" gradientUnits="userSpaceOnUse">
<stop stop-color="#8B008B"/>
<stop offset="1" stop-color="#4B0082"/>
</linearGradient>
<linearGradient id="paint2_linear" x1="17.1334" y1="13.6366" x2="15.6493" y2="15.6034" gradientUnits="userSpaceOnUse">
<stop stop-color="#8B008B"/>
<stop offset="1" stop-color="#4B0082"/>
</linearGradient>
</defs>
</svg>
