<svg width="24" height="24" viewBox="0 0 24 24" fill="none" xmlns="http://www.w3.org/2000/svg">
<path d="M6.78458 2.00132C12.5222 1.99956 18.2602 1.99956 23.9985 2.00132C24.0003 3.85594 24.0003 5.71024 23.9985 7.56423C18.2607 7.56599 12.5228 7.56599 6.78458 7.56423C6.78274 5.7096 6.78274 3.8553 6.78458 2.00132Z" fill="#02A6C2"/>
<path d="M0.00719989 9.6571C1.85829 9.6475 3.7097 9.6475 5.56144 9.6571C5.57104 11.5082 5.57104 13.3596 5.56144 15.2113C3.70978 15.2209 1.85837 15.221 0.00719989 15.2118C-0.00239996 13.3604 -0.00239996 11.5088 0.00719989 9.6571Z" fill="#5FCADE"/>
<path d="M6.78871 9.65699C10.93 9.64819 15.0711 9.64819 19.2118 9.65699C19.2206 11.5081 19.2206 13.3595 19.2118 15.2113C15.0706 15.2199 10.9295 15.2199 6.78871 15.2113C6.78007 13.3601 6.78007 11.5087 6.78871 9.65699Z" fill="#5FCADE"/>
<path d="M6.79396 17.3144C8.64192 17.2943 10.4896 17.2943 12.3369 17.3144C12.3561 19.1612 12.3564 21.0088 12.3377 22.8574C10.4898 22.8756 8.64216 22.8753 6.79492 22.8564C6.77572 21.0098 6.7754 19.1624 6.79396 17.3144Z" fill="#ABEBF4"/>
</svg>
