<svg width="24" height="24" fill="none" xmlns="http://www.w3.org/2000/svg"><path d="M11.991.068C5.408.068.068 5.417.068 12S5.417 23.93 12 23.93 23.93 18.591 23.93 12c0-6.592-5.348-11.932-11.94-11.932Z" fill="#06C"/><path d="M11.991 21.694c5.354 0 9.694-4.34 9.694-9.694 0-5.354-4.34-9.694-9.694-9.694-5.354 0-9.694 4.34-9.694 9.694 0 5.354 4.34 9.694 9.694 9.694Z" fill="#002352"/><path d="m14.982 7.14.343-.892a.139.139 0 0 0-.128-.188H13.92l-.412 1.054h-.565l.325-.866a.139.139 0 0 0-.128-.188h-1.277l-.395 1.054H7.465a.533.533 0 0 0-.445.257l-.995 1.757h7.466c.249 0 .489.043.72.137.446.18.969.592.832 1.517-.215 1.552-1.8 4.295-5.229 4.338l1.774-4.612a.287.287 0 0 0-.274-.386H8.94l-2.872 7.046s.575.069 1.483.069l-.291.737H8.57a.24.24 0 0 0 .232-.163l.248-.634c.197-.017.386-.043.592-.06l-.326.857h1.311a.24.24 0 0 0 .232-.163l.377-.969c2.151-.488 4.448-1.56 5.828-3.805 2.769-4.526-.103-5.692-2.083-5.897Z" fill="#fff"/></svg>