<svg width="24" height="24" fill="none" xmlns="http://www.w3.org/2000/svg"><path d="M12 24c6.627 0 12-5.373 12-12S18.627 0 12 0 0 5.373 0 12s5.373 12 12 12Z" fill="#000"/><path d="M12 22.947c6.047 0 10.948-4.901 10.948-10.947 0-6.046-4.901-10.948-10.948-10.948C5.954 1.052 1.053 5.954 1.053 12S5.954 22.947 12 22.947Z" fill="#000" stroke="#fff"/><path fill-rule="evenodd" clip-rule="evenodd" d="M11.944 14.444h4.02l-4.019-6.961V3.265l7.874 13.42h-7.875v-2.24Z" fill="#0B76FF"/><path fill-rule="evenodd" clip-rule="evenodd" d="M11.944 14.444v2.24H4.068l7.875-13.42v4.22-.001l-4.018 6.961h4.019Z" fill="#24C1FF"/><path fill-rule="evenodd" clip-rule="evenodd" d="M11.944 9.21v4.416l-2.492.005 2.492-4.42Z" fill="#39FFF2"/><path fill-rule="evenodd" clip-rule="evenodd" d="m11.944 9.21 2.491 4.421-2.49-.005V9.211Z" fill="#00E2C2"/><path fill-rule="evenodd" clip-rule="evenodd" d="m2.22 7.845 9.724 4.018v.562l-9.724-2.41v-2.17Z" fill="url(#a)"/><path fill-rule="evenodd" clip-rule="evenodd" d="m21.668 6.16-9.724 5.703v.154l9.724-4.012V6.16Z" fill="url(#b)"/><path fill-rule="evenodd" clip-rule="evenodd" d="m21.66 11.703-9.716.722v-.16l9.716-2.411v1.849Z" fill="url(#c)"/><path fill-rule="evenodd" clip-rule="evenodd" d="m21.668 8.083-9.724 3.944v.238l9.724-2.491V8.083Z" fill="url(#d)"/><defs><linearGradient id="a" x1="2.22" y1="10.135" x2="9.019" y2="10.135" gradientUnits="userSpaceOnUse"><stop stop-color="#fff" stop-opacity="0"/><stop offset="1" stop-color="#fff"/></linearGradient><linearGradient id="b" x1="21.36" y1="8.009" x2="15.089" y2="8.528" gradientUnits="userSpaceOnUse"><stop stop-color="#FD76FD" stop-opacity="0"/><stop offset="1" stop-color="#FF51FF"/></linearGradient><linearGradient id="c" x1="21.267" y1="10.996" x2="16.319" y2="10.996" gradientUnits="userSpaceOnUse"><stop stop-color="#5300FF" stop-opacity="0"/><stop offset="1" stop-color="#9D6EFF"/></linearGradient><linearGradient id="d" x1="21.373" y1="9.564" x2="16.591" y2="11.017" gradientUnits="userSpaceOnUse"><stop stop-color="#AE60D6" stop-opacity="0"/><stop offset="1" stop-color="#AB38E6"/></linearGradient></defs></svg>