<svg width="24" height="24" viewBox="0 0 24 24" fill="none" xmlns="http://www.w3.org/2000/svg">
<path d="M12 24C5.38272 24 0 18.6173 0 12C0 5.38272 5.38272 0 12 0C18.6173 0 24 5.38272 24 12C24 18.6173 18.6173 24 12 24ZM12 1.94304C6.45216 1.94304 1.94304 6.45216 1.94304 12C1.94304 17.5478 6.45216 22.057 12 22.057C17.5478 22.057 22.057 17.5478 22.057 12C22.057 6.45216 17.5478 1.94304 12 1.94304Z" fill="#E6201A"/>
<path d="M17.6065 7.97751C17.1793 6.98679 16.2462 6.36471 15.1681 6.36471L8.81291 6.30615H8.79371C7.74443 6.30615 6.82091 6.89847 6.40331 7.86039C5.96651 8.84151 6.15083 9.94935 6.88907 10.7366L7.76363 11.6793L9.08555 10.2508L8.31755 9.41559C8.01611 9.08535 8.13323 8.74551 8.18123 8.63799C8.23019 8.52183 8.40491 8.23959 8.79371 8.23959H8.80331L15.1576 8.29815C15.5944 8.29815 15.7796 8.63799 15.8276 8.74551C15.8862 8.87223 15.9832 9.20247 15.7115 9.49335L12.5636 12.9138C12.3889 13.0982 12.1748 13.1279 12.0683 13.1279C11.8638 13.1279 11.6699 13.0406 11.5336 12.885L10.9988 12.3119L9.67691 13.7404L10.1041 14.1974C10.6091 14.7417 11.3281 15.0623 12.0673 15.0623C12.796 15.0623 13.5054 14.7513 13.9912 14.2166L17.139 10.7961C17.8494 10.0367 18.0241 8.94903 17.6065 7.97751Z" fill="#E6201A"/>
<path d="M17.2367 13.0889L16.3429 12.1173L14.8175 13.7695L15.5855 14.6047C15.79 14.8284 15.7314 15.0713 15.6729 15.1971C15.6345 15.2844 15.4885 15.5561 15.1381 15.5561L8.78396 15.6147C8.46333 15.6147 8.33661 15.4006 8.29821 15.3036C8.24925 15.2067 8.17149 14.9446 8.40477 14.6911L11.6111 11.2226C11.7273 11.0959 11.8732 11.0287 12.0383 11.0287C12.1257 11.0287 12.2908 11.0479 12.4271 11.1938L13.0876 11.9129L14.613 10.2607L14.0783 9.67795C13.5532 9.11442 12.815 8.78418 12.0479 8.78418C11.2607 8.78418 10.5129 9.11442 9.97819 9.69715L6.77182 13.1657C5.99423 14.0009 5.80031 15.1673 6.25727 16.207C6.70463 17.2179 7.67614 17.8496 8.78396 17.8496L15.1583 17.791C16.2853 17.7814 17.276 17.1305 17.7234 16.0812C18.1794 15.0511 17.9951 13.9049 17.2367 13.0889Z" fill="#E6201A"/>
</svg>
