<svg width="24" height="24" fill="none" xmlns="http://www.w3.org/2000/svg"><path d="M11.48 24a3.716 3.716 0 1 0 0-7.432 3.716 3.716 0 0 0 0 7.432Z" fill="#22B24C"/><path d="M19.29 19.645a3.337 3.337 0 1 0 0-6.675 3.337 3.337 0 0 0 0 6.675ZM2.485 10.509a2.485 2.485 0 1 0 0-4.97 2.485 2.485 0 0 0 0 4.97Z" fill="#CECCCC"/><path d="M15.36 4.118A2.06 2.06 0 1 0 15.362 0a2.06 2.06 0 0 0 0 4.118Z" fill="#22B24C"/><path d="M20.72 5.444a2.575 2.575 0 0 0-2.022.852l-.005.01-.118.141c-.045.056-.092.11-.142.161-.497.535-1.7 1.491-3.323.691a2.448 2.448 0 0 1-.658-.473 4.175 4.175 0 0 0-2.973-1.24l-.208.004a1.487 1.487 0 0 1-.582-.09c-.933-.336-1.198-1.112-1.25-1.704a2.258 2.258 0 0 1 .142-.98A2.06 2.06 0 1 0 7.048 4.08c2.164.88 1.454 2.547 1.156 3.087-.59.74-.91 1.657-.91 2.603a4.221 4.221 0 0 0 .034.573c.066.715-.014 2.656-2.67 2.722a3.406 3.406 0 0 1-.473-.028 3.29 3.29 0 0 0-.374-.02 3.242 3.242 0 1 0 3.237 3.361h.005v-.165c.014-.62.265-2.817 3.006-2.495 0 0 .923.246 1.42.246a4.189 4.189 0 0 0 3.877-2.589c.265-.606 1.652-2.13 4.043-1.08.08.044.162.084.246.119a2.58 2.58 0 1 0 1.075-4.97Z" fill="#343433"/></svg>