<svg width="24" height="24" fill="none" xmlns="http://www.w3.org/2000/svg"><g clip-path="url(#a)"><path d="M16.912 13.427C19.11 7.148 18.46 1.207 15.46.157c-3-1.051-7.215 3.187-9.413 9.466-2.2 6.278-1.55 12.22 1.45 13.27 3 1.051 7.215-3.187 9.414-9.466Z" fill="#5FBCD3"/><path d="M14.938 16.125c5.313-4.003 8.07-9.307 6.156-11.845-1.913-2.539-7.77-1.351-13.083 2.652-5.313 4.004-8.07 9.307-6.157 11.846 1.913 2.539 7.771 1.351 13.084-2.653Z" fill="#2C89A0"/><path d="M12.568 16.941c6.62-.66 11.73-3.76 11.414-6.923-.316-3.163-5.938-5.192-12.557-4.53-6.62.66-11.73 3.76-11.415 6.923.316 3.162 5.938 5.19 12.558 4.53Z" fill="#164450"/><path d="M12.848 11.754c.097.964.788 1.444 2.072 1.44a4.704 4.704 0 0 0 2.182-.51v1.458c-.766.337-1.691.505-2.777.505-1.317 0-2.29-.385-2.917-1.155h-.037c-.689.77-1.574 1.155-2.656 1.155-.814 0-1.45-.178-1.908-.535-.458-.357-.687-.85-.687-1.483 0-.628.237-1.132.711-1.513s1.15-.6 2.03-.657l1.884-.133c0-.823-.452-1.234-1.355-1.234-.851 0-1.694.23-2.528.693V8.259a7.202 7.202 0 0 1 2.716-.553c1.147 0 1.94.288 2.383.863h.03a4.394 4.394 0 0 1 2.322-1.063c.996-.164 2.254-.152 2.856.42.34.328.56.76.626 1.227a1.98 1.98 0 0 1-1.817 2.236l-3.13.365Zm-2.109.055v-.292l-1.143.085c-.903.065-1.355.348-1.355.85a.644.644 0 0 0 .292.53c.19.141.44.214.747.218.422 0 .77-.13 1.046-.389.275-.259.413-.593.413-1.002Zm2.316-1.416-.019.291 1.155-.036c.903-.024 1.37-.288 1.398-.79a.631.631 0 0 0-.261-.547c-.183-.146-.426-.227-.73-.243-.421-.017-.778.099-1.07.346a1.33 1.33 0 0 0-.473.979Z" fill="#fff"/></g><defs><clipPath id="a"><path fill="#fff" d="M0 0h24v24H0z"/></clipPath></defs></svg>