<svg width="24" height="24" fill="none" xmlns="http://www.w3.org/2000/svg"><path d="m23.848 14.335-11.468 8.48a.457.457 0 0 1-.527.01L.203 14.588a.482.482 0 0 1-.092-.699L11.569.152a.411.411 0 0 1 .638 0l11.701 13.656a.363.363 0 0 1-.06.527Z" fill="#FFF4FC"/><path d="m23.23 14.052-10.9 8.054-.062-8.206-.08-12.887 10.789 12.735.253.304Z" fill="url(#a)"/><path d="m.648 14.224 11.185 7.882-.253-21.093L.648 14.223Z" fill="url(#b)"/><path d="m11.742 13.92-11.013.213-.08.09 11.184 7.883-.091-8.186Z" fill="url(#c)"/><path d="m12.269 13.9 10.708-.152.253.304-10.9 8.053-.061-8.206Z" fill="url(#d)"/><path fill-rule="evenodd" clip-rule="evenodd" d="M10.252 5.615a5.446 5.446 0 0 1-.506-2.613l.202.013c-.03.486-.01 1.45.487 2.514.398.854.944 1.41 1.293 1.72l-.134.151a5.46 5.46 0 0 1-1.342-1.785Zm2.04 2.077c.514.423.967.745 1.317.965 1.066.684 2 1.045 2.484 1.227h.001c.203.079.426.153.757.262.177.059.384.127.636.213.57.185.868.274 1.052.329l.02.005c.182.055.253.077.385.135.194.082 1.495.631 2.028 1.835.135.303.204.609.227.907l1.776-.025.003.202-1.77.026c.003.43-.084.839-.2 1.189a4.835 4.835 0 0 1-.572 1.173l-.166-.115c.043-.063.343-.504.547-1.122.11-.336.191-.72.188-1.123l-8.735.124-.003-.202 3.352-.048-3.437-3.006.133-.153 3.607 3.155 5.074-.072a2.52 2.52 0 0 0-.209-.828c-.499-1.125-1.729-1.65-1.922-1.73v-.001h-.002a2.573 2.573 0 0 0-.363-.127l-.019-.005c-.184-.055-.484-.145-1.057-.33v-.001a97.974 97.974 0 0 0-.63-.21c-.335-.111-.565-.187-.773-.268a12.976 12.976 0 0 1-2.52-1.245 13.283 13.283 0 0 1-1.337-.98l.128-.156Zm-3.183.746c.605.265 1.456.795 2.644 1.703l-.123.161c-1.184-.905-2.02-1.423-2.602-1.678-.292-.127-.514-.186-.682-.197-.165-.011-.27.025-.339.08-.094.078-.145.221-.143.448.003.225.06.51.153.841.15.525.388 1.147.64 1.803l.2.524c.207.549.41 1.109.561 1.639l2.322-.045.004.202-2.27.044c.056.213.103.419.137.617.128.74.091 1.404-.333 1.795-.246.223-.612.351-1.123.447-.513.096-1.192.162-2.077.248-.55.05-1.009.071-1.306.071v-.202c.29 0 .742-.02 1.287-.07.888-.087 1.556-.153 2.059-.247.504-.094.822-.214 1.023-.396.34-.314.398-.878.27-1.611a7.27 7.27 0 0 0-.146-.648l-8.534.165-.003-.202 8.48-.164c-.146-.505-.34-1.04-.54-1.57l-.199-.52c-.252-.657-.495-1.29-.647-1.824-.095-.337-.157-.643-.16-.894-.003-.25.052-.47.216-.607V8.35c.12-.097.28-.139.482-.125.2.013.446.081.749.213Z" fill="#98C9C0"/><defs><linearGradient id="a" x1="12.186" y1="11.56" x2="23.233" y2="11.56" gradientUnits="userSpaceOnUse"><stop stop-color="#3B8270"/><stop offset="1" stop-color="#305C6E"/></linearGradient><linearGradient id="b" x1=".653" y1="11.56" x2="11.835" y2="11.56" gradientUnits="userSpaceOnUse"><stop stop-color="#4E7F98"/><stop offset="1" stop-color="#3BC0B5"/></linearGradient><linearGradient id="c" x1=".653" y1="18.012" x2="11.835" y2="18.012" gradientUnits="userSpaceOnUse"><stop stop-color="#30435C"/><stop offset="1" stop-color="#299AA9"/></linearGradient><linearGradient id="d" x1="12.271" y1="17.93" x2="23.233" y2="17.93" gradientUnits="userSpaceOnUse"><stop stop-color="#2E2C29"/><stop offset="1" stop-color="#323232"/></linearGradient></defs></svg>