<svg width="24" height="24" viewBox="0 0 24 24" fill="none" xmlns="http://www.w3.org/2000/svg">
<path fill-rule="evenodd" clip-rule="evenodd" d="M6.79004 13.6831L11.9115 16.2475V20.3709L6.79004 13.6831Z" fill="white"/>
<path fill-rule="evenodd" clip-rule="evenodd" d="M17.3642 13.6831L12.2246 20.3709V16.2475L17.3642 13.6831Z" fill="white"/>
<path fill-rule="evenodd" clip-rule="evenodd" d="M23.9714 11.9774C23.9714 18.5719 18.6256 23.9177 12.0311 23.9177C5.43661 23.9177 0.0908203 18.5719 0.0908203 11.9774C0.0908203 5.3829 5.43661 0.0371094 12.0311 0.0371094C18.6256 0.0371094 23.9714 5.3829 23.9714 11.9774Z" fill="#F99400"/>
<path fill-rule="evenodd" clip-rule="evenodd" d="M14.7489 13.6533C14.7489 16.1471 12.7272 18.1689 10.2334 18.1689C7.7395 18.1689 5.71777 16.1471 5.71777 13.6533C5.71777 11.1594 7.7395 9.1377 10.2334 9.1377C12.7272 9.1377 14.7489 11.1594 14.7489 13.6533Z" fill="white"/>
<path fill-rule="evenodd" clip-rule="evenodd" d="M18.3444 4.95201C18.3444 5.82162 17.6395 6.52658 16.7699 6.52658C15.9003 6.52658 15.1953 5.82162 15.1953 4.95201C15.1953 4.0824 15.9003 3.37744 16.7699 3.37744C17.6395 3.37744 18.3444 4.0824 18.3444 4.95201Z" fill="white"/>
<path fill-rule="evenodd" clip-rule="evenodd" d="M11.6224 5.87572C11.6224 6.64253 11.0008 7.26414 10.234 7.26414C9.4672 7.26414 8.8457 6.64253 8.8457 5.87572C8.8457 5.10892 9.4672 4.4873 10.234 4.4873C11.0008 4.4873 11.6224 5.10892 11.6224 5.87572Z" fill="white"/>
<path fill-rule="evenodd" clip-rule="evenodd" d="M17.1878 18.2253C17.1878 18.9832 16.5734 19.5976 15.8155 19.5976C15.0577 19.5976 14.4434 18.9832 14.4434 18.2253C14.4434 17.4675 15.0577 16.853 15.8155 16.853C16.5734 16.853 17.1878 17.4675 17.1878 18.2253Z" fill="white"/>
<path fill-rule="evenodd" clip-rule="evenodd" d="M9.66504 10.2402H10.7671V6.70166H9.66504V10.2402Z" fill="white"/>
<path fill-rule="evenodd" clip-rule="evenodd" d="M12.1612 11.0275L11.3428 10.2892L15.8179 5.32861L16.6363 6.06688L12.1612 11.0275Z" fill="white"/>
<path fill-rule="evenodd" clip-rule="evenodd" d="M15.5043 18.6587L16.2837 17.8793L11.5596 13.1553L10.7803 13.9346L15.5043 18.6587Z" fill="white"/>
</svg>
