<svg width="24" height="24" fill="none" xmlns="http://www.w3.org/2000/svg"><path d="M12 24c6.627 0 12-5.373 12-12S18.627 0 12 0 0 5.373 0 12s5.373 12 12 12Z" fill="#5BC1D4"/><path fill-rule="evenodd" clip-rule="evenodd" d="M10.339 12.696 9.1 13.989c-.223.232-.44.467-.664.698-.038.039-.091.062-.137.093-.097-.016-.172-.076-.185-.165-.02-.135-.04-.27-.056-.405-.022-.179-.077-.228-.257-.25-.373-.046-.745-.094-1.118-.143l-.85-.11c-.17-.023-.231-.144-.143-.289.204-.329.41-.655.614-.982l1.253-2.002c.05-.08.105-.136.211-.133a.774.774 0 0 0 .205-.032c.08-.02.142.004.197.057.099.092.198.183.296.276l1.13 1.074.734.691c.126.119.126.204.008.329Zm8.317 1.739c.07.058.147.114.162.214.019.127-.032.22-.14.29l-1.913 1.24-1.232.799a.986.986 0 0 0-.11.081.257.257 0 0 0-.095.212c.007.153.016.307.018.46.002.176-.128.287-.305.266a.245.245 0 0 1-.161-.092l-.444-.514-.556-.644a.354.354 0 0 1-.101-.295l.026-.897c.002-.104.065-.172.149-.226l1.018-.651c.57-.364 1.142-.726 1.71-1.094.12-.077.232-.1.364-.032.098.049.208.058.314.025.158-.05.28-.006.402.102.292.258.596.504.895.756Zm-5.473.744c.046.045.079.102.095.165.028.14-.028.236-.16.3-.438.21-.877.425-1.319.63-.08.035-.18.04-.27.044-.367.017-.733.026-1.1.041-.217.009-.433.022-.633.033H9.65a.249.249 0 0 1-.18-.072c-.047-.042-.095-.084-.14-.127-.259-.245-.512-.495-.775-.735-.147-.133-.15-.313-.01-.456.316-.325.628-.654.942-.982l1.014-1.066a.29.29 0 0 1 .421-.02l1.35 1.341c.303.302.61.6.91.904Zm1.858-6.037c-.145-.223.019-.532.26-.572.643-.107 1.284-.23 1.927-.342.142-.025.255.04.332.158.136.202.268.405.402.609.282.427.564.855.843 1.284.038.057.057.127.085.19l-.017.008a.498.498 0 0 1-.116.299c-.393.528-.79 1.053-1.182 1.582a.368.368 0 0 1-.605-.041c-.574-.953-1.154-1.902-1.731-2.852-.066-.108-.13-.218-.198-.323Zm-1.129 2.65-.112 1-.097.832-.11.974c-.008.069-.009.138-.023.204-.008.033-.032.074-.059.085-.027.01-.075-.005-.099-.025-.106-.092-.208-.19-.31-.287-.367-.348-.732-.696-1.1-1.043l-.96-.902c-.107-.1-.108-.13-.005-.238l1.468-1.537 1.003-1.053.492-.518c.014-.015.027-.035.044-.041.035-.013.079-.03.11-.02.025.009.037.054.044.067l-.075.66-.096.848-.114.993Zm2.855.764c.048.078.056.151.003.231a.463.463 0 0 0-.069.303c.009.095-.03.152-.11.203-.628.398-1.253.8-1.878 1.2-.197.126-.393.251-.59.375-.079.05-.159.046-.201-.017-.024-.034-.027-.082-.034-.106l.082-.606.184-1.337.203-1.462.197-1.43.075-.533c.001-.014.002-.03.01-.041.019-.025.04-.062.066-.066.027-.005.069.016.086.04.045.061.082.13.123.195l1.466 2.412c.129.213.257.427.387.639Zm-3.04-3.678c.024.015.069.031.092.063.037.05.005.096-.033.136l-.51.536-1.487 1.556-.93.98c-.112.116-.202.116-.32.005l-1.087-1.031c-.352-.333-.706-.665-1.06-.997-.047-.045-.085-.094-.08-.163.008-.094.062-.147.169-.165l.589-.104 1.886-.33 2.228-.39.543-.096Zm-5.054.474c.35-.239.699-.477 1.05-.714l3.382-2.304c.112-.077.184-.061.24.06l.697 1.5.09.195c.024.053.008.096-.024.143a.997.997 0 0 0-.103.185c-.025.062-.063.096-.13.108l-1.492.269-1.766.317-1.928.346c-.027.005-.054 0-.082 0l-.016-.03c.027-.025.052-.054.082-.075Zm-3.518 1.145c-.22-.005-.351-.22-.245-.416.089-.167.188-.327.284-.49.276-.472.553-.942.828-1.414a.494.494 0 0 1 .187-.184c.732-.42 1.463-.843 2.195-1.265a.478.478 0 0 1 .15-.06.26.26 0 0 1 .266.108.27.27 0 0 1 .025.292c-.11.235-.225.469-.337.703-.21.429-.42.857-.628 1.287a.326.326 0 0 1-.225.192.519.519 0 0 0-.384.382.27.27 0 0 1-.186.194c-.602.212-1.203.428-1.803.641-.041.015-.084.02-.126.03Zm3.115-1.37a.26.26 0 0 1 .026-.09l.786-1.722c.163-.359.329-.717.49-1.076.038-.082.093-.124.186-.127.245-.008.49-.02.735-.03l1.448-.055.51-.027c.121-.005.204.068.205.187.005.073-.041.12-.101.162l-.463.315L9.32 8.55l-.885.603a.4.4 0 0 1-.066.04c-.052.023-.103-.008-.1-.065Zm-1.022 1.238c-.122.197-.246.393-.369.59l-1.38 2.204a.317.317 0 0 1-.075.092c-.08.058-.185.018-.223-.082-.06-.16-.117-.322-.174-.484l-.502-1.411c-.012-.035-.02-.071-.025-.089 0-.095.032-.136.122-.165.266-.086.534-.17.8-.255l1.512-.48.199-.062c.047-.015.094-.035.133.017.035.047.006.086-.018.125Zm12.088 1.957.152.867c.005.027.008.056.012.092-.008.038-.016.083-.028.127l-.199.716c-.056.207-.22.255-.385.116a270.1 270.1 0 0 0-1.018-.854c-.077-.064-.11-.138-.091-.24a.472.472 0 0 0-.035-.302c-.046-.092-.031-.174.03-.255l.829-1.117.169-.228c.056-.078.13-.115.225-.094.099.022.15.09.166.187l.173.985Zm-5.672-5.958-.015-.032c-.02-.045-.029-.097.017-.123a.18.18 0 0 1 .127-.007c.066.02.126.057.188.088l2.521 1.26.448.224c.05.025.09.054.08.117-.011.063-.058.076-.113.086l-1.817.326-.059.012c-.017-.011-.05-.024-.071-.048a.602.602 0 0 0-.448-.227c-.067-.003-.102-.043-.127-.1l-.323-.69-.408-.886Z" fill="#fff"/></svg>