<svg width="24" height="24" viewBox="0 0 24 24" fill="none" xmlns="http://www.w3.org/2000/svg">
<path d="M23.7412 11.7207L17.3734 4.7998L11.9239 10.6653L6.58097 4.7998L0.213108 11.7207C-0.0710359 12.0252 -0.0710359 12.4971 0.213108 12.8116L6.58097 19.7681L11.934 14.0243L17.3734 19.7681L23.7412 12.8066C24.0203 12.492 24.0203 12.0252 23.7412 11.7207ZM3.25751 12.6543C3.02918 12.4057 3.03932 12.0252 3.26765 11.7816L6.59619 8.29071L10.4474 12.3245L6.59619 16.3584L3.25751 12.6543ZM20.6867 12.6543L17.3378 16.3482L13.4867 12.3144L17.3378 8.28057L20.6664 11.7715C20.9099 12.0201 20.915 12.4057 20.6867 12.6543Z" fill="#3C3738"/>
<path d="M6.90234 8.60886L16.1116 18.4473L17.6338 16.6664L8.4905 6.89893L6.90234 8.60886Z" fill="url(#paint0_linear)"/>
<path d="M6.75 16.159L8.32294 17.803L17.4866 8.10154L15.8984 6.3916L6.75 16.159Z" fill="#3C3738"/>
<defs>
<linearGradient id="paint0_linear" x1="16.7129" y1="16.9233" x2="7.24063" y2="9.0524" gradientUnits="userSpaceOnUse">
<stop stop-color="#3C3738"/>
<stop offset="0.5" stop-color="#040404"/>
<stop offset="1" stop-color="#3C3738"/>
</linearGradient>
</defs>
</svg>
