<svg width="24" height="24" viewBox="0 0 24 24" fill="none" xmlns="http://www.w3.org/2000/svg">
<path d="M12 24C18.6274 24 24 18.6274 24 12C24 5.37258 18.6274 0 12 0C5.37258 0 0 5.37258 0 12C0 18.6274 5.37258 24 12 24Z" fill="#F49E00"/>
<path d="M14.8165 13.0005C16.501 10.3612 17.8127 6 17.8127 6L15.004 6.63675L13.9757 10.2743C13.879 7.54725 12.0092 6.549 12.0092 6.549C10.5115 5.81925 9.17645 6.14025 8.2142 6.642C7.0232 7.2615 6.15695 8.3415 5.7422 9.585C5.1527 11.3542 5.2247 13.3395 5.3027 14.238C5.3342 14.6595 5.4272 15.0743 5.5802 15.4703C6.6137 18.15 9.47645 17.9977 9.47645 17.9977C12.0992 17.9047 13.693 14.8162 13.693 14.8162L14.4445 17.0872C15.118 18.2265 16.6097 17.7997 16.9165 17.736C16.9705 17.724 17.0185 17.718 17.0732 17.706L18.7502 17.4502V16.7205C15.0992 16.8195 14.8165 13.0012 14.8165 13.0012V13.0005ZM11.2622 15.7455C11.0364 15.977 10.7516 16.1424 10.4387 16.224C9.75845 16.3935 9.2357 16.1077 8.87495 15.7575C8.47192 15.3505 8.19596 14.8351 8.0807 14.274C7.4192 10.5315 8.33345 8.89125 8.94095 8.1375C9.10642 7.9262 9.31975 7.75726 9.56333 7.6446C9.80692 7.53193 10.0738 7.47877 10.342 7.4895C12.7 7.6125 13.2295 12.546 13.2295 12.546C12.562 14.2972 11.7017 15.3135 11.2622 15.7455Z" fill="white"/>
</svg>
