<svg width="24" height="24" fill="none" xmlns="http://www.w3.org/2000/svg"><path d="M16.514 9.519 18.472 11l1.238.936-1.383.703-2.778 1.418.953.657 1.331.924-1.441.744-8.835 4.557a9.947 9.947 0 0 0 14.74-8.713 9.887 9.887 0 0 0-2.307-6.37l-3.476 3.662ZM7.784 15.178l-1.958-1.489-1.239-.935 1.384-.704 2.778-1.418-.953-.662-1.331-.925 1.441-.744 9.306-4.8a9.846 9.846 0 0 0-5.26-1.506c-5.493 0-9.946 4.452-9.946 9.945 0 2.552.965 4.883 2.546 6.644l3.232-3.406Z" fill="#091B26"/><path d="M3.796 19.082A10.774 10.774 0 0 1 .97 11.8C.97 5.83 5.83.971 11.799.971c2.203 0 4.348.668 6.156 1.93l.965-.5A11.716 11.716 0 0 0 11.8 0C5.294 0 0 5.295 0 11.8c0 3.08 1.186 5.881 3.121 7.985l.675-.703ZM20.443 5.11a10.785 10.785 0 0 1 2.586 7.01c0 5.97-4.859 10.83-10.828 10.83a10.77 10.77 0 0 1-5.714-1.634l-.994.511a11.774 11.774 0 0 0 6.708 2.093c6.504 0 11.8-5.295 11.8-11.8 0-2.946-1.088-5.649-2.884-7.718l-.674.709Z" fill="#091B26"/><path d="m6.48 12.965 2.824 2.14-6.382 6.724 12.688-6.545-2.29-1.586 4.226-2.163-2.825-2.139 6.382-6.719L8.415 9.222l2.29 1.587-4.226 2.156Z" fill="#23BEE2"/></svg>