<svg width="24" height="24" viewBox="0 0 24 24" fill="none" xmlns="http://www.w3.org/2000/svg">
<path d="M12 24C18.6274 24 24 18.6274 24 12C24 5.37258 18.6274 0 12 0C5.37258 0 0 5.37258 0 12C0 18.6274 5.37258 24 12 24Z" fill="black"/>
<path d="M20.8072 10.1541C20.6885 9.57799 20.5132 9.015 20.2837 8.47339C20.0575 7.93993 19.7807 7.42935 19.4572 6.94864C19.1363 6.47373 18.7704 6.03092 18.3644 5.62639C17.9596 5.22037 17.5166 4.85442 17.0414 4.53364C16.56 4.21173 16.0498 3.93505 15.5174 3.70714C14.4164 3.24017 13.2326 2.99951 12.0367 2.99951C10.8407 2.99951 9.65695 3.24017 8.55591 3.70714C7.49125 4.15622 6.52424 4.80836 5.70891 5.62714C5.30297 6.03144 4.93702 6.47399 4.61616 6.94864C4.29421 7.4303 4.01753 7.94073 3.78966 8.47339C3.32268 9.57443 3.08203 10.7582 3.08203 11.9541C3.08203 13.1501 3.32268 14.3339 3.78966 15.4349C4.01016 15.9674 4.29516 16.4721 4.61616 16.9589C4.937 17.434 5.30295 17.8771 5.70891 18.2819C6.11368 18.6879 6.55674 19.0539 7.03191 19.3746C7.50891 19.6956 8.02341 19.9716 8.55591 20.2011C9.65695 20.6681 10.8407 20.9088 12.0367 20.9088C13.2326 20.9088 14.4164 20.6681 15.5174 20.2011C16.0499 19.9806 16.5547 19.6956 17.0414 19.3746C17.5166 19.0539 17.9596 18.6879 18.3644 18.2819C18.7704 17.8771 19.1364 17.4341 19.4572 16.9589C19.7782 16.4819 20.0542 15.9674 20.2837 15.4349C20.9902 13.7686 21.1728 11.9267 20.8072 10.1541ZM12.0449 19.7879C7.71966 19.7879 4.22091 16.2794 4.22091 11.9631C4.22091 7.64689 7.72941 4.13839 12.0449 4.13839C16.3612 4.13839 19.8697 7.64689 19.8697 11.9631C19.8697 16.2794 16.3619 19.7879 12.0449 19.7879Z" fill="white"/>
<path d="M12.1833 19.1083H12.3948C12.4316 19.1083 12.4676 19.1083 12.5043 19.0986H12.5141C12.5508 19.0986 12.5778 19.0986 12.6146 19.0896H12.6423C12.6701 19.0896 12.6978 19.0896 12.7248 19.0806H12.7526C12.7803 19.0806 12.8081 19.0716 12.8448 19.0716H12.8628C12.8996 19.0716 12.9363 19.0618 12.9731 19.0618C13.0098 19.0618 13.0376 19.0528 13.0743 19.0438H13.0923C13.1201 19.0438 13.1478 19.0348 13.1748 19.0348H13.1936C13.2303 19.0251 13.2581 19.0251 13.2948 19.0161C13.3676 19.0071 13.4411 18.9883 13.5056 18.9703H13.5243C13.5513 18.9613 13.5881 18.9613 13.6158 18.9516H13.6248C13.6983 18.9336 13.7628 18.9148 13.8363 18.8968C13.1484 18.9187 12.4606 18.8539 11.7888 18.7041C10.7778 18.4836 9.81408 18.0891 8.99658 17.4088C8.35209 16.8725 7.83487 16.1996 7.48232 15.4389C7.12977 14.6781 6.9507 13.8485 6.95808 13.0101C6.96469 11.7593 7.40977 10.5504 8.21583 9.59385C9.26283 8.3541 10.7508 7.7016 12.2748 7.66485H12.4863V6.44385H12.2478C11.7842 6.45234 11.3226 6.50762 10.8701 6.60885C10.4147 6.71182 9.97148 6.86266 9.54783 7.05885C9.11583 7.26135 8.71158 7.50885 8.33508 7.79385C7.94602 8.08959 7.59175 8.42851 7.27908 8.8041C6.98467 9.1517 6.72916 9.53045 6.51708 9.9336C6.30727 10.3222 6.13788 10.7314 6.01158 11.1546C5.88768 11.5713 5.80479 11.9991 5.76408 12.4318L5.73633 12.8353V13.0738C5.74533 13.5426 5.80083 14.0016 5.90133 14.4516C6.00258 14.9113 6.15858 15.3516 6.35133 15.7746C6.58158 16.2793 6.99483 17.0233 7.60983 17.5836C8.86556 18.5735 10.4186 19.1108 12.0176 19.1083H12.1833Z" fill="white"/>
<path d="M14.1856 17.9324C13.7326 17.9163 13.2814 17.8671 12.8356 17.7854C10.9441 17.4457 9.31808 16.2884 8.72183 14.5439C7.99583 12.4222 9.10733 10.1264 11.2193 9.42894C11.6218 9.29406 12.0436 9.22566 12.4681 9.22644C13.0103 9.22644 13.5518 9.33669 14.0483 9.53844L14.5621 8.44569C14.4076 8.38375 14.2515 8.32573 14.0941 8.27169C13.5679 8.10655 13.0196 8.02283 12.4681 8.02344C11.9156 8.02448 11.3668 8.11437 10.8428 8.28969C10.1741 8.51026 9.55821 8.86672 9.03383 9.33669C8.78094 9.56197 8.55037 9.81112 8.34533 10.0807C8.14264 10.3472 7.96726 10.6334 7.82183 10.9349C7.5257 11.5412 7.35092 12.1996 7.30733 12.8729C7.26158 13.5704 7.35308 14.2679 7.58258 14.9294C7.81642 15.6099 8.19223 16.2329 8.68508 16.7572C9.13508 17.2439 9.65858 17.6114 10.2916 17.9512C10.9531 18.2999 11.7706 18.4837 12.6241 18.6037C13.1753 18.6764 13.9103 18.6952 14.3416 18.6952C14.7181 18.5572 14.8741 18.4927 15.0766 18.4102C15.2513 18.3277 15.4253 18.2452 15.6001 18.1439C15.7748 18.0427 15.8026 18.0239 16.0958 17.8319C16.122 17.8157 16.1466 17.7971 16.1693 17.7764C15.1591 17.9512 14.9018 17.9414 14.1856 17.9324Z" fill="white"/>
<path d="M16.4448 16.5645C16.1598 16.5825 15.7556 16.6095 15.2966 16.6095C14.4791 16.6095 13.4778 16.5367 12.6243 16.2517C11.3013 15.8115 10.0526 14.682 10.0526 13.2855C10.0523 12.955 10.1172 12.6276 10.2435 12.3222C10.3699 12.0168 10.5552 11.7393 10.7889 11.5056C11.0226 11.2719 11.3001 11.0865 11.6056 10.9602C11.911 10.8338 12.2383 10.7689 12.5688 10.7692C13.5146 10.7692 14.3321 11.2927 14.7641 12.0547L15.8568 11.5132C15.6855 11.1907 15.4654 10.8964 15.2043 10.641C14.8584 10.2945 14.4475 10.0195 13.9952 9.83197C13.543 9.6444 13.0581 9.54785 12.5685 9.54785C12.0788 9.54785 11.594 9.6444 11.1417 9.83197C10.6894 10.0195 10.2785 10.2945 9.93259 10.641C9.58618 10.9869 9.31136 11.3977 9.12386 11.85C8.93635 12.3022 8.83984 12.7869 8.83984 13.2765C8.84229 13.7896 8.95215 14.2964 9.16234 14.7645C9.35434 15.1867 9.62134 15.582 9.96109 15.9495C10.5581 16.5915 11.3748 17.106 12.2478 17.4C13.0833 17.6752 14.3141 17.7765 15.5081 17.694C15.8381 17.6662 16.0863 17.6385 16.5086 17.547C16.9161 17.2254 17.2859 16.8589 17.6111 16.4542C17.3261 16.482 16.8026 16.5367 16.4448 16.5645Z" fill="white"/>
</svg>
