<svg width="24" height="24" viewBox="0 0 24 24" fill="none" xmlns="http://www.w3.org/2000/svg">
<path d="M12.0019 23.9687C18.6083 23.9687 23.9638 18.6132 23.9638 12.0068C23.9638 5.40044 18.6083 0.0449219 12.0019 0.0449219C5.39556 0.0449219 0.0400391 5.40044 0.0400391 12.0068C0.0400391 18.6132 5.39556 23.9687 12.0019 23.9687Z" fill="url(#paint0_linear)"/>
<path d="M18.6687 2.43321C19.5123 2.80683 19.5846 4.13861 19.0905 4.90995C18.4517 5.90426 16.204 5.61501 16.5415 3.64446C16.4511 3.61433 16.4631 3.57818 16.3486 3.68062C13.2994 9.1403 13.3777 15.287 10.7985 19.5776C10.2622 20.3188 9.79218 20.6683 9.11725 21.054C8.44232 21.4396 7.95421 21.6867 6.85142 21.741C5.74864 21.7892 5.30873 21.3131 5.30873 21.3131C4.04927 20.4996 4.77843 19.0352 5.48349 18.7399C6.18855 18.4447 6.64653 18.5652 7.02015 18.7339C7.3998 18.9026 7.82163 19.5715 7.82163 19.5715C8.26154 18.4447 8.44835 17.83 8.92441 16.0041C10.8528 8.04957 11.7205 1.10143 18.6687 2.43321Z" fill="white"/>
<path d="M8.27995 10.4238H15.0232C15.5595 10.4238 15.9994 10.8577 15.9994 11.4001C15.9994 11.9364 15.5655 12.3763 15.0232 12.3763H8.27995C7.74362 12.3763 7.30371 11.9424 7.30371 11.4001C7.30974 10.8637 7.74362 10.4238 8.27995 10.4238Z" fill="white"/>
<path d="M9.14713 7.24219H15.8904C16.4267 7.24219 16.8666 7.67607 16.8666 8.21842C16.8666 8.75475 16.4327 9.19465 15.8904 9.19465H9.14713C8.61081 9.19465 8.1709 8.76077 8.1709 8.21842C8.17692 7.6821 8.61081 7.24219 9.14713 7.24219Z" fill="white"/>
<defs>
<linearGradient id="paint0_linear" x1="1.87759" y1="0.891881" x2="30.0022" y2="31.7535" gradientUnits="userSpaceOnUse">
<stop stop-color="#E3D531"/>
<stop offset="1" stop-color="#C4A600"/>
</linearGradient>
</defs>
</svg>
