<svg width="24" height="24" fill="none" xmlns="http://www.w3.org/2000/svg"><path d="M11.98 23.274c6.314 0 11.433-5.119 11.433-11.433S18.294.408 11.98.408.547 5.527.547 11.841 5.666 23.274 11.98 23.274Z" fill="url(#a)"/><path d="M12.413 21.188c4.627 0 8.379-3.514 8.379-7.85 0-4.334-3.752-7.849-8.38-7.849-4.627 0-8.378 3.515-8.378 7.85 0 4.335 3.751 7.849 8.379 7.849Z" fill="url(#b)"/><path d="M12.059 23.43c4.996 0 9.046-3.794 9.046-8.475 0-4.68-4.05-8.474-9.046-8.474-4.996 0-9.046 3.794-9.046 8.474s4.05 8.475 9.046 8.475Z" fill="url(#c)"/><path d="M9.524 19.68c-.041-.005-1.018-.113-1.526-.403-.086-.05-2.126-1.227-2.942-2.694-.687-1.238-1.852-3.473-1.925-4.541-.067-.97-.015-3.05.329-3.735.023-.048.053-.113.09-.196.224-.496.69-1.528 1.615-2.44C6.31 4.543 7.78 3.969 9.535 3.966c.011 0 1.276-.015 2.698-.015.836 0 1.562.005 2.158.015 1.894.034 3.406.194 4.126.32l.125.023c.504.087.693.12.734.487.035.315.316 2.598.319 2.622l.007.061-1.744 1.06h1.874l.185 3.509-2.037 1.487h1.84l-.63 3.736-3.496 1.983-6.161.427h-.009Z" fill="url(#d)"/><path d="M12.233 4.046c.72 0 1.483.003 2.157.015 2.02.036 3.508.213 4.11.32.603.106.745.106.78.425.036.318.32 2.622.32 2.622l-1.985 1.205h2.126L19.918 12l-2.232 1.63h2.02l-.603 3.58-3.438 1.948-6.13.426s-.993-.107-1.489-.39c-.496-.284-2.197-1.382-2.906-2.658-.709-1.276-1.843-3.473-1.914-4.5-.07-1.029 0-3.049.32-3.687.318-.638 1.594-4.281 5.989-4.288 0 0 1.26-.015 2.698-.015Zm0-.192c-1.423 0-2.688.015-2.7.015-1.778.003-3.27.586-4.436 1.734-.937.924-1.408 1.967-1.634 2.468a6.257 6.257 0 0 1-.09.193c-.35.701-.406 2.804-.338 3.784.075 1.086 1.246 3.337 1.937 4.581.829 1.491 2.891 2.681 2.979 2.731.525.3 1.52.41 1.563.415l.017.001h.017l6.13-.426.044-.003.038-.022 3.438-1.949.08-.045.014-.09.603-3.58.038-.223h-1.659l1.757-1.283.084-.062-.005-.103-.177-3.367-.01-.182H18.301l1.398-.849.106-.064-.015-.123c-.003-.024-.284-2.307-.319-2.62-.049-.44-.304-.484-.813-.572l-.124-.022c-.723-.127-2.242-.288-4.141-.322a126.37 126.37 0 0 0-2.16-.015Z" fill="#692CC2"/><path d="M3.332 12.043s.096 1.248.608 2.4 1.762 2.974 2.208 3.456c.663.718 1.952 1.559 2.752 1.655.8.096 2.987-.057 3.482-.064.322-.004 2.932-.268 3.284-.332.352-.064 3.353-1.782 3.437-1.949.07-.136.107-.635.107-.635l-2.445.563-7.366.348c-.241.01-.6-.03-.884-.054a4.987 4.987 0 0 1-1.113-.23c-.444-.14-1-.427-1.454-.771-.638-.485-1.404-1.246-1.848-2.339-.282-.694-.768-2.048-.768-2.048Z" fill="#fff"/><path d="m6.877 8.668.886-1.205s-.035-.319 1.63-.354c1.666-.035 9.817.248 9.817.248l-1.666 1.311H6.877Z" fill="url(#e)"/><path d="m19.493 12.035-2.09 1.595-9.25.283s-.815-.673-.957-.939c-.142-.265-.319-.62-.319-.62s9.64-.07 10.56-.106a21.27 21.27 0 0 0 2.056-.213Z" fill="url(#f)"/><path d="M18.43 17.316s-2.694 1.594-2.906 1.665c-.213.071-5.344.425-5.848.426-.65 0-1.453-.213-1.985-.603-.531-.39-1.346-1.17-1.524-1.488-.177-.32-.673-.886-.673-.886s1.205.78 2.056 1.027c.85.248 2.643.192 3.458.157.815-.036 7.422-.298 7.422-.298Z" fill="url(#g)"/><path d="M17.43 3.251s-1.891-.567-3.107-.54c-1.215.027-2.781.135-3.591.405s-1.135.432-1.135.432.514.621.46 1.215c-.055.594-.649 1.297-1.35 1.486-.703.189-1.405.297-1.945.189-.54-.108-1.783-.81-1.783-.81l-.945-.676S4.98 3.656 6.546 2.9c1.566-.756 3.16-1.404 5.158-1.404 1.998 0 3.43.459 4.267.864a8.974 8.974 0 0 1 1.458.891Z" fill="#fff"/><path d="M4.034 4.953s-.719.91-.901 1.31c-.183.402-.784 1.569-.894 2.717-.109 1.15-.127 2.04 0 2.643.128.603.347 1.442.347 1.442s.747-3.082.857-3.83c.11-.747.638-2.333 1.094-2.88.456-.547.875-1.203.875-1.203l-1.378-.2Z" fill="url(#h)"/><path d="M5.412 5.151s-.797 1.041-.97 1.33c-.171.288-.883 1.429-.926 2.007-.044.578-.164 1.805-.164 1.805s1.276-2.297 1.622-2.698c.347-.402 1.35-1.733 1.35-1.733l-.912-.71Z" fill="url(#i)"/><defs><linearGradient id="b" x1="12.783" y1="21.201" x2="12.111" y2="6.929" gradientUnits="userSpaceOnUse"><stop stop-color="#21FFE3"/><stop offset="1" stop-color="#8549DF"/></linearGradient><linearGradient id="d" x1="4.263" y1="6.38" x2="18.898" y2="14.982" gradientUnits="userSpaceOnUse"><stop stop-color="#21FFE3"/><stop offset="1" stop-color="#F8FFFB"/></linearGradient><linearGradient id="e" x1="6.877" y1="7.887" x2="19.21" y2="7.887" gradientUnits="userSpaceOnUse"><stop stop-color="#692CC2"/><stop offset=".519" stop-color="#3E5BDE"/><stop offset="1" stop-color="#229EE7"/></linearGradient><linearGradient id="f" x1="6.877" y1="12.974" x2="19.493" y2="12.974" gradientUnits="userSpaceOnUse"><stop stop-color="#692CC2"/><stop offset=".519" stop-color="#3E5BDE"/><stop offset="1" stop-color="#229EE7"/></linearGradient><linearGradient id="g" x1="5.494" y1="17.918" x2="18.43" y2="17.918" gradientUnits="userSpaceOnUse"><stop stop-color="#677CF4"/><stop offset=".276" stop-color="#374CD7"/><stop offset=".363" stop-color="#3752D8"/><stop offset=".475" stop-color="#3562DB"/><stop offset=".6" stop-color="#337CE1"/><stop offset=".735" stop-color="#30A1E9"/><stop offset=".877" stop-color="#2DD0F2"/><stop offset="1" stop-color="#29FFFC"/></linearGradient><linearGradient id="h" x1="3.902" y1="6.945" x2="1.709" y2="12.529" gradientUnits="userSpaceOnUse"><stop stop-color="#F8FFFB"/><stop offset="1" stop-color="#F8FFFB" stop-opacity="0"/></linearGradient><linearGradient id="i" x1="4.898" y1="7.248" x2="4.532" y2="12.265" gradientUnits="userSpaceOnUse"><stop stop-color="#F8FFFB"/><stop offset="1" stop-color="#F8FFFB" stop-opacity="0"/></linearGradient><radialGradient id="a" cx="0" cy="0" r="1" gradientUnits="userSpaceOnUse" gradientTransform="translate(6.523 4.79) scale(12.3418)"><stop stop-color="#21FFE3"/><stop offset="1" stop-color="#8549DF"/></radialGradient><radialGradient id="c" cx="0" cy="0" r="1" gradientUnits="userSpaceOnUse" gradientTransform="translate(12.059 14.955) scale(10.6974)"><stop stop-color="#21FFE3"/><stop offset=".192" stop-color="#23FCE3" stop-opacity=".808"/><stop offset=".342" stop-color="#28F2E3" stop-opacity=".658"/><stop offset=".478" stop-color="#31E1E2" stop-opacity=".522"/><stop offset=".606" stop-color="#3ECAE2" stop-opacity=".394"/><stop offset=".728" stop-color="#4FACE1" stop-opacity=".272"/><stop offset=".846" stop-color="#6386E0" stop-opacity=".154"/><stop offset=".958" stop-color="#7B5BDF" stop-opacity=".042"/><stop offset="1" stop-color="#8549DF" stop-opacity="0"/></radialGradient></defs></svg>