<svg width="24" height="24" fill="none" xmlns="http://www.w3.org/2000/svg"><path fill-rule="evenodd" clip-rule="evenodd" d="m22.377 17.888-.13-12L11.92 12l10.457 5.888Z" fill="#BBC3C6"/><path fill-rule="evenodd" clip-rule="evenodd" d="m11.92 12 .13 12 10.327-6.112L11.92 12Z" fill="#9DA5A7"/><path fill-rule="evenodd" clip-rule="evenodd" d="M22.246 5.888 11.789 0l.13 12 10.327-6.112Z" fill="#7E878C"/><path fill-rule="evenodd" clip-rule="evenodd" d="M1.592 18.112 12.049 24l-.13-12-10.327 6.112Z" fill="#424647"/><path fill-rule="evenodd" clip-rule="evenodd" d="m1.462 6.112.13 12L11.92 12 1.462 6.112Z" fill="#7F8382"/><path fill-rule="evenodd" clip-rule="evenodd" d="M11.79 0 1.462 6.112 11.92 12l-.13-12Z" fill="#C3C9C9"/><mask id="a" mask-type="alpha" maskUnits="userSpaceOnUse" x="10" y="8" width="7" height="8"><path d="M16.571 12a4.63 4.63 0 0 1-1.114 3.02c-.063.014-1.852.366-3.208-.22-.994-.43-1.48-1.406-1.643-1.807.301.398.777.654 1.314.654.374 0 .719-.125.995-.335.405-.166 1.376-.652 1.805-1.642.586-1.355.232-3.145.22-3.207A4.639 4.639 0 0 1 16.571 12Z" fill="#fff"/></mask><g mask="url(#a)"><path fill-rule="evenodd" clip-rule="evenodd" d="M16.571 12a4.63 4.63 0 0 1-1.114 3.02c-.063.014-1.852.366-3.208-.22-.994-.43-1.48-1.406-1.643-1.807.301.398.777.654 1.314.654.374 0 .719-.125.995-.335.405-.166 1.376-.652 1.805-1.642.586-1.355.232-3.145.22-3.207A4.639 4.639 0 0 1 16.571 12Z" fill="url(#b)"/></g><mask id="c" mask-type="alpha" maskUnits="userSpaceOnUse" x="8" y="10" width="8" height="7"><path d="M15.456 15.021a4.637 4.637 0 0 1-3.536 1.63 4.63 4.63 0 0 1-3.022-1.114c-.012-.062-.364-1.851.222-3.207.429-.993 1.402-1.478 1.804-1.642a1.641 1.641 0 0 0-.318 2.305c.163.401.65 1.376 1.643 1.807 1.355.586 3.145.234 3.207.221Z" fill="#fff"/></mask><g mask="url(#c)"><path fill-rule="evenodd" clip-rule="evenodd" d="M15.456 15.021a4.637 4.637 0 0 1-3.536 1.63 4.63 4.63 0 0 1-3.022-1.114c-.012-.062-.364-1.851.222-3.207.429-.993 1.402-1.478 1.804-1.642a1.641 1.641 0 0 0-.318 2.305c.163.401.65 1.376 1.643 1.807 1.355.586 3.145.234 3.207.221Z" fill="url(#d)"/></g><mask id="e" mask-type="alpha" maskUnits="userSpaceOnUse" x="8" y="7" width="8" height="7"><path d="M14.94 8.464c.012.061.366 1.85-.22 3.206-.43.99-1.4 1.476-1.803 1.641a1.646 1.646 0 0 0 .314-2.306c-.165-.406-.651-1.375-1.642-1.804-1.355-.587-3.144-.234-3.206-.222a4.64 4.64 0 0 1 3.537-1.63 4.632 4.632 0 0 1 3.02 1.115Z" fill="#fff"/></mask><g mask="url(#e)"><path fill-rule="evenodd" clip-rule="evenodd" d="M14.94 8.464c.012.061.366 1.85-.22 3.206-.43.99-1.4 1.476-1.803 1.641a1.646 1.646 0 0 0 .314-2.306c-.165-.406-.651-1.375-1.642-1.804-1.355-.587-3.144-.234-3.206-.222a4.64 4.64 0 0 1 3.537-1.63 4.632 4.632 0 0 1 3.02 1.115Z" fill="url(#f)"/></g><path fill-rule="evenodd" clip-rule="evenodd" d="M13.231 11.004a1.646 1.646 0 1 1-2.959.995c0-.535.256-1.01.652-1.31a1.645 1.645 0 0 1 2.307.316Z" fill="#fff"/><mask id="g" mask-type="alpha" maskUnits="userSpaceOnUse" x="7" y="8" width="7" height="8"><path d="M13.231 11.003a1.645 1.645 0 0 0-2.306-.315c-.402.164-1.376.65-1.805 1.642-.586 1.356-.233 3.145-.221 3.207A4.639 4.639 0 0 1 7.268 12c0-1.153.42-2.208 1.115-3.02.062-.013 1.852-.366 3.207.22.99.43 1.476 1.399 1.641 1.803Z" fill="#fff"/></mask><g mask="url(#g)"><path fill-rule="evenodd" clip-rule="evenodd" d="M13.231 11.003a1.645 1.645 0 0 0-2.306-.315c-.402.164-1.376.65-1.805 1.642-.586 1.356-.233 3.145-.221 3.207A4.639 4.639 0 0 1 7.268 12c0-1.153.42-2.208 1.115-3.02.062-.013 1.852-.366 3.207.22.99.43 1.476 1.399 1.641 1.803Z" fill="url(#h)"/></g><defs><linearGradient id="b" x1="13.589" y1="8.463" x2="13.589" y2="15.137" gradientUnits="userSpaceOnUse"><stop stop-color="#F0CE7B"/><stop offset="1" stop-color="#FDFDF4"/></linearGradient><linearGradient id="d" x1="12.119" y1="16.652" x2="12.119" y2="10.688" gradientUnits="userSpaceOnUse"><stop stop-color="#CE4A28"/><stop offset="1" stop-color="#FDFDF4"/></linearGradient><linearGradient id="f" x1="11.72" y1="7.349" x2="11.72" y2="13.311" gradientUnits="userSpaceOnUse"><stop stop-color="#F0CE7B"/><stop offset="1" stop-color="#FDFDF4"/></linearGradient><linearGradient id="h" x1="8.369" y1="14.957" x2="11.621" y2="9.324" gradientUnits="userSpaceOnUse"><stop stop-color="#F0CE7B"/><stop offset="1" stop-color="#FDFDF4"/></linearGradient></defs></svg>