<svg width="24" height="24" viewBox="0 0 24 24" fill="none" xmlns="http://www.w3.org/2000/svg">
<path d="M0 0H23.958V23.958H0V0Z" fill="#0099E5"/>
<path d="M11.6122 12.4164L13.8861 14.7282C14.4822 15.3396 15.2999 15.6844 16.1538 15.6844C17.0078 15.6844 17.8255 15.3396 18.4216 14.7282C19.6745 13.4416 19.6745 11.3912 18.4216 10.1045C17.8255 9.49313 17.0078 9.14836 16.1538 9.14836C15.2999 9.14836 14.4822 9.49313 13.8861 10.1045L11.6122 12.4164ZM16.1545 16.8286C14.9981 16.8301 13.8902 16.3635 13.0833 15.535L10.0176 12.4164L13.0833 9.29773C13.8909 8.47069 14.9979 8.00439 16.1538 8.00439C17.3098 8.00439 18.4168 8.47069 19.2244 9.29773C20.9122 11.0343 20.9122 13.7985 19.2244 15.535C18.4179 16.3633 17.3105 16.8299 16.1545 16.8286Z" fill="white"/>
<path d="M7.80346 16.8286C6.6474 16.83 5.54001 16.3634 4.73363 15.535C3.04582 13.7985 3.04582 11.0343 4.73363 9.29773C5.54119 8.47069 6.64822 8.00439 7.80414 8.00439C8.96005 8.00439 10.0671 8.47069 10.8746 9.29773L11.0197 9.44552L10.217 10.2509L10.0719 10.1045C9.47537 9.4934 8.65747 9.14883 7.80346 9.14883C6.94944 9.14883 6.13155 9.4934 5.53498 10.1045C4.28216 11.3912 4.28216 13.4416 5.53498 14.7282C6.13155 15.3393 6.94944 15.6839 7.80346 15.6839C8.65747 15.6839 9.47537 15.3393 10.0719 14.7282L10.217 14.5804L11.0197 15.394L10.8746 15.5418C10.0678 16.3703 8.95992 16.8369 7.80346 16.8354" fill="white"/>
</svg>
