<svg width="24" height="24" fill="none" xmlns="http://www.w3.org/2000/svg"><path d="M12 24c6.627 0 12-5.373 12-12S18.627 0 12 0 0 5.373 0 12s5.373 12 12 12Z" fill="#008DDE"/><path d="M18.022 12.995a.544.544 0 1 0 0-1.09h-1.245v-1.231h2.603a.545.545 0 1 0 0-1.09h-2.613a2.652 2.652 0 0 0-2.201-2.376V5.896a.545.545 0 1 0-1.09 0v1.275h-1.231V4.305a.545.545 0 1 0-1.09 0V7.17H9.923V5.895a.545.545 0 0 0-1.09 0v1.313a2.652 2.652 0 0 0-2.2 2.376H3.554a.545.545 0 1 0 0 1.09h3.068v1.231H5.378a.543.543 0 0 0-.566.545.546.546 0 0 0 .566.545h1.245v1.231H4.25a.547.547 0 0 0-.398.938.544.544 0 0 0 .398.152h2.382a2.652 2.652 0 0 0 2.201 2.376v.848a.545.545 0 1 0 1.09 0v-.811h1.231v2.468a.545.545 0 0 0 1.09 0v-2.468h1.232v1.275a.543.543 0 0 0 .544.565.545.545 0 0 0 .545-.565v-1.311a2.652 2.652 0 0 0 2.2-2.376h3.609a.544.544 0 1 0 0-1.09h-3.596v-1.232h1.244Zm-2.115 2.086a1.78 1.78 0 0 1-1.777 1.778H9.27a1.78 1.78 0 0 1-1.778-1.778V9.818A1.779 1.779 0 0 1 9.269 8.04h4.86a1.779 1.779 0 0 1 1.778 1.778v5.263Z" fill="#fff"/><path d="M10.426 9.326a6.248 6.248 0 0 0-.63.022c-.332.038-.576.338-.586.663-.017.738-.003 1.478-.008 2.216.01.376-.025.757.03 1.13.053.333.379.548.702.547 1.005.007 2.01.002 3.015.003v.416H9.713l-.416 1.249h3.22c.377-.01.757.025 1.13-.03.333-.053.547-.378.546-.701.008-1.315.002-2.63.004-3.945-.012-.353.03-.712-.04-1.06-.076-.355-.456-.53-.792-.508h-2.307c-.21.004-.422 0-.633-.002h.001Zm.025 1.25h2.497v2.082h-2.497v-2.081Z" fill="#fff"/></svg>