<svg width="24" height="24" fill="none" xmlns="http://www.w3.org/2000/svg"><g clip-path="url(#a)"><path d="M8.53 19.273.1 4.69s-.646-1.69 1.338-1.69h5.456a1.726 1.726 0 0 1 1.637.842c.595.992 8.977 15.574 8.977 15.574l-7.241.892a1.985 1.985 0 0 1-1.736-1.036Z" fill="url(#b)"/><path d="m10.266 17.09 5.06-8.778a1.786 1.786 0 0 1 1.686-.848h5.406s2.232.05 1.388 1.537a4857.991 4857.991 0 0 1-5.951 10.366s-.348.942-1.736.942H9.572s-1.24-.049-.298-1.537c.943-1.488.992-1.681.992-1.681Z" fill="url(#c)"/></g><defs><linearGradient id="b" x1="5.436" y1="4.677" x2="12.712" y2="20.617" gradientUnits="userSpaceOnUse"><stop stop-color="#F26659"/><stop offset="1" stop-color="#B52A53"/></linearGradient><linearGradient id="c" x1="12.716" y1="20.394" x2="20.032" y2="8.039" gradientUnits="userSpaceOnUse"><stop stop-color="#F26659"/><stop offset="1" stop-color="#EE1C4E"/></linearGradient><clipPath id="a"><path fill="#fff" d="M0 0h24v24H0z"/></clipPath></defs></svg>