<svg width="24" height="24" viewBox="0 0 24 24" fill="none" xmlns="http://www.w3.org/2000/svg">
<mask id="mask0" mask-type="alpha" maskUnits="userSpaceOnUse" x="0" y="0" width="24" height="24">
<path d="M24 12C24 18.6274 18.6274 24 12 24C5.37255 24 0 18.6274 0 12C0 5.37255 5.37255 0 12 0C18.6274 0 24 5.37255 24 12Z" fill="white"/>
</mask>
<g mask="url(#mask0)">
<path fill-rule="evenodd" clip-rule="evenodd" d="M24 12C24 18.6274 18.6274 24 12 24C5.37255 24 0 18.6274 0 12C0 5.37255 5.37255 0 12 0C18.6274 0 24 5.37255 24 12Z" fill="url(#paint0_linear)"/>
</g>
<path fill-rule="evenodd" clip-rule="evenodd" d="M12 22.9171C5.98031 22.9171 1.08285 18.0197 1.08285 12C1.08285 5.98024 5.98031 1.08285 12 1.08285C18.0197 1.08285 22.9171 5.98024 22.9171 12C22.9171 18.0197 18.0197 22.9171 12 22.9171ZM12 0C5.37255 0 0 5.37255 0 12C0 18.6274 5.37255 24 12 24C18.6274 24 24 18.6274 24 12C24 5.37255 18.6274 0 12 0Z" fill="#1B1A19"/>
<path fill-rule="evenodd" clip-rule="evenodd" d="M20.3896 7.2048L20.8225 6.772C21.325 7.62022 21.6942 8.52592 21.9313 9.45874H21.3232C20.9205 9.45874 20.5939 9.78519 20.5939 10.188V13.8123C20.5939 14.2151 20.9205 14.5416 21.3232 14.5416H21.9313C21.6942 15.4743 21.325 16.3801 20.8225 17.2283L20.3896 16.7955C20.1048 16.5107 19.6431 16.5107 19.3583 16.7955L16.7955 19.3583C16.5107 19.6431 16.5107 20.1048 16.7955 20.3896L17.2283 20.8225C16.3801 21.325 15.4744 21.6943 14.5416 21.9313V21.3232C14.5416 20.9205 14.2151 20.5939 13.8123 20.5939H10.188C9.78526 20.5939 9.45874 20.9205 9.45874 21.3232V21.9313C8.52599 21.6943 7.62022 21.325 6.772 20.8225L7.2048 20.3896C7.48962 20.1048 7.48962 19.6431 7.2048 19.3583L4.64204 16.7955C4.35722 16.5107 3.89552 16.5107 3.6107 16.7955L3.17784 17.2283C2.67529 16.3801 2.30601 15.4743 2.069 14.5416H2.67709C3.07985 14.5416 3.40637 14.2151 3.40637 13.8123V10.188C3.40637 9.78519 3.07985 9.45874 2.67709 9.45874H2.069C2.30601 8.52592 2.67529 7.62022 3.17784 6.772L3.6107 7.2048C3.89552 7.48961 4.35722 7.48961 4.64204 7.2048L7.2048 4.64204C7.48962 4.35722 7.48962 3.89552 7.2048 3.6107L6.772 3.17784C7.62022 2.67529 8.52599 2.30601 9.45874 2.069V2.67709C9.45874 3.07985 9.78526 3.40637 10.188 3.40637H13.8123C14.2151 3.40637 14.5416 3.07985 14.5416 2.67709V2.069C15.4744 2.30601 16.3801 2.67529 17.2283 3.17784L16.7955 3.6107C16.5107 3.89552 16.5107 4.35722 16.7955 4.64204L19.3583 7.2048C19.6431 7.48961 20.1048 7.48961 20.3896 7.2048ZM12.0002 1.08301C5.98047 1.08301 1.08301 5.9804 1.08301 12.0002C1.08301 18.0198 5.98047 22.9172 12.0002 22.9172C18.0198 22.9172 22.9173 18.0198 22.9173 12.0002C22.9173 5.9804 18.0198 1.08301 12.0002 1.08301Z" fill="#FFFFFE"/>
<path fill-rule="evenodd" clip-rule="evenodd" d="M18.4747 12.0001C18.4747 15.5762 15.5757 18.4752 11.9996 18.4752C8.42344 18.4752 5.52441 15.5762 5.52441 12.0001C5.52441 8.42393 8.42344 5.5249 11.9996 5.5249C15.5757 5.5249 18.4747 8.42393 18.4747 12.0001Z" fill="#FFFFFE"/>
<path fill-rule="evenodd" clip-rule="evenodd" d="M17.9142 12.0001C17.9142 15.2666 15.2661 17.9147 11.9996 17.9147C8.73305 17.9147 6.08496 15.2666 6.08496 12.0001C6.08496 8.73354 8.73305 6.08545 11.9996 6.08545C15.2661 6.08545 17.9142 8.73354 17.9142 12.0001Z" fill="#1B1A19"/>
<path fill-rule="evenodd" clip-rule="evenodd" d="M11.5442 13.6991H9.41434C8.93374 13.6991 8.54417 13.3095 8.54417 12.8289V12.4311C8.54417 11.9506 8.93374 11.561 9.41434 11.561H10.2182C10.6759 11.561 11.0469 11.19 11.0469 10.7323V10.5002H9.41434C8.34793 10.5002 7.4834 11.3647 7.4834 12.4311V12.8289C7.4834 13.8953 8.34793 14.7599 9.41434 14.7599H11.5442V13.6991ZM13.616 13.6991H14.5856C15.0654 13.6991 15.4558 13.3087 15.4558 12.8289V12.4311C15.4558 11.9513 15.0654 11.561 14.5856 11.561H13.616V13.6991ZM14.5856 14.7599H12.5552V11.561H12.5055C12.0478 11.561 11.6768 11.19 11.6768 10.7323V10.5002H12.5552V9.29027H11.8757C11.4179 9.29027 11.0469 8.91926 11.0469 8.46154V8.22949H13.616V10.5002H14.5856C15.652 10.5002 16.5165 11.3647 16.5165 12.4311V12.8289C16.5165 13.8953 15.652 14.7599 14.5856 14.7599Z" fill="#FFFFFE"/>
<defs>
<linearGradient id="paint0_linear" x1="12" y1="0" x2="12" y2="23.2056" gradientUnits="userSpaceOnUse">
<stop stop-color="#996630"/>
<stop offset="0.328283" stop-color="#D2A342"/>
<stop offset="0.603843" stop-color="#A8772D"/>
<stop offset="1" stop-color="#C59734"/>
</linearGradient>
</defs>
</svg>
