<svg width="24" height="24" viewBox="0 0 24 24" fill="none" xmlns="http://www.w3.org/2000/svg">
<path d="M22.51 16.0482C22.5108 13.3486 22.5108 10.6492 22.51 7.94973C22.5209 7.67373 22.3823 7.39905 22.1608 7.23633C18.944 4.88593 15.7271 2.53517 12.5103 0.184047C12.3134 0.0301322 12.0596 -0.0311267 11.8142 0.0160467C11.6644 0.0454467 11.5292 0.120207 11.4089 0.210687C8.21497 2.54525 5.02089 4.87961 1.82665 7.21377C1.58431 7.38228 1.44043 7.65924 1.44181 7.95441C1.43997 10.6533 1.43997 13.352 1.44181 16.0504C1.43761 16.3428 1.58941 16.6264 1.82965 16.7911C5.02357 19.1244 8.21685 21.4582 11.4095 23.7925C11.7151 24.0538 12.1943 24.0745 12.5097 23.8197C15.7162 21.4784 18.9216 19.136 22.1259 16.7923C22.3672 16.6297 22.5233 16.341 22.51 16.0482Z" fill="#050708"/>
<path d="M10.8629 1.94823C10.9476 1.85223 11.0335 1.70259 11.1824 1.72251C11.6889 1.72551 12.1967 1.71459 12.7031 1.72791C12.7908 1.78239 12.858 1.86411 12.933 1.93431C12.9311 2.45711 12.9311 2.97995 12.933 3.50283C12.7823 3.50463 12.6311 3.51135 12.4803 3.50103C12.4712 3.46407 12.4531 3.39147 12.4443 3.35463C12.4443 2.96427 12.4782 2.57343 12.4455 2.18367C12.0734 2.18431 11.7014 2.18431 11.3295 2.18367C11.3277 2.31495 11.3271 2.44695 11.3259 2.57823C11.1692 2.57823 11.0119 2.57823 10.8546 2.57703C10.8557 2.36811 10.8326 2.15571 10.8629 1.94823ZM9.59997 2.58603C9.77121 2.57943 9.94245 2.57943 10.1143 2.58363C10.1167 3.30675 10.1197 4.02927 10.1125 4.75179C9.94905 4.75539 9.78573 4.75539 9.62289 4.75419C9.56853 4.03407 9.61197 3.30855 9.59997 2.58603ZM13.956 3.36303C14.412 3.35703 14.8673 3.35883 15.323 3.36183C15.3254 3.52887 15.3254 3.69531 15.3236 3.86223C14.8676 3.86703 14.4116 3.86883 13.9556 3.86103C13.9539 3.69519 13.9539 3.52827 13.956 3.36303ZM11.1909 3.60927C11.3749 3.60507 11.5589 3.60567 11.7429 3.60567C11.919 3.94815 12.1399 4.26771 12.2829 4.62651C12.1141 4.63443 11.9447 4.63443 11.7758 4.63503C11.5752 4.29627 11.3815 3.95355 11.1909 3.60927ZM13.0692 4.21143C13.2283 4.20783 13.3874 4.20843 13.5473 4.21083C13.9806 4.88283 14.4017 5.56275 14.838 6.23319C14.8374 6.43719 14.8386 6.64119 14.8344 6.84519C14.7872 6.83667 14.694 6.82035 14.6474 6.81255C14.2771 6.26055 13.9364 5.68887 13.5703 5.13447C13.5643 5.75847 13.5721 6.38247 13.5661 7.00647C13.4003 7.00951 13.2341 7.00951 13.0675 7.00647C13.0656 6.07515 13.0626 5.14323 13.0692 4.21143ZM15.0468 4.58955C15.2162 4.58595 15.3863 4.58595 15.5557 4.59075C15.5569 4.75047 15.5569 4.91091 15.5557 5.07075C15.3863 5.07495 15.2162 5.07495 15.0474 5.07195C15.0462 4.91155 15.046 4.75075 15.0468 4.58955ZM6.66993 4.74747C6.80361 4.74507 6.93741 4.74567 7.07109 4.74687C7.42809 4.72287 7.78449 4.72995 8.14161 4.75047C8.14281 4.90539 8.14221 5.06091 8.14041 5.21583C7.61241 5.53287 7.10505 5.88447 6.56949 6.18783C6.41157 6.12783 6.29109 6.00147 6.16221 5.89611C6.51261 5.68251 6.85569 5.45739 7.20969 5.24979C7.03053 5.24067 6.85089 5.24187 6.67173 5.24007C6.66869 5.07551 6.66809 4.91131 6.66993 4.74747ZM10.8938 4.93143C11.0579 4.92663 11.2224 4.92723 11.3858 4.93143C11.39 5.09607 11.39 5.25999 11.3864 5.42463C11.2224 5.42951 11.0584 5.42971 10.8944 5.42523C10.8906 5.26067 10.8904 5.09607 10.8938 4.93143ZM8.48649 5.41311C8.74917 5.81127 9.00393 6.21495 9.27009 6.61071C9.53577 6.21015 9.79233 5.80347 10.0604 5.40471C10.0604 5.66871 10.0779 5.93547 10.055 6.19923C9.81177 6.61611 9.53037 7.01007 9.26829 7.41555C9.01053 7.01679 8.73753 6.62643 8.49309 6.21987C8.46537 5.95227 8.48529 5.68179 8.48649 5.41311ZM15.7584 5.48031C16.5469 5.47671 17.3353 5.47691 18.1238 5.48091C18.1244 5.64063 18.1244 5.80107 18.1232 5.96091C17.3353 5.96275 16.547 5.96295 15.7584 5.96151C15.7578 5.80107 15.7572 5.64027 15.7584 5.48031ZM11.5848 6.10479C11.7433 6.10179 11.9024 6.10179 12.0617 6.10359C12.0696 6.80307 12.0611 7.50327 12.0659 8.20359C11.9921 8.27379 11.9189 8.34519 11.8469 8.41659C11.3004 8.42259 10.754 8.41719 10.2081 8.41959C10.1361 8.35059 10.0623 8.28459 9.99753 8.21019C9.96969 7.99599 9.99021 7.77747 9.98961 7.56219C10.1421 7.56099 10.2946 7.56099 10.4471 7.56219C10.4513 7.68567 10.4507 7.80903 10.4489 7.93251C10.8247 7.97487 11.2034 7.94451 11.5811 7.95363C11.583 7.33743 11.577 6.72027 11.5848 6.10479ZM19.2077 8.17227C19.2028 7.64427 19.2028 7.11599 19.2077 6.58743C19.3729 6.58383 19.538 6.58323 19.7039 6.58743C19.7093 7.11543 19.7091 7.64391 19.7033 8.17287C19.538 8.17563 19.3729 8.17503 19.2077 8.17227ZM16.8531 6.98655C17.1651 6.98355 17.4788 6.93507 17.7891 6.98535C17.9924 7.64799 18.1668 8.32083 18.3689 8.98467C18.2091 8.98587 18.0487 8.98587 17.8889 8.98587C17.7363 8.47095 17.6063 7.94991 17.4489 7.43607C17.3612 7.43727 17.2735 7.43847 17.1857 7.43907C17.055 7.95771 16.8977 8.46843 16.7627 8.98515C16.6017 8.98579 16.4407 8.98559 16.2798 8.98455C16.4779 8.32083 16.6637 7.65279 16.8531 6.98655ZM3.51417 7.23951C4.23309 7.23531 4.95261 7.23351 5.67141 7.24011C5.67561 7.40535 5.67561 7.56987 5.67201 7.73511C4.95201 7.74171 4.23297 7.73991 3.51345 7.73571C3.51117 7.57047 3.51117 7.40427 3.51417 7.23951ZM6.01041 7.24011C6.17385 7.23891 6.33717 7.23831 6.50121 7.23951C6.50481 7.40535 6.50481 7.57167 6.50121 7.73751C6.33717 7.73931 6.17385 7.73871 6.01041 7.73691C6.00849 7.57107 6.00849 7.40583 6.01041 7.24011ZM7.81725 7.26027C7.97757 7.25907 8.13861 7.25967 8.29893 7.26147C8.30373 7.64547 8.30133 8.03055 8.30133 8.41491C8.13849 8.41611 7.97577 8.41671 7.81365 8.41551C7.81197 8.03091 7.80693 7.64547 7.81725 7.26027ZM20.384 7.60551C20.5686 7.60191 20.7537 7.60251 20.9383 7.60191C21.1211 7.94079 21.3432 8.26191 21.4793 8.62395C21.3113 8.62995 21.1422 8.63055 20.9739 8.63127C20.775 8.29059 20.5855 7.94427 20.384 7.60551ZM13.1079 8.01627C13.2679 8.01507 13.4279 8.01527 13.5879 8.01687C13.5915 8.54331 13.5891 9.06975 13.5891 9.59631C13.4282 9.59751 13.2678 9.59811 13.1069 9.59811C13.1073 9.07119 13.1061 8.54355 13.1079 8.01627ZM14.796 8.65671C14.7941 8.49215 14.7943 8.32715 14.7966 8.16171C14.9581 8.15931 15.1206 8.15931 15.2825 8.16351C15.2831 8.32815 15.2837 8.49267 15.2813 8.65731C15.12 8.65791 14.9579 8.65731 14.796 8.65671ZM5.66301 9.38643C6.05085 9.10323 6.46485 8.85699 6.86301 8.58951C7.12629 8.59251 7.38885 8.58891 7.65213 8.59311C7.26117 8.87271 6.84549 9.11415 6.45213 9.39003C6.85641 9.64419 7.25277 9.91047 7.65453 10.167C7.38405 10.1718 7.11357 10.1688 6.84309 10.1694C6.45273 9.90447 6.04725 9.66027 5.66301 9.38643ZM19.2083 8.92719C19.3741 8.92359 19.5398 8.92299 19.7063 8.92659C19.7105 9.09243 19.7099 9.25755 19.7051 9.42339C19.5398 9.42699 19.3741 9.42639 19.2089 9.42279C19.2053 9.25759 19.2051 9.09239 19.2083 8.92719ZM2.18469 8.99499C3.01269 8.99019 3.84213 8.98839 4.67121 8.99619C4.67301 9.15291 4.67301 9.31023 4.67361 9.46755C4.30329 9.71019 3.93297 9.95403 3.55233 10.1791C3.39141 10.1205 3.26973 9.98715 3.13233 9.88935C3.33741 9.75987 3.54561 9.63459 3.74433 9.49599C3.22449 9.49359 2.70477 9.49899 2.18433 9.49299C2.18193 9.32715 2.18205 9.16115 2.18469 8.99499ZM9.27441 9.47547C9.99153 9.47847 10.7085 9.47187 11.4251 9.47847C11.4425 9.64154 11.4403 9.80612 11.4185 9.96867C10.7037 9.97167 9.98973 9.96927 9.27573 9.96987C9.27445 9.80459 9.27401 9.63979 9.27441 9.47547ZM11.8934 9.47847C12.0659 9.47487 12.2377 9.47487 12.4103 9.48087C12.4109 9.64183 12.4107 9.80239 12.4097 9.96255C12.2378 9.96735 12.0654 9.96735 11.8937 9.96435C11.892 9.80223 11.892 9.64059 11.8934 9.47847ZM14.1488 10.1719C14.1264 10.0019 14.3007 9.91479 14.3903 9.79803C14.6009 9.79863 14.8115 9.79683 15.0221 9.80103C15.0269 9.95955 15.0269 10.1181 15.0245 10.2773C14.8914 10.2797 14.7576 10.2797 14.6245 10.2815V11.4107C15.2436 11.4149 15.8625 11.4083 16.4816 11.4143C16.4834 11.5746 16.4834 11.7351 16.4792 11.8943C15.7821 11.8991 15.0843 11.8949 14.3873 11.8967C14.2983 11.7805 14.1277 11.6927 14.1494 11.524C14.1464 11.0735 14.1462 10.6228 14.1488 10.1719ZM16.496 10.0218C16.6667 10.0158 16.8385 10.0158 17.0097 10.0224C17.0116 10.1858 17.0114 10.3492 17.0091 10.5126C16.8379 10.5186 16.6673 10.5186 16.496 10.5132C16.4942 10.3492 16.4942 10.1859 16.496 10.0218ZM18.1269 10.0218C18.8483 10.0121 19.569 10.0188 20.2903 10.0182C20.2915 10.1847 20.2915 10.3517 20.2897 10.518C19.569 10.518 18.8483 10.524 18.1275 10.515C18.1251 10.3505 18.1249 10.1861 18.1269 10.0218ZM8.13501 10.5973C8.53929 10.5967 8.94285 10.5973 9.34701 10.5967C9.35061 10.7647 9.35061 10.9327 9.34641 11.1007C8.94281 11.1014 8.53937 11.1014 8.13609 11.1007C8.12905 10.9324 8.12869 10.7646 8.13501 10.5973ZM10.8006 10.5973C11.4348 10.5967 12.069 10.5979 12.7031 10.5961C12.9336 10.5601 13.1642 10.7994 13.1351 11.0269C13.1339 11.4929 13.1337 11.9592 13.1345 12.426C13.0533 12.5137 12.9717 12.6003 12.89 12.6874C12.68 12.6874 12.4706 12.688 12.2607 12.685C12.2589 12.525 12.2587 12.3652 12.2601 12.2057C12.3914 12.2039 12.5228 12.2027 12.6541 12.2009C12.6547 11.8342 12.6535 11.4669 12.6553 11.1001C12.0392 11.0451 11.4185 11.091 10.8006 11.0747C10.799 10.915 10.799 10.7559 10.8006 10.5973ZM6.33105 10.7449C6.64089 10.7431 6.95013 10.7413 7.25997 10.7461C7.44753 11.416 7.64901 12.0822 7.82637 12.7552C7.67037 12.7552 7.51437 12.7552 7.35921 12.7564C7.20009 12.2395 7.07721 11.7131 6.91317 11.1988C6.82485 11.2042 6.73653 11.2108 6.64809 11.2175C6.53073 11.7355 6.36309 12.2401 6.23481 12.7558C6.07449 12.7552 5.91405 12.7552 5.75481 12.754C5.94561 12.0843 6.13557 11.4136 6.33105 10.7449ZM19.848 11.3501C20.388 11.3447 20.9287 11.3392 21.468 11.3519C21.6042 11.4359 21.7578 11.5722 21.7281 11.7513C21.7281 12.1353 21.7257 12.5203 21.7281 12.9047C21.7233 13.0893 21.7317 13.2738 21.7263 13.4584C21.7349 13.6091 21.6937 13.7573 21.7023 13.9086C21.5486 13.908 21.3949 13.9086 21.2412 13.9068C21.243 13.2133 21.2412 12.5193 21.2424 11.8258C20.8653 11.8155 20.4884 11.8234 20.1114 11.8204C20.1108 11.9493 20.1108 12.0781 20.1084 12.2076C19.9498 12.21 19.7913 12.2108 19.6327 12.21C19.6297 11.9976 19.6303 11.7846 19.6309 11.5722C19.704 11.499 19.776 11.4251 19.848 11.3501ZM4.48113 11.3694H4.98273C4.98393 11.8965 4.98273 12.4229 4.98333 12.9495H4.47933C4.48173 12.423 4.47993 11.896 4.48113 11.3694ZM2.90721 11.8101C3.07185 11.8077 3.23637 11.8125 3.40041 11.8234C3.40225 11.9795 3.40225 12.1359 3.40041 12.2923C3.23457 12.2941 3.06885 12.2947 2.90301 12.2917C2.90121 12.1307 2.90181 11.9704 2.90721 11.8101ZM8.80125 14.6983C8.79701 13.7664 8.79681 12.8344 8.80065 11.9023C8.96409 11.8999 9.12741 11.8999 9.29085 11.9035C9.67485 12.5226 10.0709 13.135 10.463 13.7497C10.6325 13.9681 10.5308 14.2611 10.5581 14.5152C10.5012 14.5158 10.4443 14.5164 10.388 14.5176C10.0352 13.9572 9.66669 13.4065 9.32901 12.8376C9.26793 13.4561 9.31809 14.08 9.29817 14.7009C9.13197 14.7025 8.96637 14.7025 8.80125 14.6983ZM10.98 12.2608C11.1464 12.2572 11.3128 12.2568 11.4792 12.2596C11.4816 12.6669 11.481 13.0741 11.4798 13.4813C11.3127 13.4843 11.1463 13.4843 10.9794 13.4801C10.9766 13.0735 10.976 12.6669 10.98 12.2608ZM13.9969 12.8055C14.1597 12.8043 14.3231 12.8037 14.4865 12.8055C14.4895 12.9713 14.4895 13.1371 14.4865 13.3029C14.3231 13.3035 14.1599 13.3033 13.9969 13.3023C13.9951 13.1371 13.9951 12.9715 13.9969 12.8055ZM15.5841 12.8272C16.0913 12.8206 16.5984 12.8242 17.1061 12.8254C17.1266 12.9736 17.1393 13.1243 17.1248 13.2744C17.0768 13.3719 16.962 13.3331 16.8761 13.3422C16.4441 13.3295 16.0107 13.3671 15.5817 13.3182C15.5787 13.1539 15.5787 12.9906 15.5841 12.8272ZM17.6301 12.8974C17.7936 12.895 17.9587 12.8841 18.1215 12.9094C18.1373 13.4818 18.1281 14.0561 18.1251 14.6292C17.9599 14.6323 17.7949 14.6321 17.6301 14.6286C17.6247 14.0516 17.6247 13.4745 17.6301 12.8974ZM13.1079 13.2363C13.2677 13.2357 13.4281 13.2351 13.5879 13.2369C13.5897 13.4015 13.5903 13.5666 13.5879 13.7325C13.4279 13.7349 13.2679 13.7349 13.1079 13.7325C13.1067 13.5673 13.1067 13.4015 13.1079 13.2363ZM5.41425 13.5885C5.98425 13.5268 6.55977 13.5757 7.13217 13.5576C7.27967 13.5558 7.42716 13.5624 7.57389 13.5775C7.57629 13.744 7.57569 13.911 7.57449 14.0773C6.85449 14.0761 6.13605 14.0809 5.41725 14.0749C5.41305 13.9128 5.41305 13.7507 5.41425 13.5885ZM2.18529 13.9563C2.26341 13.8801 2.34201 13.8031 2.42073 13.7269C2.62893 13.7257 2.83701 13.7251 3.04473 13.7293C3.04713 13.8867 3.04713 14.0446 3.04593 14.2019C2.91645 14.2049 2.78757 14.2055 2.65809 14.2067C2.66109 14.5819 2.65629 14.9571 2.66109 15.3323C3.27405 15.3341 3.88713 15.3281 4.50009 15.3353C4.50309 15.4902 4.50309 15.6445 4.50189 15.7995C4.34997 15.8001 4.19745 15.8007 4.04589 15.8007C3.50193 15.7953 2.95725 15.8098 2.41329 15.7941C2.32257 15.7426 2.23113 15.6579 2.18997 15.5617C2.17569 15.0269 2.18829 14.4913 2.18529 13.9563ZM14.9022 14.2683C14.9839 14.1915 15.0662 14.1145 15.1503 14.0395C15.6804 14.0437 16.2105 14.0401 16.7406 14.0413C16.8205 14.1175 16.9003 14.1945 16.9806 14.2701C16.9812 14.7947 16.9814 15.3191 16.9812 15.8434C16.8197 15.8446 16.658 15.844 16.4971 15.8392C16.4965 15.3981 16.4935 14.9575 16.4989 14.5164C16.1269 14.5158 15.7565 14.5164 15.3854 14.5158C15.386 14.6501 15.3854 14.7845 15.3824 14.9188C15.2233 14.9212 15.0642 14.9212 14.9055 14.9206C14.9004 14.7031 14.9016 14.4859 14.9022 14.2683ZM18.3054 15.1945C18.8934 14.8115 19.4873 14.4385 20.0802 14.0641C20.2218 14.1586 20.361 14.2578 20.499 14.3571C20.0723 14.6291 19.6459 14.9004 19.2198 15.171C19.8461 15.1776 20.4725 15.1704 21.0993 15.1746C21.1005 15.3411 21.1005 15.5081 21.0987 15.6744C20.168 15.6775 19.2373 15.6777 18.3067 15.675C18.3042 15.5146 18.3042 15.3543 18.3054 15.1945ZM11.6508 15.2895C12.2408 14.8967 12.8496 14.5324 13.4395 14.1397C13.5799 14.2366 13.7185 14.3352 13.8613 14.4283C13.4533 14.7151 13.0202 14.9651 12.6044 15.2416C13.2271 15.2525 13.8498 15.2404 14.4725 15.2482C14.4767 15.4194 14.4767 15.5913 14.4719 15.7625C13.5399 15.7679 12.608 15.7643 11.6759 15.7643C11.652 15.6072 11.652 15.4481 11.6508 15.2895ZM5.52561 14.8659C5.78457 15.2619 6.04425 15.6579 6.30021 16.0549C6.57489 15.6628 6.82065 15.2509 7.09293 14.8567C7.09833 15.1236 7.09413 15.3911 7.09653 15.658C6.82545 16.0549 6.57729 16.4676 6.29901 16.8592C6.04125 16.4658 5.79129 16.0672 5.52261 15.681C5.51997 15.4093 5.51721 15.1371 5.52561 14.8659ZM8.36397 15.8819C8.35797 15.7125 8.35737 15.543 8.36697 15.3742C8.52981 15.3724 8.69373 15.373 8.85657 15.3862C8.86017 15.5514 8.85997 15.7166 8.85597 15.8818C8.69229 15.8831 8.52825 15.8837 8.36397 15.8819ZM10.6711 16.1265C10.8363 16.1247 11.0021 16.1241 11.1673 16.1259C11.1715 16.7412 11.1673 17.3567 11.1697 17.9721C11.0523 17.9769 10.9349 17.9824 10.8175 17.9932C10.7799 17.9859 10.7049 17.9727 10.6674 17.9659C10.6711 17.353 10.6644 16.7394 10.6711 16.1265ZM14.0894 16.5123C14.4014 16.5063 14.7127 16.5105 15.0243 16.5087C15.2155 17.1786 15.407 17.8485 15.5987 18.5183C15.4377 18.5189 15.2767 18.5189 15.1164 18.5147C14.9796 18.0028 14.8314 17.4939 14.6922 16.9825C14.6051 16.9771 14.5179 16.9734 14.4308 16.9692C14.2868 17.486 14.1432 18.0026 14 18.519C13.8391 18.5184 13.6787 18.5184 13.5183 18.5166C13.7143 17.8498 13.9092 17.1829 14.0894 16.5123ZM7.02453 17.6223C7.61817 17.241 8.21061 16.8574 8.81253 16.4889C8.95113 16.5863 9.09093 16.6809 9.22821 16.7806C8.79741 17.0487 8.37501 17.3307 7.93989 17.5914C8.57049 17.6034 9.20157 17.5896 9.83277 17.5987C9.83577 17.7646 9.83637 17.9303 9.83157 18.0961C8.89665 18.0991 7.96173 18.1035 7.02681 18.0943C7.02213 17.9369 7.02273 17.7796 7.02453 17.6223ZM11.928 16.6105C12.1018 16.6125 12.2755 16.602 12.4478 16.5791C12.6518 16.9151 12.8925 17.2483 12.9973 17.6308C12.8346 17.632 12.6717 17.632 12.5096 17.6332C12.3181 17.2907 12.1242 16.9498 11.928 16.6105ZM18.8004 16.8156C18.9704 16.8102 19.1411 16.8102 19.3117 16.8138C19.3123 16.9766 19.3123 17.1396 19.3117 17.3028C19.1411 17.307 18.971 17.307 18.801 17.2998C18.798 17.1382 18.798 16.9773 18.8004 16.8156ZM17.5472 18.1179C17.753 17.7869 17.9732 17.4655 18.1802 17.1352C18.1862 17.3802 18.1899 17.626 18.1838 17.8716C18.1898 17.9637 18.1227 18.0351 18.0798 18.1095C17.8518 18.4465 17.6331 18.7902 17.4093 19.1295C17.1401 18.7277 16.8793 18.3216 16.613 17.9175C16.6118 17.6488 16.6094 17.3801 16.616 17.112C16.8774 17.5036 17.1243 17.9053 17.3918 18.2932C17.4673 18.2613 17.5013 18.1803 17.5472 18.1179ZM4.88301 17.6417C5.31933 17.6272 5.75625 17.6344 6.19317 17.6375C6.19557 17.799 6.20589 17.9615 6.18525 18.1228C5.75193 18.1439 5.31693 18.1337 4.88361 18.1258C4.88181 17.9643 4.88181 17.8032 4.88301 17.6417ZM10.2021 18.6963C10.9016 18.6859 11.6006 18.6957 12.3001 18.6909C12.3801 18.7709 12.4601 18.8513 12.5401 18.9323C12.5371 19.4667 12.5383 20.0016 12.5389 20.5371C12.4687 20.6103 12.3993 20.6843 12.3307 20.7592C12.1068 20.764 11.8829 20.7646 11.6587 20.758C11.6617 20.6067 11.6424 20.4523 11.6786 20.3041C11.8051 20.2908 11.9322 20.2956 12.0599 20.2944C12.0611 19.9199 12.0599 19.5459 12.0605 19.1719C11.4408 19.1683 10.8205 19.1799 10.2015 19.1659C10.1997 19.0092 10.1999 18.8527 10.2021 18.6963ZM6.84177 18.8743C7.00513 18.8719 7.16873 18.8723 7.33257 18.8755C7.33497 19.0389 7.33517 19.2027 7.33317 19.3669C7.16861 19.3693 7.00461 19.3695 6.84117 19.3675C6.83893 19.2029 6.83913 19.0385 6.84177 18.8743ZM15.4964 19.1387C15.6816 18.9827 15.8498 19.2427 16.0083 19.3187C16.0083 19.3332 16.0089 19.3629 16.0089 19.3774C15.5951 19.6443 15.1715 19.8966 14.7666 20.1774L15.0014 20.1756C15.1261 20.1756 15.2511 20.177 15.3767 20.1798C15.3779 20.3433 15.3779 20.5072 15.3755 20.6706C14.8659 20.6779 14.3564 20.676 13.8469 20.6718C13.8366 20.5175 13.8349 20.3626 13.8336 20.2089C14.3775 19.8363 14.9451 19.5003 15.4964 19.1387ZM7.76097 19.5925C8.42241 19.5901 9.08445 19.5865 9.74577 19.5943C9.74697 19.7571 9.74697 19.9201 9.74577 20.0833C9.08373 20.0931 8.42229 20.0887 7.76037 20.0857C7.75737 19.9212 7.75797 19.7566 7.76097 19.5925ZM9.52377 20.8488C9.71013 20.847 9.89649 20.8464 10.083 20.85C10.2554 21.1931 10.4847 21.5091 10.6173 21.8715C10.4503 21.8806 10.2839 21.8806 10.1169 21.8818C9.91281 21.5411 9.72225 21.1923 9.52377 20.8488ZM12.8271 21.3705C12.99 21.3693 13.1527 21.3717 13.3148 21.3825C13.3178 21.5453 13.3166 21.7086 13.2961 21.8709C13.1406 21.8715 12.9855 21.8715 12.8307 21.8709C12.8247 21.7033 12.8247 21.5369 12.8271 21.3705ZM11.6925 22.9899C11.6931 22.6098 11.684 22.2292 11.6985 21.8491C11.8626 21.8497 12.0271 21.8583 12.1905 21.8731C12.1924 22.2453 12.1924 22.6177 12.1905 22.9902C12.0245 22.9928 11.8585 22.9927 11.6925 22.9899Z" fill="white"/>
</svg>
