<svg width="24" height="24" fill="none" xmlns="http://www.w3.org/2000/svg"><path d="M12 24c6.627 0 12-5.373 12-12S18.627 0 12 0 0 5.373 0 12s5.373 12 12 12Z" fill="#EBEBEB"/><path d="M19.754 4.444h-1.618v15.484h1.618V4.444Z" fill="#000"/><path fill-rule="evenodd" clip-rule="evenodd" d="M17.775 4.444v15.484h-.15l-7.383-4.258v-1.947l5.845 3.379V4.444h1.688ZM16.788 19.928h-3.376l-3.17-1.831V16.15l6.546 3.778ZM12.894 19.928h-2.652v-1.53l2.652 1.53Z" fill="#000"/><path d="M5.957 4.444H4.27v15.484h1.687V4.444Z" fill="#000"/><path fill-rule="evenodd" clip-rule="evenodd" d="M6.268 19.928V4.444h.15L13.8 8.71v1.943l-5.845-3.38v12.655H6.268ZM7.254 4.444h3.372L13.8 6.279v1.947L7.254 4.444ZM11.148 4.444H13.8v1.533l-2.652-1.533Z" fill="#000"/><path fill-rule="evenodd" clip-rule="evenodd" d="M15.797 4.444v12.03l-1.688-.97-3.867-2.234v-1.951l3.867 2.237V4.444h1.688Z" fill="#F3E733"/><path fill-rule="evenodd" clip-rule="evenodd" d="M8.245 19.931V7.904l1.684.972 3.871 2.237v1.947l-3.871-2.237v9.108H8.245Z" fill="#F3E733"/></svg>