<svg width="24" height="24" fill="none" xmlns="http://www.w3.org/2000/svg"><path d="M12 24c6.627 0 12-5.373 12-12S18.627 0 12 0 0 5.373 0 12s5.373 12 12 12Z" fill="#4CB8D1"/><path fill-rule="evenodd" clip-rule="evenodd" d="m7.592 6.212.298-.537a.817.817 0 0 1 .714-.425h6.717c.278 0 .537.144.687.381h3.044v5.355l.337.592a.855.855 0 0 1 0 .844l-.337.592v2.304l-2.578 2.234-.444.78a.818.818 0 0 1-.71.418H8.605a.818.818 0 0 1-.714-.424l-.018-.034H4.873v-5.4l-.266-.479a.855.855 0 0 1 0-.828l.266-.479V8.681l2.719-2.469Zm1.012-.123L5.321 12l3.283 5.91h6.717L18.678 12l-3.357-5.91H8.604Zm.304.534h6.112L18.075 12l-3.055 5.378H8.908L5.921 12l2.987-5.377Zm1.412 2.288L8.68 11.96l1.642 3.052h3.507l1.642-3.051-1.643-3.051H10.32Z" fill="#fff"/></svg>