<svg width="24" height="24" fill="none" xmlns="http://www.w3.org/2000/svg"><path d="M18.277 10.605c0-1.467.02-2.944-.01-4.41-.01-.595.235-.923.81-1.057 1.261-.297 2.512-.615 3.764-.923.605-.143 1.087.175 1.087.8.02 3.098.01 6.185 0 9.282 0 .452-.277.718-.708.82-1.271.319-2.543.647-3.815.944-.728.175-1.139-.184-1.139-.943.01-1.508.01-3.005.01-4.513Zm-9.231-.02c0-1.467.01-2.934 0-4.4-.01-.565.226-.893.78-1.026 1.271-.308 2.543-.626 3.815-.944.584-.143 1.066.195 1.087.82.02.903-.01 1.806.01 2.719.01.297-.174.328-.369.38-1.108.307-1.487.779-1.497 1.927-.01 1.641-.01 3.283.01 4.913 0 .328-.082.472-.42.544-.729.143-1.447.359-2.175.533-.79.185-1.22-.154-1.22-.954-.021-1.507-.021-3.015-.021-4.512Zm-8.985.05c0-1.486.01-2.974-.01-4.46-.01-.596.277-.914.841-1.047 1.241-.297 2.482-.595 3.723-.902.646-.154 1.128.174 1.16.84.03.872 0 1.744.01 2.616.01.338-.237.328-.442.38-1.374.358-1.692.748-1.692 2.184 0 1.59-.01 3.18.01 4.77 0 .348-.123.481-.43.543-.667.154-1.313.338-1.98.492-.749.175-1.19-.184-1.19-.964v-4.451Z" fill="#8036FD"/><path d="M13.65 14.328c0-1.508.01-3.005 0-4.513 0-.513.247-.79.729-.913.861-.215 1.733-.4 2.585-.646.43-.123.533.01.523.431-.01 2.072-.01 4.133-.01 6.205 0 1.262.358 1.723 1.569 2 .092.02.205.062.246.134.348.646-.103 1.65-.81 1.835-1.19.308-2.38.616-3.57.893-.882.205-1.251-.113-1.251-1.026-.01-1.467-.01-2.933-.01-4.4Zm-9.22 0c0-1.415.03-2.84-.01-4.256-.02-.718.287-1.077.954-1.22a59.415 59.415 0 0 0 2.236-.565c.461-.123.666-.03.656.513-.03 2.082-.01 4.174-.01 6.256 0 1.088.451 1.631 1.528 1.826.195.03.338.082.318.308-.051.553.246 1.312-.482 1.528a44.21 44.21 0 0 1-4.318 1.067c-.656.123-.872-.41-.872-.985v-4.472Z" fill="#09FAD9"/></svg>