<svg width="24" height="24" fill="none" xmlns="http://www.w3.org/2000/svg"><path fill-rule="evenodd" clip-rule="evenodd" d="M24 12c0 6.627-5.373 12-12 12S0 18.627 0 12 5.373 0 12 0s12 5.373 12 12Z" fill="#2E344F"/><path fill-rule="evenodd" clip-rule="evenodd" d="m19.2 19.295-1.234-1.234-.28.253a8.476 8.476 0 0 1-5.682 2.18c-4.683 0-8.494-3.81-8.494-8.494 0-4.683 3.81-8.494 8.494-8.494 2.103 0 4.12.775 5.682 2.18l.28.253 1.233-1.233A10.222 10.222 0 0 1 22.254 12c0 2.851-1.17 5.434-3.055 7.295ZM1.745 12c0-5.654 4.6-10.254 10.254-10.254 2.517 0 4.825.912 6.611 2.423l-.68.679a9.27 9.27 0 0 0-5.927-2.137c-5.122 0-9.29 4.167-9.29 9.29 0 5.121 4.168 9.289 9.29 9.289a9.27 9.27 0 0 0 5.928-2.138l.68.68A10.208 10.208 0 0 1 12 22.254c-5.654 0-10.254-4.6-10.254-10.254ZM12 1.083C5.98 1.083 1.083 5.98 1.083 12S5.98 22.917 12 22.917 22.917 18.02 22.917 12 18.02 1.083 12 1.083Z" fill="#FFFFFE"/><path fill-rule="evenodd" clip-rule="evenodd" d="M12.294 18.386a6.324 6.324 0 0 0 3.862-1.528l.327-.28-1.586-1.585-.278.226a4.156 4.156 0 0 1-2.615.929 4.143 4.143 0 0 1-4.08-3.398l-.059-.326H5.611l.062.452a6.34 6.34 0 0 0 1.731 3.561 6.338 6.338 0 0 0 3.156 1.791v.67C7.336 18.223 4.96 15.337 4.96 12a7.053 7.053 0 0 1 7.514-7.03l.008 1.443.338.05c.899.13 1.748.48 2.481 1.016l-.467.467a4.957 4.957 0 0 0-2.83-.89 4.926 4.926 0 0 0-4.917 4.442l.791.08a4.133 4.133 0 0 1 4.127-3.726c.95 0 1.878.33 2.615.929l.278.226 1.586-1.585-.327-.28a6.372 6.372 0 0 0-2.883-1.408l-.008-1.482-.35-.04a7.932 7.932 0 0 0-.911-.053c-4.324 0-7.84 3.518-7.84 7.841a7.836 7.836 0 0 0 6.74 7.764l.451.064V17.57l-.328-.058a5.568 5.568 0 0 1-4.485-4.293h.671a4.939 4.939 0 0 0 7.62 2.835l.468.468a5.526 5.526 0 0 1-3.043 1.069l.036.795Z" fill="#FFFFFE"/><path fill-rule="evenodd" clip-rule="evenodd" d="M14.116 5.278c.943.296 1.799.78 2.545 1.438l.526-.597a7.788 7.788 0 0 0-2.832-1.6l-.239.759ZM12.262 19.04l.028.796a7.85 7.85 0 0 0 4.898-1.955l-.526-.597a7.052 7.052 0 0 1-4.4 1.757ZM11.507 5.627a6.39 6.39 0 0 0-5.874 5.88l.793.061c.208-2.725 2.419-4.938 5.142-5.148l-.061-.793Z" fill="#FFFFFE"/></svg>