<svg width="24" height="24" viewBox="0 0 24 24" fill="none" xmlns="http://www.w3.org/2000/svg">
<path d="M12 24C18.6274 24 24 18.6274 24 12C24 5.37258 18.6274 0 12 0C5.37258 0 0 5.37258 0 12C0 18.6274 5.37258 24 12 24Z" fill="#8E9495"/>
<path d="M5.71725 15.5333C5.54546 15.1629 5.41808 14.7734 5.33775 14.3731C5.29147 14.1622 5.26212 13.9481 5.25 13.7326H5.9205C5.93582 13.9058 5.96086 14.0781 5.9955 14.2486C6.06825 14.6003 6.17775 14.9498 6.32775 15.2686C6.72975 16.1206 7.34025 16.6066 8.22675 16.6066C8.91975 16.6066 9.45675 16.3291 9.83475 15.8401C10.1557 15.4268 10.3372 14.8786 10.3372 14.4181C10.3372 13.8278 10.1138 13.3928 9.6675 13.0246C9.3045 12.7246 8.88675 12.5146 8.02425 12.1561L7.872 12.0931C6.975 11.7218 6.561 11.5178 6.15825 11.1998C5.60175 10.7603 5.30625 10.2151 5.30625 9.5168C5.30625 8.68055 5.607 7.9718 6.1455 7.4708C6.65616 7.00336 7.32447 6.74595 8.01675 6.75005C8.97675 6.75005 9.7095 7.1498 10.197 7.8503V6.8978H12.363V16.4581H13.0065V13.7753C13.0054 13.7533 13.0054 13.7313 13.0065 13.7093L13.677 13.7318V13.7656C13.6902 13.9282 13.7127 14.09 13.7445 14.2501C13.8142 14.5988 13.9223 14.9491 14.0723 15.2678C14.472 16.1191 15.0833 16.6058 15.969 16.6058C16.662 16.6058 17.199 16.3283 17.577 15.8393C17.898 15.4261 18.0795 14.8778 18.0795 14.4173C18.0795 13.8271 17.856 13.3921 17.4097 13.0238C17.0467 12.7238 16.629 12.5138 15.7665 12.1553L15.6143 12.0923C14.7172 11.7211 14.3033 11.5171 13.9005 11.1991C13.344 10.7596 13.0485 10.2143 13.0485 9.51605C13.0485 8.6798 13.3492 7.97105 13.8878 7.47005C14.3985 7.00288 15.0668 6.74574 15.759 6.75005C16.719 6.75005 17.4518 7.1498 17.9393 7.8503V6.9383H18.6105V10.2548H17.9393C17.9393 9.5618 17.7803 8.8598 17.4675 8.34155C17.0985 7.7288 16.5435 7.3943 15.759 7.3943C15.2397 7.39053 14.738 7.58284 14.3542 7.9328C13.9493 8.3108 13.719 8.85155 13.719 9.51605C13.719 10.0111 13.9185 10.3786 14.3265 10.7011C14.664 10.9673 15.042 11.1533 15.8798 11.5006L16.032 11.5636C16.9567 11.9468 17.415 12.1786 17.847 12.5348C18.4372 13.0223 18.75 13.6328 18.75 14.4173C18.75 15.0143 18.5235 15.6968 18.1155 16.2248C17.6137 16.8721 16.881 17.2501 15.969 17.2501C15.3368 17.2501 14.7945 17.0581 14.349 16.7026C14.0824 16.4869 13.855 16.2269 13.677 15.9338V17.1023H11.6925V7.54205H10.8675V10.2548H10.197C10.197 9.5618 10.038 8.8598 9.72525 8.34155C9.35625 7.7288 8.80125 7.3943 8.01675 7.3943C7.4974 7.39053 6.99575 7.58284 6.612 7.9328C6.207 8.3108 5.97675 8.85155 5.97675 9.51605C5.97675 10.0111 6.17625 10.3786 6.58425 10.7011C6.92175 10.9673 7.29975 11.1533 8.1375 11.5006L8.28975 11.5636C9.2145 11.9468 9.67275 12.1786 10.1047 12.5348C10.695 13.0223 11.0078 13.6328 11.0078 14.4173C11.0078 15.0143 10.7813 15.6968 10.3733 16.2248C9.8715 16.8721 9.13875 17.2501 8.22675 17.2501C7.5945 17.2501 7.05225 17.0581 6.60675 16.7026C6.33344 16.4816 6.10115 16.2143 5.9205 15.9128V17.0618H5.25V13.7318H5.9205V15.9128C5.84595 15.7901 5.7781 15.6634 5.71725 15.5333Z" fill="white"/>
</svg>
