<svg width="24" height="24" viewBox="0 0 24 24" fill="none" xmlns="http://www.w3.org/2000/svg">
<path d="M11.6103 1.09229L1.91992 6.70341V17.9264L11.6103 23.5381L21.3007 17.9264V6.70341L11.6103 1.09229Z" fill="white"/>
<path d="M15.4275 19.1457H14.0532L12.4074 17.6259V16.8535L14.1146 15.2111V12.6194L16.3475 11.1617L18.8956 13.0851L15.4275 19.1457ZM9.72779 15.0525L9.98161 12.6105L9.15002 10.4327H14.0882L13.2742 12.6105L13.5105 15.0437L11.6103 15.0525H9.72779ZM10.8483 17.6259L9.20252 19.1634H7.81L4.32574 13.0851L6.88196 11.1794L9.14121 12.6194V15.2111L10.8483 16.8535V17.6259ZM7.78434 5.94403H15.4105L16.33 9.84372H6.89946L7.78434 5.94403ZM11.6103 1.09229L1.91992 6.70341V17.9264L11.6103 23.5381L21.3008 17.9264V6.70341L11.6103 1.09229Z" fill="#002D72"/>
<path style="mix-blend-mode:multiply" d="M15.4275 19.1457H14.0531L12.4073 17.6259V16.8534L14.1146 15.211V12.6193L16.3475 11.1617L18.8956 13.0851L15.4275 19.1457ZM11.6104 1.09229V5.9439H15.4105L16.33 9.84359H11.6104V10.4326H14.0883L13.2741 12.6105L13.5104 15.0437L11.6104 15.0525V23.5381L21.3007 17.9263V6.70328L11.6104 1.09229Z" fill="url(#paint0_linear)"/>
<path style="mix-blend-mode:multiply" d="M10.8485 17.6259L9.20265 19.1633H7.81013L4.32588 13.0851L6.88196 11.1793L9.14121 12.6193V15.211L10.8485 16.8534V17.6259ZM9.72779 15.0525L9.98161 12.6105L9.15015 10.4326H11.6104V9.84359H6.8996L7.78448 5.9439H11.6104V1.09229L1.91992 6.70328V17.9263L11.6104 23.5381V15.0525H9.72779Z" fill="url(#paint1_linear)"/>
<defs>
<linearGradient id="paint0_linear" x1="16.4556" y1="21.1167" x2="16.4556" y2="3.45837" gradientUnits="userSpaceOnUse">
<stop stop-color="#002D72"/>
<stop offset="1" stop-color="#002D72" stop-opacity="0"/>
</linearGradient>
<linearGradient id="paint1_linear" x1="6.7652" y1="21.1167" x2="6.7652" y2="3.45837" gradientUnits="userSpaceOnUse">
<stop stop-color="#002D72" stop-opacity="0"/>
<stop offset="1" stop-color="#002D72"/>
</linearGradient>
</defs>
</svg>
