<svg width="24" height="24" fill="none" xmlns="http://www.w3.org/2000/svg"><path d="M12 0C5.376 0 0 5.376 0 12s5.376 12 12 12 12-5.376 12-12S18.624 0 12 0Z" fill="#000E26"/><path d="M13.709 11.13c0-1.235-.742-1.649-1.474-1.649h-1.649v5.288h.955v-1.916l.497-.001.819 1.917h1.053l-.952-2.132c.464-.25.75-.731.75-1.507Zm-1.74.785h-.428v-1.506h.482c.345 0 .758.127.758.758 0 .63-.488.748-.811.748Zm-2.655.024c.199-.024.68-.37.7-1.01.016-.811-.336-1.447-1.373-1.447H7.056v5.287h1.566c.573 0 1.448-.31 1.583-1.288s-.382-1.4-.89-1.542Zm-1.322-1.53h.498c.387 0 .596.16.596.612 0 .453-.362.583-.601.583h-.493v-1.195Zm.586 3.42h-.586v-1.373h.592c.46 0 .71.183.71.703s-.433.67-.716.67Zm8.978-4.348H16.53l-.606 1.872-.669-1.872h-1.06l1.092 2.573-1.155 2.724h1.012l.685-1.92.748 1.92h1.052l-1.155-2.648 1.083-2.649Z" fill="#fff"/><path d="m20.98 13.954 1.062.613c.423-1.665.427-3.41.013-5.078l-1.075.621s-.74-.786-1.604-2.282c-.864-1.495-1.174-2.53-1.174-2.53l1.11-.641a10.355 10.355 0 0 0-4.44-2.616v1.335s-1.05.248-2.777.248-2.779-.249-2.779-.249V1.988a10.349 10.349 0 0 0-4.558 2.6l1.23.71s-.311 1.035-1.175 2.53C3.95 9.323 3.21 10.11 3.21 10.11l-1.241-.717a10.427 10.427 0 0 0 .015 5.27l1.226-.709s.741.787 1.605 2.282c.863 1.496 1.174 2.53 1.174 2.53l-1.188.686a10.348 10.348 0 0 0 4.516 2.559v-1.322s1.052-.249 2.779-.249c1.726 0 2.778.249 2.778.249v1.27a10.351 10.351 0 0 0 4.397-2.575l-1.068-.617s.311-1.035 1.174-2.53c.864-1.496 1.604-2.283 1.605-2.283ZM12 20.035a8.035 8.035 0 1 1 0-16.07 8.035 8.035 0 0 1 0 16.07Z" fill="#2FA5FF"/></svg>