<svg width="24" height="24" viewBox="0 0 24 24" fill="none" xmlns="http://www.w3.org/2000/svg">
<path d="M12 24C18.6274 24 24 18.6274 24 12C24 5.37258 18.6274 0 12 0C5.37258 0 0 5.37258 0 12C0 18.6274 5.37258 24 12 24Z" fill="#00D4D5"/>
<path d="M12.3896 3.75V7.84275L15.9431 5.799L12.3896 3.75Z" fill="white"/>
<path opacity="0.9" d="M15.9424 5.79883V9.89158L19.4951 7.84258L15.9424 5.79883Z" fill="white"/>
<path opacity="0.8" d="M12.3896 7.84277V11.9355L15.9431 9.89177L12.3896 7.84277ZM15.9431 9.89252V13.9845L19.4959 11.9355L15.9431 9.89252Z" fill="white"/>
<path opacity="0.8" d="M12.3896 11.9355V16.0283L15.9431 13.9845L12.3896 11.9355Z" fill="white"/>
<path d="M15.9424 13.9844V18.0771L19.4951 16.0281L15.9424 13.9844Z" fill="white"/>
<path opacity="0.4" d="M3.20508 7.70459V11.7973L6.75858 9.74834L3.20508 7.70459Z" fill="white"/>
<path opacity="0.2" d="M7.6875 9.22656V13.3193L11.235 11.2756L7.6875 9.22656Z" fill="white"/>
<path opacity="0.3" d="M5.05371 11.8149V15.9077L8.60646 13.8587L5.05371 11.8149Z" fill="white"/>
<path opacity="0.9" d="M7.39453 14.9033V18.9961L10.942 16.9471L7.39453 14.9033Z" fill="white"/>
<path opacity="0.7" d="M12.3604 16.665V20.7585L15.9079 18.7088L12.3604 16.665Z" fill="white"/>
<path opacity="0.9" d="M8.2793 7.20508V11.2986L11.8268 9.25483L8.2793 7.20508Z" fill="white"/>
<path opacity="0.8" d="M12.3894 3.75V7.84275L8.83594 5.799L12.3894 3.75Z" fill="white"/>
<path opacity="0.6" d="M8.27886 5.49023V9.58223L4.72461 7.53323L8.27886 5.49023Z" fill="white"/>
<path opacity="0.6" d="M11.8328 7.51514V11.6086L8.2793 9.55889L11.8328 7.51514Z" fill="white"/>
<path opacity="0.95" d="M7.67069 9.22656V13.3193L4.11719 11.2756L7.67069 9.22656Z" fill="white"/>
<path opacity="0.6" d="M12.3893 11.9355V16.0283L8.8418 13.9845L12.3893 11.9355Z" fill="white"/>
<path opacity="0.55" d="M5.0535 12.8887V16.9814L1.5 14.9317L5.0535 12.8887Z" fill="white"/>
<path d="M19.4951 7.84277V11.9355L15.9424 9.89177L19.4951 7.84277Z" fill="white"/>
<path opacity="0.95" d="M15.9431 9.89258V13.9846L12.3896 11.9356L15.9431 9.89258Z" fill="white"/>
<path opacity="0.9" d="M19.4951 11.9355V16.0283L15.9424 13.9845L19.4951 11.9355Z" fill="white"/>
<path opacity="0.7" d="M15.9431 13.9844V18.0771L12.3896 16.0281L15.9431 13.9844Z" fill="white"/>
<path opacity="0.4" d="M11.6026 15.6899V19.7827L8.0498 17.7389L11.6026 15.6899Z" fill="white"/>
<path d="M15.9431 5.79883V9.89158L12.3896 7.84258L15.9431 5.79883Z" fill="white"/>
</svg>
