<svg width="24" height="24" viewBox="0 0 24 24" fill="none" xmlns="http://www.w3.org/2000/svg">
<path d="M12.0391 22.9868C18.5461 22.9868 23.821 18.0783 23.821 12.0232C23.821 5.96816 18.5461 1.05957 12.0391 1.05957C5.53222 1.05957 0.257324 5.96816 0.257324 12.0232C0.257324 18.0783 5.53222 22.9868 12.0391 22.9868Z" fill="white"/>
<path d="M12 0C5.36883 0 0 5.36883 0 12C0 18.6312 5.36883 24 12 24C18.6312 24 24 18.6312 24 12C24 5.36883 18.6312 0 12 0ZM12.2416 22.3403C6.62338 22.3403 2.06493 17.7818 2.06493 12.1636C2.06493 6.54545 6.62338 1.98701 12.2416 1.98701C17.8597 1.98701 22.4182 6.54545 22.4182 12.1636C22.4182 17.7818 17.8597 22.3403 12.2416 22.3403Z" fill="#F6BE1D"/>
<path d="M12.2495 21.7402C17.5342 21.7402 21.8183 17.4561 21.8183 12.1714C21.8183 6.88665 17.5342 2.60254 12.2495 2.60254C6.96478 2.60254 2.68066 6.88665 2.68066 12.1714C2.68066 17.4561 6.96478 21.7402 12.2495 21.7402Z" fill="#F6BE1D"/>
<path d="M5.49375 17.7119C5.21323 16.0132 5.68855 14.6963 5.92232 14.073C6.70154 11.9924 8.16647 10.8002 8.89894 10.2937C10.0132 9.5223 11.1041 9.17944 11.821 9.0236C11.9613 8.99243 12.1093 8.95347 12.2496 8.91451C12.7795 8.75866 13.4574 8.54048 14.2366 8.25217C15.1795 7.90152 15.6859 7.71451 16.3249 7.35607C17.1898 6.87295 17.7665 6.38204 18.3119 5.91451C18.873 5.43139 19.5898 4.74567 20.3223 3.83398C20.221 4.5197 20.0028 5.50931 19.5197 6.6158C19.2158 7.29373 18.9431 7.9171 18.3743 8.57944C17.221 9.9275 15.6937 10.4652 15.0236 10.6989C14.9846 10.7145 15.0158 10.6989 13.3639 11.2444C13.1613 11.3067 12.2885 11.595 12.0937 11.6652C11.3457 11.9067 9.60024 12.5846 8.19764 14.3223C6.25738 16.7301 6.35868 19.434 6.40544 20.1041C6.08596 19.6132 5.67297 18.795 5.49375 17.7119ZM12.0392 14.182C12.9743 14.0885 13.8314 14.0885 14.5717 14.1275C15.0236 14.0885 15.8652 13.9405 16.621 13.3249C17.3846 12.7015 17.673 11.9301 17.9067 11.3145C18.2184 10.4807 18.2885 9.74827 18.2963 9.26516C18.047 9.50672 17.6652 9.83399 17.1509 10.1457C16.6756 10.4418 16.2859 10.5976 15.6937 10.8314C15.273 11.0028 14.7041 11.2132 14.0028 11.4158C12.6158 11.8444 11.5249 12.3353 10.7457 12.7405C9.88855 13.1768 9.22621 13.6054 8.79764 14.3846C8.68855 14.5872 8.61842 14.7587 8.57946 14.8833C9.51452 14.5872 10.6834 14.3145 12.0392 14.182ZM8.59505 16.7535C8.87556 16.7067 9.21842 16.6756 10.5821 16.8158C10.9405 16.8548 11.2756 16.8937 11.5717 16.9327C12.4756 17.0496 13.395 16.8859 14.1898 16.4262C14.4782 16.2626 14.7665 16.0522 15.0392 15.7717C15.5379 15.273 15.8028 14.7431 15.9509 14.3691C15.4989 14.447 14.9846 14.5171 14.4158 14.5405C14.073 14.5561 13.7457 14.5561 13.4418 14.5405C12.195 14.4937 11.1976 14.6807 10.5353 14.8522C9.42102 15.1405 8.08076 15.4833 7.41842 16.6288C7.26258 16.9015 7.17686 17.1587 7.13011 17.3301C7.71453 16.9717 8.22881 16.8158 8.59505 16.7535ZM7.46518 18.8574C7.57427 18.8418 7.68336 18.834 7.77686 18.8262C8.08076 18.8184 8.38466 18.8574 8.68076 18.9431C9.00803 19.0366 9.36647 19.1223 9.75608 19.1924C9.98985 19.2314 10.2158 19.2626 10.434 19.2859C10.7847 19.3249 11.1353 19.3015 11.4782 19.2236C11.7041 19.1691 11.9457 19.0833 12.195 18.9509C13.1924 18.4054 13.5509 17.4704 13.6366 17.221C13.4808 17.3457 13.2392 17.5093 12.9197 17.634C12.4678 17.8132 12.086 17.821 11.6885 17.8288C11.408 17.8366 11.0418 17.821 10.6054 17.7353C10.473 17.7119 10.3483 17.673 10.2236 17.6418C9.02362 17.3067 7.84699 17.5015 7.16128 18.2184C6.99764 18.3898 6.78725 18.6626 6.65479 19.0911C6.85738 19.0054 7.13011 18.9041 7.46518 18.8574Z" fill="#FDFFFA"/>
</svg>
