<svg width="24" height="24" viewBox="0 0 24 24" fill="none" xmlns="http://www.w3.org/2000/svg">
<g clip-path="url(#clip0)">
<path d="M4.94742 3.48599C6.93509 1.82868 9.5241 0.896373 12.1143 0.951536C15.2756 0.943049 18.3841 2.42456 20.4202 4.83414C24.378 9.48477 23.8149 16.4638 19.1648 20.4215C17.644 21.7152 15.8013 22.573 13.8323 22.9039C11.8633 23.2347 9.84146 23.0263 7.98136 22.3007C7.03814 21.9293 6.14902 21.4331 5.3378 20.8252C5.53056 19.374 6.24707 18.0047 7.29334 16.9851C8.4436 15.8594 9.96007 15.1845 11.5663 15.0835C11.9907 15.0441 12.415 15.0786 12.8423 15.0586C14.485 15.0175 16.1099 15.4057 17.5566 16.1849C17.7512 16.2874 18.0082 16.3965 18.0204 16.6529C18.0531 16.9814 17.7058 17.1227 17.5039 17.31C18.0313 17.2906 18.5229 17.0487 18.969 16.7844C19.3934 16.542 19.5195 15.8939 19.1764 15.5302C18.5932 14.8804 17.964 14.2754 17.3717 13.6329C17.2087 13.451 16.9826 13.2922 16.9365 13.0334C16.4159 11.0807 15.1693 9.40055 13.4516 8.33606C12.4047 7.6638 11.185 7.27766 9.94903 7.16249C7.29638 6.83818 4.6031 6.93517 1.96924 7.37283C2.63119 5.86647 3.68777 4.5462 4.94742 3.48599Z" fill="white"/>
<path d="M13.127 10.2261C13.3055 10.3548 13.4697 10.5023 13.6167 10.6662C14.1526 11.2008 14.6909 11.733 15.2225 12.2725C15.3364 12.3774 15.4381 12.4947 15.5256 12.6223C15.1074 12.6369 14.6891 12.632 14.2714 12.6223C14.0193 12.0767 13.7325 11.5457 13.4707 11.0038C13.35 10.7474 13.1973 10.5031 13.127 10.2261Z" fill="white"/>
<path d="M11.412 0.0144075C13.2053 -0.0735682 14.9954 0.242205 16.6504 0.93843C18.3053 1.63465 19.7828 2.69356 20.9739 4.03704C25.3724 8.98773 24.9244 16.5668 19.9731 20.9653C19.2477 21.6098 18.4467 22.1639 17.5878 22.6153C14.5902 24.2175 10.904 24.4339 7.73365 23.2142C5.75618 22.4603 4.01294 21.1975 2.68034 19.5534C1.34774 17.9093 0.473076 15.9424 0.144848 13.8517C-0.315245 10.9578 0.33034 7.90206 1.94461 5.45551C3.4268 3.18252 5.6337 1.4772 8.20708 0.616347C9.24364 0.273232 10.3216 0.0707789 11.412 0.0144075ZM4.94764 3.48602C3.68799 4.54623 2.63141 5.8665 1.96946 7.3765C4.60332 6.93884 7.2966 6.84185 9.94925 7.16615C11.1853 7.28133 12.4049 7.66747 13.4518 8.33973C15.1696 9.40421 16.4161 11.0844 16.9367 13.037C16.9828 13.2959 17.2089 13.4517 17.372 13.6366C17.963 14.2791 18.5934 14.8841 19.1766 15.5339C19.5197 15.8976 19.396 16.545 18.9693 16.7881C18.5231 17.0524 18.0315 17.2943 17.5041 17.3137C17.706 17.1263 18.0533 16.9851 18.0206 16.6566C18.0085 16.4001 17.7514 16.2928 17.5568 16.1886C16.1103 15.4083 14.485 15.0192 12.842 15.0599C12.4176 15.0799 11.9933 15.0453 11.569 15.0847C9.96272 15.1858 8.44625 15.8606 7.29599 16.9863C6.24972 18.0047 5.53321 19.3753 5.34044 20.8265C6.15166 21.4343 7.04079 21.9306 7.98401 22.3019C13.6749 24.5187 20.0858 21.7018 22.302 16.0104C23.0263 14.1512 23.234 12.1308 22.9032 10.1632C22.5723 8.19562 21.7153 6.35421 20.4229 4.83417C18.3867 2.42398 15.2776 0.94308 12.1182 0.954597C9.52796 0.899435 6.93895 1.83174 4.95127 3.48905L4.94764 3.48602ZM13.1287 10.2292C13.199 10.5062 13.3518 10.7505 13.4736 11.0063C13.7355 11.5483 14.0192 12.0781 14.2744 12.6248C14.692 12.6351 15.1103 12.64 15.5286 12.6248C15.441 12.4972 15.3393 12.3799 15.2255 12.2751C14.6938 11.7356 14.1556 11.2033 13.6197 10.6687C13.4719 10.5037 13.3067 10.3554 13.1269 10.2262L13.1287 10.2292Z" fill="#333333"/>
</g>
<defs>
<clipPath id="clip0">
<rect width="24" height="23.9951" fill="white"/>
</clipPath>
</defs>
</svg>
