<svg width="24" height="24" fill="none" xmlns="http://www.w3.org/2000/svg"><path d="M16.95 8.952a.445.445 0 0 1-.314.132H5.488c-.393 0-.592-.48-.319-.766l1.829-1.893a.447.447 0 0 1 .32-.137h11.188c.396 0 .595.485.314.77l-1.87 1.894Zm0 8.463a.453.453 0 0 1-.314.13H5.488a.44.44 0 0 1-.319-.747l1.829-1.848a.452.452 0 0 1 .32-.132h11.188a.44.44 0 0 1 .314.75l-1.87 1.847Zm-.314-6.862c.118 0 .23.045.315.13l1.87 1.848c.28.275.08.75-.315.75H7.317a.452.452 0 0 1-.32-.131L5.17 11.302a.438.438 0 0 1 .32-.747l11.147-.002Z" fill="#00FFAD"/><path d="M12 0c6.626 0 12 5.374 12 12s-5.374 12-12 12S0 18.626 0 12 5.374 0 12 0Z" fill="#000"/><path fill-rule="evenodd" clip-rule="evenodd" d="M5.549 10.855h11.105c.139 0 .27.055.367.154l1.757 1.768a.518.518 0 0 1-.367.884H7.305a.512.512 0 0 1-.367-.154l-1.757-1.769a.518.518 0 0 1 .367-.883ZM5.182 8.51l1.757-1.769a.52.52 0 0 1 .367-.153h11.102c.46 0 .694.557.367.883L17.021 9.24a.52.52 0 0 1-.367.153H5.549a.518.518 0 0 1-.367-.883Zm13.593 7.496-1.756 1.768a.52.52 0 0 1-.368.154H5.55a.518.518 0 0 1-.367-.883l1.757-1.77a.52.52 0 0 1 .367-.153h11.102c.46 0 .694.557.367.884Z" fill="url(#a)"/><defs><linearGradient id="a" x1="5.821" y1="18.416" x2="18.136" y2="6.1" gradientUnits="userSpaceOnUse"><stop stop-color="#CB4EE8"/><stop offset="1" stop-color="#10F4B1"/></linearGradient></defs></svg>