<svg width="24" height="24" viewBox="0 0 24 24" fill="none" xmlns="http://www.w3.org/2000/svg">
<path opacity="0.2" d="M3.15549 19.996L4.49232 24L13.6688 12L4.49232 0L3.09033 3.9171L9.1859 11.9978L3.15549 19.996Z" fill="#FF564F"/>
<path d="M22.716 23.9978H18.3613L9.18262 11.9978L18.3613 0H22.716L13.6666 11.9978L22.716 23.9978Z" fill="#F08179"/>
<path d="M1 0H4.49032V23.9978H1V0Z" fill="#FF564F"/>
<path d="M22.7195 23.9978H18.3647L9.18604 11.9978L18.3647 0H22.7195L13.67 11.9978L22.7195 23.9978Z" fill="#FF564F"/>
<path d="M22.7195 23.9978H18.3647L9.18604 11.9978L18.3647 0H22.7195L13.67 11.9978L22.7195 23.9978Z" fill="#FF564F"/>
<path d="M22.7195 23.9978H18.3647L9.18604 11.9978L18.3647 0H22.7195L13.67 11.9978L22.7195 23.9978Z" fill="#FF564F"/>
<path d="M22.7195 23.9978H18.3647L9.18604 11.9978L18.3647 0H22.7195L13.67 11.9978L22.7195 23.9978Z" fill="#FF564F"/>
</svg>
