<svg width="24" height="24" fill="none" xmlns="http://www.w3.org/2000/svg"><g clip-path="url(#a)"><path d="M0 0h23.823v24H0V0Z" fill="#121747"/><path d="M14.093 19.235a2.176 2.176 0 1 1-4.353 0V4.77a2.176 2.176 0 0 1 4.353 0" fill="#fff"/><path d="M21.423 13.497a2.176 2.176 0 0 1-4.353 0v-5.49a2.176 2.176 0 0 1 4.353 0" fill="#52DEB8"/><path d="M6.765 19.242a2.168 2.168 0 1 1-4.337.071V15.99a2.168 2.168 0 1 1 4.337-.072v.072" fill="#fff"/></g><defs><clipPath id="a"><path fill="#fff" d="M0 0h23.823v24H0z"/></clipPath></defs></svg>