<svg width="24" height="24" fill="none" xmlns="http://www.w3.org/2000/svg"><path d="M11.994 23.988C5.374 23.988 0 18.615 0 11.994 0 5.374 5.373 0 11.994 0c3.31 0 6.314 1.343 8.482 3.512L18.48 5.508a9.145 9.145 0 0 0-6.486-2.687 9.173 9.173 0 0 0-9.173 9.173 9.173 9.173 0 0 0 9.173 9.173c4.587 0 8.377-3.368 9.048-7.763h-9.048v-2.82h11.908c.058.467.086.939.086 1.41 0 6.62-5.373 11.994-11.994 11.994Z" fill="url(#a)"/><defs><linearGradient id="a" x1="0" y1="0" x2="0" y2="23.988" gradientUnits="userSpaceOnUse"><stop stop-color="#39ADFF"/><stop offset="1" stop-color="#1B67DE"/></linearGradient></defs></svg>