<svg width="24" height="24" viewBox="0 0 24 24" fill="none" xmlns="http://www.w3.org/2000/svg">
<path d="M12 24C18.6274 24 24 18.6274 24 12C24 5.37258 18.6274 0 12 0C5.37258 0 0 5.37258 0 12C0 18.6274 5.37258 24 12 24Z" fill="black"/>
<path d="M21.3033 13.2863C21.0108 13.6789 20.5743 13.9393 20.0898 14.0101C19.6053 14.081 19.1125 13.9566 18.7197 13.6643C18.3271 13.3717 18.0667 12.9352 17.9958 12.4507C17.925 11.9662 18.0494 11.4734 18.3417 11.0806C18.6343 10.688 19.0708 10.4276 19.5553 10.3568C20.0397 10.2859 20.5325 10.4103 20.9253 10.7026C21.069 10.8096 21.1963 10.937 21.3033 11.0806L21.8229 10.7086C21.4318 10.1768 20.8455 9.8221 20.193 9.72241C19.5404 9.62273 18.875 9.78625 18.3429 10.177C17.8111 10.5681 17.4564 11.1544 17.3567 11.807C17.257 12.4596 17.4205 13.125 17.8113 13.6571C18.2024 14.1889 18.7887 14.5436 19.4413 14.6433C20.0938 14.743 20.7593 14.5794 21.2913 14.1887C21.4944 14.0394 21.6736 13.8601 21.8229 13.6571L21.3033 13.2863Z" fill="white"/>
<path d="M15.0749 9.31543L14.7149 10.0642L12.5801 14.671H13.2761L13.7693 13.6042H16.3661L16.8605 14.671H17.5601L15.4241 10.0642L15.0749 9.31543ZM14.0729 12.9706L15.0749 10.8106L16.0745 12.9706H14.0729Z" fill="white"/>
<path d="M4.70883 12.1881L2.91003 10.3893L2.86083 10.3401L2.22363 9.70166V9.70286V10.6065V14.6697H2.86083V11.2437L4.25763 12.6405L4.70883 13.0917L5.15883 12.6405L6.55564 11.2437V14.6697H7.19284V10.6065V9.70286L6.55564 10.3401L4.70883 12.1881Z" fill="white"/>
<path d="M10.3142 9.70312C9.65383 9.70312 9.02049 9.96546 8.55352 10.4324C8.08656 10.8994 7.82422 11.5327 7.82422 12.1931C7.82422 12.8535 8.08656 13.4869 8.55352 13.9538C9.02049 14.4208 9.65383 14.6831 10.3142 14.6831C10.9746 14.6831 11.608 14.4208 12.0749 13.9538C12.5419 13.4869 12.8042 12.8535 12.8042 12.1931C12.8042 11.5327 12.5419 10.8994 12.0749 10.4324C11.608 9.96546 10.9746 9.70312 10.3142 9.70312ZM10.3142 14.0351C10.0714 14.0354 9.83097 13.9879 9.60656 13.8953C9.38215 13.8026 9.1782 13.6666 9.00636 13.4951C8.83452 13.3236 8.69816 13.1199 8.60506 12.8957C8.51197 12.6715 8.46398 12.4311 8.46382 12.1883C8.46351 11.9455 8.51103 11.7051 8.60368 11.4807C8.69634 11.2563 8.83231 11.0523 9.00381 10.8805C9.17532 10.7086 9.37901 10.5723 9.60324 10.4792C9.82746 10.3861 10.0678 10.3381 10.3106 10.3379C10.5533 10.3378 10.7936 10.3854 11.0179 10.4781C11.2422 10.5709 11.446 10.7069 11.6177 10.8783C11.7894 11.0498 11.9257 11.2535 12.0187 11.4776C12.1117 11.7018 12.1597 11.942 12.1598 12.1847C12.1608 12.4278 12.1137 12.6687 12.0215 12.8936C11.9292 13.1185 11.7934 13.3229 11.622 13.4953C11.4505 13.6676 11.2467 13.8044 11.0223 13.8979C10.7979 13.9913 10.5573 14.0396 10.3142 14.0399V14.0351Z" fill="white"/>
<path d="M11.3662 11.3051C11.4616 11.3051 11.539 11.2277 11.539 11.1323C11.539 11.0368 11.4616 10.9595 11.3662 10.9595C11.2707 10.9595 11.1934 11.0368 11.1934 11.1323C11.1934 11.2277 11.2707 11.3051 11.3662 11.3051Z" fill="white"/>
<path d="M11.3662 13.4086C11.4616 13.4086 11.539 13.3312 11.539 13.2358C11.539 13.1404 11.4616 13.063 11.3662 13.063C11.2707 13.063 11.1934 13.1404 11.1934 13.2358C11.1934 13.3312 11.2707 13.4086 11.3662 13.4086Z" fill="white"/>
<path d="M9.26167 11.3051C9.3571 11.3051 9.43447 11.2277 9.43447 11.1323C9.43447 11.0368 9.3571 10.9595 9.26167 10.9595C9.16623 10.9595 9.08887 11.0368 9.08887 11.1323C9.08887 11.2277 9.16623 11.3051 9.26167 11.3051Z" fill="white"/>
<path d="M8.82393 12.2724C8.87231 12.2724 8.91153 12.2332 8.91153 12.1848C8.91153 12.1364 8.87231 12.0972 8.82393 12.0972C8.77555 12.0972 8.73633 12.1364 8.73633 12.1848C8.73633 12.2332 8.77555 12.2724 8.82393 12.2724Z" fill="white"/>
<path d="M10.3142 13.7651C10.3625 13.7651 10.4018 13.7258 10.4018 13.6774C10.4018 13.6291 10.3625 13.5898 10.3142 13.5898C10.2658 13.5898 10.2266 13.6291 10.2266 13.6774C10.2266 13.7258 10.2658 13.7651 10.3142 13.7651Z" fill="white"/>
<path d="M11.8034 12.2724C11.8518 12.2724 11.891 12.2332 11.891 12.1848C11.891 12.1364 11.8518 12.0972 11.8034 12.0972C11.755 12.0972 11.7158 12.1364 11.7158 12.1848C11.7158 12.2332 11.755 12.2724 11.8034 12.2724Z" fill="white"/>
<path d="M10.3142 10.7856C10.3625 10.7856 10.4018 10.7463 10.4018 10.698C10.4018 10.6496 10.3625 10.6104 10.3142 10.6104C10.2658 10.6104 10.2266 10.6496 10.2266 10.698C10.2266 10.7463 10.2658 10.7856 10.3142 10.7856Z" fill="white"/>
<path d="M10.3142 11.2196C10.3625 11.2196 10.4018 11.1804 10.4018 11.132C10.4018 11.0837 10.3625 11.0444 10.3142 11.0444C10.2658 11.0444 10.2266 11.0837 10.2266 11.132C10.2266 11.1804 10.2658 11.2196 10.3142 11.2196Z" fill="white"/>
<path d="M9.26167 13.4086C9.3571 13.4086 9.43447 13.3312 9.43447 13.2358C9.43447 13.1404 9.3571 13.063 9.26167 13.063C9.16623 13.063 9.08887 13.1404 9.08887 13.2358C9.08887 13.3312 9.16623 13.4086 9.26167 13.4086Z" fill="white"/>
<path d="M10.3144 13.4086C10.4098 13.4086 10.4872 13.3312 10.4872 13.2358C10.4872 13.1404 10.4098 13.063 10.3144 13.063C10.219 13.063 10.1416 13.1404 10.1416 13.2358C10.1416 13.3312 10.219 13.4086 10.3144 13.4086Z" fill="white"/>
<path d="M11.3976 11.1323H11.334V13.2371H11.3976V11.1323Z" fill="white"/>
<path d="M11.3665 11.1216H9.26172V11.1432H11.3665V11.1216Z" fill="white"/>
<path d="M10.3269 11.1276L10.3076 11.1372L11.3582 13.2415L11.3775 13.2319L10.3269 11.1276Z" fill="white"/>
<path d="M10.3055 11.1273L9.25293 13.2319L9.27225 13.2416L10.3248 11.1369L10.3055 11.1273Z" fill="white"/>
<path d="M9.29309 11.1323H9.22949V13.2371H9.29309V11.1323Z" fill="white"/>
<path d="M11.3665 13.2251H9.26172V13.2467H11.3665V13.2251Z" fill="white"/>
<path d="M9.29126 11.119L9.23438 11.1475L10.2869 13.2521L10.3438 13.2237L9.29126 11.119Z" fill="white"/>
<path d="M11.3387 11.118L10.2861 13.2227L10.343 13.2511L11.3956 11.1464L11.3387 11.118Z" fill="white"/>
<path d="M9.25053 11.1293L8.81445 12.1826L8.83441 12.1909L9.27049 11.1376L9.25053 11.1293Z" fill="white"/>
<path d="M9.25223 13.242L8.81543 12.1908L8.83463 12.1812L9.27263 13.2324L9.25223 13.242Z" fill="white"/>
<path d="M10.3253 13.2358H10.3037V13.6751H10.3253V13.2358Z" fill="white"/>
<path d="M10.3253 10.6943H10.3037V11.1335H10.3253V10.6943Z" fill="white"/>
<path d="M10.311 10.6865L9.25879 11.1221L9.26705 11.142L10.3192 10.7064L10.311 10.6865Z" fill="white"/>
<path d="M10.3169 10.6876L10.3086 10.7075L11.3619 11.1436L11.3702 11.1236L10.3169 10.6876Z" fill="white"/>
<path d="M11.3764 11.128L11.3564 11.1362L11.7929 12.1894L11.8128 12.1811L11.3764 11.128Z" fill="white"/>
<path d="M11.7925 12.1813L11.3555 13.2368L11.3754 13.2451L11.8124 12.1896L11.7925 12.1813Z" fill="white"/>
<path d="M11.3644 13.229L10.3086 13.6685L10.3169 13.6884L11.3727 13.2489L11.3644 13.229Z" fill="white"/>
<path d="M10.3097 13.6859L9.25488 13.2467L9.26208 13.2275L10.3181 13.6667L10.3097 13.6859Z" fill="white"/>
</svg>
