<svg width="24" height="24" viewBox="0 0 24 24" fill="none" xmlns="http://www.w3.org/2000/svg">
<path d="M23.9841 12.0038C23.9841 18.5983 18.6384 23.9441 12.0438 23.9441C5.44943 23.9441 0.103516 18.5983 0.103516 12.0038C0.103516 5.40927 5.44943 0.0634766 12.0438 0.0634766C18.6384 0.0634766 23.9841 5.40927 23.9841 12.0038Z" fill="#008EBD"/>
<path d="M16.9118 12.616H15.1725L11.5455 10.2068C11.5213 10.1907 11.4955 10.1793 11.47 10.1669C11.4667 10.1651 11.4634 10.1634 11.4601 10.1616C11.447 10.1554 11.4342 10.148 11.4208 10.1428C11.3373 10.1053 11.2468 10.0859 11.1553 10.0859H10.1328C9.77239 10.0859 9.48018 10.3781 9.48018 10.7386C9.48018 11.099 9.77239 11.3913 10.1328 11.3913H10.9695L14.6101 13.8095C14.7276 13.8871 14.8673 13.9243 15.0078 13.9153C15.0354 13.9189 15.0636 13.9214 15.0922 13.9214H16.9119C17.1472 13.9246 17.366 13.8009 17.4846 13.5976C17.6032 13.3944 17.6032 13.143 17.4846 12.9398C17.366 12.7365 17.1472 12.6128 16.9119 12.616H16.9118ZM11.3604 12.616H10.2903L6.73427 10.2538C6.61484 10.1457 6.45945 10.0858 6.29833 10.0859H5.27588C4.91543 10.0859 4.62323 10.3781 4.62323 10.7386C4.62323 11.099 4.91543 11.3913 5.27588 11.3913H6.08746L9.644 13.7536C9.76339 13.8616 9.91862 13.9214 10.0796 13.9214H11.3604C11.7175 13.9166 12.0044 13.6258 12.0044 13.2687C12.0044 12.9116 11.7175 12.6208 11.3604 12.616ZM19.3863 10.4275C19.2722 10.217 19.0519 10.0858 18.8124 10.0859H15.1109C14.7504 10.0859 14.4582 10.3781 14.4582 10.7386C14.4582 11.099 14.7504 11.3913 15.1109 11.3913H18.1598V11.9373C18.1598 12.2977 18.452 12.5899 18.8125 12.5899C19.1729 12.5899 19.4651 12.2977 19.4651 11.9373V10.7385C19.4651 10.626 19.4365 10.52 19.3863 10.4275ZM6.39576 12.616H5.27576C4.91528 12.616 4.62305 12.9082 4.62305 13.2687C4.62305 13.6292 4.91528 13.9214 5.27576 13.9214H6.39576C6.75281 13.9166 7.03971 13.6258 7.03971 13.2687C7.03971 12.9116 6.75281 12.6208 6.39576 12.616Z" fill="white"/>
</svg>
