<svg width="24" height="24" viewBox="0 0 24 24" fill="none" xmlns="http://www.w3.org/2000/svg">
<path d="M12 0C5.37049 0 0 5.37049 0 12C0 18.6295 5.37049 24 12 24C18.6295 24 24 18.6295 24 12C24 5.37049 18.6295 0 12 0Z" fill="#0B223D"/>
<path d="M12.5314 17.1149C11.8035 17.1149 11.1347 16.9772 10.4855 16.7215C9.83631 16.4657 9.26582 16.0526 8.79369 15.5018C8.30188 14.951 7.96746 14.3018 7.77074 13.5346H6.55106L6.57074 12.7674H7.61336C7.59369 12.5116 7.57401 12.2756 7.57401 12.0001C7.57401 11.7838 7.59369 11.5674 7.59369 11.3313H6.51172L6.53139 10.5247H7.71172C7.82975 10.0329 8.0068 9.60015 8.22319 9.20671C8.45926 8.81326 8.715 8.43949 9.02975 8.16408C9.32483 7.869 9.65926 7.63294 10.033 7.43621C10.4068 7.23949 10.7806 7.08212 11.174 7.00343C11.5675 6.92474 11.9609 6.86572 12.374 6.86572C13.6724 6.86572 14.774 7.21982 15.6789 7.92802L15.0101 9.12802C14.2429 8.59687 13.4166 8.34113 12.5117 8.34113C11.8625 8.34113 11.2724 8.53785 10.7412 8.91162C10.2101 9.30507 9.83631 9.83621 9.60024 10.5247H12.7871L12.7478 11.3313H9.44287C9.42319 11.5477 9.40352 11.7444 9.40352 11.9608C9.40352 12.2362 9.4232 12.492 9.46254 12.728H12.5511L12.5117 13.4952H9.65926C9.915 14.1444 10.2888 14.6559 10.8396 15.0297C11.3904 15.4034 11.9806 15.5805 12.6691 15.5805C13.6527 15.5805 14.5773 15.2461 15.4035 14.5772L15.974 15.9346C15.0101 16.7411 13.8691 17.1149 12.5314 17.1149Z" fill="white"/>
</svg>
