<svg width="24" height="24" fill="none" xmlns="http://www.w3.org/2000/svg"><g clip-path="url(#a)"><path d="M22.476 1.433H1.523v20.952h20.953V1.433Z" fill="#fff"/><path d="M8.625 14.773h2.24c.64 0 1.273-.144 1.851-.419a4.634 4.634 0 0 0 1.44-1.105c.4-.476.71-1.02.915-1.607a5.29 5.29 0 0 0 .335-1.86 4.617 4.617 0 0 0-.358-1.797 5.569 5.569 0 0 0-.968-1.578 4.824 4.824 0 0 0-1.47-1.135 3.977 3.977 0 0 0-1.86-.442H4.855v14.316h3.809l-.038-4.373Zm0-6.484h1.905c.266.017.515.138.693.336.273.341.401.776.358 1.211.046.416-.071.834-.327 1.166a.853.853 0 0 1-.64.335h-1.99V8.289Z" fill="#2D8EFF"/><path d="M0 1.38V22.62A1.379 1.379 0 0 0 1.38 24H22.62A1.38 1.38 0 0 0 24 22.621V1.379A1.38 1.38 0 0 0 22.621 0H1.379A1.379 1.379 0 0 0 0 1.38Zm19.81 19.809H4.175a1.38 1.38 0 0 1-1.379-1.38V4.175a1.38 1.38 0 0 1 1.38-1.379H19.81a1.38 1.38 0 0 1 1.379 1.38V19.81a1.379 1.379 0 0 1-1.38 1.363v.016Z" fill="#2D8EFF"/><path d="M19.14 16.457h-8.831v2.712h8.83v-2.712Z" fill="#2D8EFF"/></g><defs><clipPath id="a"><path fill="#fff" d="M0 0h24v24H0z"/></clipPath></defs></svg>