<svg width="24" height="24" viewBox="0 0 24 24" fill="none" xmlns="http://www.w3.org/2000/svg">
<path d="M12 24C18.6274 24 24 18.6274 24 12C24 5.37258 18.6274 0 12 0C5.37258 0 0 5.37258 0 12C0 18.6274 5.37258 24 12 24Z" fill="#00AFEC"/>
<path d="M15.2295 8.87121C15.2663 8.81196 15.2993 8.73321 15.333 8.66571C16.0968 7.3132 16.4988 5.7865 16.5 4.23321C15.4238 3.61221 14.2875 3.22071 13.0515 3.08496C13.509 5.08146 14.157 7.01496 15.0938 8.83671L15.2295 8.87121ZM9.0585 8.52996L9.02475 8.52246L8.76225 8.46246V8.45796H8.7585L8.99475 7.42821C9.1695 7.46571 9.34425 7.50696 9.51825 7.54971H9.522C10.159 6.11271 10.6555 4.61751 11.0048 3.08496C9.394 3.26284 7.86136 3.87314 6.56925 4.85121V4.85421C5.48509 5.67519 4.60081 6.7309 3.98267 7.94223C3.36454 9.15356 3.02859 10.4891 3 11.8487V12.0287C3.96067 12.5808 5.01385 12.9534 6.108 13.1282L6.11325 13.123C7.26147 11.7051 8.24994 10.1651 9.06075 8.53071H9.0585V8.52996ZM14.6925 10.0487C14.8898 10.1537 14.9633 10.3037 15.057 10.5977C15.1868 11.0417 15.099 11.509 15.0068 11.9477L16.095 12.2005L16.365 11.0282C17.4638 12.7195 18.6825 14.4662 20.1623 15.8372C19.8938 16.447 19.7273 16.66 19.332 17.1955C16.9095 16.45 14.3295 16.0547 11.7945 16.0795L12.0113 15.2132L11.2882 15.0445C11.1758 15.016 11.061 14.9657 10.9935 14.8667C10.9088 14.7542 10.9088 14.6057 10.9373 14.473L11.3895 12.5065C11.6235 12.5627 11.868 12.5995 12.087 12.7037C12.1895 12.7449 12.2808 12.8095 12.3537 12.8925C12.4265 12.9755 12.4788 13.0745 12.5063 13.1815C12.5655 13.48 12.4388 13.7665 12.3878 14.0537L13.3613 14.2787L14.1728 10.7627L14.0903 10.735L14.0265 10.723C14.2515 10.4867 14.448 10.2767 14.6513 10.0202L14.6933 10.0487H14.6925ZM6.1365 13.354L6.15975 13.3217C6.34875 13.3637 6.49425 13.348 6.68775 13.3682C7.38 13.4297 8.052 13.4432 8.74125 13.3457C8.79375 13.3382 8.84775 13.333 8.901 13.3307L8.74125 13.9442C8.71275 14.0657 8.6595 14.1917 8.55525 14.2682C8.50371 14.3024 8.44564 14.3255 8.3847 14.3361C8.32377 14.3467 8.2613 14.3445 8.20125 14.3297C7.95375 14.2795 7.70625 14.212 7.45575 14.164C7.38 14.5067 7.29825 14.8502 7.2195 15.1907L8.8815 15.5755C8.814 15.8852 8.7975 15.9692 8.727 16.276C7.34349 16.4657 5.97704 16.7639 4.64025 17.1677C4.2465 16.633 4.07775 16.504 3.81375 15.8935C4.65525 15.1135 5.41275 14.2457 6.1365 13.354ZM9.99525 15.832L10.662 15.9865L10.6395 16.1185L9.92775 16.1695L9.99525 15.832ZM8.766 13.1477C8.81774 13.1406 8.86981 13.1361 8.922 13.1342V13.1312L9.78 9.41871C9.81375 9.24996 9.88125 9.08121 9.828 8.91246C9.8074 8.85195 9.77314 8.79701 9.72788 8.75187C9.68261 8.70674 9.62757 8.67264 9.567 8.65221L9.53925 8.64321C9.39675 8.60496 9.50625 8.63196 9.3615 8.59821C9.34575 8.59446 9.27375 8.61846 9.25725 8.61546C8.45543 10.2308 7.47641 11.7519 6.33825 13.1507C6.5265 13.1905 6.49575 13.1792 6.684 13.1987C7.37775 13.2625 8.076 13.2452 8.76525 13.1485L8.766 13.1477Z" fill="white"/>
<path d="M10.6725 7.8129V7.8159C10.8045 7.25865 10.9283 6.69915 11.0633 6.14265L12.1718 6.39765L11.7863 8.07165L12.45 8.22615C12.516 7.9479 12.5813 7.6689 12.645 7.3899L12.7418 6.9714L12.8385 6.5529L13.9463 6.80565C13.9313 6.88065 13.9148 6.95565 13.8983 7.03065C13.791 7.5159 13.6718 7.99665 13.5645 8.4834L14.8403 8.7804C13.9035 6.9579 13.2833 5.0529 12.8265 3.0564C12.54 3.02265 12.4193 3.0339 12.129 3.02865H11.952C11.634 3.02865 11.5163 3.0204 11.2043 3.0564C10.8533 4.58865 10.4393 6.1959 9.80176 7.6329L10.6725 7.8129ZM12.1433 9.24465L12.177 9.25215L12.1808 9.24465H12.1433Z" fill="white"/>
<path d="M12.1462 9.24381L11.6318 11.4743C11.9513 11.5448 12.2842 11.6618 12.6127 11.5696C12.7183 11.5363 12.8141 11.4776 12.8917 11.3986C12.9693 11.3196 13.0262 11.2227 13.0575 11.1166C13.119 10.9193 13.1497 10.7168 13.2037 10.5203L13.7467 10.6583C13.7708 10.6621 13.743 10.6763 13.7587 10.6606L13.7723 10.6501C13.9973 10.4086 14.2523 10.1438 14.4548 9.88806C14.1226 9.72191 13.7686 9.60349 13.4032 9.53631L12.1462 9.24381ZM20.2238 8.36706C19.4475 6.63156 18.3412 5.32506 16.6965 4.37256C16.695 5.92656 16.3215 7.31331 15.558 8.66706C15.5117 8.75176 15.4694 8.83861 15.4313 8.92731C15.9458 9.03981 16.2668 9.10881 16.7812 9.22431V9.22956L16.4498 10.7198C17.5463 12.4103 18.7695 14.2718 20.2463 15.6443C20.7173 14.5703 20.9737 13.4146 21 12.2416V11.8193C20.9713 10.6284 20.7075 9.45492 20.2238 8.36631V8.36706ZM3 12.2251V12.3548C3.01725 13.5541 3.27375 14.5403 3.75375 15.6398C4.55005 14.9052 5.28989 14.1118 5.967 13.2661C4.87575 13.0921 3.95625 12.7801 3 12.2251ZM11.7638 16.2751L11.3865 17.9176H11.3842L10.2705 17.6626L10.5803 16.3148L9.8715 16.3651L9.609 17.5073H9.6075L8.493 17.2516C8.55 16.9981 8.6055 16.7506 8.66775 16.5008C7.341 16.6808 6.0315 16.9696 4.75275 17.3641C5.57403 18.4787 6.64111 19.3891 7.87117 20.0246C9.10123 20.6601 10.4612 21.0037 11.8455 21.0286H12.2137C13.5878 20.9931 14.9356 20.6446 16.1546 20.0096C17.3735 19.3746 18.4315 18.4698 19.248 17.3641C16.8243 16.6177 14.2997 16.2503 11.7638 16.2751Z" fill="white"/>
</svg>
