<svg width="24" height="24" fill="none" xmlns="http://www.w3.org/2000/svg"><path fill-rule="evenodd" clip-rule="evenodd" d="M21.17 15.321s-.093 1.845-2.33 3.783c-2.237 1.939-6.638 3.578-6.638 3.578s-4.53-1.885-6.871-3.846c-2.507-2.1-2.097-3.515-2.097-3.515V2.846l8.98-1.433 8.955 1.433v12.475ZM12.196.023 2.405 2.04v13.604s-.217 1.638 2.287 3.833c2.504 2.195 7.492 4.505 7.492 4.505s4.8-2.099 7.24-4.213c2.439-2.113 2.54-4.125 2.54-4.125V2.04L12.197.023Z" fill="#372F45"/><path fill-rule="evenodd" clip-rule="evenodd" d="M12.182.026v1.392l.031-.005 8.956 1.433v12.475s-.093 1.845-2.33 3.783c-2.236 1.939-6.638 3.578-6.638 3.578l-.02-.008v1.307a.09.09 0 0 1 .003.002s4.8-2.099 7.239-4.213c2.439-2.113 2.54-4.125 2.54-4.125V2.04L12.197.023l-.015.003Z" fill="#5C4D7D"/><path fill-rule="evenodd" clip-rule="evenodd" d="M12.06 2.388 3.97 3.66l-.018 11.226s-.332 1.471 2.051 3.468c2.225 1.864 6.18 3.424 6.18 3.424s3.886-1.703 6.098-3.44c2.42-1.901 2.062-3.682 2.062-3.682L20.32 3.69l-8.26-1.302Z" fill="#372F45"/><path fill-rule="evenodd" clip-rule="evenodd" d="m20.32 3.69-8.26-1.302-6.592 1.036C6.602 12.442 12.533 16.27 19.9 16.521c.6-1.082.442-1.865.442-1.865L20.32 3.69Z" fill="#5C4D7D"/><path fill-rule="evenodd" clip-rule="evenodd" d="M13.64 5.202H9.074v1.093h4.415v.002c1.537.052 2.76.907 2.76 2.723 0 1.707-1.223 2.664-2.76 2.722l-.15.003-4.068-.003v6.036h1.168v-4.941c.096.007 3.2.012 3.2.012 2.128 0 3.852-1.712 3.852-3.824 0-2.111-1.724-3.823-3.851-3.823Z" fill="#fff"/><path fill-rule="evenodd" clip-rule="evenodd" d="M8.23 9.468h4.72v-.94H8.23v.94Z" fill="#fff"/></svg>