<svg width="24" height="24" fill="none" xmlns="http://www.w3.org/2000/svg"><path d="M12 24c6.627 0 12-5.373 12-12S18.627 0 12 0 0 5.373 0 12s5.373 12 12 12Z" fill="#B80000"/><path d="M19.42 8.54c.117.199.1.408-.015.612-.174.277-.335.56-.5.84l-1.366 2.33c-.91 1.546-1.82 3.092-2.733 4.637a.555.555 0 0 1-.533.29.573.573 0 0 1-.502-.323c-.112-.199-.228-.395-.345-.593l-1.15-1.958c-.086-.148-.173-.293-.272-.457-.096.163-.186.308-.272.457l-1.15 1.957c-.117.197-.232.395-.345.594a.572.572 0 0 1-.502.323.56.56 0 0 1-.533-.29c-.433-.728-.86-1.457-1.29-2.188-.483-.815-.964-1.631-1.443-2.449l-1.365-2.33c-.165-.28-.329-.563-.5-.84-.124-.204-.142-.413-.026-.612.114-.195.298-.29.534-.29 1.476.005 2.953.015 4.429.002.372-.002.595.14.77.451.372.665.769 1.314 1.152 1.972.16.277.319.557.481.834.013.02.034.037.053.054a.203.203 0 0 0 .05-.053c.162-.277.32-.558.483-.835.386-.658.78-1.31 1.153-1.972.173-.31.396-.453.769-.45 1.476.012 2.952.002 4.43-.003.24 0 .424.095.538.29Zm-8.133 4.317a.234.234 0 0 0 .003-.196c-.075-.153-.174-.298-.262-.449-.528-.901-1.057-1.8-1.583-2.704-.054-.092-.116-.125-.225-.125-.984.006-1.968.006-2.952.008-.047 0-.093.007-.16.012l3.597 6.14c.103-.172.191-.31.274-.453.44-.742.876-1.487 1.308-2.233Zm3.008 2.686c1.204-2.055 2.395-4.09 3.6-6.14-.07-.005-.114-.012-.16-.012-.985-.002-1.97-.002-2.953-.008-.11 0-.171.033-.225.125l-1.583 2.704c-.088.148-.184.293-.262.449a.234.234 0 0 0 0 .196c.435.745.87 1.49 1.308 2.233.083.143.171.283.275.453Z" fill="#fff"/></svg>