<svg width="24" height="24" viewBox="0 0 24 24" fill="none" xmlns="http://www.w3.org/2000/svg">
<path d="M12 24C18.6274 24 24 18.6274 24 12C24 5.37258 18.6274 0 12 0C5.37258 0 0 5.37258 0 12C0 18.6274 5.37258 24 12 24Z" fill="#0092B5"/>
<path d="M8.81972 10.5765L12.0312 4.923C12.0372 4.9125 12.0492 4.90575 12.0912 4.923L15.1467 10.4738C15.061 10.5437 14.9923 10.6321 14.9457 10.7324C14.8991 10.8327 14.8759 10.9422 14.8777 11.0528C14.8795 11.1634 14.9063 11.2721 14.9561 11.3708C15.006 11.4695 15.0776 11.5557 15.1655 11.6227L12.3432 16.7137C12.2427 16.6655 12.1327 16.64 12.0212 16.6393C11.9097 16.6385 11.7994 16.6624 11.6982 16.7092L8.79347 11.535C8.91305 11.4054 8.98154 11.2368 8.98623 11.0605C8.99092 10.8843 8.93149 10.7123 8.81897 10.5765H8.81972ZM8.51222 11.727L11.4282 16.9208C11.3653 16.9995 11.3193 17.0904 11.2932 17.1877C8.93897 16.6237 7.47647 16.275 6.90422 16.1407C6.6622 15.8004 6.4504 15.4395 6.27122 15.0623L8.14022 11.7727C8.26604 11.7887 8.39384 11.7732 8.51222 11.7277V11.727ZM8.10797 10.3148L5.79272 6.18975C7.37072 5.352 9.32897 4.9125 11.669 4.875L8.54747 10.3695C8.40972 10.3078 8.25665 10.2887 8.10797 10.3148ZM7.79297 10.4467C7.69675 10.5162 7.61883 10.6079 7.56591 10.7141C7.51299 10.8203 7.48665 10.9378 7.48916 11.0564C7.49167 11.1751 7.52295 11.2913 7.58031 11.3952C7.63767 11.4991 7.7194 11.5874 7.81847 11.6528L6.10097 14.6752C5.81561 13.9685 5.64594 13.2204 5.59847 12.4598L5.25122 6.92325C5.24476 6.81663 5.264 6.71002 5.30733 6.61239C5.35066 6.51477 5.41682 6.42898 5.50022 6.36225L7.79297 10.4467ZM12.743 17.1952C12.7179 17.0985 12.6732 17.0078 12.6117 16.929L15.4752 11.7638C15.5988 11.7885 15.7266 11.7824 15.8472 11.7458L17.7027 15.1163C17.5452 15.4403 17.3637 15.7522 17.1597 16.05L12.743 17.1952ZM12.1872 18.0953C12.3231 18.0645 12.4476 17.9963 12.5467 17.8983C12.6457 17.8003 12.7153 17.6765 12.7475 17.541L16.8395 16.4797C16.3448 17.0947 15.753 17.6247 15.0875 18.0487L12.3702 19.7843C12.3136 19.8206 12.2519 19.8484 12.1872 19.8668V18.0953ZM11.8467 18.0953V19.875C11.7695 19.8575 11.6959 19.8268 11.6292 19.7843L8.91197 18.0487C8.27663 17.6438 7.7083 17.1423 7.22747 16.5623C7.96997 16.7385 9.32222 17.061 11.2842 17.5305C11.3442 17.8103 11.5647 18.0315 11.8467 18.096V18.0953ZM15.8742 10.3448C15.7381 10.2977 15.5914 10.2904 15.4512 10.3238L12.4535 4.87725C14.7275 4.9275 16.6385 5.36175 18.1842 6.1785L15.8742 10.3448ZM16.1615 10.5255L18.479 6.3465C18.5685 6.41253 18.64 6.49988 18.6872 6.6006C18.7343 6.70132 18.7556 6.81223 18.749 6.92325L18.4017 12.4605C18.3528 13.2405 18.1754 14.0071 17.8767 14.7292L16.1412 11.577C16.2132 11.5102 16.271 11.4296 16.3111 11.3401C16.3512 11.2505 16.3729 11.1537 16.3747 11.0556C16.3766 10.9574 16.3587 10.8599 16.3221 10.7688C16.2854 10.6777 16.2308 10.595 16.1615 10.5255ZM11.9997 8.4255C11.8935 8.42719 11.7921 8.46977 11.7165 8.54437C11.6409 8.61897 11.597 8.71985 11.594 8.826V10.2915L9.42947 11.625L9.66122 12.1252L11.594 11.4922V12.9578L11.0525 13.3575V13.7572L11.9997 13.4902L12.947 13.7565V13.3568L12.4055 12.957V11.4915L14.3052 12.159L14.57 11.625L12.4055 10.2915V8.826C12.4022 8.72011 12.3583 8.61953 12.2829 8.54511C12.2075 8.47069 12.1064 8.42813 12.0005 8.42625L11.9997 8.4255Z" fill="white"/>
</svg>
