<svg width="24" height="24" fill="none" xmlns="http://www.w3.org/2000/svg"><path d="M11.993 0C5.38 0 0 5.38 0 11.993s5.38 11.993 11.993 11.993 11.992-5.38 11.992-11.993S18.605 0 11.993 0Zm0 23.221C5.802 23.221.765 18.184.765 11.993S5.802.765 11.993.765 23.22 5.802 23.22 11.993 18.184 23.22 11.993 23.22Z" fill="#1D1D1B"/><path d="M11.993 7.75a2.428 2.428 0 1 0 0-4.855 2.428 2.428 0 0 0 0 4.855ZM5.718 17.111a2.428 2.428 0 1 0 0-4.855 2.428 2.428 0 0 0 0 4.855Z" fill="#128ACF"/><path d="M6.162 11.383a5.871 5.871 0 0 1 2.906-4.468 3.316 3.316 0 0 1-.399-1.791 7.644 7.644 0 0 0-4.299 6.514 3.317 3.317 0 0 1 1.792-.255ZM17.822 11.37a3.318 3.318 0 0 1 1.795.318 7.643 7.643 0 0 0-4.3-6.564 3.318 3.318 0 0 1-.399 1.791 5.871 5.871 0 0 1 2.904 4.455ZM15.501 16.688a5.832 5.832 0 0 1-3.508 1.168 5.831 5.831 0 0 1-3.576-1.222A3.342 3.342 0 0 1 7 17.758a7.599 7.599 0 0 0 4.993 1.867 7.598 7.598 0 0 0 4.96-1.838 3.34 3.34 0 0 1-1.452-1.1Z" fill="#1D1D1B"/><path d="M18.16 17.111a2.428 2.428 0 1 0 0-4.855 2.428 2.428 0 0 0 0 4.855Z" fill="#128ACF"/><path d="M11.993 1.615c-5.722 0-10.378 4.656-10.378 10.378s4.656 10.378 10.378 10.378 10.378-4.656 10.378-10.378S17.715 1.615 11.993 1.615Zm6.167 16.399c-.1 0-.2-.005-.299-.014a8.374 8.374 0 0 1-5.868 2.395 8.374 8.374 0 0 1-5.879-2.405 3.33 3.33 0 0 1-2.522-5.87v-.127c0-3.525 2.181-6.55 5.266-7.795a3.331 3.331 0 0 1 6.27 0c3.085 1.245 5.267 4.27 5.267 7.795l-.003.219a3.33 3.33 0 0 1-2.232 5.802Z" fill="#128ACF"/></svg>