<svg width="24" height="24" fill="none" xmlns="http://www.w3.org/2000/svg"><path d="M12 24c6.627 0 12-5.373 12-12S18.627 0 12 0 0 5.373 0 12s5.373 12 12 12Z" fill="url(#a)"/><path fill-rule="evenodd" clip-rule="evenodd" d="M10.5 8.014v2.615c0 .171.158.3.3.3h4.114c.141 0 .3.128.3.3v1.114c0 .141-.129.3-.3.3H10.8c-.142 0-.3.158-.3.3v6.086c0 .231-.129.355-.3.257L9 18.429c-.142-.086-.215-.172-.215-.343v-5.143c0-.142-.163-.3-.3-.3H6.514c-.172 0-.3-.159-.3-.3v-1.114c0-.168.128-.3.3-.3h1.971c.137 0 .3-.129.3-.3V6.3c0-.171.137-.3.279-.3h7.564c.142 0 .3.159.3.3v1.114c0 .142-.128.3-.3.3H10.8c-.142 0-.3.159-.3.3Z" fill="#fff"/><defs><linearGradient id="a" x1="-.001" y1=".001" x2="23.999" y2="24.001" gradientUnits="userSpaceOnUse"><stop stop-color="#A0F"/><stop offset="1" stop-color="#50F"/></linearGradient></defs></svg>