<svg width="24" height="24" fill="none" xmlns="http://www.w3.org/2000/svg"><g clip-path="url(#a)"><path d="M17.186 8.727h-1.55v-1.55a.996.996 0 0 1 .996-.996h.554a.996.996 0 0 1 .996.996v.555a.996.996 0 0 1-.996.995Zm-8.822 0h-1.55a.996.996 0 0 1-.997-.996v-.554a.995.995 0 0 1 .996-.996h.555a.996.996 0 0 1 .996.996v1.55Zm-.996 9.455h-.554a.995.995 0 0 1-.997-.996v-.554a.996.996 0 0 1 .997-.996h1.55v1.55a.996.996 0 0 1-.996.996Zm9.818 0h-.554a.996.996 0 0 1-.996-.996v-1.55h1.55a.996.996 0 0 1 .996.996v.554a.996.996 0 0 1-.996.996" fill="#005FFF"/><path d="M12.459 6.182h-.555a.996.996 0 0 1-.996-.996v-.554a.996.996 0 0 1 .996-.996h.555a.996.996 0 0 1 .996.996v.555a.996.996 0 0 1-.996.996v-.001Zm0 14.545h-.555a.996.996 0 0 1-.996-.995v-.555a.996.996 0 0 1 .996-.996h.555a.996.996 0 0 1 .996.996v.555a.996.996 0 0 1-.996.995Zm7.273-7.272h-.555a.996.996 0 0 1-.996-.996v-.555a.996.996 0 0 1 .996-.996h.555a.996.996 0 0 1 .995.996v.555a.996.996 0 0 1-.995.996Zm-14.546 0h-.554a.996.996 0 0 1-.996-.996v-.555a.996.996 0 0 1 .996-.996h.554a.997.997 0 0 1 .996.996v.555a.997.997 0 0 1-.996.996" fill="#0CE"/><path d="M14.964 21.733a.728.728 0 1 1 1.345-.557.728.728 0 0 1-1.345.557ZM7.328 3.187a.727.727 0 1 1 1.343-.557.727.727 0 0 1-1.343.557Zm14.04 5.849a.727.727 0 1 1-.556-1.344.727.727 0 0 1 .557 1.344Zm-18.18 7.636a.728.728 0 1 1-.558-1.345.728.728 0 0 1 .557 1.345Z" fill="#005FFF"/><path d="M20.812 16.672a.727.727 0 1 1 .557-1.343.727.727 0 0 1-.557 1.343ZM2.63 9.036a.727.727 0 1 1 .557-1.343.727.727 0 0 1-.557 1.343Zm13.678-5.848a.727.727 0 1 1-1.343-.556.727.727 0 0 1 1.343.556ZM8.67 21.733a.727.727 0 1 1-1.343-.556.727.727 0 0 1 1.343.556Z" fill="#002DAE"/><path d="M19.742 20.62a.363.363 0 1 1 .514-.513.363.363 0 0 1-.514.514ZM3.38 4.258a.364.364 0 1 1 .514-.514.364.364 0 0 1-.514.514Zm16.878 0a.363.363 0 1 1-.514-.514.363.363 0 0 1 .514.514ZM3.893 20.62a.363.363 0 1 1-.513-.514.363.363 0 0 1 .513.514Z" fill="#0099C0"/><path d="M23.636 12.363a.364.364 0 1 1 0-.728.364.364 0 0 1 0 .728ZM.364 12.363a.364.364 0 1 1 0-.727.364.364 0 0 1 0 .727ZM12.364.364a.363.363 0 1 1-.727 0 .363.363 0 0 1 .727 0ZM12.364 23.637a.363.363 0 1 1-.727 0 .363.363 0 0 1 .727 0Z" fill="#0029C0"/><path d="M14.427 10.788h.543a.668.668 0 0 0 .666-.667V8.364H13.88a.667.667 0 0 0-.667.666v.546a1.212 1.212 0 0 1-2.424 0v-.57a.643.643 0 0 0-.643-.642h-1.78v7.272h1.767a.657.657 0 0 0 .656-.657v-.555A1.212 1.212 0 0 1 12 13.212v.002a1.212 1.212 0 0 1 1.212 1.212v.548a.662.662 0 0 0 .662.662h1.762v-1.762a.662.662 0 0 0-.661-.662h-.55A1.212 1.212 0 0 1 13.211 12h.003a1.212 1.212 0 0 1 1.212-1.212" fill="#003EC5"/></g><defs><clipPath id="a"><path fill="#fff" d="M0 0h24v24H0z"/></clipPath></defs></svg>