<svg width="24" height="24" viewBox="0 0 24 24" fill="none" xmlns="http://www.w3.org/2000/svg">
<path d="M24 12C24 18.6283 18.6283 24 12 24C5.37167 24 0 18.6283 0 12C0 5.37167 5.37167 0 12 0C18.6283 0 24 5.37167 24 12Z" fill="black"/>
<g opacity="0.95">
<path d="M22.6043 12.1029C22.6043 17.9021 17.9021 22.6043 12.1029 22.6043C6.30374 22.6043 1.60156 17.9021 1.60156 12.1029C1.60156 6.30374 6.30374 1.60156 12.1029 1.60156C17.9021 1.60156 22.6043 6.30374 22.6043 12.1029Z" fill="white"/>
</g>
<path d="M16.0759 9.07901L8.5359 16.7889L8.37109 13.6833L12.9188 9.07901L14.8038 7.12193L16.0244 6.72021L16.9102 6.95197L17.7394 7.6421L16.7402 8.7906L16.0759 9.07901Z" fill="white"/>
<path opacity="0.3" d="M16.76 9.29477L15.251 10.8501H17.5377L17.7952 10.5874C17.9754 10.402 18.1196 10.1754 18.2175 9.93338C18.3154 9.68618 18.3617 9.42352 18.3617 9.16086C18.3617 8.63555 18.166 8.13599 17.8158 7.75488L16.7754 8.83641C16.8321 8.89821 16.8578 8.98576 16.8578 9.06816C16.8527 9.15056 16.8166 9.23297 16.76 9.29477Z" fill="black"/>
<path opacity="0.3" d="M10.56 15.8403L9.3291 17.1176H11.6158L12.857 15.8403H10.56Z" fill="black"/>
<path opacity="0.3" d="M11.1787 15.1929H13.4654L14.8302 13.7764H12.5435L11.1787 15.1929Z" fill="black"/>
<path opacity="0.3" d="M16.9144 11.6133H14.6277L13.165 13.1223H15.4517L16.9144 11.6133Z" fill="black"/>
<path d="M17.6705 7.19468C17.4336 6.94747 17.1504 6.75176 16.8413 6.61785C16.5323 6.48395 16.1976 6.41699 15.8628 6.41699C15.528 6.41699 15.1933 6.48395 14.8843 6.61785C14.5752 6.75176 14.292 6.95262 14.0551 7.19983L8.13229 13.3183C8.07564 13.3853 8.03959 13.4729 8.04474 13.5604V16.7124L6.41211 18.4171H7.30825L8.51856 17.1656H11.5469C11.5881 17.1656 11.6293 17.1604 11.6705 17.1398C11.7066 17.1244 11.7426 17.0935 11.7684 17.0626L17.6551 10.9647L17.6654 10.9544C18.1444 10.4548 18.4122 9.78012 18.407 9.07968C18.4122 8.72946 18.3452 8.38439 18.2165 8.06508C18.098 7.73031 17.9074 7.4419 17.6705 7.19468ZM14.2302 7.90542L14.4877 7.64275C14.8534 7.26679 15.3478 7.05562 15.8628 7.05562C16.3778 7.05562 16.8722 7.26679 17.2379 7.64275C17.2482 7.65306 17.2482 7.66336 17.2585 7.66336C17.6087 8.04448 17.8044 8.55435 17.8044 9.08483C17.7993 9.61531 17.5984 10.12 17.2379 10.496L16.9804 10.7587H14.6937L16.1924 9.20329C16.2491 9.14663 16.2851 9.06423 16.2851 8.98182C16.2851 8.89942 16.2594 8.81702 16.2027 8.75521C16.1924 8.74491 16.1924 8.74491 16.1924 8.73461C16.1358 8.67281 16.0534 8.64191 15.971 8.64191C15.8886 8.64191 15.8061 8.67796 15.7495 8.73461L14.2302 10.3106V7.90542ZM9.14174 16.5115L10.3726 15.2342H12.6594L11.4284 16.5115H9.14174ZM12.7315 12.7879L14.1941 11.2685H16.4808L15.0182 12.7879H12.7315ZM14.5186 13.3029L13.1538 14.7192H10.8671L12.2319 13.3029H14.5186ZM12.2679 9.93462L13.7306 8.41529V10.8205L12.2679 12.3398V9.93462ZM10.4035 11.866L11.7684 10.4497V12.8548L10.4035 14.2711V11.866ZM8.66277 13.6737L9.91427 12.3862V14.7913L8.66277 16.0789" fill="black"/>
</svg>
