<svg width="24" height="24" fill="none" xmlns="http://www.w3.org/2000/svg"><path d="M12 24c6.627 0 12-5.373 12-12S18.627 0 12 0 0 5.373 0 12s5.373 12 12 12Z" fill="url(#a)"/><path d="m10.152 14.508 6.767-6.778s-3.091-3.752-7.946-1.655c0 0-4.183 1.773-3.711 6.462.17 1.694.881 3.293 2.14 4.44 1.148 1.044 2.926 1.991 5.474 1.66 0 0 1.86-.216 3.265-1.6l1.578 1.557s-4.097 4.281-10.291 1.07c0 0-3.352-1.675-4.303-6.259 0 0-.973-5.989 4.475-9.06 0 0 5.795-3.394 10.487 1.45l.8-.692s-3.968-4.411-9.99-2.4c0 0-5.405 1.643-6.507 6.767 0 0-1.579 5.892 2.616 9.61 0 0 4.443 4.52 10.562 2.033 0 0 1.708-.497 3.557-2.497l-2.962-2.984s-1.979 2.908-5.795 1.816c0 0-4.995-1.08-3.99-6.81 0 0 .758-3.86 5.255-4.249 0 0 2.14-.162 3.795 1.297l-5.99 6.076.714.746Z" fill="#fff"/><defs><radialGradient id="a" cx="0" cy="0" r="1" gradientUnits="userSpaceOnUse" gradientTransform="translate(9.603 5.12) scale(25.6069)"><stop stop-color="#F2EC05"/><stop offset=".06" stop-color="#EDEB07"/><stop offset=".13" stop-color="#DFE70C"/><stop offset=".2" stop-color="#C8E114"/><stop offset=".28" stop-color="#A8D820"/><stop offset=".35" stop-color="#7ECD2F"/><stop offset=".43" stop-color="#4CBF41"/><stop offset=".47" stop-color="#2FB74B"/><stop offset=".55" stop-color="#33B765"/><stop offset=".62" stop-color="#37B77A"/><stop offset=".67" stop-color="#38B782"/><stop offset=".84" stop-color="#0AAEA4"/></radialGradient></defs></svg>