<svg width="24" height="24" fill="none" xmlns="http://www.w3.org/2000/svg"><path d="M11.305 19.474 5 24 9.002 5.582l2.303 13.892Zm.127-.043 3.84.05-6.12-13.828 2.28 13.778Zm4.2-.305 2.94-10.894-1.112-1.36-1.827 12.255ZM14.217 2.047 9.378 5.306l7.07-2.288-2.232-.97Zm-.61 0-3.003.1-.439 1.253 3.443-1.353Z" fill="#384182"/><path d="M17.247 6.453 9.505 5.391l6.978-2.196.764 3.258ZM15.413 2.36l.425-1.155-2.232-.97 1.807 2.125Zm.644-1.268.503 1.813 2.976-.786-3.479-1.027Z" fill="#F79534"/><path d="M15.442 19.41 9.236 5.525l8.09 1.134-1.884 12.75Zm-1.46-17.363-3.825 1.495-.92 1.7 4.745-3.195ZM11.61.914l-.956 1.055 3.174-.078-2.218-.977Zm1.672-.822-1.516.701 3.457 1.523-1.94-2.224ZM15.01 0h-1.63l2.522.978L15.01 0Zm.942 1.296-.39 1.162.78.376-.39-1.538Z" fill="#F0513A"/></svg>