<svg width="24" height="24" fill="none" xmlns="http://www.w3.org/2000/svg"><g clip-path="url(#a)" fill-rule="evenodd" clip-rule="evenodd" fill="#008DD0"><path d="M21.769 9.685c-1.19-1.125-2.87-2.063-5.05-2.658h-.012c-5.187-1.411-7.035 1.927-2.835 4.03 4.768 2.386 5.43 6.293 2.74 8.737-.686.621-2.914 1.784-4.964 2.064-3.255.451-6.867-.24-9.802-1.173a15.445 15.445 0 0 0 5.37 2.692c4.577 1.26 10.105.332 13.768-2.853 3.69-3.212 4.043-7.764.785-10.839Zm-5.047-2.657.047.014-.047-.014Z"/><path d="M6.75 2.155a15.595 15.595 0 0 1 15.404 2.088c-5.48-1.743-9.733-1.591-12.522-.469l-.041.017C6.146 5.2 4.95 8.084 6.45 10.692c.808 1.406 2.231 2.457 3.675 3.178 3.818 1.913 2.644 4.84-1.49 4.305a9.997 9.997 0 0 1-1.358-.278C-.84 15.681-2.027 8.787 3.015 4.404a13.326 13.326 0 0 1 3.734-2.249Z"/></g><defs><clipPath id="a"><path fill="#fff" d="M0 0h24v24H0z"/></clipPath></defs></svg>