<svg width="24" height="24" viewBox="0 0 24 24" fill="none" xmlns="http://www.w3.org/2000/svg">
<g clip-path="url(#clip0)">
<path d="M23.6376 14.903C22.0345 21.3311 15.5251 25.2436 9.09383 23.6405C2.66571 22.0374 -1.24367 15.5249 0.359458 9.09676C1.95946 2.66864 8.47196 -1.24386 14.897 0.359264C21.3282 1.96239 25.2407 8.47489 23.6376 14.903Z" fill="#0007BC"/>
<path d="M19.2031 12.7311L19.0531 12.4905L16.6407 8.66859C16.45 8.37172 16.2 8.11859 15.9063 7.92484C15.3594 7.57797 14.6907 7.46859 14.0625 7.62484C13.4407 7.77484 12.9094 8.17172 12.5875 8.72484C12.425 8.99359 12.2219 9.32797 12.0157 9.65609L11.3594 8.64359L11.3344 8.60922V8.59984C11.1125 8.30297 10.8344 8.05297 10.5157 7.86547C10.0375 7.60609 9.48442 7.51859 8.94379 7.61234C8.42504 7.71547 7.95004 7.97797 7.58442 8.36547C7.4813 8.48109 7.39067 8.60609 7.31567 8.74047L5.53442 11.5655L4.78755 12.7436C4.44693 13.2873 4.32818 13.9436 4.45943 14.5717C4.5813 15.1998 4.95943 15.7498 5.50005 16.0936C5.8688 16.3248 6.2938 16.4467 6.72817 16.4436C7.5813 16.4405 8.37192 16.0061 8.82504 15.2842L9.39379 14.3842L9.94379 15.2405C10.0907 15.453 10.2657 15.6498 10.4563 15.8217C10.5094 15.8686 10.5625 15.9155 10.6188 15.9561H10.625C10.6625 15.9842 10.7 16.0092 10.7438 16.0373C11.1125 16.2748 11.5438 16.403 11.9844 16.403C12.45 16.3998 12.9063 16.2655 13.2938 16.0092L13.3407 15.978L13.3844 15.9498C13.5969 15.7998 13.7875 15.6155 13.9438 15.4061L14.5907 14.3998L15.1438 15.2748C15.6032 15.9936 16.3938 16.428 17.2469 16.428C17.6782 16.4311 18.1031 16.3092 18.4719 16.0811C19.5813 15.3873 19.9125 13.8561 19.2031 12.7311ZM7.66254 8.94672C7.72817 8.83422 7.80317 8.73109 7.88754 8.63422C8.18754 8.31234 8.58442 8.09047 9.01567 7.99672C9.46567 7.91547 9.92504 7.99047 10.325 8.20609C10.5969 8.36859 10.8344 8.58422 11.0219 8.83734L11.0375 8.85922L11.7938 10.0217C11.4407 10.5498 11.1438 10.9842 11.1438 10.9936C10.8657 11.4186 10.4407 11.728 9.95004 11.8561H9.92504C9.41254 12.0061 8.86567 11.9467 8.39379 11.6936L8.31879 11.6498L8.25317 11.6061L8.19067 11.5623L8.13754 11.5186L8.08754 11.478L8.04692 11.4436L8.01879 11.4186L8.00317 11.403L7.95942 11.353L7.90629 11.3061L7.89067 11.2905L7.86567 11.2655L7.85004 11.2498L7.83442 11.2342L7.76254 11.1748L7.74692 11.1623L7.72504 11.1467L7.68755 11.1186L7.66879 11.1061H7.65942L7.6063 11.0717L7.58755 11.0623H7.57192L7.52192 11.0342L7.49692 11.0186L7.4313 10.9873L7.40005 10.9655L7.36567 10.9498L7.30317 10.9248H7.30005L7.22192 10.8998L7.19067 10.8936L7.12817 10.878H7.09692L7.03755 10.8561H7.00317H6.97817H6.94692H6.90317H6.8063H6.77505H6.66567H6.65005L6.5438 10.8717H6.53442L6.42192 10.8967L7.66254 8.94672ZM8.50942 15.0748C8.21879 15.5311 7.76567 15.8561 7.2438 15.9873C6.72817 16.1217 6.17817 16.0405 5.72817 15.7561C4.81255 15.1811 4.54068 13.8967 5.13443 12.9467L5.87817 11.7686C5.9313 11.6873 5.99067 11.6155 6.05942 11.5467C6.26255 11.353 6.53442 11.2436 6.81567 11.2436H6.89067H6.91567H6.96567H6.99067H7.03442H7.05317L7.08755 11.2498H7.10005H7.1188L7.15942 11.2655H7.17817L7.2438 11.2905L7.26255 11.2967L7.29067 11.3123H7.3063L7.3313 11.3248L7.3563 11.3405H7.3688L7.3938 11.3561L7.4313 11.3811H7.4438H7.45317L7.47505 11.3967L7.50005 11.4123H7.50942L7.56567 11.4623H7.57192L7.6063 11.4967L7.61567 11.5061L7.62817 11.5217L7.64692 11.5436L9.19067 14.0248L8.50942 15.0748ZM13.6407 15.1686C13.5063 15.3498 13.35 15.5092 13.1625 15.6405L13.1282 15.6655L13.0844 15.6936C12.4469 16.1217 11.6157 16.1311 10.9657 15.7217L10.8657 15.653H10.8532C10.8094 15.6186 10.7625 15.5842 10.7188 15.5436C10.5532 15.3936 10.4032 15.2248 10.275 15.0405L9.56567 13.9217L8.47192 12.1811L8.50942 12.1967L8.61254 12.2311L8.67192 12.2498L8.77504 12.2748L8.84379 12.2936L8.95317 12.3123L9.01254 12.3217L9.15629 12.3373H9.17504H9.33754H9.40317H9.52504H9.58754L9.70629 12.3217H9.75942C9.81567 12.3123 9.87192 12.303 9.92192 12.2873C10.1157 12.2373 10.3032 12.1655 10.4813 12.0717H10.5C10.55 12.0467 10.5938 12.0217 10.6438 11.9967C10.975 11.8061 11.2563 11.5405 11.4625 11.2186C11.4625 11.2186 11.8 10.7092 12.1688 10.1342C12.4313 9.72484 12.7125 9.27797 12.9125 8.93422C13.1782 8.47484 13.625 8.14047 14.1407 8.01859C14.6688 7.89047 15.2219 7.97797 15.6813 8.26859C15.925 8.43109 16.1344 8.64672 16.2969 8.89359L18.1531 11.8373C18.1 11.8123 18.0469 11.7936 17.9906 11.7748L17.9625 11.7655C17.9094 11.7467 17.8531 11.7311 17.8 11.7155H17.7844C17.7313 11.6998 17.675 11.6905 17.6219 11.6811H17.5969C17.5438 11.6717 17.4844 11.6655 17.4344 11.6592H17.4032C17.3469 11.6592 17.2907 11.6592 17.2407 11.653H17.2344C17.1813 11.653 17.1219 11.653 17.0719 11.653H17.0375C16.9844 11.653 16.9282 11.6592 16.875 11.6717H16.8407C16.7844 11.6811 16.7282 11.6905 16.6688 11.7061C16.5907 11.7248 16.5157 11.7467 16.4375 11.7717C15.9188 11.9498 15.475 12.303 15.1907 12.7717L14.5157 13.8311L13.6407 15.1686ZM18.2781 15.7436C17.3625 16.3186 16.0875 16.0061 15.4938 15.0592L14.8375 14.028L15.5125 12.9686L15.5657 12.8842C16.0594 12.1686 16.9625 11.8561 17.7906 12.1092L17.8656 12.1342H17.8875L17.9406 12.1561L17.9813 12.1717L18.0156 12.1873L18.0719 12.2123H18.0875C18.1406 12.2373 18.1969 12.2655 18.25 12.2998C18.3031 12.3342 18.325 12.3498 18.3625 12.3748L18.3875 12.3905C18.4656 12.4467 18.5406 12.5092 18.6063 12.5748L18.6219 12.5905C18.65 12.6186 18.6781 12.653 18.7063 12.6842L18.7219 12.6998L18.8625 12.9248C19.4625 13.8842 19.1938 15.1686 18.2781 15.7436Z" fill="white"/>
</g>
<defs>
<clipPath id="clip0">
<rect width="23.9969" height="24" fill="white"/>
</clipPath>
</defs>
</svg>
