<svg width="24" height="24" viewBox="0 0 24 24" fill="none" xmlns="http://www.w3.org/2000/svg">
<path fill-rule="evenodd" clip-rule="evenodd" d="M23.8915 11.9457C23.8915 5.34827 18.5432 0 11.9457 0C5.34827 0 0 5.34827 0 11.9457C0 18.5432 5.34827 23.8915 11.9457 23.8915C18.5432 23.8915 23.8915 18.5432 23.8915 11.9457Z" fill="#273E4B"/>
<path fill-rule="evenodd" clip-rule="evenodd" d="M18.1152 12.6292V17.1547H18.1147C17.4961 17.8865 16.7491 18.5072 15.9134 18.9792C14.7087 19.6603 13.3368 20.0203 11.9457 20.0203C9.78881 20.0203 7.76118 19.1803 6.23621 17.6551C4.71109 16.1302 3.87109 14.1024 3.87109 11.9457C3.87109 9.78881 4.71109 7.76118 6.23621 6.23606C7.76118 4.71109 9.78881 3.87109 11.9457 3.87109C13.0808 3.87109 14.179 4.1023 15.2098 4.5586C16.2049 4.9985 17.0884 5.62593 17.8354 6.4221L16.1065 8.04426C15.0162 6.88212 13.5385 6.24203 11.9457 6.24203C8.80078 6.24203 6.24203 8.80078 6.24203 11.9457C6.24203 15.0906 8.80078 17.6493 11.9457 17.6493C13.4291 17.6493 14.8181 17.0851 15.8635 16.094V14.6128H9.33251V12.6292H18.1152Z" fill="#FFFFFE"/>
<path fill-rule="evenodd" clip-rule="evenodd" d="M9.33252 11.2887H18.1152V9.30518H9.33252V11.2887Z" fill="#FFFFFE"/>
</svg>
