<svg width="24" height="24" viewBox="0 0 24 24" fill="none" xmlns="http://www.w3.org/2000/svg">
<g clip-path="url(#clip0)">
<path d="M11.9983 24C9.62539 23.9995 7.30588 23.2955 5.33306 21.9768C3.36024 20.6582 1.82271 18.7842 0.914847 16.5918C0.00698854 14.3995 -0.230423 11.9871 0.23263 9.65979C0.695683 7.33248 1.83841 5.19472 3.51632 3.51681C5.19424 1.83889 7.33199 0.696171 9.6593 0.233118C11.9866 -0.229935 14.399 0.00747682 16.5914 0.915336C18.7838 1.82319 20.6577 3.36073 21.9764 5.33355C23.295 7.30637 23.9991 9.62587 23.9995 11.9988C23.9999 13.5749 23.6896 15.1356 23.0866 16.5918C22.4836 18.048 21.5996 19.3712 20.4852 20.4857C19.3707 21.6001 18.0476 22.4841 16.5914 23.0871C15.1352 23.6901 13.5744 24.0003 11.9983 24ZM11.9983 23.0634C14.1861 23.0634 16.3248 22.4147 18.1439 21.1993C19.963 19.9838 21.3809 18.2563 22.2182 16.2351C23.0555 14.2139 23.2748 11.9898 22.8481 9.844C22.4215 7.69821 21.3681 5.72712 19.8213 4.17995C18.2745 2.63278 16.3036 1.57902 14.1579 1.15191C12.0122 0.724797 9.78808 0.943519 7.76669 1.78042C5.7453 2.61731 4.01745 4.0348 2.80163 5.85365C1.58581 7.6725 0.936621 9.81102 0.936141 11.9988C0.939356 14.9308 2.10617 17.7416 4.18032 19.814C6.25446 21.8863 9.06632 23.0506 11.9983 23.0513V23.0634Z" fill="black"/>
<path d="M12.0225 13.0542C12.592 13.0542 13.0537 12.5925 13.0537 12.0229C13.0537 11.4534 12.592 10.9917 12.0225 10.9917C11.4529 10.9917 10.9912 11.4534 10.9912 12.0229C10.9912 12.5925 11.4529 13.0542 12.0225 13.0542Z" fill="black"/>
</g>
<defs>
<clipPath id="clip0">
<rect width="24" height="24" fill="white"/>
</clipPath>
</defs>
</svg>
