<svg width="24" height="24" fill="none" xmlns="http://www.w3.org/2000/svg"><g clip-path="url(#a)"><path d="M11.31.208c.772-.337 1.324.376 1.8.853.85.723 1.661 1.492 2.429 2.302.44.48.262 1.36-.337 1.627-.46.25-1.022.061-1.375-.288-.926-.887-1.812-1.82-2.774-2.667-.597-.487-.475-1.546.256-1.828Zm8.432 2.459c.524-.282 1.363-.053 1.509.57.221.556-.135 1.105-.526 1.474a129.11 129.11 0 0 0-2.523 2.585c-.304.367-.839.466-1.268.267-.62-.256-.788-1.188-.32-1.659 1.051-1.07 1.979-2.268 3.129-3.237ZM2.997 2.84c.546-.33 1.221-.111 1.625.336.908.917 1.845 1.803 2.763 2.705.608.562.184 1.751-.664 1.755-.71.11-1.086-.593-1.56-.977-.833-.689-1.596-1.456-2.35-2.23-.428-.44-.3-1.247.187-1.59Zm.705 5.418c.915-.353 1.808.8 1.237 1.595-.674.88-1.553 1.588-2.29 2.42-.434.447-.84 1.134-1.564 1.047-.847-.033-1.273-1.21-.656-1.782 1.113-1.066 1.997-2.414 3.274-3.28h-.001Zm18.553 2.55c.629-.41 1.579.056 1.599.815.092.713-.615 1.09-1.005 1.568a27.627 27.627 0 0 1-2.215 2.336c-.568.536-1.628.16-1.73-.617-.133-.802.62-1.3 1.095-1.813.786-.73 1.45-1.59 2.256-2.288Zm-16.167 5.64c.612-.365 1.54.07 1.554.812.113.716-.595 1.097-.982 1.575-.684.827-1.447 1.586-2.216 2.335-.5.506-1.566.262-1.708-.463-.242-.7.353-1.266.806-1.706.878-.822 1.642-1.762 2.546-2.552Zm10.864-.027c.339-.116.767-.125 1.053.119 1.06 1.006 2.185 1.94 3.18 3.014.308.31.335.833.131 1.207-.288.673-1.273.69-1.752.213-.966-.911-1.894-1.868-2.865-2.776-.587-.456-.45-1.513.253-1.777Zm-8.151 2.572c.503-.273 1.095-.014 1.457.37a98.537 98.537 0 0 0 2.774 2.68c.623.594.202 1.796-.677 1.805-.709.084-1.079-.62-1.555-1.006-.827-.686-1.595-1.44-2.338-2.218-.447-.478-.265-1.367.339-1.631ZM7.18 1.123a1.04 1.04 0 1 1-2.08 0 1.04 1.04 0 0 1 2.08 0Zm3.032 2.765a1.04 1.04 0 1 1-2.08 0 1.04 1.04 0 0 1 2.08 0ZM2.093 6.43a1.04 1.04 0 1 1-2.08 0 1.04 1.04 0 0 1 2.08 0Zm16.51-5.389a1.04 1.04 0 1 1-2.081 0 1.04 1.04 0 0 1 2.08 0Zm5.385 5.129a1.04 1.04 0 1 1-2.08 0 1.04 1.04 0 0 1 2.08 0Zm-2.842 2.988a1.04 1.04 0 1 1-2.08 0 1.04 1.04 0 0 1 2.08 0Zm2.838 8.399a1.04 1.04 0 1 1-2.08 0 1.04 1.04 0 0 1 2.08 0Zm-8.112 2.536a1.04 1.04 0 1 1-2.08 0 1.04 1.04 0 0 1 2.08 0Zm2.993 2.844a1.04 1.04 0 1 1-2.08 0 1.04 1.04 0 0 1 2.08 0Zm-11.39 0a1.04 1.04 0 1 1-2.08 0 1.04 1.04 0 0 1 2.08 0ZM4.94 14.791a1.04 1.04 0 1 1-2.08 0 1.04 1.04 0 0 1 2.08 0Zm-2.847 3.022a1.04 1.04 0 1 1-2.08 0 1.04 1.04 0 0 1 2.08 0Z" fill="#03E8B0"/></g><defs><clipPath id="a"><path fill="#fff" d="M0 0h24v24H0z"/></clipPath></defs></svg>