<svg width="24" height="24" viewBox="0 0 24 24" fill="none" xmlns="http://www.w3.org/2000/svg">
<path d="M12 24C18.6274 24 24 18.6274 24 12C24 5.37258 18.6274 0 12 0C5.37258 0 0 5.37258 0 12C0 18.6274 5.37258 24 12 24Z" fill="#2B77B3"/>
<path d="M20.2498 12.0294C20.2145 16.6104 16.502 20.2839 11.942 20.2494C7.37829 20.2157 3.71304 16.4867 3.74979 11.9154C3.78729 7.38768 7.51029 3.72018 12.0373 3.75018C16.5973 3.78093 20.2828 7.49718 20.2498 12.0302V12.0294ZM4.34679 12.0032C4.35504 16.2182 7.76529 19.6209 11.9885 19.6307C16.2163 19.6382 19.6655 16.2122 19.6513 11.9927C19.6355 7.59768 15.995 4.28268 11.8048 4.35468C7.75329 4.42368 4.33854 7.86768 4.34679 12.0032ZM14.0105 8.42118L13.7053 9.39768C13.1368 9.30393 12.6103 9.19218 12.077 9.13968C11.7605 9.10893 11.432 9.19143 11.3098 9.54768C11.1838 9.91293 11.1688 10.3022 11.471 10.5842C11.7815 10.8729 12.146 11.1017 12.4865 11.3582C12.7993 11.5937 13.1435 11.7992 13.4165 12.0744C14.1568 12.8214 14.288 13.7274 13.9843 14.7039C13.8043 15.2829 13.3753 15.6489 12.8263 15.8709C11.9863 16.2114 10.556 16.0434 9.75279 15.5034L10.1053 14.4804C10.6168 14.6154 11.0848 14.7774 11.5663 14.8539C12.0253 14.9267 12.506 14.8562 12.7415 14.3874C12.9785 13.9149 12.9035 13.4177 12.5323 13.0382C12.2458 12.7457 11.8865 12.5229 11.5513 12.2792C11.3278 12.1172 11.078 11.9897 10.8605 11.8202C10.4388 11.4977 10.1385 11.0422 10.0085 10.5275C9.87848 10.0128 9.92633 9.46924 10.1443 8.98518C10.2404 8.75403 10.3907 8.54944 10.5826 8.38873C10.7745 8.22802 11.0024 8.11592 11.2468 8.06193C12.188 7.83843 13.1008 7.93968 14.0105 8.42193V8.42118ZM7.95054 11.8637C7.95055 12.1146 7.85154 12.3554 7.67501 12.5338C7.49849 12.7121 7.25871 12.8136 7.00779 12.8162C6.48279 12.8184 6.03429 12.3609 6.04629 11.8382C6.05617 11.5874 6.16274 11.3502 6.34367 11.1763C6.52459 11.0023 6.76582 10.9052 7.01679 10.9052C7.54179 10.9127 7.95429 11.3364 7.95129 11.8637H7.95054ZM17.0203 10.9314C17.5438 10.9307 17.9338 11.3169 17.9405 11.8434C17.9435 11.9706 17.9208 12.0971 17.8739 12.2154C17.8271 12.3337 17.757 12.4414 17.6677 12.5322C17.5785 12.6229 17.4719 12.6947 17.3544 12.7435C17.2369 12.7923 17.1108 12.817 16.9835 12.8162C16.7324 12.812 16.493 12.7091 16.3173 12.5297C16.1415 12.3503 16.0435 12.1088 16.0445 11.8577C16.0445 11.3087 16.442 10.9314 17.0203 10.9314Z" fill="white"/>
</svg>
