<svg width="24" height="24" viewBox="0 0 24 24" fill="none" xmlns="http://www.w3.org/2000/svg">
<g clip-path="url(#clip0)">
<path d="M12.2466 14.5715C12.3977 15.655 12.2692 16.8479 13.2138 17.8202C13.766 18.388 13.5489 19.2632 12.969 19.7598C12.6844 20.0118 12.3187 20.153 11.9386 20.1574C11.5585 20.1619 11.1896 20.0294 10.8992 19.7841C10.2776 19.2632 10.031 18.3672 10.6006 17.7786C11.5347 16.8027 11.4496 15.6272 11.5608 14.4639C11.5886 14.1791 11.7344 13.8006 11.2639 13.6842C10.835 13.5783 10.5103 13.0331 9.95117 13.4984C9.03784 14.2572 7.8901 14.7139 7.50463 16.0526C7.26849 16.867 6.30828 17.1257 5.54601 16.8201C5.20301 16.6953 4.91451 16.4544 4.73056 16.1391C4.5466 15.8239 4.47881 15.4542 4.53892 15.0942C4.69172 14.2607 5.45051 13.5609 6.28744 13.7745C7.53589 14.0923 8.46658 13.4689 9.48582 13.0227C9.70287 12.9272 10.1335 12.849 9.99284 12.5539C9.75669 12.0694 10.1856 11.3627 9.54659 11.071C8.54471 10.6143 7.62618 9.925 6.36558 10.281C5.4974 10.524 4.74034 9.89027 4.56671 9.04987C4.48286 8.64811 4.55212 8.22951 4.76091 7.87617C4.9697 7.52283 5.30297 7.26023 5.69534 7.13987C6.50449 6.91241 7.4317 7.30309 7.63659 8.16259C7.95609 9.45097 9.1316 9.76873 9.96158 10.4789C10.0189 10.5275 10.1613 10.5692 10.1925 10.5397C10.571 10.1768 11.0468 9.95799 11.4601 9.6576C11.7292 9.46139 11.5243 9.00473 11.4931 8.66787C11.4184 7.81358 11.3437 6.99228 10.6665 6.28906C10.0571 5.65702 10.2168 4.74196 10.8402 4.195C11.1355 3.92962 11.5201 3.78557 11.9171 3.79169C12.3141 3.79781 12.6941 3.95364 12.9811 4.22799C13.5836 4.79058 13.7 5.68654 13.0992 6.3342C12.5627 6.91241 12.3908 7.54966 12.3057 8.28414C12.1442 9.61593 12.2866 9.89722 13.502 10.4529C13.6166 10.5067 13.7156 10.5518 13.8146 10.4702C14.6359 9.78783 15.7836 9.48396 16.1222 8.24941C16.2179 7.84704 16.4692 7.49902 16.821 7.28161C17.1729 7.06419 17.5965 6.99512 17.9992 7.08952C18.0521 7.10169 18.1043 7.11676 18.1555 7.13467C18.9143 7.3847 19.3709 8.25983 19.1817 9.09849C19.1024 9.49335 18.8699 9.84068 18.5349 10.0643C18.2 10.2879 17.79 10.3696 17.3949 10.2914C17.3463 10.281 17.2977 10.2688 17.2508 10.2549C15.9746 9.86944 15.0648 10.6404 14.1098 11.1387C13.6323 11.3853 13.9188 12.1406 13.7295 12.6494C13.6236 12.9359 14.1184 12.9966 14.3598 13.1078C15.3686 13.5853 16.3219 14.1235 17.5634 13.8023C18.3604 13.5939 19.0914 14.3232 19.2025 15.1271C19.2654 15.4884 19.1966 15.8602 19.0086 16.175C18.8206 16.4898 18.5259 16.7267 18.178 16.8427C17.4019 17.117 16.492 16.8201 16.2576 15.9745C15.8722 14.5854 14.6706 14.1339 13.6948 13.4203C13.1756 13.0505 12.2171 13.7988 12.2466 14.5715Z" fill="#09CBCD"/>
<path d="M12.9483 0L21.8037 5.10143C20.2983 6.26306 20.0048 6.2839 18.5046 5.41571C17.0565 4.57647 15.6095 3.7407 14.1637 2.90841C12.8076 2.12704 12.6236 1.69816 12.9483 0Z" fill="#09CBCD"/>
<path d="M1.97461 18.8935C3.09109 17.8951 4.10513 17.7389 5.32753 18.5741C6.66105 19.4839 8.1057 20.2167 9.51389 21.031C10.969 21.8749 11.1009 22.1683 10.8144 24.0002L1.97461 18.8935Z" fill="#09CBCD"/>
<path d="M2.00488 5.09449L10.8256 0C11.1538 1.71726 10.9853 2.10968 9.61015 2.9032C8.18633 3.72971 6.70869 4.47808 5.34912 5.40009C4.14234 6.22139 3.1231 6.112 2.00488 5.09449Z" fill="#09CBCD"/>
<path d="M21.7789 18.8445L12.9808 23.9859C12.6213 22.345 12.821 21.878 14.1667 21.0983C15.6166 20.2597 17.1185 19.4922 18.5076 18.5598C19.6762 17.768 20.6711 17.8461 21.7789 18.8445Z" fill="#09CBCD"/>
<path d="M1 6.86035C2.44292 7.27361 3.00723 8.12269 2.91 9.5795C2.79193 11.2169 2.88395 12.8786 2.88222 14.516C2.88222 16.0995 2.6426 16.426 1.00521 16.992L1 6.86035Z" fill="#08CBCD"/>
<path d="M22.7722 17.0164C21.0636 16.3219 20.916 16.1152 20.916 14.4015V8.85552C20.9155 8.4054 21.0727 7.96933 21.3605 7.62321C21.6482 7.27708 22.0483 7.0428 22.4909 6.96115C22.9875 6.86217 22.8382 7.23723 22.8382 7.44212C22.8521 8.88504 22.8382 10.328 22.8382 11.7709V16.7976C22.8239 16.8727 22.8018 16.946 22.7722 17.0164Z" fill="#08CBCD"/>
</g>
<defs>
<clipPath id="clip0">
<rect width="24" height="24" fill="white"/>
</clipPath>
</defs>
</svg>
