<svg width="24" height="24" fill="none" xmlns="http://www.w3.org/2000/svg"><g clip-path="url(#a)"><path d="M18.823 0a5.175 5.175 0 0 0-5.179 5.161v5.723c-.533.036-1.079.059-1.644.059s-1.108.022-1.644.054V5.161A5.179 5.179 0 0 0 0 5.161V18.84a5.179 5.179 0 0 0 10.356 0v-5.723A24.304 24.304 0 0 1 12 13.057c.565 0 1.108-.022 1.644-.054v5.836a5.179 5.179 0 0 0 10.356 0V5.16A5.174 5.174 0 0 0 18.823 0ZM5.177 2.115A3.055 3.055 0 0 1 8.233 5.16v6.06c-1.515.22-2.994.638-4.4 1.244a8 8 0 0 0-1.706 1.019V5.161a3.055 3.055 0 0 1 3.05-3.046Zm3.056 16.724a3.056 3.056 0 1 1-6.112 0v-1.372c0-1.212.96-2.36 2.57-3.075a15.066 15.066 0 0 1 3.542-1.036v5.483Zm10.59 3.046a3.054 3.054 0 0 1-3.056-3.046v-6.06a17.423 17.423 0 0 0 4.4-1.244 7.999 7.999 0 0 0 1.706-1.019v8.323a3.055 3.055 0 0 1-3.05 3.046ZM19.309 9.6c-1.134.49-2.323.837-3.542 1.036V5.161a3.056 3.056 0 1 1 6.112 0v1.372c0 1.207-.96 2.355-2.57 3.067Z" fill="url(#b)"/></g><defs><linearGradient id="b" x1="1.52" y1="22.151" x2="22.343" y2="1.271" gradientUnits="userSpaceOnUse"><stop stop-color="#00AEE9"/><stop offset="1" stop-color="#69FABD"/></linearGradient><clipPath id="a"><path fill="#fff" d="M0 0h24v24H0z"/></clipPath></defs></svg>