<svg width="24" height="24" fill="none" xmlns="http://www.w3.org/2000/svg"><path d="M12 24c6.627 0 12-5.373 12-12S18.627 0 12 0 0 5.373 0 12s5.373 12 12 12Z" fill="#000"/><path d="M11.975 22.718c5.92 0 10.719-4.798 10.719-10.718s-4.8-10.718-10.719-10.718C6.055 1.282 1.257 6.08 1.257 12s4.799 10.718 10.718 10.718Z" fill="#FEF102"/><path d="M17.051 7.98c-.251-.579-.49-1.71-1.143-1.961-.842-.327-1.37 1.797-1.496 2.337h-.125c-.214-.917-.503-2.224-1.508-2.513-.465 1.96.49 4.084 1.382 5.78.955-.452 1.42-1.885 1.508-2.89h.126L16.8 11.75c.804-.226 1.093-1.03 1.382-1.76.628-1.557 1.156-3.48.754-5.151-1.206.34-1.57 2.073-1.885 3.141ZM4.988 12c1.081-.515 1.596-2.148 1.76-3.267h.125c.126.54.465 1.935 1.144 2.023.854.113 1.306-1.797 1.37-2.4h.125c.276.943.565 2.174 1.508 2.639.352-1.47-.063-3.028-.603-4.398-.139-.352-.415-1.307-.905-1.307-.792 0-1.244 2.099-1.382 2.69h-.126L6.999 4.963c-1.772.841-2.727 5.34-2.01 7.036Zm-1.884 1.508c1.306 5.73 7.363 8.972 12.816 6.547a8.87 8.87 0 0 0 4.461-4.41c.239-.503.691-1.433.427-2.1-.264-.665-2.865.428-3.506.704a.327.327 0 0 0-.175.227.51.51 0 0 0 .427.578h.038l1.093.088c-1.973 3.82-7.3 5.503-11.058 2.45-.842-.679-1.596-1.483-2.098-2.45-.24-.465-.465-1.056-.88-1.383-.402-.301-1.005-.402-1.545-.25Z" fill="#000"/></svg>