<svg width="24" height="24" fill="none" xmlns="http://www.w3.org/2000/svg"><path fill-rule="evenodd" clip-rule="evenodd" d="M11.073 3.205c-.635-.382-2.278.327-2.508 1.073-.338 1.094 2.493 3.689 2.978 3.43.26-.138.545-3.891-.47-4.503Z" fill="#F5A51E"/><path fill-rule="evenodd" clip-rule="evenodd" d="M10.795 8.245c.085-.281-2.366-3.137-3.516-2.852-.72.179-1.38 1.842-1.015 2.532.535 1.013 4.37.845 4.53.32Z" fill="#F5A51E"/><path fill-rule="evenodd" clip-rule="evenodd" d="M10.646 9.152c-.139-.26-3.892-.545-4.503.47-.382.635.327 2.278 1.072 2.508 1.095.338 3.69-2.493 3.43-2.978Z" fill="#F5A51E"/><path fill-rule="evenodd" clip-rule="evenodd" d="M11.182 9.9c-.281-.086-3.137 2.366-2.851 3.516.178.719 1.841 1.38 2.531 1.015 1.013-.535.846-4.371.32-4.531Z" fill="#F5A51E"/><path fill-rule="evenodd" clip-rule="evenodd" d="M12.09 10.049c-.26.138-.545 3.891.47 4.503.635.382 2.278-.327 2.508-1.073.338-1.094-2.493-3.689-2.978-3.43Z" fill="#F5A51E"/><path fill-rule="evenodd" clip-rule="evenodd" d="M12.837 9.513c-.085.28 2.367 3.137 3.516 2.851.72-.178 1.38-1.841 1.015-2.531-.534-1.013-4.37-.846-4.53-.32Z" fill="#F5A51E"/><path fill-rule="evenodd" clip-rule="evenodd" d="M16.417 5.627c-1.094-.338-3.689 2.493-3.43 2.978.138.26 3.891.545 4.503-.47.382-.635-.327-2.278-1.073-2.508Z" fill="#F5A51E"/><path fill-rule="evenodd" clip-rule="evenodd" d="M12.45 7.857c.282.086 3.138-2.366 2.852-3.516-.178-.719-1.841-1.38-2.531-1.015-1.013.535-.846 4.371-.32 4.531Z" fill="#F5A51E"/><path fill-rule="evenodd" clip-rule="evenodd" d="M17.687 12.655c-.343.45-.732.961-1.125 1.61-1.68 2.77-3.792 5.753-4.815 7.168-1.022-1.415-3.134-4.397-4.815-7.169a17.632 17.632 0 0 0-1.124-1.608c-.84-1.102-1.394-1.83-1.394-3.749 0-2.818 1.158-4.904 3.442-6.2 1.919-1.088 3.873-1.185 3.89-1.185.018 0 1.98.113 3.887 1.197 2.288 1.3 3.448 3.382 3.448 6.188 0 1.919-.555 2.647-1.394 3.748Zm-1.338-11.28C14.32.234 12.203 0 11.747 0c-.463 0-2.608.234-4.629 1.376-1.928 1.09-4.226 3.281-4.226 7.531 0 2.432.79 3.47 1.705 4.67.336.441.683.897 1.034 1.476 2.333 3.848 5.474 8.083 5.505 8.125l.611.822.611-.822c.031-.042 3.173-4.277 5.506-8.125.35-.579.698-1.035 1.033-1.475.916-1.201 1.706-2.239 1.706-4.671 0-4.247-2.313-6.44-4.254-7.531Z" fill="#F5A51E"/></svg>