<svg width="24" height="24" fill="none" xmlns="http://www.w3.org/2000/svg"><path d="M12 24c6.627 0 12-5.373 12-12S18.627 0 12 0 0 5.373 0 12s5.373 12 12 12Z" fill="url(#a)"/><path d="M6.75 6.975 8.025 6.3l.15.3 4.65-2.7-.3-.225-.375-.225-.15-.075L4.35 7.8v.15l2.175-1.2.225.225Zm0 2.85 3.675-2.175.15.3 4.725-2.7-.375-.225-.375-.15-.15-.075-10.05 5.775v.15l2.175-1.2.225.3Zm0 1.35L11.625 8.4l.15.225 4.725-2.7-.375-.15-.375-.225-.15-.075-11.25 6.45v.225l2.175-1.275.225.3Zm0 1.35 6.075-3.45.15.225L17.7 6.675l-.375-.225-.375-.225-.15-.075-12.45 7.2v.15l2.175-1.2.225.225Zm0 1.425 7.275-4.2.15.3 4.725-2.7-.375-.225-.3-.15-.225-.15L4.35 14.7v.225l2.175-1.275.225.3Zm12.6-6.3-.15-.15-14.85 8.625v.15l2.175-1.2.225.3 7.275-4.275.15.3 5.475-3.075V7.8l-.3-.15ZM5.325 17.175l1.2-.75.15.3 7.35-4.2.15.3 5.475-3.15V8.7L5.1 17.025l.225.15Zm8.7-3.225.15.3 5.475-3.225v-.975L6.3 17.775l.225.075 1.2-.75.225.3 6.075-3.45Zm-6.3 4.575L9 17.85l.15.3 4.875-2.85.15.3 5.475-3.15v-.975L7.5 18.45l.225.075Zm1.2.675 1.275-.675.15.3 3.675-2.1.15.3 5.475-3.15v-1.05l-10.95 6.3.225.075Zm.975.6.225.15 1.275-.75.15.3 2.475-1.425.15.3 5.475-3.15v-.975L9.9 19.8Zm1.425.825 1.2-.75.225.3 1.275-.675.15.3 5.475-3.15V15.6l-8.475 4.95.15.075ZM14.1 4.575l-.375-.225-.375-.15-.15-.15-8.85 5.1v.225L6.525 8.1l.225.3 2.475-1.425.15.3 4.725-2.7Z" fill="#fff"/><defs><linearGradient id="a" x1="0" y1="12" x2="24" y2="12" gradientUnits="userSpaceOnUse"><stop stop-color="#001C3A"/><stop offset=".6" stop-color="#001E3D"/><stop offset=".7" stop-color="#001F3F"/><stop offset="1" stop-color="#002042"/></linearGradient></defs></svg>