<svg width="24" height="24" viewBox="0 0 24 24" fill="none" xmlns="http://www.w3.org/2000/svg">
<path fill-rule="evenodd" clip-rule="evenodd" d="M11.073 3.2055C10.4385 2.82346 8.79516 3.5324 8.56503 4.27788C8.22714 5.37236 11.0581 7.9669 11.5429 7.70834C11.8023 7.57002 12.0879 3.81662 11.073 3.2055Z" fill="#F5A51E"/>
<path fill-rule="evenodd" clip-rule="evenodd" d="M10.7949 8.24489C10.8805 7.96357 8.42852 5.10751 7.27871 5.39309C6.55983 5.57161 5.89918 7.23494 6.26356 7.92479C6.79865 8.93764 10.6349 8.77047 10.7949 8.24489Z" fill="#F5A51E"/>
<path fill-rule="evenodd" clip-rule="evenodd" d="M10.6458 9.15229C10.5075 8.89284 6.75418 8.60714 6.143 9.62218C5.76096 10.2567 6.4699 11.9 7.21538 12.1301C8.30986 12.468 10.9044 9.63707 10.6458 9.15229Z" fill="#F5A51E"/>
<path fill-rule="evenodd" clip-rule="evenodd" d="M11.1823 9.89965C10.901 9.81399 8.04501 12.266 8.33059 13.4159C8.50911 14.1347 10.1724 14.7954 10.8622 14.431C11.8751 13.8959 11.7079 10.0596 11.1823 9.89965Z" fill="#F5A51E"/>
<path fill-rule="evenodd" clip-rule="evenodd" d="M12.0903 10.0488C11.8308 10.1871 11.5452 13.9404 12.5601 14.5516C13.1946 14.9337 14.838 14.2247 15.0681 13.4792C15.406 12.3847 12.575 9.7902 12.0903 10.0488Z" fill="#F5A51E"/>
<path fill-rule="evenodd" clip-rule="evenodd" d="M12.8371 9.51256C12.7515 9.79388 15.2036 12.6499 16.3534 12.3643C17.0722 12.1858 17.7329 10.5225 17.3685 9.83266C16.8335 8.81981 12.9971 8.98692 12.8371 9.51256Z" fill="#F5A51E"/>
<path fill-rule="evenodd" clip-rule="evenodd" d="M16.4172 5.62704C15.3227 5.28915 12.7282 8.12009 12.9868 8.60482C13.1251 8.86426 16.8784 9.14996 17.4896 8.13498C17.8716 7.50046 17.1626 5.85717 16.4172 5.62704Z" fill="#F5A51E"/>
<path fill-rule="evenodd" clip-rule="evenodd" d="M12.4506 7.85739C12.7318 7.94304 15.5878 5.49102 15.3023 4.34115C15.1237 3.62233 13.4605 2.96168 12.7707 3.32606C11.7578 3.86109 11.9249 7.69743 12.4506 7.85739Z" fill="#F5A51E"/>
<path fill-rule="evenodd" clip-rule="evenodd" d="M17.6867 12.6555C17.3438 13.1057 16.955 13.616 16.562 14.2641C14.8817 17.0357 12.77 20.0184 11.7472 21.4335C10.7245 20.0184 8.61282 17.0357 6.93241 14.2641C6.53948 13.616 6.15075 13.1057 5.80772 12.6555C4.96825 11.5536 4.41365 10.8257 4.41365 8.90696C4.41365 6.08908 5.57174 4.00333 7.85558 2.70768C9.77464 1.61888 11.7293 1.52205 11.7453 1.52205C11.7636 1.52234 13.7258 1.63507 15.6331 2.71903C17.9209 4.01911 19.0808 6.10097 19.0808 8.90696C19.0808 10.8257 18.5262 11.5537 17.6867 12.6555ZM16.3494 1.37551C14.3199 0.233438 12.2031 0 11.7472 0C11.2837 0 9.13946 0.233557 7.11797 1.37622C5.18993 2.46597 2.8916 4.65712 2.8916 8.90696C2.8916 11.3395 3.68195 12.3767 4.59702 13.5779C4.93272 14.0185 5.27984 14.4741 5.63091 15.0532C7.96382 18.9011 11.105 23.1359 11.1364 23.1782L11.7472 24L12.3581 23.1782C12.3895 23.1359 15.5307 18.9011 17.8636 15.0532C18.2147 14.4741 18.5618 14.0185 18.8974 13.5779C19.8125 12.3768 20.6029 11.3395 20.6029 8.90696C20.6029 4.66049 18.2898 2.46745 16.3494 1.37551Z" fill="#F5A51E"/>
</svg>
