<svg width="24" height="24" fill="none" xmlns="http://www.w3.org/2000/svg"><path d="M12 24c6.627 0 12-5.373 12-12S18.627 0 12 0 0 5.373 0 12s5.373 12 12 12Z" fill="#30C0F2"/><path d="M16.423 5.25s.234 1.165 1.485 1.244c0 0 4.141 9.637-5.94 13.756 0 0-9.298-2.953-6.016-13.678 0 0 1.407-.079 1.64-1.322h8.831Zm-.468.767h-7.89l-.01.168c-.066.367-.25.623-.52.795a1.417 1.417 0 0 1-.548.204l-.138.013-.04.133c-.726 2.483-.751 4.628-.179 6.458.47 1.5 1.32 2.73 2.44 3.712.59.519 1.244.96 1.945 1.315a8.141 8.141 0 0 0 .896.386l.074.023.07-.03c2.78-1.188 4.462-2.983 5.215-5.22.622-1.845.567-3.81.102-5.67a10.657 10.657 0 0 0-.354-1.136l-.047-.118-.129-.008c-.364-.024-.596-.173-.74-.411a1.026 1.026 0 0 1-.138-.42l-.009-.194Z" fill="#fff"/><path d="M8.42 6.426c4.776 0 7.164.001 7.164.002.033.14.086.28.165.413.191.318.5.534.932.595.113.318.21.64.292.968.447 1.79.5 3.679-.093 5.44-.71 2.105-2.285 3.8-4.914 4.943a7.652 7.652 0 0 1-.764-.337 8.953 8.953 0 0 1-1.86-1.256c-1.067-.936-1.874-2.103-2.32-3.527-.538-1.721-.523-3.745.146-6.1.209-.048.408-.13.59-.243.318-.204.552-.5.663-.898Z" fill="#F9B631"/><path d="M11.319 8.937c.349-.118.724-.135 1.083-.05 1.234.277 1.335 1.27 1.312 1.726h.228c.355 0 .643.286.645.64v2.682a.645.645 0 0 1-.645.641h-3.868a.645.645 0 0 1-.645-.64v-2.682a.645.645 0 0 1 .645-.641h.167c.022-1.075.596-1.505 1.078-1.676Zm1.242 2.711a.505.505 0 0 0-.553-.102.505.505 0 0 0-.202.968l-.228 1.13h.86l-.228-1.13a.505.505 0 0 0 .35-.866Zm.528-1.035c.021-1.31-1.198-1.244-1.198-1.244-.925.062-1.073.893-1.094 1.244h2.292Z" fill="#fff"/></svg>