<svg width="24" height="24" fill="none" xmlns="http://www.w3.org/2000/svg"><path d="M11.996 0C5.371 0 0 5.37 0 11.996s5.37 11.997 11.996 11.997 11.997-5.37 11.997-11.997C23.99 5.371 18.62 0 11.996 0ZM9.57 6.309c.478-.296 1.894 1.913 2.161 1.951.269.039.958-.65 1.397-1.014.439-.364 2.364-1.57 2.448-1.445.086.125-1.35.958-2.143 1.57-.795.611-1.355 1.545-1.988 1.545-.634 0-1.78-1.78-1.942-1.977a.42.42 0 0 1 .067-.63Zm6.192 10.174-1.199-4.974-2.568 3.087-2.612-3.09-1.199 4.975H5.918L8.184 6.94l3.81 4.666 3.715-4.666 2.247 9.538-2.195.005Z" fill="#FF9616"/></svg>