<svg width="24" height="24" viewBox="0 0 24 24" fill="none" xmlns="http://www.w3.org/2000/svg">
<path fill-rule="evenodd" clip-rule="evenodd" d="M24 12C24 18.6274 18.6274 24 12 24C5.37255 24 0 18.6274 0 12C0 5.37255 5.37255 0 12 0C18.6274 0 24 5.37255 24 12Z" fill="#84BF42"/>
<path fill-rule="evenodd" clip-rule="evenodd" d="M12.0302 12.5478H17.3404V11.5109H12.0302V12.5478ZM12.0302 12.9202H17.308V17.2465C16.7671 17.6388 16.0137 17.9545 15.0475 18.1937C14.0808 18.433 13.1416 18.5527 12.2293 18.5527C10.1816 18.5527 8.56454 17.9602 7.37886 16.7751C6.19245 15.59 5.59961 14.0143 5.59961 12.0478C5.59961 10.0872 6.25 8.49688 7.55077 7.27726C8.85201 6.05757 10.4906 5.44775 12.7006 5.44775C14.2479 5.44775 15.9168 6.35757 16.8201 7.22488L15.3747 8.83295C13.1605 6.27237 7.6233 7.38744 7.83678 12.117C8.05159 16.8745 12.7006 17.5962 15.2806 15.6232V13.9571H12.0302V12.9202Z" fill="#FFFFFE"/>
</svg>
