<svg width="24" height="24" fill="none" xmlns="http://www.w3.org/2000/svg"><g clip-path="url(#a)"><path d="M12.512 6.163 17.4 9.11l-4.887 2.794L7.405 9.11l5.107-2.947Z" fill="#EA259E"/><path d="M7.405 9.216 12.512 12l-.028 5.683-5.079-2.688v-5.78Z" fill="#014C99"/><path d="m12.512 12 4.944-2.784.144 5.78-5.021 2.793-.067-5.79Z" fill="#08B0F9"/><path d="m22.669 5.808-.077-.048-4.877-2.794L12.608.038 12.54 0l-.058.029a1.95 1.95 0 0 0-.278.125L7.75 2.755 2.24 5.981c-.23.105-.221.345-.221.49v.105l-.01 8.18L2 17.788c-.009.182.068.346.202.403l6.336 3.6 3.744 2.131a.47.47 0 0 0 .24.077.278.278 0 0 0 .183-.057l5.414-3.12 4.608-2.65c.173-.077.279-.25.25-.413l.02-11.491c.028-.269-.193-.394-.327-.46Zm-10.167.73 4.464 2.592-4.454 2.563-1.517-.854L8 9.139l4.502-2.601Zm5.07 2.236-4.84-2.812a.384.384 0 0 0-.44-.01L7.394 8.794 2.941 6.269l3.11-1.815 6.46-3.772 5.943 3.408 3.63 2.083-4.513 2.601ZM2.632 6.797 7.07 9.312l.086 5.53a.409.409 0 0 0 .211.393l2.947 1.69 1.892 1.085v5.174l-9.59-5.453.018-10.934Zm5.05 2.86 4.531 2.564-.01 5.088-4.435-2.544-.086-5.107Zm5.136 8.362 1.891-1.094 2.919-1.67.028-.02a.478.478 0 0 0 .173-.144l.03-.038v-.048l-.01-3.667V9.322L22.38 6.7v4.464l-.009 6.509-6.077 3.494-3.485 2.007.01-5.156Zm0-.7V12.22l4.464-2.573v5.107L12.82 17.32Z" fill="#2F2F2F"/><path d="M12.377 1.277a.412.412 0 0 0-.307.22c-.058.135-.048.279.02.375a.407.407 0 0 0 .421.173.359.359 0 0 0 .317-.279.365.365 0 0 0-.086-.365.394.394 0 0 0-.365-.124Zm.26 1.68a.414.414 0 0 0-.423.01.404.404 0 0 0-.192.297c-.01.134.048.25.125.317a.385.385 0 0 0 .278.105.442.442 0 0 0 .173-.038.369.369 0 0 0 .24-.346c.01-.134-.077-.269-.202-.345Zm.009 1.65a.418.418 0 0 0-.423-.018.37.37 0 0 0-.201.307c-.01.134.048.278.153.345.073.054.16.08.25.077a.442.442 0 0 0 .336-.165.375.375 0 0 0-.115-.545ZM6.128 15.37a.384.384 0 0 0-.279.298.393.393 0 0 0 .125.384.355.355 0 0 0 .24.086.37.37 0 0 0 .086-.01.374.374 0 0 0 .27-.22.37.37 0 0 0-.068-.422.354.354 0 0 0-.374-.116Zm12.403.778a.332.332 0 0 0 .096-.02c.125-.028.23-.114.259-.21a.415.415 0 0 0-.067-.442.374.374 0 0 0-.394-.106.387.387 0 0 0-.269.298.398.398 0 0 0 .135.384.305.305 0 0 0 .24.096Zm-13.805.048a.374.374 0 0 0-.25.336.383.383 0 0 0 .183.384.364.364 0 0 0 .192.058.403.403 0 0 0 .163-.039c.125-.058.211-.173.22-.278a.414.414 0 0 0-.143-.394.346.346 0 0 0-.365-.067Zm15.168.768a.372.372 0 0 0 .134-.02c.135-.047.23-.163.24-.278a.384.384 0 0 0-.115-.393.365.365 0 0 0-.55.047.413.413 0 0 0 .05.567c.07.052.155.08.24.077Zm-16.224.086a.355.355 0 0 0-.365 0 .38.38 0 0 0-.201.346.37.37 0 0 0 .201.346.335.335 0 0 0 .173.047.393.393 0 0 0 .211-.057.412.412 0 0 0 .183-.355.4.4 0 0 0-.202-.336v.01Zm17.366.653a.345.345 0 0 0 .23.086c.05 0 .1-.01.145-.028a.402.402 0 0 0 .24-.308.382.382 0 0 0-.173-.393.348.348 0 0 0-.394-.01.404.404 0 0 0-.192.327c-.01.134.048.259.144.326Z" fill="#2F2F2F"/></g><defs><clipPath id="a"><path fill="#fff" d="M0 0h24v24H0z"/></clipPath></defs></svg>