<svg width="24" height="24" fill="none" xmlns="http://www.w3.org/2000/svg"><path d="M10.504.653c.746-.837 2.181-.856 2.95-.042.485.44.597 1.116.614 1.737-.272-.42-.466-.912-.862-1.24-.73-.609-1.939-.548-2.584.16-.312.346-.47.792-.704 1.19.011-.64.107-1.336.586-1.805ZM8.155 5.249c1.328 1.555 2.54 3.206 3.851 4.776 1.303-1.572 2.53-3.205 3.842-4.771-.145.64-.355 1.267-.444 1.917-.053.324.13.617.268.896 1.408 2.58 2.773 5.184 4.167 7.771.23.484.807.791 1.329.597.472-.134.684-.617.863-1.028 1.073-2.533 1.189-5.479.21-8.06-.235-.625-.575-1.215-.684-1.882.608.447.935 1.144 1.25 1.805a11.852 11.852 0 0 1 .914 7.727 11.96 11.96 0 0 1-4.158 6.758c-.656.543-1.387.984-2.126 1.4-.192-.38-.42-.753-.512-1.174-.02-.28.123-.538.196-.8.33-.915.29-1.937-.03-2.847a505.915 505.915 0 0 1-2.321-6.848c-.126-.385-.357-.719-.57-1.058.072.631-.438 1.068-.724 1.57-.476.842-.956 1.685-1.547 2.453-.13-.543-.09-1.104-.133-1.657-.058.342-.084.688-.123 1.032-.766-1.03-1.381-2.164-2.103-3.226-.968 2.715-1.845 5.461-2.82 8.175a75.255 75.255 0 0 0-.696-.442c-.015.204-.027.407-.04.61.244.31.476.629.695.956a28.913 28.913 0 0 1-.648-.059c.216.172.518.298.595.588.179.555.3 1.14.621 1.636.403.72 1.173 1.113 1.619 1.799-1.067-.081-2.066-.522-2.972-1.07-2.158-1.267-3.915-3.216-4.916-5.514a11.986 11.986 0 0 1-.561-8.047C.803 7.9 1.435 6.66 2.21 5.525l.296.14c-.533 1.056-.969 2.163-1.22 3.32a19.958 19.958 0 0 1-.373-.126c.261.329.308.746.244 1.151-.205 1.96.125 3.978.986 5.754.204.46.682.674 1.082.93.359-.284.763-.54.984-.956.42-.745.784-1.52 1.226-2.25.092.127.184.256.275.385-.084-.351-.16-.738.054-1.061.83-1.534 1.64-3.08 2.472-4.611.166-.347.448-.702.347-1.108-.12-.62-.316-1.222-.429-1.844Zm6.108 3.763c.261-.185.552-.317.854-.423-.095-.204-.188-.408-.28-.613-.201.339-.395.684-.574 1.036Zm-1.332.734c.195.254.471.42.763.541-.201-.247-.482-.403-.763-.541Zm-.847 2.163c-.174.169.12.436.283.27.18-.169-.123-.438-.283-.27Zm5.434 4.813.595-.26-.246-.263c-.115.175-.232.35-.349.524ZM4.156 20.305c-.007.217-.012.434-.018.652.22.104.436.213.651.328a7.758 7.758 0 0 1-.633-.98Zm1.822.007.032.27.437.178a31.194 31.194 0 0 1-.139-.355l-.33-.093" fill="#324132"/><path d="M15.099 23.716c.52-.444 1.047-.888 1.488-1.415.341.22.559.563.689.942-.619.263-1.248.499-1.883.721l-.294-.248Z" fill="#324132"/></svg>