<svg width="24" height="24" viewBox="0 0 24 24" fill="none" xmlns="http://www.w3.org/2000/svg">
<path d="M8.31519 4.12111C9.28588 4.12111 10.0728 3.33422 10.0728 2.36353C10.0728 1.39285 9.28588 0.605957 8.31519 0.605957C7.34451 0.605957 6.55762 1.39285 6.55762 2.36353C6.55762 3.33422 7.34451 4.12111 8.31519 4.12111Z" fill="#8352A1"/>
<path d="M16.1941 23.2725C17.1648 23.2725 17.9517 22.4856 17.9517 21.5149C17.9517 20.5442 17.1648 19.7573 16.1941 19.7573C15.2234 19.7573 14.4365 20.5442 14.4365 21.5149C14.4365 22.4856 15.2234 23.2725 16.1941 23.2725Z" fill="#3E99D3"/>
<path d="M15.4131 1.02961L7.26958 7.32136C6.55655 7.87226 6.42511 8.89688 6.97601 9.60992C7.5269 10.323 8.55153 10.4544 9.26456 9.90349L17.4081 3.61174C18.1211 3.06085 18.2525 2.03622 17.7016 1.32319C17.1507 0.61015 16.1261 0.478711 15.4131 1.02961Z" fill="#E53C54"/>
<path d="M15.4121 7.45393L7.26861 13.7457C6.55557 14.2966 6.42413 15.3212 6.97503 16.0342C7.52593 16.7473 8.55055 16.8787 9.26359 16.3278L17.4071 10.0361C18.1201 9.48516 18.2516 8.46054 17.7007 7.7475C17.1498 7.03447 16.1252 6.90303 15.4121 7.45393Z" fill="#F49352"/>
<path d="M7.14849 20.4132L15.292 14.1214C16.005 13.5705 17.0297 13.7019 17.5806 14.415C18.1315 15.128 18 16.1526 17.287 16.7035L9.14347 22.9953C8.43043 23.5462 7.40581 23.4147 6.85491 22.7017C6.30401 21.9887 6.43545 20.9641 7.14849 20.4132Z" fill="#3EBB90"/>
</svg>
