<svg width="24" height="24" fill="none" xmlns="http://www.w3.org/2000/svg"><path opacity=".2" d="M3.155 19.996 4.492 24l9.177-12L4.492 0 3.09 3.917l6.096 8.08-6.03 7.999Z" fill="#FF564F"/><path d="M22.716 23.998h-4.355l-9.178-12L18.36 0h4.355l-9.05 11.998 9.05 12Z" fill="#F08179"/><path d="M1 0h3.49v23.998H1V0ZM22.72 23.998h-4.355l-9.179-12L18.365 0h4.355l-9.05 11.998 9.05 12Z" fill="#FF564F"/><path d="M22.72 23.998h-4.355l-9.179-12L18.365 0h4.355l-9.05 11.998 9.05 12Z" fill="#FF564F"/><path d="M22.72 23.998h-4.355l-9.179-12L18.365 0h4.355l-9.05 11.998 9.05 12Z" fill="#FF564F"/><path d="M22.72 23.998h-4.355l-9.179-12L18.365 0h4.355l-9.05 11.998 9.05 12Z" fill="#FF564F"/></svg>