<svg width="24" height="24" fill="none" xmlns="http://www.w3.org/2000/svg"><path d="M12.037.13v.012c.012.06.012.13.012.201v8.524c-.012.047-.048.06-.083.083-.248.118-.485.225-.733.33-.343.155-.698.32-1.04.474l-1.242.567c-.343.154-.686.308-1.017.461-.402.19-.815.367-1.217.556-.343.154-.686.32-1.04.473-.285.13-.568.248-.84.378-.024.012-.048.024-.071.024-.012 0-.012 0-.024-.012l.32-.532c.614-1.017 1.217-2.022 1.832-3.038.65-1.088 1.312-2.176 1.962-3.263.603-1.005 1.218-2.01 1.821-3.015.438-.733.887-1.466 1.324-2.2.012-.023.024-.035.024-.058h.012c-.012.012 0 .023 0 .035Z" fill="#8A92B2"/><path d="m19.296 12.201.011.012-1.738 1.029-5.462 3.227a.257.257 0 0 0-.059.036c-.035 0-.035-.036-.035-.048V9.045c0-.036 0-.083.011-.119.012-.047.048-.035.083-.023.154.07.32.142.473.212.461.213.922.426 1.383.627.402.177.793.367 1.195.544.402.177.803.366 1.205.544.343.153.698.319 1.04.473.344.153.698.319 1.041.473.272.118.544.248.816.366 0 .036.012.047.035.06Z" fill="#454A75"/><path d="M12.036 23.846c0 .012-.012.024-.012.036h-.012c0-.024-.024-.036-.035-.06-.733-1.028-1.466-2.068-2.2-3.097-.744-1.052-1.5-2.116-2.246-3.168-.72-1.017-1.454-2.046-2.175-3.062-.19-.272-.378-.532-.567-.804-.012-.024-.024-.036-.048-.071.036 0 .06.023.071.035 1.029.603 2.045 1.206 3.074 1.809 1.182.697 2.353 1.395 3.535 2.093l.603.354c.024.024.024.047.024.071v5.699c0 .059 0 .118-.012.165Z" fill="#8A92B2"/><path d="M4.73 12.225v-.012c.378-.166.744-.343 1.123-.509.484-.224.97-.437 1.454-.662.366-.165.745-.342 1.111-.508.544-.248 1.076-.485 1.62-.733.366-.166.733-.331 1.111-.508.26-.119.532-.237.792-.355.024-.012.06-.024.071-.047.012 0 .012.011 0 .023v7.508c0 .035-.012.07.012.094-.024.036-.047 0-.059-.012a4.545 4.545 0 0 1-.32-.189L4.79 12.26a.259.259 0 0 0-.06-.035ZM19.272 13.62h.012c0 .023-.024.047-.036.07-2.175 3.063-4.35 6.136-6.526 9.199-.225.319-.461.638-.686.957-.012-.012-.012-.023-.012-.035v-5.912c.497-.295.982-.579 1.478-.874 1.915-1.135 3.83-2.259 5.734-3.393.012.011.024 0 .036-.012Z" fill="#62688F"/><path d="M12.024 8.915V.236c0-.036-.012-.06.012-.095 2.4 3.984 4.8 7.957 7.188 11.941.023.035.059.083.07.13-.165-.06-.319-.142-.472-.213-.19-.082-.39-.177-.58-.26-.118-.059-.248-.106-.366-.165-.201-.095-.402-.178-.603-.272-.118-.048-.236-.107-.355-.166l-.78-.354c-.13-.06-.26-.119-.402-.178l-.568-.248a4.758 4.758 0 0 1-.354-.166l-.78-.354c-.13-.06-.26-.119-.402-.178l-.568-.248c-.13-.06-.248-.118-.378-.177A12.02 12.02 0 0 0 12 8.926c.036-.011.024-.011.024-.011Z" fill="#62688F"/></svg>