<svg width="24" height="24" fill="none" xmlns="http://www.w3.org/2000/svg"><path fill-rule="evenodd" clip-rule="evenodd" d="M11.682 0c4.952.044 8.704 3.35 9.43 7.743.822 4.967-2.55 9.703-7.51 10.559-.67.115-1.355.16-2.035.2-1.378.078-2.772 1.01-3.095 2.841-.093.525-.217 1.045-.33 1.566-.162.758-.804 1.208-1.514 1.064-.735-.148-1.16-.805-1-1.577.203-.986.42-1.97.632-2.954C6.998 16 7.738 12.559 8.473 9.117c.17-.792.637-1.225 1.34-1.212.778.016 1.377.734 1.216 1.497-.385 1.828-.786 3.652-1.18 5.477-.076.353-.146.707-.224 1.06-.03.142-.006.214.163.195 1.046-.118 2.093-.216 3.137-.348 2.777-.353 5.104-2.564 5.606-5.31.67-3.667-1.698-7.1-5.37-7.779-3.664-.678-7.27 1.944-7.76 5.639a6.615 6.615 0 0 0 .277 2.981c.248.753-.094 1.5-.789 1.72-.726.232-1.43-.159-1.673-.928C1.555 6.858 4.616 1.482 9.994.24c.651-.151 1.329-.19 1.688-.239Z" fill="#000"/><path fill-rule="evenodd" clip-rule="evenodd" d="M10.8 22.453a1.495 1.495 0 0 1 1.524-1.517c.871 0 1.547.677 1.535 1.538a1.516 1.516 0 0 1-1.532 1.52c-.873 0-1.529-.662-1.526-1.54Z" fill="#E6027A"/></svg>