<svg width="24" height="24" fill="none" xmlns="http://www.w3.org/2000/svg"><path d="M24 12c0 6.628-5.372 12-12 12S0 18.628 0 12 5.372 0 12 0s12 5.372 12 12Z" fill="#000"/><path d="M22.604 12.103c0 5.8-4.702 10.501-10.501 10.501-5.8 0-10.501-4.702-10.501-10.501 0-5.8 4.702-10.501 10.5-10.501 5.8 0 10.502 4.702 10.502 10.5Z" fill="#fff" opacity=".95"/><path d="m16.076 9.079-7.54 7.71-.165-3.106L12.92 9.08l1.885-1.957 1.22-.402.886.232.83.69-1 1.149-.664.288Z" fill="#fff"/><path opacity=".3" d="m16.76 9.295-1.509 1.555h2.287l.257-.263c.18-.185.325-.412.422-.654.098-.247.145-.51.145-.772 0-.525-.196-1.025-.546-1.406l-1.04 1.081c.056.062.082.15.082.232a.377.377 0 0 1-.098.227ZM10.56 15.84l-1.23 1.278h2.286l1.241-1.278H10.56ZM11.179 15.193h2.286l1.365-1.417h-2.287l-1.364 1.417ZM16.914 11.613h-2.286l-1.463 1.51h2.287l1.462-1.51Z" fill="#000"/><path d="M17.67 7.195a2.559 2.559 0 0 0-.829-.577 2.465 2.465 0 0 0-.978-.201 2.465 2.465 0 0 0-1.808.783l-5.923 6.118a.352.352 0 0 0-.087.242v3.152l-1.633 1.705h.896l1.21-1.251h3.029a.267.267 0 0 0 .123-.026.283.283 0 0 0 .098-.077l5.887-6.098.01-.01c.48-.5.747-1.175.742-1.875a2.613 2.613 0 0 0-.19-1.015 2.424 2.424 0 0 0-.546-.87Zm-3.44.71.258-.262c.365-.376.86-.587 1.375-.587s1.01.21 1.375.587c.01.01.01.02.02.02.35.381.546.891.546 1.422a2.062 2.062 0 0 1-.566 1.411l-.258.263h-2.286l1.498-1.556a.333.333 0 0 0 .01-.448c-.01-.01-.01-.01-.01-.02a.3.3 0 0 0-.221-.093.32.32 0 0 0-.222.093L14.23 10.31V7.905Zm-5.088 8.607 1.23-1.278h2.287l-1.23 1.278H9.141Zm3.59-3.724 1.462-1.52h2.287l-1.463 1.52h-2.287Zm1.787.515-1.365 1.416h-2.287l1.365-1.416h2.287Zm-2.251-3.368 1.463-1.52v2.405l-1.463 1.52V9.935Zm-1.865 1.931 1.365-1.416v2.405l-1.365 1.416v-2.405Zm-1.74 1.808 1.251-1.288v2.405L8.663 16.08" fill="#000"/></svg>