<svg width="24" height="24" fill="none" xmlns="http://www.w3.org/2000/svg"><path d="M12 24c6.627 0 12-5.373 12-12S18.627 0 12 0 0 5.373 0 12s5.373 12 12 12Z" fill="#F80000"/><path d="M15.375 12.632 10.353 19.5l.185-5.58H9.375l.476-4.9 5.313-.732-1.745 4.444 1.956-.1Zm-4.123 4.873v-1.313a.181.181 0 0 0-.185-.177.181.181 0 0 0-.185.177v1.313c0 .098.082.177.185.177a.18.18 0 0 0 .184-.177Zm-1.375-3.964h1.058l-.049 2.02c0 .053.02.104.06.142.039.037.092.06.147.06h.01a.203.203 0 0 0 .206-.194l.048-2.383H10.3l.354-3.914a.16.16 0 0 0-.044-.123.172.172 0 0 0-.125-.053h-.03a.167.167 0 0 0-.17.148l-.408 4.296Zm0-4.95 1.957-1.616c.104-1.616-.953-1.869-.953-1.869l.159-.606c1.745.505 1.48 2.424 1.48 2.424l2.538 1.06-5.18.607Z" fill="#fff"/></svg>