<svg width="24" height="24" fill="none" xmlns="http://www.w3.org/2000/svg"><path d="M.23 23.847v-5.595H3.5V5.503H.246V.137h.474c4.402 0 8.774.016 13.177-.015.978 0 1.834.26 2.69.596 1.728.658 3.24 1.682 4.449 3.119a10.603 10.603 0 0 1 2.186 4.387c.642 2.813.657 5.656-.153 8.438-1.07 3.623-3.363 6.115-7.17 6.956a9.155 9.155 0 0 1-2.048.244H.765c-.169-.015-.337-.015-.536-.015Zm9.936-5.61c.749 0 1.467.046 2.186-.016.932-.091 1.773-.382 2.4-1.192.535-.688 1.009-1.376 1.238-2.186.504-1.773.306-3.577-.046-5.366-.199-1.07-.703-2.048-1.376-2.858-.397-.459-.947-.978-1.498-1.07-.917-.168-1.91-.046-2.904-.046v12.734Z" fill="#C2A633"/></svg>