<svg width="24" height="24" viewBox="0 0 24 24" fill="none" xmlns="http://www.w3.org/2000/svg">
<path fill-rule="evenodd" clip-rule="evenodd" d="M0 0H24V24H0V0Z" fill="#0886FB"/>
<path fill-rule="evenodd" clip-rule="evenodd" d="M19.8906 12.4322C19.9049 12.2944 19.8759 12.1556 19.8078 12.0351C19.6175 11.6961 19.146 11.5555 18.8316 11.7042C18.7623 11.7384 18.7004 11.7862 18.6499 11.8448L15.4077 14.7148V18.0258C15.4077 18.0258 12.2148 17.5377 11.5038 17.3474C10.594 17.1074 9.94726 16.9337 9.35326 16.3798C9.14639 16.1895 8.55942 15.6437 8.52628 14.8735V14.5592L8.50971 6.09757L12.7034 6.73324C13.0343 6.79099 13.8778 6.98129 14.5396 7.58683C14.7531 7.78737 14.9388 8.01551 15.0919 8.26519C15.3485 8.67039 15.3897 8.90187 15.3977 9.05099V11.7122C15.4122 11.8734 15.4756 12.0264 15.5795 12.1505C15.6856 12.2856 15.8397 12.3744 16.0098 12.3986C16.175 12.4152 16.3075 12.3484 16.4401 12.2911C16.5196 12.2528 16.5945 12.2056 16.6635 12.1505L19.9639 9.37988V6.52738C19.9308 5.69186 19.5005 5.08832 19.2193 4.69115C19.0621 4.47624 18.2517 3.39268 16.779 2.88806C16.6465 2.84689 16.539 2.81375 16.4647 2.78764L12.8434 2.12635C12.5655 2.06929 12.2837 2.03337 12.0004 2.0189C11.8352 2.01087 11.1568 1.96869 10.5116 2.08518C9.30355 2.30963 7.68223 3.17677 7.45075 4.45867C7.43669 4.54066 7.42847 4.62355 7.42615 4.70671H7.03751C6.664 4.8423 6.30839 5.02288 5.97856 5.24448C5.64766 5.46792 4.98588 5.92283 4.5144 6.80103C4.20744 7.38877 4.04317 8.04052 4.03488 8.70353V16.7253C4.03349 16.8634 4.03902 17.0015 4.05145 17.139C4.05145 17.139 4.10166 17.8174 4.28292 18.3943C4.48979 19.031 5.12647 20.0819 6.25171 20.7517C6.5826 20.9526 7.32673 21.1238 8.816 21.4713C9.72778 21.6902 10.6533 21.8475 11.5862 21.9422C12.1736 22 12.4548 22 12.7029 21.9834C13.1824 21.9588 13.8361 21.9171 14.5637 21.5697C15.8124 20.9671 16.3833 19.8821 16.5219 19.6009C16.5631 19.518 16.5962 19.4437 16.6223 19.394H16.7875C17.6088 19.1419 18.3406 18.6598 18.8964 18.0047C19.1113 17.7566 19.8394 16.8634 19.9137 15.581C19.922 15.435 19.922 15.2886 19.9137 15.1426C19.8891 14.2243 19.8891 13.331 19.8891 12.4312L19.8906 12.4322ZM9.37786 4.35925C9.62408 4.14633 9.89641 3.96562 10.1883 3.82149C10.4614 3.68893 11.1644 3.35854 11.9668 3.54834C12.0672 3.57294 12.1485 3.59855 12.1982 3.61462L15.937 4.31808C16.6008 4.40409 17.2145 4.7168 17.6743 5.2033C17.8149 5.35394 18.3692 5.96451 18.4355 6.85777C18.4439 6.96505 18.4439 7.07283 18.4355 7.18012V8.66085L16.9211 9.8353V9.0987C16.9095 8.94618 16.8903 8.79435 16.8634 8.64378C16.7535 8.06515 16.5131 7.51922 16.1604 7.04756C16.0278 6.85726 15.2671 5.80684 13.8858 5.35193C13.8115 5.32732 13.7533 5.31076 13.7041 5.29419L9.30355 4.52495L9.37786 4.35975V4.35925ZM14.5145 19.7109C14.1339 20.2983 13.2657 20.3892 12.8354 20.4304C12.6376 20.45 12.4386 20.4556 12.2399 20.447L7.71537 19.6611L7.59134 19.6034C7.27407 19.5405 6.9729 19.4137 6.70612 19.2308C6.42227 19.0345 6.18279 18.7809 6.00316 18.4862C5.83733 18.2274 5.7171 17.9421 5.64766 17.6427C5.59346 17.404 5.57117 17.1591 5.58139 16.9146L5.57335 8.62721V8.50319C5.60649 7.64307 6.25171 6.98129 6.75633 6.58411L6.9632 6.47666C6.97123 9.15644 6.97123 11.8367 6.97977 14.5165C6.97977 14.5908 6.97174 14.6983 6.97977 14.8308C7.03751 16.063 7.76558 16.9482 7.98902 17.2048C8.90738 18.2798 10.1064 18.6107 10.8842 18.8176C11.3803 18.9502 14.631 19.496 14.631 19.496C14.5984 19.5707 14.5596 19.6426 14.515 19.7109H14.5145ZM18.435 15.4017C18.3838 15.926 18.1795 16.4237 17.8475 16.8327C17.6146 17.113 17.3277 17.3437 17.004 17.5111V15.2777C17.4835 14.8805 17.9635 14.4839 18.435 14.0947C18.443 14.525 18.443 14.9634 18.435 15.4002V15.4017Z" fill="#FFFDFC"/>
</svg>
