<svg width="24" height="24" fill="none" xmlns="http://www.w3.org/2000/svg"><g clip-path="url(#a)"><path d="M6.669 2.948c.456-.52.877-.96 1.277-1.334C1.19 1.397 3.158 6.282.944 11.24c-2.534 5.715.3 7.892 4.521 8.572a9.191 9.191 0 0 1-1.427-2.334c-2.724-3.444-1.62-9.722 2.63-14.53Z" fill="#EFE812"/><path d="M22.923 9.036a19.297 19.297 0 0 1-3.411 5.711 16.367 16.367 0 0 1-4.145 3.591 11.19 11.19 0 0 1-6.115 1.737 24.079 24.079 0 0 1-3.774-.263 7.717 7.717 0 0 0 2.524 1.977c6.108 2.954 6.492-2.53 12.954-5.315 3.627-1.563 3.64-4.618 1.963-7.438M15.367 3.334a8.026 8.026 0 0 1 2.521.894 14.061 14.061 0 0 1 5.035 4.808c1.1-3.101.587-5.535-1.817-5.975-2.648-.484-4.715-.64-6.702-2.027-2.447-1.701-4.595-1.147-6.455.583l.403.017c2.58.153 5.048.667 7.002 1.693" fill="#EDE70A"/><path d="M6.669 2.948C2.418 7.756 1.314 14.034 4.05 17.478a10.456 10.456 0 0 1 .59-9.336c2.304-3.84 6.93-5.508 10.727-4.808-1.967-1.04-4.435-1.54-7.002-1.693l-.404-.02C7.55 2 7.13 2.428 6.67 2.948Z" fill="#DEC21C"/><path d="M17.888 4.221a8.026 8.026 0 0 0-2.52-.887c2.587 1.36 4.304 3.668 4.304 7.316a9.18 9.18 0 0 1-4.304 7.689 16.3 16.3 0 0 0 4.144-3.591 19.296 19.296 0 0 0 3.411-5.712 14.06 14.06 0 0 0-5.035-4.815Z" fill="#E5CB22"/><path d="M15.367 3.334c-3.797-.7-8.422.967-10.726 4.792a10.446 10.446 0 0 0-.59 9.352 9.097 9.097 0 0 0 1.427 2.334c1.25.187 2.511.275 3.774.264a11.19 11.19 0 0 0 6.115-1.738 9.176 9.176 0 0 0 4.305-7.688c0-3.648-1.717-5.955-4.305-7.316Zm-.426 13.27a6.315 6.315 0 0 1-8.71-1.873C4.345 11.82 5.279 8.062 8.11 6.06c3.167-2.25 7.229-1.363 8.709 1.875 1.444 3.154 1.047 6.798-1.877 8.669Z" fill="#CCA727"/></g><defs><clipPath id="a"><path fill="#fff" d="M0 0h24v24H0z"/></clipPath></defs></svg>