<svg width="24" height="24" fill="none" xmlns="http://www.w3.org/2000/svg"><path fill-rule="evenodd" clip-rule="evenodd" d="M7.08 8.241c-.04.334-.08.684-.104 1.033-.604.421-1.168.85-1.693 1.28-.27.222-.532.445-.778.675C2.565 9.25 1.739 7.47 2.272 6.556c.468-.81 2.042-1.04 4.251-.604.088-.381.175-.747.278-1.096C4.123 4.316 2.081 4.673 1.31 6c-.207.35-.31.747-.31 1.168v.04c.016 1.883 1.868 4.403 4.959 6.779.318.246.66.492 1.01.739a25.185 25.185 0 0 0 .452 3.107c-2.678.692-4.625.517-5.157-.397-.47-.81.119-2.297 1.597-3.99l-.77-.81C1.261 14.702.53 16.665 1.301 18c.54.938 1.709 1.383 3.282 1.383 1.582 0 3.568-.453 5.746-1.335a28.601 28.601 0 0 0 1.327-.58l.048-.024c.691.318 1.374.604 2.05.85.294.111.588.207.874.302-.739 2.67-1.867 4.276-2.924 4.276-.938 0-1.931-1.256-2.655-3.402-.365.127-.723.239-1.08.334.874 2.59 2.2 4.18 3.735 4.18 2.233 0 4.013-3.354 4.625-8.241.04-.334.071-.683.103-1.025.628-.437 1.216-.89 1.764-1.351a19.382 19.382 0 0 0 .7-.612c1.947 1.97 2.773 3.759 2.24 4.673-.436.755-1.875 1.01-3.846.683l-.397-.071a19.53 19.53 0 0 1-.278 1.08c.167.032.334.064.493.088.627.103 1.208.159 1.74.159 1.597 0 2.734-.469 3.258-1.375.7-1.208.191-2.964-1.438-4.935-.843-1.025-1.94-2.058-3.21-3.044-.326-.254-.668-.5-1.01-.747-.064-.77-.159-1.51-.286-2.21-.056-.309-.111-.611-.175-.905.453-.12.89-.215 1.311-.286 1.971-.326 3.41-.072 3.847.683.46.795-.104 2.25-1.534 3.91.278.27.532.54.77.803.104-.111.2-.23.287-.342 1.621-1.97 2.138-3.727 1.438-4.935-.699-1.208-2.471-1.645-4.99-1.224-1.169.191-2.448.564-3.775 1.073-.056.024-.104.04-.16.064-.444.175-.89.365-1.334.572-.04.016-.08.04-.12.055-.699-.325-1.39-.62-2.058-.866-.294-.111-.588-.206-.874-.302.74-2.662 1.868-4.267 2.925-4.267.937 0 1.939 1.263 2.662 3.409.365-.12.723-.23 1.08-.334C14.567 1.597 13.239 0 11.698 0 9.472 0 7.683 3.354 7.079 8.241Zm7.104-.405c-.016-.016-.04-.024-.055-.032-.374-.215-.755-.421-1.121-.62a.483.483 0 0 1 .095-.04c.453-.19.906-.365 1.343-.516.151-.056.302-.104.445-.151.064.294.12.588.175.898.064.357.111.723.16 1.097-.343-.215-.692-.43-1.042-.636Zm-5.857-.421c.056-.326.111-.636.183-.938.294.095.588.19.89.31.326.119.66.254 1.001.397-.373.199-.755.405-1.128.62a.166.166 0 0 0-.048.032 33.35 33.35 0 0 0-1.049.636c.048-.366.096-.716.151-1.057Zm1.502 7.82c-.27-.152-.532-.31-.787-.47-.35-.214-.683-.429-1.009-.651a30.104 30.104 0 0 1-.048-3.235c.016-.341.032-.667.056-.993a31.439 31.439 0 0 1 2.511-1.526c.382-.206.763-.397 1.145-.588a28.7 28.7 0 0 1 1.867.994c.27.159.533.31.787.468.35.215.683.43 1.01.652a30.093 30.093 0 0 1 .047 3.235c-.016.333-.032.667-.056.993-.564.381-1.16.755-1.788 1.12-.167.096-.326.191-.492.279-.422.238-.843.453-1.256.66-.04.015-.08.039-.12.055a30.323 30.323 0 0 1-1.867-.994Zm-3.926-2.726c-.206-.167-.397-.342-.588-.509.262-.23.533-.469.819-.7.238-.19.485-.389.747-.58-.016.318-.024.644-.024.97V12c0 .437.008.858.024 1.28a16.725 16.725 0 0 1-.978-.771Zm10.641-.191V12c0-.437-.008-.858-.024-1.28A18.932 18.932 0 0 1 18.078 12c-.207.183-.421.373-.644.556-.031.024-.063.056-.095.08-.262.214-.54.437-.826.651.015-.318.031-.643.031-.97Zm-8.209 4.307a22.74 22.74 0 0 1-.159-1.097c.342.215.684.422 1.041.628.016.016.04.024.056.032.373.215.747.421 1.128.62 0 0-.008 0-.008.008-.397.167-.786.318-1.168.46-.055.025-.111.04-.167.064-.182.064-.365.128-.548.183-.064-.286-.12-.588-.175-.898Zm5.666.588a33.05 33.05 0 0 1-1.009-.397l.143-.072c.326-.174.652-.357.986-.54.095-.056.19-.111.278-.167.278-.167.548-.334.818-.5-.048.357-.095.715-.15 1.048-.056.326-.12.636-.184.946-.286-.103-.58-.206-.882-.318ZM10.266 12c0-.787.644-1.43 1.43-1.43.787 0 1.431.643 1.431 1.43 0 .787-.644 1.43-1.43 1.43-.787 0-1.43-.643-1.43-1.43Z" fill="url(#a)"/><defs><linearGradient id="a" x1="2.918" y1="11.615" x2="21.744" y2="12.441" gradientUnits="userSpaceOnUse"><stop stop-color="#6B57A5"/><stop offset="1" stop-color="#59499E"/></linearGradient></defs></svg>