<svg width="24" height="24" fill="none" xmlns="http://www.w3.org/2000/svg"><path d="M0 0h23.958v23.958H0V0Z" fill="#0099E5"/><path d="m11.612 12.416 2.274 2.312a3.167 3.167 0 0 0 4.536 0 3.314 3.314 0 0 0 0-4.623 3.167 3.167 0 0 0-4.536 0l-2.274 2.311Zm4.542 4.413a4.28 4.28 0 0 1-3.07-1.294l-3.066-3.119 3.065-3.118a4.292 4.292 0 0 1 6.141 0 4.475 4.475 0 0 1 0 6.237 4.278 4.278 0 0 1-3.07 1.294Z" fill="#fff"/><path d="M7.803 16.829a4.277 4.277 0 0 1-3.07-1.294 4.475 4.475 0 0 1 0-6.237 4.292 4.292 0 0 1 6.142 0l.145.148-.803.805-.145-.146a3.17 3.17 0 0 0-4.537 0 3.314 3.314 0 0 0 0 4.623 3.17 3.17 0 0 0 4.537 0l.145-.148.803.814-.145.148a4.279 4.279 0 0 1-3.072 1.293" fill="#fff"/></svg>