<svg width="24" height="24" viewBox="0 0 24 24" fill="none" xmlns="http://www.w3.org/2000/svg">
<path d="M2.25053 22.512L0 16.027L4.27162 11.0839L2.20666 5.20287L6.70434 0L13.4559 1.28891L15.5411 7.28132L21.7596 8.4825L24 14.9776L19.5158 20.1636L13.1961 18.9388L9.02235 23.7942L2.25053 22.512Z" fill="white"/>
<path d="M12.1466 16.894L11.3301 17.3428C11.4464 17.5898 11.5424 17.846 11.6169 18.1087C11.6979 18.3381 11.6911 18.247 11.4077 18.5676C11.3571 18.6249 11.3503 18.6418 11.2862 18.7093L10.4359 19.6777C10.3786 19.735 10.3786 19.7789 10.3246 19.8295L10.2099 19.9611C10.1632 20.0024 10.1213 20.0488 10.085 20.0994L9.83198 20.3761C9.79431 20.4407 9.74646 20.4988 9.69027 20.5482L8.87036 21.4895C8.813 21.5503 8.41148 22.0362 8.37099 22.0429L3.47854 21.1015C3.48582 21.0788 3.49765 21.0578 3.51332 21.0398C3.52898 21.0219 3.54815 21.0073 3.56964 20.9969C3.60001 20.9632 3.59664 20.9294 3.64725 20.8721L3.71136 20.8114C3.72226 20.7992 3.73136 20.7856 3.73835 20.7709C3.77172 20.7302 3.80779 20.6919 3.84632 20.6561C3.88344 20.6157 3.89356 20.5853 3.93405 20.5448C3.95686 20.5326 3.97651 20.5153 3.99141 20.4942L5.20946 19.0737C5.24999 19.0482 5.28268 19.012 5.30393 18.9691C5.33267 18.9256 5.36929 18.8878 5.4119 18.8577C5.47939 18.7835 5.43552 18.7936 5.49288 18.7363L5.88765 18.2909C5.91622 18.2464 5.9515 18.2065 5.99225 18.1728L6.57934 17.498C6.81891 17.1606 6.77842 17.498 6.39714 16.3305C6.26218 15.9155 6.09685 15.4938 5.96863 15.0788C5.70883 14.2454 5.3478 13.3917 5.10149 12.5718L6.64345 12.8687C6.74597 12.754 6.84174 12.6335 6.93025 12.5077C6.9987 12.4571 7.05233 12.3891 7.08557 12.3108C7.1188 12.2325 7.13042 12.1467 7.1192 12.0623L4.75733 11.5967C4.59875 11.8329 3.40769 13.1319 3.13101 13.4896L2.8847 13.773L1.02894 15.9189C0.993492 15.9651 0.955177 16.0091 0.914224 16.0505C0.79613 16.1821 0.843368 16.2394 0.974958 16.5769L1.50132 18.0918C1.5823 18.3348 1.68352 18.5946 1.7645 18.8443C1.9332 19.347 2.10191 19.8295 2.28074 20.3457L2.80372 21.8573L4.28833 22.1441C4.7877 22.2453 5.30056 22.3331 5.77293 22.4343L6.51524 22.576C6.95724 22.657 8.5397 22.9876 8.76239 22.9876C8.78627 22.9342 8.82204 22.8869 8.86699 22.8493L10.9589 20.4233C11.1614 20.2209 11.6 19.6675 11.8227 19.4111C11.8767 19.3537 11.8969 19.3234 11.9442 19.266L12.6797 18.409C12.6636 18.347 12.6433 18.2861 12.619 18.2268L12.204 17.0863C12.1759 17.0185 12.1534 16.9486 12.1365 16.8772" fill="#3AB54A"/>
<path d="M7.96977 3.52258C7.90904 3.59344 5.94531 4.69002 5.67201 4.87222C5.5303 4.95995 5.3346 4.99707 5.36497 5.15227L5.95881 7.57488C6.10727 8.20584 6.29622 8.85367 6.44468 9.48125C6.54383 9.80191 6.6216 10.1288 6.67749 10.4597C6.78923 10.773 6.8761 11.0945 6.9373 11.4214L7.03852 11.472H7.17011L10.6994 12.1468C10.7855 12.1699 10.8737 12.1845 10.9626 12.1907C11.0538 12.0631 11.1541 11.9425 11.2629 11.8296C11.3675 11.6947 11.4721 11.6036 11.5666 11.4618C11.5058 11.229 11.4417 11.0131 11.3742 10.787C11.3476 10.734 11.3355 10.6748 11.3391 10.6156C11.3426 10.5564 11.3617 10.4991 11.3945 10.4496L11.9816 9.7748C12.1604 9.5656 12.319 9.43739 12.2616 9.23494C12.2043 9.03249 11.742 7.21048 11.6442 6.99116C11.4703 7.13047 11.3149 7.29149 11.1819 7.47028C11.1111 7.56138 11.0335 7.63224 10.966 7.71997C10.8986 7.807 10.8229 7.88724 10.7399 7.95953L10.0651 5.34122C9.99761 5.06792 9.49149 2.94898 9.39027 2.74316L7.96977 3.52258Z" fill="white"/>
<path d="M16.3643 11.0803L16.8299 10.8306C17.2722 10.5551 17.7373 10.3181 18.2201 10.1221C18.5486 11.088 18.8235 12.0714 19.0434 13.0677C18.6472 13.3251 18.2372 13.5605 17.8152 13.7729C17.6094 13.8808 17.4137 13.9989 17.2011 14.1103L16.5971 14.4477C16.5619 14.5217 16.5127 14.5882 16.452 14.6434L16.1956 14.9032C16.1755 14.9414 16.1518 14.9775 16.1248 15.0112L14.9809 16.3102C14.9468 16.3354 14.9171 16.3662 14.8932 16.4013C14.7889 16.5375 14.6762 16.6671 14.5558 16.7893L14.3027 17.066C14.2184 17.2111 14.0699 17.3123 13.9653 17.4608L18.8949 18.4021L19.0838 18.1727C19.1412 18.0951 19.1412 18.1356 19.1918 18.0647C19.2857 17.9373 19.3871 17.8156 19.4955 17.7003L20.1129 16.9884C20.1463 16.9506 20.1779 16.9112 20.2074 16.8703C20.3289 16.7185 20.3525 16.7252 20.5077 16.5093C20.5583 16.4384 20.5617 16.4755 20.6191 16.3979L20.8215 16.1584C20.9329 16.0504 21.0982 15.8209 21.1286 15.8007L21.439 15.4464C21.4862 15.3958 21.493 15.3722 21.5368 15.3249L22.0564 14.7345C22.0858 14.6936 22.1197 14.6562 22.1577 14.6231C22.0564 14.2486 21.5065 12.7201 21.3411 12.2613C21.2062 11.8766 21.0678 11.4717 20.9194 11.077L20.582 10.0175C20.5839 9.99052 20.5839 9.96346 20.582 9.9365L20.5313 9.86227L15.6355 8.9209L16.3643 11.0803Z" fill="#02833D"/>
<path d="M6.93714 11.4113C6.87543 11.0879 6.78856 10.7697 6.67733 10.4598C6.38328 10.4329 6.09205 10.381 5.80681 10.3046L5.69884 10.2675L6.07337 9.85249C6.10509 9.81605 6.13124 9.77512 6.15097 9.73102C6.17973 9.70227 6.21015 9.67523 6.24207 9.65004C6.31456 9.59796 6.37262 9.52829 6.41078 9.44759C6.42148 9.44545 6.4326 9.44738 6.44195 9.45299C6.45131 9.45861 6.45824 9.46751 6.46139 9.47796C6.3163 8.85038 6.12398 8.20255 5.97552 7.57159L5.37155 5.14899C5.3939 5.0796 5.43399 5.01727 5.48785 4.96814C5.5417 4.91902 5.60746 4.88482 5.6786 4.86894C5.94853 4.7036 7.91563 3.60702 7.97636 3.51929C7.88339 3.39027 7.82212 3.24115 7.79753 3.08404C7.65245 2.64203 7.46012 2.1899 7.33191 1.73439L12.2311 2.66902L12.8688 4.48766C13.0578 5.08488 13.2872 5.70234 13.4964 6.29618C13.6077 6.60323 13.7056 6.91027 13.8136 7.21731C13.9215 7.52436 13.8574 7.41638 13.7056 7.60871C13.6835 7.63696 13.6586 7.66296 13.6314 7.68631C13.6052 7.71375 13.5825 7.74435 13.5639 7.77741L13.4289 7.92925C13.3783 7.99336 13.3344 8.0271 13.2838 8.09458C13.2332 8.16206 13.1927 8.19243 13.1387 8.25991C13.1165 8.2881 13.0917 8.31408 13.0645 8.33751C13.0227 8.39803 12.974 8.45351 12.9194 8.50285C12.8963 8.52475 12.8779 8.55116 12.8654 8.58045C12.7946 8.68842 12.8148 8.61419 12.7204 8.74916C12.6259 8.88412 12.6799 8.7694 12.5753 8.91449C12.5554 8.94486 12.5289 8.97026 12.4977 8.98872L12.3053 9.24515C12.2846 9.23728 12.2661 9.22455 12.2514 9.20803C12.2918 9.4206 12.1501 9.54544 11.9713 9.74789L11.3842 10.4227C11.3515 10.4722 11.3323 10.5295 11.3288 10.5887C11.3252 10.6479 11.3374 10.7071 11.364 10.7601C11.4314 10.9896 11.4956 11.2055 11.5563 11.4349C11.6133 11.3826 11.6653 11.325 11.7115 11.2629L12.3425 10.5408C12.6799 10.1528 13.3108 9.38349 13.6145 9.06969C13.6445 9.0397 13.6716 9.00694 13.6955 8.97185L14.7077 7.78416C14.9506 7.52773 14.8562 7.58172 14.6031 6.81917L13.7225 4.28859C13.6583 4.10976 13.6145 3.95118 13.547 3.7791C13.3749 3.35059 13.2096 2.72638 13.0173 2.24726C12.8621 1.82887 12.9498 1.90985 12.717 1.86261L7.25768 0.809889C7.1575 0.787255 7.05611 0.770357 6.95401 0.759277L5.21972 2.78374L5.16236 2.85797L3.08054 5.25358C2.96919 5.3818 3.08054 5.51002 3.20201 5.87442L4.38632 9.29576C4.43018 9.4341 4.48754 9.58256 4.53478 9.72427L5.01727 11.03C5.32195 11.1332 5.63618 11.2055 5.95527 11.246L6.93714 11.4113Z" fill="#3AB54A"/>
<path d="M11.7317 12.0759C11.7992 12.3019 11.8599 12.5246 11.9207 12.7507C11.9653 12.9762 12.0414 13.1942 12.1467 13.3985C12.528 13.2096 12.8587 13.0442 13.2163 12.8418C13.8608 12.4774 14.7043 12.0354 15.3218 11.6676C15.5343 11.5394 16.226 11.1919 16.3644 11.0771L15.6356 8.93121L20.5381 9.87596L20.582 9.95019C20.593 9.97647 20.602 10.0035 20.609 10.0312L20.9666 11.067C21.105 11.4652 21.2433 11.8667 21.3783 12.2513C21.5436 12.7237 22.0936 14.2522 22.1948 14.6132C22.1569 14.6463 22.1229 14.6837 22.0936 14.7246L21.5942 15.315C21.5504 15.3623 21.5436 15.3859 21.4964 15.4365L21.1725 15.7908C21.1421 15.8178 20.9768 16.0405 20.8654 16.1484L20.663 16.388C20.6056 16.4656 20.6022 16.4285 20.5516 16.4993C20.3964 16.7153 20.3728 16.7085 20.2513 16.8604C20.2185 16.9015 20.1836 16.9409 20.1467 16.9785L19.5259 17.7039C19.4175 17.8192 19.3161 17.9409 19.2222 18.0683C19.1716 18.1391 19.1716 18.0987 19.1143 18.1763L18.9253 18.4057L14.0059 17.4643C14.097 17.3159 14.2454 17.2146 14.3433 17.0696L14.5963 16.7929C14.711 16.6444 14.8224 16.5432 14.9337 16.4049C14.9577 16.3698 14.9873 16.339 15.0215 16.3138L16.1585 15.0147C16.1856 14.9811 16.2093 14.9449 16.2294 14.9068L16.4791 14.6301C16.5433 14.5782 16.5932 14.5109 16.6242 14.4344L12.7743 16.5533C12.8452 16.8266 13.2838 17.9401 13.3513 18.2404L18.5508 19.2526C18.6824 19.2796 19.1952 19.3606 19.2863 19.4044C19.3471 19.31 19.4584 19.2054 19.5293 19.1143L23.2408 14.846L22.7077 13.3952C22.5491 13.0004 22.1071 11.6744 21.9654 11.256L21.2129 9.11004L16.7591 8.24965C16.2665 8.14842 15.7469 8.07082 15.2779 7.95947C15.2515 8.00885 15.2198 8.05523 15.1834 8.09781L13.4964 10.0312C13.4289 10.1155 13.3513 10.1931 13.2771 10.2775L11.9477 11.8093L11.7148 12.0725" fill="#3AB54A"/>
<path d="M11.3301 17.3429L10.4158 17.8524C10.3213 17.9097 10.2201 17.9671 10.1188 18.0211C9.91639 18.1291 9.71057 18.2505 9.5115 18.3585C9.30924 18.4841 9.09437 18.5881 8.87042 18.6689C8.65448 18.1054 7.83457 14.8191 7.72998 14.6504C7.58525 14.7876 7.45208 14.9366 7.33183 15.0957C7.25085 15.1835 7.20024 15.2375 7.12264 15.3286C7.09165 15.3712 7.05662 15.4107 7.01804 15.4466C6.98519 15.4744 6.95472 15.5049 6.92694 15.5377C6.74845 15.0957 6.61067 14.6383 6.5153 14.1712C6.44328 13.9375 6.3847 13.6998 6.33984 13.4593C6.33704 13.3976 6.34665 13.3359 6.36809 13.2779C6.38954 13.22 6.42238 13.1669 6.46469 13.1219C6.53892 13.0342 6.58953 12.9701 6.66038 12.879L5.11842 12.582C5.36473 13.4121 5.72576 14.2691 5.98556 15.089C6.11378 15.504 6.27911 15.9258 6.41407 16.3408C6.79535 17.5082 6.83584 17.1843 6.59628 17.5082L4.00496 20.5179C3.98332 20.5317 3.96397 20.5488 3.9476 20.5685C3.92086 20.6075 3.89155 20.6447 3.85988 20.6799C3.82135 20.7157 3.78528 20.754 3.75191 20.7946C3.74491 20.8093 3.73582 20.823 3.72491 20.8351L3.65406 20.8958C3.60345 20.9532 3.62369 20.9701 3.57645 21.0207C3.53557 21.0448 3.5036 21.0815 3.48535 21.1253L8.3778 22.0666C8.55461 21.8918 8.72134 21.7071 8.87717 21.5133L9.69708 20.5618C9.75131 20.5106 9.79892 20.4528 9.83879 20.3897L10.0918 20.113C10.1281 20.0624 10.17 20.016 10.2167 19.9747L10.3314 19.8431C10.3854 19.7925 10.3854 19.7486 10.4428 19.6913L11.293 18.7229C11.3571 18.6554 11.3639 18.6385 11.4145 18.5812C11.6979 18.2438 11.7047 18.3517 11.6237 18.1223C11.5492 17.8596 11.4533 17.6034 11.3369 17.3564" fill="#02833D"/>
<path d="M16.3644 11.0803C16.226 11.195 15.5343 11.5426 15.3218 11.6708C14.7043 12.0386 13.8608 12.4806 13.2163 12.845C12.8587 13.0474 12.5415 13.2128 12.1467 13.4017C12.0415 13.1974 11.9654 12.9793 11.9207 12.7539C11.8599 12.5244 11.7992 12.3017 11.7317 12.0791L11.3403 12.5413L12.7338 16.5565L16.5837 14.4376L17.1877 14.1001C17.4002 13.9888 17.5959 13.8707 17.8017 13.7627C18.2237 13.5504 18.6338 13.3149 19.0299 13.0575C18.8141 12.0649 18.5437 11.085 18.2201 10.1221C17.7414 10.3242 17.2808 10.5669 16.8435 10.8475L16.3644 11.0803Z" fill="white"/>
<path d="M6.65012 12.8823C6.57926 12.9734 6.52865 13.0375 6.45442 13.1252C6.41211 13.1703 6.37927 13.2234 6.35783 13.2813C6.33638 13.3393 6.32678 13.4009 6.32958 13.4627C6.37456 13.702 6.43314 13.9386 6.50503 14.1712C6.5994 14.644 6.7372 15.1071 6.91667 15.5546C6.94445 15.5218 6.97492 15.4913 7.00777 15.4635C7.04635 15.4276 7.08138 15.388 7.11237 15.3454C7.18997 15.2543 7.24058 15.2003 7.32156 15.1126C7.44182 14.9535 7.57498 14.8045 7.71971 14.6672C7.8243 14.8359 8.64421 18.1223 8.86015 18.6858C9.0841 18.605 9.29897 18.5009 9.50123 18.3754C9.7003 18.264 9.90613 18.1425 10.1086 18.0379C10.2098 17.984 10.311 17.9266 10.4055 17.8692L11.33 17.3597L12.1465 16.911C12.1109 16.834 12.0827 16.7538 12.0622 16.6714L10.7125 12.7777L7.60161 12.1704C7.45104 12.132 7.29756 12.106 7.14274 12.0928C7.15395 12.1771 7.14233 12.2629 7.1091 12.3413C7.07587 12.4196 7.02223 12.4876 6.95379 12.5382C6.86527 12.664 6.76951 12.7845 6.66699 12.8992" fill="white"/>
<path d="M7.96952 3.52278L9.37989 2.73999C9.48449 2.94581 9.99061 5.06475 10.0547 5.33805L10.7295 7.95635C10.8125 7.88407 10.8882 7.80383 10.9556 7.71679C11.0231 7.62907 11.1007 7.55821 11.1715 7.46711C11.3045 7.28831 11.4599 7.12729 11.6338 6.98799C11.7316 7.19043 12.2074 8.97533 12.2513 9.23177C12.2703 9.24254 12.2884 9.25496 12.3052 9.26888L12.4841 9.01245C12.5154 8.99419 12.542 8.96875 12.5617 8.93822C12.6663 8.79313 12.6359 8.87411 12.7068 8.77289C12.7776 8.67166 12.781 8.71215 12.8518 8.60418C12.8593 8.57238 12.8786 8.54463 12.9058 8.52658C12.9596 8.47644 13.0082 8.42105 13.0509 8.36125C13.0841 8.34504 13.1104 8.31752 13.1251 8.28364C13.169 8.22475 13.2175 8.16946 13.2702 8.11831C13.3242 8.05083 13.3647 8.01709 13.4153 7.95298L13.5503 7.80115C13.5689 7.76809 13.5916 7.73748 13.6178 7.71005C13.645 7.68669 13.6699 7.6607 13.692 7.63244C13.8438 7.44012 13.9012 7.52447 13.8 7.24104C13.6987 6.95762 13.5941 6.62696 13.4828 6.31991C13.2736 5.72607 13.0442 5.10861 12.8552 4.51139L12.231 2.6995L7.31494 1.74463C7.45665 2.19338 7.65235 2.64551 7.78057 3.09427C7.80401 3.25171 7.86539 3.40108 7.9594 3.52953" fill="#02833D"/>
<path d="M6.67744 10.4595C6.62184 10.1263 6.54407 9.79713 6.44463 9.47426C6.44463 9.44727 6.41089 9.44727 6.41089 9.44727C6.37659 9.5321 6.32077 9.60653 6.24893 9.66321C6.20169 9.72057 6.20169 9.68683 6.15783 9.74419C6.14377 9.79111 6.11689 9.83318 6.08022 9.86565L5.71582 10.2705L5.82379 10.3077C6.10903 10.384 6.40025 10.436 6.69431 10.4629" fill="#128241"/>
</svg>
