<svg width="24" height="24" viewBox="0 0 24 24" fill="none" xmlns="http://www.w3.org/2000/svg">
<g clip-path="url(#clip0)">
<path fill-rule="evenodd" clip-rule="evenodd" d="M4.39711 2.10697L0.0191429 11.3525C0.0016365 11.386 -0.00439295 11.4244 0.00198909 11.4617C0.00837113 11.499 0.0268082 11.5331 0.0544428 11.5588L11.8725 22.9524C11.9065 22.9832 11.9506 23.0002 11.9964 23.0002C12.0422 23.0002 12.0863 22.9832 12.1203 22.9524L23.9454 11.5588C23.9728 11.5329 23.991 11.4988 23.9974 11.4616C24.0037 11.4244 23.9979 11.3861 23.9807 11.3525L19.6027 2.10697C19.5911 2.07481 19.5697 2.04716 19.5415 2.02797C19.5133 2.00878 19.4799 1.99901 19.4458 2.00008H4.55243C4.51887 2.001 4.48627 2.01155 4.45847 2.03049C4.43068 2.04943 4.40884 2.07596 4.39554 2.10697H4.39711Z" fill="url(#paint0_linear)"/>
<path fill-rule="evenodd" clip-rule="evenodd" d="M13.5207 12.2985C13.4359 12.3056 12.9974 12.334 12.0212 12.334C11.2434 12.334 10.6916 12.3127 10.4935 12.2985C7.48791 12.1636 5.24597 11.6371 5.24597 11.0111C5.24597 10.3852 7.48791 9.85192 10.4935 9.71703V11.7723C10.6896 11.7865 11.2505 11.822 12.0283 11.822C12.9617 11.822 13.4285 11.7794 13.5136 11.7723V9.71703C16.5121 9.85192 18.7541 10.3785 18.7541 11.004C18.7541 11.6296 16.5184 12.1636 13.5207 12.2985ZM13.5207 9.51075V7.66842H17.7076V4.85938H6.30693V7.66842H10.4935V9.51075C7.09176 9.66851 4.53174 10.3426 4.53174 11.1606C4.53174 11.9786 7.09176 12.6472 10.4935 12.8104V18.7066H13.5207V12.8104C16.9153 12.6527 19.4687 11.9782 19.4687 11.1677C19.4687 10.3572 16.9153 9.66694 13.5207 9.51114V9.51075Z" fill="white"/>
</g>
<defs>
<linearGradient id="paint0_linear" x1="-0.380291" y1="12.1316" x2="22.8981" y2="12.1316" gradientUnits="userSpaceOnUse">
<stop stop-color="#D8B35D"/>
<stop offset="1" stop-color="#F5E7BF"/>
</linearGradient>
<clipPath id="clip0">
<rect width="24" height="24" fill="white"/>
</clipPath>
</defs>
</svg>
