<svg width="72" height="73" fill="none" xmlns="http://www.w3.org/2000/svg"><rect x=".5" y="1" width="71" height="71" rx="7.5" fill="#A2EFE1"/><path d="M30.797 40H35.5v9.262c0 .418 0 .774.028 1.029.014.128.038.279.099.414a.665.665 0 0 0 .462.392.665.665 0 0 0 .585-.162c.11-.097.197-.223.263-.334.132-.22.282-.542.457-.922l.014-.029 6.064-13.1.018-.037c.28-.607.516-1.114.637-1.527.127-.43.17-.881-.094-1.294-.264-.412-.692-.563-1.135-.629C42.474 33 41.914 33 41.245 33H36.5v-9.262c0-.418 0-.774-.027-1.029a1.387 1.387 0 0 0-.099-.414.664.664 0 0 0-.462-.392.665.665 0 0 0-.585.162 1.39 1.39 0 0 0-.264.334c-.132.22-.281.543-.457.922l-.013.029-6.065 13.1-.017.037c-.281.607-.516 1.114-.637 1.527-.127.43-.17.881.094 1.294.263.412.691.563 1.134.629.426.063.985.063 1.654.063h.04Z" fill="#05141A" stroke="#000"/><rect x=".5" y="1" width="71" height="71" rx="7.5" stroke="#9EFFEE"/></svg>