<svg width="24" height="24" viewBox="0 0 24 24" fill="none" xmlns="http://www.w3.org/2000/svg">
<path d="M12 24C18.6274 24 24 18.6274 24 12C24 5.37258 18.6274 0 12 0C5.37258 0 0 5.37258 0 12C0 18.6274 5.37258 24 12 24Z" fill="#EBEBEB"/>
<path d="M19.7538 4.44385H18.1357V19.9277H19.7538V4.44385Z" fill="black"/>
<path fill-rule="evenodd" clip-rule="evenodd" d="M17.7751 4.44385V19.9277H17.6241L10.2422 15.6697V13.7226L16.0873 17.1019V4.44385H17.7751Z" fill="black"/>
<path fill-rule="evenodd" clip-rule="evenodd" d="M16.788 19.928H13.4125L10.2422 18.097V16.1499L16.788 19.928Z" fill="black"/>
<path fill-rule="evenodd" clip-rule="evenodd" d="M12.8938 19.928H10.2422V18.3989L12.8938 19.928Z" fill="black"/>
<path d="M5.95727 4.44385H4.26953V19.9277H5.95727V4.44385Z" fill="black"/>
<path fill-rule="evenodd" clip-rule="evenodd" d="M6.26758 19.9277V4.44385H6.41855L13.8005 8.70965V10.6529L7.95532 7.27353V19.9277H6.26758Z" fill="black"/>
<path fill-rule="evenodd" clip-rule="evenodd" d="M7.25391 4.44385H10.6255L13.7997 6.27869V8.22578L7.25391 4.44385Z" fill="black"/>
<path fill-rule="evenodd" clip-rule="evenodd" d="M11.1484 4.44385H13.8V5.97675L11.1484 4.44385Z" fill="black"/>
<path fill-rule="evenodd" clip-rule="evenodd" d="M15.797 4.44385V16.4748L14.1093 15.5032L10.2422 13.2697V11.3187L14.1093 13.5561V4.44385H15.797Z" fill="#F3E733"/>
<path fill-rule="evenodd" clip-rule="evenodd" d="M8.24512 19.9314V7.9043L9.92899 8.87591L13.8 11.1133V13.0604L9.92899 10.823V19.9314H8.24512Z" fill="#F3E733"/>
</svg>
