<svg width="18" height="19" fill="none" xmlns="http://www.w3.org/2000/svg"><path fill-rule="evenodd" clip-rule="evenodd" d="m11.915 4.79-.013-.007c-.744-.437-1.318-.737-2.052-.64-.349.047-.705.178-1.106.366-.4.188-.882.451-1.481.783h-.001L1.938 8.204l-.028.015-.025.018C.997 8.879.54 9.689.638 10.56c.094.841.689 1.572 1.52 2.12l.015.01.016.009 4.25 2.37a1.567 1.567 0 0 0 3.054-.335l4.954-2.633-.007-.013a1.566 1.566 0 1 0-.654-.768l-4.543 2.415a1.565 1.565 0 0 0-2.742.223l-3.808-2.123c-.69-.46-1.014-.96-1.061-1.386-.039-.346.092-.764.585-1.2l3.193 1.92.001.001c.953.58 1.669.944 2.458.909.767-.034 1.519-.444 2.552-1.065l4.017-2.188.005-.003c.145-.082.28-.15.417-.22l.258-.134c.2-.106.44-.241.607-.41a.862.862 0 0 0 .231-.397.743.743 0 0 0-.072-.534c-.145-.27-.441-.467-.756-.634-.62-.327-1.43-.756-2.083-1.104l-.822-.436-.243-.13-.065-.034ZM7.743 6.169l-4.56 2.494 2.745 1.65.002.002c.973.592 1.446.785 1.895.765.47-.021 1.004-.276 2.09-.929l.009-.005.009-.005 4.024-2.192c.156-.088.327-.175.477-.252l.215-.111a4.43 4.43 0 0 0 .19-.106 2.76 2.76 0 0 0-.178-.101l-2.085-1.105-.822-.437-.243-.13-.066-.034-.017-.01-.004-.001-.001-.001.234-.442-.235.442-.009-.005-.01-.006c-.77-.453-1.066-.562-1.422-.515-.198.026-.445.107-.812.28-.366.171-.817.417-1.424.752l-.002.002Zm7.274 1.182v.002-.002ZM8.5 14.595a.566.566 0 1 1-1.133 0 .566.566 0 0 1 1.133 0Zm6.744-3.286a.566.566 0 1 0 0-1.133.566.566 0 0 0 0 1.133Z" fill="#95A7AE"/></svg>