<svg width="24" height="24" viewBox="0 0 24 24" fill="none" xmlns="http://www.w3.org/2000/svg">
<path fill-rule="evenodd" clip-rule="evenodd" d="M17.6417 9.50873C18.9107 11.4149 16.5769 15.197 12.4335 17.9556C8.54656 20.5432 4.44452 21.3129 2.90245 19.8232C2.80038 19.7074 2.70383 19.5915 2.61002 19.4701C1.78244 18.179 2.57416 16.0466 4.44726 13.9528C4.6707 14.1129 4.94656 14.2067 5.24176 14.2067C6.00314 14.2067 6.62108 13.5887 6.62108 12.8273C6.62108 12.5597 6.5438 12.3115 6.41138 12.099C6.8583 11.7377 7.33556 11.3873 7.8376 11.0535C11.9838 8.29491 16.3728 7.60251 17.6417 9.50873Z" fill="#0CA4FB"/>
<path fill-rule="evenodd" clip-rule="evenodd" d="M12.4335 17.9556C8.54656 20.5432 4.44452 21.3129 2.90245 19.8232C2.80038 19.7294 2.70935 19.619 2.62933 19.5005C2.62381 19.4894 2.61554 19.4811 2.61002 19.4701C1.78244 18.179 2.57416 16.0466 4.44726 13.9528C4.6707 14.1129 4.94656 14.2067 5.24176 14.2067C6.00314 14.2067 6.62108 13.5887 6.62108 12.8273C6.62108 12.5597 6.5438 12.3115 6.41138 12.099C6.8583 11.7377 7.33556 11.3873 7.8376 11.0535C11.9838 8.29491 16.3728 7.60251 17.6417 9.50873C18.9107 11.4149 16.5769 15.197 12.4335 17.9556Z" fill="#0CA4FB"/>
<path fill-rule="evenodd" clip-rule="evenodd" d="M22.6207 6.41102C20.091 4.67033 14.4855 5.80965 9.19173 9.3324C8.05515 10.0883 7.01517 10.8993 6.08829 11.7407C5.85655 11.5559 5.56138 11.4483 5.24139 11.4483C4.48001 11.4483 3.86208 12.0662 3.86208 12.8276C3.86208 13.1559 3.97793 13.4565 4.17103 13.6938C2.91861 15.1421 2.02485 16.6041 1.57241 17.9421C0.571029 16.1904 0 14.1627 0 12C0 5.37377 5.37377 0 12 0C16.6069 0 20.6097 2.59862 22.6207 6.41102Z" fill="#0CA4FB"/>
<path fill-rule="evenodd" clip-rule="evenodd" d="M24.0002 12.0002C24.0002 18.6264 18.6264 24.0002 12.0002 24.0002C10.4388 24.0002 8.9464 23.7023 7.57812 23.1588C10.1133 22.745 13.1147 21.5285 16.0223 19.5919C20.3285 16.7257 23.2609 13.0595 23.8623 10.1768C23.9533 10.7699 24.0002 11.3795 24.0002 12.0002Z" fill="#0CA4FB"/>
<path fill-rule="evenodd" clip-rule="evenodd" d="M12.4335 17.9556C8.54656 20.5432 4.44452 21.3129 2.90245 19.8232C2.80038 19.7294 2.70935 19.619 2.62933 19.5005C2.62381 19.4894 2.61554 19.4811 2.61002 19.4701C1.78244 18.179 2.57416 16.0466 4.44726 13.9528C4.6707 14.1129 4.94656 14.2067 5.24176 14.2067C6.00314 14.2067 6.62108 13.5887 6.62108 12.8273C6.62108 12.5597 6.5438 12.3115 6.41138 12.099C6.8583 11.7377 7.33556 11.3873 7.8376 11.0535C11.9838 8.29491 16.3728 7.60251 17.6417 9.50873C18.9107 11.4149 16.5769 15.197 12.4335 17.9556Z" fill="#0CA4FB"/>
</svg>
