<svg width="24" height="24" fill="none" xmlns="http://www.w3.org/2000/svg"><g clip-path="url(#a)"><path d="M3.035 11.552a1.276 1.276 0 1 1-2.552 0 1.276 1.276 0 0 1 2.552 0Zm20.275 0a1.276 1.276 0 1 1-.375-.901c.239.239.373.563.373.9h.002Zm-10.137 5.034a1.276 1.276 0 1 1-2.553.001 1.276 1.276 0 0 1 2.553-.001ZM8.069 14.1a1.276 1.276 0 1 1-2.553 0 1.276 1.276 0 0 1 2.553 0Zm10.138 0a1.277 1.277 0 1 1-2.553.006 1.277 1.277 0 0 1 2.553-.006ZM2.621 15.414a.862.862 0 1 1-1.725-.001.862.862 0 0 1 1.725.001Zm20.275 0a.862.862 0 1 1-1.726 0 .862.862 0 0 1 1.727 0ZM12.76 20.517a.863.863 0 1 1-1.726 0 .863.863 0 0 1 1.726 0Zm-5.103-2.553a.862.862 0 1 1-1.724 0 .862.862 0 0 1 1.724 0Zm10.138 0a.862.862 0 1 1-1.723.004.862.862 0 0 1 1.722-.004Zm-15.587.484a.45.45 0 1 1-.901 0 .45.45 0 0 1 .901 0Zm20.276 0a.451.451 0 1 1-.902 0 .451.451 0 0 1 .902 0Zm-10.138 5.104a.45.45 0 1 1-.9 0 .45.45 0 0 1 .9 0ZM7.242 21a.451.451 0 1 1-.902 0 .451.451 0 0 1 .902 0Zm10.138 0a.45.45 0 1 1-.901 0 .45.45 0 0 1 .9 0ZM13.586 1.724a1.724 1.724 0 1 1-3.448 0 1.724 1.724 0 0 1 3.447 0Zm0 5.101a1.724 1.724 0 1 1-3.449 0 1.724 1.724 0 0 1 3.448 0Zm0 5.035a1.724 1.724 0 1 1-.13-.658c.085.21.13.434.13.66v-.002Zm10.138-5.035a1.724 1.724 0 1 1-3.448 0 1.724 1.724 0 0 1 3.448 0Zm-20.275 0A1.724 1.724 0 1 1 0 6.83a1.724 1.724 0 0 1 3.449-.005Zm5.103-2.552a1.724 1.724 0 1 1-.508-1.216c.324.323.505.762.505 1.219l.003-.003ZM8.549 9.31a1.724 1.724 0 1 1-3.448 0 1.724 1.724 0 0 1 3.448 0ZM18.69 4.276a1.725 1.725 0 1 1-3.45 0 1.725 1.725 0 0 1 3.45 0Zm0 5.034a1.725 1.725 0 1 1-3.45 0 1.725 1.725 0 0 1 3.45 0Z" fill="#141414"/></g><defs><clipPath id="a"><path fill="#fff" d="M0 0h24v24H0z"/></clipPath></defs></svg>