<svg width="24" height="24" viewBox="0 0 24 24" fill="none" xmlns="http://www.w3.org/2000/svg">
<g clip-path="url(#clip0)">
<path d="M12.0253 0.767793C12.9397 0.66427 13.7679 0.241553 14.6565 0C14.7772 0.241553 14.9239 0.534867 15.2431 0.534867C15.5623 0.586628 15.7435 0.27606 15.8901 0.0431344C16.6579 0.345075 17.3653 0.767793 18.1504 1.0266C18.5558 1.16463 19.0475 1.13875 19.3581 1.48382C19.7291 1.88929 19.7377 2.47592 19.6773 2.9849C19.5997 3.39037 19.3667 3.82171 18.9354 3.92523C18.5213 4.02876 18.1072 4.09777 17.719 4.27031C17.0892 4.52049 16.5112 4.9087 15.847 5.08986C15.7607 4.93458 15.6658 4.78792 15.5709 4.63264C15.3725 4.63264 15.1568 4.61538 14.9757 4.71891C14.8549 4.82243 14.7772 4.96909 14.691 5.09849C13.7248 5.04673 12.8621 4.47735 11.8872 4.49461C10.8779 4.51186 9.87717 4.75341 8.96272 5.17613C6.97853 5.96118 5.37393 7.57441 4.48536 9.50683C4.00226 10.5852 3.70031 11.7498 3.65718 12.9317C3.62267 14.959 4.23518 17.0208 5.47745 18.6341C6.07271 19.4968 6.87501 20.2042 7.7377 20.7908C9.5666 22.0762 11.9045 22.5507 14.113 22.2832C16.8046 21.9641 19.3236 20.4198 20.8333 18.1682C21.8427 16.762 22.4034 15.0712 22.5328 13.3544C22.6881 11.9914 22.4552 10.6111 22.0325 9.31704C21.7046 8.25593 21.1266 7.28972 20.4624 6.40978C20.1259 5.94392 19.7032 5.56434 19.3064 5.15888C20.1 5.73688 20.7557 6.47879 21.3078 7.28972C22.3085 8.70453 22.8951 10.3868 23.1108 12.1035C23.1626 13.1819 23.1971 14.2775 22.9469 15.33C22.5242 17.4953 21.3854 19.5054 19.7808 21.0151C18.9958 21.8174 18.0296 22.3954 17.0461 22.9216C16.0972 23.3875 15.0706 23.7239 14.0181 23.8533C11.87 24.2157 9.60973 23.931 7.62555 23.0165C7.21146 22.8095 6.81462 22.5679 6.40916 22.3523C4.81318 21.3602 3.44151 19.9799 2.5098 18.3494C1.673 16.7793 1.05186 15.0625 1.0001 13.2854C1.00873 12.4227 0.948337 11.56 1.11225 10.706C1.55222 8.10927 2.84625 5.65061 4.81318 3.89073C5.87429 2.89001 7.14244 2.13947 8.48824 1.59597C9.60973 1.11287 10.8175 0.897196 12.0253 0.767793Z" fill="black"/>
<path d="M11.2487 9.1792C11.7577 9.11019 12.2839 9.11019 12.8015 9.1792C13.8971 9.42076 14.8547 10.2144 15.2861 11.2583C15.7951 12.3021 15.6484 13.5703 15.0618 14.5538C14.5614 15.2957 13.8281 15.8995 12.9482 16.1152C12.5686 16.1842 12.1804 16.3223 11.7836 16.2532C11.2487 16.167 10.6966 16.0548 10.2307 15.7615C9.08334 15.1231 8.34143 13.8032 8.4277 12.4833C8.4277 11.7328 8.77277 11.0254 9.21275 10.4301C9.69585 9.78308 10.455 9.36037 11.2487 9.1792Z" fill="black"/>
</g>
<defs>
<clipPath id="clip0">
<rect width="24" height="24" fill="white"/>
</clipPath>
</defs>
</svg>
