<svg width="24" height="24" fill="none" xmlns="http://www.w3.org/2000/svg"><path d="M23.96 12.028c0 6.594-5.346 11.94-11.94 11.94-6.595 0-11.94-5.346-11.94-11.94C.08 5.433 5.424.088 12.02.088c6.594 0 11.94 5.345 11.94 11.94Z" fill="#020100"/><path d="M19.498 8.919c-.674-.472-1.396-.975-2.101-1.474a.57.57 0 0 0-.051-.035.948.948 0 0 0-.277-.156l-.008-.004c-1.887-.456-3.805-.924-5.661-1.377L6.35 4.645a6.28 6.28 0 0 0-.132-.035c-.152-.043-.327-.09-.515-.066a.359.359 0 0 0-.144.054l-.047.04a.572.572 0 0 0-.132.21l-.012.031v.18l.008.027c1.064 2.983 2.156 6.008 3.209 8.936.81 2.254 1.653 4.59 2.476 6.882.05.156.195.258.374.273h.039a.44.44 0 0 0 .39-.214l3.088-4.504 2.257-3.29.925-1.35c.506-.74 1.029-1.505 1.547-2.25l.028-.038v-.047c.012-.137.015-.417-.21-.565ZM15.88 10.56c-.725.378-1.466.768-2.21 1.154l1.302-1.396c.541-.585 1.107-1.189 1.66-1.782l.012-.011c.047-.063.105-.121.168-.184.043-.042.09-.085.132-.136.289.199.581.402.862.6.203.145.41.289.62.433-.858.437-1.716.885-2.546 1.322Zm-1.864-.187c-.557.604-1.134 1.224-1.708 1.836a1093.086 1093.086 0 0 0-3.345-4.04L7.462 6.366l-.004-.004c-.113-.129-.222-.27-.331-.402-.07-.09-.145-.175-.219-.265.453.117.909.226 1.357.331.394.094.803.192 1.205.293l6.788 1.65c-.752.802-1.509 1.617-2.242 2.405Zm-1.961 7.6c.043-.41.09-.831.129-1.245l.105-.994c.055-.518.113-1.057.16-1.583l.011-.094c.04-.335.079-.682.102-1.029a1.17 1.17 0 0 1 .14-.066c.059-.027.117-.05.176-.086.9-.472 1.801-.944 2.706-1.411.9-.468 1.824-.952 2.74-1.431a777.573 777.573 0 0 0-2.483 3.618c-.698 1.018-1.415 2.067-2.129 3.1-.28.413-.573.834-.85 1.24-.312.452-.632.916-.944 1.38.04-.468.086-.94.137-1.4ZM6.62 6.613c-.05-.14-.106-.284-.152-.42a1643.66 1643.66 0 0 0 3.146 3.789c.534.643 1.068 1.283 1.603 1.93.105.12.21.25.312.374.132.16.265.328.409.488-.047.401-.086.807-.129 1.197-.027.273-.054.546-.085.822v.004c-.012.176-.036.351-.055.523l-.09.776-.004.027c-.07.788-.155 1.583-.237 2.355-.035.32-.067.647-.102.975-.02-.059-.043-.117-.062-.172-.059-.156-.117-.32-.172-.48l-.417-1.157L6.62 6.615Z" fill="#fff"/></svg>