<svg width="24" height="25" fill="none" xmlns="http://www.w3.org/2000/svg"><g clip-path="url(#a)"><path d="M24 12.002c0 6.627-5.373 12-12.003 12C5.372 24.003 0 18.63 0 12.002-.002 5.373 5.371 0 11.999 0s12 5.374 12 12.002Z" fill="#EAB300"/><path d="M16.72 9.062c-.154-1.608-1.541-2.146-3.295-2.3v-2.23H12.07v2.17c-.357 0-.721.007-1.083.015V4.532H9.629L9.628 6.76c-.294.006-.583.012-.864.012v-.007H6.893v1.449s1.002-.02.985-.001c.55 0 .728.319.78.594v2.54c.039 0 .088.003.143.01h-.143v3.56c-.025.173-.126.448-.51.45.017.014-.987 0-.987 0l-.27 1.62h1.767c.329 0 .652.006.97.008v2.255h1.356v-2.231c.371.007.731.01 1.084.01l-.001 2.221h1.357V17c2.28-.131 3.88-.706 4.077-2.85.16-1.725-.65-2.496-1.946-2.807.788-.4 1.28-1.105 1.166-2.281Zm-1.898 4.822c0 1.685-2.886 1.494-3.807 1.494v-2.99c.921.003 3.806-.261 3.806 1.496Zm-.632-4.216c0 1.533-2.408 1.353-3.175 1.354v-2.71c.768 0 3.176-.243 3.175 1.356Z" fill="#fff"/><path d="M8.66 11.289h.202v.148H8.66v-.148Z" fill="#fff"/></g><defs><clipPath id="a"><path fill="#fff" d="M0 0h24v24.004H0z"/></clipPath></defs></svg>