<svg width="24" height="24" fill="none" xmlns="http://www.w3.org/2000/svg"><path d="M20.322 3.969 16.57 2H7.319L3.752 4.006 0 8.947l12 13.635L24 8.947 20.322 3.97Zm2.452 4.755-4.681 2.378-1.523-4.644 3.455-1.672 2.749 3.938ZM7.616 2.743h8.656l2.935 1.523-2.972 1.412H7.58l-2.6-1.375 2.637-1.56ZM4.012 4.786 7.06 6.458 5.98 11.102l-4.94-2.489 2.971-3.827Zm-2.006 5.239 3.827 1.969 4.68 8.062-8.507-10.031Zm9.957 11.034L6.65 11.845l1.3-5.387h7.914l1.412 5.239-5.313 9.362Zm1.337-1.04 4.756-7.988 3.975-2.006-8.73 9.994Z" fill="#000"/><path d="M15.38 12.7a2.266 2.266 0 0 0-1.077-1.19 1.116 1.116 0 0 0 .67-.631 1.22 1.22 0 0 0 .036-.632s-.037-.334-.148-.631c-.223-.483-.966-.929-2.007-1.04v-1.19h-.928v1.19h-.706v-1.19h-.966v1.19H8.73v.78a1.114 1.114 0 0 1 .817.52c.149.223.149.409.186.52l.074 2.972c0 .372-.149.706-.446.892-.371.223-.743.111-.817.111v.855h1.672v1.263h1.003v-1.115h.706l.037 1.115h.929v-1.226h.891c.34.003.674-.087.966-.26.706-.483.929-1.523.632-2.304Zm-4.086-2.936h1.189c.446 0 .817.335.817.78 0 .446-.334.818-.78.818h-1.226V9.764Zm1.486 4.384h-1.412v-1.746h1.412c.446.037.818.409.855.818.037.482-.335.891-.855.928Z" fill="#FCC339"/></svg>