<svg width="24" height="24" fill="none" xmlns="http://www.w3.org/2000/svg"><path d="M14.085 13.869c-.118-.177-.314-.315-.57-.472a8.553 8.553 0 0 0-1.003-.453v3.935c1.24-.158 1.869-.787 1.869-1.928 0-.256-.02-.453-.06-.61a1.18 1.18 0 0 0-.236-.472Z" fill="#0B223D"/><path d="M12 0C5.37 0 0 5.37 0 12s5.37 12 12 12 12-5.37 12-12S18.63 0 12 0Zm4.643 16.76c-.236.512-.57.925-1.004 1.22-.432.315-.905.551-1.416.709-.512.177-1.082.275-1.712.314v1.928h-.963v-1.908a9.064 9.064 0 0 1-2.558-.472c-.806-.276-1.456-.65-1.928-1.121l1.043-1.771c.413.334.964.61 1.613.846.65.236 1.259.374 1.83.413V12.63a3.615 3.615 0 0 1-.374-.119c-.158-.058-.315-.098-.433-.137a3.707 3.707 0 0 1-.354-.118c-1.16-.433-2.007-.964-2.538-1.554-.531-.59-.787-1.417-.787-2.44 0-1.18.413-2.085 1.24-2.754.826-.669 1.908-1.023 3.245-1.082V3.03h.964v1.396c1.063.04 1.909.177 2.538.413.63.256 1.22.65 1.81 1.2L15.6 7.672c-.767-.728-1.79-1.102-3.088-1.14v3.934c.747.255 1.22.413 1.416.472 1.16.452 1.947.983 2.4 1.573.452.59.688 1.417.688 2.48 0 .688-.118 1.278-.373 1.77Z" fill="#0B223D"/><path d="M9.698 8.164c0 .512.118.885.354 1.16.236.276.728.552 1.515.827v-3.56c-.57.078-1.023.255-1.357.51-.354.257-.512.61-.512 1.063Z" fill="#0B223D"/></svg>