<svg width="24" height="24" fill="none" xmlns="http://www.w3.org/2000/svg"><path fill-rule="evenodd" clip-rule="evenodd" d="M11.97 0c6.65 0 11.97 5.38 11.97 11.97 0 6.65-5.38 11.97-11.97 11.97C5.38 24 0 18.62 0 11.97 0 5.38 5.38 0 11.97 0Z" fill="url(#a)"/><path fill-rule="evenodd" clip-rule="evenodd" d="M5.44 5.683h7.134c2.902 0 5.864 2.055 5.864 6.226 0 4.172-2.962 6.227-5.864 6.227h-5.26v-6.71h3.084v3.687h2.055c1.33 0 2.902-1.511 2.902-3.204 0-1.692-1.511-3.204-2.902-3.204H9.068c-1.512 0-2.72-1.027-3.628-3.022Z" fill="#fff"/><defs><linearGradient id="a" x1="23.973" y1="23.973" x2="0" y2="0" gradientUnits="userSpaceOnUse"><stop stop-color="#4B81EB"/><stop offset="1" stop-color="#6752F4"/></linearGradient></defs></svg>