<svg width="24" height="24" fill="none" xmlns="http://www.w3.org/2000/svg"><g clip-path="url(#a)" fill="#000"><path d="M12.002 14.29a2.609 2.609 0 1 0 0-5.217 2.609 2.609 0 0 0 0 5.217ZM2.887 15.781A1.622 1.622 0 0 0 3.547 14a8.774 8.774 0 0 1 6.04-10.747 1.617 1.617 0 0 0-.9-3.105A12.014 12.014 0 0 0 .428 14.86a1.618 1.618 0 0 0 2.458.921v.001ZM12.938 1.618a1.611 1.611 0 0 0 1.213 1.565 8.765 8.765 0 0 1 6.393 10.452 1.616 1.616 0 0 0 3.155.707A12.017 12.017 0 0 0 14.97.052a1.624 1.624 0 0 0-1.982 1.162c-.033.132-.05.268-.05.404ZM20.466 17.484a1.588 1.588 0 0 0-2.087.209 8.764 8.764 0 0 1-12.39.358l-.13-.127a1.565 1.565 0 0 0-1.967-.176l-.069.046a1.574 1.574 0 0 0-.244 2.426 12 12 0 0 0 16.969-.11c.07-.07.138-.143.208-.216a1.58 1.58 0 0 0-.224-2.363l-.066-.047Z"/></g><defs><clipPath id="a"><path fill="#fff" d="M0 0h24v24H0z"/></clipPath></defs></svg>