<svg width="24" height="24" viewBox="0 0 24 24" fill="none" xmlns="http://www.w3.org/2000/svg">
<path d="M12 24C18.6274 24 24 18.6274 24 12C24 5.37258 18.6274 0 12 0C5.37258 0 0 5.37258 0 12C0 18.6274 5.37258 24 12 24Z" fill="#663300"/>
<path d="M8.76562 7.54725L9.70313 5.25L16.1246 5.27325C17.0621 5.34375 18.1871 5.34375 18.8201 6.141C19.5701 7.008 19.4059 8.25 19.0309 9.234C18.6694 10.293 18.0421 11.2414 17.209 11.9884C16.3759 12.7353 15.3649 13.2558 14.2729 13.5C12.7264 13.7347 11.1559 13.6642 9.58538 13.6642C9.89813 12.9015 10.2109 12.1358 10.5229 11.367C11.8121 11.367 13.1246 11.4375 14.4371 11.2267C15.6326 10.9222 16.7344 9.72675 16.5469 8.41425C16.4291 7.85175 15.7969 7.59375 15.2569 7.59375C13.1014 7.5 10.9444 7.59375 8.78888 7.5465H8.76562V7.54725Z" fill="white"/>
<path d="M6 8.17969H13.617L12.6098 10.7814H4.968L6 8.20294V8.18044V8.17969ZM7.21875 11.3672H9.867L7.1025 18.3984H4.5L7.242 11.3672H7.21875Z" fill="white"/>
</svg>
