<svg width="24" height="24" viewBox="0 0 24 24" fill="none" xmlns="http://www.w3.org/2000/svg">
<path d="M12 24C18.6274 24 24 18.6274 24 12C24 5.37258 18.6274 0 12 0C5.37258 0 0 5.37258 0 12C0 18.6274 5.37258 24 12 24Z" fill="#36A9CF"/>
<path fill-rule="evenodd" clip-rule="evenodd" d="M19.7327 13.8564C19.8647 13.9141 19.9135 14.0934 19.8422 14.2569C19.8209 14.3111 19.7859 14.3588 19.7405 14.3952C19.6951 14.4317 19.641 14.4556 19.5835 14.4646L17.9147 17.5419C17.9295 17.6106 17.926 17.682 17.9047 17.7489C17.8834 17.8159 17.8449 17.8761 17.7932 17.9236C17.752 17.9667 17.7018 18.0003 17.6462 18.0219C17.5906 18.0436 17.531 18.0528 17.4715 18.0489L14.2172 19.9974C14.1919 20.0615 14.1502 20.1179 14.0962 20.1608C14.0422 20.2037 13.9779 20.2317 13.9097 20.2419C13.7492 20.2726 13.5962 20.2141 13.5227 20.1054L9.69921 19.8376C9.65167 19.8739 9.59661 19.8991 9.53808 19.9113C9.47955 19.9235 9.41903 19.9224 9.36096 19.9081C9.17196 19.8669 9.04146 19.7161 9.04896 19.5609L6.09471 17.4294C6.033 17.4405 5.96954 17.4367 5.90956 17.4184C5.84959 17.4002 5.7948 17.368 5.74971 17.3244C5.62071 17.2074 5.57421 17.0371 5.62371 16.9081L4.40871 14.0904C4.27596 14.0641 4.16121 13.9336 4.13121 13.7611C4.10646 13.6059 4.15746 13.4596 4.25271 13.3816L4.43196 9.1164C4.39161 9.06139 4.36567 8.99717 4.3565 8.92957C4.34733 8.86198 4.35522 8.79316 4.37946 8.7294C4.43946 8.55465 4.58421 8.4444 4.72671 8.4519L7.91571 5.11065C7.88796 4.95315 8.00796 4.7859 8.19621 4.72665C8.25462 4.70673 8.31685 4.70063 8.37802 4.70882C8.43918 4.71702 8.49761 4.7393 8.54871 4.7739L13.1372 3.9399C13.1965 3.8049 13.3645 3.7254 13.546 3.75765C13.711 3.78615 13.8347 3.8994 13.864 4.0299L15.9835 5.2389C16.0422 5.22012 16.1044 5.21429 16.1656 5.2218C16.2268 5.2293 16.2857 5.24998 16.3382 5.2824C16.396 5.31605 16.4454 5.36245 16.4826 5.41808C16.5198 5.47371 16.5437 5.53709 16.5527 5.6034L17.4647 6.2169C17.5235 6.20094 17.5853 6.19873 17.6451 6.21044C17.7049 6.22214 17.7612 6.24745 17.8097 6.2844C17.9807 6.4074 18.0422 6.6219 17.9447 6.7644L17.9387 6.7719L19.276 9.3819C19.4035 9.36465 19.534 9.46365 19.5805 9.6204C19.6315 9.79215 19.561 9.9669 19.4245 10.0104C19.2872 10.0554 19.135 9.9519 19.0847 9.7809L19.0757 9.7434L16.324 8.26965C16.2801 8.33127 16.2206 8.37997 16.1515 8.41065V15.7561C16.2413 15.7958 16.3147 15.8654 16.359 15.953C16.4033 16.0407 16.4158 16.141 16.3945 16.2369L17.512 17.3754C17.5692 17.3511 17.6318 17.3424 17.6935 17.3499L19.381 14.3679C19.3519 14.3199 19.3352 14.2654 19.3324 14.2094C19.3297 14.1533 19.3409 14.0975 19.3652 14.0469C19.4365 13.8834 19.6015 13.7986 19.7327 13.8564ZM19.7357 14.2126C19.7642 14.1466 19.744 14.0754 19.6915 14.0521C19.639 14.0296 19.573 14.0634 19.5445 14.1286C19.516 14.1939 19.5355 14.2651 19.5887 14.2891C19.6412 14.3116 19.7065 14.2779 19.7357 14.2126ZM17.737 17.8066C17.797 17.7466 17.8075 17.6581 17.7602 17.6086C17.713 17.5591 17.626 17.5674 17.5652 17.6266C17.5052 17.6866 17.4947 17.7759 17.542 17.8254C17.5892 17.8749 17.677 17.8666 17.737 17.8066ZM17.2652 17.6191L17.2735 17.6011L16.2017 16.5106C16.1376 16.5507 16.0636 16.572 15.988 16.5721C15.9092 16.572 15.8321 16.5493 15.7658 16.5068C15.6995 16.4642 15.6467 16.4037 15.6137 16.3321H14.1752C14.138 16.4103 14.0778 16.4752 14.0027 16.5181L14.143 18.5484C14.1985 18.5724 14.248 18.6069 14.2855 18.6496L17.2652 17.6191ZM14.1392 19.7086L16.7395 18.1516L14.3695 18.9706C14.3538 19.0299 14.3243 19.0846 14.2835 19.1303C14.2428 19.1761 14.1918 19.2115 14.1347 19.2339L14.0627 19.6569C14.0905 19.6705 14.1163 19.6879 14.1392 19.7086ZM13.8955 20.1121C13.978 20.0971 14.0342 20.0296 14.0222 19.9606C14.0102 19.8931 13.9322 19.8496 13.8497 19.8661C13.768 19.8811 13.711 19.9486 13.723 20.0169C13.7357 20.0851 13.813 20.1279 13.8955 20.1121ZM13.5175 19.8136C13.5672 19.7316 13.645 19.6703 13.7365 19.6411L13.8047 19.2399C13.7439 19.2173 13.6892 19.1808 13.645 19.1334L10.6615 19.6149L13.5175 19.8136ZM10.7267 16.5616L9.75621 19.4244L13.5182 18.8169L10.8565 16.5069C10.8166 16.5324 10.7728 16.5509 10.7267 16.5616ZM9.47796 19.2279L10.4035 16.4986C10.3425 16.4564 10.2938 16.3986 10.2625 16.3314H8.57046C8.56006 16.3522 8.54828 16.3722 8.53521 16.3914L9.47796 19.2279ZM9.36321 19.7791C9.44571 19.7971 9.52371 19.7566 9.53721 19.6891C9.55221 19.6216 9.49746 19.5519 9.41496 19.5331C9.33246 19.5159 9.25446 19.5556 9.24021 19.6231C9.22596 19.6921 9.28071 19.7611 9.36321 19.7791ZM6.29796 17.2201L9.15171 19.2796L8.25021 16.5676C8.1852 16.5761 8.11911 16.569 8.05742 16.5468C7.99572 16.5246 7.94021 16.4881 7.89546 16.4401L6.30321 17.1339C6.3055 17.1627 6.30398 17.1917 6.29871 17.2201H6.29796ZM6.03096 16.7716C6.07153 16.7895 6.1094 16.813 6.14346 16.8414L7.78071 16.1289C7.78395 16.0479 7.80994 15.9694 7.85571 15.9024L5.32371 13.2856L6.03096 16.7716ZM6.01371 17.2284C6.05871 17.1774 6.04371 17.0889 5.98146 17.0319C5.91846 16.9756 5.83146 16.9711 5.78646 17.0229C5.74146 17.0754 5.75496 17.1639 5.81796 17.2201C5.88096 17.2764 5.96871 17.2801 6.01296 17.2284H6.01371ZM4.67121 13.9786L5.54271 15.9984L4.95846 13.1199L4.72821 13.6104C4.7469 13.6721 4.75148 13.7373 4.74162 13.801C4.73175 13.8647 4.70769 13.9255 4.67121 13.9786ZM4.65021 10.7236L4.54521 13.2376L4.75371 12.7951C4.71928 12.7298 4.70275 12.6566 4.70578 12.5828C4.70881 12.5091 4.7313 12.4374 4.77096 12.3751L4.65021 10.7236ZM4.50021 8.7354C4.47171 8.8164 4.50246 8.9004 4.56621 8.92365C4.63071 8.94615 4.70421 8.89965 4.73196 8.81865C4.75971 8.73765 4.73046 8.65365 4.66596 8.6304C4.60146 8.6079 4.52796 8.6544 4.49946 8.7354H4.50021ZM5.13321 12.6001C5.13321 12.5146 5.07096 12.4456 4.99596 12.4456C4.92021 12.4456 4.85796 12.5146 4.85796 12.6001C4.85796 12.6864 4.92021 12.7554 4.99596 12.7554C5.07096 12.7554 5.13321 12.6864 5.13321 12.6001ZM4.96071 8.93565C4.93958 8.99935 4.90448 9.05752 4.85796 9.1059L5.07546 12.0984L6.41046 7.87665L4.98171 8.8464C4.97751 8.87674 4.97048 8.90662 4.96071 8.93565ZM7.23021 6.2469L5.40471 8.1594L6.33996 7.5249C6.35252 7.43949 6.38951 7.35953 6.44646 7.29465C6.50509 7.22497 6.58445 7.17583 6.67296 7.1544L7.23021 6.2469ZM8.17071 5.34165L6.98046 7.27815C7.00921 7.33165 7.02173 7.39239 7.01646 7.4529L7.89771 7.72365C7.94374 7.67431 8.00124 7.6371 8.06511 7.61535C8.12898 7.59359 8.19724 7.58795 8.26382 7.59894C8.33039 7.60992 8.39322 7.63719 8.44672 7.67831C8.50022 7.71943 8.54272 7.77314 8.57046 7.83465H10.0457C10.0731 7.77585 10.1137 7.72423 10.1645 7.68387C10.2153 7.64352 10.2748 7.61554 10.3382 7.60215L11.14 5.89665C11.0967 5.83976 11.0684 5.773 11.0575 5.7024L8.60646 5.1594C8.55091 5.24014 8.46939 5.29943 8.37546 5.3274C8.30936 5.34855 8.23918 5.35369 8.17071 5.3424V5.34165ZM8.21421 4.8519C8.13396 4.87665 8.08521 4.9509 8.10471 5.0169C8.12496 5.08365 8.20596 5.11665 8.28546 5.0919C8.36571 5.06715 8.41521 4.9929 8.39496 4.9269C8.37546 4.86015 8.29521 4.8264 8.21421 4.8519ZM12.9002 4.2789L9.20121 4.9524L11.1362 5.38065C11.1884 5.30933 11.2622 5.25674 11.3466 5.23066C11.4311 5.20459 11.5216 5.20642 11.605 5.2359L12.9002 4.2789ZM13.354 4.35165L11.9747 5.37165L15.7585 5.47665L15.7667 5.44815L13.7612 4.30515C13.7156 4.3386 13.6634 4.36221 13.6082 4.37447C13.5529 4.38674 13.4957 4.38739 13.4402 4.3764C13.4107 4.37109 13.3818 4.3628 13.354 4.35165ZM13.5325 3.8874C13.45 3.8724 13.3727 3.9159 13.3615 3.9849C13.3502 4.0524 13.4065 4.1199 13.4897 4.1349C13.5722 4.1499 13.6487 4.1064 13.6607 4.0374C13.6727 3.9699 13.615 3.9024 13.5325 3.8874ZM15.9572 5.93115C15.906 5.89952 15.8614 5.85826 15.826 5.80965L11.8787 5.70015C11.8757 5.7236 11.8704 5.74671 11.863 5.76915L13.456 7.6059C13.548 7.5859 13.6441 7.59771 13.7286 7.63939C13.813 7.68108 13.8809 7.75018 13.921 7.8354H15.6137C15.655 7.74739 15.7255 7.67638 15.8132 7.6344L15.9572 5.93115ZM15.9872 7.84965C15.8965 7.84965 15.8222 7.92615 15.8222 8.0199C15.8222 8.11365 15.8965 8.1894 15.9872 8.1894C16.0795 8.1894 16.1545 8.11365 16.1545 8.0199C16.1545 7.92615 16.0795 7.84965 15.988 7.84965H15.9872ZM16.0615 5.44965C16.0202 5.52165 16.051 5.61915 16.1305 5.66565C16.2092 5.71365 16.3075 5.6934 16.348 5.62065C16.39 5.54865 16.3592 5.4519 16.2797 5.40465C16.2002 5.3574 16.1027 5.37765 16.0615 5.44965ZM18.9977 9.43815L16.2775 5.9979L16.1402 7.62465C16.213 7.65444 16.2761 7.70387 16.3225 7.76744C16.3688 7.83101 16.3966 7.90621 16.4027 7.98465L18.9977 9.43815ZM17.278 6.4404L16.6675 6.0309L18.6377 8.5959L17.6792 6.88065C17.5991 6.87443 17.5222 6.84613 17.4572 6.7989C17.3297 6.70815 17.2622 6.5664 17.2772 6.4404H17.278ZM17.563 6.39765C17.524 6.45465 17.548 6.54015 17.617 6.58965C17.6852 6.6384 17.773 6.6324 17.812 6.57465C17.851 6.5184 17.827 6.43215 17.7587 6.3834C17.689 6.33465 17.602 6.34065 17.5637 6.3984L17.563 6.39765ZM13.3855 8.0199C13.3855 8.1114 13.4567 8.18565 13.5475 8.18565C13.591 8.18505 13.6325 8.16731 13.6629 8.13627C13.6934 8.10522 13.7104 8.0634 13.7102 8.0199C13.7106 7.97626 13.6937 7.93425 13.6632 7.90305C13.6327 7.87184 13.5911 7.85399 13.5475 7.8534C13.5038 7.85399 13.4622 7.87184 13.4317 7.90305C13.4012 7.93425 13.3843 7.97626 13.3847 8.0199H13.3855ZM13.4747 11.5996C13.4526 11.5998 13.4308 11.6044 13.4105 11.613C13.3902 11.6216 13.3718 11.6342 13.3564 11.6499C13.3409 11.6657 13.3287 11.6843 13.3204 11.7047C13.3122 11.7252 13.308 11.7471 13.3082 11.7691C13.3082 11.8629 13.3832 11.9394 13.4747 11.9394C13.4968 11.9391 13.5186 11.9345 13.5388 11.9258C13.5591 11.917 13.5775 11.9044 13.5928 11.8886C13.6082 11.8728 13.6204 11.8541 13.6285 11.8336C13.6367 11.8131 13.6408 11.7912 13.6405 11.7691C13.6408 11.7471 13.6367 11.7253 13.6285 11.7048C13.6203 11.6843 13.6082 11.6657 13.5928 11.65C13.5774 11.6342 13.559 11.6217 13.5388 11.613C13.5185 11.6044 13.4967 11.5998 13.4747 11.5996ZM11.302 5.58165C11.302 5.6754 11.3762 5.75115 11.4677 5.75115C11.4898 5.75095 11.5116 5.74641 11.5319 5.73779C11.5522 5.72916 11.5706 5.71662 11.5861 5.70088C11.6015 5.68514 11.6137 5.66651 11.622 5.64605C11.6303 5.62559 11.6344 5.60371 11.6342 5.58165C11.6342 5.4879 11.5592 5.4114 11.4677 5.4114C11.4456 5.41169 11.4239 5.41633 11.4036 5.42504C11.3833 5.43376 11.365 5.44638 11.3496 5.46219C11.3342 5.478 11.3221 5.49669 11.3139 5.51718C11.3057 5.53768 11.3017 5.55958 11.302 5.58165ZM11.4235 6.0594L10.663 7.67565C10.748 7.73814 10.8068 7.82995 10.828 7.93332C10.8492 8.03668 10.8313 8.14424 10.7777 8.23515L13.3127 11.3776C13.336 11.368 13.3601 11.3605 13.3847 11.3551V8.41065C13.3291 8.38642 13.2793 8.35056 13.2387 8.30547C13.1981 8.26038 13.1677 8.20711 13.1494 8.14926C13.1311 8.09141 13.1255 8.03031 13.1328 7.97009C13.1402 7.90987 13.1603 7.85192 13.192 7.80015L11.647 6.01965C11.5776 6.05342 11.5002 6.06719 11.4235 6.0594ZM10.2535 8.0199C10.2535 8.11365 10.3285 8.1894 10.42 8.1894C10.5107 8.1894 10.5857 8.11365 10.5857 8.0199C10.5857 7.92615 10.5107 7.84965 10.42 7.84965C10.3753 7.85024 10.3328 7.86849 10.3016 7.90039C10.2704 7.9323 10.2531 7.97527 10.2535 8.0199ZM8.03346 8.0199C8.03346 8.1114 8.10546 8.18565 8.19546 8.18565C8.28546 8.18565 8.35821 8.1114 8.35821 8.0199C8.35821 7.92765 8.28546 7.8534 8.19546 7.8534C8.10546 7.8534 8.03346 7.9284 8.03346 8.0199ZM8.19546 15.9774C8.1735 15.9777 8.1518 15.9823 8.13162 15.991C8.11145 15.9997 8.09317 16.0122 8.07785 16.028C8.06253 16.0437 8.05046 16.0623 8.04233 16.0827C8.03419 16.1031 8.03016 16.1249 8.03046 16.1469C8.03046 16.2406 8.10396 16.3164 8.19546 16.3164C8.21752 16.3162 8.23933 16.3117 8.25964 16.303C8.27995 16.2944 8.29836 16.2819 8.31382 16.2661C8.32928 16.2504 8.34149 16.2318 8.34975 16.2113C8.35801 16.1908 8.36216 16.169 8.36196 16.1469C8.36226 16.1248 8.35818 16.1029 8.34995 16.0824C8.34173 16.0619 8.32952 16.0432 8.31404 16.0274C8.29856 16.0117 8.28011 15.9991 8.25976 15.9906C8.2394 15.982 8.21755 15.9775 8.19546 15.9774ZM6.54846 7.3824C6.49371 7.4469 6.48921 7.53615 6.54096 7.5819C6.59121 7.6269 6.67746 7.6134 6.73296 7.54815C6.78846 7.4844 6.79221 7.39515 6.74121 7.3494C6.69021 7.3029 6.60471 7.3179 6.54846 7.3824ZM5.32971 12.3766C5.37175 12.4436 5.39386 12.5211 5.39346 12.6001C5.39346 12.6826 5.37096 12.7591 5.33196 12.8214L8.03346 15.6129V8.41065C7.96011 8.37833 7.89742 8.32588 7.85268 8.25937C7.80794 8.19286 7.78299 8.11502 7.78071 8.0349L6.86421 7.75365C6.83574 7.77949 6.80396 7.80143 6.76971 7.8189L5.32971 12.3766ZM13.8002 15.7216C13.9795 15.7216 14.1317 15.8379 14.1902 15.9991H15.5987C15.618 15.9454 15.648 15.8961 15.6869 15.8543C15.7259 15.8125 15.7729 15.7791 15.8252 15.7561V8.41065C15.7729 8.38771 15.7258 8.35432 15.6869 8.31254C15.6479 8.27075 15.6179 8.22145 15.5987 8.16765H13.9367C13.9173 8.22132 13.8872 8.27051 13.8483 8.31227C13.8093 8.35402 13.7624 8.38749 13.7102 8.41065V11.4181C13.7662 11.4579 13.8118 11.5105 13.8431 11.5716C13.8744 11.6327 13.8906 11.7005 13.8902 11.7691C13.8914 11.8806 13.8483 11.988 13.7704 12.0677C13.6925 12.1475 13.5862 12.193 13.4747 12.1944C13.4195 12.1938 13.3649 12.1823 13.3141 12.1606C13.2634 12.1389 13.2174 12.1074 13.1788 12.0679C13.1402 12.0284 13.1098 11.9817 13.0892 11.9305C13.0687 11.8792 13.0585 11.8244 13.0592 11.7691C13.0592 11.7166 13.0682 11.6664 13.0862 11.6191L10.5152 8.43315C10.4158 8.456 10.3116 8.44159 10.2221 8.39265C10.1327 8.34372 10.0643 8.26365 10.03 8.16765H8.58546C8.56593 8.22139 8.53574 8.27062 8.49668 8.31238C8.45763 8.35414 8.41052 8.38757 8.35821 8.41065V15.7561C8.46321 15.8011 8.54496 15.8896 8.58546 15.9991H10.2467C10.2662 15.9454 10.2964 15.8962 10.3355 15.8544C10.3745 15.8127 10.4216 15.7792 10.474 15.7561V12.7036C10.4128 12.6652 10.3624 12.6119 10.3275 12.5487C10.2926 12.4854 10.2743 12.4144 10.2745 12.3421C10.2738 12.2869 10.284 12.232 10.3046 12.1807C10.3251 12.1294 10.3556 12.0826 10.3943 12.0431C10.433 12.0036 10.479 11.9721 10.5299 11.9504C10.5808 11.9288 10.6354 11.9174 10.6907 11.9169C10.7589 11.9171 10.826 11.934 10.8862 11.9659C10.9464 11.9979 10.9979 12.044 11.0363 12.1004C11.0747 12.1567 11.0988 12.2215 11.1066 12.2893C11.1143 12.357 11.1054 12.4256 11.0807 12.4891L13.693 15.7366C13.728 15.7273 13.764 15.7222 13.8002 15.7216ZM13.9802 18.7569C13.8902 18.7569 13.8152 18.8244 13.8152 18.9084C13.8152 18.9924 13.8902 19.0591 13.9802 19.0591C14.0725 19.0591 14.1475 18.9916 14.1475 18.9091C14.1475 18.8266 14.0725 18.7569 13.981 18.7569H13.9802ZM13.6345 16.1469C13.6345 16.2406 13.7087 16.3164 13.7995 16.3164C13.8216 16.3163 13.8435 16.3118 13.8639 16.3033C13.8843 16.2947 13.9028 16.2821 13.9183 16.2664C13.9338 16.2506 13.9461 16.232 13.9544 16.2115C13.9627 16.191 13.9669 16.169 13.9667 16.1469C13.9669 16.1248 13.9628 16.103 13.9545 16.0825C13.9462 16.062 13.934 16.0434 13.9186 16.0277C13.9031 16.0119 13.8847 15.9994 13.8644 15.9908C13.8441 15.9821 13.8223 15.9776 13.8002 15.9774C13.7558 15.978 13.7134 15.9962 13.6823 16.0279C13.6513 16.0597 13.6341 16.1025 13.6345 16.1469ZM10.5242 12.3421C10.5242 12.4359 10.5992 12.5116 10.6907 12.5116C10.7822 12.5116 10.8565 12.4359 10.8565 12.3421C10.8565 12.2476 10.7822 12.1726 10.6907 12.1726C10.5992 12.1726 10.5242 12.2476 10.5242 12.3421ZM10.6367 15.9774C10.6146 15.9776 10.5928 15.9821 10.5725 15.9908C10.5522 15.9994 10.5338 16.0119 10.5184 16.0277C10.5029 16.0434 10.4907 16.062 10.4824 16.0825C10.4742 16.103 10.47 16.1248 10.4702 16.1469C10.4702 16.2406 10.5452 16.3164 10.6367 16.3164C10.7282 16.3164 10.8025 16.2406 10.8025 16.1469C10.8028 16.1249 10.7987 16.103 10.7905 16.0825C10.7823 16.0621 10.7702 16.0435 10.7548 16.0277C10.7394 16.012 10.721 15.9994 10.7008 15.9908C10.6805 15.9821 10.6587 15.9776 10.6367 15.9774ZM10.7987 15.7561C10.8883 15.7954 10.9615 15.8644 11.006 15.9515C11.0506 16.0385 11.0637 16.1383 11.0432 16.2339L13.738 18.5716C13.7625 18.5574 13.7884 18.5456 13.8152 18.5364L13.6772 16.5534C13.5917 16.5253 13.5173 16.4708 13.4648 16.3978C13.4122 16.3247 13.3842 16.2369 13.3847 16.1469C13.3847 16.0719 13.4035 16.0021 13.4372 15.9421L10.855 12.7321C10.8368 12.7401 10.818 12.7467 10.7987 12.7516V15.7561ZM16.1537 16.1461C16.1539 16.1242 16.1498 16.1024 16.1416 16.082C16.1333 16.0617 16.1212 16.0431 16.1058 16.0274C16.0904 16.0118 16.0721 15.9993 16.0519 15.9907C16.0316 15.9821 16.0099 15.9776 15.988 15.9774C15.9659 15.9776 15.9441 15.9821 15.9238 15.9908C15.9035 15.9994 15.8851 16.0119 15.8696 16.0277C15.8541 16.0434 15.8419 16.062 15.8337 16.0825C15.8254 16.103 15.8213 16.1248 15.8215 16.1469C15.8215 16.2406 15.8965 16.3164 15.988 16.3164C16.0795 16.3164 16.1545 16.2406 16.1545 16.1469L16.1537 16.1461ZM4.37121 13.8804C4.43871 13.8691 4.48146 13.7911 4.46721 13.7071C4.45221 13.6224 4.38696 13.5631 4.32021 13.5751C4.25271 13.5864 4.21071 13.6651 4.22496 13.7491C4.23846 13.8339 4.30446 13.8931 4.37121 13.8804ZM19.3502 9.5949C19.2962 9.61215 19.2677 9.68265 19.288 9.7509C19.3082 9.81915 19.369 9.8604 19.423 9.84315C19.4785 9.8259 19.5055 9.7554 19.486 9.68715C19.4665 9.61815 19.405 9.57765 19.351 9.5949H19.3502Z" fill="white"/>
</svg>
