<svg width="24" height="24" fill="none" xmlns="http://www.w3.org/2000/svg"><g clip-path="url(#a)" fill="#E31337"><path d="M17.157 13.702a.11.11 0 0 1 .089.155l-5.1 8.82a.11.11 0 0 1-.09.05H8.94a.103.103 0 0 1-.089-.154l5.1-8.82a.103.103 0 0 1 .089-.051h3.118Zm-3.032-2.528a.108.108 0 0 1-.09-.051L8.85 2.155A.103.103 0 0 1 8.94 2h3.117a.11.11 0 0 1 .09.052l5.185 8.967a.102.102 0 0 1 .001.103.103.103 0 0 1-.09.052h-3.117Z"/><path d="M14.741 2.155A.103.103 0 0 1 14.836 2h3.123a.102.102 0 0 1 .088.051l5.944 10.262a.102.102 0 0 1 0 .102l-5.944 10.261a.102.102 0 0 1-.088.052h-3.123a.103.103 0 0 1-.09-.155l5.91-10.21L14.74 2.156Zm-2.537 10.157a.109.109 0 0 1 0 .109L6.232 22.676a.109.109 0 0 1-.18 0L.014 12.416a.109.109 0 0 1 0-.109L5.986 2.051a.11.11 0 0 1 .18 0l6.038 10.26Z"/></g><defs><clipPath id="a"><path fill="#fff" d="M0 0h24v24H0z"/></clipPath></defs></svg>