<svg width="24" height="24" fill="none" xmlns="http://www.w3.org/2000/svg"><path d="M12 10.868A5.434 5.434 0 1 0 12 0a5.434 5.434 0 0 0 0 10.868Z" fill="#88BDF3"/><path d="M12 24a5.434 5.434 0 1 0 0-10.868A5.434 5.434 0 0 0 12 24Z" fill="#3075EE"/><path d="M18.566 17.434a5.434 5.434 0 1 0 0-10.868 5.434 5.434 0 0 0 0 10.868Z" fill="#5795F1"/><path d="M5.434 17.434a5.434 5.434 0 1 0 0-10.868 5.434 5.434 0 0 0 0 10.868Z" fill="#205FEC"/><path d="M10.72 10.72a5.434 5.434 0 0 1-3.995-3.995 5.47 5.47 0 0 1 3.996 3.996Z" fill="#134BEF"/><path d="M6.713 17.287a5.434 5.434 0 0 1 3.996-3.996 5.469 5.469 0 0 1-3.996 3.996Z" fill="#0932E8"/><path d="M13.28 13.28a5.434 5.434 0 0 1 3.996 3.996 5.47 5.47 0 0 1-3.997-3.997Z" fill="#164BEA"/><path d="M17.287 6.713a5.433 5.433 0 0 1-3.996 3.997 5.47 5.47 0 0 1 3.996-3.997Z" fill="#3170F1"/></svg>