<svg width="24" height="24" fill="none" xmlns="http://www.w3.org/2000/svg"><g clip-path="url(#a)"><path d="M10.016 7.3a1.955 1.955 0 0 0-1.067.28 6.832 6.832 0 0 0-1.758 1.552c-1.529 1.916-1.516 4.087-1.492 4.742.024.509.242 3.298 2.607 5.311 1.844 1.565 3.881 1.735 4.548 1.759.485.024 3.02.073 5.154-1.88 2.22-2.025 2.329-4.693 2.34-5.154a6.539 6.539 0 0 0-.06-1.492 6.699 6.699 0 0 0-.364-1.334 5.604 5.604 0 0 1-1.394-1.03 5.426 5.426 0 0 1-1.031-1.492 1.896 1.896 0 0 0-.243-.606 1.827 1.827 0 0 0-.727-.667 3.164 3.164 0 0 1 1.758.242c.4.182.691.425.885.606.037-.097.097-.303.06-.545a1.145 1.145 0 0 0-.242-.582c.243.12 1.092.57 1.516 1.576a3.18 3.18 0 0 1 .219 1.577c.29.448.654 1.115.91 1.976.242.8.302 1.516.302 2.038.025.594.11 3.82-2.364 6.44-2.972 3.14-7.083 2.692-7.52 2.631.255.146.583.291.97.4.97.267 1.808.122 2.28 0-1.03.291-2.983.667-5.19-.012-5.081-1.576-6.512-7.252-6.61-7.628.086.643.22 1.334.401 2.062a20.603 20.603 0 0 0 1.007 3.092 11.153 11.153 0 0 1-1.977-3.032A10.91 10.91 0 0 1 2 14.116a11.06 11.06 0 0 1 1.091-4.669c1.31-2.716 3.396-4.123 4.306-4.669a.73.73 0 0 1-.28-.073.92.92 0 0 1-.387-.327c.34-.049.764-.146 1.237-.327.473-.182.849-.4 1.127-.583A18.595 18.595 0 0 1 4.34.715l1.19.643L4.62.57c.776.521 1.758 1.08 2.934 1.564.813.34 1.577.583 2.256.764a6.907 6.907 0 0 1-1.273-.897A7.1 7.1 0 0 1 7.009.121c.315.28.642.546.958.825L7.142 0c.68.667 1.637 1.467 2.898 2.159.716.388 1.395.679 1.99.897l1.552.255c.157.024.436.097.703.315.11.085.194.182.255.255.072.097.17.206.279.315.181.182.351.328.521.437l2.45-.037c.157 0 .267.146.23.291-.121.485-.376 1.177-.994 1.722a2.632 2.632 0 0 1-.449.328c.097-.134.23-.328.315-.594.061-.194.097-.364.11-.498-.098.097-.207.207-.364.304-.23.157-.461.242-.619.29a3.343 3.343 0 0 0 .449-.861c-.17.013-.412.037-.704.158a2.115 2.115 0 0 0-.666.413c0-.11.024-.243.072-.4.037-.11.085-.207.122-.28-.073-.048-.146-.084-.23-.133a1.593 1.593 0 0 0-.765-.121c-.182 0-.667.036-1.14.376-.17.121-.303.254-.412.388a.771.771 0 0 0 .036.994v.012c.11.11.23.194.34.243.376.182.812.145 1.176-.049.012-.012.024-.012.037-.024.145-.085.254-.182.327-.267.012.085.024.255-.036.461a.838.838 0 0 1-.194.352c.145.024.315.036.509.036.34-.012.606-.097.788-.17A3.162 3.162 0 0 1 13.63 9.35c.097-.145.206-.352.279-.618.024-.073.036-.146.049-.206a.503.503 0 0 0-.182-.486c-.17-.145-.352-.157-.413-.17h-1.006c-.352 0-.691.05-1.031.146a8.828 8.828 0 0 1-1.94.291c.278-.048.764-.17 1.224-.533.17-.134.304-.28.4-.4l-.994-.073Z" fill="#EFB13B"/></g><defs><clipPath id="a"><path fill="#fff" d="M0 0h24v24H0z"/></clipPath></defs></svg>