<svg width="24" height="24" fill="none" xmlns="http://www.w3.org/2000/svg"><path d="m11.951 15.77 1.29-2.179h-2.53l1.24 2.179Z" fill="#F0DBB0"/><path d="M21.035 8.641 19.327.96l-3.356 5.286a16.948 16.948 0 0 0-7.94 0L4.68.96 2.968 8.641C1.123 10.113 0 12.035 0 14.145c0 4.622 5.37 8.37 11.996 8.37s11.997-3.748 11.997-8.37c-.002-2.11-1.116-4.032-2.958-5.504ZM5.332 12.16h-.8l1.952-2.248h1.422L5.332 12.16Zm6.604 5.489-3.319-5.835.82-.467.74 1.3h3.626l.772-1.306.812.481-3.451 5.827Zm6.736-5.49-2.576-2.247h1.43l1.95 2.248h-.804Z" fill="#F0DBB0"/></svg>