<svg width="24" height="24" viewBox="0 0 24 24" fill="none" xmlns="http://www.w3.org/2000/svg">
<path d="M11.7055 1.06561C12.2286 0.792878 12.8671 1.42562 12.5887 1.94824C12.4273 2.3742 11.8153 2.48748 11.5028 2.1628C11.172 1.85109 11.28 1.23515 11.7055 1.06561ZM6.07926 1.67195C6.39702 1.5411 6.79925 1.83227 6.76681 2.17864C6.8005 2.55458 6.34086 2.83145 6.01695 2.65269C5.58783 2.48652 5.63689 1.78984 6.07926 1.67205V1.67195ZM17.6024 2.66325C17.1058 2.60325 17.0273 1.82258 17.5054 1.66485C17.8762 1.48398 18.2163 1.82315 18.2706 2.17461C18.1928 2.47471 17.9415 2.74956 17.6024 2.66277V2.66325ZM7.35922 4.0662C7.89049 3.7302 8.6485 4.23056 8.5668 4.84765C8.53925 5.47069 7.71164 5.83165 7.24479 5.4104C6.79359 5.07958 6.86175 4.32051 7.35922 4.06639V4.0662ZM15.4689 4.42294C15.7061 3.81276 16.6665 3.79356 16.9363 4.38876C17.2029 4.85149 16.8749 5.42451 16.3999 5.58176C15.7706 5.69927 15.1729 5.01901 15.4692 4.42342L15.4689 4.42294ZM11.028 5.54691C11.0228 5.02189 11.5009 4.63068 12 4.59497C12.3309 4.66131 12.6916 4.80233 12.8336 5.13632C13.0982 5.59712 12.8633 6.2313 12.3852 6.44279C12.1666 6.56528 11.9081 6.51959 11.67 6.50509C11.3061 6.32644 10.9995 5.97603 11.0281 5.54701L11.028 5.54691ZM2.66099 6.31184C3.14627 6.01347 3.80099 6.55799 3.61724 7.08513C3.51606 7.54113 2.9031 7.7266 2.5527 7.43553C2.1783 7.16279 2.23792 6.50692 2.66099 6.31184ZM20.6279 6.31088C21.0397 5.9912 21.7191 6.35792 21.67 6.87729C21.6977 7.35134 21.1102 7.70875 20.7015 7.46471C20.2513 7.26244 20.2054 6.56989 20.6279 6.3104V6.31088ZM13.3809 7.25418C14.0603 7.01015 14.8674 7.30218 15.2546 7.90795C15.7655 8.64849 15.4937 9.77621 14.7009 10.2011C13.8795 10.7037 12.6801 10.2779 12.3768 9.36043C12.0323 8.53924 12.5341 7.51156 13.3809 7.25418ZM9.39452 7.3355C10.1475 6.98029 11.1609 7.27789 11.5247 8.04849C11.9527 8.79825 11.6217 9.84226 10.8565 10.2293C10.0903 10.6645 9.00937 10.3349 8.6389 9.52958C8.22274 8.75121 8.59196 7.69396 9.39452 7.3355ZM5.40294 8.70014C5.46054 8.21495 5.91788 7.89931 6.37964 7.86657C6.87721 7.92657 7.27465 8.31297 7.32869 8.81697C7.29605 9.31541 6.91081 9.80271 6.38262 9.79963C5.80143 9.84965 5.29196 9.27163 5.40294 8.70053V8.70014ZM17.1927 7.97246C17.7893 7.62513 18.6178 8.13076 18.5913 8.81621C18.6322 9.54245 17.7153 10.0546 17.1212 9.62827C16.504 9.27355 16.5521 8.27467 17.1927 7.97255V7.97246ZM7.77221 10.5317C8.47004 10.3397 9.26789 10.6686 9.61013 11.31C9.98453 11.9556 9.8318 12.8524 9.24956 13.326C8.50277 14.0206 7.12556 13.7417 6.72812 12.7938C6.27145 11.9249 6.82613 10.7604 7.77221 10.5316V10.5317ZM15.3333 10.5281C16.0116 10.3341 16.8085 10.5953 17.1732 11.2135C17.6554 11.9204 17.4252 12.9746 16.7074 13.4302C15.9554 13.9592 14.7908 13.6814 14.377 12.8542C13.8754 11.9984 14.3802 10.7891 15.3333 10.5281ZM3.28403 11.3345C3.88681 11.1065 4.55497 11.7717 4.31075 12.3693C4.16166 12.9136 3.39443 13.1152 2.99804 12.7135C2.53427 12.3366 2.70601 11.498 3.28412 11.3345H3.28403ZM19.6223 12.2018C19.605 11.7026 19.9703 11.26 20.4825 11.2322C20.8953 11.2975 21.2967 11.6306 21.264 12.0799C21.3019 12.6735 20.5867 13.0769 20.0809 12.798C19.8439 12.6775 19.7224 12.4345 19.6223 12.2015V12.2018ZM0.320414 11.6272C0.683005 11.4689 1.13161 11.7832 1.04886 12.1859C1.02966 12.6419 0.356222 12.8172 0.108926 12.4362C-0.109666 12.1721 0.021086 11.7641 0.320414 11.6272ZM23.1856 11.6176C23.4409 11.4358 23.8507 11.5664 23.9517 11.8648C24.1234 12.1906 23.8087 12.637 23.442 12.5819C22.9271 12.6289 22.7604 11.8442 23.1856 11.6176ZM9.74204 13.8064C10.6963 13.5582 11.722 14.3536 11.7281 15.3366C11.7904 16.3294 10.7801 17.2099 9.80328 16.9806C9.04824 16.859 8.45583 16.1317 8.48031 15.3687C8.47829 14.6391 9.02895 13.9608 9.74213 13.8064H9.74204ZM13.5212 13.8044C14.4897 13.5337 15.546 14.3436 15.5306 15.3489C15.5818 16.3234 14.603 17.1743 13.6466 16.9809C12.7466 16.8646 12.0826 15.8758 12.3338 15.0024C12.4607 14.4204 12.9469 13.9471 13.5212 13.8044ZM6.23478 14.4092C6.90495 14.2949 7.53327 15.0428 7.26149 15.6789C7.06325 16.357 6.07638 16.541 5.64006 15.9871C5.12828 15.4551 5.51036 14.4826 6.23478 14.4092ZM17.3173 14.44C17.9149 14.1897 18.6484 14.7066 18.6024 15.3553C18.6264 16.0693 17.7208 16.5616 17.1364 16.1449C16.474 15.7705 16.595 14.6696 17.3173 14.44ZM20.415 17.5471C20.1811 17.1108 20.6061 16.5327 21.0904 16.6135C21.3314 16.6094 21.5001 16.7993 21.6544 16.9591C21.6861 17.2176 21.7392 17.5255 21.5247 17.7251C21.2333 18.0939 20.5733 17.9887 20.415 17.5474V17.5471ZM2.65916 16.735C3.1118 16.4336 3.76316 16.883 3.6614 17.4123C3.60726 17.8803 3.0182 18.1477 2.6294 17.8827C2.21267 17.6416 2.22803 16.9552 2.65916 16.7355V16.735ZM11.6016 17.7152C12.1942 17.4536 12.949 17.9696 12.8928 18.6223C12.9368 19.3434 12.003 19.8429 11.4241 19.4095C10.7809 19.0376 10.8878 17.9435 11.6019 17.7149L11.6016 17.7152ZM7.45916 18.6809C7.96383 18.4154 8.64121 18.874 8.59522 19.4393C8.61058 19.9031 8.15794 20.2984 7.70021 20.2299C7.32111 20.2217 7.07391 19.8819 6.95237 19.5587C6.95862 19.2065 7.10357 18.8143 7.45916 18.6814V18.6809ZM15.8489 18.6896C16.3679 18.3688 17.1055 18.8295 17.0565 19.4336C17.0698 20.0649 16.2361 20.4693 15.7529 20.0546C15.285 19.7295 15.3421 18.9481 15.8489 18.6896ZM17.3081 22.2964C17.0777 21.947 17.349 21.5262 17.7239 21.4466C18.0253 21.5079 18.344 21.7346 18.2807 22.084C18.2367 22.5569 17.545 22.7021 17.3081 22.2964ZM5.72674 21.993C5.81871 21.7162 6.04143 21.441 6.36735 21.513C6.84246 21.5467 6.98348 22.2628 6.56761 22.4835C6.19369 22.7356 5.75986 22.3904 5.72674 21.993ZM11.3139 22.3107C11.4049 21.9012 11.9351 21.702 12.2845 21.9195C12.5149 22.0187 12.5828 22.277 12.6421 22.4965C12.6104 22.6109 12.5821 22.7254 12.5543 22.8397C12.4112 23.0093 12.2279 23.1789 11.9893 23.1728C11.5468 23.2246 11.1478 22.7245 11.3139 22.3107Z" fill="#3CC8C8"/>
</svg>
