<svg width="24" height="24" viewBox="0 0 24 24" fill="none" xmlns="http://www.w3.org/2000/svg">
<path d="M12 24C18.6274 24 24 18.6274 24 12C24 5.37258 18.6274 0 12 0C5.37258 0 0 5.37258 0 12C0 18.6274 5.37258 24 12 24Z" fill="#786DBC"/>
<path d="M11.9481 8.07802L10.7263 6.85327C10.5618 6.69593 10.4666 6.47969 10.4615 6.25212C10.4564 6.02454 10.542 5.80427 10.6993 5.63977C10.8567 5.47527 11.0729 5.38001 11.3005 5.37495C11.528 5.36989 11.7483 5.45543 11.9128 5.61277L11.9413 5.64127L14.6683 8.36827C15.0036 8.70352 15.0036 9.24577 14.6683 9.58102L11.9383 12.308C11.7763 12.4626 11.5603 12.5476 11.3365 12.545C11.1126 12.5423 10.8987 12.4523 10.7404 12.294C10.5821 12.1357 10.492 11.9217 10.4894 11.6979C10.4867 11.474 10.5718 11.258 10.7263 11.096L12.0066 9.81577C11.144 9.66352 10.2555 9.78012 9.46145 10.1498C8.6674 10.5194 8.00618 11.1243 7.56741 11.8823C7.12864 12.6404 6.93353 13.515 7.00852 14.3877C7.08352 15.2604 7.42498 16.0889 7.98665 16.761C8.54831 17.4331 9.30302 17.9162 10.1485 18.145C10.994 18.3738 11.8894 18.3371 12.7133 18.0399C13.5372 17.7427 14.2499 17.1994 14.7547 16.4836C15.2594 15.7678 15.532 14.9142 15.5353 14.0383V4.60627C15.5353 4.37892 15.6256 4.16087 15.7864 4.00011C15.9472 3.83934 16.1652 3.74902 16.3926 3.74902C16.6199 3.74902 16.838 3.83934 16.9987 4.00011C17.1595 4.16087 17.2498 4.37892 17.2498 4.60627V14.153C17.2259 15.3642 16.8359 16.5397 16.1312 17.525C15.4265 18.5103 14.44 19.2592 13.3016 19.6732C12.1632 20.0872 10.9261 20.1469 9.75309 19.8445C8.58008 19.5421 7.52607 18.8917 6.72972 17.9789C5.93337 17.066 5.43197 15.9336 5.29147 14.7304C5.15098 13.5272 5.37797 12.3096 5.94259 11.2379C6.5072 10.1661 7.383 9.29041 8.45479 8.72588C9.52657 8.16134 10.7441 7.93444 11.9473 8.07502L11.9481 8.07802Z" fill="white"/>
</svg>
