<svg width="24" height="24" fill="none" xmlns="http://www.w3.org/2000/svg"><path fill-rule="evenodd" clip-rule="evenodd" d="M12 0c6.633 0 12 5.367 12 12 0 6.567-5.267 11.9-11.8 12H12V13.9l-1.533 1.533-.2 3.8 1.6 4.767c-.934 0-1.834-.133-2.734-.367l-.233-.066-.767-2.3-2.166 1.1c-.8-.467-1.534-1-2.2-1.634l-.167-.166 4.033-2.034.134-2.3-2.3.134L3.433 20.4c-.633-.667-1.2-1.4-1.666-2.167l-.134-.2 1.1-2.166-2.3-.767c-.233-.9-.366-1.8-.4-2.7v-.233l4.8 1.6 3.8-.2 1.534-1.534L8.633 10.5l-3.8-.2L0 11.867c0-.934.133-1.867.333-2.734L.4 8.9l2.3-.767-1.1-2.166c.467-.8 1-1.534 1.633-2.2L3.4 3.6l2.033 4.033 2.3.134-.133-2.3-4.033-2.034c.666-.633 1.4-1.2 2.166-1.666l.2-.134 2.167 1.1.767-2.3c.9-.233 1.8-.366 2.7-.4h.233L10.2 4.8l.2 3.8 1.533 1.533C12 10.1 12 0 12 0Zm2.667 3.067v17.9C18.5 19.8 21.333 16.233 21.333 12c0-4.167-2.766-7.7-6.533-8.9l-.133-.033Z" fill="#FF00AF"/></svg>