<svg width="24" height="24" fill="none" xmlns="http://www.w3.org/2000/svg"><g clip-path="url(#a)"><path d="M23.276 12.726c.343.229.229.42-.344.572-.229.076-.229.114-.229.229 0 .305-.038.42-.687.534a.38.38 0 0 0-.381.23c.038.266-.267.419-.954.495a.763.763 0 0 0-.496.19c-.115.268-.496.382-1.221.382a.935.935 0 0 0-.572.153c-.23.229-.725.344-1.45.305a1.409 1.409 0 0 0-.649.115 2.503 2.503 0 0 1-1.564.19 2.197 2.197 0 0 0-.725.039 2.95 2.95 0 0 1-1.641.076 2.308 2.308 0 0 0-.725 0 2.97 2.97 0 0 1-1.64-.038 1.5 1.5 0 0 0-.726-.038 2.232 2.232 0 0 1-1.564-.191 1.527 1.527 0 0 0-.649-.114c-.725.038-1.183-.039-1.45-.306a1.677 1.677 0 0 0-.572-.076c-.725 0-1.145-.153-1.22-.382a.763.763 0 0 0-.497-.19c-.687-.077-1.03-.23-.992-.458 0-.115-.114-.191-.382-.23-.648-.114-.877-.304-.686-.533.076-.077 0-.191-.23-.23-.572-.152-.686-.343-.343-.572.115-.076.077-.19-.076-.267-.458-.19-.458-.381 0-.572.153-.076.19-.19.076-.267-.343-.23-.229-.42.344-.572.229-.077.305-.153.229-.23-.191-.228.038-.42.686-.534a.382.382 0 0 0 .382-.229c-.038-.267.267-.42.954-.496a.763.763 0 0 0 .496-.19c.114-.267.496-.382 1.22-.42a.935.935 0 0 0 .573-.153c.23-.229.725-.343 1.45-.305.222.014.445-.026.649-.114a2.503 2.503 0 0 1 1.564-.191c.242.027.487.015.725-.038a2.95 2.95 0 0 1 1.64-.077c.241.039.486.039.726 0a2.969 2.969 0 0 1 1.64.038 1.5 1.5 0 0 0 .726.039 2.232 2.232 0 0 1 1.564.19c.205.085.427.124.649.115.724-.038 1.182.038 1.45.305.169.112.37.165.572.153.725 0 1.144.152 1.22.381a.67.67 0 0 0 .497.191c.534.038.84.19.992.458a.382.382 0 0 0 .381.229c.496 0 .878.305.687.534-.076.076 0 .229.23.229.457 0 .686.343.343.572-.115.077-.115.191.076.267.458.191.458.382 0 .573-.134.038-.172.152-.076.229Z" stroke="#000" stroke-width="1.5"/><path d="M11.2 3.759a1.145 1.145 0 0 0 .763-1.145c-.038-.572-.61-.763-1.336-.496-1.45.496-1.831 2.137-2.06 3.778-.076.458-.115.954-.153 1.373a71.272 71.272 0 0 0-.61 10.455c.038.61.229 1.297-.267 1.946-.84.076-.61-.42-1.374-.153-1.202.416-.916 2.023-.057 1.942.288-.006.567-.099.801-.267 1.488-.763 1.679-2.747 1.946-4.73.456-3.582.673-7.19.649-10.799v-.034c0-.649-.115-1.717.305-1.946.42-.23.725.343 1.373.076M16.789 2.206c-1.45.496-1.832 2.137-2.06 3.778-.077.458-.115.954-.153 1.373a71.266 71.266 0 0 0-.61 10.455c.037.61.228 1.297-.268 1.946-.84.114-.61-.42-1.374-.153-1.182.42-.915 2.023-.038 1.946.288-.006.567-.1.802-.267 1.488-.763 1.678-2.747 1.945-4.731a81.09 81.09 0 0 0 .65-10.798v-.038c0-.649-.115-1.717.304-1.946.42-.23.725.305 1.374.038a1.144 1.144 0 0 0 .763-1.145c-.038-.534-.61-.725-1.335-.458Z" fill="#000"/></g><defs><clipPath id="a"><path fill="#fff" d="M0 0h24v24H0z"/></clipPath></defs></svg>