<svg width="24" height="24" fill="none" xmlns="http://www.w3.org/2000/svg"><g clip-path="url(#a)" fill="#000"><path d="M23.978 21.46v-.027L12.267 2.163l-.016-.024a.303.303 0 0 0-.422-.09.323.323 0 0 0-.091.086l-.016.026A551.365 551.365 0 0 1 9.35 6.043a.674.674 0 0 0 0 .77c1.052 1.71 2.1 3.422 3.146 5.134a.728.728 0 0 1 0 .834c-1.723 2.833-3.543 5.81-5.282 8.655a.308.308 0 0 0 .268.452h5.051a.304.304 0 0 0 .271-.161l.173-.29 2.342-3.848a.304.304 0 0 1 .415-.121.286.286 0 0 1 .106.095l2.32 3.78.214.352a.308.308 0 0 0 .269.16h.141a.428.428 0 0 0 .072 0h4.838A.306.306 0 0 0 24 21.55a.31.31 0 0 0-.022-.09Z"/><path d="m10.514 12.972.17-.279a.597.597 0 0 0 0-.682l-1.04-1.683-1.193-1.924a.304.304 0 0 0-.422-.1.3.3 0 0 0-.11.114L.037 21.438a.306.306 0 0 0 .27.452h4.632a.306.306 0 0 0 .268-.16l.177-.294a.325.325 0 0 0 .022-.034l.2-.318a2783.102 2783.102 0 0 1 4.91-8.112Z"/></g><defs><clipPath id="a"><path fill="#fff" d="M0 0h24v24H0z"/></clipPath></defs></svg>