<svg width="24" height="24" viewBox="0 0 24 24" fill="none" xmlns="http://www.w3.org/2000/svg">
<path fill-rule="evenodd" clip-rule="evenodd" d="M24 12C24 18.6274 18.6274 24 12 24C5.37255 24 0 18.6274 0 12C0 5.37255 5.37255 0 12 0C18.6274 0 24 5.37255 24 12Z" fill="#7E2023"/>
<path fill-rule="evenodd" clip-rule="evenodd" d="M12.0003 22.2539C6.34614 22.2539 1.74609 17.6539 1.74609 11.9998C1.74609 6.34565 6.34614 1.74561 12.0003 1.74561C17.6544 1.74561 22.2544 6.34565 22.2544 11.9998C22.2544 17.6539 17.6544 22.2539 12.0003 22.2539Z" fill="url(#paint0_linear)"/>
<path fill-rule="evenodd" clip-rule="evenodd" d="M12.8746 17.7059C11.8876 16.6912 10.6222 15.898 9.9424 15.1153C8.73067 13.7203 8.30662 12.4991 8.707 11.1445C9.10737 9.78985 10.1271 8.99539 11.9026 8.48324C12.8986 8.1959 14.3919 8.21798 15.7719 7.90286C17.5763 7.46178 19.1009 6.48819 19.4709 4.34881L18.0443 3.65234C17.84 5.94547 16.4203 6.74728 14.4779 6.8708C10.3706 7.11398 7.90757 8.1361 7.15403 10.6855C6.40055 13.2349 7.91221 15.4318 11.2274 17.8687C12.7905 19.0283 13.5462 20.4731 12.4712 22.5089L14.0471 22.6998C14.8996 20.7031 14.1492 19.0571 12.8746 17.7059Z" fill="#7E2023"/>
<path fill-rule="evenodd" clip-rule="evenodd" d="M15.1171 8.40479C14.6624 8.47586 14.2095 8.52313 13.7665 8.56927C13.675 8.57882 13.5842 8.58823 13.4944 8.59785C13.6851 8.76843 13.8576 8.9365 14.0032 9.10403C15.2149 10.4991 15.6389 11.7202 15.2386 13.0748C14.8382 14.4295 13.8184 15.2239 12.043 15.7361C11.8298 15.7976 11.5936 15.8449 11.3408 15.8844C11.411 15.9412 11.482 15.9985 11.5536 16.0563C11.9004 16.3358 12.2548 16.6217 12.5978 16.9286C14.8485 16.3923 16.2544 15.3511 16.7915 13.5338C17.3286 11.7166 16.7147 10.0784 15.1171 8.40479Z" fill="#3A3A39"/>
<path fill-rule="evenodd" clip-rule="evenodd" d="M11.0704 6.51339C11.1942 6.64068 11.3224 6.76453 11.4533 6.88525C11.5119 6.87233 11.5711 6.8596 11.631 6.8472C12.0784 6.75458 12.5572 6.67867 13.0758 6.6184C12.9588 6.52943 12.8394 6.44019 12.7176 6.35056C11.1544 5.191 10.3987 3.74623 11.4738 1.71047L9.8979 1.51953C9.04537 3.51624 9.79566 5.16216 11.0704 6.51339Z" fill="#3A3A39"/>
<path fill-rule="evenodd" clip-rule="evenodd" d="M8.82557 16.341C8.78201 16.298 8.73925 16.2552 8.69715 16.2124C8.52159 16.2426 8.3467 16.2768 8.17353 16.3164C6.36908 16.7575 4.84455 17.7311 4.47461 19.8704L5.90115 20.5669C6.10548 18.2738 7.52519 17.472 9.46754 17.3485C9.61856 17.3395 9.76727 17.3295 9.91379 17.3184C9.51129 16.9859 9.1507 16.662 8.82557 16.341Z" fill="#3A3A39"/>
<path fill-rule="evenodd" clip-rule="evenodd" d="M14.2168 13.0386L9.58338 11.6692C9.4049 11.6164 9.30294 11.4289 9.35571 11.2504L9.37348 11.1903C9.42619 11.0118 9.61368 10.9099 9.79222 10.9626L14.4256 12.332C14.6042 12.3848 14.7061 12.5723 14.6533 12.7508L14.6356 12.8109C14.5828 12.9895 14.3953 13.0914 14.2168 13.0386Z" fill="#3A3A39"/>
<path fill-rule="evenodd" clip-rule="evenodd" d="M13.2952 13.1722L10.2845 12.2823C10.0893 12.2246 9.88441 12.3361 9.82673 12.5312C9.76905 12.7263 9.8805 12.9312 10.0756 12.9888L13.0864 13.8787C13.2815 13.9364 13.4864 13.825 13.5441 13.6299C13.6018 13.4348 13.4903 13.2298 13.2952 13.1722Z" fill="#3A3A39"/>
<path fill-rule="evenodd" clip-rule="evenodd" d="M13.9339 11.0125L10.9231 10.1226C10.728 10.0649 10.5231 10.1764 10.4654 10.3714C10.4077 10.5666 10.5192 10.7715 10.7143 10.8292L13.7251 11.719C13.9202 11.7767 14.1251 11.6653 14.1827 11.4701C14.2404 11.275 14.129 11.0702 13.9339 11.0125Z" fill="#3A3A39"/>
<path fill-rule="evenodd" clip-rule="evenodd" d="M16.6416 4.83454L12.0082 3.46508C11.8297 3.41231 11.7277 3.22482 11.7805 3.04634L11.7983 2.98621C11.8511 2.80774 12.0385 2.70577 12.217 2.75854L16.8504 4.12793C17.029 4.18071 17.1309 4.3682 17.0782 4.54674L17.0604 4.60681C17.0076 4.78535 16.8201 4.88725 16.6416 4.83454Z" fill="#3A3A39"/>
<path fill-rule="evenodd" clip-rule="evenodd" d="M15.72 4.96805L12.7092 4.0782C12.5141 4.02052 12.3092 4.13196 12.2515 4.32708C12.1939 4.5222 12.3053 4.72712 12.5004 4.78474L15.5112 5.67459C15.7063 5.73227 15.9112 5.62089 15.9689 5.42578C16.0265 5.23066 15.9152 5.02573 15.72 4.96805Z" fill="#3A3A39"/>
<path fill-rule="evenodd" clip-rule="evenodd" d="M16.3587 2.8079L13.3479 1.91804C13.1528 1.86036 12.9479 1.97181 12.8902 2.16692C12.8326 2.36197 12.944 2.5669 13.1391 2.62458L16.1499 3.51444C16.345 3.57212 16.5499 3.46067 16.6075 3.26555C16.6652 3.0705 16.5538 2.86558 16.3587 2.8079Z" fill="#3A3A39"/>
<path fill-rule="evenodd" clip-rule="evenodd" d="M11.792 21.2432L7.15858 19.8738C6.98004 19.821 6.87814 19.6335 6.93091 19.455L6.94861 19.3949C7.00139 19.2164 7.18888 19.1145 7.36742 19.1672L12.0008 20.5366C12.1793 20.5894 12.2813 20.7769 12.2285 20.9554L12.2107 21.0155C12.158 21.194 11.9705 21.2959 11.792 21.2432Z" fill="#3A3A39"/>
<path fill-rule="evenodd" clip-rule="evenodd" d="M10.8704 21.3767L7.85958 20.4869C7.66447 20.4292 7.45961 20.5407 7.40193 20.7358C7.34425 20.9309 7.45569 21.1357 7.65081 21.1934L10.6615 22.0833C10.8567 22.141 11.0616 22.0295 11.1193 21.8345C11.177 21.6394 11.0655 21.4344 10.8704 21.3767Z" fill="#3A3A39"/>
<path fill-rule="evenodd" clip-rule="evenodd" d="M11.5091 19.2171L8.49826 18.3272C8.30321 18.2695 8.09828 18.3809 8.0406 18.576C7.98292 18.7712 8.09437 18.9761 8.28948 19.0338L11.3002 19.9236C11.4953 19.9813 11.7003 19.8699 11.7579 19.6747C11.8156 19.4796 11.7042 19.2748 11.5091 19.2171Z" fill="#3A3A39"/>
<path fill-rule="evenodd" clip-rule="evenodd" d="M12.0002 22.2543C6.34604 22.2543 1.74599 17.6543 1.74599 12.0002C1.74599 6.34604 6.34604 1.74599 12.0002 1.74599C17.6543 1.74599 22.2543 6.34604 22.2543 12.0002C22.2543 17.6543 17.6543 22.2543 12.0002 22.2543ZM12.0002 1.08301C5.98047 1.08301 1.08301 5.98047 1.08301 12.0002C1.08301 18.0198 5.98047 22.9173 12.0002 22.9173C18.0198 22.9173 22.9173 18.0198 22.9173 12.0002C22.9173 5.98047 18.0198 1.08301 12.0002 1.08301Z" fill="#FFFFFE"/>
<defs>
<linearGradient id="paint0_linear" x1="-11.1323" y1="0.0316461" x2="-11.1323" y2="23.9679" gradientUnits="userSpaceOnUse">
<stop stop-color="white"/>
<stop offset="1" stop-color="#7E2023"/>
</linearGradient>
</defs>
</svg>
