<svg width="24" height="24" viewBox="0 0 24 24" fill="none" xmlns="http://www.w3.org/2000/svg">
<path fill-rule="evenodd" clip-rule="evenodd" d="M24 12C24 18.6274 18.6274 24 12 24C5.37255 24 0 18.6274 0 12C0 5.37255 5.37255 0 12 0C18.6274 0 24 5.37255 24 12Z" fill="black"/>
<path fill-rule="evenodd" clip-rule="evenodd" d="M4.87305 9.36279H5.57654V12.5061C5.57654 13.0606 5.67705 13.4598 5.87806 13.7035C6.07908 13.9473 6.40487 14.0691 6.85537 14.0691C7.30354 14.0691 7.62821 13.9473 7.82922 13.7035C8.03024 13.4598 8.13075 13.0606 8.13075 12.5061V9.36279H8.83424V12.5928C8.83424 13.2674 8.6673 13.7769 8.33349 14.1211C7.99961 14.4654 7.50695 14.6375 6.85537 14.6375C6.20147 14.6375 5.70761 14.4654 5.3738 14.1211C5.03992 13.7769 4.87305 13.2674 4.87305 12.5928V9.36279Z" fill="#BEF400"/>
<path fill-rule="evenodd" clip-rule="evenodd" d="M10.1475 9.36279H11.0901L13.3843 13.6913V9.36279H14.0636V14.537H13.1209L10.8267 10.2084V14.537H10.1475V9.36279Z" fill="#BEF400"/>
<path fill-rule="evenodd" clip-rule="evenodd" d="M16.1571 12.066V13.9617H17.2799C17.6565 13.9617 17.9355 13.8837 18.1169 13.7277C18.2982 13.5718 18.3889 13.3333 18.3889 13.0121C18.3889 12.6887 18.2982 12.4501 18.1169 12.2964C17.9355 12.1429 17.6565 12.066 17.2799 12.066H16.1571ZM16.1571 9.93806V11.4976H17.1933C17.5352 11.4976 17.7899 11.4335 17.9575 11.3053C18.1249 11.177 18.2087 10.9813 18.2087 10.7179C18.2087 10.4568 18.1249 10.2616 17.9575 10.1322C17.7899 10.0028 17.5352 9.93806 17.1933 9.93806H16.1571ZM15.457 9.36279H17.2453C17.779 9.36279 18.1902 9.47371 18.479 9.69548C18.7678 9.91731 18.9122 10.2327 18.9122 10.6416C18.9122 10.9582 18.8383 11.21 18.6905 11.3971C18.5426 11.5843 18.3254 11.701 18.0389 11.7471C18.3831 11.8211 18.6506 11.9753 18.8412 12.2098C19.0318 12.4443 19.1271 12.7372 19.1271 13.0884C19.1271 13.5505 18.97 13.9074 18.6558 14.1592C18.3415 14.4111 17.8944 14.537 17.3146 14.537H15.457V9.36279Z" fill="#BEF400"/>
</svg>
