<svg width="24" height="24" fill="none" xmlns="http://www.w3.org/2000/svg"><path fill-rule="evenodd" clip-rule="evenodd" d="M23.962 11.957c0 6.594-5.346 11.94-11.94 11.94-6.595 0-11.94-5.346-11.94-11.94 0-6.595 5.345-11.94 11.94-11.94 6.594 0 11.94 5.345 11.94 11.94Z" fill="#E1F0FF"/><path fill-rule="evenodd" clip-rule="evenodd" d="m8.937 10.425 9.174-5.334v10.927a4.1 4.1 0 0 1-2.102 3.58l-.644.359V9.191l-4.348 2.487-2.08-1.253Z" fill="#25558B"/><path fill-rule="evenodd" clip-rule="evenodd" d="m14.51 13.629-5.573-3.204 9.174-5.334-.885-.455a4.099 4.099 0 0 0-3.912.09L4 10.066l10.429 6.07.08-2.507Z" fill="#5191D9"/><path fill-rule="evenodd" clip-rule="evenodd" d="M4.001 10.066v1.184c0 1.482.8 2.848 2.09 3.574l9.294 5.223V9.191l-2.295 1.301v4.844L4 10.066Z" fill="#97BDE8"/></svg>