<svg width="24" height="24" viewBox="0 0 24 24" fill="none" xmlns="http://www.w3.org/2000/svg">
<path d="M12 24C18.6274 24 24 18.6274 24 12C24 5.37258 18.6274 0 12 0C5.37258 0 0 5.37258 0 12C0 18.6274 5.37258 24 12 24Z" fill="#4C6BAE"/>
<path opacity="0.5" fill-rule="evenodd" clip-rule="evenodd" d="M4.78725 12.7573L3.75 12.8646C4.305 11.3121 5.40225 10.0701 7.04325 9.13855C7.1985 10.4256 7.80825 11.4898 8.87325 12.3328L7.89825 12.4341C7.99324 13.3293 8.37833 14.1689 8.99483 14.8249C9.61132 15.4809 10.4254 15.9174 11.313 16.0678C10.6594 16.5595 9.88566 16.8664 9.07275 16.9566C9.5835 17.8566 10.188 18.5938 10.8855 19.1668C9.30453 18.9204 7.84936 18.1583 6.74644 16.9991C5.64352 15.8398 4.95473 14.3486 4.78725 12.7573ZM19.2128 11.2423L20.25 11.1351C19.695 12.6876 18.5977 13.9296 16.9567 14.8611C16.8015 13.5741 16.1918 12.5098 15.1268 11.6668L16.1017 11.5656C16.0058 10.6609 15.6136 9.81325 14.9861 9.15448C14.3587 8.49571 13.5312 8.06271 12.6322 7.9228C13.2836 7.43624 14.0532 7.13252 14.8612 7.04305C14.346 6.1363 13.737 5.39605 13.0328 4.8208C14.6304 5.0512 16.1056 5.80779 17.2249 6.97084C18.3442 8.1339 19.0437 9.637 19.2128 11.2423Z" fill="white"/>
<path fill-rule="evenodd" clip-rule="evenodd" d="M12.6918 19.2195L12.799 20.25C11.2465 19.695 10.0045 18.5977 9.07304 16.9567C10.3593 16.8015 11.4235 16.1918 12.2665 15.1268L12.3685 16.1093C13.2861 16.0268 14.1497 15.6396 14.8218 15.0095C15.4939 14.3794 15.9358 13.5426 16.0773 12.6322C16.5639 13.2836 16.8676 14.0532 16.957 14.8612C17.8638 14.346 18.604 13.737 19.1793 13.0328C18.9473 14.6417 18.1817 16.1261 17.0053 17.2479C15.8289 18.3698 14.3099 19.0641 12.6918 19.2195ZM11.2428 4.78725L11.1355 3.75C12.688 4.305 13.93 5.40225 14.8615 7.04325C13.5745 7.1985 12.5103 7.80825 11.6673 8.87325L11.566 7.89825C10.6614 7.99422 9.81374 8.38642 9.15497 9.01386C8.4962 9.6413 8.0632 10.4688 7.92329 11.3677C7.43673 10.7164 7.133 9.94685 7.04354 9.13875C6.13679 9.654 5.39654 10.263 4.82129 10.9672C5.05169 9.3696 5.80828 7.89441 6.97133 6.77509C8.13439 5.65578 9.63749 4.95627 11.2428 4.78725Z" fill="white"/>
</svg>
