<svg width="24" height="24" fill="none" xmlns="http://www.w3.org/2000/svg"><path fill-rule="evenodd" clip-rule="evenodd" d="M16 16.448h-.382v2.744h-1.742v-2.744h-2.493v-1.062h2.493v-1.824s-1.665 1.178-4.061.837c-2.617-.372-2.825-2.96-2.825-2.96V6.155h1.627l.078 5.214s.058 1.304 2.445 1.724c1.427.252 2.736-.756 2.736-.756V6.156h1.742v9.23H16v1.062ZM12 0C5.373 0 0 5.373 0 12s5.373 12 12 12 12-5.373 12-12S18.627 0 12 0Z" fill="#057BC1"/><path fill-rule="evenodd" clip-rule="evenodd" d="M15.618 6.156h-1.742v6.182s-1.31 1.008-2.736.756c-2.387-.42-2.445-1.724-2.445-1.724l-.078-5.214H6.99v5.282s.208 2.589 2.825 2.961c2.396.341 4.06-.837 4.06-.837v1.824h-2.492v1.062h2.493v2.744h1.742v-2.744H16v-1.062h-.382v-9.23Z" fill="#fff"/></svg>