<svg width="24" height="24" viewBox="0 0 24 24" fill="none" xmlns="http://www.w3.org/2000/svg">
<path d="M6.22797 2.13585L17.9951 8.92647V15.8529L0 5.46325L5.76718 2.13585C5.83796 2.09764 5.91714 2.07764 5.99757 2.07764C6.07801 2.07764 6.15719 2.09764 6.22797 2.13585Z" fill="#3CA9E5"/>
<path d="M17.9951 2L11.9951 5.46322L17.9951 8.92643V2Z" fill="#2853C3"/>
<path d="M17.9951 2L23.7671 5.3274C23.8366 5.36964 23.8943 5.42863 23.935 5.49898C23.9756 5.56932 23.998 5.64876 24 5.72999V19.3112L17.9951 15.8529V2Z" fill="#1A4199"/>
<path d="M23.995 19.3163L18.2278 22.6437C18.1541 22.6863 18.0705 22.7087 17.9853 22.7087C17.9002 22.7087 17.8165 22.6863 17.7428 22.6437L5.98047 15.8531V8.91699L23.995 19.3163Z" fill="#2853C3"/>
<path d="M8.22662e-06 5.46338V19.0446C-0.000479262 19.1283 0.0207065 19.2107 0.0615048 19.2838C0.102303 19.3569 0.161325 19.4182 0.23283 19.4618L6.00001 22.7892V8.9169L8.22662e-06 5.46338Z" fill="#60BEFF"/>
<path d="M6 22.7795L11.9951 19.3162L6 15.853V22.7795Z" fill="#3CA9E5"/>
</svg>
