<svg width="24" height="24" fill="none" xmlns="http://www.w3.org/2000/svg"><g clip-path="url(#a)" fill="#5F45BA"><path d="M6.416 4.051a1.357 1.357 0 1 1-2.334-1.386A1.357 1.357 0 0 1 6.416 4.05ZM1.783 3.449a.96.96 0 1 1-1.65-.982.96.96 0 0 1 1.65.982ZM14.681 23.092c4.973-.584 8.972-4.65 9.299-9.824.367-5.822-4.056-10.84-9.879-11.206a10.601 10.601 0 0 0-2.046.07c-1.399.114-2.58.648-2.58.648-.958.468-1.576 1.25-1.576 2.297a2.464 2.464 0 0 0 2.463 2.465c.228 0 1.015-.25 1.203-.315a5.69 5.69 0 0 1 7.554 5.737A5.694 5.694 0 0 1 8.682 15.74v.001-.001c-1.137-1.488-.875-3.868-.876-3.898a2.467 2.467 0 0 0-4.845-.558c-.056.207-.084.812-.076.892-.235 5.722 4.144 10.61 9.887 10.97.637.04 1.275.022 1.909-.054ZM5.003 7.819a1.76 1.76 0 1 1-3.026-1.796A1.76 1.76 0 0 1 5.003 7.82Z"/></g><defs><clipPath id="a"><path fill="#fff" d="M0 0h24v24H0z"/></clipPath></defs></svg>