<svg width="24" height="24" fill="none" xmlns="http://www.w3.org/2000/svg"><g clip-path="url(#a)"><path d="M14.207 7.382c0-3.444-1.66-6.41-2.931-7.382 0 0-.089-.053-.089.088-.105 6.658-3.479 8.477-5.35 10.897-4.292 5.615-.3 11.761 3.761 12.891 2.278.636-.53-1.13-.883-4.838-.424-4.504 5.492-7.93 5.492-11.656Z" fill="#282E5B"/><path d="M16.433 9.66c-.018-.017-.053-.017-.089 0l-.017.018c-.07.83-.99 2.631-2.137 4.274-3.903 5.58-1.678 8.264-.424 9.713.724.847 0 0 1.82-.866.14-.07 3.531-1.872 3.902-5.951.37-3.974-2.155-6.464-3.055-7.188Z" fill="#059BDC"/></g><defs><clipPath id="a"><path fill="#fff" d="M0 0h24v24H0z"/></clipPath></defs></svg>