<svg width="24" height="24" fill="none" xmlns="http://www.w3.org/2000/svg"><path d="M12 24c6.627 0 12-5.373 12-12S18.627 0 12 0 0 5.373 0 12s5.373 12 12 12Z" fill="#0899CD"/><path d="M20.227 12.65c-.14 2.002-.939 3.728-2.396 5.181a8.804 8.804 0 0 1-1.155.979.782.782 0 0 0-.057-.076l3.517-6.094c.03.005.06.009.091.01ZM16.3 19.061c-1.268.793-2.702 1.189-4.3 1.189-1.528 0-2.905-.362-4.133-1.086a7.4 7.4 0 0 0 .563.3.598.598 0 0 0 .048-.098h7.044a.58.58 0 0 0 .047.098c.25-.12.493-.255.73-.403Zm-8.976-.247a8.829 8.829 0 0 1-1.163-.983c-1.452-1.453-2.248-3.18-2.388-5.18a.602.602 0 0 0 .09-.011l3.518 6.093a.586.586 0 0 0-.057.08ZM3.75 11.873c.03-2.226.832-4.13 2.41-5.712C7.774 4.553 9.72 3.75 12 3.75s4.224.804 5.831 2.411c1.605 1.605 2.412 3.542 2.419 5.808 0-.202-.008-.404-.023-.605a.601.601 0 0 0-.09.011L16.622 5.27a.604.604 0 0 0 .059-.08 7.768 7.768 0 0 0-1.108-.655.637.637 0 0 0-.051.107H8.478a.629.629 0 0 0-.051-.107 7.79 7.79 0 0 0-1.107.651c.017.03.037.06.061.087l-3.518 6.102a.599.599 0 0 0-.091-.011 9.468 9.468 0 0 0-.021.51l-.001-.002Zm16.01-.28a.628.628 0 0 0-.118.194h-2.907a.65.65 0 0 0-.154-.233.65.65 0 0 0-.234-.154V5.679l3.412 5.915Zm-.118.633a.63.63 0 0 0 .117.193l-3.412 5.909v-5.715a.65.65 0 0 0 .234-.153.652.652 0 0 0 .154-.234h2.907Zm-15.284-.438a.628.628 0 0 0-.117-.194L7.652 5.68v5.722a.65.65 0 0 0-.234.154.651.651 0 0 0-.154.233H4.358ZM8.47 5.095a.082.082 0 0 0 .008-.015h7.044c.027.07.067.136.117.193l-2.153 3.72a.618.618 0 0 0-.431.073L8.471 5.095Zm.008 6.693a.65.65 0 0 0-.154-.233.65.65 0 0 0-.234-.154V5.679l3.416 5.908a.638.638 0 0 0-.112.2H8.479Zm5.499-1.933a.653.653 0 0 0 .04-.23.623.623 0 0 0-.15-.413L15.91 5.68v5.72a.605.605 0 0 0-.096.044l-1.837-1.59v.001Zm-1.203-.46a.596.596 0 0 0-.044.23.61.61 0 0 0 .154.413l-.771 1.33a.583.583 0 0 0-.227 0L8.712 5.88l4.063 3.515Zm-.165 2.393a.654.654 0 0 0-.116-.2l.768-1.331c.147.03.3.003.43-.073l1.838 1.59a.105.105 0 0 1-.007.015H12.61v-.001Zm3.067.672c.065.068.145.12.234.154v5.714l-3.417-5.918a.622.622 0 0 0 .11-.184h2.919a.652.652 0 0 0 .154.234Zm-3.782.176a.73.73 0 0 0 .219-.004l3.175 5.499-4.06-3.511a.651.651 0 0 0-.109-.643l.775-1.341Zm3.635 6.277a.123.123 0 0 1-.007.015H8.479a.635.635 0 0 0-.113-.195l2.148-3.712c.147.03.3.003.43-.073l4.586 3.965Zm-4.79-5.156a.617.617 0 0 0-.431.073L8.47 12.242a.095.095 0 0 0 .008-.016h2.919a.635.635 0 0 0 .113.19l-.771 1.341Zm-.713.402a.596.596 0 0 0-.043.23c0 .158.051.295.154.413l-2.047 3.53v-5.719a.606.606 0 0 0 .095-.043l1.841 1.59ZM7.42 12.46c.066.068.146.12.234.154v5.714L4.241 12.42a.63.63 0 0 0 .117-.194h2.907a.653.653 0 0 0 .154.234Z" fill="#fff"/></svg>