<svg width="24" height="24" fill="none" xmlns="http://www.w3.org/2000/svg"><g clip-path="url(#a)"><path d="M23.841 9.668a7.177 7.177 0 0 0-.887-2.225c-.86-1.375-2.739-3.375-5.087-4.95 0 0-1.774-1.1-2.608-1.475-3.053-1.35-6.47-1.625-9.392.85-4.904 4.175-7.356 10-4.904 15.8.052.125 1.409 3.675 9.548 6.05 3.574.1 5.66-.1 7.956-1.375 3-1.65 4.748-4.65 5.374-7.7.183-.925.209-4.05 0-4.975Z" fill="#04FFCC"/><path d="M14.345 1.442v5.575l-6.73-.4-2.765 3.35-.34 6.325 2.296 2.35 3.444 1.65 4.513.475 4.904-1.2V7.942l-.939-4.825s-2.635-1.975-4.356-2.45" fill="#7DF8FB"/><path d="M22.224 15.268c-.94-.05-.418-1.475-.835-3.1-.496-1.8.235-3.05 1.2-3 .453.067.883.239 1.252.5a7.177 7.177 0 0 0-.887-2.225c-.86-1.375-2.739-3.375-5.087-4.95v15.075c.001.713-.515 1.33-1.24 1.487-.727.156-1.469-.192-1.786-.837-2.575 1.53-5.927 1.048-7.922-1.138-1.994-2.186-2.044-5.435-.118-7.676 1.926-2.242 5.262-2.818 7.884-1.361v-5.85a1.45 1.45 0 0 1 .574-1.175c-3.053-1.35-6.47-1.625-9.392.85-4.904 4.175-7.356 10-4.904 15.8.052.125.104.25.156.35.072-.14.17-.268.287-.375 1.279-1.25 2.687 1.3 5.687 2.775 1.905.925 3 2.15 3.418 3.3 2.791.325 5.66-.1 7.956-1.375 3-1.65 4.748-4.65 5.374-7.7-.45.376-1.02.596-1.617.625ZM11.998 3.418c.704-.025 1.356.775 1.382 1.15.026.375-.6.225-1.278.45-.756.25-1.304.025-1.33-.35-.026-.375.495-1.225 1.226-1.25Z" fill="#2C398F"/><path d="M10.459 15.367c1.513.825 3.34.5 3.678-1.35.183-1.074.079-2.75-.913-3.274-3.287-1.8-6.052 2.825-2.765 4.624Z" fill="#2C398F"/></g><defs><clipPath id="a"><path fill="#fff" d="M0 0h24v24H0z"/></clipPath></defs></svg>