<svg width="24" height="24" fill="none" xmlns="http://www.w3.org/2000/svg"><path fill-rule="evenodd" clip-rule="evenodd" d="M16.654 7.425H6.896v1.761h9.758v-1.76Zm0 3.703H6.896v1.761h9.758v-1.76Zm-9.758 3.704h9.758v1.76H6.896v-1.76Z" fill="#0DA9FF"/><path d="M12 0C5.374 0 0 5.374 0 12s5.374 12 12 12 12-5.374 12-12S18.626 0 12 0Zm.89 22.203v-2.796h-1.761v2.796C5.882 21.749 1.76 17.355 1.76 12c0-5.356 4.121-9.749 9.368-10.203v2.778h1.76V1.797c5.229.454 9.368 4.847 9.368 10.203-.018 5.355-4.139 9.749-9.367 10.203Z" fill="#202326"/></svg>