<svg width="24" height="24" viewBox="0 0 24 24" fill="none" xmlns="http://www.w3.org/2000/svg">
<path d="M12 24C18.6274 24 24 18.6274 24 12C24 5.37258 18.6274 0 12 0C5.37258 0 0 5.37258 0 12C0 18.6274 5.37258 24 12 24Z" fill="#E53431"/>
<path d="M9.08814 3.9856C9.12033 3.96076 9.15998 3.94754 9.20064 3.9481C9.24121 3.9481 9.28069 3.96126 9.31314 3.9856L10.2559 4.6921C10.2756 4.70693 10.2922 4.72549 10.3047 4.74672C10.3172 4.76795 10.3255 4.79144 10.3289 4.81585C10.3323 4.84026 10.331 4.86511 10.3248 4.88898C10.3186 4.91286 10.3078 4.93528 10.293 4.95498C10.2782 4.97468 10.2596 4.99126 10.2384 5.00379C10.2172 5.01632 10.1937 5.02454 10.1693 5.02799C10.1449 5.03143 10.12 5.03004 10.0961 5.02388C10.0723 5.01773 10.0498 5.00693 10.0301 4.9921L9.20064 4.37185L6.50289 6.3946L18.3529 15.2851C18.3763 15.3027 18.3954 15.3255 18.4085 15.3518C18.4216 15.378 18.4284 15.4069 18.4284 15.4362C18.4284 15.4655 18.4216 15.4945 18.4085 15.5207C18.3954 15.5469 18.3763 15.5697 18.3529 15.5874L17.4821 16.2399C17.4422 16.2697 17.392 16.2824 17.3426 16.2753C17.2932 16.2681 17.2487 16.2416 17.2189 16.2016C17.1891 16.1616 17.1763 16.1114 17.1835 16.0621C17.1907 16.0127 17.2172 15.9682 17.2571 15.9384L17.9269 15.4359L6.07614 6.54685C6.05258 6.52958 6.03342 6.507 6.02021 6.48094C6.00701 6.45488 6.00012 6.42607 6.00012 6.39685C6.00012 6.36764 6.00701 6.33883 6.02021 6.31277C6.03342 6.28671 6.05258 6.26413 6.07614 6.24686L9.08814 3.98635V3.9856ZM12.1009 3.9856C12.133 3.9607 12.1725 3.94705 12.2131 3.94678C12.2538 3.94651 12.2934 3.95963 12.3259 3.9841L18.3521 8.50435C18.3838 8.52777 18.4072 8.56072 18.4188 8.59838C18.4304 8.63603 18.4296 8.67641 18.4166 8.7136C18.4044 8.75113 18.3807 8.78382 18.3487 8.807C18.3168 8.83017 18.2784 8.84264 18.2389 8.8426H15.2261C15.1856 8.84234 15.1462 8.82921 15.1136 8.8051L11.1589 5.8396C11.1391 5.82478 11.1224 5.8062 11.1098 5.78493C11.0972 5.76366 11.0889 5.74012 11.0854 5.71564C11.0818 5.69116 11.0832 5.66622 11.0893 5.64226C11.0954 5.6183 11.1062 5.59578 11.121 5.57598C11.1358 5.55618 11.1544 5.5395 11.1757 5.52688C11.197 5.51426 11.2205 5.50596 11.245 5.50244C11.2695 5.49893 11.2944 5.50027 11.3184 5.50638C11.3423 5.5125 11.3648 5.52328 11.3846 5.5381L15.2899 8.4661H17.6741L12.2141 4.3711L8.43414 7.2061C8.41435 7.22093 8.39182 7.23171 8.36786 7.23782C8.3439 7.24394 8.31897 7.24528 8.29449 7.24177C8.24505 7.23466 8.20045 7.20821 8.17052 7.16823C8.14058 7.12825 8.12775 7.07801 8.13486 7.02857C8.14196 6.97913 8.16841 6.93454 8.20839 6.9046L12.1009 3.9856ZM6.90789 7.88185C6.94807 7.85758 6.99584 7.84912 7.0419 7.85813C7.08797 7.86714 7.12903 7.89296 7.1571 7.93058C7.18518 7.9682 7.19825 8.01492 7.19377 8.06164C7.1893 8.10836 7.1676 8.15175 7.13289 8.18336L6.50214 8.65586L18.3529 17.5464C18.3765 17.5638 18.3956 17.5865 18.4088 17.6127C18.422 17.6389 18.4289 17.6678 18.4289 17.6971C18.4289 17.7264 18.422 17.7553 18.4088 17.7815C18.3956 17.8077 18.3765 17.8304 18.3529 17.8479L15.3401 20.1076C15.3075 20.1316 15.2681 20.1446 15.2276 20.1446C15.1872 20.1446 15.1477 20.1316 15.1151 20.1076L14.2429 19.4536C14.2029 19.4235 14.1765 19.3787 14.1696 19.3291C14.1626 19.2795 14.1756 19.2292 14.2058 19.1892C14.2359 19.1492 14.2807 19.1229 14.3303 19.1159C14.3798 19.109 14.4302 19.122 14.4701 19.1521L15.2276 19.7199L17.9276 17.6949L6.07389 8.8066C6.05072 8.78889 6.03195 8.76608 6.01902 8.73993C6.0061 8.71379 5.99938 8.68502 5.99938 8.65586C5.99938 8.62669 6.0061 8.59792 6.01902 8.57177C6.03195 8.54563 6.05072 8.52282 6.07389 8.50511L6.90639 7.88261L6.90789 7.88185ZM6.18864 15.2461V15.2476H9.19989C9.24055 15.247 9.28021 15.2603 9.31239 15.2851L13.2244 18.2184C13.2442 18.2331 13.2609 18.2517 13.2735 18.2729C13.2862 18.2941 13.2945 18.3176 13.298 18.3421C13.3016 18.3665 13.3003 18.3914 13.2942 18.4154C13.2881 18.4393 13.2774 18.4618 13.2626 18.4816C13.2479 18.5014 13.2293 18.5181 13.2081 18.5307C13.1869 18.5434 13.1634 18.5517 13.1389 18.5553C13.1145 18.5588 13.0896 18.5575 13.0656 18.5514C13.0417 18.5454 13.0192 18.5346 12.9994 18.5199L9.13989 15.6241H6.75414L12.2149 19.7191L15.9874 16.8901C16.0072 16.8752 16.0297 16.8644 16.0537 16.8582C16.0777 16.8521 16.1026 16.8507 16.1272 16.8542C16.1517 16.8577 16.1753 16.8659 16.1966 16.8785C16.2179 16.8911 16.2365 16.9078 16.2514 16.9276C16.2663 16.9474 16.2771 16.9699 16.2833 16.9939C16.2894 17.0179 16.2908 17.0429 16.2873 17.0674C16.2838 17.0919 16.2756 17.1155 16.263 17.1368C16.2504 17.1581 16.2337 17.1767 16.2139 17.1916L12.3281 20.1046C12.2957 20.1289 12.2562 20.1421 12.2156 20.1421C12.1748 20.1425 12.1349 20.1293 12.1024 20.1046L6.07464 15.5859C6.04498 15.5855 6.01582 15.5781 5.98954 15.5644C5.96326 15.5506 5.94061 15.5308 5.92343 15.5066C5.90626 15.4824 5.89504 15.4545 5.8907 15.4252C5.88636 15.3958 5.88901 15.3659 5.89845 15.3377C5.90789 15.3096 5.92384 15.2841 5.94501 15.2633C5.96617 15.2425 5.99195 15.227 6.02024 15.2181C6.04853 15.2092 6.07853 15.2071 6.1078 15.2119C6.13706 15.2168 6.16477 15.2285 6.18864 15.2461Z" fill="white"/>
</svg>
