<svg width="24" height="24" fill="none" xmlns="http://www.w3.org/2000/svg"><path d="m20.953 9.917-3.456 1.54-9.167 4.667 9.167 4.408v-7.286l3.456-1.557v10.763l-3.456 1.54L4 17.533V14.1l9.343-4.583L4 5.026V1.541L7.51.002l13.443 6.47v3.445Z" fill="#000"/><path d="m4 1.542 13.497 6.471 3.456-1.54L7.51 0 4 1.542Z" fill="#087A8E"/><path d="m17.498 7.999 3.456-1.541v3.445l-3.456 1.54V8Z" fill="#2A8E97"/><path d="M4 1.545V5.03l9.343 4.49L4 14.102v3.434l13.497 6.46v-3.455L8.33 16.127l9.167-4.666V8.017L4 1.545Z" fill="#49C1BF"/><path d="m17.498 23.97 3.456-1.54V11.666l-3.456 1.558V23.97Z" fill="#2A8E97"/></svg>