<svg width="24" height="24" fill="none" xmlns="http://www.w3.org/2000/svg"><path d="M12 0c6.626 0 12 5.374 12 12s-5.374 12-12 12S0 18.626 0 12 5.374 0 12 0Z" fill="#1E0B49"/><path d="M7.79 9.6c.531-.903 1.38-1.438 2.127-1.424l.302-.51c.521-.886.341-1.966-.403-2.403-.744-.437-1.773-.067-2.297.814l-.3.51c.375.646.317 1.645-.213 2.552s-1.38 1.438-2.127 1.423l-.302.511c-.52.886-.34 1.966.403 2.403.742.436 1.774.07 2.297-.814l.3-.511c-.374-.646-.317-1.649.214-2.551Z" fill="#1E90FF"/><path d="M7.009 14.782c-.53-.903-1.38-1.438-2.127-1.424l-.302-.51c-.52-.886-.34-1.966.403-2.403.744-.437 1.774-.072 2.297.813l.3.512c-.374.645-.317 1.644.214 2.55.532.908 1.38 1.438 2.126 1.424l.302.511c.521.886.341 1.966-.403 2.403-.741.436-1.773.072-2.297-.814l-.3-.511c.372-.646.315-1.649-.213-2.551Z" fill="url(#a)"/><path d="M13.049 14.782c-.53-.903-1.38-1.438-2.127-1.424l-.302-.51c-.52-.886-.34-1.966.403-2.403.744-.437 1.774-.072 2.295.813l.302.512c-.374.645-.317 1.644.214 2.55.532.908 1.38 1.438 2.126 1.424l.302.511c.521.886.341 1.966-.403 2.403-.741.436-1.773.072-2.297-.814l-.3-.511c.377-.646.322-1.649-.213-2.551Z" fill="url(#b)"/><path d="M16.827 14.87c.53-.9 1.38-1.438 2.126-1.423l.303-.511c.52-.886.34-1.966-.404-2.403-.744-.436-1.773-.07-2.297.814l-.3.511c.375.646.317 1.644-.213 2.551-.533.907-1.38 1.438-2.127 1.423l-.302.512c-.52.885-.34 1.965.403 2.402.744.437 1.774.07 2.297-.813l.3-.512c-.38-.648-.317-1.65.214-2.55Z" fill="url(#c)"/><path d="M8.926 4.92c-1.006 0-1.82.828-1.796 1.838.022.953.8 1.728 1.752 1.752a1.796 1.796 0 1 0 .044-3.59Z" fill="#1E90FF"/><path d="M8.926 15.456a1.795 1.795 0 1 0 .003 3.59 1.795 1.795 0 0 0-.003-3.59Z" fill="indigo"/><path d="M14.943 4.92c-1.005 0-1.819.828-1.795 1.838.022.953.8 1.728 1.752 1.752a1.796 1.796 0 1 0 .043-3.59Z" fill="#1E90FF"/><path d="M14.943 15.456c-1.005 0-1.819.828-1.795 1.838a1.8 1.8 0 0 0 1.802 1.753 1.797 1.797 0 0 0 1.788-1.793c0-.992-.801-1.796-1.795-1.798Z" fill="indigo"/><path d="M11.892 10.188c-1.005 0-1.819.828-1.795 1.838.022.953.8 1.728 1.752 1.752a1.796 1.796 0 1 0 .043-3.59ZM17.976 10.188a1.795 1.795 0 1 0-.002 3.59 1.795 1.795 0 0 0 .002-3.59Z" fill="#8B008B"/><path d="M5.808 10.188c-1.005 0-1.819.828-1.795 1.838.022.953.8 1.728 1.752 1.752a1.796 1.796 0 1 0 .043-3.59Z" fill="#1E90FF"/><defs><linearGradient id="a" x1="6.751" y1="13.438" x2="8.085" y2="15.722" gradientUnits="userSpaceOnUse"><stop offset=".21" stop-color="#1E90FF"/><stop offset="1" stop-color="indigo"/></linearGradient><linearGradient id="b" x1="12.792" y1="13.437" x2="14.048" y2="15.579" gradientUnits="userSpaceOnUse"><stop stop-color="#8B008B"/><stop offset="1" stop-color="indigo"/></linearGradient><linearGradient id="c" x1="17.133" y1="13.637" x2="15.649" y2="15.603" gradientUnits="userSpaceOnUse"><stop stop-color="#8B008B"/><stop offset="1" stop-color="indigo"/></linearGradient></defs></svg>