<svg width="24" height="24" fill="none" xmlns="http://www.w3.org/2000/svg"><path fill-rule="evenodd" clip-rule="evenodd" d="m13.106 15.474 1.808 1.031 7.328-5.42c1.075-.795 1.705-2.04 1.728-3.416.023-1.376-.565-2.644-1.613-3.477L18.295.96l-4.92 3.536L15 5.674l3.241-2.33 2.998 2.386a2.36 2.36 0 0 1 .884 1.905 2.353 2.353 0 0 1-.947 1.873l-8.069 5.966Z" fill="#038199"/><path fill-rule="evenodd" clip-rule="evenodd" d="M11.01 8.54 9.29 7.432l-7.517 5.403C.671 13.626.008 14.934 0 16.333c-.008 1.398.64 2.714 1.734 3.52l4.334 3.193 4.942-3.654-1.77-1.058-3.174 2.347-3.267-2.408a2.348 2.348 0 0 1-.95-1.93 2.345 2.345 0 0 1 .972-1.917l8.189-5.885Z" fill="#018294"/><path fill-rule="evenodd" clip-rule="evenodd" d="M2.796 9.508a2.353 2.353 0 0 1-.947-1.873 2.36 2.36 0 0 1 .884-1.905l2.998-2.385 12.058 8.666 1.609-1.189L5.676.96 1.613 4.192C.566 5.025-.022 6.292.001 7.669c.023 1.376.652 2.621 1.727 3.417l1.222.903 1.623-1.167-1.777-1.314Z" fill="#4DBEC8"/><path fill-rule="evenodd" clip-rule="evenodd" d="m22.197 12.834-1.176-.845-1.608 1.19 1.737 1.248c.613.44.967 1.14.972 1.917a2.348 2.348 0 0 1-.95 1.93l-3.267 2.407-11.724-8.67-1.623 1.167 13.345 9.869 4.334-3.194c1.093-.806 1.741-2.122 1.733-3.52-.007-1.399-.67-2.706-1.773-3.499Z" fill="#4DBEC8"/></svg>