<svg width="24" height="24" fill="none" xmlns="http://www.w3.org/2000/svg"><path fill-rule="evenodd" clip-rule="evenodd" d="M24 12c0 6.627-5.373 12-12 12S0 18.627 0 12 5.373 0 12 0s12 5.373 12 12Z" fill="#08914B"/><path fill-rule="evenodd" clip-rule="evenodd" d="M13.47 13.338v-2.586h3.539a5.171 5.171 0 1 0 0 2.586h-3.54Z" fill="#3A3A39"/><path fill-rule="evenodd" clip-rule="evenodd" d="M13.994 16.818a5.173 5.173 0 0 1-7.002-3.48h3.54v-2.586h-3.54a5.173 5.173 0 0 1 6.987-3.486l.989-2.39a7.757 7.757 0 1 0 .017 14.33l-.99-2.388Z" fill="#FAD948"/><path fill-rule="evenodd" clip-rule="evenodd" d="M12 22.254c-5.654 0-10.254-4.6-10.254-10.254S6.346 1.746 12 1.746c2.838 0 5.41 1.159 7.268 3.028L17.483 6.56a7.765 7.765 0 0 0-2.515-1.683l-.989 2.39a5.18 5.18 0 0 1 3.03 3.485l5.169-.003c.05.41.076.827.076 1.251 0 5.654-4.6 10.254-10.254 10.254Zm0-21.171C5.98 1.083 1.083 5.98 1.083 12S5.98 22.917 12 22.917 22.917 18.02 22.917 12 18.02 1.083 12 1.083Z" fill="#DE495C"/><path fill-rule="evenodd" clip-rule="evenodd" d="M17.009 13.338a5.183 5.183 0 0 1-3.015 3.48l.991 2.389a7.768 7.768 0 0 0 4.663-5.87h-2.64ZM13.469 13.338v-2.586h.77a2.584 2.584 0 0 0-4.478 0h.77v2.586h-.77a2.584 2.584 0 0 0 4.478 0h-.77Z" fill="#DE495C"/></svg>