<svg width="24" height="24" fill="none" xmlns="http://www.w3.org/2000/svg"><g clip-path="url(#a)"><path d="M12.133 10.242h-.048c-.06 0-.096-.012-.139 0h-.042a1.87 1.87 0 0 0-1.295.602v.012c-.173.18-.304.395-.384.63a1.94 1.94 0 0 0-.12.636 1.898 1.898 0 0 0 1.428 1.83l.09.018a1.81 1.81 0 0 0 1.204-.156l.06-.037c.019 0 .03-.012.049-.024l.04-.024.035-.03h.019l.048-.04a1.873 1.873 0 0 0-.93-3.413l-.015-.004Zm6.856 5.922c-1.08 1.884-2.783 3.246-4.877 3.81a.815.815 0 0 1-.162.023.63.63 0 0 1-.168-1.235l.036-.011a.633.633 0 0 0 .409-.757.602.602 0 0 0-.599-.456.455.455 0 0 0-.12.012l-.042.012a.686.686 0 0 1-.156.018.619.619 0 0 1-.612-.461.662.662 0 0 1 .06-.479.697.697 0 0 1 .39-.3c.801-.21 1.523-.648 2.08-1.261a4.535 4.535 0 0 0 1.08-2.1v-.084a.611.611 0 0 0-.491-.69l-.12-.012a.623.623 0 0 0-.588.439l-.018.06v.036l-.012.018a.162.162 0 0 1-.012.08.064.064 0 0 1-.012.035v.017a.021.021 0 0 1-.012.018v.036l-.012.012A3.15 3.15 0 0 1 12 15.242c-.278 0-.553-.034-.823-.102l-.102-.024h-.06a.62.62 0 0 0-.6.456.628.628 0 0 0 .402.744.63.63 0 0 1-.114 1.254.464.464 0 0 1-.163-.019 5.582 5.582 0 0 1-3.018-2.021 5.724 5.724 0 0 1-1.156-3.36v-.054a.62.62 0 0 0-1.242.024 6.872 6.872 0 0 0 5.097 6.599c.16.048.295.155.377.3a.606.606 0 0 1 .06.479.622.622 0 0 1-.6.467.382.382 0 0 1-.168-.024 8.051 8.051 0 0 1-4.938-3.79 8.1 8.1 0 0 1-.816-6.168.611.611 0 0 1 .599-.468.497.497 0 0 1 .168.018c.334.09.535.432.45.768l-.012.043a.623.623 0 0 0 .452.72.609.609 0 0 0 .75-.399l.012-.047a.627.627 0 0 1 .6-.456.65.65 0 0 1 .18.018c.334.096.53.444.438.78a4.238 4.238 0 0 0 .06 2.43c.236.768.68 1.453 1.284 1.98v.012l.036.024.012.012a.62.62 0 0 0 .379.133.645.645 0 0 0 .478-.217.625.625 0 0 0 .012-.792l-.018-.018-.018-.018A3.144 3.144 0 0 1 9.76 9.87l.096-.097a.636.636 0 0 0-.084-.78.628.628 0 0 0-.846-.029h-.018c0 .012-.018.018-.024.024a.628.628 0 0 1-1.071-.444.629.629 0 0 1 .178-.451 5.64 5.64 0 0 1 6.737-.923l.024.018h.012l.018.012a.52.52 0 0 0 .288.08.629.629 0 0 0 .54-.32.611.611 0 0 0-.239-.84 6.717 6.717 0 0 0-3.396-.9c-1.848 0-3.57.708-4.86 2.004a.644.644 0 0 1-.455.18.614.614 0 0 1-.624-.63.614.614 0 0 1 .18-.443 8.14 8.14 0 0 1 11.502.006.63.63 0 0 1 .18.45.603.603 0 0 1-.18.443.637.637 0 0 1-.888 0l-.036-.03a.63.63 0 0 0-.42-.156.607.607 0 0 0-.432.18c-.24.228-.24.6-.018.852l.018.024c.24.248.24.64 0 .888a.632.632 0 0 1-.45.182.613.613 0 0 1-.444-.18 4.351 4.351 0 0 0-4.505-1.036h-.018l-.024.012-.024.012a.622.622 0 0 0-.351.776.633.633 0 0 0 .587.408h.102l.013-.012h.018a3.019 3.019 0 0 1 1.104-.204 3.128 3.128 0 0 1 1.902.648c.537.414.928.987 1.116 1.639l.012.024v.03l.024.06c.088.239.315.399.57.401a.356.356 0 0 0 .162-.024.627.627 0 0 0 .452-.721l-.012-.036a.641.641 0 0 1 .444-.78l.162-.018a.6.6 0 0 1 .6.461c.33 1.212.24 2.46-.24 3.624a5.661 5.661 0 0 1-2.312 2.683l-.03.018h-.01c0 .012-.012.012-.012.018h-.012a.621.621 0 0 0 .648 1.057 6.898 6.898 0 0 0 3.18-7.716.606.606 0 0 1 .06-.478.663.663 0 0 1 .385-.3c.06 0 .109-.019.163-.019.286.004.532.201.598.479a8.07 8.07 0 0 1-.811 6.168ZM3.509 3.51c-4.679 4.681-4.679 12.284 0 16.97 4.69 4.68 12.287 4.68 16.98 0 4.682-4.681 4.682-12.283.004-16.97-4.694-4.679-12.29-4.679-16.984 0Z" fill="url(#b)"/></g><defs><linearGradient id="b" x1="0" y1="11.996" x2="24" y2="11.996" gradientUnits="userSpaceOnUse"><stop stop-color="#EB5E57"/><stop offset="1" stop-color="#EA5290"/></linearGradient><clipPath id="a"><path fill="#fff" d="M0 0h24v23.988H0z"/></clipPath></defs></svg>