<svg width="24" height="24" viewBox="0 0 24 24" fill="none" xmlns="http://www.w3.org/2000/svg">
<path d="M20.322 3.96904L16.5697 2H7.31889L3.75232 4.00619L0 8.94737L12 22.582L24 8.94737L20.322 3.96904ZM22.774 8.72446L18.0929 11.1022L16.5697 6.4582L20.0248 4.78638L22.774 8.72446ZM7.6161 2.74303H16.2724L19.2074 4.26625L16.2353 5.67802H7.57895L4.97833 4.30341L7.6161 2.74303ZM4.01238 4.78638L7.05882 6.4582L5.98142 11.1022L1.04025 8.613L4.01238 4.78638ZM2.00619 10.0248L5.83282 11.9938L10.5139 20.0557L2.00619 10.0248ZM11.9628 21.0588L6.65015 11.8452L7.95046 6.4582H15.8638L17.2755 11.6966L11.9628 21.0588ZM13.3003 20.0186L18.0557 12.031L22.031 10.0248L13.3003 20.0186Z" fill="black"/>
<path d="M15.3808 12.6994C15.1787 12.185 14.7955 11.7622 14.3034 11.5106C14.4534 11.4589 14.5907 11.3759 14.706 11.267C14.8213 11.1581 14.9121 11.0258 14.9722 10.879C15.0465 10.6561 15.0465 10.4703 15.0093 10.2474C15.0093 10.2474 14.9722 9.91303 14.8607 9.61582C14.6378 9.13285 13.8948 8.68703 12.8545 8.57557V7.38672H11.9257V8.57557H11.2198V7.38672H10.2539V8.57557H8.73068V9.35576C8.89728 9.37536 9.0573 9.43231 9.19882 9.52237C9.34034 9.61243 9.4597 9.73327 9.54802 9.87588C9.69662 10.0988 9.69662 10.2846 9.73378 10.396L9.80808 13.3681C9.80808 13.7397 9.65947 14.074 9.36226 14.2598C8.99074 14.4827 8.61923 14.3712 8.54492 14.3712V15.2257H10.2167V16.4889H11.2198V15.3743H11.9257L11.9629 16.4889H12.8917V15.2629H13.7833C14.123 15.2662 14.4571 15.1762 14.7493 15.0028C15.4551 14.5198 15.678 13.4796 15.3808 12.6994ZM11.2941 9.76443H12.483C12.9288 9.76443 13.3003 10.0988 13.3003 10.5446C13.3003 10.9904 12.966 11.362 12.5202 11.362H11.2941V9.76443ZM12.7802 14.1483H11.3685V12.4022H12.7802C13.226 12.4394 13.5976 12.8109 13.6347 13.2195C13.6719 13.7025 13.3003 14.1112 12.7802 14.1483Z" fill="#FCC339"/>
</svg>
