<svg width="24" height="24" fill="none" xmlns="http://www.w3.org/2000/svg"><path d="M1.513 3C.675 3 0 3.679 0 4.513v15.17a1.512 1.512 0 1 0 3.026 0V4.513A1.517 1.517 0 0 0 1.513 3Z" fill="url(#a)"/><path d="M22.487 3c-.835 0-1.513.679-1.513 1.513v15.17c0 .834.678 1.513 1.513 1.513.834 0 1.513-.679 1.513-1.513V4.513C24 3.679 23.32 3 22.487 3Z" fill="url(#b)"/><path d="M8.503 6.154c-.834 0-1.513.674-1.513 1.513v8.862c0 .834.679 1.513 1.513 1.513.835 0 1.513-.679 1.513-1.513V7.667c0-.835-.678-1.513-1.513-1.513Z" fill="url(#c)"/><path d="M15.497 8.7c-.834 0-1.513.68-1.513 1.514v3.74c0 .835.679 1.513 1.513 1.513.835 0 1.513-.678 1.513-1.513v-3.74A1.515 1.515 0 0 0 15.497 8.7Z" fill="url(#d)"/><defs><linearGradient id="a" x1="-.036" y1="12.258" x2="32.138" y2="8.916" gradientUnits="userSpaceOnUse"><stop stop-color="#4400E2"/><stop offset=".041" stop-color="#7013C5"/><stop offset=".087" stop-color="#9A25AA"/><stop offset=".133" stop-color="#BC3494"/><stop offset=".18" stop-color="#D73F82"/><stop offset=".228" stop-color="#EA4876"/><stop offset=".278" stop-color="#F54C6E"/><stop offset=".33" stop-color="#F94E6C"/><stop offset="1" stop-color="#FFD402"/></linearGradient><linearGradient id="b" x1=".187" y1="14.414" x2="32.361" y2="11.072" gradientUnits="userSpaceOnUse"><stop stop-color="#4400E2"/><stop offset=".041" stop-color="#7013C5"/><stop offset=".087" stop-color="#9A25AA"/><stop offset=".133" stop-color="#BC3494"/><stop offset=".18" stop-color="#D73F82"/><stop offset=".228" stop-color="#EA4876"/><stop offset=".278" stop-color="#F54C6E"/><stop offset=".33" stop-color="#F94E6C"/><stop offset="1" stop-color="#FFD402"/></linearGradient><linearGradient id="c" x1=".039" y1="12.977" x2="32.212" y2="9.635" gradientUnits="userSpaceOnUse"><stop stop-color="#4400E2"/><stop offset=".041" stop-color="#7013C5"/><stop offset=".087" stop-color="#9A25AA"/><stop offset=".133" stop-color="#BC3494"/><stop offset=".18" stop-color="#D73F82"/><stop offset=".228" stop-color="#EA4876"/><stop offset=".278" stop-color="#F54C6E"/><stop offset=".33" stop-color="#F94E6C"/><stop offset="1" stop-color="#FFD402"/></linearGradient><linearGradient id="d" x1=".112" y1="13.679" x2="32.285" y2="10.337" gradientUnits="userSpaceOnUse"><stop stop-color="#4400E2"/><stop offset=".041" stop-color="#7013C5"/><stop offset=".087" stop-color="#9A25AA"/><stop offset=".133" stop-color="#BC3494"/><stop offset=".18" stop-color="#D73F82"/><stop offset=".228" stop-color="#EA4876"/><stop offset=".278" stop-color="#F54C6E"/><stop offset=".33" stop-color="#F94E6C"/><stop offset="1" stop-color="#FFD402"/></linearGradient></defs></svg>