<svg width="24" height="24" fill="none" xmlns="http://www.w3.org/2000/svg"><path fill-rule="evenodd" clip-rule="evenodd" d="M24 12c0 6.627-5.373 12-12 12S0 18.627 0 12 5.373 0 12 0s12 5.373 12 12Z" fill="#1D373C"/><path fill-rule="evenodd" clip-rule="evenodd" d="M12 22.254c-5.654 0-10.254-4.6-10.254-10.254S6.346 1.746 12 1.746 22.254 6.346 22.254 12 17.654 22.254 12 22.254Zm0-21.171C5.98 1.083 1.083 5.98 1.083 12S5.98 22.917 12 22.917 22.917 18.02 22.917 12 18.02 1.083 12 1.083Z" fill="#FFFFFE"/><path fill-rule="evenodd" clip-rule="evenodd" d="M12 18.069a6.031 6.031 0 0 1-4.292-1.778 6.03 6.03 0 0 1-1.778-4.293A6.03 6.03 0 0 1 7.71 7.706 6.026 6.026 0 0 1 12 5.932c1.246 0 2.434.37 3.436 1.06l-.8.801A4.93 4.93 0 0 0 12 7.04a4.929 4.929 0 0 0-3.508 1.452 4.928 4.928 0 0 0-1.453 3.507c0 1.325.516 2.571 1.453 3.508A4.928 4.928 0 0 0 12 16.959c.946 0 1.85-.263 2.632-.754l.801.8a6.026 6.026 0 0 1-3.433 1.064Zm1.938-4.132A2.722 2.722 0 0 1 12 14.74c-.732 0-1.42-.285-1.938-.803a2.723 2.723 0 0 1-.803-1.939c0-.732.285-1.42.803-1.938A2.733 2.733 0 0 1 12 9.258c.702 0 1.403.267 1.938.802l.784.784 3.923-3.923-.784-.784a8.235 8.235 0 0 0-4.567-2.315v-1.6h-2.497v1.587A8.232 8.232 0 0 0 6.14 6.137a8.235 8.235 0 0 0-2.428 5.861c0 2.215.862 4.296 2.428 5.862a8.22 8.22 0 0 0 4.66 2.332v1.587h2.496v-1.6a8.221 8.221 0 0 0 4.567-2.32l.782-.782-3.923-3.923-.783.783Z" fill="#FFFFFE"/></svg>