<svg width="24" height="24" fill="none" xmlns="http://www.w3.org/2000/svg"><path fill-rule="evenodd" clip-rule="evenodd" d="M24 12c0 6.627-5.373 12-12 12S0 18.627 0 12 5.373 0 12 0s12 5.373 12 12Z" fill="#7E2023"/><path fill-rule="evenodd" clip-rule="evenodd" d="M12 22.254c-5.654 0-10.254-4.6-10.254-10.254S6.346 1.746 12 1.746 22.254 6.346 22.254 12 17.654 22.254 12 22.254Z" fill="url(#a)"/><path fill-rule="evenodd" clip-rule="evenodd" d="M12.875 17.706c-.987-1.015-2.253-1.808-2.933-2.59-1.211-1.396-1.635-2.617-1.235-3.971.4-1.355 1.42-2.15 3.196-2.662.996-.287 2.489-.265 3.869-.58 1.804-.441 3.329-1.415 3.699-3.554l-1.427-.697c-.204 2.293-1.624 3.095-3.566 3.219-4.107.243-6.57 1.265-7.324 3.814-.753 2.55.758 4.747 4.073 7.184 1.563 1.16 2.32 2.604 1.244 4.64l1.576.19c.853-1.996.102-3.642-1.172-4.993Z" fill="#7E2023"/><path fill-rule="evenodd" clip-rule="evenodd" d="M15.117 8.405c-.455.07-.908.118-1.35.164l-.273.029c.191.17.364.338.51.506 1.21 1.395 1.635 2.616 1.235 3.97-.4 1.356-1.42 2.15-3.196 2.662-.213.062-.45.109-.702.148l.213.172c.346.28.7.566 1.044.873 2.25-.537 3.656-1.578 4.193-3.395.538-1.817-.076-3.456-1.674-5.13ZM11.07 6.513c.124.128.252.252.383.372l.178-.038c.447-.092.926-.168 1.445-.229a28.424 28.424 0 0 0-.358-.267c-1.564-1.16-2.32-2.605-1.244-4.64L9.898 1.52c-.853 1.996-.102 3.642 1.172 4.993ZM8.826 16.341a12.346 12.346 0 0 1-.129-.129 9.81 9.81 0 0 0-.523.104c-1.805.442-3.33 1.415-3.7 3.554l1.427.697c.204-2.293 1.624-3.095 3.567-3.218l.446-.03a16.52 16.52 0 0 1-1.088-.978Z" fill="#3A3A39"/><path fill-rule="evenodd" clip-rule="evenodd" d="m14.217 13.039-4.634-1.37a.337.337 0 0 1-.227-.419l.017-.06a.337.337 0 0 1 .42-.227l4.633 1.369c.178.053.28.24.227.419l-.017.06a.337.337 0 0 1-.42.228ZM13.295 13.172l-3.01-.89a.368.368 0 0 0-.21.707l3.011.89a.368.368 0 1 0 .21-.707ZM13.934 11.012l-3.01-.89a.368.368 0 0 0-.21.707l3.011.89a.368.368 0 1 0 .209-.707ZM16.642 4.835l-4.634-1.37a.337.337 0 0 1-.227-.419l.017-.06a.337.337 0 0 1 .419-.227l4.633 1.369c.179.053.28.24.228.419l-.018.06a.337.337 0 0 1-.418.228ZM15.72 4.968l-3.01-.89a.368.368 0 0 0-.21.707l3.011.89a.368.368 0 1 0 .209-.707ZM16.359 2.808l-3.011-.89a.368.368 0 0 0-.209.707l3.01.89a.368.368 0 1 0 .21-.707ZM11.792 21.243l-4.633-1.37a.337.337 0 0 1-.228-.418l.018-.06a.337.337 0 0 1 .418-.228l4.634 1.37c.178.052.28.24.228.418l-.018.06a.337.337 0 0 1-.419.228ZM10.87 21.377l-3.01-.89a.368.368 0 1 0-.21.706l3.011.89a.368.368 0 0 0 .21-.706ZM11.51 19.217l-3.012-.89a.368.368 0 1 0-.209.707l3.011.89a.368.368 0 1 0 .21-.707Z" fill="#3A3A39"/><path fill-rule="evenodd" clip-rule="evenodd" d="M12 22.254c-5.654 0-10.254-4.6-10.254-10.254S6.346 1.746 12 1.746 22.254 6.346 22.254 12 17.654 22.254 12 22.254Zm0-21.171C5.98 1.083 1.083 5.98 1.083 12S5.98 22.917 12 22.917 22.917 18.02 22.917 12 18.02 1.083 12 1.083Z" fill="#FFFFFE"/><defs><linearGradient id="a" x1="-11.132" y1=".032" x2="-11.132" y2="23.968" gradientUnits="userSpaceOnUse"><stop stop-color="#fff"/><stop offset="1" stop-color="#7E2023"/></linearGradient></defs></svg>