<svg width="24" height="25" fill="none" xmlns="http://www.w3.org/2000/svg"><g clip-path="url(#a)"><path d="M24 12c0 6.627-5.373 12-12 12-6.628 0-12-5.373-12-12S5.372 0 12 0c6.627 0 12 5.372 12 12Z" fill="#fff"/><path d="M12 0C5.373 0-.008 5.38 0 12c.002 1.324.213 2.598.61 3.79H4.2V5.694l7.798 7.799 7.8-7.8V15.79h3.59c.397-1.192.607-2.466.61-3.79.01-6.626-5.373-11.998-12-11.998V0Z" fill="#F26822"/><path d="m10.206 15.287-3.403-3.404v6.352H1.745a12 12 0 0 0 20.51 0h-5.059v-6.352l-3.404 3.404L12 17.079l-1.793-1.793Z" fill="#4D4D4D"/></g><defs><clipPath id="a"><path fill="#fff" d="M0 0h24v24.003H0z"/></clipPath></defs></svg>