<svg width="24" height="24" fill="none" xmlns="http://www.w3.org/2000/svg"><path fill-rule="evenodd" clip-rule="evenodd" d="M19.337 7.887a9.618 9.618 0 0 1-.657.46l.022.014 4.72 7.927V7.002c0-.992-.224-1.931-.626-2.77 0 0-2.468 2.88-3.459 3.655Z" fill="#560B74"/><path fill-rule="evenodd" clip-rule="evenodd" d="m5.89 8.6 6.2-3.58.432.251 5.763 3.327c.139-.086.27-.169.395-.25l-6.59-3.805-6.613 3.818v7.628c.138-.125.277-.246.413-.362V8.6Z" fill="#763C90"/><path fill-rule="evenodd" clip-rule="evenodd" d="m18.285 8.598.004.002v7.158l-6.2 3.579-6.199-3.58v-.13c-.136.116-.275.237-.413.362v.008l6.612 3.818 6.613-3.818V8.36l-.022-.013c-.125.081-.256.164-.395.25Z" fill="#602278"/><path fill-rule="evenodd" clip-rule="evenodd" d="m14.948 10.482 2.796 4.834a.058.058 0 0 1-.051.087H6.5a.058.058 0 0 1-.05-.087l.146-.252 5.443-9.44a.058.058 0 0 1 .1 0l2.81 4.858Zm-3.51-4.813-5.312 9.2a.742.742 0 0 0-.063.613c.097.289.366.514.714.514h10.625a.752.752 0 0 0 .65-1.126l-5.312-9.2a.752.752 0 0 0-1.301 0Z" fill="#743E89"/><path fill-rule="evenodd" clip-rule="evenodd" d="M23.422 16.998v-.71l-4.72-7.927v7.635l-6.613 3.819-6.612-3.819 4.353 7.426h7.167a6.425 6.425 0 0 0 6.425-6.424Z" fill="#753F8A"/><path fill-rule="evenodd" clip-rule="evenodd" d="M5.476 15.99V8.36l6.613-3.818 6.59 3.805c.259-.168.483-.324.658-.461.99-.775 3.459-3.654 3.459-3.654A6.424 6.424 0 0 0 16.997.578H7.002A6.424 6.424 0 0 0 .577 7.002v9.996c0 1.173.314 2.273.864 3.219 0 0 2.086-2.478 4.035-4.227Z" fill="#662083"/><path fill-rule="evenodd" clip-rule="evenodd" d="M18.052 14.87c.07.12.102.25.102.374h.134V8.6l-.003-.002a58.702 58.702 0 0 1-2.901 1.651l2.668 4.621Z" fill="#50056E"/><path fill-rule="evenodd" clip-rule="evenodd" d="M23.422 16.998a6.425 6.425 0 0 1-6.424 6.424H9.83l.336.572h7.082a6.746 6.746 0 0 0 6.746-6.746l-.572-.96v.71Z" fill="#7E4498"/><path fill-rule="evenodd" clip-rule="evenodd" d="m12.039 5.625-5.443 9.439c.248-.184.485-.342.706-.466 1.3-.731 5.234-2.864 5.234-2.864s1.084-.544 2.412-1.252l-2.809-4.857a.058.058 0 0 0-.1 0Z" fill="#5E187B"/><path fill-rule="evenodd" clip-rule="evenodd" d="M12.455 5.387a.741.741 0 0 1 .285.282l2.644 4.58a58.71 58.71 0 0 0 2.9-1.651L12.523 5.27l-.067.116Z" fill="#60187C"/><path fill-rule="evenodd" clip-rule="evenodd" d="M7.302 14.598a6.767 6.767 0 0 0-.706.466l-.146.253a.058.058 0 0 0 .05.086h11.193a.058.058 0 0 0 .05-.086l-2.795-4.835c-1.328.708-2.411 1.253-2.411 1.253s-3.935 2.132-5.235 2.863Z" fill="#4D026B"/><path fill-rule="evenodd" clip-rule="evenodd" d="M17.401 15.997H6.776a.747.747 0 0 1-.713-.515l-.173.145v.13l6.199 3.58 6.2-3.58v-.513h-.135a.752.752 0 0 1-.753.753Z" fill="#4B0069"/><path fill-rule="evenodd" clip-rule="evenodd" d="m6.126 14.87 5.312-9.2a.752.752 0 0 1 1.017-.283l.067-.116-.433-.25-6.2 3.579v7.027l.174-.145a.742.742 0 0 1 .063-.612Z" fill="#5E167A"/><path fill-rule="evenodd" clip-rule="evenodd" d="M5.477 15.99c-1.949 1.749-4.036 4.226-4.036 4.226a6.423 6.423 0 0 0 5.562 3.206H9.83l-4.353-7.426v-.007Z" fill="#4B0069"/><path fill-rule="evenodd" clip-rule="evenodd" d="M17.248.006H6.752A6.746 6.746 0 0 0 .006 6.752v10.496a6.746 6.746 0 0 0 6.746 6.746h3.414l-.336-.572H7.002a6.423 6.423 0 0 1-6.424-6.424V7.002A6.424 6.424 0 0 1 7.002.578h9.996a6.424 6.424 0 0 1 6.424 6.424v9.286l.572.96V6.752A6.746 6.746 0 0 0 17.248.006Z" fill="#500071"/></svg>