<svg width="24" height="24" viewBox="0 0 24 24" fill="none" xmlns="http://www.w3.org/2000/svg">
<mask id="mask0" mask-type="alpha" maskUnits="userSpaceOnUse" x="0" y="3" width="24" height="19">
<path d="M23.4858 19.0859C23.2414 19.0859 23.0431 19.2846 23.0431 19.5295V20.86H17.3024L17.2912 20.0191C19.7605 18.284 21.2313 15.4615 21.2313 12.4331C21.2313 7.32074 17.0793 3.1605 11.9771 3.1605C6.875 3.1605 2.72303 7.32074 2.72303 12.4331C2.72303 15.4473 4.192 18.2817 6.6519 20.0167C6.65602 20.0191 6.65838 20.0191 6.66311 20.0215L6.6519 20.86H0.911148L0.911148 19.5295C0.911148 19.2846 0.712857 19.0859 0.468528 19.0859C0.224171 19.0859 0.0258789 19.2846 0.0258789 19.5295L0.0258789 21.7471H7.52536L7.55074 19.8228C7.55305 19.6335 7.43568 19.4739 7.27158 19.407C7.24208 19.3633 7.20725 19.3213 7.16122 19.2894C4.93622 17.7205 3.6083 15.1587 3.6083 12.4307C3.6083 7.80625 7.3619 4.04519 11.9771 4.04519C16.5924 4.04519 20.346 7.80625 20.346 12.4307C20.346 15.2214 18.9697 17.8175 16.6621 19.3793C16.6178 19.407 16.5859 19.4461 16.5558 19.4857C16.4614 19.5685 16.3988 19.6862 16.4012 19.8204L16.4266 21.7447L23.9284 21.7471V19.5295C23.9284 19.2846 23.7301 19.0859 23.4858 19.0859V19.0859Z" fill="white"/>
</mask>
<g mask="url(#mask0)">
<mask id="mask1" mask-type="alpha" maskUnits="userSpaceOnUse" x="-99" y="-126" width="244" height="172">
<path d="M-98.2124 45.4546L144.359 45.4546L144.359 -125.959L-98.2124 -125.959L-98.2124 45.4546Z" fill="white"/>
</mask>
<g mask="url(#mask1)">
<path d="M-1.41455 23.1875L25.3689 23.1875L25.3689 1.72004L-1.41455 1.72004L-1.41455 23.1875Z" fill="#1D2951"/>
</g>
</g>
<mask id="mask2" mask-type="alpha" maskUnits="userSpaceOnUse" x="5" y="4" width="14" height="16">
<path d="M17.5722 13.0747C17.3941 12.8532 17.196 12.6316 16.9822 12.4108C17.196 12.1901 17.3932 11.9677 17.5722 11.7469C18.5581 10.5242 18.8639 9.44114 18.434 8.69651C18.1073 8.13073 17.3992 7.8317 16.3873 7.8317C15.8233 7.8317 15.1797 7.92559 14.4907 8.09936C13.9452 6.20137 13.0427 4.98105 12.0028 4.98105C10.962 4.98105 10.0601 6.20137 9.51462 8.09936C8.82497 7.92559 8.18204 7.8317 7.61735 7.8317C6.60434 7.8317 5.89734 8.13073 5.57065 8.69651C5.14053 9.44114 5.4472 10.5249 6.43244 11.7469C6.61146 11.9685 6.80941 12.191 7.024 12.4135C5.65405 13.8343 5.05025 15.2248 5.56976 16.1261C5.89645 16.6918 6.60345 16.9909 7.61646 16.9909C8.18025 16.9909 8.82407 16.897 9.51373 16.7232C10.0586 18.6212 10.9611 19.8413 12.001 19.8413C13.0418 19.8413 13.9434 18.6212 14.4889 16.7232C15.1788 16.897 15.8227 16.9909 16.3864 16.9909C17.3983 16.9909 18.1065 16.6918 18.4331 16.1261C18.8639 15.3814 18.5581 14.2975 17.5722 13.0747ZM16.3873 8.38437C16.9476 8.38437 17.6748 8.48603 17.9552 8.97282C18.2586 9.49766 17.9615 10.3825 17.1421 11.3992C16.9745 11.607 16.7894 11.8146 16.5888 12.0233C16.1084 11.5705 15.5602 11.1265 14.9616 10.7022C14.893 9.96174 14.7801 9.2665 14.6297 8.6331C15.27 8.47134 15.8669 8.38437 16.3873 8.38437ZM13.2442 14.5627C12.8314 14.8007 12.4153 15.019 12.0028 15.2161C11.5891 15.0181 11.1739 14.8007 10.7605 14.5618C10.3468 14.3229 9.94897 14.0717 9.57112 13.8127C9.53729 13.3651 9.51906 12.8976 9.51906 12.41C9.51906 11.9216 9.53819 11.4531 9.57112 11.0056C9.94206 10.7527 10.3382 10.5024 10.7605 10.2581C11.1739 10.0192 11.5891 9.8018 12.0028 9.60468C12.4162 9.8018 12.8314 10.0201 13.2451 10.2581C13.6585 10.497 14.0564 10.7482 14.4351 11.0072C14.4692 11.4548 14.4874 11.9225 14.4874 12.41C14.4874 12.8976 14.4692 13.3651 14.4351 13.8127C14.0555 14.0734 13.6576 14.3237 13.2442 14.5627ZM14.3658 14.5235C14.3006 15.0693 14.2119 15.5777 14.1033 16.0435C13.6352 15.9011 13.1486 15.7238 12.6535 15.5118C12.9435 15.3638 13.2329 15.2083 13.5204 15.0415C13.8097 14.8746 14.092 14.7017 14.3658 14.5235ZM11.3521 15.5125C10.8568 15.7238 10.3704 15.9018 9.90204 16.0444C9.79349 15.5785 9.70499 15.0702 9.63983 14.5244C9.91337 14.7017 10.1949 14.8755 10.4843 15.0424C10.7718 15.2083 11.0618 15.3647 11.3521 15.5125ZM8.99177 13.3973C8.56254 13.0747 8.16466 12.7428 7.80683 12.4064C8.15599 12.0798 8.55119 11.7485 8.99177 11.4192C8.97443 11.7425 8.96486 12.0727 8.96486 12.41C8.96544 12.7464 8.97509 13.0747 8.99177 13.3973ZM9.63893 10.2981C9.7041 9.75239 9.79263 9.24403 9.90138 8.77816C10.3695 8.91987 10.8559 9.09785 11.3512 9.30922C11.0609 9.45695 10.7718 9.61336 10.4834 9.77932C10.1923 9.94797 9.91072 10.1217 9.63893 10.2981ZM12.6535 9.30922C13.1486 9.09785 13.6352 8.91987 14.1033 8.77726C14.211 9.24313 14.3006 9.75152 14.3658 10.2973C14.092 10.1199 13.8106 9.94619 13.5213 9.77932C13.2329 9.61336 12.9426 9.45695 12.6535 9.30922ZM15.0138 11.4243C15.4413 11.7461 15.8373 12.0762 16.1943 12.4108C15.8373 12.7455 15.4413 13.0765 15.0138 13.3973C15.0303 13.0747 15.0398 12.7464 15.0398 12.4108C15.0398 12.0753 15.0303 11.7469 15.0138 11.4243ZM12.0028 5.53479C12.7265 5.53479 13.4813 6.54198 13.9661 8.24441C13.3345 8.43487 12.6724 8.68781 12.0028 8.99529C11.3329 8.68781 10.6709 8.43487 10.0395 8.24441C10.5241 6.54198 11.2782 5.53479 12.0028 5.53479ZM6.04925 8.97282C6.32991 8.48693 7.05693 8.38437 7.61735 8.38437C8.13776 8.38437 8.73445 8.47134 9.37473 8.6331C9.2246 9.2656 9.11254 9.96088 9.0429 10.7022C8.43579 11.1325 7.89023 11.5774 7.41676 12.0242C7.21504 11.8155 7.03003 11.607 6.86233 11.3992C6.04323 10.3825 5.74702 9.49766 6.04925 8.97282ZM7.61735 16.4373C7.05693 16.4373 6.32991 16.3357 6.04925 15.8497C5.68785 15.2223 6.18224 14.0663 7.41232 12.7951C7.89447 13.2487 8.44356 13.6952 9.0438 14.1204C9.11254 14.8608 9.22529 15.5561 9.37562 16.1895C8.73445 16.3495 8.13776 16.4373 7.61735 16.4373ZM12.0028 19.2869C11.2791 19.2869 10.5241 18.2797 10.0395 16.5779C10.6709 16.3877 11.3329 16.1347 12.0028 15.8271C12.6724 16.1347 13.3345 16.3877 13.9661 16.5773C13.4804 18.2797 12.7265 19.2869 12.0028 19.2869ZM17.9552 15.8489C17.6748 16.3348 16.9476 16.4373 16.3873 16.4373C15.8669 16.4373 15.27 16.3503 14.6297 16.1886C14.7801 15.5552 14.8922 14.8599 14.9616 14.1195C15.5602 13.6952 16.1084 13.2503 16.5888 12.7984C16.7894 13.0062 16.9745 13.2147 17.1421 13.4225C17.9624 14.4392 18.2586 15.324 17.9552 15.8489Z" fill="white"/>
</mask>
<g mask="url(#mask2)">
<mask id="mask3" mask-type="alpha" maskUnits="userSpaceOnUse" x="-99" y="-126" width="244" height="172">
<path d="M-98.2124 45.4546L144.359 45.4546L144.359 -125.959L-98.2124 -125.959L-98.2124 45.4546Z" fill="white"/>
</mask>
<g mask="url(#mask3)">
<path d="M3.94043 21.2817L20.0643 21.2817L20.0643 3.54058L3.94043 3.54058L3.94043 21.2817Z" fill="#1D2951"/>
</g>
</g>
<mask id="mask4" mask-type="alpha" maskUnits="userSpaceOnUse" x="9" y="10" width="6" height="5">
<path d="M12.0028 10.3088C10.8439 10.3088 9.90137 11.2517 9.90137 12.4111C9.90137 13.5704 10.8439 14.5142 12.0028 14.5142C13.1617 14.5142 14.1042 13.5713 14.1042 12.4111C14.1042 11.2517 13.1617 10.3088 12.0028 10.3088ZM12.0028 13.9606C11.1488 13.9606 10.4538 13.2654 10.4538 12.4111C10.4538 11.5567 11.1488 10.8614 12.0028 10.8614C12.8568 10.8614 13.5518 11.5567 13.5518 12.4111C13.5509 13.2654 12.8568 13.9606 12.0028 13.9606Z" fill="white"/>
</mask>
<g mask="url(#mask4)">
<mask id="mask5" mask-type="alpha" maskUnits="userSpaceOnUse" x="-99" y="-126" width="244" height="172">
<path d="M-98.2124 45.4551L144.359 45.4551L144.359 -125.958L-98.2124 -125.958L-98.2124 45.4551Z" fill="white"/>
</mask>
<g mask="url(#mask5)">
<path d="M8.46094 15.9546H15.5447V8.86834H8.46094V15.9546Z" fill="#1D2951"/>
</g>
</g>
</svg>
