<svg width="24" height="24" viewBox="0 0 24 24" fill="none" xmlns="http://www.w3.org/2000/svg">
<path fill-rule="evenodd" clip-rule="evenodd" d="M16.4169 2.02409L13.5898 0.467225C13.0778 0.185397 12.5115 0.0444336 11.9453 0.0444336V10.8148C12.2315 10.8148 12.5178 10.6836 12.7015 10.4211L16.9556 4.34161C17.5008 3.56254 17.2498 2.48274 16.4169 2.02409Z" fill="#4480B5"/>
<path fill-rule="evenodd" clip-rule="evenodd" d="M21.7119 4.73526L18.9535 3.21631C19.9391 3.98352 20.1817 5.41392 19.4407 6.47296L13.0764 15.5678C12.8017 15.9605 12.3735 16.1568 11.9453 16.1568V23.9359C12.5705 23.9359 13.1956 23.6491 13.5968 23.0758L22.8888 9.79701C24.0795 8.09546 23.5311 5.73709 21.7119 4.73526Z" fill="#41494E"/>
<path fill-rule="evenodd" clip-rule="evenodd" d="M7.4735 2.02409L10.3006 0.467225C10.8125 0.185397 11.3787 0.0444336 11.945 0.0444336V10.8148C11.6588 10.8148 11.3726 10.6836 11.1889 10.4211L6.93472 4.34161C6.38958 3.56254 6.64055 2.48274 7.4735 2.02409Z" fill="#81ACCD"/>
<path fill-rule="evenodd" clip-rule="evenodd" d="M2.17864 4.73526L4.93698 3.21631C3.95151 3.98352 3.70886 5.41392 4.44993 6.47296L10.8141 15.5678C11.0889 15.9605 11.5171 16.1568 11.9453 16.1568V23.9359C11.3201 23.9359 10.695 23.6491 10.2938 23.0758L1.00176 9.79701C-0.188931 8.09546 0.359445 5.73709 2.17864 4.73526Z" fill="#55646D"/>
</svg>
