<svg width="24" height="24" viewBox="0 0 24 24" fill="none" xmlns="http://www.w3.org/2000/svg">
<g clip-path="url(#clip0)">
<path d="M10.5869 3.46667C10.5869 3.4 10.6536 3.4 10.7202 3.33333C12.5869 2.26667 14.5202 1.13333 16.3869 0.0666667C16.4536 0.0666667 16.4536 0.0666667 16.5202 0H16.5869L17.5869 0.6C19.2536 1.53333 20.8536 2.53333 22.5202 3.46667V3.6C22.4536 3.6 22.3869 3.66667 22.3202 3.66667L21.3202 4.26667C20.7202 4.6 20.0536 5 19.4536 5.33333C18.9202 5.66667 18.3869 6 17.7869 6.26667C17.3869 6.53333 16.9869 6.73333 16.5869 7C16.5869 7 16.5202 7 16.5202 6.93333C14.9869 6.06667 13.5202 5.2 11.9869 4.33333C11.5202 4 11.0536 3.73333 10.5869 3.46667Z" fill="#234871"/>
<path d="M1.91992 8.5999C1.98659 8.5999 1.98659 8.53324 2.05326 8.53324C3.91992 7.46657 5.85326 6.33324 7.71992 5.1999C7.78659 5.13324 7.85326 5.13324 7.98659 5.1999C9.85326 6.33324 11.7866 7.3999 13.6533 8.53324C13.7199 8.53324 13.7199 8.53324 13.7866 8.5999C12.9199 9.06657 12.0533 9.5999 11.2533 10.0666L7.85326 12.0666C7.71992 11.9332 7.51992 11.8666 7.31992 11.7332C6.78659 11.3999 6.25325 11.1332 5.71992 10.7999C5.25326 10.5332 4.71992 10.1999 4.25326 9.93324C3.65326 9.5999 3.11992 9.26657 2.51992 8.93324C2.38659 8.86657 2.18659 8.73324 1.91992 8.5999Z" fill="#1B2E58"/>
<path d="M1.91992 8.6001C2.11992 8.66676 2.38659 8.86676 2.58659 8.93343C3.18659 9.26676 3.71992 9.6001 4.31992 9.93343C4.78659 10.2001 5.31992 10.5334 5.78659 10.8001C6.31992 11.1334 6.85326 11.4001 7.38659 11.7334C7.58659 11.8001 7.71992 11.9334 7.91992 12.0668V19.0001C7.31992 18.6668 6.78659 18.3334 6.25326 18.0001C4.85326 17.2001 3.45326 16.4001 2.05326 15.5334C2.05326 15.5334 1.98659 15.4668 1.91992 15.4668V8.6001ZM16.5199 24.0001C16.5199 24.0001 16.5199 23.9334 16.5199 24.0001C16.5866 23.8668 16.5199 23.8668 16.5199 23.8001V17.0668C18.2533 16.0668 19.9199 15.0668 21.6533 14.0668C21.9199 13.9334 22.1866 13.7334 22.4533 13.6001V20.5334C22.3866 20.5334 22.3866 20.5334 22.3199 20.6001C20.4533 21.7334 18.5199 22.8001 16.6533 23.9334C16.5866 23.9334 16.5866 23.9334 16.5199 24.0001Z" fill="#234871"/>
<path d="M16.5195 6.9332C16.9195 6.66654 17.3195 6.46654 17.7195 6.19987C18.2529 5.86654 18.7862 5.5332 19.3862 5.26654C19.9862 4.9332 20.6529 4.5332 21.2529 4.19987L22.2529 3.59987C22.3195 3.5332 22.3862 3.5332 22.4529 3.5332V10.4665C22.3862 10.4665 22.3195 10.5332 22.3195 10.5332C20.4529 11.5999 18.5862 12.7332 16.6529 13.7999C16.6529 13.7999 16.5862 13.8665 16.5195 13.8665V11.1332V6.9332Z" fill="#1B2E58"/>
<path d="M22.4536 13.6665C22.1869 13.7998 21.9202 13.9332 21.6536 14.1332C19.9202 15.1332 18.2536 16.1332 16.5202 17.1332C14.9202 16.1998 13.2536 15.2665 11.6536 14.2665C11.3202 14.0665 10.9869 13.8665 10.5869 13.6665C10.7869 13.5332 10.9869 13.3998 11.1202 13.3332C11.6536 13.0665 12.1202 12.7332 12.6536 12.4665C12.7869 12.3998 12.8536 12.3998 12.9202 12.4665C14.1202 13.1332 15.2536 13.8665 16.4536 14.5332C16.5202 14.5998 16.5869 14.5998 16.6536 14.5332C17.7869 13.8665 18.9869 13.1998 20.1202 12.4665C20.1869 12.3998 20.3202 12.3998 20.3869 12.4665C21.1202 12.7998 21.7869 13.1998 22.4536 13.6665C22.4536 13.5998 22.4536 13.5998 22.4536 13.6665Z" fill="#69FEBB"/>
<path d="M10.5862 13.6665C10.9195 13.8665 11.2529 14.0665 11.6529 14.2665C13.2529 15.1998 14.9195 16.1332 16.5195 17.1332V23.9998L15.5195 23.3998C13.9195 22.4665 12.3195 21.5332 10.6529 20.5998C10.5862 20.5332 10.5195 20.5332 10.5195 20.3998V13.7998C10.5862 13.7332 10.5862 13.6665 10.5862 13.6665Z" fill="#1B2E58"/>
<path d="M16.5202 6.93343V13.8668C16.3202 13.8001 16.1869 13.7334 16.0536 13.6001C15.5202 13.3334 15.0536 13.0001 14.5202 12.7334C14.4536 12.6668 14.3869 12.6001 14.3869 12.5334V8.46676C14.3869 8.4001 14.3869 8.33343 14.2536 8.26676C13.0536 7.6001 11.8536 6.86676 10.6536 6.2001C10.5869 6.13343 10.5869 6.13343 10.5869 6.06676V3.66676V3.6001C11.0536 3.73343 11.5202 4.0001 11.9869 4.26676C13.4536 5.13343 14.9869 6.0001 16.5202 6.93343C16.5202 6.86676 16.5202 6.93343 16.5202 6.93343Z" fill="#69FEBB"/>
<path d="M7.85352 19.0001V12.0668L11.2535 10.0668C12.1202 9.6001 12.9868 9.06676 13.7868 8.6001C13.8535 8.66676 13.7868 8.66676 13.7868 8.73343V10.8668C13.7868 10.9334 13.7868 11.0001 13.6535 11.0668C12.4535 11.8001 11.1868 12.4668 9.98685 13.2001C9.92018 13.2668 9.92018 13.3334 9.92018 13.4001V17.6668C9.92018 17.8001 9.92018 17.8668 9.78685 17.8668C9.18685 18.2001 8.52018 18.6001 7.85352 19.0001C7.92018 18.9334 7.85352 19.0001 7.85352 19.0001Z" fill="#69FDBB"/>
</g>
<defs>
<clipPath id="clip0">
<rect width="24" height="24" fill="white"/>
</clipPath>
</defs>
</svg>
