<svg width="24" height="24" fill="none" xmlns="http://www.w3.org/2000/svg"><g clip-path="url(#a)" fill="#28646E"><path fill-rule="evenodd" clip-rule="evenodd" d="M11.214 9.812a.34.34 0 0 1-.226-.6 7.29 7.29 0 0 0 1.466-1.682c.282-.495.739-.75 1.215-.685a.342.342 0 1 1-.092.677c-.278-.038-.464.23-.533.346a7.856 7.856 0 0 1-1.602 1.854.334.334 0 0 1-.228.09Zm-5.751 5.782a.343.343 0 0 1-.22-.601 9.605 9.605 0 0 1 1.257-.84.34.34 0 0 1 .305.602 9.12 9.12 0 0 0-1.124.752.342.342 0 0 1-.218.08"/><path fill-rule="evenodd" clip-rule="evenodd" d="M14.041 12.355c.137.127.295.072.44-.066.988-.945 2.036-2.42 2.384-3.19a.3.3 0 0 1 .387-.19c.19.076.188.4.015.76a12.116 12.116 0 0 1-2.342 3.271.26.26 0 0 0 0 .387c.11.098.29.092.456-.078.534-.529 1.024-1.1 1.464-1.709a.32.32 0 0 1 .328-.17c.165.032.19.19.14.38-.081.307-.945 1.44-1.287 1.821-.927 1.035-1.854 1.602-3.639 2.53-.616.32-1.083.634-1.373 1.12-.259.433-.335.575-.36.63a.436.436 0 0 0 .197.572.42.42 0 0 0 .563-.2V18.2c0-.006-.012 0 .325-.56a2.417 2.417 0 0 1 1.05-.928c1.791-.815 2.522-1.458 3.56-2.495.488-.553.924-1.15 1.303-1.784.499-.841.236-1.56-.214-1.683a.058.058 0 0 1-.04-.07v-.016c.262-.409.456-.858.574-1.33.088-.434-.036-.963-.63-1.09a.058.058 0 0 1-.044-.069c.038-.138.076-.312.1-.426a.969.969 0 0 0-.661-1.17 1.001 1.001 0 0 0-.801.168.08.08 0 0 1-.104-.012.622.622 0 0 0-.447-.2c-.374 0-.74.108-1.001.683-.2.4-.479.963-1.318 1.894a14.501 14.501 0 0 1-2.54 2.137c-.119.076-.283.058-.265-.098.032-.25.3-1.94.352-2.43.074-.8-.358-1.173-.845-1.237-.4-.054-1.001.06-1.338.972-.382.916-.698 1.859-.945 2.821a8.675 8.675 0 0 0-.076 3.482c.015.08 0 .163-.042.233-.323.484-.614.988-.87 1.51a.433.433 0 0 0 .177.548.422.422 0 0 0 .571-.166l.012-.024c.128-.27.4-.78.497-1.001.13-.248.247-.504.348-.765a1.15 1.15 0 0 0 0-.671 6.957 6.957 0 0 1 .07-2.803 29.09 29.09 0 0 1 1.001-3.136c.103-.253.247-.33.4-.317.155.014.421.082.343.601-.142.92-.342 2.087-.4 2.481-.032.2-.068.643.286.85.279.16.585.071.921-.155a17.363 17.363 0 0 0 2.894-2.463c.863-.97 1.137-1.548 1.36-2.07a.385.385 0 0 1 .452-.201c.092.026.2.15.126.413-.2.638-.98 2.098-2.499 3.468a.297.297 0 0 0-.06.434.284.284 0 0 0 .419 0 10.062 10.062 0 0 0 2.479-3.316c.116-.248.216-.503.298-.765a.339.339 0 0 1 .357-.268c.166.034.276.2.224.487-.085.357-.21.705-.372 1.035-.437.929-1.362 2.173-2.36 3.24a.283.283 0 0 0 0 .41v.006ZM7.871 7.73c.053-.046.033-.106.019-.153a16.746 16.746 0 0 0-.6-1.413.15.15 0 0 0-.201-.084 1.602 1.602 0 0 0-.4.292 1.558 1.558 0 0 0-.343.366.146.146 0 0 0 .058.2c.18.137 1.1.68 1.322.782.046.022.102.05.154 0l-.008.01Zm-2.002.33c-.114 0-.162.048-.176.126-.013.168 0 .337.038.5.02.168.065.33.134.483a.15.15 0 0 0 .2.06c.2-.084 1.15-.586 1.354-.722.042-.028.094-.062.082-.133L5.87 8.06Zm9.572 8.36c-.07 0-.09.067-.108.113-.084.23-.346 1.265-.38 1.487a.15.15 0 0 0 .053.163c.016.012.035.021.055.026.165.032.335.037.502.016a1.65 1.65 0 0 0 .495-.082.15.15 0 0 0 .08-.2 17.028 17.028 0 0 0-.575-1.424c-.024-.044-.052-.1-.122-.096v-.002Zm.601-.478c-.034.062 0 .11.038.148.154.2.901.955 1.073 1.1a.151.151 0 0 0 .169.034.153.153 0 0 0 .05-.035c.112-.125.204-.266.272-.42.084-.146.145-.304.178-.469 0-.08-.02-.144-.13-.174-.216-.06-1.27-.232-1.516-.246-.05 0-.112 0-.144.052l.01.01Zm-3.66 5.737a.383.383 0 1 1-.766.004.383.383 0 0 1 .765-.004Zm0-19.356a.383.383 0 1 1-.766 0 .383.383 0 0 1 .765 0Zm2.49 18.928a.38.38 0 1 1-.734.194.38.38 0 0 1 .735-.194ZM9.867 2.553a.382.382 0 1 1-.737.2.382.382 0 0 1 .737-.2Zm7.305 17.638a.382.382 0 0 1-.135.527.381.381 0 1 1 .135-.527ZM7.491 3.428a.38.38 0 1 1-.654.389.38.38 0 0 1 .658-.38l-.004-.009ZM19.11 18.583a.381.381 0 1 1-.539.539.381.381 0 0 1 .539-.539ZM5.427 4.888a.38.38 0 1 1-.539.539.38.38 0 0 1 .539-.539Zm15.145 11.615a.381.381 0 0 1-.373.665.382.382 0 0 1 .38-.661l-.007-.004ZM3.805 6.833a.38.38 0 1 1-.368.666.38.38 0 0 1 .368-.666Zm17.642 7.305a.38.38 0 1 1-.184.739h-.013a.381.381 0 0 1 .2-.735l-.003-.004ZM2.755 9.135a.383.383 0 1 1-.2.74.382.382 0 0 1 .2-.738v-.002Zm18.924 2.48a.38.38 0 1 1 0 .76.38.38 0 0 1 0-.76Zm-19.356 0a.38.38 0 1 1 0 .761.38.38 0 0 1 0-.761ZM21.25 9.12a.38.38 0 0 1 .2.733h-.01a.382.382 0 0 1-.2-.737l.01.004ZM2.543 14.124a.381.381 0 1 1 .2.733.381.381 0 0 1-.2-.735v.002Zm17.638-7.307a.38.38 0 1 1 .394.65.38.38 0 0 1-.394-.65ZM3.428 16.509a.38.38 0 1 1-.174.226.382.382 0 0 1 .174-.23v.004ZM18.575 4.89a.38.38 0 1 1 .537.538.38.38 0 0 1-.537-.538ZM4.888 18.575a.381.381 0 1 1 .538.54.381.381 0 0 1-.538-.54ZM16.503 3.428a.38.38 0 1 1 .657.38.38.38 0 0 1-.657-.38Zm-9.67 16.763a.381.381 0 1 1 .431.544.38.38 0 0 1-.428-.552l-.004.008Zm7.305-17.638a.381.381 0 0 1 .74.176v.022a.381.381 0 0 1-.734-.2l-.006.002Zm-5 18.696a.38.38 0 1 1 .738.186.38.38 0 1 1-.735-.2"/><path d="M12.001 24A12 12 0 1 0 0 12.001a12.015 12.015 0 0 0 12.001 12Zm0-22.985A10.986 10.986 0 1 1 1.015 12.001 10.998 10.998 0 0 1 12.001 1.015Z"/></g><defs><clipPath id="a"><path fill="#fff" d="M0 0h24v24H0z"/></clipPath></defs></svg>