<svg width="24" height="24" fill="none" xmlns="http://www.w3.org/2000/svg"><mask id="a" mask-type="alpha" maskUnits="userSpaceOnUse" x="0" y="0" width="24" height="24"><path d="M24 12c0 6.627-5.373 12-12 12S0 18.627 0 12 5.373 0 12 0s12 5.373 12 12Z" fill="#fff"/></mask><g mask="url(#a)"><path fill-rule="evenodd" clip-rule="evenodd" d="M24 12c0 6.627-5.373 12-12 12S0 18.627 0 12 5.373 0 12 0s12 5.373 12 12Z" fill="url(#b)"/></g><path fill-rule="evenodd" clip-rule="evenodd" d="M12 22.917C5.98 22.917 1.083 18.02 1.083 12S5.98 1.083 12 1.083 22.917 5.98 22.917 12 18.02 22.917 12 22.917ZM12 0C5.373 0 0 5.373 0 12s5.373 12 12 12 12-5.373 12-12S18.627 0 12 0Z" fill="#1B1A19"/><path fill-rule="evenodd" clip-rule="evenodd" d="m20.39 7.205.433-.433c.502.848.871 1.754 1.108 2.687h-.608a.73.73 0 0 0-.73.729v3.624c0 .403.328.73.73.73h.608a10.197 10.197 0 0 1-1.108 2.686l-.433-.433a.73.73 0 0 0-1.032 0l-2.563 2.563a.73.73 0 0 0 0 1.032l.433.433c-.848.502-1.754.871-2.686 1.108v-.608a.73.73 0 0 0-.73-.73h-3.624a.73.73 0 0 0-.73.73v.608a10.193 10.193 0 0 1-2.686-1.108l.433-.433a.73.73 0 0 0 0-1.032l-2.563-2.563a.73.73 0 0 0-1.031 0l-.433.433a10.192 10.192 0 0 1-1.109-2.686h.608a.73.73 0 0 0 .73-.73v-3.624a.73.73 0 0 0-.73-.73H2.07c.237-.932.606-1.838 1.109-2.686l.433.433a.73.73 0 0 0 1.031 0l2.563-2.563a.73.73 0 0 0 0-1.031l-.433-.433a10.192 10.192 0 0 1 2.687-1.109v.608c0 .403.326.73.729.73h3.624a.73.73 0 0 0 .73-.73V2.07a10.19 10.19 0 0 1 2.686 1.109l-.433.433a.73.73 0 0 0 0 1.031l2.563 2.563a.73.73 0 0 0 1.032 0ZM12 1.083C5.98 1.083 1.083 5.98 1.083 12S5.98 22.917 12 22.917 22.917 18.02 22.917 12 18.02 1.083 12 1.083Z" fill="#FFFFFE"/><path fill-rule="evenodd" clip-rule="evenodd" d="M18.475 12a6.475 6.475 0 1 1-12.95 0 6.475 6.475 0 0 1 12.95 0Z" fill="#FFFFFE"/><path fill-rule="evenodd" clip-rule="evenodd" d="M17.914 12a5.915 5.915 0 1 1-11.83 0 5.915 5.915 0 0 1 11.83 0Z" fill="#1B1A19"/><path fill-rule="evenodd" clip-rule="evenodd" d="M11.544 13.7h-2.13a.87.87 0 0 1-.87-.871v-.398c0-.48.39-.87.87-.87h.804a.829.829 0 0 0 .829-.829V10.5H9.414a1.93 1.93 0 0 0-1.93 1.931v.398c0 1.066.864 1.93 1.93 1.93h2.13V13.7Zm2.072 0h.97c.48 0 .87-.391.87-.871v-.398c0-.48-.39-.87-.87-.87h-.97v2.138Zm.97 1.06h-2.03V11.56h-.05a.829.829 0 0 1-.83-.829V10.5h.88V9.29h-.68a.829.829 0 0 1-.83-.828v-.233h2.57V10.5h.97a1.93 1.93 0 0 1 1.93 1.931v.398a1.931 1.931 0 0 1-1.93 1.93Z" fill="#FFFFFE"/><defs><linearGradient id="b" x1="12" y1="0" x2="12" y2="23.206" gradientUnits="userSpaceOnUse"><stop stop-color="#996630"/><stop offset=".328" stop-color="#D2A342"/><stop offset=".604" stop-color="#A8772D"/><stop offset="1" stop-color="#C59734"/></linearGradient></defs></svg>