<svg width="24" height="24" fill="none" xmlns="http://www.w3.org/2000/svg"><path fill-rule="evenodd" clip-rule="evenodd" d="M16 0H8C3.6 0 0 3.557 0 7.905v8.19C0 20.442 3.6 24 8 24h8c4.4 0 8-3.557 8-7.905v-8.19C24 3.557 20.4 0 16 0Z" fill="#00569D"/><path fill-rule="evenodd" clip-rule="evenodd" d="M15.945 15.164a5.204 5.204 0 0 1-2.7 1.654l-.009.002.008-.002a.765.765 0 0 1-.39-1.478l-.012.003a3.666 3.666 0 0 0 1.96-1.193.765.765 0 0 1 1.143 1.015Z" fill="#fff"/><path fill-rule="evenodd" clip-rule="evenodd" d="M17.152 12.548c-.05.334-.42.558-.741.558-.4 0-.825-.402-.766-.812a3.664 3.664 0 0 0-1.039-3.133 3.664 3.664 0 0 0-2.6-1.077 3.667 3.667 0 0 0-2.6 1.077 3.666 3.666 0 0 0-1.077 2.6 3.687 3.687 0 0 0 2.362 3.435c.216.082.358.43.358.65a.78.78 0 0 1-.779.778.536.536 0 0 1-.223-.04 5.203 5.203 0 0 1-1.72-1.142 5.186 5.186 0 0 1-1.525-3.68 5.19 5.19 0 0 1 1.524-3.68 5.188 5.188 0 0 1 3.68-1.525 5.19 5.19 0 0 1 3.68 1.524 5.186 5.186 0 0 1 1.466 4.467Z" fill="#fff"/><path fill-rule="evenodd" clip-rule="evenodd" d="M19.581 15.078a.766.766 0 0 1-1.296.066l-.055-.09a.767.767 0 0 1-.037-.616c.355-.82.552-1.725.552-2.676 0-1.86-.753-3.545-1.974-4.765a6.714 6.714 0 0 0-4.764-1.974A6.714 6.714 0 0 0 7.24 6.997a6.717 6.717 0 0 0-1.974 4.765c0 1.861.754 3.546 1.974 4.766a6.71 6.71 0 0 0 4.286 1.957l-.017-.001a.762.762 0 0 1 .548.325l.048.081a.765.765 0 0 1-.664 1.119 8.24 8.24 0 0 1-5.282-2.401 8.244 8.244 0 0 1-2.42-5.846c0-2.283.925-4.35 2.42-5.845a8.242 8.242 0 0 1 5.846-2.422 8.24 8.24 0 0 1 5.846 2.422 8.242 8.242 0 0 1 2.421 5.845c0 1.179-.247 2.3-.692 3.316Z" fill="#fff"/></svg>