<svg width="24" height="24" fill="none" xmlns="http://www.w3.org/2000/svg"><path d="M12 24c6.627 0 12-5.373 12-12S18.627 0 12 0 0 5.373 0 12s5.373 12 12 12Z" fill="#00316D"/><path d="M13.617 14.915c-.01-.018-.011-.025-.015-.028-.465-.22-.93-.44-1.397-.657-.024-.012-.075-.009-.09.008-.203.218-.4.44-.602.664.146.107 1.982.107 2.104.013ZM9.36 9.543l-.046-.098c-.04.028-.09.048-.116.086-.43.639-.856 1.28-1.28 1.923-.027.04-.025.1-.038.15.052-.01.11-.008.154-.035.364-.219.725-.443 1.083-.673a.298.298 0 0 0 .12-.187c.048-.375.081-.752.123-1.166Zm8.998 5.437h.62c.119 0 .165-.045.089-.16-.394-.601-.786-1.203-1.181-1.803-.021-.032-.07-.047-.105-.07-.02.038-.051.076-.055.116-.046.586-.087 1.172-.132 1.759-.008.112.03.162.145.16.206-.005.412-.002.62-.002Zm-13.3-.045c.094.023.14.044.186.044.67.002 1.34 0 2.009.002.13 0 .163-.046.108-.171a80.88 80.88 0 0 1-.617-1.436c-.058-.14-.112-.133-.204-.034-.357.386-.717.767-1.076 1.15l-.406.445Zm9.896-3.46c.043.085.058.122.08.154l.905 1.315c.375.544.748 1.087 1.125 1.629.026.037.075.058.113.085.02-.044.05-.087.057-.134.015-.127.018-.255.026-.382.04-.582.086-1.162.12-1.742.015-.248-.092-.376-.327-.434l-1.88-.47c-.056-.013-.115-.01-.22-.02Zm-.16-3.85-.056.009c-.008.115-.019.23-.023.347l-.083 2.828c-.004.103.027.157.134.183.65.157 1.298.323 1.947.483.057.013.119 0 .178 0-.015-.058-.018-.123-.046-.174C16.2 10.123 15.55 8.946 14.9 7.77c-.028-.052-.069-.098-.104-.146Zm-2.913 5.78c.018-.1.035-.16.038-.22.01-.315.01-.629.024-.943a1.023 1.023 0 0 0-.2-.668c-.596-.826-1.19-1.654-1.782-2.483-.027-.037-.038-.086-.057-.13l-.07.043c-.018.063-.045.125-.051.189-.053.51-.098 1.02-.154 1.528a.345.345 0 0 0 .095.297c.671.748 1.338 1.5 2.008 2.25.036.04.08.073.15.136Zm.433-.157.045.03c.041-.033.09-.058.123-.098.57-.692 1.138-1.386 1.705-2.082a.276.276 0 0 0 .058-.154c.027-.926.05-1.852.071-2.778.002-.051-.027-.103-.043-.154-.041.04-.1.072-.122.12-.525 1.112-1.027 2.234-1.578 3.332-.29.58-.244 1.18-.26 1.784ZM9.688 14.98c.36 0 .722.005 1.083-.005a.345.345 0 0 0 .22-.093c.251-.263.487-.542.737-.806.094-.098.073-.158-.006-.245-.424-.459-.843-.922-1.259-1.388-.1-.112-.158-.111-.248.012-.57.78-1.148 1.556-1.721 2.335-.029.04-.04.091-.059.137.05.018.1.05.152.05.367.005.733.003 1.1.003Zm.373-2.974c-.2-.232-.395-.45-.58-.68-.078-.095-.138-.104-.243-.039-.627.394-1.261.778-1.887 1.175-.113.072-.202.184-.298.282-.09.092-.077.192-.029.305.244.557.482 1.116.723 1.675.091.21.126.214.266.027.371-.495.74-.993 1.11-1.489l.938-1.256Zm4.346-.591c-.048.078-.072.126-.105.165-.594.725-1.188 1.45-1.787 2.17-.097.119-.047.165.063.215.688.315 1.373.636 2.062.949.088.04.184.061.28.063.567.005 1.135.004 1.703 0 .052 0 .106-.023.159-.037-.019-.055-.027-.119-.06-.166a676.852 676.852 0 0 0-1.574-2.29l-.74-1.07Zm-2.412 4.332c-2.582 0-5.163 0-7.745.002-.2 0-.382-.023-.47-.239-.082-.204.014-.356.148-.5.771-.823 1.553-1.637 2.303-2.479.286-.32.508-.703.75-1.063.776-1.161 1.546-2.327 2.326-3.485a.725.725 0 0 1 .317-.273c.17-.063.314.035.422.19.628.896 1.26 1.79 1.89 2.686.13.183.177.177.273-.032l1.946-4.237c.076-.167.177-.308.375-.317.206-.01.331.115.428.292.976 1.772 1.93 3.558 2.945 5.307.614 1.058 1.324 2.056 1.99 3.081.083.126.166.251.247.379.098.153.156.322.064.492-.09.165-.256.197-.431.197-2.593-.002-5.186 0-7.778 0Z" fill="#fff"/></svg>