<svg width="24" height="24" fill="none" xmlns="http://www.w3.org/2000/svg"><path d="M12 24c6.627 0 12-5.373 12-12S18.627 0 12 0 0 5.373 0 12s5.373 12 12 12Z" fill="#1C98F7"/><path fill-rule="evenodd" clip-rule="evenodd" d="M12.21 17.494a8.595 8.595 0 0 0 1.563-.255c.632.193 1.3.236 1.952.127a.474.474 0 0 1 .078-.006c.232 0 .537.135.982.42v-.469a.457.457 0 0 1 .233-.398 3.51 3.51 0 0 0 .538-.374c.648-.549 1.014-1.281 1.014-2.057 0-.26-.041-.512-.12-.754.197-.365.355-.75.471-1.147.376.563.577 1.224.579 1.902 0 1.053-.49 2.036-1.339 2.754-.141.12-.29.23-.446.332v1.096a.466.466 0 0 1-.742.37c-.29-.218-.59-.42-.9-.608-.088-.053-.18-.1-.276-.14a5.265 5.265 0 0 1-.779.057 4.935 4.935 0 0 1-2.807-.85h-.001Zm-5.6-2.192c-1.338-1.134-2.11-2.68-2.11-4.337 0-3.385 3.194-6.09 7.093-6.09 3.9 0 7.093 2.705 7.093 6.09 0 3.386-3.194 6.09-7.093 6.09-.438 0-.872-.033-1.296-.1-.184.043-.918.48-1.977 1.252-.383.28-.926.01-.926-.462v-1.869a6.95 6.95 0 0 1-.784-.574Zm3.712.5c.033 0 .066.002.098.007a7.05 7.05 0 0 0 1.173.098c3.294 0 5.93-2.234 5.93-4.942 0-2.707-2.636-4.941-5.93-4.941-3.293 0-5.93 2.234-5.93 4.941 0 1.31.615 2.543 1.704 3.465.274.231.575.441.897.624.181.102.293.293.293.498v1.078c.837-.562 1.387-.828 1.765-.828ZM8.57 12.115a.925.925 0 0 1-.93-.92c0-.508.416-.92.93-.92.513 0 .93.412.93.92s-.417.92-.93.92Zm3.023 0a.925.925 0 0 1-.93-.92c0-.508.416-.92.93-.92s.93.412.93.92-.416.92-.93.92Zm3.023 0a.925.925 0 0 1-.93-.92c0-.508.416-.92.93-.92s.93.412.93.92-.416.92-.93.92Z" fill="#fff"/></svg>