<svg width="24" height="19" fill="none" xmlns="http://www.w3.org/2000/svg"><path d="M7.843 14.183a4.158 4.158 0 0 1-3.568-2.153l.085.001a5.19 5.19 0 0 0 1.357-.18l-.032-.972a4.163 4.163 0 0 1-3.27-3.339c.481.168.995.266 1.528.284l1.75.057-1.456-.973a4.16 4.16 0 0 1-1.595-4.896 13.718 13.718 0 0 0 9.452 4.46l.66.033-.147-.644a4.16 4.16 0 0 1 7.086-3.796l.19.2.27-.052a9.774 9.774 0 0 0 1.72-.504A4.185 4.185 0 0 1 20.71 2.74l.316.925a9.938 9.938 0 0 0 1.14-.204 8.982 8.982 0 0 1-1.142.983l-.22.158.013.27c.009.193.013.387.013.579 0 5.94-4.518 12.754-12.754 12.754-1.819 0-3.547-.383-5.111-1.07a9.843 9.843 0 0 0 5.177-2.06l1.108-.868-1.408-.025Z" fill="#fff" stroke="#fff"/></svg>