<svg width="24" height="24" fill="none" xmlns="http://www.w3.org/2000/svg"><path d="M12 24c6.627 0 12-5.373 12-12S18.627 0 12 0 0 5.373 0 12s5.373 12 12 12Z" fill="#F7931A"/><path d="m19.483 14.815-.409 1.638-1.091-.272.408-1.638-1.637-.408.272-1.091 1.637.408.409-1.637 1.091.272-.408 1.637 1.637.408-.272 1.092-1.637-.409Zm-4.025-4.495c-.153 1.012-.705 1.504-1.434 1.68.998.527 1.503 1.34 1.01 2.758-.611 1.76-2.044 1.916-3.946 1.56l-.472 1.891-1.115-.277.466-1.868c-.297-.073-.593-.15-.888-.23l-.468 1.875-1.113-.278.472-1.896c-.26-.066-.525-.137-.795-.204l-1.45-.363.56-1.306s.821.218.81.202c.317.078.458-.133.514-.273l.745-2.991.119.029a.91.91 0 0 0-.116-.038l.532-2.135c.015-.242-.065-.547-.517-.66.018-.011-.81-.2-.81-.2l.304-1.219 1.538.384-.002.005c.231.058.47.113.713.168l.467-1.874 1.114.278-.458 1.837c.3.068.6.137.893.21l.455-1.825 1.115.278-.467 1.874c1.407.488 2.434 1.225 2.224 2.608Zm-2.57 3.664c.368-1.478-2.057-1.845-2.813-2.034l-.625 2.51c.756.187 3.086.94 3.439-.477h-.002Zm.365-3.672c.334-1.345-1.694-1.633-2.323-1.79l-.568 2.278c.63.157 2.569.8 2.89-.488Z" fill="#fff"/></svg>