<svg width="24" height="24" fill="none" xmlns="http://www.w3.org/2000/svg"><path d="M12 24c6.627 0 12-5.373 12-12S18.627 0 12 0 0 5.373 0 12s5.373 12 12 12Z" fill="#FEC60D"/><path d="m20 7.61-2.578-1.484c-.088-.053-.17-.098-.258-.149-.085-.048-.169-.1-.256-.151-.516-.296-1.035-.582-1.545-.888l-2.45-1.415c-.142-.086-.879-.519-.91-.519-.013 0-.106.06-.126.073L8.53 5.005c-.049.027-.082.05-.132.076a3.304 3.304 0 0 0-.126.074l-.256.15a5.524 5.524 0 0 1-.132.077l-.252.145c-.089.053-.172.098-.26.148l-.517.296c-.045.024-.083.048-.126.073l-.648.375c-.09.053-.174.096-.261.146l-.513.303c-.257.147-.515.303-.776.445-.115.062-.717.43-.776.445v9.535c.048.005.706.397.775.438l1.032.597c.086.052.172.1.258.149l.51.294c.043.022.082.048.127.073.05.027.082.05.132.075.131.067.257.147.383.223l.65.374.124.073c.254.153.517.29.77.443l.905.525c.598.353 1.208.682 1.802 1.04l.708.409c.112.075.153-.01.33-.107l1.55-.894c.085-.05.169-.097.259-.148l.252-.144c.043-.024.083-.048.126-.075l1.42-.822c.425-.255.863-.485 1.288-.74l2.83-1.64c.04-.024.082-.049.126-.073.045-.024.087-.058.138-.069V7.758c-.08-.054-.163-.095-.25-.148Zm-5.092 9.333h-2.411v.632c0 .007-.003.01-.01.01h-1.163v-.642H9.097v-1.785c0-.019.023-.034.034-.045l.226-.244a.212.212 0 0 0 .018-.02.17.17 0 0 1 .018-.02l.13-.139.002-.002.04-.04.017-.02.042-.045.004-.005.14-.152c.03-.03.06-.06.089-.094l.001-.001.005-.006.094-.1c.014-.016.024-.024.037-.04l.114-.122.019-.019a.204.204 0 0 0 .017-.02l.191-.205.002-.001.004-.005.03-.03c.037-.048.105-.108.144-.156l.005-.006c.013-.015.027-.026.039-.04l.074-.08c.053-.053.098-.11.15-.162l.169-.182.019-.019.073-.08c.014-.015.028-.025.04-.04.01-.015.025-.026.037-.04l.075-.081.02-.021.056-.06c.011-.016.026-.026.038-.041.033-.037.128-.134.148-.16.012-.016.026-.025.037-.04a1.196 1.196 0 0 0-.095-.103l-.074-.081-.02-.02-.018-.022c-.058-.058-.111-.12-.17-.18l-.093-.1a.157.157 0 0 0-.018-.021l-.863-.926a.223.223 0 0 0-.019-.022l-.127-.137-.002-.002-.282-.304c-.006-.008-.012-.012-.02-.02l-.074-.082c-.051-.052-.1-.11-.152-.16l-.016-.019-.002-.001-.055-.061c-.026-.028-.053-.053-.077-.081-.009-.01-.01-.014-.02-.023-.05-.051-.097-.108-.15-.159-.005-.007-.011-.012-.017-.018-.007-.008-.034-.034-.034-.042V8.199h2.226v-.744c.392 0 .779.007 1.17.007v.713c0 .008.002.011.01.011h2.405v1.808h-3.317c.02.03.05.055.073.082l.184.203c.011.015.023.025.036.04.032.038.067.07.098.107l.268.295c.053.051.098.109.148.161l.685.753.004.006.245.27.02.018c.032.033.06.07.092.103l.441.482c.018.02.038.038.053.06-.007.01-.012.014-.02.023a.196.196 0 0 1-.018.02l-.092.1a.196.196 0 0 1-.017.02l-.222.242c-.015.015-.022.027-.037.04-.03.03-.075.087-.11.12l-.155.173c-.03.036-.113.118-.138.15l-.22.24c-.047.057-.1.107-.148.164l-.09.097c-.045.046-.084.095-.128.141l-.02.021c-.05.058-.106.113-.157.173l-.007.009-.193.21-.004.004-.007.008-.002.002-.088.098a.177.177 0 0 0-.017.02.182.182 0 0 1-.02.019c-.037.037-.07.082-.109.12a.208.208 0 0 0-.017.02l-.073.08c-.006.008-.012.013-.02.02l-.218.241h3.225c.03 0 .092-.007.092.01v1.785Z" fill="#fff"/></svg>