<svg width="24" height="24" fill="none" xmlns="http://www.w3.org/2000/svg"><g clip-path="url(#a)" fill="#ED1C24"><path d="M12.102 2.387c.063.14.101.292.177.42 3.835 6.12 7.683 12.228 11.518 18.336.089.14.178.28.203.482-3.975-4.101-7.936-8.203-11.937-12.33A11558.42 11558.42 0 0 1 .127 21.625c-.025-.012-.038-.025-.064-.038.077-.127.14-.241.216-.368C4.114 15.111 7.962 8.99 11.797 2.869c.089-.152.152-.317.216-.482h.089Z"/><path d="M17.499 17.854H6.629c.673-.698 1.282-1.346 1.917-1.968.064-.064.216-.09.33-.09h6.375c.114 0 .28.026.356.103.622.634 1.219 1.27 1.892 1.955ZM10.006 14.222l2.032-1.816c.634.559 1.346 1.194 2.07 1.841a.385.385 0 0 0-.064.09h-3.95a.904.904 0 0 1-.088-.115Z"/></g><defs><clipPath id="a"><path fill="#fff" d="M0 0h24v24H0z"/></clipPath></defs></svg>