<svg width="24" height="24" viewBox="0 0 24 24" fill="none" xmlns="http://www.w3.org/2000/svg">
<g clip-path="url(#clip0)">
<path fill-rule="evenodd" clip-rule="evenodd" d="M5.10522 17.9819C4.30805 17.0257 3.71769 15.87 3.39374 14.6333C5.94971 11.7759 9.57222 9.9873 13.3505 9.72132C13.7191 9.69531 14.0934 9.68219 14.4632 9.68219C14.4984 9.68219 14.5338 9.6823 14.5692 9.68256L12.516 11.6121C12.2871 11.8274 12.2167 12.1235 12.3278 12.404C12.4498 12.7119 12.7591 12.9269 13.0802 12.9269C13.2705 12.9269 13.4498 12.853 13.5985 12.7132L16.9069 9.60382C17.051 9.46841 17.1319 9.27896 17.1348 9.07033C17.1378 8.8564 17.0563 8.65101 16.9111 8.50685L13.0804 4.70098C12.9319 4.55347 12.7512 4.47552 12.5577 4.47547C12.2467 4.47541 11.9426 4.68611 11.8182 4.98782C11.7017 5.27025 11.7657 5.57159 11.9894 5.79386L14.3506 8.13967C10.1529 8.16908 6.08713 9.8177 3.1061 12.6881C3.03989 10.9443 3.47891 9.20536 4.36093 7.74541C5.95964 5.09911 8.88518 3.45517 11.9959 3.45517C12.5746 3.45517 13.1535 3.51369 13.7165 3.62912C17.0292 4.30842 19.7066 6.86136 20.5666 10.1486C18.0135 12.9804 14.4056 14.7529 10.6494 15.0174C10.2808 15.0434 9.90643 15.0565 9.5367 15.0565C9.5015 15.0565 9.46619 15.0564 9.43082 15.0562L11.4839 13.1266C11.7129 12.9113 11.7833 12.6153 11.6721 12.3347C11.5502 12.0269 11.2409 11.8119 10.9198 11.8118C10.7295 11.8118 10.5502 11.8857 10.4015 12.0255L7.09309 15.1349C6.94903 15.2703 6.86805 15.4598 6.86519 15.6685C6.86221 15.8823 6.94372 16.0877 7.08884 16.2318L10.9196 20.0378C11.0681 20.1853 11.2489 20.2632 11.4424 20.2632C11.7534 20.2632 12.0575 20.0525 12.1818 19.7508C12.2983 19.4684 12.2342 19.1671 12.0105 18.9449L9.64932 16.599C13.8182 16.5697 17.8634 14.9404 20.8389 12.1033C20.8407 12.1795 20.8418 12.2575 20.8422 12.3379C20.8223 16.0678 18.4893 19.4179 15.0366 20.6719C14.0647 21.0249 13.0457 21.2039 12.0079 21.2039C9.32839 21.2039 6.81246 20.0295 5.10522 17.9819ZM23.8964 7.36177C23.7495 7.11395 23.4721 6.95381 23.1896 6.95381C22.9251 6.95381 22.6961 7.09489 22.5614 7.3409C22.3072 7.8052 22.0224 8.26328 21.7121 8.70708C21.2108 7.3804 20.4356 6.14792 19.4546 5.12232C18.3604 3.97841 17.0022 3.08571 15.527 2.5407C14.4121 2.12887 13.232 1.91992 12.0192 1.91992H12.0184C10.4951 1.91992 8.955 2.25917 7.56466 2.90103C6.1466 3.55569 4.88768 4.52533 3.92398 5.70513C2.96045 6.88467 2.25338 8.2979 1.87909 9.79205C1.51823 11.2326 1.46343 12.7577 1.71974 14.2092C1.09949 14.9838 0.554643 15.7973 0.0994259 16.6288C-0.0345958 16.8736 -0.033056 17.1463 0.103621 17.377C0.250439 17.6247 0.527881 17.7849 0.810368 17.7849C1.07491 17.7849 1.30392 17.6438 1.43858 17.3978C1.6813 16.9546 1.95093 16.518 2.24282 16.0956C2.45882 16.6609 2.72304 17.2034 3.03081 17.7129C4.9078 20.8197 8.35244 22.7498 12.0205 22.7498C12.7008 22.7498 13.3831 22.6826 14.0485 22.5501C18.2467 21.7141 21.6221 18.1824 22.2567 13.9618C22.34 13.4078 22.3836 12.8614 22.3864 12.3379C22.3833 11.7595 22.3301 11.174 22.2284 10.5939C22.8704 9.7997 23.4326 8.96445 23.9005 8.10988C24.0346 7.86509 24.0331 7.59243 23.8964 7.36177Z" fill="#4155FF"/>
</g>
<defs>
<clipPath id="clip0">
<rect width="24" height="24" fill="white"/>
</clipPath>
</defs>
</svg>
