<svg width="24" height="24" viewBox="0 0 24 24" fill="none" xmlns="http://www.w3.org/2000/svg">
<path fill-rule="evenodd" clip-rule="evenodd" d="M12 13.8012C12 13.8012 10.2 11.5741 10.2 8.89208C10.2 6.46481 12 4.69208 12 4.69208C12 4.69208 13.8 6.46481 13.8 8.89208C13.8 11.5741 12 13.8012 12 13.8012ZM12.6966 17.5975C12.7217 17.7863 12.7364 17.993 12.7364 18.2194C12.7364 18.8003 12.3884 19.4848 12.1707 19.8557C12.0944 19.9866 11.9057 19.9866 11.8293 19.8557C11.6117 19.4848 11.2637 18.8003 11.2637 18.2194C11.2637 17.9428 11.2855 17.6952 11.3215 17.4748C11.4949 16.4134 12 15.983 12 15.983C12 15.983 12.5438 16.4461 12.6966 17.5975ZM20.7518 10.7641C19.9931 10.7815 18.0011 10.7406 17.0455 10.9375C15.282 11.3014 13.6637 13.0921 13.6637 13.0921C13.6637 13.0921 15.0104 10.8835 14.4546 7.39208C14.1366 5.3919 12 2.70117 12 2.70117C12 2.70117 9.86348 5.3919 9.54548 7.39208C8.9902 10.8835 10.3364 13.0921 10.3364 13.0921C10.3364 13.0921 8.71802 11.3014 6.95457 10.9375C5.99893 10.7406 4.00748 10.7815 3.24875 10.7641C2.10002 10.7374 3.99766 13.0146 4.5273 13.6648C5.45675 14.8054 6.39984 15.3394 6.98075 15.5799C7.09857 15.629 7.19293 15.474 7.09475 15.3917C6.12384 14.5807 4.2273 12.4283 4.5273 11.8648C4.75966 11.4284 7.28184 11.6101 9.0273 13.0648C9.62893 13.5661 11.4 15.1103 11.4 15.1103C11.4 15.1103 11.3913 15.1097 11.3744 15.1092C11.1927 15.1048 10.0675 15.1075 8.64548 15.7648C7.16457 16.4489 6.38184 18.1103 6.38184 18.1103C6.5362 18.293 8.10384 18.4146 8.67275 18.3284C8.98475 18.281 9.64257 17.9831 10.0778 17.7743C10.1013 17.7628 10.1117 17.7421 10.1117 17.7219C10.1117 17.6875 10.0833 17.6537 10.0402 17.6625C9.55311 17.7606 8.80911 17.8932 8.48184 17.8648C8.26693 17.8463 7.7073 17.8032 7.66366 17.5921C7.56002 17.0908 8.7453 16.4799 9.19093 16.2284C9.65511 15.9666 11.1409 15.6083 11.37 15.5537C11.3897 15.5489 11.4 15.5466 11.4 15.5466C11.4 15.5466 10.932 16.3206 10.7564 17.4012C10.7362 17.5244 10.7204 17.651 10.7089 17.7814C10.6975 17.9149 10.6909 18.0524 10.6909 18.1921C10.6909 20.0831 11.8909 21.3012 11.8909 21.3012H12.1091C12.1091 21.3012 13.3091 20.0831 13.3091 18.1921C13.3091 18.0541 13.3031 17.9188 13.2917 17.7863C13.284 17.6984 13.2742 17.6123 13.2627 17.5277C13.1051 16.3817 12.6 15.5466 12.6 15.5466C12.6 15.5466 14.3062 15.9443 14.8091 16.2284C15.2547 16.4799 16.44 17.0908 16.3364 17.5921C16.2928 17.8032 15.7331 17.8463 15.5182 17.8648C15.1909 17.8932 14.4469 17.7606 13.9598 17.6625C13.914 17.6532 13.8846 17.693 13.8889 17.729C13.8911 17.747 13.9015 17.7644 13.9227 17.7743C14.3575 17.9831 15.0153 18.281 15.3273 18.3284C15.8962 18.4146 17.4638 18.293 17.6182 18.1103C17.6182 18.1103 16.8355 16.4489 15.3546 15.7648C13.8 15.0464 12.6 15.1103 12.6 15.1103C12.6 15.1103 14.3711 13.5661 14.9727 13.0648C16.7182 11.6101 19.2409 11.4284 19.4727 11.8648C19.7727 12.4283 17.8762 14.5807 16.9053 15.3917C16.8071 15.474 16.9015 15.629 17.0193 15.5799C17.6002 15.3394 18.5433 14.8054 19.4727 13.6648C20.0024 13.0146 21.9 10.7374 20.7518 10.7641Z" fill="#FDFFFF"/>
<path fill-rule="evenodd" clip-rule="evenodd" d="M19.4727 13.6647C18.5433 14.8053 17.6002 15.3393 17.0193 15.5798C16.9015 15.6289 16.8071 15.4739 16.9053 15.3916C17.8762 14.5806 19.7727 12.4282 19.4727 11.8647C19.2409 11.4284 16.7182 11.61 14.9727 13.0647C14.3711 13.566 12.6 15.1102 12.6 15.1102C12.6 15.1102 13.8 15.0464 15.3545 15.7647C16.8355 16.4488 17.6182 18.1102 17.6182 18.1102C17.4638 18.2929 15.8962 18.4145 15.3273 18.3284C15.0153 18.2809 14.3575 17.983 13.9227 17.7742C13.9015 17.7644 13.8911 17.7469 13.8889 17.7289C13.8845 17.6929 13.914 17.6531 13.9598 17.6624C14.4469 17.7605 15.1909 17.8931 15.5182 17.8647C15.7331 17.8462 16.2927 17.8031 16.3364 17.592C16.44 17.0907 15.2547 16.4798 14.8091 16.2284C14.3062 15.9442 12.6 15.5465 12.6 15.5465C12.6 15.5465 13.1051 16.3816 13.2627 17.5276C13.2742 17.6122 13.284 17.6984 13.2916 17.7862C13.3031 17.9187 13.3091 18.054 13.3091 18.192C13.3091 20.083 12.1091 21.3011 12.1091 21.3011H11.8909C11.8909 21.3011 10.6909 20.083 10.6909 18.192C10.6909 18.0524 10.6975 17.9149 10.7089 17.7813C10.7204 17.6509 10.7362 17.5244 10.7564 17.4011C10.932 16.3205 11.4 15.5465 11.4 15.5465C11.4 15.5465 11.3896 15.5488 11.37 15.5536C11.1409 15.6082 9.65509 15.9665 9.19091 16.2284C8.74527 16.4798 7.56 17.0907 7.66364 17.592C7.70727 17.8031 8.26691 17.8462 8.48182 17.8647C8.80909 17.8931 9.55309 17.7605 10.0402 17.6624C10.0833 17.6536 10.1116 17.6875 10.1116 17.7218C10.1116 17.742 10.1013 17.7627 10.0778 17.7742C9.64255 17.983 8.98473 18.2809 8.67273 18.3284C8.10382 18.4145 6.53618 18.2929 6.38182 18.1102C6.38182 18.1102 7.16455 16.4488 8.64545 15.7647C10.0675 15.1075 11.1927 15.1047 11.3744 15.1091C11.3913 15.1096 11.4 15.1102 11.4 15.1102C11.4 15.1102 9.62891 13.566 9.02727 13.0647C7.28182 11.61 4.75964 11.4284 4.52727 11.8647C4.22727 12.4282 6.12382 14.5806 7.09473 15.3916C7.19291 15.4739 7.09855 15.6289 6.98073 15.5798C6.39982 15.3393 5.45673 14.8053 4.52727 13.6647C3.99764 13.0145 2.1 10.7373 3.24873 10.764C4.00745 10.7815 5.99891 10.7405 6.95455 10.9375C8.718 11.3013 10.3364 13.092 10.3364 13.092C10.3364 13.092 8.99018 10.8835 9.54545 7.392C9.86345 5.39182 12 2.70109 12 2.70109C12 2.70109 14.1365 5.39182 14.4545 7.392C15.0104 10.8835 13.6636 13.092 13.6636 13.092C13.6636 13.092 15.282 11.3013 17.0455 10.9375C18.0011 10.7405 19.9931 10.7815 20.7518 10.764C21.9 10.7373 20.0024 13.0145 19.4727 13.6647ZM12 0C5.37273 0 0 5.37273 0 12C0 18.6273 5.37273 24 12 24C18.6273 24 24 18.6273 24 12C24 5.37273 18.6273 0 12 0Z" fill="#2182A5"/>
<path fill-rule="evenodd" clip-rule="evenodd" d="M12.0002 4.69189C12.0002 4.69189 10.2002 6.46462 10.2002 8.8919C10.2002 11.5739 12.0002 13.801 12.0002 13.801C12.0002 13.801 13.8002 11.5739 13.8002 8.8919C13.8002 6.46462 12.0002 4.69189 12.0002 4.69189Z" fill="#2182A5"/>
<path fill-rule="evenodd" clip-rule="evenodd" d="M12 15.9829C12 15.9829 11.4949 16.4133 11.3215 17.4747C11.2855 17.6951 11.2637 17.9427 11.2637 18.2193C11.2637 18.8002 11.6117 19.4847 11.8293 19.8556C11.9057 19.9865 12.0944 19.9865 12.1708 19.8556C12.3884 19.4847 12.7364 18.8002 12.7364 18.2193C12.7364 17.9929 12.7217 17.7862 12.6966 17.5975C12.5439 16.446 12 15.9829 12 15.9829Z" fill="#2182A5"/>
</svg>
