<svg width="24" height="24" fill="none" xmlns="http://www.w3.org/2000/svg"><path d="M11.839 24c-.585 0-1.169-.16-1.68-.453l-7.465-4.309A3.392 3.392 0 0 1 1 16.302V7.684c0-1.198.643-2.323 1.68-2.922L10.159.453a3.393 3.393 0 0 1 3.374 0l7.465 4.31a3.386 3.386 0 0 1 1.68 2.92v8.634a3.386 3.386 0 0 1-1.68 2.921l-7.465 4.31A3.462 3.462 0 0 1 11.84 24Zm0-22.831c-.38 0-.76.102-1.096.292L3.264 5.785A2.19 2.19 0 0 0 2.17 7.684v8.633c0 .788.423 1.504 1.095 1.899l7.465 4.323c.686.395 1.519.395 2.205 0L20.4 18.23a2.202 2.202 0 0 0 1.095-1.899V7.684c0-.79-.423-1.52-1.095-1.9l-7.45-4.323a2.25 2.25 0 0 0-1.11-.292Zm0 18.916c-.322 0-.628-.087-.906-.248l-5.434-3.126a1.822 1.822 0 0 1-.906-1.577V8.866c0-.643.336-1.242.906-1.578l5.434-3.126a1.822 1.822 0 0 1 1.811 0l5.42 3.126c.555.322.905.92.905 1.578v6.266a1.84 1.84 0 0 1-.905 1.578l-5.434 3.126c-.263.16-.57.248-.891.248Zm0-15.294a.906.906 0 0 0-.468.132L5.937 8.049a.95.95 0 0 0-.467.818v6.266a.95.95 0 0 0 .467.819l5.434 3.126a.897.897 0 0 0 .935 0l5.42-3.126a.95.95 0 0 0 .467-.819V8.867a.95.95 0 0 0-.468-.818l-5.419-3.126a.834.834 0 0 0-.467-.132Zm0 11.321c-.161 0-.322-.044-.468-.117L8.625 14.39a.927.927 0 0 1-.467-.804v-3.184a.91.91 0 0 1 .467-.804l2.746-1.592a.967.967 0 0 1 .935 0l2.746 1.592a.91.91 0 0 1 .468.804v3.184a.91.91 0 0 1-.468.804l-2.746 1.592a.906.906 0 0 1-.467.131Zm0-7.64a.39.39 0 0 0-.176.044L8.917 10.11a.35.35 0 0 0-.175.292v3.184c0 .117.073.234.175.307l2.746 1.592a.372.372 0 0 0 .351 0l2.746-1.592a.375.375 0 0 0 .175-.307v-3.184a.35.35 0 0 0-.175-.292l-2.746-1.593a.389.389 0 0 0-.175-.043Z" fill="url(#a)"/><defs><linearGradient id="a" x1="1" y1="11.997" x2="22.683" y2="11.997" gradientUnits="userSpaceOnUse"><stop stop-color="#E168FD"/><stop offset="1" stop-color="#7B00FC"/></linearGradient></defs></svg>