<svg width="24" height="24" viewBox="0 0 24 24" fill="none" xmlns="http://www.w3.org/2000/svg">
<path d="M12 24C18.6274 24 24 18.6274 24 12C24 5.37258 18.6274 0 12 0C5.37258 0 0 5.37258 0 12C0 18.6274 5.37258 24 12 24Z" fill="#1C1C1C"/>
<path d="M11.7861 10.0749C12.0156 10.1687 12.2451 10.1214 12.4288 10.0749C12.5668 10.5429 12.7963 10.9637 13.0251 11.1504C12.8878 12.3204 12.4746 12.7412 12.0156 12.7412C11.3736 12.7412 11.0518 11.3844 11.0518 11.1512C11.1898 11.0574 11.6031 10.7762 11.7868 10.0749H11.7861ZM11.0976 14.1917C11.3736 13.9577 11.5566 13.5834 11.7861 12.9752C11.9698 13.0689 12.2451 13.0217 12.4288 12.9752C12.5668 13.6299 12.7041 14.0514 13.0251 14.2382C12.9336 14.9867 12.4746 15.5012 12.0613 15.5012C11.4651 15.5012 11.1898 14.5659 11.0976 14.1917ZM7.42634 15.6414C7.61009 15.4074 7.61009 15.0339 7.51859 14.3319C7.65584 14.3784 7.79384 14.3784 7.88609 14.3319C8.16059 14.9867 8.39009 15.4074 8.75759 15.6414C8.80334 15.9692 8.75759 16.3434 8.61959 16.3899C8.11484 16.6239 7.65584 16.0157 7.42709 15.6414H7.42634ZM5.49884 14.3784C5.59109 14.3784 5.63684 14.3784 5.72834 14.4257C6.05009 15.2672 6.60059 15.7352 6.60059 15.7352C6.78434 16.1094 6.87584 16.4837 6.73784 16.4837C6.32534 16.5302 6.00359 16.2497 5.68259 15.6414C5.72834 15.5012 5.68259 15.4074 5.49884 14.3784ZM4.25984 14.3784C4.71884 16.3434 5.59109 16.2497 5.54534 16.1559C5.36159 15.8289 5.17784 15.6887 4.99409 15.5484C4.58159 15.1269 4.25984 14.2382 4.25984 14.3784ZM9.85859 15.6414C10.1803 15.4074 10.2261 14.8929 10.2718 14.2389C10.4556 14.2847 10.6843 14.2847 10.8223 14.2389C10.9146 14.6589 11.0518 15.2672 11.4651 15.5484C11.4193 16.0629 11.2813 16.3434 10.9603 16.3899C10.7308 16.4837 10.0881 16.4837 9.85859 15.6414ZM5.91209 14.1917C6.09584 13.9577 6.14159 13.5834 6.18734 13.0689C6.32534 13.1154 6.50909 13.1154 6.59984 13.0689C6.73784 13.6764 6.96734 14.0514 7.24334 14.2389C7.33484 15.2207 7.24334 15.5484 7.05959 15.5484C6.64709 15.5484 6.09584 14.6589 5.91209 14.1909V14.1917ZM4.48934 14.1917C4.48934 14.0979 4.53509 13.4897 4.58159 13.0689H4.76459C4.99409 13.9577 5.31584 14.2389 5.31584 14.2389C5.54534 15.3144 5.54534 15.5949 5.36084 15.5012C4.94834 15.3609 4.62734 14.5659 4.48934 14.1917ZM8.16059 14.1917C8.39009 14.0042 8.52809 13.6772 8.61959 13.0689C8.84909 13.1619 9.07859 13.1154 9.21659 13.0689C9.35384 13.6764 9.58409 14.0514 9.90509 14.2389C9.90509 14.7527 9.85859 15.5949 9.21659 15.4539C8.66534 15.3144 8.20709 14.3784 8.16059 14.1917ZM7.74809 14.0514C7.19684 14.0514 6.87584 13.1619 6.87584 12.8814C7.15109 12.6009 7.28834 12.0864 7.42634 11.1977C7.51859 11.2442 7.65584 11.2442 7.79384 11.1977C7.83959 12.1802 8.11484 12.6009 8.34434 12.8349C8.25284 13.6299 8.02334 14.0514 7.74809 14.0514ZM4.90259 12.8814C4.99409 12.6939 4.99409 12.6474 5.27009 11.1977H5.49884C5.49884 12.1802 5.77409 12.6474 5.91209 12.8349C5.86634 13.3494 5.95784 14.0514 5.54459 14.0514C5.36159 14.0514 5.13209 13.8174 4.90259 12.8814ZM3.98459 11.2442C4.12259 11.2914 4.03034 12.5072 4.21409 12.9287C4.21409 12.9287 4.21409 14.0979 4.12259 14.0042C3.43409 13.1619 3.89309 11.1977 3.98459 11.2442ZM9.49184 12.8814C9.81284 12.6474 9.99659 12.1329 10.2718 11.1977C10.4556 11.2442 10.6843 11.2442 10.8223 11.1977C10.9146 11.8989 11.0976 12.4142 11.4651 12.7877C11.3736 13.5362 11.0061 14.0514 10.5471 14.0514C9.81284 14.0514 9.53759 13.0217 9.49184 12.8814ZM5.72834 11.0574C6.09584 10.9172 6.32534 10.1214 6.37109 10.0277C6.42159 10.073 6.48702 10.098 6.55484 10.098C6.62266 10.098 6.6881 10.073 6.73859 10.0277C6.73859 10.6359 6.92159 10.9172 7.05959 11.0102C6.92159 11.8052 6.73784 12.7412 6.32459 12.7412C5.95784 12.7412 5.77409 11.8989 5.72834 11.0574ZM4.58084 12.7877C4.25984 12.7877 4.16834 11.5719 4.25984 11.0574C4.25984 11.0574 4.53509 10.6359 4.71884 10.0277C4.76459 10.0277 4.85684 10.0749 4.90259 10.0277C4.85684 10.6359 4.94834 10.9172 5.03984 11.0574C5.03984 11.0574 4.81109 12.7877 4.58159 12.7877H4.58084ZM8.06909 11.0574C8.25284 10.9637 8.61959 10.4492 8.80334 9.98118C8.98709 10.0749 9.17084 10.0749 9.39959 10.0277C9.49184 10.5429 9.62909 10.8699 9.95084 11.0574C9.81284 11.8989 9.53759 12.7412 8.94134 12.7412C8.39009 12.7412 8.11484 11.6184 8.06909 11.0574ZM8.48159 9.79443C8.20709 10.5429 7.93109 10.9637 7.56434 10.9637C7.10534 10.9637 7.05959 9.98118 7.05959 9.88743C7.42709 9.60693 7.70159 9.04593 7.93109 8.57793H8.25284C8.16059 9.27918 8.34434 9.60693 8.48234 9.79443H8.48159ZM6.23309 8.62443C6.00359 9.27918 6.09584 9.60693 6.18809 9.84093C5.82059 10.7762 5.63684 11.0109 5.36159 11.0109C5.08634 10.9637 5.08634 10.4019 5.17784 9.93468C5.45309 9.74718 6.05009 8.67168 6.05009 8.62443H6.23309ZM4.90259 8.67168C5.03984 8.62443 4.53509 9.32643 4.58159 9.65418C4.62659 10.1214 4.07609 10.9172 4.03034 10.8699C3.84734 10.8234 4.21409 9.13893 4.90259 8.67168ZM11.4193 9.79443C11.2813 10.3089 11.0976 10.9637 10.3176 10.9637C9.90509 10.9172 9.67559 10.3562 9.58334 9.88743C10.0423 9.56043 10.2718 8.99868 10.4098 8.57793C10.5471 8.62443 10.7773 8.62443 10.9146 8.57793C11.0061 9.27918 11.2356 9.60693 11.4193 9.79443ZM5.17784 8.53068C5.26934 8.48418 5.86634 7.68918 6.18734 7.68918C6.37109 7.73568 5.86634 8.20368 5.91209 8.43768C5.77409 8.67168 5.13209 9.84018 4.90259 9.84018C4.71884 9.84018 4.71884 9.23268 5.17784 8.53068ZM16.4676 14.3319C16.4211 15.0332 16.4211 15.4074 16.5591 15.6414C16.3753 16.0164 15.8706 16.5774 15.3666 16.3899C15.1821 16.3434 15.1821 15.9692 15.2278 15.6414C15.6411 15.4074 15.9163 14.9402 16.1001 14.3319C16.1916 14.3784 16.3296 14.3784 16.4676 14.3319ZM18.3028 14.3319C18.3486 14.3784 18.4408 14.3784 18.5323 14.2847C18.3486 15.3144 18.3028 15.4074 18.3486 15.5484C18.0276 16.1559 17.7066 16.3899 17.2933 16.3899C17.1096 16.3899 17.2018 16.0629 17.4313 15.6414C17.4313 15.6414 17.9818 15.1742 18.3028 14.3319ZM19.0378 15.5484C18.8533 15.7352 18.6703 15.8289 18.5323 16.1559C18.4866 16.2497 19.3588 16.3434 19.8171 14.3784C19.7256 14.2382 19.4496 15.1269 19.0371 15.5484H19.0378ZM13.7593 14.3319C13.7593 14.8929 13.8973 15.4074 14.1726 15.7352C13.9431 16.5302 13.3011 16.5302 13.0716 16.4837C12.7498 16.3899 12.6583 16.1094 12.5668 15.6414C12.9336 15.3144 13.1173 14.7527 13.2088 14.3319C13.3926 14.3784 13.5763 14.3784 13.7593 14.3319ZM17.8896 13.0217C17.8896 13.5834 17.9361 13.9577 18.1656 14.1444C17.9818 14.6124 17.3856 15.5019 17.0181 15.5019C16.8343 15.5019 16.7428 15.1742 16.8343 14.1917C17.1096 14.0042 17.3391 13.5362 17.4771 13.0217C17.5401 13.057 17.6111 13.0756 17.6833 13.0756C17.7556 13.0756 17.8266 13.057 17.8896 13.0217ZM19.5418 13.1154C19.5418 13.4904 19.5418 14.0979 19.6341 14.2382C19.4503 14.6132 19.1293 15.4082 18.7618 15.5484C18.5323 15.5949 18.5781 15.3144 18.8076 14.2847C18.8076 14.2847 19.1293 13.9577 19.3588 13.1154H19.5418ZM15.4573 13.0217C15.5496 13.6772 15.6411 14.0042 15.9163 14.1444C15.8713 14.3784 15.3658 15.3144 14.8611 15.4074C14.2183 15.5484 14.1726 14.6589 14.1726 14.1917C14.4936 14.0042 14.7231 13.5834 14.8611 13.0217C14.9991 13.0689 15.2286 13.1154 15.4573 13.0217ZM17.2018 12.8814C17.1553 13.1619 16.7886 14.0514 16.3296 14.0514C16.0543 14.0514 15.8248 13.5834 15.7333 12.8349C15.9628 12.6474 16.2381 12.1802 16.2838 11.1977C16.4019 11.2445 16.5333 11.2445 16.6513 11.1977C16.8343 12.0399 16.9723 12.6009 17.2018 12.8814ZM18.8076 11.1977C19.0371 12.6474 19.0828 12.6947 19.1751 12.8814C18.9456 13.7702 18.7161 14.0514 18.5323 14.0514C18.1198 14.0514 18.2113 13.3029 18.1648 12.8349C18.3486 12.6474 18.5781 12.1802 18.5781 11.1977C18.6703 11.2442 18.7161 11.1977 18.8076 11.1977ZM19.7713 12.8814C20.0008 12.5072 19.9093 11.2914 20.0008 11.1977C20.1388 11.1504 20.5513 13.2092 19.8636 13.9577C19.7713 14.0514 19.7713 12.8814 19.7713 12.8814ZM13.8973 11.1977C14.0353 12.1329 14.2648 12.6474 14.6773 12.8814C14.6316 13.0217 14.2648 14.0514 13.6221 14.0514C13.1173 14.0979 12.8421 13.4897 12.7041 12.7877C13.0251 12.4142 13.2546 11.8989 13.3468 11.1977C13.4383 11.2442 13.6678 11.2442 13.8973 11.1977ZM17.7066 10.0277C17.7066 10.1214 17.9818 10.9172 18.3028 11.1504C18.3028 11.9454 18.0733 12.8349 17.7066 12.8349C17.2933 12.8349 17.1096 11.9462 16.9716 11.1039C17.1096 10.9637 17.2933 10.6359 17.2933 10.0749C17.3607 10.1017 17.4336 10.1114 17.5055 10.1032C17.5775 10.0949 17.6463 10.069 17.7058 10.0277H17.7066ZM19.7713 11.0574C19.8171 11.5719 19.7256 12.7877 19.4961 12.7412C19.2666 12.7412 19.0371 11.0102 19.0371 11.0102C19.1293 10.8699 19.2208 10.5429 19.1751 10.0277C19.2003 10.0504 19.233 10.063 19.267 10.063C19.3009 10.063 19.3336 10.0504 19.3588 10.0277C19.5418 10.6359 19.7713 11.0574 19.7713 11.0574ZM15.2743 10.0277C15.4573 10.4492 15.7791 10.9637 16.0543 11.1039C16.0086 11.6657 15.6868 12.7877 15.1821 12.7877C14.4936 12.8349 14.3106 11.9927 14.1726 11.1039C14.4478 10.9164 14.6316 10.5429 14.6773 10.0749C14.8611 10.1214 15.0898 10.1214 15.2743 10.0277ZM16.4218 10.9172C16.1001 10.9637 15.8248 10.5422 15.5038 9.79443C15.6868 9.60693 15.8248 9.23268 15.7333 8.57793C15.8706 8.62443 15.9628 8.62443 16.0543 8.57793C16.3296 9.09243 16.6048 9.60693 16.9258 9.84093C16.9258 9.98118 16.8808 10.9172 16.4211 10.9172H16.4218ZM17.8896 9.79443C17.9361 9.60693 18.0276 9.27918 17.7523 8.57793H17.9361C17.9361 8.62443 18.5781 9.74793 18.8076 9.88743C18.8998 10.4019 18.8998 10.9172 18.6238 10.9637C18.3951 10.9637 18.2113 10.7297 17.8896 9.79368V9.79443ZM19.4496 9.65343C19.4961 9.32643 19.0371 8.62443 19.0828 8.67093C19.8178 9.13893 20.0931 10.8234 19.9551 10.8699C19.9093 10.9172 19.4046 10.0749 19.4503 9.65343H19.4496ZM13.6221 10.9172C12.9336 10.9637 12.7498 10.3089 12.6126 9.79443C12.8421 9.65343 13.0716 9.23268 13.1173 8.57793C13.2546 8.62443 13.4848 8.62443 13.6221 8.57793C13.7593 8.99868 13.9896 9.56043 14.3563 9.84093C14.3106 10.4019 14.0811 10.8699 13.6213 10.9172H13.6221ZM17.8896 7.68918C18.1191 7.68918 18.8076 8.48418 18.8533 8.53068C19.3588 9.27918 19.3588 9.84093 19.1751 9.84093C18.8998 9.84093 18.3028 8.67093 18.1656 8.43768C18.2106 8.20368 17.7066 7.68918 17.8896 7.68918ZM7.70159 7.82943C7.61009 8.10993 7.56434 8.39043 7.70159 8.53068C7.42634 9.09243 6.96734 9.88818 6.55409 9.84093C6.09584 9.74718 6.46259 8.67093 6.50909 8.57793C6.78434 8.43768 7.42634 7.54893 7.65659 7.54893C7.79384 7.59543 7.70159 7.82943 7.70159 7.82943ZM9.85859 7.78293C9.85859 8.06343 9.90509 8.39043 10.1338 8.53068C9.95084 9.09243 9.58334 9.84093 8.98634 9.79443C8.57384 9.74718 8.48234 9.04593 8.57384 8.53068C8.98634 8.39043 9.35384 7.50168 9.62909 7.50168C9.85859 7.50168 9.85859 7.73568 9.85859 7.78293ZM16.3761 8.53068C16.4676 8.39043 16.4676 8.11068 16.3761 7.82943C16.3761 7.78293 16.2838 7.54893 16.4211 7.54893C16.6506 7.54893 17.2933 8.43768 17.5686 8.57793C17.6143 8.67168 17.9811 9.74793 17.5228 9.84093C17.0638 9.88743 16.6506 9.04593 16.3753 8.53068H16.3761ZM13.9431 8.53068C14.1268 8.39043 14.1726 8.06343 14.2183 7.78293C14.2183 7.73568 14.2183 7.50168 14.4478 7.50168C14.6773 7.45518 15.1363 8.39043 15.5038 8.53068C15.6411 9.13893 15.5488 9.74718 15.0906 9.79443C14.4478 9.88743 14.1268 9.04593 13.9431 8.53068ZM12.0156 7.50168C12.4746 7.50168 12.4746 8.39043 12.8421 8.57793C12.8421 8.81193 12.7041 9.84093 11.9698 9.84093C11.3271 9.84093 11.1898 8.99868 11.1441 8.57793C11.6946 8.34393 11.5116 7.50168 12.0156 7.50168Z" fill="white"/>
</svg>
