<svg width="24" height="24" viewBox="0 0 24 24" fill="none" xmlns="http://www.w3.org/2000/svg">
<g clip-path="url(#clip0)">
<path d="M6.66864 2.94759C7.12544 2.42745 7.54556 1.98733 7.94567 1.61389C1.19046 1.39716 3.15767 6.28185 0.943722 11.2399C-1.59031 16.9548 1.24381 19.1321 5.46498 19.8123C4.8755 19.1098 4.39448 18.3231 4.03791 17.4783C1.31382 14.034 2.41746 7.75559 6.66864 2.94759Z" fill="#EFE812"/>
<path d="M22.9229 9.03564C22.1251 11.1226 20.971 13.0552 19.5119 14.7472C18.3422 16.1688 16.941 17.3828 15.3674 18.3382C13.5399 19.4963 11.4158 20.0997 9.25241 20.0754C7.98932 20.0867 6.7273 19.9987 5.47803 19.812C6.17164 20.6405 7.03155 21.3141 8.00206 21.7892C14.1104 24.7433 14.4939 19.2585 20.9557 16.4744C24.5833 14.9106 24.5967 11.8564 22.9195 9.03564" fill="#EDE70A"/>
<path d="M15.3675 3.33414C16.2518 3.48892 17.1038 3.79097 17.8882 4.22772C19.9429 5.38301 21.6742 7.03636 22.9229 9.03572C24.0232 5.93486 23.5097 3.50085 21.1057 3.06073C18.4583 2.57726 16.3911 2.42055 14.4039 1.0335C11.9565 -0.666973 9.80925 -0.113486 7.94873 1.617L8.35218 1.63367C10.9329 1.78704 13.4002 2.30052 15.3541 3.32747" fill="#EDE70A"/>
<path d="M6.66874 2.94764C2.41756 7.75564 1.31392 14.0341 4.05134 17.4783C3.41809 15.9832 3.14174 14.3612 3.24418 12.7407C3.34661 11.1202 3.82503 9.5459 4.64151 8.14242C6.94548 4.30135 11.5701 2.63422 15.3678 3.33441C13.4006 2.29413 10.9333 1.79399 8.36588 1.64061L7.96243 1.62061C7.54898 2.00071 7.12887 2.4275 6.66874 2.94764Z" fill="#DEC21C"/>
<path d="M17.8884 4.22139C17.1036 3.78696 16.2516 3.48717 15.3677 3.33447C17.9551 4.69485 19.6722 7.00216 19.6722 10.6498C19.6572 12.1896 19.2551 13.7009 18.5029 15.0445C17.7507 16.3882 16.6725 17.521 15.3677 18.3386C16.942 17.3843 18.3434 16.1701 19.5122 14.7476C20.9712 13.0556 22.1254 11.123 22.9231 9.03606C21.6753 7.03425 19.9439 5.37854 17.8884 4.22139Z" fill="#E5CB22"/>
<path d="M15.3675 3.33423C11.5698 2.63404 6.94516 4.30117 4.64119 8.12556C3.82129 9.53085 3.34097 11.1082 3.23851 12.732C3.13605 14.3557 3.41428 15.981 4.05103 17.4782C4.40633 18.3236 4.88746 19.1105 5.47809 19.8121C6.72736 19.9988 7.98938 20.0869 9.25247 20.0756C11.4159 20.0999 13.54 19.4964 15.3675 18.3384C16.6725 17.5209 17.7509 16.3882 18.5031 15.0445C19.2554 13.7008 19.6573 12.1894 19.672 10.6496C19.672 7.00192 17.9549 4.69461 15.3675 3.33423ZM14.9407 16.6046C13.5361 17.5068 11.8315 17.8161 10.1995 17.465C8.56745 17.1138 7.14087 16.1308 6.23163 14.7307C4.34444 11.8199 5.27803 8.06221 8.10882 6.06166C11.2764 3.81103 15.3375 4.69795 16.8179 7.93551C18.2616 11.0897 17.8649 14.7341 14.9407 16.6046Z" fill="#CCA727"/>
</g>
<defs>
<clipPath id="clip0">
<rect width="24" height="24" fill="white"/>
</clipPath>
</defs>
</svg>
