<svg width="24" height="24" fill="none" xmlns="http://www.w3.org/2000/svg"><path d="M12 24c6.627 0 12-5.373 12-12S18.627 0 12 0 0 5.373 0 12s5.373 12 12 12Z" fill="#9D4BEF"/><path d="M8.602 5.746a2.856 2.856 0 1 1 0 5.712 2.856 2.856 0 0 1 0-5.712Zm2.856 9.652a2.856 2.856 0 1 1-2.856-2.856 3.94 3.94 0 0 0 3.94-3.94 2.856 2.856 0 1 1 2.855 2.856 3.94 3.94 0 0 0-3.939 3.94Zm3.94 2.856a2.856 2.856 0 1 1 0-5.712 2.856 2.856 0 0 1 0 5.712Zm0-1.995a.861.861 0 1 0 0-1.722.861.861 0 0 0 0 1.722Zm-6.796 0a.86.86 0 1 0 0-1.722.86.86 0 0 0 0 1.722Zm6.795-6.796a.861.861 0 1 0 0-1.723.861.861 0 0 0 0 1.723Zm-6.795 0a.861.861 0 1 0 0-1.722.861.861 0 0 0 0 1.722Z" fill="#fff"/></svg>