<svg width="24" height="24" fill="none" xmlns="http://www.w3.org/2000/svg"><g clip-path="url(#a)"><path d="M0 5.62c-.063-1.865 1.384-3.429 3.232-3.493a3.335 3.335 0 0 1 2.722 1.254c-.785.321-3.09 1.539-4.208 5.09A3.381 3.381 0 0 1 0 5.621Zm2.381 2.742h6.312a6.352 6.352 0 0 0-2.875-4.369 10.377 10.377 0 0 0-3.435 4.369h-.002Zm12.988 0h6.123a10.383 10.383 0 0 0-3.29-4.261 6.351 6.351 0 0 0-2.832 4.26h-.001Zm-7.974 5.05a6.494 6.494 0 0 0 1.374-4.31H2.106a10.404 10.404 0 0 0-.339 5.14c2.446-.038 3.41-1.639 3.41-1.639l.651.755c-1.077 1.38-2.714 1.733-3.848 1.795.078.282.17.56.274.831 2.538-.089 4.147-1.298 5.142-2.571h-.001Zm2.258-2.85c-.288 1.645-.9 2.867-1.66 3.78.426.534 1.638 1.688 4.172 1.645 0 0 1.99.18 3.885-1.559-.756-.91-1.366-2.131-1.658-3.777 0 0-.812-4.868 2.834-7.208a10.282 10.282 0 0 0-4.577-1.43v3.92h-1.182V2a10.279 10.279 0 0 0-4.654 1.346c3.656 2.34 2.84 7.217 2.84 7.217Zm11.521-8.381a3.383 3.383 0 0 0-3.139 1.141c2.974 1.63 3.833 4.106 4.148 5.138a3.335 3.335 0 0 0 1.77-2.417c.307-1.825-.938-3.554-2.779-3.862Zm-2.898 10.99.702-.748s.871 1.49 3.169 1.595a10.446 10.446 0 0 0-.38-4.915h-6.483a6.494 6.494 0 0 0 1.37 4.399c.967 1.238 2.515 2.417 4.936 2.56.144-.372.266-.752.365-1.138-1.122-.08-2.649-.453-3.679-1.753Zm-6.842 4.889v-.738c-1.34-.13-2.808-.724-4.285-2.132-1.61 1.35-3.522 1.689-4.465 1.772a10.375 10.375 0 0 0 5.94 5.174 5.063 5.063 0 0 0 1.748-1.255 4.215 4.215 0 0 0 1.062-2.821Zm-1.16 4.485a10.45 10.45 0 0 0 3.545-.037 9.386 9.386 0 0 1-1.778-2.754 9.41 9.41 0 0 1-1.768 2.791Zm2.383-5.226v.76a4.05 4.05 0 0 0 1.017 2.71 5.07 5.07 0 0 0 1.782 1.278 10.38 10.38 0 0 0 5.703-5.036c-.972-.11-2.668-.472-4.14-1.653-.613.515-2.254 1.73-4.362 1.941Z" fill="url(#b)"/></g><defs><linearGradient id="b" x1="5.08" y1="4.176" x2="23.57" y2="19.478" gradientUnits="userSpaceOnUse"><stop stop-color="#EA3570"/><stop offset=".88" stop-color="#138FC9"/></linearGradient><clipPath id="a"><path fill="#fff" d="M0 0h24v24H0z"/></clipPath></defs></svg>