<svg width="24" height="24" viewBox="0 0 24 24" fill="none" xmlns="http://www.w3.org/2000/svg">
<path d="M16.9688 8.96444V14.937L22.1414 11.9562V5.97266L16.9688 8.96444Z" fill="#9290B0"/>
<path d="M22.1414 17.9288L16.9688 14.937V20.9206L22.1414 23.9014V17.9288Z" fill="#A2EEE3"/>
<path d="M11.7961 5.9726V0L1.43994 5.9726L6.61254 8.96438L11.7961 5.9726Z" fill="#46DDC8"/>
<path d="M11.7961 17.9288L6.61254 14.937L1.43994 17.9288L6.61254 20.9206L11.7961 23.9014V17.9288Z" fill="#262261"/>
<path d="M1.43994 5.97266V11.9562V17.9288L6.61254 14.937V8.96444L1.43994 5.97266Z" fill="#9290B0"/>
<path d="M16.9685 14.937L11.7959 17.9288V23.9014L16.9685 20.9206V14.937Z" fill="#46DDC8"/>
<path d="M16.9685 8.96438L22.1411 5.9726L16.9685 2.99178L11.7959 0V5.9726L16.9685 8.96438Z" fill="#262261"/>
</svg>
