<svg width="24" height="24" fill="none" xmlns="http://www.w3.org/2000/svg"><path d="M14.42 2.203 12.152 4.47l.466.466a.669.669 0 0 0 .952 0l2.268-2.269-.466-.465a.669.669 0 0 0-.952 0Zm-5.772 0-.547.465 2.37 2.269a.648.648 0 0 0 .931 0l.466-.466L9.58 2.203a.648.648 0 0 0-.932 0Zm7.92 2.977-4.315 4.314.871.89a1.276 1.276 0 0 0 1.782 0l4.314-4.333-.87-.871a1.256 1.256 0 0 0-1.763 0h-.02Zm-10.917 0-.871.87 4.314 4.315a1.235 1.235 0 0 0 1.782 0l.87-.871L7.434 5.18a1.276 1.276 0 0 0-1.782 0Zm5.873-.101-.445.465.931.932.932-.932-.466-.465a.648.648 0 0 0-.932 0h-.02Zm8.101 4.313-7.19 7.17 1.438 1.458a2.027 2.027 0 0 0 2.957 0L24 10.85l-1.438-1.458a2.025 2.025 0 0 0-2.957 0h.02Zm-18.228 0L0 10.83l7.17 7.19a2.026 2.026 0 0 0 2.957 0l1.458-1.458-7.17-7.17a2.025 2.025 0 0 0-2.957 0h-.06Zm9.661 1.256-.87.871 1.761 1.762 1.823-1.762-.87-.87a1.255 1.255 0 0 0-1.783 0h-.06Zm-.526 7.818-1.459 1.438 2.937 2.936 2.917-2.936-1.438-1.438a2.026 2.026 0 0 0-2.957 0Z" fill="url(#a)"/><defs><linearGradient id="a" x1="8.906" y1="14.138" x2="28.826" y2="14.138" gradientUnits="userSpaceOnUse"><stop stop-color="#7CB7FF"/><stop offset="1" stop-color="#BA6DF6"/></linearGradient></defs></svg>