<svg width="24" height="24" viewBox="0 0 24 24" fill="none" xmlns="http://www.w3.org/2000/svg">
<path fill-rule="evenodd" clip-rule="evenodd" d="M23.9858 12.0018C23.9858 18.616 18.6241 23.9777 12.0101 23.9777C5.39593 23.9777 0.0341797 18.616 0.0341797 12.0018C0.0341797 5.38759 5.39593 0.0258789 12.0101 0.0258789C18.6241 0.0258789 23.9858 5.38759 23.9858 12.0018Z" fill="#222C46"/>
<path fill-rule="evenodd" clip-rule="evenodd" d="M22.1925 12.0017C22.1925 6.37799 17.6338 1.8191 12.0101 1.8191C6.38629 1.8191 1.8274 6.37792 1.8274 12.0017C1.8274 17.6255 6.38622 22.1844 12.0101 22.1844C17.6338 22.1844 22.1925 17.6255 22.1925 12.0017ZM22.7876 12.0017C22.7876 17.9539 17.9623 22.7793 12.0101 22.7793C6.05779 22.7793 1.23242 17.954 1.23242 12.0017C1.23242 6.04949 6.05786 1.22412 12.0101 1.22412C17.9622 1.22412 22.7876 6.04956 22.7876 12.0017Z" fill="#DF4F2A"/>
<path fill-rule="evenodd" clip-rule="evenodd" d="M22.2152 12.0018C22.2152 17.6385 17.646 22.2077 12.0097 22.2077C6.37301 22.2077 1.80371 17.6385 1.80371 12.0018C1.80371 6.3652 6.37301 1.7959 12.0097 1.7959C17.646 1.7959 22.2152 6.3652 22.2152 12.0018Z" fill="#E3E4E2"/>
<path fill-rule="evenodd" clip-rule="evenodd" d="M9.12577 19.7091C9.09697 19.4808 9.04927 19.3019 8.98336 19.1711C8.91734 19.0404 8.82629 18.9453 8.71009 18.885C8.55007 18.8019 8.39606 18.8063 8.24826 18.8986C8.1002 18.9914 7.9566 19.1717 7.81722 19.4401C7.73226 19.6036 7.71147 19.7563 7.75585 19.8975C7.8002 20.0388 7.90277 20.1513 8.06424 20.2351C8.19424 20.3026 8.33359 20.3425 8.48243 20.3544C8.63064 20.3659 8.78379 20.3482 8.94027 20.3013C8.78305 20.5781 8.58182 20.7503 8.33518 20.8158C8.08923 20.8818 7.8167 20.8373 7.51648 20.6815C7.17897 20.5062 6.96865 20.2717 6.8855 19.9786C6.80165 19.6851 6.85368 19.358 7.04113 18.997C7.24617 18.6022 7.50611 18.3429 7.82077 18.2197C8.1355 18.0965 8.46507 18.124 8.80857 18.3024C8.90531 18.3526 9.01246 18.4202 9.12943 18.5049C9.24633 18.5896 9.31944 18.6395 9.3482 18.6544C9.39155 18.6769 9.4374 18.693 9.48552 18.7032C9.53459 18.7132 9.58613 18.7181 9.64037 18.7181L9.12577 19.7091ZM10.7029 20.3428C10.6782 20.6649 10.6933 20.8892 10.7478 21.0143C10.8022 21.1395 10.9092 21.2085 11.0689 21.2207C11.2285 21.233 11.3449 21.1812 11.4185 21.0659C11.4922 20.9506 11.5415 20.7313 11.5662 20.4092C11.5911 20.0865 11.5758 19.8622 11.5206 19.7357C11.4657 19.6094 11.3586 19.5397 11.199 19.5274C11.0408 19.5153 10.9246 19.5678 10.8507 19.6842C10.777 19.8008 10.7277 20.02 10.7029 20.3428ZM12.4927 20.4791C12.457 20.942 12.3208 21.2737 12.0827 21.476C11.8449 21.6778 11.4939 21.761 11.03 21.7253C10.5654 21.6897 10.2321 21.5538 10.0286 21.3181C9.82517 21.0819 9.74102 20.7333 9.77665 20.2703C9.8121 19.8093 9.94842 19.4783 10.1856 19.2759C10.4227 19.0742 10.7728 18.9907 11.2374 19.0265C11.7029 19.0623 12.0371 19.1976 12.2406 19.4333C12.4442 19.6683 12.5282 20.0168 12.4927 20.4791ZM14.2285 18.7695C14.1703 18.8382 14.1321 18.9126 14.1137 18.9926C14.0954 19.0726 14.0968 19.1582 14.1178 19.2483L14.5073 20.9174C14.5285 21.0087 14.5654 21.0874 14.6175 21.1521C14.6697 21.217 14.737 21.2673 14.8196 21.3033L13.5722 21.5943C13.6302 21.5255 13.6684 21.4506 13.6865 21.3694C13.7045 21.2882 13.7028 21.2013 13.6816 21.1101L13.2921 19.4409C13.2711 19.3508 13.2345 19.2734 13.1827 19.2098C13.1308 19.1462 13.0636 19.0964 12.9811 19.0605L14.2285 18.7695ZM15.5714 18.0944C15.5732 18.1149 15.575 18.1301 15.5776 18.1396C15.5801 18.149 15.5843 18.1583 15.59 18.1672C15.5949 18.1746 15.5982 18.1798 15.6013 18.183C15.6043 18.1863 15.6089 18.1893 15.6148 18.1929L16.5685 18.7523C16.6412 18.7938 16.7186 18.8441 16.8022 18.9023C16.8847 18.9605 16.973 19.0261 17.0657 19.1C17.0227 19.0489 16.979 18.9939 16.934 18.9329C16.8894 18.8726 16.8443 18.8071 16.7984 18.7364L16.3816 18.0944C16.3319 18.0179 16.2715 17.958 16.2005 17.9162C16.1301 17.874 16.0484 17.8503 15.9561 17.8447L16.845 17.2676C16.8138 17.3535 16.8028 17.4373 16.8114 17.5196C16.8207 17.6015 16.8502 17.6814 16.8998 17.758L17.9767 19.4167C18.0005 19.4534 18.024 19.4814 18.0462 19.5005C18.0691 19.5191 18.0947 19.5323 18.1224 19.5404L17.3129 20.066C17.3107 20.0487 17.3076 20.0344 17.3043 20.0224C17.3014 20.0109 17.2961 20.0001 17.2902 19.9912C17.2862 19.9849 17.2792 19.9783 17.2697 19.9719C17.2671 19.9705 17.2653 19.9694 17.2648 19.9684L16.1868 19.3584C16.1276 19.3253 16.0566 19.2791 15.9726 19.2203C15.889 19.1606 15.7945 19.0908 15.6886 19.0091C15.7322 19.0598 15.7764 19.1153 15.8216 19.1754C15.8668 19.2354 15.9119 19.3007 15.9578 19.3715L16.4334 20.1042C16.4838 20.1817 16.5456 20.2422 16.6173 20.2851C16.689 20.3279 16.7703 20.3526 16.8621 20.3586L15.9731 20.9357C16.0044 20.8512 16.0148 20.7678 16.0042 20.6853C15.9936 20.6028 15.9625 20.5217 15.9115 20.4431L14.9783 19.0055C14.9279 18.9279 14.8671 18.8675 14.7966 18.8253C14.7263 18.783 14.6462 18.7591 14.5564 18.7533L15.5714 18.0944Z" fill="#222C46"/>
<path fill-rule="evenodd" clip-rule="evenodd" d="M17.8106 5.42394C17.8265 5.44152 17.8442 5.46002 17.8631 5.47959C17.8814 5.49864 17.9072 5.52504 17.9416 5.55908C18.0984 5.71442 18.2312 5.8116 18.3391 5.85125C18.4472 5.89095 18.5373 5.87496 18.6082 5.80329C18.6712 5.73949 18.6912 5.66066 18.6678 5.56665C18.6446 5.47272 18.5807 5.37347 18.4756 5.26949C18.3837 5.17863 18.3051 5.1256 18.2402 5.11113C18.1751 5.09555 18.1141 5.11722 18.0575 5.17445L17.8106 5.42394ZM17.4596 5.77863L17.1723 6.06906C17.1054 6.13648 17.0806 6.20775 17.0968 6.28266C17.1134 6.35717 17.1744 6.44701 17.28 6.55146C17.3981 6.66844 17.5119 6.73973 17.6214 6.76418C17.7302 6.78796 17.8216 6.76314 17.8943 6.68967C17.9772 6.60585 17.9953 6.50125 17.9481 6.37523C17.9007 6.24932 17.7868 6.09687 17.6073 5.91927C17.5693 5.88157 17.5398 5.85247 17.5188 5.83253C17.4977 5.81263 17.4774 5.79436 17.4596 5.77863ZM15.793 5.75987C15.8926 5.77922 15.985 5.77578 16.0703 5.74968C16.1556 5.72354 16.2327 5.67557 16.3023 5.60527L17.5657 4.32858C17.6339 4.25965 17.6806 4.18248 17.705 4.09789C17.7292 4.01315 17.7312 3.92117 17.7108 3.82178L17.7221 3.83289C17.8497 3.96659 17.9472 4.06676 18.0129 4.13164C18.1423 4.25976 18.3153 4.42366 18.5321 4.62349C18.7489 4.82324 18.897 4.96248 18.9764 5.04101C19.289 5.35039 19.4807 5.62296 19.5521 5.85849C19.623 6.09439 19.5746 6.2971 19.4064 6.46702C19.2996 6.57495 19.1737 6.62461 19.0279 6.61564C18.8825 6.60629 18.7097 6.53843 18.5094 6.41204C18.6665 6.62572 18.7526 6.82137 18.7666 6.99842C18.7813 7.17498 18.724 7.32921 18.5941 7.46044C18.4178 7.6387 18.2034 7.69648 17.9495 7.63416C17.6961 7.57135 17.4184 7.39054 17.1172 7.09239C17.0534 7.02928 16.9261 6.89788 16.7341 6.69679C16.5427 6.49634 16.3805 6.33026 16.2473 6.19844C16.2167 6.16813 16.1482 6.10222 16.0425 6.00035C15.9367 5.89837 15.8539 5.81832 15.793 5.75987Z" fill="#222C46"/>
<path fill-rule="evenodd" clip-rule="evenodd" d="M14.0167 2.54946C13.9208 2.589 13.8446 2.6425 13.7871 2.70974C13.7296 2.77694 13.6909 2.85803 13.672 2.95177L13.4131 4.23891C13.376 4.42367 13.3834 4.55612 13.4355 4.63606C13.4883 4.71684 13.5946 4.77297 13.7566 4.80553C13.9187 4.83817 14.0384 4.82747 14.1184 4.77341C14.1974 4.71987 14.2554 4.60061 14.2925 4.41577L14.5514 3.1286C14.5703 3.03492 14.5668 2.94531 14.5398 2.86113C14.5127 2.77687 14.4623 2.69789 14.3892 2.62438L15.7083 2.88978C15.6136 2.92818 15.5383 2.98113 15.4818 3.04858C15.4258 3.11682 15.3879 3.19805 15.3689 3.29305L15.0887 4.68609C15.055 4.85361 15.0145 4.979 14.9673 5.06171C14.9201 5.14515 14.8541 5.20999 14.771 5.25736C14.6483 5.32755 14.4897 5.36643 14.2954 5.37341C14.1012 5.38046 13.8612 5.35561 13.5767 5.29838C13.2923 5.24115 13.0613 5.17133 12.885 5.08973C12.7085 5.00817 12.5782 4.9111 12.494 4.79937C12.437 4.72511 12.4016 4.64252 12.3895 4.55124C12.3772 4.4606 12.3889 4.32664 12.4245 4.15022L12.7047 2.75715C12.7234 2.6634 12.72 2.57383 12.6929 2.48964C12.6669 2.40553 12.6162 2.32659 12.5423 2.25293L14.0167 2.54946Z" fill="#222C46"/>
<path fill-rule="evenodd" clip-rule="evenodd" d="M9.42983 2.69531C9.3736 2.77983 9.34092 2.8659 9.33169 2.95352C9.32279 3.04161 9.33686 3.13016 9.37415 3.21958L9.93028 4.55129C9.97116 4.64917 10.0281 4.71272 10.1002 4.74152C10.1732 4.77002 10.2597 4.76289 10.3611 4.72051C10.4991 4.66291 10.6078 4.55793 10.6872 4.40559C10.7657 4.25354 10.8365 3.99408 10.8997 3.62714L11.4356 4.91055C11.3807 4.90006 11.3272 4.89755 11.2737 4.90431C11.22 4.9104 11.1637 4.92609 11.1037 4.95116L9.09752 5.78888C9.15364 5.70436 9.18621 5.6177 9.19485 5.52897C9.20349 5.44021 9.18868 5.34993 9.15084 5.25925L8.45868 3.60188C8.42135 3.51242 8.3684 3.44012 8.29943 3.38444C8.2306 3.3295 8.14649 3.29225 8.04688 3.27279L9.42983 2.69531Z" fill="#222C46"/>
<path fill-rule="evenodd" clip-rule="evenodd" d="M6.77803 5.12814C6.52755 5.12917 6.32495 5.15805 6.16924 5.21398C6.01361 5.26996 5.88959 5.35887 5.79669 5.48046C5.66838 5.64816 5.63534 5.82096 5.69711 5.99878C5.75947 6.17712 5.91636 6.36222 6.16806 6.5547C6.32159 6.672 6.47907 6.71616 6.64079 6.68574C6.80236 6.6555 6.94747 6.5561 7.07685 6.38696C7.18101 6.25071 7.258 6.10043 7.30736 5.93557C7.35621 5.77138 7.37519 5.59773 7.36378 5.4164C7.62003 5.62992 7.75398 5.87849 7.76292 6.1632C7.77256 6.44733 7.65795 6.74592 7.41761 7.0604C7.14734 7.41397 6.84534 7.61705 6.51219 7.67011C6.17855 7.72394 5.84251 7.62104 5.50393 7.36221C5.13352 7.07901 4.92117 6.75294 4.86763 6.38426C4.81398 6.01555 4.9246 5.65086 5.19972 5.29097C5.27711 5.18965 5.37569 5.07903 5.49492 4.95973C5.61407 4.84047 5.6854 4.76555 5.70833 4.73542C5.74308 4.69001 5.77151 4.64101 5.79425 4.58858C5.81696 4.53515 5.83505 4.47807 5.84846 4.41748L6.77803 5.12814Z" fill="#222C46"/>
<path fill-rule="evenodd" clip-rule="evenodd" d="M12.0642 5.49658C15.663 5.49658 18.5805 8.41398 18.5805 12.0129C18.5805 15.6118 15.663 18.5292 12.0642 18.5292C8.46529 18.5292 5.54785 15.6118 5.54785 12.0129C5.54785 8.41398 8.46529 5.49658 12.0642 5.49658ZM12.0642 5.92832C15.4246 5.92832 18.1487 8.65247 18.1487 12.0129C18.1487 15.3733 15.4246 18.0974 12.0642 18.0974C8.70378 18.0974 5.97959 15.3733 5.97959 12.0129C5.97959 8.65247 8.70378 5.92832 12.0642 5.92832Z" fill="#222C46"/>
<path fill-rule="evenodd" clip-rule="evenodd" d="M16.7504 10.5828L15.3258 11.4053C15.0518 11.0873 14.8555 10.8948 14.7358 10.8255C14.5094 10.6915 14.2508 10.7091 13.9596 10.8773C13.768 10.9879 13.663 11.1655 13.6442 11.4091C13.6263 11.627 13.6749 11.8357 13.7895 12.0342L14.4789 13.2283C14.5803 13.4039 14.7344 13.5117 14.9405 13.551C15.1474 13.5912 15.3405 13.5595 15.52 13.4558C15.8154 13.2853 15.9481 13.0545 15.9182 12.7631C15.9046 12.638 15.8118 12.3669 15.6403 11.9499L17.0528 11.1344C17.4542 11.9402 17.5424 12.6182 17.3173 13.1683C17.1081 13.6722 16.5786 14.1696 15.7286 14.6602C15.0423 15.0565 14.3299 15.191 13.5921 15.0651C12.8896 14.9404 12.3471 14.6024 11.9639 14.0502C12.214 13.8171 12.4381 13.5439 12.5659 13.2344C12.8607 12.5196 12.6245 11.7239 12.2965 11.0654L12.236 10.9438C12.5242 10.5826 12.8865 10.2758 13.3232 10.0238C13.4907 9.92704 13.7497 9.84791 14.1 9.78665C14.4504 9.72536 14.6754 9.66592 14.7751 9.60828C14.811 9.58764 14.8449 9.52413 14.8767 9.41801C14.9085 9.31186 14.9229 9.23307 14.9199 9.1816L15.6859 8.73926L16.7504 10.5828Z" fill="#222C46"/>
<path fill-rule="evenodd" clip-rule="evenodd" d="M11.8482 10.5867L10.4236 11.4092C10.1496 11.0912 9.9533 10.8986 9.83352 10.8294C9.60711 10.6954 9.34861 10.713 9.05736 10.8812C8.86577 10.9918 8.76087 11.1694 8.74189 11.4131C8.72402 11.631 8.77269 11.8397 8.88729 12.0382L9.57672 13.2323C9.67804 13.4078 9.83219 13.5158 10.0384 13.555C10.2452 13.5952 10.4383 13.5635 10.618 13.4598C10.9132 13.2894 11.0459 13.0584 11.016 12.7671C11.0023 12.642 10.9096 12.3709 10.7381 11.9539L12.1507 11.1383C12.5521 11.9441 12.6403 12.6222 12.4153 13.1723C12.2761 13.5054 11.9964 13.838 11.5756 14.1667L12.0058 14.9118L11.2576 15.3438L10.8556 14.6473L10.8265 14.6643C10.7086 14.7323 10.5901 14.7925 10.4709 14.8451L10.8835 15.5598L10.1354 15.9917L9.61405 15.0888C9.31069 15.1291 9.00253 15.1225 8.6899 15.069C7.90743 14.9303 7.32327 14.5266 6.93683 13.8573C6.54574 13.1799 6.52846 12.4543 6.88448 11.6794C6.99107 11.4467 7.11975 11.2301 7.27036 11.0294L6.71555 10.0685L7.46376 9.63655L7.89602 10.3853C8.00701 10.296 8.12461 10.2117 8.24882 10.1323L7.83787 9.42055L8.58604 8.98859L9.06364 9.81578C9.10673 9.80703 9.15148 9.79865 9.19778 9.79056C9.54814 9.72927 9.77319 9.66979 9.87296 9.61219C9.90885 9.59143 9.94274 9.52804 9.97457 9.42185C10.0064 9.31573 10.0207 9.23694 10.0177 9.1855L10.7838 8.74316L11.8482 10.5867Z" fill="#DF4F2A"/>
</svg>
