<svg width="24" height="24" fill="none" xmlns="http://www.w3.org/2000/svg"><g clip-path="url(#a)" fill="#000"><path d="M18.972 16.785a5.026 5.026 0 1 0 0-10.052 5.026 5.026 0 0 0 0 10.052ZM12.62 4.847a2.423 2.423 0 1 0 0-4.847 2.423 2.423 0 0 0 0 4.847ZM12.62 23.53a2.423 2.423 0 1 0 0-4.847 2.423 2.423 0 0 0 0 4.846ZM11.51 15.388c.144.048.299.072.454.072.836 0 1.516-.68 1.516-1.516a1.518 1.518 0 0 0-2.793-.824v.012a.663.663 0 0 0-.108.203c-1.671 2.948-5.026.979-5.026.979A3.673 3.673 0 0 0 3.68 13.8a3.653 3.653 0 1 0 0 7.306 3.63 3.63 0 0 0 3.235-1.97v-.011c.108-.203.191-.418.263-.645 1.743-4 4.334-3.092 4.334-3.092Zm-.859-5.36c.072.131.167.263.274.37a1.499 1.499 0 0 0 2.137 0 1.499 1.499 0 0 0 0-2.137 1.49 1.49 0 0 0-1.384-.406h-.012a.832.832 0 0 0-.227.072c-3.271.907-4.25-2.865-4.25-2.865a3.622 3.622 0 0 0-.955-1.683 3.642 3.642 0 0 0-5.157-.012c-1.42 1.42-1.433 3.736 0 5.157a3.624 3.624 0 0 0 3.689.895h.012c.214-.071.43-.167.644-.274 4.047-1.6 5.229.883 5.229.883Z"/></g><defs><clipPath id="a"><path fill="#fff" d="M0 0h24v24H0z"/></clipPath></defs></svg>