<svg width="24" height="24" fill="none" xmlns="http://www.w3.org/2000/svg"><path fill-rule="evenodd" clip-rule="evenodd" d="m6.79 13.683 5.122 2.564v4.124L6.79 13.683ZM17.364 13.683l-5.14 6.688v-4.123l5.14-2.565Z" fill="#fff"/><path fill-rule="evenodd" clip-rule="evenodd" d="M23.971 11.977c0 6.595-5.345 11.94-11.94 11.94-6.594 0-11.94-5.345-11.94-11.94C.09 5.383 5.437.037 12.03.037c6.595 0 11.94 5.346 11.94 11.94Z" fill="#F99400"/><path fill-rule="evenodd" clip-rule="evenodd" d="M14.749 13.653a4.516 4.516 0 1 1-9.031 0 4.516 4.516 0 0 1 9.03 0ZM18.344 4.952a1.575 1.575 0 1 1-3.149 0 1.575 1.575 0 0 1 3.15 0ZM11.622 5.876a1.388 1.388 0 1 1-2.776 0 1.388 1.388 0 0 1 2.776 0ZM17.188 18.225a1.372 1.372 0 1 1-2.745 0 1.372 1.372 0 0 1 2.745 0Z" fill="#fff"/><path fill-rule="evenodd" clip-rule="evenodd" d="M9.665 10.24h1.102V6.702H9.665v3.538ZM12.161 11.027l-.818-.738 4.475-4.96.818.738-4.475 4.96ZM15.504 18.659l.78-.78-4.724-4.724-.78.78 4.724 4.724Z" fill="#fff"/></svg>