<svg width="24" height="24" fill="none" xmlns="http://www.w3.org/2000/svg"><path d="M11.535 0c-.074.614-.111 1.135-.186 1.637-.242 1.73-.074 3.386.707 4.986 1.06 2.14 2.065 4.298 3.07 6.456.614 1.321 1.172 2.68 1.47 4.112.13.688.074 1.32-.26 1.935-1.005 1.748-2.308 3.218-3.87 4.483-.15.112-.354.15-.521.224 0-.186-.019-.391.018-.559.205-.818.465-1.637.651-2.474.242-1.06.13-2.12-.316-3.126-.819-1.804-1.674-3.609-2.512-5.413-.8-1.712-1.618-3.405-2.12-5.228-.26-.95-.447-1.917 0-2.847.8-1.656 2.027-2.94 3.516-4 .056-.074.149-.093.353-.186Z" fill="#5C9DD5"/><path d="M4 2.567c0 .186.019.317 0 .428-.149 1.06-.279 2.121-.074 3.182.093.446.242.893.428 1.32.837 1.805 1.711 3.573 2.511 5.377.447 1.024.782 2.103 1.135 3.182.168.502.075 1.023-.186 1.507-.781 1.377-1.823 2.53-3.051 3.535-.112.093-.26.149-.39.223-.038-.019-.056-.037-.094-.056.019-.167.038-.335.075-.484.167-.65.353-1.302.502-1.953a3.873 3.873 0 0 0-.242-2.381c-.763-1.656-1.525-3.294-2.288-4.93-.596-1.284-1.172-2.55-1.489-3.908-.186-.8-.055-1.525.354-2.214.632-1.042 1.451-1.897 2.419-2.623.093-.056.223-.112.39-.205Zm15.237.075-.111.967c-.13.93-.205 1.898.056 2.81.204.707.52 1.395.818 2.065.875 1.934 1.805 3.85 2.642 5.786.28.65.447 1.358.577 2.065.056.335 0 .744-.168 1.06-.744 1.489-1.86 2.68-3.162 3.721-.093.075-.224.112-.428.224.037-.242.037-.391.074-.54.186-.782.39-1.544.558-2.326.15-.725 0-1.432-.316-2.102-.763-1.656-1.544-3.312-2.307-4.967-.577-1.247-1.153-2.512-1.451-3.87-.168-.8-.037-1.507.39-2.196.614-1.023 1.433-1.86 2.382-2.567a3.02 3.02 0 0 1 .335-.186c.056.037.074.056.111.056Z" fill="#195199"/></svg>