<svg width="72" height="73" viewBox="0 0 72 73" fill="none" xmlns="http://www.w3.org/2000/svg">
<rect x="0.5" y="1" width="71" height="71" rx="7.5" fill="#A2EFE1"/>
<path d="M13.4148 45.5H25.858V42.483H18.5284V42.3636L21.0767 39.8665C24.6648 36.5938 25.6278 34.9574 25.6278 32.9716C25.6278 29.946 23.1562 27.8068 19.4148 27.8068C15.75 27.8068 13.2358 29.9972 13.2443 33.4233H16.7472C16.7386 31.7528 17.7955 30.7301 19.3892 30.7301C20.9233 30.7301 22.0653 31.6847 22.0653 33.2188C22.0653 34.608 21.2131 35.5625 19.6278 37.0881L13.4148 42.8409V45.5ZM28.5661 45.5H32.1967V32.4091H28.5661V45.5ZM30.3899 30.7216C31.4723 30.7216 32.3587 29.8949 32.3587 28.8807C32.3587 27.875 31.4723 27.0483 30.3899 27.0483C29.3161 27.0483 28.4297 27.875 28.4297 28.8807C28.4297 29.8949 29.3161 30.7216 30.3899 30.7216ZM38.7358 37.9318C38.7443 36.2443 39.75 35.2557 41.2159 35.2557C42.6733 35.2557 43.5511 36.2102 43.5426 37.8125V45.5H47.1733V37.1648C47.1733 34.1136 45.3835 32.2386 42.6562 32.2386C40.7131 32.2386 39.3068 33.1932 38.7188 34.7188H38.5653V32.4091H35.1051V45.5H38.7358V37.9318ZM56.6335 28.0455H53.1648L48.8438 30.7812V34.054L52.8409 31.5483H52.9432V45.5H56.6335V28.0455Z" fill="black"/>
<rect x="0.5" y="1" width="71" height="71" rx="7.5" stroke="#9EFFEE"/>
</svg>
