<svg width="24" height="24" fill="none" xmlns="http://www.w3.org/2000/svg"><path fill-rule="evenodd" clip-rule="evenodd" d="M24 12c0 6.627-5.373 12-12 12S0 18.627 0 12 5.373 0 12 0s12 5.373 12 12Z" fill="#3A3A39"/><path fill-rule="evenodd" clip-rule="evenodd" d="M12 22.254c-5.654 0-10.254-4.6-10.254-10.254S6.346 1.746 12 1.746 22.254 6.346 22.254 12 17.654 22.254 12 22.254Zm0-21.171C5.98 1.083 1.083 5.98 1.083 12S5.98 22.917 12 22.917 22.917 18.02 22.917 12 18.02 1.083 12 1.083Z" fill="#D8C276"/><path fill-rule="evenodd" clip-rule="evenodd" d="M6.85 16.496H17.15V14.74H6.851v1.755Zm0-3.619H17.15v-1.754H6.851v1.754Zm0-3.618H17.15V7.504H6.851V9.26Z" fill="#D8C276"/></svg>