<svg width="24" height="24" fill="none" xmlns="http://www.w3.org/2000/svg"><path d="M11.706 1.066c.523-.273 1.161.36.883.882-.162.426-.774.54-1.086.215-.331-.312-.223-.928.203-1.097Zm-5.627.606c.318-.13.72.16.688.507.034.376-.426.652-.75.474-.43-.166-.38-.863.062-.981Zm11.523.991c-.496-.06-.575-.84-.097-.998.371-.181.711.158.766.51-.078.3-.33.575-.669.488ZM7.36 4.066c.531-.336 1.29.165 1.208.782-.028.623-.855.984-1.322.562-.451-.33-.383-1.09.114-1.344Zm8.11.357c.237-.61 1.197-.63 1.467-.034.267.462-.061 1.036-.536 1.193-.63.117-1.227-.563-.93-1.159h-.001Zm-4.441 1.124c-.005-.525.473-.916.972-.952.33.066.692.207.834.541.264.461.03 1.095-.449 1.307-.218.122-.477.077-.715.062-.364-.179-.67-.529-.642-.958Zm-8.367.765c.485-.299 1.14.246.956.773-.1.456-.714.642-1.064.35-.375-.272-.315-.928.108-1.123Zm17.967-.001c.412-.32 1.091.047 1.042.566.028.474-.56.832-.969.588-.45-.203-.496-.895-.073-1.155Zm-7.247.943c.68-.244 1.486.048 1.874.654.51.74.239 1.868-.554 2.293-.822.503-2.02.077-2.324-.84-.345-.822.157-1.85 1.004-2.107Zm-3.986.082c.753-.356 1.766-.058 2.13.712.428.75.097 1.794-.668 2.181-.767.436-1.848.106-2.218-.7-.416-.778-.047-1.835.756-2.194ZM5.403 8.7c.058-.485.515-.8.977-.833.497.06.895.446.949.95-.033.498-.418.986-.946.983-.582.05-1.091-.528-.98-1.1Zm11.79-.728c.596-.347 1.425.159 1.398.844.041.726-.876 1.239-1.47.812-.617-.354-.569-1.353.072-1.655Zm-9.42 2.56c.697-.192 1.495.137 1.837.778.375.646.222 1.542-.36 2.016-.747.695-2.124.416-2.522-.532-.457-.87.098-2.034 1.044-2.262Zm7.56-.004c.679-.194 1.475.067 1.84.685.482.707.252 1.762-.466 2.217-.752.53-1.916.251-2.33-.576-.502-.856.003-2.065.956-2.326Zm-12.049.806c.603-.227 1.271.438 1.027 1.035-.15.545-.917.746-1.313.345-.464-.377-.292-1.216.286-1.38Zm16.338.868c-.017-.5.348-.942.86-.97.413.066.815.399.782.848.038.594-.677.997-1.183.718-.237-.12-.359-.364-.459-.597ZM.32 11.627c.363-.158.812.156.729.559-.02.456-.693.631-.94.25-.219-.264-.088-.672.211-.809Zm22.866-.01c.255-.181.665-.05.766.248.171.326-.143.772-.51.717-.515.047-.682-.738-.256-.964Zm-13.444 2.19c.954-.249 1.98.547 1.986 1.53.062.992-.948 1.873-1.925 1.644-.755-.122-1.347-.85-1.323-1.612-.002-.73.549-1.408 1.262-1.563Zm3.78-.003c.968-.27 2.024.54 2.009 1.545.05.974-.928 1.825-1.884 1.632-.9-.116-1.564-1.105-1.313-1.979.127-.582.613-1.055 1.187-1.198Zm-7.287.605c.67-.114 1.298.634 1.026 1.27-.198.678-1.185.862-1.62.308-.513-.532-.13-1.504.594-1.578Zm11.082.031c.598-.25 1.331.267 1.285.915.024.714-.881 1.207-1.466.79-.662-.374-.541-1.475.181-1.705Zm3.098 3.107c-.234-.436.191-1.014.675-.934.241-.004.41.186.564.346.032.259.085.567-.13.766-.29.369-.95.264-1.109-.178Zm-17.756-.812c.453-.301 1.104.148 1.002.677-.054.468-.643.736-1.032.47-.416-.24-.401-.927.03-1.147Zm8.943.98c.592-.261 1.347.255 1.29.907.045.721-.889 1.22-1.468.788-.643-.372-.536-1.466.178-1.695Zm-4.143.966c.505-.266 1.182.193 1.136.758.016.464-.437.86-.895.79-.379-.007-.626-.347-.748-.67.007-.353.152-.745.507-.878Zm8.39.009c.519-.321 1.256.14 1.207.744.014.63-.82 1.035-1.303.62-.468-.324-.41-1.106.096-1.364Zm1.46 3.606c-.231-.349.04-.77.415-.85.301.062.62.289.557.638-.044.473-.736.618-.973.212Zm-11.582-.303c.092-.277.314-.552.64-.48.475.034.616.75.2.97-.373.253-.807-.093-.84-.49Zm5.587.318c.09-.41.621-.609.97-.392.23.1.299.358.358.578-.032.114-.06.228-.088.343-.143.17-.326.339-.565.333-.442.052-.841-.448-.675-.862Z" fill="#3CC8C8"/></svg>