<svg width="24" height="24" viewBox="0 0 24 24" fill="none" xmlns="http://www.w3.org/2000/svg">
<path fill-rule="evenodd" clip-rule="evenodd" d="M13.1064 15.4743L14.9135 16.5052L22.2423 11.0856C23.3174 10.2904 23.9471 9.0451 23.97 7.66881C23.993 6.29265 23.4051 5.02519 22.3573 4.19182L18.2952 0.959961L13.3753 4.49567L14.9993 5.67364L18.24 3.34461L21.2377 5.72951C21.812 6.18642 22.1342 6.88088 22.1216 7.63519C22.1091 8.3895 21.7639 9.07208 21.1747 9.50789L13.1064 15.4743Z" fill="#038199"/>
<path fill-rule="evenodd" clip-rule="evenodd" d="M11.0099 8.54063L9.29049 7.43115L1.77312 12.8339C0.670748 13.6263 0.00805733 14.9341 6.83545e-05 16.3327C-0.00766055 17.7311 0.64046 19.0469 1.73394 19.8528L6.06773 23.0464L11.0099 19.3917L9.23965 18.3336L6.06591 20.6807L2.79901 18.2732C2.19085 17.8249 1.84439 17.1217 1.84874 16.3438C1.8531 15.566 2.20729 14.8669 2.82053 14.4263L11.0099 8.54063Z" fill="#018294"/>
<path fill-rule="evenodd" clip-rule="evenodd" d="M2.79601 9.50789C2.20677 9.07209 1.86158 8.3895 1.84913 7.63519C1.83649 6.88088 2.15871 6.18642 2.73302 5.72951L5.73054 3.34461L17.7895 12.0113L19.3978 10.822L5.67558 0.959961L1.61336 4.19182C0.565579 5.02519 -0.022209 6.29265 0.000642349 7.66881C0.0236146 9.0451 0.653297 10.2904 1.72834 11.0856L2.9495 11.9886L4.57291 10.8219L2.79601 9.50789Z" fill="#4DBEC8"/>
<path fill-rule="evenodd" clip-rule="evenodd" d="M22.1973 12.8341L21.0211 11.9888L19.4127 13.1781L21.1499 14.4266C21.7631 14.8674 22.1174 15.5662 22.1219 16.3441C22.1262 17.122 21.7798 17.8252 21.1715 18.2734L17.9047 20.681L6.18103 12.0113L4.55762 13.178L17.9029 23.0467L22.2367 19.853C23.3302 19.0472 23.9783 17.7314 23.9704 16.333C23.9626 14.9344 23.2996 13.6266 22.1973 12.8341Z" fill="#4DBEC8"/>
</svg>
