<svg width="24" height="24" fill="none" xmlns="http://www.w3.org/2000/svg"><path d="M.078 12.59s.166-.08.444-.248c.138-.082.305-.186.488-.315.185-.125.384-.28.592-.457.205-.179.415-.385.611-.62l.14-.184.035-.047.031-.05a144.29 144.29 0 0 0 .129-.2 81.08 81.08 0 0 1 .11-.212l.027-.053.027-.06c.143-.318.286-.646.44-.98.152-.334.308-.674.472-1.013.17-.337.344-.674.549-.997.1-.162.214-.32.339-.472l.1-.112.005-.007.012-.012.012-.012.024-.023.047-.046c.03-.03.072-.065.11-.098.037-.033.075-.066.114-.094l.117-.087.123-.076.061-.037.065-.033.128-.063c.044-.019.09-.034.134-.05.045-.016.088-.035.134-.044.092-.02.18-.05.272-.056.364-.048.709.013.995.116.07.029.137.06.203.09l.097.044.088.053c.116.07.227.134.319.21.192.14.336.284.455.4.117.12.197.224.255.291.057.068.086.105.086.105a.039.039 0 0 1-.053.056l-.002-.001-.11-.076-.131-.093c-.052-.035-.106-.083-.177-.123-.069-.041-.143-.09-.224-.14l-.061-.04-.067-.036c-.046-.023-.093-.047-.141-.073-.19-.108-.42-.19-.664-.26a1.86 1.86 0 0 0-.786-.023c-.069.007-.134.036-.202.053-.067.02-.13.055-.198.081a2.145 2.145 0 0 0-.379.243c-.032.023-.06.048-.087.073-.029.026-.055.046-.088.08l-.047.047-.024.023-.012.012-.003.003.003-.003-.005.006-.08.088c-.104.125-.206.26-.3.41-.19.292-.364.616-.533.942-.172.326-.337.658-.5.985-.162.328-.327.652-.489.961l-.03.058-.035.06-.07.12-.07.117-.08.11-.077.106-.04.053-.042.049-.17.19a5.393 5.393 0 0 1-.706.608 6.758 6.758 0 0 1-1.197.67c-.304.128-.485.184-.485.184a.039.039 0 0 1-.028-.072Zm.64.163a.02.02 0 0 0-.017.033l.013.008.047.021a2.246 2.246 0 0 0 .433.113c.105.017.224.026.355.03.131 0 .274-.01.424-.032.149-.028.306-.063.462-.123a2.31 2.31 0 0 0 .459-.233c.075-.046.143-.102.213-.156a2.604 2.604 0 0 0 .531-.585l.073-.106c.02-.037.042-.074.063-.11l.063-.11.053-.11c.035-.074.069-.147.096-.22.027-.073.06-.142.08-.213l.063-.206c.02-.067.034-.133.05-.194.032-.125.05-.24.067-.343l.023-.144.013-.122.02-.232a.02.02 0 0 0-.037-.007l-.064.223-.032.117-.044.136c-.03.098-.063.207-.109.323-.022.058-.04.12-.067.182l-.08.19c-.027.066-.062.13-.093.196-.03.068-.067.133-.106.2l-.056.1-.063.098-.063.099-.071.095c-.024.031-.047.064-.072.095l-.079.09c-.05.062-.108.116-.163.174a3.134 3.134 0 0 1-.179.157c-.064.046-.125.096-.192.136a2.452 2.452 0 0 1-.402.215 2.97 2.97 0 0 1-.792.21 3.704 3.704 0 0 1-.594.025 2.753 2.753 0 0 1-.208-.016c-.01 0-.015-.003-.015-.003l-.002-.001Zm2.437-.23a.02.02 0 0 0 .002.027l.013.007a.285.285 0 0 0 .021.007l.023.007a.95.95 0 0 0 .152.028c.131.017.324.017.55-.036.111-.029.231-.07.352-.129a1.88 1.88 0 0 0 .66-.556c.049-.06.087-.126.13-.19.04-.065.076-.133.112-.2.032-.07.068-.137.095-.207.026-.071.056-.14.077-.212.046-.141.084-.282.113-.419.024-.138.049-.27.06-.398.016-.126.021-.246.027-.357.007-.11.001-.212.003-.301 0-.09-.007-.168-.01-.232l-.017-.201a.02.02 0 0 0-.038-.001l-.028.199c-.008.063-.017.14-.032.227-.014.087-.024.186-.046.291-.02.107-.038.222-.068.341-.023.12-.057.245-.091.373l-.06.193c-.02.065-.046.128-.07.193-.05.129-.108.255-.17.378-.034.06-.068.12-.104.178-.04.056-.075.115-.118.166l-.06.079-.066.074c-.042.05-.09.093-.135.137a2.06 2.06 0 0 1-.288.222 1.834 1.834 0 0 1-.293.153c-.094.042-.186.067-.268.091-.083.023-.157.035-.218.045-.061.01-.11.013-.144.015l-.021.001a.463.463 0 0 1-.011.002c-.007 0-.013-.002-.013-.002a.02.02 0 0 0-.021.006Zm1.864-.608a.02.02 0 0 0 .009.026l.012.004a.188.188 0 0 0 .021.005l.022.003a.789.789 0 0 0 .136.003 1.4 1.4 0 0 0 .761-.283c.094-.073.189-.159.269-.262.08-.103.153-.218.207-.343a2.08 2.08 0 0 0 .129-.387c.012-.066.028-.132.036-.199.006-.066.017-.133.018-.198.008-.132.008-.26.001-.384-.011-.123-.021-.242-.04-.352-.017-.112-.042-.214-.063-.31-.02-.095-.05-.18-.07-.256-.02-.076-.046-.14-.064-.193l-.063-.166a.02.02 0 0 0-.037.009s.006.065.02.176c.006.055.016.122.022.2.007.076.02.163.025.257.007.095.017.196.018.304.007.107.006.22.005.336-.003.058-.007.117-.009.176-.002.06-.011.118-.016.178-.015.12-.038.238-.065.354-.017.058-.033.115-.052.171-.021.055-.039.111-.065.163a1.673 1.673 0 0 1-.593.71c-.073.053-.147.09-.214.125a1.786 1.786 0 0 1-.299.115l-.018.004-.007.004c-.005.002-.012 0-.011.001a.02.02 0 0 0-.025.01Zm1.462-.897a.02.02 0 0 0 .01.025l.011.004a.122.122 0 0 0 .022.002l.02.001c.028 0 .069-.001.12-.01a.934.934 0 0 0 .181-.05c.069-.026.142-.065.22-.114a1.163 1.163 0 0 0 .4-.482c.05-.106.08-.222.104-.34.016-.118.029-.238.023-.357l-.003-.09-.008-.087a1.8 1.8 0 0 0-.025-.173 1.812 1.812 0 0 0-.035-.167c-.013-.054-.024-.108-.042-.16l-.048-.15-.053-.143c-.035-.092-.077-.174-.111-.252-.037-.077-.076-.145-.108-.206-.031-.061-.065-.112-.09-.154l-.084-.131A.02.02 0 0 0 6.95 8l.043.149c.015.047.034.103.052.168.018.065.041.138.063.218.02.08.048.165.067.257l.035.14.029.147c.01.05.017.1.026.152.01.05.016.102.02.155.007.052.012.104.013.156l.004.079v.078c0 .105-.01.207-.025.306-.02.097-.04.193-.075.279a1.233 1.233 0 0 1-.27.43c-.053.056-.11.1-.16.14-.05.039-.1.067-.14.091a1.034 1.034 0 0 1-.113.056l-.004.005c-.003.002-.01 0-.009.001a.02.02 0 0 0-.025.01Zm1.098-1.011a.019.019 0 0 0-.007.036c.004.003.02.002.02.001A.554.554 0 0 0 7.725 10a1.067 1.067 0 0 0 .308-.232c.11-.118.21-.29.257-.493.024-.101.034-.208.032-.316a1.6 1.6 0 0 0-.04-.319 1.923 1.923 0 0 0-.097-.3 2.24 2.24 0 0 0-.132-.27 3.348 3.348 0 0 0-.15-.234 3.308 3.308 0 0 0-.403-.46c-.064-.059-.103-.09-.103-.09a.02.02 0 0 0-.022-.003.02.02 0 0 0-.008.027l.07.119c.043.075.106.18.176.31.036.063.072.133.109.207a3.557 3.557 0 0 1 .205.489c.029.087.053.176.07.265a1.571 1.571 0 0 1 .013.519 1.228 1.228 0 0 1-.146.427c-.032.06-.07.112-.102.159-.034.046-.067.084-.095.115-.028.03-.052.054-.069.068l-.018.015c-.004.002.006 0 .007.004H7.58Zm16.309 2.628a.039.039 0 0 1-.048.026h-.001s-.181-.056-.485-.183a6.755 6.755 0 0 1-1.197-.67 5.392 5.392 0 0 1-.706-.608l-.17-.191-.043-.049-.039-.053a44.098 44.098 0 0 1-.078-.107l-.079-.109-.07-.117-.07-.12-.035-.06-.03-.058c-.162-.309-.327-.633-.488-.96-.164-.328-.33-.66-.501-.986-.17-.326-.342-.65-.534-.943a3.848 3.848 0 0 0-.3-.409l-.08-.088-.004-.006.003.003-.003-.003-.012-.012-.024-.023-.047-.047c-.033-.034-.059-.054-.088-.08-.028-.025-.055-.05-.087-.073-.12-.1-.25-.175-.38-.243-.066-.026-.13-.06-.198-.08-.067-.018-.132-.047-.2-.054a1.86 1.86 0 0 0-.787.023c-.245.07-.474.152-.664.26l-.14.073-.068.036-.061.04c-.081.05-.155.099-.224.14-.07.04-.125.088-.177.123l-.13.093-.112.076-.001.001a.039.039 0 0 1-.053-.056l.086-.105c.058-.067.138-.17.255-.29.12-.117.263-.261.455-.402.092-.075.203-.138.319-.209l.088-.053.097-.045c.066-.029.133-.06.203-.089.286-.103.63-.164.995-.116.092.006.18.036.272.056.046.009.09.028.134.043.045.017.09.032.134.05l.128.064.065.033.061.037.123.076.117.087c.039.028.077.06.115.094.037.033.08.068.109.098l.047.046.024.023.012.012.012.012.006.007.1.112c.124.152.238.31.338.472.206.323.38.66.549.997.164.339.32.679.472 1.013.154.334.297.662.44.98l.027.06.027.053.056.107.054.106.065.1.064.1.031.049.036.047.139.184c.196.236.406.441.611.62.208.177.407.332.592.457.183.13.35.233.488.315.278.168.444.247.444.247a.038.038 0 0 1 .02.046Zm-.664.119-.015.003a3.893 3.893 0 0 1-.469.018c-.1-.005-.212-.01-.333-.026a2.973 2.973 0 0 1-.791-.21 2.453 2.453 0 0 1-.403-.216c-.067-.04-.128-.09-.192-.137a3.113 3.113 0 0 1-.178-.156c-.055-.058-.114-.112-.164-.175l-.078-.09c-.026-.03-.048-.063-.072-.094l-.071-.095-.064-.1-.062-.098c-.02-.033-.038-.067-.057-.1a2.195 2.195 0 0 1-.106-.199c-.03-.067-.066-.13-.092-.197a188.37 188.37 0 0 1-.08-.19c-.027-.061-.046-.123-.068-.181a4.356 4.356 0 0 1-.109-.323l-.044-.136-.032-.117-.064-.223a.02.02 0 0 0-.024-.014.02.02 0 0 0-.014.02l.021.233.013.122.023.144c.017.102.036.218.067.342.017.062.03.128.05.195l.063.205c.021.071.053.14.08.214.027.073.06.146.096.219l.053.112.063.108.064.11.072.107a2.61 2.61 0 0 0 .531.585c.07.053.139.11.214.156a2.316 2.316 0 0 0 .92.356c.15.023.293.03.424.031a2.77 2.77 0 0 0 .355-.029 2.25 2.25 0 0 0 .433-.113.561.561 0 0 0 .047-.02l.014-.009a.02.02 0 0 0 .004-.027.02.02 0 0 0-.022-.006h-.003Zm-2.455-.237c0-.001-.006.002-.012 0l-.012-.001h-.021a1.622 1.622 0 0 1-.144-.016c-.061-.01-.135-.022-.217-.045-.082-.024-.175-.049-.269-.091a1.831 1.831 0 0 1-.292-.153 2.064 2.064 0 0 1-.289-.222c-.046-.044-.092-.088-.135-.137l-.065-.074-.061-.08c-.043-.05-.078-.11-.117-.165a4.333 4.333 0 0 1-.104-.178 4.327 4.327 0 0 1-.171-.378c-.023-.065-.05-.128-.07-.193-.019-.065-.039-.13-.06-.193-.033-.128-.068-.252-.091-.373-.03-.12-.048-.234-.067-.34-.022-.106-.033-.205-.047-.292-.015-.087-.024-.164-.032-.227l-.028-.199a.02.02 0 0 0-.038 0l-.016.202c-.004.064-.01.142-.01.232 0 .09-.005.19.002.301.006.11.01.23.026.357.012.127.038.26.061.398.03.137.067.278.113.42.021.07.051.14.077.21.027.071.063.139.095.208.036.067.073.135.112.2.043.064.081.13.13.19a1.88 1.88 0 0 0 .66.557c.121.058.24.1.353.128.226.053.418.053.55.036a.954.954 0 0 0 .195-.042l.013-.007a.02.02 0 0 0 .003-.028.02.02 0 0 0-.022-.005Zm-1.868-.611s-.006.001-.01-.001l-.008-.004a1.782 1.782 0 0 1-.317-.12c-.067-.033-.141-.071-.214-.123a1.595 1.595 0 0 1-.428-.418 1.674 1.674 0 0 1-.165-.293c-.026-.052-.044-.108-.065-.163-.019-.056-.035-.113-.051-.17a3.268 3.268 0 0 1-.066-.355c-.005-.06-.014-.119-.016-.178-.002-.06-.006-.118-.009-.176 0-.116-.002-.229.005-.336 0-.108.011-.21.018-.304.005-.094.018-.18.025-.258.006-.077.016-.144.023-.2l.02-.175a.02.02 0 0 0-.038-.01s-.024.06-.063.167c-.018.053-.043.117-.064.193-.02.076-.05.161-.07.256-.02.095-.046.198-.062.31a3.251 3.251 0 0 0-.04.736c.001.065.012.131.018.198.008.067.024.133.036.2.032.131.073.263.13.386a1.487 1.487 0 0 0 .762.773c.189.082.357.11.474.115a.788.788 0 0 0 .18-.01l.011-.005a.02.02 0 1 0-.016-.035Zm-1.462-.899s-.006.002-.01-.002a.107.107 0 0 1-.003-.004l-.014-.006a1.012 1.012 0 0 1-.098-.05c-.04-.024-.09-.052-.141-.091a1.324 1.324 0 0 1-.31-.33 1.232 1.232 0 0 1-.12-.24 1.564 1.564 0 0 1-.075-.28 1.95 1.95 0 0 1-.025-.305v-.078l.005-.079c0-.052.005-.104.012-.156.004-.053.01-.104.02-.155.01-.051.016-.102.026-.152l.03-.147.034-.14c.019-.092.047-.177.067-.257.022-.08.045-.153.064-.218.018-.065.037-.121.051-.168a5.39 5.39 0 0 0 .043-.148V8a.02.02 0 0 0-.034-.016s-.032.047-.084.13c-.025.043-.06.094-.091.155-.032.061-.07.129-.108.206-.033.078-.076.16-.11.252l-.053.142-.049.152c-.018.05-.03.105-.042.16-.014.053-.025.11-.034.166-.011.057-.02.114-.026.173l-.008.088-.003.089c-.005.119.007.24.024.358.023.117.053.233.103.339a1.166 1.166 0 0 0 .4.482c.078.05.152.088.22.114a.931.931 0 0 0 .302.06h.02a.132.132 0 0 0 .02-.003l.012-.004a.02.02 0 0 0 .01-.025.02.02 0 0 0-.025-.01Zm-1.079-1h-.002c.001-.003.012-.002.007-.004a1.038 1.038 0 0 1-.087-.083c-.028-.031-.061-.07-.095-.115-.033-.047-.07-.098-.102-.159a1.291 1.291 0 0 1-.162-.68c.001-.087.012-.176.029-.266.017-.089.041-.178.07-.265a3.495 3.495 0 0 1 .205-.489c.037-.074.073-.144.11-.208.07-.128.133-.234.176-.31l.069-.118a.02.02 0 0 0-.03-.025s-.038.032-.103.092a3.312 3.312 0 0 0-.404.46c-.05.071-.1.149-.149.233a2.244 2.244 0 0 0-.132.27c-.039.095-.072.196-.096.3a1.6 1.6 0 0 0-.04.32c-.003.107.008.214.031.315a1.109 1.109 0 0 0 .421.64.881.881 0 0 0 .246.124.19.19 0 0 0 .03.005c.002 0 .017.002.02 0l.003-.002a.019.019 0 0 0 .007-.026.019.019 0 0 0-.016-.01h-.006Z" fill="#F7931B"/><path d="M11.973 17.888a.595.595 0 0 1-.414-.167l-2.147-2.06c-.85-.817-1.73-1.661-2.378-2.659-.515-.794-1.087-2.024-.881-3.372.192-1.266 1.113-2.344 2.29-2.682a2.905 2.905 0 0 1 2.401.398c.52.36.922.974 1.129 1.337.206-.363.608-.977 1.127-1.337a2.905 2.905 0 0 1 2.402-.398c1.177.338 2.098 1.416 2.29 2.682.206 1.348-.366 2.578-.881 3.372-.648.998-1.527 1.842-2.378 2.659l-2.146 2.06a.595.595 0 0 1-.414.167Z" fill="#F7931B"/><path d="M14.746 7.014c.24 0 .48.032.708.097 1.18.34 1.999 1.418 2.17 2.545.172 1.127-.222 2.277-.856 3.254-.634.976-1.497 1.807-2.353 2.628l-2.146 2.06a.426.426 0 0 1-.592 0l-2.147-2.06c-.856-.821-1.719-1.652-2.353-2.628-.634-.977-1.028-2.127-.856-3.254.171-1.127.99-2.206 2.17-2.545a2.751 2.751 0 0 1 2.257.374c.726.505 1.225 1.561 1.225 1.561s.499-1.056 1.224-1.56a2.751 2.751 0 0 1 1.549-.472Zm0-.34c-.63 0-1.249.189-1.743.532-.439.305-.796.779-1.03 1.148-.235-.37-.592-.843-1.03-1.148a3.078 3.078 0 0 0-2.546-.422c-1.24.356-2.21 1.49-2.413 2.82-.213 1.402.376 2.672.907 3.491.66 1.015 1.546 1.866 2.403 2.689l2.147 2.06a.764.764 0 0 0 1.063 0l2.147-2.06c.857-.823 1.744-1.675 2.403-2.689.531-.819 1.12-2.09.907-3.49-.203-1.331-1.172-2.465-2.413-2.82a2.906 2.906 0 0 0-.802-.111Z" fill="#fff"/><path d="M16.991 10.416a.085.085 0 0 1-.169-.02 2.87 2.87 0 0 0-.012-.755 2.307 2.307 0 0 0-.189-.623 2.437 2.437 0 0 0-.347-.545 2.301 2.301 0 0 0-.47-.424 1.971 1.971 0 0 0-.67-.29 1.656 1.656 0 0 0-.36-.037 1.95 1.95 0 0 0-.829.184c-.084.04-.162.085-.234.135-.102.07-.206.166-.312.283a3.614 3.614 0 0 0-.278.352.085.085 0 0 1-.14-.097c.095-.135.193-.26.292-.37.114-.125.227-.229.34-.307.08-.056.167-.106.26-.15a2.052 2.052 0 0 1 .588-.177 2.121 2.121 0 0 1 .58-.006 1.817 1.817 0 0 1 .253.054c.211.06.415.157.604.284.186.126.357.28.506.456.148.176.274.373.372.583.099.214.168.44.203.669.04.262.043.53.012.801ZM13.41 15.54l.486-.466a157.435 157.435 0 0 0 .62-.6c.225-.223.42-.422.601-.616.206-.22.39-.43.558-.638a.085.085 0 0 1 .132.107c-.17.21-.357.424-.565.647-.183.196-.38.397-.607.62a44.418 44.418 0 0 1-.621.602l-1.944 1.867a.085.085 0 0 1-.118 0l-1.945-1.867c-.31-.297-.449-.432-.62-.601a21.01 21.01 0 0 1-.607-.621 12.087 12.087 0 0 1-.566-.647 8.057 8.057 0 0 1-.498-.68 5.976 5.976 0 0 1-.328-.572 4.92 4.92 0 0 1-.282-.68 3.845 3.845 0 0 1-.17-.76 3.088 3.088 0 0 1 .014-.815 2.52 2.52 0 0 1 .206-.68c.099-.213.227-.413.378-.592a2.51 2.51 0 0 1 .513-.463 2.176 2.176 0 0 1 .742-.321 1.844 1.844 0 0 1 .402-.04.085.085 0 0 1 0 .17 1.892 1.892 0 0 0-.368.036 2.006 2.006 0 0 0-.681.295 2.34 2.34 0 0 0-.478.432 2.477 2.477 0 0 0-.354.555 2.35 2.35 0 0 0-.192.634 2.919 2.919 0 0 0-.012.769c.027.24.082.483.161.727.072.22.164.44.273.656a5.8 5.8 0 0 0 .32.556c.142.22.304.44.486.666.168.207.352.417.558.638.181.194.377.393.602.615.17.17.31.304.62.6l1.885 1.81 1.399-1.343Z" fill="#fff"/><path d="M13.491 10.951c.025 0 .048.006.069.019a.136.136 0 0 1 .068.11c0 .015-.002.03-.006.047a.415.415 0 0 1-.015.049 3.75 3.75 0 0 0-.018.049l-.345.933-.037.102a.433.433 0 0 1-.043.085.191.191 0 0 1-.065.06.195.195 0 0 1-.099.023.198.198 0 0 1-.099-.023.188.188 0 0 1-.065-.06.441.441 0 0 1-.043-.085 2.903 2.903 0 0 1-.037-.102l-.34-.925a1.598 1.598 0 0 0-.018-.05.394.394 0 0 1-.022-.1c0-.033.013-.064.04-.09a.134.134 0 0 1 .1-.042c.05 0 .084.015.105.045.02.03.041.079.063.145l.323.958.324-.965c.017-.05.03-.085.038-.105a.14.14 0 0 1 .042-.054.122.122 0 0 1 .08-.024Zm-1.489 0c.044 0 .08.015.106.043.027.03.04.074.04.133v1.125c0 .059-.013.103-.04.132a.137.137 0 0 1-.106.044.133.133 0 0 1-.102-.044c-.027-.03-.04-.074-.04-.132v-1.126c0-.058.013-.102.04-.131a.134.134 0 0 1 .102-.044Zm-1.049 0a.78.78 0 0 1 .255.039.562.562 0 0 1 .18.097c.047.039.082.08.105.123a.252.252 0 0 1 .035.116.123.123 0 0 1-.04.093.136.136 0 0 1-.157.024.137.137 0 0 1-.049-.04 1.146 1.146 0 0 0-.09-.127.293.293 0 0 0-.1-.072.38.38 0 0 0-.16-.03.442.442 0 0 0-.18.035.372.372 0 0 0-.135.1.453.453 0 0 0-.085.162.71.71 0 0 0-.03.21c0 .169.038.297.115.388a.4.4 0 0 0 .322.135c.067 0 .13-.009.189-.026a.95.95 0 0 0 .179-.075v-.232h-.224a.245.245 0 0 1-.123-.024c-.027-.017-.041-.044-.041-.083 0-.032.011-.058.035-.08a.135.135 0 0 1 .094-.03h.328c.04 0 .074.003.102.01.028.008.05.023.068.048a.194.194 0 0 1 .026.111v.274a.29.29 0 0 1-.01.087.138.138 0 0 1-.04.06.379.379 0 0 1-.074.05 1.002 1.002 0 0 1-.81.084.63.63 0 0 1-.378-.381.874.874 0 0 1-.051-.307c0-.111.016-.213.05-.305a.626.626 0 0 1 .38-.383.9.9 0 0 1 .314-.05Zm3.833.024c.046 0 .08.01.103.031.022.02.033.047.033.08 0 .034-.01.062-.033.082-.023.02-.057.03-.103.03h-.652v.351h.6c.045 0 .078.01.1.03.021.02.032.046.032.079 0 .032-.01.059-.032.079-.022.02-.055.03-.1.03h-.6v.407h.674c.046 0 .08.01.103.032.023.02.035.049.035.084a.106.106 0 0 1-.035.082c-.023.021-.057.032-.103.032h-.786c-.063 0-.108-.014-.136-.042-.027-.028-.041-.073-.041-.135v-1.074a.24.24 0 0 1 .018-.102.114.114 0 0 1 .058-.057.244.244 0 0 1 .101-.018h.764Zm-5.258-.008c.1 0 .184.015.254.046a.382.382 0 0 1 .2.212.416.416 0 0 1-.031.368.683.683 0 0 1-.122.156 6.697 6.697 0 0 1-.21.175c-.097.08-.164.142-.2.187a.564.564 0 0 0-.048.063h.508c.051 0 .09.01.116.031.027.02.04.05.04.085 0 .032-.01.059-.031.08-.021.023-.053.034-.096.034H9.19a.155.155 0 0 1-.114-.04.13.13 0 0 1-.041-.096c0-.023.008-.054.026-.093a.332.332 0 0 1 .057-.09c.087-.09.165-.167.234-.231.07-.064.12-.106.15-.126a.86.86 0 0 0 .132-.114.452.452 0 0 0 .081-.117.278.278 0 0 0 .028-.117.211.211 0 0 0-.11-.188.234.234 0 0 0-.112-.027.228.228 0 0 0-.2.112.484.484 0 0 0-.033.08.333.333 0 0 1-.052.1c-.02.023-.047.035-.084.035a.11.11 0 0 1-.081-.032.119.119 0 0 1-.032-.088.402.402 0 0 1 .12-.273c.04-.04.09-.071.152-.096a.582.582 0 0 1 .216-.036Z" fill="#fff"/></svg>