<svg width="24" height="24" fill="none" xmlns="http://www.w3.org/2000/svg"><path d="M16.521 10.08v1.43h3.942c-.033-.402-.094-1.047-.184-1.43h-3.758Z" fill="url(#a)"/><path d="M20.464 12.443h-4.696v1.429h4.512c.09-.382.15-1.028.184-1.43Z" fill="url(#b)"/><path d="M3.715 13.872h4.513v-1.43H3.53c.033.402.095 1.048.184 1.43Z" fill="url(#c)"/><path d="M3.715 10.08c-.09.383-.15 1.028-.184 1.43h3.942v-1.43H3.715Z" fill="url(#d)"/><path d="M11.967 11.774a72.895 72.895 0 0 1-.707 2.508c-.25.83-.514 1.67-.792 2.509H8.539a30.71 30.71 0 0 1-.65-1.665 65.603 65.603 0 0 1-.727-2.103c-.25-.759-.504-1.56-.768-2.41-.264-.848-.514-1.701-.76-2.569h2.618c.09.4.188.835.292 1.306.108.472.217.957.335 1.457.118.5.24 1 .368 1.504.127.505.259.99.396 1.457.146-.486.283-.985.424-1.495.137-.509.269-1.009.4-1.504.128-.495.25-.971.364-1.428.118-.462.221-.892.306-1.288h1.797c.09.401.188.83.297 1.288.113.462.226.938.349 1.428.122.495.25.995.382 1.504.132.51.273 1.01.415 1.495.132-.467.268-.948.4-1.457.132-.504.26-1.004.378-1.504s.226-.985.334-1.457c.109-.471.203-.905.293-1.306h2.579c-.245.863-.495 1.721-.76 2.57-.259.848-.518 1.65-.768 2.41-.25.758-.495 1.46-.735 2.102-.24.641-.458 1.198-.66 1.665h-1.929c-.278-.845-.547-1.68-.816-2.509-.264-.83-.509-1.664-.726-2.508Z" fill="url(#e)"/><path d="M12 .01C5.39.01.028 5.365.028 11.975c0 6.61 5.357 11.967 11.967 11.967s11.967-5.356 11.967-11.967C23.967 5.366 18.606.01 12 .01Zm0 22.033c-5.56 0-10.067-4.508-10.067-10.067S6.441 1.91 12 1.91c5.56 0 10.067 4.508 10.067 10.067 0 5.56-4.508 10.067-10.067 10.067Z" fill="url(#f)"/><defs><linearGradient id="a" x1="7.684" y1="12.33" x2="16.003" y2="3.335" gradientUnits="userSpaceOnUse"><stop stop-color="#6449DE"/><stop offset=".35" stop-color="#854CD9"/><stop offset=".75" stop-color="#AA48D4"/><stop offset="1" stop-color="#BD5AFD"/></linearGradient><linearGradient id="b" x1="8.61" y1="14.099" x2="16.601" y2="5.458" gradientUnits="userSpaceOnUse"><stop stop-color="#6449DE"/><stop offset=".35" stop-color="#854CD9"/><stop offset=".75" stop-color="#AA48D4"/><stop offset="1" stop-color="#BD5AFD"/></linearGradient><linearGradient id="c" x1="2.064" y1="13.539" x2="10.055" y2="4.898" gradientUnits="userSpaceOnUse"><stop stop-color="#6449DE"/><stop offset=".35" stop-color="#854CD9"/><stop offset=".75" stop-color="#AA48D4"/><stop offset="1" stop-color="#BD5AFD"/></linearGradient><linearGradient id="d" x1=".732" y1="11.486" x2="9.051" y2="2.49" gradientUnits="userSpaceOnUse"><stop stop-color="#6449DE"/><stop offset=".35" stop-color="#854CD9"/><stop offset=".75" stop-color="#AA48D4"/><stop offset="1" stop-color="#BD5AFD"/></linearGradient><linearGradient id="e" x1="4.205" y1="15.651" x2="15.399" y2="3.547" gradientUnits="userSpaceOnUse"><stop stop-color="#6449DE"/><stop offset=".35" stop-color="#854CD9"/><stop offset=".75" stop-color="#AA48D4"/><stop offset="1" stop-color="#BD5AFD"/></linearGradient><linearGradient id="f" x1="4.772" y1="19.788" x2="20.415" y2="2.874" gradientUnits="userSpaceOnUse"><stop stop-color="#6449DE"/><stop offset=".35" stop-color="#854CD9"/><stop offset=".75" stop-color="#AA48D4"/><stop offset="1" stop-color="#BD5AFD"/></linearGradient></defs></svg>