<svg width="24" height="24" viewBox="0 0 24 24" fill="none" xmlns="http://www.w3.org/2000/svg">
<g clip-path="url(#clip0)">
<path d="M16.9115 13.4271C19.1103 7.14833 18.4608 1.20676 15.4608 0.156188C12.4608 -0.894388 8.24642 3.34386 6.04765 9.62258C3.84887 15.9013 4.49837 21.8429 7.49834 22.8934C10.4983 23.944 14.7127 19.7058 16.9115 13.4271Z" fill="#5FBCD3"/>
<path d="M14.938 16.1253C20.251 12.1217 23.0073 6.81822 21.0944 4.27967C19.1814 1.74112 13.3236 2.9288 8.01065 6.93243C2.69766 10.9361 -0.0586348 16.2395 1.8543 18.7781C3.76724 21.3166 9.62501 20.129 14.938 16.1253Z" fill="#2C89A0"/>
<path d="M12.5677 16.9411C19.1874 16.2803 24.2978 13.1807 23.9821 10.0178C23.6664 6.8549 18.0442 4.8265 11.4245 5.48723C4.8048 6.14796 -0.305599 9.24763 0.0100993 12.4105C0.325798 15.5734 5.94804 17.6018 12.5677 16.9411Z" fill="#164450"/>
<path d="M12.8479 11.7539C12.9451 12.7182 13.6359 13.1983 14.9203 13.1943C15.6781 13.2024 16.4266 13.0272 17.1021 12.6838V14.1424C16.3364 14.4787 15.4106 14.6468 14.3247 14.6468C13.0079 14.6468 12.0355 14.2619 11.4075 13.4921H11.3711C10.6823 14.2619 9.79699 14.6468 8.7152 14.6468C7.90082 14.6468 7.26471 14.4685 6.80687 14.112C6.34904 13.7554 6.12012 13.2611 6.12012 12.6291C6.12012 12.0011 6.35714 11.4966 6.83118 11.1158C7.30523 10.7349 7.98185 10.5161 8.86106 10.4594L10.7451 10.3257C10.7451 9.50322 10.2933 9.09198 9.3898 9.09198C8.53895 9.09198 7.69621 9.32292 6.86157 9.78481V8.25936C7.72275 7.90081 8.64539 7.71298 9.5782 7.70631C10.7248 7.70631 11.5189 7.99398 11.9606 8.56932H11.991C12.6425 7.99278 13.4505 7.62263 14.3126 7.50575C15.3093 7.34166 16.5673 7.35382 17.169 7.9251C17.5081 8.25352 17.7283 8.68541 17.795 9.15276C17.8305 9.42023 17.811 9.69213 17.7376 9.9518C17.6643 10.2115 17.5388 10.4534 17.3686 10.6628C17.1985 10.8722 16.9873 11.0447 16.7482 11.1696C16.509 11.2945 16.2469 11.3693 15.9778 11.3893L12.8479 11.7539ZM10.739 11.8086V11.5169L9.59644 11.602C8.69292 11.6668 8.24116 11.9504 8.24116 12.4528C8.24288 12.5581 8.27037 12.6613 8.32123 12.7535C8.37208 12.8457 8.44475 12.924 8.53288 12.9816C8.7233 13.1234 8.97248 13.1963 9.28041 13.2004C9.70178 13.2004 10.0502 13.0707 10.3257 12.8114C10.6012 12.5521 10.739 12.2178 10.739 11.8086ZM13.0545 10.3926L13.0363 10.6843L14.191 10.6478C15.0945 10.6235 15.5605 10.3602 15.5888 9.85774C15.5946 9.75198 15.5737 9.64646 15.528 9.55088C15.4824 9.45531 15.4134 9.37274 15.3275 9.31077C15.1452 9.16491 14.9021 9.08388 14.5982 9.06767C14.1768 9.05146 13.8203 9.16694 13.5286 9.41409C13.2368 9.66124 13.0788 9.9874 13.0545 10.3926Z" fill="white"/>
</g>
<defs>
<clipPath id="clip0">
<rect width="24" height="24" fill="white"/>
</clipPath>
</defs>
</svg>
