<svg width="24" height="24" fill="none" xmlns="http://www.w3.org/2000/svg"><path d="M12 24c6.627 0 12-5.373 12-12S18.627 0 12 0 0 5.373 0 12s5.373 12 12 12Z" fill="#4F7AA2"/><path d="M9.982 9h2.053c.992 0 2.762.602 2.762 3s-1.77 3-2.762 3H9.982V9Zm1.132 4.785h.85c.709 0 1.559-.434 1.559-1.785s-.85-1.785-1.558-1.785h-.85v3.57ZM15.577 9h.425l3.824 5.27V9h.424v6h-.425L16 9.846V15h-.425l.002-6ZM3.75 9h1.416v1.5H3.75V9Zm2.125 0H7.29v1.5H5.875V9Zm2.124 0h1.417v1.5H7.998V9Zm0 2.25h1.417v1.5H7.998v-1.5Zm0 2.25h1.417V15H7.998v-1.5Zm-2.124-2.25H7.29v1.5H5.875v-1.5Z" fill="#fff"/></svg>