<svg width="24" height="24" fill="none" xmlns="http://www.w3.org/2000/svg"><path d="M5.184 7h.986c1.541.151 2.967.926 4.023 2.042 2.191 2.3 3.396 5.544 6.185 7.256 2.016 1.238 4.836.225 5.827-1.865.504-.01 1.01-.01 1.514-.007-.693 2.124-2.714 3.65-4.925 3.854h-.813c-1.361-.113-2.683-.636-3.713-1.54-1.495-1.268-2.455-3.006-3.617-4.554-.998-1.368-2.018-2.906-3.672-3.528-2.042-.765-4.538.432-5.282 2.468-.655 1.675-.123 3.753 1.341 4.826 1.097.85 2.626 1.166 3.944.672 1.464-.528 2.55-1.728 3.384-3 .328.47.648.948.964 1.428-1.296 1.632-3.093 3.034-5.232 3.228h-.876C2.527 18.093.185 15.803 0 13.098v-.885C.175 9.513 2.486 7.197 5.184 7Z" fill="#DE3F6B"/><path d="M17.926 7h.818c2.72.178 5.033 2.513 5.256 5.218v1.387c-2.244.021-4.49.007-6.734.01.002-.406.002-.81 0-1.215 1.773-.005 3.544.007 5.316-.005-.125-.717-.288-1.452-.713-2.059-1.037-1.584-3.228-2.232-4.98-1.546-1.397.519-2.448 1.654-3.26 2.866a58.778 58.778 0 0 1-.921-1.36c1.28-1.657 3.065-3.09 5.218-3.296Z" fill="#DE3F6B"/></svg>