<svg width="24" height="24" fill="none" xmlns="http://www.w3.org/2000/svg"><path d="M17.454 2.695a1.34 1.34 0 0 0 1.328-1.348C18.782.604 18.187 0 17.454 0a1.344 1.344 0 0 0-1.328 1.351c0 .743.596 1.344 1.328 1.344Zm.392 3.503a1.133 1.133 0 0 0 1.125-1.142c0-.628-.504-1.141-1.125-1.141s-1.124.51-1.124 1.141c0 .632.502 1.142 1.124 1.142Zm3.087.447c.619 0 1.122-.51 1.122-1.14 0-.628-.503-1.138-1.122-1.138-.618 0-1.121.51-1.121 1.139s.504 1.139 1.121 1.139Zm-.37 2.996c.53 0 .959-.436.959-.972a.966.966 0 0 0-.96-.973c-.53 0-.959.436-.959.973 0 .536.43.972.96.972Zm2.471.972a.973.973 0 0 0 .966-.98c0-.54-.432-.979-.966-.979a.973.973 0 0 0-.966.98c0 .54.433.979.966.979Zm-5.578-1.377a.989.989 0 0 0 .983-.995V8.24a.99.99 0 0 0-.983-.996.989.989 0 0 0-.983.996c0 .548.44.997.983.997Zm-.89 2.384a.829.829 0 0 0 .823-.834.827.827 0 0 0-.82-.835h-.004a.829.829 0 0 0-.824.835c0 .46.368.834.824.834Zm3.091.422a.824.824 0 0 0 .817-.829v-.002a.823.823 0 0 0-.817-.83.823.823 0 0 0-.817.83.82.82 0 0 0 .81.83h.007Zm2.465.968a.83.83 0 0 0 .824-.838.83.83 0 0 0-.824-.837.83.83 0 0 0-.824.837.828.828 0 0 0 .82.838h.004Zm-1.218 1.809a.702.702 0 0 0 .697-.706.702.702 0 0 0-.697-.706.702.702 0 0 0-.696.706c0 .388.311.706.696.706Zm-2.476-.953a.72.72 0 0 0 .712-.723.718.718 0 0 0-.712-.723.718.718 0 0 0-.713.723c0 .399.321.723.713.723Zm-3.088-.442a.716.716 0 0 0 .001-1.432h-.001a.717.717 0 0 0 0 1.432Zm1.717 1.7c.34 0 .614-.28.614-.621a.616.616 0 0 0-.61-.621h-.004c-.341 0-.615.28-.615.62a.615.615 0 0 0 .608.622h.007Zm2.475.969c.341 0 .622-.28.622-.628a.623.623 0 0 0-1.066-.444.628.628 0 0 0 .444 1.072Zm-1.394.727c.27 0 .49-.223.49-.497a.493.493 0 0 0-.49-.496.496.496 0 0 0 0 .993Zm-1.321.39a.445.445 0 0 0 .442-.449c0-.25-.2-.45-.442-.45a.443.443 0 0 0-.41.277.444.444 0 0 0-.033.171v.001a.441.441 0 0 0 .434.45h.009Zm-1.157-1.293c.29 0 .527-.24.527-.534a.531.531 0 0 0-.527-.534.531.531 0 0 0-.527.534.533.533 0 0 0 .527.534Zm-1.698-1.224a.618.618 0 0 0 .615-.621.616.616 0 0 0-.615-.622.618.618 0 0 0-.614.622.62.62 0 0 0 .614.62Zm5.034 7.783c.73 0 1.322-.6 1.322-1.341 0-.74-.592-1.342-1.322-1.342-.73 0-1.32.602-1.32 1.342 0 .74.59 1.341 1.32 1.341Zm-3.355-1.697c.607 0 1.1-.5 1.1-1.118a1.11 1.11 0 0 0-1.1-1.118c-.608 0-1.102.5-1.102 1.118a1.11 1.11 0 0 0 1.102 1.118Zm-1.918 2.457c.615 0 1.111-.503 1.111-1.128a1.12 1.12 0 0 0-1.11-1.129c-.616 0-1.112.503-1.112 1.129a1.12 1.12 0 0 0 1.111 1.128Zm-.577-4.528a.971.971 0 0 0 .963-.976.972.972 0 0 0-.963-.977.969.969 0 0 0-.963.977.973.973 0 0 0 .963.976ZM11.233 21.2c.53 0 .96-.436.96-.973a.966.966 0 0 0-.96-.972c-.53 0-.959.436-.959.972a.963.963 0 0 0 .953.973h.006Zm-2.061 1.69c.53 0 .956-.436.956-.97 0-.537-.43-.97-.956-.97a.963.963 0 0 0-.957.97c0 .534.43.97.957.97Zm-1.716-2.2a.825.825 0 0 0 .817-.827.823.823 0 0 0-.817-.828.828.828 0 0 0 0 1.655Zm2.065-1.697a.823.823 0 0 0 .817-.828.82.82 0 0 0-.817-.828.828.828 0 0 0-.003 1.656h.003Zm1.927-2.49a.824.824 0 0 0 .817-.829v-.002a.823.823 0 0 0-.817-.83.825.825 0 0 0-.817.828v.002c0 .46.365.83.817.83Zm-2.947.343c.391 0 .71-.321.71-.72a.714.714 0 0 0-.71-.719c-.392 0-.71.321-.71.72 0 .398.318.719.71.719Zm-2.055 1.69a.706.706 0 0 0 .703-.71v-.002a.706.706 0 0 0-.7-.712h-.003a.706.706 0 0 0-.703.71v.002a.708.708 0 0 0 .703.712Zm-.473-1.981a.613.613 0 0 0 .608-.615.611.611 0 0 0-.608-.614.613.613 0 0 0-.607.614c0 .341.273.615.607.615Zm-.017-1.74a.524.524 0 0 0 .52-.53.527.527 0 0 0-.52-.53.525.525 0 0 0-.52.53c0 .295.233.53.52.53Zm.286-1.445a.445.445 0 0 0 .443-.45c0-.246-.2-.449-.443-.449a.445.445 0 0 0-.442.45c0 .246.195.449.442.449Zm1.772-.242c.29 0 .527-.24.527-.534a.531.531 0 0 0-.527-.534c-.291 0-.527.24-.527.534a.532.532 0 0 0 .527.534Zm1.944-.758a.62.62 0 0 0 .615-.621.616.616 0 0 0-.61-.621h-.005a.62.62 0 0 0-.57.857.616.616 0 0 0 .567.385h.003Zm.463 1.972a.697.697 0 1 0-.003 0h.003Zm-2.382.526a.612.612 0 0 0 .608-.619.614.614 0 0 0-.608-.618.612.612 0 0 0-.608.615v.003a.61.61 0 0 0 .6.619h.008Zm-6.722-.917c.726 0 1.318-.598 1.318-1.335 0-.736-.592-1.335-1.318-1.335-.726 0-1.317.6-1.317 1.336 0 .736.591 1.334 1.317 1.334Zm2.99-2.383c.626 0 1.129-.514 1.129-1.146 0-.632-.507-1.146-1.129-1.146A1.136 1.136 0 0 0 3.18 10.42v.002c0 .636.507 1.146 1.128 1.146ZM3.141 8.627A1.13 1.13 0 0 0 4.262 7.49a1.13 1.13 0 0 0-1.121-1.138 1.129 1.129 0 0 0-1.122 1.136v.002a1.127 1.127 0 0 0 1.116 1.14h.006Zm2.882-1.392a.97.97 0 0 0 .963-.977.97.97 0 0 0-.963-.976.97.97 0 0 0-.963.976c0 .541.433.977.963.977Zm1.178 2.932a.973.973 0 0 0 .966-.98c0-.54-.432-.98-.966-.98a.973.973 0 0 0-.966.98c0 .54.433.98.966.98Zm2.624-.61a.828.828 0 0 0 .82-.834.82.82 0 1 0-1.641-.025v.025a.825.825 0 0 0 .815.835h.006Zm2.266.008c.392 0 .71-.32.71-.716a.713.713 0 1 0-1.427 0 .716.716 0 0 0 .717.716Zm1.872.432c.328 0 .598-.27.598-.605a.6.6 0 0 0-.598-.605.603.603 0 0 0-.598.605c.004.33.27.605.598.605Zm.244-2.207a.524.524 0 0 0 .52-.527.524.524 0 0 0-.52-.527.524.524 0 0 0-.52.527.524.524 0 0 0 .52.527Zm-1.44-.722a.6.6 0 1 0-.003 0h.003Zm-1.85-.438a.709.709 0 0 0 .702-.712.706.706 0 0 0-.703-.713.708.708 0 0 0-.702.713.706.706 0 0 0 .7.712h.002Zm-2.263.003a.83.83 0 0 0 .824-.834.83.83 0 0 0-.824-.835.829.829 0 0 0-.824.835.832.832 0 0 0 .824.834ZM5.608 4.547a.937.937 0 0 0 .932-.945.94.94 0 0 0-.932-.946.937.937 0 0 0-.933.946.94.94 0 0 0 .933.945Zm2.622-.573a.829.829 0 0 0 .824-.834.829.829 0 0 0-.824-.835.83.83 0 0 0-.824.835c0 .46.368.834.824.834Zm2.265.01c.392 0 .71-.32.71-.718a.714.714 0 0 0-.71-.72.713.713 0 0 0-.71.718v.002a.716.716 0 0 0 .71.719Zm1.859.429a.6.6 0 0 0 .598-.605.6.6 0 1 0-1.203 0 .605.605 0 0 0 .605.605Zm1.428.741a.538.538 0 0 0 .534-.54c0-.3-.24-.54-.534-.54a.538.538 0 0 0-.534.54c0 .297.24.54.534.54Zm1.047.851a.441.441 0 0 0 .439-.445.442.442 0 0 0-.438-.446.442.442 0 0 0-.44.445.44.44 0 0 0 .432.446h.007Z" fill="#000"/></svg>