<svg width="24" height="24" viewBox="0 0 24 24" fill="none" xmlns="http://www.w3.org/2000/svg">
<g clip-path="url(#clip0)">
<path d="M23.9784 21.4604V21.4485C23.9788 21.4432 23.9788 21.4378 23.9784 21.4325L12.2668 2.1633L12.2509 2.13943C12.2292 2.10581 12.201 2.07682 12.168 2.05411C12.135 2.03141 12.0978 2.01544 12.0586 2.00712C12.0195 1.99881 11.979 1.9983 11.9396 2.00565C11.9003 2.01299 11.8627 2.02803 11.8292 2.04991C11.7934 2.0722 11.7623 2.10126 11.7377 2.13545L11.7218 2.16131C10.9366 3.4584 10.1462 4.75216 9.3504 6.04261C9.27185 6.15561 9.22974 6.28994 9.22974 6.42756C9.22974 6.56518 9.27185 6.69951 9.3504 6.81251C10.4021 8.52338 11.4505 10.2349 12.4956 11.9471C12.581 12.0694 12.6267 12.2148 12.6267 12.3639C12.6267 12.513 12.581 12.6584 12.4956 12.7807C10.7728 15.6136 8.95252 18.5917 7.2138 21.4365C7.17563 21.5083 7.16738 21.5923 7.19086 21.6702C7.21433 21.7481 7.26762 21.8135 7.33913 21.8523C7.38315 21.876 7.43238 21.8883 7.48236 21.8881H12.5334C12.5889 21.8885 12.6435 21.8736 12.6912 21.8452C12.7388 21.8168 12.7779 21.7759 12.804 21.727L12.9771 21.4365L15.3186 17.589C15.3377 17.5536 15.3637 17.5223 15.395 17.497C15.4264 17.4716 15.4624 17.4528 15.5011 17.4415C15.5398 17.4302 15.5803 17.4267 15.6204 17.4312C15.6604 17.4357 15.6991 17.4481 15.7344 17.4677C15.777 17.4901 15.8132 17.523 15.8398 17.5632L18.1594 21.343L18.3743 21.6951C18.4008 21.7432 18.4397 21.7832 18.4869 21.8112C18.5341 21.8392 18.588 21.8541 18.6428 21.8543H18.7841C18.8079 21.8563 18.8319 21.8563 18.8557 21.8543H23.6939C23.7748 21.8543 23.8524 21.8223 23.9098 21.7653C23.9672 21.7082 23.9997 21.6308 24.0003 21.5499C23.9975 21.5191 23.9901 21.489 23.9784 21.4604Z" fill="black"/>
<path d="M10.5141 12.9715L10.6831 12.693C10.7529 12.5929 10.7903 12.4738 10.7903 12.3518C10.7903 12.2298 10.7529 12.1107 10.6831 12.0106L9.64469 10.3276L8.45105 8.40385C8.43008 8.36942 8.40248 8.3395 8.36985 8.31582C8.33722 8.29215 8.30021 8.27519 8.26097 8.26594C8.22174 8.25669 8.18105 8.25532 8.14128 8.26192C8.10151 8.26852 8.06345 8.28295 8.0293 8.30438C7.98339 8.33177 7.94562 8.37091 7.91989 8.41777L0.0359343 21.4383C-0.00214353 21.5099 -0.0103343 21.5936 0.0131549 21.6711C0.036644 21.7487 0.0898998 21.8138 0.161266 21.8521C0.205381 21.8776 0.25556 21.8906 0.306491 21.8899H4.93779C4.99271 21.8899 5.04662 21.8751 5.09387 21.8471C5.14111 21.8191 5.17997 21.7789 5.20636 21.7308L5.38341 21.4363C5.3914 21.4255 5.39871 21.4142 5.4053 21.4025L5.60424 21.0842C7.25344 18.3488 8.83302 15.7367 10.4862 13.0153C10.4964 13.0013 10.5057 12.9867 10.5141 12.9715Z" fill="black"/>
</g>
<defs>
<clipPath id="clip0">
<rect width="24" height="24" fill="white"/>
</clipPath>
</defs>
</svg>
