<svg width="24" height="24" fill="none" xmlns="http://www.w3.org/2000/svg"><path fill-rule="evenodd" clip-rule="evenodd" d="M23.986 12.002c0 6.614-5.362 11.976-11.976 11.976-6.614 0-11.976-5.362-11.976-11.976C.034 5.388 5.396.026 12.01.026c6.614 0 11.976 5.362 11.976 11.976Z" fill="#222C46"/><path fill-rule="evenodd" clip-rule="evenodd" d="M22.192 12.002c0-5.624-4.558-10.183-10.182-10.183-5.624 0-10.183 4.559-10.183 10.183 0 5.623 4.56 10.182 10.183 10.182 5.624 0 10.182-4.559 10.182-10.182Zm.596 0c0 5.952-4.826 10.777-10.778 10.777-5.952 0-10.778-4.825-10.778-10.777 0-5.953 4.826-10.778 10.778-10.778 5.952 0 10.778 4.826 10.778 10.778Z" fill="#DF4F2A"/><path fill-rule="evenodd" clip-rule="evenodd" d="M22.215 12.002c0 5.636-4.569 10.206-10.205 10.206-5.637 0-10.206-4.57-10.206-10.206 0-5.637 4.569-10.206 10.206-10.206 5.636 0 10.205 4.57 10.205 10.206Z" fill="#E3E4E2"/><path fill-rule="evenodd" clip-rule="evenodd" d="M9.126 19.71a1.687 1.687 0 0 0-.143-.539.63.63 0 0 0-.273-.286.438.438 0 0 0-.462.014c-.148.092-.291.273-.43.541-.086.164-.107.316-.062.457a.578.578 0 0 0 .308.338c.13.068.27.108.418.12.149.01.302-.007.458-.054-.157.277-.358.45-.605.515-.246.066-.518.021-.819-.134-.337-.176-.547-.41-.63-.703-.084-.294-.032-.621.155-.982.205-.395.465-.654.78-.777s.644-.096.988.082c.096.05.203.118.32.203.117.085.19.135.22.15a.54.54 0 0 0 .137.048c.049.01.1.015.154.015l-.514.991Zm1.577.633c-.025.322-.01.546.045.671.054.126.161.195.32.207.16.012.277-.04.35-.155.074-.115.123-.335.148-.657.025-.322.01-.547-.045-.673-.055-.127-.162-.196-.322-.209-.158-.012-.274.04-.348.157-.074.117-.123.336-.148.659Zm1.79.136c-.036.463-.172.795-.41.997-.238.202-.59.285-1.053.25-.465-.036-.798-.172-1.001-.408-.204-.236-.288-.585-.252-1.048.035-.46.171-.792.409-.994.237-.202.587-.285 1.051-.25.466.036.8.172 1.004.407.203.235.287.584.252 1.046Zm1.736-1.71a.525.525 0 0 0-.111.48l.39 1.668a.521.521 0 0 0 .312.386l-1.248.291a.523.523 0 0 0 .11-.484l-.39-1.67a.526.526 0 0 0-.311-.38l1.248-.29Zm1.342-.675c.002.02.004.036.007.046.002.009.006.018.012.027l.011.016a.063.063 0 0 0 .014.01l.954.56c.072.04.15.091.233.15.083.058.171.123.264.197a3.308 3.308 0 0 1-.268-.364l-.416-.642a.53.53 0 0 0-.425-.25l.888-.576a.56.56 0 0 0-.034.252.55.55 0 0 0 .089.238l1.077 1.659a.393.393 0 0 0 .07.083.216.216 0 0 0 .075.04l-.81.526a.31.31 0 0 0-.008-.044.103.103 0 0 0-.014-.03.071.071 0 0 0-.02-.02l-.005-.004-1.078-.61c-.06-.033-.13-.079-.214-.138a9.566 9.566 0 0 1-.284-.21 3.269 3.269 0 0 1 .269.361l.475.733a.538.538 0 0 0 .429.254l-.889.578a.521.521 0 0 0-.062-.493l-.933-1.438a.524.524 0 0 0-.422-.252l1.015-.659ZM17.81 5.424a2.387 2.387 0 0 0 .132.135c.156.155.29.253.397.292.108.04.198.024.27-.048a.235.235 0 0 0 .059-.236.663.663 0 0 0-.192-.298c-.092-.09-.17-.143-.236-.158-.065-.015-.126.006-.182.063l-.247.25Zm-.35.355-.288.29c-.067.067-.091.139-.075.214.016.074.077.164.183.268a.735.735 0 0 0 .341.213c.11.024.2 0 .273-.074.083-.084.101-.189.054-.315-.047-.126-.161-.278-.34-.456a6.383 6.383 0 0 0-.148-.14Zm-1.667-.02c.1.02.192.017.277-.01a.552.552 0 0 0 .232-.144l1.264-1.276a.54.54 0 0 0 .139-.231.574.574 0 0 0 .006-.276l.011.01c.128.135.225.235.29.3.13.128.303.292.52.491.217.2.365.34.444.418.313.31.505.582.576.817a.573.573 0 0 1-.146.609.47.47 0 0 1-.378.149c-.145-.01-.318-.078-.519-.204.157.214.244.41.258.586a.564.564 0 0 1-.173.462.636.636 0 0 1-.645.174c-.253-.063-.53-.243-.832-.542a24.256 24.256 0 0 1-.383-.395c-.191-.2-.354-.367-.487-.499L16.043 6l-.25-.24ZM14.017 2.55a.592.592 0 0 0-.23.16.526.526 0 0 0-.115.242l-.259 1.287c-.037.185-.03.317.022.397.053.08.16.137.322.17.162.032.281.021.361-.033.08-.053.137-.172.175-.357l.258-1.287a.525.525 0 0 0-.162-.505l1.32.266a.566.566 0 0 0-.227.159.547.547 0 0 0-.113.244l-.28 1.393a1.314 1.314 0 0 1-.122.376.513.513 0 0 1-.196.195c-.123.07-.281.11-.476.116a3.169 3.169 0 0 1-.718-.075 3.168 3.168 0 0 1-.692-.208 1.005 1.005 0 0 1-.391-.29.513.513 0 0 1-.104-.249c-.013-.09-.001-.224.034-.4l.28-1.394a.526.526 0 0 0-.162-.504l1.475.296ZM9.43 2.695a.572.572 0 0 0-.098.259.541.541 0 0 0 .042.266L9.93 4.55c.041.098.098.162.17.19.073.029.16.022.261-.02a.649.649 0 0 0 .326-.315c.079-.152.15-.412.213-.779l.536 1.284a.512.512 0 0 0-.162-.007.625.625 0 0 0-.17.047l-2.006.838a.567.567 0 0 0 .097-.26.555.555 0 0 0-.044-.27l-.692-1.657a.54.54 0 0 0-.16-.218.574.574 0 0 0-.252-.111l1.383-.578ZM6.778 5.128c-.25.001-.453.03-.609.086a.795.795 0 0 0-.372.266c-.129.168-.162.341-.1.519s.22.363.471.556a.58.58 0 0 0 .473.13c.161-.03.306-.129.436-.298.104-.136.181-.287.23-.451.05-.165.068-.338.057-.52.256.214.39.462.399.747.01.284-.105.583-.345.897-.27.354-.573.557-.906.61-.333.054-.67-.049-1.008-.308-.37-.283-.583-.61-.636-.978-.054-.368.057-.733.332-1.093.077-.101.176-.212.295-.331.12-.12.19-.194.213-.225a.696.696 0 0 0 .086-.146.975.975 0 0 0 .054-.172l.93.711ZM12.064 5.497a6.516 6.516 0 1 1 0 13.032 6.516 6.516 0 0 1 0-13.032Zm0 .431a6.085 6.085 0 1 1 0 12.17 6.085 6.085 0 0 1 0-12.17Z" fill="#222C46"/><path fill-rule="evenodd" clip-rule="evenodd" d="m16.75 10.583-1.424.822c-.274-.318-.47-.51-.59-.58-.227-.133-.485-.116-.776.052-.192.11-.297.288-.316.532-.018.218.03.427.146.625l.689 1.194a.648.648 0 0 0 .462.323c.206.04.4.008.579-.095.295-.17.428-.401.398-.693-.013-.125-.106-.396-.278-.813l1.413-.816c.401.806.49 1.484.264 2.034-.209.504-.738 1.002-1.588 1.492-.687.396-1.4.531-2.137.405-.702-.125-1.245-.463-1.628-1.015.25-.233.474-.506.602-.816.295-.714.058-1.51-.27-2.169l-.06-.121c.288-.361.65-.668 1.087-.92.168-.097.427-.176.777-.237.35-.062.575-.121.675-.179.036-.02.07-.084.102-.19a.766.766 0 0 0 .043-.236l.766-.443 1.064 1.844Z" fill="#222C46"/><path fill-rule="evenodd" clip-rule="evenodd" d="m11.848 10.587-1.424.822c-.274-.318-.47-.51-.59-.58-.227-.134-.485-.116-.777.052-.191.11-.296.288-.315.532-.018.218.03.427.145.625l.69 1.194a.648.648 0 0 0 .461.323c.207.04.4.008.58-.095.295-.17.428-.402.398-.693-.014-.125-.106-.396-.278-.813l1.413-.816c.401.806.49 1.484.264 2.034-.139.333-.419.666-.84.995l.43.745-.747.432-.402-.697-.03.017a3.707 3.707 0 0 1-.355.181l.412.715-.748.432-.52-.903a3.06 3.06 0 0 1-.925-.02c-.783-.139-1.367-.542-1.753-1.212-.391-.677-.409-1.403-.053-2.178.107-.232.236-.449.386-.65l-.554-.96.748-.432.432.748c.111-.089.229-.173.353-.253l-.411-.711.748-.432.478.827a5 5 0 0 1 .134-.025c.35-.062.575-.121.675-.179.036-.02.07-.084.102-.19a.764.764 0 0 0 .043-.237l.766-.442 1.064 1.844Z" fill="#DF4F2A"/></svg>