<svg width="24" height="24" viewBox="0 0 24 24" fill="none" xmlns="http://www.w3.org/2000/svg">
<path fill-rule="evenodd" clip-rule="evenodd" d="M12 24C15.1826 24 18.2348 22.7357 20.4853 20.4853C22.7357 18.2348 24 15.1826 24 12C24 8.8174 22.7357 5.76516 20.4853 3.51472C18.2348 1.26428 15.1826 0 12 0V1.46C14.7954 1.46 17.4763 2.57046 19.4529 4.54709C21.4295 6.52373 22.54 9.20462 22.54 12C22.54 14.7954 21.4295 17.4763 19.4529 19.4529C17.4763 21.4295 14.7954 22.54 12 22.54V24Z" fill="#FFBC00"/>
<g opacity="0.3">
<g opacity="0.3">
<path opacity="0.3" fill-rule="evenodd" clip-rule="evenodd" d="M1.46 12H0C0 15.1826 1.26428 18.2348 3.51472 20.4853C5.76516 22.7357 8.8174 24 12 24V22.54C9.20516 22.5382 6.5253 21.4272 4.54905 19.451C2.57279 17.4747 1.46177 14.7948 1.46 12Z" fill="#FFBC00"/>
</g>
</g>
<path fill-rule="evenodd" clip-rule="evenodd" d="M4.28031 12C4.28031 14.0475 5.09367 16.0111 6.54145 17.4589C7.98923 18.9066 9.95284 19.72 12.0003 19.72C14.0478 19.72 16.0114 18.9066 17.4592 17.4589C18.907 16.0111 19.7203 14.0475 19.7203 12H21.1803C21.1803 14.4347 20.2131 16.7697 18.4916 18.4912C16.77 20.2128 14.435 21.18 12.0003 21.18C9.56563 21.18 7.23066 20.2128 5.50907 18.4912C3.78749 16.7697 2.82031 14.4347 2.82031 12H4.28031Z" fill="#FFBC00"/>
<path opacity="0.3" fill-rule="evenodd" clip-rule="evenodd" d="M12.0003 4.27982V2.81982C9.56671 2.82335 7.23379 3.79166 5.51297 5.51248C3.79215 7.2333 2.82384 9.56622 2.82031 11.9998H4.28031C4.28208 9.95289 5.096 7.99031 6.5434 6.54291C7.9908 5.09551 9.95338 4.28159 12.0003 4.27982Z" fill="#FFBC00"/>
<path fill-rule="evenodd" clip-rule="evenodd" d="M12.0005 7.0933C10.6991 7.0933 9.4511 7.61025 8.53092 8.53043C7.61074 9.45061 7.09379 10.6986 7.09379 12C7.09379 13.3013 7.61074 14.5493 8.53092 15.4695C9.4511 16.3897 10.6991 16.9066 12.0005 16.9066V18.3666C10.3119 18.3666 8.69252 17.6959 7.49854 16.5019C6.30456 15.3079 5.63379 13.6885 5.63379 12C5.63379 10.3114 6.30456 8.69204 7.49854 7.49805C8.69252 6.30407 10.3119 5.6333 12.0005 5.6333" fill="#FFBC00"/>
<path opacity="0.3" fill-rule="evenodd" clip-rule="evenodd" d="M12 5.6333V7.0933C13.3008 7.09506 14.5478 7.61258 15.4676 8.53238C16.3874 9.45217 16.9049 10.6992 16.9067 12H18.3667C18.3631 10.3125 17.6912 8.69516 16.498 7.50195C15.3048 6.30873 13.6875 5.63682 12 5.6333Z" fill="#FFBC00"/>
<path fill-rule="evenodd" clip-rule="evenodd" d="M12 8.45312C12.9406 8.45313 13.8427 8.82679 14.5079 9.49192C15.173 10.157 15.5467 11.0592 15.5467 11.9998C15.5467 12.9404 15.173 13.8425 14.5079 14.5077C13.8427 15.1728 12.9406 15.5465 12 15.5465V14.0865C12.5534 14.0865 13.0842 13.8666 13.4755 13.4753C13.8668 13.084 14.0867 12.5532 14.0867 11.9998C14.0867 11.4464 13.8668 10.9156 13.4755 10.5243C13.0842 10.133 12.5534 9.91312 12 9.91312" fill="#FFBC00"/>
<path opacity="0.3" fill-rule="evenodd" clip-rule="evenodd" d="M11.9998 8.45312C11.0597 8.45489 10.1586 8.82912 9.49387 9.49387C8.82912 10.1586 8.45489 11.0597 8.45312 11.9998H9.91312C9.91312 11.7258 9.9671 11.4544 10.072 11.2013C10.1768 10.9481 10.3305 10.7181 10.5243 10.5243C10.7181 10.3305 10.9481 10.1768 11.2013 10.072C11.4544 9.9671 11.7258 9.91313 11.9998 9.91313V8.45312Z" fill="#FFBC00"/>
<path fill-rule="evenodd" clip-rule="evenodd" d="M16.4733 16.5133L15.44 15.48C15.023 15.8925 14.5353 16.2267 14 16.4666L14.6133 17.8C15.2962 17.4832 15.9188 17.0501 16.4533 16.52" fill="#FFBC00"/>
<path fill-rule="evenodd" clip-rule="evenodd" d="M6.94633 1.11328C5.65833 1.705 4.48655 2.52231 3.48633 3.52661L4.48633 4.59328C5.37125 3.69452 6.41275 2.96479 7.55966 2.43995L6.94633 1.11328Z" fill="#FFBC00"/>
<path fill-rule="evenodd" clip-rule="evenodd" d="M20.3062 8.16667C19.8568 7.17357 19.2311 6.27009 18.4596 5.5L17.4062 6.53333C18.0653 7.17835 18.5988 7.94016 18.9796 8.78L20.3062 8.16667Z" fill="#FFBC00"/>
</svg>
