<svg width="24" height="24" fill="none" xmlns="http://www.w3.org/2000/svg"><path d="M12 24c6.627 0 12-5.373 12-12S18.627 0 12 0 0 5.373 0 12s5.373 12 12 12Z" fill="#0E0E21"/><path d="m18.7 14.8-1.425-2.425c-.05-.1-.175-.125-.25-.05l-.925.6a.194.194 0 0 0-.05.25l.825 1.375c.025.05 0 .1-.025.125l-4.8 3.1a.076.076 0 0 1-.1 0l-4.75-3.1c-.05-.025-.05-.075-.025-.125L8 13.175a.194.194 0 0 0-.05-.25l-.925-.6c-.1-.05-.2-.025-.25.05L5.35 14.8c-.1.175-.05.4.125.5l6.375 4.15a.384.384 0 0 0 .4 0l6.375-4.15c.125-.125.175-.35.075-.5Z" fill="#fff"/><path d="m7.725 11.025.925.6c.1.05.2.025.25-.05l3-5.1c.025-.05.125-.05.15 0l3 5.1c.05.1.175.125.25.05l.925-.6c.075-.05.1-.175.05-.25l-3.525-6.1c-.075-.125-.175-.175-.325-.175h-.85a.427.427 0 0 0-.325.175l-3.575 6.1c-.05.075-.025.2.05.25Z" fill="#2AE7A8"/></svg>