<svg width="24" height="24" fill="none" xmlns="http://www.w3.org/2000/svg"><path d="M12.04.102C5.447.102.103 5.447.103 12.04c0 6.593 5.344 11.938 11.937 11.938 6.592 0 11.937-5.345 11.937-11.938C23.977 5.447 18.632.102 12.04.102Zm6.82 11.937a6.801 6.801 0 0 1-2.634 5.378l-.783-1.243a5.347 5.347 0 0 0-.265-8.475l1.002-1.075a6.805 6.805 0 0 1 2.68 5.415Zm-4.814-3.125a3.707 3.707 0 0 1 .512 5.857l-2.409-3.82 1.897-2.037Zm1.789-6.034-5.767 6.098.817-6.05H8.128a9.875 9.875 0 0 1 3.912-.802c1.344 0 2.625.269 3.795.754ZM5.995 15.2a6.783 6.783 0 0 1-.776-3.161 6.79 6.79 0 0 1 1.83-4.644l-1.054 7.804Zm-3.869-3.161a9.91 9.91 0 0 1 5.495-8.873l-.193 1.426a8.751 8.751 0 0 0-1.81 13.398l-.193 1.431a9.888 9.888 0 0 1-3.299-7.382ZM6.561 20.3h1.977l1.035-7.66.085.01 4.823 7.65h3.037a9.863 9.863 0 0 1-5.478 1.652A9.863 9.863 0 0 1 6.56 20.3Zm11.322-.256-.617-.978a8.744 8.744 0 0 0 3.534-7.028 8.74 8.74 0 0 0-3.292-6.841l.789-.846a9.891 9.891 0 0 1 3.656 7.687 9.897 9.897 0 0 1-4.07 8.006Z" fill="#DE4235"/></svg>