<svg width="24" height="24" viewBox="0 0 24 24" fill="none" xmlns="http://www.w3.org/2000/svg">
<path d="M12 0C5.376 0 0 5.376 0 12C0 18.624 5.376 24 12 24C18.624 24 24 18.624 24 12C24 5.376 18.624 0 12 0Z" fill="#000E26"/>
<path d="M13.7088 11.1301C13.7088 9.89485 12.9667 9.48145 12.2352 9.48145H10.5864V14.7692H11.5407V12.853C11.6549 12.853 12.0155 12.853 12.0381 12.8519L12.8566 14.7692H13.9102L12.958 12.6371C13.4221 12.3868 13.7088 11.906 13.7088 11.1301ZM11.9699 11.9147H11.5405V10.4092H12.0229C12.3676 10.4092 12.781 10.5365 12.781 11.1672C12.781 11.7979 12.2933 11.9147 11.9699 11.9147ZM9.31418 11.9386C9.51302 11.9146 9.9941 11.5688 10.014 10.9288C10.0299 10.1177 9.67802 9.48157 8.64134 9.48157H7.05566V14.7694H8.62238C9.1949 14.7694 10.0696 14.4592 10.2047 13.4812C10.3398 12.5032 9.8231 12.0817 9.31418 11.9386ZM7.99166 10.4092H8.49002C8.87702 10.4092 9.08642 10.5682 9.08642 11.0212C9.08642 11.4742 8.72366 11.6039 8.48474 11.6039H7.99166V10.4092ZM8.57774 13.8284H7.99166V12.4559H8.5841C9.04418 12.4559 9.29318 12.6385 9.29318 13.1592C9.29318 13.6799 8.86118 13.8284 8.57762 13.8284H8.57774ZM17.5561 9.48145H16.5287L15.9233 11.3533L15.2543 9.48145H14.1948L15.2861 12.0541L14.1311 14.7784H15.1427L15.8277 12.8587L16.5763 14.7784H17.6279L16.4729 12.1298L17.5561 9.48145Z" fill="white"/>
<path d="M20.9806 13.9543L22.0421 14.567C22.4648 12.9015 22.4695 11.1573 22.0555 9.48948L20.9803 10.1102C20.9803 10.1102 20.2393 9.32388 19.3759 7.8282C18.5125 6.33252 18.2018 5.29776 18.2018 5.29776L19.3117 4.65696C18.0761 3.42491 16.5493 2.52506 14.8729 2.04096V3.37584C14.8729 3.37584 13.8215 3.62388 12.0947 3.62388C10.3679 3.62388 9.31619 3.37536 9.31619 3.37536V1.98828C7.59865 2.44879 6.02875 3.34409 4.75787 4.58784L5.98751 5.29764C5.98751 5.29764 5.67683 6.33276 4.81343 7.82808C3.95003 9.3234 3.20903 10.1101 3.20903 10.1101L1.96751 9.39324C1.52139 11.1219 1.52659 12.9362 1.98263 14.6623L3.20915 13.9543C3.20915 13.9543 3.95015 14.741 4.81355 16.2364C5.67695 17.7317 5.98751 18.7667 5.98751 18.7667L4.79951 19.4519C6.0632 20.6748 7.61772 21.5556 9.31631 22.0109V20.6887C9.31631 20.6887 10.3681 20.4402 12.0948 20.4402C13.8215 20.4402 14.8733 20.6887 14.8733 20.6887V21.959C16.5307 21.4803 18.0421 20.595 19.2703 19.3835L18.2023 18.7668C18.2023 18.7668 18.513 17.7318 19.3764 16.2364C20.2398 14.7409 20.9804 13.9543 20.9806 13.9543ZM11.9995 20.035C7.56191 20.035 3.96455 16.4376 3.96455 12C3.96455 7.5624 7.5618 3.96504 11.9995 3.96504C16.4372 3.96504 20.0344 7.5624 20.0344 11.9999C20.0344 16.4374 16.437 20.035 11.9995 20.035Z" fill="#2FA5FF"/>
</svg>
