<svg width="24" height="24" fill="none" xmlns="http://www.w3.org/2000/svg"><g clip-path="url(#a)"><path d="m19.57 5.037-.66.659a9.33 9.33 0 0 1 0 12.59l.66.66a10.271 10.271 0 0 0 0-13.925v.016ZM5.711 5.094a9.329 9.329 0 0 1 12.591 0l.66-.66a10.271 10.271 0 0 0-13.925 0l.674.66ZM5.094 18.293a9.33 9.33 0 0 1 0-12.584l-.66-.66a10.271 10.271 0 0 0 0 13.925l.66-.68ZM18.293 18.902a9.329 9.329 0 0 1-12.591 0l-.659.659a10.271 10.271 0 0 0 13.924 0l-.674-.66Z" fill="#5A5564"/><path d="M16.16 9.801c-.131-1.375-1.317-1.836-2.818-1.977V5.931h-1.16v1.858h-.927V5.931h-1.15v1.906H7.752v1.241s.857-.015.843 0a.6.6 0 0 1 .66.51v5.22a.406.406 0 0 1-.141.283.403.403 0 0 1-.299.1c.015.014-.843 0-.843 0l-.22 1.387h2.33v1.937h1.16v-1.909h.927v1.9h1.162v-1.915c1.96-.119 3.326-.602 3.497-2.436.139-1.476-.555-2.135-1.665-2.401.675-.332 1.092-.947.997-1.953Zm-1.625 4.125c0 1.441-2.469 1.277-3.255 1.277v-2.557c.786.002 3.255-.224 3.255 1.28Zm-.538-3.602c0 1.318-2.06 1.158-2.715 1.158V9.157c.655 0 2.715-.206 2.715 1.167Z" fill="#F09242"/><path d="M11.998 24A12 12 0 1 1 12.002.001 12 12 0 0 1 11.998 24Zm0-23.064a11.058 11.058 0 1 0 .017 22.115A11.058 11.058 0 0 0 11.998.936Z" fill="#282138"/></g><defs><clipPath id="a"><path fill="#fff" d="M0 0h24v24H0z"/></clipPath></defs></svg>