<svg width="24" height="24" viewBox="0 0 24 24" fill="none" xmlns="http://www.w3.org/2000/svg">
<g clip-path="url(#clip0)">
<path d="M15.0059 1.10917V0.417288C15.0061 0.306853 14.9624 0.200877 14.8844 0.122635C14.8065 0.0443942 14.7007 0.000286379 14.5903 0L14.5735 0C12.3258 0.108417 10.2 1.05414 8.61444 2.65108C7.0289 4.24802 6.09844 6.38053 6.00614 8.62901C6.01641 8.92143 6.25262 8.99765 6.39153 8.99765H7.09422C7.2012 8.99737 7.30399 8.95607 7.38142 8.88225C7.45886 8.80844 7.50503 8.70774 7.51043 8.6009C7.60855 6.74816 8.3893 4.9974 9.70206 3.68633C11.0148 2.37526 12.7666 1.59678 14.6194 1.50105C14.9124 1.46375 15.0059 1.30376 15.0059 1.10917ZM8.68175 9.00089H9.35146C9.45649 9.00017 9.55737 8.95978 9.63386 8.8878C9.71035 8.81582 9.7568 8.71758 9.76389 8.61279C9.85748 7.35059 10.4034 6.16457 11.3014 5.27264C12.1994 4.38072 13.3891 3.84281 14.6519 3.75776C14.7511 3.75122 14.8438 3.70586 14.9099 3.63151C14.9759 3.55716 15.01 3.45979 15.0048 3.36047V2.67292C15.0046 2.56205 14.9603 2.45583 14.8817 2.37759C14.8032 2.29935 14.6968 2.25548 14.5859 2.25563C14.5768 2.25509 14.5676 2.25509 14.5584 2.25563C12.9243 2.36395 11.3851 3.06209 10.2272 4.22021C9.0693 5.37833 8.37142 6.91759 8.26338 8.55171C8.25596 8.66237 8.29279 8.77145 8.36577 8.85497C8.43875 8.93849 8.5419 8.98962 8.65256 8.99711H8.68013L8.68175 9.00089ZM15.0043 4.93125V5.6215C15.0043 5.90258 14.76 6.0042 14.6411 6.01825C13.9765 6.09946 13.3581 6.40035 12.884 6.87314C12.4099 7.34594 12.1074 7.96355 12.0244 8.62792C12.0124 8.7298 11.9636 8.82378 11.8871 8.89217C11.8106 8.96057 11.7118 8.99865 11.6093 8.99927H10.9395C10.8292 8.9997 10.7233 8.95634 10.6449 8.8787C10.5666 8.80107 10.5223 8.69551 10.5217 8.58522C10.5209 8.5719 10.5209 8.55854 10.5217 8.54522C10.6264 7.51252 11.0843 6.54761 11.8183 5.81359C12.5522 5.07957 13.517 4.62145 14.5497 4.51666C14.604 4.5116 14.6588 4.51729 14.7109 4.53341C14.763 4.54952 14.8114 4.57575 14.8534 4.61059C14.8954 4.64542 14.93 4.68819 14.9555 4.73644C14.9809 4.78469 14.9966 4.83748 15.0016 4.89179C15.0024 4.90529 15.0024 4.91883 15.0016 4.93233L15.0043 4.93125ZM22.8895 14.9851C22.6949 14.9851 22.5349 14.891 22.4971 14.5986C22.4015 12.7455 21.6232 10.9934 20.3121 9.68024C19.0011 8.3671 17.2502 7.58593 15.3973 7.48741C15.2904 7.48214 15.1897 7.43599 15.116 7.35851C15.0422 7.28103 15.0011 7.17817 15.0011 7.0712V6.36851C15.0011 6.2296 15.0773 5.99339 15.3692 5.98312C17.6177 6.07525 19.7503 7.00547 21.3475 8.59077C22.9447 10.1761 23.8908 12.3017 23.9998 14.5494C24.004 14.6598 23.9643 14.7673 23.8893 14.8484C23.8143 14.9295 23.7101 14.9775 23.5998 14.9818H23.583L22.8895 14.9851ZM14.9978 8.6609C14.9978 8.60601 15.0086 8.55165 15.0297 8.50096C15.0507 8.45026 15.0816 8.40421 15.1204 8.36545C15.1593 8.32668 15.2054 8.29597 15.2562 8.27506C15.3069 8.25415 15.3613 8.24347 15.4162 8.24361C15.4256 8.24308 15.4349 8.24308 15.4443 8.24361C17.0792 8.35106 18.6193 9.04889 19.778 10.2072C20.9367 11.3655 21.6351 12.9054 21.7431 14.5402C21.7503 14.6508 21.7135 14.7597 21.6407 14.8432C21.5679 14.9266 21.4649 14.9779 21.3544 14.9856H21.3269H20.642C20.5427 14.9908 20.4453 14.9567 20.371 14.8906C20.2966 14.8246 20.2513 14.7319 20.2447 14.6327C20.1595 13.3698 19.6214 12.1801 18.7293 11.2822C17.8371 10.3843 16.6509 9.83853 15.3886 9.7452C15.2838 9.73835 15.1855 9.69196 15.1135 9.6154C15.0416 9.53884 15.0014 9.43783 15.0011 9.33277L14.9978 8.6609ZM19.0642 14.9851H18.3783C18.0967 14.9851 17.9956 14.7408 17.981 14.6213C17.8997 13.9568 17.5987 13.3385 17.1259 12.8646C16.6532 12.3906 16.0356 12.0881 15.3713 12.0051C15.2694 11.9935 15.1753 11.9449 15.1068 11.8684C15.0384 11.792 15.0004 11.6931 15 11.5906V10.9187C14.9997 10.8641 15.0102 10.81 15.0308 10.7595C15.0514 10.7089 15.0818 10.6629 15.1202 10.6241C15.1586 10.5853 15.2043 10.5545 15.2546 10.5333C15.3049 10.5122 15.3589 10.5011 15.4135 10.5009C15.4268 10.5001 15.4402 10.5001 15.4535 10.5009C16.486 10.6055 17.4508 11.0634 18.1847 11.7973C18.9187 12.5311 19.3767 13.4958 19.4815 14.5283C19.4916 14.6379 19.4577 14.747 19.3874 14.8317C19.317 14.9163 19.216 14.9695 19.1064 14.9797C19.0932 14.9805 19.0801 14.9805 19.0669 14.9797L19.0642 14.9851ZM1.11003 8.99656C1.30462 8.99656 1.46462 9.09008 1.50246 9.3825C1.5982 11.2357 2.37687 12.9879 3.68825 14.3008C4.99963 15.6138 6.7508 16.3946 8.60391 16.4926C8.71066 16.4982 8.81123 16.5444 8.88492 16.6218C8.95862 16.6992 8.99985 16.8019 9.00012 16.9088V17.6115C9.00012 17.751 8.92391 17.9872 8.63202 17.9969C6.38339 17.9052 4.2505 16.9752 2.65306 15.39C1.05562 13.8047 0.109309 11.679 0.000328801 9.43115C-0.00184366 9.37653 0.00676589 9.32201 0.0256657 9.27071C0.0445655 9.21942 0.0733854 9.17235 0.110479 9.13219C0.147573 9.09204 0.192214 9.05958 0.241853 9.03668C0.291491 9.01378 0.345155 9.00088 0.399779 8.99873H0.417076L1.11003 8.99656ZM9.00174 15.3208C9.0016 15.3756 8.99065 15.4299 8.96952 15.4806C8.94839 15.5312 8.9175 15.5772 8.8786 15.6159C8.8397 15.6546 8.79356 15.6852 8.74281 15.7061C8.69206 15.727 8.6377 15.7376 8.58283 15.7375H8.55527C6.92104 15.6297 5.38159 14.932 4.22327 13.7742C3.06494 12.6164 2.36659 11.0772 2.25811 9.44304C2.25422 9.38834 2.26114 9.33341 2.27848 9.28139C2.29582 9.22937 2.32325 9.18127 2.3592 9.13986C2.39514 9.09844 2.43889 9.06452 2.48796 9.04002C2.53702 9.01553 2.59043 9.00094 2.64513 8.99711H3.35917C3.45867 8.99193 3.55619 9.0262 3.63057 9.09248C3.70495 9.15877 3.75019 9.25172 3.75646 9.35115C3.84178 10.614 4.37993 11.8036 5.27204 12.7015C6.16415 13.5994 7.3503 14.1452 8.61256 14.2386C8.71739 14.2455 8.81572 14.2919 8.88766 14.3684C8.9596 14.445 8.9998 14.546 9.00012 14.651L9.00174 15.3208ZM4.93535 8.99656H5.62182C5.90344 8.99656 6.00451 9.24088 6.01911 9.3598C6.1005 10.0243 6.40144 10.6426 6.87421 11.1167C7.34697 11.5907 7.96448 11.8933 8.62878 11.9765C8.73066 11.988 8.82476 12.0366 8.89321 12.1129C8.96167 12.1892 8.99971 12.288 9.00012 12.3905V13.0624C9.00027 13.1726 8.95679 13.2783 8.87921 13.3565C8.80162 13.4347 8.69623 13.479 8.58608 13.4797C8.57256 13.4797 8.55959 13.4797 8.54662 13.4797C7.51395 13.375 6.5491 12.9169 5.8151 12.183C5.0811 11.4491 4.62295 10.4843 4.51806 9.45169C4.51302 9.39713 4.51882 9.34212 4.53514 9.28982C4.55146 9.23751 4.57797 9.18896 4.61314 9.14695C4.64831 9.10494 4.69145 9.07031 4.74008 9.04506C4.7887 9.01981 4.84184 9.00443 4.89643 8.99981C4.9094 8.99981 4.92238 8.99981 4.93589 8.99981L4.93535 8.99656ZM9.00391 22.8882C9.00391 22.6936 9.09742 22.5336 9.38984 22.4963C11.2424 22.4004 12.9939 21.622 14.3067 20.3114C15.6194 19.0007 16.4005 17.2505 16.4994 15.398C16.5047 15.2912 16.5508 15.1904 16.6283 15.1165C16.7057 15.0427 16.8086 15.0014 16.9156 15.0013H17.6183C17.7572 15.0013 17.9934 15.0775 18.0037 15.3699C17.9114 17.6184 16.981 19.7509 15.3956 21.3479C13.8102 22.9449 11.6846 23.8908 9.43687 23.9995C9.32654 24.0036 9.21908 23.9638 9.13803 23.8888C9.05698 23.8138 9.00895 23.7098 9.00445 23.5995V22.8882H9.00391ZM15.3281 14.9964C15.3829 14.9964 15.4373 15.0073 15.4879 15.0283C15.5386 15.0494 15.5846 15.0802 15.6233 15.1191C15.6621 15.1579 15.6927 15.2041 15.7136 15.2548C15.7344 15.3056 15.745 15.3599 15.7448 15.4148C15.7448 15.424 15.7448 15.4332 15.7448 15.4429C15.6376 17.0779 14.94 18.6182 13.7818 19.7771C12.6235 20.936 11.0837 21.6346 9.44876 21.7428C9.33813 21.7502 9.22906 21.7135 9.14548 21.6406C9.06188 21.5678 9.01059 21.4647 9.00282 21.3541C9.00282 21.3449 9.00282 21.3358 9.00282 21.3266V20.6417C8.99764 20.5424 9.03176 20.445 9.09782 20.3707C9.16387 20.2963 9.25655 20.251 9.35579 20.2444C10.6185 20.1593 11.8082 19.6213 12.7061 18.7294C13.6041 17.8375 14.1501 16.6516 14.2438 15.3894C14.2505 15.2845 14.2968 15.186 14.3734 15.114C14.45 15.0419 14.5511 15.0016 14.6562 15.0013L15.3281 14.9964ZM9.00391 19.0623V18.378C9.00391 18.0969 9.24876 17.9953 9.36768 17.9812C10.0322 17.8998 10.6504 17.5988 11.1245 17.126C11.5985 16.6533 11.9011 16.0358 11.9844 15.3716C11.9961 15.2697 12.0448 15.1756 12.1212 15.1072C12.1976 15.0388 12.2964 15.0007 12.399 15.0002H13.0708C13.181 14.9998 13.2868 15.0431 13.365 15.1206C13.4433 15.1982 13.4876 15.3036 13.4881 15.4137C13.4881 15.4274 13.4881 15.4409 13.4881 15.4543C13.383 16.4868 12.9248 17.4514 12.1908 18.1852C11.4568 18.9189 10.4921 19.3769 9.45957 19.4817C9.40503 19.4867 9.35004 19.4809 9.29777 19.4645C9.24549 19.4482 9.19697 19.4217 9.15498 19.3865C9.11298 19.3513 9.07835 19.3082 9.05308 19.2596C9.0278 19.211 9.01238 19.1579 9.00769 19.1034C9.00689 19.0902 9.00689 19.0771 9.00769 19.0639L9.00391 19.0623Z" fill="#FF5C00"/>
</g>
<defs>
<clipPath id="clip0">
<rect width="24" height="23.9995" fill="white"/>
</clipPath>
</defs>
</svg>
