<svg width="24" height="24" fill="none" xmlns="http://www.w3.org/2000/svg"><path d="M15.63 11.346a.67.67 0 0 0-.122-.363c-.114-.162-.345-.343-.785-.343 0 0-.264 0-.303-.326a.138.138 0 0 1 .048-.12l6.91-5.705L9.076 9.23H0l6.857 5.143s1.412-1.513 3.53-1.311c0 0-.202 1.714 1.915 2.319l.784.697c.082.073.154.156.214.249l.818 1.273h3.025l-.815-2.284a6.613 6.613 0 0 1-.294-1.128c-.14-.815-.373-2.25-.404-2.84Zm-.706 1.513-1.109-.504c.12-.392.154-.804.101-1.21 0 0 1.21.504 1.008 1.714Z" fill="#59298D"/><path d="m18.957 23.246-7.26-5.244-7.26 5.345 2.31-7.209a3.047 3.047 0 0 1 2.933-2.17s.605 1.311 1.715 1.916c0 0 1.109.605 1.411 1.614l1.009 1.008h3.63l1.512 4.74Zm-3.126-13.11 1.009-.907H24l-7.06 4.941s-.504-2.118-.504-3.227c0-1.11 0-.201-.604-.807ZM11.697.96l-2.32 7.26 4.337-1.714L11.697.96Z" fill="#CCC"/></svg>