<svg width="24" height="24" fill="none" xmlns="http://www.w3.org/2000/svg"><g clip-path="url(#a)" fill-rule="evenodd" clip-rule="evenodd"><path d="M4.85 9.516a1.292 1.292 0 0 1 0-1.833L12.14.379a1.315 1.315 0 0 1 1.841 0 1.315 1.315 0 0 1 0 1.841L6.684 9.516a1.292 1.292 0 0 1-1.834 0ZM18.02 14.476a1.3 1.3 0 0 1 0 1.84l-7.29 7.297a1.299 1.299 0 1 1-1.84-1.834l7.296-7.303a1.3 1.3 0 0 1 1.833 0ZM4.378 16.023a1.315 1.315 0 0 1 0-1.841L9.02 9.538a1.292 1.292 0 0 1 2.21.921c0 .344-.135.675-.376.92l-4.642 4.643a1.3 1.3 0 0 1-1.834 0Z" fill="#242328"/><path d="M18.491 7.961a1.3 1.3 0 0 1 0 1.834l-4.642 4.642a1.3 1.3 0 1 1-1.834-1.841l4.642-4.643a1.293 1.293 0 0 1 1.834 0" fill="#A573FF"/></g><defs><clipPath id="a"><path fill="#fff" d="M0 0h24v24H0z"/></clipPath></defs></svg>