<svg width="24" height="24" fill="none" xmlns="http://www.w3.org/2000/svg"><g clip-path="url(#a)" fill-rule="evenodd" clip-rule="evenodd"><path d="M4.397 2.107.02 11.352a.173.173 0 0 0 .035.207l11.819 11.393a.184.184 0 0 0 .247 0L23.945 11.56a.174.174 0 0 0 .036-.207l-4.378-9.245A.162.162 0 0 0 19.446 2H4.552a.175.175 0 0 0-.156.107h.001Z" fill="url(#b)"/><path d="M13.52 12.299c-.084.007-.523.035-1.499.035-.778 0-1.33-.021-1.528-.035-3.005-.135-5.247-.662-5.247-1.288s2.242-1.16 5.247-1.294v2.055c.197.014.758.05 1.535.05.934 0 1.4-.043 1.486-.05V9.717c2.998.135 5.24.662 5.24 1.287 0 .626-2.236 1.16-5.233 1.295Zm0-2.788V7.668h4.188V4.86H6.307v2.81h4.186V9.51c-3.401.158-5.961.832-5.961 1.65s2.56 1.486 5.961 1.65v5.896h3.028V12.81c3.394-.157 5.948-.832 5.948-1.642 0-.81-2.554-1.501-5.948-1.657Z" fill="#fff"/></g><defs><linearGradient id="b" x1="-.38" y1="12.132" x2="22.898" y2="12.132" gradientUnits="userSpaceOnUse"><stop stop-color="#D8B35D"/><stop offset="1" stop-color="#F5E7BF"/></linearGradient><clipPath id="a"><path fill="#fff" d="M0 0h24v24H0z"/></clipPath></defs></svg>