<svg width="24" height="24" fill="none" xmlns="http://www.w3.org/2000/svg"><path fill-rule="evenodd" clip-rule="evenodd" d="M12 0c6.626 0 12 5.374 12 12s-5.374 12-12 12S0 18.626 0 12 5.374 0 12 0Z" fill="#383B4A"/><path fill-rule="evenodd" clip-rule="evenodd" d="m18.727 12.732-.49.49c-5.563-5.54-11.733-2.46-13.207-1.594a1.07 1.07 0 0 1 .264-.432l5.948-5.947a1.085 1.085 0 0 1 1.535 0l5.948 5.947a1.085 1.085 0 0 1 .002 1.536ZM14.127 17.333l-1.347 1.346a1.086 1.086 0 0 1-1.536 0l-1.286-1.286c2.069-1.464 3.838-.308 4.169-.06Z" fill="#fff"/><path fill-rule="evenodd" clip-rule="evenodd" d="M17.935 13.524 16.4 15.06c-4.565-4.234-9.144-1.507-9.83-1.056l-.339-.339a.042.042 0 0 0 .012-.01c5.981-4.794 11.187-.566 11.693-.131Z" fill="#fff"/><path fill-rule="evenodd" clip-rule="evenodd" d="m8.57 16.008-.369-.37c3.55-3.235 7.45-.482 7.827-.204l-1.57 1.57c-2.81-2.705-5.417-1.291-5.887-.996Z" fill="#fff"/></svg>