<svg width="24" height="24" fill="none" xmlns="http://www.w3.org/2000/svg"><path d="M22.8.742a.175.175 0 0 0-.162.108l-7.483 15.343c-.647 1.322-2.521 1.322-3.155 0L4.544.93a.348.348 0 0 0-.297-.188H.364a.329.329 0 0 0-.297.472L10.382 22.18c.701 1.416 2.723 1.402 3.411-.027L23.852.998a.178.178 0 0 0-.162-.256h-.89Z" fill="url(#a)"/><path opacity=".2" d="M9.465 20.333.472 2.05 6.93 9.533l2.535 10.8ZM11.137 14.414 6.93 9.533 5.231 2.36l5.906 12.054Z" fill="#fff"/><path opacity=".1" d="M6.93 9.533.472 2.05l-.405-.822A.329.329 0 0 1 .364.756h3.883c.121 0 .243.067.297.189l.7 1.429 1.686 7.16Z" fill="#fff"/><defs><linearGradient id="a" x1="3.084" y1="3.018" x2="19.99" y2="14.741" gradientUnits="userSpaceOnUse"><stop stop-color="#B290D8"/><stop offset="1" stop-color="#26BFE2"/></linearGradient></defs></svg>