<svg width="24" height="24" fill="none" xmlns="http://www.w3.org/2000/svg"><path d="M12 24c6.627 0 12-5.373 12-12S18.627 0 12 0 0 5.373 0 12s5.373 12 12 12Z" fill="#0093DD"/><path fill-rule="evenodd" clip-rule="evenodd" d="m10.125 12 3.9 3.975L16.5 13.5c.45-.45 1.125-.45 1.5 0 .45.45.45 1.2 0 1.65l-3.225 3.3c-.45.45-1.125.45-1.575 0l-4.65-4.8v2.85c0 .6-.525 1.125-1.125 1.125S6.3 17.1 6.3 16.5v-9c0-.6.525-1.125 1.125-1.125S8.55 6.9 8.55 7.5v2.85l4.65-4.8c.45-.45 1.125-.45 1.575 0L18 8.85c.45.45.45 1.2 0 1.65-.45.45-1.125.45-1.5 0l-2.475-2.55-3.9 4.05Zm3.9-1.125c.6 0 1.125.525 1.125 1.125s-.525 1.125-1.125 1.125S12.9 12.6 12.9 12s.525-1.125 1.125-1.125Z" fill="#fff"/></svg>