<svg width="24" height="24" fill="none" xmlns="http://www.w3.org/2000/svg"><g clip-path="url(#a)"><path d="M.037 12.515H0v-1.119h.037a.188.188 0 0 1 .063.147c.012.275.012.55 0 .826a.185.185 0 0 1-.063.146Z" fill="#FEF5F6"/><path d="M9.778 7.846c.484.175.989.282 1.485.415a5101.628 5101.628 0 0 0 12.555 3.345c.137.036.19.095.18.241-.014.228-.002.456-.01.684-.005.15-.056.214-.233.16-.453-.135-.915-.244-1.371-.368-.11-.03-.16-.015-.123.11.006.02.007.04.012.06.102.365.035.297.387.31.384.013.769.034 1.153.042.126.003.154.059.141.166-.03.26-.056.52-.089.779-.012.1-.065.129-.174.113-.313-.044-.632 0-.945-.056-.128-.023-.149.031-.118.15.066.26.12.523.175.785.023.11.083.14.19.141.17.002.341.026.513.033.094.003.117.03.087.125-.087.269-.164.54-.246.81-.014.045-.023.109-.084.101-.215-.025-.147.11-.126.216.013.06.047.119.023.181a9.311 9.311 0 0 1-.712 1.495c-.107-.45-.205-.852-.299-1.256l-.805-3.5c-.075-.33-.163-.655-.227-.986a.243.243 0 0 0-.213-.213c-.266-.066-.533-.131-.795-.212-.17-.053-.172.007-.14.145.183.77.36 1.542.537 2.313.371 1.602.743 3.205 1.116 4.807a.255.255 0 0 1-.036.233c-.212.272-.42.546-.655.798-.107.114-.137.089-.17-.053-.28-1.221-.566-2.44-.85-3.66-.268-1.16-.536-2.32-.802-3.481-.102-.443-.21-.884-.305-1.328a.184.184 0 0 0-.152-.164c-.286-.072-.572-.143-.856-.225-.159-.047-.169 0-.135.143.224.938.44 1.876.658 2.815l1.365 5.894c.01.06.017.122.02.184a.09.09 0 0 1-.09.036c-.366-.096-.743-.16-1.08-.35a.66.66 0 0 1-.08-.25c-.064-.306-.07-.31-.38-.232-.171.043-.342.09-.515.126-.342-.055-.633-.244-.95-.366a4.22 4.22 0 0 1-.475-.238c-.068-.037-.16-.058-.155-.166.062-.078.155-.084.24-.106.533-.137 1.071-.252 1.603-.392.054-.012.107-.027.159-.044.052-.02.106-.042.098-.113a.121.121 0 0 0-.105-.112c-.1-.026-.202-.041-.305-.045-.372.006-.74-.037-1.111-.047-.179 0-.357-.011-.535-.031-.353-.049-.697.015-1.037.116a1.5 1.5 0 0 1-.321.07.464.464 0 0 1-.268-.097 22.14 22.14 0 0 1-1.62-1.141.882.882 0 0 1-.165-.155c-.043-.058-.011-.087.042-.107.427-.056.85.018 1.274.036.376.016.755.04 1.13.055.7.03 1.398.095 2.1.097.144 0 .285.04.43.038.133-.001.19-.052.156-.191-.047-.195-.1-.388-.14-.584a.2.2 0 0 0-.217-.174c-.584-.02-1.166-.055-1.748-.089-.692-.04-1.386-.05-2.077-.109-.335-.028-.672-.035-1.008-.045-.378-.011-.753-.057-1.13-.057a.224.224 0 0 1-.134-.05c-.34-.318-.687-.632-.972-1.006-.043-.057-.08-.123.026-.16.392-.033.783.015 1.173.037.35.02.7.04 1.05.056.714.031 1.428.065 2.142.102.68.033 1.36.044 2.038.11.124.01.248.01.372.002.105-.005.148-.058.128-.162-.04-.21-.09-.419-.152-.624-.039-.13-.147-.157-.262-.157-.268-.002-.536-.034-.803-.04-1.004-.02-2.005-.094-3.007-.14-.948-.042-1.896-.08-2.842-.15-.282-.022-.298-.008-.332.268a.216.216 0 0 1-.067.168c-.102-.037-.096-.13-.096-.208 0-1.351-.018-2.703.008-4.053.028-.15.185-.165.267-.259.029-.033.096-.045.075-.105-.014-.04-.066-.04-.103-.053-.084-.03-.2 0-.231-.126-.015-.354-.047-.708.018-1.06a.036.036 0 0 1 .058-.015Z" fill="#ABACAC"/><path d="M10.287 14.306c.325.396.68.768 1.06 1.112.215.091.344.288.511.436.255.224.542.412.752.685.623.53 1.292 1.002 2 1.411.233.065.42.22.628.334.196.107.39.22.593.317.066.021.12.066.154.127.503.275 1.026.51 1.565.706.35.08.693.175 1 .37.375.14.761.251 1.154.335.274.113.572.14.897.237-.165.158-.313.305-.466.446-.471.432-.472.431-1.072.258-7.16-2.062-12.54-7.816-14.135-15.117a21.886 21.886 0 0 1-.424-3.136.345.345 0 0 1 .158-.346c.283-.203.559-.418.88-.616.005 2.06.364 4.102 1.061 6.04v-.209c0-2.079-.001-4.158-.004-6.237 0-.152.039-.24.181-.298.284-.118.562-.25.843-.377a.412.412 0 0 1 .031.24l.002 9.283a.432.432 0 0 0 .018.183c.293.597.64 1.166 1.036 1.7v-.214c0-3.772-.002-7.543-.004-11.315 0-.18.033-.267.227-.304.274-.052.544-.136.822-.178.068.08.052.18.057.274.02.375-.02.748-.04 1.122.048.42.071.84-.017 1.257l-.001 1.13c.03.046.047.1.049.154.005.334.005.668 0 1.002a.61.61 0 0 1-.05.197l.002 1.173c.029.046.046.1.048.155.005.335.005.67 0 1.005a.584.584 0 0 1-.05.198l.014 1.13a.44.44 0 0 1-.002.405l-.01 4.245c.004.027.01.053.021.077.213.16.387.367.51.603Z" fill="#EE1D55"/><path d="m.036 12.515.001-1.12c-.029-.525.283-.91.54-1.32.062-.098.12-.198.18-.298.082-.26.26-.464.417-.677a.391.391 0 0 0 .062-.398c-.05-.147-.13-.29-.09-.456a1.237 1.237 0 0 0-.055-.22c-.2-.441-.118-.85.116-1.252.161-.279.285-.579.487-.884.742 3.955 2.353 7.473 4.87 10.56 2.519 3.092 5.639 5.376 9.352 6.9-.51.179-1.033.323-1.564.43a.294.294 0 0 1-.195-.048c-.285-.136-.57-.272-.855-.41-.213-.037-.384-.167-.568-.267-.547-.298-1.072-.634-1.597-.969-.369-.265-.753-.51-1.112-.79-.08-.077-.187-.122-.245-.222-.007-.01-.013-.032-.018-.032-.019 0-.012.006 0 .02a.19.19 0 0 1 .038.095c.01.71.009 1.421-.001 2.13a3.472 3.472 0 0 1-.05.49c-.322-.03-.628-.132-.941-.203-.13-.03-.098-.13-.098-.215-.001-.994-.004-1.988.003-2.982a.391.391 0 0 0-.153-.333c-.296-.256-.581-.524-.874-.79-.056.07-.03.141-.03.205a1365.84 1365.84 0 0 0-.002 3.5c0 .228-.001.23-.217.136-.227-.098-.448-.208-.677-.302-.128-.053-.161-.134-.16-.27.005-1.4.001-2.802.005-4.204a.454.454 0 0 0-.122-.332c-.301-.337-.591-.684-.914-1.06-.005.11-.011.18-.011.252 0 1.574-.002 3.148-.005 4.722 0 .047.083.164-.07.152a1.442 1.442 0 0 1-.01-.309c0-1.503-.003-3.006.004-4.51a.836.836 0 0 0-.208-.584 11.435 11.435 0 0 1-.767-1.05 3.803 3.803 0 0 0-.317-.527l-.012-.017c-.056-.063-.069-.193-.168-.178-.078.012-.084.129-.117.203-.147.322-.29.646-.425.974-.135.36-.276.716-.393 1.083-.05.15-.105.299-.144.452-.14.472-.264.947-.378 1.425-.017.069-.01.157-.105.182-.29-.342-.516-.728-.753-1.106-.054-.087-.02-.158 0-.235.38-1.402.915-2.757 1.593-4.042a.308.308 0 0 0 .002-.34c-.17-.297-.32-.607-.479-.912a.524.524 0 0 1-.09-.212c-.019.08.081.132.053.212a21.56 21.56 0 0 0-1.797 4.034c-.131-.2-.184-.407-.255-.604-.345-.954-.34-.954.077-1.882.396-.887.85-1.747 1.36-2.574a.325.325 0 0 0 .027-.342c-.14-.32-.265-.647-.41-1.004a23.543 23.543 0 0 0-1.673 2.923l-.062-.598Z" fill="#EE1D55"/><path d="M3.5 3.523c.793 8.854 6.872 16.076 15.05 18.51-.113.132-.264.197-.4.278-.792.473-.797.483-1.65.13C9.753 19.653 5.321 14.755 3.202 7.746a20.21 20.21 0 0 1-.627-3.014.23.23 0 0 1 .03-.196c.28-.353.579-.69.895-1.012Z" fill="#EE1D55"/><path d="M21.04 4.067c.196.264.196.264-.063.466l-.41.313c-.125.005-.044.078-.04.125.07.288.146.573.206.863.035.171.078.188.214.072.26-.225.54-.427.802-.65.105-.09.158-.07.222.036.125.206.252.41.385.611.075.113.073.188-.049.271-.17.116-.327.251-.486.382-.034.027-.094.051-.072.11.017.044.068.038.108.049.298.08.594.169.894.24a.316.316 0 0 1 .25.214c.108.29.225.578.337.867.016.043.057.094.026.136-.043.06-.1.01-.15-.003a4530.178 4530.178 0 0 1-9.571-2.549c-.008-.053.034-.071.07-.087a10.26 10.26 0 0 1 1.638-.585c.119.02.212.114.333.111-.045-.05-.22.027-.154-.149.192-.107.39-.194.618-.169.093.057.104.158.124.25a.284.284 0 0 0 .242.244c.268.054.523.157.812.204-.015-.229-.085-.435-.13-.645-.02-.097-.076-.195-.015-.299.34-.137.704-.206 1.07-.203.105.205.12.434.174.652.054.213.11.427.148.644a.306.306 0 0 0 .25.266c.22.055.44.105.658.168.131.038.165-.01.134-.133-.121-.48-.228-.964-.338-1.448-.024-.11-.138-.148-.155-.253a.167.167 0 0 1 .127-.059c.536-.039 1.073-.056 1.61-.09a.821.821 0 0 1 .18.028ZM12.181 6.314l3.181.855c2.725.73 5.45 1.457 8.176 2.184.131.035.196.084.217.226.04.258.088.514.13.772.028.168.006.194-.156.149-.608-.17-1.22-.326-1.83-.49-3.627-.968-7.254-1.937-10.88-2.907l-.14-.033c-.014-.064.039-.082.075-.108.351-.241.73-.437 1.1-.645.037-.021.083-.056.127-.003Z" fill="#ABACAC"/><path d="M12.182 6.314c-.45.225-.885.478-1.304.756l-1.035.687c-.055.008-.074-.024-.073-.07.01-.394-.027-.787.02-1.18a19.937 19.937 0 0 1 8.203-3.225c.646-.1 1.296-.16 1.948-.204a.292.292 0 0 1 .234.099c.305.28.586.584.864.89-.214.082-.44.046-.66.06-.414.024-.829.032-1.24.085-.094.11-.23.081-.347.094-.181.02-.364.096-.548.016-.355.044-.708.11-1.055.197-.329.142-.68.226-1.037.248-.213.035-.421.092-.622.17a.155.155 0 0 1-.162.046c-.59.174-1.166.387-1.726.638-.503.196-.99.428-1.46.693ZM9.87 3.972a20.514 20.514 0 0 1 3.684-1.733 21.993 21.993 0 0 1 3.72-.981.294.294 0 0 1 .198.017c.475.243.931.519 1.366.826-.405.06-.78.11-1.155.17a20.777 20.777 0 0 0-7.677 2.846c-.059.036-.12.068-.179.101-.09-.008-.057-.08-.057-.124-.003-.316.002-.632-.004-.948a.155.155 0 0 1 .103-.174ZM9.83 1.578A21.842 21.842 0 0 1 13.37.071c.21-.07.42.021.627.054.553.086 1.098.218 1.63.394A23.197 23.197 0 0 0 9.94 2.713c-.048.026-.1.047-.149.07-.05-.375-.012-.751-.02-1.127a.088.088 0 0 1 .059-.078Z" fill="#EE1D55"/><path d="M11.154 22.048a52.74 52.74 0 0 0 2.148 1.274l-.048.502c-.041.055-.047.134-.154.135-.26.003-.52.023-.78.039-.122.007-.19 0-.151-.166.06-.267.084-.542.128-.813.018-.113-.01-.158-.128-.128-.28.071-.559.14-.838.209a.16.16 0 0 0-.143.166c-.014.185-.056.367-.077.55-.012.105-.057.15-.16.14-.271-.03-.544-.06-.815-.092-.062-.008-.102-.042-.079-.115a.1.1 0 0 0 .006-.02c.03-.323.03-.323-.267-.27-.06-.27-.012-.543-.027-.815-.004-.075 0-.151 0-.226a.114.114 0 0 1 .094-.097c.39-.12.788-.213 1.19-.28a.22.22 0 0 1 .101.007Z" fill="#ABACAC"/><path d="M9.752 1.563 9.754.179A8.612 8.612 0 0 1 11.75.001l-1.193.79c-.178.118-.35.245-.535.347-.174.096-.274.216-.245.422-.005.026-.013.026-.024.003Z" fill="#ABABAC"/><path d="M1.146 8.246c.22.442.215.851-.163 1.218-.084.097-.16.202-.226.313l-.571.349c.062-.475.162-.944.3-1.404.026-.09.112-.117.177-.162.158-.11.322-.21.483-.314Z" fill="#ABACAC"/><path d="M9.87 3.972c-.03.05-.084.083-.083.156.005.34.002.68.005 1.02 0 .024.023.047.036.07l-.075.097V3.963c.037.03.077.015.116.01Z" fill="#EF4464"/><path d="M9.79 6.508c0 .347-.002.695 0 1.043 0 .072-.025.154.053.206l-.065.089-.012-.002-.013.002.002-1.358a.054.054 0 0 1 .035.02ZM9.752 1.562a.025.025 0 0 0 .024-.002l.054.018c-.082.17-.033.35-.039.526-.008.226 0 .453 0 .679l-.036.049-.003-1.27Z" fill="#EF4263"/><path d="M20.527 4.971c-.07-.06-.027-.148-.057-.223.081-.008.045.088.098.098l-.04.125Z" fill="#B1B2B2"/><path d="M4.504 15.543c.26.343.503.7.785 1.024.2.232.25.475.247.77-.011 1.495-.005 2.99-.007 4.485 0 .078.034.167-.045.231a8.41 8.41 0 0 1-.9-.636.23.23 0 0 1-.09-.212c.001-.26-.004-.52-.006-.78a.294.294 0 0 1-.05-.194 66.693 66.693 0 0 1 0-.981.584.584 0 0 1 .05-.218l-.001-1.338a.333.333 0 0 1-.05-.217c0-.45-.007-.898.004-1.347.015-.196-.058-.402.063-.587Z" fill="#ED1A47"/><path d="M4.488 16.125v1.57c-.602.477-1.202.956-1.81 1.427-.058.045-.112.195-.234.074.144-.54.25-1.091.438-1.62.166-.16.325-.331.547-.419a.822.822 0 0 1 .265-.02c-.1-.008-.2 0-.298.023-.128.016-.258.049-.369-.052.113-.36.245-.713.395-1.06.357-.06.722-.033 1.066.077ZM4.488 19.033v1.392c-.234.02-.455.1-.681.153a.2.2 0 0 1-.223-.05 52.956 52.956 0 0 0-.661-.71c-.078-.083-.043-.113.049-.13.107-.022.212-.06.32-.074.452-.056.873-.26 1.196-.581Z" fill="#ABACAC"/><path d="m9.795 22.383.001 1.077c-.04.102.03.22-.046.316l.008-2.716c.006-.022.017-.025.032-.007l.247.197c-.164.104-.19.258-.192.441-.001.23.057.469-.05.692Z" fill="#C1A0A4"/><path d="M2.77 12.561c-.025-.07-.085-.125-.076-.238a.42.42 0 0 1 .113.238l-.019-.002-.019.002Z" fill="#EF3C60"/><path d="M10.287 14.306a4.738 4.738 0 0 1-.51-.602c.002-.042.006-.083.006-.124.004-.368.004-.373.38-.355 1.145.053 2.29.105 3.435.168.823.046 1.646.092 2.469.127.28.012.562.03.843.037.147.003.237.055.263.22.038.23.095.458.155.684.034.126.011.18-.13.173-.78-.042-1.562-.082-2.344-.12-.315-.016-.631-.025-.947-.042-1.014-.057-2.03-.09-3.046-.141-.19-.01-.381-.044-.574-.025ZM12.61 16.54c-.45-.34-.873-.715-1.263-1.122 1.063.034 2.125.088 3.187.156.329.02.659.02.988.043.65.045 1.303.065 1.954.088a.155.155 0 0 1 .176.15c.053.255.118.509.181.762.032.128-.01.176-.144.168-.67-.04-1.342-.075-2.013-.116-.288-.017-.576-.016-.865-.035-.733-.048-1.467-.065-2.201-.094ZM12.06 10.313c-.41.278-.78.607-1.168.91-.361.282-.717.57-1.108.88V10.83c0-.08.054-.122.108-.165.496-.392.993-.783 1.486-1.18a.177.177 0 0 1 .202-.042.554.554 0 0 0 .08.016c.552.144.552.144.448.709a.988.988 0 0 0-.008.103.071.071 0 0 1-.04.04ZM13.598 12.348c-.206-.013-.41-.03-.616-.037-.101-.003-.124-.029-.107-.135.099-.617.18-1.238.282-1.855.073-.444.086-.45.519-.32.182.055.431.034.531.18.094.137-.025.354-.048.536-.06.477-.152.95-.205 1.429-.03.265-.203.197-.356.202ZM15.985 18.727c-.48-.219-.94-.479-1.376-.777.194-.045.392-.078.581-.137.317-.099.635-.075.958-.049.418.034.837.038 1.256.058.177.021.355.031.534.03.18-.014.202.095.227.219.033.165-.116.133-.189.152-.632.16-1.266.311-1.9.466a.637.637 0 0 0-.091.038ZM16.275 10.829c-.08.51-.163 1.018-.24 1.529-.015.105-.073.125-.157.107a2.873 2.873 0 0 0-.679-.031c-.175.003-.235-.053-.206-.226.066-.394.124-.789.184-1.183.023-.15.047-.3.065-.45.012-.105.052-.145.163-.113.251.072.504.134.757.2a.132.132 0 0 1 .113.166Z" fill="#fff"/><path d="M18.55 19.804a7.247 7.247 0 0 1-1-.37c.242-.098.5-.132.748-.2a.117.117 0 0 1 .163.107c.027.154.059.308.089.463Z" fill="#FDFCFC"/><path d="M11.832 11.83c.038.426.015.445-.46.38.14-.141.295-.268.46-.38Z" fill="#F6F6F5"/><path d="m9.765 9.382.002-.406c.133.01.319.001.359.114.035.101-.163.15-.24.24-.032.035-.067.068-.121.052Z" fill="#FBF1F0"/><path d="m12.059 10.312.04-.04a2.381 2.381 0 0 1-.103.66c-.026-.211.03-.414.063-.62ZM12.32 12.256c-.098.073-.203.042-.343.055.127-.136.24-.064.343-.055Z" fill="#B0B1B1"/><path d="M16.91 12.736c-.024-.223-.174-.25-.356-.228.333-.066.38-.036.356.228Z" fill="#B2B3B3"/><path d="M16.673 11.64a.91.91 0 0 1-.11-.46c.073.142.11.3.11.46Z" fill="#B1B2B2"/><path d="M10.503 12.178a.304.304 0 0 1-.296.015c.11-.086.204-.039.296-.015Z" fill="#B0B1B1"/><path d="M18.895 11.411a.677.677 0 0 1 .392.085c-.121.016-.231-.019-.392-.085ZM17.477 11.016a.923.923 0 0 1-.433-.103.728.728 0 0 1 .433.103ZM22.959 15.332l.094.366c-.106-.1-.098-.233-.094-.367Z" fill="#B1B2B2"/><path d="M14.613 17.69h-.274v-.021h.274v.02Z" fill="#B5B6B6"/><path d="M15.03 17.727h-.242v-.02h.243v.02Z" fill="#B3B4B4"/><path d="M14.339 12.37a.44.44 0 0 1 .263 0 .429.429 0 0 1-.263 0Z" fill="#B4B4B5"/><path d="M12.753 12.3h-.233v-.02h.236l-.003.02ZM10.934 12.216H10.7c.073-.039.161-.039.234 0Z" fill="#B5B6B6"/><path d="M10.029 12.157a.267.267 0 0 1-.205.012c.073-.053.142-.012.205-.012Z" fill="#B5B6B7"/><path d="M8.894 12.553c.11.034.122.14.178.214-.11-.034-.122-.14-.178-.214Z" fill="#EE365D"/><path d="m7.096 9.229.098.206a.17.17 0 0 1-.098-.206Z" fill="#EE375E"/><path d="M7.465 10.094a.271.271 0 0 1-.085-.198.2.2 0 0 1 .085.198Z" fill="#EE365E"/><path d="M9.567 13.43a.205.205 0 0 1-.15-.151.24.24 0 0 1 .15.15Z" fill="#EE355D"/><path d="M9.279 13.053c-.065 0-.09-.035-.101-.093.07 0 .08.052.1.093Z" fill="#EF385E"/><path d="M6.86 8.732c-.048-.09-.1-.132-.07-.205.065.045.064.11.07.205Z" fill="#EF395E"/><path d="M6.853 8.67c.048.092.1.133.07.206-.066-.045-.064-.11-.07-.206Z" fill="#EE375D"/><path d="M9.795 22.383c-.003-.314-.002-.629-.01-.943-.006-.194.139-.165.251-.19l1.119.798-1.36.335Z" fill="#FFFDFD"/><path d="m4.21 15.042-.35-.007.135-.296a.872.872 0 0 1 .215.303Z" fill="#B4A9AA"/><path d="m7.624 19.152-.482-.485-.016.016.46.505.038-.036Z" fill="#EE355C"/><path d="m1.61 9.79-.127-.374.041-.015.132.368-.045.02Z" fill="#EE375E"/><path d="M8.788 20.247c.08.008.111.064.18.143a.237.237 0 0 1-.18-.143Z" fill="#EE365D"/><path d="M9.21 20.598c.094.005.136.072.208.17a.347.347 0 0 1-.208-.17Z" fill="#EE345C"/><path d="M2.395 11.686c-.098-.041-.08-.137-.102-.214.073.053.082.136.102.214Z" fill="#EE365E"/><path d="M9.21 20.598a.165.165 0 0 1-.15-.111.172.172 0 0 1 .15.111Z" fill="#EE375E"/><path d="M9.79 21.053a.06.06 0 0 1-.033.007c-.044-.027-.098-.045-.103-.115.078 0 .103.059.136.108Z" fill="#EF395E"/><path d="M2.396 11.686c.056.04.083.109.068.176a.188.188 0 0 1-.068-.176Z" fill="#EF385E"/><path d="m18.244 4.322.895-.11a.148.148 0 0 1 .17.123l.001.009c.125.548.258 1.094.384 1.642.023.097.012.163-.123.124-.282-.083-.568-.153-.851-.23-.072-.02-.15-.04-.168-.13-.092-.479-.242-.944-.308-1.428Z" fill="#fff"/><path d="M16.151 4.767a5.706 5.706 0 0 1 1.037-.248c.067.286.131.573.2.859.027.11.01.154-.116.116a12.216 12.216 0 0 0-.81-.216c-.141-.03-.216-.09-.234-.236a1.863 1.863 0 0 0-.077-.275Z" fill="#FFFEFE"/><path d="M15.367 4.983c.054-.015.098-.067.163-.047.017.126.167.044.212.15a.622.622 0 0 1-.375-.103Z" fill="#B1B2B1"/><path d="M20.197 6.294a.352.352 0 0 1 .327.085l-.327-.085Z" fill="#B1B1B1"/><path d="M20.413 4.453a.176.176 0 0 1 .062.187c-.076-.035-.073-.096-.062-.187ZM20.362 4.27c.044.027.064.059.046.098 0 .002-.028-.002-.03-.007-.007-.03-.011-.06-.016-.09ZM10.819 23.225c-.1.098-.24.054-.357.104.103-.084.228-.094.357-.104Z" fill="#B1B2B2"/><path d="m3.422 17.197.003-.08h.282c-.09.049-.197.026-.285.08Z" fill="#B6B6B7"/><path d="M4.213 17.175a.678.678 0 0 1-.331.008.682.682 0 0 1 .331-.008Z" fill="#B2B4B3"/></g><defs><clipPath id="a"><path fill="#fff" d="M0 0h24v24H0z"/></clipPath></defs></svg>