<svg width="24" height="24" fill="none" xmlns="http://www.w3.org/2000/svg"><path d="m6.228 2.136 11.767 6.79v6.927L0 5.463l5.767-3.327a.485.485 0 0 1 .461 0Z" fill="#3CA9E5"/><path d="m17.995 2-6 3.463 6 3.463V2Z" fill="#2853C3"/><path d="m17.995 2 5.772 3.327A.485.485 0 0 1 24 5.73v13.581l-6.005-3.458V2Z" fill="#1A4199"/><path d="m23.995 19.316-5.767 3.328a.484.484 0 0 1-.485 0L5.98 15.854V8.916l18.015 10.4Z" fill="#2853C3"/><path d="M0 5.463v13.582a.485.485 0 0 0 .233.417L6 22.789V8.917L0 5.463Z" fill="#60BEFF"/><path d="m6 22.78 5.995-3.464L6 15.853v6.926Z" fill="#3CA9E5"/></svg>