<svg width="24" height="24" fill="none" xmlns="http://www.w3.org/2000/svg"><path d="M15.614.565v4.308a7.99 7.99 0 0 1 0 14.24v4.29a11.994 11.994 0 0 0 8.354-11.412A11.995 11.995 0 0 0 15.614.565ZM8.354.58A11.984 11.984 0 0 0 0 11.991c0 5.223 3.381 9.839 8.354 11.42v-4.308a8 8 0 0 1-4.362-7.117 7.985 7.985 0 0 1 4.362-7.122V.58Z" fill="#3D92EF"/><path d="M11.982 0c-.88.005-1.757.11-2.615.308v4.138a7.92 7.92 0 0 1 2.615-.455c.89.004 1.775.156 2.614.45V.3A12.192 12.192 0 0 0 11.982 0Zm3.632.566v4.298V.566Zm-7.26.013v4.295V.579Zm3.628 7.232a4.16 4.16 0 0 0-2.615.93v6.496a4.17 4.17 0 0 0 2.615.929 4.16 4.16 0 0 0 2.614-.93V8.74a4.16 4.16 0 0 0-2.614-.929ZM8.354 9.926v4.12-4.12Zm7.26.005v4.12-4.12Zm0 9.172v4.3-4.3Zm-7.26.01v4.299-4.3Zm6.247.418a7.92 7.92 0 0 1-2.615.455 8.035 8.035 0 0 1-2.614-.45v4.142c.858.198 1.734.294 2.614.299.881-.005 1.757-.11 2.615-.308v-4.138Z" fill="#81BFFF"/><path d="M11.981 10.727c-.88.004-1.756.06-2.619.17v12.795c.858.106 1.739.161 2.62.166.88-.005 1.756-.06 2.614-.17V10.892a22.35 22.35 0 0 0-2.615-.165Zm3.632.312V23.54v-12.5Z" fill="#81BFFF"/></svg>