<svg width="24" height="24" viewBox="0 0 24 24" fill="none" xmlns="http://www.w3.org/2000/svg">
<path d="M15.6303 11.3464C15.6258 11.2161 15.5834 11.0899 15.5082 10.9834C15.3943 10.821 15.1634 10.6405 14.7227 10.6405C14.7227 10.6405 14.4595 10.6405 14.4202 10.3138C14.4152 10.2684 14.4329 10.2235 14.4676 10.1938L21.3782 4.48926L9.07563 9.22875H0L6.85714 14.3716C6.85714 14.3716 8.26891 12.859 10.3866 13.0607C10.3866 13.0607 10.1849 14.775 12.3025 15.38L13.0861 16.0768C13.1684 16.1497 13.2403 16.2335 13.2998 16.3259L14.1176 17.5985H17.1429L16.3281 15.3155C16.1969 14.9487 16.0983 14.5711 16.0336 14.1871C15.8945 13.3723 15.6605 11.9363 15.6303 11.3464ZM14.9244 12.859L13.8151 12.3548C13.935 11.9633 13.9694 11.5506 13.916 11.1447C13.916 11.1447 15.126 11.6489 14.9244 12.859Z" fill="#59298D"/>
<path d="M18.9575 23.2457L11.697 18.002L4.43652 23.3465L6.74678 16.1384C7.13532 14.8447 8.32943 13.9614 9.68022 13.9683C9.68022 13.9683 10.2853 15.2793 11.3945 15.8843C11.3945 15.8843 12.5038 16.4894 12.8063 17.4978L13.8147 18.5062H17.4449L18.9575 23.2457ZM15.8315 10.1364L16.8399 9.22887H23.9995L16.9407 14.17C16.9407 14.17 16.4365 12.0524 16.4365 10.9432C16.4365 9.83391 16.4365 10.7415 15.8315 10.1364ZM11.697 0.959961L9.3777 8.22047L13.7138 6.50618L11.697 0.959961Z" fill="#CCCCCC"/>
</svg>
