<svg width="24" height="24" viewBox="0 0 24 24" fill="none" xmlns="http://www.w3.org/2000/svg">
<path fill-rule="evenodd" clip-rule="evenodd" d="M24 12C24 18.6274 18.6274 24 12 24C5.37255 24 0 18.6274 0 12C0 5.37255 5.37255 0 12 0C18.6274 0 24 5.37255 24 12Z" fill="#527DB2"/>
<path fill-rule="evenodd" clip-rule="evenodd" d="M12.3974 8.45445C11.0516 8.45445 9.82478 8.9725 8.90476 9.8192V5.49316H7.23438V17.8443H8.90476V13.6176C8.90476 11.6917 10.4716 10.1248 12.3974 10.1248C14.3234 10.1248 15.8902 11.6917 15.8902 13.6176V17.8443H17.5606V13.6176C17.5606 10.7706 15.2445 8.45445 12.3974 8.45445Z" fill="#FFFFFE"/>
</svg>
