<svg width="24" height="24" fill="none" xmlns="http://www.w3.org/2000/svg"><path d="M12 24c6.627 0 12-5.373 12-12S18.627 0 12 0 0 5.373 0 12s5.373 12 12 12Z" fill="#F28F01"/><path fill-rule="evenodd" clip-rule="evenodd" d="m13.613 10.29-1.455-2.863c.303-.66.454-1.035.454-1.121 0-.31-.204-.536-.611-.681h4.46c-.549.247-1.038.866-1.465 1.857l-1.383 2.807Zm-2.187 4.445-.678 1.38h4.002c1.813 0 3.025-.34 3.636-1.02l-2.139 3.28H5.31c1.18-.227 2.372-1.65 3.574-4.27.405-.806.776-1.55 1.115-2.231l1.428 2.861Zm-7.676.453c.886-.526 4.125-6.13 4.125-7.706 0-.371-.224-.722-.672-1.052h3.483l3.025 5.941 2.934-5.941h3.605c-1.528.402-4.553 7.61-4.553 8.448 0 .165.03.268.092.31h-3.178L9.891 9.74l-2.688 5.447H3.75Z" fill="#fff"/></svg>