<svg width="24" height="24" fill="none" xmlns="http://www.w3.org/2000/svg"><path fill-rule="evenodd" clip-rule="evenodd" d="M12.034 4.225a3.39 3.39 0 0 0-3.39 3.389c0 .07.007.138.011.207l-.004-.007s-.061.97-.48 1.284c-.417.313-1.367.058-1.367.058l.001.002a3.39 3.39 0 1 0 1.527 2.83c0-.066-.006-.13-.01-.196l.004.008s.01-.97.529-1.313c.518-.342 1.432.032 1.432.032l-.004-.007c.511.31 1.11.492 1.751.492a3.39 3.39 0 0 0 0-6.78Z" fill="#FFE800"/><path fill-rule="evenodd" clip-rule="evenodd" d="M19.175 8.505a3.39 3.39 0 0 0-3.389 3.39c0 .07.006.138.01.206l-.004-.007s-.06.97-.479 1.284c-.342.257-1.04.132-1.282.079a3.39 3.39 0 0 0-5.329 2.778c0 .07.006.137.01.206l-.004-.007s-.06.97-.479 1.284c-.418.313-1.368.058-1.368.058l.002.003a3.39 3.39 0 1 0 1.527 2.83c0-.067-.007-.132-.01-.197l.004.008s.01-.97.528-1.313c.519-.342 1.432.032 1.432.032l-.004-.007c.512.31 1.11.492 1.752.492a3.39 3.39 0 0 0 3.389-3.39c0-.071-.006-.142-.01-.212.01-.212.082-.962.525-1.254.519-.343 1.433.031 1.433.031l-.005-.007c.512.31 1.11.492 1.752.492a3.39 3.39 0 1 0 0-6.78ZM8.297 3.428a3.428 3.428 0 1 1-6.856 0 3.428 3.428 0 0 1 6.856 0Z" fill="#FFE800"/></svg>