<svg width="24" height="24" fill="none" xmlns="http://www.w3.org/2000/svg"><path d="M22.895 7.012a2.716 2.716 0 0 1-2.125-2.098h1.58a.542.542 0 0 1 .544.537l.001 1.56Zm0 8.702a3.793 3.793 0 0 0-3.227 3.183H4.318a3.793 3.793 0 0 0-3.228-3.183V8.099a3.793 3.793 0 0 0 3.227-3.185h15.351a3.793 3.793 0 0 0 3.227 3.183v7.617Zm0 2.645a.542.542 0 0 1-.545.538h-1.579a2.716 2.716 0 0 1 2.126-2.096l-.002 1.558Zm-21.26.538a.542.542 0 0 1-.545-.538V16.8a2.716 2.716 0 0 1 2.125 2.097h-1.58ZM1.09 5.453a.542.542 0 0 1 .545-.54h1.58A2.716 2.716 0 0 1 1.09 7.013V5.453ZM22.35 3.84H1.635A1.626 1.626 0 0 0 0 5.453v12.906a1.626 1.626 0 0 0 1.635 1.614h20.716a1.626 1.626 0 0 0 1.635-1.614V5.453A1.626 1.626 0 0 0 22.35 3.84Z" fill="#D9A162"/><path d="M12.057 6.609a5.341 5.341 0 1 0 5.414 5.34 5.368 5.368 0 0 0-5.414-5.34Zm0 .947a4.391 4.391 0 1 1-4.452 4.39 4.427 4.427 0 0 1 4.452-4.388v-.002Z" fill="#5DB3ED"/><path d="M14.138 11.83h-1.853V9.767a.481.481 0 0 0-.962 0v2.302c0 .047.012.083.012.119a.48.48 0 0 0 .47.594h2.336a.475.475 0 1 0 0-.948" fill="#5DB3ED"/></svg>