<svg width="72" height="73" viewBox="0 0 72 73" fill="none" xmlns="http://www.w3.org/2000/svg">
<rect x="0.5" y="1" width="71" height="71" rx="7.5" fill="#A2EFE1"/>
<path d="M23.017 45.5H34.1903V42.4574H26.7074V28.0455H23.017V45.5ZM36.532 45.5H48.9751V42.483H41.6456V42.3636L44.1939 39.8665C47.782 36.5938 48.745 34.9574 48.745 32.9716C48.745 29.946 46.2734 27.8068 42.532 27.8068C38.8672 27.8068 36.353 29.9972 36.3615 33.4233H39.8643C39.8558 31.7528 40.9126 30.7301 42.5064 30.7301C44.0405 30.7301 45.1825 31.6847 45.1825 33.2188C45.1825 34.608 44.3303 35.5625 42.745 37.0881L36.532 42.8409V45.5Z" fill="black"/>
<rect x="0.5" y="1" width="71" height="71" rx="7.5" stroke="#9EFFEE"/>
</svg>
