<svg width="24" height="24" viewBox="0 0 24 24" fill="none" xmlns="http://www.w3.org/2000/svg">
<path d="M12 24C18.6274 24 24 18.6274 24 12C24 5.37258 18.6274 0 12 0C5.37258 0 0 5.37258 0 12C0 18.6274 5.37258 24 12 24Z" fill="#DF1A14"/>
<path d="M11.1448 8.64526C11.3751 8.57251 11.6368 8.70226 11.7321 8.92876C11.9623 9.45526 12.1686 9.99751 12.4071 10.5233C12.5496 10.839 13.0348 10.8795 13.2246 10.5885C13.5426 10.062 13.7968 9.50326 14.1066 8.96851C14.3608 8.63701 14.8213 8.79901 15.1708 8.76676C15.5361 8.74276 15.8061 9.20401 15.5991 9.51976C14.5986 11.3895 13.5906 13.2518 12.5901 15.1223C12.4228 15.462 11.8753 15.462 11.7246 15.1058C11.5018 14.5635 11.3271 13.9965 11.1126 13.4543C10.9851 13.098 10.4376 13.0418 10.2553 13.3815C9.94556 13.9403 9.67556 14.523 9.36581 15.0735C9.21506 15.324 8.89706 15.2835 8.65106 15.2835C8.41256 15.2678 8.12681 15.3405 7.94456 15.138C7.86472 15.0554 7.81439 14.9487 7.80137 14.8345C7.78835 14.7203 7.81337 14.605 7.87256 14.5065C8.81006 12.7335 9.76256 10.953 10.7001 9.16351C10.8111 8.96101 10.9063 8.70976 11.1448 8.64601V8.64526ZM7.87256 8.78326C8.15032 8.76706 8.4288 8.76706 8.70656 8.78326C9.01631 8.81551 9.21506 9.21226 9.06431 9.49576C8.13431 11.2523 7.19756 13.0005 6.26906 14.7495C6.15731 14.9445 6.07031 15.2033 5.83181 15.267C5.55431 15.3083 5.26856 15.2843 4.99031 15.2843C4.64906 15.3 4.36331 14.8545 4.56956 14.5553C5.53856 12.7418 6.50681 10.92 7.47581 9.09901C7.55531 8.94526 7.69031 8.79151 7.87331 8.78326H7.87256ZM17.7276 8.79901C18.0291 8.70976 18.3471 8.77501 18.6568 8.75026C18.8946 8.75851 19.1968 8.70976 19.3716 8.92051C19.5861 9.13951 19.5216 9.55201 19.2516 9.69001C18.7041 10.038 18.1641 10.41 17.6091 10.7505C17.2588 10.9928 16.7428 10.5803 16.8936 10.1753C17.0286 9.85126 17.2191 9.55276 17.3706 9.23626C17.4576 9.07426 17.5371 8.86426 17.7276 8.79901ZM15.0988 13.6403C15.2578 13.5428 15.4566 13.5758 15.6073 13.6568C16.0281 13.8668 16.4488 14.094 16.8778 14.2965C17.0608 14.3775 17.2513 14.5313 17.2588 14.7495C17.2911 15.0413 17.0443 15.324 16.7586 15.3C16.1473 15.3 15.5361 15.3075 14.9323 15.3C14.6308 15.3 14.3923 14.9438 14.5033 14.6528C14.5828 14.442 14.7021 14.2553 14.7973 14.0528C14.8686 13.8998 14.9398 13.713 15.0988 13.6403Z" fill="white"/>
</svg>
