<svg width="24" height="24" fill="none" xmlns="http://www.w3.org/2000/svg"><path d="M6.785 2.001h17.214v5.563c-5.738.002-11.476.002-17.214 0-.002-1.854-.002-3.709 0-5.563Z" fill="#02A6C2"/><path d="M.007 9.657c1.851-.01 3.703-.01 5.554 0 .01 1.851.01 3.703 0 5.554-1.851.01-3.703.01-5.554 0-.01-1.85-.01-3.702 0-5.554ZM6.789 9.657c4.141-.009 8.282-.009 12.423 0a584.29 584.29 0 0 1 0 5.554c-4.141.009-8.282.009-12.423 0a595.11 595.11 0 0 1 0-5.554Z" fill="#5FCADE"/><path d="M6.794 17.314c1.848-.02 3.696-.02 5.543 0 .02 1.847.02 3.695 0 5.543-1.847.019-3.695.018-5.542 0-.02-1.847-.02-3.695-.001-5.543Z" fill="#ABEBF4"/></svg>