<svg width="24" height="24" viewBox="0 0 24 24" fill="none" xmlns="http://www.w3.org/2000/svg">
<path d="M21.935 6.62715H21.9331C19.4304 6.62607 17.4018 4.59956 17.4007 2.09737V2.09497C17.4007 0.960459 16.4808 0.0400391 15.3462 0.0400391C14.2116 0.0400391 13.2916 0.960938 13.2916 2.09533V2.09893C13.2903 4.56969 11.2993 6.5896 8.82878 6.62786C8.80275 6.62691 8.77672 6.62547 8.75045 6.62547C7.61582 6.62547 6.69624 7.54672 6.69624 8.68112C6.69624 9.81551 7.61594 10.7361 8.7507 10.7361H8.75453C11.2056 10.7381 13.2012 12.6847 13.2823 15.1161C13.2783 15.1686 13.2762 15.2216 13.2762 15.2751V15.2789C13.2747 16.9581 12.3598 18.4243 11.0015 19.2066C10.3165 19.5989 9.54065 19.8047 8.7513 19.8035V19.8028C8.70692 19.8028 8.6629 19.8044 8.61936 19.8071C6.17186 19.742 4.20785 17.738 4.20773 15.2753H4.20437L4.19849 15.2766V15.2757C4.19849 14.1411 3.28335 13.2216 2.14872 13.2216C1.01408 13.2216 0.0957031 14.1409 0.0957031 15.2759C0.0957031 16.4109 1.01708 17.33 2.15171 17.33H2.15423C4.6569 17.3311 6.68545 19.3549 6.68677 21.8571V21.8531V21.8596C6.68677 22.9942 7.60659 23.9159 8.74122 23.9159C9.87844 23.9156 10.8013 22.9957 10.805 21.8584V21.8566C10.8032 20.656 11.279 19.504 12.1275 18.6545C12.976 17.805 14.1275 17.3278 15.3281 17.3282V17.3292C16.4656 17.3285 17.3883 16.4081 17.3919 15.2706C17.3919 14.1361 16.4684 13.2165 15.334 13.2165H15.3281C12.8813 13.2153 10.8845 11.2556 10.8035 8.82804C10.8069 8.78007 10.8102 8.73065 10.8102 8.68136C10.8102 8.68016 10.8108 8.67884 10.8108 8.67764C10.8128 6.17545 12.8423 4.14774 15.3454 4.14774C17.8484 4.14774 19.8798 6.17749 19.8799 8.68148H19.8754L19.8733 8.68028V8.68124C19.8733 9.81575 20.7969 10.7353 21.9311 10.7353C23.0654 10.7353 23.9878 9.81575 23.9878 8.68136C23.9878 7.54696 23.0696 6.62715 21.935 6.62715Z" fill="#2FADE2"/>
<path d="M6.5907 2.05625V2.05817C6.58962 4.56048 4.55772 6.58867 2.05481 6.58999H2.05241C0.917781 6.58999 0 7.50969 0 8.6442C0 9.77871 0.916822 10.6987 2.05097 10.6987C4.55772 10.7 6.59262 12.7376 6.59262 15.2204H6.59166C6.59166 16.3598 7.511 17.2804 8.64564 17.2804C9.78027 17.2804 10.6999 16.3637 10.6999 15.2294C10.6999 14.0951 9.77991 13.1767 8.64528 13.1767C8.64408 13.1767 8.64276 13.1775 8.64144 13.1775C6.13889 13.1754 4.11082 11.1465 4.11082 8.64372C4.11082 6.14093 6.14081 4.10998 8.64456 4.10998V4.10711L8.64324 4.10171H8.6442C9.77883 4.10171 10.6987 3.18621 10.6987 2.05181C10.6987 0.917421 9.77979 0 8.64516 0C7.51052 0 6.5907 0.921739 6.5907 2.05625Z" fill="#707374"/>
</svg>
