<svg width="24" height="24" fill="none" xmlns="http://www.w3.org/2000/svg"><path d="M14.258 23.985c-1.712 0-2.961-.412-3.748-1.237a3.819 3.819 0 0 1-1.177-2.665c-.008-.306.063-.61.207-.88.134-.235.328-.429.562-.563a1.96 1.96 0 0 1 1.75 0c.233.134.426.328.559.562.148.27.221.574.213.881.015.367-.09.73-.3 1.03-.175.247-.424.43-.712.522.281.358.68.606 1.124.701a5.575 5.575 0 0 0 1.533.221 3.416 3.416 0 0 0 1.93-.577 3.373 3.373 0 0 0 1.26-1.705c.285-.82.425-1.684.412-2.552a7 7 0 0 0-.45-2.654 3.275 3.275 0 0 0-1.3-1.649 3.459 3.459 0 0 0-1.874-.536 3.566 3.566 0 0 0-1.623.551l-1.203.604v-.604l5.408-7.254H9.333v7.528c-.02.543.123 1.08.413 1.54a1.42 1.42 0 0 0 1.259.603c.45-.009.887-.162 1.244-.438a4.492 4.492 0 0 0 1.042-1.072.375.375 0 0 1 .135-.18.277.277 0 0 1 .181-.067c.13.012.253.064.352.15a.75.75 0 0 1 .191.51 2.976 2.976 0 0 1-.067.374 3.629 3.629 0 0 1-1.286 1.596c-.532.36-1.16.551-1.803.548-1.623 0-2.747-.32-3.372-.96a3.593 3.593 0 0 1-.93-2.623V6.18H2.88V4.783h3.83v-3.19L5.833.716V0h2.545l.955.495v4.287l9.902-.03.985.99-6.071 6.1a4.08 4.08 0 0 1 1.147-.277 4.97 4.97 0 0 1 2.219.633c.787.374 1.45.966 1.911 1.706.413.626.706 1.324.862 2.057.129.579.198 1.17.206 1.762a7.37 7.37 0 0 1-.75 3.264 4.787 4.787 0 0 1-2.248 2.249 7.276 7.276 0 0 1-3.238.749Z" fill="#2C7DF7"/></svg>