<svg width="24" height="24" fill="none" xmlns="http://www.w3.org/2000/svg"><path d="M12 24c6.627 0 12-5.373 12-12S18.627 0 12 0 0 5.373 0 12s5.373 12 12 12Z" fill="#5F2652"/><path d="M18.823 15.108 12.545 3.847a.622.622 0 0 0-1.095 0l-6.276 11.26a.623.623 0 0 0 .224.84l6.285 3.76a.66.66 0 0 0 .653 0l6.276-3.752a.636.636 0 0 0 .211-.847Zm-4.745-4.539-.153-.13-.01-.009c-.049-.04-.1-.077-.153-.11l-.01-.01c-.05-.033-.103-.07-.163-.103-.01 0-.01-.01-.017-.01-.05-.033-.11-.06-.163-.086-.01 0-.01-.01-.017-.01-.05-.026-.11-.05-.17-.076-.01 0-.01-.01-.017-.01-.05-.017-.103-.043-.154-.06a2.626 2.626 0 0 0-.427-.12c-.11.214-.266.403-.437.564a2.424 2.424 0 0 1 1.148.386c.006.001.012.005.016.01.034.017.06.043.094.07.016.008.03.02.043.033a.55.55 0 0 1 .087.07c.016.017.033.026.05.043.026.026.05.043.077.07l.05.05.07.07.05.05a.602.602 0 0 0 .06.07c.017.019.034.043.05.06l.05.076c.018.027.034.044.044.07l.05.077c.017.026.027.05.044.07.017.026.026.05.043.076.017.027.026.05.043.077.01.026.027.05.034.077.017.033.026.07.043.093.072.176.121.36.146.548l.077.3c.034.13.343 1.224 1.06 1.593.824.427 1.911.96 2.338 1.164l-5.64 3.375v-2.312c0-.367.728-.796 1.061-.94l.017-.01c.07-.034.137-.07.207-.11l.026-.017c.146-.087.283-.187.41-.3.01-.01.027-.017.034-.034.017-.01.026-.026.043-.033.043-.034.077-.077.12-.11l.017-.018a.93.93 0 0 0 .12-.136c.01-.017.026-.027.034-.044.033-.033.06-.076.093-.12.01-.01.017-.026.027-.033l.103-.154c0-.01.01-.01.01-.017.043-.07.086-.146.129-.213-.17-.207-.3-.427-.403-.634-.044.127-.099.25-.164.367-.026.05-.06.104-.086.154-.01.01-.01.017-.017.017a1.321 1.321 0 0 1-.086.12c-.01.01-.017.026-.027.033a.606.606 0 0 1-.093.11c-.01.01-.01.018-.017.018-.206.23-.454.427-.737.564l-.05.026c-.147.06-1.404.634-1.404 1.498v2.31l-5.652-3.364c.367-.223 1.43-.857 2.304-1.13.343-.11 1.07.35 1.48.684l.027.026c.053.053.11.102.17.146l.017.017c.13.103.267.207.42.283l.104.05a3.24 3.24 0 0 0 .35.163c.01.001.017.01.034.01.146.051.29.094.436.13.11-.213.274-.403.447-.564a2.454 2.454 0 0 1-.704-.153c-.01-.01-.026-.01-.033-.017a.362.362 0 0 1-.077-.034c-.01-.01-.026-.01-.034-.017-.026-.01-.05-.026-.07-.033a2.448 2.448 0 0 1-.47-.3l-.223-.207a4.225 4.225 0 0 0-.667-.48c-.557-.316-1.027-.42-1.387-.307-.744.24-1.594.694-2.107.994l5.642-10.138v4.445c0 .154-.23.564-1.01.917l-.05.026c-.078.034-.147.077-.224.12l-.017.01c-.147.089-.288.189-.42.3-.083.067-.16.142-.23.223l-.01.01a1.754 1.754 0 0 0-.206.24l-.01.01c-.033.042-.06.086-.093.129 0 .01-.01.01-.01.017-.026.043-.05.076-.077.12 0 .01-.01.01-.01.016l-.076.13c-.01.01-.01.017-.017.034-.026.043-.043.086-.06.12a.024.024 0 0 1-.01.016c-.016.044-.033.077-.05.12a.315.315 0 0 0-.017.044l-.05.13a.315.315 0 0 0-.017.042.49.49 0 0 1-.034.094c-.01.017-.01.034-.016.05-.01.044-.027.087-.034.12-.01.017-.01.044-.017.06-.01.027-.01.06-.017.087-.01.026-.01.05-.016.077-.01.033-.01.07-.017.103 0 .026-.01.043-.01.07 0 .033-.01.06-.01.093a.311.311 0 0 1-.009.094v.13c0 .154.01.31.034.462.223.05.453.147.703.267a2.57 2.57 0 0 1-.11-.694v-.043a1.014 1.014 0 0 1 .01-.17v-.044c0-.05.009-.093.016-.146v-.017c.01-.05.017-.103.026-.163 0-.017.01-.026.01-.043.01-.043.026-.087.033-.13 0-.01.01-.017.01-.026l.05-.154c.01-.01.01-.026.017-.033.017-.044.034-.087.05-.12.01-.01.01-.017.017-.034.027-.05.044-.094.077-.137a.165.165 0 0 0 .017-.026c.026-.043.043-.077.07-.12a1.447 1.447 0 0 1 .12-.166l.093-.12a.173.173 0 0 0 .017-.026c.155-.17.33-.32.523-.447l.267-.13c.146-.06 1.396-.65 1.396-1.516V4.711l5.696 10.224c-.507-.247-1.404-.694-2.098-1.054-.403-.206-.667-.933-.744-1.2l-.077-.307c0-.163-.043-.326-.093-.487a3.156 3.156 0 0 0-.896-1.318Z" fill="#fff"/></svg>