<svg width="24" height="24" viewBox="0 0 24 24" fill="none" xmlns="http://www.w3.org/2000/svg">
<path fill-rule="evenodd" clip-rule="evenodd" d="M24 12C24 18.6274 18.6274 24 12 24C5.37255 24 0 18.6274 0 12C0 5.37255 5.37255 0 12 0C18.6274 0 24 5.37255 24 12Z" fill="#5493C2"/>
<path fill-rule="evenodd" clip-rule="evenodd" d="M19.0238 19.4635C17.8811 20.5395 16.4922 21.3565 14.9518 21.8204L14.9519 21.2084C14.0395 20.8424 13.0433 20.6411 12 20.6411C10.9568 20.6411 9.9606 20.8424 9.0482 21.2084L9.04826 21.8204C7.50776 21.3566 6.11894 20.5396 4.97629 19.4635L5.50124 19.1606C5.36194 18.1874 5.03828 17.224 4.51664 16.3205C3.99501 15.4171 3.32254 14.655 2.54944 14.0478L2.01898 14.3542C1.84064 13.598 1.74583 12.8099 1.74583 12C1.74583 11.1901 1.84064 10.4021 2.01898 9.64588L2.54937 9.95224C3.32254 9.34502 3.99501 8.58298 4.51664 7.67947C5.03821 6.77602 5.36194 5.81264 5.50124 4.83951L4.97622 4.53646C6.11887 3.46051 7.50769 2.64351 9.0482 2.17956L9.04813 2.79162C9.96053 3.15759 10.9567 3.35894 12 3.35894C13.0432 3.35894 14.0394 3.15759 14.9518 2.79162L14.9517 2.17956C16.4922 2.64345 17.8811 3.46044 19.0237 4.5364L18.4988 4.83938C18.6381 5.81257 18.9617 6.77602 19.4834 7.67947C20.005 8.58292 20.6775 9.34495 21.4506 9.95218L21.981 9.64581C22.1594 10.402 22.2542 11.1901 22.2542 12C22.2542 12.8098 22.1594 13.5979 21.981 14.3541L21.4506 14.0478C20.6775 14.655 20.005 15.417 19.4834 16.3205C18.9618 17.224 18.6381 18.1874 18.4988 19.1605L19.0238 19.4635ZM12 0C5.37255 0 0 5.37255 0 12C0 18.6274 5.37255 24 12 24C18.6274 24 24 18.6274 24 12C24 5.37255 18.6274 0 12 0Z" fill="#0C121A"/>
<path fill-rule="evenodd" clip-rule="evenodd" d="M19.7816 12.0002C19.7816 16.298 16.2975 19.7821 11.9997 19.7821C7.70182 19.7821 4.21777 16.298 4.21777 12.0002C4.21777 7.70231 7.70182 4.21826 11.9997 4.21826C16.2975 4.21826 19.7816 7.70231 19.7816 12.0002Z" fill="#0C121A"/>
<path fill-rule="evenodd" clip-rule="evenodd" d="M9.05359 12.9261C9.05359 12.4888 8.81876 12.2702 8.34903 12.2702H7.42125V13.6085H8.37635C8.61118 13.6085 8.78276 13.5516 8.89116 13.4378C8.99942 13.3241 9.05359 13.1535 9.05359 12.9261ZM8.85018 10.9717C8.85018 10.7619 8.80013 10.6128 8.70008 10.5245C8.60004 10.4362 8.4516 10.3919 8.25482 10.3919H7.42125V11.5481H8.2598C8.46645 11.5481 8.61661 11.5 8.71003 11.404C8.80344 11.3079 8.85018 11.1638 8.85018 10.9717ZM9.78797 13.0022C9.78797 13.4263 9.66884 13.7542 9.43069 13.9861C9.19255 14.218 8.86172 14.3339 8.4384 14.3339H6.68945V9.6665H8.28956C8.71626 9.6665 9.03913 9.76535 9.25825 9.96299C9.47743 10.1606 9.58696 10.4527 9.58696 10.8392C9.58696 11.1042 9.53199 11.3277 9.42201 11.5099C9.31202 11.6921 9.14455 11.8153 8.91966 11.8793C9.20249 11.9235 9.4179 12.0422 9.56587 12.2354C9.71392 12.4287 9.78797 12.6843 9.78797 13.0022Z" fill="#FFFFFE"/>
<path fill-rule="evenodd" clip-rule="evenodd" d="M12.674 11.0976C12.674 10.6492 12.459 10.4251 12.0289 10.4251H11.0912V11.8031H12.0488C12.2538 11.8031 12.4093 11.7413 12.5152 11.6176C12.621 11.494 12.674 11.3206 12.674 11.0976ZM12.7608 14.3339L11.9495 12.5617H11.0912V14.3339H10.3594V9.6665H12.1058C12.5226 9.6665 12.8442 9.78631 13.0708 10.0259C13.2975 10.2656 13.4108 10.6095 13.4108 11.0578C13.4108 11.3846 13.3413 11.6668 13.2023 11.9041C13.0634 12.1416 12.8757 12.2978 12.6392 12.3729L13.5844 14.3339H12.7608Z" fill="#FFFFFE"/>
<path fill-rule="evenodd" clip-rule="evenodd" d="M16.4471 14.3339L15.1919 12.1907L14.7602 12.6312V14.3339H14.0283V9.6665H14.7602V11.7832L16.3355 9.6665H17.1889L15.6955 11.6408L17.3104 14.3339H16.4471Z" fill="#FFFFFE"/>
</svg>
