<svg width="24" height="24" fill="none" xmlns="http://www.w3.org/2000/svg"><path d="M15.944 1.953c-.018-.707.614-1.376 1.433-1.34.707.038 1.302.652 1.302 1.396 0 .763-.632 1.358-1.414 1.34a1.355 1.355 0 0 1-1.32-1.396Zm2.902 17.954c.763 0 1.359.595 1.359 1.358 0 .763-.614 1.377-1.377 1.377a1.366 1.366 0 0 1-1.358-1.358c0-.782.614-1.377 1.377-1.377ZM1.358 14.325C.577 14.325 0 13.711 0 12.93c0-.744.614-1.34 1.377-1.32.763 0 1.358.613 1.358 1.395-.019.725-.633 1.32-1.377 1.32ZM16.521 5.6c0-.651.52-1.172 1.172-1.172.633 0 1.153.52 1.172 1.153 0 .633-.52 1.172-1.172 1.19-.651 0-1.172-.52-1.172-1.171ZM4.298 9.656c.65 0 1.19.52 1.19 1.153s-.54 1.172-1.172 1.172c-.65 0-1.172-.52-1.172-1.172 0-.632.503-1.153 1.154-1.153ZM20.726 7.18c-.633 0-1.172-.52-1.154-1.153 0-.651.54-1.172 1.172-1.172.633.018 1.154.54 1.154 1.172.018.65-.521 1.153-1.172 1.153Zm-5.21 13.786a1.18 1.18 0 0 1-1.172-1.172c0-.632.521-1.153 1.172-1.172.633-.018 1.172.54 1.172 1.172 0 .633-.54 1.172-1.172 1.172ZM4.316 7.963a1.14 1.14 0 0 1-1.172 1.153c-.632 0-1.153-.52-1.153-1.172 0-.633.52-1.172 1.153-1.172s1.172.54 1.172 1.19ZM13.6 23.386a1.152 1.152 0 0 1-1.153-1.172c0-.651.52-1.154 1.153-1.154.651 0 1.172.521 1.172 1.172 0 .652-.52 1.154-1.172 1.154Zm-3.442-3.033a.98.98 0 0 1 .986-.986.99.99 0 0 1 .986 1.023.985.985 0 0 1-1.004.987.975.975 0 0 1-.968-1.024Zm11.2-11.255a1 1 0 0 1-1.005 1.004.997.997 0 0 1-.986-1.004 1 1 0 0 1 1.005-1.005c.54 0 .986.446.986 1.005ZM6.977 6.753a.98.98 0 0 1-.986.986.974.974 0 0 1-.986-1.004.97.97 0 0 1 .986-.986c.576 0 1.004.428.986 1.004ZM8.149 9.6a.985.985 0 0 1-.986 1.005.985.985 0 0 1-1.005-.987.978.978 0 0 1 1.005-1.004.97.97 0 0 1 .986.986ZM4.595 4.149A.985.985 0 0 1 5.6 3.163c.558 0 .986.446.986 1.004A.996.996 0 0 1 5.6 5.172c-.577-.019-1.023-.465-1.005-1.023Zm11.721 4.52a.997.997 0 0 1 .986-1.004 1 1 0 0 1 1.005 1.005.985.985 0 0 1-1.005.986c-.558.018-.986-.428-.986-.986Zm-3.274 8.261c.54 0 .986.447.986 1.005a.973.973 0 0 1-1.005.986.985.985 0 0 1-.986-1.005c0-.54.447-.986 1.005-.986Zm-2.94 5.098a.97.97 0 0 1-.986.986.997.997 0 0 1-1.004-.986 1 1 0 0 1 1.004-1.005c.558 0 .986.447.986 1.005Zm12.689-10.996c-.54 0-.986-.465-.986-.986 0-.558.465-1.004 1.023-1.004.54 0 1.005.465.986 1.004 0 .54-.465.986-1.023.986Zm-12.484 7.33c0 .466-.39.856-.856.856a.854.854 0 0 1-.856-.855c0-.484.391-.856.875-.856.465 0 .837.372.837.856ZM8.595 5.433c.484 0 .856.372.856.856 0 .465-.39.856-.856.856-.465 0-.874-.39-.855-.874 0-.447.39-.838.855-.838Zm1.898 10.493c0-.483.372-.855.837-.855.484 0 .875.372.875.855a.854.854 0 0 1-.856.856c-.484-.018-.856-.372-.856-.856Zm-3.07 4.93c-.483 0-.874-.371-.874-.837 0-.465.372-.855.856-.855.483 0 .874.372.855.855a.822.822 0 0 1-.837.838Zm9.824-9.692a.834.834 0 0 1-.838.837.842.842 0 0 1-.855-.856c0-.484.372-.856.855-.856.484 0 .838.372.838.875Zm-9.08-6.624c-.483 0-.855-.353-.855-.837a.87.87 0 0 1 .855-.874c.466 0 .856.39.856.856a.842.842 0 0 1-.856.855Zm11.293 7.87c-.483 0-.837-.372-.837-.856 0-.465.372-.837.856-.856.484 0 .856.373.837.875 0 .502-.372.856-.855.837ZM9.73 9.991a.85.85 0 0 1-.837-.856c0-.465.41-.837.874-.837a.85.85 0 0 1 .838.855c0 .465-.391.838-.875.838Zm12.168 3.367a.858.858 0 0 1-.837-.893.85.85 0 0 1 .874-.819c.484.019.856.41.837.912a.835.835 0 0 1-.874.8ZM11.98 9.991a.715.715 0 0 1-.725-.726.73.73 0 0 1 .744-.726c.41 0 .726.317.726.726a.743.743 0 0 1-.745.726Zm7.982 4.39c0-.41.316-.725.725-.744.41 0 .726.316.726.726 0 .409-.354.781-.726.762-.39 0-.707-.335-.725-.744ZM11.126 3.814c0 .41-.317.725-.726.725a.73.73 0 0 1-.726-.744c0-.41.335-.725.763-.725.39.018.689.334.689.744Zm-.075 10.12a.71.71 0 0 1-.707.726c-.428 0-.744-.316-.744-.725 0-.41.316-.726.726-.726.409-.018.725.298.725.726ZM8.447 17.08a.73.73 0 0 1-.745-.726c0-.409.335-.744.745-.744.39 0 .725.335.725.726 0 .428-.316.744-.725.744Zm10.53-3.628a.704.704 0 0 1-.726.726c-.39 0-.725-.354-.725-.745a.73.73 0 0 1 .744-.725c.39 0 .707.335.707.744ZM15.2 12.297c.428 0 .726.298.726.726 0 .41-.317.744-.726.726a.743.743 0 0 1-.744-.726c0-.41.316-.726.744-.726ZM7.126 18.01c0 .41-.335.726-.726.726a.715.715 0 0 1-.726-.726c0-.41.335-.744.726-.744.39.019.726.353.726.744Zm3.702-10.884a.715.715 0 0 1-.726-.725c0-.39.335-.726.745-.744.39-.019.725.335.725.744a.743.743 0 0 1-.744.725Zm6.679 7.628c0 .354-.28.652-.633.652s-.613-.28-.613-.633a.623.623 0 0 1 1.246-.019Zm-7.014-2.66a.627.627 0 0 1-.633.632c-.316 0-.632-.316-.632-.632 0-.335.298-.651.651-.633.335 0 .614.28.614.633Zm-4.54 3.46c.354 0 .633.28.614.633a.652.652 0 0 1-.632.632.668.668 0 0 1-.633-.65c0-.373.28-.633.651-.615Zm7.852-5.153c-.354 0-.633-.26-.633-.614s.26-.633.633-.633a.624.624 0 1 1 0 1.247ZM12.65 6.288c.354 0 .614.28.614.633s-.279.632-.632.632a.632.632 0 0 1-.633-.65.653.653 0 0 1 .651-.615Zm-4.056 8.223c0 .354-.279.633-.614.652-.334 0-.632-.317-.632-.652 0-.353.279-.613.632-.613.354 0 .614.26.614.614Zm5.247-.78c.353 0 .614.278.614.632 0 .353-.28.614-.633.614a.616.616 0 0 1-.632-.633c.018-.353.297-.633.65-.614Zm6.12 1.953c0 .372-.26.65-.632.632-.353 0-.614-.279-.632-.632 0-.335.279-.633.614-.633.353.019.65.298.65.633Zm-7.72-11.982c.353 0 .614.26.614.614a.624.624 0 1 1-1.247 0c0-.353.28-.614.633-.614Zm1.935 1.414c0 .298-.242.54-.558.521a.524.524 0 0 1-.521-.54.54.54 0 0 1 .54-.539c.316.019.557.26.539.558Zm-8.8 9.414c0-.298.242-.52.54-.52.297 0 .557.26.539.557-.019.298-.26.54-.54.54-.316-.019-.558-.26-.54-.577Zm13.116 1.99a.544.544 0 0 1-.54.559.556.556 0 0 1-.558-.54c0-.297.242-.54.558-.54.298 0 .521.224.54.522Zm-10.01-3.608a.54.54 0 0 1-.539.539.556.556 0 0 1-.54-.558c0-.298.261-.521.54-.521.298 0 .54.223.54.54Zm5.563-4.67a.528.528 0 0 1-.539-.54c0-.298.242-.52.54-.52.316 0 .539.222.539.539.019.297-.205.52-.54.52Zm1.452 6.828c.297 0 .52.223.52.54a.548.548 0 0 1-.558.557.524.524 0 0 1-.52-.54c.018-.334.26-.557.558-.557Zm-8.856-1.86a.46.46 0 0 1-.465.464c-.242 0-.484-.223-.465-.483 0-.26.223-.466.483-.466.26.019.465.224.447.484Zm10.456 3.757a.46.46 0 0 1-.465.465.486.486 0 0 1-.466-.465c0-.26.224-.465.484-.465s.447.205.447.465ZM14.66 5.581c.279 0 .483.186.483.465a.46.46 0 0 1-.465.465c-.26 0-.465-.186-.465-.446-.019-.298.167-.484.447-.484Z" fill="#01A996"/></svg>