<svg width="24" height="24" fill="none" xmlns="http://www.w3.org/2000/svg"><path d="M23.979 11.996c0 6.595-5.346 11.94-11.94 11.94-6.595 0-11.94-5.345-11.94-11.94S5.443.056 12.038.056c6.594 0 11.94 5.345 11.94 11.94Z" fill="#1BA27A"/><path d="M17.642 6.077H6.336v2.73h4.288v4.011h2.73V8.806h4.288v-2.73Z" fill="#fff"/><path d="M12.015 13.246c-3.547 0-6.423-.562-6.423-1.255 0-.692 2.876-1.254 6.423-1.254 3.548 0 6.424.562 6.424 1.255 0 .692-2.876 1.254-6.424 1.254Zm7.213-1.045c0-.894-3.23-1.617-7.213-1.617s-7.212.723-7.212 1.617c0 .786 2.504 1.441 5.822 1.587v5.759h2.73V13.79c3.343-.14 5.873-.799 5.873-1.59Z" fill="#fff"/></svg>