<svg width="24" height="24" fill="none" xmlns="http://www.w3.org/2000/svg"><path d="M12 24c6.627 0 12-5.373 12-12S18.627 0 12 0 0 5.373 0 12s5.373 12 12 12Z" fill="#2E3148"/><path d="M12 18.963a6.963 6.963 0 1 0 0-13.926 6.963 6.963 0 0 0 0 13.926Z" fill="#1B1E36"/><path d="M12.024 1.53C10.73 1.53 9.68 6.23 9.68 12.026c0 5.795 1.05 10.493 2.345 10.493 1.296 0 2.346-4.698 2.346-10.493 0-5.796-1.05-10.494-2.346-10.494Zm.162 20.396c-.148.198-.296.05-.296.05-.597-.692-.895-1.976-.895-1.976C9.952 16.642 10.2 9.432 10.2 9.432c.49-5.723 1.383-7.076 1.686-7.376a.185.185 0 0 1 .238-.019c.44.312.81 1.617.81 1.617 1.09 4.05.992 7.852.992 7.852.098 3.309-.547 7.012-.547 7.012-.497 2.815-1.193 3.408-1.193 3.408Z" fill="#6F7390"/><path d="M21.127 6.802c-.645-1.123-5.242.304-10.272 3.188-5.03 2.884-8.577 6.133-7.933 7.257.645 1.123 5.243-.304 10.272-3.188 5.03-2.884 8.578-6.133 7.933-7.257Zm-17.61 10.29c-.247-.03-.19-.234-.19-.234.302-.86 1.266-1.759 1.266-1.759 2.394-2.576 8.772-5.948 8.772-5.948 5.209-2.424 6.826-2.321 7.237-2.208a.185.185 0 0 1 .134.197c-.05.538-1 1.507-1 1.507-2.967 2.963-6.315 4.77-6.315 4.77-2.82 1.733-6.355 3.015-6.355 3.015-2.688.969-3.549.66-3.549.66Z" fill="#6F7390"/><path d="M21.104 17.284c.65-1.121-2.89-4.385-7.9-7.29C8.19 7.086 3.593 5.642 2.944 6.765c-.65 1.122 2.889 4.385 7.904 7.29 5.014 2.906 9.605 4.351 10.255 3.228ZM3.376 7.199c-.096-.228.106-.283.106-.283.898-.17 2.158.217 2.158.217 3.428.78 9.542 4.61 9.542 4.61 4.707 3.294 5.43 4.745 5.537 5.157a.185.185 0 0 1-.102.215c-.491.225-1.806-.11-1.806-.11-4.052-1.086-7.292-3.077-7.292-3.077-2.912-1.57-5.79-3.987-5.79-3.987C3.54 8.1 3.375 7.201 3.375 7.201V7.2Z" fill="#6F7390"/><path d="M12 13.235a1.234 1.234 0 1 0 0-2.47 1.234 1.234 0 0 0 0 2.47ZM17.062 8a.729.729 0 0 0 .716-.74c0-.41-.32-.741-.716-.741a.729.729 0 0 0-.716.74c0 .41.32.741.716.741ZM5.309 10.519a.729.729 0 0 0 .716-.741c0-.41-.32-.74-.716-.74a.729.729 0 0 0-.716.74c0 .409.32.74.716.74ZM10.543 19.605a.729.729 0 0 0 .716-.74c0-.41-.32-.741-.716-.741a.729.729 0 0 0-.716.74c0 .41.32.741.716.741Z" fill="#B7B9C8"/></svg>