<svg width="24" height="24" viewBox="0 0 24 24" fill="none" xmlns="http://www.w3.org/2000/svg">
<g clip-path="url(#clip0)">
<path d="M0.0166026 23.9997C-7.1766e-05 23.6662 -0.0056299 23.3327 0.0110445 22.9992C0.122207 22.9659 0.23337 22.9436 0.35009 22.927C0.683578 22.8714 1.01707 22.788 1.33944 22.6935C1.42837 22.6657 1.5173 22.6324 1.60623 22.599C2.0342 22.4323 2.41216 22.1544 2.70118 21.7987C2.90127 21.5485 3.07357 21.2762 3.22364 20.9927C3.43485 20.6037 3.61827 20.1979 3.78501 19.7866C4.1185 18.9529 4.45199 18.1247 4.77992 17.291C5.91378 14.423 7.04764 11.555 8.18149 8.68704C9.25421 5.95801 10.3103 3.22897 11.3441 0.483255C11.3663 0.427674 11.3885 0.372093 11.4108 0.316512C11.7943 0.210907 12.1667 0.0997449 12.5557 -0.00585938C12.578 0.0497218 12.6002 0.0997449 12.6169 0.149768C13.056 1.37256 13.4951 2.59534 13.9286 3.82369C15.4237 7.99784 16.9189 12.1664 18.4529 16.3239C18.8753 17.4578 19.2978 18.5972 19.7257 19.731C19.8925 20.1924 20.0926 20.6481 20.3204 21.0817C20.4205 21.2706 20.5261 21.4485 20.6428 21.6264C20.9985 22.1822 21.5488 22.5768 22.188 22.7435C22.5326 22.8325 22.8772 22.9047 23.2329 22.9492L23.483 22.9881C23.5164 23.0993 23.4997 23.2049 23.4997 23.3105C23.4997 23.4161 23.4997 23.5383 23.4997 23.6495C23.5053 23.7607 23.4997 23.8663 23.4941 23.9774C23.4608 23.983 23.433 23.9886 23.3997 23.9941C23.3607 23.9941 23.3218 23.9941 23.2829 23.9941H14.6067C14.5956 23.9774 14.59 23.9552 14.5845 23.933C14.5845 23.6328 14.5845 23.3327 14.5845 23.0326C14.5845 23.0214 14.59 23.0048 14.5956 22.9937C14.6678 22.9714 14.7401 22.9603 14.8179 22.9492C15.1792 22.8992 15.5349 22.8325 15.8906 22.738C16.0296 22.6991 16.1741 22.649 16.3075 22.5935C16.3742 22.5657 16.4409 22.5323 16.5076 22.4934C16.8577 22.2989 16.9967 21.9932 16.9633 21.6041C16.9467 21.4263 16.9189 21.254 16.8689 21.0817C16.7966 20.8149 16.7021 20.5536 16.6132 20.298C14.7901 15.2123 12.9893 10.121 11.2051 5.01868C11.1884 4.9631 11.1773 4.90196 11.1217 4.85194C11.1051 4.86306 11.0773 4.87417 11.0662 4.88529C11.0495 4.91308 11.0384 4.94087 11.0328 4.96866C10.1602 7.47537 9.23198 9.96541 8.30933 12.4499C7.62568 14.2896 6.94203 16.1349 6.30841 17.9913C6.05273 18.7361 5.80817 19.4865 5.56917 20.2368C5.47469 20.5258 5.40799 20.8204 5.36352 21.115C5.33017 21.3151 5.32462 21.5152 5.34685 21.7208C5.37464 21.9821 5.51359 22.2211 5.73036 22.3767C5.86931 22.4767 6.02494 22.5546 6.19168 22.6101C6.45292 22.7046 6.71971 22.7713 6.99206 22.8158C7.29219 22.8714 7.59233 22.9158 7.89803 22.9603C7.92026 22.9659 7.93694 22.9659 7.96473 22.9714C7.97029 22.9937 7.97584 23.0159 7.9814 23.0381C7.9814 23.3271 7.9814 23.6217 7.9814 23.9107C7.9814 23.9274 7.97584 23.9441 7.97029 23.9608C7.94249 23.9663 7.9147 23.9719 7.88691 23.9719C7.84801 23.9719 7.8091 23.9719 7.77019 23.9719L0.0166026 23.9997Z" fill="black"/>
</g>
<defs>
<clipPath id="clip0">
<rect width="24" height="24" fill="white"/>
</clipPath>
</defs>
</svg>
