<svg width="24" height="24" viewBox="0 0 24 24" fill="none" xmlns="http://www.w3.org/2000/svg">
<path d="M12 24C18.6274 24 24 18.6274 24 12C24 5.37258 18.6274 0 12 0C5.37258 0 0 5.37258 0 12C0 18.6274 5.37258 24 12 24Z" fill="black"/>
<path fill-rule="evenodd" clip-rule="evenodd" d="M11.9572 19.7332C16.2622 19.7332 19.5233 16.8487 20.1998 13.0747H16.527C15.978 15.0787 14.274 16.5457 12.0008 16.5457C9.744 16.5457 8.01825 15.0682 7.446 13.0747H3.75C4.40175 16.8622 7.635 19.7332 11.9572 19.7332Z" fill="white"/>
<path d="M11.9783 7.5405C13.025 7.5405 13.8735 6.69197 13.8735 5.64525C13.8735 4.59853 13.025 3.75 11.9783 3.75C10.9315 3.75 10.083 4.59853 10.083 5.64525C10.083 6.69197 10.9315 7.5405 11.9783 7.5405Z" fill="white"/>
<path fill-rule="evenodd" clip-rule="evenodd" d="M7.24121 13.0746V13.0371C7.24121 10.3423 9.17171 8.14258 11.955 8.14258C14.739 8.14258 16.71 10.3798 16.7145 13.0746H7.24121Z" fill="white"/>
</svg>
