<svg width="24" height="24" viewBox="0 0 24 24" fill="none" xmlns="http://www.w3.org/2000/svg">
<path d="M12 24C18.6274 24 24 18.6274 24 12C24 5.37258 18.6274 0 12 0C5.37258 0 0 5.37258 0 12C0 18.6274 5.37258 24 12 24Z" fill="#6916FF"/>
<path d="M12.8576 4.81826C12.8159 4.78818 12.7867 4.74386 12.7755 4.69368C12.7643 4.6435 12.7719 4.59096 12.7969 4.54601C12.8318 4.52362 12.8724 4.51172 12.9139 4.51172C12.9553 4.51172 12.9959 4.52362 13.0309 4.54601C13.5594 4.76543 14.0379 5.09 14.4371 5.50001C14.6644 5.71076 14.8549 5.95676 14.9996 6.22751C15.1526 6.50351 15.2779 6.79226 15.3746 7.09151C15.4669 7.40126 15.5149 7.72301 15.5156 8.04551C15.4684 8.36426 15.4219 9.90926 14.5309 10.6368C14.4175 10.7049 14.2828 10.7287 14.1529 10.7035C14.023 10.6783 13.907 10.6059 13.8274 10.5003C13.7637 10.4256 13.725 10.3329 13.7166 10.2351C13.7083 10.1373 13.7307 10.0394 13.7809 9.95501C14.1597 9.36857 14.3689 8.6888 14.3855 7.99085C14.402 7.29291 14.2252 6.60398 13.8746 6.00026C13.5746 5.57576 13.2341 5.18051 12.8576 4.81826ZM11.4746 18.7548C11.5684 18.8455 11.5684 18.9363 11.5219 18.982C11.4754 19.0278 11.3809 19.0728 11.3344 19.027C10.8058 18.8076 10.3274 18.483 9.92811 18.073C9.70155 17.8634 9.51145 17.6175 9.36561 17.3455C9.2129 17.0706 9.08731 16.7815 8.99061 16.4823C8.89793 16.1724 8.85044 15.8509 8.84961 15.5275C8.89686 15.2095 8.94336 13.6638 9.83436 12.9363C9.94769 12.8683 10.0822 12.8446 10.2119 12.8698C10.3416 12.895 10.4575 12.9673 10.5371 13.0728C10.6054 13.1473 10.6432 13.2447 10.6432 13.3458C10.6432 13.4468 10.6054 13.5442 10.5371 13.6188C10.1584 14.2051 9.94928 14.8847 9.93274 15.5825C9.91619 16.2803 10.0929 16.9691 10.4434 17.5728C10.7471 17.998 11.0929 18.394 11.4746 18.7548Z" fill="white" fill-opacity="0.5"/>
<path d="M15.5205 15.0046C15.4526 14.132 15.1075 13.304 14.5357 12.6413C13.9569 12.0595 13.2931 11.569 12.567 11.1863C11.9336 10.8363 11.3369 10.4237 10.7857 9.95483C10.3324 9.52878 10.0215 8.97328 9.89548 8.36409C9.78354 7.7351 9.86351 7.08699 10.125 6.50409C10.4383 5.85559 10.8874 5.2821 11.442 4.82259C11.4732 4.79477 11.4946 4.75767 11.5031 4.71676C11.5116 4.67584 11.5067 4.63328 11.4892 4.59534C11.4758 4.57142 11.4572 4.55084 11.4348 4.53515C11.4123 4.51945 11.3866 4.50905 11.3595 4.50472C11.3324 4.50039 11.3047 4.50225 11.2785 4.51015C11.2523 4.51805 11.2282 4.53179 11.208 4.55034C10.461 4.8762 9.82545 5.4132 9.37948 6.09534C8.88072 6.81197 8.64709 7.67992 8.71873 8.55009C8.75614 8.98974 8.86719 9.41999 9.04723 9.82284C9.24205 10.2216 9.49479 10.5893 9.79723 10.9141C10.3932 11.4836 11.0729 11.9586 11.8125 12.3226C12.4485 12.6526 13.0462 13.0493 13.5937 13.5046C14.0754 13.9272 14.3911 14.5072 14.4847 15.1411C14.6167 15.8003 14.5342 16.4836 14.25 17.0956C13.9309 17.7399 13.4652 18.3004 12.8902 18.7321C12.8712 18.743 12.8547 18.7578 12.8419 18.7756C12.829 18.7933 12.82 18.8136 12.8156 18.8351C12.8111 18.8566 12.8112 18.8787 12.816 18.9002C12.8207 18.9216 12.8299 18.9417 12.843 18.9593C12.8692 19.0073 12.918 19.0418 12.9727 19.0501C13.0275 19.0583 13.0845 19.0426 13.125 19.0051C13.8219 18.6027 14.4282 18.0609 14.9062 17.4136C15.3712 16.6951 15.5857 15.8506 15.5205 15.0046Z" fill="white"/>
</svg>
