<svg width="24" height="24" fill="none" xmlns="http://www.w3.org/2000/svg"><path d="M12 24c6.627 0 12-5.373 12-12S18.627 0 12 0 0 5.373 0 12s5.373 12 12 12Z" fill="#F89022"/><path d="M21 14.222h-1.773l-1.258-1.077-1.253 1.072h-1.499l-.716-.87h-2.469l.625-.772h1.214l-.925-1.13-3.228 3.93H8.22l.934-1.142h-1.56l-.844-2.365-.837 2.348H4.33L3 10.53h1.215l.894 2.51L6 10.541h1.5l.889 2.493.888-2.494h1.219l-1.341 3.692.298-.364 2.739-3.334H13.7l2.279 2.781 1.096-.943-3.47-2.998h1.781L21 14.222Zm-1.759-2.23-.836-.717.835-.71 1.687.001-1.686 1.426Z" fill="#fff"/></svg>