<svg width="24" height="24" viewBox="0 0 24 24" fill="none" xmlns="http://www.w3.org/2000/svg">
<path fill-rule="evenodd" clip-rule="evenodd" d="M24 12C24 18.6274 18.6274 24 12 24C5.37255 24 0 18.6274 0 12C0 5.37255 5.37255 0 12 0C18.6274 0 24 5.37255 24 12Z" fill="#1D373C"/>
<path fill-rule="evenodd" clip-rule="evenodd" d="M12.0002 22.2543C6.34604 22.2543 1.74599 17.6543 1.74599 12.0002C1.74599 6.34604 6.34604 1.74599 12.0002 1.74599C17.6543 1.74599 22.2543 6.34604 22.2543 12.0002C22.2543 17.6543 17.6543 22.2543 12.0002 22.2543ZM12.0002 1.08301C5.98047 1.08301 1.08301 5.98047 1.08301 12.0002C1.08301 18.0198 5.98047 22.9173 12.0002 22.9173C18.0198 22.9173 22.9173 18.0198 22.9173 12.0002C22.9173 5.98047 18.0198 1.08301 12.0002 1.08301Z" fill="#FFFFFE"/>
<path fill-rule="evenodd" clip-rule="evenodd" d="M12.0005 18.0685C10.379 18.0685 8.85456 17.437 7.708 16.2905C6.5615 15.144 5.93014 13.6196 5.93014 11.9982C5.93014 10.3769 6.56163 8.85257 7.70879 7.70568C8.85237 6.5617 10.3764 5.93167 12.0001 5.93167C13.2462 5.93167 14.4338 6.30281 15.436 6.99257L14.6351 7.79346C13.8534 7.30205 12.9474 7.03912 12.0005 7.03912C10.675 7.03912 9.42943 7.55445 8.49271 8.49065C7.55578 9.42765 7.03978 10.6733 7.03978 11.9982C7.03978 13.3233 7.55578 14.569 8.49271 15.5059C9.42963 16.4429 10.6754 16.9589 12.0005 16.9589C12.9466 16.9589 13.8519 16.696 14.6333 16.2048L15.4343 17.0059C14.4314 17.6968 13.2445 18.0685 12.0005 18.0685ZM13.9385 13.937C13.4211 14.4547 12.7325 14.7397 12.0005 14.7397C11.2685 14.7397 10.5799 14.4547 10.0619 13.9367C9.544 13.4188 9.25898 12.7304 9.25898 11.9982C9.25898 11.2662 9.544 10.5779 10.0619 10.0599C10.5967 9.52544 11.2983 9.25832 12.0005 9.25832C12.7027 9.25832 13.4043 9.52544 13.939 10.0599L14.723 10.844L18.646 6.92097L17.8617 6.13673C16.5755 4.85054 14.9675 4.08499 13.295 3.82232V2.22168H10.7984V3.80893C9.09264 4.05708 7.4489 4.82667 6.13931 6.13673C4.57348 7.70223 3.71094 9.78413 3.71094 11.9982C3.71094 14.2125 4.57348 16.2944 6.13878 17.8597C7.41695 19.1378 9.04119 19.9375 10.7984 20.1917V21.7785H13.295V20.1781C15.0167 19.9091 16.6065 19.1154 17.8622 17.8597L18.6443 17.0775L14.7211 13.1543L13.9385 13.937Z" fill="#FFFFFE"/>
</svg>
