<svg width="72" height="73" fill="none" xmlns="http://www.w3.org/2000/svg"><rect x=".5" y="1" width="71" height="71" rx="7.5" fill="#A2EFE1"/><path d="M13.415 45.5h12.443v-3.017h-7.33v-.12l2.549-2.496c3.588-3.273 4.55-4.91 4.55-6.895 0-3.026-2.47-5.165-6.212-5.165-3.665 0-6.18 2.19-6.17 5.616h3.502c-.008-1.67 1.049-2.693 2.642-2.693 1.534 0 2.676.955 2.676 2.489 0 1.389-.852 2.343-2.437 3.87l-6.213 5.752V45.5Zm15.151 0h3.63V32.41h-3.63V45.5Zm1.824-14.778c1.082 0 1.969-.827 1.969-1.841 0-1.006-.887-1.833-1.97-1.833-1.073 0-1.96.827-1.96 1.833 0 1.014.887 1.84 1.96 1.84Zm8.346 7.21c.008-1.688 1.014-2.676 2.48-2.676 1.457 0 2.335.954 2.327 2.556V45.5h3.63v-8.335c0-3.051-1.79-4.926-4.517-4.926-1.943 0-3.35.954-3.937 2.48h-.154v-2.31h-3.46V45.5h3.63v-7.568Zm17.898-9.887h-3.47l-4.32 2.736v3.273l3.997-2.506h.102V45.5h3.69V28.046Z" fill="#000"/><rect x=".5" y="1" width="71" height="71" rx="7.5" stroke="#9EFFEE"/></svg>