<svg width="24" height="24" fill="none" xmlns="http://www.w3.org/2000/svg"><path fill-rule="evenodd" clip-rule="evenodd" d="M17.036 4.81c-1.98 0-3.768.826-5.036 2.153a6.942 6.942 0 0 1 1.928 4.81 3.109 3.109 0 1 1 6.217 0 3.109 3.109 0 0 1-6.217 0c0 1.865-.734 3.56-1.928 4.81a6.964 6.964 0 1 0 5.036-11.774Z" fill="#1CA8E5"/><path fill-rule="evenodd" clip-rule="evenodd" d="M12 6.963a6.942 6.942 0 0 0-1.928 4.81c0 1.865.734 3.56 1.928 4.81a6.943 6.943 0 0 0 1.927-4.81c0-1.866-.733-3.56-1.927-4.81Z" fill="#1F3463"/><path fill-rule="evenodd" clip-rule="evenodd" d="M6.964 14.882a3.109 3.109 0 1 1 3.108-3.11c0-1.865.734-3.559 1.928-4.81a6.964 6.964 0 1 0 0 9.62 6.943 6.943 0 0 1-1.928-4.81 3.109 3.109 0 0 1-3.108 3.11Z" fill="#D81A5A"/></svg>