<svg width="24" height="24" viewBox="0 0 24 24" fill="none" xmlns="http://www.w3.org/2000/svg">
<path d="M12 24C18.6274 24 24 18.6274 24 12C24 5.37258 18.6274 0 12 0C5.37258 0 0 5.37258 0 12C0 18.6274 5.37258 24 12 24Z" fill="#516AFF"/>
<path d="M14.1001 8.69981L16.2001 9.8998V3.8998L12.0001 1.7998L5.4751 5.4748V18.5248L12.0001 22.2748L18.4501 18.4498V11.9998L12.2251 8.2498L10.1251 9.2998L16.3501 12.9748L16.4251 17.3998L12.0001 19.8748L7.5001 17.3248V6.5248L12.0001 4.0498L14.1001 5.1748V8.69981Z" fill="white"/>
<path d="M11.775 12.3L13.2 11.55L14.775 12.525L10.125 15.15V9.75L11.775 10.725" fill="white"/>
</svg>
