<svg width="24" height="24" viewBox="0 0 24 24" fill="none" xmlns="http://www.w3.org/2000/svg">
<path d="M16.9507 8.95209C16.8667 9.03609 16.7539 9.08409 16.6363 9.08409H5.48832C5.09472 9.08409 4.89552 8.60409 5.16912 8.31849L6.99792 6.42489C7.08192 6.33849 7.19712 6.28809 7.31712 6.28809H18.5059C18.9019 6.28809 19.1011 6.77289 18.8203 7.05849L16.9507 8.95209ZM16.9507 17.4145C16.8667 17.4961 16.7539 17.5441 16.6363 17.5441H5.48832C5.09472 17.5441 4.89552 17.0761 5.16912 16.7977L6.99792 14.9497C7.08192 14.8657 7.19712 14.8177 7.31712 14.8177H18.5059C18.9019 14.8177 19.1011 15.2905 18.8203 15.5689L16.9507 17.4145ZM16.6363 10.5529C16.7539 10.5529 16.8667 10.5985 16.9507 10.6825L18.8203 12.5305C19.1011 12.8065 18.9019 13.2817 18.5059 13.2817H7.31712C7.19712 13.2817 7.08192 13.2337 6.99792 13.1497L5.16912 11.3017C4.89312 11.0233 5.09232 10.5553 5.48832 10.5553L16.6363 10.5529Z" fill="#00FFAD"/>
<path d="M12 0C18.6264 0 24 5.3736 24 12C24 18.6264 18.6264 24 12 24C5.3736 24 0 18.6264 0 12C0 5.3736 5.3736 0 12 0Z" fill="black"/>
<path fill-rule="evenodd" clip-rule="evenodd" d="M5.54892 10.8551H16.6537C16.7929 10.8551 16.9249 10.9103 17.0209 11.0087L18.7777 12.7775C19.1017 13.1039 18.8713 13.6607 18.4105 13.6607H7.30572C7.16652 13.6607 7.03452 13.6055 6.93852 13.5071L5.18172 11.7383C4.85532 11.4119 5.08812 10.8551 5.54892 10.8551ZM5.18172 8.51029L6.93852 6.74149C7.03692 6.64309 7.16892 6.58789 7.30572 6.58789H18.4081C18.8689 6.58789 19.1017 7.14469 18.7753 7.47109L17.0209 9.23989C16.9225 9.33829 16.7905 9.39349 16.6537 9.39349H5.54892C5.08812 9.39349 4.85532 8.83669 5.18172 8.51029ZM18.7753 16.0055L17.0185 17.7743C16.9201 17.8727 16.7881 17.9279 16.6513 17.9279H5.54892C5.08812 17.9279 4.85532 17.3711 5.18172 17.0447L6.93852 15.2759C7.03692 15.1775 7.16892 15.1223 7.30572 15.1223H18.4081C18.8689 15.1223 19.1017 15.6791 18.7753 16.0055Z" fill="url(#paint0_linear)"/>
<defs>
<linearGradient id="paint0_linear" x1="5.82059" y1="18.4158" x2="18.1364" y2="6.09996" gradientUnits="userSpaceOnUse">
<stop stop-color="#CB4EE8"/>
<stop offset="1" stop-color="#10F4B1"/>
</linearGradient>
</defs>
</svg>
