<svg width="24" height="24" fill="none" xmlns="http://www.w3.org/2000/svg"><path d="m20.613 4.656-2.89 1.473-13.955 7.107a8.313 8.313 0 0 1 12.295-8.332l1.655-.843.247-.126a10.154 10.154 0 0 0-16.09 8.992 1.847 1.847 0 0 1-1.003 1.785L0 15.157v2.074l2.568-1.309.832-.424.819-.417L18.93 7.585l1.653-.842L24 5.002V2.928l-3.387 1.728ZM24 7.077 5.055 16.723l-1.653.844L0 19.3v2.073l3.378-1.721 2.89-1.473 13.969-7.117A8.313 8.313 0 0 1 7.929 19.4l-.101.054-1.793.914a10.154 10.154 0 0 0 16.09-8.994 1.848 1.848 0 0 1 1.002-1.785L24 9.145V7.077Z" fill="#000"/></svg>