<svg width="24" height="24" fill="none" xmlns="http://www.w3.org/2000/svg"><path d="M12 24c6.627 0 12-5.373 12-12S18.627 0 12 0 0 5.373 0 12s5.373 12 12 12Z" fill="#348F8D"/><path d="M17.484 5.283a.997.997 0 0 1 0 1.385l-2.348 2.406a.969.969 0 0 1-.256.188.893.893 0 0 1-1.082-.158L11.46 6.708l-4.504 4.62 1.088 1.112a.878.878 0 0 1-.006 1.215.829.829 0 0 1-1.186.005l-1.73-1.765a.88.88 0 0 1 0-1.224l.012-.011a.14.14 0 0 0 .011-.011l5.718-5.865.002-.001.018-.02A.86.86 0 0 1 12 4.658a.923.923 0 0 1 .15.125l2.238 2.29 1.745-1.79a.942.942 0 0 1 1.352 0h-.001Zm1.393 6.827a.874.874 0 0 1 .001 1.22l-.012.011a.15.15 0 0 0-.011.011l-5.74 5.886a.86.86 0 0 1-1.316-.091l-2.188-2.238-1.735 1.783a.94.94 0 0 1-.924.257.97.97 0 0 1-.678-.694.994.994 0 0 1 .251-.947l2.347-2.405a.936.936 0 0 1 .492-.272.899.899 0 0 1 .84.252l2.344 2.399 4.496-4.608-1.088-1.113a.878.878 0 0 1 .005-1.215.828.828 0 0 1 1.187-.005l1.705 1.744.001.001.003.002.02.022Z" fill="#fff"/></svg>