<svg width="24" height="24" fill="none" xmlns="http://www.w3.org/2000/svg"><path fill-rule="evenodd" clip-rule="evenodd" d="M0 0h24v24H0V0Z" fill="#0886FB"/><path fill-rule="evenodd" clip-rule="evenodd" d="M19.89 12.432a.667.667 0 0 0-.082-.397c-.19-.339-.662-.48-.976-.33a.577.577 0 0 0-.182.14l-3.242 2.87v3.31s-3.193-.487-3.904-.678c-.91-.24-1.557-.413-2.15-.967-.208-.19-.795-.736-.828-1.506v-.315L8.51 6.098l4.193.635c.331.058 1.175.248 1.837.854.213.2.399.429.552.678.256.405.298.637.306.786v2.661a.794.794 0 0 0 .181.438c.107.136.26.224.43.249.166.016.299-.05.431-.108.08-.038.154-.085.223-.14l3.3-2.771V6.527c-.032-.835-.463-1.439-.744-1.836-.157-.215-.967-1.298-2.44-1.803-.133-.041-.24-.074-.314-.1l-3.622-.662A5.615 5.615 0 0 0 12 2.02c-.165-.008-.843-.05-1.488.066-1.208.225-2.83 1.092-3.061 2.374a1.758 1.758 0 0 0-.025.248h-.388c-.374.135-.73.316-1.06.537-.33.224-.992.679-1.464 1.557a4.224 4.224 0 0 0-.48 1.903v8.021c0 .138.005.276.017.414 0 0 .05.678.232 1.255.207.637.843 1.688 1.969 2.358.33.2 1.075.372 2.564.72.912.218 1.837.375 2.77.47.588.058.869.058 1.117.041.48-.024 1.133-.066 1.86-.413 1.25-.603 1.82-1.688 1.959-1.97.041-.082.074-.156.1-.206h.166a4.496 4.496 0 0 0 2.108-1.39c.215-.247.943-1.14 1.018-2.423a3.862 3.862 0 0 0 0-.438c-.025-.919-.025-1.812-.025-2.712l.002.001ZM9.379 4.36c.246-.213.518-.393.81-.538.273-.132.976-.462 1.779-.273.1.025.181.05.231.067l3.739.703a2.904 2.904 0 0 1 1.737.885c.14.15.695.762.762 1.655.008.107.008.215 0 .322v1.48L16.92 9.836V9.1a3.872 3.872 0 0 0-.76-2.051c-.133-.19-.894-1.241-2.275-1.696-.074-.025-.133-.041-.182-.058l-4.4-.769.074-.165Zm5.136 15.352c-.38.587-1.248.678-1.679.72-.197.019-.396.025-.595.016l-4.525-.786-.124-.058a2.386 2.386 0 0 1-.885-.372 2.465 2.465 0 0 1-.703-.745 2.69 2.69 0 0 1-.422-1.571l-.008-8.288v-.124c.033-.86.679-1.522 1.183-1.919l.207-.107c.008 2.68.008 5.36.017 8.04 0 .074-.008.181 0 .314.058 1.232.786 2.117 1.009 2.374.918 1.075 2.117 1.406 2.895 1.613.496.132 3.747.678 3.747.678a1.464 1.464 0 0 1-.116.215Zm3.921-4.31a2.685 2.685 0 0 1-.587 1.432c-.233.28-.52.51-.844.678v-2.233l1.431-1.183c.008.43.008.868 0 1.305v.002Z" fill="#FFFDFC"/></svg>