<svg width="24" height="24" viewBox="0 0 24 24" fill="none" xmlns="http://www.w3.org/2000/svg">
<g clip-path="url(#clip0)">
<path d="M23.2755 12.7257C23.6189 12.9547 23.5045 13.1454 22.9321 13.2981C22.7032 13.3744 22.7032 13.4125 22.7032 13.527C22.7032 13.8322 22.665 13.9467 22.0164 14.0612C21.9368 14.0546 21.8572 14.0732 21.7888 14.1143C21.7203 14.1553 21.6665 14.2168 21.6348 14.2901C21.673 14.5572 21.3677 14.7098 20.6809 14.7861C20.4981 14.7882 20.3221 14.8559 20.1849 14.9769C20.0704 15.244 19.6889 15.3585 18.9639 15.3585C18.7616 15.346 18.5608 15.3995 18.3916 15.5111C18.1627 15.74 17.6666 15.8545 16.9417 15.8163C16.7194 15.8027 16.4971 15.8419 16.293 15.9308C15.8057 16.1612 15.257 16.2281 14.7286 16.1216C14.4865 16.094 14.2415 16.1069 14.0037 16.1597C13.475 16.34 12.9061 16.3665 12.363 16.2361C12.1228 16.1979 11.8782 16.1979 11.638 16.2361C11.0984 16.3778 10.5298 16.3645 9.99731 16.1979C9.76243 16.126 9.51348 16.1129 9.27235 16.1597C8.74503 16.2885 8.18888 16.2207 7.70796 15.969C7.50265 15.8841 7.28128 15.845 7.05931 15.8545C6.33435 15.8927 5.87648 15.8163 5.60939 15.5493C5.42447 15.4909 5.23081 15.4651 5.03705 15.4729C4.31209 15.4729 3.89238 15.3203 3.81607 15.0914C3.67893 14.9704 3.5029 14.9027 3.32004 14.9006C2.63324 14.8243 2.28984 14.6717 2.32799 14.4427C2.32799 14.3283 2.21352 14.252 1.94643 14.2138C1.29778 14.0993 1.06885 13.9086 1.25963 13.6796C1.33594 13.6033 1.25963 13.4888 1.03069 13.4507C0.458357 13.2981 0.34389 13.1073 0.687292 12.8783C0.801759 12.802 0.763604 12.6876 0.61098 12.6113C0.153111 12.4205 0.153111 12.2297 0.61098 12.0389C0.763604 11.9626 0.801759 11.8481 0.687292 11.7718C0.34389 11.5429 0.458357 11.3521 1.03069 11.1995C1.25963 11.1232 1.33594 11.0469 1.25963 10.9706C1.06885 10.7416 1.29778 10.5508 1.94643 10.4364C2.02599 10.4429 2.10559 10.4244 2.17404 10.3833C2.24249 10.3422 2.29633 10.2807 2.32799 10.2074C2.28984 9.94035 2.59508 9.78772 3.28189 9.71141C3.46475 9.70931 3.64077 9.64161 3.77791 9.52063C3.89238 9.25354 4.27394 9.13908 4.9989 9.10092C5.20118 9.11343 5.40204 9.05987 5.57124 8.9483C5.80017 8.71936 6.2962 8.60489 7.02116 8.64305C7.24338 8.65672 7.46568 8.61749 7.6698 8.52858C8.15712 8.2982 8.70579 8.23129 9.23419 8.3378C9.47629 8.36543 9.72129 8.35254 9.95915 8.29965C10.4878 8.11937 11.0568 8.09291 11.5999 8.22334C11.84 8.26152 12.0847 8.26152 12.3248 8.22334C12.8644 8.08162 13.4331 8.09485 13.9655 8.26149C14.2004 8.3334 14.4493 8.3465 14.6905 8.29965C15.2178 8.17091 15.7739 8.23874 16.2549 8.49043C16.4602 8.57534 16.6815 8.61441 16.9035 8.60489C17.6285 8.56674 18.0863 8.64305 18.3534 8.91014C18.5226 9.02171 18.7235 9.07528 18.9258 9.06276C19.6507 9.06276 20.0704 9.21539 20.1468 9.44432C20.2121 9.5082 20.2898 9.55806 20.3751 9.59087C20.4604 9.62367 20.5515 9.63872 20.6428 9.6351C21.177 9.67326 21.4822 9.82588 21.6348 10.093C21.6665 10.1662 21.7203 10.2277 21.7888 10.2688C21.8572 10.3099 21.9368 10.3285 22.0164 10.3219C22.5124 10.3219 22.894 10.6272 22.7032 10.8561C22.6269 10.9324 22.7032 11.085 22.9321 11.085C23.39 11.085 23.6189 11.4284 23.2755 11.6574C23.1611 11.7337 23.1611 11.8481 23.3518 11.9244C23.8097 12.1152 23.8097 12.306 23.3518 12.4968C23.2183 12.5349 23.1801 12.6494 23.2755 12.7257Z" stroke="black" stroke-width="1.5"/>
<path d="M11.1996 3.75903C11.4337 3.67672 11.6346 3.52058 11.7723 3.31412C11.9099 3.10767 11.9767 2.86208 11.9627 2.61436C11.9245 2.04202 11.3522 1.85124 10.6272 2.11833C9.17732 2.61436 8.79576 4.25505 8.56683 5.89575C8.49052 6.35362 8.45236 6.84965 8.4142 7.26936C7.9546 10.7346 7.75055 14.2289 7.80371 17.7241C7.84187 18.3345 8.03265 19.0214 7.53662 19.67C6.69719 19.7463 6.92613 19.2503 6.16301 19.5174C4.9611 19.9333 5.24727 21.5396 6.10578 21.4595C6.39366 21.4531 6.67292 21.36 6.90705 21.1924C8.39513 20.4293 8.58591 18.4452 8.853 16.4611C9.30931 12.8802 9.52601 9.27279 9.50164 5.663V5.62866C9.50164 4.98002 9.38718 3.91165 9.80689 3.68272C10.2266 3.45378 10.5319 4.02612 11.1805 3.75903" fill="black"/>
<path d="M16.7886 2.20629C15.3387 2.70231 14.9571 4.34301 14.7282 5.98371C14.6519 6.44158 14.6137 6.9376 14.5756 7.35732C14.116 10.8225 13.9119 14.3169 13.9651 17.812C14.0032 18.4225 14.194 19.1093 13.698 19.758C12.8586 19.8724 13.0875 19.3382 12.3244 19.6053C11.1415 20.025 11.4086 21.6276 12.2862 21.5513C12.5741 21.5449 12.8534 21.4518 13.0875 21.2842C14.5756 20.5211 14.7663 18.537 15.0334 16.5529C15.4898 12.972 15.7064 9.36456 15.6821 5.75477V5.71662C15.6821 5.06797 15.5676 3.99961 15.9873 3.77067C16.407 3.54174 16.7123 4.07592 17.3609 3.80883C17.595 3.72652 17.796 3.57038 17.9336 3.36392C18.0713 3.15747 18.1381 2.91188 18.1241 2.66416C18.0859 2.12997 17.5136 1.9392 16.7886 2.20629Z" fill="black"/>
</g>
<defs>
<clipPath id="clip0">
<rect width="24" height="24" fill="white"/>
</clipPath>
</defs>
</svg>
