<svg width="24" height="24" fill="none" xmlns="http://www.w3.org/2000/svg"><path d="M12 24c6.627 0 12-5.373 12-12S18.627 0 12 0 0 5.373 0 12s5.373 12 12 12Z" fill="#000"/><path fill-rule="evenodd" clip-rule="evenodd" d="M11.957 19.733c4.305 0 7.566-2.884 8.243-6.658h-3.673c-.549 2.004-2.253 3.47-4.526 3.47-2.257 0-3.983-1.477-4.555-3.47H3.75c.652 3.787 3.885 6.658 8.207 6.658Z" fill="#fff"/><path d="M11.978 7.54a1.895 1.895 0 1 0 0-3.79 1.895 1.895 0 0 0 0 3.79Z" fill="#fff"/><path fill-rule="evenodd" clip-rule="evenodd" d="M7.241 13.075v-.038c0-2.695 1.93-4.894 4.714-4.894 2.784 0 4.755 2.237 4.76 4.932H7.24Z" fill="#fff"/></svg>