<svg width="24" height="24" fill="none" xmlns="http://www.w3.org/2000/svg"><path d="M12 0C5.37 0 0 5.37 0 12s5.37 12 12 12 12-5.37 12-12S18.63 0 12 0Z" fill="#0B223D"/><path d="M12.531 17.115a5.49 5.49 0 0 1-2.046-.393 4.293 4.293 0 0 1-1.691-1.22c-.492-.551-.827-1.2-1.023-1.967H6.55l.02-.768h1.042c-.02-.255-.039-.491-.039-.767 0-.216.02-.433.02-.669H6.512l.02-.806h1.18c.118-.492.295-.925.511-1.318.236-.394.492-.768.807-1.043.295-.295.63-.531 1.003-.728.374-.197.748-.354 1.141-.433a6.063 6.063 0 0 1 1.2-.137c1.298 0 2.4.354 3.305 1.062l-.669 1.2a4.276 4.276 0 0 0-2.498-.787c-.65 0-1.24.197-1.77.57-.532.394-.906.925-1.142 1.614h3.187l-.04.806H9.444c-.02.217-.04.413-.04.63 0 .275.02.531.06.767h3.088l-.04.767H9.66c.256.65.63 1.16 1.18 1.535.551.373 1.142.55 1.83.55.984 0 1.908-.334 2.734-1.003l.571 1.358c-.964.806-2.105 1.18-3.443 1.18Z" fill="#fff"/></svg>