<svg width="24" height="24" viewBox="0 0 24 24" fill="none" xmlns="http://www.w3.org/2000/svg">
<path d="M21.9313 4.13793C23.0739 4.13793 24.0002 3.21162 24.0002 2.06897C24.0002 0.926307 23.0739 0 21.9313 0C20.7886 0 19.8623 0.926307 19.8623 2.06897C19.8623 3.21162 20.7886 4.13793 21.9313 4.13793Z" fill="#18A0B1"/>
<path d="M6.02469 15.5506C5.24547 14.2278 4.92777 12.6836 5.1215 11.1607C5.31522 9.63771 6.0094 8.22227 7.09497 7.1367C8.18054 6.05113 9.59598 5.35695 11.1189 5.16323C12.6419 4.9695 14.186 5.2872 15.5088 6.06642L17.164 4.41125L17.0812 4.34504C15.301 3.17157 13.169 2.65146 11.0483 2.87328C8.92764 3.0951 6.94942 4.04514 5.45051 5.56162C3.9516 7.07809 3.02467 9.06724 2.82757 11.1903C2.63047 13.3135 3.17538 15.4392 4.36951 17.2057L6.02469 15.5506Z" fill="#18A0B1"/>
<path d="M17.9752 8.54091C18.7545 9.86369 19.0722 11.4079 18.8784 12.9308C18.6847 14.4538 17.9905 15.8692 16.905 16.9548C15.8194 18.0403 14.404 18.7345 12.881 18.9282C11.358 19.122 9.81389 18.8043 8.49111 18.0251L6.83594 19.6802C8.60869 20.8838 10.7456 21.4316 12.8787 21.2295C15.0118 21.0273 17.0078 20.0878 18.5229 18.5727C20.038 17.0576 20.9775 15.0617 21.1797 12.9285C21.3818 10.7954 20.834 8.65849 19.6304 6.88574L17.9752 8.54091Z" fill="#18A0B1"/>
<path d="M2.06897 24.0002C3.21162 24.0002 4.13793 23.0739 4.13793 21.9313C4.13793 20.7886 3.21162 19.8623 2.06897 19.8623C0.926307 19.8623 0 20.7886 0 21.9313C0 23.0739 0.926307 24.0002 2.06897 24.0002Z" fill="#18A0B1"/>
</svg>
