<svg width="24" height="24" fill="none" xmlns="http://www.w3.org/2000/svg"><path fill-rule="evenodd" clip-rule="evenodd" d="M12 0c6.626 0 12 5.374 12 12s-5.374 12-12 12S0 18.626 0 12 5.374 0 12 0Z" fill="#000"/><path d="M17.148 10.375c.547-2.597-.66-3.919-2.938-3.919-1.368 0-2.506.502-3.533 1.435l.228-1.049s-.364-.158-1.094-.158c-.797 0-1.186.158-1.186.158L6.432 17.146s.319.158 1.116.158c.73 0 1.161-.158 1.161-.158l1.58-7.385c.796-.912 1.89-1.46 2.894-1.46 1.46 0 1.958.73 1.687 2.007l-1.466 6.838s.34.158 1.116.158c.75 0 1.161-.158 1.161-.158l1.467-6.77Z" fill="#fff"/></svg>