<svg width="24" height="24" fill="none" xmlns="http://www.w3.org/2000/svg"><mask id="a" mask-type="alpha" maskUnits="userSpaceOnUse" x="12" y="0" width="12" height="20"><path d="M22.524 5.503 14.33.907 12.14 4.064l10.626 15.734A2.84 2.84 0 0 0 24 17.468V7.985c0-1.025-.562-1.971-1.476-2.483Z" fill="#fff"/></mask><g mask="url(#a)"><path fill-rule="evenodd" clip-rule="evenodd" d="M22.524 5.503 14.33.907 12.14 4.064l10.626 15.734A2.84 2.84 0 0 0 24 17.468V7.985c0-1.025-.562-1.971-1.476-2.483Z" fill="url(#b)"/></g><mask id="c" mask-type="alpha" maskUnits="userSpaceOnUse" x="14" y="15" width="9" height="9"><path d="m20.459 16.381-4.794-.483a.702.702 0 0 0-.782.685v6.988c0 .295.33.48.593.332l7.048-3.952c.084-.047.165-.098.243-.152l-2.308-3.418Z" fill="#fff"/></mask><g mask="url(#c)"><path fill-rule="evenodd" clip-rule="evenodd" d="m20.459 16.381-4.794-.483a.702.702 0 0 0-.782.685v6.988c0 .295.33.48.593.332l7.048-3.952c.084-.047.165-.098.243-.152l-2.308-3.418Z" fill="url(#d)"/></g><mask id="e" mask-type="alpha" maskUnits="userSpaceOnUse" x="0" y="0" width="15" height="20"><path d="M13.476.429a3.03 3.03 0 0 0-2.952 0L1.476 5.503A2.852 2.852 0 0 0 0 7.986v9.481c0 .93.464 1.797 1.233 2.332L14.329.907 13.476.43Z" fill="#fff"/></mask><g mask="url(#e)"><path fill-rule="evenodd" clip-rule="evenodd" d="M13.476.429a3.03 3.03 0 0 0-2.952 0L1.476 5.503A2.852 2.852 0 0 0 0 7.986v9.481c0 .93.464 1.797 1.233 2.332L14.329.907 13.476.43Z" fill="url(#f)"/></g><mask id="g" mask-type="alpha" maskUnits="userSpaceOnUse" x="1" y="15" width="9" height="9"><path d="m1.477 19.951 7.078 3.917c.263.146.59-.039.59-.334v-6.952a.702.702 0 0 0-.78-.686l-4.754.472-2.378 3.43c.079.055.16.106.244.153Z" fill="#fff"/></mask><g mask="url(#g)"><path fill-rule="evenodd" clip-rule="evenodd" d="m1.477 19.951 7.078 3.917c.263.146.59-.039.59-.334v-6.952a.702.702 0 0 0-.78-.686l-4.754.472-2.378 3.43c.079.055.16.106.244.153Z" fill="url(#h)"/></g><defs><linearGradient id="b" x1="15.265" y1="8.376" x2="21.585" y2="10.021" gradientUnits="userSpaceOnUse"><stop stop-color="#235FAB"/><stop offset="1" stop-color="#15B09E"/></linearGradient><linearGradient id="d" x1="14.883" y1="19.925" x2="22.767" y2="19.925" gradientUnits="userSpaceOnUse"><stop stop-color="#235FAB"/><stop offset="1" stop-color="#15B09E"/></linearGradient><linearGradient id="f" x1="0" y1="9.922" x2="14.329" y2="9.922" gradientUnits="userSpaceOnUse"><stop stop-color="#235FAB"/><stop offset="1" stop-color="#15B09E"/></linearGradient><linearGradient id="h" x1="1.233" y1="19.906" x2="9.146" y2="19.906" gradientUnits="userSpaceOnUse"><stop stop-color="#235FAB"/><stop offset="1" stop-color="#15B09E"/></linearGradient></defs></svg>