<svg width="24" height="24" fill="none" xmlns="http://www.w3.org/2000/svg"><path fill-rule="evenodd" clip-rule="evenodd" d="M8.508 10.882c-.15-2.416-3.296-1.918-3.296-1.918l-.555 1.186H6.3s.913.193.848.925c-.084.947-1.131.86-1.131.86H3.95l-.5 1.207h2.37l.74 1.937h1.633l-.98-2.155s1.401-.345 1.295-2.042Z" fill="#000"/><path fill-rule="evenodd" clip-rule="evenodd" d="M19.595 15.078h-1.632l-.74-1.936H14.85l.5-1.208h2.068s1.047.087 1.131-.86c.065-.731-.848-.924-.848-.924h-1.643l.555-1.186s3.145-.498 3.296 1.918c.106 1.697-1.295 2.042-1.295 2.042l.98 2.154Zm-8.139-.02L8.943 8.942h1.436l1.763 4.297 1.784-4.297h1.447l-2.503 6.114h-1.414Zm-3.264.02H6.56l-.74-1.936H3.45l.5-1.208h2.067s1.047.087 1.132-.86c.065-.731-.849-.924-.849-.924H4.656l.555-1.186s3.146-.498 3.297 1.918c.106 1.697-1.295 2.042-1.295 2.042l.98 2.154ZM12 0C5.373 0 0 5.373 0 12s5.373 12 12 12 12-5.373 12-12S18.627 0 12 0Z" fill="#EFC40F"/><path fill-rule="evenodd" clip-rule="evenodd" d="m13.926 8.943-1.784 4.297-1.762-4.297H8.943l2.514 6.114h1.414l2.502-6.114h-1.447ZM19.91 10.882c-.15-2.416-3.296-1.918-3.296-1.918l-.555 1.186h1.643s.914.193.849.925c-.085.947-1.132.86-1.132.86h-2.067l-.5 1.207h2.371l.74 1.937h1.632l-.98-2.155s1.402-.345 1.296-2.042Z" fill="#000"/></svg>