<svg width="24" height="24" fill="none" xmlns="http://www.w3.org/2000/svg"><g clip-path="url(#a)"><path d="M12 23.672c6.446 0 11.672-5.226 11.672-11.672C23.672 5.554 18.446.328 12 .328 5.554.328.328 5.554.328 12c0 6.446 5.226 11.672 11.672 11.672Z" fill="#fff"/><path d="M12 0A12 12 0 1 1 0 12v-.128C.065 5.329 5.412-.018 12 0Zm.255.87C5.883.872.905 5.846.878 11.93.851 18.075 5.846 23.13 12 23.11c3.048-.011 5.68-1.09 7.834-3.239 2.45-2.444 3.524-5.443 3.244-8.877a10.653 10.653 0 0 0-3.201-6.84C17.707 2 15.067.91 12.252.87h.003Z" fill="#333"/><path d="M22.782 10.821a10.388 10.388 0 0 0-3.077-6.454c-2.125-2.132-4.714-3.215-7.733-3.22A10.85 10.85 0 0 0 11.9 22.84c3.006.021 5.614-1.031 7.737-3.157 2.438-2.44 3.49-5.42 3.145-8.862Zm-6.097-7.263a.33.33 0 1 1-.013.662.33.33 0 0 1 .013-.662Zm-1.485-.69a.34.34 0 0 1 .339.34.329.329 0 0 1-.339.32.32.32 0 0 1-.325-.316v-.015a.332.332 0 0 1 .325-.33Zm-1.563-.425a.375.375 0 0 1 .337.326.357.357 0 0 1-.363.334.332.332 0 0 1-.32-.334.342.342 0 0 1 .346-.326ZM12 2.307a.329.329 0 1 1 .003.658.329.329 0 0 1-.003-.658Zm-1.617.137a.343.343 0 0 1 .325.325.328.328 0 0 1-.331.33h-.012a.326.326 0 0 1-.323-.33.342.342 0 0 1 .335-.326l.006.001Zm-1.581.423a.33.33 0 0 1 .326.333.32.32 0 0 1-.308.327h-.015a.33.33 0 0 1-.343-.335.342.342 0 0 1 .34-.325Zm-1.487.691a.33.33 0 1 1 .047.66h-.047a.33.33 0 0 1 0-.66Zm-1.327.934a.337.337 0 0 1 .329.332.33.33 0 0 1-.33.33.318.318 0 0 1-.33-.325.33.33 0 0 1 .315-.34l.016.003ZM4.84 5.644a.332.332 0 0 1-.014.663.342.342 0 0 1-.33-.332.345.345 0 0 1 .342-.33h.002Zm-.943 1.342a.32.32 0 0 1 .326.321.33.33 0 0 1-.325.336.345.345 0 0 1-.338-.34.335.335 0 0 1 .335-.323l.002.006Zm-.69 1.475a.335.335 0 0 1 .331.337v.008a.334.334 0 0 1-.666-.02.338.338 0 0 1 .336-.325Zm-.43 1.574a.341.341 0 0 1 .34.337.332.332 0 0 1-.561.231.32.32 0 0 1-.094-.225.33.33 0 0 1 .316-.334l-.001-.009ZM2.307 12a.345.345 0 0 1 .33-.336.329.329 0 0 1 .332.327.325.325 0 0 1-.307.34h-.034a.341.341 0 0 1-.32-.331Zm.155 1.623a.332.332 0 0 1 .326-.332.343.343 0 0 1 .337.34.329.329 0 0 1-.339.32.317.317 0 0 1-.324-.308v-.02Zm.753 1.905a.333.333 0 0 1-.338-.322.345.345 0 0 1 .337-.342.34.34 0 0 1 .324.331.33.33 0 0 1-.329.33l.006.002Zm.688 1.481a.34.34 0 0 1-.335-.326.334.334 0 0 1 .33-.334h.008a.32.32 0 0 1 .326.325.326.326 0 0 1-.326.327h-.01l.007.008Zm0-2.585.017-.06h3.508c.91 0 .91 0 .91-.923v-2.307c0-.251.034-.368.334-.356.66.028 1.323.019 1.983 0 .231 0 .308.071.308.297a403.71 403.71 0 0 0 0 3.876c0 .246-.077.37-.337.346a1.125 1.125 0 0 0-.227 0c-.297.032-.399-.083-.399-.374.014-.934 0-1.866 0-2.8 0-.257-.08-.375-.355-.375-.276 0-.367.086-.362.36.012.933 0 1.867.01 2.8 0 .307-.093.393-.39.389-.945-.016-1.892.043-2.83-.027-.444-.032-.873-.281-1.302-.45-.291-.114-.58-.263-.874-.399l.006.003Zm.97 3.927A.338.338 0 0 1 4.499 18a.359.359 0 0 1 .348-.337.386.386 0 0 1 .336.364.39.39 0 0 1-.308.322v.002Zm1.109 1.143a.318.318 0 0 1-.319-.319v-.015A.333.333 0 0 1 6 18.832a.34.34 0 0 1 .33.334.328.328 0 0 1-.33.326h-.012l-.006.002Zm1.35.936A.32.32 0 0 1 7 20.11a.334.334 0 0 1 .322-.343h.009a.336.336 0 0 1 .306.459.326.326 0 0 1-.302.204h-.003Zm1.48.688a.33.33 0 0 1-.349-.307v-.019a.346.346 0 0 1 .334-.33.332.332 0 0 1 .244.555.318.318 0 0 1-.221.1l-.008.001ZM7.56 16.12c-.292-.117-.572-.265-.858-.399l.035-.094h4.494c.695 0 .606.062.615-.615V8.987c0-.33.09-.43.422-.418.64.025 1.28.015 1.921 0 .231 0 .334.06.334.308v7.457c0 .267-.114.35-.36.307a1.186 1.186 0 0 0-.255-.038c-.408.014-.41.017-.41-.41v-6.155c0-.169.065-.387-.216-.432-.33-.052-.428.025-.428.37v6.251c0 .425 0 .427-.437.427-1.086 0-2.17-.016-3.257 0-.615.024-1.077-.328-1.597-.534H7.56Zm2.823 5.418a.33.33 0 0 1-.34-.329.334.334 0 1 1 .34.33Zm1.617.154a.339.339 0 0 1-.332-.343.334.334 0 1 1 .332.343Zm1.6-.154a.33.33 0 0 1-.308-.337.333.333 0 0 1 .668.025.33.33 0 0 1-.343.308l-.017.004Zm1.598-.421a.322.322 0 0 1-.326-.308v-.015a.334.334 0 0 1 .326-.333.343.343 0 0 1 .337.34.33.33 0 0 1-.337.316Zm1.485-.69a.326.326 0 0 1-.236-.557.338.338 0 0 1 .238-.101.33.33 0 0 1 .324.335.322.322 0 0 1-.307.33h-.014l-.005-.007Zm.279-3.173c.049-.49-.022-7.365-.02-9.45 0-.201.021-.389-.288-.384-.25 0-.308.09-.308.326.01 1.077-.017 9.181-.017 9.181v1.019c-.115.012-.209.03-.307.03-1.41 0-2.82.028-4.228-.015-.354-.01-.706-.235-1.05-.38-.401-.16-.784-.358-1.146-.593.093 0 .185-.017.277-.017l4.72.02c.723 0 .713 0 .713-.696v-9.51c0-.265.06-.388.361-.38.683.022 1.368.015 2.051 0 .23 0 .308.08.308.309v10.824c0 .439 0 .439-.453.44-.698 0-.687-.012-.615-.721l.002-.003Zm1.053 2.236a.33.33 0 0 1-.332-.324.343.343 0 0 1 .34-.337.329.329 0 0 1 .322.337.305.305 0 0 1-.186.301.307.307 0 0 1-.122.025h-.023l.001-.002Zm.011-14.338a.33.33 0 0 1-.334-.33.34.34 0 0 1 .33-.331.328.328 0 0 1 .33.326.318.318 0 0 1-.298.337h-.019l-.009-.002Zm1.139 13.188a.33.33 0 1 1 .045-.66.33.33 0 0 1-.045.66Zm0-12.028a.334.334 0 1 1 .334-.334.334.334 0 0 1-.334.33v.004Zm2.373 4.062a.317.317 0 0 1-.307.324h-.019a.332.332 0 0 1-.334-.326.345.345 0 0 1 .353-.337.33.33 0 0 1 .307.339Zm-1.436-3.385a.334.334 0 0 1 .332.328.343.343 0 0 1-.342.335.332.332 0 0 1-.32-.338.321.321 0 0 1 .308-.328h.023l-.001.003Zm0 10.02a.327.327 0 0 1-.328-.328.32.32 0 0 1 .308-.33h.017a.333.333 0 0 1 .312.197c.017.04.027.083.027.127v.008a.337.337 0 0 1-.332.325l-.004.001Zm.689-8.548a.33.33 0 1 1-.33.325.337.337 0 0 1 .33-.325Zm.01 7.063a.332.332 0 0 1-.34-.318.334.334 0 1 1 .667-.014.332.332 0 0 1-.326.332Zm.408-1.576a.335.335 0 0 1-.327-.331.343.343 0 0 1 .349-.33.33.33 0 0 1 .307.342.318.318 0 0 1-.316.319h-.013Zm.154-1.625a.317.317 0 0 1-.33-.326.308.308 0 0 1 .275-.337h.021a.35.35 0 0 1 .377.326V12a.32.32 0 0 1-.321.323h-.022Z" fill="#004B6A"/></g><defs><clipPath id="a"><path fill="#fff" d="M0 0h24v24H0z"/></clipPath></defs></svg>