<svg width="24" height="24" viewBox="0 0 24 24" fill="none" xmlns="http://www.w3.org/2000/svg">
<path d="M16.5137 9.51861L18.4721 11.0008L19.7105 11.9366L18.3271 12.6399L15.5488 14.0582L16.5021 14.715L17.8331 15.6392L16.3916 16.3832L7.55664 20.9402C9.02569 21.7485 10.6752 22.1724 12.352 22.1724C17.8448 22.1724 22.2976 17.7201 22.2976 12.2269C22.3027 9.89793 21.4855 7.64188 19.99 5.85645L16.5137 9.51861Z" fill="#091B26"/>
<path d="M7.78422 15.1775L5.82585 13.6895L4.58746 12.7537L5.9708 12.0505L8.74911 10.632L7.79584 9.96958L6.46481 9.04521L7.90633 8.30122L17.2121 3.50012C15.636 2.51129 13.8119 1.98931 11.9513 1.99467C6.45857 1.99467 2.00586 6.447 2.00586 11.9402C2.00586 14.4918 2.97074 16.8226 4.55175 18.5838L7.78422 15.1775Z" fill="#091B26"/>
<path d="M3.79551 19.0824C2.04017 17.1585 0.970644 14.6009 0.970644 11.7993C0.970644 5.82991 5.82991 0.970644 11.7993 0.970644C14.0022 0.970644 16.147 1.63908 17.9548 2.90022L18.9196 2.40036C16.9438 0.895093 14.4731 0 11.7993 0C5.2952 0 0 5.2952 0 11.7993C0 14.8798 1.18578 17.6815 3.12131 19.7854L3.79551 19.0821V19.0824Z" fill="#091B26"/>
<path d="M20.4429 5.11071C22.053 6.99978 23.0295 9.45264 23.0295 12.1205C23.0295 18.0899 18.1702 22.9492 12.2008 22.9492C10.1781 22.9492 8.19602 22.3854 6.48714 21.3159L5.49316 21.8274C7.46364 23.1933 9.80602 23.9201 12.2008 23.9201C18.705 23.9201 24.0002 18.6249 24.0002 12.1208C24.0002 9.17367 22.9133 6.47111 21.1172 4.40186L20.443 5.111L20.4429 5.11071Z" fill="#091B26"/>
<path d="M6.47911 12.9653L9.30398 15.1042L2.92188 21.8293L15.6105 15.2845L13.3204 13.6977L17.5461 11.5354L14.7212 9.3964L21.1033 2.67725L8.41474 9.22206L10.7048 10.8092L6.47911 12.9653Z" fill="#23BEE2"/>
</svg>
