<svg width="24" height="24" fill="none" xmlns="http://www.w3.org/2000/svg"><path d="M12 24c6.627 0 12-5.373 12-12S18.627 0 12 0 0 5.373 0 12s5.373 12 12 12Z" fill="#000"/><path fill-rule="evenodd" clip-rule="evenodd" d="M13.04 16.82v2.805c0 .383-.31.694-.693.694a.704.704 0 0 1-.369-.102L6.15 16.65a1.395 1.395 0 0 1-.665-1.19v-2.703c0-.32.262-.582.583-.582.102 0 .204.029.29.082l6.106 3.558c.36.208.578.592.578 1.005Z" fill="#01D494"/><path fill-rule="evenodd" clip-rule="evenodd" d="M15.826 12.52v5.688c0 .17-.087.325-.233.402l-1.34.753a.177.177 0 0 1-.053.024v-3.16c0-.407-.213-.786-.567-1L8.274 12.02V8.457a.584.584 0 0 1 .874-.504l6.1 3.562c.36.209.578.592.578 1.005Z" fill="#01D494"/><path fill-rule="evenodd" clip-rule="evenodd" d="M18.5 16.63c0 .17-.091.325-.242.408l-1.266.684v-5.785c0-.413-.214-.786-.564-1l-5.484-3.286V4.27a.587.587 0 0 1 .873-.505l6.106 3.548c.36.208.578.592.578 1.004v8.314Z" fill="#01D494"/></svg>