<svg width="24" height="24" viewBox="0 0 24 24" fill="none" xmlns="http://www.w3.org/2000/svg">
<path fill-rule="evenodd" clip-rule="evenodd" d="M24 12C24 18.6274 18.6274 24 12 24C5.37255 24 0 18.6274 0 12C0 5.37255 5.37255 0 12 0C18.6274 0 24 5.37255 24 12Z" fill="#2E344F"/>
<path fill-rule="evenodd" clip-rule="evenodd" d="M19.1992 19.2946L17.966 18.0614L17.6855 18.3139C16.1242 19.7199 14.1065 20.494 12.0043 20.494C7.32075 20.494 3.51046 16.6837 3.51046 12.0002C3.51046 7.31664 7.32075 3.50628 12.0043 3.50628C14.1066 3.50628 16.1242 4.28051 17.6855 5.68637L17.966 5.93896L19.1992 4.70568C21.0841 6.56608 22.2543 9.14886 22.2543 12.0002C22.2543 14.8514 21.0841 17.4342 19.1992 19.2946ZM1.74599 12.0002C1.74599 6.34604 6.34604 1.74599 12.0002 1.74599C14.5172 1.74599 16.8248 2.65819 18.6113 4.1686L17.9319 4.84796C16.2674 3.46696 14.1773 2.7107 12.0043 2.7107C6.88206 2.7107 2.71488 6.87795 2.71488 12.0002C2.71488 17.1224 6.88206 21.2896 12.0043 21.2896C14.1772 21.2896 16.2674 20.5333 17.9319 19.1524L18.6113 19.8317C16.8248 21.3421 14.5172 22.2543 12.0002 22.2543C6.34604 22.2543 1.74599 17.6543 1.74599 12.0002ZM12.0002 1.08301C5.98047 1.08301 1.08301 5.9804 1.08301 12.0002C1.08301 18.0198 5.98047 22.9173 12.0002 22.9173C18.0198 22.9173 22.9173 18.0198 22.9173 12.0002C22.9173 5.9804 18.0198 1.08301 12.0002 1.08301Z" fill="#FFFFFE"/>
<path fill-rule="evenodd" clip-rule="evenodd" d="M12.2937 18.3857C13.7273 18.3216 15.0629 17.7933 16.1561 16.858L16.4828 16.5785L14.8972 14.9928L14.6187 15.2193C13.8825 15.8181 12.9539 16.1479 12.0039 16.1479C9.99999 16.1479 8.28452 14.719 7.92492 12.7501L7.86532 12.4238H5.61091L5.6729 12.8756C5.85761 14.2228 6.45621 15.4544 7.40395 16.4372C8.27113 17.3366 9.3567 17.9516 10.5602 18.2284L10.5601 18.8971C7.33626 18.2243 4.95867 15.3371 4.95867 12C4.95867 8.11527 8.11911 4.95476 12.0039 4.95476C12.1603 4.95476 12.3173 4.96 12.4735 4.97027L12.481 6.41306L12.8194 6.46252C13.718 6.59392 14.5675 6.94291 15.3005 7.47874L14.8328 7.94647C14.007 7.37041 13.0155 7.05648 12.0039 7.05648C9.45555 7.05648 7.34116 8.96601 7.08558 11.4982L7.87719 11.5781C8.09153 9.4539 9.86567 7.85206 12.0039 7.85206C12.9538 7.85206 13.8824 8.1819 14.6187 8.7807L14.8972 9.00725L16.4828 7.42152L16.1561 7.14207C15.3255 6.43142 14.3348 5.94864 13.273 5.73416L13.2652 4.2524L12.9152 4.21175C12.6149 4.17688 12.3082 4.15918 12.0039 4.15918C7.68048 4.15918 4.16309 7.67657 4.16309 12C4.16309 13.9018 4.85252 15.7361 6.10437 17.1649C7.34441 18.5802 9.04835 19.5032 10.9024 19.764L11.3555 19.8277L11.3559 17.5695L11.027 17.5117C8.77898 17.116 7.02664 15.418 6.54174 13.2194H7.21327C7.76368 15.3964 9.72764 16.9435 12.0039 16.9435C13.0156 16.9435 14.0071 16.6296 14.8328 16.0536L15.3007 16.5215C14.412 17.1731 13.3685 17.5412 12.258 17.5909L12.2937 18.3857Z" fill="#FFFFFE"/>
<path fill-rule="evenodd" clip-rule="evenodd" d="M14.1162 5.27754C15.0588 5.57389 15.915 6.05787 16.6611 6.71595L17.1873 6.11933C16.3572 5.38713 15.4043 4.84852 14.3548 4.51855L14.1162 5.27754Z" fill="#FFFFFE"/>
<path fill-rule="evenodd" clip-rule="evenodd" d="M12.2617 19.0407L12.2904 19.8358C14.0927 19.771 15.832 19.0767 17.1878 17.8809L16.6615 17.2842C15.4434 18.3587 13.8808 18.9825 12.2617 19.0407Z" fill="#FFFFFE"/>
<path fill-rule="evenodd" clip-rule="evenodd" d="M11.507 5.62695C9.9906 5.74377 8.56181 6.40258 7.48373 7.48205C6.40592 8.56132 5.74857 9.99104 5.63281 11.5079L6.42607 11.5684C6.63398 8.84328 8.84457 6.62998 11.568 6.42015L11.507 5.62695Z" fill="#FFFFFE"/>
</svg>
