<svg width="24" height="24" fill="none" xmlns="http://www.w3.org/2000/svg"><mask id="a" mask-type="alpha" maskUnits="userSpaceOnUse" x="0" y="0" width="24" height="24"><path d="M24 12c0 6.627-5.373 12-12 12S0 18.627 0 12 5.373 0 12 0s12 5.373 12 12Z" fill="#fff"/></mask><g mask="url(#a)"><path fill-rule="evenodd" clip-rule="evenodd" d="M24 12c0 6.627-5.373 12-12 12S0 18.627 0 12 5.373 0 12 0s12 5.373 12 12Z" fill="url(#b)"/></g><path fill-rule="evenodd" clip-rule="evenodd" d="m12 9.478 3.847 8.969h3.333L12.596 3.3h-1.192L4.819 18.446h3.333L12 9.479Z" fill="#FFFFFE"/><defs><linearGradient id="b" x1="21.018" y1="3.456" x2="3.383" y2="20.163" gradientUnits="userSpaceOnUse"><stop stop-color="#2AAF8E"/><stop offset="1" stop-color="#283B45"/></linearGradient></defs></svg>