<svg width="24" height="24" fill="none" xmlns="http://www.w3.org/2000/svg"><path d="M3.868 21.18a2.44 2.44 0 1 0-.098-4.88 2.44 2.44 0 0 0 .098 4.88ZM1.659 15.461a1.657 1.657 0 1 0 0-3.314 1.657 1.657 0 0 0 0 3.314ZM5.68 5.296a1.258 1.258 0 1 0 0-2.517 1.258 1.258 0 0 0 0 2.517ZM10.839 2.919a.958.958 0 1 0 0-1.916.958.958 0 0 0 0 1.916ZM16.208 3.513a.797.797 0 1 0 0-1.594.797.797 0 0 0 0 1.594ZM20.543 6.757a.594.594 0 1 0 0-1.188.594.594 0 0 0 0 1.188ZM22.612 12.602a1.384 1.384 0 1 0 0-2.769 1.384 1.384 0 0 0 0 2.77ZM21.863 17.79a1.238 1.238 0 1 0 0-2.476 1.238 1.238 0 0 0 0 2.475ZM18.571 21.767a.965.965 0 1 0 0-1.93.965.965 0 0 0 0 1.93ZM13.425 23.396a.636.636 0 1 0 0-1.272.636.636 0 0 0 0 1.273ZM8.3 22.453a.44.44 0 1 0 0-.881.44.44 0 0 0 0 .88ZM2.754 10.795a2.35 2.35 0 1 0-.26-4.691 2.35 2.35 0 0 0 .26 4.691ZM7.938 10.448l1.95-1.111-.007 6.467L7.937 16.9v-6.453ZM15.71 10.448l1.951-1.111-.007 6.467-1.943 1.097v-6.453ZM11.817 10.448l1.951-1.111-.007 6.467-1.944 1.097v-6.453Z" fill="#000"/><path d="m6.05 9.295 1.908-1.126 1.93 1.168-1.95 1.112L6.05 9.295ZM9.923 9.295l1.909-1.126 1.93 1.168-1.944 1.112-1.895-1.154ZM13.824 9.302l1.909-1.125 1.93 1.167-1.951 1.112-1.888-1.154Z" fill="#000"/></svg>