<svg width="24" height="24" fill="none" xmlns="http://www.w3.org/2000/svg"><path d="M12 24c6.627 0 12-5.373 12-12S18.627 0 12 0 0 5.373 0 12s5.373 12 12 12Z" fill="url(#a)"/><path fill-rule="evenodd" clip-rule="evenodd" d="M8.502 7.8v9h7.5l-7.5-9Z" fill="url(#b)"/><path fill-rule="evenodd" clip-rule="evenodd" d="M1.002 16.8h7.5v-9l-7.5 9Z" fill="#fff"/><path fill-rule="evenodd" clip-rule="evenodd" d="M2.4 19.2a12.29 12.29 0 0 0 2.4 2.4h14.4a12.29 12.29 0 0 0 2.4-2.4H2.4Z" fill="#FC9965"/><path fill-rule="evenodd" clip-rule="evenodd" d="M4.8 21.6A11.95 11.95 0 0 0 12 24c2.7 0 5.196-.894 7.2-2.4H4.8Z" fill="#FF2D55"/><path fill-rule="evenodd" clip-rule="evenodd" d="M16.098 12.6v6.6H21.6l-5.502-6.6Z" fill="url(#c)"/><path fill-rule="evenodd" clip-rule="evenodd" d="M16.098 16.8H1.002c.372.858.846 1.662 1.398 2.4h13.704v-2.4h-.006Z" fill="#FFBC5B"/><path fill-rule="evenodd" clip-rule="evenodd" d="M10.602 19.2h5.496v-6.6l-5.496 6.6Z" fill="#fff"/><path d="M16.098 10.8a3 3 0 1 0 0-6 3 3 0 0 0 0 6ZM8.502 6a1.5 1.5 0 1 0 0-3 1.5 1.5 0 0 0 0 3Z" fill="#FFC95B"/><defs><linearGradient id="a" x1="20.485" y1="3.515" x2="3.515" y2="20.485" gradientUnits="userSpaceOnUse"><stop stop-color="#FF2D55"/><stop offset="1" stop-color="#FFBC5B"/></linearGradient><linearGradient id="b" x1="12.249" y1="7.8" x2="12.249" y2="16.8" gradientUnits="userSpaceOnUse"><stop stop-color="#A524B3"/><stop offset="1" stop-color="#FF2D55"/></linearGradient><linearGradient id="c" x1="18.847" y1="12.6" x2="18.847" y2="19.2" gradientUnits="userSpaceOnUse"><stop stop-color="#A524B3"/><stop offset="1" stop-color="#FF2D55"/></linearGradient></defs></svg>