<svg width="24" height="24" viewBox="0 0 24 24" fill="none" xmlns="http://www.w3.org/2000/svg">
<path fill-rule="evenodd" clip-rule="evenodd" d="M23.9621 11.9569C23.9621 18.5514 18.6164 23.8972 12.0218 23.8972C5.42733 23.8972 0.081543 18.5514 0.081543 11.9569C0.081543 5.36239 5.42733 0.0166016 12.0218 0.0166016C18.6164 0.0166016 23.9621 5.36239 23.9621 11.9569Z" fill="#E1F0FF"/>
<path fill-rule="evenodd" clip-rule="evenodd" d="M8.93701 10.4247L18.1111 5.09131V16.0179C18.1111 17.5038 17.307 18.8734 16.0094 19.5975L15.3648 19.957V9.19089L11.0167 11.6784L8.93701 10.4247Z" fill="#25558B"/>
<path fill-rule="evenodd" clip-rule="evenodd" d="M14.5093 13.6285L8.9371 10.4245L18.1113 5.09114L17.2263 4.63634C15.9911 4.00159 14.5185 4.03538 13.3137 4.72625L4.00098 10.0663L14.4296 16.1359L14.5093 13.6285Z" fill="#5191D9"/>
<path fill-rule="evenodd" clip-rule="evenodd" d="M4.00098 10.0665V11.2504C4.00098 12.7317 4.80026 14.0979 6.0916 14.8236L15.3849 20.047V9.19092L13.0897 10.4925V15.3364L4.00098 10.0665Z" fill="#97BDE8"/>
</svg>
