<svg width="24" height="24" fill="none" xmlns="http://www.w3.org/2000/svg"><path d="M12 24c6.627 0 12-5.373 12-12S18.627 0 12 0 0 5.373 0 12s5.373 12 12 12Z" fill="#000"/><path d="M11.922 3.299c-.11-.248.287-.423.396-.188 2.574 4.434 5.148 8.87 7.722 13.311-.137 0-.269-.045-.401-.066l-6.87-1.37c-.225-.01-.274-.374-.055-.428l2.696-.743a.225.225 0 0 0 .148-.313l-3.636-10.21v.006Z" fill="#fff"/><path d="M11.527 3.321a.79.79 0 0 1 .066.116c.814 2.31 1.65 4.62 2.458 6.93.072.192-.198.351-.33.208-.693-.726-1.353-1.473-2.034-2.2-.11-.098-.27-.032-.342.072l-7.084 8.322c-.082.088-.153.22-.291.236-.1 0-.165-.077-.22-.154v-.127C6.346 12.258 8.938 7.79 11.527 3.32Z" fill="#fff"/><path d="M9.36 11.246c.132-.038.308.055.264.215-.275.957-.566 1.909-.853 2.86-.043.121.066.23.182.237 3.707.742 7.414 1.512 11.12 2.254.073.011.122.066.177.11v.154l-.105.11H4.41c1.65-1.98 3.295-3.97 4.95-5.94Z" fill="#fff"/></svg>