<svg width="24" height="24" fill="none" xmlns="http://www.w3.org/2000/svg"><path d="M12 24c6.627 0 12-5.373 12-12S18.627 0 12 0 0 5.373 0 12s5.373 12 12 12Z" fill="#242D3D"/><path d="M17.351 13.1c-.413-1.82-1.698-3.827-1.698-3.827 1.48 4.04.91 7.087.519 8.816 0 0-.518 1.934.596.323 1.389-2.016.583-5.312.583-5.312ZM13.694 5.933c.77 2.744 1.119 5.072 1.228 7.014.191 3.309-.314 5.486-.627 6.636-.1.374.318.652.562.37l.004-.005c.609-.697.897-2.329 1.032-3.761l.039-.47c.126-1.725.053-3.466-.353-5.134-.744-3.078-1.885-4.65-1.885-4.65Zm-1.38 4.833c-.188-4.506-.527-8.507-.527-8.507s-.344 3.8-.531 8.206a112.701 112.701 0 0 0-.122 5.334c.004 1.833.075 3.553.24 4.925.065.543.77.543.835 0 .113-.936.178-2.086.205-3.349a92.932 92.932 0 0 0-.018-4.097c-.022-.836-.048-1.68-.082-2.512Zm-5.264 5.43a13.803 13.803 0 0 1-.07-2.56c.043-.671.14-1.39.305-2.156.152-.701.361-1.437.644-2.212 0 0-.906 1.415-1.437 2.943a7.6 7.6 0 0 0-.257.884s-.17.767-.195 1.79c-.018.71.038 1.55.265 2.342.114.415.286.812.51 1.18 0 0 1.114 1.659.596-.323a14.836 14.836 0 0 1-.361-1.889Z" fill="#fff"/><path d="M8.64 15.307a23.761 23.761 0 0 1 .043-2.69c.045-.662.115-1.321.209-1.977.195-1.41.514-2.974.997-4.707 0 0-1.146 1.572-1.89 4.65-.04.165-.075.33-.11.492a15.16 15.16 0 0 0-.265 2.038c-.052.862-.039 1.732.023 2.6l.039.474c.135 1.433.418 3.065 1.031 3.761l.005.005c.243.279.666 0 .562-.37a18.955 18.955 0 0 1-.645-4.276Z" fill="#fff"/><path d="M10.541 15.477a74.413 74.413 0 0 1-.013-2.996c.009-.657.026-1.35.057-2.076.074-1.877.427-4.59.67-6.888 0 0-1.201 2.486-1.75 6.97a43.196 43.196 0 0 0-.196 1.99l-.039.532s-.065.948-.04 2.229c.036 1.645.218 3.84.897 5.277a.37.37 0 0 0 .083.112l.004.005c.258.244.654.013.62-.366a61.46 61.46 0 0 1-.293-4.79Zm2.49 0c.023-.897.031-1.898.014-2.996a72.342 72.342 0 0 0-.057-2.076c-.073-1.877-.426-4.59-.67-6.888 0 0 1.202 2.486 1.75 6.97.074.614.144 1.276.196 1.99l.04.532s.065.948.038 2.229c-.035 1.645-.217 3.84-.897 5.277a.362.362 0 0 1-.082.112l-.005.005c-.257.244-.652.013-.617-.366.087-.822.234-2.455.29-4.79Z" fill="#fff"/></svg>