<svg width="24" height="24" fill="none" xmlns="http://www.w3.org/2000/svg"><g clip-path="url(#a)"><path d="M0 2V14.088h4.027V2H0ZM19.974 10.053V22.142H24V10.053h-4.026ZM11.911 2v7.885l4.027 4.027V6.027L11.91 2ZM8.062 10.23v7.885l4.026 4.027v-7.885L8.062 10.23Z" fill="#424242"/><path d="M11.911 2h4.027L24 10.053h-4.027L11.911 2ZM0 14.088h4.027l8.061 8.054H8.063L0 14.088Z" fill="#000"/><path d="M15.938 6.027V13.858L4.026 2V14.088l4.036 4.027v-7.832l11.911 11.859V10.053l-4.035-4.026Z" fill="#3CC68A"/></g><defs><clipPath id="a"><path fill="#fff" d="M0 0h24v24H0z"/></clipPath></defs></svg>