<svg width="24" height="24" viewBox="0 0 24 24" fill="none" xmlns="http://www.w3.org/2000/svg">
<path d="M12 24C18.6274 24 24 18.6274 24 12C24 5.37258 18.6274 0 12 0C5.37258 0 0 5.37258 0 12C0 18.6274 5.37258 24 12 24Z" fill="#15BDFF"/>
<path d="M11.0531 18.5505L5.27961 6.7845C5.23682 6.69639 5.24227 6.59249 5.29405 6.50935C5.34582 6.4262 5.43667 6.37547 5.53461 6.375H7.53561C7.64286 6.375 7.74336 6.435 7.79061 6.5295L12.0071 15.0652C12.3821 15.8302 13.4704 15.8302 13.8461 15.0652L18.0491 6.53625C18.0985 6.44109 18.1969 6.38148 18.3041 6.38175H18.5531C18.7009 6.38175 18.7946 6.53625 18.7279 6.66375L12.8929 18.5512C12.5171 19.3162 11.4296 19.3162 11.0531 18.5512V18.5505Z" fill="white"/>
</svg>
