<svg width="24" height="24" viewBox="0 0 24 24" fill="none" xmlns="http://www.w3.org/2000/svg">
<path d="M12 24C18.6274 24 24 18.6274 24 12C24 5.37258 18.6274 0 12 0C5.37258 0 0 5.37258 0 12C0 18.6274 5.37258 24 12 24Z" fill="#42C1CA"/>
<path d="M11.949 9.68105C12.228 8.5088 12.564 7.45505 12.921 6.7673C13.0523 6.4388 13.5848 5.65205 14.169 5.1323C15.1418 4.26605 16.233 4.0463 17.3693 4.75955L17.2695 4.9178L17.3693 4.75955C17.949 5.1233 18.1815 5.49755 18.0795 5.85005C18.0045 6.11255 17.7173 6.32255 17.5635 6.3008C17.3385 6.3233 17.112 6.2783 16.896 6.1193C16.7142 5.97924 16.5739 5.7923 16.4903 5.57855C16.3313 5.20355 16.1228 5.07605 15.867 5.10605C15.6818 5.12705 15.4665 5.24555 15.3983 5.32505L15.222 5.52005C15.085 5.66594 14.9634 5.82553 14.859 5.9963C14.502 6.59105 14.1728 7.6808 13.716 9.93905L16.743 10.3823L16.5765 11.5951L13.5045 11.1451L13.3733 11.9431L13.3395 12.1426C13.3215 12.2461 13.302 12.3586 13.2795 12.4786L16.3815 12.9331L16.2038 14.1443L13.029 13.6793C12.6623 15.2378 12.1793 16.9081 11.838 17.5673C11.706 17.8966 11.1743 18.6818 10.59 19.2023C9.61728 20.0678 8.52603 20.2883 7.38978 19.5751C6.81003 19.2113 6.57753 18.8363 6.67953 18.4838C6.75453 18.2213 7.04178 18.0121 7.19553 18.0338C7.42053 18.0113 7.64703 18.0563 7.86303 18.2146C8.02953 18.3376 8.16753 18.5161 8.26878 18.7561C8.42778 19.1303 8.63628 19.2586 8.89203 19.2286C9.07728 19.2068 9.29253 19.0883 9.36078 19.0088C10.041 18.2513 10.5803 16.7918 11.262 13.4213L8.23503 12.9773L8.40153 11.7646L11.4735 12.2146L11.6055 11.4173C11.6347 11.2382 11.666 11.0594 11.6993 10.8811L8.60928 10.4288L8.78628 9.21755L11.949 9.68105Z" fill="white"/>
</svg>
