<svg width="24" height="24" viewBox="0 0 24 24" fill="none" xmlns="http://www.w3.org/2000/svg">
<path d="M11.9798 23.274C18.294 23.274 23.4126 18.1553 23.4126 11.8411C23.4126 5.52688 18.294 0.408203 11.9798 0.408203C5.66555 0.408203 0.546875 5.52688 0.546875 11.8411C0.546875 18.1553 5.66555 23.274 11.9798 23.274Z" fill="url(#paint0_radial)"/>
<path d="M12.4129 21.188C17.0403 21.188 20.7916 17.6737 20.7916 13.3386C20.7916 9.00355 17.0403 5.48926 12.4129 5.48926C7.78545 5.48926 4.03418 9.00355 4.03418 13.3386C4.03418 17.6737 7.78545 21.188 12.4129 21.188Z" fill="url(#paint1_linear)"/>
<path d="M12.0586 23.4299C17.0546 23.4299 21.1046 19.6357 21.1046 14.9554C21.1046 10.2751 17.0546 6.48096 12.0586 6.48096C7.0627 6.48096 3.0127 10.2751 3.0127 14.9554C3.0127 19.6357 7.0627 23.4299 12.0586 23.4299Z" fill="url(#paint2_radial)"/>
<path d="M9.52434 19.6793C9.48302 19.6748 8.50626 19.5675 7.99847 19.2773C7.91202 19.2279 5.87164 18.0505 5.05617 16.5827C4.36866 15.3451 3.20423 13.1096 3.13065 12.0418C3.06369 11.0712 3.11634 8.99292 3.4595 8.30667C3.4834 8.25891 3.51292 8.19353 3.55031 8.11068C3.77414 7.61479 4.23993 6.58299 5.16474 5.67171C6.31103 4.54222 7.78122 3.96814 9.53447 3.96545C9.54604 3.96531 10.8106 3.94971 12.2332 3.94971C13.069 3.94971 13.7951 3.95499 14.3914 3.9655C16.2849 3.99872 17.7975 4.15884 18.5174 4.2859L18.6415 4.30755C19.1461 4.39496 19.335 4.42769 19.3758 4.79513C19.4108 5.10987 19.6918 7.39347 19.6946 7.41651L19.7022 7.47809L17.9578 8.53716H19.8322L20.017 12.0467L17.9799 13.5341H19.8191L19.1903 17.2704L15.694 19.2528L9.53279 19.6802L9.52434 19.6793Z" fill="url(#paint3_linear)"/>
<path d="M12.2331 4.04552C12.9525 4.04552 13.7162 4.04945 14.3897 4.06126C16.4097 4.09668 17.8981 4.2739 18.5006 4.38022C19.1031 4.48654 19.2449 4.48654 19.2803 4.8055C19.3157 5.12446 19.5993 7.42798 19.5993 7.42798L17.6146 8.63292H19.741L19.9182 11.9996L17.6855 13.6298H19.7056L19.1031 17.2092L15.6655 19.1583L9.53457 19.5836C9.53457 19.5836 8.54226 19.4773 8.04614 19.1938C7.55001 18.9103 5.84889 17.8117 5.14012 16.5358C4.43135 15.26 3.2973 13.0628 3.22641 12.0351C3.15551 11.0073 3.22641 8.98731 3.54537 8.34939C3.86433 7.71147 5.14007 4.06798 9.53457 4.06126C9.53447 4.06126 10.7947 4.04552 12.2331 4.04552ZM12.2331 3.85352C10.8099 3.85352 9.5447 3.86912 9.53212 3.86926C7.75492 3.87195 6.26212 4.45534 5.09726 5.60312C4.15967 6.52697 3.68894 7.56982 3.46271 8.07099C3.42724 8.14961 3.39657 8.21748 3.37358 8.26352C3.02265 8.96542 2.96721 11.0683 3.03479 12.0483C3.10972 13.1345 4.28082 15.3846 4.97222 16.6291C5.8005 18.12 7.8634 19.3105 7.95081 19.3604C8.47578 19.6604 9.47193 19.77 9.51407 19.7745L9.53092 19.7763L9.54782 19.7752L15.6788 19.3499L15.7222 19.3469L15.7602 19.3254L19.1978 17.3762L19.2773 17.3311L19.2924 17.2411L19.8949 13.6617L19.9326 13.4378H19.7055H18.274L20.0314 12.1547L20.1154 12.0934L20.1099 11.9896L19.9327 8.62284L19.9231 8.44092H19.741H18.3008L19.6989 7.59209L19.8049 7.52768L19.7898 7.40451C19.7869 7.38147 19.506 5.09844 19.4711 4.78428C19.4223 4.34518 19.1668 4.30092 18.6578 4.21275C18.6189 4.20598 18.5776 4.19888 18.534 4.19115C17.8107 4.06352 16.2922 3.90262 14.393 3.86931C13.7962 3.85884 13.0695 3.85352 12.2331 3.85352Z" fill="#692CC2"/>
<path d="M3.33203 12.043C3.33203 12.043 3.42803 13.291 3.94005 14.4431C4.45206 15.5951 5.70241 17.417 6.14814 17.8992C6.8115 18.6167 8.1004 19.4576 8.90041 19.5536C9.70043 19.6496 11.887 19.4972 12.382 19.4903C12.7036 19.4858 15.3137 19.2223 15.6657 19.1583C16.0178 19.0943 19.0193 17.3758 19.1033 17.2092C19.1721 17.0729 19.2102 16.5742 19.2102 16.5742L16.765 17.1371L9.3988 17.4852C9.15765 17.4949 8.79875 17.4552 8.51517 17.4306C8.15824 17.3997 7.81696 17.3324 7.40243 17.2015C6.9581 17.0612 6.40216 16.7739 5.94822 16.4295C5.30963 15.9451 4.54394 15.1844 4.10018 14.0911C3.81832 13.3969 3.33203 12.043 3.33203 12.043Z" fill="white"/>
<path d="M6.87695 8.66836L7.76294 7.46341C7.76294 7.46341 7.72751 7.14444 9.39311 7.10902C11.0587 7.0736 19.2097 7.35709 19.2097 7.35709L17.5441 8.66836H6.87695Z" fill="url(#paint4_linear)"/>
<path d="M19.4933 12.0352L17.4024 13.6299L8.15279 13.9134C8.15279 13.9134 7.33771 13.2401 7.19591 12.9743C7.05417 12.7085 6.87695 12.3541 6.87695 12.3541C6.87695 12.3541 16.5164 12.2832 17.4378 12.2478C18.3593 12.2123 19.4933 12.0352 19.4933 12.0352Z" fill="url(#paint5_linear)"/>
<path d="M18.4295 17.3156C18.4295 17.3156 15.7361 18.9104 15.5235 18.9813C15.3108 19.0522 10.1802 19.4064 9.676 19.4066C9.0256 19.4067 8.22299 19.1939 7.69139 18.8041C7.15979 18.4143 6.3447 17.6346 6.16748 17.3157C5.99027 16.9967 5.49414 16.4297 5.49414 16.4297C5.49414 16.4297 6.69908 17.2094 7.5496 17.4574C8.40016 17.7055 10.1925 17.6493 11.0077 17.6139C11.8228 17.5785 18.4295 17.3156 18.4295 17.3156Z" fill="url(#paint6_linear)"/>
<path d="M17.4291 3.25101C17.4291 3.25101 15.5387 2.68389 14.3234 2.71092C13.1081 2.73794 11.5418 2.84594 10.7316 3.11599C9.92143 3.38603 9.59738 3.54808 9.59738 3.54808C9.59738 3.54808 10.1105 4.1692 10.0565 4.76334C10.0025 5.35749 9.40835 6.05963 8.70621 6.24865C8.00407 6.43768 7.30192 6.54573 6.76178 6.43768C6.22164 6.32968 4.9794 5.62749 4.9794 5.62749L4.03418 4.95232C4.03418 4.95232 4.9794 3.65603 6.54573 2.89989C8.11207 2.14375 9.70543 1.49561 11.7039 1.49561C13.7023 1.49561 15.1336 1.95472 15.9708 2.3598C16.8079 2.76492 17.4291 3.25101 17.4291 3.25101Z" fill="white"/>
<path d="M4.03417 4.95264C4.03417 4.95264 3.31518 5.86262 3.13283 6.26371C2.95048 6.66484 2.3488 7.83172 2.23941 8.98041C2.13001 10.1291 2.11177 11.0193 2.23941 11.6226C2.36704 12.2259 2.58582 13.0646 2.58582 13.0646C2.58582 13.0646 3.33337 9.98328 3.44277 9.23572C3.55216 8.48817 4.08093 6.90192 4.53673 6.35491C4.99254 5.8079 5.41192 5.15155 5.41192 5.15155L4.03417 4.95264Z" fill="url(#paint7_linear)"/>
<path d="M5.41191 5.15137C5.41191 5.15137 4.61468 6.1921 4.44274 6.48073C4.27081 6.76935 3.5594 7.90993 3.51567 8.48799C3.47195 9.06606 3.35156 10.293 3.35156 10.293C3.35156 10.293 4.62788 7.9957 4.97429 7.59457C5.32071 7.19343 6.32352 5.86244 6.32352 5.86244L5.41191 5.15137Z" fill="url(#paint8_linear)"/>
<defs>
<radialGradient id="paint0_radial" cx="0" cy="0" r="1" gradientUnits="userSpaceOnUse" gradientTransform="translate(6.52297 4.78922) scale(12.3418)">
<stop stop-color="#21FFE3"/>
<stop offset="1" stop-color="#8549DF"/>
</radialGradient>
<linearGradient id="paint1_linear" x1="12.7828" y1="21.2005" x2="12.1112" y2="6.92886" gradientUnits="userSpaceOnUse">
<stop stop-color="#21FFE3"/>
<stop offset="1" stop-color="#8549DF"/>
</linearGradient>
<radialGradient id="paint2_radial" cx="0" cy="0" r="1" gradientUnits="userSpaceOnUse" gradientTransform="translate(12.0586 14.9554) scale(10.6974)">
<stop stop-color="#21FFE3"/>
<stop offset="0.1916" stop-color="#23FCE3" stop-opacity="0.8084"/>
<stop offset="0.3419" stop-color="#28F2E3" stop-opacity="0.6581"/>
<stop offset="0.478" stop-color="#31E1E2" stop-opacity="0.522"/>
<stop offset="0.6059" stop-color="#3ECAE2" stop-opacity="0.3941"/>
<stop offset="0.728" stop-color="#4FACE1" stop-opacity="0.272"/>
<stop offset="0.8458" stop-color="#6386E0" stop-opacity="0.1542"/>
<stop offset="0.958" stop-color="#7B5BDF" stop-opacity="0.042"/>
<stop offset="1" stop-color="#8549DF" stop-opacity="0"/>
</radialGradient>
<linearGradient id="paint3_linear" x1="4.2633" y1="6.37958" x2="18.8981" y2="14.9815" gradientUnits="userSpaceOnUse">
<stop stop-color="#21FFE3"/>
<stop offset="1" stop-color="#F8FFFB"/>
</linearGradient>
<linearGradient id="paint4_linear" x1="6.87693" y1="7.88716" x2="19.2097" y2="7.88716" gradientUnits="userSpaceOnUse">
<stop stop-color="#692CC2"/>
<stop offset="0.5189" stop-color="#3E5BDE"/>
<stop offset="1" stop-color="#229EE7"/>
</linearGradient>
<linearGradient id="paint5_linear" x1="6.87698" y1="12.9743" x2="19.4933" y2="12.9743" gradientUnits="userSpaceOnUse">
<stop stop-color="#692CC2"/>
<stop offset="0.5189" stop-color="#3E5BDE"/>
<stop offset="1" stop-color="#229EE7"/>
</linearGradient>
<linearGradient id="paint6_linear" x1="5.4942" y1="17.9181" x2="18.4295" y2="17.9181" gradientUnits="userSpaceOnUse">
<stop stop-color="#677CF4"/>
<stop offset="0.2764" stop-color="#374CD7"/>
<stop offset="0.3631" stop-color="#3752D8"/>
<stop offset="0.4747" stop-color="#3562DB"/>
<stop offset="0.5999" stop-color="#337CE1"/>
<stop offset="0.7351" stop-color="#30A1E9"/>
<stop offset="0.8766" stop-color="#2DD0F2"/>
<stop offset="1" stop-color="#29FFFC"/>
</linearGradient>
<linearGradient id="paint7_linear" x1="3.90225" y1="6.94482" x2="1.70856" y2="12.5287" gradientUnits="userSpaceOnUse">
<stop stop-color="#F8FFFB"/>
<stop offset="1" stop-color="#F8FFFB" stop-opacity="0"/>
</linearGradient>
<linearGradient id="paint8_linear" x1="4.89812" y1="7.2477" x2="4.53227" y2="12.265" gradientUnits="userSpaceOnUse">
<stop stop-color="#F8FFFB"/>
<stop offset="1" stop-color="#F8FFFB" stop-opacity="0"/>
</linearGradient>
</defs>
</svg>
