<svg width="24" height="24" fill="none" xmlns="http://www.w3.org/2000/svg"><path fill-rule="evenodd" clip-rule="evenodd" d="M24 12c0 6.627-5.373 12-12 12S0 18.627 0 12 5.373 0 12 0s12 5.373 12 12Z" fill="#388CBF"/><path fill-rule="evenodd" clip-rule="evenodd" d="M12 22.254c-5.654 0-10.254-4.6-10.254-10.254S6.346 1.746 12 1.746 22.254 6.346 22.254 12 17.654 22.254 12 22.254Zm0-21.171C5.98 1.083 1.083 5.98 1.083 12S5.98 22.917 12 22.917 22.917 18.02 22.917 12 18.02 1.083 12 1.083Z" fill="#F5F5F3"/><path fill-rule="evenodd" clip-rule="evenodd" d="M18.742 12.196c-.106.205-.355.387-.75.545l-1.166.47-.64-1.588 1.162-.468c.4-.161.708-.207.921-.139.214.069.383.257.47.475.095.236.108.5.003.705Zm1.13-2.278c-.375-.21-.855-.272-1.439-.186.301-.262.501-.534.599-.816a1.786 1.786 0 0 0-.045-1.29 1.851 1.851 0 0 0-1.102-1.083c-.392-.15-.837-.162-1.335-.04.073.132.14.273.2.423.186.462.268.904.245 1.32a.876.876 0 0 1 .311.404c.094.232.113.482.023.661-.09.18-.358.359-.715.502l-.63.254c-.306.235-.68.442-1.124.62l-.918.37 1.754 4.355 2.98-1.2c.169-.067.497-.239.985-.514.367-.206.624-.403.77-.592.239-.303.385-.644.44-1.022.055-.378.005-.76-.15-1.143-.189-.471-.472-.812-.848-1.023ZM4.4 9.256l-1.45.585.142.352.55-.221 3.582 8.895.352-.142L3.994 9.83l.549-.221-.142-.353Z" fill="#FFFFFE"/><path fill-rule="evenodd" clip-rule="evenodd" d="M14.717 8.505c-.117.225-.66.533-1.101.71l-.56.226-.666-1.651.652-.263c.427-.172 1.015-.315 1.235-.216.22.1.377.265.47.498a.798.798 0 0 1-.03.696Zm.539-2.932c-.571-.228-1.27-.175-2.099.159l-2.618 1.054-1.451.583.142.352.549-.22 3.582 8.894.353-.142-.707-1.754 1.794-.723-1.142-2.835 1.12-.451c.923-.372 1.524-.859 1.804-1.46.28-.602.27-1.277-.031-2.024-.293-.728-.725-1.205-1.296-1.433Z" fill="#FFFFFE"/><path fill-rule="evenodd" clip-rule="evenodd" d="m10.448 10.625-.238.096-.225-.558.051-.02a.144.144 0 0 0 .08-.188L9.361 8.08a.144.144 0 0 0-.188-.08l-.124.05a1.679 1.679 0 0 0-1.921-.49l-1.204.486a1.679 1.679 0 0 0-1.047 1.684l-.124.05a.144.144 0 0 0-.08.188l.756 1.876c.03.074.114.11.188.08l.051-.021.225.558-.239.096a.271.271 0 0 0-.15.353l.034.084c.014.034.052.05.085.036l.252-.1a.42.42 0 0 0 .16-.116l1.26 3.127-.052.02a.144.144 0 0 0-.08.188l.756 1.877c.03.074.114.11.188.08l.05-.021.063.154c.113.28.43.415.71.303l3.304-1.331a.546.546 0 0 0 .303-.71l-.062-.155.051-.02a.144.144 0 0 0 .08-.188l-.756-1.876a.144.144 0 0 0-.187-.08l-.052.02-1.259-3.126a.42.42 0 0 0 .196-.029l.251-.101a.065.065 0 0 0 .036-.085l-.034-.085a.271.271 0 0 0-.353-.15Z" fill="#FFFFFE"/></svg>