<svg width="24" height="24" fill="none" xmlns="http://www.w3.org/2000/svg"><path d="M13.723 10.77c.416-3.833.45-7.636.45-8.71v-.11c.213-.091.634-.177 1.358.02.83.227 1.467 1.068 1.764 1.528v.293c-.014 1.63-.525 5.658-1.41 8.68-.774 2.639-2.463 6.151-2.8 6.851a4.222 4.222 0 0 0-.513-.081c.135-.891.758-4.857 1.151-8.47Zm-.293 8.645c.174.056.344.123.51.203.437-.572 2.446-3.243 3.702-5.658 1.482-2.848 2.86-6.627 3.047-7.36l.076-.3c-.164-.51-.557-1.458-1.321-1.956a3.2 3.2 0 0 0-1.792-.569v.015c-.015 1.65-.534 5.724-1.426 8.777-.761 2.596-2.39 6.01-2.797 6.848h.001Zm.828.378c.209.127.405.274.585.438.534-.533 2.782-2.76 4.274-4.64 1.723-2.171 3.436-5.219 3.716-5.879l.146-.344c-.04-.437-.162-1.132-.534-1.647a3.111 3.111 0 0 0-1.412-1.019c-.234.907-1.661 4.714-3.067 7.426-1.245 2.38-3.204 5-3.71 5.664h.002Zm-6.366-7.617c.999 3.27 2.484 6.534 2.817 7.254.175-.056.353-.1.534-.133-.133-.78-.812-4.876-1.234-8.728-.46-4.21-.648-7.778-.666-8.502v-.072c-.328-.087-1.026-.206-1.928.21-.65.325-1.165.87-1.451 1.538l.043.333c.133 1.068.771 4.454 1.885 8.1Zm2.47-1.647c.424 3.859 1.106 7.966 1.233 8.716a4.94 4.94 0 0 1 .516-.027h.093c.133-.81.764-4.831 1.161-8.489.415-3.815.447-7.6.447-8.668v-.173c-.337-.3-1.119-.888-2.076-.888-.957 0-1.721.588-2.055.888v.167c.035.721.222 4.276.682 8.475v-.001Zm1.749 9.046c-1.954 0-2.846 1.166-3.11 1.6 1.653 1.213 2.703 1.749 3.125 1.749.421 0 1.618-.65 3.09-1.696-.271-.456-1.165-1.651-3.105-1.651v-.001ZM23.15 9.872c-.31.709-2.03 3.765-3.756 5.941-1.503 1.894-3.754 4.134-4.302 4.668.151.165.288.343.408.533a35.14 35.14 0 0 0 3.35-2.786c2.82-2.667 5.066-5.3 5.144-6.63a1.88 1.88 0 0 0-.844-1.726ZM4.634 15.364a40.891 40.891 0 0 0 4.692 4.867c.121-.11.249-.212.383-.305a33.47 33.47 0 0 1-3.94-6.017C3.924 10.317 3.222 7.831 2.922 6.77l-.041-.159v-.007c-.414.11-1.455.456-1.867 1.212a2.416 2.416 0 0 0-.277 1.13c.078.225.16.447.248.667.642 1.63 1.87 3.57 3.65 5.751Zm-.277.227C2.623 13.457 1.399 11.553.725 9.925c-.254.223-.78.816-.72 1.867C.08 13.17 2.06 15.35 5.68 18.487a55.056 55.056 0 0 0 3.04 2.472 3.54 3.54 0 0 1 .36-.473 41.366 41.366 0 0 1-4.725-4.895h.001Zm-1.09-8.918c.297 1.05.991 3.512 2.82 7.068a32.922 32.922 0 0 0 3.928 5.987c.116-.065.236-.124.358-.176-.36-.777-1.83-4.023-2.824-7.276-1.12-3.668-1.763-7.082-1.899-8.161v-.041a2.575 2.575 0 0 0-1.66.501c-.559.412-.785 1.08-.879 1.525.028.112.064.246.11.408l.046.165Z" fill="url(#a)"/><defs><linearGradient id="a" x1="5.258" y1="3.727" x2="18.755" y2="18.312" gradientUnits="userSpaceOnUse"><stop stop-color="#fff"/><stop offset=".16" stop-color="#D5AC51"/><stop offset=".18" stop-color="#D2A644"/><stop offset=".26" stop-color="#CC9B2E"/><stop offset=".29" stop-color="#E6DE5F"/><stop offset=".45" stop-color="#9D9A62"/><stop offset=".63" stop-color="#787864"/><stop offset=".7" stop-color="#517E69" stop-opacity=".96"/><stop offset=".89" stop-color="#4F99CA"/></linearGradient></defs></svg>