<svg width="24" height="24" fill="none" xmlns="http://www.w3.org/2000/svg"><path d="m23.559 11.531-3.256.083h-.137l-.056.027h-.027c-.028 0-.028.028-.055.028l-3.063 2.538-4.579-2.62V9.102l4.552.414h.138c.027 0 .055 0 .083-.027h.027l.028-.028 2.18-1.269 3.585 1.573c.221.082.47 0 .58-.221.11-.22 0-.47-.221-.58L20.33 7.67l1.848-1.048c.221-.11.276-.387.166-.607-.11-.22-.386-.276-.607-.166l-4.441 2.538-.58-3.2 3.586-.717c.166-.028.304-.138.331-.276.056-.165.028-.33-.082-.441a.48.48 0 0 0-.414-.138l-3.062.634 1.186-2.041a.424.424 0 0 0 0-.441.44.44 0 0 0-.386-.221.44.44 0 0 0-.386.22l-1.6 2.704c-.028.028-.028.055-.028.083-.083.11-.138.22-.11.358l.662 3.67-4.055-.36V3.532l2.896-2.372c.193-.166.22-.442.083-.607-.138-.166-.414-.221-.58-.083L12.415 2.4V.414c0-.22-.193-.414-.442-.414-.248 0-.413.193-.441.414v4.938l-2.98-.966L9.518.91A.46.46 0 0 0 9.214.36c-.248-.083-.47.055-.552.303l-.828 2.98L6.538 1.71a.44.44 0 0 0-.607-.11.44.44 0 0 0-.11.607L7.64 4.91l.028.028.028.028.027.027.028.028c.027 0 .027.027.055.027h.027c.028 0 .028.028.056.028l3.669 1.186v5.324l-2.235 1.297-1.958-4.055c-.028-.028-.028-.056-.056-.083l-.027-.028c-.028-.027-.055-.055-.083-.055L5.02 7.393l-.496-3.917a.457.457 0 0 0-.276-.359.507.507 0 0 0-.441.055c-.138.083-.193.249-.166.414l.414 3.255-1.848-1.075a.436.436 0 0 0-.58.165c-.11.193-.055.469.139.58l4.468 2.592-2.455 2.125-2.455-2.759a.41.41 0 0 0-.607-.028c-.165.166-.193.442-.027.607l2.096 2.318H.441a.479.479 0 0 0-.441.469c0 .248.193.44.441.44H3.67c.138.028.276 0 .359-.11L6.84 9.71l1.683 3.614-4.193 2.428-3.145-1.49c-.22-.083-.469 0-.552.22-.082.221-.027.47.194.58l2.593 1.241-1.628.938c-.22.11-.276.387-.165.607.11.221.386.276.606.166l2.345-1.352 2.042-1.186.441 3.2-3.531.607c-.22.055-.386.276-.331.496.028.221.248.387.469.359l3.007-.552L5.49 21.6a.45.45 0 0 0 .165.607.45.45 0 0 0 .607-.166l1.655-2.813V19.2l.028-.028c0-.027 0-.027.027-.055v-.193l-.524-3.972L12 12.33l1.876 1.104-2.483 3.862v.055c0 .027-.027.027-.027.055 0 .027 0 .055-.028.083v.082l.055 2.538-3.062 2.456c-.193.137-.22.413-.055.606.138.194.414.221.607.056l2.538-2.042.055 2.152c.027.22.22.414.441.414.22 0 .414-.193.414-.442l-.165-5.158 3.09.993-1.05 3.53c-.054.166-.027.332.084.442a.48.48 0 0 0 .413.138.417.417 0 0 0 .304-.33l.883-3.008 1.213 1.986a.44.44 0 0 0 .387.221c.165 0 .303-.083.358-.22.083-.139.055-.304 0-.442l-1.572-2.703c-.028-.028-.028-.056-.055-.083a.455.455 0 0 0-.276-.276l-3.531-1.131 2.207-3.42 4.524 2.648.276 3.669c.027.22.22.386.469.386.248 0 .413-.221.413-.442l-.22-3.062 1.627.938a.423.423 0 0 0 .442 0 .44.44 0 0 0 .22-.386.44.44 0 0 0-.22-.386l-2.345-1.352-1.986-1.159 2.482-2.069 2.373 2.704a.41.41 0 0 0 .607.028.41.41 0 0 0 .027-.607l-2.069-2.29 2.318-.055c.248 0 .441-.22.441-.442 0-.275-.22-.469-.441-.441Z" fill="#1AEEC2"/></svg>