<svg width="24" height="24" viewBox="0 0 24 24" fill="none" xmlns="http://www.w3.org/2000/svg">
<path d="M13.7232 10.7704C14.1392 6.93664 14.1726 3.1336 14.1726 2.0602V1.95076C14.386 1.85872 14.8073 1.7734 15.5314 1.9708C16.3608 2.19748 16.9982 3.0376 17.2954 3.49768V3.79108C17.2807 5.42056 16.77 9.44896 15.8845 12.4707C15.1111 15.1096 13.4216 18.622 13.0842 19.3221C12.9153 19.2845 12.7443 19.2573 12.5722 19.2407C12.7068 18.35 13.3296 14.3842 13.723 10.7705L13.7232 10.7704ZM13.4298 19.4153C13.6041 19.4708 13.7744 19.5385 13.9392 19.618C14.3766 19.046 16.3861 16.375 17.6423 13.9601C19.1238 11.1118 20.5026 7.33276 20.6893 6.59932L20.7653 6.29932C20.6012 5.78992 20.2079 4.8418 19.4438 4.3444C18.917 3.97946 18.2927 3.7811 17.6519 3.775V3.78964C17.6372 5.43916 17.1185 9.51424 16.2264 12.5666C15.465 15.1629 13.8368 18.5765 13.4287 19.4153H13.43H13.4298ZM14.2578 19.7927C14.4665 19.9198 14.6626 20.0667 14.8432 20.2314C15.3766 19.698 17.6248 17.4714 19.117 15.5909C20.8399 13.42 22.5535 10.372 22.8335 9.712L22.9788 9.36796C22.9388 8.93056 22.8174 8.23588 22.4454 7.72108C22.0812 7.25398 21.5913 6.90053 21.0332 6.70228C20.7986 7.60864 19.3718 11.416 17.9663 14.128C16.7208 16.5082 14.7623 19.1285 14.2566 19.792H14.2579L14.2578 19.7927ZM7.89191 12.1758C8.89067 15.4468 10.3759 18.7098 10.7095 19.43C10.8842 19.3738 11.0624 19.3292 11.2429 19.2966C11.1096 18.5178 10.4309 14.4214 10.0094 10.569C9.54935 6.35932 9.36143 2.79088 9.34271 2.0668V1.9948C9.01463 1.90816 8.31731 1.78948 7.41455 2.20552C6.76409 2.5299 6.24997 3.07477 5.96387 3.74296C5.97719 3.8416 5.99051 3.95236 6.00659 4.07632C6.13967 5.14444 6.77843 8.53012 7.89191 12.1758ZM10.3628 10.529C10.7856 14.388 11.4683 18.4952 11.595 19.2446C11.7664 19.2267 11.9386 19.2178 12.111 19.2179H12.2039C12.3372 18.4085 12.9679 14.3867 13.3654 10.729C13.7801 6.91396 13.8121 3.1282 13.8121 2.0614V1.888C13.4748 1.588 12.6934 1 11.7361 1C10.7789 1 10.0148 1.588 9.68147 1.888V2.0548C9.71615 2.77624 9.90287 6.33124 10.3628 10.5304V10.5291V10.529ZM12.111 19.5753C10.1574 19.5753 9.26531 20.7407 9.00131 21.1755C10.6536 22.3876 11.7043 22.924 12.1256 22.924C12.547 22.924 13.7444 22.2746 15.2153 21.2278C14.9446 20.7718 14.0513 19.577 12.111 19.577V19.5756V19.5753ZM23.1496 9.8716C22.8402 10.581 21.12 13.6373 19.3936 15.8135C17.8907 17.707 15.6398 19.9473 15.0918 20.4807C15.2435 20.6459 15.38 20.8245 15.4998 21.0141C16.6729 20.1557 17.7916 19.2254 18.8495 18.2284C21.6707 15.5615 23.9159 12.928 23.9936 11.5984C24.0212 11.2613 23.9573 10.923 23.8087 10.6191C23.6602 10.3152 23.4325 10.057 23.1496 9.8716ZM4.63427 15.364C6.06123 17.1131 7.6306 18.7411 9.32627 20.2312C9.44703 20.1212 9.57487 20.0191 9.70895 19.9258C8.18318 18.0676 6.86207 16.0504 5.76851 13.9091C3.92387 10.317 3.22211 7.83136 2.92199 6.76996L2.88071 6.61132V6.604C2.46731 6.71464 1.42583 7.06 1.01387 7.816C0.830647 8.16468 0.735443 8.55287 0.736554 8.94676C0.814595 9.1707 0.897293 9.39299 0.984594 9.61348C1.62719 11.2424 2.85587 13.1826 4.63427 15.364ZM4.35695 15.5907C2.62343 13.4571 1.39931 11.5529 0.724554 9.92476C0.471234 10.1475 -0.0542463 10.7408 0.00455371 11.7916C0.0805137 13.1704 2.06075 15.3507 5.68115 18.487C6.84395 19.495 7.85735 20.3139 8.72015 20.959C8.82666 20.7914 8.94709 20.633 9.08015 20.4856C7.37367 18.9865 5.79357 17.3494 4.35587 15.5909H4.35719L4.35695 15.5907ZM3.26747 6.67264C3.56351 7.72336 4.25819 10.185 6.08747 13.7406C7.17496 15.8732 8.49179 17.8809 10.0146 19.7279C10.131 19.663 10.2507 19.6042 10.3733 19.5519C10.0133 18.7745 8.54243 15.5288 7.54895 12.2764C6.42911 8.608 5.78639 5.19376 5.65031 4.11496V4.07368C5.05559 4.04381 4.46889 4.22098 3.99011 4.57504C3.43139 4.98712 3.20471 5.65504 3.11135 6.10048C3.13931 6.21244 3.17531 6.34588 3.22067 6.50848L3.26747 6.67264Z" fill="url(#paint0_linear)"/>
<defs>
<linearGradient id="paint0_linear" x1="5.25803" y1="3.72688" x2="18.7547" y2="18.312" gradientUnits="userSpaceOnUse">
<stop stop-color="white"/>
<stop offset="0.16" stop-color="#D5AC51"/>
<stop offset="0.18" stop-color="#D2A644"/>
<stop offset="0.26" stop-color="#CC9B2E"/>
<stop offset="0.29" stop-color="#E6DE5F"/>
<stop offset="0.45" stop-color="#9D9A62"/>
<stop offset="0.63" stop-color="#787864"/>
<stop offset="0.7" stop-color="#517E69" stop-opacity="0.96"/>
<stop offset="0.89" stop-color="#4F99CA"/>
</linearGradient>
</defs>
</svg>
