<svg width="24" height="24" viewBox="0 0 24 24" fill="none" xmlns="http://www.w3.org/2000/svg">
<path d="M12 24C18.6274 24 24 18.6274 24 12C24 5.37258 18.6274 0 12 0C5.37258 0 0 5.37258 0 12C0 18.6274 5.37258 24 12 24Z" fill="#3058A6"/>
<path d="M11.9965 20.421C7.34797 20.421 3.57922 16.6523 3.57922 12.0038C3.57922 7.35529 7.34797 3.58654 11.9965 3.58654C16.645 3.58654 20.4137 7.35529 20.4137 12.0038C20.4137 16.6523 16.645 20.421 11.9965 20.421ZM11.9965 3.05029C7.05922 3.05029 3.04297 7.06654 3.04297 12.0038C3.04297 16.941 7.05922 20.9573 11.9965 20.9573C16.9337 20.9573 20.95 16.941 20.95 12.0038C20.95 7.06654 16.9337 3.05029 11.9965 3.05029Z" fill="white"/>
<path fill-rule="evenodd" clip-rule="evenodd" d="M15.1499 15.2062L14.6827 17.2305L14.5702 17.7202H14.0677L11.4839 17.7187H11.4734C10.4377 17.7015 9.62466 17.4262 9.09141 16.9402C9.55191 17.7525 10.5299 18.2227 11.8949 18.2452H11.9054L14.4884 18.2467H14.9909L15.1042 17.757L15.5714 15.7327L15.2069 14.9595L15.1499 15.2062ZM14.3377 6.52799L13.9687 5.76074L13.9162 6.00074L13.5659 7.59599H14.1029L14.3377 6.52799ZM16.2029 8.37374L15.7379 10.3425L15.6224 10.8285H12.8227L12.1117 14.0745C12.0967 14.1675 12.0877 14.262 12.0877 14.3145C12.0877 14.3602 12.0929 14.3895 12.0974 14.4037C12.1509 14.4238 12.2076 14.4334 12.2647 14.4322H12.5707L13.2442 11.3557H16.0439L16.1587 10.869L16.6237 8.90024L16.2622 8.12324L16.2022 8.37374H16.2029ZM9.25641 10.8285H7.30566L7.97766 11.3557H9.14166L9.25641 10.8285Z" fill="white"/>
<path fill-rule="evenodd" clip-rule="evenodd" d="M12.3257 15.0645H12.2544C11.7114 15.0502 11.4549 14.7675 11.4549 14.3145C11.4549 14.2065 11.4729 14.0632 11.4909 13.956L12.3144 10.197H15.1224L15.5874 8.22822H12.7794L13.2984 5.86572H11.0079L10.4882 8.22822H8.00266L7.55566 10.197H10.0412L9.07366 14.6182C9.02116 14.8327 9.00241 15.0832 9.00241 15.2085C9.00241 16.47 9.99766 17.0625 11.4834 17.0872L14.0664 17.088L14.5337 15.0645H12.3257Z" fill="white"/>
</svg>
