<svg width="24" height="24" fill="none" xmlns="http://www.w3.org/2000/svg"><path fill-rule="evenodd" clip-rule="evenodd" d="m3.37 11.082 3.688-8.769 10.478 1.208 2.146 6.471-1.073 8.952c-1.542 1.655-2.526 2.482-2.95 2.482-.426 0-3.644-.587-9.657-1.76L3.37 13.16v-2.078Z" fill="#F9F9F9"/><mask id="a" mask-type="alpha" maskUnits="userSpaceOnUse" x="0" y="0" width="24" height="24"><path fill-rule="evenodd" clip-rule="evenodd" d="M0 0h24v24H0V0Z" fill="#fff"/></mask><g mask="url(#a)"><path fill-rule="evenodd" clip-rule="evenodd" d="M17.028 18.953h-2.555v-4.398c0-.705-.57-1.277-1.274-1.277H9.526a2.554 2.554 0 0 1-2.554-2.554V5.048h2.554v4.4c0 .704.57 1.276 1.275 1.276h3.672a2.556 2.556 0 0 1 2.554 2.554l.001 5.675Zm-7.414 0H7.06v-4.289a2.553 2.553 0 0 1 2.553 2.554l.001 1.735Zm4.772-13.906h2.553v4.291a2.553 2.553 0 0 1-2.553-2.553V5.047ZM12 0C5.372 0 0 5.374 0 12s5.372 12 12 12 12-5.372 12-12S18.628 0 12 0Z" fill="#005FFA"/></g></svg>