<svg width="24" height="24" fill="none" xmlns="http://www.w3.org/2000/svg"><path d="M12 24c6.627 0 12-5.373 12-12S18.627 0 12 0 0 5.373 0 12s5.373 12 12 12Z" fill="#13A0F6"/><path fill-rule="evenodd" clip-rule="evenodd" d="M6.223 8.676a1.817 1.817 0 0 1-.973-1.61 1.812 1.812 0 1 1 3.415-.85 6.668 6.668 0 0 1 3.376-.912c3.705 0 6.71 3.01 6.71 6.723s-3.005 6.723-6.71 6.723c-3.706 0-6.71-3.01-6.71-6.723a6.705 6.705 0 0 1 .892-3.351Zm5.818 6.659c1.822 0 3.3-1.481 3.3-3.308a3.304 3.304 0 0 0-3.3-3.308 3.304 3.304 0 0 0-3.3 3.308 3.304 3.304 0 0 0 3.3 3.308Z" fill="#fff"/></svg>