<svg width="24" height="24" fill="none" xmlns="http://www.w3.org/2000/svg"><g clip-path="url(#a)" fill-rule="evenodd" clip-rule="evenodd"><path d="m23.962 6.363-.06-.834-.223.66-1.346 1.184-1.545.212-.42-.394 1.292-1.837 1.716-.532-1.824.114-2.168 1.535-2.006-.148-2.867-1.501-1.64.355-5.287 4.369-2.478.857-1.068 1.087H2.196l-.97 1.76-1.22.28 1.22.28 1.114-1.547 1.698.352v1.66l-.804 2.21-.527 2.282-.546.876 1.374-.285-.163-.936 1.224-2.452 2.15-.814.892-1.443 1.458-1.094 2.95.527 2.802-1.323-.407 1.977-1.306.115-.358 1.718 1.146-.788 1.81-.819 1.452-2.203.07-1.098.77.781 2.275 1.419 1.353-.597-.155-3.01-.317-1.087-.78.24 2.37-.728 1.191-1.38Z" fill="#4B5897"/><path d="M1.226 13.25v.56l-1.22-.28 1.22-.28Z" fill="#313A62"/><path d="m2.195 11.49.145.774-1.114 1.546v-.56l.97-1.76Z" fill="#4B5897"/><path d="M4.038 12.615 2.195 11.49l.145.774 1.698.351Z" fill="#3F4B80"/><path d="M4.038 11.49v1.125L2.195 11.49h1.843Z" fill="#313A62"/><path d="M4.038 14.274V11.49l1.63 2.445-1.63.34Z" fill="#3F4B80"/><path d="m3.234 16.486 2.434-2.551-1.63.34-.804 2.211Z" fill="#313A62"/><path d="m2.707 18.766.665-.344-.138-1.936-.527 2.28Z" fill="#1F243E"/><path d="m2.16 19.643 1.212-1.222-.665.345-.547.877Z" fill="#313A62"/><path d="m3.534 19.357-.162-.936-1.212 1.222 1.374-.286Z" fill="#3F4B80"/><path d="m4.596 15.97-1.224 2.452-.138-1.936 1.362-.516Z" fill="#3F4B80"/><path d="m6.746 15.156-1.078-1.221-2.434 2.551 3.512-1.33Z" fill="#4B5897"/><path d="m7.638 13.713-.891 1.443-1.079-1.221 1.97-.222Z" fill="#313A62"/><path d="m5.106 10.403.562 3.532-1.63-2.445 1.068-1.087Z" fill="#3F4B80"/><path d="m7.584 9.546-1.916 4.389-.562-3.532 2.478-.857Z" fill="#4B5897"/><path d="m7.638 13.713-1.97.222 1.916-4.39.054 4.168Z" fill="#3F4B80"/><path d="m9.096 12.62-1.458 1.093-.054-4.167 1.512 3.073Z" fill="#313A62"/><path d="m12.046 13.146-2.95-.527 2.95-.45v.977Z" fill="#3F4B80"/><path d="m7.584 9.546 4.463 2.623-2.95.45-1.513-3.073Z" fill="#4B5897"/><path d="m12.49 8.856-.453 3.327-4.463-2.622 4.916-.705Z" fill="#3F4B80"/><path d="m12.87 5.177-.37 3.664-4.916.705 5.287-4.369Z" fill="#4B5897"/><path d="m14.848 11.823-2.802 1.323-.01-.963 2.812-.36Z" fill="#313A62"/><path d="m17.254 10.726-2.406 1.097-2.812.36 5.218-1.457Z" fill="#3F4B80"/><path d="m17.185 11.823.07-1.097-2.407 1.097h2.337Z" fill="#5161A4"/><path d="m15.732 14.027-.884-2.204h2.337l-1.453 2.204Z" fill="#4B5897"/><path d="m14.441 13.8 1.292.227-.885-2.204-.407 1.977Z" fill="#3F4B80"/><path d="m13.923 14.845.519-1.045 1.291.226-1.81.819Z" fill="#4B5897"/><path d="m12.777 15.633 1.665-1.833-.52 1.045-1.145.788Z" fill="#313A62"/><path d="m13.135 13.915-.358 1.718 1.665-1.833-1.307.115Z" fill="#3F4B80"/><path d="M17.254 10.726 12.5 8.84l-.463 3.343 5.218-1.458Z" fill="#4B5897"/><path d="M12.87 5.177 12.5 8.841l4.755 1.885-4.384-5.549Z" fill="#5161A4"/><path d="m14.51 4.822-1.64.355 4.384 5.548-2.744-5.903Z" fill="#4B5897"/><path d="m17.708 8.692-.453 2.033-2.744-5.903 3.197 3.87Z" fill="#3F4B80"/><path d="m17.378 6.323.33 2.37-3.197-3.871 2.867 1.5ZM18.025 11.506l-.316-2.814-.454 2.033.77.781Z" fill="#313A62"/><path d="m20.401 8.47-2.692.222-.33-2.37L20.4 8.47Z" fill="#4B5897"/><path d="m18.024 11.506 2.377-3.036-2.693.222.316 2.814Z" fill="#3F4B80"/><path d="m20.3 12.925.1-4.455-2.376 3.036 2.276 1.418Z" fill="#495692"/><path d="m20.368 7.191-.947.582-2.042-1.45 2.989.868Z" fill="#3F4B80"/><path d="m19.384 6.47.984.721-2.99-.868 2.006.148Z" fill="#313A62"/><path d="M21.66 5.354 20.367 7.19l-.983-.72 2.276-1.117Z" fill="#3F4B80"/><path d="m21.552 4.936.108.417-2.276 1.118 2.168-1.535Z" fill="#495692"/><path d="m23.376 4.822-1.716.532-.108-.418 1.824-.114Z" fill="#5D6CAC"/><path d="m20.791 7.589-.424-.398-.947.583 1.371-.185Z" fill="#313A62"/><path d="m22.77 7.743-2.37.727-.98-.697 3.35-.03Z" fill="#4F60A3"/><path d="m22.333 7.373.437.444-3.35.036 2.913-.48Z" fill="#495692"/><path d="m23.68 6.188-.91 1.556-.437-.37 1.346-1.186Z" fill="#3F4B80"/><path d="m23.962 6.364-.283-.176-.909 1.556 1.192-1.38Z" fill="#4F60A3"/><path d="m24.057 5.529-.377.66.48.175-.103-.835ZM21.499 9.318 20.4 8.47l.78-.239.318 1.087Z" fill="#313A62"/><path d="m20.3 12.925 1.198-3.607-1.097-.848-.101 4.454Z" fill="#3F4B80"/><path d="m21.653 12.327-1.353.597 1.198-3.606.155 3.01Z" fill="#313A62"/></g><defs><clipPath id="a"><path fill="#fff" d="M0 0h24v24H0z"/></clipPath></defs></svg>