<svg width="19" height="16" fill="none" xmlns="http://www.w3.org/2000/svg"><path fill-rule="evenodd" clip-rule="evenodd" d="m9.5 1 7.794 13.5H1.706L9.5 1ZM8.634.5a1 1 0 0 1 1.732 0L18.16 14a1 1 0 0 1-.866 1.5H1.706A1 1 0 0 1 .84 14L8.634.5Zm.37 10.078h.985l.082-6.16H8.928l.077 6.16Zm.042 1.432a.636.636 0 0 0-.16.442c0 .177.054.324.16.442.11.114.271.17.483.17.212 0 .374-.056.484-.17a.623.623 0 0 0 .165-.442.623.623 0 0 0-.165-.442c-.11-.122-.272-.183-.484-.183-.212 0-.373.061-.483.183Z" fill="#F49F2F"/></svg>