<svg width="24" height="24" viewBox="0 0 24 24" fill="none" xmlns="http://www.w3.org/2000/svg">
<path d="M7.45116 5.44043V7.04508C7.45116 8.06369 6.62791 8.87996 5.61628 8.87996H2.06512C0.927907 8.87299 0 9.80787 0 10.9451V13.973C0 15.1102 0.927907 16.0381 2.06512 16.0381H5.61628C6.63488 16.0381 7.45116 16.8683 7.45116 17.873V21.4242C7.45116 22.5614 8.37907 23.4893 9.51628 23.4893H12.5442C13.6814 23.4893 14.6093 22.5614 14.6093 21.4242V17.873C14.6093 16.8544 15.4326 16.0381 16.4442 16.0381H18.0488C12.2163 16.0381 7.45116 11.273 7.45116 5.44043Z" fill="black"/>
<path d="M22.0605 13.9734V10.9455C22.0605 9.80827 21.1326 8.88036 19.9954 8.88036H16.4442C15.4256 8.88036 14.6093 8.05711 14.6093 7.04548V3.49432C14.6093 2.35711 13.6814 1.4292 12.5442 1.4292H9.51629C8.37908 1.4292 7.45117 2.35711 7.45117 3.49432V5.44083C7.45117 11.2734 12.2233 16.0385 18.0488 16.0385H19.9954C21.1326 16.0385 22.0605 15.1106 22.0605 13.9734Z" fill="#DB0029"/>
<path d="M16.7652 6.20806C16.7652 6.20806 16.0745 -0.998917 24.0001 0.759223C23.8536 2.88015 24.0489 8.09876 16.7652 6.20806Z" fill="#DB0029"/>
</svg>
