<svg width="24" height="24" fill="none" xmlns="http://www.w3.org/2000/svg"><path d="M12 24c6.627 0 12-5.373 12-12S18.627 0 12 0 0 5.373 0 12s5.373 12 12 12Z" fill="#1E252C"/><path d="M10.665 11.692a1.13 1.13 0 1 1 0-2.26 1.13 1.13 0 0 1 0 2.26Zm2.774 0a1.13 1.13 0 1 1 0-2.26 1.13 1.13 0 0 1 0 2.26Zm-2.775 2.774a1.13 1.13 0 1 1 0-2.26 1.13 1.13 0 0 1 0 2.26Zm2.774 0a1.13 1.13 0 1 1 0-2.26 1.13 1.13 0 0 1 0 2.26Zm2.774-3.082a.82.82 0 1 1 0-1.642.82.82 0 0 1 0 1.642Zm0 2.774a.822.822 0 1 1 0-1.643.822.822 0 0 1 0 1.643Zm-8.424-2.774a.822.822 0 1 1 0-1.645.822.822 0 0 1 0 1.645Zm0 2.774a.822.822 0 1 1 0-1.644.822.822 0 0 1 0 1.644Zm2.876 2.773a.823.823 0 1 1-.05-1.644.823.823 0 0 1 .05 1.644Zm2.774 0a.822.822 0 1 1-.049-1.644.822.822 0 0 1 .05 1.644Zm-2.774-8.32a.822.822 0 1 1-.05-1.645.822.822 0 0 1 .05 1.644Zm2.774 0a.822.822 0 1 1-.05-1.644.822.822 0 0 1 .05 1.643Zm-2.774-3.083a.514.514 0 1 1 0-1.027.514.514 0 1 1 0 1.027Zm2.774 0a.513.513 0 1 1 0-1.027.514.514 0 0 1 0 1.027Zm5.548 5.548a.513.513 0 1 1 0-1.027.513.513 0 0 1 0 1.027Zm0 2.774a.514.514 0 1 1 0-1.027.514.514 0 0 1 0 1.027ZM5.014 11.076a.514.514 0 1 1 0-1.027.514.514 0 0 1 0 1.027Zm0 2.774a.514.514 0 1 1 0-1.028.514.514 0 0 1 0 1.028Zm5.65 5.65a.513.513 0 1 1 0-1.027.513.513 0 0 1 0 1.027Zm2.774 0a.514.514 0 1 1 0-1.027.514.514 0 0 1 0 1.027Z" fill="#fff"/></svg>