<svg width="24" height="24" viewBox="0 0 24 24" fill="none" xmlns="http://www.w3.org/2000/svg">
<path d="M12 24C18.6274 24 24 18.6274 24 12C24 5.37258 18.6274 0 12 0C5.37258 0 0 5.37258 0 12C0 18.6274 5.37258 24 12 24Z" fill="#9D4BEF"/>
<path d="M8.60236 5.74561C9.35982 5.74561 10.0862 6.0465 10.6219 6.58211C11.1575 7.11771 11.4584 7.84415 11.4584 8.60161C11.4584 9.35906 11.1575 10.0855 10.6219 10.6211C10.0862 11.1567 9.35982 11.4576 8.60236 11.4576C7.8449 11.4576 7.11846 11.1567 6.58286 10.6211C6.04726 10.0855 5.74636 9.35906 5.74636 8.60161C5.74636 7.84415 6.04726 7.11771 6.58286 6.58211C7.11846 6.0465 7.8449 5.74561 8.60236 5.74561ZM11.4576 15.3981C11.4576 15.963 11.2901 16.5151 10.9763 16.9848C10.6625 17.4545 10.2164 17.8205 9.69455 18.0367C9.17268 18.2529 8.59844 18.3094 8.04443 18.1992C7.49042 18.089 6.98153 17.817 6.58211 17.4176C6.18269 17.0182 5.91068 16.5093 5.80048 15.9553C5.69028 15.4013 5.74684 14.827 5.96301 14.3052C6.17917 13.7833 6.54523 13.3372 7.0149 13.0234C7.48457 12.7096 8.03674 12.5421 8.60161 12.5421C9.64649 12.5421 10.6486 12.127 11.3874 11.3882C12.1263 10.6493 12.5414 9.64724 12.5414 8.60236C12.5414 8.03749 12.7089 7.48531 13.0227 7.01565C13.3365 6.54598 13.7825 6.17992 14.3044 5.96376C14.8263 5.74759 15.4005 5.69103 15.9545 5.80123C16.5085 5.91143 17.0174 6.18344 17.4169 6.58286C17.8163 6.98228 18.0883 7.49117 18.1985 8.04518C18.3087 8.59919 18.2521 9.17343 18.036 9.6953C17.8198 10.2172 17.4537 10.6632 16.9841 10.977C16.5144 11.2909 15.9622 11.4584 15.3974 11.4584C14.3526 11.4586 13.3507 11.8737 12.612 12.6125C11.8733 13.3514 11.4584 14.3533 11.4584 15.3981H11.4576ZM15.3974 18.2541C14.6399 18.2541 13.9135 17.9532 13.3779 17.4176C12.8423 16.882 12.5414 16.1556 12.5414 15.3981C12.5414 14.6406 12.8423 13.9142 13.3779 13.3786C13.9135 12.843 14.6399 12.5421 15.3974 12.5421C16.1548 12.5421 16.8812 12.843 17.4169 13.3786C17.9525 13.9142 18.2534 14.6406 18.2534 15.3981C18.2534 16.1556 17.9525 16.882 17.4169 17.4176C16.8812 17.9532 16.1548 18.2541 15.3974 18.2541ZM15.3974 16.2591C15.6257 16.2591 15.8447 16.1684 16.0062 16.0069C16.1676 15.8455 16.2584 15.6265 16.2584 15.3981C16.2584 15.1698 16.1676 14.9508 16.0062 14.7893C15.8447 14.6278 15.6257 14.5371 15.3974 14.5371C15.169 14.5371 14.95 14.6278 14.7885 14.7893C14.6271 14.9508 14.5364 15.1698 14.5364 15.3981C14.5364 15.6265 14.6271 15.8455 14.7885 16.0069C14.95 16.1684 15.169 16.2591 15.3974 16.2591ZM8.60236 16.2591C8.83071 16.2591 9.04971 16.1684 9.21118 16.0069C9.37264 15.8455 9.46336 15.6265 9.46336 15.3981C9.46336 15.1698 9.37264 14.9508 9.21118 14.7893C9.04971 14.6278 8.83071 14.5371 8.60236 14.5371C8.37401 14.5371 8.15501 14.6278 7.99354 14.7893C7.83207 14.9508 7.74136 15.1698 7.74136 15.3981C7.74136 15.6265 7.83207 15.8455 7.99354 16.0069C8.15501 16.1684 8.37401 16.2591 8.60236 16.2591ZM15.3974 9.46261C15.6257 9.46261 15.8447 9.37189 16.0062 9.21042C16.1676 9.04896 16.2584 8.82996 16.2584 8.60161C16.2584 8.37325 16.1676 8.15426 16.0062 7.99279C15.8447 7.83132 15.6257 7.74061 15.3974 7.74061C15.169 7.74061 14.95 7.83132 14.7885 7.99279C14.6271 8.15426 14.5364 8.37325 14.5364 8.60161C14.5364 8.82996 14.6271 9.04896 14.7885 9.21042C14.95 9.37189 15.169 9.46261 15.3974 9.46261ZM8.60236 9.46261C8.83071 9.46261 9.04971 9.37189 9.21118 9.21042C9.37264 9.04896 9.46336 8.82996 9.46336 8.60161C9.46336 8.37325 9.37264 8.15426 9.21118 7.99279C9.04971 7.83132 8.83071 7.74061 8.60236 7.74061C8.37401 7.74061 8.15501 7.83132 7.99354 7.99279C7.83207 8.15426 7.74136 8.37325 7.74136 8.60161C7.74136 8.82996 7.83207 9.04896 7.99354 9.21042C8.15501 9.37189 8.37401 9.46261 8.60236 9.46261Z" fill="white"/>
</svg>
