<svg width="24" height="24" viewBox="0 0 24 24" fill="none" xmlns="http://www.w3.org/2000/svg">
<g clip-path="url(#clip0)">
<path d="M2.60465 6.12824H14.6126C16.4096 6.12824 17.8716 7.59024 17.8716 9.38729C17.8716 11.1843 16.4096 12.6463 14.6126 12.6463H8.11519C7.8691 12.6463 7.63309 12.7441 7.45907 12.9181C7.28506 13.0921 7.1873 13.3281 7.1873 13.5742C7.1873 13.8203 7.28506 14.0563 7.45907 14.2304C7.63309 14.4044 7.8691 14.5021 8.11519 14.5021H14.6124C17.4326 14.5021 19.7272 12.2079 19.7272 9.38729C19.7272 6.56667 17.4326 4.27246 14.6124 4.27246H2.60465C2.35856 4.27246 2.12254 4.37022 1.94853 4.54423C1.77452 4.71825 1.67676 4.95426 1.67676 5.20035C1.67676 5.44644 1.77452 5.68246 1.94853 5.85647C2.12254 6.03048 2.35856 6.12824 2.60465 6.12824Z" fill="#8500FF"/>
<path d="M14.6127 0H9.95515C9.70906 0 9.47305 0.0977597 9.29903 0.271773C9.12502 0.445786 9.02726 0.681799 9.02726 0.927891C9.02726 1.17398 9.12502 1.41 9.29903 1.58401C9.47305 1.75802 9.70906 1.85578 9.95515 1.85578H14.6127C18.7656 1.85578 22.1439 5.23434 22.1439 9.38722C22.1439 13.5401 18.7653 16.9188 14.6124 16.9188H2.78209C2.65937 16.9174 2.5376 16.9403 2.42381 16.9863C2.31003 17.0323 2.20651 17.1005 2.11923 17.1867C2.03196 17.273 1.96267 17.3758 1.91539 17.489C1.8681 17.6023 1.84375 17.7238 1.84375 17.8465C1.84375 17.9692 1.8681 18.0907 1.91539 18.204C1.96267 18.3172 2.03196 18.42 2.11923 18.5063C2.20651 18.5925 2.31003 18.6607 2.42381 18.7066C2.5376 18.7526 2.65937 18.7756 2.78209 18.7742H14.6124C19.7885 18.7742 23.9997 14.5632 23.9997 9.38698C23.9997 4.21077 19.7889 0 14.6127 0Z" fill="#8500FF"/>
<path d="M9.23324 9.38736C9.23295 9.14136 9.1351 8.90551 8.96115 8.73156C8.7872 8.55761 8.55136 8.45976 8.30535 8.45947H6.04399C5.79799 8.45976 5.56214 8.55761 5.38819 8.73156C5.21424 8.90551 5.11639 9.14136 5.1161 9.38736C5.1161 9.90137 5.52649 10.3153 5.86612 10.3153H8.12723C8.77856 10.3153 9.23324 9.93363 9.23324 9.38736ZM6.29612 21.1916H0.927716C0.804982 21.1902 0.683191 21.2131 0.569395 21.2591C0.4556 21.3051 0.352062 21.3732 0.264778 21.4595C0.177493 21.5458 0.108198 21.6486 0.0609038 21.7619C0.0136099 21.8751 -0.0107422 21.9966 -0.0107422 22.1194C-0.0107422 22.2421 0.0136099 22.3637 0.0609038 22.4769C0.108198 22.5902 0.177493 22.6929 0.264778 22.7792C0.352062 22.8655 0.4556 22.9336 0.569395 22.9796C0.683191 23.0256 0.804982 23.0486 0.927716 23.0472H6.29612C6.41886 23.0486 6.54065 23.0256 6.65445 22.9796C6.76824 22.9336 6.87178 22.8655 6.95906 22.7792C7.04635 22.6929 7.11564 22.5902 7.16294 22.4769C7.21023 22.3637 7.23458 22.2421 7.23458 22.1194C7.23458 21.9966 7.21023 21.8751 7.16294 21.7619C7.11564 21.6486 7.04635 21.5458 6.95906 21.4595C6.87178 21.3732 6.76824 21.3051 6.65445 21.2591C6.54065 21.2131 6.41886 21.1902 6.29612 21.1916Z" fill="#8500FF"/>
</g>
<defs>
<clipPath id="clip0">
<rect width="24" height="24" fill="white"/>
</clipPath>
</defs>
</svg>
