<svg width="24" height="24" fill="none" xmlns="http://www.w3.org/2000/svg"><path d="M7.625 21.32h6.023l4.867-3.533 1.862-5.72-1.862-5.72-4.867-3.532H7.625l-4.867 3.51-1.862 5.72 1.862 5.72 4.867 3.555Zm6.124.325H7.513l-.045-.034-5.001-3.633-1.918-5.922 1.929-5.933 5.035-3.656h6.236l5.047 3.668 1.928 5.932L18.796 18l-5.047 3.645Z" fill="#2EA6DF"/><path d="M8.209 2.624a.716.716 0 0 1-.718.718.716.716 0 0 1-.718-.718c0-.392.326-.717.718-.717.393 0 .718.325.718.717Zm6.19 0a.716.716 0 0 1-.717.718.716.716 0 0 1-.718-.718c0-.392.325-.717.718-.717.392 0 .717.325.717.717ZM8.255 21.377a.716.716 0 0 1-.718.718.716.716 0 0 1-.718-.718c0-.393.325-.718.718-.718a.709.709 0 0 1 .718.718Zm-4.957-3.488a.716.716 0 0 1-.718.718.723.723 0 0 1-.718-.718c0-.404.325-.718.718-.718.392 0 .718.314.718.718Zm-1.85-5.832a.716.716 0 0 1-.719.718.716.716 0 0 1-.717-.718c0-.403.325-.717.717-.717a.709.709 0 0 1 .718.717Zm1.85-5.81a.716.716 0 0 1-.718.719.723.723 0 0 1-.718-.718c0-.404.325-.718.718-.718.392 0 .718.314.718.718Zm16.52 5.8c0 .403.325.717.717.717a.723.723 0 0 0 .718-.718.723.723 0 0 0-.718-.718.716.716 0 0 0-.718.718Zm-1.851-5.81c0 .403.325.717.718.717a.716.716 0 0 0 .717-.717.716.716 0 0 0-.717-.718.709.709 0 0 0-.718.718Zm-3.51 15.14a.716.716 0 0 1-.718.718.723.723 0 0 1-.718-.718c0-.393.325-.718.718-.718.392 0 .718.314.718.718Z" fill="#2EA6DF"/><path d="m6.819 16.306.056.023 4.026 1.357 4.553-1.368 3.073 1.312V6.482l-3.073 1.312-4.553-1.368-4.082 1.357-.056-.011L2.748 6.47v11.148l4.07-1.313Zm12.033 1.795-3.42-1.458-4.531 1.368-4.071-1.368-4.396 1.424V6.022L6.83 7.447l4.07-1.369.046.012 4.486 1.345 3.42-1.457V18.1Z" fill="#2EA6DF"/><path d="M.717 12.357v-.465l19.828-.015v.449l-19.828.031Z" fill="#2EA6DF"/><path d="m11.08 6.27 2.366 5.327 1.806-3.993-1.627-4.643-2.545 3.308ZM6.986 7.592l1.593 4.015 2.12-5.327-3.096-3.286-.617 4.598Zm-4.183 4.463 3.948 4.127 1.637-4.127-1.637-4.138-3.948 4.138Zm5.955 0 2.142 5.361L13.267 12 10.9 6.673l-2.142 5.383Zm-1.772 4.441.662 4.52 3.05-3.207-2.12-5.305-1.592 3.992Zm4.094 1.324 2.59 3.218 1.582-4.553-1.806-4.07-2.366 5.405Zm-3.656 3.914-.763-5.181-4.307-4.498 4.307-4.52.707-5.282 3.51 3.735 2.86-3.712 1.873 5.35L13.625 12l1.986 4.464-1.817 5.237-2.916-3.611-3.454 3.645Z" fill="#2EA6DF"/><path d="m15.565 16.576-.269-.202 3.185-4.318-3.185-4.34.27-.202 3.32 4.542-3.32 4.52Zm-9.521-8.96c0 .403.325.717.718.717a.716.716 0 0 0 .717-.718.723.723 0 0 0-.717-.717.716.716 0 0 0-.718.717Zm4.127-1.369c0 .404.325.718.718.718a.716.716 0 0 0 .718-.718.716.716 0 0 0-.718-.718.709.709 0 0 0-.718.718Z" fill="#2EA6DF"/><path d="M15.947 7.11a.724.724 0 0 0-1.02 0c-.28.281-.28.74 0 1.021.28.28.74.28 1.02 0a.724.724 0 0 0 0-1.02ZM3.297 12a.716.716 0 0 0-.718-.717.723.723 0 0 0-.718.717c0 .404.326.718.718.718A.716.716 0 0 0 3.297 12Zm5.865 0a.716.716 0 0 0-.717-.717.716.716 0 0 0-.718.717c0 .404.325.718.718.718A.716.716 0 0 0 9.162 12Zm4.901 0a.716.716 0 0 0-.718-.717.716.716 0 0 0-.717.717c0 .404.325.718.717.718a.716.716 0 0 0 .718-.718Zm5.338.056a.716.716 0 0 0-.717-.717.723.723 0 0 0-.718.717c0 .404.325.718.718.718a.723.723 0 0 0 .717-.717Zm-3.252 4.42a.716.716 0 0 0-.718-.719.716.716 0 0 0-.717.718c0 .393.325.718.717.718a.709.709 0 0 0 .718-.718Zm7.84 3.633c0-.56-.46-1.02-1.021-1.02-.56 0-1.02.46-1.02 1.02s.46 1.02 1.02 1.02 1.02-.46 1.02-1.02Zm-13.38-2.916a.716.716 0 0 0-.381.942c.157.37.583.538.942.381a.716.716 0 0 0 .381-.942.731.731 0 0 0-.942-.381Zm-4.127-1.38a.716.716 0 0 0-.381.943c.157.37.583.538.942.38a.716.716 0 0 0 .38-.941.712.712 0 0 0-.941-.382Z" fill="#2EA6DF"/><path d="m22.889 20.254-4.318-2.232.157-.291 4.318 2.232-.157.291Z" fill="#2EA6DF"/></svg>