<svg width="24" height="24" fill="none" xmlns="http://www.w3.org/2000/svg"><path d="m20.757 9.691-5.25 11.357H13.41l5.525-11.955c.649.104 1.26.306 1.822.598Zm-9.186-6.67L3.495 20.492A6.011 6.011 0 0 1 0 15.032c0-3.324 2.685-6.016 6-6.016 0-3.18 2.46-5.774 5.572-5.996Zm6.43 5.995-5.562 12.032h-2.272L17.15 5.94c.537.9.85 1.95.85 3.075Zm2.067 11.659 3.562-7.703c.236.645.37 1.337.37 2.063a6.012 6.012 0 0 1-3.932 5.64Zm1.573-10.419c.497.383.937.837 1.294 1.358l-4.35 9.404c-.19.02-.39.03-.584.03h-1.348l4.988-10.792ZM12.02 3c.851.003 1.658.185 2.39.51L6.305 21.049h-.306a5.916 5.916 0 0 1-2.134-.4L12.022 3Zm4.656 2.248-7.304 15.8h-2.45L14.916 3.76a6.06 6.06 0 0 1 1.76 1.488Z" fill="#0072FF"/></svg>