<svg width="24" height="24" fill="none" xmlns="http://www.w3.org/2000/svg"><path d="M12 24c6.627 0 12-5.373 12-12S18.627 0 12 0 0 5.373 0 12s5.373 12 12 12Z" fill="#164B79"/><path d="m10.568 14.001-.468.998H9.064L11.879 9l1.877 4h-1.062l-.84-1.736-.841 1.765-.445.972Zm4.09.975 2.197-2.963-2.213-2.985h1.212l1.605 2.183-.584.803.584.802-1.605 2.182h-2.222l-.47-.997H14.2l.459.975Zm3.394-2.975-.593-.816 1.606-2.182h1.185l-2.198 2.998Zm0 0 2.198 2.998h-1.185l-1.605-2.182.592-.816ZM8.566 9.869a2.974 2.974 0 0 1 .814 2.133c.01.788-.28 1.55-.814 2.131-.541.607-1.21.867-2 .867a2.681 2.681 0 0 1-2.002-.867 3 3 0 0 1-.814-2.131 2.973 2.973 0 0 1 .518-1.737l.69.735a2.117 2.117 0 0 0 .272 2.449 1.798 1.798 0 0 0 1.335.607c.504 0 .985-.22 1.335-.607a1.987 1.987 0 0 0 .542-1.421 2.115 2.115 0 0 0-.543-1.422 1.75 1.75 0 0 0-1.335-.578 1.643 1.643 0 0 0-.937.263l-.69-.735a2.562 2.562 0 0 1 1.63-.552 2.633 2.633 0 0 1 1.999.865Z" fill="#fff"/></svg>