<svg width="24" height="24" fill="none" xmlns="http://www.w3.org/2000/svg"><path d="M12 24c6.627 0 12-5.373 12-12S18.627 0 12 0 0 5.373 0 12s5.373 12 12 12Z" fill="#000"/><path d="M21.303 13.286a1.846 1.846 0 1 1 0-2.205l.52-.372a2.49 2.49 0 1 0 0 2.948l-.52-.37ZM15.075 9.315l-.36.75-2.135 4.606h.696l.493-1.067h2.597l.494 1.067h.7l-2.136-4.607-.35-.749Zm-1.002 3.656 1.002-2.16 1 2.16h-2.002ZM4.709 12.188 2.91 10.39l-.05-.049-.636-.638v4.968h.637v-3.426l1.397 1.396.45.452.45-.452 1.398-1.396v3.426h.637V9.703l-.637.637-1.847 1.848ZM10.314 9.703a2.49 2.49 0 1 0 0 4.98 2.49 2.49 0 0 0 0-4.98Zm0 4.332a1.85 1.85 0 1 1 1.707-1.141 1.85 1.85 0 0 1-1.707 1.146v-.005Z" fill="#fff"/><path d="M11.366 11.305a.173.173 0 1 0 0-.346.173.173 0 0 0 0 .346ZM11.366 13.409a.173.173 0 1 0 0-.346.173.173 0 0 0 0 .346ZM9.262 11.305a.173.173 0 1 0 0-.346.173.173 0 0 0 0 .346ZM8.824 12.272a.088.088 0 1 0 0-.175.088.088 0 0 0 0 .175ZM10.314 13.765a.088.088 0 1 0 0-.175.088.088 0 0 0 0 .175ZM11.803 12.272a.088.088 0 1 0 0-.175.088.088 0 0 0 0 .175ZM10.314 10.786a.088.088 0 1 0 0-.176.088.088 0 0 0 0 .176ZM10.314 11.22a.088.088 0 1 0 0-.176.088.088 0 0 0 0 .176ZM9.262 13.409a.173.173 0 1 0 0-.346.173.173 0 0 0 0 .346ZM10.314 13.409a.173.173 0 1 0 0-.346.173.173 0 0 0 0 .346Z" fill="#fff"/><path d="M11.398 11.132h-.064v2.105h.064v-2.105Z" fill="#fff"/><path d="M11.367 11.122H9.261v.021h2.104v-.021Z" fill="#fff"/><path d="m10.327 11.128-.02.01 1.051 2.104.02-.01-1.051-2.104Z" fill="#fff"/><path d="m10.306 11.127-1.053 2.105.02.01 1.052-2.105-.02-.01Z" fill="#fff"/><path d="M9.293 11.132H9.23v2.105h.064v-2.105Z" fill="#fff"/><path d="M11.367 13.225H9.261v.022h2.104v-.022Z" fill="#fff"/><path d="m9.291 11.119-.057.029 1.053 2.104.057-.028-1.053-2.105Z" fill="#fff"/><path d="m11.339 11.118-1.053 2.105.057.028 1.053-2.105-.057-.028ZM9.25 11.13l-.436 1.053.02.008.436-1.053-.02-.009Z" fill="#fff"/><path d="m9.252 13.242-.437-1.051.02-.01.438 1.051-.02.01ZM10.325 13.236h-.021v.44h.021v-.44ZM10.325 10.694h-.021v.44h.021v-.44Z" fill="#fff"/><path d="m10.311 10.687-1.052.435.008.02 1.052-.436-.008-.02Z" fill="#fff"/><path d="m10.317 10.688-.008.02 1.053.436.008-.02-1.053-.436Z" fill="#fff"/><path d="m11.376 11.128-.02.008.437 1.053.02-.008-.437-1.053Z" fill="#fff"/><path d="m11.793 12.181-.438 1.056.02.008.437-1.055-.02-.009Z" fill="#fff"/><path d="m11.364 13.229-1.055.44.008.02 1.056-.44-.009-.02Z" fill="#fff"/><path d="m10.31 13.686-1.055-.44.007-.019 1.056.44-.008.019Z" fill="#fff"/></svg>