<svg width="24" height="24" fill="none" xmlns="http://www.w3.org/2000/svg"><path fill-rule="evenodd" clip-rule="evenodd" d="M23.892 11.946C23.892 5.348 18.543 0 11.946 0 5.348 0 0 5.348 0 11.946c0 6.597 5.348 11.946 11.946 11.946 6.597 0 11.946-5.349 11.946-11.946Z" fill="#273E4B"/><path fill-rule="evenodd" clip-rule="evenodd" d="M18.115 12.63v4.525a8.076 8.076 0 0 1-6.169 2.866 8.02 8.02 0 0 1-5.71-2.366 8.021 8.021 0 0 1-2.365-5.71c0-2.156.84-4.184 2.365-5.709a8.022 8.022 0 0 1 5.71-2.365c1.135 0 2.233.231 3.264.688a8.041 8.041 0 0 1 2.625 1.863l-1.729 1.622a5.65 5.65 0 0 0-4.16-1.802 5.71 5.71 0 0 0-5.704 5.704 5.71 5.71 0 0 0 5.704 5.703 5.673 5.673 0 0 0 3.918-1.555v-1.481H9.332v-1.984h8.782Z" fill="#FFFFFE"/><path fill-rule="evenodd" clip-rule="evenodd" d="M9.333 11.289h8.782V9.305H9.333v1.984Z" fill="#FFFFFE"/></svg>