<svg width="24" height="24" viewBox="0 0 24 24" fill="none" xmlns="http://www.w3.org/2000/svg">
<path d="M23.9597 12.0277C23.9597 18.6223 18.6139 23.968 12.0194 23.968C5.42477 23.968 0.0791016 18.6223 0.0791016 12.0277C0.0791016 5.43319 5.42477 0.0874023 12.0194 0.0874023C18.6139 0.0874023 23.9597 5.43319 23.9597 12.0277Z" fill="#020100"/>
<path d="M19.4982 8.91855C18.8237 8.44677 18.1024 7.9438 17.3967 7.44472C17.3811 7.43302 17.3655 7.42133 17.346 7.40963C17.268 7.35114 17.1783 7.28876 17.0691 7.25367L17.0613 7.24977C15.1742 6.79358 13.2559 6.3257 11.4 5.87341C9.71558 5.46401 8.0351 5.05462 6.35072 4.64522C6.30783 4.63352 6.26494 4.62183 6.21815 4.61013C6.06609 4.56724 5.89063 4.52045 5.70348 4.54384C5.64889 4.55164 5.60211 4.57114 5.55922 4.59843L5.51243 4.63742C5.43835 4.7076 5.39936 4.79728 5.37986 4.84797L5.36816 4.87916V5.05852L5.37596 5.08581C6.4404 8.06856 7.53212 11.0942 8.58486 14.0224C9.39586 16.276 10.238 18.6115 11.0607 20.9042C11.1114 21.0601 11.2557 21.1615 11.435 21.1771H11.474C11.6417 21.1771 11.7899 21.0952 11.8639 20.9626L14.952 16.4593C15.7045 15.3636 16.457 14.2641 17.2095 13.1685C17.5175 12.7201 17.8255 12.2678 18.1336 11.8194C18.6404 11.0786 19.1629 10.3144 19.6815 9.56969L19.7088 9.5307V9.48391C19.7205 9.34744 19.7244 9.06671 19.4982 8.91855ZM15.8799 10.56C15.1547 10.9382 14.4139 11.3281 13.6692 11.7142C14.102 11.2502 14.5387 10.7823 14.9715 10.3183C15.5134 9.73345 16.0788 9.1291 16.6324 8.53645L16.6441 8.52475C16.6909 8.46237 16.7494 8.40388 16.8118 8.3415C16.8547 8.29861 16.9015 8.25572 16.9444 8.20503C17.2329 8.40388 17.5253 8.60663 17.8061 8.80548C18.0088 8.94974 18.2155 9.09401 18.426 9.23827C17.5682 9.67496 16.7104 10.1234 15.8799 10.56ZM14.0162 10.3729C13.4586 10.9772 12.8816 11.5972 12.3084 12.2093C11.1972 10.8603 10.0626 9.49171 8.96306 8.16994C8.46399 7.56949 7.96102 6.96514 7.46194 6.36469L7.45804 6.36079C7.34497 6.23212 7.2358 6.09176 7.12662 5.95919C7.05644 5.86951 6.98236 5.78373 6.90828 5.69406C7.36057 5.81103 7.81675 5.9202 8.26514 6.02547C8.65894 6.11905 9.06834 6.21653 9.46994 6.3179C11.7314 6.86766 13.9967 7.41743 16.2581 7.96719C15.5056 8.77039 14.7492 9.58528 14.0162 10.3729ZM12.055 17.9721C12.0979 17.5627 12.1447 17.1416 12.1837 16.7283C12.2188 16.3969 12.2538 16.0577 12.2889 15.734C12.3435 15.2155 12.402 14.6774 12.4488 14.151L12.4605 14.0575C12.4995 13.7222 12.5385 13.3751 12.5619 13.0281C12.6048 13.0047 12.6515 12.9813 12.7022 12.9618C12.7607 12.9345 12.8192 12.9112 12.8777 12.8761C13.7784 12.4043 14.679 11.9325 15.5836 11.4646C16.4843 10.9967 17.4084 10.5133 18.3246 10.0337C17.4902 11.2424 16.6519 12.4628 15.8409 13.652C15.143 14.6696 14.4256 15.7185 13.7121 16.7517C13.4313 17.165 13.1389 17.5861 12.8621 17.9916C12.5502 18.4439 12.2304 18.9079 11.9185 19.3718C11.9575 18.904 12.0043 18.4322 12.055 17.9721ZM6.61975 6.61423C6.56906 6.47386 6.51448 6.3296 6.46769 6.19313C7.52043 7.46422 8.58096 8.74309 9.6142 9.98299C10.1484 10.6263 10.6825 11.2658 11.2167 11.913C11.322 12.0339 11.4272 12.1625 11.5286 12.2873C11.6612 12.4472 11.7938 12.6148 11.938 12.7747C11.8912 13.1763 11.8522 13.5818 11.8094 13.9717C11.7821 14.2446 11.7548 14.5176 11.7236 14.7944V14.7983C11.7119 14.9737 11.6885 15.1492 11.669 15.3208C11.6417 15.5586 11.5793 16.0967 11.5793 16.0967L11.5754 16.124C11.5052 16.9116 11.4195 17.707 11.3376 18.479C11.3025 18.7987 11.2713 19.1262 11.2362 19.4537C11.2167 19.3952 11.1933 19.3367 11.1738 19.2822C11.1153 19.1262 11.0568 18.9624 11.0023 18.8026L10.5851 17.6446C9.26329 13.9678 7.94152 10.2949 6.61975 6.61423Z" fill="white"/>
</svg>
