<svg width="24" height="24" viewBox="0 0 24 24" fill="none" xmlns="http://www.w3.org/2000/svg">
<path d="M7.28357 17.393L1.77797 18.0122L5.01077 10.553L1.70117 6.04099L9.74837 5.12419L11.9348 0.0961914L16.7252 6.60739L22.2308 5.98819L19.0124 13.4114L22.298 17.8922L14.2916 18.8042L12.0716 23.9042L7.28357 17.393ZM9.57077 16.8986C9.35957 17.0018 9.13397 17.0882 8.90117 17.153L8.68997 17.2106L11.7932 21.4298L12.8948 18.8954L12.6956 18.869C11.6108 18.7322 10.6244 18.1466 9.98837 17.2682L9.67877 16.841L9.57077 16.8986ZM8.49077 13.073L10.994 16.5362C11.5028 17.2394 12.326 17.6594 13.1948 17.6594C13.2956 17.6594 13.3964 17.6546 13.4948 17.6426L20.0276 16.8986L17.426 13.349C17.2964 13.1738 17.1476 13.0154 16.982 12.8762L16.8284 12.749L14.966 16.9562L11.726 12.6674L8.49077 13.073ZM8.59877 8.85619C7.62917 8.95939 6.78437 9.58099 6.39557 10.4786L3.77237 16.5338L8.13077 16.0442C8.34677 16.0202 8.55797 15.9698 8.76197 15.8954L8.94917 15.8258L6.25157 12.101L11.57 11.4266L12.8348 8.40499L8.59877 8.85619ZM12.7148 11.9114L14.6852 14.5202L15.8876 11.8058L16.4156 10.6106C16.8116 9.71539 16.6988 8.67139 16.118 7.88419L12.2132 2.57059L10.4564 6.60739C10.37 6.80659 10.3076 7.01539 10.2692 7.23139L10.2356 7.42819L14.7932 6.94579L12.7148 11.9114ZM17.5028 7.77379L17.5796 7.95859C18.002 8.96899 17.9924 10.121 17.5508 11.117L17.3372 11.597L17.4404 11.6666C17.6372 11.7986 17.822 11.9522 17.9924 12.1226L18.1484 12.2762L20.234 7.46419L17.5028 7.77379ZM3.97157 7.03459L5.63237 9.30019L5.75477 9.14179C6.41477 8.28499 7.40597 7.72819 8.46917 7.61539L8.98997 7.56019L8.99957 7.43299C9.01637 7.17139 9.06197 6.90979 9.13157 6.65539L9.19157 6.43939L3.97157 7.03459Z" fill="url(#paint0_linear)"/>
<path d="M10.8385 23.9998C7.38254 23.6662 4.27694 21.8686 2.24414 19.0198L3.63614 18.8638C3.86654 19.147 4.11134 19.4182 4.36334 19.6726C5.87294 21.1894 7.76174 22.2118 9.83294 22.6342L10.8385 23.9998Z" fill="url(#paint1_linear)"/>
<path d="M13.7379 22.7111C15.9795 22.3487 18.0171 21.2999 19.6371 19.6727C19.7811 19.5263 19.9275 19.3703 20.0739 19.2071L21.7611 19.0151C19.7355 21.8615 16.6347 23.6615 13.1787 23.9999L13.7379 22.7111Z" fill="url(#paint2_linear)"/>
<path d="M22.1035 15.8472C22.5643 14.6208 22.7995 13.3272 22.7995 12C22.7995 10.8288 22.6147 9.67677 22.2523 8.57757L22.9291 7.01758C23.6395 8.58477 23.9995 10.26 23.9995 12C23.9995 13.7376 23.6395 15.4104 22.9315 16.9775L22.1035 15.8472Z" fill="url(#paint3_linear)"/>
<path d="M1.0752 16.9942C0.3624 15.4222 0 13.7446 0 11.9998C0 10.2454 0.3648 8.55824 1.0872 6.98145L1.9128 8.10944C1.44 9.34784 1.2 10.6558 1.2 11.9998C1.2 13.1758 1.3848 14.3302 1.7496 15.4342L1.0752 16.9942Z" fill="url(#paint4_linear)"/>
<path d="M2.29395 4.9104C4.32435 2.1072 7.40595 0.3312 10.8307 0L10.2715 1.2864C8.02755 1.6464 5.98515 2.6976 4.36275 4.3272C4.24035 4.4496 4.11795 4.5816 3.99555 4.716L2.29395 4.9104Z" fill="url(#paint5_linear)"/>
<path d="M20.3661 5.136C20.1357 4.8528 19.8909 4.5816 19.6365 4.3272C18.1293 2.8128 16.2429 1.7904 14.1765 1.368L13.1709 0C16.6245 0.336 19.7253 2.1336 21.7557 4.98L20.3661 5.136Z" fill="url(#paint6_linear)"/>
<defs>
<linearGradient id="paint0_linear" x1="2.30591" y1="21.6602" x2="21.0254" y2="2.94073" gradientUnits="userSpaceOnUse">
<stop stop-color="#009DDE"/>
<stop offset="0.5" stop-color="#694D9F"/>
<stop offset="1" stop-color="#ED3554"/>
</linearGradient>
<linearGradient id="paint1_linear" x1="4.34888" y1="23.7022" x2="23.0684" y2="4.98271" gradientUnits="userSpaceOnUse">
<stop stop-color="#009DDE"/>
<stop offset="0.5" stop-color="#694D9F"/>
<stop offset="1" stop-color="#ED3554"/>
</linearGradient>
<linearGradient id="paint2_linear" x1="9.68975" y1="29.0431" x2="28.4093" y2="10.3236" gradientUnits="userSpaceOnUse">
<stop stop-color="#009DDE"/>
<stop offset="0.5" stop-color="#694D9F"/>
<stop offset="1" stop-color="#ED3554"/>
</linearGradient>
<linearGradient id="paint3_linear" x1="7.78685" y1="27.141" x2="26.5063" y2="8.42146" gradientUnits="userSpaceOnUse">
<stop stop-color="#009DDE"/>
<stop offset="0.5" stop-color="#694D9F"/>
<stop offset="1" stop-color="#ED3554"/>
</linearGradient>
<linearGradient id="paint4_linear" x1="-3.14226" y1="16.2113" x2="15.5772" y2="-2.50824" gradientUnits="userSpaceOnUse">
<stop stop-color="#009DDE"/>
<stop offset="0.5" stop-color="#694D9F"/>
<stop offset="1" stop-color="#ED3554"/>
</linearGradient>
<linearGradient id="paint5_linear" x1="-5.04087" y1="14.3133" x2="13.6786" y2="-4.40621" gradientUnits="userSpaceOnUse">
<stop stop-color="#009DDE"/>
<stop offset="0.5" stop-color="#694D9F"/>
<stop offset="1" stop-color="#ED3554"/>
</linearGradient>
<linearGradient id="paint6_linear" x1="0.299633" y1="19.6537" x2="19.0192" y2="0.934144" gradientUnits="userSpaceOnUse">
<stop stop-color="#009DDE"/>
<stop offset="0.5" stop-color="#694D9F"/>
<stop offset="1" stop-color="#ED3554"/>
</linearGradient>
</defs>
</svg>
