<svg width="24" height="24" fill="none" xmlns="http://www.w3.org/2000/svg"><g clip-path="url(#a)"><path d="M12.002 0C5.373 0 0 5.373 0 12.002c0 6.629 5.373 12.002 12.002 12.002 6.629 0 12.002-5.373 12.002-12.002C24.004 5.373 18.631 0 12.002 0ZM9.001 16.149l-.114.114a8.937 8.937 0 0 1-.748.666l-.3.235a.11.11 0 0 1-.126.008.104.104 0 0 1-.049-.117l.118-.532a3.314 3.314 0 0 0-.081-1.747l-.065-.195a7.852 7.852 0 0 0-.256-.67l-1.385-3.27-.15-.446a2.158 2.158 0 0 1-.094-.427l-.024-.223c-.07-.63.146-1.247.593-1.694l.114-.114a8.93 8.93 0 0 1 .747-.666l.3-.235a.11.11 0 0 1 .126-.008c.041.024.061.069.05.117l-.119.532a3.314 3.314 0 0 0 .082 1.747l.065.195c.073.227.162.45.255.67l1.39 3.27.15.446c.044.139.077.28.093.427l.025.223A2.085 2.085 0 0 1 9 16.15Zm4.687 1.072-.147.146c-.296.297-.613.581-.942.837l-.39.309a.122.122 0 0 1-.073.024.135.135 0 0 1-.065-.02.114.114 0 0 1-.053-.126l.155-.686a4.193 4.193 0 0 0-.106-2.206l-.081-.248a8.923 8.923 0 0 0-.325-.849L9.91 10.28l-.188-.56a2.65 2.65 0 0 1-.117-.533l-.033-.284c-.09-.788.183-1.56.74-2.124l.146-.146a10.2 10.2 0 0 1 .942-.837l.39-.309a.116.116 0 0 1 .138-.008.114.114 0 0 1 .053.126l-.155.686a4.193 4.193 0 0 0 .106 2.206l.081.248c.094.284.203.572.325.849l1.75 4.126.188.56c.056.171.097.354.117.533l.033.284a2.591 2.591 0 0 1-.74 2.124Zm3.996-1.072-.114.114a8.947 8.947 0 0 1-.747.666l-.3.235a.11.11 0 0 1-.126.008.104.104 0 0 1-.05-.117l.119-.532a3.314 3.314 0 0 0-.082-1.747l-.064-.195a7.852 7.852 0 0 0-.256-.67l-1.39-3.27-.15-.446a2.153 2.153 0 0 1-.093-.427l-.024-.223a2.064 2.064 0 0 1 .592-1.694l.114-.114a8.94 8.94 0 0 1 .748-.666l.3-.235a.11.11 0 0 1 .126-.008c.04.024.06.069.049.117l-.118.532a3.314 3.314 0 0 0 .081 1.747l.065.195c.073.227.163.45.256.67l1.39 3.27.15.446c.044.139.077.28.093.427l.024.223a2.068 2.068 0 0 1-.593 1.694Z" fill="#171FC9"/></g><defs><clipPath id="a"><path fill="#fff" d="M0 0h24v24H0z"/></clipPath></defs></svg>