<svg width="24" height="24" fill="none" xmlns="http://www.w3.org/2000/svg"><g clip-path="url(#a)"><path fill-rule="evenodd" clip-rule="evenodd" d="m16.535 15.871 4.549 3.87v-.096c.387-.484.774-1.064 1.16-1.645l-5.128-3-.58.871Z" fill="url(#b)"/><path fill-rule="evenodd" clip-rule="evenodd" d="M17.89 12h5.903v.097c0 .58-.096 1.161-.193 1.742v.387c-.097.58-.29 1.161-.484 1.742v.096l-5.613-2.032c.29-.58.387-1.258.387-2.032Z" fill="url(#c)"/><path fill-rule="evenodd" clip-rule="evenodd" d="M22.343 6c.29.58.58 1.161.774 1.742l.096.097v.096c.194.581.388 1.162.484 1.742v.097l-5.806 1.065c-.194-1.065-.58-2.033-1.258-2.807l4.548-3.87v.096L22.343 6Z" fill="url(#d)"/><path fill-rule="evenodd" clip-rule="evenodd" d="M13.052 6.097C12.665 6 12.374 6 11.987 6V0c.678 0 1.355.097 2.033.194.677.096 1.258.29 1.935.483.58.194 1.258.484 1.839.871.58.29 1.064.678 1.645 1.162h.097L15.76 7.258c-.483-.484-1.16-.774-1.741-1.064-.29 0-.678-.097-.968-.097Z" fill="url(#e)"/><path d="M11.987 0v6c-3.29 0-6 2.71-6 6s2.71 6 6 6c1.742 0 3.484-.774 4.549-2.129l4.548 3.87C18.858 22.452 15.471 24 11.987 24 5.407 24 .084 18.677.084 12S5.31 0 11.987 0ZM17.6 14.032l5.613 2.032c-.194.678-.58 1.259-.871 1.936l-5.129-3c.097-.29.29-.58.387-.968Zm6.097-4.161c.097.677.193 1.355.193 2.129h-5.903c0-.387 0-.677-.097-1.065l5.807-1.064Zm-4.065-7.065c.484.484 1.065.968 1.452 1.452L16.536 8.13c-.194-.29-.484-.484-.775-.774l3.871-4.549Z" fill="#1D2667"/></g><defs><linearGradient id="b" x1="20.036" y1="16.433" x2="18.669" y2="18.452" gradientUnits="userSpaceOnUse"><stop stop-color="#fff" stop-opacity="0"/><stop offset="1" stop-opacity=".1"/></linearGradient><linearGradient id="c" x1="21.144" y1="13.352" x2="20.604" y2="14.923" gradientUnits="userSpaceOnUse"><stop stop-color="#fff" stop-opacity="0"/><stop offset="1" stop-opacity=".1"/></linearGradient><linearGradient id="d" x1="18.918" y1="6.662" x2="21.131" y2="10.622" gradientUnits="userSpaceOnUse"><stop stop-color="#fff" stop-opacity="0"/><stop offset="1" stop-opacity=".1"/></linearGradient><linearGradient id="e" x1="11.93" y1="1.61" x2="18.328" y2="6.455" gradientUnits="userSpaceOnUse"><stop stop-color="#fff" stop-opacity="0"/><stop offset="1" stop-opacity=".1"/></linearGradient><clipPath id="a"><path fill="#fff" d="M0 0h24v24H0z"/></clipPath></defs></svg>