<svg width="24" height="24" fill="none" xmlns="http://www.w3.org/2000/svg"><path d="M12 24c6.627 0 12-5.373 12-12S18.627 0 12 0 0 5.373 0 12s5.373 12 12 12Z" fill="#E53431"/><path d="M9.088 3.986a.187.187 0 0 1 .225 0l.943.706a.187.187 0 1 1-.226.3l-.83-.62-2.697 2.023 11.85 8.89a.189.189 0 0 1 0 .302l-.87.653a.188.188 0 0 1-.226-.302l.67-.502-11.85-8.89a.186.186 0 0 1 0-.3l3.011-2.26Zm3.013 0a.185.185 0 0 1 .225-.002l6.026 4.52a.184.184 0 0 1 .065.21.186.186 0 0 1-.178.129h-3.013a.191.191 0 0 1-.112-.038L11.159 5.84a.188.188 0 1 1 .226-.302l3.905 2.928h2.384l-5.46-4.095-3.78 2.835a.188.188 0 1 1-.226-.301l3.893-2.92ZM6.908 7.882a.189.189 0 0 1 .225.301l-.63.473 11.85 8.89a.187.187 0 0 1 .056.236.188.188 0 0 1-.056.066l-3.013 2.26a.19.19 0 0 1-.225 0l-.872-.654a.188.188 0 1 1 .227-.302l.758.568 2.7-2.025L6.074 8.807a.19.19 0 0 1 0-.302l.832-.622.002-.001Zm-.72 7.364v.002H9.2c.04-.001.08.012.112.037l3.912 2.933a.187.187 0 0 1 .07.197.188.188 0 0 1-.295.105l-3.86-2.896H6.755l5.46 4.095 3.773-2.829a.189.189 0 1 1 .227.302l-3.886 2.913a.188.188 0 0 1-.226 0l-6.027-4.52a.19.19 0 0 1-.184-.16.189.189 0 0 1 .298-.179Z" fill="#fff"/></svg>