<svg width="18" height="15" viewBox="0 0 18 15" fill="none" xmlns="http://www.w3.org/2000/svg">
<path d="M16.5 9L16.8536 8.64645L17.2071 9L16.8536 9.35355L16.5 9ZM0 1C0 0.723858 0.223858 0.5 0.5 0.5C0.776142 0.5 1 0.723858 1 1H0ZM11.8536 3.64645L16.8536 8.64645L16.1464 9.35355L11.1464 4.35355L11.8536 3.64645ZM16.8536 9.35355L11.8536 14.3536L11.1464 13.6464L16.1464 8.64645L16.8536 9.35355ZM16.5 9.5H6.5V8.5H16.5V9.5ZM0 3V1H1V3H0ZM6.5 9.5C2.91015 9.5 0 6.58985 0 3H1C1 6.03757 3.46243 8.5 6.5 8.5V9.5Z" fill="#5D7078"/>
</svg>
