<svg width="24" height="24" viewBox="0 0 24 24" fill="none" xmlns="http://www.w3.org/2000/svg">
<path d="M15.9442 1.95332C15.9256 1.24634 16.5581 0.576577 17.3767 0.613786C18.0837 0.650995 18.6791 1.26495 18.6791 2.00913C18.6791 2.77193 18.0465 3.36727 17.2651 3.34867C16.5209 3.33006 15.9256 2.71611 15.9442 1.95332ZM18.8465 19.9068C19.6093 19.9068 20.2047 20.5022 20.2047 21.2649C20.2047 22.0277 19.5907 22.6417 18.8279 22.6417C18.0837 22.6417 17.4698 22.0277 17.4698 21.2836C17.4698 20.5022 18.0837 19.9068 18.8465 19.9068ZM1.35814 14.3254C0.576744 14.3254 0 13.7115 0 12.9301C0 12.1859 0.613953 11.5905 1.37674 11.6091C2.13953 11.6091 2.73488 12.2231 2.73488 13.0045C2.71628 13.7301 2.10233 14.3254 1.35814 14.3254ZM16.5209 5.59983C16.5209 4.94867 17.0419 4.42774 17.693 4.42774C18.3256 4.42774 18.8465 4.94867 18.8651 5.58123C18.8651 6.21379 18.3442 6.75332 17.693 6.77192C17.0419 6.77192 16.5209 6.251 16.5209 5.59983ZM4.29767 9.65565C4.94884 9.65565 5.48837 10.1766 5.48837 10.8091C5.48837 11.4417 4.94884 11.9812 4.31628 11.9812C3.66512 11.9812 3.14419 11.4603 3.14419 10.8091C3.14419 10.1766 3.64651 9.65565 4.29767 9.65565ZM20.7256 7.18123C20.093 7.18123 19.5535 6.6603 19.5721 6.02774C19.5721 5.37658 20.1116 4.85565 20.7442 4.85565C21.3767 4.87425 21.8977 5.39518 21.8977 6.02774C21.9163 6.6789 21.3767 7.18123 20.7256 7.18123ZM15.5163 20.9673C14.8651 20.9673 14.3442 20.4277 14.3442 19.7952C14.3442 19.1626 14.8651 18.6417 15.5163 18.6231C16.1488 18.6045 16.6884 19.1626 16.6884 19.7952C16.6884 20.4277 16.1488 20.9673 15.5163 20.9673ZM4.31628 7.96262C4.31628 8.61379 3.79535 9.13472 3.14419 9.11611C2.51163 9.11611 1.9907 8.59518 1.9907 7.94402C1.9907 7.31146 2.51163 6.77192 3.14419 6.77192C3.77674 6.77192 4.31628 7.31146 4.31628 7.96262ZM13.6 23.3859C12.9488 23.3859 12.4465 22.8649 12.4465 22.2138C12.4465 21.5626 12.9674 21.0603 13.6 21.0603C14.2512 21.0603 14.7721 21.5812 14.7721 22.2324C14.7721 22.8836 14.2512 23.3859 13.6 23.3859ZM10.1581 20.3533C10.1581 19.7952 10.6047 19.3673 11.1442 19.3673C11.7023 19.3673 12.1488 19.8324 12.1302 20.3905C12.1302 20.9487 11.6837 21.3766 11.1256 21.3766C10.586 21.3766 10.1395 20.9301 10.1581 20.3533ZM21.3581 9.09751C21.3581 9.65565 20.9116 10.1022 20.3535 10.1022C19.814 10.1022 19.3674 9.65565 19.3674 9.09751C19.3674 8.53937 19.814 8.09285 20.3721 8.09285C20.9116 8.09285 21.3581 8.53937 21.3581 9.09751ZM6.97674 6.75332C6.97674 7.31146 6.53023 7.73937 5.9907 7.73937C5.43256 7.73937 4.98605 7.29286 5.00465 6.73472C5.00465 6.17658 5.43256 5.74867 5.9907 5.74867C6.56744 5.74867 6.99535 6.17658 6.97674 6.75332ZM8.14884 9.59983C8.14884 10.158 7.72093 10.6045 7.16279 10.6045C6.60465 10.6045 6.15814 10.1766 6.15814 9.61844C6.15814 9.04169 6.58605 8.61378 7.16279 8.61378C7.72093 8.61378 8.14884 9.04169 8.14884 9.59983ZM4.59535 4.14867C4.59535 3.59053 5.04186 3.16262 5.6 3.16262C6.15814 3.16262 6.58605 3.60913 6.58605 4.16727C6.58605 4.72541 6.15814 5.15332 5.6 5.17193C5.02326 5.15332 4.57674 4.70681 4.59535 4.14867ZM16.3163 8.6696C16.3163 8.11146 16.7628 7.66495 17.3023 7.66495C17.8605 7.66495 18.307 8.11146 18.307 8.6696C18.307 9.22774 17.8605 9.65565 17.3023 9.65565C16.7442 9.67425 16.3163 9.22774 16.3163 8.6696ZM13.0419 16.9301C13.5814 16.9301 14.0279 17.3766 14.0279 17.9347C14.0279 18.4929 13.5814 18.9394 13.0233 18.9208C12.4651 18.9208 12.0372 18.4743 12.0372 17.9161C12.0372 17.3766 12.4837 16.9301 13.0419 16.9301ZM10.1023 22.0277C10.1023 22.5859 9.67442 23.0138 9.11628 23.0138C8.55814 23.0138 8.11163 22.5673 8.11163 22.0277C8.11163 21.4696 8.55814 21.0231 9.11628 21.0231C9.67442 21.0231 10.1023 21.4696 10.1023 22.0277ZM22.7907 11.0324C22.2512 11.0324 21.8047 10.5673 21.8047 10.0463C21.8047 9.4882 22.2698 9.04169 22.8279 9.04169C23.3674 9.04169 23.8326 9.50681 23.814 10.0463C23.814 10.5859 23.3488 11.0324 22.7907 11.0324ZM10.307 18.3626C10.307 18.8277 9.91628 19.2184 9.45116 19.2184C8.96744 19.2184 8.59535 18.8277 8.59535 18.3626C8.59535 17.8789 8.98605 17.5068 9.46977 17.5068C9.93488 17.5068 10.307 17.8789 10.307 18.3626ZM8.59535 5.43239C9.07907 5.43239 9.45116 5.80448 9.45116 6.2882C9.45116 6.75332 9.06047 7.14402 8.59535 7.14402C8.13023 7.14402 7.72093 6.75332 7.73954 6.2696C7.73954 5.82309 8.13023 5.43239 8.59535 5.43239ZM10.493 15.9254C10.493 15.4417 10.8651 15.0696 11.3302 15.0696C11.814 15.0696 12.2047 15.4417 12.2047 15.9254C12.2047 16.3905 11.8326 16.7812 11.3488 16.7812C10.8651 16.7626 10.493 16.4091 10.493 15.9254ZM7.42326 20.8556C6.93954 20.8556 6.54884 20.4836 6.54884 20.0184C6.54884 19.5533 6.92093 19.1626 7.40465 19.1626C7.88837 19.1626 8.27907 19.5347 8.26047 20.0184C8.26047 20.4836 7.90698 20.8556 7.42326 20.8556ZM17.2465 11.1626C17.2465 11.6277 16.8744 11.9998 16.4093 11.9998C15.9256 11.9998 15.5535 11.6277 15.5535 11.144C15.5535 10.6603 15.9256 10.2882 16.4093 10.2882C16.893 10.2882 17.2465 10.6603 17.2465 11.1626ZM8.16744 4.53937C7.68372 4.53937 7.31163 4.18588 7.31163 3.70216C7.31163 3.21844 7.70233 2.82774 8.16744 2.82774C8.63256 2.82774 9.02326 3.21844 9.02326 3.68355C9.02326 4.16727 8.65116 4.53937 8.16744 4.53937ZM19.4605 12.4091C18.9767 12.4091 18.6233 12.037 18.6233 11.5533C18.6233 11.0882 18.9953 10.7161 19.4791 10.6975C19.9628 10.6975 20.3349 11.0696 20.3163 11.5719C20.3163 12.0742 19.9442 12.4277 19.4605 12.4091ZM9.73023 9.99053C9.26512 9.99053 8.89302 9.59983 8.89302 9.13472C8.89302 8.6696 9.30233 8.29751 9.76744 8.29751C10.2326 8.29751 10.6047 8.6882 10.6047 9.15332C10.6047 9.61844 10.214 9.99053 9.73023 9.99053ZM21.8977 13.358C21.414 13.3394 21.0419 12.9487 21.0605 12.4649C21.0791 11.9998 21.4698 11.6277 21.9349 11.6463C22.4186 11.6649 22.7907 12.0556 22.7721 12.558C22.7535 13.0231 22.3628 13.3766 21.8977 13.358ZM11.9814 9.99053C11.5721 9.99053 11.2558 9.67425 11.2558 9.26495C11.2558 8.85565 11.5907 8.53937 12 8.53937C12.4093 8.53937 12.7256 8.85565 12.7256 9.26495C12.707 9.67425 12.3907 9.99053 11.9814 9.99053ZM19.9628 14.3812C19.9628 13.9719 20.2791 13.6556 20.6884 13.637C21.0977 13.637 21.414 13.9533 21.414 14.3626C21.414 14.7719 21.0605 15.144 20.6884 15.1254C20.2977 15.1254 19.9814 14.7905 19.9628 14.3812ZM11.1256 3.81379C11.1256 4.22309 10.8093 4.53937 10.4 4.53937C9.9907 4.53937 9.67442 4.20448 9.67442 3.79518C9.67442 3.38588 10.0093 3.0696 10.4372 3.0696C10.8279 3.0882 11.1256 3.40448 11.1256 3.81379ZM11.0512 13.9347C11.0512 14.344 10.7349 14.6603 10.3442 14.6603C9.91628 14.6603 9.6 14.344 9.6 13.9347C9.6 13.5254 9.91628 13.2091 10.3256 13.2091C10.7349 13.1905 11.0512 13.5068 11.0512 13.9347ZM8.44651 17.0789C8.03721 17.0789 7.70233 16.7626 7.70233 16.3533C7.70233 15.944 8.03721 15.6091 8.44651 15.6091C8.83721 15.6091 9.17209 15.944 9.17209 16.3347C9.17209 16.7626 8.85581 17.0789 8.44651 17.0789ZM18.9767 13.451C18.9767 13.8789 18.6605 14.1766 18.2512 14.1766C17.8605 14.1766 17.5256 13.8231 17.5256 13.4324C17.5256 13.0231 17.8605 12.7068 18.2698 12.7068C18.6605 12.7068 18.9767 13.0417 18.9767 13.451ZM15.2 12.2975C15.6279 12.2975 15.9256 12.5952 15.9256 13.0231C15.9256 13.4324 15.6093 13.7673 15.2 13.7487C14.7907 13.7487 14.4558 13.4138 14.4558 13.0231C14.4558 12.6138 14.7721 12.2975 15.2 12.2975ZM7.12558 18.0091C7.12558 18.4184 6.7907 18.7347 6.4 18.7347C5.9907 18.7347 5.67442 18.4184 5.67442 18.0091C5.67442 17.5998 6.0093 17.2649 6.4 17.2649C6.7907 17.2836 7.12558 17.6184 7.12558 18.0091ZM10.8279 7.12541C10.4186 7.12541 10.1023 6.80913 10.1023 6.39983C10.1023 6.00913 10.4372 5.67425 10.8465 5.65565C11.2372 5.63704 11.5721 5.99053 11.5721 6.39983C11.5535 6.80913 11.2372 7.12541 10.8279 7.12541ZM17.507 14.7533C17.507 15.1068 17.2279 15.4045 16.8744 15.4045C16.5209 15.4045 16.2605 15.1254 16.2605 14.7719C16.2605 14.4184 16.5395 14.1394 16.8744 14.1394C17.2279 14.1394 17.507 14.4184 17.507 14.7533ZM10.493 12.0929C10.493 12.4463 10.214 12.7254 9.86047 12.7254C9.54419 12.7254 9.22791 12.4091 9.22791 12.0929C9.22791 11.758 9.52558 11.4417 9.87907 11.4603C10.214 11.4603 10.493 11.7394 10.493 12.0929ZM5.95349 15.5533C6.30698 15.5533 6.58605 15.8324 6.56744 16.1859C6.56744 16.5208 6.26977 16.8184 5.93488 16.8184C5.5814 16.7998 5.30233 16.5022 5.30233 16.1673C5.30233 15.7952 5.5814 15.5347 5.95349 15.5533ZM13.8047 10.3998C13.4512 10.3998 13.1721 10.1394 13.1721 9.78588C13.1721 9.43239 13.4326 9.15332 13.8047 9.15332C14.1581 9.15332 14.4372 9.43239 14.4372 9.76727C14.4372 10.1208 14.1581 10.3998 13.8047 10.3998ZM12.6512 6.2882C13.0047 6.2882 13.2651 6.56727 13.2651 6.92076C13.2651 7.27425 12.986 7.55332 12.6326 7.55332C12.2791 7.55332 12 7.27425 12 6.90216C12.0186 6.56727 12.2977 6.2882 12.6512 6.2882ZM8.59535 14.5115C8.59535 14.8649 8.31628 15.144 7.9814 15.1626C7.64651 15.1626 7.34884 14.8463 7.34884 14.5115C7.34884 14.158 7.62791 13.8975 7.9814 13.8975C8.33488 13.8975 8.59535 14.158 8.59535 14.5115ZM13.8419 13.7301C14.1953 13.7301 14.4558 14.0091 14.4558 14.3626C14.4558 14.7161 14.1767 14.9766 13.8233 14.9766C13.4512 14.9766 13.1907 14.6975 13.1907 14.344C13.2093 13.9905 13.4884 13.7115 13.8419 13.7301ZM19.9628 15.6836C19.9628 16.0556 19.7023 16.3347 19.3302 16.3161C18.9767 16.3161 18.7163 16.037 18.6977 15.6836C18.6977 15.3487 18.9767 15.051 19.3116 15.051C19.6651 15.0696 19.9628 15.3487 19.9628 15.6836ZM12.2419 3.70216C12.5953 3.70216 12.8558 3.96262 12.8558 4.31611C12.8558 4.6696 12.5767 4.94867 12.2419 4.94867C11.8884 4.94867 11.6093 4.6696 11.6093 4.31611C11.6093 3.96262 11.8884 3.70216 12.2419 3.70216ZM14.1767 5.11611C14.1767 5.41379 13.9349 5.65565 13.6186 5.63704C13.3209 5.63704 13.0977 5.39518 13.0977 5.09751C13.0977 4.79983 13.3395 4.55797 13.6372 4.55797C13.9535 4.57658 14.1953 4.81844 14.1767 5.11611ZM5.37674 14.5301C5.37674 14.2324 5.61861 14.0091 5.91628 14.0091C6.21395 14.0091 6.47442 14.2696 6.45581 14.5673C6.43721 14.8649 6.19535 15.1068 5.91628 15.1068C5.6 15.0882 5.35814 14.8463 5.37674 14.5301ZM18.493 16.5208C18.493 16.837 18.2512 17.0789 17.9535 17.0789C17.6558 17.0789 17.3953 16.837 17.3953 16.5394C17.3953 16.2417 17.6372 15.9998 17.9535 15.9998C18.2512 15.9998 18.4744 16.2231 18.493 16.5208ZM8.48372 12.9115C8.48372 13.2091 8.24186 13.451 7.94419 13.451C7.64651 13.451 7.40465 13.1905 7.40465 12.8929C7.40465 12.5952 7.66512 12.3719 7.94419 12.3719C8.24186 12.3719 8.48372 12.5952 8.48372 12.9115ZM14.0465 8.24169C13.7302 8.24169 13.507 7.99983 13.507 7.70216C13.507 7.40448 13.7488 7.18123 14.0465 7.18123C14.3628 7.18123 14.586 7.40448 14.586 7.72076C14.6047 8.01844 14.3814 8.24169 14.0465 8.24169ZM15.4977 15.0696C15.7954 15.0696 16.0186 15.2929 16.0186 15.6091C16.0186 15.9254 15.7767 16.1673 15.4605 16.1673C15.1628 16.1673 14.9395 15.9254 14.9395 15.6277C14.9581 15.2929 15.2 15.0696 15.4977 15.0696ZM6.64186 13.2091C6.64186 13.4696 6.43721 13.6743 6.17674 13.6743C5.93488 13.6743 5.69302 13.451 5.71163 13.1905C5.71163 12.9301 5.93488 12.7254 6.19535 12.7254C6.45581 12.744 6.66047 12.9487 6.64186 13.2091ZM17.0977 16.9673C17.0977 17.2277 16.893 17.4324 16.6326 17.4324C16.3907 17.4324 16.1674 17.2091 16.1674 16.9673C16.1674 16.7068 16.3907 16.5022 16.6512 16.5022C16.9116 16.5022 17.0977 16.7068 17.0977 16.9673ZM14.6605 5.58123C14.9395 5.58123 15.1442 5.76727 15.1442 6.04634C15.1442 6.30681 14.9395 6.51146 14.6791 6.51146C14.4186 6.51146 14.214 6.32541 14.214 6.06495C14.1953 5.76727 14.3814 5.58123 14.6605 5.58123Z" fill="#01A996"/>
</svg>
