<svg width="24" height="24" viewBox="0 0 24 24" fill="none" xmlns="http://www.w3.org/2000/svg">
<path d="M12 24C18.6274 24 24 18.6274 24 12C24 5.37258 18.6274 0 12 0C5.37258 0 0 5.37258 0 12C0 18.6274 5.37258 24 12 24Z" fill="#B3B3B3"/>
<path d="M5.0598 5.24346C6.04259 4.2155 7.83776 4.17464 8.85389 5.17356C9.91482 6.21048 10.9645 7.25725 12.0028 8.31389C13.1087 7.26335 14.1426 6.14292 15.2528 5.09668C16.3093 4.14292 18.1023 4.25797 19.0426 5.32679C20.0044 6.33432 19.9888 8.09292 18.9888 9.07141C17.9614 10.1176 16.9211 11.1478 15.8851 12.1849C16.9437 13.2763 18.0474 14.3241 19.0969 15.4289C20.0388 16.4617 19.9485 18.2198 18.9286 19.1693C17.9238 20.1832 16.1238 20.1859 15.1211 19.1693C14.0781 18.1478 13.0576 17.0972 12.0216 16.0693C10.9157 17.1332 9.86141 18.2494 8.74206 19.3021C7.67216 20.2515 5.86733 20.1085 4.94582 19.0203C4.01786 18.015 4.03991 16.3015 5.00872 15.3273C5.9184 14.394 6.84421 13.4763 7.7727 12.566C8.16141 12.9537 8.55066 13.344 8.93937 13.7316C8.02915 14.6719 7.07163 15.5714 6.17485 16.5273C5.57001 17.1472 6.10281 18.3015 6.95227 18.2881C7.46679 18.3332 7.82216 17.9069 8.15711 17.5849C9.04474 16.6806 9.94636 15.7924 10.834 14.8886C8.89851 12.9365 6.93184 11.0107 5.00604 9.04937C4.0012 8.037 4.03292 6.23109 5.0598 5.24829V5.24346ZM6.18346 7.87303C7.20819 8.94184 8.27163 9.9698 9.3141 11.023C9.81589 10.5133 10.3223 10.0069 10.8335 9.50367C9.82431 8.487 8.81948 7.46066 7.7969 6.46012C7.47109 6.10851 6.91356 5.97625 6.48829 6.23001C5.8969 6.51657 5.71087 7.39561 6.18238 7.87356L6.18346 7.87303ZM16.2007 6.487C14.2765 8.37625 12.391 10.3042 10.4759 12.2042C10.9931 12.7047 11.5076 13.2074 12.0109 13.7214C12.3974 13.3402 12.7818 12.9547 13.1663 12.5693C13.555 12.9569 13.9415 13.3472 14.3329 13.7327C13.9533 14.1203 13.5711 14.5037 13.1845 14.887C14.2227 15.9311 15.241 16.9951 16.3136 18.0053C16.8576 18.5784 17.9141 18.2306 18.0711 17.4757C18.2394 16.9413 17.856 16.4795 17.4937 16.1435C15.7876 14.4456 14.0851 12.7442 12.3861 11.0392C12.775 10.6513 13.1623 10.2621 13.548 9.87141C13.9345 10.2569 14.3211 10.6424 14.7168 11.0214C15.7351 9.96657 16.8136 8.9698 17.8163 7.89883C18.3222 7.40743 18.1195 6.46711 17.4749 6.20098C17.041 5.97786 16.5125 6.13539 16.2001 6.487H16.2007Z" fill="url(#paint0_linear)"/>
<defs>
<linearGradient id="paint0_linear" x1="12.0087" y1="19.9338" x2="12.0087" y2="4.44776" gradientUnits="userSpaceOnUse">
<stop stop-color="#2F75BB"/>
<stop offset="1" stop-color="#0A4185"/>
</linearGradient>
</defs>
</svg>
