<svg width="24" height="24" fill="none" xmlns="http://www.w3.org/2000/svg"><path d="M21.935 6.627h-.002a4.532 4.532 0 0 1-4.532-4.53v-.002a2.055 2.055 0 1 0-4.11 0V2.1A4.538 4.538 0 0 1 8.83 6.628c-.026-.001-.052-.003-.079-.003a2.055 2.055 0 0 0 0 4.111h.005a4.534 4.534 0 0 1 4.527 4.38 2.092 2.092 0 0 0-.006.16v.003a4.533 4.533 0 0 1-2.274 3.928 4.514 4.514 0 0 1-2.25.596c-.045 0-.09.001-.133.004a4.534 4.534 0 0 1-4.411-4.532h-.004l-.006.002v-.001a2.05 2.05 0 1 0-4.102 0c0 1.135.921 2.054 2.056 2.054h.002a4.53 4.53 0 0 1 4.533 4.527v-.004.007c0 1.134.92 2.056 2.054 2.056 1.137 0 2.06-.92 2.064-2.058v-.001a4.522 4.522 0 0 1 4.523-4.529v.001c1.138 0 2.06-.92 2.064-2.058a2.057 2.057 0 0 0-2.058-2.055h-.006c-2.447 0-4.444-1.96-4.524-4.388a2.08 2.08 0 0 0 .006-.147v-.003a4.534 4.534 0 0 1 9.07.003h-.007a2.057 2.057 0 0 0 4.115 0 2.053 2.053 0 0 0-2.053-2.054Z" fill="#2FADE2"/><path d="M6.59 2.056v.002A4.537 4.537 0 0 1 2.056 6.59h-.003C.918 6.59 0 7.51 0 8.644 0 9.78.917 10.7 2.051 10.7c2.507.001 4.542 2.039 4.542 4.521h-.001c0 1.14.919 2.06 2.054 2.06a2.052 2.052 0 1 0 0-4.103H8.64a4.534 4.534 0 0 1 .004-9.067v-.003l-.002-.005h.001A2.05 2.05 0 1 0 8.645 0a2.056 2.056 0 0 0-2.054 2.056Z" fill="#707374"/></svg>