<svg width="24" height="24" viewBox="0 0 24 24" fill="none" xmlns="http://www.w3.org/2000/svg">
<g clip-path="url(#clip0)">
<path d="M24 12C24 14.3734 23.2962 16.6935 21.9776 18.6668C20.6591 20.6402 18.7849 22.1783 16.5922 23.0866C14.3995 23.9948 11.9867 24.2324 9.65892 23.7694C7.33115 23.3064 5.19295 22.1635 3.51472 20.4853C1.83649 18.8071 0.693605 16.6689 0.230582 14.3411C-0.232441 12.0133 0.00519937 9.60051 0.913451 7.4078C1.8217 5.21509 3.35977 3.34094 5.33316 2.02236C7.30655 0.703788 9.62663 0 12 0C15.1826 0 18.2349 1.26428 20.4853 3.51472C22.7357 5.76516 24 8.8174 24 12ZM16.8872 5.8125L17.0625 4.96875C17.0753 4.92394 17.0773 4.87674 17.0683 4.83101C17.0593 4.78529 17.0396 4.74235 17.0107 4.70574C16.9819 4.66913 16.9448 4.63989 16.9024 4.62042C16.8601 4.60095 16.8138 4.59181 16.7672 4.59375H16.2047C16.0984 4.59821 15.9965 4.63726 15.9144 4.70494C15.8323 4.77263 15.7746 4.86526 15.75 4.96875L15.5709 5.8125H14.2584L14.4375 4.96875C14.4503 4.92394 14.4523 4.87674 14.4433 4.83101C14.4343 4.78529 14.4146 4.74235 14.3857 4.70574C14.3569 4.66913 14.3198 4.63989 14.2774 4.62042C14.2351 4.60095 14.1888 4.59181 14.1422 4.59375H13.5797C13.4734 4.59821 13.3715 4.63726 13.2894 4.70494C13.2073 4.77263 13.1496 4.86526 13.125 4.96875L12.9459 5.8125H5.62501L3.75001 8.0625H16.125C16.4234 8.0625 16.7095 8.18103 16.9205 8.392C17.1315 8.60298 17.25 8.88913 17.25 9.1875V10.3125C17.25 10.6109 17.1315 10.897 16.9205 11.108C16.7095 11.319 16.4234 11.4375 16.125 11.4375H10.3481L10.8263 9.1875H7.82626L5.63438 19.5H8.63438L9.87001 13.6875H11.2763L11.0972 14.5312C11.0844 14.5761 11.0824 14.6233 11.0914 14.669C11.1004 14.7147 11.1201 14.7576 11.149 14.7943C11.1778 14.8309 11.2149 14.8601 11.2572 14.8796C11.2996 14.8991 11.3459 14.9082 11.3925 14.9062H11.955C12.0613 14.9018 12.1632 14.8627 12.2453 14.7951C12.3274 14.7274 12.3851 14.6347 12.4097 14.5312L12.5888 13.6875H13.9013L13.7222 14.5312C13.7094 14.5761 13.7074 14.6233 13.7164 14.669C13.7254 14.7147 13.7451 14.7576 13.774 14.7943C13.8028 14.8309 13.8399 14.8601 13.8822 14.8796C13.9246 14.8991 13.9709 14.9082 14.0175 14.9062H14.58C14.6863 14.9018 14.7882 14.8627 14.8703 14.7951C14.9524 14.7274 15.0101 14.6347 15.0347 14.5312L15.2138 13.6875H18C18.5967 13.6875 19.169 13.4504 19.591 13.0285C20.013 12.6065 20.25 12.0342 20.25 11.4375V8.0625C20.25 7.46576 20.013 6.89347 19.591 6.47151C19.169 6.04955 18.5967 5.8125 18 5.8125H16.8872Z" fill="#F7931E"/>
</g>
<defs>
<clipPath id="clip0">
<rect width="24" height="24" fill="white"/>
</clipPath>
</defs>
</svg>
