<svg width="24" height="24" fill="none" xmlns="http://www.w3.org/2000/svg"><path d="M12 0C5.373 0 0 5.373 0 12s5.373 12 12 12c6.628 0 12-5.373 12-12S18.628 0 12 0Zm4.848 7.13a4.34 4.34 0 0 1-.128.657 1.95 1.95 0 0 1-.116.321.98.98 0 0 1-.154.24c-.056.064-.116.095-.18.095-.099 0-.223-.04-.37-.118a6.1 6.1 0 0 0-1.301-.51 3.787 3.787 0 0 0-.985-.118c-.381 0-.704.047-.969.142a1.901 1.901 0 0 0-.65.373 1.473 1.473 0 0 0-.497 1.1.99.99 0 0 0 .19.6c.127.173.296.334.509.482.23.16.473.303.725.43.277.14.552.286.826.434.282.153.557.318.825.495.267.176.511.386.725.624.214.24.386.515.508.812.127.305.19.656.19 1.053a3.47 3.47 0 0 1-.401 1.648 4.035 4.035 0 0 1-1.138 1.323c-.49.374-1.083.668-1.778.882a6.79 6.79 0 0 1-.602.153l-.11 1.52a.584.584 0 0 1-.615.551.584.584 0 0 1-.551-.616l.093-1.303c-.176.011-.352.017-.528.018-.14 0-.27-.01-.404-.015l-.098 1.366a.584.584 0 0 1-.616.55.584.584 0 0 1-.55-.616l.102-1.444a7.318 7.318 0 0 1-.737-.182 5.077 5.077 0 0 1-.757-.297 1.971 1.971 0 0 1-.455-.298c-.098-.093-.148-.236-.148-.425.002-.076.01-.152.021-.227a4.622 4.622 0 0 1 .148-.684c.033-.116.075-.228.127-.336a.958.958 0 0 1 .164-.245.269.269 0 0 1 .196-.095c.12 0 .263.05.429.147.166.098.372.205.619.32.247.117.54.226.879.326.339.1.744.151 1.217.152.416 0 .781-.047 1.095-.142.315-.094.578-.223.789-.387a1.57 1.57 0 0 0 .646-1.285c0-.232-.064-.437-.191-.613a2.164 2.164 0 0 0-.503-.488 5.277 5.277 0 0 0-.709-.42 23.621 23.621 0 0 1-.81-.426 11.055 11.055 0 0 1-.81-.49 3.602 3.602 0 0 1-.709-.62 2.863 2.863 0 0 1-.502-.816 2.813 2.813 0 0 1-.19-1.076c0-.567.126-1.09.38-1.568.254-.48.607-.89 1.059-1.233a4.9 4.9 0 0 1 1.233-.668l.13-1.81a.584.584 0 1 1 1.167.067l-.102 1.425a7.45 7.45 0 0 1 .938-.094l.1-1.397a.585.585 0 0 1 1.167.065l-.098 1.374c.054.007.111.01.164.018.293.042.583.102.869.18.26.073.483.153.666.241.184.088.31.162.381.222.07.06.122.123.154.188.032.066.048.15.048.251 0 .051-.006.123-.016.218h-.001Z" fill="#01AEF0"/></svg>