<svg width="24" height="24" fill="none" xmlns="http://www.w3.org/2000/svg"><path d="M1.727 17.404a1.727 1.727 0 1 0 0-3.454 1.727 1.727 0 0 0 0 3.454ZM22.31 7.113c-.936 0-1.728.756-1.728 1.727 0 1.368-.216 1.728-1.727 1.728h-.145a1.69 1.69 0 0 0-1.546 1.69v.037c0 1.332-.253 1.655-1.728 1.655-.072 0-.144 0-.18.036-.863.108-1.547.828-1.547 1.691 0 .935.756 1.727 1.728 1.727.898 0 1.655-.72 1.69-1.583v-.144c0-1.224.396-1.691 1.692-1.727h.036a1.7 1.7 0 0 0 1.69-1.62v-.107c0-1.26.396-1.728 1.728-1.728.935 0 1.727-.756 1.727-1.727 0-.899-.756-1.655-1.69-1.655Zm-10.147 3.455h-.145c-1.51 0-1.727-.36-1.727-1.728a1.728 1.728 0 0 0-3.454 0c0 1.368-.217 1.691-1.727 1.691h-.145a1.69 1.69 0 0 0-1.547 1.692c0 .935.757 1.727 1.728 1.727.899 0 1.655-.72 1.69-1.583v-.108c0-1.26.396-1.728 1.728-1.728 1.332 0 1.727.468 1.727 1.692 0 .935.756 1.727 1.727 1.727.971 0 1.727-.756 1.727-1.727a1.743 1.743 0 0 0-1.582-1.655Z" fill="#000"/></svg>