<svg width="20" height="17" viewBox="0 0 20 17" fill="none" xmlns="http://www.w3.org/2000/svg">
<path d="M9.98608 7.70309L16.6647 1.32809C17.1263 0.887463 17.8727 0.887463 18.3294 1.32809L19.4392 2.38746C19.9008 2.82809 19.9008 3.54059 19.4392 3.97653L14.7102 8.49996L19.4441 13.0187C19.9057 13.4593 19.9057 14.1718 19.4441 14.6078L18.3343 15.6718C17.8727 16.1125 17.1263 16.1125 16.6696 15.6718L9.99099 9.29684C9.52447 8.85621 9.52447 8.14371 9.98608 7.70309ZM0.557508 9.29684L7.23608 15.6718C7.69769 16.1125 8.44412 16.1125 8.90081 15.6718L10.0106 14.6125C10.4722 14.1718 10.4722 13.4593 10.0106 13.0234L5.28161 8.49996L10.0155 3.98121C10.4772 3.54059 10.4772 2.82809 10.0155 2.39215L8.90572 1.32809C8.44411 0.887463 7.69769 0.887463 7.24099 1.32809L0.562419 7.70309C0.0959008 8.14371 0.0959009 8.85621 0.557508 9.29684Z" fill="#00FFD1"/>
</svg>
