<svg width="24" height="24" fill="none" xmlns="http://www.w3.org/2000/svg"><path fill-rule="evenodd" clip-rule="evenodd" d="M16.417 2.024 13.59.467a3.409 3.409 0 0 0-1.645-.423v10.77a.917.917 0 0 0 .756-.393l4.255-6.08a1.599 1.599 0 0 0-.54-2.317Z" fill="#4480B5"/><path fill-rule="evenodd" clip-rule="evenodd" d="m21.712 4.735-2.759-1.519a2.393 2.393 0 0 1 .488 3.257l-6.365 9.095a1.371 1.371 0 0 1-1.13.589v7.779c.624 0 1.25-.287 1.65-.86L22.89 9.797a3.493 3.493 0 0 0-1.177-5.062Z" fill="#41494E"/><path fill-rule="evenodd" clip-rule="evenodd" d="M7.473 2.024 10.301.467a3.408 3.408 0 0 1 1.644-.423v10.77a.917.917 0 0 1-.756-.393l-4.254-6.08a1.599 1.599 0 0 1 .538-2.317Z" fill="#81ACCD"/><path fill-rule="evenodd" clip-rule="evenodd" d="m2.179 4.735 2.758-1.519a2.393 2.393 0 0 0-.487 3.257l6.364 9.095c.275.393.703.589 1.131.589v7.779c-.625 0-1.25-.287-1.651-.86L1.002 9.797a3.493 3.493 0 0 1 1.177-5.062Z" fill="#55646D"/></svg>