<svg width="24" height="24" viewBox="0 0 24 24" fill="none" xmlns="http://www.w3.org/2000/svg">
<path d="M12 24C18.6274 24 24 18.6274 24 12C24 5.37258 18.6274 0 12 0C5.37258 0 0 5.37258 0 12C0 18.6274 5.37258 24 12 24Z" fill="white"/>
<path d="M17.6334 15.5429C17.4685 15.5356 17.3049 15.5112 17.1451 15.4703C15.9181 15.1469 15.4236 13.9791 15.4236 13.9791C15.2019 13.5295 15.0864 12.9551 15.0366 12.3517H16.8857V10.4175H15.0528C15.0974 9.87075 15.1635 9.39559 15.2133 9.08401C15.2646 8.75096 15.3979 8.43591 15.6013 8.16723C16.8148 6.57853 19.0308 7.30268 19.0308 7.30268V5.29692C15.7759 5.09357 14.4705 6.68781 14.3674 6.8213L14.3515 6.84101C13.5309 7.80931 13.2483 9.27179 13.1619 10.4151H12.0497V5.11052H10.1155V10.4175H8.3937V4.82764H6.45987V10.4175H4.4541V12.3517H6.45987V20.0877H8.3937V12.3517H10.1155V16.4324H12.0497V12.3517H13.1716C13.3877 15.2144 15.1632 16.3611 15.1632 16.3611C16.6727 17.4225 19.432 17.0452 19.432 17.0452V15.5356C19.1985 15.6135 18.0338 15.5619 17.6334 15.5429Z" fill="url(#paint0_linear)"/>
<path d="M12.0234 1.1065C11.9019 1.17399 11.7695 1.21986 11.6323 1.24206C11.6323 1.24206 11.6973 1.1065 11.893 1.09163C11.893 1.09163 11.587 0.98615 11.4514 0.830531C11.4514 0.830531 11.7125 0.850588 11.9079 0.996179C11.9079 0.996179 11.6171 0.770358 11.5922 0.408283C11.5922 0.408283 11.9131 0.694277 11.9881 0.969897C11.9881 0.969897 11.873 0.58396 12.0483 0.237793C12.0483 0.237793 12.1891 0.608859 12.0736 0.975084C12.1807 0.762307 12.3393 0.579619 12.5349 0.443557C12.5349 0.443557 12.5048 0.754796 12.179 0.999983C12.3295 0.925797 12.493 0.881521 12.6604 0.869609C12.6604 0.869609 12.4297 1.08056 12.1586 1.10546C12.2682 1.11083 12.3711 1.15961 12.4446 1.24102C12.4446 1.24102 12.1638 1.23134 12.0234 1.1065ZM14.3587 1.41393C14.2247 1.45106 14.0852 1.46463 13.9465 1.45405C13.9465 1.45405 14.0416 1.33785 14.2353 1.36897C14.2353 1.36897 13.9624 1.19606 13.8673 1.01209C13.8673 1.01209 14.1163 1.09266 14.2723 1.27975C14.2723 1.27975 14.0423 0.992375 14.1025 0.635142C14.1025 0.635142 14.3477 0.988225 14.3563 1.27422C14.3563 1.27422 14.3345 0.871683 14.5863 0.576352C14.5863 0.576352 14.6357 0.969897 14.4379 1.29912C14.5919 1.11717 14.7889 0.976543 15.011 0.890012C15.011 0.890012 14.9089 1.18534 14.5344 1.34857C14.6982 1.31172 14.8675 1.30702 15.0331 1.33474C15.0331 1.33474 14.7595 1.48552 14.4902 1.44644C14.5954 1.4772 14.684 1.54864 14.7364 1.64494C14.7364 1.64494 14.4659 1.56886 14.3587 1.41393ZM16.8365 2.21105C16.6982 2.22021 16.5593 2.20535 16.4261 2.16713C16.4261 2.16713 16.5426 2.07238 16.7262 2.14189C16.7262 2.14189 16.4938 1.91641 16.4375 1.71825C16.4375 1.71825 16.665 1.84725 16.7802 2.062C16.7802 2.062 16.6128 1.73416 16.7435 1.39664C16.7435 1.39664 16.9126 1.79157 16.8635 2.07341C16.8635 2.07341 16.9233 1.67468 17.2291 1.43606C17.2291 1.43606 17.1986 1.83168 16.9386 2.11422C17.126 1.96699 17.3472 1.86892 17.5821 1.82892C17.5821 1.82892 17.4227 2.09762 17.0233 2.18165C17.1911 2.17837 17.358 2.20774 17.5147 2.26811C17.5147 2.26811 17.2163 2.36079 16.9614 2.26811C17.0583 2.31948 17.1307 2.40734 17.1627 2.51226C17.1627 2.51226 16.9102 2.38396 16.8365 2.21105ZM18.7873 3.57704C18.65 3.55396 18.5178 3.50715 18.3965 3.43872C18.3965 3.43872 18.5318 3.37301 18.6946 3.48263C18.6946 3.48263 18.52 3.21013 18.5103 3.00402C18.5103 3.00402 18.7026 3.18177 18.7655 3.419C18.7655 3.419 18.6777 3.06142 18.8821 2.76194C18.8821 2.76194 18.9561 3.18523 18.844 3.4484C18.844 3.4484 18.9934 3.07387 19.3458 2.91168C19.3458 2.91168 19.2255 3.28967 18.9077 3.50511C19.1238 3.40489 19.3615 3.36009 19.5993 3.37474C19.5993 3.37474 19.3825 3.59987 18.9744 3.59019C19.1392 3.62563 19.2955 3.69269 19.4347 3.78765C19.4347 3.78765 19.1235 3.80944 18.8949 3.66108C18.9768 3.73352 19.0265 3.83552 19.0332 3.94465C19.0332 3.94465 18.8198 3.7624 18.7873 3.57704ZM20.3743 5.20828C20.2433 5.16188 20.1214 5.09307 20.014 5.00494C20.014 5.00494 20.1585 4.96413 20.2993 5.10073C20.2993 5.10073 20.1758 4.8016 20.2028 4.59722C20.2028 4.59722 20.3601 4.80471 20.3809 5.04886C20.3809 5.04886 20.3574 4.68125 20.6115 4.42361C20.6115 4.42361 20.6095 4.85347 20.4528 5.09243C20.4528 5.09243 20.6658 4.75042 21.0407 4.65289C21.0407 4.65289 20.8553 5.0039 20.5047 5.15952C20.7351 5.09894 20.977 5.09692 21.2084 5.15364C21.2084 5.15364 20.9556 5.33693 20.5555 5.25532C20.7104 5.31904 20.8513 5.4123 20.9705 5.5299C20.9705 5.5299 20.6593 5.49532 20.4618 5.30995C20.5304 5.39553 20.562 5.50495 20.5496 5.61393C20.5496 5.61393 20.3733 5.39676 20.3743 5.20828ZM21.5809 6.80563C21.4605 6.73599 21.3532 6.64588 21.2638 6.53935C21.2638 6.53935 21.4135 6.52586 21.5269 6.68598C21.5269 6.68598 21.4602 6.36921 21.5242 6.17347C21.5242 6.17347 21.6407 6.40759 21.6161 6.65001C21.6161 6.65001 21.6608 6.28448 21.9578 6.07768C21.9578 6.07768 21.8772 6.49993 21.6791 6.70604C21.6791 6.70604 21.9512 6.40863 22.3382 6.38166C22.3382 6.38166 22.092 6.69289 21.7185 6.78177C21.9557 6.76461 22.1934 6.80693 22.4101 6.90488C22.4101 6.90488 22.128 7.03872 21.7496 6.88483C21.8905 6.9758 22.0124 7.09324 22.1086 7.23065C22.1086 7.23065 21.8095 7.14073 21.649 6.91941C21.7007 7.01617 21.7117 7.12958 21.6794 7.23445C21.6794 7.23445 21.5442 6.99065 21.5809 6.80563ZM22.4696 9.0258C22.3669 8.93226 22.2813 8.82156 22.2165 8.69866C22.2165 8.69866 22.3655 8.71699 22.4423 8.89751C22.4423 8.89751 22.4444 8.57382 22.5481 8.39572C22.5481 8.39572 22.6128 8.64955 22.5374 8.87987C22.5374 8.87987 22.6581 8.53197 22.9922 8.39261C22.9922 8.39261 22.8241 8.78823 22.5869 8.948C22.5869 8.948 22.9157 8.71491 23.2999 8.77059C23.2999 8.77059 22.9932 9.02235 22.6083 9.0303C22.8443 9.06363 23.0683 9.1554 23.2598 9.29728C23.2598 9.29728 22.9555 9.36851 22.6183 9.1382C22.7365 9.25732 22.8305 9.39826 22.895 9.55318C22.895 9.55318 22.6214 9.40206 22.5111 9.15341C22.5412 9.25894 22.5278 9.37209 22.4741 9.46776C22.4741 9.46776 22.396 9.19872 22.4696 9.0258ZM22.8238 11.1941C22.7508 11.0758 22.6989 10.9457 22.6706 10.8096C22.6706 10.8096 22.8089 10.8683 22.8331 11.063C22.8331 11.063 22.924 10.7518 23.0752 10.6104C23.0752 10.6104 23.0669 10.8718 22.9306 11.0738C22.9306 11.0738 23.1426 10.7729 23.5023 10.7314C23.5023 10.7314 23.2315 11.0651 22.9593 11.153C22.9593 11.153 23.3397 11.0198 23.6935 11.1796C23.6935 11.1796 23.3293 11.3366 22.9583 11.2384C23.1763 11.3353 23.3666 11.4853 23.5116 11.6748C23.5116 11.6748 23.2004 11.6589 22.9393 11.3445C23.0202 11.4916 23.072 11.653 23.0918 11.8197C23.0918 11.8197 22.8708 11.5987 22.8331 11.3293C22.833 11.439 22.789 11.5441 22.711 11.6212C22.711 11.6212 22.7048 11.34 22.8238 11.1941ZM22.656 13.6944C22.6207 13.5599 22.6089 13.4203 22.6214 13.2818C22.6214 13.2818 22.7366 13.3787 22.7027 13.572C22.7027 13.572 22.8805 13.3015 23.0648 13.2089C23.0648 13.2089 22.9808 13.4565 22.7916 13.61C22.7916 13.61 23.0821 13.3838 23.4383 13.4489C23.4383 13.4489 23.0817 13.6892 22.7957 13.694C22.7957 13.694 23.1986 13.6778 23.4905 13.9334C23.4905 13.9334 23.0963 13.9776 22.7698 13.7753C22.9493 13.9323 23.0867 14.1317 23.1696 14.3553C23.1696 14.3553 22.8756 14.2494 22.72 13.8711C22.7546 14.0354 22.7571 14.2049 22.7273 14.3701C22.7273 14.3701 22.5803 14.0935 22.6235 13.8258C22.5909 13.93 22.5183 14.0171 22.4216 14.0679C22.4216 14.0679 22.4997 13.8009 22.656 13.6944ZM21.9827 16.2147C21.963 16.0767 21.9676 15.9362 21.9962 15.7998C21.9962 15.7998 22.0999 15.909 22.0436 16.0972C22.0436 16.0972 22.2511 15.8492 22.4447 15.7783C22.4447 15.7783 22.3327 16.0149 22.1269 16.1452C22.1269 16.1452 22.442 15.9543 22.7881 16.0602C22.7881 16.0602 22.4077 16.2576 22.1217 16.2293C22.1217 16.2293 22.5236 16.2597 22.784 16.5474C22.784 16.5474 22.3873 16.5474 22.0865 16.3071C22.2471 16.4837 22.3611 16.6977 22.4181 16.9296C22.4181 16.9296 22.1383 16.7912 22.0256 16.398C22.041 16.5652 22.0238 16.7337 21.9751 16.8943C21.9751 16.8943 21.861 16.6034 21.9343 16.341C21.8903 16.4414 21.808 16.5201 21.7057 16.5595C21.7057 16.5595 21.8153 16.3008 21.9827 16.2147ZM20.8906 18.0939C20.9186 17.9577 20.9701 17.8273 21.0428 17.7087C21.0428 17.7087 21.1029 17.847 20.9871 18.0047C20.9871 18.0047 21.2662 17.8415 21.4712 17.8401C21.4712 17.8401 21.2859 18.0248 21.048 18.0784C21.048 18.0784 21.409 18.0047 21.6991 18.2212C21.6991 18.2212 21.2731 18.2783 21.0148 18.1555C21.0148 18.1555 21.3827 18.3198 21.5307 18.6787C21.5307 18.6787 21.1576 18.5432 20.9553 18.2167C21.0472 18.4368 21.0829 18.6762 21.059 18.9135C21.059 18.9135 20.8429 18.6877 20.8692 18.2803C20.827 18.4426 20.754 18.5953 20.6541 18.7299C20.6541 18.7299 20.6447 18.4187 20.8021 18.1956C20.7268 18.2754 20.6227 18.3217 20.513 18.3242C20.513 18.3242 20.7039 18.1185 20.8906 18.0939ZM19.3655 19.9717C19.402 19.8376 19.4616 19.7109 19.5416 19.5972C19.5416 19.5972 19.5931 19.7383 19.4676 19.8891C19.4676 19.8891 19.7563 19.7432 19.9621 19.7546C19.9621 19.7546 19.766 19.9275 19.5253 19.9662C19.5253 19.9662 19.8898 19.9154 20.1661 20.1491C20.1661 20.1491 19.7373 20.1796 19.4873 20.0413C19.4873 20.0413 19.8445 20.228 19.9714 20.5946C19.9714 20.5946 19.6076 20.4362 19.4257 20.098C19.5035 20.3233 19.5239 20.5645 19.4848 20.7996C19.4848 20.7996 19.2829 20.561 19.3344 20.1561C19.2827 20.3157 19.2005 20.4638 19.0923 20.5921C19.0923 20.5921 19.1024 20.2809 19.2732 20.0682C19.1931 20.143 19.0864 20.1827 18.9768 20.1785C18.9768 20.1785 19.1771 19.9849 19.3655 19.9717ZM17.753 21.1987C17.8136 21.0736 17.8955 20.96 17.9951 20.8629C17.9951 20.8629 18.0196 21.0113 17.8681 21.1361C17.8681 21.1361 18.1794 21.0466 18.3793 21.096C18.3793 21.096 18.1541 21.2295 17.9107 21.2226C17.9107 21.2226 18.2783 21.2402 18.5065 21.5214C18.5065 21.5214 18.0794 21.4719 17.8595 21.2893C17.8595 21.2893 18.1756 21.539 18.2309 21.9232C18.2309 21.9232 17.9027 21.7002 17.7865 21.3353C17.8212 21.5711 17.7965 21.8118 17.7146 22.0356C17.7146 22.0356 17.5604 21.7638 17.6862 21.3754C17.6057 21.5226 17.4972 21.6528 17.367 21.7586C17.367 21.7586 17.4362 21.4536 17.642 21.2776C17.5494 21.336 17.4375 21.3553 17.3307 21.3312C17.3307 21.3312 17.5673 21.1769 17.753 21.1987ZM15.6919 22.2047C15.769 22.0891 15.8658 21.9879 15.9779 21.9056C15.9779 21.9056 15.982 22.0557 15.8146 22.1584C15.8146 22.1584 16.1352 22.1124 16.3265 22.1888C16.3265 22.1888 16.0844 22.2901 15.8451 22.25C15.8451 22.25 16.2068 22.3192 16.3942 22.6277C16.3942 22.6277 15.9793 22.5201 15.7849 22.3091C15.7849 22.3091 16.0643 22.6 16.0661 22.988C16.0661 22.988 15.7718 22.7221 15.7067 22.3437C15.7087 22.582 15.6512 22.817 15.5394 23.0274C15.5394 23.0274 15.4242 22.7373 15.6016 22.3704C15.5016 22.5051 15.3764 22.6192 15.233 22.7062C15.233 22.7062 15.3419 22.4136 15.5715 22.2673C15.4718 22.3127 15.358 22.3164 15.2555 22.2777C15.2555 22.2777 15.5096 22.1573 15.6919 22.2047ZM13.3444 22.8732C13.4438 22.776 13.5593 22.6968 13.6858 22.6391C13.6858 22.6391 13.6588 22.7867 13.4741 22.8531C13.4741 22.8531 13.7971 22.8735 13.969 22.9876C13.969 22.9876 13.7121 23.0374 13.4848 22.9493C13.4848 22.9493 13.8251 23.0897 13.9451 23.431C13.9451 23.431 13.5595 23.2404 13.414 22.9946C13.414 22.9946 13.6277 23.3362 13.5502 23.7166C13.5502 23.7166 13.3164 23.3961 13.3303 23.0122C13.2836 23.246 13.1792 23.4643 13.0266 23.6475C13.0266 23.6475 12.973 23.3394 13.2224 23.016C13.0969 23.1276 12.9509 23.2137 12.7925 23.2695C12.7925 23.2695 12.9592 23.0053 13.2137 22.9091C13.1068 22.9332 12.9948 22.9135 12.9025 22.8545C12.9025 22.8545 13.1753 22.7895 13.3444 22.8732ZM10.5357 22.822C10.6619 22.7638 10.7973 22.728 10.9358 22.7162C10.9358 22.7162 10.8608 22.8462 10.6647 22.8469C10.6647 22.8469 10.9621 22.9745 11.0855 23.1398C11.0855 23.1398 10.8269 23.1004 10.6425 22.9406C10.6425 22.9406 10.9161 23.1875 10.914 23.5493C10.914 23.5493 10.6152 23.2404 10.5606 22.9596C10.5606 22.9596 10.647 23.3535 10.4461 23.6859C10.4461 23.6859 10.3337 23.3055 10.4762 22.9489C10.3534 23.1532 10.1817 23.3236 9.97649 23.4448C9.97649 23.4448 10.0284 23.1353 10.3742 22.9157C10.2186 22.9784 10.0523 23.0104 9.8845 23.0098C9.8845 23.0098 10.13 22.8168 10.4032 22.812C10.2939 22.7989 10.1943 22.7426 10.1266 22.6557C10.1266 22.6557 10.405 22.6857 10.5357 22.822ZM8.2498 22.2708C8.38867 22.2652 8.52746 22.2838 8.65995 22.3257C8.65995 22.3257 8.54099 22.4174 8.35943 22.343C8.35943 22.343 8.58525 22.5744 8.63609 22.7743C8.63609 22.7743 8.41199 22.6391 8.30271 22.4212C8.30271 22.4212 8.4611 22.7535 8.32139 23.0876C8.32139 23.0876 8.163 22.6878 8.21972 22.4077C8.21972 22.4077 8.15055 22.8044 7.83689 23.0347C7.83689 23.0347 7.87839 22.6401 8.14606 22.3648C7.9546 22.5068 7.7308 22.5987 7.49488 22.6325C7.49488 22.6325 7.66122 22.3679 8.06306 22.295C7.89525 22.2936 7.7293 22.2596 7.57442 22.195C7.57442 22.195 7.87493 22.1106 8.12773 22.2099C8.03223 22.156 7.96215 22.0663 7.93303 21.9606C7.93303 21.9606 8.18064 22.0954 8.2498 22.2708ZM6.13753 21.1641C6.27626 21.1734 6.41234 21.2066 6.53972 21.2623C6.53972 21.2623 6.41142 21.3408 6.23885 21.2475C6.23885 21.2475 6.43908 21.5017 6.46882 21.7057C6.46882 21.7057 6.26133 21.5476 6.17453 21.3194C6.17453 21.3194 6.29695 21.6652 6.12266 21.9841C6.12266 21.9841 6.0075 21.5691 6.09361 21.2973C6.09361 21.2973 5.98156 21.6842 5.64646 21.88C5.64646 21.88 5.72946 21.492 6.02479 21.2468C5.81934 21.3677 5.58696 21.4355 5.34871 21.4439C5.34871 21.4439 5.54237 21.1987 5.94975 21.1672C5.78297 21.1481 5.6215 21.0967 5.47424 21.0161C5.47424 21.0161 5.78237 20.9639 6.02375 21.0894C5.93444 21.0258 5.87429 20.929 5.85672 20.8207C5.85672 20.8207 6.086 20.9829 6.13753 21.1641ZM4.29776 19.5588C4.43483 19.582 4.56683 19.6288 4.68784 19.6972C4.68784 19.6972 4.55228 19.7622 4.39009 19.6519C4.39009 19.6519 4.563 19.9251 4.57165 20.1312C4.57165 20.1312 4.38075 19.9524 4.31885 19.7162C4.31885 19.7162 4.40496 20.0741 4.19885 20.3732C4.19885 20.3732 4.12692 19.9496 4.24035 19.6871C4.24035 19.6871 4.08923 20.061 3.7358 20.2214C3.7358 20.2214 3.85822 19.8438 4.17707 19.6301C3.96062 19.7291 3.72291 19.7726 3.48542 19.7566C3.48542 19.7566 3.70329 19.5329 4.11136 19.5447C3.94749 19.5085 3.79222 19.4409 3.65418 19.3455C3.65418 19.3455 3.96542 19.3254 4.19297 19.4748C4.11083 19.4023 4.06103 19.2999 4.05465 19.1905C4.05465 19.1905 4.26629 19.3731 4.29776 19.5588ZM2.94491 17.8961C3.06524 17.9657 3.17254 18.0557 3.26202 18.1621C3.26202 18.1621 3.11228 18.1759 2.99885 18.0158C2.99885 18.0158 3.06594 18.3322 3.00197 18.5283C3.00197 18.5283 2.88508 18.2942 2.90929 18.0517C2.90929 18.0517 2.86537 18.4173 2.56831 18.6244C2.56831 18.6244 2.64854 18.2022 2.84496 17.9957C2.84496 17.9957 2.5728 18.2931 2.18583 18.3204C2.18583 18.3204 2.43205 18.0092 2.80554 17.92C2.5684 17.9373 2.33067 17.8953 2.1139 17.7976C2.1139 17.7976 2.39609 17.6634 2.77442 17.8169C2.63349 17.7259 2.51148 17.6084 2.41511 17.4711C2.41511 17.4711 2.71459 17.5607 2.87505 17.7803C2.82333 17.6836 2.81238 17.5703 2.84462 17.4656C2.84462 17.4656 2.98018 17.7111 2.94491 17.8961ZM1.91332 15.9986C2.02894 16.0756 2.13028 16.1722 2.2128 16.2839C2.2128 16.2839 2.06237 16.2884 1.95931 16.1214C1.95931 16.1214 2.006 16.4416 1.93027 16.6332C1.93027 16.6332 1.82652 16.3911 1.86767 16.1518C1.86767 16.1518 1.80058 16.5139 1.49142 16.702C1.49142 16.702 1.59793 16.287 1.80854 16.092C1.80854 16.092 1.51839 16.3717 1.13038 16.3749C1.13038 16.3749 1.39563 16.0795 1.77395 16.0138C1.53558 16.0166 1.30031 15.9596 1.08957 15.8482C1.08957 15.8482 1.37972 15.732 1.74663 15.909C1.61165 15.8093 1.49727 15.6843 1.4098 15.5411C1.4098 15.5411 1.70306 15.6493 1.84969 15.8783C1.80404 15.7786 1.80006 15.6648 1.83862 15.5622C1.83862 15.5622 1.96035 15.8164 1.91332 15.9986ZM1.31367 13.8327C1.40315 13.9394 1.47336 14.0609 1.52116 14.1917C1.52116 14.1917 1.37591 14.153 1.32439 13.9638C1.32439 13.9638 1.27839 14.284 1.15148 14.4462C1.15148 14.4462 1.12243 14.1865 1.22825 13.9669C1.22825 13.9669 1.06122 14.2951 0.711245 14.3874C0.711245 14.3874 0.931879 14.0184 1.18882 13.8929C1.18882 13.8929 0.830899 14.0786 0.458104 13.971C0.458104 13.971 0.796317 13.7636 1.17776 13.8082C0.947114 13.7428 0.736624 13.6204 0.565654 13.4523C0.565654 13.4523 0.876894 13.4233 1.17949 13.6975C1.07808 13.5633 1.00384 13.4106 0.960928 13.2479C0.960928 13.2479 1.21096 13.435 1.28669 13.6975C1.27131 13.5889 1.29981 13.4787 1.36588 13.3911C1.36588 13.3911 1.40877 13.6698 1.31367 13.8327ZM1.12416 11.5327C1.19123 11.6545 1.23652 11.7871 1.25799 11.9245C1.25799 11.9245 1.12277 11.8584 1.10859 11.663C1.10859 11.663 1.00174 11.9684 0.84577 12.1029C0.84577 12.1029 0.866865 11.8425 1.01315 11.6475C1.01315 11.6475 0.786288 11.9373 0.425251 11.9608C0.425251 11.9608 0.712628 11.6409 0.98894 11.5669C0.98894 11.5669 0.602311 11.6807 0.256836 11.5036C0.256836 11.5036 0.628594 11.3653 0.994473 11.4818C0.781982 11.3738 0.599862 11.2144 0.464675 11.0181C0.464675 11.0181 0.775914 11.0496 1.01799 11.3767C0.944811 11.2253 0.901821 11.0611 0.891418 10.8932C0.891418 10.8932 1.10099 11.1249 1.12485 11.3957C1.131 11.286 1.18081 11.1832 1.26318 11.1104C1.26318 11.1104 1.25003 11.3926 1.12416 11.5327ZM1.54191 9.12678C1.5907 9.25702 1.61645 9.39475 1.61799 9.53382C1.61799 9.53382 1.49384 9.44944 1.50767 9.2537C1.50767 9.2537 1.35862 9.54073 1.18467 9.65174C1.18467 9.65174 1.24312 9.39687 1.41568 9.22465C1.41568 9.22465 1.14975 9.47918 0.788709 9.45082C0.788709 9.45082 1.11862 9.17416 1.40289 9.14165C1.40289 9.14165 1.00381 9.19872 0.687383 8.97428C0.687383 8.97428 1.07505 8.8899 1.42018 9.05797C1.22554 8.92053 1.06819 8.73679 0.962311 8.52333C0.962311 8.52333 1.2656 8.59872 1.46064 8.95768C1.40945 8.79779 1.38972 8.62951 1.40254 8.46212C1.40254 8.46212 1.57545 8.72114 1.56197 8.99295C1.58314 8.88533 1.64653 8.79068 1.73799 8.73013C1.73799 8.73013 1.68646 9.00644 1.54191 9.12678ZM2.47286 6.76759C2.47692 6.90663 2.45667 7.04531 2.41303 7.17739C2.41303 7.17739 2.32277 7.05704 2.39954 6.87653C2.39954 6.87653 2.16508 7.09993 1.96485 7.14869C1.96485 7.14869 2.10318 6.92632 2.32174 6.81946C2.32174 6.81946 1.98767 6.97405 1.65534 6.83019C1.65534 6.83019 2.05684 6.67664 2.33626 6.73647C2.33626 6.73647 1.94029 6.66142 1.71378 6.34638C1.71378 6.34638 2.10767 6.39238 2.37983 6.66315C2.24011 6.47006 2.15073 6.24518 2.11978 6.00886C2.11978 6.00886 2.38225 6.17866 2.45073 6.58119C2.45391 6.41335 2.48973 6.24774 2.5562 6.09359C2.5562 6.09359 2.63712 6.39549 2.53511 6.6469C2.59007 6.55212 2.68055 6.48316 2.78652 6.45532C2.78652 6.45532 2.64854 6.7005 2.47286 6.76759ZM3.87966 4.84655C3.85491 4.98335 3.80646 5.11478 3.73649 5.23491C3.73649 5.23491 3.6732 5.09866 3.78525 4.93785C3.78525 4.93785 3.50859 5.10765 3.30387 5.11387C3.30387 5.11387 3.48473 4.92506 3.72127 4.86592C3.72127 4.86592 3.36231 4.94788 3.06698 4.73831C3.06698 4.73831 3.49165 4.67122 3.75274 4.78776C3.75274 4.78776 3.38064 4.63214 3.22433 4.27733C3.22433 4.27733 3.60058 4.4039 3.81222 4.72517C3.71545 4.50732 3.67456 4.26876 3.69326 4.03111C3.69326 4.03111 3.91493 4.2514 3.89833 4.65946C3.93641 4.49598 4.00582 4.34143 4.10272 4.20436C4.10272 4.20436 4.11931 4.5156 3.96715 4.74177C4.04069 4.66039 4.14359 4.61162 4.25315 4.60621C4.25315 4.60621 4.06571 4.81716 3.87966 4.84655ZM5.48738 3.2658C5.43441 3.39436 5.35939 3.51268 5.26571 3.61543C5.26571 3.61543 5.23113 3.4688 5.37603 3.33531C5.37603 3.33531 5.07101 3.44356 4.86836 3.40448C4.86836 3.40448 5.08485 3.25785 5.32831 3.24955C5.32831 3.24955 4.96035 3.25439 4.71551 2.98742C4.71551 2.98742 5.14502 3.01128 5.37568 3.18004C5.37568 3.18004 5.04473 2.94972 4.96658 2.56967C4.96658 2.56967 5.30756 2.77266 5.44554 3.13093C5.39662 2.89766 5.40684 2.65585 5.47528 2.42753C5.47528 2.42753 5.64542 2.68967 5.54444 3.08459C5.61595 2.93279 5.71625 2.79632 5.83978 2.68275C5.83978 2.68275 5.79067 2.99122 5.59424 3.17935C5.68331 3.11537 5.79418 3.08949 5.90237 3.10742C5.90237 3.10742 5.67551 3.27653 5.48738 3.2658ZM7.23309 2.14396C7.16603 2.26577 7.0784 2.37504 6.97407 2.46696C6.97407 2.46696 6.95712 2.31756 7.11447 2.20067C7.11447 2.20067 6.79978 2.27468 6.60231 2.2152C6.60231 2.2152 6.83367 2.09312 7.07643 2.11145C7.07643 2.11145 6.71021 2.07687 6.49649 1.78361C6.49649 1.78361 6.92047 1.85278 7.13107 2.04748C7.13107 2.04748 6.82744 1.78223 6.79148 1.39595C6.79148 1.39595 7.10825 1.63526 7.20646 2.00632C7.18415 1.77029 7.22075 1.5324 7.31297 1.31399C7.31297 1.31399 7.45303 1.59307 7.30848 1.97485C7.39631 1.83185 7.51105 1.70724 7.64635 1.60794C7.64635 1.60794 7.56335 1.90915 7.34756 2.0748C7.44301 2.0209 7.556 2.00722 7.66156 2.03676C7.66156 2.03676 7.4188 2.17647 7.23309 2.14396ZM9.41626 1.39906C9.32131 1.50057 9.20944 1.58482 9.08565 1.64805C9.08565 1.64805 9.10606 1.499 9.28761 1.42465C9.28761 1.42465 8.96393 1.41843 8.78756 1.31191C8.78756 1.31191 9.04173 1.25105 9.27171 1.32955C9.27171 1.32955 8.92588 1.20402 8.79067 0.867879C8.79067 0.867879 9.18387 1.04079 9.34018 1.28114C9.34018 1.28114 9.11194 0.948802 9.1728 0.565632C9.1728 0.565632 9.42041 0.876871 9.42283 1.2597C9.45963 1.02411 9.55473 0.801451 9.69949 0.611972C9.69949 0.611972 9.76623 0.917332 9.53142 1.25105C9.65188 1.13424 9.79387 1.04193 9.94952 0.979234C9.94952 0.979234 9.79528 1.2507 9.54421 1.35756C9.65008 1.32906 9.76294 1.34387 9.85787 1.39872C9.85787 1.39872 9.58848 1.47549 9.41626 1.39906Z" fill="#467A54"/>
<defs>
<linearGradient id="paint0_linear" x1="4.45479" y1="-2.9067e-05" x2="19.432" y2="-2.9067e-05" gradientUnits="userSpaceOnUse">
<stop stop-color="#58B27A"/>
<stop offset="0.05" stop-color="#56AA75"/>
<stop offset="0.32" stop-color="#4A875D"/>
<stop offset="0.46" stop-color="#467A54"/>
<stop offset="1" stop-color="#466454"/>
</linearGradient>
</defs>
</svg>
