<svg width="24" height="24" viewBox="0 0 24 24" fill="none" xmlns="http://www.w3.org/2000/svg">
<path d="M12 24C18.6274 24 24 18.6274 24 12C24 5.37258 18.6274 0 12 0C5.37258 0 0 5.37258 0 12C0 18.6274 5.37258 24 12 24Z" fill="#FFE600"/>
<path fill-rule="evenodd" clip-rule="evenodd" d="M2.99512 4.06889C3.58851 3.39563 4.25513 2.79064 4.98262 2.26514L8.32162 14.2036L9.80137 7.87514H12.6064L14.0854 14.2036L15.8381 7.87514H18.6499L18.6761 7.98764L21.7316 19.0231C21.1778 19.7894 20.5359 20.4879 19.8191 21.1044L17.2414 11.7969L15.7714 17.1054L15.7451 17.2179H12.6056L11.2039 12.0189L9.80137 17.2179H6.66187L6.63562 17.1054L2.99512 4.06889Z" fill="white"/>
</svg>
