<svg width="24" height="24" viewBox="0 0 24 24" fill="none" xmlns="http://www.w3.org/2000/svg">
<path d="M12 24C18.6274 24 24 18.6274 24 12C24 5.37258 18.6274 0 12 0C5.37258 0 0 5.37258 0 12C0 18.6274 5.37258 24 12 24Z" fill="#5B6DEE"/>
<path d="M9.97524 11.2656C9.55683 11.2632 9.13909 11.2992 8.72724 11.373C9.06624 8.23761 11.6792 5.86353 14.7901 5.86377C16.6949 5.86377 18 6.79641 18 8.72745C18 10.6585 16.4335 11.5911 14.148 11.5911C12.461 11.591 11.6624 11.2656 9.97524 11.2656ZM9.852 12.4092C7.5666 12.4092 6 13.3418 6 15.2729C6 17.2039 7.30512 18.1365 9.20988 18.1365C12.3211 18.1365 14.9339 15.7627 15.2728 12.6273C14.8609 12.7011 14.4432 12.7371 14.0248 12.7347C12.3376 12.7346 11.539 12.4092 9.852 12.4092Z" fill="white"/>
</svg>
