<svg width="24" height="24" fill="none" xmlns="http://www.w3.org/2000/svg"><path fill-rule="evenodd" clip-rule="evenodd" d="m19.76 4.348.358-1.184c-.167-.155-.34-.304-.516-.45l-.356 1.146c.177.157.348.32.514.488ZM4.333 19.745l-.356 1.178c.169.152.343.3.52.442l.354-1.138a10.948 10.948 0 0 1-.518-.482ZM1.101 12C1.101 5.98 5.981 1.101 12 1.101c1.912 0 3.708.493 5.27 1.358l.326-1.076A11.946 11.946 0 0 0 12 0C5.373 0 0 5.373 0 12c0 2.56.802 4.933 2.168 6.88l.427-1.371A10.847 10.847 0 0 1 1.1 12ZM21.917 5.243l-.431 1.388A10.849 10.849 0 0 1 22.898 12c0 6.02-4.88 10.899-10.898 10.899-1.87 0-3.63-.471-5.167-1.301l-.325 1.074A11.949 11.949 0 0 0 12 24c6.627 0 12-5.373 12-12 0-2.506-.77-4.833-2.083-6.757Z" fill="#FBC531"/><path fill-rule="evenodd" clip-rule="evenodd" d="M19.036 4.534c.176.166.347.339.511.517l.212-.703a10.92 10.92 0 0 0-.514-.488l-.209.674ZM4.544 19.047l-.211.698c.168.166.34.327.519.482l.208-.671c-.178-.164-.35-.333-.516-.509Z" fill="#FBC531"/><path fill-rule="evenodd" clip-rule="evenodd" d="M12 22.899c6.02 0 10.899-4.88 10.899-10.9 0-1.951-.514-3.783-1.413-5.368l.432-1.388a12.064 12.064 0 0 0-1.8-2.08L16.303 15.78l1.2 3.68 3.717-11.968A10.218 10.218 0 0 1 22.26 12c0 5.666-4.593 10.26-10.26 10.26-1.806 0-3.503-.468-4.977-1.287l2.232-7.38-1.2-3.68-3.557 11.452c.623.5 1.295.938 2.01 1.307l.325-1.074a10.85 10.85 0 0 0 5.167 1.3Z" fill="#fff"/><path fill-rule="evenodd" clip-rule="evenodd" d="M16.899 19.6h-1.66c-.451 0-.85-.295-.982-.727L9.839 4.42h1.558c.489 0 .92.319 1.064.786L16.9 19.6Zm-4.55 0c-.452 0-.851-.295-.983-.727L6.948 4.42h1.558c.489 0 .92.319 1.064.786L14.008 19.6h-1.66Zm6.688-15.066-3.092 9.952-1.2-3.68 2.336-7.72a10.213 10.213 0 0 0-5.08-1.346C6.333 1.74 1.74 6.334 1.74 12c0 1.679.402 3.263 1.117 4.662L6.499 4.94l1.2 3.68-3.155 10.428c.166.175.338.345.516.508l2.995-9.642 1.2 3.68-2.233 7.38A10.213 10.213 0 0 0 12 22.26c5.667 0 10.26-4.593 10.26-10.26a10.22 10.22 0 0 0-1.041-4.508L17.5 19.46l-1.2-3.68 3.247-10.73a10.29 10.29 0 0 0-.511-.516Z" fill="#FBC531"/><path fill-rule="evenodd" clip-rule="evenodd" d="M4.544 19.047 7.7 8.62l-1.2-3.68L2.858 16.66A10.216 10.216 0 0 1 1.74 12C1.74 6.333 6.334 1.74 12 1.74c1.849 0 3.583.489 5.081 1.345l-2.335 7.72 1.2 3.68 3.656-11.77a12.02 12.02 0 0 0-2.006-1.332l-.325 1.076A10.848 10.848 0 0 0 12 1.1C5.98 1.101 1.1 5.981 1.1 12c0 2.01.545 3.892 1.494 5.508l-.426 1.373a12.063 12.063 0 0 0 1.808 2.041l.567-1.875Z" fill="#fff"/><path fill-rule="evenodd" clip-rule="evenodd" d="M11.397 4.42H9.84l4.418 14.452c.132.433.53.728.983.728h1.659L12.46 5.205a1.113 1.113 0 0 0-1.064-.785ZM8.505 4.42H6.947l4.418 14.452c.132.433.531.728.983.728h1.66L9.568 5.205a1.113 1.113 0 0 0-1.064-.785Z" fill="#fff"/></svg>