<svg width="24" height="24" viewBox="0 0 24 24" fill="none" xmlns="http://www.w3.org/2000/svg">
<g clip-path="url(#clip0)">
<path d="M12.1115 17.7291H23.4526C23.9711 17.7291 24.3671 16.8699 23.4526 16.4978C22.5813 16.145 14.4829 12.8303 13.6812 12.499C12.7691 13.6007 12.0227 14.5104 11.8906 14.7C11.5402 15.2185 10.3569 16.6586 12.1115 17.7291Z" fill="url(#paint0_linear)"/>
<path d="M0.60246 7C0.441959 7.01809 0.293154 7.09277 0.182744 7.21066C0.0723346 7.32855 0.00754508 7.48192 0 7.64326L0 7.52805C0.0167492 7.70076 0.0822902 7.86514 0.188969 8.002C0.295648 8.13885 0.439061 8.24253 0.60246 8.30093C1.58176 8.69217 9.88659 12.0621 9.88659 12.0621V12.1893C11.0603 10.8404 12.1212 9.48425 12.3924 9.16022V9.29703C13.6814 7.80408 11.2331 7 11.2331 7H0.60246Z" fill="url(#paint1_linear)"/>
<path d="M16.8477 7H11.1495C11.1495 7 13.5834 7.70087 12.3064 9.21302L9.8102 12.1653C8.19964 14.0639 6.37545 16.2049 6.09222 16.5314C5.61218 17.0858 5.8522 17.7315 6.67068 17.7315H12.2416C10.4847 16.649 11.548 15.2448 11.9128 14.7168C12.0448 14.5296 12.7889 13.6271 13.701 12.5326C15.3212 10.5884 17.4742 8.0441 17.671 7.80408C17.9758 7.43444 17.4886 7 16.8477 7Z" fill="#007AFF"/>
<path opacity="0.3" d="M11.5761 7H11.1488C11.1488 7 13.5827 7.70087 12.3057 9.21302L9.80948 12.1653C8.73577 13.431 9.54625 15.2856 12.2409 17.7291C10.4791 16.649 11.54 15.2376 11.9049 14.7168C12.0369 14.5296 12.781 13.6271 13.6931 12.5326C15.3204 10.5884 17.4734 8.0441 17.6703 7.80408C17.9751 7.43444 17.4878 7 16.847 7H11.5665H11.5761Z" fill="url(#paint2_linear)"/>
<g opacity="0.84">
<path opacity="0.84" d="M11.5768 7H11.1495C11.1495 7 13.5834 7.70087 12.3064 9.21302L9.8102 12.1653C8.19964 14.0639 6.37545 16.2049 6.09222 16.5314C5.61218 17.0858 5.8522 17.7315 6.67068 17.7315H12.2416C10.4799 16.6514 11.5408 15.24 11.9056 14.7192C12.0376 14.532 12.7817 13.6295 13.6938 12.535C15.3211 10.5884 17.4742 8.0441 17.671 7.80408C17.9758 7.43444 17.4886 7 16.8477 7H11.5672H11.5768Z" fill="#007AFF"/>
<path opacity="0.84" d="M11.5768 7H11.1495C11.1495 7 13.5834 7.70087 12.3064 9.21302L9.8102 12.1653C8.19964 14.0639 6.37545 16.2049 6.09222 16.5314C5.61218 17.0858 5.8522 17.7315 6.67068 17.7315H12.2416C10.4799 16.6514 11.5408 15.24 11.9056 14.7192C12.0376 14.532 12.7817 13.6295 13.6938 12.535C15.3211 10.5884 17.4742 8.0441 17.671 7.80408C17.9758 7.43444 17.4886 7 16.8477 7H11.5672H11.5768Z" fill="url(#paint3_linear)"/>
</g>
<path opacity="0.45" d="M11.1495 7C11.1495 7 13.5834 7.70087 12.3064 9.21302L9.8102 12.1653C8.19964 14.0639 6.37545 16.2049 6.09222 16.5314C5.61218 17.0858 5.8522 17.7315 6.67068 17.7315H12.2416C10.4799 16.6514 11.5408 15.24 11.9056 14.7192C12.0376 14.532 12.7817 13.6295 13.6938 12.535C14.3394 11.7597 14.0658 9.62826 13.3337 8.45455C13.0089 7.93609 12.2808 7.45125 11.1495 7Z" fill="#B8CFFF" fill-opacity="0.5"/>
<path d="M11.1493 7C11.1493 7 13.5831 7.70087 12.3062 9.21302L9.80994 12.1653C8.09937 14.1863 8.90985 16.0409 12.2414 17.7291C10.4796 16.649 11.5405 15.2376 11.9053 14.7168C12.0374 14.5296 12.8006 13.6055 13.6935 12.5326C15.6057 10.2411 14.7576 8.39694 11.1493 7Z" fill="url(#paint4_linear)"/>
</g>
<defs>
<linearGradient id="paint0_linear" x1="9.48762" y1="14.5189" x2="14.0441" y2="19.3892" gradientUnits="userSpaceOnUse">
<stop stop-color="#878A96"/>
<stop offset="1" stop-color="#DADDE6"/>
</linearGradient>
<linearGradient id="paint1_linear" x1="-1.29306e+06" y1="-94326.7" x2="-1.2931e+06" y2="-94434.1" gradientUnits="userSpaceOnUse">
<stop stop-color="#878A96"/>
<stop offset="1" stop-color="#DADDE6"/>
</linearGradient>
<linearGradient id="paint2_linear" x1="17.9165" y1="12.9807" x2="9.47314" y2="12.1861" gradientUnits="userSpaceOnUse">
<stop stop-color="white"/>
<stop offset="1" stop-color="#2B72FF"/>
</linearGradient>
<linearGradient id="paint3_linear" x1="11.9075" y1="7.41248" x2="11.9075" y2="18.1206" gradientUnits="userSpaceOnUse">
<stop stop-color="white" stop-opacity="0.5"/>
<stop offset="1" stop-opacity="0.5"/>
</linearGradient>
<linearGradient id="paint4_linear" x1="11.4887" y1="18.1206" x2="13.0646" y2="7.57955" gradientUnits="userSpaceOnUse">
<stop stop-color="#74ABE9"/>
<stop offset="1" stop-color="#2C5C96"/>
</linearGradient>
<clipPath id="clip0">
<rect width="24" height="24" fill="white"/>
</clipPath>
</defs>
</svg>
