<svg width="24" height="24" fill="none" xmlns="http://www.w3.org/2000/svg"><path d="M12 24c6.627 0 12-5.373 12-12S18.627 0 12 0 0 5.373 0 12s5.373 12 12 12Z" fill="url(#a)"/><path d="m12.828 16.035-4.717 4.717-1.345-1.448 3.269-3.27-3.393-3.392 1.448-1.449 4.738 4.842Zm2.752-2.71 1.448-1.449-3.393-3.393 3.269-3.27-1.345-1.447-4.738 4.717 4.759 4.841Zm-6.89-2.69 4.758 4.841 1.449-1.448-4.759-4.759-1.448 1.366Z" fill="#fff"/><defs><linearGradient id="a" x1="-.24" y1="12" x2="27.84" y2="12" gradientUnits="userSpaceOnUse"><stop stop-color="#08BBC9"/><stop offset=".5" stop-color="#12A3CA"/><stop offset="1" stop-color="#149ACA"/></linearGradient></defs></svg>