<svg width="24" height="24" fill="none" xmlns="http://www.w3.org/2000/svg"><g clip-path="url(#a)"><path d="m15.902 13.484 6.022-6.003a2.391 2.391 0 0 0 .704-1.7l.01-4.853A.97.97 0 0 0 22.37.26L10.817 11.788a2.393 2.393 0 0 0 0 3.4l8.146 8.12a2.398 2.398 0 1 0 3.383-3.4l-6.444-6.424Z" fill="#008C62"/><path d="M21.697 0H3.55C2.083 0 1 1.11 1 2.622v18.932a2.409 2.409 0 0 0 2.442 2.44 2.4 2.4 0 0 0 2.44-2.44V4.67h12.07L22.374.272A.927.927 0 0 0 21.697 0Z" fill="#00E6A0"/></g><defs><clipPath id="a"><path fill="#fff" d="M0 0h24v24H0z"/></clipPath></defs></svg>