<svg width="24" height="24" fill="none" xmlns="http://www.w3.org/2000/svg"><path fill-rule="evenodd" clip-rule="evenodd" d="M24 12c0 6.627-5.373 12-12 12S0 18.627 0 12 5.373 0 12 0s12 5.373 12 12Z" fill="url(#a)"/><path fill-rule="evenodd" clip-rule="evenodd" d="M12 22.254c-5.654 0-10.254-4.6-10.254-10.254S6.346 1.746 12 1.746 22.254 6.346 22.254 12 17.654 22.254 12 22.254Zm0-21.171C5.98 1.083 1.083 5.98 1.083 12S5.98 22.917 12 22.917 22.917 18.02 22.917 12 18.02 1.083 12 1.083Z" fill="#FFFFFE"/><path fill-rule="evenodd" clip-rule="evenodd" d="M16.523 12a4.523 4.523 0 1 1-9.046 0 4.523 4.523 0 0 1 9.046 0Z" fill="#E48D2E"/><path fill-rule="evenodd" clip-rule="evenodd" d="M12 19.948a7.89 7.89 0 0 1-5.659-2.368 7.893 7.893 0 0 1-2.287-5.694A7.9 7.9 0 0 1 6.383 6.39a7.9 7.9 0 0 1 5.492-2.337 7.962 7.962 0 0 1 5.942 2.531.829.829 0 1 1-1.213 1.13 6.3 6.3 0 0 0-4.703-2.004c-3.366.052-6.143 2.833-6.19 6.2a6.247 6.247 0 0 0 1.81 4.506 6.245 6.245 0 0 0 4.48 1.874 6.3 6.3 0 0 0 6.235-5.461H13.04l1.206 1.206a.829.829 0 0 1-1.172 1.172l-2.62-2.621a.829.829 0 0 1 0-1.172l2.62-2.621a.829.829 0 0 1 1.172 1.172l-1.206 1.206h6.08c.458 0 .829.371.829.829 0 4.382-3.565 7.948-7.948 7.948Z" fill="#20211F"/><defs><linearGradient id="a" x1="0" y1="11.239" x2="24" y2="11.239" gradientUnits="userSpaceOnUse"><stop stop-color="#EE7B00"/><stop offset="1" stop-color="#B82600"/></linearGradient></defs></svg>