<svg width="24" height="24" fill="none" xmlns="http://www.w3.org/2000/svg"><path d="M12 24c6.627 0 12-5.373 12-12S18.627 0 12 0 0 5.373 0 12s5.373 12 12 12Z" fill="#2C3E50"/><path d="M19.227 17.01v-.75c0-.149-.1-.248-.251-.248h-.499v-.753c0-.149-.1-.25-.248-.25h-.5V9.5h.497c.149 0 .251-.099.251-.25V8.5h.499a.242.242 0 0 0 .248-.201c.026-.125-.025-.224-.124-.276l-6.988-3.504a.345.345 0 0 0-.224 0L4.65 8.023a.25.25 0 0 0-.124.273c0 .127.1.204.223.204h.75v.75c0 .148.1.247.248.247h.5v5.512h-.497c-.15 0-.25.099-.25.247v.753h-.5c-.15 0-.248.1-.248.249v.752c-.149 0-.251.1-.251.251 0 .152.099.25.248.25h14.479c.148 0 .25-.098.25-.247 0-.15-.099-.254-.247-.254h-.003ZM5.995 8.998V8.5h11.98v.498H5.995Zm10.232.503v5.508h-.996V9.5h.996Zm-2.496 0v5.508h-.998V9.5h.998Zm-2.496 0v5.508h-.996V9.5h.996Zm-2.496 0v5.508h-.995V9.5h.995Zm9.236 6.508H5.998v-.501h11.98v.501h-.003Z" fill="#fff"/></svg>