<svg width="24" height="24" fill="none" xmlns="http://www.w3.org/2000/svg"><path fill-rule="evenodd" clip-rule="evenodd" d="m22.127 15.151 1.514-2.606-1.871 5.632.357-3.026Zm-.494 3.438v-2.843l.396-.474-.39 3.3-.006.017Zm-3.314 1.886 2.729-1.207-4.953 3.55 2.224-2.343Zm-2.739 2.71h-.077l-2.53-.965 2.452-1.03 2.031-.5-1.798 2.44-.078.056Zm-3.366-.651 2.824.648-3.276-.021.452-.627ZM13.18.989l.223-.308 1.607.01-1.83.298Zm4.242 2.1-2.167-.503-2.459-1.03 2.83-.86h.101l.071.052 1.624 2.342Zm.897.212L16.248 1.08l4.836 3.563-2.765-1.34Zm3.87 5.35.005-.05-.012.004-.371-2.947 1.81 5.697L22.19 8.65Zm-.556 6.358.384.146-.384.46v-.606Zm-1.398 2.28 1.314-2.19v.616l-1.314 1.573Zm1.302 1.59-2.803.908 1.222-2.034 1.593-1.907v2.996l-.012.038Zm-2.869 1.018 2.74-.888-.026.02-2.986 1.32.272-.452Zm-.502.617-2.127 2.24 1.544-2.096.583-.144Zm-.212-.36.044.06v-.024l.216.227-.554.136.294-.399Zm-.123.027-.298.404-1.61.397 1.908-.8Zm-1.911-2.784 1.922 2.605-3.06-1.028 1.138-1.577Zm.436-.604 1.51-.52.045 3.681-1.94-2.628.385-.534Zm1.492-2.069.018 1.46-1.425.49 1.407-1.95Zm.505-.7 3.101.927-3.505 1.205-.019-1.546.423-.586Zm.968-2.089 2.162 2.937-3.078-.92.25-.348-.444-.143 1.11-1.526Zm-1.403-1.905 1.35 1.835-1.14 1.569-5.316-1.716 5.106-1.688Zm-2.19-3.099 2.164.705V9.95l-5.215 1.725-.367-.119 3.417-4.625Zm-3.686-1.217 2.213-.72 1.404 1.888-3.433 4.647-.184-.059V5.714Zm-.084-.09-1.684-.605 1.684-2.335v2.94Zm.284-3.334 1.96 2.634-2.16.702V2.568l.2-.278Zm5.575 1.37-2.101-.88 1.777.413.324.468Zm-.274-.542L16.12 1.065l2.05 2.199-.627-.146Zm.674.243-.28.326-.323-.466.603.14Zm.505.607-.32-.533 2.708 1.312-2.388-.779Zm2.905 4.024.08-2.482.38 3.019-.46-.537Zm.49 1.483.059-.67 1.43 2.702-1.49-2.032Zm-.072 4.963v.638l-.386-.147.386-.49Zm-.185-2.06.184 1.926-.399.507.215-2.432ZM21.53 8.9l.287 3.02-.257 2.914-2.187-2.97L21.53 8.9Zm-.133.04-2.076 2.853-1.318-1.79 3.394-1.064Zm.096-.132-.013.017-3.504 1.098v-2.26l3.517 1.145Zm-3.517-4.94 1.948 2.267 1.543 2.576-3.49-1.136V3.868Zm-.083.018v3.662l-2.113-.688 2.113-2.974Zm1.777 1.826-1.606-1.87.603.196 1.003 1.674Zm1.853 2.93L20.246 6.51l1.297 1.51-.02.62Zm.088.142-.008-.011.021-.658.45.524-.463.145Zm.42.715-.173 1.964-.241-2.53.415.566Zm-.367-.643.436-.137-.057.654-.38-.517ZM21.61 5.03l.025.08-.09 2.788-1.554-1.81-1.205-2.01 2.75.897.074.055Zm-5.9 1.78-1.372-1.843 3.487-1.133-2.115 2.977Zm2.284 13.16-.045-3.726 3.546-1.219-1.609 2.68-1.892 2.265Zm.553-.034-.262.435-.255-.268.517-.168Zm-.468.063 1.529-1.83-.995 1.657-.534.173Zm5.744-8.005-.026.078-1.68 2.137-.217-2.288.204-2.32 1.691 2.307.028.086ZM18.6 3.93l-.594-.194.282-.328.312.522Zm-6.108-1.985.235-.327 2.041.856-2.276-.53Zm-.054.074 2.791.648 2.584 1.084-3.527 1.146-1.992-2.678.144-.2Zm.673-.932 2.032-.332-2.297.699.265-.367Zm-1.488 10.249L8.688 7.218l1.535-2.128 1.735.623v5.73l-.335-.108ZM8.637 7.289l2.853 4.003-4.656-1.503 1.803-2.5Zm4.136 14.47 1.958-2.714 3.105 1.043-2.44 1.024-2.623.647Zm.08.42h-.383l.227-.315 2.202-.543-2.046.859Zm-.444.085h.444l2.176.83-2.761-.634.141-.196Zm9.72-7.283v-.649l1.446-1.84-1.446 2.49Zm-10.682 7.373.032-.01-.02-.008 6.044-8.333-11.822-3.857L12.547.675l.65.004-.616.854-.031.01.019.008-6.006 8.327 11.822 3.815-6.829 9.467-.69-.005.58-.801Zm-.542.461-.246.339-1.629-.011 1.875-.328Zm-5.038-2.194 1.942 2.176-4.894-3.606 2.952 1.43Zm-3.423-4.865 1.514 1.813 1.388 2.223-2.883-.934-.074-.054-.026-.082.081-2.966Zm-.526-.647-.011.003.035.042.282 3.13-1.88-5.914 1.574 2.74Zm.024-6.466-.034.04.01.002L.35 11.32 2.3 5.446l-.358 3.197ZM5.73 3.3 2.975 4.55l4.927-3.531L5.73 3.3ZM8.42.648h.087l2.583.91-2.406 1.04-2.034.403L8.342.703 8.42.648Zm3.517.584L9.046.652l3.295.022-.404.558Zm-.611.842-2.252.447 2.246-.97L8.968.721l2.915.584-.557.768ZM9.365 4.78 6.23 3.75l2.479-1.07 2.545-.505-1.89 2.605ZM8.144 6.464 6.222 3.835l3.091 1.016-1.17 1.613Zm-.51.702-1.48.448v-3.73l1.938 2.651-.457.63Zm-1.48.535 1.4-.423-1.4 1.93V7.702Zm-.462 2.144L2.56 8.788l3.51-1.062v1.598l-.378.521Zm-.988 2.007-2.17-2.985 3.106 1.05-.23.317.388.127-1.094 1.49Zm1.423 1.957-1.371-1.886 1.126-1.535 5.274 1.72-5.029 1.7Zm2.27 3.105-2.244-.723v-2.303l5.136-1.736.502.164-3.393 4.598Zm3.561 1.232-2.128.689-1.364-1.872 3.409-4.62.083.027v5.776Zm.084.086 1.81.52-1.81 2.495v-3.015Zm-.226 3.327-1.934-2.653 2.076-.672v3.129l-.142.196Zm-5.59-1.38 2.301.988-1.94-.459-.36-.529Zm.31.603 1.317 1.938-1.84-2.062.523.124Zm-.585-.224.169-.388.346.51-.515-.122Zm-.171-.072-2.898-1.404 2.533.82.365.584Zm.206-.487-.516-.167-1.12-1.793L5.986 20Zm.167-.043V16.28l2.192.706-2.192 2.971Zm2.26-2.922 1.333 1.828-3.523 1.142 2.19-2.97ZM6.055 20.11l-.17.388-.346-.555.516.167Zm-3.536-5.002 3.55 1.145v3.716l-2.044-2.449-1.506-2.412Zm-.059.065 1.173 1.877-1.185-1.42.012-.457Zm3.61-1.256v2.248l-3.51-1.132 3.51-1.116Zm-4 .563.136-1.968.164 2.38-.3-.412Zm.293 1.18-.068 2.482-.259-2.874.327.392Zm-.305-.497.321-.077-.012.447-.31-.37Zm.003-.554.29.398-.323.077.033-.475Zm-.077-.105-.034.493L.504 12.48l1.48 2.024Zm0-5.213L.496 11.237l1.454-2.44.034.493Zm.394-1.165-.339.402.33-2.946.01 2.543ZM5.336 3.94 2.98 4.64 5.648 3.43l-.312.511Zm.702-.208-.582.173.305-.499.277.326Zm.416-.608.01-.001-.357.56-.295-.347 2.152-2.261-1.51 2.05Zm1.864-.37-2.098.907.357-.561 1.741-.345Zm-4.12 3.209L5.39 4.012l.598-.177-1.792 2.129ZM2.37 8.922l-.165 2.374-.136-1.98.3-.394Zm-.02-.113-.29.38-.033-.472.324.092Zm.03-.079-.325-.093.323-.383.001.476Zm1.167-1.865L2.464 8.638l-.002-.483 1.086-1.29ZM2.48 4.905l.07-.05 2.72-.807L3.84 6.39 2.462 8.025l-.01-3.034.028-.086Zm2.224 7.089 1.34 1.842-3.512 1.117 2.172-2.96Zm-2.248 2.92-.208-3.01.208-3 2.196 3.019-2.196 2.992ZM6.07 7.64 2.516 8.714l1.39-2.274L6.07 3.87v3.769Zm-5.894 4.2.028-.082 1.788-2.34.172 2.487-.171 2.47-1.79-2.448-.027-.086Zm11.347 10.124-.221.305-1.855-.797 2.076.492Zm.053-.074-2.575-.61-2.77-1.19 3.567-1.155 1.966 2.696-.188.26Zm-.6.829-1.913.334 2.12-.621-.207.287Zm1.486-10.183 2.948 4.069-1.506 2.076-1.862-.535v-5.747l.42.137Zm3 3.997-2.865-3.953 4.635 1.512-1.77 2.441Zm-7.257 6.556L6.656 20.81l2.318.548 2.258.97-2.764.81-.195-.001-.068-.05ZM21.763 4.953l-.009-.026-5.95-4.382-.021-.017L8.366.48 2.36 4.784l-.022.016L0 11.838l2.237 7.043.009.026 5.95 4.382.021.016 7.416.049 6.007-4.304.022-.016L24 11.995l-2.237-7.042Z" fill="#000"/></svg>