<svg width="24" height="24" viewBox="0 0 24 24" fill="none" xmlns="http://www.w3.org/2000/svg">
<path fill-rule="evenodd" clip-rule="evenodd" d="M17.0363 4.80908C15.0557 4.80908 13.2684 5.63562 12 6.96287C13.1938 8.21303 13.9275 9.9067 13.9275 11.7728C13.9275 10.0559 15.3194 8.664 17.0363 8.664C18.7532 8.664 20.1451 10.0559 20.1451 11.7728C20.1451 13.4897 18.7532 14.8816 17.0363 14.8816C15.3194 14.8816 13.9275 13.4897 13.9275 11.7728C13.9275 13.6381 13.1938 15.3326 12 16.5828C13.2684 17.91 15.0557 18.7365 17.0363 18.7365C20.8821 18.7365 24 15.6186 24 11.7728C24 7.92703 20.8821 4.80908 17.0363 4.80908Z" fill="#1CA8E5"/>
<path fill-rule="evenodd" clip-rule="evenodd" d="M11.9997 6.96289C10.8059 8.21305 10.0723 9.90673 10.0723 11.7728C10.0723 13.6381 10.8059 15.3326 11.9997 16.5828C13.1935 15.3326 13.9272 13.6381 13.9272 11.7728C13.9272 9.90673 13.1935 8.21305 11.9997 6.96289Z" fill="#1F3463"/>
<path fill-rule="evenodd" clip-rule="evenodd" d="M6.96373 14.8816C5.24681 14.8816 3.85492 13.4897 3.85492 11.7728C3.85492 10.0559 5.24681 8.664 6.96373 8.664C8.68059 8.664 10.0725 10.0559 10.0725 11.7728C10.0725 9.9067 10.8062 8.21303 12 6.96287C10.7316 5.63562 8.94427 4.80908 6.96373 4.80908C3.11795 4.80908 0 7.92703 0 11.7728C0 15.6186 3.11795 18.7365 6.96373 18.7365C8.94427 18.7365 10.7316 17.91 12 16.5828C10.8062 15.3326 10.0725 13.6381 10.0725 11.7728C10.0725 13.4897 8.68059 14.8816 6.96373 14.8816Z" fill="#D81A5A"/>
</svg>
