<svg width="24" height="24" fill="none" xmlns="http://www.w3.org/2000/svg"><g clip-path="url(#a)"><path d="M12.111 17.73h11.342c.518 0 .914-.86 0-1.232-.872-.353-8.97-3.668-9.772-3.999-.912 1.102-1.658 2.011-1.79 2.201-.35.519-1.534 1.959.22 3.03Z" fill="url(#b)"/><path d="M.602 7A.68.68 0 0 0 0 7.643v-.115a.915.915 0 0 0 .602.773c.98.391 9.285 3.761 9.285 3.761v.127c1.173-1.349 2.234-2.705 2.505-3.029v.137C13.682 7.804 11.233 7 11.233 7H.603Z" fill="url(#c)"/><path d="M16.848 7H11.15s2.433.7 1.156 2.213L9.81 12.165c-1.61 1.899-3.435 4.04-3.718 4.366-.48.555-.24 1.2.579 1.2h5.57c-1.756-1.082-.693-2.486-.328-3.014.132-.187.876-1.09 1.788-2.184 1.62-1.945 3.773-4.489 3.97-4.729.305-.37-.182-.804-.823-.804Z" fill="#007AFF"/><path opacity=".3" d="M11.576 7h-.427s2.434.7 1.157 2.213l-2.497 2.952c-1.073 1.266-.263 3.12 2.432 5.564-1.762-1.08-.701-2.491-.336-3.012.132-.187.876-1.09 1.788-2.184 1.627-1.945 3.78-4.489 3.977-4.729.305-.37-.182-.804-.823-.804h-5.28.01Z" fill="url(#d)"/><g opacity=".84"><path opacity=".84" d="M11.577 7h-.428s2.434.7 1.157 2.213L9.81 12.165c-1.61 1.899-3.435 4.04-3.718 4.366-.48.555-.24 1.2.579 1.2h5.57c-1.761-1.08-.7-2.491-.335-3.012.132-.187.876-1.09 1.788-2.184 1.627-1.947 3.78-4.49 3.977-4.73.305-.37-.182-.805-.823-.805h-5.28.009Z" fill="#007AFF"/><path opacity=".84" d="M11.577 7h-.428s2.434.7 1.157 2.213L9.81 12.165c-1.61 1.899-3.435 4.04-3.718 4.366-.48.555-.24 1.2.579 1.2h5.57c-1.761-1.08-.7-2.491-.335-3.012.132-.187.876-1.09 1.788-2.184 1.627-1.947 3.78-4.49 3.977-4.73.305-.37-.182-.805-.823-.805h-5.28.009Z" fill="url(#e)"/></g><path opacity=".45" d="M11.15 7s2.433.7 1.156 2.213L9.81 12.165c-1.61 1.899-3.435 4.04-3.718 4.366-.48.555-.24 1.2.579 1.2h5.57c-1.761-1.08-.7-2.491-.335-3.012.132-.187.876-1.09 1.788-2.184.645-.775.372-2.907-.36-4.08C13.009 7.936 12.28 7.45 11.15 7Z" fill="#B8CFFF" fill-opacity=".5"/><path d="M11.15 7s2.433.7 1.156 2.213L9.81 12.165c-1.71 2.021-.9 3.876 2.431 5.564-1.761-1.08-.7-2.491-.336-3.012.132-.187.896-1.112 1.789-2.184C15.605 10.24 14.758 8.397 11.149 7Z" fill="url(#f)"/></g><defs><linearGradient id="b" x1="9.488" y1="14.519" x2="14.044" y2="19.389" gradientUnits="userSpaceOnUse"><stop stop-color="#878A96"/><stop offset="1" stop-color="#DADDE6"/></linearGradient><linearGradient id="c" x1="-1293060" y1="-94326.7" x2="-1293100" y2="-94434.1" gradientUnits="userSpaceOnUse"><stop stop-color="#878A96"/><stop offset="1" stop-color="#DADDE6"/></linearGradient><linearGradient id="d" x1="17.916" y1="12.981" x2="9.473" y2="12.186" gradientUnits="userSpaceOnUse"><stop stop-color="#fff"/><stop offset="1" stop-color="#2B72FF"/></linearGradient><linearGradient id="e" x1="11.908" y1="7.412" x2="11.908" y2="18.121" gradientUnits="userSpaceOnUse"><stop stop-color="#fff" stop-opacity=".5"/><stop offset="1" stop-opacity=".5"/></linearGradient><linearGradient id="f" x1="11.489" y1="18.121" x2="13.065" y2="7.58" gradientUnits="userSpaceOnUse"><stop stop-color="#74ABE9"/><stop offset="1" stop-color="#2C5C96"/></linearGradient><clipPath id="a"><path fill="#fff" d="M0 0h24v24H0z"/></clipPath></defs></svg>