<svg width="24" height="24" fill="none" xmlns="http://www.w3.org/2000/svg"><g clip-path="url(#a)"><path fill-rule="evenodd" clip-rule="evenodd" d="M5.105 17.982a8.689 8.689 0 0 1-1.711-3.349c2.556-2.857 6.178-4.646 9.956-4.912a15.876 15.876 0 0 1 1.22-.038l-2.054 1.93a.703.703 0 0 0-.188.791.832.832 0 0 0 .752.523c.19 0 .37-.074.518-.214l3.309-3.11a.737.737 0 0 0 .228-.533.78.78 0 0 0-.224-.563L13.081 4.7a.733.733 0 0 0-.523-.226.828.828 0 0 0-.74.513.72.72 0 0 0 .171.806l2.362 2.346c-4.198.03-8.264 1.678-11.245 4.548a8.95 8.95 0 0 1 1.255-4.943c1.599-2.646 4.524-4.29 7.635-4.29.579 0 1.157.059 1.72.174 3.313.68 5.99 3.232 6.85 6.52-2.552 2.831-6.16 4.604-9.917 4.868a15.883 15.883 0 0 1-1.218.04l2.053-1.93a.703.703 0 0 0 .188-.792.832.832 0 0 0-.752-.523c-.19 0-.37.074-.518.213l-3.309 3.11a.737.737 0 0 0-.228.534.78.78 0 0 0 .224.563l3.83 3.806c.15.147.33.225.523.225.311 0 .615-.21.74-.512a.72.72 0 0 0-.171-.806l-2.362-2.346c4.17-.03 8.214-1.659 11.19-4.496.002.077.003.155.003.235-.02 3.73-2.353 7.08-5.805 8.334a8.845 8.845 0 0 1-3.03.532 8.959 8.959 0 0 1-6.902-3.222Zm18.791-10.62a.839.839 0 0 0-.706-.408.706.706 0 0 0-.629.387c-.254.464-.539.922-.849 1.366a10.669 10.669 0 0 0-2.257-3.585 10.508 10.508 0 0 0-3.928-2.581 10.089 10.089 0 0 0-3.508-.621 10.7 10.7 0 0 0-4.454.981 10.283 10.283 0 0 0-3.641 2.804 10.55 10.55 0 0 0-2.045 4.087 10.668 10.668 0 0 0-.16 4.417A16.776 16.776 0 0 0 .1 16.63a.74.74 0 0 0 .005.748.839.839 0 0 0 .706.408.706.706 0 0 0 .629-.387c.242-.443.512-.88.804-1.302.216.565.48 1.107.788 1.617 1.877 3.107 5.321 5.037 8.99 5.037.68 0 1.362-.067 2.027-.2 4.199-.836 7.574-4.368 8.209-8.588.083-.554.127-1.1.13-1.624a10.444 10.444 0 0 0-.159-1.744A16.809 16.809 0 0 0 23.9 8.11a.74.74 0 0 0-.004-.748Z" fill="#4155FF"/></g><defs><clipPath id="a"><path fill="#fff" d="M0 0h24v24H0z"/></clipPath></defs></svg>