<svg width="24" height="24" viewBox="0 0 24 24" fill="none" xmlns="http://www.w3.org/2000/svg">
<g clip-path="url(#clip0)">
<path d="M23.8412 9.66757C23.6736 8.88469 23.374 8.13319 22.9543 7.44257C22.0934 6.06757 20.2151 4.06757 17.8673 2.49257C17.8673 2.49257 16.0934 1.39257 15.2586 1.01757C12.2065 -0.33243 8.78906 -0.60743 5.86732 1.86757C0.962977 6.04257 -1.4892 11.8676 0.962976 17.6676C1.01515 17.7926 2.37167 21.3426 10.5108 23.7176C14.0847 23.8176 16.1717 23.6176 18.4673 22.3426C21.4673 20.6926 23.2152 17.6926 23.8412 14.6426C24.0238 13.7176 24.0499 10.5926 23.8412 9.66757Z" fill="#04FFCC"/>
<path d="M14.3455 1.44248V7.01748L7.61509 6.61748L4.84987 9.96748L4.51074 16.2925L6.80639 18.6425L10.2499 20.2925L14.7629 20.7675L19.6673 19.5675V7.94248L18.7281 3.11748C18.7281 3.11748 16.0934 1.14248 14.3716 0.66748" fill="#7DF8FB"/>
<path d="M22.2238 15.2676C21.2847 15.2176 21.8065 13.7926 21.3891 12.1676C20.8934 10.3676 21.6238 9.11757 22.5891 9.16757C23.0424 9.23527 23.4719 9.40679 23.8412 9.66757C23.6736 8.88468 23.374 8.13319 22.9543 7.44257C22.0934 6.06757 20.2151 4.06757 17.8673 2.49257V17.5676C17.8681 18.2807 17.3522 18.8988 16.6261 19.0548C15.9 19.2107 15.1582 18.8628 14.8412 18.2176C12.2659 19.7472 8.9136 19.2657 6.91943 17.0796C4.92526 14.8935 4.87529 11.6453 6.80135 9.40386C8.72741 7.16237 12.0634 6.58631 14.6847 8.04257V2.19257C14.676 1.73689 14.8879 1.30302 15.2586 1.01757C12.2065 -0.33243 8.78906 -0.60743 5.86732 1.86757C0.962977 6.04257 -1.4892 11.8676 0.962976 17.6676C1.01515 17.7926 1.06732 17.9176 1.1195 18.0176C1.19119 17.8773 1.28836 17.7503 1.40645 17.6426C2.68472 16.3926 4.09341 18.9426 7.09341 20.4176C8.99776 21.3426 10.0934 22.5676 10.5108 23.7176C13.3021 24.0426 16.1717 23.6176 18.4673 22.3426C21.4673 20.6926 23.2152 17.6926 23.8412 14.6426C23.3907 15.0191 22.8209 15.2393 22.2238 15.2676ZM11.9978 3.41757C12.7021 3.39257 13.3543 4.19257 13.3804 4.56757C13.4065 4.94257 12.7804 4.79257 12.1021 5.01757C11.3456 5.26757 10.7978 5.04257 10.7717 4.66757C10.7456 4.29257 11.2673 3.44257 11.9978 3.41757Z" fill="#2C398F"/>
<path d="M10.459 15.3675C11.972 16.1925 13.7981 15.8675 14.1372 14.0175C14.3199 12.9425 14.2155 11.2675 13.2242 10.7425C9.93725 8.94249 7.17203 13.5675 10.459 15.3675Z" fill="#2C398F"/>
</g>
<defs>
<clipPath id="clip0">
<rect width="24" height="24" fill="white"/>
</clipPath>
</defs>
</svg>
