<svg width="25" height="24" fill="none" xmlns="http://www.w3.org/2000/svg"><path fill-rule="evenodd" clip-rule="evenodd" d="M11.933 4h7.511a1 1 0 0 1 1 1v10.8a1 1 0 0 1-1 1h-7.51a1 1 0 0 1-1-1V5a1 1 0 0 1 1-1Zm-2 1a2 2 0 0 1 2-2h7.511a2 2 0 0 1 2 2v10.8a2 2 0 0 1-2 2H16.19v1.289a2.5 2.5 0 0 1-2.5 2.5H7a2.5 2.5 0 0 1-2.5-2.5V9.11a2.5 2.5 0 0 1 2.5-2.5h2.933V5Zm0 2.611H7a1.5 1.5 0 0 0-1.5 1.5v9.978a1.5 1.5 0 0 0 1.5 1.5h6.689a1.5 1.5 0 0 0 1.5-1.5V17.8h-3.256a2 2 0 0 1-2-2V7.611Z" fill="#A2EFE1"/></svg>