<svg width="24" height="24" viewBox="0 0 24 24" fill="none" xmlns="http://www.w3.org/2000/svg">
<g clip-path="url(#clip0)">
<path d="M17.1565 13.7016C17.174 13.7031 17.1909 13.7088 17.2057 13.7182C17.2205 13.7276 17.2328 13.7405 17.2416 13.7557C17.2504 13.7709 17.2554 13.788 17.2561 13.8056C17.2569 13.8231 17.2534 13.8406 17.246 13.8565L12.146 22.6765C12.1364 22.6917 12.1233 22.7044 12.1077 22.7134C12.0921 22.7223 12.0745 22.7273 12.0565 22.7278H8.93868C8.92055 22.7278 8.90274 22.723 8.88706 22.7139C8.87138 22.7048 8.85839 22.6918 8.84941 22.676C8.84043 22.6603 8.83578 22.6424 8.83594 22.6243C8.8361 22.6062 8.84106 22.5884 8.85031 22.5729L13.9503 13.7529C13.9593 13.7373 13.9722 13.7244 13.9877 13.7154C14.0032 13.7064 14.0208 13.7017 14.0387 13.7016H17.1565ZM14.1249 11.1739C14.1069 11.1734 14.0893 11.1685 14.0737 11.1595C14.0581 11.1506 14.0449 11.1379 14.0354 11.1227L8.85031 2.1554C8.84106 2.13981 8.8361 2.12206 8.83594 2.10393C8.83578 2.08581 8.84043 2.06797 8.84941 2.05222C8.85839 2.03648 8.87138 2.0234 8.88706 2.01431C8.90274 2.00522 8.92055 2.00045 8.93868 2.00049H12.0565C12.0745 2.001 12.0921 2.00594 12.1077 2.01489C12.1233 2.02384 12.1364 2.0365 12.146 2.05176L17.331 11.019C17.3403 11.0346 17.3453 11.0524 17.3454 11.0705C17.3456 11.0886 17.3409 11.1065 17.332 11.1222C17.323 11.1379 17.31 11.151 17.2943 11.1601C17.2786 11.1692 17.2608 11.174 17.2427 11.1739H14.1249Z" fill="#E31337"/>
<path d="M14.7414 2.15514C14.7318 2.13907 14.7268 2.12069 14.7269 2.10197C14.727 2.08326 14.7322 2.06493 14.742 2.04897C14.7518 2.03302 14.7657 2.02004 14.7823 2.01145C14.799 2.00285 14.8176 1.99898 14.8363 2.00023H17.9585C17.9764 2.0002 17.9941 2.00493 18.0096 2.01393C18.0251 2.02294 18.038 2.03591 18.0469 2.0515L23.9912 12.3126C24.0003 12.3282 24.0051 12.3459 24.0051 12.3639C24.0051 12.3819 24.0003 12.3996 23.9912 12.4151L18.0469 22.6762C18.038 22.6918 18.0251 22.7048 18.0096 22.7138C17.9941 22.7228 17.9764 22.7276 17.9585 22.7275H14.8363C14.8181 22.7277 14.8001 22.7231 14.7843 22.7141C14.7685 22.7051 14.7553 22.692 14.7462 22.6763C14.7371 22.6605 14.7324 22.6426 14.7325 22.6243C14.7326 22.6061 14.7375 22.5883 14.7469 22.5726L20.6552 12.3639L14.7414 2.15514ZM12.2039 12.3115C12.2135 12.3281 12.2186 12.3469 12.2186 12.3661C12.2186 12.3852 12.2135 12.404 12.2039 12.4206L6.23231 22.6762C6.22229 22.6909 6.20886 22.7028 6.19318 22.7111C6.1775 22.7194 6.16004 22.7237 6.14231 22.7237C6.12458 22.7237 6.10712 22.7194 6.09144 22.7111C6.07576 22.7028 6.06233 22.6909 6.05231 22.6762L0.0141271 12.4162C0.0045524 12.3997 -0.000488281 12.3808 -0.000488281 12.3617C-0.000488281 12.3425 0.0045524 12.3237 0.0141271 12.3071L5.98576 2.0515C5.99578 2.03688 6.00921 2.02492 6.02489 2.01665C6.04058 2.00838 6.05804 2.00406 6.07576 2.00406C6.09349 2.00406 6.11095 2.00838 6.12663 2.01665C6.14231 2.02492 6.15575 2.03688 6.16576 2.0515L12.2039 12.3115Z" fill="#E31337"/>
</g>
<defs>
<clipPath id="clip0">
<rect width="24" height="24" fill="white"/>
</clipPath>
</defs>
</svg>
