<svg width="24" height="24" fill="none" xmlns="http://www.w3.org/2000/svg"><g clip-path="url(#a)" fill="#E3242D"><path d="M4.66 11.984V10.01h6.348V7.982H4.66V6.02h14.67v1.974h-6.348v2.027h6.348v1.975h-6.348l6.38 9.49A11.982 11.982 0 0 0 24 12.004C24 5.371 18.629 0 12.005 0 5.371 0 0 5.371 0 12.005c0 3.853 1.815 7.282 4.639 9.48l6.38-9.49c0-.01-6.36-.01-6.36-.01Z"/><path d="M6.284 22.556A11.907 11.907 0 0 0 11.994 24c2.07 0 4.013-.52 5.712-1.444l-5.711-8.513-5.71 8.514Z"/></g><defs><clipPath id="a"><path fill="#fff" d="M0 0h24v24H0z"/></clipPath></defs></svg>