<svg width="24" height="24" fill="none" xmlns="http://www.w3.org/2000/svg"><path d="M7.32 18.639A7.32 7.32 0 1 0 7.32 4a7.32 7.32 0 0 0 0 14.639Z" fill="url(#a)"/><path d="M6.471 13.795a.548.548 0 1 0 0-1.097.548.548 0 0 0 0 1.097ZM8.091 13.795a.548.548 0 1 0 0-1.097.548.548 0 0 0 0 1.097ZM9.71 13.795a.548.548 0 1 0 0-1.097.548.548 0 0 0 0 1.097ZM11.332 13.795a.548.548 0 1 0 0-1.097.548.548 0 0 0 0 1.097ZM12.953 13.795a.548.548 0 1 0 0-1.097.548.548 0 0 0 0 1.097ZM14.572 13.795a.548.548 0 1 0 0-1.097.548.548 0 0 0 0 1.097ZM16.193 13.795a.548.548 0 1 0 0-1.097.548.548 0 0 0 0 1.097ZM17.812 13.795a.548.548 0 1 0 0-1.097.548.548 0 0 0 0 1.097ZM19.432 13.795a.548.548 0 1 0 0-1.097.548.548 0 0 0 0 1.097ZM20.335 15.267a.378.378 0 1 0 0-.756.378.378 0 0 0 0 .756ZM18.66 15.267a.378.378 0 1 0 0-.756.378.378 0 0 0 0 .756ZM16.986 15.267a.378.378 0 1 0 0-.756.378.378 0 0 0 0 .756ZM15.313 15.267a.378.378 0 1 0 0-.756.378.378 0 0 0 0 .756ZM13.638 15.267a.378.378 0 1 0 0-.756.378.378 0 0 0 0 .756ZM11.964 15.267a.378.378 0 1 0 0-.756.378.378 0 0 0 0 .756ZM10.29 15.267a.378.378 0 1 0 0-.756.378.378 0 0 0 0 .756ZM8.615 15.267a.378.378 0 1 0 0-.756.378.378 0 0 0 0 .756ZM6.942 15.267a.378.378 0 1 0 0-.756.378.378 0 0 0 0 .756ZM21.224 16.41a.366.366 0 1 0 0-.733.366.366 0 0 0 0 .733ZM19.526 16.41a.366.366 0 1 0 0-.733.366.366 0 0 0 0 .733ZM17.827 16.41a.366.366 0 1 0 0-.733.366.366 0 0 0 0 .733ZM16.13 16.41a.366.366 0 1 0 0-.733.366.366 0 0 0 0 .733ZM14.432 16.41a.366.366 0 1 0 0-.733.366.366 0 0 0 0 .733ZM12.734 16.41a.366.366 0 1 0 0-.733.366.366 0 0 0 0 .733ZM11.036 16.41a.366.366 0 1 0 0-.733.366.366 0 0 0 0 .733ZM9.338 16.41a.366.366 0 1 0 0-.733.366.366 0 0 0 0 .733ZM7.64 16.41a.366.366 0 1 0 0-.733.366.366 0 0 0 0 .733ZM22.408 17.488a.28.28 0 1 0 0-.56.28.28 0 0 0 0 .56ZM20.686 17.488a.28.28 0 1 0 0-.56.28.28 0 0 0 0 .56ZM18.965 17.488a.28.28 0 1 0 0-.56.28.28 0 0 0 0 .56ZM17.246 17.488a.28.28 0 1 0 0-.56.28.28 0 0 0 0 .56ZM15.525 17.488a.28.28 0 1 0 0-.56.28.28 0 0 0 0 .56ZM13.804 17.488a.28.28 0 1 0 0-.56.28.28 0 0 0 0 .56ZM12.084 17.488a.28.28 0 1 0 0-.56.28.28 0 0 0 0 .56ZM10.364 17.488a.28.28 0 1 0 0-.56.28.28 0 0 0 0 .56ZM8.643 17.488a.28.28 0 1 0 0-.56.28.28 0 0 0 0 .56ZM23.785 18.46a.215.215 0 1 0 0-.43.215.215 0 0 0 0 .43ZM22.05 18.46a.215.215 0 1 0 0-.43.215.215 0 0 0 0 .43ZM20.315 18.46a.215.215 0 1 0 0-.43.215.215 0 0 0 0 .43ZM18.582 18.46a.215.215 0 1 0 0-.43.215.215 0 0 0 0 .43ZM16.848 18.46a.215.215 0 1 0 0-.43.215.215 0 0 0 0 .43ZM15.112 18.46a.215.215 0 1 0 0-.43.215.215 0 0 0 0 .43ZM13.378 18.46a.215.215 0 1 0 0-.43.215.215 0 0 0 0 .43ZM11.643 18.46a.215.215 0 1 0 0-.43.215.215 0 0 0 0 .43ZM9.908 18.46a.215.215 0 1 0 0-.43.215.215 0 0 0 0 .43ZM5.682 12.075a.378.378 0 1 0 0-.756.378.378 0 0 0 0 .756ZM7.356 12.075a.378.378 0 1 0 0-.756.378.378 0 0 0 0 .756ZM9.031 12.075a.378.378 0 1 0 0-.756.378.378 0 0 0 0 .756ZM10.705 12.075a.378.378 0 1 0 0-.756.378.378 0 0 0 0 .756ZM12.38 12.075a.378.378 0 1 0 0-.756.378.378 0 0 0 0 .756ZM14.054 12.075a.378.378 0 1 0 0-.755.378.378 0 0 0 0 .755ZM15.727 12.075a.378.378 0 1 0 0-.756.378.378 0 0 0 0 .756ZM17.402 12.075a.378.378 0 1 0 0-.756.378.378 0 0 0 0 .756ZM19.076 12.075a.378.378 0 1 0 0-.755.378.378 0 0 0 0 .755ZM4.794 10.91a.366.366 0 1 0 0-.734.366.366 0 0 0 0 .733ZM6.492 10.91a.366.366 0 1 0 0-.734.366.366 0 0 0 0 .733ZM8.19 10.91a.366.366 0 1 0 0-.734.366.366 0 0 0 0 .733ZM9.888 10.91a.366.366 0 1 0 0-.734.366.366 0 0 0 0 .733ZM11.586 10.91a.366.366 0 1 0 0-.734.366.366 0 0 0 0 .733ZM13.283 10.91a.366.366 0 1 0 0-.734.366.366 0 0 0 0 .733ZM14.982 10.91a.366.366 0 1 0 0-.734.366.366 0 0 0 0 .733ZM16.68 10.91a.366.366 0 1 0 0-.734.366.366 0 0 0 0 .733ZM18.377 10.91a.366.366 0 1 0 0-.734.366.366 0 0 0 0 .733ZM3.61 9.658a.28.28 0 1 0 0-.56.28.28 0 0 0 0 .56ZM5.33 9.658a.28.28 0 1 0 0-.56.28.28 0 0 0 0 .56ZM7.051 9.658a.28.28 0 1 0 0-.56.28.28 0 0 0 0 .56ZM8.771 9.658a.28.28 0 1 0 0-.56.28.28 0 0 0 0 .56ZM10.492 9.658a.28.28 0 1 0 0-.56.28.28 0 0 0 0 .56ZM12.213 9.658a.28.28 0 1 0 0-.56.28.28 0 0 0 0 .56ZM13.934 9.658a.28.28 0 1 0 0-.56.28.28 0 0 0 0 .56ZM15.654 9.658a.28.28 0 1 0 0-.56.28.28 0 0 0 0 .56ZM17.375 9.658a.28.28 0 1 0 0-.56.28.28 0 0 0 0 .56ZM2.232 8.555a.215.215 0 1 0 0-.429.215.215 0 0 0 0 .43ZM3.967 8.555a.215.215 0 1 0 0-.429.215.215 0 0 0 0 .43ZM5.701 8.555a.215.215 0 1 0 0-.429.215.215 0 0 0 0 .43ZM7.436 8.555a.215.215 0 1 0 0-.429.215.215 0 0 0 0 .43ZM9.17 8.555a.215.215 0 1 0 0-.429.215.215 0 0 0 0 .43ZM10.906 8.555a.215.215 0 1 0 0-.43.215.215 0 0 0 0 .43ZM12.64 8.555a.215.215 0 1 0 0-.429.215.215 0 0 0 0 .43ZM14.375 8.555a.215.215 0 1 0 0-.429.215.215 0 0 0 0 .43ZM16.11 8.555a.215.215 0 1 0 0-.43.215.215 0 0 0 0 .43Z" fill="#000"/><defs><linearGradient id="a" x1="-3.453" y1="11.319" x2="11.227" y2="11.319" gradientUnits="userSpaceOnUse"><stop stop-color="#3B007F"/><stop offset="1" stop-color="#AA003D"/></linearGradient></defs></svg>