<svg width="24" height="24" fill="none" xmlns="http://www.w3.org/2000/svg"><path d="M17.777 7.979a1.784 1.784 0 1 0 0 3.567 1.784 1.784 0 0 0 0-3.567Zm0 2.665a.881.881 0 0 1-.871-.881c0-.483.388-.882.87-.882.483 0 .872.4.872.882a.878.878 0 0 1-.871.881ZM6.317 7.98a1.784 1.784 0 1 0 0 3.568 1.784 1.784 0 0 0 0-3.568Zm0 2.665a.881.881 0 0 1-.87-.881c0-.483.387-.882.87-.882s.871.4.871.882a.878.878 0 0 1-.87.881Zm5.142 1.858h-1.217v-1.228h1.228v1.228h-.01Zm2.236 0h-1.228v-1.228h1.227v1.228Zm9.591 4.88-.787-6.129-.136-1.06-.042-.388a4.88 4.88 0 0 0-4.765-4.345V1.01l-2.245 1.292v-.683l-.934.557-1.06.608v-.818l-1.973 1.112V1.546L9.14 2.826v-.902l-2.907 1.7V5.48a4.89 4.89 0 0 0-4.48 4.334l-.043.378c-.042.346-.073.714-.136 1.081l-.787 6.118a3.379 3.379 0 0 0 6.265 2.193l1.91-3.232c.241-.41.682-.672 1.154-.672h3.84c.473 0 .914.252 1.155.672l1.91 3.232a3.379 3.379 0 0 0 6.265-2.204Zm-1.5 2.12a2.466 2.466 0 0 1-3.978-.389l-1.91-3.232a2.257 2.257 0 0 0-1.93-1.113h-3.852c-.787 0-1.532.43-1.93 1.113l-1.91 3.232a2.446 2.446 0 0 1-3.978.388 2.54 2.54 0 0 1-.609-2.004l.787-6.108c.063-.367.095-.745.137-1.101l.042-.368a3.977 3.977 0 0 1 6.433-2.655 4.408 4.408 0 0 0 2.812 1.04h.304c.997 0 1.994-.368 2.813-1.04a3.925 3.925 0 0 1 2.487-.892 3.977 3.977 0 0 1 3.935 3.547l.042.378.137 1.08.787 6.119a2.58 2.58 0 0 1-.62 2.004Z" fill="url(#a)"/><path d="M9.676 18.357c1.175 1.155 3.589 1.144 4.743-.031" stroke="url(#b)" stroke-width="8" stroke-miterlimit="10"/><defs><linearGradient id="a" x1="4.208" y1="5.723" x2="21.439" y2="21.233" gradientUnits="userSpaceOnUse"><stop stop-color="#8D5AE9"/><stop offset="1" stop-color="#63D1DF"/></linearGradient><linearGradient id="b" x1="10.589" y1="17.308" x2="13.517" y2="19.942" gradientUnits="userSpaceOnUse"><stop stop-color="#7B8DE5"/><stop offset="1" stop-color="#70ADE2"/></linearGradient></defs></svg>