<svg width="24" height="24" fill="none" xmlns="http://www.w3.org/2000/svg"><path d="M4.8 9.877v6.035h4.835a2.15 2.15 0 0 1 .284-.917L4.8 9.877Z" fill="#B9BEC1"/><path d="M4.8 0v8.255l5.936 5.936c.298-.168.632-.261.975-.273V6.174L4.8 0Z" fill="#DE575B"/><path d="m6.533 21.34 3.39-3.236a2.733 2.733 0 0 1-.43-1.11H4.811a7.374 7.374 0 0 0 1.72 4.347Zm6.214-12.149v4.695c.346.069.675.204.97.398l3.321-3.322a7.377 7.377 0 0 0-4.29-1.77Zm-1.03 10.09a2.74 2.74 0 0 1-1.036-.417l-3.4 3.247a7.381 7.381 0 0 0 4.435 1.86v-4.69Zm2.762-4.247c.185.27.319.573.397.891h4.711a7.375 7.375 0 0 0-1.79-4.209l-3.318 3.318Zm-.681 3.784a2.739 2.739 0 0 1-.924.426v4.713a7.372 7.372 0 0 0 4.154-1.753l-3.23-3.386Zm1.125-1.823a2.721 2.721 0 0 1-.343.97l3.264 3.42a7.375 7.375 0 0 0 1.76-4.39h-4.68Z" fill="#B9BEC1"/></svg>