<svg width="24" height="24" fill="none" xmlns="http://www.w3.org/2000/svg"><path fill-rule="evenodd" clip-rule="evenodd" d="m12.408 20.155 2.68-14.62s2.126.582 3.378 1.63c1.439 1.205 2.214 3.262 2.214 3.262s1.077-1.835.699-3.903C21 4.455 19.494 2.647 19.447 2.591h-.001a11.935 11.935 0 0 0-5.35-2.408l-3.144 17.351s-1.502-1.298-4.835-.815c-2.418.35-4.138 1.885-4.138 1.885a12.011 12.011 0 0 0 6.933 4.994s2.098-.413 3.496-3.442Z" fill="#fff"/><path fill-rule="evenodd" clip-rule="evenodd" d="M19.447 2.59c.046.057 1.553 1.865 1.931 3.934.379 2.068-.699 3.903-.699 3.903s-.774-2.058-2.213-3.262c-1.253-1.049-3.379-1.631-3.379-1.631l-2.68 14.621c-1.398 3.03-3.496 3.443-3.496 3.443.986.262 2.02.402 3.089.402 6.628 0 12-5.372 12-12 0-3.815-1.78-7.213-4.553-9.41ZM10.951 17.534 14.096.183C13.416.063 12.716 0 12 0 5.372 0 0 5.372 0 12c0 2.44.728 4.71 1.98 6.604 0 0 1.719-1.536 4.137-1.886 3.333-.482 4.834.816 4.834.816Z" fill="#E9B200"/></svg>