<svg width="24" height="19" viewBox="0 0 24 19" fill="none" xmlns="http://www.w3.org/2000/svg">
<path d="M7.84335 14.183C6.30668 14.1559 4.9718 13.2933 4.27523 12.0303C4.30328 12.0307 4.33138 12.031 4.35952 12.031C4.82778 12.031 5.28266 11.9691 5.71704 11.8516L5.68494 10.8787C4.0203 10.5446 2.71569 9.21598 2.41503 7.54015C2.89614 7.70764 3.40968 7.80623 3.94317 7.82369L5.69229 7.88092L4.23741 6.90829C3.12163 6.16235 2.38752 4.88841 2.38752 3.44595C2.38752 2.94261 2.47731 2.45984 2.64156 2.01222C5.00882 4.60143 8.35267 6.28293 12.0944 6.47132L12.7538 6.50452L12.607 5.86077C12.537 5.55396 12.4995 5.23724 12.4995 4.91195C12.4995 2.61396 14.3618 0.751953 16.6575 0.751953C17.854 0.751953 18.9338 1.2568 19.6933 2.06446L19.8825 2.26577L20.1537 2.21261C20.7474 2.09623 21.3219 1.92639 21.8722 1.70851C21.5538 2.12096 21.1596 2.47216 20.7107 2.74097L21.027 3.6664C21.4147 3.61994 21.7952 3.55146 22.1674 3.462C21.8151 3.82059 21.4325 4.14977 21.0246 4.44478L20.8059 4.60288L20.818 4.87243C20.8267 5.06572 20.8315 5.26019 20.8315 5.45195C20.8315 11.3929 16.313 18.206 8.07652 18.206C6.25796 18.206 4.53031 17.8235 2.96568 17.1359C4.90809 16.9571 6.68915 16.2158 8.14294 15.0765L9.25129 14.2079L7.84335 14.183Z" fill="white" stroke="white"/>
</svg>
