<svg width="24" height="24" viewBox="0 0 24 24" fill="none" xmlns="http://www.w3.org/2000/svg">
<g clip-path="url(#clip0)">
<path d="M6.41607 4.05096C6.03327 4.69536 5.20047 4.90776 4.55607 4.52496C3.91167 4.14216 3.69927 3.30936 4.08207 2.66496C4.46487 2.02056 5.29767 1.80816 5.94207 2.19096C6.58647 2.57376 6.79887 3.40656 6.41607 4.05096Z" fill="#5F45BA"/>
<path d="M1.78308 3.44855C1.51308 3.90335 0.923882 4.05335 0.469082 3.78335C0.014282 3.51335 -0.135718 2.92535 0.134282 2.46935C0.404282 2.01335 0.993482 1.86455 1.44828 2.13455C1.90428 2.40575 2.05428 2.99375 1.78308 3.44855Z" fill="#5F45BA"/>
<path d="M14.681 23.0924C19.6538 22.508 23.6534 18.4424 23.9798 13.268C24.347 7.44561 19.9238 2.42841 14.1014 2.06241C13.4186 2.01921 12.7334 2.04321 12.0554 2.13201C10.6562 2.24601 9.47422 2.78001 9.47422 2.78001C8.51662 3.24801 7.89862 4.03041 7.89862 5.07681C7.89862 6.43761 9.00142 7.54161 10.3622 7.54161C10.5902 7.54161 11.3774 7.29201 11.5646 7.22721C12.2798 6.97761 13.0382 6.87441 13.7942 6.92361C15.8054 7.05081 17.5058 8.20761 18.4166 9.84801C18.9446 10.7984 19.1882 11.8796 19.1186 12.9644C18.9206 16.1024 16.217 18.4868 13.0778 18.2888C11.2238 18.1712 9.63382 17.1788 8.68222 15.74V15.7412V15.74C7.54462 14.252 7.80742 11.8724 7.80622 11.8424C7.75942 10.5188 6.67582 9.46041 5.34142 9.46041C4.20142 9.46041 3.24502 10.2344 2.96062 11.2844C2.90542 11.4908 2.87662 12.0956 2.88502 12.176C2.64982 17.8976 7.02862 22.7852 12.7718 23.1464C13.409 23.186 14.0474 23.168 14.681 23.0924Z" fill="#5F45BA"/>
<path d="M5.00303 7.81881C4.50623 8.65521 3.42623 8.93001 2.59103 8.43321C1.75583 7.93641 1.47983 6.85641 1.97663 6.02121C2.47343 5.18601 3.55343 4.91001 4.38863 5.40681C5.22383 5.90361 5.49863 6.98361 5.00303 7.81881Z" fill="#5F45BA"/>
</g>
<defs>
<clipPath id="clip0">
<rect width="24" height="24" fill="white"/>
</clipPath>
</defs>
</svg>
