<svg width="24" height="24" fill="none" xmlns="http://www.w3.org/2000/svg"><g clip-path="url(#a)" fill="#000300"><path d="M20.567 4.644 14.34.754a5.69 5.69 0 0 0-5.815.09L2.02 4.91c-1.177.724-1.202 2.197-.03 2.93l5.47 3.302c.473.297.86 1.174 1.132 1.662l2.354 4.006a.66.66 0 0 0 1.15.004l2.767-4.69c.231-.408.528-.79.927-1.037l5.073-3.066c1.34-.832 1.073-2.59-.296-3.376Zm-1.8 2.486-4.252 2.64a2.057 2.057 0 0 0-.704.733l-1.868 3.415a.485.485 0 0 1-.845-.002l-1.71-3.173a2.44 2.44 0 0 0-.834-.878L4.19 7.135A1.368 1.368 0 0 1 4.2 4.811l5.15-3.171a4.177 4.177 0 0 1 4.268-.066l5.099 3.146c1.005.576 1.035 1.799.05 2.41Z"/><path d="M1 9.63v8.185a.414.414 0 0 0 .206.358l9.77 5.7c.278.161.622.163.9.04l9.881-5.702c.129-.111.208-.248.208-.396V9.687a.736.736 0 1 0-1.474 0v7.298a.414.414 0 0 1-.205.358l-8.333 4.904a.897.897 0 0 1-.904 0l-8.483-4.98a.414.414 0 0 1-.206-.357V9.63a.68.68 0 1 0-1.36 0Z"/></g><defs><clipPath id="a"><path fill="#fff" d="M0 0h24v24H0z"/></clipPath></defs></svg>