<svg width="24" height="24" viewBox="0 0 24 24" fill="none" xmlns="http://www.w3.org/2000/svg">
<g clip-path="url(#clip0)">
<path fill-rule="evenodd" clip-rule="evenodd" d="M12.2728 0L11.3445 0.128L10.4485 0.416L9.61679 0.848L8.84879 1.44L8.12879 2.19232L7.50479 3.13632L6.94447 4.24032L6.48047 5.53632L7.63279 6.32032L9.36047 4.81632L9.37679 4.8L9.34479 4.624L9.32847 4.432V4.24032L9.53679 3.168L10.1285 2.30432L10.9928 1.728L12.0488 1.50432H17.4728L17.3605 1.42432L16.3045 0.89632L15.2805 0.46432L14.2568 0.17632L13.2485 0.016L12.2728 0ZM17.4728 1.50432H12.0488L12.8328 1.61632L13.5205 1.93632L14.0968 2.41632L14.5125 3.05632L14.5288 3.04L19.4405 2.86432L18.4005 2.096L17.4728 1.50432ZM11.2488 2.33632L10.5925 2.784L10.1605 3.44032L10.0005 4.24032L10.1605 5.04L10.5925 5.696L11.2488 6.14432L12.0488 6.304L12.8485 6.14432L13.5045 5.696L13.9528 5.04L14.1128 4.24032L13.9528 3.44032L13.5045 2.784L12.8485 2.33632L12.0488 2.176L11.2488 2.33632Z" fill="#B72D23"/>
<path fill-rule="evenodd" clip-rule="evenodd" d="M16.4002 3.6481L15.0565 3.85642L14.8965 5.2481L17.0565 6.0481H17.0725L17.2165 5.9361L17.3765 5.8241L17.5365 5.7281L18.5765 5.4081H21.9685L21.4565 4.89642L20.6725 4.3681L19.7765 3.9681L18.7685 3.7121L17.6485 3.6001L16.4002 3.6481ZM18.5765 5.4081L19.6165 5.50442L20.5442 6.0001L21.2485 6.8321L21.5202 7.5681L21.5682 8.3201L21.4085 9.0561L21.0565 9.7281H21.0725L23.5845 13.9681L23.7602 12.6881L23.8405 11.4561L23.8242 10.2721L23.6965 9.1521L23.4565 8.1281L23.1205 7.1681L22.6725 6.3041L22.1125 5.5521L21.9685 5.4081H18.5765ZM17.8565 6.3201L17.2325 6.8481L16.8645 7.5361L16.8002 8.3361L17.0405 9.10442L17.5525 9.7441L18.2565 10.0961L19.0402 10.1761L19.8242 9.93642L20.4482 9.4081L20.8165 8.7201L20.8965 7.9201L20.6565 7.1521L20.1282 6.51242L19.4245 6.1601L18.6402 6.0801L17.8565 6.3201Z" fill="#97B63D"/>
<path fill-rule="evenodd" clip-rule="evenodd" d="M20.5446 10.2402L19.2646 10.8162L19.6969 13.0882L19.6806 13.1042L19.8726 13.1522L20.0326 13.2322L20.2086 13.3282L21.0086 14.0642L21.4569 15.0082L21.5206 16.0482L21.1686 17.0722L20.6726 17.6962L20.0486 18.1282L19.3446 18.3682L18.5926 18.4162H18.5769L16.2246 22.7522L17.4246 22.2402L18.5286 21.6802L19.5206 21.0562L20.4169 20.3842L21.1846 19.6482L21.8406 18.8642L22.3526 18.0322L22.7046 17.1682L22.9286 16.2562L22.9769 15.3282L22.8646 14.3522L22.5769 13.3602L22.0969 12.3362L21.4246 11.2962L20.5446 10.2402ZM19.0886 13.6482L18.3046 13.6962L17.5846 14.0322L17.0406 14.6402L16.7686 15.4082L16.8169 16.1922L17.1526 16.9122L17.7606 17.4562L18.5446 17.7282L19.3286 17.6802L20.0326 17.3442L20.5926 16.7362L20.8646 15.9682L20.8169 15.1682L20.4806 14.4642L19.8726 13.9202L19.0886 13.6482Z" fill="#00743C"/>
<path fill-rule="evenodd" clip-rule="evenodd" d="M14.8964 18.9923H14.8804L14.9284 19.1683L14.9441 19.3603V19.5683L14.7201 20.6243L14.1284 21.488L13.2481 22.0643L12.1924 22.2723H15.4884L16.1124 21.6163L16.7524 20.6883L17.3124 19.5843L17.7921 18.288L16.6404 17.4883L14.8964 18.9923ZM11.4244 17.6323L10.7681 18.0803L10.3201 18.7203L10.1441 19.5203L10.3044 20.3363L10.7364 20.9923L11.3924 21.4403L12.1924 21.6003L12.9924 21.4403L13.6481 21.0083L14.0964 20.3523L14.2724 19.5523L14.1124 18.7523L13.6801 18.0963L13.0241 17.6483L12.2244 17.4883L11.4244 17.6323ZM9.72841 20.7203L4.81641 20.8643L5.84009 21.6323L6.88009 22.3043L7.92009 22.8643L8.96009 23.2803L9.98441 23.5843L10.9764 23.7443L11.9524 23.7763L12.8801 23.648L13.7764 23.3763L14.6244 22.9603L15.3924 22.3683L15.4884 22.2723H12.1924L11.4081 22.1603L10.7201 21.8403L10.1601 21.3443L9.74409 20.7043L9.72841 20.7203Z" fill="#05A7E0"/>
<path fill-rule="evenodd" clip-rule="evenodd" d="M0.560469 11.1203L0.480469 12.352L0.512469 13.5363L0.640469 14.6403L0.864469 15.6803L1.21615 16.64L1.66447 17.4883L2.22415 18.2563L2.89647 18.8963L3.68047 19.4243L4.57679 19.8243L5.58447 20.0803L6.70447 20.1923L7.93647 20.1443L9.29679 19.9203L9.44047 18.5283L9.02415 18.3843H5.76015L4.72047 18.2723L3.79247 17.792L3.08847 16.9763L2.81647 16.2243L2.76815 15.4723L2.91247 14.736L3.26415 14.0643H3.24847L0.736469 9.84033L0.560469 11.1203ZM4.49615 13.8563L3.87247 14.3843L3.50447 15.0723L3.44047 15.8723L3.68047 16.64L4.20815 17.28L4.91247 17.6323L5.69679 17.712L6.48015 17.4723L7.10447 16.9443L7.47247 16.24L7.53647 15.456L7.29647 14.6723L6.76847 14.048L6.06447 13.68L5.28015 13.6003L4.49615 13.8563ZM7.12015 17.8563L6.97647 17.968L6.80015 18.0483L5.76015 18.3843H9.02415L7.28047 17.7443L7.26415 17.7283L7.12015 17.8563Z" fill="#004C77"/>
<path fill-rule="evenodd" clip-rule="evenodd" d="M8.14435 1.0083L6.94435 1.5043L5.84035 2.0643L4.83235 2.6883L3.95235 3.3603L3.16835 4.0963L2.52835 4.8643L2.01635 5.6963L1.64835 6.5603L1.42435 7.4723L1.36035 8.4003L1.48835 9.3763L1.77635 10.3683L2.24035 11.3923L2.91235 12.4483L3.79235 13.5043L5.05667 12.9123L4.65667 10.6563V10.6403L4.48035 10.5763L4.30435 10.4963L4.12835 10.4003L3.32835 9.6803L2.88035 8.7203L2.83235 7.6803L3.18435 6.6563L3.68035 6.0483L4.30435 5.6163L5.02435 5.3763L5.77667 5.3283L8.14435 1.0083ZM5.80835 6.0163L5.02435 6.0643L4.32035 6.4003L3.76035 6.9923L3.48835 7.7763L3.53635 8.5603L3.87235 9.2803L4.48035 9.8243L5.24835 10.0963L6.03235 10.0483L6.75235 9.7123L7.29667 9.1043L7.56835 8.3363L7.53667 7.5523L7.20035 6.8323L6.59235 6.2883L5.80835 6.0163Z" fill="#F47D20"/>
</g>
<defs>
<clipPath id="clip0">
<rect width="24" height="24" fill="white"/>
</clipPath>
</defs>
</svg>
