<svg width="24" height="24" viewBox="0 0 24 24" fill="none" xmlns="http://www.w3.org/2000/svg">
<path d="M12 24C18.6274 24 24 18.6274 24 12C24 5.37258 18.6274 0 12 0C5.37258 0 0 5.37258 0 12C0 18.6274 5.37258 24 12 24Z" fill="#348F8D"/>
<path d="M17.484 5.28303C17.6632 5.46893 17.7633 5.71707 17.7633 5.97528C17.7633 6.23348 17.6632 6.48162 17.484 6.66753L15.1365 9.07428C15.0619 9.15048 14.9752 9.21384 14.88 9.26178C14.7077 9.359 14.5079 9.39622 14.3122 9.36757C14.1164 9.33893 13.9357 9.24605 13.7985 9.10353L11.46 6.70803L6.95621 11.3273L8.04371 12.4395C8.19977 12.6036 8.28636 12.8216 8.28539 13.0481C8.28441 13.2745 8.19593 13.4918 8.03846 13.6545C7.96161 13.734 7.86963 13.7973 7.76793 13.8407C7.66624 13.8841 7.55689 13.9067 7.44632 13.9072C7.33575 13.9077 7.22621 13.8861 7.12413 13.8436C7.02206 13.8011 6.92952 13.7386 6.85196 13.6598L5.12246 11.895C4.96373 11.7308 4.875 11.5114 4.875 11.283C4.875 11.0547 4.96373 10.8352 5.12246 10.671L5.13446 10.6598C5.13816 10.6562 5.14166 10.6525 5.14496 10.6485L10.863 4.78353H10.8637L10.8645 4.78278L10.8832 4.76328C11.0259 4.61497 11.2171 4.52275 11.422 4.50334C11.6269 4.48394 11.8319 4.53865 12 4.65753C12.054 4.69428 12.105 4.73553 12.15 4.78278L14.388 7.07253L16.1332 5.28303C16.221 5.19253 16.326 5.12058 16.4421 5.07145C16.5581 5.02231 16.6829 4.997 16.809 4.997C16.935 4.997 17.0598 5.02231 17.1759 5.07145C17.2919 5.12058 17.397 5.19253 17.4847 5.28303H17.484ZM18.8775 12.1095C19.0368 12.2726 19.126 12.4915 19.1261 12.7195C19.1263 12.9475 19.0373 13.1665 18.8782 13.3298L18.8662 13.341C18.8623 13.3446 18.8585 13.3483 18.855 13.3523L13.1145 19.2375C13.0272 19.328 12.9212 19.3982 12.8039 19.4433C12.6867 19.4884 12.5609 19.5073 12.4356 19.4987C12.3102 19.49 12.1883 19.4541 12.0783 19.3933C11.9683 19.3325 11.873 19.2483 11.799 19.1468L9.61121 16.9088L7.87646 18.6923C7.63496 18.9413 7.28246 19.0395 6.95171 18.9488C6.62096 18.858 6.36221 18.594 6.27371 18.255C6.18596 17.9168 6.28121 17.5553 6.52496 17.3085L8.87171 14.9025C9.00521 14.763 9.17696 14.6685 9.36446 14.631C9.66746 14.5635 9.98396 14.658 10.2037 14.883L12.5482 17.2815L17.0437 12.6735L15.9562 11.5613C15.8002 11.3972 15.7136 11.1792 15.7145 10.9527C15.7155 10.7263 15.804 10.509 15.9615 10.3463C16.0383 10.2668 16.1303 10.2035 16.232 10.1601C16.3337 10.1167 16.443 10.0941 16.5536 10.0936C16.6642 10.0931 16.7737 10.1147 16.8758 10.1572C16.9779 10.1997 17.0704 10.2622 17.148 10.341L18.8527 12.0848L18.8542 12.0863L18.8565 12.0878L18.8775 12.1095Z" fill="white"/>
</svg>
