<svg width="24" height="24" viewBox="0 0 24 24" fill="none" xmlns="http://www.w3.org/2000/svg">
<path fill-rule="evenodd" clip-rule="evenodd" d="M12.0194 9.70283C14.0187 9.70283 15.6395 8.10385 15.6395 6.1314C15.6395 4.85999 14.1353 2.25972 13.0661 0.572094C12.5829 -0.190698 11.456 -0.190698 10.9727 0.572094C9.90363 2.25972 8.39941 4.85999 8.39941 6.1314C8.39941 8.10385 10.0201 9.70283 12.0194 9.70283Z" fill="#667EEC"/>
<path fill-rule="evenodd" clip-rule="evenodd" d="M9.83484 11.9943C9.83484 10.0218 8.21411 8.42285 6.21482 8.42285C4.92611 8.42285 2.29046 9.90688 0.579877 10.9616C-0.193293 11.4384 -0.193293 12.5502 0.579877 13.0269C2.29046 14.0817 4.92611 15.5657 6.21482 15.5657C8.21411 15.5657 9.83484 13.9667 9.83484 11.9943Z" fill="#667EEC"/>
<path fill-rule="evenodd" clip-rule="evenodd" d="M12.0194 14.2861C10.0201 14.2861 8.39941 15.8851 8.39941 17.8575C8.39941 19.129 9.90363 21.7293 10.9727 23.4169C11.456 24.1797 12.5829 24.1797 13.0661 23.4169C14.1353 21.7293 15.6395 19.129 15.6395 17.8575C15.6395 15.8851 14.0187 14.2861 12.0194 14.2861Z" fill="#667EEC"/>
<path fill-rule="evenodd" clip-rule="evenodd" d="M23.379 10.9616C21.6684 9.90688 19.0328 8.42285 17.744 8.42285C15.7447 8.42285 14.124 10.0218 14.124 11.9943C14.124 13.9667 15.7447 15.5657 17.744 15.5657C19.0328 15.5657 21.6684 14.0817 23.379 13.0269C24.1522 12.5502 24.1522 11.4384 23.379 10.9616Z" fill="#667EEC"/>
</svg>
