<svg width="24" height="24" viewBox="0 0 24 24" fill="none" xmlns="http://www.w3.org/2000/svg">
<path d="M21.6494 5.64519C22.0861 5.89728 22.3553 6.36314 22.3553 6.8674V17.1251C22.3553 17.6293 22.0862 18.0951 21.6495 18.3472L12.7677 23.4752C12.331 23.7274 11.7929 23.7274 11.3561 23.4752L2.4743 18.3472C2.03767 18.0951 1.76855 17.6293 1.76855 17.125V6.86737C1.76855 6.36318 2.03767 5.89732 2.47429 5.64521L11.3538 0.517248C11.7905 0.265085 12.3286 0.265085 12.7654 0.51724L21.6494 5.64519ZM21.4955 5.91185L12.6114 0.783898C12.2699 0.586737 11.8492 0.586737 11.5077 0.783889L2.62827 5.91184C2.28687 6.10897 2.07646 6.47321 2.07646 6.8674V17.125C2.07646 17.5192 2.28687 17.8835 2.62826 18.0806L11.5101 23.2085C11.8515 23.4057 12.2723 23.4057 12.6138 23.2085L21.4956 18.0806C21.837 17.8835 22.0474 17.5192 22.0474 17.125V6.86744C22.0474 6.4732 21.8369 6.10895 21.4955 5.91185Z" fill="url(#paint0_linear)"/>
<path d="M20.6499 6.32029L12.6834 1.72129C12.2987 1.49915 11.8246 1.49915 11.4399 1.72129L3.47395 6.32029C3.09002 6.54212 2.85325 6.95161 2.85254 7.39502V16.5958C2.85254 17.0399 3.08944 17.4503 3.47395 17.6724L11.4405 22.2714C11.8252 22.4936 12.2992 22.4936 12.684 22.2714L20.6506 17.672C21.0351 17.4498 21.272 17.0394 21.272 16.5954V7.39502C21.2712 6.95146 21.0341 6.54194 20.6499 6.32029Z" fill="url(#paint1_linear)"/>
<path d="M6.3125 6.82706C6.50405 6.63676 6.69498 6.44626 6.88529 6.25556C7.07684 6.44649 7.26796 6.63762 7.45866 6.82893C7.26835 7.01986 7.07762 7.2106 6.88645 7.40113C6.69498 7.21021 6.50366 7.01885 6.3125 6.82706ZM8.03764 6.82776C8.22794 6.63684 8.41867 6.4461 8.60984 6.25556C8.80077 6.44587 8.99127 6.63637 9.18134 6.82706C8.99103 7.01799 8.8003 7.20873 8.60914 7.39926C8.41829 7.20896 8.22779 7.01846 8.03764 6.82776ZM14.9437 6.82589C15.134 6.63497 15.3245 6.44447 15.5152 6.25439C15.7067 6.44532 15.8978 6.63645 16.0885 6.82776C15.8982 7.01869 15.7077 7.20943 15.517 7.39997C15.3261 7.20834 15.135 7.01698 14.9437 6.82589ZM16.6651 6.82952C16.856 6.63797 17.0476 6.44641 17.2397 6.25486C17.4307 6.44517 17.6214 6.6359 17.8119 6.82706L17.2373 7.40172C17.0463 7.21102 16.8556 7.02029 16.6651 6.82952ZM7.17542 7.6894C7.36635 7.49909 7.55708 7.30859 7.74762 7.1179C7.93855 7.3082 8.12905 7.4987 8.31912 7.6894C8.12881 7.88033 7.93808 8.07106 7.74692 8.2616C7.55599 8.07122 7.36549 7.88048 7.17542 7.6894ZM8.90546 7.69057C9.09515 7.50151 9.28401 7.3119 9.47205 7.12176C9.66049 7.31206 9.84935 7.50174 10.0386 7.6908C9.84959 7.87923 9.66072 8.0679 9.47205 8.25681C9.283 8.06822 9.09413 7.87947 8.90546 7.69057ZM14.087 7.68683C14.2761 7.49711 14.4657 7.30809 14.6542 7.11708C14.8433 7.30723 15.0328 7.49738 15.2227 7.68753C15.0328 7.87659 14.8433 8.06596 14.6542 8.25564C14.4664 8.06498 14.2761 7.87655 14.087 7.68683ZM15.8059 7.68811C15.9962 7.49718 16.1867 7.30668 16.3774 7.11661C16.5683 7.30692 16.7591 7.49765 16.9496 7.68881C16.7593 7.87974 16.5688 8.07047 16.3781 8.26101C16.1878 8.06931 15.9962 7.879 15.8059 7.68811ZM6.3125 8.5522L6.88645 7.97824C7.07738 8.16917 7.26788 8.35991 7.45795 8.55045C7.26703 8.742 7.0759 8.93312 6.88458 9.12382C6.69373 8.93343 6.50304 8.74289 6.3125 8.5522ZM8.03705 8.55161C8.22798 8.36131 8.41891 8.17081 8.60984 7.98012C8.80077 8.17042 8.99127 8.36092 9.18134 8.55161C8.99103 8.74254 8.8003 8.93328 8.60914 9.12382C8.41829 8.93343 8.22759 8.7427 8.03705 8.55161ZM9.76406 8.54846C9.95249 8.3594 10.1412 8.17054 10.3301 7.98187C10.5204 8.17217 10.7104 8.36248 10.9003 8.55278C10.7118 8.74122 10.5232 8.92969 10.3343 9.1182C10.144 8.92852 9.9539 8.73861 9.76406 8.54846ZM13.2266 8.54846C13.415 8.3594 13.6035 8.17054 13.792 7.98187C13.9817 8.17093 14.171 8.36022 14.3599 8.54974C14.1702 8.73759 13.9823 8.92732 13.7926 9.11517C13.6052 8.92544 13.415 8.73759 13.2266 8.54846ZM14.9437 8.55033C15.1346 8.35878 15.3257 8.16765 15.517 7.97696C15.708 8.16726 15.8987 8.358 16.0892 8.54916C15.8983 8.74071 15.7072 8.93203 15.5159 9.12311C15.3256 8.93164 15.134 8.74134 14.9437 8.55033ZM16.6679 8.55033C16.8582 8.3594 17.0487 8.1689 17.2394 7.97883C17.4303 8.16913 17.621 8.35987 17.8116 8.55103C17.6213 8.74196 17.4308 8.93269 17.2401 9.12323C17.05 8.93164 16.8585 8.74134 16.6679 8.55033ZM11.4873 8.60889L12.0527 8.04347C12.2515 8.22758 12.4463 8.41543 12.6361 8.60889C12.4457 8.80169 12.2513 8.98993 12.0527 9.17361C11.8642 8.98518 11.6758 8.79694 11.4873 8.60889ZM7.17729 9.41442C7.36759 9.22536 7.55809 9.03607 7.74879 8.84654C7.93722 9.03622 8.12589 9.22532 8.31479 9.41383C8.12574 9.60351 7.93664 9.793 7.7475 9.98229C7.55728 9.79323 7.3672 9.60394 7.17729 9.41442ZM10.6269 9.41079C10.8153 9.22166 11.0037 9.03392 11.1923 8.84479C11.3807 9.03322 11.569 9.2217 11.757 9.41021C11.5692 9.59864 11.3801 9.78708 11.1923 9.97563C11.0038 9.78751 10.8154 9.59923 10.6269 9.41079ZM12.365 9.41079C12.552 9.22107 12.7418 9.03451 12.9291 8.84479C13.1225 9.03018 13.3073 9.22294 13.4982 9.41079C13.3084 9.59864 13.12 9.78895 12.9303 9.97738C12.7424 9.78766 12.5532 9.59993 12.365 9.41079ZM15.8145 9.41138C16.0024 9.22166 16.1908 9.03322 16.3787 8.8435C16.5696 9.03256 16.7599 9.22185 16.9496 9.41138C16.7587 9.60044 16.5682 9.78973 16.3781 9.97925C16.1908 9.78895 16.0016 9.6011 15.8145 9.41138ZM8.03951 10.273C8.22794 10.084 8.41704 9.89509 8.6068 9.70642C8.79586 9.89673 8.98554 10.0868 9.17584 10.2768C8.98741 10.4658 8.79874 10.6545 8.60984 10.8428C8.41953 10.6532 8.22942 10.4633 8.03951 10.273ZM11.4885 10.2717C11.6763 10.0833 11.8643 9.89524 12.0526 9.70759C12.251 9.89111 12.4454 10.0794 12.6359 10.2723C12.4463 10.4657 12.2521 10.6538 12.0533 10.8364C11.8648 10.6481 11.6765 10.4598 11.4885 10.2717ZM14.9523 10.273C15.1401 10.0846 15.3282 9.89673 15.5165 9.70946C15.7049 9.89789 15.8936 10.0857 16.0825 10.273C15.8933 10.46 15.7049 10.6487 15.5165 10.836C15.3292 10.6474 15.1402 10.4609 14.9523 10.273ZM8.90243 11.1352C9.09086 10.9462 9.27953 10.7577 9.46843 10.5698C9.65624 10.7576 9.84409 10.9457 10.032 11.1339C9.84417 11.3224 9.65593 11.511 9.46726 11.6999C9.27937 11.5115 9.09109 11.3233 8.90243 11.1352ZM14.0882 11.1352C14.2767 10.9468 14.4653 10.7583 14.6542 10.5698C14.8427 10.7576 15.0307 10.9461 15.2184 11.1352C15.0306 11.3237 14.8425 11.5121 14.6542 11.7006C14.4664 11.5115 14.2767 11.3238 14.0882 11.1352ZM8.04103 11.9963C8.22946 11.8072 8.41813 11.6187 8.60703 11.4309C8.79484 11.6193 8.98289 11.8078 9.17117 11.9963C8.98336 12.1847 8.79531 12.3732 8.60703 12.5617C8.41774 12.3732 8.22907 12.1847 8.04103 11.9963ZM9.76406 11.9963C9.95249 11.8078 10.141 11.6196 10.3295 11.4316C10.5173 11.62 10.7052 11.8082 10.8933 11.9963C10.7062 12.1847 10.5184 12.373 10.3297 12.561C10.141 12.3726 9.95249 12.1843 9.76406 11.9963ZM13.2259 11.9963C13.4143 11.8066 13.6046 11.6187 13.7932 11.429C13.9823 11.6174 14.1708 11.8077 14.3598 11.9963C14.1707 12.1847 13.9819 12.3738 13.7932 12.5636C13.6052 12.3738 13.4145 12.186 13.2259 11.9963ZM14.9011 11.9963C15.0945 11.8146 15.267 11.6083 15.4745 11.442C15.6531 11.6336 15.8514 11.8066 16.0326 11.9963C15.8515 12.1847 15.6563 12.3587 15.4764 12.5487C15.2651 12.388 15.0965 12.1768 14.9011 11.9963ZM8.90243 12.8573L9.46714 12.2926C9.65558 12.4817 9.84401 12.6695 10.0319 12.8586C9.84405 13.047 9.6562 13.2351 9.46831 13.4227C9.27988 13.2342 9.09125 13.0458 8.90243 12.8573ZM14.0888 12.8573C14.2767 12.6689 14.4664 12.481 14.6542 12.2919C14.8427 12.4803 15.0309 12.6688 15.219 12.8573C15.0298 13.0452 14.8438 13.2361 14.653 13.4215C14.4651 13.233 14.2767 13.0458 14.0888 12.8573ZM8.03951 13.7195C8.22919 13.5292 8.4193 13.3393 8.60984 13.1498C8.7989 13.3382 8.98756 13.5269 9.17584 13.7158C8.98616 13.9061 8.79648 14.0962 8.6068 14.2861C8.41704 14.0977 8.22794 13.9088 8.03951 13.7195ZM11.486 13.7208C11.6751 13.5318 11.8642 13.3429 12.0533 13.1542C12.2535 13.3378 12.4486 13.5262 12.6384 13.7197C12.4481 13.9145 12.2528 14.104 12.0526 14.2881C11.8636 14.099 11.6747 13.9099 11.486 13.7208ZM14.9523 13.7201C15.1402 13.5317 15.3292 13.3444 15.5165 13.1566C15.7055 13.3444 15.8944 13.532 16.083 13.7195C15.8946 13.9074 15.7058 14.0952 15.5165 14.2831C15.3286 14.0952 15.1405 13.9075 14.9523 13.7201ZM7.1767 14.5781C7.36701 14.3891 7.55731 14.1998 7.74762 14.0103C7.93668 14.1993 8.12577 14.3888 8.31491 14.5787C8.12577 14.7672 7.93707 14.9564 7.74879 15.1466C7.5579 14.9575 7.36759 14.7667 7.1767 14.5781ZM10.6238 14.5818C10.8135 14.3921 11.003 14.2028 11.1923 14.0139C11.382 14.2029 11.5716 14.3922 11.7613 14.5818C11.5723 14.7714 11.383 14.9611 11.1934 15.1508C11.0031 14.9617 10.8133 14.7721 10.6238 14.5818ZM12.3612 14.5818C12.551 14.3915 12.7418 14.2023 12.931 14.012C13.1207 14.2011 13.3104 14.3915 13.5007 14.5799C13.3104 14.7702 13.1203 14.9607 12.9304 15.1514C12.7406 14.9618 12.5509 14.7719 12.3612 14.5818ZM15.814 14.5812C16.001 14.3915 16.1908 14.2024 16.3781 14.0121C16.5684 14.2018 16.7591 14.3915 16.9503 14.5812C16.76 14.7709 16.5695 14.9603 16.3788 15.1496C16.1908 14.9599 16.0016 14.7709 15.814 14.5812ZM11.4836 15.3837C11.6733 15.1946 11.8629 15.0051 12.0526 14.8152C12.2535 14.9993 12.4487 15.1893 12.6408 15.3831C12.4493 15.5783 12.2535 15.7686 12.0533 15.954C11.863 15.7637 11.6731 15.5736 11.4836 15.3837ZM6.3125 15.4409L6.8847 14.8687C7.07625 15.0597 7.26738 15.2508 7.45807 15.4421C7.26777 15.633 7.07727 15.8238 6.88657 16.0143C6.69502 15.8228 6.50366 15.6317 6.3125 15.4409ZM8.03705 15.4404C8.22798 15.25 8.41871 15.0595 8.60925 14.8689C8.80018 15.0592 8.99091 15.2499 9.18145 15.4411C8.99115 15.632 8.80065 15.8225 8.60995 16.0126C8.41895 15.8222 8.22798 15.6315 8.03705 15.4404ZM9.76032 15.4434C9.95191 15.2531 10.1428 15.0615 10.3343 14.8712C10.524 15.0609 10.7139 15.2506 10.904 15.4402C10.7131 15.6324 10.5222 15.824 10.3312 16.0149C10.1409 15.8247 9.95062 15.6342 9.76032 15.4434ZM13.2223 15.4441C13.4126 15.2532 13.6042 15.0635 13.7932 14.8726C13.9835 15.0629 14.174 15.2528 14.3647 15.4423C14.1738 15.6333 13.983 15.8242 13.7925 16.0151C13.6023 15.8247 13.4122 15.6344 13.2223 15.4441ZM14.9437 15.4422C15.134 15.2513 15.3256 15.0603 15.5159 14.8694C15.7068 15.061 15.8979 15.2523 16.0892 15.4434L15.517 16.0156C15.3257 15.8247 15.1346 15.6335 14.9437 15.4422ZM16.6679 15.4422C16.8582 15.2513 17.0498 15.0603 17.2401 14.8694C17.4304 15.0604 17.6209 15.2511 17.8116 15.4416C17.6213 15.6326 17.4305 15.8233 17.2394 16.0138C17.0487 15.8235 16.8582 15.6329 16.6679 15.4422ZM7.17483 16.3026C7.36576 16.1123 7.5565 15.9218 7.74704 15.7311C7.93796 15.9214 8.1287 16.1121 8.31924 16.3033C8.12893 16.4942 7.93843 16.6847 7.74774 16.8748C7.55673 16.6845 7.36576 16.4937 7.17483 16.3026ZM8.90055 16.3032C9.09024 16.1122 9.28054 15.9219 9.47147 15.7322C9.6624 15.9219 9.8529 16.1122 10.043 16.3032C9.85266 16.4935 9.66236 16.6851 9.47205 16.8754C9.28116 16.6851 9.09086 16.4936 8.90055 16.3032ZM14.082 16.3044C14.2723 16.1135 14.4633 15.9226 14.6548 15.7317C14.8458 15.9232 15.0369 16.1141 15.2282 16.3044C15.0366 16.4954 14.8455 16.6867 14.6548 16.8784C14.4633 16.6875 14.2723 16.4962 14.082 16.3044ZM15.8059 16.3044C15.9962 16.1136 16.1878 15.9225 16.3781 15.7317C16.5684 15.9226 16.7589 16.1133 16.9496 16.3039C16.7593 16.4948 16.5686 16.6855 16.3774 16.8761C16.1865 16.6855 15.996 16.495 15.8059 16.3044ZM6.31437 17.163C6.50468 16.9721 6.69541 16.7814 6.88657 16.5908L7.45877 17.163L6.88657 17.7352C6.69564 17.5453 6.50491 17.3546 6.31437 17.163ZM8.03705 17.1648C8.22798 16.9745 8.41871 16.784 8.60925 16.5933C8.80018 16.7836 8.99091 16.9743 9.18145 17.1655C8.99115 17.3564 8.80065 17.5469 8.60995 17.737C8.41895 17.5467 8.22798 17.3559 8.03705 17.1648ZM14.9437 17.1667C15.1346 16.9751 15.3257 16.7838 15.517 16.5927C15.7073 16.7836 15.8978 16.9744 16.0885 17.1649C15.8976 17.3565 15.7065 17.5476 15.5152 17.7383C15.3242 17.548 15.1337 17.3574 14.9437 17.1667ZM16.6651 17.163C16.8554 16.9721 17.0461 16.7814 17.2373 16.5908L17.8119 17.1655C17.6216 17.3564 17.4309 17.5472 17.2397 17.7377C17.0476 17.5465 16.856 17.355 16.6651 17.163Z" fill="white"/>
<defs>
<linearGradient id="paint0_linear" x1="4.07862" y1="6.0844" x2="21.1795" y2="15.9399" gradientUnits="userSpaceOnUse">
<stop stop-color="#0071BC"/>
<stop offset="1" stop-color="#662D91"/>
</linearGradient>
<linearGradient id="paint1_linear" x1="5.05064" y1="6.83825" x2="20.1873" y2="15.5374" gradientUnits="userSpaceOnUse">
<stop stop-color="#0071BC"/>
<stop offset="1" stop-color="#662D91"/>
</linearGradient>
</defs>
</svg>
