<svg width="24" height="25" fill="none" xmlns="http://www.w3.org/2000/svg"><g clip-path="url(#a)" fill="#fff"><path fill-rule="evenodd" clip-rule="evenodd" d="M12 .5C5.373.5 0 5.779 0 12.291c0 5.21 3.438 9.63 8.206 11.189.6.109.82-.256.82-.568 0-.28-.01-1.21-.016-2.195-3.339.713-4.044-1.391-4.044-1.391-.545-1.363-1.331-1.725-1.331-1.725-1.09-.732.082-.717.082-.717 1.205.083 1.84 1.215 1.84 1.215 1.07 1.802 2.807 1.281 3.491.98.106-.762.419-1.282.762-1.576-2.665-.298-5.467-1.31-5.467-5.828 0-1.287.469-2.34 1.236-3.167-.124-.297-.535-1.496.117-3.12 0 0 1.007-.317 3.3 1.209a11.583 11.583 0 0 1 6.01 0c2.29-1.526 3.297-1.209 3.297-1.209.653 1.624.242 2.823.117 3.12.77.826 1.236 1.878 1.236 3.167 0 4.53-2.808 5.526-5.48 5.818.43.364.814 1.084.814 2.184 0 1.577-.014 2.847-.014 3.235 0 .314.216.682.824.566 4.766-1.56 8.2-5.979 8.2-11.187C24 5.78 18.627.5 12 .5Z"/><path d="M4.544 17.43c-.027.058-.12.076-.206.035-.085-.04-.136-.118-.105-.177.03-.058.119-.077.206-.037s.137.12.106.178h-.001ZM5.032 17.962c-.058.052-.17.028-.246-.055-.076-.082-.093-.192-.034-.244.058-.053.167-.028.245.054.078.082.094.192.035.245ZM5.505 18.641c-.074.052-.194.003-.269-.104-.074-.107-.073-.23 0-.28.074-.051.193-.005.269.098.075.104.073.233 0 .284v.002ZM6.152 19.297c-.066.072-.206.052-.308-.045-.103-.097-.134-.23-.068-.301.066-.071.207-.052.31.045.103.097.136.23.066.301ZM7.047 19.678c-.03.093-.164.135-.3.095-.135-.039-.224-.148-.197-.241.027-.094.164-.137.3-.095.137.042.225.147.197.241ZM8.03 19.749c.003.097-.112.178-.254.18-.143.001-.26-.076-.261-.172-.002-.096.112-.178.256-.18.144-.002.26.075.26.172ZM8.943 19.596c.016.095-.083.192-.224.218-.142.026-.268-.034-.286-.128-.018-.094.083-.194.223-.22.14-.024.269.033.287.13Z"/></g><defs><clipPath id="a"><path fill="#fff" transform="translate(0 .5)" d="M0 0h24v23H0z"/></clipPath></defs></svg>