<svg width="24" height="24" fill="none" xmlns="http://www.w3.org/2000/svg"><path d="M23.984 12.004c0 6.594-5.346 11.94-11.94 11.94-6.595 0-11.94-5.346-11.94-11.94 0-6.595 5.345-11.94 11.94-11.94 6.594 0 11.94 5.345 11.94 11.94Z" fill="#008EBD"/><path d="M16.912 12.616h-1.74l-3.627-2.41c-.024-.015-.05-.027-.075-.04-.003 0-.007-.003-.01-.004l-.04-.02a.648.648 0 0 0-.265-.056h-1.022a.653.653 0 0 0 0 1.305h.837l3.64 2.418a.647.647 0 0 0 .398.106.652.652 0 0 0 .084.006h1.82a.653.653 0 1 0 0-1.305Zm-5.552 0h-1.07l-3.556-2.362a.65.65 0 0 0-.436-.168H5.276a.653.653 0 0 0 0 1.305h.811l3.557 2.363a.65.65 0 0 0 .436.167h1.28a.653.653 0 0 0 0-1.305Zm8.026-2.188a.653.653 0 0 0-.574-.342h-3.701a.653.653 0 1 0 0 1.305h3.049v.546a.653.653 0 0 0 1.305 0V10.74a.65.65 0 0 0-.079-.312Zm-12.99 2.188h-1.12a.653.653 0 1 0 0 1.305h1.12a.653.653 0 0 0 0-1.305Z" fill="#fff"/></svg>