<svg width="24" height="24" fill="none" xmlns="http://www.w3.org/2000/svg"><path d="M12 24c6.627 0 12-5.373 12-12S18.627 0 12 0 0 5.373 0 12s5.373 12 12 12Z" fill="#346FCE"/><path fill-rule="evenodd" clip-rule="evenodd" d="m15.12 14.03.717 1.347a3.277 3.277 0 0 1-1.354 4.431l-.093.05a3.276 3.276 0 0 1-4.432-1.355l-2.417-4.546a3.277 3.277 0 0 1 1.194-4.34l-.717-1.348a3.277 3.277 0 0 1 1.355-4.431l.093-.05a3.277 3.277 0 0 1 4.431 1.355l2.417 4.546a3.277 3.277 0 0 1-1.193 4.34Zm0 0-1.7-3.2a3.277 3.277 0 0 0-4.43-1.354l-.094.049c-.055.03-.109.06-.161.091l1.7 3.2a3.277 3.277 0 0 0 4.432 1.354l.093-.05a4.7 4.7 0 0 0 .161-.09Z" fill="#fff"/></svg>