<svg width="24" height="24" viewBox="0 0 24 24" fill="none" xmlns="http://www.w3.org/2000/svg">
<path d="M4.7998 9.87695V15.9118H9.63462C9.65914 15.5886 9.75642 15.2752 9.91919 14.9949L4.7998 9.87695Z" fill="#B9BEC1"/>
<path d="M4.7998 0V8.25516L10.7357 14.1911C11.0342 14.0235 11.3685 13.9297 11.7106 13.9177V6.17408L4.7998 0Z" fill="#DE575B"/>
<path d="M6.53284 21.3409L9.92394 18.1044C9.70017 17.7706 9.55276 17.3916 9.49222 16.9944H4.81152C4.89871 18.5916 5.50285 20.1171 6.53284 21.3409ZM12.7473 9.19141V13.8856C13.0929 13.9545 13.4219 14.0898 13.7161 14.2839L17.0381 10.9619C15.8356 9.92543 14.3308 9.30451 12.7473 9.19141ZM11.7163 19.2816C11.3464 19.2148 10.9941 19.0726 10.6815 18.8638L7.28023 22.1106C8.50972 23.2086 10.0714 23.8634 11.7163 23.9707V19.2816ZM14.4788 15.0336C14.6635 15.3047 14.7979 15.6067 14.8757 15.9253H19.5871C19.4516 14.3681 18.825 12.8942 17.7975 11.7163L14.4788 15.0336ZM13.7978 18.8183C13.519 19.0167 13.2055 19.1611 12.8736 19.244V23.9572C14.4076 23.8211 15.8606 23.208 17.0283 22.2039L13.7978 18.8183ZM14.9231 16.9954C14.8714 17.3375 14.755 17.6666 14.58 17.9651L17.8439 21.3854C18.8964 20.1549 19.5146 18.6122 19.6033 16.9954H14.9231Z" fill="#B9BEC1"/>
</svg>
