<svg width="24" height="24" viewBox="0 0 24 24" fill="none" xmlns="http://www.w3.org/2000/svg">
<path fill-rule="evenodd" clip-rule="evenodd" d="M8.57471 17.8995C8.5695 17.8965 8.56439 17.8932 8.55913 17.8901L13.0981 14.3259L9.98059 10.3557L5.43202 13.9274C5.24523 13.3035 5.14412 12.6426 5.14412 11.9579C5.14412 8.23425 8.1116 5.20383 11.8106 5.10217L8.27394 0.584961C3.47173 2.14546 0 6.65641 0 11.979C0 18.5949 5.36317 23.958 11.979 23.958C12.3896 23.958 12.7953 23.9372 13.1951 23.8969L8.52817 17.936L8.57471 17.8995Z" fill="#EE0766"/>
<path fill-rule="evenodd" clip-rule="evenodd" d="M20.5195 18.6472C19.5013 19.9408 18.2023 21.0132 16.7246 21.7141C16.3481 21.9002 15.9708 22.0866 15.9708 22.0866L13.9415 19.5891L14.9123 19.254C16.1758 18.6877 17.318 17.8196 18.1791 16.7395C18.3944 16.4695 18.5921 16.1863 18.7699 15.891C19.7279 14.2912 19.8978 12.3581 19.6803 10.4644C19.6691 10.3674 19.6818 10.225 19.6614 10.13C19.5429 9.29276 19.033 8.88706 18.3418 8.98161C18.1894 9.00962 18.1017 9.07155 18.1017 9.07155L14.1869 12.228L12.1988 9.76224L16.119 6.60135C16.8852 5.92595 16.1945 5.22539 15.7396 4.67168C15.7396 4.67168 15.6762 4.59267 15.5811 4.47417C15.296 4.11878 14.7257 3.408 14.7257 3.408L12.8834 1.09268L13.7681 1.2255C13.7681 1.2255 14.1034 1.29921 14.4391 1.37291C16.0031 1.7268 17.4648 2.44304 18.7083 3.43395C18.957 3.63227 19.197 3.84155 19.428 4.06146C20.3507 4.94215 21.1606 5.95516 21.7534 7.07344C21.9016 7.35297 22.0362 7.63921 22.1557 7.93152C23.265 11.1507 23.1156 14.9846 21.0959 17.8458C20.9155 18.121 20.7231 18.3886 20.5195 18.6472ZM11.9788 0C11.5743 0 11.1745 0.0203424 10.7803 0.059524L15.4525 6.02981L10.9222 9.58722L14.0398 13.5574L18.5753 9.99597C18.7605 10.6176 18.861 11.2759 18.861 11.9579C18.861 15.7019 15.8611 18.7447 12.1339 18.8148L15.6988 23.3681C20.4933 21.8032 23.9578 17.2961 23.9578 11.979C23.9578 5.36317 18.5946 0 11.9788 0Z" fill="#EE0766"/>
</svg>
