<svg width="24" height="24" fill="none" xmlns="http://www.w3.org/2000/svg"><path d="M20.463 3.755c.62.277 1.064 1.112 1.004 1.732-.078.806-.485 1.456-.948 2.076-1.258 1.688-2.89 2.972-4.596 4.166a32.95 32.95 0 0 1-5.473 3.089c-1.06.473-2.16.869-3.264 1.229-.878.285-1.775.511-2.683.676-.81.148-1.643.214-2.463.03-.484-.108-.966-.267-1.255-.71-.146-.223-.23-.49-.32-.745-.062-.177-.086-.368-.14-.612.29.269.475.522.726.654.321.17.692.331 1.045.338.791.016 1.604.029 2.373-.128a23.38 23.38 0 0 0 3.41-.953 33.052 33.052 0 0 0 8.554-4.68c1.18-.894 2.284-1.876 3.203-3.048.422-.54.803-1.117.965-1.781.08-.33-.038-.71-.072-1.066-.007-.075-.036-.148-.067-.267" fill="#3C7CA8"/><path d="M18.518 2.143c.808.285 1.545 1.052 1.303 1.934-.322 1.174-1.06 2.058-1.87 2.893-1.581 1.628-3.429 2.91-5.374 4.06a31.648 31.648 0 0 1-4.27 2.113c-.852.344-1.745.587-2.618.881-.934.316-1.902.464-2.879.532-.642.046-1.282-.015-1.888-.287-.578-.26-.855-.706-.887-1.32-.013-.23 0-.46.035-.686.205.495.56.82 1.035.994.706.257 1.435.374 2.189.25.41-.066.824-.11 1.229-.2a12.21 12.21 0 0 0 1.42-.377 39.31 39.31 0 0 0 2.02-.79c1.732-.715 3.356-1.636 4.922-2.659 1.558-1.017 3.04-2.13 4.334-3.476.625-.65 1.224-1.327 1.543-2.194.195-.532.26-1.057-.18-1.518-.027-.028-.05-.061-.071-.093-.004-.006.002-.019.007-.057Z" fill="#D87E3A"/><path d="M1.302 17.24c.078.037.137.05.175.084.398.36.879.462 1.395.552.677.118 1.335.001 1.996-.042.503-.033 1.001-.19 1.495-.317.586-.151 1.173-.305 1.746-.5a32.8 32.8 0 0 0 2.356-.882c1.839-.79 3.618-1.704 5.272-2.831 1.115-.76 2.176-1.601 3.252-2.417.34-.258.582-.307.781-.098.253.264.264.675-.023.934-.463.417-.94.82-1.436 1.198-2.121 1.62-4.418 2.95-6.845 4.053-1.393.632-2.822 1.187-4.31 1.544-.924.222-1.872.358-2.817.462a3.94 3.94 0 0 1-1.984-.308c-.555-.236-.815-.723-1.05-1.231-.022-.047-.003-.113-.003-.201Z" fill="#EAB600"/><path d="M1.09 7.32c.006.1.039.206.015.297-.118.454.095.887.54 1.019.64.19 1.29.19 1.94.047.546-.12 1.102-.217 1.633-.39.8-.26 1.601-.535 2.366-.883 1.597-.725 3.105-1.611 4.483-2.704.928-.737 1.809-1.517 2.397-2.574.198-.357.257-.73.187-1.117-.025-.138-.154-.266-.258-.377-.083-.088-.201-.143-.377-.263.153-.033.24-.082.304-.061.354.113.724.203 1.047.376.435.233.57.779.416 1.253-.35 1.082-1.113 1.86-1.912 2.604-1.415 1.317-3.015 2.378-4.737 3.243-1.034.52-2.101.983-3.18 1.404-.623.243-1.293.379-1.952.516-.55.114-1.113.21-1.672.218-.382.005-.784-.112-1.145-.253-.484-.19-.723-.716-.592-1.29.085-.372.266-.72.404-1.08l.092.015Z" fill="#3C7CA8"/><path d="M16.446.937c.37.198.784.34 1.098.605.508.426.52.918.268 1.577-.427 1.116-1.226 1.966-2.082 2.76-1.665 1.54-3.537 2.792-5.55 3.824-.99.507-2.01.96-3.032 1.4-.572.247-1.176.42-1.769.619a.328.328 0 0 1-.228-.02c-.242-.123-.317-.337-.307-.598.009-.26.132-.459.367-.528 1.612-.474 3.143-1.138 4.622-1.929 1.893-1.011 3.672-2.185 5.227-3.676.673-.646 1.284-1.34 1.665-2.213.314-.717.28-1.005-.261-1.582-.039-.04-.058-.1-.085-.152l.067-.087Z" fill="#EAB600"/><path d="M6.405 22.547c.1-.005.186-.027.265-.012.347.066.69.152 1.038.211.155.027.32.023.477.003.57-.07 1.144-.122 1.704-.24a14.924 14.924 0 0 0 1.607-.46c.713-.236 1.441-.446 2.118-.763 1.257-.59 2.509-1.2 3.712-1.89 1.86-1.068 3.59-2.324 5.038-3.927.52-.576.95-1.214 1.25-1.934.065-.158.108-.325.197-.477.087 1.151-.377 2.092-1.091 2.934-1.38 1.626-3.063 2.89-4.888 3.953a43.176 43.176 0 0 1-3.933 2.003c-.853.386-1.777.621-2.673.911a9.387 9.387 0 0 1-2.684.437c-.755.018-1.44-.273-2.091-.635-.02-.01-.022-.05-.046-.114Zm16.88-14.381c.152.583.431 1.133.235 1.784-.4 1.324-1.294 2.3-2.245 3.228-1.886 1.844-4.069 3.28-6.374 4.538a2.405 2.405 0 0 1-.595.245c-.255.06-.5-.027-.584-.291-.086-.269.003-.51.273-.655.292-.158.584-.315.873-.48 2.373-1.36 4.632-2.875 6.522-4.88.645-.683 1.243-1.411 1.57-2.311.099-.273.134-.57.192-.857.02-.101.019-.207.027-.311l.106-.01ZM9.751 2.12c.058-.117.109-.214.154-.313.1-.214.23-.421.283-.645.063-.264-.08-.392-.363-.43-.883-.116-1.694.152-2.458.513-.787.373-1.543.818-2.277 1.284-.548.347-1.05.766-1.34 1.375-.196.412-.05.667.421.701.86.063 1.638-.226 2.406-.54.4-.164.78-.378 1.167-.573.243-.122.39-.04.606.253.186.252-.026.343-.165.409-.746.352-1.499.692-2.257 1.018-.65.28-1.343.414-2.047.456-.231.014-.485-.056-.702-.148-.372-.158-.472-.578-.275-.995.289-.613.779-1.064 1.289-1.492C5.263 2.093 6.436 1.36 7.78.91c.44-.147.864-.358 1.314-.446.533-.104 1.1-.201 1.627-.129.701.096.868.574.49 1.305-.071.14-.175.267-.276.39-.219.269-.453.323-.784.202-.104-.037-.213-.06-.4-.112" fill="#3C7CA8"/><path d="M23.316 15.725c-.047.175-.077.356-.144.523-.453 1.125-1.246 1.992-2.14 2.776-1.822 1.596-3.886 2.793-6.122 3.699-.745.302-1.5.59-2.275.8a9.66 9.66 0 0 1-2.043.325c-.548.026-1.104-.115-1.657-.182l-.001-.112c.054-.022.108-.059.164-.062.16-.01.32-.013.479-.006.83.037 1.626-.128 2.425-.34 2.387-.63 4.56-1.72 6.63-3.033 1.287-.816 2.5-1.74 3.52-2.882.39-.436.682-.96 1.02-1.445.02-.03.046-.056.069-.084l.075.023Z" fill="#EAB600"/><path d="M11.269.085c.539.039 1.107-.017 1.609.14.693.216.9.729.495 1.53-.454.899-1.19 1.554-1.94 2.188-.384.325-.799.615-1.22.891-.127.084-.354.141-.474.084-.164-.079-.312-.263-.38-.436-.03-.07.148-.25.261-.347.656-.56 1.348-1.08 1.97-1.674.306-.29.524-.691.716-1.075.235-.472.075-.967-.48-1.025-.19-.02-.371-.118-.557-.18V.085Zm-6.91 21.112c.373.093.725.17 1.07.268.55.156 1.098.122 1.652.016.377-.072.764-.092 1.143-.162.384-.071.769-.155 1.143-.268.57-.171 1.13-.37 1.694-.561.287-.097.57-.2.853-.31.27-.106.619-.015.765.225.143.236-.014.4-.192.487-.318.155-.652.28-.99.387-.75.24-1.499.488-2.261.68a9.175 9.175 0 0 1-3.072.263c-.663-.06-1.198-.434-1.698-.847-.05-.04-.071-.115-.108-.177Zm19.41-10.548c.041.157.1.311.12.47.112.909-.223 1.683-.736 2.401-.99 1.383-2.273 2.462-3.617 3.477-.161.12-.332.193-.503.006-.15-.166-.155-.53.034-.709.272-.256.574-.48.864-.715 1.235-.999 2.42-2.047 3.255-3.425.245-.404.474-.819.456-1.318-.002-.06.036-.121.056-.182l.071-.005ZM2.514 4.873c-.12.312-.249.603-.34.906-.098.321.088.609.403.72.673.24 1.335.08 1.995-.045.308-.058.601-.197.91-.25.09-.016.277.114.305.21.122.416-.098.767-.542.894-.828.239-1.667.419-2.534.361a1.927 1.927 0 0 1-.703-.183c-.473-.23-.679-.714-.443-1.22.225-.485.57-.913.864-1.364.011-.017.047-.017.085-.03Z" fill="#D87E3A"/><path d="M2.58 19.32c.232.123.45.27.691.358.263.097.543.183.819.198.546.03 1.096.012 1.644.006a.944.944 0 0 0 .319-.056c.493-.187.879.068 1.13.46.104.162-.025.378-.256.394-.753.05-1.508.134-2.26.108-.906-.032-1.557-.56-2.058-1.286a.41.41 0 0 1-.05-.107c-.005-.015.01-.036.02-.075Zm9.156 4.593c.251-.062.499-.142.753-.183 2.488-.404 4.642-1.574 6.713-2.93.33-.215.632-.471.953-.7.078-.055.18-.075.314-.129-.024.352-.209.539-.415.675-.94.62-1.862 1.28-2.852 1.811-.876.472-1.818.836-2.758 1.17-.865.307-1.773.44-2.708.286Z" fill="#3C7CA8"/><path d="M.369 9.608c.014.135.044.27.04.405-.01.307.126.523.37.694a.81.81 0 0 1 .2 1.14c-.037.053-.217.066-.286.023-.552-.338-.75-.96-.554-1.672.055-.198.108-.397.162-.596l.068.006Zm22.322-2.23c-.509-.432-.604-.982-.647-1.563.356.162.758 1.076.647 1.563Z" fill="#EAB600"/></svg>