<svg width="24" height="24" fill="none" xmlns="http://www.w3.org/2000/svg"><path d="M12 24c6.627 0 12-5.373 12-12S18.627 0 12 0 0 5.373 0 12s5.373 12 12 12Z" fill="#FAA00D"/><path d="m19.494 10.853-7.102 8.258-.319.389-7.568-8.563.024-.01-.029-.005 2.941-4.918.002.002L7.441 6h9.191l-.002.005 2.87 4.847-.006.001Zm-9.852.345-1.627 2.755 4.013 4.584 4.023-4.621-1.592-2.727-4.817.008Zm-2.083 2.234 1.32-2.234-3.272.005 1.952 2.23Zm7.292-2.884 3.715-.006-2.332-3.906-3.662.008 2.279 3.904Zm3.578.634-3.205.006 1.285 2.201 1.92-2.207Zm-4.343-.633-2.018-3.458-2.048 3.465 4.066-.006Zm-6.3-3.895-2.324 3.91 3.795-.007 2.31-3.91-3.78.007Z" fill="#fff"/></svg>