<svg width="24" height="24" viewBox="0 0 24 24" fill="none" xmlns="http://www.w3.org/2000/svg">
<path d="M23.6142 14.9029C23.0385 17.2014 21.7945 19.2777 20.0392 20.8694C18.284 22.4611 16.0963 23.4968 13.7526 23.8456C11.4089 24.1944 9.01446 23.8407 6.87176 22.8291C4.72906 21.8175 2.93429 20.1935 1.71425 18.1623C0.49421 16.131 -0.0963532 13.7837 0.0171896 11.4169C0.130732 9.05019 0.943285 6.77019 2.35217 4.86507C3.76106 2.95995 5.70305 1.5152 7.93274 0.713391C10.1624 -0.0884202 12.5798 -0.21131 14.8793 0.36025C16.4111 0.735606 17.8535 1.41059 19.1231 2.34625C20.3927 3.28191 21.4645 4.45973 22.2765 5.81175C23.0886 7.16376 23.6249 8.6632 23.8545 10.2236C24.0841 11.7839 24.0024 13.3743 23.6142 14.9029Z" fill="#3578C6"/>
<path d="M4.10254 7.09727L11.5109 3.19678L19.7138 7.09727L11.9082 10.9072L4.10254 7.09727Z" fill="white"/>
<path d="M12.1611 11.2789L19.9668 7.32959V17.0169L12.1611 20.8965V11.2789Z" fill="white"/>
</svg>
