<svg width="25" height="24" fill="none" xmlns="http://www.w3.org/2000/svg"><path opacity=".5" d="M11 6c1.24 1.16 1.48 2.42 1.5 4.5 0 .56.7 2.92 1.24 3 .06.02 1.72-1.46 1.78-1.46.62 0 .46-1.42.48-2.04 0-.06-.5 1.56-.5 1.5 0-.08.82-.3.84-.5 0-.18-2.96 1.88-2.84 2 1.06 1.16-1.6-.52-1.6 1 0 1.3-.84-.52-1.9.5-1.08 1.04 3.88.5 2.5.5s1.58.02.5-1c-1.06-1.02 1.5 2.8 1.5 1.5 0-2.06-1.06.74.04-.5 1.26-1.42-3.32-8.44-3.2-9.38.02-.16-.66-.12-.34-.12V6Zm-.32-2c-.14 0-.26.06-.34.18-.08.14.04.44.18.82.28.86-.58 2.24-1.8 3.62-1.14 1.3-2.56 2.9-2.56 5.28 0 3.2 3.02 6.1 6.34 6.1s6.34-2.9 6.34-6.1c0-2.02-.96-4.02-2.56-5.36l-.2-.16a.49.49 0 0 0-.32-.12c-.18 0-.36.1-.44.28-.06.14-.12 1.54-.12 1.78v.14c0 .18-.14.32-.32.32h-.06c-.16-.02-.28-.18-.28-.34-.02-2.4-.74-4.08-2.1-5.34-.62-.58-1.32-1.1-1.76-1.1Z" fill="url(#a)"/><path d="M11.9 5.68c1.24 1.16 1.82 2.66 1.84 4.74 0 .56.4 1.04.94 1.12.06.02.12.02.18.02.62 0 1.1-.48 1.12-1.1v-.16c0-.08 0-.26.02-.46 0-.18.22-.26.34-.14 1.06 1.16 1.68 2.66 1.68 4.18 0 1.3-.62 2.64-1.68 3.66-1.08 1.04-2.48 1.62-3.86 1.62s-2.78-.6-3.86-1.62c-1.06-1.02-1.68-2.36-1.68-3.66 0-2.06 1.26-3.5 2.36-4.74 1.26-1.42 1.92-2.58 2.04-3.52.02-.16.2-.22.32-.12l.24.18ZM10.68 4c-.14 0-.26.06-.34.18-.08.14.04.44.18.82.28.86-.58 2.24-1.8 3.62-1.14 1.3-2.56 2.9-2.56 5.28 0 3.2 3.02 6.1 6.34 6.1s6.34-2.9 6.34-6.1c0-2.02-.96-4.02-2.56-5.36l-.2-.16a.49.49 0 0 0-.32-.12c-.18 0-.36.1-.44.28-.06.14-.12 1.54-.12 1.78v.14c0 .18-.14.32-.32.32h-.06c-.16-.02-.28-.18-.28-.34-.02-2.4-.74-4.08-2.1-5.34-.62-.58-1.32-1.1-1.76-1.1Z" fill="url(#b)"/><defs><linearGradient id="a" x1="6.16" y1="3.805" x2="21.24" y2="18.149" gradientUnits="userSpaceOnUse"><stop stop-color="#04AB8D"/><stop offset=".542" stop-color="#79FFCF"/><stop offset="1" stop-color="#00B78B"/></linearGradient><linearGradient id="b" x1="6.16" y1="3.805" x2="21.24" y2="18.149" gradientUnits="userSpaceOnUse"><stop stop-color="#04AB8D"/><stop offset=".542" stop-color="#79FFCF"/><stop offset="1" stop-color="#00B78B"/></linearGradient></defs></svg>