<svg width="24" height="24" fill="none" xmlns="http://www.w3.org/2000/svg"><path d="M12 24c6.627 0 12-5.373 12-12S18.627 0 12 0 0 5.373 0 12s5.373 12 12 12Z" fill="#77C3B0"/><path d="m19.258 9.962-1.266-1.266a2.036 2.036 0 0 0-1.452-.6h-.195v-.202c0-.355-.084-.692-.26-.996a1.781 1.781 0 0 0-.356-.473L14.463 5.16a2.036 2.036 0 0 0-1.452-.6H7.177c-.549 0-1.063.211-1.452.6L4.46 6.425a2.003 2.003 0 0 0-.6 1.443l-.034 5.472c-.007.548.212 1.08.6 1.468l1.266 1.267a2.037 2.037 0 0 0 1.452.6h.228v.202c0 .354.085.692.262.996.093.177.21.337.355.472l1.266 1.268a2.04 2.04 0 0 0 1.452.598h5.842c.55 0 1.064-.21 1.452-.6l1.267-1.265a2.04 2.04 0 0 0 .6-1.452v-5.488a2.043 2.043 0 0 0-.608-1.444ZM7.143 14.816A.205.205 0 0 1 7 14.758l-.633-.634-.634-.633a.3.3 0 0 1-.059-.11V7.878a.2.2 0 0 1 .06-.144L7 6.467c.017-.017.034-.025.05-.033a.225.225 0 0 1 .102-.026h5.842c.034 0 .06.008.093.026.026.008.042.025.06.042l1.265 1.266a.152.152 0 0 1 .042.059c.01.009.01.017.01.025 0 .009.007.018.007.026s.009.034.009.05v.27a.2.2 0 0 1-.203.203h-1.012a.204.204 0 0 1-.144-.059l-.575-.574H7.6l-.21.21-.288.288v4.753l.498.498h4.94l.574-.582.007-.009c.017-.008.035-.025.051-.034.026-.016.06-.016.085-.016h1.012c.068 0 .128.034.17.084a.202.202 0 0 1 .042.118v.288a.204.204 0 0 1-.06.143l-.632.633-.633.633c-.009.009-.026.017-.034.025 0 0-.008.009-.017.009-.009.009-.017.009-.026.009-.007 0-.007 0-.016.008-.009 0-.018.008-.026.008H7.143v.008Zm10.875 2.06a.204.204 0 0 1-.06.144l-1.266 1.267a.182.182 0 0 1-.05.033.226.226 0 0 1-.102.026h-5.842a.194.194 0 0 1-.093-.026.152.152 0 0 1-.059-.042L9.28 17.012c-.016-.017-.033-.034-.042-.06-.009-.007-.009-.016-.009-.024 0-.01-.007-.018-.007-.026s-.01-.034-.01-.05v-.27a.2.2 0 0 1 .203-.203h1.013c.06 0 .11.025.144.059l.574.574h4.94l.21-.211.287-.287V11.76l-.498-.499h-4.93l-.574.583-.01.008c-.016.01-.033.026-.05.034-.025.017-.059.017-.084.017H9.423a.22.22 0 0 1-.17-.085.202.202 0 0 1-.041-.117v-.288a.203.203 0 0 1 .06-.143l.632-.633.633-.634c.01-.008.026-.016.034-.025 0 0 .009-.008.017-.008.008-.009.017-.009.026-.009.007 0 .007 0 .016-.008.008 0 .017-.009.026-.009h5.884c.059 0 .11.026.143.06l.633.633.634.633c.008.008.017.017.025.034a.28.28 0 0 1 .034.076v.042c.009-.017.009 5.454.009 5.454Z" fill="#fff"/></svg>