<svg width="24" height="24" viewBox="0 0 24 24" fill="none" xmlns="http://www.w3.org/2000/svg">
<path d="M20.6126 4.65636L17.7228 6.12869L3.76815 13.2365C3.72096 12.8766 3.69722 12.514 3.69707 12.151C3.69898 10.7028 4.07922 9.28011 4.80012 8.024C5.52103 6.7679 6.55758 5.72192 7.80712 4.98969C9.05665 4.25745 10.4758 3.86436 11.924 3.84935C13.3722 3.83434 14.7992 4.19794 16.0636 4.90412L17.7177 4.06134L17.9645 3.93543C16.4492 2.83564 14.6594 2.17621 12.7928 2.03002C10.9262 1.88384 9.05555 2.25659 7.38756 3.10708C5.71957 3.95757 4.31921 5.25269 3.34125 6.84928C2.36329 8.44587 1.8458 10.2818 1.846 12.1541C1.846 12.4127 1.85581 12.6702 1.87544 12.9268C1.90294 13.2901 1.82236 13.6535 1.64385 13.9711C1.46534 14.2887 1.19687 14.5465 0.872229 14.7119L0 15.1566V17.2311L2.56795 15.9222L3.39956 15.4978L4.21899 15.0805L18.9301 7.58478L20.5832 6.74301L24 5.0016V2.92815L20.6126 4.65636Z" fill="black"/>
<path d="M24 7.07715L5.05466 16.7234L3.40159 17.5672L0 19.3005V21.373L3.37824 19.6519L6.26807 18.1795L20.2369 11.0616C20.2841 11.4239 20.3079 11.7888 20.308 12.1541C20.3071 13.6041 19.927 15.0286 19.2054 16.2862C18.4838 17.5439 17.4458 18.5909 16.1944 19.3234C14.9431 20.0558 13.5219 20.4483 12.0721 20.4617C10.6222 20.4752 9.19397 20.1092 7.92926 19.4L7.82772 19.4539L6.03452 20.3677C7.54942 21.4675 9.33888 22.1272 11.2052 22.2737C13.0715 22.4202 14.942 22.048 16.6099 21.1981C18.2779 20.3482 19.6785 19.0537 20.6569 17.4577C21.6353 15.8616 22.1534 14.0262 22.154 12.1541C22.154 11.8932 22.1438 11.6322 22.1246 11.3743C22.0971 11.0111 22.1776 10.6479 22.3559 10.3303C22.5342 10.0127 22.8024 9.75492 23.1268 9.58925L24 9.1445V7.07715Z" fill="black"/>
</svg>
