<svg width="24" height="24" fill="none" xmlns="http://www.w3.org/2000/svg"><path d="M12 24c6.627 0 12-5.373 12-12S18.627 0 12 0 0 5.373 0 12s5.373 12 12 12Z" fill="#1B75BC"/><path fill-rule="evenodd" clip-rule="evenodd" d="M8.69 6.452 12 9.905l3.229-3.455L17.25 8.52 13.953 12l3.297 3.452-2.021 2.095L12 14.094l-3.31 3.453-1.94-2.037 3.27-3.53-3.27-3.46 1.94-2.068Zm.267-.282L11.986 3l3.03 3.17-1.595 1.698-1.436-1.585-1.435 1.585L8.956 6.17Zm0 11.66 1.594-1.698 1.435 1.585 1.436-1.585 1.595 1.698-3.03 3.17-3.03-3.17Z" fill="#fff"/></svg>