<svg width="25" height="24" fill="none" xmlns="http://www.w3.org/2000/svg"><g clip-path="url(#a)"><path d="M8.344 16.683a4.158 4.158 0 0 1-3.568-2.153l.084.001a5.19 5.19 0 0 0 1.358-.18l-.033-.972a4.163 4.163 0 0 1-3.27-3.339 5.16 5.16 0 0 0 1.529.284l1.749.057-1.455-.973a4.16 4.16 0 0 1-1.596-4.896 13.718 13.718 0 0 0 9.453 4.46l.66.033-.148-.644a4.16 4.16 0 0 1 7.086-3.796l.19.2.271-.052a9.774 9.774 0 0 0 1.719-.504A4.185 4.185 0 0 1 21.21 5.24l.317.925a9.938 9.938 0 0 0 1.14-.204 8.983 8.983 0 0 1-1.143.983l-.219.158.012.27c.01.193.014.387.014.579 0 5.94-4.518 12.754-12.755 12.754-1.819 0-3.546-.383-5.11-1.07a9.843 9.843 0 0 0 5.176-2.06l1.109-.868-1.408-.025Z" stroke="#A2EFE1"/></g><defs><clipPath id="a"><path fill="#fff" transform="translate(.5)" d="M0 0h24v24H0z"/></clipPath></defs></svg>