<svg width="24" height="24" viewBox="0 0 24 24" fill="none" xmlns="http://www.w3.org/2000/svg">
<path d="M13.2363 14.6225C14.8203 14.6225 16.1044 13.3384 16.1044 11.7544C16.1044 10.1703 14.8203 8.88623 13.2363 8.88623C11.6523 8.88623 10.3682 10.1703 10.3682 11.7544C10.3682 13.3384 11.6523 14.6225 13.2363 14.6225Z" fill="#57BEEA"/>
<path d="M13.236 22.1C7.52242 22.1 2.89062 17.4682 2.89062 11.7546C2.89062 6.04098 7.52242 1.40918 13.236 1.40918C18.9496 1.40918 23.5814 6.04098 23.5814 11.7546C23.5814 17.4682 18.9496 22.1 13.236 22.1ZM13.236 21.5787C18.6618 21.5787 23.0602 17.1803 23.0602 11.7546C23.0602 6.32887 18.6618 1.93045 13.236 1.93045C7.81031 1.93045 3.41189 6.32887 3.41189 11.7546C3.41189 17.1803 7.81031 21.5787 13.236 21.5787Z" fill="#292929"/>
<path d="M18.2934 6.20928C19.8755 6.20928 21.158 4.92673 21.158 3.34463C21.158 1.76253 19.8755 0.47998 18.2934 0.47998C16.7113 0.47998 15.4287 1.76253 15.4287 3.34463C15.4287 4.92673 16.7113 6.20928 18.2934 6.20928Z" fill="#292929"/>
<path d="M18.1918 23.6649C19.7739 23.6649 21.0564 22.3823 21.0564 20.8002C21.0564 19.2181 19.7739 17.9355 18.1918 17.9355C16.6097 17.9355 15.3271 19.2181 15.3271 20.8002C15.3271 22.3823 16.6097 23.6649 18.1918 23.6649Z" fill="#292929"/>
<path d="M3.15274 15.263C4.73484 15.263 6.01739 13.9804 6.01739 12.3983C6.01739 10.8162 4.73484 9.53369 3.15274 9.53369C1.57063 9.53369 0.288086 10.8162 0.288086 12.3983C0.288086 13.9804 1.57063 15.263 3.15274 15.263Z" fill="#292929"/>
</svg>
