<svg width="24" height="24" viewBox="0 0 24 24" fill="none" xmlns="http://www.w3.org/2000/svg">
<path fill-rule="evenodd" clip-rule="evenodd" d="M24 12C24 18.6274 18.6274 24 12 24C5.37255 24 0 18.6274 0 12C0 5.37255 5.37255 0 12 0C18.6274 0 24 5.37255 24 12Z" fill="#3E2D2A"/>
<path fill-rule="evenodd" clip-rule="evenodd" d="M12.0002 22.2543C6.34604 22.2543 1.74599 17.6543 1.74599 12.0002C1.74599 6.34604 6.34604 1.74599 12.0002 1.74599C17.6543 1.74599 22.2543 6.34604 22.2543 12.0002C22.2543 17.6543 17.6543 22.2543 12.0002 22.2543ZM12.0002 1.08301C5.98047 1.08301 1.08301 5.98047 1.08301 12.0002C1.08301 18.0198 5.98047 22.9173 12.0002 22.9173C18.0198 22.9173 22.9173 18.0198 22.9173 12.0002C22.9173 5.98047 18.0198 1.08301 12.0002 1.08301Z" fill="#FFFFFE"/>
<path fill-rule="evenodd" clip-rule="evenodd" d="M14.8248 13.6249V11.3532H16.9408C17.1787 11.3532 17.3697 11.457 17.5138 11.6648C17.6579 11.8725 17.73 12.1473 17.73 12.4891C17.73 12.8308 17.6579 13.1056 17.5138 13.3133C17.3697 13.5211 17.1787 13.6249 16.9408 13.6249H14.8248ZM17.4598 14.5266C17.6209 14.4827 17.7722 14.4208 17.9109 14.3361C18.199 14.1602 18.4227 13.9148 18.5819 13.5998C18.741 13.2848 18.8206 12.9146 18.8206 12.4891C18.8206 12.0635 18.741 11.6933 18.5819 11.3783C18.4227 11.0633 18.199 10.8179 17.9109 10.6419C17.6227 10.466 17.286 10.3781 16.9006 10.3781H13.7995V10.3831H9.28467L10.6129 6.30859H9.49709L7.74297 12.0384L5.98885 6.30859H4.87305L7.25541 13.6166H8.23053L8.9667 11.3581H10.762V17.6911H11.7874V11.3581H13.7995V17.6911H14.8248V14.6001H16.3513L17.9109 17.6911H19.1272L17.4598 14.5266Z" fill="#FFFFFE"/>
</svg>
