<svg width="24" height="24" fill="none" xmlns="http://www.w3.org/2000/svg"><path fill-rule="evenodd" clip-rule="evenodd" d="M20.219 3.447c-.07-.067-.139-.132-.21-.195l-8.286 11.593-3.166-4.08H3.403l-1.448 1.666H4.65l6.434 8.399c.214.203.428.305.64.305.211 0 .413-.102.606-.306L22.503 6.618c-.06-.122-.12-.243-.183-.362A12.04 12.04 0 0 1 23.767 12c0 6.627-5.32 12-11.883 12C5.32 24 0 18.627 0 12 0 5.372 5.321 0 11.884 0c3.247 0 6.19 1.315 8.335 3.447Z" fill="#048657"/><path fill-rule="evenodd" clip-rule="evenodd" d="m1.955 12.431 1.448-1.666h5.154l3.166 4.08L20.01 3.251c.493.448.954.958 1.38 1.53.43.576.802 1.19 1.113 1.837L12.33 20.829c-.192.204-.395.306-.607.306-.212 0-.425-.102-.64-.306L4.65 12.431H1.955Z" fill="#fff"/></svg>