<svg width="24" height="24" fill="none" xmlns="http://www.w3.org/2000/svg"><path d="m9.311 10.764 2.69 5.863 3.993-2.27h.008V9.813l-6.691.95Z" fill="#2BBDF7"/><path d="m21.16 6.406-2.492-.921-2.666-.215V19.425L20 21.698l3.19-6.4-2.023-6.157-.008-2.735Z" fill="#2891F9"/><path d="m20.928 5.27-.927 2.273v14.12l4-2.273V5.27h-3.073Z" fill="#2BBDF7"/><path d="m20 3-3.998 2.27L20 7.543 24 5.27 20 3Z" fill="#2B6DEF"/><path d="M12 12.083 8 7.671 0 5.27v14.12l4 2.272 1.146-7.814L8 14.356 12 16.626v-4.543Z" fill="#2891F9"/><path d="M4 3 0 5.27l12 6.814 1.813-1.027 2.189-1.244L3.999 3Z" fill="#2B6DEF"/><path d="M3.999 12.084v9.579l4.002-2.273v-5.034l-4.002-2.272Z" fill="#2BBDF7"/></svg>