<svg width="24" height="24" fill="none" xmlns="http://www.w3.org/2000/svg"><path d="M12 24c6.627 0 12-5.373 12-12S18.627 0 12 0 0 5.373 0 12s5.373 12 12 12Z" fill="#47B95C"/><path d="M12 4.5c-4.14 0-7.5 3.36-7.5 7.5 0 .1.01.195.015.295h3.52l1.7-2.925L12 12.615l2.26-3.245 1.7 2.925h3.52c.005-.1.015-.195.015-.295C19.5 7.86 16.14 4.5 12 4.5Zm5.17 6.89A5.212 5.212 0 0 0 12 6.795a5.217 5.217 0 0 0-5.17 4.595h-.91A6.116 6.116 0 0 1 12 5.89c3.165 0 5.77 2.415 6.08 5.5h-.91Z" fill="#fff"/><path d="M14.196 11.05 12 14.2l-2.196-3.15-1.25 2.15h-3.95c.576 3.57 3.66 6.3 7.396 6.3 3.735 0 6.82-2.73 7.394-6.305h-3.95l-1.25-2.145Zm2.565 3.05h.97c-.86 2.335-3.1 4.01-5.73 4.01-2.63 0-4.87-1.675-5.73-4.01h.97A5.213 5.213 0 0 0 12 17.205c2.124 0 3.95-1.28 4.76-3.105Z" fill="#fff"/></svg>