<svg width="24" height="24" viewBox="0 0 24 24" fill="none" xmlns="http://www.w3.org/2000/svg">
<path d="M12 24C18.6274 24 24 18.6274 24 12C24 5.37258 18.6274 0 12 0C5.37258 0 0 5.37258 0 12C0 18.6274 5.37258 24 12 24Z" fill="url(#paint0_linear)"/>
<path d="M17.4455 11.5712C17.3198 11.4969 17.1884 11.4284 17.057 11.3712H17.0398L17.1312 11.2855C17.3027 11.1484 17.4741 10.9998 17.617 10.8284C18.2912 10.0512 18.4855 9.18266 18.1998 8.2398C17.9712 7.46266 17.4455 6.88552 16.6227 6.46837C15.9941 6.15409 15.2855 6.01123 14.4341 6.01123H7.48552L7.50838 12.8398H4.37695V15.5255H8.94838L7.51981 16.3941V17.9941H14.5827C15.0398 17.9941 15.5255 17.9369 16.0112 17.8627C17.6455 17.5769 18.9255 16.0227 18.9255 14.3198C18.9255 13.0798 18.4284 12.1484 17.4398 11.5655L17.4455 11.5712ZM14.9998 10.4969C14.857 10.5941 14.6741 10.6455 14.4855 10.6912C14.3484 10.7312 14.1998 10.7312 14.0684 10.7312H10.2398V8.38837H14.3998C14.897 8.3998 15.3141 8.73123 15.4627 9.22266C15.5998 9.69123 15.4055 10.2169 15.0055 10.5027L14.9998 10.4969ZM11.2855 15.6398H10.2398V12.8969H14.497C15.1084 12.8969 15.5427 13.0969 15.8512 13.5255C16.1027 13.8684 16.1655 14.3255 16.0227 14.7427C15.8741 15.1427 15.5655 15.4398 15.1655 15.5427C14.9198 15.5998 14.6855 15.6398 14.4798 15.6455H11.2798L11.2855 15.6398Z" fill="white"/>
<defs>
<linearGradient id="paint0_linear" x1="3.51429" y1="3.51429" x2="20.4857" y2="20.4857" gradientUnits="userSpaceOnUse">
<stop stop-color="#30B5EC"/>
<stop offset="1" stop-color="#1E58BB"/>
</linearGradient>
</defs>
</svg>
