<svg width="24" height="24" viewBox="0 0 24 24" fill="none" xmlns="http://www.w3.org/2000/svg">
<path d="M12 24C18.6274 24 24 18.6274 24 12C24 5.37258 18.6274 0 12 0C5.37258 0 0 5.37258 0 12C0 18.6274 5.37258 24 12 24Z" fill="#13A0F6"/>
<path fill-rule="evenodd" clip-rule="evenodd" d="M6.22301 8.67597C5.92944 8.52199 5.6836 8.29061 5.51213 8.0069C5.34067 7.72319 5.2501 7.39797 5.25026 7.06647C5.12207 6.82341 5.05084 6.55438 5.04196 6.27973C5.03308 6.00508 5.08679 5.73201 5.19901 5.48118C5.31123 5.23035 5.47903 5.00833 5.68971 4.83191C5.90039 4.6555 6.14844 4.52931 6.41509 4.4629C6.68173 4.39648 6.95999 4.39159 7.2288 4.44858C7.49762 4.50556 7.74996 4.62295 7.96672 4.79184C8.18348 4.96073 8.35898 5.17671 8.47996 5.42344C8.60094 5.67017 8.66422 5.94118 8.66501 6.21597C9.6891 5.61709 10.8544 5.30227 12.0408 5.30397C15.7458 5.30397 18.7503 8.31447 18.7503 12.027C18.7503 15.7395 15.7465 18.75 12.0408 18.75C8.33501 18.75 5.33126 15.7402 5.33126 12.027C5.32953 10.8511 5.63706 9.69545 6.22301 8.67597ZM12.0408 15.3345C13.8633 15.3345 15.3408 13.854 15.3408 12.027C15.3408 10.2 13.8633 8.71947 12.0408 8.71947C10.2183 8.71947 8.74076 10.2007 8.74076 12.027C8.74076 13.8532 10.2183 15.3345 12.0408 15.3345Z" fill="white"/>
</svg>
