<svg width="24" height="24" fill="none" xmlns="http://www.w3.org/2000/svg"><g clip-path="url(#a)" fill="#31CB9E"><path d="m11.16 11.998 8.948 5.126a.473.473 0 0 0 .716-.408V7.274a.469.469 0 0 0-.716-.405L11.159 12ZM19.918 4.6 13.8.1a.486.486 0 0 0-.766.258L10.801 10.38l9.063-5.01a.452.452 0 0 0 .054-.77ZM13.793 23.892l6.125-4.499a.46.46 0 0 0-.05-.78L10.8 13.602l2.233 10.022a.483.483 0 0 0 .76.276"/><path d="M8.832 11.812 11.16.931a.463.463 0 0 0-.716-.469l-5.96 4.57A1.235 1.235 0 0 0 4 6.018v11.598a1.235 1.235 0 0 0 .483.998l5.932 4.557a.462.462 0 0 0 .715-.47L8.832 11.813Z"/></g><defs><clipPath id="a"><path fill="#fff" d="M0 0h24v24H0z"/></clipPath></defs></svg>