<svg width="24" height="24" viewBox="0 0 24 24" fill="none" xmlns="http://www.w3.org/2000/svg">
<g clip-path="url(#clip0)">
<path d="M12.0174 23.0124C18.0898 23.0124 23.0124 18.0898 23.0124 12.0174C23.0124 5.94507 18.0898 1.02246 12.0174 1.02246C5.94507 1.02246 1.02246 5.94507 1.02246 12.0174C1.02246 18.0898 5.94507 23.0124 12.0174 23.0124Z" fill="white"/>
<path d="M12.626 -0.000215527C10.2469 -0.128246 7.88346 0.454025 5.8361 1.67258C3.78873 2.89114 2.14992 4.69095 1.128 6.84322C0.106081 8.99549 -0.252804 11.403 0.0969695 13.7598C0.446743 16.1165 1.48938 18.316 3.09233 20.0787C4.69529 21.8414 6.78618 23.0877 9.0992 23.6591C11.4122 24.2305 13.8429 24.1013 16.0823 23.2878C18.3217 22.4743 20.2686 21.0134 21.6756 19.0906C23.0826 17.1679 23.8861 14.8702 23.984 12.4896C24.1066 9.33429 22.9849 6.25705 20.8604 3.92086C18.736 1.58468 15.7788 0.176526 12.626 -0.000215527ZM11.9625 19.8664C8.09848 19.8664 5.13214 15.9634 6.10791 12.2164C6.43807 11.0618 6.95205 9.96797 7.63011 8.97685C8.77476 7.242 10.0676 5.60962 11.4942 4.09801C11.8454 3.7077 12.1186 3.7077 12.4699 4.05898C14.1455 5.79472 15.6126 7.72028 16.8414 9.7965C17.5439 11.0845 18.0903 12.4116 18.0513 13.8947C17.9864 15.4793 17.321 16.9798 16.1902 18.0917C15.0594 19.2037 13.5479 19.8437 11.9625 19.882V19.8664Z" fill="#168DFF"/>
</g>
<defs>
<clipPath id="clip0">
<rect width="24" height="24" fill="white"/>
</clipPath>
</defs>
</svg>
