<svg width="24" height="24" fill="none" xmlns="http://www.w3.org/2000/svg"><path d="M21.65 5.645c.436.252.705.718.705 1.222v10.258c0 .504-.269.97-.706 1.222l-8.881 5.128a1.411 1.411 0 0 1-1.412 0l-8.882-5.128a1.411 1.411 0 0 1-.705-1.222V6.867c0-.504.269-.97.705-1.222l8.88-5.128a1.412 1.412 0 0 1 1.411 0l8.884 5.128Zm-.154.267L12.61.784a1.104 1.104 0 0 0-1.103 0l-8.88 5.128a1.104 1.104 0 0 0-.552.955v10.258c0 .394.21.759.552.956l8.882 5.128c.341.197.762.197 1.104 0l8.882-5.128c.341-.197.551-.562.551-.956V6.867c0-.394-.21-.758-.552-.955Z" fill="url(#a)"/><path d="m20.65 6.32-7.967-4.599a1.243 1.243 0 0 0-1.243 0l-7.966 4.6c-.384.221-.62.63-.621 1.074v9.2c0 .445.236.855.62 1.077l7.967 4.6c.385.222.86.222 1.244 0l7.967-4.6c.384-.222.621-.633.621-1.077v-9.2c0-.444-.238-.853-.622-1.075Z" fill="url(#b)"/><path d="m6.313 6.827.572-.571c.192.19.383.382.574.573-.19.19-.381.382-.573.572l-.574-.574Zm1.725 0 .572-.571.571.571c-.19.191-.38.382-.572.572l-.571-.571Zm6.906-.001.571-.572c.192.191.383.382.573.574l-.571.572c-.19-.192-.382-.383-.573-.574Zm1.721.004.575-.575.572.572-.575.575-.572-.572Zm-9.49.86.573-.572.571.571-.572.573-.572-.573Zm1.73 0c.19-.188.379-.378.567-.568.188.19.377.38.567.569-.19.188-.378.377-.567.566l-.567-.566Zm5.182-.003c.19-.19.379-.379.567-.57l.569.57-.569.569c-.188-.191-.378-.38-.567-.57Zm1.719.001.571-.571.573.572-.572.572c-.19-.192-.382-.382-.572-.573Zm-9.493.864.573-.574.572.572-.573.574-.572-.572Zm1.724 0 .573-.572c.19.19.381.38.571.572l-.572.572-.572-.572Zm1.727-.004.566-.566.57.57c-.188.19-.377.378-.566.566l-.57-.57Zm3.463 0 .565-.566.568.568-.567.565c-.188-.19-.378-.377-.566-.567Zm1.717.002.573-.573.572.572c-.19.192-.382.383-.573.574l-.572-.573Zm1.724 0 .571-.571.573.572-.572.572-.572-.573Zm-5.18.059.565-.566c.198.185.393.372.583.566-.19.193-.385.38-.583.565l-.566-.565Zm-4.31.805.57-.567.567.567-.567.568-.57-.568Zm3.449-.003c.188-.19.377-.377.565-.566l.565.565-.565.566a940.46 940.46 0 0 1-.565-.565Zm1.738 0c.187-.19.377-.376.564-.566.194.185.378.378.57.566l-.569.566c-.188-.19-.377-.377-.565-.566Zm3.45 0c.187-.19.376-.378.564-.567l.57.567-.57.568-.565-.568Zm-7.775.862.567-.567.569.57-.566.567-.57-.57Zm3.449-.001c.187-.189.375-.377.564-.564.198.183.392.371.583.564-.19.194-.384.382-.583.564l-.565-.564Zm3.463.001.565-.564c.188.189.377.377.566.564-.19.187-.378.376-.566.563-.188-.189-.377-.375-.565-.563Zm-6.05.862.566-.565.564.564-.565.566a281.06 281.06 0 0 0-.565-.565Zm5.186 0 .566-.565c.189.188.377.376.564.565l-.564.566c-.188-.19-.377-.377-.566-.566Zm-6.047.861.566-.565.564.565-.564.566-.566-.566Zm1.723 0 .566-.564.563.564-.563.565-.566-.565Zm3.462 0c.188-.19.379-.377.567-.567.19.188.378.379.567.567l-.567.568c-.188-.19-.378-.378-.567-.568Zm1.675 0c.194-.181.366-.388.574-.554.178.192.376.365.558.554-.182.189-.377.363-.557.553-.21-.161-.38-.372-.575-.553Zm-5.999.861.565-.564.565.566-.564.564-.566-.566Zm5.187 0 .565-.565.565.565c-.19.188-.375.38-.566.565l-.564-.565Zm-6.05.863.57-.57c.19.188.379.377.567.566l-.57.57-.566-.566Zm3.447 0c.19-.188.378-.377.567-.566.2.184.396.372.585.566-.19.194-.385.384-.585.568l-.567-.567Zm3.466 0 .565-.563.566.563-.566.563a374.25 374.25 0 0 0-.565-.563Zm-7.775.858.57-.568.568.569c-.19.188-.378.377-.566.568l-.572-.569Zm3.447.004.568-.568.57.568-.569.569-.57-.57Zm1.737 0 .57-.57.57.568-.57.571-.57-.57Zm3.453 0 .564-.57.572.57-.571.568-.565-.569Zm-4.33.802.569-.569c.2.184.396.374.588.568a17.09 17.09 0 0 1-.588.571l-.57-.57Zm-5.171.057.572-.572.573.573-.571.572-.574-.573Zm1.724 0 .572-.572c.191.19.382.38.572.572l-.571.572-.573-.573Zm1.723.002.574-.572.57.57-.573.574-.57-.572Zm3.462.001c.19-.19.382-.38.571-.571l.572.57-.572.572-.57-.57Zm1.722-.002.572-.573c.19.192.382.383.573.574l-.572.573-.573-.574Zm1.724 0 .572-.573.572.573-.573.572-.571-.572Zm-9.493.86.572-.57.572.571-.571.572-.573-.572Zm1.726.001.57-.57.572.57-.57.572c-.192-.19-.382-.381-.572-.572Zm5.181.001.573-.572.573.572-.573.574c-.192-.19-.383-.382-.573-.574Zm1.724 0 .572-.572.572.572c-.19.19-.381.382-.573.572l-.571-.572Zm-9.492.859c.19-.19.381-.382.573-.572l.572.572-.572.572-.573-.572Zm1.723.002.572-.572c.191.19.382.381.572.573l-.571.571-.573-.572Zm6.907.002c.19-.192.382-.383.573-.574l.572.572c-.191.192-.382.383-.574.573l-.571-.571Zm1.721-.004.572-.572.575.575-.572.572-.575-.575Z" fill="#fff"/><defs><linearGradient id="a" x1="4.079" y1="6.084" x2="21.18" y2="15.94" gradientUnits="userSpaceOnUse"><stop stop-color="#0071BC"/><stop offset="1" stop-color="#662D91"/></linearGradient><linearGradient id="b" x1="5.051" y1="6.838" x2="20.187" y2="15.537" gradientUnits="userSpaceOnUse"><stop stop-color="#0071BC"/><stop offset="1" stop-color="#662D91"/></linearGradient></defs></svg>