<svg width="24" height="24" fill="none" xmlns="http://www.w3.org/2000/svg"><path d="M12 24c6.627 0 12-5.373 12-12S18.627 0 12 0 0 5.373 0 12s5.373 12 12 12Z" fill="#292929"/><path fill-rule="evenodd" clip-rule="evenodd" d="M11.255 13.992c0-.345.002-.689 0-1.033-.001-.096.026-.17.116-.208.082-.037.168-.011.24.073.215.25.428.502.642.755.075.087.15.174.223.265a.133.133 0 0 1 .029.075c.001.364.002.727 0 1.09a.636.636 0 0 1-.578.642.632.632 0 0 1-.666-.545c-.006-.041-.006-.084-.006-.126v-.988Zm.002-6.757-.002-.044V5.14c.001-.314.217-.58.51-.631a.623.623 0 0 1 .737.615c.007.699.003 1.398.004 2.096l-.004.036c-.145-.25-.346-.374-.62-.373-.272 0-.474.12-.624.351Zm-.002 9.46c.153.232.357.35.631.35.273 0 .472-.125.62-.356v1.735c0 .17.005.342-.01.51a.621.621 0 0 1-.653.565.628.628 0 0 1-.586-.624c-.004-.67-.002-1.34-.002-2.01v-.17Zm1.251-6.62v1.246c0 .119-.037.183-.127.219a.231.231 0 0 1-.27-.07l-.543-.636c-.094-.11-.188-.219-.28-.33a.13.13 0 0 1-.03-.075c-.002-.536-.002-1.072 0-1.608a.63.63 0 0 1 .575-.631c.296-.033.59.187.659.498a.749.749 0 0 1 .015.159l.001 1.228Zm1.299-2.532V5.878c.001-.302.173-.548.44-.632.405-.128.81.178.812.619.002.415 0 .83 0 1.246v2.096c0 .31-.186.56-.47.637a.627.627 0 0 1-.778-.561 1.515 1.515 0 0 1-.004-.115V7.543ZM10.02 15.57v1.924a.634.634 0 0 1-.52.635c-.36.069-.718-.224-.729-.598-.003-.107 0-.214 0-.322v-3.564c0-.3.191-.553.47-.624a.625.625 0 0 1 .779.608c.002.647 0 1.294 0 1.94Zm0-7.085v2.625a.634.634 0 0 1-.492.63.626.626 0 0 1-.757-.608c-.004-.38 0-.758-.002-1.138v-4.13c0-.308.202-.566.49-.631a.626.626 0 0 1 .76.615c.003.675 0 1.348 0 2.022l.002.615Zm3.784 6.14v-2.85c0-.284.121-.495.375-.614.406-.188.862.113.877.572v5.736c0 .314-.18.563-.462.644a.626.626 0 0 1-.786-.556 1.55 1.55 0 0 1-.004-.12v-2.814.002Zm3.82-2.9v4.455a.637.637 0 0 1-.503.64c-.37.08-.737-.215-.747-.6V7.28c0-.289.145-.519.389-.621.413-.172.86.138.86.599v4.467h.001Zm-10-.006v4.461a.634.634 0 0 1-.489.638c-.375.09-.75-.206-.761-.6V7.266c0-.307.184-.556.465-.634a.626.626 0 0 1 .785.602c.003.49 0 .983 0 1.475v3.009Z" fill="#fff"/></svg>