<svg width="24" height="24" fill="none" xmlns="http://www.w3.org/2000/svg"><path d="M12.04 22.987c6.506 0 11.781-4.909 11.781-10.964 0-6.055-5.275-10.963-11.782-10.963S.257 5.968.257 12.023c0 6.055 5.275 10.964 11.782 10.964Z" fill="#fff"/><path d="M12 0C5.369 0 0 5.369 0 12s5.369 12 12 12 12-5.369 12-12S18.631 0 12 0Zm.242 22.34c-5.619 0-10.177-4.558-10.177-10.176 0-5.619 4.558-10.177 10.177-10.177 5.618 0 10.176 4.558 10.176 10.177 0 5.618-4.558 10.176-10.176 10.176Z" fill="#F6BE1D"/><path d="M12.25 21.74a9.569 9.569 0 1 0 0-19.138 9.569 9.569 0 0 0 0 19.138Z" fill="#F6BE1D"/><path d="M5.494 17.712c-.28-1.699.195-3.016.428-3.639.78-2.08 2.244-3.273 2.977-3.78a8.24 8.24 0 0 1 2.922-1.27c.14-.03.288-.07.429-.108.53-.156 1.207-.375 1.987-.663.943-.35 1.449-.537 2.088-.896.865-.483 1.442-.974 1.987-1.441a15.822 15.822 0 0 0 2.01-2.081c-.101.686-.32 1.675-.802 2.782-.304.678-.577 1.301-1.146 1.963-1.153 1.348-2.68 1.886-3.35 2.12-.04.015-.008 0-1.66.545-.203.063-1.075.351-1.27.421-.748.242-2.494.92-3.896 2.657-1.94 2.408-1.84 5.112-1.793 5.782a6.316 6.316 0 0 1-.911-2.392Zm6.545-3.53a16.64 16.64 0 0 1 2.533-.055c.452-.039 1.293-.187 2.049-.802.764-.623 1.052-1.395 1.286-2.01a6.14 6.14 0 0 0 .39-2.05c-.25.242-.632.569-1.146.88-.475.297-.865.453-1.457.686-.421.172-.99.382-1.691.585-1.387.428-2.478.92-3.257 1.325-.857.436-1.52.864-1.948 1.644-.11.202-.18.374-.219.498a16.965 16.965 0 0 1 3.46-.701Zm-3.444 2.571c.28-.046.623-.077 1.987.063.358.039.694.078.99.117a4.15 4.15 0 0 0 2.618-.507 4.099 4.099 0 0 0 1.761-2.057c-.452.078-.966.148-1.535.171-.343.016-.67.016-.974 0a10.04 10.04 0 0 0-2.907.312c-1.114.288-2.454.631-3.117 1.777a3.03 3.03 0 0 0-.288.701c.585-.358 1.099-.514 1.465-.576Zm-1.13 2.104c.11-.015.218-.023.312-.03.304-.009.608.03.904.116.327.094.685.18 1.075.25.234.038.46.07.678.093.35.039.701.015 1.044-.062.226-.055.468-.14.717-.273.997-.546 1.356-1.48 1.442-1.73a2.762 2.762 0 0 1-.717.413c-.452.18-.834.187-1.232.195a4.893 4.893 0 0 1-1.083-.094c-.132-.023-.257-.062-.381-.093-1.2-.335-2.377-.14-3.063.576a2.155 2.155 0 0 0-.506.873c.202-.086.475-.187.81-.234Z" fill="#FDFFFA"/></svg>