<svg width="24" height="24" viewBox="0 0 24 24" fill="none" xmlns="http://www.w3.org/2000/svg">
<path d="M12 24C18.6274 24 24 18.6274 24 12C24 5.37258 18.6274 0 12 0C5.37258 0 0 5.37258 0 12C0 18.6274 5.37258 24 12 24Z" fill="url(#paint0_linear)"/>
<path d="M6.0936 15.5998V9.95184L10.3768 13.1754V15.5998H11.47V12.9478C11.4698 12.8493 11.4468 12.7521 11.4027 12.664C11.3586 12.5759 11.2947 12.4991 11.216 12.4398L6.0216 8.52905C5.92659 8.45848 5.81388 8.41564 5.69598 8.40529C5.57809 8.39493 5.45963 8.41747 5.35378 8.4704C5.24792 8.52333 5.15882 8.60457 5.09636 8.70509C5.03391 8.80562 5.00055 8.9215 5 9.03985V15.5998H6.0936ZM17.9392 15.5998V9.95184L13.656 13.1754V15.5998H12.5628V12.9478C12.563 12.8493 12.586 12.7521 12.6301 12.664C12.6742 12.5759 12.7381 12.4991 12.8168 12.4398L18.0112 8.53065C18.1061 8.46016 18.2187 8.41733 18.3364 8.40692C18.4542 8.3965 18.5725 8.4189 18.6783 8.47163C18.7841 8.52437 18.8732 8.60537 18.9358 8.70567C18.9984 8.80597 19.032 8.92163 19.0328 9.03985V15.5998H17.9392Z" fill="white"/>
<defs>
<linearGradient id="paint0_linear" x1="12" y1="0" x2="12" y2="24" gradientUnits="userSpaceOnUse">
<stop stop-color="#4FA89B"/>
<stop offset="1" stop-color="#6ACEBB"/>
</linearGradient>
</defs>
</svg>
