<svg width="24" height="24" viewBox="0 0 24 24" fill="none" xmlns="http://www.w3.org/2000/svg">
<path d="M0 0H24V24H0V0Z" fill="#EFD96F"/>
<path d="M17.0757 8.78418C14.3397 8.78418 12.0837 10.9802 10.0437 12.8042C9.4557 12.2882 8.7957 11.6522 8.2917 11.0522C8.2437 10.9922 8.1717 10.9802 8.1357 11.0042C8.0877 11.0402 8.0757 11.1122 8.1237 11.1602C8.5917 11.7362 9.2157 12.4322 9.8037 13.0202C8.7117 14.0522 7.0437 15.3002 5.6997 15.3002C2.9877 15.3002 2.9757 11.5442 5.3517 10.8362C5.4597 10.8122 5.4597 10.6802 5.3517 10.7162C2.2437 11.4842 2.4117 15.8642 5.7597 15.8642C7.3557 15.8642 8.8197 14.7962 10.2957 13.5362C11.8917 14.9762 13.9077 16.1522 16.4997 16.1522C23.0757 16.1522 22.8837 8.78418 17.0757 8.78418ZM16.4517 15.5882C14.3757 15.5762 12.3597 14.6642 10.5957 13.2842C12.5997 11.5442 14.6277 9.55218 17.0157 9.55218C21.6717 9.55218 21.7917 15.6242 16.4517 15.5882Z" fill="#333333"/>
<path d="M6.76762 11.2921C7.29781 11.2921 7.72762 10.8623 7.72762 10.3321C7.72762 9.80188 7.29781 9.37207 6.76762 9.37207C6.23742 9.37207 5.80762 9.80188 5.80762 10.3321C5.80762 10.8623 6.23742 11.2921 6.76762 11.2921Z" fill="#333333"/>
</svg>
