<svg width="24" height="24" fill="none" xmlns="http://www.w3.org/2000/svg"><g clip-path="url(#a)" fill="#F3BA2F"><path d="M7.339 10.085 12 5.424l4.663 4.663 2.712-2.712L12 0 4.627 7.373l2.712 2.712ZM0 12l2.712-2.713L5.424 12l-2.712 2.712L0 12Zm7.339 1.915L12 18.575l4.663-4.662 2.713 2.71v.002L12 24l-7.373-7.373-.004-.004 2.716-2.708Zm11.237-1.914 2.712-2.712L24 12.001l-2.712 2.712-2.712-2.712Z"/><path d="M14.751 11.999h.001L12 9.247 9.966 11.28l-.233.234-.482.482-.004.003.004.005 2.75 2.75L14.751 12l.002-.001-.003-.001"/></g><defs><clipPath id="a"><path fill="#fff" d="M0 0h24v24H0z"/></clipPath></defs></svg>