<svg width="24" height="24" fill="none" xmlns="http://www.w3.org/2000/svg"><path fill-rule="evenodd" clip-rule="evenodd" d="M24 12c0 6.627-5.373 12-12 12S0 18.627 0 12 5.373 0 12 0s12 5.373 12 12Z" fill="#EB8B2D"/><path fill-rule="evenodd" clip-rule="evenodd" d="M12 22.254c-5.654 0-10.254-4.6-10.254-10.254S6.346 1.746 12 1.746 22.254 6.346 22.254 12 17.654 22.254 12 22.254Zm0-21.171C5.98 1.083 1.083 5.98 1.083 12S5.98 22.917 12 22.917 22.917 18.02 22.917 12 18.02 1.083 12 1.083Z" fill="#FFFFFE"/><path fill-rule="evenodd" clip-rule="evenodd" d="M17.672 6.861c.22-1.14-.546-2.006-1.822-1.988-2.029.116-3.383 2.116-4.415 4.85L9.38 9.263l-.123.548 1.984.446c-.154.436-.3.889-.44 1.353-.153.523-.258 1.03-.408 1.865-.742 3.622-1.724 5.5-3.01 5.177-.465-.129-.381-.405-.066-.423l.001-.006a.89.89 0 0 0 .16-1.731.893.893 0 0 0-1.125.572c-.01.029-.013.058-.02.087 0-.003-.004-.007-.005-.01-.221 1.139.546 2.005 1.821 1.987 2.473-.141 4.05-3.114 5.05-6.736.137-.468.235-.925.361-1.614l2.035.458.124-.548-2.05-.46c.735-3.426 1.698-5.191 2.948-4.878.464.13.38.405.065.423v.006a.89.89 0 0 0-.161 1.732.893.893 0 0 0 1.125-.572c.01-.03.013-.059.02-.088l.006.011Z" fill="#FFFFFE"/></svg>