<svg width="24" height="24" fill="none" xmlns="http://www.w3.org/2000/svg"><path d="M12 24c6.627 0 12-5.373 12-12S18.627 0 12 0 0 5.373 0 12s5.373 12 12 12Z" fill="url(#a)"/><path d="M6.094 15.6V9.952l4.283 3.223V15.6h1.093v-2.652a.637.637 0 0 0-.254-.508L6.022 8.53A.64.64 0 0 0 5 9.04v6.56h1.094Zm11.845 0V9.952l-4.283 3.223V15.6h-1.093v-2.652a.637.637 0 0 1 .254-.508l5.194-3.91a.64.64 0 0 1 1.022.51v6.56h-1.094Z" fill="#fff"/><defs><linearGradient id="a" x1="12" y1="0" x2="12" y2="24" gradientUnits="userSpaceOnUse"><stop stop-color="#4FA89B"/><stop offset="1" stop-color="#6ACEBB"/></linearGradient></defs></svg>