<svg width="470" height="767" fill="none" xmlns="http://www.w3.org/2000/svg"><path d="M235.661 1.193v.38c.381 1.904.381 4.19.381 6.474v274.548c-.381 1.523-1.523 1.904-2.666 2.666a644.212 644.212 0 0 1-23.608 10.662c-11.043 4.95-22.467 10.281-33.51 15.231l-39.983 18.278c-11.042 4.95-22.085 9.901-32.747 14.851-12.947 6.092-26.275 11.804-39.222 17.897-11.042 4.95-22.085 10.281-33.509 15.231-9.139 4.189-18.278 7.997-27.036 12.186-.761.38-1.523.761-2.285.761-.38 0-.38 0-.761-.381l10.281-17.135c19.801-32.748 39.221-65.115 59.022-97.863 20.944-35.032 42.268-70.065 63.211-105.097 19.42-32.367 39.221-64.734 58.642-97.101 14.089-23.609 28.559-47.218 42.648-70.827.381-.761.761-1.142.761-1.904h.381c-.381.381 0 .762 0 1.143Z" fill="#8A92B2" fill-opacity=".2"/><path d="M234.966 2.178c.074-.148.149-.282.223-.412.351 1.827.353 4.02.353 6.28v274.485c-.163.603-.465.977-.86 1.292-.211.169-.45.322-.721.487-.254.155-.544.325-.832.514a643.325 643.325 0 0 1-23.558 10.639l-.008.003a2397.615 2397.615 0 0 0-16.754 7.616l-.004.002c-5.617 2.57-11.232 5.14-16.751 7.614l-.004.001-39.979 18.277c-11.042 4.95-22.088 9.901-32.754 14.853l-.002.001c-6.469 3.045-13.034 5.994-19.603 8.945l-.002.001c-6.566 2.95-13.136 5.902-19.612 8.949-4.496 2.016-8.983 4.09-13.492 6.175-6.589 3.046-13.225 6.114-20.008 9.053l-.01.004c-3.728 1.709-7.467 3.359-11.184 4.999-5.366 2.368-10.685 4.715-15.859 7.189l-.007.004c-.791.396-1.441.709-2.062.709H1.37l10.054-16.757c9.9-16.375 19.706-32.654 29.511-48.932 9.806-16.279 19.61-32.557 29.511-48.931l.002-.002c10.469-17.513 21.034-35.026 31.599-52.539l.005-.008.001-.003c10.567-17.515 21.134-35.031 31.605-52.548 9.71-16.182 19.514-32.364 29.319-48.547v-.001c9.806-16.183 19.612-32.367 29.322-48.552h.001c7.044-11.804 14.183-23.607 21.322-35.412h.001c7.139-11.804 14.28-23.61 21.325-35.416l.01-.016.008-.016Z" stroke="#fff" stroke-opacity=".5"/><path d="m469.435 389.978.38.381-55.975 33.129-175.925 103.955c-.761.381-1.523.761-1.903 1.142-1.143 0-1.143-1.142-1.143-1.523V288.308c0-1.142 0-2.666.381-3.808.381-1.523 1.523-1.142 2.665-.761 4.951 2.284 10.282 4.569 15.232 6.854 14.851 6.854 29.701 13.708 44.552 20.181 12.947 5.712 25.513 11.805 38.46 17.517s25.893 11.804 38.84 17.516c11.043 4.95 22.467 10.281 33.51 15.232 11.042 4.95 22.466 10.281 33.509 15.231 8.758 3.808 17.516 7.997 26.274 11.804 0 1.143.381 1.524 1.143 1.904Z" fill="#454A75" fill-opacity=".2"/><path d="m235.73 284.64-.006.018c-.35 1.05-.355 2.484-.355 3.65v238.754c0 .199.005.481.103.708a.5.5 0 0 0 .167.222.48.48 0 0 0 .198.078c.214-.176.473-.34.736-.49.342-.196.73-.39 1.103-.576l175.909-103.947 55.368-32.769c-.304-.174-.584-.388-.791-.699-.218-.326-.326-.713-.359-1.182-4.286-1.868-8.572-3.825-12.854-5.779l-.002-.001c-4.379-1.999-8.754-3.997-13.128-5.898l-.006-.003c-5.521-2.475-11.137-5.045-16.751-7.614l-.007-.003a2363.256 2363.256 0 0 0-16.751-7.614 2397.615 2397.615 0 0 1-16.754-7.616l-.004-.002h-.001a2408.57 2408.57 0 0 0-16.749-7.613c-6.476-2.857-12.951-5.809-19.422-8.759l-.002-.001c-6.474-2.951-12.945-5.901-19.415-8.756-6.478-2.858-12.86-5.81-19.237-8.761l-.001-.001c-6.379-2.951-12.752-5.9-19.221-8.754h-.001l.202-.458c-14.851-6.473-29.701-13.327-44.552-20.181a576.805 576.805 0 0 0-7.616-3.427c-2.57-1.143-5.14-2.285-7.616-3.427l-2.185.901Zm0 0 .005-.019c.081-.322.188-.489.279-.577a.525.525 0 0 1 .333-.141c.158-.016.358.006.607.066.241.058.497.142.777.235l-2.001.436Z" stroke="#fff" stroke-opacity=".5"/><path d="M235.634 765.053c0 .381-.381.761-.381 1.142h-.381c0-.761-.761-1.142-1.142-1.904-23.609-33.128-47.218-66.638-70.827-99.766-23.989-33.89-48.36-68.161-72.35-102.052-23.228-32.747-46.836-65.876-70.064-98.624-6.093-8.758-12.186-17.135-18.278-25.893-.381-.762-.762-1.143-1.523-2.285 1.142 0 1.903.761 2.284 1.142 33.129 19.42 65.877 38.841 99.005 58.261 38.079 22.466 75.777 44.933 113.856 67.399l19.42 11.424c.762.762.762 1.523.762 2.285v183.54c0 1.904 0 3.808-.381 5.331Z" fill="#8A92B2" fill-opacity=".2"/><path d="m235.149 764.931-.015.06v.062a.54.54 0 0 1-.063.193 3.53 3.53 0 0 0-.243-.323l-.184-.216c-.191-.219-.347-.401-.467-.639l-.017-.035-.023-.032c-11.803-16.563-23.607-33.221-35.411-49.879l-.002-.003c-11.804-16.66-23.609-33.32-35.414-49.885-11.994-16.944-24.084-33.984-36.174-51.024l-.001-.002a58040.27 58040.27 0 0 1-36.173-51.023v-.001c-11.615-16.374-23.324-32.843-35.034-49.312l-.004-.007a53585.521 53585.521 0 0 1-35.026-49.303c-3.048-4.381-6.095-8.666-9.14-12.948l-.001-.001c-3.04-4.275-6.078-8.547-9.116-12.914A7.673 7.673 0 0 0 2 436.665l-.062-.085c.28.189.506.411.682.587l.045.045.055.033c16.564 9.709 33.033 19.419 49.502 29.129v.001c16.47 9.71 32.939 19.42 49.503 29.13 19.038 11.232 37.981 22.465 56.924 33.697l.002.002.004.002c18.943 11.232 37.886 22.465 56.925 33.698l19.363 11.39c.564.59.573 1.152.573 1.888v183.54c0 1.923-.004 3.759-.366 5.209Z" stroke="#fff" stroke-opacity=".5"/><path d="M.313 390.74v-.381c12.185-5.331 23.99-11.042 36.174-16.373 15.613-7.235 31.225-14.09 46.837-21.325 11.805-5.331 23.99-11.043 35.794-16.374 17.517-7.996 34.652-15.612 52.168-23.608 11.805-5.331 23.609-10.662 35.794-16.374 8.378-3.808 17.136-7.616 25.513-11.424.762-.381 1.904-.762 2.285-1.523.381 0 .381.381 0 .761V525.92c0 1.142-.381 2.285.381 3.046-.762 1.143-1.523 0-1.904-.381-3.427-1.903-6.854-3.807-10.281-6.092-73.493-43.41-147.365-87.201-220.858-130.61-.38-.381-1.142-.762-1.904-1.143Z" fill="#62688F" fill-opacity=".2"/><path d="M234.378 284.547V525.92c0 .261-.022.526-.046.808l-.002.027a9.795 9.795 0 0 0-.047.831c0 .445.062.923.324 1.355-.019.011-.032.015-.038.017-.017.004-.059.011-.157-.045a1.659 1.659 0 0 1-.345-.293c-.03-.03-.058-.061-.087-.093a9.579 9.579 0 0 1-.093-.103l-.002-.003c-.056-.062-.118-.131-.177-.189l-.049-.05-.061-.034c-3.43-1.905-6.839-3.799-10.247-6.071l-.011-.008-.012-.007A156151.947 156151.947 0 0 1 112.9 456.757c-36.825-21.79-73.649-43.58-110.378-65.275-.235-.221-.548-.422-.867-.605a14.844 14.844 0 0 0-.573-.309c5.9-2.59 11.715-5.266 17.524-7.94l.003-.001c5.998-2.761 11.991-5.52 18.079-8.183l.01-.005c7.803-3.616 15.607-7.137 23.413-10.66h.002c7.804-3.522 15.612-7.045 23.42-10.663 5.902-2.666 11.9-5.427 17.896-8.187h.001a2773.822 2773.822 0 0 1 17.894-8.186l.002-.001c8.757-3.997 17.419-7.9 26.082-11.803a5708.02 5708.02 0 0 0 26.086-11.806c11.803-5.33 23.609-10.662 35.796-16.374 4.186-1.903 8.467-3.806 12.75-5.709 4.283-1.904 8.569-3.809 12.76-5.714l.009-.004.008-.004a13.75 13.75 0 0 1 .61-.284c.222-.102.463-.216.694-.345a4.66 4.66 0 0 0 .257-.152Z" stroke="#fff" stroke-opacity=".5"/><path d="M468.695 435.671h.38c0 .761-.761 1.523-1.142 2.285-70.065 98.624-140.13 197.629-210.195 296.253-7.235 10.281-14.851 20.562-22.086 30.844-.381-.381-.381-.762-.381-1.143V573.516c15.994-9.519 31.606-18.658 47.599-28.178 61.688-36.556 123.375-72.731 184.682-109.286.381.38.762 0 1.143-.381Z" fill="#62688F" fill-opacity=".2"/><path d="m257.33 733.919-.001.002c-3.615 5.138-7.326 10.276-11.039 15.417l-.001.001c-3.531 4.89-7.065 9.783-10.517 14.676l-.001-.105V573.801a7730.589 7730.589 0 0 1 23.554-13.943v-.001a7680.473 7680.473 0 0 0 23.801-14.089 47094.53 47094.53 0 0 1 71.422-42.211c37.749-22.28 75.443-44.528 112.994-66.917a.897.897 0 0 0 .601.034l-.136.205c-.171.257-.364.546-.503.817a199871.265 199871.265 0 0 0-105.058 148.071l-.018.026c-35.033 49.407-70.065 98.814-105.098 148.126Z" stroke="#fff" stroke-opacity=".5"/><path d="M235.256 284.117V4.618c0-1.142-.381-1.904.381-3.046 77.3 128.326 154.6 256.27 231.519 384.596.761 1.142 1.904 2.666 2.285 4.189-5.332-1.904-10.282-4.57-15.232-6.854-6.093-2.666-12.566-5.712-18.659-8.378-3.808-1.904-7.996-3.427-11.804-5.331-6.473-3.046-12.947-5.712-19.42-8.758-3.808-1.523-7.616-3.427-11.424-5.331l-25.132-11.424c-4.189-1.904-8.377-3.807-12.947-5.711l-18.278-7.997c-3.807-1.523-7.615-3.427-11.423-5.331l-25.132-11.424c-4.189-1.904-8.378-3.808-12.947-5.711l-18.278-7.997c-4.189-1.904-7.996-3.808-12.185-5.712-7.235-3.427-14.47-6.854-22.086-9.9 1.143-.381.762-.381.762-.381Z" fill="#62688F" fill-opacity=".2"/><path d="M256.788 293.943c-6.904-3.27-13.822-6.547-21.074-9.493a.508.508 0 0 0 .042-.552V4.618c0-.312-.026-.595-.05-.844l-.002-.025a6.765 6.765 0 0 1-.043-.654c0-.148.01-.295.041-.446 20.962 34.8 41.924 69.57 62.878 104.328 56.153 93.143 112.25 186.195 168.147 279.448l.006.01.007.01c.11.165.225.334.343.508.304.446.627.919.929 1.424.228.379.435.762.606 1.145-3.411-1.287-6.664-2.861-9.894-4.423-1.436-.694-2.867-1.386-4.305-2.05l-.01-.004a746.693 746.693 0 0 1-9.322-4.186c-3.137-1.426-6.278-2.854-9.325-4.187-1.913-.956-3.919-1.816-5.91-2.669l-.007-.003c-2.002-.858-3.987-1.709-5.875-2.653l-.011-.005c-3.243-1.526-6.485-2.956-9.72-4.384h-.001c-3.238-1.429-6.469-2.854-9.699-4.374l-.014-.007-.014-.005c-3.785-1.514-7.574-3.408-11.385-5.314l-.009-.004-.008-.004-25.132-11.424-.005-.002c-4.185-1.902-8.379-3.808-12.953-5.715l-.003-.001-18.27-7.993-.007-.003-.008-.003c-3.785-1.514-7.574-3.408-11.386-5.314l-.008-.004-.008-.004-25.132-11.424-.003-.001c-4.186-1.903-8.38-3.809-12.956-5.716l-.003-.001-18.263-7.99-.003-.002c-2.089-.949-4.083-1.899-6.081-2.85h-.001c-1.997-.951-3.999-1.905-6.096-2.858l-.003-.002Z" stroke="#fff" stroke-opacity=".5"/></svg>