<svg width="24" height="24" fill="none" xmlns="http://www.w3.org/2000/svg"><path d="M15.602 12v3.599h-3.603a3.6 3.6 0 1 1 3.6-3.6h.003Zm-3.555-6a6.002 6.002 0 1 0-.357 11.999H18V12.07c0-3.31-2.644-6.048-5.952-6.071Z" fill="#20EE82"/><path d="M20.485 3.515a12 12 0 0 0-15.1-1.527c.135.15.25.315.344.493a11.417 11.417 0 0 1 14.328 1.461c4.443 4.438 4.443 11.667 0 16.11s-11.672 4.443-16.116 0A11.417 11.417 0 0 1 2.486 5.724a2.382 2.382 0 0 1-.493-.344C-1.663 10.904-.145 18.35 5.38 22.008c5.524 3.656 12.972 2.138 16.628-3.386a11.998 11.998 0 0 0-1.522-15.107Z" fill="#7F8C8D"/><path d="M2.76 2.754a1.2 1.2 0 1 1 .003 1.697l-.004-.004a1.2 1.2 0 0 1 0-1.693Z" fill="#20EE82"/></svg>