<svg width="24" height="24" fill="none" xmlns="http://www.w3.org/2000/svg"><g clip-path="url(#a)"><path d="M3.34 17.2a2.074 2.074 0 1 1-.007.007l.008-.008ZM17.537 3.722a2.076 2.076 0 1 1-.002.004h.002M6.003 15.603l2.19 2.19 2.006-2.007a3.952 3.952 0 0 1-2.195-2.195l-2.001 2.012ZM15.85 10.244l2.006-2.006-2.19-2.19-2.006 2.006a3.949 3.949 0 0 1 2.19 2.19Z" fill="#FDBA4D"/><path d="M17.467 20.031a2.076 2.076 0 1 1 .003.003l-.003-.003ZM3.55 6.473a2.076 2.076 0 1 1 2.93-2.936 2.076 2.076 0 0 1-2.928 2.936M15.502 17.705l2.19-2.19-2.007-2.006a3.952 3.952 0 0 1-2.195 2.195M10.366 7.94 8.36 5.934l-2.19 2.19 2.006 2.006a3.948 3.948 0 0 1 2.19-2.19Z" fill="#5DA9DD"/><path d="M14.034 2.078a2.076 2.076 0 1 1 0-.003v.003ZM14.034 21.922a2.076 2.076 0 1 1 0-.003v.003ZM12.711 5.243h-1.307v2.573a3.821 3.821 0 0 1 1.307 0M12.711 16.298a3.823 3.823 0 0 1-1.307 0v2.573h1.307" fill="#18568C"/><path d="M21.15 13.509a2.076 2.076 0 1 1 .003 0h-.003ZM2.078 13.862a2.077 2.077 0 1 1 0-4.155 2.077 2.077 0 0 1 0 4.155ZM15.866 12.437h2.573v-1.309h-2.573c.075.433.075.875 0 1.307v.002ZM7.873 12.437a3.821 3.821 0 0 1 0-1.307H5.3v1.307" fill="#18578C"/><path d="M14.84 11.937a2.945 2.945 0 1 1-5.89 0 2.945 2.945 0 0 1 5.89 0Z" fill="#18568B"/></g><defs><clipPath id="a"><path fill="#fff" d="M0 0h24v24H0z"/></clipPath></defs></svg>