<svg width="24" height="24" viewBox="0 0 24 24" fill="none" xmlns="http://www.w3.org/2000/svg">
<path d="M16.8752 0H7.12483C3.1899 0 0 3.1899 0 7.12483V16.8324C0 20.7674 3.1899 23.9573 7.12483 23.9573H16.8752C20.8101 23.9573 24 20.7674 24 16.8324V7.12483C24 3.1899 20.8101 0 16.8752 0Z" fill="black"/>
<path d="M16.8752 0H7.12483C3.1899 0 0 3.1899 0 7.12483V16.8324C0 20.7674 3.1899 23.9573 7.12483 23.9573H16.8752C20.8101 23.9573 24 20.7674 24 16.8324V7.12483C24 3.1899 20.8101 0 16.8752 0Z" fill="#2CC981"/>
<path fill-rule="evenodd" clip-rule="evenodd" d="M16.2911 3.71582L20.1528 7.70929H12.3155L16.2911 3.71582ZM8.09759 11.8595L3.96875 7.74491L7.97291 3.75144L20.1777 15.9848L16.1344 19.9711L12.1409 15.9848L8.11897 19.9996L4.0685 15.9563L8.09759 11.8595Z" fill="white"/>
</svg>
