<svg width="24" height="24" viewBox="0 0 24 24" fill="none" xmlns="http://www.w3.org/2000/svg">
<path d="M12 24C18.6274 24 24 18.6274 24 12C24 5.37258 18.6274 0 12 0C5.37258 0 0 5.37258 0 12C0 18.6274 5.37258 24 12 24Z" fill="#105B2F"/>
<path d="M7.38322 8.15839C7.62538 6.86443 7.88722 5.57455 8.13922 4.28239C9.43314 4.27479 10.7272 4.27148 12.0215 4.27255C13.212 4.26991 14.4038 4.26499 15.5912 4.35811C16.2921 4.41343 16.9935 4.49275 17.6771 4.66039C18.3851 4.82935 19.0562 5.20567 19.5243 5.76835C19.9488 6.28435 20.1494 6.94819 20.2061 7.60543C20.2555 7.95991 20.268 8.32195 20.2136 8.67643C20.1329 9.73987 19.7816 10.7921 19.1439 11.6524C18.6195 12.3707 17.8869 12.9178 17.0867 13.2955C16.2043 13.7097 15.2399 13.9223 14.2727 14.0098C13.5396 14.078 12.8022 14.0602 12.0669 14.0624C11.0316 14.0606 9.9967 14.065 8.96182 14.0557C8.58634 15.9239 8.24302 17.7988 7.88362 19.6707C6.97962 19.6658 6.07538 19.6615 5.1709 19.6577C5.78134 16.4429 6.4189 13.2331 7.05562 10.0232C6.51838 10.0209 5.98102 10.0255 5.44378 10.0245C5.56774 9.40603 5.67922 8.78491 5.79514 8.16523C6.32446 8.16031 6.85414 8.16523 7.38334 8.15815L7.38322 8.15839ZM10.3479 6.93619C10.2734 7.34419 10.1897 7.75039 10.112 8.15791C11.3993 8.16019 12.687 8.15791 13.9747 8.16055C13.8557 8.78035 13.7361 9.39967 13.626 10.0205C12.3333 10.0255 11.0407 10.0219 9.74818 10.0223C9.66214 10.4977 9.55378 10.9689 9.4807 11.446C10.9807 11.446 12.4819 11.4483 13.9827 11.446C14.8009 11.434 15.665 11.2708 16.3124 10.738C16.8667 10.2796 17.3263 9.63667 17.3759 8.89963C17.391 8.58175 17.3639 8.25355 17.2439 7.95619C17.0677 7.52551 16.6566 7.22311 16.2119 7.11619C15.5105 6.95251 14.7864 6.95119 14.0707 6.92887C12.8293 6.93451 11.5884 6.92107 10.3479 6.93619Z" fill="#FEFEFE"/>
</svg>
