<svg width="24" height="24" fill="none" xmlns="http://www.w3.org/2000/svg"><path d="M12 24c6.627 0 12-5.373 12-12S18.627 0 12 0 0 5.373 0 12s5.373 12 12 12Z" fill="#37DCD8"/><path d="M11.993 9.51 9.905 7.405A24.43 24.43 0 0 1 12 4.5c.768.912 1.467 1.88 2.093 2.894l-2.1 2.115Zm4.288 2.107c.59 1.651 1.454 3.303.63 4.888a5.627 5.627 0 0 1-2.334 2.352c-2.714 1.44-6.074.382-7.504-2.352-.832-1.585.138-3.367.728-5.018.54-1.217 1.087-2.34 1.708-3.418l2.483 2.5 2.497-2.513c.656 1.135 1.223 2.304 1.792 3.562v-.001Z" fill="#fff"/></svg>