<svg width="24" height="24" viewBox="0 0 24 24" fill="none" xmlns="http://www.w3.org/2000/svg">
<path d="M0 0H24V24H0V0Z" fill="#1B1F2B"/>
<path d="M8.04004 5.16016H15.96V18.8402H8.04004V5.16016Z" fill="#1B1F2B"/>
<path fill-rule="evenodd" clip-rule="evenodd" d="M7.28613 5.16018L8.04055 4.40576H15.9606L16.715 5.16018V18.8402L15.9606 19.5946H8.04055L7.28613 18.8402V5.16018ZM8.79497 5.9146V18.0858H15.2061V5.9146H8.79497Z" fill="url(#paint0_linear)"/>
<path d="M14.3997 14.1601H12.7596V15.8783H11.2797V14.1601H9.63965V12.6802H14.3997V14.1601ZM14.3997 9.9199H12.7596V8.20166H11.2797V9.9199H9.63965V11.3998H14.3997V9.9199Z" fill="url(#paint1_linear)"/>
<defs>
<linearGradient id="paint0_linear" x1="6.22309" y1="6.22272" x2="17.7775" y2="17.7771" gradientUnits="userSpaceOnUse">
<stop stop-color="#2AB8E6"/>
<stop offset="0.53" stop-color="#29CAD2"/>
<stop offset="1" stop-color="#2EE4BE"/>
</linearGradient>
<linearGradient id="paint1_linear" x1="845.271" y1="1358.61" x2="1413.46" y2="1710.92" gradientUnits="userSpaceOnUse">
<stop stop-color="#2AB8E6"/>
<stop offset="0.53" stop-color="#29CAD2"/>
<stop offset="1" stop-color="#2EE4BE"/>
</linearGradient>
</defs>
</svg>
