<svg width="21" height="17" fill="none" xmlns="http://www.w3.org/2000/svg"><path d="m10.485 7.67 6.641-6.64a1.167 1.167 0 0 1 1.655 0l1.104 1.103a1.167 1.167 0 0 1 0 1.655L15.183 8.5l4.707 4.707a1.167 1.167 0 0 1 0 1.655l-1.104 1.109a1.167 1.167 0 0 1-1.655 0l-6.64-6.64a1.169 1.169 0 0 1-.006-1.661ZM1.11 9.33l6.641 6.64a1.167 1.167 0 0 0 1.655 0l1.104-1.103a1.167 1.167 0 0 0 0-1.655L5.808 8.5l4.707-4.707a1.167 1.167 0 0 0 0-1.655L9.41 1.029a1.167 1.167 0 0 0-1.655 0l-6.64 6.64A1.169 1.169 0 0 0 1.11 9.33Z" fill="#fff"/></svg>