<svg width="25" height="21" viewBox="0 0 25 21" fill="none" xmlns="http://www.w3.org/2000/svg">
<path d="M3.90625 15.9688H0.78125C0.57405 15.9688 0.375336 16.0511 0.228823 16.1976C0.08231 16.3441 0 16.5428 0 16.75L0 19.875C0 20.0822 0.08231 20.2809 0.228823 20.4274C0.375336 20.5739 0.57405 20.6562 0.78125 20.6562H3.90625C4.11345 20.6562 4.31216 20.5739 4.45868 20.4274C4.60519 20.2809 4.6875 20.0822 4.6875 19.875V16.75C4.6875 16.5428 4.60519 16.3441 4.45868 16.1976C4.31216 16.0511 4.11345 15.9688 3.90625 15.9688ZM3.90625 0.34375H0.78125C0.57405 0.34375 0.375336 0.42606 0.228823 0.572573C0.08231 0.719086 0 0.9178 0 1.125L0 4.25C0 4.4572 0.08231 4.65591 0.228823 4.80243C0.375336 4.94894 0.57405 5.03125 0.78125 5.03125H3.90625C4.11345 5.03125 4.31216 4.94894 4.45868 4.80243C4.60519 4.65591 4.6875 4.4572 4.6875 4.25V1.125C4.6875 0.9178 4.60519 0.719086 4.45868 0.572573C4.31216 0.42606 4.11345 0.34375 3.90625 0.34375ZM3.90625 8.15625H0.78125C0.57405 8.15625 0.375336 8.23856 0.228823 8.38507C0.08231 8.53159 0 8.7303 0 8.9375L0 12.0625C0 12.2697 0.08231 12.4684 0.228823 12.6149C0.375336 12.7614 0.57405 12.8438 0.78125 12.8438H3.90625C4.11345 12.8438 4.31216 12.7614 4.45868 12.6149C4.60519 12.4684 4.6875 12.2697 4.6875 12.0625V8.9375C4.6875 8.7303 4.60519 8.53159 4.45868 8.38507C4.31216 8.23856 4.11345 8.15625 3.90625 8.15625ZM24.2188 16.75H8.59375C8.38655 16.75 8.18784 16.8323 8.04132 16.9788C7.89481 17.1253 7.8125 17.324 7.8125 17.5312V19.0938C7.8125 19.301 7.89481 19.4997 8.04132 19.6462C8.18784 19.7927 8.38655 19.875 8.59375 19.875H24.2188C24.426 19.875 24.6247 19.7927 24.7712 19.6462C24.9177 19.4997 25 19.301 25 19.0938V17.5312C25 17.324 24.9177 17.1253 24.7712 16.9788C24.6247 16.8323 24.426 16.75 24.2188 16.75ZM24.2188 1.125H8.59375C8.38655 1.125 8.18784 1.20731 8.04132 1.35382C7.89481 1.50034 7.8125 1.69905 7.8125 1.90625V3.46875C7.8125 3.67595 7.89481 3.87466 8.04132 4.02118C8.18784 4.16769 8.38655 4.25 8.59375 4.25H24.2188C24.426 4.25 24.6247 4.16769 24.7712 4.02118C24.9177 3.87466 25 3.67595 25 3.46875V1.90625C25 1.69905 24.9177 1.50034 24.7712 1.35382C24.6247 1.20731 24.426 1.125 24.2188 1.125ZM24.2188 8.9375H8.59375C8.38655 8.9375 8.18784 9.01981 8.04132 9.16632C7.89481 9.31284 7.8125 9.51155 7.8125 9.71875V11.2812C7.8125 11.4885 7.89481 11.6872 8.04132 11.8337C8.18784 11.9802 8.38655 12.0625 8.59375 12.0625H24.2188C24.426 12.0625 24.6247 11.9802 24.7712 11.8337C24.9177 11.6872 25 11.4885 25 11.2812V9.71875C25 9.51155 24.9177 9.31284 24.7712 9.16632C24.6247 9.01981 24.426 8.9375 24.2188 8.9375Z" fill="white"/>
</svg>
