<svg width="24" height="24" fill="none" xmlns="http://www.w3.org/2000/svg"><path d="M12 0c6.627 0 12 5.373 12 12s-5.373 12-12 12S0 18.627 0 12 5.373 0 12 0Z" fill="#00467A"/><path d="M5.23 10.434c-.241 0-.348.107-.348.32v5.512c0 .24.107.32.347.32 2.65.027 5.886-2.327 8.562-4.173V6.046c-2.649 1.82-5.966 4.414-8.562 4.388Z" fill="url(#a)"/><path d="M19.168 12.922c.24 0 .347-.107.347-.321V7.09c0-.241-.107-.321-.347-.321-2.676-.027-5.886 2.327-8.562 4.173v6.34c2.65-1.818 5.967-4.414 8.562-4.36Z" fill="url(#b)"/><path d="M13.79 12.413V8.775a111.449 111.449 0 0 0-3.21 2.14v3.638c1.124-.695 2.194-1.444 3.21-2.14Z" fill="#194AAD"/><defs><linearGradient id="a" x1="10.151" y1="15.802" x2="8.592" y2="6.963" gradientUnits="userSpaceOnUse"><stop offset=".1" stop-color="#194AAD"/><stop offset=".5" stop-color="#248FCB"/><stop offset=".8" stop-color="#2BBFDF"/></linearGradient><linearGradient id="b" x1="16.05" y1="6.186" x2="13.988" y2="17.882" gradientUnits="userSpaceOnUse"><stop offset=".1" stop-color="#194AAD"/><stop offset=".5" stop-color="#248FCB"/><stop offset=".8" stop-color="#2BBFDF"/></linearGradient></defs></svg>