<svg width="24" height="24" viewBox="0 0 24 24" fill="none" xmlns="http://www.w3.org/2000/svg">
<path fill-rule="evenodd" clip-rule="evenodd" d="M24 12C24 18.6274 18.6274 24 12 24C5.37255 24 0 18.6274 0 12C0 5.37255 5.37255 0 12 0C18.6274 0 24 5.37255 24 12Z" fill="#08914B"/>
<path fill-rule="evenodd" clip-rule="evenodd" d="M13.4692 13.3376V10.752H17.0087C16.4347 8.52165 14.41 6.87354 12.0004 6.87354C9.14437 6.87354 6.8291 9.18881 6.8291 12.0448C6.8291 14.9009 9.14437 17.2161 12.0004 17.2161C14.41 17.2161 16.4347 15.568 17.0087 13.3376H13.4692Z" fill="#3A3A39"/>
<path fill-rule="evenodd" clip-rule="evenodd" d="M13.9941 16.8179C13.3805 17.0745 12.7068 17.2163 12.0001 17.2163C9.59046 17.2163 7.56577 15.5682 6.99176 13.3378H10.5312V10.7522H6.99176C7.56577 8.52183 9.59046 6.87372 12.0001 6.87372C12.7012 6.87372 13.3697 7.01328 13.9794 7.26607L14.968 4.87642C14.0539 4.49732 13.0514 4.28809 12.0001 4.28809C7.71607 4.28809 4.24316 7.76099 4.24316 12.045C4.24316 16.3291 7.71607 19.8019 12.0001 19.8019C13.0579 19.8019 14.0663 19.5901 14.9849 19.2065L13.9941 16.8179Z" fill="#FAD948"/>
<path fill-rule="evenodd" clip-rule="evenodd" d="M12.0002 22.2543C6.34604 22.2543 1.74599 17.6543 1.74599 12.0002C1.74599 6.34604 6.34604 1.74599 12.0002 1.74599C14.8379 1.74599 17.41 2.90495 19.2684 4.77417L17.4829 6.55952C16.7687 5.84522 15.9158 5.26962 14.9681 4.8766L13.9795 7.26626C14.6116 7.5284 15.1805 7.91227 15.6569 8.38862C16.3001 9.03191 16.7746 9.8438 17.0085 10.7524L22.1778 10.7487C22.2279 11.159 22.2543 11.5765 22.2543 12.0002C22.2543 17.6543 17.6543 22.2543 12.0002 22.2543ZM12.0002 1.08301C5.98047 1.08301 1.08301 5.9804 1.08301 12.0002C1.08301 18.0198 5.98047 22.9173 12.0002 22.9173C18.0198 22.9173 22.9173 18.0198 22.9173 12.0002C22.9173 5.9804 18.0198 1.08301 12.0002 1.08301Z" fill="#DE495C"/>
<path fill-rule="evenodd" clip-rule="evenodd" d="M17.0085 13.3379C16.6028 14.9141 15.4727 16.1995 13.9941 16.818L14.985 19.2066C17.4039 18.1968 19.2015 15.9965 19.6477 13.3379H17.0085Z" fill="#DE495C"/>
<path fill-rule="evenodd" clip-rule="evenodd" d="M13.4685 13.3379V10.7523H14.2385C13.7913 9.97972 12.9565 9.45947 11.9996 9.45947C11.0428 9.45947 10.2079 9.97972 9.76074 10.7523H10.5308V13.3379H9.76074C10.2079 14.1106 11.0428 14.6307 11.9996 14.6307C12.9565 14.6307 13.7913 14.1106 14.2385 13.3379H13.4685Z" fill="#DE495C"/>
</svg>
