<svg width="24" height="24" fill="none" xmlns="http://www.w3.org/2000/svg"><path d="m8.4 10.533-3.2 7.534H0l.2-.467L7.533 9l.867 1.533ZM5.467 5.267l.066.066-.066-.066Z" fill="#A03EC3"/><path d="m18.8 5.267-.533 6.333-2.534 2.867-.733-1.4 3.8-7.8Z" fill="#3B9FE6"/><path d="m23.933 5.333-6.2 12.734.534-6.467 5.666-6.266Z" fill="#20ADEC"/><path d="m24 5.267-.067.066-5.666 6.267.533-6.333H24Z" fill="#3AB6ED"/><path d="m10.667 5.267-.133.2L8.267 8.2 5.533 5.333l-.066-.066h5.2Z" fill="#7C58B8"/><path d="m10.666 5.333-.133.134.133-.2v.066Z" fill="#A03EC3"/><path d="m15 13.067-.667 1.466-2.733-2.8-.867-6.4L15 13.067Z" fill="#5E88DE"/><path d="M12.533 18 8.4 10.533 9.067 9l2.533 2.733.933 6.267Z" fill="#7876D7"/><path d="M17.733 18.067H12.6l.133-.267L15 15.267l2.733 2.8Z" fill="#0447C1"/><path d="m12.533 18 .2-.2-.133.267-.067-.067Z" fill="#A03EC3"/><path d="m15.733 14.466-.733.8-.666-.733.666-1.467.733 1.4Z" fill="#3C67CA"/><path d="M7.534 9 .2 17.6 5.467 5.267l.067.066 2 3.667Z" fill="#B64AC6"/><path d="M9.067 9 8.4 10.533 7.533 9l.734-.8.8.8Z" fill="#572FAA"/><path d="m8.267 8.2-.734.8-2-3.667L8.267 8.2Z" fill="#7241AE"/><path d="M10.533 5.467 9.067 9l-.8-.8 2.266-2.733Z" fill="#6249B6"/><path d="M11.6 11.733 9.067 9l1.467-3.533.133-.133h.067l.866 6.4Z" fill="#8E7FDA"/><path d="m18.267 11.6-.534 6.467-2-3.6 2.534-2.867Z" fill="#2890E2"/><path d="m14.333 14.533-1.6 3.267-.2.2-.933-6.267 2.733 2.8Z" fill="#5375D8"/><path d="M15 15.267 12.733 17.8l1.6-3.267.667.734Z" fill="#2B4FC0"/><path d="M17.733 18.067 15 15.267l.733-.8 2 3.6Z" fill="#205DC9"/></svg>