<svg width="24" height="24" fill="none" xmlns="http://www.w3.org/2000/svg"><path d="M12 24c6.627 0 12-5.373 12-12S18.627 0 12 0 0 5.373 0 12s5.373 12 12 12Z" fill="#3C80F1"/><path d="M12.063 3a7.438 7.438 0 0 0-7.432 7.429c.004.4.049.8.133 1.19a.115.115 0 0 0 .18.068c.284-.203.625-.313.974-.313a.114.114 0 0 0 .116-.133 4.53 4.53 0 0 1-.076-.804 6.105 6.105 0 0 1 12.21 0c0 3.368-4.308 7.669-5.85 9.188a.363.363 0 0 1-.509 0 45.613 45.613 0 0 1-1.9-1.97h-.03a6.466 6.466 0 0 1-1.72-.412l-.103-.041a.114.114 0 0 0-.139.035.114.114 0 0 0 .005.143 43.145 43.145 0 0 0 3.035 3.268 1.582 1.582 0 0 0 2.209 0c2.715-2.683 6.33-6.65 6.33-10.22A7.437 7.437 0 0 0 12.063 3Z" fill="#fff"/><path d="M15.154 11.18c0 .105-.008.208-.018.31-.027.39-.118.774-.268 1.135a3.89 3.89 0 0 1-.64.987l.008.007a5.268 5.268 0 0 1-1.875 1.34c-.71.305-1.483.429-2.253.361a4.168 4.168 0 0 1-2.03-.77c.193-.006.384-.035.57-.087.168-.047.33-.115.479-.205.323-.193.574-.487.714-.837.065-.16.11-.326.133-.497.015-.143.019-.287.014-.431V7.585a.282.282 0 0 1 .24-.228h1.608c.38.03.753.13 1.098.294a4 4 0 0 1 1.728 1.57c.099.168.186.344.258.525.07.18.126.368.165.557.04.189.063.38.068.573v.305Zm1.323-.35a4.512 4.512 0 0 0-.097-.803 4.883 4.883 0 0 0-.582-1.482A5.32 5.32 0 0 0 13.49 6.45a4.432 4.432 0 0 0-1.563-.416c-.068 0-.134 0-.209-.007H10.22c-.049 0-.098 0-.147.01A1.607 1.607 0 0 0 8.666 7.52v4.973c0 .087-.006.174-.018.26a.752.752 0 0 1-.043.17.428.428 0 0 1-.067.115.507.507 0 0 1-.258.148c-.148.038-.3.05-.452.036a2.513 2.513 0 0 1-1.456-.651.663.663 0 0 0-1.033.803 6.956 6.956 0 0 0 1.886 2.192 5.477 5.477 0 0 0 2.755 1.072 5.987 5.987 0 0 0 2.897-.453 6.181 6.181 0 0 0 2.352-1.715l.009.006c.35-.397.64-.845.855-1.33a4.93 4.93 0 0 0 .363-1.548c.011-.134.018-.254.022-.382v-.188c.005-.056.001-.131 0-.197h-.001Z" fill="#fff"/></svg>