<svg width="24" height="24" viewBox="0 0 24 24" fill="none" xmlns="http://www.w3.org/2000/svg">
<path d="M12 24C18.6274 24 24 18.6274 24 12C24 5.37258 18.6274 0 12 0C5.37258 0 0 5.37258 0 12C0 18.6274 5.37258 24 12 24Z" fill="#FDA616"/>
<path d="M8.94033 16.5C9.02808 16.773 10.1141 17.898 11.2443 17.898C12.9198 17.898 13.8986 16.887 13.8986 15.4245C13.8986 14.07 13.2206 13.296 11.5076 12.543C9.43683 11.7045 8.15658 10.4782 8.15658 8.43525C8.15658 6.17775 9.79458 4.5 12.2606 4.5C13.5596 4.5 14.8758 5.3175 15.3123 5.8635L14.2646 6.95475C13.8506 6.69675 13.3533 6.048 12.2043 6.048C10.4726 6.048 9.81333 7.23075 9.81333 8.22C9.81333 9.57525 10.5858 10.242 12.3356 11.016C14.4821 11.9625 15.5741 13.1452 15.5741 15.2738C15.5741 17.511 14.1161 19.5 11.1228 19.5C9.89883 19.5 8.59158 18.6825 7.80558 17.682L8.94033 16.5ZM10.3368 8.77275C10.0751 8.2275 10.2498 7.68225 10.2498 7.68225C16.8828 6.591 15.6611 13.0448 15.6611 13.0448C15.1376 12.0457 14.6141 11.8635 14.6141 11.8635C14.7011 8.136 10.3368 8.77275 10.3368 8.77275ZM13.3046 14.682C13.5671 15.3188 13.2641 15.981 13.2641 15.981C5.71158 16.9545 7.75158 10.0485 7.74933 10.0485C8.14983 11.109 8.64783 11.3572 8.64783 11.3572C8.50533 15.6817 13.3046 14.682 13.3046 14.682Z" fill="white"/>
</svg>
