<svg width="24" height="24" viewBox="0 0 24 24" fill="none" xmlns="http://www.w3.org/2000/svg">
<path d="M12 24C18.6274 24 24 18.6274 24 12C24 5.37258 18.6274 0 12 0C5.37258 0 0 5.37258 0 12C0 18.6274 5.37258 24 12 24Z" fill="#0F63D8"/>
<path d="M19.413 15.5528C19.3408 15.7016 19.2614 15.8467 19.1752 15.9878C19.1175 16.0913 19.062 16.1948 19.0012 16.2931C18.9735 16.3388 18.951 16.3861 18.9233 16.4303H18.9142C18.332 17.3556 17.5699 18.1546 16.6733 18.7801C15.7767 19.4055 14.7637 19.8448 13.6943 20.0718C12.6249 20.2988 11.5209 20.3089 10.4475 20.1016C9.37409 19.8943 8.3532 19.4737 7.44525 18.8648C7.40775 18.8393 7.3755 18.8116 7.33875 18.7868C7.19682 18.695 7.05941 18.5964 6.927 18.4913C6.71752 18.3317 6.5172 18.1605 6.327 17.9783C6.23605 17.8941 6.14727 17.8076 6.06075 17.7188C5.96775 17.6236 5.88675 17.5313 5.79225 17.4241C5.69725 17.3172 5.60473 17.2082 5.51475 17.0971C5.44438 17.0072 5.37611 16.9157 5.31 16.8226C5.21798 16.6963 5.12945 16.5675 5.0445 16.4363C4.98975 16.3508 4.93875 16.2638 4.887 16.1753C4.80226 16.0341 4.72247 15.8901 4.64775 15.7433C4.6035 15.6563 4.56225 15.5678 4.521 15.4793C4.45182 15.3301 4.38605 15.1793 4.32375 15.0271C4.28625 14.9326 4.2525 14.8366 4.21875 14.7406C4.167 14.5906 4.116 14.4338 4.07175 14.2868C4.04175 14.1803 4.023 14.0791 3.99 13.9696C3.95247 13.8231 3.91921 13.6755 3.89025 13.5271C3.87525 13.4146 3.8505 13.2961 3.84 13.1896C3.81812 13.0426 3.79986 12.895 3.78525 12.7471C3.77475 12.6308 3.762 12.5146 3.762 12.3976C3.75 12.2506 3.75 12.1028 3.75 11.9551C3.75 11.8426 3.759 11.7301 3.759 11.6168C3.77094 11.3559 3.79496 11.0956 3.831 10.8368C3.90488 10.3093 4.02946 9.79017 4.203 9.28658C4.26675 9.10208 4.338 8.91908 4.41675 8.73683C4.434 8.69558 4.45425 8.64533 4.46475 8.61158C4.4769 8.57442 4.49742 8.54054 4.52475 8.51258C4.602 8.34608 4.6875 8.18108 4.7775 8.01758C4.82025 7.92608 4.872 7.83608 4.92525 7.74758C4.96275 7.68308 4.98825 7.62233 5.03775 7.55183C5.08575 7.48058 5.142 7.40708 5.19225 7.33358C5.25657 7.23265 5.32487 7.13433 5.397 7.03883C5.4915 6.91133 5.58975 6.78758 5.69175 6.66683C5.87039 6.45561 6.05937 6.25336 6.258 6.06083C6.3315 5.99183 6.40425 5.92208 6.47925 5.85608C6.68149 5.68258 6.88935 5.51574 7.1025 5.35583C7.2435 5.25833 7.3875 5.15933 7.533 5.06108C7.61054 5.01016 7.68931 4.96115 7.76925 4.91408C7.917 4.82858 8.064 4.74608 8.21175 4.66883C8.5453 4.49611 8.89066 4.34723 9.24525 4.22333C9.61497 4.0911 9.99402 3.98656 10.3792 3.91058C10.6315 3.86133 10.8857 3.82279 11.1412 3.79508C11.3077 3.77708 11.4758 3.76508 11.6453 3.75758C11.7368 3.75008 11.8298 3.75008 11.9228 3.75008C12.1894 3.74686 12.456 3.75737 12.7215 3.78158C13.1535 3.81891 13.5817 3.89165 14.0018 3.99908C14.109 4.02758 14.217 4.05758 14.3243 4.08908C14.4818 4.13408 14.6295 4.18283 14.7772 4.23683C14.8875 4.27658 14.9985 4.31933 15.1073 4.36508C15.1897 4.39958 15.2738 4.42583 15.3563 4.46258V4.47458C16.3585 4.91342 17.2623 5.54905 18.0143 6.34377C18.7662 7.1385 19.3509 8.07613 19.7336 9.10107C20.1164 10.126 20.2894 11.2174 20.2424 12.3104C20.1955 13.4035 19.9295 14.476 19.4603 15.4643C19.4453 15.4958 19.4273 15.5221 19.413 15.5528ZM8.871 18.9278V18.9263C10.5551 19.6809 12.456 19.7977 14.2199 19.255C15.9837 18.7124 17.4902 17.5473 18.459 15.9766C18.513 15.8866 18.564 15.7936 18.615 15.7021C18.6855 15.5671 18.765 15.4366 18.8333 15.2896C19.2867 14.3571 19.5437 13.3414 19.5881 12.3054C19.6326 11.2695 19.4636 10.2355 19.0917 9.26757C18.7198 8.29967 18.1529 7.41856 17.4262 6.67894C16.6994 5.93931 15.8284 5.35698 14.8673 4.96808C14.7701 4.92667 14.6718 4.88791 14.5725 4.85183C14.3364 4.76802 14.0966 4.6947 13.854 4.63208C13.4617 4.53183 13.0619 4.46386 12.6585 4.42883L12.4065 4.41083C12.2437 4.40333 12.0825 4.39958 11.9213 4.39958H11.6678C11.511 4.40633 11.3558 4.41758 11.2005 4.43333C11.1068 4.44383 11.0138 4.45583 10.9215 4.46858C10.6718 4.50237 10.4242 4.54994 10.1797 4.61108C9.93349 4.67033 9.69063 4.74294 9.45225 4.82858C9.3465 4.86458 9.2445 4.90358 9.14625 4.94333C8.92735 5.03281 8.71217 5.13114 8.50125 5.23808C8.28714 5.34895 8.07794 5.46907 7.87425 5.59808C7.7369 5.68346 7.60351 5.77506 7.4745 5.87258C7.407 5.91833 7.3395 5.96783 7.2735 6.01958C7.07673 6.1752 6.88752 6.34014 6.7065 6.51383C6.59625 6.62483 6.48825 6.73733 6.38175 6.85133C6.21413 7.03503 6.0552 7.22649 5.9055 7.42508C5.74991 7.63437 5.60425 7.85086 5.469 8.07383C5.42025 8.15483 5.376 8.23583 5.33025 8.31683C5.24025 8.46833 5.16675 8.62208 5.09325 8.78183C4.95375 9.08297 4.83399 9.39288 4.73475 9.70958C4.65201 9.95274 4.58512 10.201 4.5345 10.4528C4.50225 10.6103 4.47525 10.7701 4.4535 10.9291C4.4415 11.0206 4.428 11.1136 4.41975 11.2051C4.40475 11.3528 4.38825 11.4998 4.38825 11.6476C4.37925 11.7481 4.37925 11.8501 4.37925 11.9513C4.37925 12.0916 4.39125 12.2311 4.39125 12.3713C4.40421 12.6149 4.42874 12.8576 4.46475 13.0988C4.48425 13.2001 4.50075 13.2961 4.5195 13.4048C4.5465 13.5436 4.57875 13.6823 4.6125 13.8211C4.6365 13.9148 4.65975 14.0093 4.6875 14.1053C4.72875 14.2478 4.776 14.3881 4.82625 14.5283C4.857 14.6138 4.88625 14.7008 4.92075 14.7863C4.977 14.9281 5.0385 15.0653 5.09625 15.2108C5.1345 15.2918 5.17125 15.3736 5.2125 15.4531C5.286 15.5873 5.35725 15.7201 5.43375 15.8506C5.484 15.9323 5.53125 16.0118 5.5815 16.0913C5.658 16.2121 5.742 16.3298 5.826 16.4483C5.88825 16.5338 5.93325 16.6043 6.015 16.7018C6.096 16.7993 6.1875 16.9051 6.267 16.9966C6.3465 17.0881 6.435 17.1871 6.5145 17.2696C6.594 17.3521 6.65625 17.4106 6.759 17.5081C6.9332 17.6763 7.11701 17.8344 7.3095 17.9813C7.79006 18.3585 8.31434 18.6763 8.871 18.9278ZM11.985 18.3091C10.7362 18.31 9.51527 17.9405 8.47649 17.2475C7.43772 16.5544 6.6278 15.5689 6.14917 14.4155C5.67054 13.2621 5.54469 11.9927 5.78755 10.7677C6.0304 9.54283 6.63105 8.41744 7.51353 7.53391C8.39601 6.65039 9.52068 6.0484 10.7453 5.80409C11.9699 5.55978 13.2395 5.68411 14.3935 6.16138C15.5474 6.63864 16.5339 7.44738 17.2282 8.48534C17.9225 9.52329 18.2934 10.7438 18.294 11.9926C18.2928 13.6662 17.628 15.271 16.4453 16.4551C15.2626 17.6392 13.6586 18.3059 11.985 18.3091ZM11.985 7.75058C11.1451 7.74954 10.3237 7.9977 9.62486 8.46364C8.92602 8.92959 8.38111 9.59238 8.0591 10.3681C7.73709 11.1439 7.65245 11.9977 7.8159 12.8216C7.97934 13.6455 8.38352 14.4024 8.97729 14.9964C9.57105 15.5905 10.3277 15.9951 11.1515 16.159C11.9753 16.3229 12.8292 16.2387 13.6051 15.9171C14.381 15.5955 15.0441 15.0509 15.5104 14.3523C15.9767 13.6537 16.2253 12.8325 16.2247 11.9926C16.2236 10.868 15.7767 9.78976 14.982 8.99408C14.1873 8.19839 13.1096 7.75016 11.985 7.74758V7.75058Z" fill="white"/>
</svg>
