<svg width="24" height="24" fill="none" xmlns="http://www.w3.org/2000/svg"><g clip-path="url(#a)"><path opacity=".25" d="M10.29 10.963 7.51 6.02 4.68 1.031a2.051 2.051 0 0 0-.655-.695h-.023c-.287.17-.522.42-.678.72L1.22 4.798a1.75 1.75 0 0 0 0 1.727l2.524 4.486c.187.311.258.671.258 1.03-.002.361-.09.715-.258 1.032l-2.5 4.438a1.75 1.75 0 0 0 0 1.727l2.103 3.742c.164.288.397.552.678.72h.023c.28-.168.491-.408.655-.696l2.805-4.99 2.781-4.989c.35-.64.35-1.422 0-2.062Z" fill="url(#b)"/><path opacity=".25" d="m23.707 10.819-2.805-4.966-2.875-5.11a2.097 2.097 0 0 0-.514-.599.565.565 0 0 0-.374-.144c-1.473 0-2.478.048-3.226.048-.117 0-.187.144-.163.264l.724 4.174c0 .048 0 .096-.023.144a1.766 1.766 0 0 0 .046 1.703l2.572 4.606c.187.336.28.695.28 1.055s-.093.72-.28 1.056l-2.595 4.605a1.831 1.831 0 0 0-.047 1.703.311.311 0 0 1 .024.144l-.725 4.15c-.023.12.047.264.164.264.678 0-.28.072 3.319.072.07 0 .163-.024.234-.048.257-.096.42-.408.56-.672l2.876-5.133 2.781-4.966c.444-.72.444-1.607.047-2.35Z" fill="url(#c)"/><path d="m22.562 10.962-5.586-9.93A1.996 1.996 0 0 0 15.246 0H4.073C3.7 0 3.35.12 3.021.312v.024c.269.175.493.414.655.695l2.805 4.99c.257-.12.56-.192.841-.192h4.628c.725 0 1.38.384 1.73 1.032l2.314 4.101c.35.624.35 1.416 0 2.063l-2.314 4.102c-.35.624-1.028 1.032-1.73 1.032H7.346c-.291-.001-.578-.067-.842-.192L3.7 22.957c-.161.28-.386.52-.654.695v.024c.304.192.678.312 1.052.312h11.195c.725 0 1.38-.384 1.73-1.032l5.587-9.93a2.155 2.155 0 0 0-.047-2.064Z" fill="url(#d)"/><path d="M9.262 10.963 6.481 6.02l-2.805-4.99A2.051 2.051 0 0 0 3.02.337h-.023c-.287.17-.521.42-.678.72L.24 4.774a1.75 1.75 0 0 0 0 1.727l2.524 4.485c.187.312.257.672.257 1.032-.002.36-.09.714-.257 1.031L.24 17.511a1.75 1.75 0 0 0 0 1.727l2.103 3.742c.164.288.398.552.678.72h.024c.28-.168.49-.408.654-.696l2.805-4.99 2.782-4.94c.35-.696.35-1.464-.024-2.111Z" fill="url(#e)"/></g><defs><linearGradient id="b" x1="1.014" y1="-.308" x2="10.549" y2="-.308" gradientUnits="userSpaceOnUse"><stop stop-color="#00BA96"/><stop offset=".52" stop-color="#00D9AF"/><stop offset="1" stop-color="#00D9AF"/></linearGradient><linearGradient id="c" x1="13.738" y1="-.308" x2="24.016" y2="-.308" gradientUnits="userSpaceOnUse"><stop stop-color="#008D85"/><stop offset="1" stop-color="#00FFE0"/></linearGradient><linearGradient id="d" x1="3.021" y1="-.308" x2="22.849" y2="-.308" gradientUnits="userSpaceOnUse"><stop stop-color="#008D94"/><stop offset="1" stop-color="#00FFE0"/></linearGradient><linearGradient id="e" x1=".012" y1="-.308" x2="9.546" y2="-.308" gradientUnits="userSpaceOnUse"><stop stop-color="#00BA96"/><stop offset=".52" stop-color="#00D9AF"/><stop offset="1" stop-color="#00FAAF"/></linearGradient><clipPath id="a"><path fill="#fff" d="M0 0h24v24H0z"/></clipPath></defs></svg>