<svg width="24" height="24" fill="none" xmlns="http://www.w3.org/2000/svg"><path d="M12 24c6.627 0 12-5.373 12-12S18.627 0 12 0 0 5.373 0 12s5.373 12 12 12Z" fill="#7C5D00"/><path d="M12 23.04c6.097 0 11.04-4.943 11.04-11.04C23.04 5.903 18.097.96 12 .96 5.903.96.96 5.903.96 12c0 6.097 4.943 11.04 11.04 11.04Z" fill="#EED554"/><path d="M12 22.08c5.567 0 10.08-4.513 10.08-10.08S17.567 1.92 12 1.92 1.92 6.433 1.92 12 6.433 22.08 12 22.08Z" fill="#F1C700"/><path fill-rule="evenodd" clip-rule="evenodd" d="M18.71 11.334h-4.505a.49.49 0 0 0-.49.49v1.2c0 .27.22.49.49.49h2.473a4.346 4.346 0 0 1-3.996 2.648 4.339 4.339 0 0 1-3.667-2.024h.903c.27 0 .49-.22.49-.49v-.43a.49.49 0 0 0-.49-.49h-1.48a4.337 4.337 0 0 1-.032-1.634h1.512c.27 0 .49-.22.49-.49v-.43a.49.49 0 0 0-.49-.49H8.909a4.34 4.34 0 0 1 3.773-2.2c1.34 0 2.54.611 3.337 1.57.184.22.52.23.722.025.422-.43.834-.844 1.158-1.16a6.512 6.512 0 0 0-5.217-2.614 6.529 6.529 0 0 0-6.157 4.38H5.29a.49.49 0 0 0-.49.489v.43c0 .27.22.49.49.49h.915a6.547 6.547 0 0 0 .023 1.634H5.29a.49.49 0 0 0-.49.49v.43c0 .27.22.49.49.49h1.3a6.528 6.528 0 0 0 6.092 4.202 6.525 6.525 0 0 0 6.518-6.517v-.005a.488.488 0 0 0-.49-.484Z" fill="#fff"/></svg>