<svg width="24" height="24" fill="none" xmlns="http://www.w3.org/2000/svg"><path d="M12 24c6.627 0 12-5.373 12-12S18.627 0 12 0 0 5.373 0 12s5.373 12 12 12Z" fill="#272D63"/><path d="m15.161 5.4-.525 2.131c1.623.567 2.818 1.418 2.585 2.993-.068.479-.233.958-.573 1.32-.292.313-.748.479-1.137.606a4.841 4.841 0 0 1-1.448.254c-.33 0-.65-.01-.98-.039-.535-.04-1.08-.088-1.604-.205-.164-.04-.32-.069-.466-.108l-.71 2.865-.417 1.564-.525 2.142-1.292-.322.535-2.162c-.301-.078-.613-.166-.923-.244L6 15.775l.641-1.478s.953.255.942.236c.37.088.525-.157.593-.313l.729-2.934.34-1.359.389-1.564c.018-.274-.078-.626-.603-.753.02-.01-.942-.235-.942-.235l.34-1.388 1.777.45c.273.067.545.126.827.194l.524-2.131 1.292.322-.514 2.093c.34.079.69.157 1.03.245l.504-2.083 1.292.323Zm-.106 7.725c.359-.06.796-.206 1.107-.333.01-.01.03-.01.039-.02.67.597.99 1.565.553 2.807-.69 2.014-2.35 2.18-4.546 1.76l-.534 2.161-1.283-.323.495-2.063.02-.068.389-1.585c1.146.255 2.691.421 2.982-.772.156-.636-.145-1.095-.631-1.428l.505-.03c.36-.018.544-.047.904-.107v.001Zm-.38-2.621c.38-1.535-1.972-1.868-2.7-2.063l-.642 2.6c.73.186 2.983.93 3.342-.537Z" fill="#FEFEFE"/></svg>