<svg width="24" height="24" viewBox="0 0 24 24" fill="none" xmlns="http://www.w3.org/2000/svg">
<g clip-path="url(#clip0)">
<mask id="mask0" mask-type="alpha" maskUnits="userSpaceOnUse" x="0" y="0" width="24" height="25">
<path d="M12.4093 24.0003H20.705V20.1267H13.7291L12.4093 24.0003ZM21.2535 24.0003H23.1047V20.1267H21.2535V24.0003ZM14.2004 18.0699H20.705V14.1963H15.5031L14.2004 18.0699ZM21.2535 18.0699H23.1047V14.1963H21.2535V18.0699ZM16.0087 12.2766H20.705V8.40299H17.2599L16.0087 12.2766ZM21.2535 12.2766H23.1047V8.40299H21.2535V12.2766ZM17.9626 0.00439453L10.284 24.0003H7.67873L0 0.00439453H4.7306L8.98135 14.9504L13.232 0.00439453H17.9626Z" fill="white"/>
</mask>
<g mask="url(#mask0)">
<path fill-rule="evenodd" clip-rule="evenodd" d="M12.4093 24.0003H20.705V20.1267H13.7291L12.4093 24.0003ZM21.2535 24.0003H23.1047V20.1267H21.2535V24.0003ZM14.2004 18.0699H20.705V14.1963H15.5031L14.2004 18.0699ZM21.2535 18.0699H23.1047V14.1963H21.2535V18.0699ZM16.0087 12.2766H20.705V8.40299H17.2599L16.0087 12.2766ZM21.2535 12.2766H23.1047V8.40299H21.2535V12.2766ZM17.9626 0.00439453L10.284 24.0003H7.67873L0 0.00439453H4.7306L8.98135 14.9504L13.232 0.00439453H17.9626Z" fill="url(#paint0_linear)"/>
</g>
</g>
<defs>
<linearGradient id="paint0_linear" x1="11.5523" y1="0.00439453" x2="11.5523" y2="24.0003" gradientUnits="userSpaceOnUse">
<stop stop-color="white"/>
<stop offset="1" stop-color="#1D1D1B"/>
</linearGradient>
<clipPath id="clip0">
<rect width="24" height="24" fill="white"/>
</clipPath>
</defs>
</svg>
