<svg width="24" height="24" viewBox="0 0 24 24" fill="none" xmlns="http://www.w3.org/2000/svg">
<g clip-path="url(#clip0)">
<path d="M3.34067 17.1992C3.73022 16.8117 4.25767 16.5946 4.80715 16.5957C5.35663 16.5968 5.88322 16.8159 6.27125 17.205C6.65929 17.594 6.87704 18.1212 6.87668 18.6707C6.87632 19.2201 6.65788 19.747 6.26934 20.1356C5.8808 20.5241 5.35392 20.7426 4.80444 20.7429C4.25496 20.7433 3.7278 20.5255 3.33875 20.1375C2.9497 19.7494 2.73057 19.2229 2.7295 18.6734C2.72842 18.1239 2.94548 17.5964 3.33301 17.2069L3.34067 17.1992Z" fill="#FDBA4D"/>
<path d="M17.5374 3.72176C17.8277 3.43146 18.1975 3.23376 18.6002 3.15366C19.0028 3.07356 19.4202 3.11466 19.7994 3.27176C20.1787 3.42885 20.5029 3.69489 20.731 4.03623C20.9591 4.37757 21.0808 4.77888 21.0808 5.18941C21.0808 5.59994 20.9591 6.00124 20.731 6.34258C20.5029 6.68392 20.1787 6.94996 19.7994 7.10706C19.4202 7.26415 19.0028 7.30525 18.6002 7.22515C18.1975 7.14505 17.8277 6.94735 17.5374 6.65706C17.1487 6.26859 16.9302 5.74174 16.9297 5.19223C16.9292 4.64272 17.1469 4.11549 17.5349 3.72635H17.5374" fill="#FDBA4D"/>
<path d="M6.00293 15.6026L8.19291 17.7926L10.1991 15.7864C9.70402 15.5876 9.25429 15.2907 8.87703 14.9134C8.49978 14.5361 8.20281 14.0864 8.00403 13.5913L6.00293 15.6026Z" fill="#FDBA4D"/>
<path d="M15.8501 10.2441L17.8564 8.23784L15.6664 6.04785L13.6602 8.05407C14.1553 8.25273 14.6051 8.54968 14.9823 8.927C15.3591 9.30163 15.6546 9.75 15.8501 10.2441Z" fill="#FDBA4D"/>
<path d="M17.4674 20.0312C17.1771 19.7409 16.9794 19.3711 16.8993 18.9684C16.8192 18.5658 16.8603 18.1484 17.0174 17.7692C17.1745 17.3899 17.4405 17.0657 17.7818 16.8376C18.1232 16.6095 18.5245 16.4878 18.935 16.4878C19.3455 16.4878 19.7468 16.6095 20.0882 16.8376C20.4295 17.0657 20.6956 17.3899 20.8527 17.7692C21.0098 18.1484 21.0508 18.5658 20.9707 18.9684C20.8906 19.3711 20.693 19.7409 20.4027 20.0312C20.2103 20.2239 19.9818 20.3769 19.7303 20.4814C19.4788 20.5858 19.2091 20.6397 18.9368 20.6399C18.6645 20.6402 18.3948 20.5868 18.1431 20.4827C17.8914 20.3787 17.6626 20.2262 17.4699 20.0337L17.4674 20.0312Z" fill="#5DA9DD"/>
<path d="M3.5494 6.47258C3.2591 6.1823 3.0614 5.81246 2.9813 5.40982C2.9012 5.00719 2.9423 4.58984 3.09939 4.21056C3.25649 3.83128 3.52253 3.5071 3.86387 3.27902C4.20521 3.05094 4.60651 2.9292 5.01704 2.9292C5.42757 2.9292 5.82888 3.05094 6.17022 3.27902C6.51156 3.5071 6.7776 3.83128 6.93469 4.21056C7.09179 4.58984 7.13288 5.00719 7.05278 5.40982C6.97268 5.81246 6.77499 6.1823 6.48469 6.47258C6.29213 6.66517 6.06353 6.81794 5.81193 6.92217C5.56032 7.0264 5.29065 7.08004 5.01832 7.08004C4.74598 7.08004 4.47631 7.0264 4.22471 6.92217C3.97311 6.81794 3.7445 6.66517 3.55195 6.47258" fill="#5DA9DD"/>
<path d="M15.5016 17.705L17.6915 15.515L15.6853 13.5088C15.4865 14.0039 15.1896 14.4536 14.8123 14.8309C14.4351 15.2081 13.9853 15.5051 13.4902 15.7039" fill="#5DA9DD"/>
<path d="M10.3661 7.94029L8.35991 5.93408L6.16992 8.12406L8.17614 10.1303C8.3748 9.6351 8.67176 9.18533 9.04907 8.80811C9.4237 8.4313 9.87207 8.13586 10.3661 7.94029Z" fill="#5DA9DD"/>
<path d="M14.0341 2.07768C14.0337 2.62817 13.8147 3.15597 13.4252 3.54502C13.0358 3.93406 12.5077 4.1525 11.9572 4.1523C11.4067 4.15209 10.8788 3.93327 10.4897 3.54393C10.1005 3.1546 9.88184 2.62664 9.88184 2.07615C9.88184 1.52565 10.1005 0.997691 10.4897 0.60836C10.8788 0.219029 11.4067 0.000203177 11.9572 1.41413e-07C12.5077 -0.000202894 13.0358 0.218234 13.4252 0.607278C13.8147 0.996322 14.0337 1.52412 14.0341 2.07462V2.07768Z" fill="#18568C"/>
<path d="M14.0341 21.9224C14.0337 22.4729 13.8147 23.0007 13.4252 23.3898C13.0358 23.7788 12.5077 23.9972 11.9572 23.997C11.4067 23.9968 10.8788 23.778 10.4897 23.3887C10.1005 22.9993 9.88184 22.4714 9.88184 21.9209C9.88184 21.3704 10.1005 20.8424 10.4897 20.4531C10.8788 20.0638 11.4067 19.8449 11.9572 19.8447C12.5077 19.8445 13.0358 20.063 13.4252 20.452C13.8147 20.8411 14.0337 21.3689 14.0341 21.9193V21.9224Z" fill="#18568C"/>
<path d="M12.7111 5.24268H11.4043V7.81553C11.8367 7.74049 12.2787 7.74049 12.7111 7.81553" fill="#18568C"/>
<path d="M12.7111 16.2979C12.2787 16.3729 11.8367 16.3729 11.4043 16.2979V18.8707H12.7111" fill="#18568C"/>
<path d="M21.1498 13.5087C20.5993 13.5083 20.0715 13.2893 19.6825 12.8998C19.2934 12.5104 19.075 11.9823 19.0752 11.4318C19.0754 10.8813 19.2942 10.3535 19.6836 9.96426C20.0729 9.57508 20.6008 9.35645 21.1513 9.35645C21.7018 9.35645 22.2298 9.57508 22.6191 9.96426C23.0085 10.3535 23.2273 10.8813 23.2275 11.4318C23.2277 11.9823 23.0093 12.5104 22.6202 12.8998C22.2312 13.2893 21.7034 13.5083 21.1529 13.5087H21.1498Z" fill="#18578C"/>
<path d="M2.07768 13.8619C1.66678 13.8619 1.2651 13.7401 0.923436 13.5118C0.581775 13.2835 0.315473 12.9591 0.158204 12.5794C0.000934059 12.1998 -0.0402407 11.7821 0.0398856 11.3791C0.120012 10.9761 0.317841 10.6059 0.608359 10.3153C0.898876 10.0247 1.26904 9.82675 1.67203 9.74653C2.07503 9.6663 2.49276 9.70737 2.87242 9.86455C3.25207 10.0217 3.5766 10.2879 3.80496 10.6296C4.03332 10.9712 4.15526 11.3728 4.15536 11.7837C4.15543 12.0566 4.10173 12.3268 3.99735 12.579C3.89297 12.8311 3.73994 13.0602 3.547 13.2532C3.35406 13.4462 3.125 13.5993 2.87289 13.7037C2.62078 13.8081 2.35057 13.8619 2.07768 13.8619Z" fill="#18578C"/>
<path d="M15.8662 12.4373H18.4391V11.1284H15.8662C15.9412 11.5608 15.9412 12.0029 15.8662 12.4353V12.4373Z" fill="#18578C"/>
<path d="M7.87266 12.4372C7.79762 12.0048 7.79762 11.5627 7.87266 11.1304H5.2998V12.4372" fill="#18578C"/>
<path d="M14.8402 11.9372C14.8402 12.5198 14.6675 13.0893 14.3438 13.5736C14.0202 14.058 13.5601 14.4356 13.0219 14.6585C12.4837 14.8814 11.8915 14.9398 11.3201 14.8261C10.7487 14.7125 10.2239 14.4319 9.81194 14.02C9.4 13.6081 9.11947 13.0832 9.00582 12.5118C8.89216 11.9405 8.9505 11.3482 9.17343 10.81C9.39637 10.2718 9.7739 9.81176 10.2583 9.48811C10.7427 9.16445 11.3122 8.9917 11.8947 8.9917C12.6758 8.99197 13.4249 9.30239 13.9772 9.85472C14.5295 10.407 14.84 11.1561 14.8402 11.9372Z" fill="#18568B"/>
</g>
<defs>
<clipPath id="clip0">
<rect width="24" height="24" fill="white"/>
</clipPath>
</defs>
</svg>
