<svg width="24" height="24" fill="none" xmlns="http://www.w3.org/2000/svg"><path fill-rule="evenodd" clip-rule="evenodd" d="m8.777 9.185 1.641-1.641a.466.466 0 0 0 0-.66L8.34 4.807H3.523L0 8.329v4.792l3.523 3.523h4.96l8.543-8.543h2.121l1.576 1.576v2.03l-1.615 1.615h-2.333l-.91-.91a.466.466 0 0 0-.658 0l-2.015 2.015v4.794c0 .258.209.466.466.466h2.411a.466.466 0 0 0 .466-.466v-1.906c0-.384.311-.695.695-.695h3.307L24 13.157V8.33l-3.529-3.53h-4.894l-8.51 8.511H4.96l-1.617-1.616V9.671l1.527-1.527h2.127L8.13 9.197c.184.17.47.165.647-.012Z" fill="#ED1650"/></svg>