<svg width="24" height="24" fill="none" xmlns="http://www.w3.org/2000/svg"><path fill-rule="evenodd" clip-rule="evenodd" d="M24 12c0 6.627-5.373 12-12 12S0 18.627 0 12 5.373 0 12 0s12 5.373 12 12Z" fill="#FFFFFE"/><path fill-rule="evenodd" clip-rule="evenodd" d="M14.183 13.663H10.03v5.676h4.154a2.838 2.838 0 0 0 0-5.676ZM14.183 4.662H10.03v5.675h4.154a2.838 2.838 0 0 0 0-5.676Z" fill="#D7262E"/><path fill-rule="evenodd" clip-rule="evenodd" d="M12 22.254a10.24 10.24 0 0 1-8.015-3.866V5.612A10.24 10.24 0 0 1 12 1.746c5.654 0 10.254 4.6 10.254 10.254S17.654 22.254 12 22.254ZM12 0C5.373 0 0 5.373 0 12s5.373 12 12 12 12-5.373 12-12S18.627 0 12 0Z" fill="#D7262E"/></svg>