<svg width="24" height="24" fill="none" xmlns="http://www.w3.org/2000/svg"><path fill-rule="evenodd" clip-rule="evenodd" d="m8.575 17.9-.016-.01 4.54-3.564-3.118-3.97-4.549 3.571a6.858 6.858 0 0 1 6.379-8.825L8.274.585C3.472 2.145 0 6.656 0 11.979c0 6.616 5.363 11.979 11.979 11.979.41 0 .816-.02 1.216-.061l-4.667-5.961.047-.037Z" fill="#EE0766"/><path fill-rule="evenodd" clip-rule="evenodd" d="M20.52 18.647c-1.019 1.294-2.318 2.366-3.795 3.067l-.754.373-2.03-2.498.971-.335a8.803 8.803 0 0 0 3.267-2.515c.215-.27.413-.553.59-.848.959-1.6 1.129-3.533.911-5.427-.01-.097.002-.239-.019-.334-.118-.837-.628-1.243-1.32-1.148-.152.028-.24.09-.24.09l-3.914 3.156-1.988-2.466 3.92-3.16c.766-.676.076-1.377-.38-1.93l-.158-.198-.855-1.066-1.843-2.315.885.133.671.147a10.64 10.64 0 0 1 4.989 2.688c.923.881 1.733 1.894 2.325 3.012.149.28.283.566.403.859 1.109 3.219.96 7.053-1.06 9.914-.18.275-.373.543-.576.801ZM11.979 0c-.405 0-.804.02-1.199.06l4.673 5.97-4.53 3.557 3.117 3.97 4.535-3.561a6.858 6.858 0 0 1-6.441 8.819l3.565 4.553c4.794-1.565 8.259-6.072 8.259-11.389C23.958 5.363 18.595 0 11.978 0Z" fill="#EE0766"/></svg>