<svg width="24" height="24" viewBox="0 0 24 24" fill="none" xmlns="http://www.w3.org/2000/svg">
<path d="M12 24C18.6274 24 24 18.6274 24 12C24 5.37258 18.6274 0 12 0C5.37258 0 0 5.37258 0 12C0 18.6274 5.37258 24 12 24Z" fill="#292929"/>
<path fill-rule="evenodd" clip-rule="evenodd" d="M11.2552 13.9925C11.2552 13.6475 11.2567 13.3033 11.2545 12.959C11.2537 12.863 11.2815 12.7895 11.3708 12.7505C11.4533 12.7145 11.5395 12.74 11.6115 12.824C11.826 13.0745 12.039 13.3265 12.2527 13.5785C12.3277 13.6663 12.4035 13.7533 12.4763 13.844C12.4933 13.8655 12.5033 13.8917 12.5048 13.919C12.5063 14.2828 12.507 14.6465 12.5055 15.0095C12.5075 15.1696 12.4491 15.3245 12.3419 15.4433C12.2347 15.5622 12.0866 15.6363 11.9272 15.6508C11.768 15.661 11.6108 15.6105 11.4872 15.5095C11.3636 15.4085 11.2829 15.2644 11.2613 15.1063C11.2545 15.065 11.2552 15.0223 11.2552 14.9803V13.9925ZM11.2575 7.23504C11.2568 7.22004 11.2552 7.20579 11.2552 7.19079V5.14179C11.256 4.82679 11.472 4.56129 11.7645 4.50954C11.8547 4.49275 11.9475 4.4961 12.0363 4.51933C12.1251 4.54255 12.2076 4.5851 12.278 4.64392C12.3485 4.70274 12.405 4.77638 12.4437 4.8596C12.4824 4.94281 12.5022 5.03353 12.5018 5.12529C12.5093 5.82354 12.5047 6.52254 12.5062 7.22079L12.5025 7.25679C12.357 7.00779 12.156 6.88329 11.8815 6.88404C11.61 6.88404 11.4075 7.00404 11.2575 7.23504ZM11.2552 16.6948C11.4082 16.9273 11.6122 17.0458 11.886 17.045C12.159 17.0443 12.3577 16.9198 12.5062 16.6888V18.4243C12.5055 18.5945 12.5107 18.7663 12.4957 18.9343C12.4812 19.0946 12.4051 19.243 12.2834 19.3483C12.1617 19.4536 12.004 19.5077 11.8433 19.499C11.6847 19.4884 11.5361 19.4182 11.4273 19.3024C11.3185 19.1866 11.2575 19.0339 11.2568 18.875C11.253 18.2053 11.2552 17.5355 11.2552 16.865V16.6948ZM12.5062 10.0753V11.321C12.5062 11.4395 12.4687 11.504 12.3787 11.54C12.3322 11.5592 12.2807 11.5627 12.232 11.55C12.1832 11.5373 12.14 11.509 12.1088 11.4695L11.5657 10.8335C11.472 10.724 11.3783 10.6153 11.286 10.5035C11.2683 10.4823 11.2578 10.4561 11.256 10.4285C11.2545 9.89304 11.2538 9.35679 11.256 8.82129C11.255 8.66313 11.3135 8.51038 11.42 8.39339C11.5264 8.2764 11.673 8.20372 11.8305 8.18979C12.1267 8.15679 12.4208 8.37729 12.4897 8.68779C12.501 8.73954 12.5048 8.79354 12.5048 8.84679C12.5063 9.25629 12.5062 9.66579 12.5062 10.0753ZM13.8045 7.54254V5.87754C13.806 5.57604 13.9777 5.33004 14.2448 5.24604C14.6497 5.11779 15.0548 5.42379 15.057 5.86479C15.0592 6.28029 15.057 6.69579 15.057 7.11054V9.20679C15.057 9.51654 14.871 9.76704 14.5868 9.84429C14.217 9.94404 13.8398 9.67179 13.809 9.28254C13.8063 9.24435 13.805 9.20607 13.8052 9.16779V7.54254H13.8045ZM10.0215 15.5698V17.4935C10.0243 17.6439 9.97357 17.7903 9.87836 17.9067C9.78314 18.023 9.64966 18.1018 9.50175 18.1288C9.14175 18.1978 8.7825 17.9053 8.772 17.531C8.769 17.4238 8.77125 17.3165 8.77125 17.2093V13.6445C8.77125 13.3453 8.96325 13.0925 9.24225 13.0205C9.33473 12.9972 9.43133 12.9953 9.52464 13.0151C9.61796 13.0348 9.70553 13.0756 9.78065 13.1344C9.85578 13.1931 9.91647 13.2683 9.95808 13.3541C9.9997 13.44 10.0211 13.5342 10.0208 13.6295C10.023 14.276 10.0208 14.9233 10.0208 15.5698H10.0215ZM10.0215 8.48529V11.1095C10.0243 11.2551 9.97695 11.3972 9.88735 11.5119C9.79775 11.6266 9.67139 11.707 9.5295 11.7395C9.43861 11.7589 9.34455 11.7578 9.25413 11.7363C9.16371 11.7148 9.0792 11.6735 9.0067 11.6154C8.9342 11.5573 8.87554 11.4837 8.83495 11.4001C8.79435 11.3165 8.77285 11.225 8.772 11.132C8.76825 10.7525 8.77125 10.3738 8.7705 9.99429V5.86479C8.7705 5.55579 8.9715 5.29779 9.26025 5.23254C9.35205 5.21239 9.44721 5.21316 9.53867 5.23479C9.63013 5.25643 9.71555 5.29837 9.78859 5.35751C9.86163 5.41665 9.92043 5.49148 9.96062 5.57643C10.0008 5.66139 10.0214 5.75431 10.0208 5.84829C10.023 6.52254 10.0208 7.19604 10.0208 7.87029L10.0215 8.48529ZM13.8045 14.6248V11.7748C13.8045 11.4905 13.926 11.2798 14.1795 11.1613C14.586 10.973 15.042 11.2738 15.057 11.7335V17.4695C15.057 17.783 14.8777 18.032 14.595 18.113C14.2245 18.2195 13.8405 17.948 13.809 17.5573C13.8062 17.5174 13.8049 17.4773 13.8052 17.4373V14.6233L13.8045 14.6248ZM17.625 11.7253V16.1803C17.6287 16.3287 17.5804 16.4738 17.4885 16.5905C17.3966 16.7071 17.2669 16.7881 17.1217 16.8193C16.7528 16.8995 16.3853 16.6048 16.3748 16.22V7.28004C16.3748 6.99129 16.5195 6.76104 16.764 6.65904C17.1765 6.48654 17.6243 6.79704 17.6243 7.25754V11.7245L17.625 11.7253ZM7.62525 11.7185V16.1803C7.62525 16.4953 7.43025 16.748 7.13625 16.8178C6.76125 16.9078 6.3855 16.6123 6.375 16.2185V7.26579C6.375 6.95904 6.55875 6.71004 6.84 6.63204C6.93227 6.60779 7.02886 6.60496 7.12239 6.62378C7.21591 6.6426 7.30389 6.68256 7.3796 6.74061C7.45531 6.79865 7.51674 6.87325 7.55919 6.95869C7.60163 7.04412 7.62397 7.13814 7.6245 7.23354C7.62825 7.72479 7.62525 8.21679 7.62525 8.70879V11.7178V11.7185Z" fill="white"/>
</svg>
