<svg width="24" height="24" fill="none" xmlns="http://www.w3.org/2000/svg"><g clip-path="url(#a)"><path d="M12.04 24h1.623l8.415-8.88-1.913-.175L12.04 24Z" fill="#005F60"/><path d="M12.338 6.479h1.624l8.117 8.642h-2.103l-7.638-8.642ZM5.637 9.414l2.481-.473 6.114-6.521h-1.733L5.637 9.414Z" fill="#005F60"/><path d="M12.115 15.244h1.87l-5.91-6.346-2.036-.241 6.076 6.587Z" fill="#005F60"/><path d="M10.093 17.517h1.62l2.272-2.273-1.809-.332-2.083 2.605ZM10.363 0h1.677l2.192 2.42-1.624.137L10.363 0Z" fill="#005F60"/><path d="M10.363 0 2 8.94l8.093 8.577 2.245-2.273L6.494 8.94l6.114-6.521L10.363 0Z" fill="url(#b)"/><path d="m10.093 8.898 2.245-2.42 8.117 8.643-8.416 8.88-2.282-2.36 6.19-6.52-5.854-6.223Z" fill="url(#c)"/></g><defs><linearGradient id="b" x1="7.304" y1="0" x2="7.304" y2="17.517" gradientUnits="userSpaceOnUse"><stop stop-color="#00615F"/><stop offset=".5" stop-color="#187320"/><stop offset="1" stop-color="#74BC20"/></linearGradient><linearGradient id="c" x1="15.106" y1="6.479" x2="15.106" y2="24" gradientUnits="userSpaceOnUse"><stop stop-color="#00615F"/><stop offset=".5" stop-color="#187320"/><stop offset="1" stop-color="#74BC20"/></linearGradient><clipPath id="a"><path fill="#fff" d="M0 0h24v24H0z"/></clipPath></defs></svg>