<svg width="24" height="24" fill="none" xmlns="http://www.w3.org/2000/svg"><g clip-path="url(#a)"><path d="M23.638 14.903c-1.604 6.428-8.113 10.34-14.544 8.737C2.666 22.037-1.244 15.525.359 9.098 1.96 2.669 8.472-1.243 14.897.359c6.431 1.603 10.344 8.116 8.74 14.544Z" fill="#0007BC"/><path d="m19.203 12.731-.15-.24-2.412-3.822c-.191-.297-.441-.55-.735-.744a2.378 2.378 0 0 0-3.319.8c-.162.269-.365.603-.571.931l-.657-1.012-.025-.035V8.6a2.788 2.788 0 0 0-.818-.734 2.424 2.424 0 0 0-1.572-.253 2.553 2.553 0 0 0-1.36.753c-.103.116-.193.241-.268.375l-1.782 2.825-.746 1.179c-.341.543-.46 1.2-.329 1.828.122.628.5 1.178 1.041 1.522a2.28 2.28 0 0 0 1.228.35 2.48 2.48 0 0 0 2.097-1.16l.569-.9.55.857a3.368 3.368 0 0 0 .675.715h.006a2.294 2.294 0 0 0 1.36.447 2.403 2.403 0 0 0 1.309-.394l.047-.031.043-.028c.213-.15.403-.334.56-.544l.647-1.006.553.875a2.494 2.494 0 0 0 2.103 1.153c.431.003.856-.119 1.225-.347 1.11-.694 1.44-2.225.731-3.35ZM7.663 8.947c.065-.113.14-.216.225-.313.3-.322.696-.544 1.128-.637.45-.082.909-.007 1.309.21.272.162.51.377.697.63l.015.022.757 1.163c-.353.528-.65.962-.65.972a2.048 2.048 0 0 1-1.194.862h-.025c-.512.15-1.06.09-1.531-.162l-.075-.044-.066-.044-.062-.044-.053-.043-.05-.041-.041-.034-.028-.025-.016-.016-.044-.05-.053-.047-.015-.015-.025-.026-.016-.015-.016-.016-.071-.06-.016-.012-.022-.015-.037-.028-.02-.013H7.66l-.053-.034-.018-.01h-.016l-.05-.028-.025-.015-.066-.032-.03-.021-.035-.016-.063-.025H7.3l-.078-.025-.031-.006-.063-.016h-.031l-.06-.022H6.65l-.106.016h-.01l-.112.025 1.24-1.95Zm.846 6.128c-.29.456-.743.781-1.265.912a1.928 1.928 0 0 1-1.516-.23c-.915-.576-1.187-1.86-.594-2.81l.744-1.178a1.099 1.099 0 0 1 .938-.525H7.054l.034.006h.031l.04.015h.02l.065.025.019.007.028.015h.015l.025.013.025.016h.013l.025.015.037.025h.023l.021.016.025.015h.01l.056.05h.006l.034.035.01.01.012.015.019.022 1.544 2.48-.682 1.05Zm5.132.094a2.08 2.08 0 0 1-.479.471l-.034.025-.044.029a1.944 1.944 0 0 1-2.118.028l-.1-.069h-.013c-.044-.034-.09-.069-.134-.11a2.966 2.966 0 0 1-.444-.502l-.71-1.12-1.093-1.74.037.016.104.034.059.019.103.025.069.019.11.018.059.01.143.015h.432l.118-.015h.053c.057-.01.113-.019.163-.035.194-.05.381-.122.56-.215h.018l.144-.075a2.38 2.38 0 0 0 .819-.778s.337-.51.706-1.085c.262-.41.543-.856.743-1.2.266-.46.713-.794 1.229-.915a1.993 1.993 0 0 1 1.54.25c.244.162.453.378.616.625l1.856 2.943a1.458 1.458 0 0 0-.162-.062l-.029-.01c-.053-.018-.109-.034-.162-.05h-.016c-.053-.015-.109-.024-.162-.034h-.025c-.053-.01-.113-.015-.163-.022h-.03c-.057 0-.113 0-.163-.006h-.203a.721.721 0 0 0-.163.019h-.034c-.057.01-.113.018-.172.034a2.35 2.35 0 0 0-1.478 1.066l-.675 1.06-.875 1.337Zm4.637.575c-.915.575-2.19.262-2.784-.685l-.656-1.031.675-1.06.053-.084a1.998 1.998 0 0 1 2.225-.775l.075.025h.021l.054.022.04.016.035.015.056.025h.015c.054.025.11.053.163.088l.113.075.024.015a1.8 1.8 0 0 1 .22.185l.015.016c.028.028.056.062.084.093l.016.016.14.225c.6.96.332 2.244-.584 2.819Z" fill="#fff"/></g><defs><clipPath id="a"><path fill="#fff" d="M0 0h23.997v24H0z"/></clipPath></defs></svg>