<svg width="24" height="24" viewBox="0 0 24 24" fill="none" xmlns="http://www.w3.org/2000/svg">
<path fill-rule="evenodd" clip-rule="evenodd" d="M12 0C18.6264 0 24 5.3736 24 12C24 18.6264 18.6264 24 12 24C5.3736 24 0 18.6264 0 12C0 5.3736 5.3736 0 12 0Z" fill="#B41514"/>
<path d="M11.9039 19.8C11.5859 19.8 11.275 19.7057 11.0105 19.529C10.7461 19.3523 10.54 19.1012 10.4183 18.8073C10.2966 18.5135 10.2648 18.1902 10.3268 17.8783C10.3888 17.5664 10.542 17.2798 10.7669 17.055C10.9918 16.8301 11.2783 16.6769 11.5902 16.6149C11.9021 16.5528 12.2254 16.5847 12.5193 16.7064C12.8131 16.8281 13.0642 17.0342 13.2409 17.2986C13.4176 17.5631 13.5119 17.874 13.5119 18.192C13.5119 18.6185 13.3425 19.0275 13.041 19.329C12.7394 19.6306 12.3304 19.8 11.9039 19.8Z" fill="white"/>
<path d="M11.9039 8.71209C11.5859 8.71209 11.275 8.61779 11.0105 8.4411C10.7461 8.26441 10.54 8.01327 10.4183 7.71945C10.2966 7.42563 10.2648 7.10231 10.3268 6.79039C10.3888 6.47847 10.542 6.19195 10.7669 5.96707C10.9918 5.74218 11.2783 5.58904 11.5902 5.52699C11.9021 5.46495 12.2254 5.49679 12.5193 5.6185C12.8131 5.7402 13.0642 5.9463 13.2409 6.21074C13.4176 6.47517 13.5119 6.78606 13.5119 7.10409C13.5119 7.53056 13.3425 7.93956 13.041 8.24112C12.7394 8.54268 12.3304 8.71209 11.9039 8.71209Z" fill="white"/>
<path d="M5.32812 15.504V13.272H18.4801V15.504H5.32812Z" fill="white"/>
<path d="M11.9039 12.1681C8.15266 12.1681 5.09986 9.19215 4.97266 5.47217H7.35106C7.47586 7.87936 9.46786 9.79215 11.9039 9.79215C14.3399 9.79215 16.3319 7.87936 16.4567 5.47217H18.8351C18.7079 9.19215 15.6551 12.1681 11.9039 12.1681Z" fill="white"/>
</svg>
