<svg width="24" height="24" fill="none" xmlns="http://www.w3.org/2000/svg"><path fill-rule="evenodd" clip-rule="evenodd" d="M12 0c6.626 0 12 5.374 12 12s-5.374 12-12 12S0 18.626 0 12 5.374 0 12 0Z" fill="#1E1E1E"/><path d="M12.18 17.016c-3.838 0-6.948-1.109-6.948-2.594 0-.775.847-1.474 2.203-1.966 1.059.68 2.835 1.027 4.848 1.027 1.966 0 3.703-.424 4.771-1.075 1.28.487 2.074 1.167 2.074 1.915 0 1.488-3.11 2.693-6.948 2.693Z" fill="#fff"/><path d="M12.22 13.15c-2.908 0-5.267-.913-5.267-2.038 0-.624.727-1.183 1.867-1.555.813.424 2.033.696 3.4.696 1.369 0 2.588-.272 3.401-.696 1.143.374 1.868.93 1.868 1.555.002 1.125-2.357 2.037-5.268 2.037Z" fill="#fff"/><path d="M12.202 9.914c-2.25 0-4.073-.753-4.073-1.68 0-.926 1.824-1.68 4.073-1.68 2.248 0 4.072.754 4.072 1.68 0 .927-1.824 1.68-4.072 1.68Z" fill="#fff"/></svg>