<svg width="24" height="24" fill="none" xmlns="http://www.w3.org/2000/svg"><path d="M12 24c6.627 0 12-5.373 12-12S18.627 0 12 0 0 5.373 0 12s5.373 12 12 12Z" fill="#25AAE3"/><path d="M20.25 12a8.25 8.25 0 1 1-16.5 0 8.25 8.25 0 0 1 16.5 0Zm-2.828.26c.006-.094 0 0 0-.096 0-2.705-1.998-5.108-4.591-5.512V5.077l-1.68.523v1.053a5.412 5.412 0 0 0-4.577 5.343 5.416 5.416 0 0 0 4.758 5.374v1.551l1.68-.523v-1.085a5.422 5.422 0 0 0 4.081-3.51h-1.74a3.81 3.81 0 0 1-5.96.99 3.82 3.82 0 0 1-1.208-2.52l9.238-.014Zm-8.985-1.662a3.82 3.82 0 0 1 7.108 0H8.438Z" fill="#fff"/></svg>