<svg width="24" height="24" fill="none" xmlns="http://www.w3.org/2000/svg"><path fill-rule="evenodd" clip-rule="evenodd" d="M24 12c0 6.627-5.373 12-12 12S0 18.627 0 12 5.373 0 12 0s12 5.373 12 12Z" fill="#282A2E"/><path fill-rule="evenodd" clip-rule="evenodd" d="m12 3.562-1.785 5.233h3.57L12 3.562Z" fill="#BB242B"/><path fill-rule="evenodd" clip-rule="evenodd" d="M13.785 9.403 12 16.908l-1.785-7.505" fill="#CDCECA"/><path fill-rule="evenodd" clip-rule="evenodd" d="M19.827 6.032c1.149 1.301 1.828 2.9 1.828 4.629 0 4.369-4.323 7.91-9.655 7.91-5.333 0-9.655-3.542-9.655-7.91 0-1.73.679-3.328 1.827-4.63-1.69 1.547-2.72 3.597-2.72 5.847C1.452 16.695 6.174 20.6 12 20.6c5.825 0 10.547-3.905 10.547-8.722 0-2.25-1.03-4.3-2.72-5.846Zm.102 3.537c-.274-3.314-3.464-5.958-7.446-6.157l.468 1.372c3.25.315 5.936 2.22 6.978 4.785Zm-15.86 0c.275-3.314 3.465-5.958 7.447-6.157l-.468 1.372C7.8 5.1 5.113 7.004 4.07 9.57Z" fill="#CDCECA"/></svg>