<svg width="72" height="73" fill="none" xmlns="http://www.w3.org/2000/svg"><rect x=".5" y="1" width="71" height="71" rx="7.5" fill="#A2EFE1"/><path fill-rule="evenodd" clip-rule="evenodd" d="m50.608 23.949-12.17-5.216a7.005 7.005 0 0 0-5.52 0l-12.17 5.216a2.335 2.335 0 0 0-1.415 2.146V38.36a14.01 14.01 0 0 0 5.867 11.4l7.764 5.546a4.67 4.67 0 0 0 5.428 0l7.764-5.545a14.01 14.01 0 0 0 5.867-11.4V26.094c0-.934-.557-1.778-1.416-2.146Zm-6.671 8.615a1.606 1.606 0 0 0-2.508-2.006l-8.22 10.274-3.4-3.402a1.606 1.606 0 0 0-2.271 2.271l4.035 4.036a2.408 2.408 0 0 0 3.584-.199l8.78-10.974Z" fill="#05141A"/><rect x=".5" y="1" width="71" height="71" rx="7.5" stroke="#9EFFEE"/></svg>