<svg width="24" height="24" fill="none" xmlns="http://www.w3.org/2000/svg"><path d="M12 24c6.627 0 12-5.373 12-12S18.627 0 12 0 0 5.373 0 12s5.373 12 12 12Z" fill="#2D9CDB"/><path d="M15.04 4.205c.294 0 .531.09.71.269.18.179.27.415.27.71v8.756c0 .997-.237 1.907-.711 2.726a5.162 5.162 0 0 1-1.9 1.92c-.794.46-1.684.69-2.67.69-.985 0-1.888-.23-2.707-.69a5.163 5.163 0 0 1-1.9-1.92c-.461-.82-.692-1.728-.692-2.726 0-.999.211-1.902.634-2.708.435-.819 1.024-1.46 1.766-1.92a4.738 4.738 0 0 1 2.515-.691 4.73 4.73 0 0 1 3.706 1.747V5.184c0-.295.09-.531.27-.71a.997.997 0 0 1 .71-.27Zm-4.3 13.344c.64 0 1.216-.154 1.727-.461.52-.315.946-.766 1.23-1.305a3.855 3.855 0 0 0 .441-1.843c0-.678-.148-1.287-.442-1.824a3.215 3.215 0 0 0-1.229-1.287 3.195 3.195 0 0 0-1.728-.48c-.64 0-1.222.16-1.747.48-.517.312-.941.756-1.229 1.287-.294.537-.44 1.145-.44 1.824 0 .678.146 1.292.44 1.842.291.534.715.983 1.23 1.306.524.307 1.106.46 1.747.46Z" fill="#fff"/></svg>