<svg width="24" height="24" viewBox="0 0 24 24" fill="none" xmlns="http://www.w3.org/2000/svg">
<path d="M11.9071 23.8141C18.4831 23.8141 23.8141 18.4831 23.8141 11.9071C23.8141 5.33097 18.4831 0 11.9071 0C5.33097 0 0 5.33097 0 11.9071C0 18.4831 5.33097 23.8141 11.9071 23.8141Z" fill="#3CB054"/>
<path d="M6.96387 5.58936C15.8105 5.90636 19.2219 11.05 17.5093 15.6405C17.0241 16.9178 16.5086 17.6169 15.4243 18.3453C15.4685 18.1612 15.5139 17.9762 15.5483 17.7878C16.1897 14.2064 14.9742 9.89731 9.02911 7.51686C13.7591 10.2441 15.668 15.0961 13.4622 18.2283C9.70781 18.8 6.96387 15.6939 6.96387 12.1153V5.58936Z" fill="white"/>
</svg>
