<svg width="24" height="24" fill="none" xmlns="http://www.w3.org/2000/svg"><path d="M12 24c6.627 0 12-5.373 12-12S18.627 0 12 0 0 5.373 0 12s5.373 12 12 12Z" fill="#044AAC"/><path fill-rule="evenodd" clip-rule="evenodd" d="m7.562 12.908-1.964 1.965-.922.922A8.203 8.203 0 0 1 3.75 12c0-4.549 3.701-8.25 8.25-8.25 4.549 0 8.25 3.701 8.25 8.25 0 4.549-3.701 8.25-8.25 8.25a8.206 8.206 0 0 1-4.732-1.496 8.304 8.304 0 0 1-.958-.786l.871-.872 6.313-6.313a1.216 1.216 0 0 1 2.024-.803c.223.201.363.478.394.777l2.905 2.906A7.024 7.024 0 0 0 12 4.983a7.024 7.024 0 0 0-6.84 8.584L7.024 11.7a1.216 1.216 0 0 1 1.978-.74c.219.183.366.436.416.717l1.188 1.186-.873.872-.835-.836a1.208 1.208 0 0 1-1.337.008Zm6.531-.98-5.938 5.938A6.976 6.976 0 0 0 12 19.017a7.026 7.026 0 0 0 6.364-4.063l-3.033-3.035a1.207 1.207 0 0 1-1.238.009Zm.633-1.587a.547.547 0 1 0-.038 1.093.547.547 0 0 0 .038-1.093Zm-6.495.995a.546.546 0 1 0 0 1.092.546.546 0 0 0 0-1.092Z" fill="#fff"/></svg>