<svg width="24" height="24" fill="none" xmlns="http://www.w3.org/2000/svg"><path d="M21.41 5.65c-.49-1.466-1.211-2.613-2.21-3.42-.998-.807-2.23-1.338-3.695-1.636C14.018.318 12.319.17 10.386.17L1.806.148v23.703h8.58c1.954 0 3.653-.212 5.119-.616 1.486-.403 2.697-1.083 3.695-2.039.977-.956 1.72-2.23 2.21-3.823.488-1.593.743-3.59.743-5.99 0-2.357-.255-4.268-.744-5.734Z" fill="#B79163"/><path d="M1.806 12.085v11.766h8.559c1.933 0 3.632-.19 5.118-.616 1.466-.403 2.698-1.083 3.696-2.038.998-.956 1.72-2.23 2.209-3.823.446-1.424.68-3.186.722-5.289H1.806Z" fill="#8E6533"/><path d="m15.908 7.624-.425-1.295c-.106-.383-.828-1.168-4.757-1.168-3.93 0-4.63.785-4.758 1.168l-.424 1.295c-.022.043-.022.085-.022.128 0 .446.34.786.893 1.04l.85 8.985v.042c.126 1.19 3.1 1.232 3.461 1.232.361 0 3.334-.043 3.462-1.232v-.042l.85-8.985c.53-.254.87-.594.87-1.04.022-.021 0-.085 0-.128Zm-5.182-1.593c1.911 0 3.165.234 3.696.425-.531.191-1.763.425-3.696.425-1.933 0-3.165-.234-3.696-.425.531-.19 1.785-.425 3.696-.425Zm2.612 11.66c-.17.17-1.083.49-2.612.49-1.508 0-2.442-.32-2.612-.49l-.234-2.463c.998.319 2.421.34 2.846.34.403 0 1.826-.021 2.846-.34l-.234 2.464Zm.659-6.88c-.467.19-1.593.424-3.25.424-1.656 0-2.782-.234-3.25-.425l-.17-1.699c1.084.276 2.422.382 3.42.382.998 0 2.337-.106 3.42-.382l-.17 1.7Zm-3.271-2.167c-2.549 0-4.142-.552-4.312-.85l.192-.594c.616.297 1.805.573 4.12.573 2.315 0 3.504-.276 4.12-.573l.191.594c-.212.298-1.784.85-4.311.85Z" fill="#fff"/></svg>