<svg width="24" height="24" viewBox="0 0 24 24" fill="none" xmlns="http://www.w3.org/2000/svg">
<path d="M12 24C18.6274 24 24 18.6274 24 12C24 5.37258 18.6274 0 12 0C5.37258 0 0 5.37258 0 12C0 18.6274 5.37258 24 12 24Z" fill="#2E3148"/>
<path d="M12.0001 18.9631C15.8456 18.9631 18.963 15.8456 18.963 12.0001C18.963 8.15454 15.8456 5.03711 12.0001 5.03711C8.15453 5.03711 5.03711 8.15454 5.03711 12.0001C5.03711 15.8456 8.15453 18.9631 12.0001 18.9631Z" fill="#1B1E36"/>
<path d="M12.0244 1.53076C10.729 1.53076 9.67871 6.229 9.67871 12.0246C9.67871 17.8202 10.729 22.5185 12.0244 22.5185C13.3197 22.5185 14.37 17.8202 14.37 12.0246C14.37 6.229 13.3197 1.53076 12.0244 1.53076ZM12.1863 21.9262C12.0382 22.1238 11.8901 21.9756 11.8901 21.9756C11.2935 21.2844 10.9953 20.0003 10.9953 20.0003C9.95183 16.6423 10.2002 9.43243 10.2002 9.43243C10.6906 3.70852 11.5826 2.35636 11.8861 2.05617C11.9171 2.02553 11.9579 2.00681 12.0014 2.0033C12.0448 1.99979 12.0881 2.01171 12.1236 2.03697C12.5641 2.34907 12.9335 3.65428 12.9335 3.65428C14.0243 7.70366 13.9256 11.5061 13.9256 11.5061C14.0243 14.8148 13.3789 18.5184 13.3789 18.5184C12.8821 21.3332 12.1863 21.9262 12.1863 21.9262Z" fill="#6F7390"/>
<path d="M21.1271 6.80247C20.4822 5.6785 15.8847 7.10564 10.8551 9.98967C5.82559 12.8737 2.27781 16.123 2.92226 17.2465C3.56671 18.37 8.16472 16.9433 13.1943 14.0593C18.2238 11.1753 21.7716 7.92596 21.1271 6.80247ZM3.51727 17.0923C3.27036 17.0612 3.32613 16.8583 3.32613 16.8583C3.62901 15.9971 4.59285 15.0993 4.59285 15.0993C6.98738 12.523 13.3652 9.15063 13.3652 9.15063C18.5736 6.7274 20.1914 6.82964 20.6018 6.94263C20.6439 6.95439 20.6805 6.98068 20.7051 7.01684C20.7297 7.053 20.7407 7.0967 20.7362 7.1402C20.6869 7.6778 19.7362 8.6474 19.7362 8.6474C16.7686 11.6099 13.421 13.4168 13.421 13.4168C10.6002 15.1496 7.06648 16.432 7.06648 16.432C4.37762 17.401 3.51736 17.0923 3.51736 17.0923H3.51727Z" fill="#6F7390"/>
<path d="M21.1038 17.284C21.7538 16.163 18.2149 12.8988 13.2031 9.99312C8.19126 7.08743 3.59433 5.64264 2.94499 6.76554C2.29565 7.88844 5.8339 11.1507 10.8486 14.0564C15.8633 16.9621 20.4545 18.407 21.1038 17.284ZM3.37565 7.19869C3.27965 6.97107 3.4823 6.91626 3.4823 6.91626C4.37951 6.74682 5.63979 7.13293 5.63979 7.13293C9.06841 7.91369 15.1821 11.7433 15.1821 11.7433C19.8893 15.0371 20.6112 16.4879 20.7194 16.8998C20.7304 16.942 20.7261 16.9868 20.7073 17.0262C20.6885 17.0656 20.6564 17.0971 20.6167 17.1151C20.1258 17.3398 18.8112 17.005 18.8112 17.005C14.7593 15.9186 11.5189 13.928 11.5189 13.928C8.60733 12.3577 5.7283 9.94138 5.7283 9.94138C3.54067 8.09945 3.37632 7.20118 3.37632 7.20118L3.37565 7.19869Z" fill="#6F7390"/>
<path d="M12.0002 13.2347C12.682 13.2347 13.2347 12.682 13.2347 12.0002C13.2347 11.3184 12.682 10.7656 12.0002 10.7656C11.3184 10.7656 10.7656 11.3184 10.7656 12.0002C10.7656 12.682 11.3184 13.2347 12.0002 13.2347Z" fill="#B7B9C8"/>
<path d="M17.0618 8.00003C17.4572 8.00003 17.7778 7.66839 17.7778 7.25929C17.7778 6.85019 17.4572 6.51855 17.0618 6.51855C16.6663 6.51855 16.3457 6.85019 16.3457 7.25929C16.3457 7.66839 16.6663 8.00003 17.0618 8.00003Z" fill="#B7B9C8"/>
<path d="M5.30884 10.5186C5.70431 10.5186 6.0249 10.1869 6.0249 9.77785C6.0249 9.36875 5.70431 9.03711 5.30884 9.03711C4.91337 9.03711 4.59277 9.36875 4.59277 9.77785C4.59277 10.1869 4.91337 10.5186 5.30884 10.5186Z" fill="#B7B9C8"/>
<path d="M10.5432 19.605C10.9387 19.605 11.2593 19.2734 11.2593 18.8643C11.2593 18.4552 10.9387 18.1235 10.5432 18.1235C10.1478 18.1235 9.82715 18.4552 9.82715 18.8643C9.82715 19.2734 10.1478 19.605 10.5432 19.605Z" fill="#B7B9C8"/>
</svg>
