<svg width="24" height="24" fill="none" xmlns="http://www.w3.org/2000/svg"><path d="M12 24C5.383 24 0 18.617 0 12S5.383 0 12 0s12 5.383 12 12-5.383 12-12 12Zm0-22.057C6.452 1.943 1.943 6.453 1.943 12c0 5.548 4.51 10.057 10.057 10.057 5.548 0 10.057-4.51 10.057-10.057 0-5.548-4.51-10.057-10.057-10.057Z" fill="#E6201A"/><path d="M17.607 7.978a2.626 2.626 0 0 0-2.439-1.613l-6.355-.059h-.02a2.57 2.57 0 0 0-2.39 1.554 2.605 2.605 0 0 0 .486 2.877l.875.942 1.322-1.428-.768-.835a.697.697 0 0 1-.137-.778.655.655 0 0 1 .613-.398h.01l6.354.058c.436 0 .622.34.67.448a.667.667 0 0 1-.117.747l-3.147 3.42a.687.687 0 0 1-.496.215.709.709 0 0 1-.534-.243l-.535-.573-1.322 1.428.427.457a2.7 2.7 0 0 0 1.963.865c.729 0 1.438-.31 1.924-.845l3.148-3.42c.71-.76.885-1.848.468-2.82Z" fill="#E6201A"/><path d="m17.237 13.089-.894-.972-1.525 1.652.768.836a.52.52 0 0 1 .087.592.58.58 0 0 1-.535.36l-6.354.058a.495.495 0 0 1-.486-.311.535.535 0 0 1 .107-.613l3.206-3.468a.566.566 0 0 1 .427-.194c.088 0 .253.019.39.165l.66.719 1.525-1.652-.535-.583a2.79 2.79 0 0 0-2.03-.894c-.787 0-1.535.33-2.07.913l-3.206 3.469a2.769 2.769 0 0 0-.515 3.041 2.734 2.734 0 0 0 2.527 1.643l6.374-.059a2.783 2.783 0 0 0 2.565-1.71c.456-1.03.272-2.176-.486-2.992Z" fill="#E6201A"/></svg>