<svg width="24" height="24" fill="none" xmlns="http://www.w3.org/2000/svg"><path fill-rule="evenodd" clip-rule="evenodd" d="M24 12c0 6.627-5.373 12-12 12S0 18.627 0 12 5.373 0 12 0s12 5.373 12 12Z" fill="#3E2D2A"/><path fill-rule="evenodd" clip-rule="evenodd" d="M12 22.254c-5.654 0-10.254-4.6-10.254-10.254S6.346 1.746 12 1.746 22.254 6.346 22.254 12 17.654 22.254 12 22.254Zm0-21.171C5.98 1.083 1.083 5.98 1.083 12S5.98 22.917 12 22.917 22.917 18.02 22.917 12 18.02 1.083 12 1.083Z" fill="#FFFFFE"/><path fill-rule="evenodd" clip-rule="evenodd" d="M14.825 13.625v-2.272h2.116c.238 0 .429.104.573.312.144.208.216.482.216.824 0 .342-.072.617-.216.824a.666.666 0 0 1-.573.312h-2.116Zm2.635.902a1.735 1.735 0 0 0 1.122-.927c.159-.315.239-.685.239-1.11 0-.427-.08-.797-.24-1.112a1.787 1.787 0 0 0-.67-.736 1.9 1.9 0 0 0-1.01-.264H13.8v.005H9.285l1.328-4.074H9.497l-1.754 5.73-1.754-5.73H4.873l2.382 7.308h.976l.736-2.259h1.795v6.333h1.025v-6.333H13.8v6.333h1.026v-3.09h1.526l1.56 3.09h1.216l-1.667-3.164Z" fill="#FFFFFE"/></svg>