<svg width="24" height="24" viewBox="0 0 24 24" fill="none" xmlns="http://www.w3.org/2000/svg">
<path d="M12 24C18.6274 24 24 18.6274 24 12C24 5.37258 18.6274 0 12 0C5.37258 0 0 5.37258 0 12C0 18.6274 5.37258 24 12 24Z" fill="#F7931A"/>
<path d="M19.4829 14.8153L19.0741 16.4526L17.9829 16.1811L18.3909 14.5431L16.7536 14.1351L17.0259 13.0438L18.6631 13.4518L19.0719 11.8146L20.1631 12.0868L19.7551 13.7241L21.3924 14.1321L21.1201 15.2241L19.4829 14.8153ZM15.4576 10.3198C15.3054 11.3323 14.7534 11.8243 14.0236 11.9998C15.0219 12.5271 15.5274 13.3401 15.0346 14.7576C14.4226 16.5178 12.9901 16.6738 11.0881 16.3176L10.6156 18.2091L9.50112 17.9316L9.96687 16.0641C9.67003 15.9906 9.37401 15.9138 9.07887 15.8338L8.61087 17.7088L7.49787 17.4313L7.97037 15.5353C7.70937 15.4686 7.44537 15.3981 7.17537 15.3306L5.72412 14.9683L6.28512 13.6618C6.28512 13.6618 7.10637 13.8801 7.09512 13.8643C7.41162 13.9416 7.55262 13.7308 7.60887 13.5906L8.35437 10.5996L8.47287 10.6288C8.43501 10.6137 8.39617 10.6012 8.35662 10.5913L8.88912 8.45606C8.90412 8.21381 8.82387 7.90931 8.37162 7.79606C8.38962 7.78481 7.56237 7.59506 7.56237 7.59506L7.86612 6.37706L9.40362 6.76106L9.40212 6.76631C9.63312 6.82406 9.87162 6.87881 10.1146 6.93356L10.5819 5.06006L11.6964 5.33756L11.2381 7.17506C11.5374 7.24256 11.8381 7.31156 12.1306 7.38506L12.5859 5.56031L13.7011 5.83781L13.2339 7.71206C14.6409 8.19956 15.6676 8.93681 15.4576 10.3198ZM12.8874 13.9836C13.2556 12.5061 10.8309 12.1386 10.0749 11.9496L9.45012 14.4598C10.2061 14.6473 12.5364 15.3996 12.8889 13.9828L12.8874 13.9836ZM13.2526 10.3116C13.5871 8.96681 11.5591 8.67881 10.9299 8.52206L10.3621 10.7998C10.9914 10.9573 12.9309 11.6001 13.2526 10.3116Z" fill="white"/>
</svg>
