<svg width="25" height="25" viewBox="0 0 25 25" fill="none" xmlns="http://www.w3.org/2000/svg">
<path d="M22.7783 4.08692L13.4033 0.180667C13.1177 0.0621999 12.8116 0.0012207 12.5024 0.0012207C12.1933 0.0012207 11.8871 0.0621999 11.6016 0.180667L2.22656 4.08692C1.35254 4.44825 0.78125 5.30274 0.78125 6.25C0.78125 15.9424 6.37207 22.6416 11.5967 24.8193C12.1729 25.0586 12.8223 25.0586 13.3984 24.8193C17.583 23.0762 24.2188 17.0557 24.2188 6.25C24.2188 5.30274 23.6475 4.44825 22.7783 4.08692ZM12.5049 21.792L12.5 3.18848L21.0889 6.76758C20.9277 14.1602 17.0801 19.5166 12.5049 21.792Z" fill="white"/>
</svg>
