<svg width="24" height="24" viewBox="0 0 24 24" fill="none" xmlns="http://www.w3.org/2000/svg">
<path fill-rule="evenodd" clip-rule="evenodd" d="M24 12C24 18.6274 18.6274 24 12 24C5.37255 24 0 18.6274 0 12C0 5.37255 5.37255 0 12 0C18.6274 0 24 5.37255 24 12Z" fill="#FFFFFE"/>
<path fill-rule="evenodd" clip-rule="evenodd" d="M12 22.9171C5.98031 22.9171 1.08285 18.0197 1.08285 12C1.08285 5.98024 5.98031 1.08285 12 1.08285C18.0197 1.08285 22.9171 5.98024 22.9171 12C22.9171 18.0197 18.0197 22.9171 12 22.9171ZM12 0C5.37255 0 0 5.37255 0 12C0 18.6274 5.37255 24 12 24C18.6274 24 24 18.6274 24 12C24 5.37255 18.6274 0 12 0Z" fill="#3A3A39"/>
<path fill-rule="evenodd" clip-rule="evenodd" d="M17.5494 11.5022C17.4399 11.5022 17.3286 11.4845 17.2192 11.4471L6.1216 7.65932C5.58756 7.47699 5.30248 6.89635 5.48474 6.36232C5.66699 5.82829 6.24776 5.5432 6.78173 5.72546L17.8793 9.51322C18.4133 9.69554 18.6985 10.2762 18.5162 10.8102C18.3713 11.2349 17.9743 11.5022 17.5494 11.5022Z" fill="#4FA2CD"/>
<path fill-rule="evenodd" clip-rule="evenodd" d="M17.5494 14.9159C17.4399 14.9159 17.3286 14.8981 17.2192 14.8608L6.1216 11.0729C5.58756 10.8907 5.30248 10.31 5.48474 9.77594C5.66699 9.24197 6.24763 8.95669 6.78173 9.13908L17.8793 12.9269C18.4133 13.1092 18.6985 13.6899 18.5162 14.2239C18.3713 14.6485 17.9743 14.9159 17.5494 14.9159Z" fill="#4365A1"/>
<path fill-rule="evenodd" clip-rule="evenodd" d="M17.5494 18.3298C17.4399 18.3298 17.3286 18.312 17.2192 18.2747L6.1216 14.487C5.58756 14.3046 5.30248 13.7239 5.48474 13.19C5.66699 12.6559 6.24776 12.3709 6.78173 12.553L17.8793 16.3408C18.4133 16.5231 18.6985 17.1038 18.5162 17.6378C18.3713 18.0624 17.9743 18.3298 17.5494 18.3298Z" fill="#3D2C78"/>
</svg>
