<svg width="18" height="18" fill="none" xmlns="http://www.w3.org/2000/svg"><path d="M5.885 12.387a2.992 2.992 0 0 1-2.46-1.367c.308-.011.608-.058.896-.136l-.032-.972a2.998 2.998 0 0 1-2.31-2.197c.311.089.638.142.975.153l1.749.057-1.455-.973a2.994 2.994 0 0 1-1.214-3.328 10.41 10.41 0 0 0 7.03 3.23l.66.033-.147-.644a2.994 2.994 0 0 1 5.102-2.734l.19.201.27-.053c.285-.056.564-.128.837-.215a3.007 3.007 0 0 1-.507.382l.317.925c.146-.018.292-.04.436-.065-.168.15-.344.291-.527.423l-.218.158.012.27a9.5 9.5 0 0 1 .01.429c0 4.402-3.347 9.44-9.441 9.44a9.382 9.382 0 0 1-3.345-.612 7.51 7.51 0 0 0 3.472-1.511l1.108-.869-1.408-.025Z" fill="#95A7AE" stroke="#95A7AE"/></svg>