<svg width="24" height="24" fill="none" xmlns="http://www.w3.org/2000/svg"><path fill-rule="evenodd" clip-rule="evenodd" d="M24 12c0 6.627-5.373 12-12 12S0 18.627 0 12 5.373 0 12 0s12 5.373 12 12Z" fill="#FFFFFE"/><path fill-rule="evenodd" clip-rule="evenodd" d="M12 22.917C5.98 22.917 1.083 18.02 1.083 12S5.98 1.083 12 1.083 22.917 5.98 22.917 12 18.02 22.917 12 22.917ZM12 0C5.373 0 0 5.373 0 12s5.373 12 12 12 12-5.373 12-12S18.627 0 12 0Z" fill="#3A3A39"/><path fill-rule="evenodd" clip-rule="evenodd" d="M17.55 11.502c-.11 0-.221-.018-.33-.055L6.121 7.66a1.022 1.022 0 0 1 .66-1.934l11.097 3.788a1.022 1.022 0 0 1-.33 1.99Z" fill="#4FA2CD"/><path fill-rule="evenodd" clip-rule="evenodd" d="M17.55 14.916c-.11 0-.221-.018-.33-.055L6.121 11.073a1.022 1.022 0 1 1 .66-1.934l11.097 3.788a1.022 1.022 0 0 1-.33 1.989Z" fill="#4365A1"/><path fill-rule="evenodd" clip-rule="evenodd" d="M17.55 18.33c-.11 0-.221-.018-.33-.055L6.121 14.487a1.022 1.022 0 0 1 .66-1.934l11.097 3.788a1.022 1.022 0 0 1-.33 1.989Z" fill="#3D2C78"/></svg>