<svg width="24" height="24" viewBox="0 0 24 24" fill="none" xmlns="http://www.w3.org/2000/svg">
<path d="M12 24C18.6274 24 24 18.6274 24 12C24 5.37258 18.6274 0 12 0C5.37258 0 0 5.37258 0 12C0 18.6274 5.37258 24 12 24Z" fill="#5F2652"/>
<path d="M18.8233 15.1078L12.5449 3.84695C12.4363 3.64586 12.2262 3.52051 11.9977 3.52051C11.7691 3.52051 11.559 3.64586 11.4505 3.84695L5.17447 15.1078C5.01127 15.3982 5.10487 15.775 5.39767 15.9478L11.6833 19.7062C11.8856 19.8213 12.1337 19.8213 12.3361 19.7062L18.6121 15.955C18.8905 15.775 18.9937 15.3982 18.8233 15.1078ZM14.0785 10.5694L13.9249 10.4398L13.9153 10.4302C13.8664 10.3902 13.8151 10.3534 13.7617 10.3198L13.7521 10.3102C13.7017 10.2766 13.6489 10.2406 13.5889 10.207C13.5793 10.207 13.5793 10.1974 13.5721 10.1974C13.5217 10.1638 13.4617 10.1374 13.4089 10.111C13.3993 10.111 13.3993 10.1014 13.3921 10.1014C13.3417 10.075 13.2817 10.051 13.2217 10.0246C13.2121 10.0246 13.2121 10.015 13.2049 10.015C13.1545 9.99816 13.1017 9.97176 13.0513 9.95496C12.9125 9.90297 12.7696 9.86282 12.6241 9.83496C12.5137 10.0486 12.3577 10.2382 12.1873 10.399C12.4537 10.4158 12.7105 10.4854 12.9409 10.579C13.0771 10.6376 13.2087 10.7066 13.3345 10.7854C13.3412 10.7861 13.3473 10.7895 13.3513 10.795C13.3849 10.8118 13.4113 10.8382 13.4449 10.8646C13.4609 10.8734 13.4755 10.8848 13.4881 10.8982C13.5191 10.9184 13.5481 10.9417 13.5745 10.9678C13.5913 10.9846 13.6081 10.9942 13.6249 11.011C13.6513 11.0374 13.6753 11.0542 13.7017 11.0806L13.7521 11.131L13.8217 11.2006L13.8721 11.251C13.8903 11.2757 13.9103 11.2989 13.9321 11.3206C13.9489 11.3398 13.9657 11.3638 13.9825 11.3806L14.0329 11.4574C14.0497 11.4838 14.0665 11.5006 14.0761 11.527L14.1265 11.6038C14.1433 11.6302 14.1529 11.6542 14.1697 11.6734C14.1865 11.6998 14.1961 11.7238 14.2129 11.7502C14.2297 11.7766 14.2393 11.8006 14.2561 11.827C14.2657 11.8534 14.2825 11.8774 14.2897 11.9038C14.3065 11.9374 14.3161 11.9734 14.3329 11.9974C14.4049 12.1727 14.4541 12.3566 14.4793 12.5446L14.5561 12.8446C14.5897 12.9742 14.8993 14.0686 15.6169 14.4382C16.4401 14.8654 17.5273 15.3982 17.9545 15.6022L12.3145 18.9766V16.6654C12.3145 16.2982 13.0417 15.8686 13.3753 15.7246L13.3921 15.715C13.4617 15.6814 13.5289 15.6454 13.5985 15.6046L13.6249 15.5878C13.771 15.5012 13.9084 15.4007 14.0353 15.2878C14.0449 15.2782 14.0617 15.271 14.0689 15.2542C14.0857 15.2446 14.0953 15.2278 14.1121 15.2206C14.1553 15.187 14.1889 15.1438 14.2321 15.1102L14.2489 15.0934C14.2933 15.0518 14.3335 15.006 14.3689 14.9566C14.3785 14.9398 14.3953 14.9302 14.4025 14.9134C14.4361 14.8798 14.4625 14.8366 14.4961 14.7934C14.5057 14.7838 14.5129 14.767 14.5225 14.7598L14.6257 14.6062C14.6257 14.5966 14.6353 14.5966 14.6353 14.5894C14.6785 14.5198 14.7217 14.443 14.7649 14.3758C14.5945 14.1694 14.4649 13.9486 14.3617 13.7422C14.318 13.869 14.2633 13.9919 14.1985 14.1094C14.1721 14.1598 14.1385 14.2126 14.1121 14.263C14.1025 14.2726 14.1025 14.2798 14.0953 14.2798C14.0688 14.3214 14.0399 14.3614 14.0089 14.3998C13.9993 14.4094 13.9921 14.4262 13.9825 14.4334C13.9558 14.4738 13.9244 14.5109 13.8889 14.5438C13.8793 14.5534 13.8793 14.5606 13.8721 14.5606C13.6657 14.791 13.4185 14.9878 13.1353 15.1246L13.0849 15.151C12.9385 15.211 11.6809 15.7846 11.6809 16.6486V18.9598L6.02887 15.595C6.39607 15.3718 7.45927 14.7382 8.33287 14.4646C8.67607 14.3542 9.40327 14.815 9.81367 15.1486L9.84007 15.175C9.89296 15.2281 9.94994 15.2771 10.0105 15.3214L10.0273 15.3382C10.1569 15.4414 10.2937 15.5446 10.4473 15.6214L10.5505 15.6718C10.5572 15.6725 10.5633 15.6759 10.5673 15.6814C10.6609 15.7318 10.7545 15.775 10.8577 15.8182C10.8716 15.8248 10.8861 15.8304 10.9009 15.835C10.9105 15.835 10.9177 15.8446 10.9345 15.8446C11.0809 15.895 11.2249 15.9382 11.3713 15.9742C11.4817 15.7606 11.6449 15.571 11.8177 15.4102C11.577 15.3938 11.34 15.3421 11.1145 15.2566C11.1049 15.247 11.0881 15.247 11.0809 15.2398C11.054 15.2316 11.0283 15.2203 11.0041 15.2062C10.9945 15.1966 10.9777 15.1966 10.9705 15.1894C10.9441 15.1798 10.9201 15.163 10.9009 15.1558C10.7305 15.0694 10.5745 14.9758 10.4305 14.8558L10.2073 14.6494C10.001 14.4681 9.77754 14.3073 9.54007 14.1694C8.98327 13.8526 8.51287 13.7494 8.15287 13.8622C7.40887 14.1022 6.55927 14.5558 6.04567 14.8558L11.6881 4.71815V9.16296C11.6881 9.31656 11.4577 9.72696 10.6777 10.0798L10.6273 10.1062C10.5505 10.1398 10.4809 10.183 10.4041 10.2262L10.3873 10.2358C10.2396 10.3246 10.0992 10.4249 9.96727 10.5358C9.88416 10.6034 9.80707 10.678 9.73687 10.759L9.72727 10.7686C9.6514 10.8422 9.58233 10.9225 9.52087 11.0086L9.51127 11.0182C9.47767 11.0614 9.45127 11.1046 9.41767 11.1478C9.41767 11.1574 9.40807 11.1574 9.40807 11.1646C9.38167 11.2078 9.35767 11.2414 9.33127 11.2846C9.33127 11.2942 9.32167 11.2942 9.32167 11.3014L9.24487 11.431C9.23527 11.4406 9.23527 11.4478 9.22807 11.4646C9.20167 11.5078 9.18487 11.551 9.16807 11.5846C9.16737 11.5913 9.16388 11.5974 9.15847 11.6014C9.14167 11.6446 9.12487 11.6782 9.10807 11.7214C9.10143 11.7353 9.09582 11.7498 9.09127 11.7646L9.04087 11.8942C9.03423 11.9081 9.02862 11.9226 9.02407 11.9374C9.01609 11.9696 9.00483 12.001 8.99047 12.031C8.98087 12.0478 8.98087 12.0646 8.97367 12.0814C8.96407 12.1246 8.94727 12.1678 8.94007 12.2014C8.93047 12.2182 8.93047 12.2446 8.92327 12.2614C8.91367 12.2878 8.91367 12.3214 8.90647 12.3478C8.89687 12.3742 8.89687 12.3982 8.88967 12.4246C8.88007 12.4582 8.88007 12.4942 8.87287 12.5278C8.87287 12.5542 8.86327 12.571 8.86327 12.5974C8.86327 12.631 8.85367 12.6574 8.85367 12.691C8.85524 12.7225 8.852 12.754 8.84407 12.7846V12.9142C8.84305 13.0692 8.85429 13.2241 8.87767 13.3774C9.10087 13.4278 9.33127 13.5238 9.58087 13.6438C9.51127 13.4206 9.47767 13.1902 9.47047 12.9502V12.907C9.46888 12.85 9.47209 12.793 9.48007 12.7366V12.6934C9.48007 12.643 9.48967 12.5998 9.49687 12.547V12.5302C9.50647 12.4798 9.51367 12.427 9.52327 12.367C9.52327 12.3502 9.53287 12.3406 9.53287 12.3238C9.54247 12.2806 9.55927 12.2374 9.56647 12.1942C9.56647 12.1846 9.57607 12.1774 9.57607 12.1678L9.62647 12.0142C9.63607 12.0046 9.63607 11.9878 9.64327 11.9806C9.66007 11.9374 9.67687 11.8942 9.69367 11.8606C9.70327 11.851 9.70327 11.8438 9.71047 11.827C9.73687 11.7766 9.75367 11.7334 9.78727 11.6902C9.79371 11.6819 9.79934 11.6731 9.80407 11.6638C9.83047 11.6206 9.84727 11.587 9.87367 11.5438C9.88011 11.5355 9.88574 11.5267 9.89047 11.5174C9.91928 11.4725 9.95052 11.4292 9.98407 11.3878C9.984 11.3852 9.98499 11.3827 9.98681 11.3809C9.98862 11.3791 9.9911 11.3781 9.99367 11.3782C10.0273 11.335 10.0537 11.3014 10.0873 11.2582C10.0937 11.2499 10.0993 11.2411 10.1041 11.2318C10.2586 11.0611 10.4344 10.9111 10.6273 10.7854L10.8937 10.6558C11.0401 10.5958 12.2905 10.0054 12.2905 9.13896V4.71095L17.9857 14.935C17.4793 14.6878 16.5817 14.2414 15.8881 13.8814C15.4849 13.675 15.2209 12.9478 15.1441 12.6814L15.0673 12.3742C15.0673 12.211 15.0241 12.0478 14.9737 11.887C14.7928 11.3784 14.4846 10.9248 14.0785 10.5694Z" fill="white"/>
</svg>
