<svg width="24" height="24" fill="none" xmlns="http://www.w3.org/2000/svg"><g clip-path="url(#a)"><path d="M8.36.766c.87-.89 2.373-1.024 3.383-.3 1.002.66 1.418 2.032.98 3.144-.254.695-.822 1.24-1.493 1.535.203 1.044.418 2.085.622 3.128a3.57 3.57 0 0 1 3.133 1.487c.803 1.108.844 2.672.15 3.844 1.31 1.225 2.617 2.453 3.921 3.684.638-.521 1.534-.715 2.316-.43.899.313 1.545 1.222 1.534 2.175a2.327 2.327 0 0 1-1.247 2.051c-.465.251-1.018.307-1.534.213a2.323 2.323 0 0 1-1.778-1.723c-.138-.527-.042-1.083.167-1.577-1.312-1.23-2.62-2.467-3.936-3.692-.901.87-2.262 1.23-3.469.863-.658 1.793-1.273 3.601-1.931 5.395.246.379.448.802.461 1.262a2.122 2.122 0 0 1-.875 1.78 2.077 2.077 0 0 1-1.791.312 2.102 2.102 0 0 1-1.497-1.69c-.082-.402.025-.807.148-1.188-.263-.188-.524-.378-.787-.565-.32.174-.671.318-1.042.297-.756.018-1.471-.515-1.7-1.23-.23-.652-.028-1.422.479-1.888a1.81 1.81 0 0 1 1.806-.396c.688.221 1.209.89 1.23 1.616.026.324-.072.638-.177.94.245.168.485.343.729.512.312-.24.67-.433 1.064-.488.413-.083.826.034 1.218.154.607-1.73 1.229-3.454 1.838-5.184-1.034-.638-1.737-1.812-1.692-3.041-.036-1.472.999-2.852 2.384-3.314-.196-1.04-.417-2.074-.614-3.113-.867.016-1.737-.372-2.255-1.074-.801-1.018-.684-2.61.256-3.499Zm1.607.328c-.861.115-1.496 1.04-1.296 1.886.137.701.79 1.275 1.513 1.268.7.046 1.382-.449 1.575-1.12.217-.673-.084-1.469-.695-1.825-.323-.208-.721-.261-1.096-.21Zm1.613 8.734c-1.001.24-1.684 1.327-1.472 2.333.154.935 1.04 1.676 1.99 1.655.927.025 1.801-.677 1.988-1.584.19-.802-.171-1.704-.871-2.143a2.045 2.045 0 0 0-1.635-.261Zm8.612 8.036c-.583.193-.97.863-.803 1.462.132.584.733 1.016 1.33.944.639-.055 1.17-.67 1.107-1.313-.016-.783-.902-1.38-1.634-1.093Zm-16.684.243c-.659.195-.83 1.16-.278 1.57.51.466 1.43.099 1.488-.587.114-.641-.604-1.236-1.21-.983Zm3.756 2.815a1.045 1.045 0 0 0-.663.588c-.266.585.155 1.34.796 1.407.59.105 1.193-.408 1.167-1.01.03-.657-.677-1.183-1.3-.985" fill="#6EA8F2"/></g><defs><clipPath id="a"><path fill="#fff" d="M0 0h24v24H0z"/></clipPath></defs></svg>