<svg width="24" height="24" viewBox="0 0 24 24" fill="none" xmlns="http://www.w3.org/2000/svg">
<path fill-rule="evenodd" clip-rule="evenodd" d="M24 12C24 18.6274 18.6274 24 12 24C5.37255 24 0 18.6274 0 12C0 5.37255 5.37255 0 12 0C18.6274 0 24 5.37255 24 12Z" fill="#282A2E"/>
<path fill-rule="evenodd" clip-rule="evenodd" d="M11.9998 3.56152L10.2148 8.79472H13.7847L11.9998 3.56152Z" fill="#BB242B"/>
<path fill-rule="evenodd" clip-rule="evenodd" d="M13.7847 9.40332L11.9998 16.9083L10.2148 9.40332" fill="#CDCECA"/>
<path fill-rule="evenodd" clip-rule="evenodd" d="M19.8268 6.0316C20.9756 7.33323 21.6546 8.93156 21.6546 10.6606C21.6546 15.0295 17.3319 18.5712 11.9996 18.5712C6.66731 18.5712 2.34459 15.0295 2.34459 10.6606C2.34459 8.93156 3.02368 7.33323 4.17244 6.0316C2.48183 7.57841 1.45215 9.62848 1.45215 11.8777C1.45215 16.6946 6.17438 20.5996 11.9996 20.5996C17.8249 20.5996 22.5471 16.6946 22.5471 11.8777C22.5471 9.62848 21.5174 7.57841 19.8268 6.0316ZM19.9294 9.56875C19.6551 6.25496 16.4648 3.61085 12.4829 3.41162L12.9511 4.78439C16.2002 5.09891 18.8866 7.00313 19.9294 9.56875ZM4.06987 9.56875C4.34415 6.25496 7.53443 3.61085 11.5164 3.41162L11.0481 4.78439C7.79902 5.09891 5.11261 7.00313 4.06987 9.56875Z" fill="#CDCECA"/>
</svg>
