<svg width="24" height="24" fill="none" xmlns="http://www.w3.org/2000/svg"><g clip-path="url(#a)"><path d="m12 13.413 6-3.464-6-3.485v6.949Z" fill="#2A3D58"/><path d="M12 13.413 6 9.949l6-3.485v6.949ZM18 3l-6 3.464 6 3.485V3Z" fill="#0F2631"/><path d="m18 3 6 3.464-6 3.485V3Z" fill="#2A3D58"/><path d="M6 3 0 6.464 6 9.95V3Z" fill="#0F2631"/><path d="m6 3 6 3.464L6 9.95V3ZM12 22.968l6-3.464-6-3.485v6.949Z" fill="#2A3D58"/><path d="m12 22.968-6-3.464 6-3.485v6.949ZM18 12.555l-6 3.464 6 3.484v-6.948Z" fill="#0F2631"/><path d="m18 12.555 6 3.464-6 3.484v-6.948Z" fill="#2A3D58"/><path d="m6 12.555-6 3.464 6 3.484v-6.948Z" fill="#0F2631"/><path d="m6 12.555 6 3.464-6 3.484v-6.948Z" fill="#2A3D58"/></g><defs><clipPath id="a"><path fill="#fff" d="M0 0h24v24H0z"/></clipPath></defs></svg>