<svg width="24" height="24" viewBox="0 0 24 24" fill="none" xmlns="http://www.w3.org/2000/svg">
<g clip-path="url(#clip0)">
<path d="M0.036525 12.5154H0.0183H0V11.396C0.012525 11.396 0.02505 11.396 0.0375 11.396C0.0793501 11.4333 0.10245 11.4873 0.100425 11.5434C0.1116 11.8184 0.1116 12.0936 0.100425 12.3689C0.10245 12.4249 0.0789751 12.4788 0.036525 12.5154Z" fill="#FEF5F6"/>
<path d="M9.77782 7.84588C10.2625 8.02138 10.7665 8.12788 11.2628 8.26085C13.8551 8.95543 16.4479 9.64791 19.0413 10.3384C20.633 10.7628 22.2251 11.1853 23.8178 11.6059C23.9551 11.642 24.0081 11.7013 23.9986 11.8474C23.9836 12.0745 23.9956 12.3031 23.9881 12.5308C23.9831 12.6812 23.9316 12.7448 23.7546 12.6917C23.3016 12.5558 22.8405 12.4471 22.3839 12.3229C22.2736 12.2929 22.224 12.3079 22.261 12.4329C22.2668 12.4526 22.268 12.4738 22.2735 12.4936C22.375 12.8582 22.3082 12.7898 22.6601 12.8024C23.0444 12.8161 23.4286 12.8372 23.813 12.845C23.9392 12.8476 23.9667 12.9038 23.9543 13.0114C23.9243 13.2709 23.8978 13.5307 23.8653 13.7899C23.8528 13.8898 23.7998 13.9186 23.6914 13.9032C23.3785 13.8587 23.0593 13.9032 22.7459 13.8468C22.6184 13.8243 22.5974 13.8781 22.6277 13.9968C22.694 14.2567 22.7489 14.5196 22.8035 14.7824C22.826 14.8912 22.8864 14.9218 22.9922 14.9232C23.1634 14.9254 23.3342 14.9491 23.5056 14.9557C23.6003 14.9593 23.6234 14.9868 23.5929 15.0812C23.5061 15.3496 23.4286 15.6212 23.3467 15.8912C23.333 15.9362 23.3237 15.9999 23.2628 15.9925C23.0482 15.9667 23.1156 16.1017 23.1375 16.2079C23.15 16.2679 23.1841 16.3269 23.16 16.3891C22.9677 16.9075 22.7296 17.4078 22.4485 17.884C22.3413 17.4347 22.2427 17.0322 22.1495 16.6284C21.8801 15.4616 21.6117 14.2945 21.3445 13.1272C21.2688 12.7986 21.1811 12.4725 21.1166 12.1417C21.1034 12.0304 21.0157 11.9426 20.9044 11.9291C20.6381 11.8627 20.3709 11.7977 20.1089 11.7166C19.9397 11.6641 19.9372 11.7241 19.9699 11.8621C20.152 12.6322 20.3281 13.4039 20.5065 14.175C20.8774 15.7775 21.2492 17.3797 21.6218 18.9818C21.6489 19.0608 21.6356 19.148 21.5861 19.2153C21.3744 19.4868 21.1661 19.7611 20.9306 20.0131C20.8236 20.1274 20.7943 20.1017 20.7617 19.9598C20.4818 18.7389 20.1946 17.5197 19.9117 16.2994C19.6428 15.1394 19.3753 13.9792 19.1092 12.8187C19.007 12.3762 18.8992 11.9349 18.8044 11.4912C18.7964 11.4085 18.7342 11.3415 18.6523 11.3274C18.3664 11.2546 18.0796 11.1841 17.7963 11.1016C17.6371 11.0553 17.6272 11.1016 17.6613 11.245C17.8849 12.1825 18.101 13.1214 18.3187 14.0601C18.7742 16.0246 19.2292 17.9892 19.6837 19.954C19.6941 20.0149 19.7008 20.0765 19.7036 20.1383C19.683 20.1666 19.6481 20.1805 19.6136 20.1742C19.2476 20.0775 18.8711 20.0132 18.5342 19.8247C18.4911 19.7472 18.4641 19.6618 18.4547 19.5736C18.3898 19.2683 18.3847 19.2649 18.0742 19.3425C17.9028 19.3853 17.7324 19.4325 17.5591 19.4677C17.2171 19.4131 16.9258 19.2245 16.6097 19.1015C16.4462 19.0324 16.2873 18.9532 16.1338 18.8641C16.0663 18.8275 15.9735 18.8065 15.9793 18.6979C16.0407 18.62 16.1345 18.6142 16.2193 18.5923C16.7518 18.4548 17.29 18.3403 17.8219 18.2002C17.8756 18.1882 17.9287 18.1734 17.9808 18.1558C18.0333 18.136 18.0869 18.114 18.0794 18.0427C18.0754 17.9851 18.0316 17.9383 17.9744 17.9308C17.8744 17.905 17.772 17.89 17.6689 17.8862C17.2973 17.8921 16.9282 17.8492 16.5577 17.839C16.3792 17.8383 16.2008 17.8278 16.0234 17.8077C15.6696 17.7595 15.3259 17.8234 14.9864 17.9236C14.882 17.9585 14.7741 17.9818 14.6646 17.9931C14.5677 17.9899 14.4742 17.9564 14.3974 17.8974C13.8442 17.5356 13.2967 17.1658 12.7774 16.7555C12.7159 16.7111 12.6605 16.659 12.6124 16.6005C12.5693 16.5434 12.6009 16.5141 12.6543 16.4936C13.0805 16.4378 13.5047 16.5119 13.9282 16.5301C14.3041 16.5463 14.6828 16.57 15.0586 16.5854C15.7582 16.6141 16.4563 16.6805 17.1571 16.6817C17.3017 16.6817 17.4427 16.7212 17.588 16.7199C17.7208 16.7188 17.7787 16.6681 17.7444 16.5286C17.6967 16.3345 17.6446 16.1413 17.6049 15.9452C17.5911 15.8377 17.4944 15.7607 17.3866 15.7712C16.8034 15.7511 16.2208 15.7161 15.6385 15.6823C14.9465 15.642 14.2532 15.6315 13.5619 15.5734C13.2273 15.5454 12.8899 15.5384 12.5542 15.5284C12.1764 15.517 11.8009 15.4714 11.4233 15.4709C11.3748 15.4694 11.3281 15.4522 11.2902 15.4219C10.9493 15.1027 10.6028 14.7887 10.3182 14.4151C10.2748 14.358 10.2379 14.2924 10.3441 14.2544C10.7364 14.2217 11.1274 14.27 11.5168 14.2919C11.8662 14.3116 12.2176 14.3323 12.5665 14.3478C13.2807 14.3794 13.9948 14.4133 14.709 14.4496C15.3884 14.4833 16.0696 14.4939 16.7475 14.5603C16.8711 14.5696 16.9952 14.5702 17.1189 14.5621C17.2245 14.5574 17.2666 14.5042 17.247 14.3998C17.2071 14.1894 17.1563 13.9813 17.0948 13.7761C17.056 13.6456 16.9484 13.6194 16.8334 13.6186C16.5648 13.6174 16.2973 13.5852 16.0301 13.5796C15.0262 13.5585 14.0249 13.4846 13.0226 13.4396C12.0754 13.3971 11.1274 13.3583 10.1813 13.2882C9.89857 13.2673 9.88267 13.2807 9.84892 13.5574C9.85214 13.6202 9.82769 13.6813 9.78217 13.7246C9.68047 13.6882 9.68602 13.5958 9.68602 13.5171C9.68602 12.1657 9.66764 10.8143 9.69351 9.46363C9.72157 9.31468 9.87892 9.2993 9.96104 9.2054C9.98992 9.1724 10.0567 9.16041 10.036 9.10041C10.0219 9.05953 9.96997 9.06088 9.93262 9.04745C9.84929 9.01745 9.73327 9.04745 9.70199 8.92055C9.68699 8.56655 9.65512 8.21263 9.71969 7.86028C9.72637 7.8416 9.74692 7.83185 9.76559 7.83853C9.77009 7.8401 9.77429 7.84265 9.77782 7.84588Z" fill="#ABACAC"/>
<path d="M10.2865 14.3061C10.6124 14.7021 10.9668 15.0736 11.347 15.4177C11.5621 15.5093 11.691 15.706 11.8585 15.8536C12.1125 16.0776 12.4005 16.2661 12.6101 16.5394C13.2328 17.0687 13.9018 17.5409 14.6091 17.9503C14.8428 18.0151 15.0292 18.17 15.2375 18.2836C15.4344 18.3912 15.6284 18.504 15.8309 18.6012C15.8965 18.622 15.9516 18.6673 15.9847 18.7277C16.4878 19.0027 17.0113 19.2388 17.5504 19.4339C17.8996 19.5134 18.2429 19.6087 18.5496 19.8037C18.9255 19.9433 19.3113 20.0551 19.7036 20.1385C19.9785 20.2521 20.2759 20.2793 20.6013 20.3764C20.4363 20.5344 20.2884 20.6815 20.1346 20.8224C19.6638 21.2539 19.6629 21.253 19.0632 21.0802C11.9034 19.0182 6.5222 13.2643 4.92822 5.96286C4.71147 4.92936 4.56972 3.88146 4.50425 2.82749C4.48265 2.69099 4.54467 2.55479 4.66175 2.48136C4.94532 2.27789 5.22057 2.06279 5.54187 1.86516C5.54682 3.92436 5.90577 5.96744 6.60305 7.90499V7.69649C6.60305 5.61741 6.60177 3.53826 6.5993 1.45919C6.59892 1.30679 6.6377 1.21994 6.78027 1.16076C7.0643 1.04294 7.34225 0.910411 7.6229 0.783811C7.6571 0.858886 7.66797 0.942511 7.65417 1.02381C7.6553 4.11824 7.65575 7.21274 7.65567 10.3072C7.64855 10.3687 7.6547 10.4311 7.67375 10.4899C7.9673 11.0867 8.31402 11.6558 8.7098 12.1903V11.9755C8.7098 8.20409 8.70845 4.43271 8.70582 0.661336C8.70582 0.481711 8.73875 0.394261 8.93277 0.357136C9.2075 0.304636 9.47675 0.221011 9.75462 0.178711C9.82325 0.259636 9.8075 0.358711 9.81222 0.452986C9.83112 0.827986 9.79167 1.20141 9.7727 1.57536C9.81987 1.99491 9.84335 2.41409 9.75462 2.83169C9.75425 3.20864 9.75395 3.58559 9.75365 3.96254C9.78402 4.00821 9.80112 4.06139 9.803 4.11621C9.80802 4.45004 9.80802 4.78394 9.803 5.11776C9.79752 5.18586 9.78065 5.25254 9.75312 5.31501L9.75485 6.48771C9.78395 6.53436 9.80052 6.58769 9.803 6.64259C9.80802 6.97761 9.80802 7.31256 9.803 7.64759C9.79812 7.71599 9.78117 7.78296 9.75305 7.84551L9.7673 8.97554C9.83262 9.10304 9.83172 9.25439 9.7649 9.38114C9.76137 10.7962 9.75807 12.2111 9.75507 13.6261C9.75867 13.6527 9.76572 13.6786 9.77615 13.7033C9.989 13.8637 10.1634 14.0697 10.2865 14.3061Z" fill="#EE1D55"/>
<path d="M0.0360649 12.5154L0.0370399 11.3957C0.0080149 10.8696 0.320165 10.4841 0.57704 10.0757C0.638765 9.97737 0.69704 9.87657 0.756365 9.77689C0.838865 9.51642 1.01669 9.31295 1.17374 9.10047C1.26696 8.9894 1.29112 8.83595 1.23644 8.70162C1.18687 8.555 1.10571 8.41145 1.14569 8.2457C1.13414 8.17092 1.11569 8.09742 1.09071 8.02602C0.89144 7.58487 0.972815 7.17695 1.20696 6.77352C1.36837 6.49527 1.49242 6.19542 1.69447 5.88965C2.43569 9.84537 4.04662 13.3626 6.56331 16.4506C9.08294 19.5422 12.2026 21.8261 15.9158 23.3498C15.4051 23.5289 14.8828 23.6727 14.3524 23.7802C14.2835 23.7875 14.2143 23.7703 14.1569 23.7316C13.8716 23.5962 13.5866 23.4599 13.3019 23.3228C13.0888 23.2846 12.9176 23.1546 12.734 23.0548C12.1865 22.7572 11.6624 22.4205 11.137 22.0861C10.7681 21.8205 10.3843 21.5761 10.0255 21.2958C9.94582 21.2193 9.83804 21.174 9.78029 21.0744C9.77339 21.0642 9.76679 21.0416 9.76161 21.0417C9.74347 21.0417 9.74977 21.0476 9.76259 21.0627C9.78337 21.09 9.79634 21.1226 9.80009 21.1567C9.80947 21.8676 9.80902 22.578 9.79881 23.2878C9.79379 23.4516 9.77722 23.6148 9.74916 23.7762C9.42727 23.7465 9.12089 23.6451 8.80799 23.5737C8.67824 23.5437 8.70982 23.4435 8.70974 23.3593C8.70869 22.3652 8.70592 21.371 8.71251 20.3769C8.72009 20.2474 8.66302 20.1225 8.56004 20.0435C8.26371 19.7885 7.97894 19.5201 7.68607 19.2539C7.62967 19.3242 7.65606 19.395 7.65606 19.4592C7.65404 20.626 7.65352 21.7927 7.65449 22.9594C7.65449 23.1867 7.65277 23.1893 7.43699 23.0953C7.21049 22.9968 6.98864 22.8871 6.76042 22.7929C6.63216 22.74 6.59894 22.6593 6.59947 22.5235C6.60479 21.1221 6.60119 19.7206 6.60524 18.3192C6.61101 18.1965 6.56692 18.0768 6.48292 17.9871C6.18179 17.6502 5.89177 17.3032 5.56934 16.9272C5.56417 17.0364 5.55794 17.1078 5.55787 17.1792C5.55734 18.7533 5.55577 20.3274 5.55329 21.9014C5.55329 21.948 5.63639 22.0651 5.48392 22.0535C5.46944 21.951 5.46606 21.8473 5.47379 21.7441C5.47334 20.2408 5.47049 18.7376 5.47664 17.2344C5.48504 17.0202 5.41079 16.8109 5.26934 16.6499C4.99402 16.3147 4.73797 15.9642 4.50247 15.5999C4.41097 15.4158 4.30462 15.2394 4.18462 15.0725C4.18034 15.0673 4.17712 15.0611 4.17277 15.0561C4.11734 14.9934 4.10436 14.8633 4.00499 14.8784C3.92737 14.8902 3.92054 15.007 3.88844 15.0809C3.74129 15.4034 3.59706 15.7268 3.46282 16.0548C3.32782 16.4145 3.18652 16.7715 3.06982 17.1378C3.02077 17.2884 2.96542 17.4368 2.92612 17.5905C2.78684 18.0621 2.66242 18.5374 2.54774 19.0155C2.53139 19.0839 2.53867 19.1718 2.44341 19.1968C2.15301 18.8551 1.92719 18.4693 1.69012 18.091C1.63582 18.0044 1.66987 17.9335 1.69087 17.856C2.07067 16.4542 2.60459 15.0987 3.28289 13.8145C3.35152 13.7119 3.35219 13.5783 3.28469 13.4749C3.11459 13.1766 2.96429 12.8669 2.80604 12.5618C2.76096 12.4988 2.73044 12.4266 2.71664 12.3504C2.69714 12.4305 2.79712 12.4818 2.76914 12.5616C2.03339 13.8414 1.43106 15.1935 0.97154 16.5965C0.840515 16.3955 0.787865 16.1889 0.716915 15.9925C0.371915 15.0378 0.376115 15.0377 0.79409 14.11C1.18979 13.2229 1.64414 12.3631 2.15414 11.5364C2.22757 11.4368 2.23807 11.3042 2.18129 11.1943C2.04082 10.8742 1.91557 10.5474 1.77059 10.1897C1.14389 11.1229 0.584765 12.0999 0.0976399 13.113L0.0360649 12.5154Z" fill="#EE1D55"/>
<path d="M3.50072 3.52295C4.29279 12.3775 10.3723 19.599 18.5498 22.0323C18.4373 22.1647 18.2857 22.2297 18.1494 22.3112C17.3582 22.7843 17.3525 22.7944 16.4994 22.4418C9.75384 19.6524 5.32179 14.7536 3.20327 7.74515C2.91774 6.75777 2.70804 5.75 2.57582 4.73067C2.55617 4.664 2.56764 4.59207 2.60694 4.53477C2.88669 4.18182 3.18504 3.8441 3.50072 3.52295Z" fill="#EE1D55"/>
<path d="M21.0399 4.06685C21.236 4.33092 21.2363 4.33145 20.9769 4.5332C20.8414 4.6382 20.7044 4.74192 20.5679 4.84617C20.4415 4.8509 20.5229 4.92372 20.5274 4.9712C20.5967 5.25852 20.6735 5.54427 20.7326 5.8337C20.7676 6.00537 20.8115 6.02232 20.9469 5.90562C21.2073 5.68107 21.4869 5.4791 21.7486 5.25605C21.8536 5.16642 21.9066 5.18622 21.9707 5.29197C22.0955 5.49815 22.2232 5.70267 22.3564 5.90345C22.4309 6.01595 22.4288 6.09095 22.3075 6.17397C22.1375 6.29 21.9803 6.42537 21.8207 6.55602C21.7872 6.5834 21.7273 6.60717 21.7495 6.66672C21.7658 6.71037 21.8174 6.70422 21.8567 6.71495C22.1547 6.79542 22.4508 6.884 22.7508 6.95585C22.8676 6.97452 22.9642 7.05687 23.001 7.16922C23.1093 7.45962 23.226 7.74672 23.3376 8.03592C23.3543 8.07935 23.3946 8.1296 23.3637 8.17242C23.3208 8.23182 23.2631 8.18262 23.2137 8.16943C21.8271 7.802 20.4404 7.43397 19.054 7.06542C17.3693 6.61662 15.6848 6.16685 14.0006 5.7161C13.8812 5.68422 13.7618 5.6525 13.6424 5.62092C13.6354 5.56745 13.6771 5.54885 13.7126 5.5334C14.2412 5.29235 14.7893 5.09667 15.351 4.9484C15.4697 4.96797 15.5633 5.06232 15.6839 5.0591C15.6389 5.0087 15.4632 5.0861 15.5298 4.91C15.7222 4.80275 15.9198 4.71642 16.148 4.74102C16.2413 4.7981 16.2521 4.89935 16.2716 4.99122C16.2887 5.1176 16.3879 5.2172 16.5142 5.23467C16.7815 5.28897 17.0372 5.39172 17.3257 5.4392C17.3107 5.21007 17.2414 5.0042 17.1964 4.7942C17.1755 4.6967 17.1196 4.5986 17.1808 4.49547C17.5208 4.35807 17.8846 4.28892 18.2513 4.29207C18.3557 4.4966 18.3703 4.72602 18.4251 4.94405C18.4788 5.15742 18.5357 5.37072 18.5732 5.58792C18.5887 5.7221 18.6903 5.83017 18.8233 5.8538C19.0429 5.909 19.2639 5.9588 19.4814 6.02217C19.6122 6.06012 19.6457 6.01175 19.6148 5.8895C19.4935 5.4089 19.387 4.92477 19.2773 4.44147C19.2525 4.3319 19.1393 4.2932 19.1222 4.18827C19.1537 4.15107 19.1999 4.12955 19.2485 4.12925C19.7848 4.09017 20.3222 4.07255 20.8589 4.03857C20.9201 4.0412 20.9808 4.05072 21.0399 4.06685Z" fill="#ABACAC"/>
<path d="M12.1811 6.31379C13.2414 6.59879 14.3017 6.88379 15.3621 7.16879C18.0871 7.89824 20.8123 8.62619 23.5379 9.35257C23.6695 9.38752 23.7342 9.43702 23.7554 9.57869C23.7946 9.83669 23.8435 10.0934 23.8854 10.3512C23.9127 10.5188 23.8911 10.5448 23.7289 10.4998C23.1205 10.3309 22.5089 10.1736 21.8989 10.0107C18.272 9.04192 14.6451 8.07284 11.0182 7.10347C10.9717 7.09109 10.9248 7.08097 10.8781 7.06979C10.8648 7.00642 10.9176 6.98774 10.9545 6.96232C11.3052 6.72052 11.6833 6.52529 12.0535 6.31732C12.0913 6.29579 12.1375 6.26129 12.1811 6.31379Z" fill="#ABACAC"/>
<path d="M12.1816 6.31362C11.7324 6.53922 11.2972 6.79175 10.8784 7.06977L9.84337 7.7567C9.78847 7.76517 9.76882 7.73277 9.77002 7.68627C9.78015 7.29335 9.74332 6.8996 9.7896 6.50727C12.2492 4.83365 15.0522 3.73175 17.9931 3.28227C18.6388 3.18154 19.2893 3.12282 19.9411 3.07752C20.0303 3.07302 20.1166 3.10962 20.1754 3.17682C20.4796 3.45755 20.7608 3.76062 21.0394 4.06655C20.8249 4.14905 20.5986 4.11305 20.3783 4.1261C19.9648 4.1507 19.5502 4.1588 19.1386 4.21227C19.045 4.32275 18.9085 4.2932 18.7917 4.30587C18.6108 4.32545 18.4285 4.40247 18.2442 4.32222C17.8887 4.3664 17.5362 4.43217 17.1886 4.51902C16.86 4.66122 16.5091 4.74492 16.1516 4.76652C15.9392 4.80192 15.731 4.85877 15.5302 4.93632C15.4901 4.98297 15.4263 5.00142 15.3675 4.98342C14.7785 5.1569 14.2018 5.3699 13.6415 5.62092C13.1393 5.81735 12.6514 6.04887 12.1816 6.31362Z" fill="#EE1D55"/>
<path d="M9.86914 3.97227C11.0368 3.27364 12.2712 2.69299 13.5538 2.23879C14.7627 1.80386 16.0072 1.47566 17.2734 1.25801C17.3397 1.24031 17.4102 1.24631 17.4725 1.27504C17.9467 1.51781 18.4032 1.79381 18.8385 2.10094C18.4327 2.16034 18.0571 2.21134 17.6828 2.27074C14.9603 2.70094 12.3505 3.66859 10.0056 5.11729C9.94737 5.15307 9.88669 5.18479 9.82707 5.21832C9.73707 5.21029 9.77022 5.13889 9.76977 5.09367C9.76669 4.77777 9.77157 4.46172 9.76594 4.14589C9.75297 4.07052 9.79669 3.99687 9.86914 3.97227Z" fill="#EE1D55"/>
<path d="M9.82978 1.57805C10.9636 0.972352 12.1488 0.467902 13.3714 0.0706268C13.5809 0.00177681 13.7908 0.0922268 13.9977 0.124852C14.5509 0.210952 15.096 0.342877 15.6274 0.519277C14.9347 0.694477 14.2805 0.877402 13.6365 1.09513C12.3595 1.52608 11.1225 2.0675 9.9395 2.71325C9.89158 2.73943 9.84065 2.7599 9.79115 2.78308C9.74113 2.40808 9.77855 2.03158 9.7718 1.65583C9.7739 1.62065 9.7967 1.59013 9.82978 1.57805Z" fill="#EE1D55"/>
<path d="M11.154 22.0481C11.859 22.492 12.5772 22.9126 13.302 23.3224C13.2861 23.4894 13.2702 23.6565 13.2543 23.8235C13.213 23.8792 13.2069 23.9581 13.1004 23.9592C12.8403 23.9619 12.5804 23.9817 12.3204 23.9978C12.1985 24.0053 12.1305 23.9986 12.1687 23.8322C12.2298 23.5653 12.2526 23.2897 12.297 23.0188C12.3155 22.9063 12.2869 22.8613 12.1686 22.8913C11.8896 22.9624 11.6103 23.0319 11.3306 23.0995C11.2467 23.1091 11.1845 23.1819 11.1881 23.2663C11.1739 23.4507 11.1318 23.6328 11.111 23.8169C11.0992 23.9207 11.0536 23.9669 10.9515 23.9558C10.6795 23.9258 10.4074 23.8968 10.1358 23.8639C10.0743 23.8564 10.034 23.8216 10.0571 23.7493C10.0597 23.7429 10.0617 23.7362 10.0629 23.7295C10.0933 23.4061 10.0933 23.4061 9.79624 23.4595C9.73549 23.1895 9.78371 22.9156 9.76939 22.6438C9.76541 22.5688 9.76864 22.4928 9.76894 22.4175C9.77584 22.3684 9.81379 22.3294 9.86269 22.3211C10.2531 22.2015 10.6509 22.1076 11.0535 22.0401C11.0872 22.035 11.1216 22.0377 11.154 22.0481Z" fill="#ABACAC"/>
<path d="M9.75195 1.5626C9.7527 1.10142 9.75353 0.640172 9.75443 0.178998C10.41 0.0422729 11.0794 -0.017577 11.7488 0.000797987C11.3512 0.264273 10.9535 0.527747 10.5558 0.791222C10.3784 0.908597 10.2065 1.03632 10.0206 1.13817C9.84653 1.23357 9.747 1.35432 9.77588 1.55967C9.77093 1.58615 9.76283 1.58585 9.75195 1.5626Z" fill="#ABABAC"/>
<path d="M1.146 8.24561C1.36627 8.6881 1.36102 9.09745 0.983471 9.46375C0.898646 9.5611 0.822746 9.66588 0.756596 9.7768L0.185547 10.1258C0.248172 9.6508 0.348372 9.18153 0.485097 8.72238C0.511647 8.63238 0.597597 8.60478 0.663372 8.55955C0.821471 8.45088 0.984821 8.34978 1.146 8.24561Z" fill="#ABACAC"/>
<path d="M9.86948 3.97227C9.83993 4.02282 9.78578 4.05477 9.78698 4.12812C9.79178 4.46824 9.78923 4.80851 9.79208 5.14871C9.79208 5.17204 9.81518 5.19514 9.82755 5.21831L9.75293 5.31529C9.75293 4.86454 9.75308 4.41371 9.75345 3.96289C9.78983 3.99379 9.83003 3.97834 9.86948 3.97227Z" fill="#EF4464"/>
<path d="M9.78968 6.50756C9.78968 6.85548 9.78788 7.20341 9.78968 7.55133C9.79005 7.62288 9.76463 7.70463 9.84338 7.75698L9.77821 7.84601L9.76561 7.84361L9.75293 7.84578C9.7536 7.39323 9.75421 6.94076 9.75481 6.48828C9.76846 6.49001 9.78098 6.49691 9.78968 6.50756Z" fill="#EF4263"/>
<path d="M9.75195 1.56235C9.7599 1.56557 9.7689 1.56452 9.77595 1.55957L9.83025 1.5778C9.74843 1.74782 9.79748 1.92864 9.79103 2.10422C9.7827 2.33012 9.79065 2.55654 9.79155 2.78274L9.75465 2.83172C9.75375 2.40879 9.75285 1.98572 9.75195 1.56235Z" fill="#EF4263"/>
<path d="M20.5273 4.97096C20.4569 4.91006 20.5004 4.82269 20.4697 4.74806C20.5511 4.73981 20.5147 4.83611 20.5678 4.84556L20.5273 4.97096Z" fill="#B1B2B2"/>
<path d="M4.50434 15.5425C4.76391 15.8856 5.00721 16.243 5.28853 16.5671C5.48976 16.799 5.53836 17.0424 5.53603 17.3372C5.52478 18.832 5.53138 20.3269 5.52936 21.8218C5.52936 21.8998 5.56273 21.9892 5.48353 22.0534C5.16981 21.8612 4.86906 21.6487 4.58316 21.4171C4.51791 21.3673 4.48416 21.2863 4.49466 21.2049C4.49511 20.9449 4.49046 20.685 4.48776 20.4249C4.44906 20.368 4.43151 20.2993 4.43819 20.2309C4.43481 19.9039 4.43586 19.5769 4.43729 19.2499C4.44006 19.1748 4.45731 19.1009 4.48806 19.0324C4.48769 18.5863 4.48724 18.1404 4.48686 17.6944C4.44576 17.6297 4.42829 17.5529 4.43729 17.4769C4.43729 17.0279 4.42979 16.5789 4.44066 16.13C4.45626 15.9337 4.38261 15.7277 4.50434 15.5425Z" fill="#ED1A47"/>
<path d="M4.48786 16.1246C4.48786 16.6481 4.48786 17.1715 4.48786 17.6948C3.88591 18.1719 3.28591 18.6515 2.67894 19.1222C2.62044 19.1672 2.56569 19.3172 2.44434 19.1962C2.58826 18.6558 2.69401 18.105 2.88189 17.5763C3.04793 17.4153 3.20686 17.2448 3.42878 17.1575C3.51541 17.1366 3.60481 17.1299 3.69353 17.1377C3.59386 17.1292 3.49343 17.1368 3.39616 17.1602C3.26828 17.1759 3.13831 17.2089 3.02708 17.1082C3.13966 16.7482 3.27158 16.3946 3.42241 16.0489C3.77851 15.9884 4.14391 16.0145 4.48786 16.1246Z" fill="#ABACAC"/>
<path d="M4.48838 19.0327C4.48838 19.4969 4.48838 19.961 4.48838 20.425C4.25445 20.4453 4.0335 20.525 3.80685 20.578C3.72945 20.6097 3.64057 20.5897 3.58417 20.528C3.36585 20.2893 3.14542 20.0526 2.92282 19.818C2.84497 19.7355 2.87992 19.7055 2.97195 19.6872C3.07935 19.6656 3.18413 19.6272 3.29228 19.6136C3.7443 19.5578 4.16498 19.3534 4.48838 19.0327Z" fill="#ABACAC"/>
<path d="M9.79492 22.383C9.79537 22.742 9.79582 23.1011 9.79635 23.4602C9.7563 23.5619 9.8256 23.6799 9.75 23.7763C9.75247 22.8706 9.75495 21.9652 9.7575 21.0598C9.7644 21.0377 9.77505 21.0345 9.79005 21.0533L10.0365 21.2505C9.87255 21.3542 9.84615 21.5076 9.8454 21.6914C9.84398 21.9217 9.90232 22.1597 9.79492 22.383Z" fill="#C1A0A4"/>
<path d="M2.76937 12.5611C2.74529 12.4918 2.68484 12.436 2.69437 12.3232C2.75647 12.3885 2.79592 12.472 2.80687 12.5614L2.78827 12.5595L2.76937 12.5611Z" fill="#EF3C60"/>
<path d="M10.2868 14.3063C10.1002 14.12 9.92944 13.9185 9.77637 13.7038C9.77862 13.6624 9.78274 13.6213 9.78312 13.5798C9.78657 13.212 9.78657 13.207 10.1626 13.2246C11.308 13.278 12.4536 13.3302 13.5984 13.3935C14.4211 13.4389 15.2436 13.4855 16.0669 13.5201C16.3479 13.5318 16.6294 13.5501 16.9105 13.5568C17.0568 13.5604 17.1468 13.6124 17.173 13.7766C17.2105 14.0071 17.2683 14.2348 17.3283 14.4609C17.3618 14.5869 17.3393 14.6416 17.1988 14.634C16.4174 14.592 15.6358 14.5519 14.8541 14.514C14.5386 14.4984 14.223 14.4892 13.9074 14.4716C12.8925 14.4149 11.8764 14.3816 10.8612 14.331C10.6701 14.3216 10.4797 14.2871 10.2868 14.3063Z" fill="white"/>
<path d="M12.6098 16.5397C12.1595 16.2001 11.7371 15.825 11.3467 15.418C12.41 15.4515 13.4722 15.5063 14.5342 15.574C14.863 15.5949 15.1925 15.5937 15.5219 15.6167C16.1723 15.6617 16.8246 15.6825 17.4764 15.7054C17.5613 15.6942 17.6393 15.754 17.6504 15.8389C17.6511 15.844 17.6516 15.8491 17.6517 15.8543C17.705 16.1101 17.7699 16.3636 17.833 16.6173C17.8648 16.7453 17.8223 16.793 17.6894 16.7849C17.0183 16.7441 16.3469 16.7099 15.6757 16.6691C15.3878 16.6517 15.0998 16.6532 14.8114 16.6343C14.0783 16.5863 13.3436 16.5692 12.6098 16.5397Z" fill="white"/>
<path d="M12.0594 10.3126C11.6504 10.5907 11.2809 10.9201 10.8917 11.2236C10.5308 11.5051 10.1745 11.7925 9.78418 12.1027C9.78418 11.6527 9.78455 11.2421 9.78418 10.8313C9.78418 10.7509 9.83788 10.7091 9.89233 10.6663C10.3881 10.2738 10.8853 9.88304 11.3777 9.48636C11.4291 9.43019 11.5106 9.41309 11.5802 9.44384C11.6066 9.45134 11.6335 9.45689 11.6608 9.46041C12.212 9.60419 12.2118 9.60426 12.108 10.1689C12.1034 10.2031 12.1006 10.2375 12.0996 10.272C12.0925 10.2905 12.0778 10.3053 12.0594 10.3126Z" fill="white"/>
<path d="M13.5979 12.3477C13.3925 12.335 13.1872 12.3177 12.9816 12.3114C12.881 12.3082 12.8583 12.2824 12.8752 12.1764C12.9737 11.5586 13.0541 10.9379 13.1566 10.3208C13.2302 9.87726 13.2434 9.87156 13.6759 10.0011C13.8584 10.0558 14.1071 10.0345 14.2075 10.1811C14.3014 10.3183 14.1824 10.5354 14.1594 10.717C14.0994 11.1943 14.0074 11.6678 13.9537 12.1457C13.9239 12.411 13.7507 12.3427 13.5979 12.3477Z" fill="white"/>
<path d="M15.985 18.7274C15.5049 18.5084 15.0446 18.2483 14.6094 17.9499C14.8032 17.9049 15.0005 17.8717 15.19 17.8129C15.5074 17.7144 15.8246 17.7379 16.1482 17.764C16.5657 17.7978 16.9855 17.8023 17.404 17.8221C17.581 17.8431 17.7592 17.8531 17.9375 17.8521C18.1182 17.8379 18.14 17.9473 18.1649 18.0709C18.198 18.2364 18.0493 18.2039 17.9761 18.2226C17.3444 18.3835 16.7101 18.5342 16.0769 18.689C16.0453 18.6994 16.0146 18.7122 15.985 18.7274Z" fill="white"/>
<path d="M16.2754 10.8285C16.1948 11.3381 16.112 11.8474 16.0354 12.3576C16.0196 12.4626 15.9616 12.4832 15.8779 12.4647C15.6536 12.4276 15.4258 12.4172 15.1991 12.4338C15.0239 12.437 14.9645 12.3806 14.9933 12.2075C15.0587 11.8139 15.1169 11.4191 15.1773 11.0247C15.2002 10.8751 15.2237 10.7255 15.2415 10.5753C15.254 10.4703 15.294 10.4299 15.4052 10.4618C15.656 10.5336 15.9094 10.5959 16.1617 10.662C16.2341 10.6694 16.2869 10.7342 16.2795 10.8067C16.2788 10.814 16.2773 10.8214 16.2754 10.8285Z" fill="white"/>
<path d="M18.5499 19.8038C18.2082 19.7052 17.8743 19.5816 17.5508 19.434C17.7916 19.3358 18.0495 19.3019 18.2985 19.2342C18.3581 19.2092 18.4266 19.2373 18.4515 19.2968C18.4573 19.3108 18.4604 19.3257 18.4605 19.3408C18.4879 19.4955 18.5199 19.6495 18.5499 19.8038Z" fill="#FDFCFC"/>
<path d="M11.8318 11.8306C11.8705 12.2557 11.8468 12.2752 11.3721 12.2098C11.5127 12.0688 11.6667 11.9418 11.8318 11.8306Z" fill="#F6F6F5"/>
<path d="M9.76465 9.38152C9.7654 9.24652 9.76615 9.11137 9.76697 8.97607C9.89965 8.98552 10.0859 8.97697 10.1258 9.09037C10.1612 9.19117 9.96325 9.23955 9.88577 9.32939C9.85397 9.36532 9.81925 9.39847 9.76465 9.38152Z" fill="#FBF1F0"/>
<path d="M12.0588 10.3124L12.0989 10.2715C12.0958 10.4954 12.0611 10.7177 11.9959 10.9319C11.9699 10.7209 12.0264 10.5176 12.0588 10.3124Z" fill="#B0B1B1"/>
<path d="M12.3205 12.2559C12.2216 12.3292 12.117 12.2977 11.9766 12.3114C12.1042 12.1747 12.2174 12.2474 12.3205 12.2559Z" fill="#B0B1B1"/>
<path d="M16.91 12.7361C16.8864 12.5127 16.736 12.4857 16.5537 12.508C16.8873 12.4416 16.9341 12.4724 16.91 12.7361Z" fill="#B2B3B3"/>
<path d="M16.6729 11.6391C16.5967 11.4981 16.5591 11.3394 16.5639 11.1792C16.6355 11.3219 16.6729 11.4794 16.6729 11.6391Z" fill="#B1B2B2"/>
<path d="M10.5029 12.1778C10.4135 12.2338 10.3016 12.2394 10.207 12.1928C10.3167 12.1072 10.4113 12.1543 10.5029 12.1778Z" fill="#B0B1B1"/>
<path d="M18.8945 11.4113C19.031 11.3993 19.1678 11.429 19.287 11.4964C19.1657 11.5116 19.0557 11.4771 18.8945 11.4113Z" fill="#B1B2B2"/>
<path d="M17.477 11.0162C17.3264 11.0176 17.1777 10.9821 17.0439 10.9128C17.1955 10.9012 17.347 10.9373 17.477 11.0162Z" fill="#B1B2B2"/>
<path d="M22.9587 15.3315L23.0532 15.6979C22.9467 15.5974 22.9554 15.465 22.9587 15.3315Z" fill="#B1B2B2"/>
<path d="M14.6131 17.6892H14.3395L14.3389 17.6685H14.6126L14.6131 17.6892Z" fill="#B5B6B6"/>
<path d="M15.0309 17.7267H14.7881L14.7885 17.7075H15.0312L15.0309 17.7267Z" fill="#B3B4B4"/>
<path d="M14.3389 12.3704C14.4244 12.3431 14.5164 12.3427 14.6022 12.3692C14.5167 12.3972 14.4246 12.3976 14.3389 12.3704Z" fill="#B4B4B5"/>
<path d="M12.7526 12.3006H12.5201L12.5195 12.2798H12.7559L12.7526 12.3006Z" fill="#B5B6B6"/>
<path d="M10.9342 12.2164H10.7002C10.7732 12.1772 10.8611 12.1772 10.9342 12.2164Z" fill="#B5B6B6"/>
<path d="M10.029 12.1573C9.96499 12.1882 9.89127 12.1923 9.82422 12.1686C9.89719 12.1165 9.96582 12.1573 10.029 12.1573Z" fill="#B5B6B7"/>
<path d="M8.89355 12.5532C9.00478 12.5875 9.0161 12.6932 9.07198 12.7672C8.9612 12.7325 8.94965 12.6269 8.89355 12.5532Z" fill="#EE365D"/>
<path d="M7.0962 9.229L7.19444 9.43532C7.11337 9.40217 7.07078 9.31285 7.0962 9.229Z" fill="#EE375E"/>
<path d="M7.46485 10.0937C7.41048 10.0423 7.37973 9.97077 7.37988 9.896C7.44438 9.93965 7.47753 10.0169 7.46485 10.0937Z" fill="#EE365E"/>
<path d="M9.56699 13.4297C9.49274 13.4114 9.43484 13.3532 9.41699 13.2788C9.48787 13.3029 9.54337 13.3588 9.56699 13.4297Z" fill="#EE355D"/>
<path d="M9.27854 13.0531C9.21381 13.0538 9.18854 13.0179 9.17773 12.96C9.24876 12.9609 9.25717 13.0124 9.27854 13.0531Z" fill="#EF385E"/>
<path d="M6.85984 8.73217C6.81177 8.64127 6.76002 8.59987 6.79024 8.52734C6.85549 8.57227 6.85369 8.63782 6.85984 8.73217Z" fill="#EF395E"/>
<path d="M6.85254 8.67041C6.90077 8.76198 6.95304 8.80308 6.92259 8.87561C6.85651 8.83098 6.85929 8.76528 6.85254 8.67041Z" fill="#EE375D"/>
<path d="M9.79506 22.383C9.79206 22.0686 9.79341 21.7541 9.78433 21.4399C9.77878 21.2462 9.92361 21.2749 10.0363 21.2505L11.1547 22.0484L9.79506 22.383Z" fill="#FFFDFD"/>
<path d="M4.20985 15.0418C4.0933 15.0397 3.97683 15.0376 3.86035 15.0354C3.90235 14.9431 3.94428 14.8511 3.99535 14.7388C4.08775 14.8232 4.16095 14.9266 4.20985 15.0418Z" fill="#B4A9AA"/>
<path d="M7.62368 19.1516L7.14218 18.667L7.12598 18.6827L7.58693 19.1878L7.62368 19.1516Z" fill="#EE355C"/>
<path d="M1.6109 9.78956L1.4834 9.41637L1.5242 9.40137L1.6562 9.76886L1.6109 9.78956Z" fill="#EE375E"/>
<path d="M8.78809 20.2471C8.86721 20.2546 8.89939 20.3109 8.96891 20.3896C8.88806 20.3764 8.81974 20.3226 8.78809 20.2471Z" fill="#EE365D"/>
<path d="M9.21011 20.5981C9.30371 20.6026 9.34572 20.6701 9.41809 20.7674C9.32884 20.7412 9.25384 20.6803 9.20996 20.5984L9.21011 20.5981Z" fill="#EE345C"/>
<path d="M2.39497 11.6861C2.29747 11.6449 2.31442 11.5494 2.29297 11.4722C2.36617 11.5247 2.37547 11.6078 2.39512 11.6859L2.39497 11.6861Z" fill="#EE365E"/>
<path d="M9.20949 20.5984C9.14162 20.5953 9.0826 20.5511 9.06055 20.4868C9.12774 20.4915 9.18601 20.535 9.20964 20.5982L9.20949 20.5984Z" fill="#EE375E"/>
<path d="M9.78982 21.0531C9.77977 21.0583 9.76852 21.0605 9.75727 21.0596C9.7134 21.0325 9.65925 21.0145 9.6543 20.9453C9.73177 20.9455 9.75705 21.004 9.78982 21.0531Z" fill="#EF395E"/>
<path d="M2.396 11.686C2.4524 11.7253 2.47925 11.7948 2.46388 11.8618C2.4113 11.8197 2.38535 11.7526 2.39585 11.6861L2.396 11.686Z" fill="#EF385E"/>
<path d="M18.2441 4.32241L19.1385 4.21246C19.2194 4.19911 19.2957 4.25371 19.3091 4.33456C19.3097 4.33763 19.31 4.34071 19.3103 4.34378C19.4349 4.89196 19.5675 5.43833 19.6944 5.98628C19.7169 6.08333 19.7061 6.14903 19.5712 6.10951C19.2891 6.02701 19.0034 5.95703 18.7197 5.87956C18.6476 5.85983 18.5697 5.84071 18.5519 5.74921C18.46 5.27108 18.3101 4.80586 18.2441 4.32241Z" fill="white"/>
<path d="M16.1514 4.76654C16.4886 4.65187 16.8357 4.56899 17.1883 4.51904C17.2547 4.80539 17.3193 5.09219 17.3881 5.37794C17.4146 5.48797 17.3983 5.53154 17.272 5.49449C17.0037 5.41589 16.7344 5.33842 16.4616 5.27849C16.321 5.24759 16.2456 5.18849 16.2276 5.04194C16.2093 4.94834 16.1838 4.85624 16.1514 4.76654Z" fill="#FFFEFE"/>
<path d="M15.3672 4.98339C15.4215 4.96839 15.4654 4.91589 15.5299 4.93629C15.5469 5.06191 15.6968 4.97964 15.7418 5.08509C15.6092 5.09199 15.478 5.05636 15.3672 4.98339Z" fill="#B1B2B1"/>
<path d="M20.1973 6.29371C20.3134 6.26468 20.4364 6.29671 20.5236 6.37868L20.1973 6.29371Z" fill="#B1B1B1"/>
<path d="M20.4135 4.45264C20.4702 4.49659 20.4947 4.57061 20.4752 4.63976C20.3988 4.60504 20.4018 4.54354 20.4135 4.45264Z" fill="#B1B2B2"/>
<path d="M20.3623 4.27051C20.4057 4.29676 20.4259 4.32871 20.4081 4.368C20.4072 4.3701 20.3799 4.36605 20.3786 4.36126C20.3706 4.33141 20.367 4.30081 20.3623 4.27051Z" fill="#B1B2B2"/>
<path d="M10.8188 23.2246C10.7198 23.3231 10.5788 23.2789 10.4619 23.3288C10.5648 23.2452 10.6898 23.2354 10.8188 23.2246Z" fill="#B1B2B2"/>
<path d="M3.42188 17.1966C3.423 17.1703 3.4242 17.144 3.42533 17.1177H3.7074C3.61612 17.1658 3.50977 17.1434 3.42188 17.1966Z" fill="#B6B6B7"/>
<path d="M4.21341 17.1751C4.10519 17.205 3.99126 17.2076 3.88184 17.1826C3.99006 17.1529 4.10399 17.1502 4.21341 17.1751Z" fill="#B2B4B3"/>
</g>
<defs>
<clipPath id="clip0">
<rect width="24" height="24" fill="white"/>
</clipPath>
</defs>
</svg>
