<svg width="24" height="24" fill="none" xmlns="http://www.w3.org/2000/svg"><path d="M2.272 15.702 0 20.184h5.277l2.273-4.482H2.272ZM5.279 9.772l-2.266 4.47H8.29l2.266-4.47H5.28ZM8.287 3.842 6.02 8.312h5.277l2.266-4.47H8.287Z" fill="#0175B0"/><path d="M7.532 15.7 5.26 20.182h5.277L12.81 15.7H7.532ZM10.539 9.77l-2.267 4.47h5.278l2.266-4.47H10.54ZM13.547 3.84 11.28 8.31h5.278l2.266-4.47h-5.277Z" fill="#00A2D0"/><path d="m12.709 15.7-2.272 4.482h5.277l2.272-4.482H12.71ZM15.716 9.77l-2.267 4.47h5.278l2.266-4.47h-5.277ZM18.723 3.84l-2.266 4.47h5.277l2.267-4.47h-5.278Z" fill="#0CF"/></svg>