<svg width="24" height="24" fill="none" xmlns="http://www.w3.org/2000/svg"><path fill-rule="evenodd" clip-rule="evenodd" d="M12.02 9.703c1.999 0 3.62-1.6 3.62-3.572 0-1.271-1.505-3.871-2.574-5.559a1.244 1.244 0 0 0-2.093 0C9.903 2.26 8.399 4.86 8.399 6.132c0 1.972 1.621 3.57 3.62 3.57ZM9.835 11.994c0-1.972-1.62-3.571-3.62-3.571-1.289 0-3.925 1.484-5.635 2.539a1.21 1.21 0 0 0 0 2.065c1.71 1.055 4.346 2.539 5.635 2.539 2 0 3.62-1.6 3.62-3.572ZM12.02 14.286c-2 0-3.62 1.6-3.62 3.572 0 1.271 1.504 3.871 2.573 5.559.483.763 1.61.763 2.093 0 1.07-1.688 2.573-4.288 2.573-5.56 0-1.972-1.62-3.57-3.62-3.57ZM23.379 10.962c-1.71-1.055-4.346-2.54-5.635-2.54-2 0-3.62 1.6-3.62 3.572 0 1.973 1.62 3.572 3.62 3.572 1.289 0 3.924-1.484 5.635-2.54a1.21 1.21 0 0 0 0-2.064Z" fill="#667EEC"/></svg>