<svg width="24" height="24" fill="none" xmlns="http://www.w3.org/2000/svg"><g clip-path="url(#a)"><path d="M11.922 14.301h.037l11.046-5.388v1.558l-8.898 4.332 8.883 2.185v1.456l-10.842-2.68-11.104 5.418V19.66l10.878-5.359Zm0-6.03L23.005 2.87v1.558L1 15.153v-1.558l8.942-4.37L1 7.05V5.592l10.922 2.68ZM1 0l11.053 2.694V4.15L1 1.456V0Zm0 4.252V2.796l11.068 2.709V6.96L1 4.252Zm0 12.38L23.005 5.89v1.558L1 18.16v-1.529Zm21.99 4.594-11.068-2.709v-1.456l11.054 2.701.014 1.464Zm-11.068.08v-1.457l11.083 2.724v1.456l-11.083-2.723Z" fill="#F03"/></g><defs><clipPath id="a"><path fill="#fff" d="M0 0h24v24H0z"/></clipPath></defs></svg>