<svg width="24" height="24" viewBox="0 0 24 24" fill="none" xmlns="http://www.w3.org/2000/svg">
<path d="M12 0C18.6274 0 24 5.37257 24 12C24 18.6274 18.6274 24 12 24C5.37257 24 0 18.6274 0 12C0 5.37257 5.37257 0 12 0Z" fill="black"/>
<path d="M6.23633 9.79602C6.23633 9.88585 6.32616 9.97568 6.41599 9.97568H8.59861V11.0852H6.41599C6.32616 11.0852 6.23633 11.175 6.23633 11.2648V13.0943C6.23633 13.1841 6.32616 13.274 6.41599 13.274H8.59861V17.6529C8.59861 17.7428 8.65827 17.8031 8.7481 17.8031H10.8416C10.9314 17.8031 10.9911 17.7435 10.9911 17.6529V13.5153C10.9911 13.4255 11.0507 13.3652 11.1406 13.3652H12.8158C12.8754 13.3652 12.9351 13.3953 12.9652 13.455L14.8194 17.7441C14.8496 17.8038 14.9092 17.834 14.9689 17.834H17.2119C17.3312 17.834 17.3915 17.714 17.3614 17.6241L15.5072 13.4248C15.477 13.335 15.5072 13.2452 15.597 13.215C16.4939 12.8852 17.0624 12.0753 17.0624 10.9953V8.29568C17.0624 6.91602 15.9262 5.77637 14.5499 5.77637H8.7481C8.65827 5.77637 8.59861 5.83671 8.59861 5.92654V7.7862H6.41599C6.32616 7.7862 6.23633 7.87602 6.23633 7.96585V9.79602Z" fill="white"/>
<path d="M10.9912 8.20583C10.9912 8.11601 11.0509 8.05566 11.1407 8.05566H13.9521C14.3409 8.05566 14.6701 8.38549 14.6701 8.77566V10.3953C14.6701 10.7855 14.3409 11.1153 13.9521 11.1153H11.1407C11.0509 11.1153 10.9912 11.055 10.9912 10.9651V8.20583Z" fill="black"/>
</svg>
