<svg width="24" height="24" viewBox="0 0 24 24" fill="none" xmlns="http://www.w3.org/2000/svg">
<path d="M12 24C18.6274 24 24 18.6274 24 12C24 5.37258 18.6274 0 12 0C5.37258 0 0 5.37258 0 12C0 18.6274 5.37258 24 12 24Z" fill="#399B32"/>
<path d="M16.4175 5.60088C16.3365 5.92638 16.3507 6.34338 16.4408 6.38088C16.5307 6.41913 16.7573 6.20388 16.89 5.95938C17.0175 5.73438 17.1307 5.66763 17.2875 5.72538C17.4952 5.80638 17.4622 5.87838 17.0363 6.24663C16.6823 6.55338 16.611 6.66363 16.7062 6.75888C16.7625 6.81663 16.8045 6.80688 17.0077 6.69663C17.2627 6.56313 17.4053 6.57213 17.4053 6.72588C17.4053 6.79713 17.3108 6.85488 16.9657 6.98838C16.7198 7.08438 16.4782 7.20888 16.422 7.27113C16.3088 7.39563 16.11 7.78863 15.8738 8.36763C15.6705 8.87013 15.4762 9.23913 15.3488 9.38238C15.2445 9.49713 14.895 9.56988 14.1578 9.62688C13.8128 9.65538 13.77 9.65088 13.7512 9.56913C13.6981 9.34627 13.6556 9.12102 13.6238 8.89413C13.6238 8.87988 13.7985 8.88438 14.016 8.89938C14.4037 8.92788 14.7908 9.03288 14.9708 9.15738C15.108 9.25338 15.1223 9.23913 15.1838 8.97063C15.2588 8.66463 15.42 8.26263 15.6652 7.76463C15.8497 7.39563 15.855 7.36713 15.8355 7.01763C15.8123 6.62988 15.7455 6.46263 15.5145 6.20838C15.429 6.11838 15.3772 6.01713 15.3915 5.97888C15.4035 5.94948 15.413 5.91912 15.42 5.88813C15.42 5.87838 15.462 5.86863 15.51 5.86863C15.5662 5.86863 15.6652 5.95488 15.7552 6.08388C16.0057 6.43863 16.0815 6.37113 16.0815 5.78238C16.0815 5.51463 16.1003 5.39988 16.1617 5.33238C16.2562 5.22738 16.332 5.22288 16.4122 5.31813C16.4595 5.37588 16.4595 5.43813 16.4175 5.60088ZM12.6593 7.60638C12.6923 7.96113 12.7583 8.08488 12.9713 8.16138C13.056 8.19513 13.1738 8.24388 13.2308 8.26263C13.368 8.31963 13.4062 8.52513 13.5525 9.86613C13.7085 11.3211 13.7415 11.5274 13.8885 11.9774C14.1105 12.6614 14.091 13.4564 13.8315 14.2559C13.6987 14.6676 13.5525 14.8544 13.2502 15.0171C12.645 15.3374 12.0202 15.1034 11.5342 14.3751C11.1727 13.8501 11.0392 13.1976 11.1652 12.5706C11.2365 12.2354 11.274 11.7284 11.2403 11.6031C11.2268 11.5416 11.0753 11.3504 10.905 11.1681C10.3755 10.6176 9.8175 9.63138 9.927 9.45438C9.96 9.40638 9.98325 9.25788 9.98325 9.12888C9.98325 8.86563 9.90825 8.75988 9.57675 8.57388C9.35925 8.44938 9.345 8.32488 9.525 7.97988C9.624 7.77888 9.681 7.73613 10.1775 7.48188C10.683 7.22388 10.9102 7.15188 11.6617 7.01763C11.9737 6.95988 12.2002 6.96513 12.3705 7.03713C12.5692 7.12338 12.6255 7.23288 12.6593 7.60713V7.60638ZM8.187 9.39213C8.187 9.63588 8.26725 9.87588 8.32425 9.81363C8.34825 9.78963 8.39925 9.65538 8.44725 9.51663C8.52225 9.27663 8.66025 9.13413 8.75475 9.19563C8.835 9.24813 8.8065 9.52563 8.70225 9.69813C8.5605 9.93288 8.5605 10.3784 8.7075 10.6754C8.85375 10.9626 9.156 11.2784 9.28875 11.2784C9.369 11.2731 9.4635 11.1584 9.72375 10.7136L10.0538 10.1534L10.1063 10.4886C10.1588 10.8666 10.1347 10.9814 9.92175 11.3504C9.6855 11.7666 9.42075 12.0921 9.32175 12.0921C9.2085 12.0921 8.95275 11.8386 8.73525 11.5131C8.6505 11.3781 8.41425 11.1201 8.2155 10.9334L7.85175 10.5936L7.62975 10.6319C7.49387 10.6573 7.35618 10.6718 7.218 10.6754C7.04775 10.6799 7.029 10.6701 7.0155 10.5509C7.0005 10.4459 7.0245 10.4121 7.1235 10.3881C7.23129 10.3691 7.34141 10.3674 7.44975 10.3829C7.58175 10.4024 7.6815 10.3926 7.73325 10.3544C7.8135 10.2966 7.809 10.2869 7.72875 10.1916C7.6815 10.1339 7.53975 10.0574 7.407 10.0146C7.077 9.90963 6.86325 9.76563 6.86325 9.65538C6.86325 9.51213 7.04325 9.47838 7.1895 9.59763C7.677 10.0004 7.8135 10.0574 7.94175 9.92763C8.03175 9.83763 8.00775 9.66513 7.85625 9.36363C7.72425 9.09513 7.67625 8.84613 7.7475 8.77488C7.79475 8.72238 7.91775 8.73663 8.0025 8.80338C8.10225 8.88438 8.187 9.14838 8.187 9.39213ZM16.833 13.7046C16.7153 13.8299 16.3748 14.2274 16.077 14.5859C15.1973 15.6486 15.108 15.7634 15.1455 15.8024C15.183 15.8399 15.93 15.5099 16.1002 15.3809C16.3132 15.2129 16.7002 14.8019 16.7715 14.6624C16.8045 14.6054 16.8518 14.4284 16.8855 14.2746C16.9417 13.9874 17.0977 13.7676 17.2395 13.7676C17.334 13.7676 17.3767 13.8779 17.3392 14.0211C17.2748 14.183 17.1957 14.3386 17.103 14.4861C16.9845 14.6819 16.9043 14.8589 16.9132 14.8784C16.9605 14.9496 17.136 14.9159 17.3392 14.7966C17.457 14.7291 17.6273 14.5529 17.7548 14.3706C18.0052 14.0166 18.1755 13.8636 18.327 13.8636C18.4545 13.8636 18.606 14.0264 18.573 14.1216C18.558 14.1599 18.3405 14.3466 18.0953 14.5341C17.67 14.8544 17.5372 15.0216 17.613 15.1461C17.6557 15.2181 18.048 15.1221 18.4642 14.9361C19.173 14.6151 19.3673 14.5956 19.4805 14.8109C19.575 14.9886 19.3432 15.0981 18.4357 15.2991C18.1852 15.3569 17.9107 15.4476 17.826 15.5001L17.67 15.5961L17.7787 15.6869C17.8733 15.7641 17.9722 15.7784 18.4403 15.7784C18.861 15.7784 19.0177 15.7971 19.0883 15.8496C19.1783 15.9216 19.173 15.9269 19.041 16.0461C18.9555 16.1181 18.876 16.1564 18.828 16.1369C18.6202 16.0506 17.916 15.9216 17.6603 15.9216C17.202 15.9216 17.1638 16.0896 17.58 16.2516C17.769 16.3289 17.8403 16.4151 17.802 16.5156C17.76 16.6304 17.646 16.6109 17.235 16.4196C16.4025 16.0319 16.2517 16.0124 15.255 16.1421C14.7817 16.2044 14.6445 16.2096 14.5928 16.1609C14.4885 16.0746 14.5072 15.9936 14.6542 15.8646C14.772 15.7641 15.6848 14.0646 15.642 14.0264C15.618 14.0024 14.697 14.3324 14.0295 14.6099C13.9447 14.6436 13.9447 14.6391 14.0295 14.5049C14.3422 13.9926 15.2445 13.4174 16.2945 13.0589C16.8383 12.8721 16.8713 12.8676 17.0978 12.8721C17.2493 12.8819 17.292 12.9014 17.301 12.9771C17.316 13.0971 17.1263 13.3941 16.833 13.7046ZM5.994 15.3959C6.16875 15.6449 6.57075 16.0664 6.6315 16.0664C6.69375 16.0664 6.64125 15.6494 6.528 15.2136C6.42375 14.8161 6.41475 14.6249 6.495 14.5439C6.5565 14.4816 6.765 14.4674 6.84975 14.5244C6.88275 14.5439 6.92025 14.8169 6.94875 15.2286C7.00125 15.9801 7.03875 16.1189 7.2225 16.2381C7.341 16.3199 7.35 16.3199 7.407 16.2434C7.4355 16.1999 7.4685 16.0229 7.47375 15.8459C7.48725 15.3719 7.60125 15.1611 7.80375 15.2286C7.9605 15.2759 7.97475 15.4724 7.85625 15.8459C7.719 16.2809 7.69575 16.5974 7.75725 17.0234C7.84725 17.6031 8.06475 18.1199 8.17275 18.0096C8.19675 17.9909 8.21025 17.3444 8.2155 16.5786C8.22 15.3816 8.22975 15.1424 8.301 14.9174C8.433 14.5049 8.4615 14.4861 8.98125 14.4861C9.837 14.4861 11.4255 14.7164 11.6378 14.8686C11.865 15.0321 11.8177 15.0899 11.3685 15.2331C10.3898 15.5346 9.91275 15.5924 9.32175 15.4776C9.12825 15.4386 8.95275 15.4154 8.934 15.4251C8.91525 15.4341 8.934 15.5444 8.9715 15.6689C9.09 16.0566 9.057 16.2959 8.778 17.1479C8.63175 17.5836 8.4945 18.0914 8.47575 18.2729C8.457 18.4551 8.4045 18.6366 8.376 18.6749C8.253 18.8234 8.1165 18.7566 7.89375 18.4454C7.6155 18.0629 7.17525 17.6414 6.92025 17.5071C6.8115 17.4494 6.45225 17.3444 6.126 17.2671C5.54025 17.1336 5.35125 17.0421 5.42175 16.9281C5.44575 16.8846 5.54925 16.8801 5.7765 16.8989C6.192 16.9424 6.22575 16.8846 5.94675 16.6214C5.64252 16.3513 5.29389 16.1359 4.91625 15.9846C4.5615 15.8414 4.5 15.7934 4.5 15.6786C4.5 15.5871 4.632 15.4911 4.76025 15.4911C4.80225 15.4911 4.992 15.6209 5.17575 15.7836C5.5635 16.1136 5.83275 16.2719 5.97975 16.2486C6.24975 16.2096 5.92725 15.5826 5.42175 15.1611C5.23725 15.0081 5.058 14.8214 5.01975 14.7494C4.95825 14.6294 4.95825 14.6159 5.04375 14.5536C5.1222 14.508 5.21286 14.4878 5.30325 14.4959C5.45025 14.5109 5.48325 14.5394 5.658 14.8454C5.76225 15.0321 5.913 15.2804 5.994 15.3959ZM12.7725 7.17588C13.014 7.13838 13.065 7.33413 13.065 7.32963C13.1932 7.65963 13.1175 8.07213 13.1175 8.07213C12.9472 8.03838 12.8197 7.82763 12.8197 7.82763C12.7207 7.59288 12.7725 7.17663 12.7725 7.17663V7.17588ZM9.3645 8.54088C9.3645 8.54088 9.72825 8.74188 9.8655 8.95713C9.8655 8.95713 9.96 9.18213 9.88875 9.34488C9.88875 9.34488 9.51075 9.16788 9.32175 8.87088C9.32175 8.87613 9.19875 8.71788 9.3645 8.54088Z" fill="white"/>
</svg>
