<svg width="24" height="24" fill="none" xmlns="http://www.w3.org/2000/svg"><path fill-rule="evenodd" clip-rule="evenodd" d="M7.447 13.948c-.085.06-.143.105-.206.142-.862.495-1.728.985-2.586 1.486-.177.103-.324.12-.506.013-.35-.206-.727-.25-1.127-.159-.81.185-1.364 1.089-1.153 1.899.23.883 1.121 1.404 1.957 1.143.719-.224 1.085-.728 1.133-1.464a.52.52 0 0 1 .296-.47c.96-.542 1.912-1.095 2.863-1.651a.52.52 0 0 1 .535-.03c.445.209.931.302 1.406.194.428-.097.785-.034 1.163.162.204.105.271.218.27.437a308.39 308.39 0 0 0 .001 4.428c.003.278-.073.445-.315.601-.717.463-.894 1.436-.42 2.149a1.57 1.57 0 0 0 2.168.451 1.563 1.563 0 0 0-.052-2.66c-.132-.08-.238-.151-.237-.337.006-1.518.006-3.036 0-4.553 0-.166.066-.24.221-.269.26-.046.523-.09.778-.159.232-.063.445-.069.677.022a1.935 1.935 0 0 0 1.744-.13c.182-.104.322-.095.5.011.757.447 1.518.886 2.285 1.313.227.127.33.28.333.55.01.706.616 1.357 1.31 1.446.717.092 1.37-.26 1.674-.9a1.565 1.565 0 0 0-.356-1.803c-.491-.469-1.211-.56-1.84-.212-.176.098-.312.09-.48-.009-.721-.425-1.444-.846-2.175-1.254-.2-.11-.269-.217-.206-.452.183-.69.053-1.323-.38-1.902-.296-.397-.557-.82-.839-1.23-.12-.175-.09-.293.099-.4 1.179-.675 2.355-1.354 3.53-2.037.151-.087.276-.097.433-.001.396.241.822.278 1.267.142.707-.217 1.189-.977 1.076-1.704-.122-.783-.807-1.388-1.559-1.376a1.564 1.564 0 0 0-1.56 1.55c-.004.184-.053.31-.222.405-1.208.692-2.413 1.39-3.615 2.09-.145.085-.243.079-.37-.039a3.452 3.452 0 0 0-2.04-.933c-.219-.023-.285-.12-.283-.338.008-1.434.007-2.87-.003-4.304-.001-.252.082-.416.295-.553a1.52 1.52 0 0 0 .64-1.756A1.56 1.56 0 0 0 12.082.39c-.716-.002-1.309.425-1.518 1.097-.22.709.04 1.4.684 1.806.13.082.244.15.244.337-.005 1.576 0 3.152-.01 4.727 0 .1-.088.233-.175.29-.38.248-.773.476-1.163.707-.385.229-.824.33-1.21.12-1.26-.684-2.494-1.416-3.737-2.13-.154-.088-.226-.212-.23-.404-.028-1.12-1.057-1.707-1.844-1.524-.654.152-1.094.519-1.252 1.165-.159.645.037 1.209.564 1.615.526.406 1.113.45 1.703.137.194-.103.34-.102.526.009.619.368 1.247.721 1.871 1.082.435.251.869.505 1.338.779-1.096 1.152-1.209 2.404-.425 3.744Zm15.21-6.998c0 .692-.282 1.237-.863 1.613-.182.117-.248.25-.247.467.008 1.949.008 3.898 0 5.847 0 .224.066.358.258.484.857.558 1.122 1.708.61 2.565-.54.902-1.652 1.234-2.568.75a.463.463 0 0 0-.505.008c-1.714.993-3.429 1.982-5.147 2.968-.175.1-.19.248-.2.419a1.94 1.94 0 0 1-1.534 1.79c-1.125.232-2.205-.55-2.307-1.69-.027-.304-.142-.482-.41-.634a481.215 481.215 0 0 1-4.931-2.842c-.193-.112-.342-.122-.546-.018a1.91 1.91 0 0 1-2.546-.742 1.915 1.915 0 0 1 .61-2.582c.196-.13.27-.278.268-.51a726.781 726.781 0 0 1 0-5.773c0-.234-.07-.381-.27-.51-.687-.439-.984-1.179-.829-2.004.142-.75.725-1.32 1.495-1.486a1.813 1.813 0 0 1 1.318.189c.156.087.281.088.437-.002 1.692-.98 3.385-1.958 5.084-2.925.23-.13.296-.308.31-.543C10.2.742 11.177-.081 12.3.03c.853.087 1.623.852 1.685 1.729.022.314.164.486.426.635 1.641.934 3.277 1.88 4.909 2.83.195.113.35.112.552.012a1.91 1.91 0 0 1 2.785 1.713Z" fill="#2583FF"/><path fill-rule="evenodd" clip-rule="evenodd" d="M7.918 12.247c.005-1.09.876-2.005 1.973-2.028a1.2 1.2 0 0 0 .84-.333c1.254-1.133 2.99-.7 3.85.28.315.358.498.784.59 1.243a.743.743 0 0 0 .356.506c.473.31.737.762.686 1.32-.058.644-.38 1.146-1.032 1.357-.382.122-.771.122-1.132-.078a.563.563 0 0 0-.52-.027c-.838.332-1.653.287-2.429-.183a.66.66 0 0 0-.567-.063 2.044 2.044 0 0 1-2.615-1.994ZM20.74 16.515c.257.007.469.22.46.46-.01.235-.243.446-.486.44a.44.44 0 0 1-.435-.452.435.435 0 0 1 .462-.448ZM11.608 1.925a.451.451 0 0 1 .496-.414c.26.022.437.234.41.494a.46.46 0 0 1-.477.41.478.478 0 0 1-.43-.49ZM20.724 7.402a.43.43 0 0 1-.44-.437c-.005-.267.18-.453.45-.452.252.001.467.209.466.45-.002.245-.213.44-.476.44ZM3.843 6.962c-.004.26-.18.44-.434.441-.278.002-.48-.197-.471-.46.009-.253.214-.436.479-.43.253.008.43.193.426.449ZM12.054 21.516c.253-.004.468.202.466.443a.438.438 0 0 1-.46.444.434.434 0 0 1-.45-.451c0-.24.197-.433.444-.436ZM3.403 16.517a.43.43 0 0 1 .44.436.44.44 0 0 1-.446.462.458.458 0 0 1-.459-.455c.002-.255.198-.442.465-.443Z" fill="#2583FF"/></svg>